# Exported using wow.export v0.2.19
o lowermesaf_LowerMesaF01.obj
v -55.821048736572266 4.785165309906006 -64.27003479003906
v -56.57255935668945 6.783278942108154 -64.16976165771484
v -55.69094467163086 6.783278942108154 -64.47037506103516
v -56.251182556152344 4.785165309906006 -64.24748992919922
v -55.88347625732422 6.783278942108154 -63.31881332397461
v -55.83406066894531 4.785165309906006 -63.73238754272461
v -55.83406066894531 4.785165309906006 -63.73238754272461
v -55.88347625732422 6.783278942108154 -63.31881332397461
v -56.57255935668945 6.783278942108154 -64.16976165771484
v -55.88347625732422 6.783278942108154 -63.31881332397461
v -55.69094467163086 6.783278942108154 -64.47037506103516
v -25.64743995666504 1.4629920721054077 -90.45417022705078
v -26.193742752075195 3.461106061935425 -90.97988891601562
v -25.40966033935547 3.461106061935425 -90.47706604003906
v -42.383888244628906 2.1185569763183594 -79.31156921386719
v -43.13187789916992 4.116671085357666 -79.4354019165039
v -42.20089340209961 4.116671085357666 -79.46512603759766
v -42.80181884765625 2.1185569763183594 -79.41577911376953
v -42.72169876098633 4.116671085357666 -78.420166015625
v -42.55352020263672 2.1185569763183594 -78.80122375488281
v -42.55352020263672 2.1185569763183594 -78.80122375488281
v -42.72169876098633 4.116671085357666 -78.420166015625
v -43.13187789916992 4.116671085357666 -79.4354019165039
v -42.72169876098633 4.116671085357666 -78.420166015625
v -42.20089340209961 4.116671085357666 -79.46512603759766
v -25.93284797668457 1.4629920721054077 -90.77677154541016
v -59.07978057861328 5.827538967132568 -58.38127517700195
v -59.82376480102539 7.825653076171875 -58.23530578613281
v -58.9621467590332 7.825653076171875 -58.58918762207031
v -59.50774002075195 5.827538967132568 -58.33251190185547
v -31.89276885986328 1.5349253416061401 -87.8420181274414
v -32.57765197753906 3.5330393314361572 -88.16722106933594
v -31.674537658691406 3.5330393314361572 -87.9391860961914
v -52.12395095825195 4.297592639923096 -69.9092788696289
v -52.87935256958008 6.295706272125244 -69.97403717041016
v -51.95357131958008 6.295706272125244 -70.07671356201172
v -52.548770904541016 4.297592639923096 -69.9803695678711
v -52.39078140258789 6.295706272125244 -68.9941177368164
v -52.253021240234375 4.297592639923096 -69.3871841430664
v -52.253021240234375 4.297592639923096 -69.3871841430664
v -52.39078140258789 6.295706272125244 -68.9941177368164
v -52.87935256958008 6.295706272125244 -69.97403717041016
v -52.39078140258789 6.295706272125244 -68.9941177368164
v -51.95357131958008 6.295706272125244 -70.07671356201172
v -32.26578903198242 1.5349253416061401 -88.05738830566406
v -32.46319580078125 3.5330393314361572 -87.07826232910156
v -32.196502685546875 1.5349253416061401 -87.398193359375
v -32.196502685546875 1.5349253416061401 -87.398193359375
v -32.46319580078125 3.5330393314361572 -87.07826232910156
v -32.57765197753906 3.5330393314361572 -88.16722106933594
v -32.46319580078125 3.5330393314361572 -87.07826232910156
v -31.674537658691406 3.5330393314361572 -87.9391860961914
v -59.08401870727539 7.825653076171875 -57.42802047729492
v -59.0599365234375 5.827538967132568 -57.84383010864258
v -37.19505310058594 2.035013437271118 -83.63207244873047
v -37.94076919555664 4.033127307891846 -83.76893615722656
v -37.00940704345703 4.033127307891846 -83.78240203857422
v -37.61110305786133 2.035013437271118 -83.7435531616211
v -37.548370361328125 4.033127307891846 -82.74669647216797
v -37.37356948852539 2.035013437271118 -83.124755859375
v -47.28446578979492 3.1998355388641357 -74.68225860595703
v -48.03861999511719 5.197949409484863 -74.76018524169922
v -47.11118698120117 5.197949409484863 -74.84669494628906
v -47.707977294921875 3.1998355388641357 -74.76075744628906
v -47.56722640991211 5.197949409484863 -73.77188873291016
v -47.42262649536133 3.1998355388641357 -74.16250610351562
v -47.42262649536133 3.1998355388641357 -74.16250610351562
v -47.56722640991211 5.197949409484863 -73.77188873291016
v -48.03861999511719 5.197949409484863 -74.76018524169922
v -47.56722640991211 5.197949409484863 -73.77188873291016
v -47.11118698120117 5.197949409484863 -74.84669494628906
v -37.37356948852539 2.035013437271118 -83.124755859375
v -37.548370361328125 4.033127307891846 -82.74669647216797
v -37.94076919555664 4.033127307891846 -83.76893615722656
v -37.548370361328125 4.033127307891846 -82.74669647216797
v -37.00940704345703 4.033127307891846 -83.78240203857422
v -59.0599365234375 5.827538967132568 -57.84383010864258
v -59.08401870727539 7.825653076171875 -57.42802047729492
v -59.82376480102539 7.825653076171875 -58.23530578613281
v -59.08401870727539 7.825653076171875 -57.42802047729492
v -58.9621467590332 7.825653076171875 -58.58918762207031
v -26.430734634399414 3.461106061935425 -89.91088104248047
v -26.076309204101562 1.4629920721054077 -90.1296615600586
v -26.076309204101562 1.4629920721054077 -90.1296615600586
v -26.430734634399414 3.461106061935425 -89.91088104248047
v -26.193742752075195 3.461106061935425 -90.97988891601562
v -26.430734634399414 3.461106061935425 -89.91088104248047
v -25.40966033935547 3.461106061935425 -90.47706604003906
v -18.967151641845703 1.4629920721054077 -91.07821655273438
v -19.424488067626953 3.461106061935425 -91.68291473388672
v -18.728715896606445 3.461106061935425 -91.06362915039062
v -19.198579788208008 1.4629920721054077 -91.44148254394531
v -19.82579231262207 3.461106061935425 -90.66414642333984
v -19.441505432128906 1.4629920721054077 -90.82478332519531
v -19.441505432128906 1.4629920721054077 -90.82478332519531
v -19.82579231262207 3.461106061935425 -90.66414642333984
v -19.424488067626953 3.461106061935425 -91.68291473388672
v -19.82579231262207 3.461106061935425 -90.66414642333984
v -18.728715896606445 3.461106061935425 -91.06362915039062
v -12.320813179016113 1.4629920721054077 -90.4538803100586
v -12.401382446289062 3.461106061935425 -91.20775604248047
v -12.123944282531738 3.461106061935425 -90.3185806274414
v -12.332087516784668 1.4629920721054077 -90.88446044921875
v -13.270071983337402 3.461106061935425 -90.54119110107422
v -12.857937812805176 1.4629920721054077 -90.48095703125
v -12.857937812805176 1.4629920721054077 -90.48095703125
v -13.270071983337402 3.461106061935425 -90.54119110107422
v -12.401382446289062 3.461106061935425 -91.20775604248047
v -13.270071983337402 3.461106061935425 -90.54119110107422
v -12.123944282531738 3.461106061935425 -90.3185806274414
v -6.753462791442871 1.4629920721054077 -86.64950561523438
v -6.834033012390137 3.461106061935425 -87.40338134765625
v -6.5565948486328125 3.461106061935425 -86.51419830322266
v -6.764738082885742 1.4629920721054077 -87.08008575439453
v -7.702723026275635 3.461106061935425 -86.73681640625
v -7.29058837890625 1.4629920721054077 -86.67658233642578
v -7.29058837890625 1.4629920721054077 -86.67658233642578
v -7.702723026275635 3.461106061935425 -86.73681640625
v -6.834033012390137 3.461106061935425 -87.40338134765625
v -7.702723026275635 3.461106061935425 -86.73681640625
v -6.5565948486328125 3.461106061935425 -86.51419830322266
v -1.3158775568008423 1.4629920721054077 -82.72039031982422
v -1.2313686609268188 3.461106061935425 -83.47383880615234
v -1.1529611349105835 3.461106061935425 -82.54568481445312
v -1.233690857887268 1.4629920721054077 -83.14320373535156
v -2.2237393856048584 3.461106061935425 -83.0110855102539
v -1.8344101905822754 1.4629920721054077 -82.86308288574219
v -1.8344101905822754 1.4629920721054077 -82.86308288574219
v -2.2237393856048584 3.461106061935425 -83.0110855102539
v -1.2313686609268188 3.461106061935425 -83.47383880615234
v -2.2237393856048584 3.461106061935425 -83.0110855102539
v -1.1529611349105835 3.461106061935425 -82.54568481445312
v 3.3262767791748047 1.1525214910507202 -77.96760559082031
v 3.1287662982940674 3.1506354808807373 -78.69959259033203
v 3.541887044906616 3.1506354808807373 -77.86476135253906
v 3.2477831840515137 1.1525214910507202 -78.39111328125
v 2.3750455379486084 3.1506354808807373 -77.90533447265625
v 2.7915279865264893 1.1525214910507202 -77.91031646728516
v 2.7915279865264893 1.1525214910507202 -77.91031646728516
v 2.3750455379486084 3.1506354808807373 -77.90533447265625
v 3.1287662982940674 3.1506354808807373 -78.69959259033203
v 2.3750455379486084 3.1506354808807373 -77.90533447265625
v 3.541887044906616 3.1506354808807373 -77.86476135253906
v -45.483036041259766 4.154906749725342 -76.4089126586914
v -45.427703857421875 4.20056676864624 -76.35882568359375
v -47.342926025390625 4.978707790374756 -74.3734130859375
v -37.544063568115234 3.863312244415283 -83.30091857910156
v -40.484893798828125 3.5890588760375977 -80.92272186279297
v -40.42824172973633 3.5514743328094482 -80.87165832519531
v -37.65700149536133 3.9284470081329346 -83.36829376220703
v -40.480411529541016 3.5049524307250977 -80.92503356933594
v -37.6054573059082 3.7790799140930176 -83.41007995605469
v -42.51734161376953 3.963787078857422 -79.14985656738281
v -42.461097717285156 3.909503936767578 -79.00687408447266
v -42.61142349243164 3.832904815673828 -79.06278991699219
v -32.286338806152344 3.310652017593384 -87.53634643554688
v -35.268226623535156 3.30493426322937 -85.20983123779297
v -35.21247482299805 3.266598701477051 -85.15779113769531
v -32.39808654785156 3.378854990005493 -87.60568237304688
v -35.263702392578125 3.2204782962799072 -85.21206665039062
v -32.34581756591797 3.22477650642395 -87.64656829833984
v -37.331302642822266 3.8711514472961426 -83.47270965576172
v -37.277565002441406 3.8203353881835938 -83.32876586914062
v -37.42689514160156 3.749361276626587 -83.3873062133789
v -26.14081573486328 3.2796804904937744 -90.3427963256836
v -29.62324333190918 3.005427122116089 -88.8673324584961
v -29.58285903930664 2.9678425788879395 -88.80262756347656
v -26.230806350708008 3.344815492630005 -90.4386978149414
v -29.618295669555664 2.921320676803589 -88.86831665039062
v -26.16973876953125 3.195448160171509 -90.46465301513672
v -32.06562423706055 3.380155324935913 -87.7233657836914
v -32.05097198486328 3.3258724212646484 -87.5704116821289
v -32.18006134033203 3.2492733001708984 -87.66560363769531
v -55.94355010986328 6.598934650421143 -63.81292724609375
v -57.86528396606445 6.881860256195068 -60.55543518066406
v -57.79433059692383 6.84271764755249 -60.52744674682617
v -56.072933197021484 6.670435428619385 -63.83648681640625
v -57.86189270019531 6.797028541564941 -60.55916976928711
v -56.03928756713867 6.511292934417725 -63.89368438720703
v -59.14814758300781 7.653904438018799 -58.18306350708008
v -59.04539108276367 7.606814861297607 -58.0688362121582
v -59.20578384399414 7.5418877601623535 -58.06856155395508
v -19.399221420288086 3.207747220993042 -91.0005874633789
v -23.169862747192383 2.9334938526153564 -90.70635986328125
v -23.152095794677734 2.895909309387207 -90.63218688964844
v -19.454133987426758 3.2728819847106934 -91.1200942993164
v -23.164857864379883 2.8493874073028564 -90.70572662353516
v -19.387985229492188 3.1235148906707764 -91.12533569335938
v -25.849016189575195 3.3082220554351807 -90.396484375
v -25.88365364074707 3.253939151763916 -90.24679565429688
v -25.975868225097656 3.177340030670166 -90.3780288696289
v -52.359073638916016 6.015483379364014 -69.50009155273438
v -54.4760856628418 6.035707950592041 -66.36599731445312
v -54.406978607177734 5.997300148010254 -66.33372497558594
v -52.48677444458008 6.083982944488525 -69.53150939941406
v -54.47247314453125 5.951218605041504 -66.36951446533203
v -52.44969940185547 5.929449081420898 -69.58654022216797
v -55.90138626098633 6.620424747467041 -64.07637023925781
v -55.80580139160156 6.569943904876709 -63.95607376098633
v -12.710378646850586 3.207747220993042 -90.64047241210938
v -16.48062515258789 2.9334938526153564 -90.9397201538086
v -16.474679946899414 2.895909309387207 -90.86368560791016
v -12.745922088623047 3.2728819847106934 -90.76708221435547
v -16.475780487060547 2.8493874073028564 -90.93830871582031
v -12.679766654968262 3.1235148906707764 -90.76191711425781
v -19.175270080566406 3.3082220554351807 -91.05277252197266
v -19.23289680480957 3.253939151763916 -90.91033935546875
v -19.30344581604004 3.177340030670166 -91.05438232421875
v -55.965904235839844 6.499513149261475 -63.96559524536133
v -47.61204528808594 5.085943698883057 -74.26605224609375
v -50.35721969604492 5.359163284301758 -71.6644515991211
v -50.29673385620117 5.320047378540039 -71.61799621582031
v -47.72991943359375 5.1573333740234375 -74.3243637084961
v -7.183168888092041 3.207747220993042 -86.8561782836914
v -10.260775566101074 2.9334938526153564 -89.05451202392578
v -10.294841766357422 2.895909309387207 -88.98627471923828
v -7.1484222412109375 3.2728819847106934 -86.98301696777344
v -10.25734806060791 2.8493874073028564 -89.05081176757812
v -7.094378471374512 3.1235148906707764 -86.94451904296875
v -12.512308120727539 3.3082220554351807 -90.53926086425781
v -12.635062217712402 3.253939151763916 -90.44685363769531
v -12.621350288391113 3.177340030670166 -90.60665893554688
v -50.352928161621094 5.274343967437744 -71.66710662841797
v -47.68181228637695 4.998360633850098 -74.37007141113281
v -52.244300842285156 6.124285697937012 -69.73758697509766
v -52.1770133972168 6.077071666717529 -69.5994644165039
v -52.331260681152344 6.0119404792785645 -69.6434097290039
v -1.6158188581466675 3.207747220993042 -83.05180358886719
v -4.693425178527832 2.9334938526153564 -85.25013732910156
v -4.72749137878418 2.895909309387207 -85.18190002441406
v -1.581072211265564 3.2728819847106934 -83.17864227294922
v -4.689997673034668 2.8493874073028564 -85.2464370727539
v -1.5270286798477173 3.1235148906707764 -83.14014434814453
v -6.944957733154297 3.3082220554351807 -86.7348861694336
v -7.067712306976318 3.253939151763916 -86.6424789428711
v -7.053999423980713 3.177340030670166 -86.80228424072266
v -42.697208404541016 3.9375691413879395 -78.95963287353516
v -45.487369537353516 4.239763259887695 -76.40633392333984
v -42.814048767089844 4.0092902183532715 -79.01998901367188
v -42.76515197753906 3.849808931350708 -79.06484985351562
v 2.921299695968628 2.993858814239502 -78.09598541259766
v 0.39245039224624634 2.9334938526153564 -80.90831756591797
v 0.34442251920700073 2.895909309387207 -80.84906768798828
v 2.982675552368164 3.0589935779571533 -78.21229553222656
v 0.3949950039386749 2.8493874073028564 -80.90396118164062
v 3.027104616165161 2.9096262454986572 -78.16300201416016
v -1.4843533039093018 3.3082220554351807 -82.8451919555664
v -1.6241986751556396 3.253939151763916 -82.78153991699219
v -1.5762234926223755 3.177340030670166 -82.9345932006836
v -47.40779495239258 5.025547981262207 -74.5126953125
v -47.49638748168945 4.914183139801025 -74.42005157470703
v 8.963471412658691 2.8972766399383545 -75.2178955078125
v 5.579861164093018 2.623023271560669 -76.90771484375
v 5.556889533996582 2.5854387283325195 -76.83499145507812
v 8.977948188781738 2.962411403656006 -75.3486099243164
v 5.58382511138916 2.538916826248169 -76.90459442138672
v 9.037349700927734 2.813044309616089 -75.31903839111328
v 3.1237823963165283 2.997751474380493 -78.02197265625
v 3.0169951915740967 2.9434685707092285 -77.9114990234375
v 3.005540370941162 2.8668694496154785 -78.07147979736328
vn 0.3087717294692993 -0.05239515379071236 -0.9496919512748718
vn -0.5939584970474243 0.42042240500450134 -0.6858996748924255
vn 0.8247134685516357 0.4237467646598816 -0.37454816699028015
vn -0.9016773700714111 -0.12896834313869476 -0.412728875875473
vn 0.1854892075061798 0.7179290652275085 0.6709482669830322
vn 0.8224021792411804 -0.14894352853298187 0.5490632653236389
vn 0.8224021792411804 -0.14894352853298187 0.5490632653236389
vn 0.1854892075061798 0.7179290652275085 0.6709482669830322
vn -0.5939584970474243 0.42042240500450134 -0.6858996748924255
vn 0.1854892075061798 0.7179290652275085 0.6709482669830322
vn 0.8247134685516357 0.4237467646598816 -0.37454816699028015
vn 0.9354531764984131 -0.05239361152052879 -0.34954574704170227
vn 0.1670464724302292 0.4204248785972595 -0.8918174505233765
vn 0.806519091129303 0.42374712228775024 0.4122685492038727
vn 0.5729474425315857 -0.05239257216453552 -0.8179157972335815
vn -0.3674624562263489 0.42042532563209534 -0.8295865654945374
vn 0.898184597492218 0.4237470328807831 -0.11705926060676575
vn -0.7416037917137146 -0.12896564602851868 -0.6583248972892761
vn -0.0187830850481987 0.7179290056228638 0.695862889289856
vn 0.6259366273880005 -0.1489444077014923 0.7655187249183655
vn 0.6259366273880005 -0.1489444077014923 0.7655187249183655
vn -0.0187830850481987 0.7179290056228638 0.695862889289856
vn -0.3674624562263489 0.42042532563209534 -0.8295865654945374
vn -0.0187830850481987 0.7179290056228638 0.695862889289856
vn 0.898184597492218 0.4237470328807831 -0.11705926060676575
vn -0.2383001148700714 -0.12896709144115448 -0.9625905156135559
vn 0.25021541118621826 -0.05239555239677429 -0.9667714238166809
vn -0.6347241401672363 0.4204244017601013 -0.6483584046363831
vn 0.80030757188797 0.42374593019485474 -0.4242017865180969
vn -0.9251934289932251 -0.1289670616388321 -0.3569098114967346
vn 0.7761980891227722 -0.05239393189549446 -0.6283083558082581
vn -0.12456551939249039 0.42042502760887146 -0.8987358808517456
vn 0.895656943321228 0.42374640703201294 0.13504664599895477
vn 0.5070034861564636 -0.05239489674568176 -0.8603500723838806
vn -0.43142351508140564 0.420423686504364 -0.7981964945793152
vn 0.8862310647964478 0.423747181892395 -0.18717063963413239
vn -0.790972888469696 -0.12896728515625 -0.5981048345565796
vn 0.03587394207715988 0.7179279923439026 0.6951923966407776
vn 0.6840704083442688 -0.14894182980060577 0.7140476107597351
vn 0.6840704083442688 -0.14894182980060577 0.7140476107597351
vn 0.03587394207715988 0.7179279923439026 0.6951923966407776
vn -0.43142351508140564 0.420423686504364 -0.7981964945793152
vn 0.03587394207715988 0.7179279923439026 0.6951923966407776
vn 0.8862310647964478 0.423747181892395 -0.18717063963413239
vn -0.5314203500747681 -0.12896594405174255 -0.8372336626052856
vn -0.20986056327819824 0.7179282903671265 0.6637299656867981
vn 0.39068546891212463 -0.14894412457942963 0.908394455909729
vn 0.39068546891212463 -0.14894412457942963 0.908394455909729
vn -0.20986056327819824 0.7179282903671265 0.6637299656867981
vn -0.12456551939249039 0.42042502760887146 -0.8987358808517456
vn -0.20986056327819824 0.7179282903671265 0.6637299656867981
vn 0.895656943321228 0.42374640703201294 0.13504664599895477
vn 0.2261052131652832 0.7179272770881653 0.6583744287490845
vn 0.8543900847434998 -0.14894473552703857 0.4978283643722534
vn 0.5871282815933228 -0.05239544436335564 -0.8077964782714844
vn -0.3529350161552429 0.42042186856269836 -0.8358721733093262
vn 0.9000909328460693 0.4237469732761383 -0.10136502236127853
vn -0.7300087213516235 -0.12896889448165894 -0.6711589097976685
vn -0.03092462755739689 0.7179285287857056 0.6954295635223389
vn 0.6124799847602844 -0.14894355833530426 0.7763273119926453
vn 0.5219439268112183 -0.05239199101924896 -0.8513692617416382
vn -0.4174240827560425 0.420425683259964 -0.8056049942970276
vn 0.8893624544143677 0.4237474203109741 -0.17167580127716064
vn -0.7804114818572998 -0.1289653778076172 -0.611821711063385
vn 0.023734617978334427 0.7179282307624817 0.6957123875617981
vn 0.6715047359466553 -0.14894475042819977 0.7258765697479248
vn 0.6715047359466553 -0.14894475042819977 0.7258765697479248
vn 0.023734617978334427 0.7179282307624817 0.6957123875617981
vn -0.4174240827560425 0.420425683259964 -0.8056049942970276
vn 0.023734617978334427 0.7179282307624817 0.6957123875617981
vn 0.8893624544143677 0.4237474203109741 -0.17167580127716064
vn 0.6124799847602844 -0.14894355833530426 0.7763273119926453
vn -0.03092462755739689 0.7179285287857056 0.6954295635223389
vn -0.3529350161552429 0.42042186856269836 -0.8358721733093262
vn -0.03092462755739689 0.7179285287857056 0.6954295635223389
vn 0.9000909328460693 0.4237469732761383 -0.10136502236127853
vn 0.8543900847434998 -0.14894473552703857 0.4978283643722534
vn 0.2261052131652832 0.7179272770881653 0.6583744287490845
vn -0.6347241401672363 0.4204244017601013 -0.6483584046363831
vn 0.2261052131652832 0.7179272770881653 0.6583744287490845
vn 0.80030757188797 0.42374593019485474 -0.4242017865180969
vn -0.40962180495262146 0.717927098274231 0.5628415942192078
vn 0.08225240558385849 -0.1489424705505371 0.9854190349578857
vn 0.08225240558385849 -0.1489424705505371 0.9854190349578857
vn -0.40962180495262146 0.717927098274231 0.5628415942192078
vn 0.1670464724302292 0.4204248785972595 -0.8918174505233765
vn -0.40962180495262146 0.717927098274231 0.5628415942192078
vn 0.806519091129303 0.42374712228775024 0.4122685492038727
vn 0.9786161184310913 -0.05239541083574295 -0.1989101767539978
vn 0.3044982850551605 0.42042306065559387 -0.8547077178955078
vn 0.7320998311042786 0.42374590039253235 0.5333566069602966
vn -0.0847882553935051 -0.12896962463855743 -0.9880170822143555
vn -0.4926259517669678 0.7179272770881653 0.4918333888053894
vn -0.07290758192539215 -0.14894451200962067 0.9861541390419006
vn -0.07290758192539215 -0.14894451200962067 0.9861541390419006
vn -0.4926259517669678 0.7179272770881653 0.4918333888053894
vn 0.3044982850551605 0.42042306065559387 -0.8547077178955078
vn -0.4926259517669678 0.7179272770881653 0.4918333888053894
vn 0.7320998311042786 0.42374590039253235 0.5333566069602966
vn 0.9412837624549866 -0.05239363759756088 0.3335263133049011
vn 0.7012127041816711 0.4204232096672058 -0.5757994651794434
vn 0.35283005237579346 0.4237488806247711 0.834234893321991
vn 0.43619194626808167 -0.12896668910980225 -0.89056396484375
vn -0.6755742430686951 0.7179292440414429 0.16786019504070282
vn -0.5704047679901123 -0.14894188940525055 0.8077467083930969
vn -0.5704047679901123 -0.14894188940525055 0.8077467083930969
vn -0.6755742430686951 0.7179292440414429 0.16786019504070282
vn 0.7012127041816711 0.4204232096672058 -0.5757994651794434
vn -0.6755742430686951 0.7179292440414429 0.16786019504070282
vn 0.35283005237579346 0.4237488806247711 0.834234893321991
vn 0.9412839412689209 -0.05239371582865715 0.33352574706077576
vn 0.701212465763092 0.4204229414463043 -0.5758000016212463
vn 0.35283011198043823 0.4237489402294159 0.8342348337173462
vn 0.4361916482448578 -0.12896673381328583 -0.8905640840530396
vn -0.6755741238594055 0.7179293632507324 0.16786009073257446
vn -0.5704047083854675 -0.14894209802150726 0.8077467083930969
vn -0.5704047083854675 -0.14894209802150726 0.8077467083930969
vn -0.6755741238594055 0.7179293632507324 0.16786009073257446
vn 0.701212465763092 0.4204229414463043 -0.5758000016212463
vn -0.6755741238594055 0.7179293632507324 0.16786009073257446
vn 0.35283011198043823 0.4237489402294159 0.8342348337173462
vn 0.8467831611633301 -0.05239472910761833 0.5293515920639038
vn 0.809217095375061 0.4204231798648834 -0.41038039326667786
vn 0.16390469670295715 0.42374691367149353 0.8908275961875916
vn 0.6186051964759827 -0.12896807491779327 -0.7750450372695923
vn -0.6958943009376526 0.7179270386695862 0.01766086183488369
vn -0.7317116856575012 -0.14894410967826843 0.6651418805122375
vn -0.7317116856575012 -0.14894410967826843 0.6651418805122375
vn -0.6958943009376526 0.7179270386695862 0.01766086183488369
vn 0.809217095375061 0.4204231798648834 -0.41038039326667786
vn -0.6958943009376526 0.7179270386695862 0.01766086183488369
vn 0.16390469670295715 0.42374691367149353 0.8908275961875916
vn 0.9818705320358276 -0.05239509418606758 0.1821676641702652
vn 0.6025036573410034 0.4204234182834625 -0.6784051060676575
vn 0.4789959788322449 0.42374569177627563 0.7687668204307556
vn 0.2915036082267761 -0.12896817922592163 -0.9478358626365662
vn -0.6409968137741089 0.7179288268089294 0.27147969603538513
vn -0.4370138347148895 -0.14894509315490723 0.8870368003845215
vn -0.4370138347148895 -0.14894509315490723 0.8870368003845215
vn -0.6409968137741089 0.7179288268089294 0.27147969603538513
vn 0.6025036573410034 0.4204234182834625 -0.6784051060676575
vn -0.6409968137741089 0.7179288268089294 0.27147969603538513
vn 0.4789959788322449 0.42374569177627563 0.7687668204307556
vn -0.1088934913277626 -0.9855344891548157 0.12986117601394653
vn 0.7099470496177673 0.05438881739974022 0.7021517157554626
vn 0.7296153903007507 0.0598786398768425 0.6812311410903931
vn 0.638225257396698 0.0696924477815628 0.7666886448860168
vn -0.0237941462546587 0.9973408579826355 -0.06888456642627716
vn 0.6600507497787476 0.05860394239425659 0.7489316463470459
vn -0.39557531476020813 0.8535972833633423 -0.3389570116996765
vn 0.0012974352575838566 -0.9995033740997314 0.03148597851395607
vn -0.2667418420314789 -0.8745130896568298 -0.4050625264644623
vn -0.2839772403240204 0.81790691614151 -0.500385046005249
vn 0.680438220500946 0.06796254217624664 0.7296470999717712
vn -0.39225009083747864 -0.8709436655044556 -0.2959679663181305
vn 0.6285858750343323 0.06991802901029587 0.7745910286903381
vn 0.03042808175086975 0.9929616451263428 -0.11446081846952438
vn 0.6497100591659546 0.05683960020542145 0.7580541968345642
vn -0.3424474596977234 0.8575792908668518 -0.3837805986404419
vn -0.05472493916749954 -0.9957119226455688 0.07458516955375671
vn -0.3072011470794678 -0.8768784403800964 -0.3697454631328583
vn -0.23344774544239044 0.8071058988571167 -0.5422934889793396
vn 0.6707994937896729 0.0643773227930069 0.7388393878936768
vn -0.43434762954711914 -0.8605838418006897 -0.2659653425216675
vn 0.40217354893684387 0.06968891620635986 0.9129073619842529
vn -0.0038847026880830526 0.9973404407501221 -0.07278032600879669
vn 0.4280487298965454 0.05861678719520569 0.9018527269363403
vn -0.28683140873908997 0.8535826206207275 -0.4348844587802887
vn -0.007428520824760199 -0.9995033144950867 0.0306263230741024
vn -0.1447548270225525 -0.8745181560516357 -0.46288660168647766
vn -0.1350538730621338 0.8179030418395996 -0.5592808723449707
vn 0.4529606103897095 0.0679614320397377 0.8889364004135132
vn -0.2954765856266022 -0.8709421157836914 -0.39262375235557556
vn 0.8713557720184326 0.0696144551038742 0.48568809032440186
vn 0.01903487928211689 0.9828749895095825 -0.1832878291606903
vn 0.8841031193733215 0.05455595999956131 0.4640962481498718
vn -0.42782965302467346 0.8564456105232239 -0.28889909386634827
vn -0.06347306072711945 -0.9863463640213013 0.15196046233177185
vn -0.4541120231151581 -0.8739225268363953 -0.17332541942596436
vn -0.390853613615036 0.7912551760673523 -0.4702645242214203
vn 0.896793007850647 0.06016996130347252 0.43833985924720764
vn -0.5338316559791565 -0.8448350429534912 -0.03574174642562866
vn 0.09172216057777405 0.06967563927173615 0.9933440089225769
vn 0.01940615475177765 0.9973419308662415 -0.07023133337497711
vn 0.11976590007543564 0.05859958007931709 0.9910712242126465
vn -0.13401710987091064 0.853600800037384 -0.5033935308456421
vn -0.016767090186476707 -0.9995032548904419 0.026685230433940887
vn 0.009600600227713585 -0.874513566493988 -0.4849059581756592
vn 0.04939073696732521 0.8179141283035278 -0.573216438293457
vn 0.1474897563457489 0.06795919686555862 0.9867260456085205
vn -0.15562555193901062 -0.8709390759468079 -0.46609631180763245
vn 0.8374432325363159 0.06991233676671982 0.5420342087745667
vn -0.003024095669388771 0.9922781586647034 -0.12399547547101974
vn 0.8523460030555725 0.05664582550525665 0.5199014544487
vn -0.44110846519470215 0.857706606388092 -0.26412633061408997
vn -0.03286857157945633 -0.9950897097587585 0.09335993230342865
vn -0.40964823961257935 -0.8768494725227356 -0.2516412138938904
vn -0.38697779178619385 0.8058446049690247 -0.4481770694255829
vn 0.8664839863777161 0.06402376294136047 0.4950823187828064
vn -0.06480026245117188 0.06967782974243164 0.9954626560211182
vn 0.030157294124364853 0.9973421096801758 -0.06632648408412933
vn -0.036744870245456696 0.058618757873773575 0.9976039528846741
vn -0.05361693352460861 0.853590726852417 -0.5181776881217957
vn -0.02073320560157299 -0.9995028972625732 0.023750297725200653
vn 0.08533777296543121 -0.874518096446991 -0.4774259626865387
vn 0.13845424354076385 0.8179017901420593 -0.5584505796432495
vn -0.008684494532644749 0.06796494126319885 0.9976499080657959
vn -0.08079700917005539 -0.8709458708763123 -0.48469075560569763
vn -0.4984768331050873 -0.8593689203262329 -0.11404360830783844
vn 0.7035996317863464 0.06961901485919952 0.707177996635437
vn 0.06722006946802139 0.983302116394043 -0.16911070048809052
vn 0.7218514084815979 0.05464150384068489 0.689887523651123
vn -0.3331487476825714 0.8565796613693237 -0.3940598666667938
vn -0.5682464241981506 0.0696679949760437 0.8199038505554199
vn 0.0600089356303215 0.9973422288894653 -0.04132036864757538
vn -0.5453012585639954 0.058610644191503525 0.836188554763794
vn 0.22091960906982422 0.8535937666893005 -0.4717755913734436
vn -0.030003605410456657 -0.999502956867218 0.009678063914179802
vn 0.3190459907054901 -0.8745133280754089 -0.3652890920639038
vn 0.4062958359718323 0.8179090023040771 -0.4073677957057953
vn -0.5212711691856384 0.06796298176050186 0.8506805300712585
vn 0.18037916719913483 -0.8709439635276794 -0.45707762241363525
vn -0.10102178156375885 -0.9867462515830994 0.1269896924495697
vn -0.387146532535553 -0.8741123080253601 -0.29333460330963135
vn -0.2473316788673401 0.7918485999107361 -0.5583930611610413
vn 0.7411474585533142 0.060318734496831894 0.6686270236968994
vn -0.501797080039978 -0.8454394340515137 -0.182843878865242
vn -0.5682464838027954 0.06966820359230042 0.8199038505554199
vn 0.0600089356303215 0.9973422288894653 -0.04132036864757538
vn -0.5453012585639954 0.058610644191503525 0.836188554763794
vn 0.22091954946517944 0.8535938262939453 -0.47177550196647644
vn -0.030003622174263 -0.999502956867218 0.009678063914179802
vn 0.31904593110084534 -0.8745133876800537 -0.36528897285461426
vn 0.4062958359718323 0.8179090023040771 -0.4073677957057953
vn -0.5212711691856384 0.06796298176050186 0.8506805300712585
vn 0.18037916719913483 -0.8709439635276794 -0.45707762241363525
vn 0.691535234451294 0.06956686079502106 0.7189850211143494
vn 0.07505804300308228 0.9820147752761841 -0.17324325442314148
vn -0.321572870016098 0.8561785817146301 -0.40441203117370605
vn -0.3868255615234375 -0.8735236525535583 -0.295503705739975
vn -0.7295523285865784 0.0694877877831459 0.6803858280181885
vn 0.08808153867721558 0.9960753917694092 -0.008683343417942524
vn -0.712291419506073 0.06114673987030983 0.6992152333259583
vn 0.35569921135902405 0.8532105684280396 -0.38145747780799866
vn -0.05222102627158165 -0.9985038042068481 -0.016220344230532646
vn 0.3552483916282654 -0.8776153922080994 -0.32185375690460205
vn 0.4848438501358032 0.8179003596305847 -0.30978283286094666
vn -0.6930355429649353 0.06796802580356598 0.7176921963691711
vn 0.2750272750854492 -0.8709481358528137 -0.407196968793869
vn -0.23378923535346985 0.7900569438934326 -0.5667032599449158
vn -0.5030672550201416 -0.8436315059661865 -0.18764109909534454
vn -0.43298855423927307 0.06966598331928253 0.8987032771110535
vn 0.05280453339219093 0.9973422288894653 -0.05020114779472351
vn -0.407779723405838 0.05860748142004013 0.9111974835395813
vn 0.14439703524112701 0.8535934686660767 -0.5005273818969727
vn -0.028120366856455803 -0.999502956867218 0.014248807914555073
vn 0.25797194242477417 -0.8745162487030029 -0.41069674491882324
vn 0.33757084608078003 0.8179036974906921 -0.4659178555011749
vn -0.381778746843338 0.06796614080667496 0.9217513799667358
vn 0.1066531389951706 -0.8709485530853271 -0.4796600043773651
vt 0.5 -0.24600005149841309
vt 0.75 0.3400000333786011
vt 0.5 0.3400000333786011
vt 0.75 -0.24600005149841309
vt 0.5 0.3400000333786011
vt 0.5 -0.24600005149841309
vt 0.75 -0.24600005149841309
vt 0.75 0.3400000333786011
vt 0.75 0.5
vt 0.875 0
vt 0.9995004534721375 0.5
vt 0.5 -0.24600005149841309
vt 0.75 0.3400000333786011
vt 0.5 0.3400000333786011
vt 0.5 -0.24600005149841309
vt 0.75 0.3400000333786011
vt 0.5 0.3400000333786011
vt 0.75 -0.24600005149841309
vt 0.5 0.3400000333786011
vt 0.5 -0.24600005149841309
vt 0.75 -0.24600005149841309
vt 0.75 0.3400000333786011
vt 0.75 0.5
vt 0.875 0
vt 0.9995004534721375 0.5
vt 0.75 -0.24600005149841309
vt 0.5 -0.24600005149841309
vt 0.75 0.3400000333786011
vt 0.5 0.3400000333786011
vt 0.75 -0.24600005149841309
vt 0.5 -0.24600005149841309
vt 0.75 0.3400000333786011
vt 0.5 0.3400000333786011
vt 0.5 -0.24600005149841309
vt 0.75 0.3400000333786011
vt 0.5 0.3400000333786011
vt 0.75 -0.24600005149841309
vt 0.5 0.3400000333786011
vt 0.5 -0.24600005149841309
vt 0.75 -0.24600005149841309
vt 0.75 0.3400000333786011
vt 0.75 0.5
vt 0.875 0
vt 0.9995004534721375 0.5
vt 0.75 -0.24600005149841309
vt 0.5 0.3400000333786011
vt 0.5 -0.24600005149841309
vt 0.75 -0.24600005149841309
vt 0.75 0.3400000333786011
vt 0.75 0.5
vt 0.875 0
vt 0.9995004534721375 0.5
vt 0.5 0.3400000333786011
vt 0.5 -0.24600005149841309
vt 0.5 -0.24600005149841309
vt 0.75 0.3400000333786011
vt 0.5 0.3400000333786011
vt 0.75 -0.24600005149841309
vt 0.5 0.3400000333786011
vt 0.5 -0.24600005149841309
vt 0.5 -0.24600005149841309
vt 0.75 0.3400000333786011
vt 0.5 0.3400000333786011
vt 0.75 -0.24600005149841309
vt 0.5 0.3400000333786011
vt 0.5 -0.24600005149841309
vt 0.75 -0.24600005149841309
vt 0.75 0.3400000333786011
vt 0.75 0.5
vt 0.875 0
vt 0.9995004534721375 0.5
vt 0.75 -0.24600005149841309
vt 0.75 0.3400000333786011
vt 0.75 0.5
vt 0.875 0
vt 0.9995004534721375 0.5
vt 0.75 -0.24600005149841309
vt 0.75 0.3400000333786011
vt 0.75 0.5
vt 0.875 0
vt 0.9995004534721375 0.5
vt 0.5 0.3400000333786011
vt 0.5 -0.24600005149841309
vt 0.75 -0.24600005149841309
vt 0.75 0.3400000333786011
vt 0.75 0.5
vt 0.875 0
vt 0.9995004534721375 0.5
vt 0.5 -0.24600005149841309
vt 0.75 0.3400000333786011
vt 0.5 0.3400000333786011
vt 0.75 -0.24600005149841309
vt 0.5 0.3400000333786011
vt 0.5 -0.24600005149841309
vt 0.75 -0.24600005149841309
vt 0.75 0.3400000333786011
vt 0.75 0.5
vt 0.875 0
vt 0.9995004534721375 0.5
vt 0.5 -0.24600005149841309
vt 0.75 0.3400000333786011
vt 0.5 0.3400000333786011
vt 0.75 -0.24600005149841309
vt 0.5 0.3400000333786011
vt 0.5 -0.24600005149841309
vt 0.75 -0.24600005149841309
vt 0.75 0.3400000333786011
vt 0.75 0.5
vt 0.875 0
vt 0.9995004534721375 0.5
vt 0.5 -0.24600005149841309
vt 0.75 0.3400000333786011
vt 0.5 0.3400000333786011
vt 0.75 -0.24600005149841309
vt 0.5 0.3400000333786011
vt 0.5 -0.24600005149841309
vt 0.75 -0.24600005149841309
vt 0.75 0.3400000333786011
vt 0.75 0.5
vt 0.875 0
vt 0.9995004534721375 0.5
vt 0.5 -0.24600005149841309
vt 0.75 0.3400000333786011
vt 0.5 0.3400000333786011
vt 0.75 -0.24600005149841309
vt 0.5 0.3400000333786011
vt 0.5 -0.24600005149841309
vt 0.75 -0.24600005149841309
vt 0.75 0.3400000333786011
vt 0.75 0.5
vt 0.875 0
vt 0.9995004534721375 0.5
vt 0.5 -0.24600005149841309
vt 0.75 0.3400000333786011
vt 0.5 0.3400000333786011
vt 0.75 -0.24600005149841309
vt 0.5 0.3400000333786011
vt 0.5 -0.24600005149841309
vt 0.75 -0.24600005149841309
vt 0.75 0.3400000333786011
vt 0.75 0.5
vt 0.875 0
vt 0.9995004534721375 0.5
vt 0.75 1.5
vt 0.9396135210990906 1.5
vt 0.9396135210990906 4.701643943786621
vt 0.9396135210990906 -2.614053726196289
vt 0.5966183543205261 1.5
vt 0.9396135210990906 1.5
vt 0.5966183543205261 -2.614053726196289
vt 0.75 1.5
vt 0.75 -2.614053726196289
vt 0.5966183543205261 4.701643943786621
vt 0.9396135210990906 4.701643943786621
vt 0.75 4.701643943786621
vt 0.9396135210990906 -2.614053726196289
vt 0.5966183543205261 1.5
vt 0.9396135210990906 1.5
vt 0.5966183543205261 -2.614053726196289
vt 0.75 1.5
vt 0.75 -2.614053726196289
vt 0.5966183543205261 4.701643943786621
vt 0.9396135210990906 4.701643943786621
vt 0.75 4.701643943786621
vt 0.9396135210990906 -2.614053726196289
vt 0.5966183543205261 1.5
vt 0.9396135210990906 1.5
vt 0.5966183543205261 -2.614053726196289
vt 0.75 1.5
vt 0.75 -2.614053726196289
vt 0.5966183543205261 4.701643943786621
vt 0.9396135210990906 4.701643943786621
vt 0.75 4.701643943786621
vt 0.9396135210990906 -2.614053726196289
vt 0.5966183543205261 1.5
vt 0.9396135210990906 1.5
vt 0.5966183543205261 -2.614053726196289
vt 0.75 1.5
vt 0.75 -2.614053726196289
vt 0.5966183543205261 4.701643943786621
vt 0.9396135210990906 4.701643943786621
vt 0.75 4.701643943786621
vt 0.9396135210990906 -2.614053726196289
vt 0.5966183543205261 1.5
vt 0.9396135210990906 1.5
vt 0.5966183543205261 -2.614053726196289
vt 0.75 1.5
vt 0.75 -2.614053726196289
vt 0.5966183543205261 4.701643943786621
vt 0.9396135210990906 4.701643943786621
vt 0.75 4.701643943786621
vt 0.9396135210990906 -2.614053726196289
vt 0.5966183543205261 1.5
vt 0.9396135210990906 1.5
vt 0.5966183543205261 -2.614053726196289
vt 0.75 1.5
vt 0.75 -2.614053726196289
vt 0.5966183543205261 4.701643943786621
vt 0.9396135210990906 4.701643943786621
vt 0.9396135210990906 -2.614053726196289
vt 0.5966183543205261 1.5
vt 0.9396135210990906 1.5
vt 0.5966183543205261 -2.614053726196289
vt 0.75 1.5
vt 0.75 -2.614053726196289
vt 0.5966183543205261 4.701643943786621
vt 0.9396135210990906 4.701643943786621
vt 0.75 4.701643943786621
vt 0.75 4.701643943786621
vt 0.9396135210990906 -2.614053726196289
vt 0.5966183543205261 1.5
vt 0.9396135210990906 1.5
vt 0.5966183543205261 -2.614053726196289
vt 0.9396135210990906 -2.614053726196289
vt 0.5966183543205261 1.5
vt 0.9396135210990906 1.5
vt 0.5966183543205261 -2.614053726196289
vt 0.75 1.5
vt 0.75 -2.614053726196289
vt 0.5966183543205261 4.701643943786621
vt 0.9396135210990906 4.701643943786621
vt 0.75 4.701643943786621
vt 0.75 1.5
vt 0.75 -2.614053726196289
vt 0.5966183543205261 4.701643943786621
vt 0.9396135210990906 4.701643943786621
vt 0.75 4.701643943786621
vt 0.9396135210990906 -2.614053726196289
vt 0.5966183543205261 1.5
vt 0.9396135210990906 1.5
vt 0.5966183543205261 -2.614053726196289
vt 0.75 1.5
vt 0.75 -2.614053726196289
vt 0.5966183543205261 4.701643943786621
vt 0.9396135210990906 4.701643943786621
vt 0.75 4.701643943786621
vt 0.9396135210990906 -2.614053726196289
vt 0.5966183543205261 1.5
vt 0.5966183543205261 -2.614053726196289
vt 0.75 -2.614053726196289
vt 0.9396135210990906 -2.614053726196289
vt 0.5966183543205261 1.5
vt 0.9396135210990906 1.5
vt 0.5966183543205261 -2.614053726196289
vt 0.75 1.5
vt 0.75 -2.614053726196289
vt 0.5966183543205261 4.701643943786621
vt 0.9396135210990906 4.701643943786621
vt 0.75 4.701643943786621
vt 0.5966183543205261 4.701643943786621
vt 0.75 4.701643943786621
vt 0.9396135210990906 -2.614053726196289
vt 0.5966183543205261 1.5
vt 0.9396135210990906 1.5
vt 0.5966183543205261 -2.614053726196289
vt 0.75 1.5
vt 0.75 -2.614053726196289
vt 0.5966183543205261 4.701643943786621
vt 0.9396135210990906 4.701643943786621
vt 0.75 4.701643943786621
g LowerMesaF010
s 1
f 1/1/1 2/2/2 3/3/3
f 1/1/1 4/4/4 2/2/2
f 4/4/4 5/5/5 2/2/2
f 4/4/4 6/6/6 5/5/5
f 7/7/7 3/3/3 8/8/8
f 7/7/7 1/1/1 3/3/3
f 9/9/9 10/10/10 11/11/11
f 12/12/12 13/13/13 14/14/14
f 15/15/15 16/16/16 17/17/17
f 15/15/15 18/18/18 16/16/16
f 18/18/18 19/19/19 16/16/16
f 18/18/18 20/20/20 19/19/19
f 21/21/21 17/17/17 22/22/22
f 21/21/21 15/15/15 17/17/17
f 23/23/23 24/24/24 25/25/25
f 12/12/12 26/26/26 13/13/13
f 27/27/27 28/28/28 29/29/29
f 27/27/27 30/30/30 28/28/28
f 31/31/31 32/32/32 33/33/33
f 34/34/34 35/35/35 36/36/36
f 34/34/34 37/37/37 35/35/35
f 37/37/37 38/38/38 35/35/35
f 37/37/37 39/39/39 38/38/38
f 40/40/40 36/36/36 41/41/41
f 40/40/40 34/34/34 36/36/36
f 42/42/42 43/43/43 44/44/44
f 31/31/31 45/45/45 32/32/32
f 45/45/45 46/46/46 32/32/32
f 45/45/45 47/47/47 46/46/46
f 48/48/48 33/33/33 49/49/49
f 48/48/48 31/31/31 33/33/33
f 50/50/50 51/51/51 52/52/52
f 30/30/30 53/53/53 28/28/28
f 30/30/30 54/54/54 53/53/53
f 55/55/55 56/56/56 57/57/57
f 55/55/55 58/58/58 56/56/56
f 58/58/58 59/59/59 56/56/56
f 58/58/58 60/60/60 59/59/59
f 61/61/61 62/62/62 63/63/63
f 61/61/61 64/64/64 62/62/62
f 64/64/64 65/65/65 62/62/62
f 64/64/64 66/66/66 65/65/65
f 67/67/67 63/63/63 68/68/68
f 67/67/67 61/61/61 63/63/63
f 69/69/69 70/70/70 71/71/71
f 72/72/72 57/57/57 73/73/73
f 72/72/72 55/55/55 57/57/57
f 74/74/74 75/75/75 76/76/76
f 77/77/77 29/29/29 78/78/78
f 77/77/77 27/27/27 29/29/29
f 79/79/79 80/80/80 81/81/81
f 26/26/26 82/82/82 13/13/13
f 26/26/26 83/83/83 82/82/82
f 84/84/84 14/14/14 85/85/85
f 84/84/84 12/12/12 14/14/14
f 86/86/86 87/87/87 88/88/88
f 89/89/89 90/90/90 91/91/91
f 89/89/89 92/92/92 90/90/90
f 92/92/92 93/93/93 90/90/90
f 92/92/92 94/94/94 93/93/93
f 95/95/95 91/91/91 96/96/96
f 95/95/95 89/89/89 91/91/91
f 97/97/97 98/98/98 99/99/99
f 100/100/100 101/101/101 102/102/102
f 100/100/100 103/103/103 101/101/101
f 103/103/103 104/104/104 101/101/101
f 103/103/103 105/105/105 104/104/104
f 106/106/106 102/102/102 107/107/107
f 106/106/106 100/100/100 102/102/102
f 108/108/108 109/109/109 110/110/110
f 111/111/111 112/112/112 113/113/113
f 111/111/111 114/114/114 112/112/112
f 114/114/114 115/115/115 112/112/112
f 114/114/114 116/116/116 115/115/115
f 117/117/117 113/113/113 118/118/118
f 117/117/117 111/111/111 113/113/113
f 119/119/119 120/120/120 121/121/121
f 122/122/122 123/123/123 124/124/124
f 122/122/122 125/125/125 123/123/123
f 125/125/125 126/126/126 123/123/123
f 125/125/125 127/127/127 126/126/126
f 128/128/128 124/124/124 129/129/129
f 128/128/128 122/122/122 124/124/124
f 130/130/130 131/131/131 132/132/132
f 133/133/133 134/134/134 135/135/135
f 133/133/133 136/136/136 134/134/134
f 136/136/136 137/137/137 134/134/134
f 136/136/136 138/138/138 137/137/137
f 139/139/139 135/135/135 140/140/140
f 139/139/139 133/133/133 135/135/135
f 141/141/141 142/142/142 143/143/143
g LowerMesaF011
s 1
f 144/144/144 145/145/145 146/146/146
f 147/147/147 148/148/148 149/149/149
f 147/147/147 150/150/150 148/148/148
f 150/150/150 151/151/151 148/148/148
f 150/150/150 152/152/152 151/151/151
f 152/152/152 149/149/149 151/151/151
f 152/152/152 147/147/147 149/149/149
f 149/149/149 153/153/153 154/154/154
f 149/149/149 148/148/148 153/153/153
f 148/148/148 155/155/155 153/153/153
f 148/148/148 151/151/151 155/155/155
f 151/151/151 154/154/154 155/155/155
f 151/151/151 149/149/149 154/154/154
f 156/156/156 157/157/157 158/158/158
f 156/156/156 159/159/159 157/157/157
f 159/159/159 160/160/160 157/157/157
f 159/159/159 161/161/161 160/160/160
f 161/161/161 158/158/158 160/160/160
f 161/161/161 156/156/156 158/158/158
f 158/158/158 162/162/162 163/163/163
f 158/158/158 157/157/157 162/162/162
f 157/157/157 164/164/164 162/162/162
f 157/157/157 160/160/160 164/164/164
f 160/160/160 163/163/163 164/164/164
f 160/160/160 158/158/158 163/163/163
f 165/165/165 166/166/166 167/167/167
f 165/165/165 168/168/168 166/166/166
f 168/168/168 169/169/169 166/166/166
f 168/168/168 170/170/170 169/169/169
f 170/170/170 167/167/167 169/169/169
f 170/170/170 165/165/165 167/167/167
f 167/167/167 171/171/171 172/172/172
f 167/167/167 166/166/166 171/171/171
f 166/166/166 173/173/173 171/171/171
f 166/166/166 169/169/169 173/173/173
f 169/169/169 172/172/172 173/173/173
f 169/169/169 167/167/167 172/172/172
f 174/174/174 175/175/175 176/176/176
f 174/174/174 177/177/177 175/175/175
f 177/177/177 178/178/178 175/175/175
f 177/177/177 179/179/179 178/178/178
f 179/179/179 176/176/176 178/178/178
f 179/179/179 174/174/174 176/176/176
f 176/176/176 180/180/180 181/181/181
f 176/176/176 175/175/175 180/180/180
f 175/175/175 182/182/182 180/180/180
f 175/175/175 178/178/178 182/182/182
f 178/178/178 181/181/181 182/182/182
f 178/178/178 176/176/176 181/181/181
f 183/183/183 184/184/184 185/185/185
f 183/183/183 186/186/186 184/184/184
f 186/186/186 187/187/187 184/184/184
f 186/186/186 188/188/188 187/187/187
f 188/188/188 185/185/185 187/187/187
f 188/188/188 183/183/183 185/185/185
f 185/185/185 189/189/189 190/190/190
f 185/185/185 184/184/184 189/189/189
f 184/184/184 191/191/191 189/189/189
f 184/184/184 187/187/187 191/191/191
f 187/187/187 190/190/190 191/191/191
f 187/187/187 185/185/185 190/190/190
f 192/192/192 193/193/193 194/194/194
f 192/192/192 195/195/195 193/193/193
f 195/195/195 196/196/196 193/193/193
f 195/195/195 197/197/197 196/196/196
f 197/197/197 194/194/194 196/196/196
f 197/197/197 192/192/192 194/194/194
f 194/194/194 198/198/198 199/199/199
f 200/200/200 201/201/201 202/202/202
f 200/200/200 203/203/203 201/201/201
f 203/203/203 204/204/204 201/201/201
f 203/203/203 205/205/205 204/204/204
f 205/205/205 202/202/202 204/204/204
f 205/205/205 200/200/200 202/202/202
f 202/202/202 206/206/206 207/207/207
f 202/202/202 201/201/201 206/206/206
f 201/201/201 208/208/208 206/206/206
f 201/201/201 204/204/204 208/208/208
f 204/204/204 207/207/207 208/208/208
f 204/204/204 202/202/202 207/207/207
f 194/194/194 193/193/193 198/198/198
f 193/193/193 209/209/209 198/198/198
f 193/193/193 196/196/196 209/209/209
f 196/196/196 199/199/199 209/209/209
f 196/196/196 194/194/194 199/199/199
f 210/210/210 211/211/211 212/212/212
f 210/210/210 213/213/213 211/211/211
f 214/214/214 215/215/215 216/216/216
f 214/214/214 217/217/217 215/215/215
f 217/217/217 218/218/218 215/215/215
f 217/217/217 219/219/219 218/218/218
f 219/219/219 216/216/216 218/218/218
f 219/219/219 214/214/214 216/216/216
f 216/216/216 220/220/220 221/221/221
f 216/216/216 215/215/215 220/220/220
f 215/215/215 222/222/222 220/220/220
f 215/215/215 218/218/218 222/222/222
f 218/218/218 221/221/221 222/222/222
f 218/218/218 216/216/216 221/221/221
f 213/213/213 223/223/223 211/211/211
f 213/213/213 224/224/224 223/223/223
f 224/224/224 212/212/212 223/223/223
f 224/224/224 210/210/210 212/212/212
f 212/212/212 225/225/225 226/226/226
f 212/212/212 211/211/211 225/225/225
f 211/211/211 227/227/227 225/225/225
f 228/228/228 229/229/229 230/230/230
f 228/228/228 231/231/231 229/229/229
f 231/231/231 232/232/232 229/229/229
f 231/231/231 233/233/233 232/232/232
f 233/233/233 230/230/230 232/232/232
f 233/233/233 228/228/228 230/230/230
f 230/230/230 234/234/234 235/235/235
f 230/230/230 229/229/229 234/234/234
f 229/229/229 236/236/236 234/234/234
f 229/229/229 232/232/232 236/236/236
f 232/232/232 235/235/235 236/236/236
f 232/232/232 230/230/230 235/235/235
f 211/211/211 223/223/223 227/227/227
f 223/223/223 226/226/226 227/227/227
f 223/223/223 212/212/212 226/226/226
f 237/237/237 238/238/238 145/145/145
f 237/237/237 239/239/239 238/238/238
f 239/239/239 144/144/144 238/238/238
f 239/239/239 240/240/240 144/144/144
f 241/241/241 242/242/242 243/243/243
f 241/241/241 244/244/244 242/242/242
f 244/244/244 245/245/245 242/242/242
f 244/244/244 246/246/246 245/245/245
f 246/246/246 243/243/243 245/245/245
f 246/246/246 241/241/241 243/243/243
f 243/243/243 247/247/247 248/248/248
f 243/243/243 242/242/242 247/247/247
f 242/242/242 249/249/249 247/247/247
f 242/242/242 245/245/245 249/249/249
f 245/245/245 248/248/248 249/249/249
f 245/245/245 243/243/243 248/248/248
f 240/240/240 145/145/145 144/144/144
f 240/240/240 237/237/237 145/145/145
f 145/145/145 250/250/250 146/146/146
f 145/145/145 238/238/238 250/250/250
f 238/238/238 251/251/251 250/250/250
f 238/238/238 144/144/144 251/251/251
f 144/144/144 146/146/146 251/251/251
f 252/252/252 253/253/253 254/254/254
f 252/252/252 255/255/255 253/253/253
f 255/255/255 256/256/256 253/253/253
f 255/255/255 257/257/257 256/256/256
f 257/257/257 254/254/254 256/256/256
f 257/257/257 252/252/252 254/254/254
f 254/254/254 258/258/258 259/259/259
f 254/254/254 253/253/253 258/258/258
f 253/253/253 260/260/260 258/258/258
f 253/253/253 256/256/256 260/260/260
f 256/256/256 259/259/259 260/260/260
f 256/256/256 254/254/254 259/259/259
