# Exported using wow.export v0.2.19
o lowermesac_elevator.obj
v 35.72566223144531 -3.9738545417785645 -31.76542854309082
v 36.17207717895508 -2.5897960662841797 -30.80808448791504
v 36.17662048339844 -3.9738545417785645 -30.802547454833984
v 3.0560250282287598 -2.58979868888855 -15.219616889953613
v 3.5484619140625 -2.2701303958892822 -14.248779296875
v 3.082733154296875 -2.270129442214966 -15.247540473937988
v 0.40850645303726196 -2.270129442214966 -20.90742301940918
v -0.057225216180086136 -2.2701303958892822 -21.90618324279785
v 0.3817977011203766 -2.58979868888855 -20.87949562072754
v -0.0839340016245842 -3.973856210708618 -21.878259658813477
v 0.3566456735134125 -3.973856210708618 -20.93737030029297
v 3.0560250282287598 -2.58979868888855 -15.219616889953613
v 0.3817977011203766 -2.58979868888855 -20.87949562072754
v 0.3566456735134125 -3.973856210708618 -20.93737030029297
v 3.5217525959014893 -3.973856210708618 -14.220850944519043
v 39.1515007019043 -2.270127058029175 -25.521018981933594
v 39.61722946166992 -2.270127058029175 -24.52225685119629
v 39.227935791015625 -2.5897953510284424 -25.58062744140625
v 39.712982177734375 -3.973853588104248 -24.54044532775879
v 39.227935791015625 -2.5897953510284424 -25.58062744140625
v 36.17662048339844 -3.9738545417785645 -30.802547454833984
v 36.17207717895508 -2.5897960662841797 -30.80808448791504
v 35.72566223144531 -3.9738545417785645 -31.76542854309082
v 36.17662048339844 -3.9738545417785645 -30.802547454833984
v -0.0839340016245842 -3.973856210708618 -21.878259658813477
v 39.26735305786133 -3.973853588104248 -25.49228286743164
v 39.26735305786133 -3.973853588104248 -25.49228286743164
v 35.629905700683594 -2.270127773284912 -31.74724006652832
v 36.095638275146484 -2.270127773284912 -30.748477935791016
v 3.142911672592163 -3.973856210708618 -15.029891967773438
v 3.5217525959014893 -3.973856210708618 -14.220850944519043
v 3.142911672592163 -3.973856210708618 -15.029891967773438
v 39.712982177734375 -3.973853588104248 -24.54044532775879
v 3.142911672592163 -3.973856210708618 -15.029891967773438
v 0.3566456735134125 -3.973856210708618 -20.93737030029297
v 39.227935791015625 -2.5897953510284424 -25.58062744140625
v 36.17207717895508 -2.5897960662841797 -30.80808448791504
v 3.0560250282287598 -2.58979868888855 -15.219616889953613
v 0.3817977011203766 -2.58979868888855 -20.87949562072754
v 39.712982177734375 -3.973853588104248 -24.54044532775879
v 39.61722946166992 -2.270127058029175 -24.52225685119629
v 3.5217525959014893 -3.973856210708618 -14.220850944519043
v 3.5484619140625 -2.2701303958892822 -14.248779296875
v 35.629905700683594 -2.270127773284912 -31.74724006652832
v -0.057225216180086136 -2.2701303958892822 -21.90618324279785
v 39.61722946166992 -2.270127058029175 -24.52225685119629
v 39.1515007019043 -2.270127058029175 -25.521018981933594
v 3.5484619140625 -2.2701303958892822 -14.248779296875
v 3.082733154296875 -2.270129442214966 -15.247540473937988
v 36.095638275146484 -2.270127773284912 -30.748477935791016
v 0.40850645303726196 -2.270129442214966 -20.90742301940918
v 39.1515007019043 -2.270127058029175 -25.521018981933594
v 39.227935791015625 -2.5897953510284424 -25.58062744140625
v 3.082733154296875 -2.270129442214966 -15.247540473937988
v 3.0560250282287598 -2.58979868888855 -15.219616889953613
v 36.17207717895508 -2.5897960662841797 -30.80808448791504
v 0.3817977011203766 -2.58979868888855 -20.87949562072754
v 39.26735305786133 -3.973853588104248 -25.49228286743164
v 28.23070526123047 -2.5897953510284424 -47.06160354614258
v 28.696435928344727 -3.973853588104248 -46.06283950805664
v 28.270126342773438 -3.973853588104248 -46.9732551574707
v 26.083934783935547 -3.973853588104248 -53.27711486816406
v 26.00749969482422 -2.270127058029175 -53.21750259399414
v 26.549665451049805 -2.5897953510284424 -52.27834701538086
v -4.69073486328125 -3.973856210708618 -32.19082260131836
v -5.131314754486084 -3.973856210708618 -33.131710052490234
v 28.696435928344727 -3.973853588104248 -46.06283950805664
v 28.270126342773438 -3.973853588104248 -46.9732551574707
v -4.638874530792236 -2.270129442214966 -32.1608772277832
v -4.66558313369751 -2.58979868888855 -32.13294982910156
v 26.473228454589844 -2.270127058029175 -52.21874237060547
v 26.549665451049805 -2.5897953510284424 -52.27834701538086
v -1.899249792098999 -2.58979868888855 -26.23357582092285
v -1.8725416660308838 -2.270129442214966 -26.261499404907227
v 28.23070526123047 -2.5897953510284424 -47.06160354614258
v 28.154272079467773 -2.270127058029175 -47.00199508666992
v -5.104605674743652 -2.2701303958892822 -33.159637451171875
v 26.00749969482422 -2.270127058029175 -53.21750259399414
v -1.8725416660308838 -2.270129442214966 -26.261499404907227
v -1.4068127870559692 -2.2701303958892822 -25.262737274169922
v 28.154272079467773 -2.270127058029175 -47.00199508666992
v 28.619998931884766 -2.270127058029175 -46.003231048583984
v 26.083934783935547 -3.973853588104248 -53.27711486816406
v -1.4068127870559692 -2.2701303958892822 -25.262737274169922
v -1.4335224628448486 -3.973856210708618 -25.23480987548828
v 28.619998931884766 -2.270127058029175 -46.003231048583984
v 28.696435928344727 -3.973853588104248 -46.06283950805664
v -4.66558313369751 -2.58979868888855 -32.13294982910156
v -1.899249792098999 -2.58979868888855 -26.23357582092285
v 26.549665451049805 -2.5897953510284424 -52.27834701538086
v 28.23070526123047 -2.5897953510284424 -47.06160354614258
v -1.8123631477355957 -3.973856210708618 -26.04384994506836
v -4.69073486328125 -3.973856210708618 -32.19082260131836
v -1.8123631477355957 -3.973856210708618 -26.04384994506836
v -1.899249792098999 -2.58979868888855 -26.23357582092285
v -1.4335224628448486 -3.973856210708618 -25.23480987548828
v -1.8123631477355957 -3.973856210708618 -26.04384994506836
v -1.4335224628448486 -3.973856210708618 -25.23480987548828
v -1.899249792098999 -2.58979868888855 -26.23357582092285
v 26.473228454589844 -2.270127058029175 -52.21874237060547
v 26.554208755493164 -3.973853588104248 -52.27281188964844
v 28.23070526123047 -2.5897953510284424 -47.06160354614258
v 28.270126342773438 -3.973853588104248 -46.9732551574707
v 26.554208755493164 -3.973853588104248 -52.27281188964844
v 26.549665451049805 -2.5897953510284424 -52.27834701538086
v 28.619998931884766 -2.270127058029175 -46.003231048583984
v 28.154272079467773 -2.270127058029175 -47.00199508666992
v -1.4068127870559692 -2.2701303958892822 -25.262737274169922
v -4.66558313369751 -2.58979868888855 -32.13294982910156
v -5.131314754486084 -3.973856210708618 -33.131710052490234
v -4.69073486328125 -3.973856210708618 -32.19082260131836
v -4.66558313369751 -2.58979868888855 -32.13294982910156
v -5.104605674743652 -2.2701303958892822 -33.159637451171875
v -4.638874530792236 -2.270129442214966 -32.1608772277832
v -1.8725416660308838 -2.270129442214966 -26.261499404907227
v 26.554208755493164 -3.973853588104248 -52.27281188964844
v 30.908403396606445 23.50311279296875 -40.782447814941406
v 32.17958450317383 24.01798439025879 -42.40476989746094
v 33.489933013916016 19.42155647277832 -44.2365608215332
v 31.36574935913086 18.63992691040039 -40.750770568847656
v 33.51420974731445 27.35986328125 -44.99345779418945
v 30.694665908813477 26.02504539489746 -40.59440231323242
v 30.735116958618164 27.35986328125 -40.579349517822266
v 32.17958450317383 24.01798439025879 -42.40476989746094
v 30.908403396606445 23.50311279296875 -40.782447814941406
v 27.000574111938477 23.51055908203125 -38.420528411865234
v 26.891460418701172 24.04332160949707 -39.222389221191406
v 26.527502059936523 26.95652961730957 -37.948394775390625
v 30.930599212646484 26.92283058166504 -39.998817443847656
v 30.694665908813477 26.02504539489746 -40.59440231323242
v 32.9256706237793 25.83930206298828 -35.78951644897461
v 35.1518669128418 23.77052116394043 -36.003387451171875
v 38.27482604980469 27.35986328125 -34.74057388305664
v 37.31290817260742 19.42155647277832 -36.03816604614258
v 33.11542510986328 27.35986328125 -35.45290756225586
v 33.0352897644043 23.32603645324707 -36.2017936706543
v 33.27723693847656 18.63992691040039 -36.65156936645508
v 31.90420913696289 26.84153938293457 -37.90199661254883
v 32.693389892578125 26.77564811706543 -36.2023811340332
v 28.055625915527344 23.42308235168457 -36.148094177246094
v 27.000574111938477 23.51055908203125 -38.420528411865234
v 30.908403396606445 23.50311279296875 -40.782447814941406
v 30.930599212646484 26.92283058166504 -39.998817443847656
v 32.15347671508789 18.63992691040039 -38.664981842041016
v 31.863101959228516 23.42038345336914 -38.32946014404297
v 27.000574111938477 23.51055908203125 -38.420528411865234
v 28.055625915527344 23.42308235168457 -36.148094177246094
v 27.37261390686035 26.88591957092285 -36.12831497192383
v 27.37261390686035 26.88591957092285 -36.12831497192383
v 32.693389892578125 26.77564811706543 -36.2023811340332
v 31.90420913696289 26.84153938293457 -37.90199661254883
v 28.389421463012695 26.80096435546875 -33.93846893310547
v 31.863101959228516 23.42038345336914 -38.32946014404297
v 33.0352897644043 23.32603645324707 -36.2017936706543
v 28.762155532836914 23.36389923095703 -34.626625061035156
v 28.389421463012695 26.80096435546875 -33.93846893310547
v 32.9256706237793 25.83930206298828 -35.78951644897461
v 29.363468170166016 23.83751106262207 -33.89845657348633
v 35.1518669128418 23.77052116394043 -36.003387451171875
v 28.762155532836914 23.36389923095703 -34.626625061035156
v 33.0352897644043 23.32603645324707 -36.2017936706543
v 28.762155532836914 23.36389923095703 -34.626625061035156
v 29.363468170166016 23.83751106262207 -33.89845657348633
v 26.527502059936523 26.95652961730957 -37.948394775390625
v 31.95612335205078 27.35986328125 -37.949684143066406
v 26.891460418701172 24.04332160949707 -39.222389221191406
v 31.36574935913086 18.63992691040039 -40.750770568847656
v 31.49343490600586 10.73386001586914 -40.42558670043945
v 32.15347671508789 18.63992691040039 -38.664981842041016
v 37.525604248046875 20.4755859375 -43.6231575012207
v 39.43709182739258 20.4755859375 -39.52395248413086
v 38.736000061035156 10.733866691589355 -39.359962463378906
v 37.03427505493164 10.73386001586914 -43.00931930541992
v 33.7103271484375 10.650634765625 -36.77783203125
v 33.27723693847656 18.63992691040039 -36.65156936645508
v 37.31290817260742 19.42155647277832 -36.03816604614258
v 33.27723693847656 18.63992691040039 -36.65156936645508
v 33.7103271484375 10.650634765625 -36.77783203125
v 36.858341217041016 10.733866691589355 -36.26295852661133
v 39.43709182739258 20.4755859375 -39.52395248413086
v 37.31290817260742 19.42155647277832 -36.03816604614258
v 36.858341217041016 10.733866691589355 -36.26295852661133
v 38.736000061035156 10.733866691589355 -39.359962463378906
v 32.13064956665039 10.650628089904785 -42.85514831542969
v 33.489933013916016 19.42155647277832 -44.2365608215332
v 34.699954986572266 10.650628089904785 -44.0532341003418
v 31.49343490600586 10.73386001586914 -40.42558670043945
v 31.36574935913086 18.63992691040039 -40.750770568847656
v 34.699954986572266 10.650628089904785 -44.0532341003418
v 37.525604248046875 20.4755859375 -43.6231575012207
v 37.03427505493164 10.73386001586914 -43.00931930541992
v 33.489933013916016 19.42155647277832 -44.2365608215332
v 38.673614501953125 27.35986328125 -44.281131744384766
v 33.489933013916016 19.42155647277832 -44.2365608215332
v 33.51420974731445 27.35986328125 -44.99345779418945
v 38.27482604980469 27.35986328125 -34.74057388305664
v 37.31290817260742 19.42155647277832 -36.03816604614258
v 41.053916931152344 27.35986328125 -39.154685974121094
v 39.43709182739258 20.4755859375 -39.52395248413086
v 38.673614501953125 27.35986328125 -44.281131744384766
v 41.053916931152344 27.35986328125 -39.154685974121094
v 39.43709182739258 20.4755859375 -39.52395248413086
v 37.525604248046875 20.4755859375 -43.6231575012207
v 37.525604248046875 20.4755859375 -43.6231575012207
v 33.51420974731445 27.35986328125 -44.99345779418945
v 30.735116958618164 27.35986328125 -40.579349517822266
v 35.9549446105957 27.95705223083496 -39.80330276489258
v 38.673614501953125 27.35986328125 -44.281131744384766
v 31.95612335205078 27.35986328125 -37.949684143066406
v 33.11542510986328 27.35986328125 -35.45290756225586
v 41.053916931152344 27.35986328125 -39.154685974121094
v 38.27482604980469 27.35986328125 -34.74057388305664
v -7.590936660766602 -17.742794036865234 -25.986080169677734
v -6.56178092956543 -18.352760314941406 -24.739551544189453
v 2.663623809814453 -10.706465721130371 -32.15040588378906
v 1.815574049949646 -10.203840255737305 -33.177574157714844
v 3.580043077468872 -10.166460037231445 -35.39320373535156
v 2.981076717376709 -10.933091163635254 -34.076805114746094
v 0.5144665837287903 -6.859564304351807 -32.37654495239258
v 1.1134328842163086 -6.09293270111084 -33.69293975830078
v 4.140944480895996 -10.166460037231445 -33.97279357910156
v 3.580043077468872 -10.166460037231445 -35.39320373535156
v 1.1134328842163086 -6.09293270111084 -33.69293975830078
v 1.6743338108062744 -6.09293270111084 -32.27252960205078
v 2.981076717376709 -10.933091163635254 -34.076805114746094
v 4.140944480895996 -10.166460037231445 -33.97279357910156
v 1.6743338108062744 -6.09293270111084 -32.27252960205078
v 0.5144665837287903 -6.859564304351807 -32.37654495239258
v -3.694190263748169 -11.310235977172852 -17.47382926940918
v 3.7057886123657227 -7.473690509796143 -17.730628967285156
v 3.0273499488830566 -7.07158899307251 -18.5523624420166
v -2.8320534229278564 -11.783077239990234 -16.36954689025879
v -2.8320534229278564 -11.783077239990234 -16.36954689025879
v 4.332149505615234 -8.456582069396973 -17.96953773498535
v 3.7057886123657227 -7.473690509796143 -17.730628967285156
v -2.095503807067871 -12.93887710571289 -16.650482177734375
v -2.095503807067871 -12.93887710571289 -16.650482177734375
v 3.98610520362854 -8.661937713623047 -19.056264877319336
v 4.332149505615234 -8.456582069396973 -17.96953773498535
v -2.50242280960083 -13.180359840393066 -17.92839813232422
v -2.50242280960083 -13.180359840393066 -17.92839813232422
v 3.145875930786133 -7.805967807769775 -19.488994598388672
v 3.98610520362854 -8.661937713623047 -19.056264877319336
v -3.4904682636260986 -12.173803329467773 -18.4372501373291
v -7.259400367736816 -11.310235977172852 -26.333343505859375
v -0.1282375156879425 -6.438859462738037 -30.713430404663086
v -0.8066771626472473 -6.036757469177246 -31.535165786743164
v 1.9034998416900635 -11.121807098388672 -34.4775276184082
v 1.815574049949646 -10.203840255737305 -33.177574157714844
v 9.58581829071045 -3.4530346393585205 -39.21474838256836
v 10.742042541503906 -3.453033685684204 -41.9499626159668
v 2.805891990661621 -12.191767692565918 -34.25377655029297
v 13.003847122192383 -3.4530375003814697 -42.83071517944336
v 3.2756757736206055 -11.935073852539062 -32.81553649902344
v 13.460064888000488 -3.4530375003814697 -40.80734634399414
v 2.663623809814453 -10.706465721130371 -32.15040588378906
v 11.74083423614502 -3.4530348777770996 -39.046173095703125
v 2.663623809814453 -10.706465721130371 -32.15040588378906
v 11.74083423614502 -3.4530348777770996 -39.046173095703125
v -7.484231948852539 -18.85679817199707 -27.563648223876953
v -7.590936660766602 -17.742794036865234 -25.986080169677734
v 1.815574049949646 -10.203840255737305 -33.177574157714844
v 1.9034998416900635 -11.121807098388672 -34.4775276184082
v -6.389130592346191 -20.155254364013672 -27.292110443115234
v -7.484231948852539 -18.85679817199707 -27.563648223876953
v 1.9034998416900635 -11.121807098388672 -34.4775276184082
v 2.805891990661621 -12.191767692565918 -34.25377655029297
v -5.819022178649902 -19.84374237060547 -25.546724319458008
v -6.389130592346191 -20.155254364013672 -27.292110443115234
v 2.805891990661621 -12.191767692565918 -34.25377655029297
v 3.2756757736206055 -11.935073852539062 -32.81553649902344
v -6.56178092956543 -18.352760314941406 -24.739551544189453
v -5.819022178649902 -19.84374237060547 -25.546724319458008
v 3.2756757736206055 -11.935073852539062 -32.81553649902344
v 2.663623809814453 -10.706465721130371 -32.15040588378906
v -4.11717414855957 -17.742794036865234 -17.322675704956055
v -3.0050175189971924 -18.352760314941406 -15.898149490356445
v 8.570398330688477 -10.706466674804688 -18.269386291503906
v -3.0050175189971924 -18.352760314941406 -15.898149490356445
v 9.353346824645996 -11.935074806213379 -18.56801986694336
v 8.570398330688477 -10.706466674804688 -18.269386291503906
v -2.054865598678589 -19.84374237060547 -16.260560989379883
v -2.054865598678589 -19.84374237060547 -16.260560989379883
v 8.883563995361328 -12.191768646240234 -20.006263732910156
v 9.353346824645996 -11.935074806213379 -18.56801986694336
v -2.579796552658081 -20.155254364013672 -17.909067153930664
v -2.579796552658081 -20.155254364013672 -17.909067153930664
v 7.870508670806885 -11.121808052062988 -20.46734046936035
v 8.883563995361328 -12.191768646240234 -20.006263732910156
v -3.8543732166290283 -18.85679817199707 -18.565488815307617
v -3.8543732166290283 -18.85679817199707 -18.565488815307617
v 7.65395450592041 -10.203841209411621 -19.44322967529297
v 7.870508670806885 -11.121808052062988 -20.46734046936035
v -4.11717414855957 -17.742794036865234 -17.322675704956055
v 7.65395450592041 -10.203841209411621 -19.44322967529297
v 19.925649642944336 -3.4530351161956787 -20.27988624572754
v 17.38584327697754 -3.453035593032837 -21.273645401000977
v 8.570398330688477 -10.706466674804688 -18.269386291503906
v 8.570398330688477 -10.706466674804688 -18.269386291503906
v 22.115671157836914 -3.4530391693115234 -21.031444549560547
v 19.925649642944336 -3.4530351161956787 -20.27988624572754
v 9.353346824645996 -11.935074806213379 -18.56801986694336
v 21.749752044677734 -3.4530394077301025 -22.861160278320312
v 8.883563995361328 -12.191768646240234 -20.006263732910156
v 18.992694854736328 -3.453035354614258 -23.0424861907959
v 7.870508670806885 -11.121808052062988 -20.46734046936035
v -3.4904682636260986 -12.173803329467773 -18.4372501373291
v 3.0273499488830566 -7.07158899307251 -18.5523624420166
v 3.145875930786133 -7.805967807769775 -19.488994598388672
v -3.694190263748169 -11.310235977172852 -17.47382926940918
v 3.0273499488830566 -7.07158899307251 -18.5523624420166
v 10.182612419128418 -3.5050437450408936 -18.773622512817383
v 7.8682732582092285 -3.50504469871521 -19.915048599243164
v 3.7057886123657227 -7.473690509796143 -17.730628967285156
v 12.002842903137207 -3.5050454139709473 -19.204065322875977
v 10.182612419128418 -3.5050437450408936 -18.773622512817383
v 4.332149505615234 -8.456582069396973 -17.96953773498535
v 11.485525131225586 -3.505044460296631 -20.85186004638672
v 12.002842903137207 -3.5050454139709473 -19.204065322875977
v 3.98610520362854 -8.661937713623047 -19.056264877319336
v 9.071067810058594 -3.5050437450408936 -21.301607131958008
v 11.485525131225586 -3.505044460296631 -20.85186004638672
v 3.145875930786133 -7.805967807769775 -19.488994598388672
v 7.8682732582092285 -3.50504469871521 -19.915048599243164
v 9.071067810058594 -3.5050437450408936 -21.301607131958008
v 3.0273499488830566 -7.07158899307251 -18.5523624420166
v 8.221246719360352 -10.93309211730957 -19.277719497680664
v 6.516429901123047 -6.092939853668213 -18.327119827270508
v 5.150604248046875 -6.859564304351807 -18.872798919677734
v 9.587065696716309 -10.16646671295166 -18.732040405273438
v 9.587065696716309 -10.16646671295166 -18.732040405273438
v 5.95552921295166 -6.092939853668213 -19.747526168823242
v 6.516429901123047 -6.092939853668213 -18.327119827270508
v 9.026165008544922 -10.16646671295166 -20.152448654174805
v 9.026165008544922 -10.16646671295166 -20.152448654174805
v 5.150604248046875 -6.859564304351807 -18.872798919677734
v 5.95552921295166 -6.092939853668213 -19.747526168823242
v 8.221246719360352 -10.93309211730957 -19.277719497680664
v 7.65395450592041 -10.203841209411621 -19.44322967529297
v 30.963369369506836 27.74015235900879 -54.530826568603516
v 30.818925857543945 24.42918586730957 -52.788455963134766
v 30.160743713378906 27.13142967224121 -54.75229263305664
v 32.01818084716797 25.86539649963379 -52.58414840698242
v 29.76429557800293 27.77480125427246 -53.9716911315918
v 30.102787017822266 29.70602798461914 -55.095458984375
v 30.594478607177734 28.26249885559082 -53.66677474975586
v 41.29801559448242 24.42918586730957 -28.358963012695312
v 40.105098724365234 25.91875648498535 -28.597286224365234
v 36.60835266113281 25.76266098022461 -35.60464859008789
v 37.784217834472656 24.14451789855957 -35.63612747192383
v 40.66682815551758 26.70956802368164 -29.853837966918945
v 41.95167541503906 25.86539649963379 -29.458356857299805
v 38.63957977294922 25.7039737701416 -36.55182647705078
v 37.85247039794922 27.02044677734375 -35.6679573059082
v 42.26244354248047 27.13142967224121 -26.44556427001953
v 41.44029998779297 27.77480125427246 -26.682159423828125
v 41.775978088378906 28.26249885559082 -27.55887794494629
v 42.63937759399414 27.74015235900879 -27.241296768188477
v 33.60537338256836 -63.25917053222656 -37.501922607421875
v 36.20600891113281 -63.25917053222656 -37.46950149536133
v 36.858341217041016 10.733866691589355 -36.26295852661133
v 33.7103271484375 10.650634765625 -36.77783203125
v 32.009254455566406 -63.25917053222656 -39.555397033691406
v 31.49343490600586 10.73386001586914 -40.42558670043945
v 33.16000747680664 25.76266098022461 -43.091007232666016
v 30.17160987854004 25.91875648498535 -51.72307205200195
v 33.980995178222656 24.14451789855957 -43.97047424316406
v 31.41628074645996 26.70956802368164 -51.34773254394531
v 35.19123840332031 25.7039737701416 -44.038185119628906
v 34.04924392700195 27.02044677734375 -44.00230407714844
v -0.7363340854644775 -6.771130084991455 -32.575130462646484
v 1.949402093887329 -3.5050439834594727 -33.82200241088867
v 2.809483528137207 -3.505042314529419 -35.94351577758789
v -0.014422150328755379 -7.62709903717041 -32.3961296081543
v 2.809483528137207 -3.505042314529419 -35.94351577758789
v 4.815369129180908 -3.5050432682037354 -36.36995315551758
v 0.3614034950733185 -7.421743869781494 -31.245534896850586
v 4.815369129180908 -3.5050432682037354 -36.36995315551758
v 5.379213333129883 -3.5050435066223145 -34.62238311767578
v -0.1282375156879425 -6.438859462738037 -30.713430404663086
v 5.379213333129883 -3.5050435066223145 -34.62238311767578
v 3.9334938526153564 -3.505042314529419 -33.388790130615234
v -0.8066771626472473 -6.036757469177246 -31.535165786743164
v 3.9334938526153564 -3.505042314529419 -33.388790130615234
v 1.949402093887329 -3.5050439834594727 -33.82200241088867
v -7.17668342590332 -12.173803329467773 -27.556264877319336
v -7.259400367736816 -11.310235977172852 -26.333343505859375
v -0.8066771626472473 -6.036757469177246 -31.535165786743164
v -0.7363340854644775 -6.771130084991455 -32.575130462646484
v -6.327767848968506 -13.18035888671875 -27.34576988220215
v -7.17668342590332 -12.173803329467773 -27.556264877319336
v -0.7363340854644775 -6.771130084991455 -32.575130462646484
v -0.014422150328755379 -7.62709903717041 -32.3961296081543
v -5.885824680328369 -12.93887710571289 -25.992755889892578
v -6.327767848968506 -13.18035888671875 -27.34576988220215
v -0.014422150328755379 -7.62709903717041 -32.3961296081543
v 0.3614034950733185 -7.421743869781494 -31.245534896850586
v -6.461604118347168 -11.783076286315918 -25.367042541503906
v -5.885824680328369 -12.93887710571289 -25.992755889892578
v 0.3614034950733185 -7.421743869781494 -31.245534896850586
v -0.1282375156879425 -6.438859462738037 -30.713430404663086
v -6.461604118347168 -11.783076286315918 -25.367042541503906
v 42.469017028808594 29.70602798461914 -26.156641006469727
v 32.61956024169922 -63.25917053222656 -42.08361053466797
v 32.009254455566406 -63.25917053222656 -39.555397033691406
v 31.49343490600586 10.73386001586914 -40.42558670043945
v 32.13064956665039 10.650628089904785 -42.85514831542969
v 34.97671890258789 -63.25917053222656 -43.18277359008789
v 34.699954986572266 10.650628089904785 -44.0532341003418
v 37.30574035644531 -63.25917053222656 -42.02518844604492
v 37.03427505493164 10.73386001586914 -43.00931930541992
v 37.85282516479492 -63.25917053222656 -39.4825439453125
v 38.736000061035156 10.733866691589355 -39.359962463378906
v -0.8066771626472473 -6.036757469177246 -31.535165786743164
vn 0.5843796730041504 -0.3667381703853607 -0.7238808870315552
vn 0.916083037853241 0.38490206003189087 -0.11243783682584763
vn 0.7920680642127991 -0.44683533906936646 -0.41589227318763733
vn -0.8916953802108765 0.45006322860717773 -0.048191897571086884
vn -0.5762970447540283 0.4336952865123749 0.6926688551902771
vn -0.6070688366889954 0.4881995916366577 -0.6269996762275696
vn -0.3306368291378021 0.6109269261360168 0.7193382978439331
vn -0.8776886463165283 0.4752969741821289 -0.061281561851501465
vn -0.40055984258651733 0.33614933490753174 0.852382242679596
vn -0.7198823690414429 -0.6028643846511841 -0.34398239850997925
vn -0.6399686336517334 -0.7075573801994324 0.2996709942817688
vn -0.8916953802108765 0.45006322860717773 -0.048191897571086884
vn -0.40055984258651733 0.33614933490753174 0.852382242679596
vn -0.6399686336517334 -0.7075573801994324 0.2996709942817688
vn -0.34061750769615173 -0.5346230268478394 0.7734066843986511
vn 0.2927410304546356 0.6848118305206299 -0.6673345565795898
vn 0.836513876914978 0.542170524597168 0.07934485375881195
vn 0.6157624125480652 0.2834600806236267 -0.7351782321929932
vn 0.910856306552887 -0.40550994873046875 0.07682760804891586
vn 0.6157624125480652 0.2834600806236267 -0.7351782321929932
vn 0.7920680642127991 -0.44683533906936646 -0.41589227318763733
vn 0.916083037853241 0.38490206003189087 -0.11243783682584763
vn 0.5843796730041504 -0.3667381703853607 -0.7238808870315552
vn 0.7920680642127991 -0.44683533906936646 -0.41589227318763733
vn -0.7198823690414429 -0.6028643846511841 -0.34398239850997925
vn 0.7907708287239075 -0.45070382952690125 -0.41418296098709106
vn 0.7907708287239075 -0.45070382952690125 -0.41418296098709106
vn 0.5427634119987488 0.4901794195175171 -0.6820058822631836
vn 0.5830296874046326 0.5123494863510132 0.6305350065231323
vn -0.6407860517501831 -0.7066547870635986 0.30005374550819397
vn -0.34061750769615173 -0.5346230268478394 0.7734066843986511
vn -0.6407860517501831 -0.7066547870635986 0.30005374550819397
vn 0.910856306552887 -0.40550994873046875 0.07682760804891586
vn -0.6407860517501831 -0.7066547870635986 0.30005374550819397
vn -0.6399686336517334 -0.7075573801994324 0.2996709942817688
vn 0.6157624125480652 0.2834600806236267 -0.7351782321929932
vn 0.916083037853241 0.38490206003189087 -0.11243783682584763
vn -0.8916953802108765 0.45006322860717773 -0.048191897571086884
vn -0.40055984258651733 0.33614933490753174 0.852382242679596
vn 0.910856306552887 -0.40550994873046875 0.07682760804891586
vn 0.836513876914978 0.542170524597168 0.07934485375881195
vn -0.34061750769615173 -0.5346230268478394 0.7734066843986511
vn -0.5762970447540283 0.4336952865123749 0.6926688551902771
vn 0.5427634119987488 0.4901794195175171 -0.6820058822631836
vn -0.8776886463165283 0.4752969741821289 -0.061281561851501465
vn 0.836513876914978 0.542170524597168 0.07934485375881195
vn 0.2927410304546356 0.6848118305206299 -0.6673345565795898
vn -0.5762970447540283 0.4336952865123749 0.6926688551902771
vn -0.6070688366889954 0.4881995916366577 -0.6269996762275696
vn 0.5830296874046326 0.5123494863510132 0.6305350065231323
vn -0.3306368291378021 0.6109269261360168 0.7193382978439331
vn 0.2927410304546356 0.6848118305206299 -0.6673345565795898
vn 0.6157624125480652 0.2834600806236267 -0.7351782321929932
vn -0.6070688366889954 0.4881995916366577 -0.6269996762275696
vn -0.8916953802108765 0.45006322860717773 -0.048191897571086884
vn 0.916083037853241 0.38490206003189087 -0.11243783682584763
vn -0.40055984258651733 0.33614933490753174 0.852382242679596
vn 0.7907708287239075 -0.45070382952690125 -0.41418296098709106
vn 0.6614475250244141 0.4188525974750519 -0.622133195400238
vn 0.9299875497817993 -0.36727550625801086 0.015227524563670158
vn 0.8327965140342712 -0.4457055628299713 -0.32832375168800354
vn 0.5288260579109192 -0.40091362595558167 -0.7480716705322266
vn 0.48032277822494507 0.5381444096565247 -0.6925970315933228
vn 0.9380339980125427 0.298002690076828 -0.1768801212310791
vn -0.6399683952331543 -0.7075574398040771 0.2996714413166046
vn -0.8040715456008911 -0.5424433946609497 -0.2433600127696991
vn 0.9299875497817993 -0.36727550625801086 0.015227524563670158
vn 0.8327965140342712 -0.4457055628299713 -0.32832375168800354
vn -0.20668527483940125 0.6564253568649292 0.7255252599716187
vn -0.5389683842658997 0.4673015773296356 0.7008154392242432
vn 0.7278752326965332 0.6480323672294617 0.22416886687278748
vn 0.9380339980125427 0.298002690076828 -0.1768801212310791
vn -0.9093233942985535 0.41600340604782104 0.008492069318890572
vn -0.7746508121490479 0.5956593751907349 -0.21238186955451965
vn 0.6614475250244141 0.4188525974750519 -0.622133195400238
vn 0.16587525606155396 0.7171304821968079 -0.6769115924835205
vn -0.9006773233413696 0.4344080984592438 -0.00836697407066822
vn 0.48032277822494507 0.5381444096565247 -0.6925970315933228
vn -0.7746508121490479 0.5956593751907349 -0.21238186955451965
vn -0.5159216523170471 0.4785413444042206 0.7105090022087097
vn 0.16587525606155396 0.7171304821968079 -0.6769115924835205
vn 0.8711174130439758 0.49060890078544617 0.021386081352829933
vn 0.5288260579109192 -0.40091362595558167 -0.7480716705322266
vn -0.5159216523170471 0.4785413444042206 0.7105090022087097
vn -0.19897502660751343 -0.5996576547622681 0.7751255631446838
vn 0.8711174130439758 0.49060890078544617 0.021386081352829933
vn 0.9299875497817993 -0.36727550625801086 0.015227524563670158
vn -0.5389683842658997 0.4673015773296356 0.7008154392242432
vn -0.9093233942985535 0.41600340604782104 0.008492069318890572
vn 0.9380339980125427 0.298002690076828 -0.1768801212310791
vn 0.6614475250244141 0.4188525974750519 -0.622133195400238
vn -0.6407861113548279 -0.7066547870635986 0.3000536859035492
vn -0.6399683952331543 -0.7075574398040771 0.2996714413166046
vn -0.6407861113548279 -0.7066547870635986 0.3000536859035492
vn -0.9093233942985535 0.41600340604782104 0.008492069318890572
vn -0.19897502660751343 -0.5996576547622681 0.7751255631446838
vn -0.6407861113548279 -0.7066547870635986 0.3000536859035492
vn -0.19897502660751343 -0.5996576547622681 0.7751255631446838
vn -0.9093233942985535 0.41600340604782104 0.008492069318890572
vn 0.7278752326965332 0.6480323672294617 0.22416886687278748
vn 0.832522988319397 -0.44679024815559387 -0.3275423049926758
vn 0.6614475250244141 0.4188525974750519 -0.622133195400238
vn 0.8327965140342712 -0.4457055628299713 -0.32832375168800354
vn 0.832522988319397 -0.44679024815559387 -0.3275423049926758
vn 0.9380339980125427 0.298002690076828 -0.1768801212310791
vn 0.8711174130439758 0.49060890078544617 0.021386081352829933
vn 0.16587525606155396 0.7171304821968079 -0.6769115924835205
vn -0.5159216523170471 0.4785413444042206 0.7105090022087097
vn -0.5389683842658997 0.4673015773296356 0.7008154392242432
vn -0.8040715456008911 -0.5424433946609497 -0.2433600127696991
vn -0.6399683952331543 -0.7075574398040771 0.2996714413166046
vn -0.5389683842658997 0.4673015773296356 0.7008154392242432
vn -0.9006773233413696 0.4344080984592438 -0.00836697407066822
vn -0.20668527483940125 0.6564253568649292 0.7255252599716187
vn -0.7746508121490479 0.5956593751907349 -0.21238186955451965
vn 0.832522988319397 -0.44679024815559387 -0.3275423049926758
vn -0.7736188769340515 -0.5271931290626526 -0.3515412509441376
vn -0.732555091381073 -0.130727156996727 -0.6680370569229126
vn -0.4951409697532654 -0.04057271033525467 -0.8678647875785828
vn -0.9666566848754883 -0.0369483157992363 -0.25339627265930176
vn -0.48697608709335327 0.546621561050415 -0.6812188625335693
vn -0.8121280074119568 0.21272018551826477 -0.543321430683136
vn -0.7974057197570801 0.6006765961647034 0.0577210858464241
vn -0.732555091381073 -0.130727156996727 -0.6680370569229126
vn -0.7736188769340515 -0.5271931290626526 -0.3515412509441376
vn -0.7179758548736572 -0.6956480145454407 -0.024177471175789833
vn -0.7874895334243774 -0.2612117528915405 -0.5582371354103088
vn -0.8125236630439758 0.4777827262878418 -0.33395954966545105
vn -0.779606282711029 0.626045286655426 0.016772150993347168
vn -0.8121280074119568 0.21272018551826477 -0.543321430683136
vn 0.03503197059035301 0.16053500771522522 0.9864082932472229
vn 0.007385208737105131 -0.23749656975269318 0.9713603258132935
vn 0.17725825309753418 0.47792306542396545 0.8603307604789734
vn 0.3978269398212433 -0.12077759206295013 0.9094759225845337
vn -0.5894538164138794 0.5459350347518921 0.5953983068466187
vn -0.28561168909072876 -0.7047746777534485 0.6493986248970032
vn -0.5671708583831787 -0.04374345764517784 0.8224377036094666
vn -0.5850974321365356 0.753084659576416 0.30087289214134216
vn -0.4966219365596771 0.5810858607292175 0.644752562046051
vn -0.5942878723144531 -0.7655624151229858 0.24644704163074493
vn -0.7179758548736572 -0.6956480145454407 -0.024177471175789833
vn -0.7736188769340515 -0.5271931290626526 -0.3515412509441376
vn -0.779606282711029 0.626045286655426 0.016772150993347168
vn -0.9046850800514221 -0.0683448389172554 0.42056381702423096
vn -0.7895910143852234 -0.5056728720664978 0.347621887922287
vn -0.7179758548736572 -0.6956480145454407 -0.024177471175789833
vn -0.5942878723144531 -0.7655624151229858 0.24644704163074493
vn -0.684810221195221 0.6429874897003174 0.34293150901794434
vn -0.684810221195221 0.6429874897003174 0.34293150901794434
vn -0.4966219365596771 0.5810858607292175 0.644752562046051
vn -0.5850974321365356 0.753084659576416 0.30087289214134216
vn -0.23288345336914062 0.3797164261341095 0.8953104019165039
vn -0.7895910143852234 -0.5056728720664978 0.347621887922287
vn -0.28561168909072876 -0.7047746777534485 0.6493986248970032
vn -0.4674989879131317 -0.7386507391929626 0.48563337326049805
vn -0.23288345336914062 0.3797164261341095 0.8953104019165039
vn 0.03503197059035301 0.16053500771522522 0.9864082932472229
vn 0.06712640076875687 -0.22588267922401428 0.9718390107154846
vn 0.007385208737105131 -0.23749656975269318 0.9713603258132935
vn -0.4674989879131317 -0.7386507391929626 0.48563337326049805
vn -0.28561168909072876 -0.7047746777534485 0.6493986248970032
vn -0.4674989879131317 -0.7386507391929626 0.48563337326049805
vn 0.06712640076875687 -0.22588267922401428 0.9718390107154846
vn -0.8125236630439758 0.4777827262878418 -0.33395954966545105
vn -0.641936182975769 0.7051174640655518 0.30120977759361267
vn -0.7874895334243774 -0.2612117528915405 -0.5582371354103088
vn -0.9666566848754883 -0.0369483157992363 -0.25339627265930176
vn -0.975691020488739 -0.003351062536239624 0.2191251516342163
vn -0.9046850800514221 -0.0683448389172554 0.42056381702423096
vn 0.5610787868499756 -0.10217584669589996 -0.8214320540428162
vn 0.9876105785369873 -0.15279167890548706 0.035778190940618515
vn 0.9609724283218384 -0.013795211911201477 0.27629995346069336
vn 0.8291213512420654 -0.0072220610454678535 -0.559022068977356
vn -0.6483315229415894 -0.005092598032206297 0.7613410949707031
vn -0.5671708583831787 -0.04374345764517784 0.8224377036094666
vn 0.3978269398212433 -0.12077759206295013 0.9094759225845337
vn -0.5671708583831787 -0.04374345764517784 0.8224377036094666
vn -0.6483315229415894 -0.005092598032206297 0.7613410949707031
vn 0.2624325752258301 -0.016031065955758095 0.9648171663284302
vn 0.9876105785369873 -0.15279167890548706 0.035778190940618515
vn 0.3978269398212433 -0.12077759206295013 0.9094759225845337
vn 0.2624325752258301 -0.016031065955758095 0.9648171663284302
vn 0.9609724283218384 -0.013795211911201477 0.27629995346069336
vn -0.802548348903656 0.011129027232527733 -0.5964832901954651
vn -0.4951409697532654 -0.04057271033525467 -0.8678647875785828
vn 0.048453398048877716 -0.008122308179736137 -0.9987924098968506
vn -0.975691020488739 -0.003351062536239624 0.2191251516342163
vn -0.9666566848754883 -0.0369483157992363 -0.25339627265930176
vn 0.048453398048877716 -0.008122308179736137 -0.9987924098968506
vn 0.5610787868499756 -0.10217584669589996 -0.8214320540428162
vn 0.8291213512420654 -0.0072220610454678535 -0.559022068977356
vn -0.4951409697532654 -0.04057271033525467 -0.8678647875785828
vn 0.46716853976249695 0.6448875665664673 -0.6048749089241028
vn -0.4951409697532654 -0.04057271033525467 -0.8678647875785828
vn -0.48697608709335327 0.546621561050415 -0.6812188625335693
vn 0.17725825309753418 0.47792306542396545 0.8603307604789734
vn 0.3978269398212433 -0.12077759206295013 0.9094759225845337
vn 0.7709372043609619 0.6351413130760193 0.04744884371757507
vn 0.9876105785369873 -0.15279167890548706 0.035778190940618515
vn 0.46716853976249695 0.6448875665664673 -0.6048749089241028
vn 0.7709372043609619 0.6351413130760193 0.04744884371757507
vn 0.9876105785369873 -0.15279167890548706 0.035778190940618515
vn 0.5610787868499756 -0.10217584669589996 -0.8214320540428162
vn 0.5610787868499756 -0.10217584669589996 -0.8214320540428162
vn -0.48697608709335327 0.546621561050415 -0.6812188625335693
vn -0.7974057197570801 0.6006765961647034 0.0577210858464241
vn 0.0008200744050554931 0.9999994039535522 0.0007464881055057049
vn 0.46716853976249695 0.6448875665664673 -0.6048749089241028
vn -0.641936182975769 0.7051174640655518 0.30120977759361267
vn -0.5894538164138794 0.5459350347518921 0.5953983068466187
vn 0.7709372043609619 0.6351413130760193 0.04744884371757507
vn 0.17725825309753418 0.47792306542396545 0.8603307604789734
vn -0.5811920166015625 0.8090060949325562 0.08789146691560745
vn 0.289065957069397 0.4632170796394348 0.837777316570282
vn 0.4885835349559784 0.2121223658323288 0.8463392853736877
vn -0.4163874387741089 0.8374373912811279 0.3540058434009552
vn -0.8074218034744263 -0.26995033025741577 -0.5245921015739441
vn -0.8074218034744263 -0.2699504792690277 -0.5245919823646545
vn -0.8074218034744263 -0.26995033025741577 -0.5245921015739441
vn -0.8074218034744263 -0.26995033025741577 -0.5245921015739441
vn 0.7853581309318542 0.23682339489459991 0.5719504356384277
vn 0.7560656070709229 0.582431435585022 -0.29856055974960327
vn 0.7560657262802124 0.5824315547943115 -0.29856011271476746
vn 0.785358190536499 0.2368234097957611 0.571950376033783
vn 0.12503422796726227 -0.3167373836040497 0.9402360916137695
vn 0.7853581309318542 0.23682339489459991 0.5719504356384277
vn 0.785358190536499 0.2368234097957611 0.571950376033783
vn 0.12503422796726227 -0.3167373836040497 0.9402360916137695
vn -0.5344221591949463 0.845169186592102 -0.009054798632860184
vn -0.05344558507204056 0.3658294975757599 0.9291460514068604
vn -0.5701153874397278 0.7511705756187439 -0.3327329158782959
vn -0.062488775700330734 0.38555556535720825 0.9205661416053772
vn -0.062488775700330734 0.38555556535720825 0.9205661416053772
vn 0.5741459727287292 -0.7473915219306946 0.3343087434768677
vn -0.05344558507204056 0.3658294975757599 0.9291460514068604
vn 0.5330655574798584 -0.5843653678894043 0.6118482351303101
vn 0.5330655574798584 -0.5843653678894043 0.6118482351303101
vn 0.24118667840957642 -0.60353684425354 -0.7599817514419556
vn 0.5741459727287292 -0.7473915219306946 0.3343087434768677
vn 0.40030354261398315 -0.7172215580940247 -0.5703948736190796
vn 0.40030354261398315 -0.7172215580940247 -0.5703948736190796
vn -0.31598278880119324 0.14576523005962372 -0.9375005960464478
vn 0.24118667840957642 -0.60353684425354 -0.7599817514419556
vn -0.36267340183258057 0.3527165949344635 -0.8625885248184204
vn -0.5854910016059875 0.8056193590164185 0.09043087065219879
vn 0.5165618658065796 0.12703591585159302 0.8467736840248108
vn -0.4451407790184021 0.8347102999687195 0.3242042362689972
vn -0.7177204489707947 0.2672702372074127 -0.642996072769165
vn -0.4163874387741089 0.8374373912811279 0.3540058434009552
vn -0.6645509600639343 0.7471980452537537 -0.008191595785319805
vn -0.6822154521942139 0.07704488933086395 -0.7270805835723877
vn 0.2178652286529541 -0.7727307677268982 -0.5961726903915405
vn 0.15454140305519104 -0.7819513082504272 -0.603878378868103
vn 0.7278027534484863 -0.6508312225341797 0.21615245938301086
vn 0.7469249367713928 -0.43239396810531616 0.5051124691963196
vn 0.4885835349559784 0.2121223658323288 0.8463392853736877
vn 0.18187399208545685 0.5365427732467651 0.8240410685539246
vn 0.4885835349559784 0.2121223658323288 0.8463392853736877
vn 0.18187399208545685 0.5365427732467651 0.8240410685539246
vn -0.6246072053909302 0.06225041672587395 -0.778454065322876
vn -0.5811920166015625 0.8090060949325562 0.08789146691560745
vn -0.4163874387741089 0.8374373912811279 0.3540058434009552
vn -0.7177204489707947 0.2672702372074127 -0.642996072769165
vn 0.2178654819726944 -0.772730827331543 -0.5961725115776062
vn -0.6246072053909302 0.06225041672587395 -0.778454065322876
vn -0.7177204489707947 0.2672702372074127 -0.642996072769165
vn 0.2178652286529541 -0.7727307677268982 -0.5961726903915405
vn 0.7624238133430481 -0.5055750012397766 0.4038611650466919
vn 0.2178654819726944 -0.772730827331543 -0.5961725115776062
vn 0.2178652286529541 -0.7727307677268982 -0.5961726903915405
vn 0.7278027534484863 -0.6508312225341797 0.21615245938301086
vn 0.289065957069397 0.4632170796394348 0.837777316570282
vn 0.7624238133430481 -0.5055750012397766 0.4038611650466919
vn 0.7278027534484863 -0.6508312225341797 0.21615245938301086
vn 0.4885835349559784 0.2121223658323288 0.8463392853736877
vn -0.5428690314292908 0.839295506477356 -0.029601402580738068
vn -0.06479521095752716 0.3837566077709198 0.9211581945419312
vn 0.08181517571210861 0.16258305311203003 0.9832969903945923
vn -0.06479521095752716 0.3837566077709198 0.9211581945419312
vn 0.5318041443824768 -0.5898209810256958 0.6076969504356384
vn 0.08181517571210861 0.16258305311203003 0.9832969903945923
vn 0.5318042039871216 -0.5898212790489197 0.6076965928077698
vn 0.5318042039871216 -0.5898212790489197 0.6076965928077698
vn 0.3829343914985657 -0.7088887691497803 -0.5923157334327698
vn 0.5318041443824768 -0.5898209810256958 0.6076969504356384
vn 0.38641828298568726 -0.7109735608100891 -0.5875351428985596
vn 0.38641828298568726 -0.7109735608100891 -0.5875351428985596
vn -0.4005891978740692 0.36217620968818665 -0.8416392803192139
vn 0.3829343914985657 -0.7088887691497803 -0.5923157334327698
vn -0.24522024393081665 0.13568773865699768 -0.9599249362945557
vn -0.24522024393081665 0.13568773865699768 -0.9599249362945557
vn -0.4858277142047882 0.8232730031013489 0.29358649253845215
vn -0.4005891978740692 0.36217620968818665 -0.8416392803192139
vn -0.5428690314292908 0.839295506477356 -0.029601402580738068
vn -0.4858277142047882 0.8232730031013489 0.29358649253845215
vn -0.1311701536178589 0.4361969828605652 0.8902396559715271
vn -0.5887242555618286 0.7892958521842957 -0.17440132796764374
vn 0.08181517571210861 0.16258305311203003 0.9832969903945923
vn 0.08181517571210861 0.16258305311203003 0.9832969903945923
vn 0.45754531025886536 -0.485156387090683 0.745168149471283
vn -0.1311701536178589 0.4361969828605652 0.8902396559715271
vn 0.5318041443824768 -0.5898209810256958 0.6076969504356384
vn 0.34935614466667175 -0.7186523675918579 -0.6012395620346069
vn 0.3829343914985657 -0.7088887691497803 -0.5923157334327698
vn -0.3274094760417938 0.16713309288024902 -0.9299836158752441
vn -0.4005891978740692 0.36217620968818665 -0.8416392803192139
vn -0.36267340183258057 0.3527165949344635 -0.8625885248184204
vn -0.5701153874397278 0.7511705756187439 -0.3327329158782959
vn -0.31598278880119324 0.14576523005962372 -0.9375005960464478
vn -0.5344221591949463 0.845169186592102 -0.009054798632860184
vn -0.5701153874397278 0.7511705756187439 -0.3327329158782959
vn -0.05431956425309181 0.330154150724411 0.9423627853393555
vn -0.5784258246421814 0.811525821685791 0.08276086300611496
vn -0.05344558507204056 0.3658294975757599 0.9291460514068604
vn 0.5114078521728516 -0.6587013602256775 0.5518826842308044
vn -0.05431956425309181 0.330154150724411 0.9423627853393555
vn 0.5741459727287292 -0.7473915219306946 0.3343087434768677
vn 0.455483615398407 -0.8060986995697021 -0.3778088390827179
vn 0.5114078521728516 -0.6587013602256775 0.5518826842308044
vn 0.24118667840957642 -0.60353684425354 -0.7599817514419556
vn -0.17685149610042572 -0.14532501995563507 -0.9734496474266052
vn 0.455483615398407 -0.8060986995697021 -0.3778088390827179
vn -0.31598278880119324 0.14576523005962372 -0.9375005960464478
vn -0.5784258246421814 0.811525821685791 0.08276086300611496
vn -0.17685149610042572 -0.14532501995563507 -0.9734496474266052
vn -0.5701153874397278 0.7511705756187439 -0.3327329158782959
vn -0.22646044194698334 -0.263905793428421 0.9375870227813721
vn -0.22646044194698334 -0.263905793428421 0.9375870227813721
vn -0.22646044194698334 -0.263905793428421 0.9375870227813721
vn -0.22646118700504303 -0.26390600204467773 0.937586784362793
vn 0.7485077381134033 0.5936083197593689 -0.295576274394989
vn 0.1888258159160614 0.2370654195547104 -0.9529663324356079
vn 0.7485077381134033 0.5936083197593689 -0.295576274394989
vn 0.1888258308172226 0.23706549406051636 -0.9529662728309631
vn 0.1888258308172226 0.23706549406051636 -0.9529662728309631
vn -0.5356119871139526 -0.3263237774372101 -0.7788662314414978
vn 0.1888258159160614 0.2370654195547104 -0.9529663324356079
vn -0.5356134176254272 -0.32632625102996826 -0.7788642048835754
vn -0.4858277142047882 0.8232730031013489 0.29358649253845215
vn 0.8576340079307556 0.1383175104856491 -0.4953101575374603
vn -0.21902014315128326 -0.8797570466995239 -0.42196887731552124
vn -0.3660973906517029 -0.37676069140434265 -0.8508960604667664
vn 0.9200732707977295 0.09711408615112305 -0.3795181214809418
vn -0.9510033130645752 0.20176716148853302 0.2342706173658371
vn -0.22910186648368835 0.7889847755432129 -0.5701012015342712
vn 0.2513895332813263 0.7890345454216003 0.5605602860450745
vn 0.1550329625606537 -0.8850359916687012 0.4389488697052002
vn -0.8426423668861389 0.2938503623008728 0.45122694969177246
vn -0.892221987247467 0.08611772954463959 0.4433099329471588
vn -0.007244212552905083 -0.9990668296813965 0.04257936030626297
vn 0.15057730674743652 0.9511776566505432 -0.2694207727909088
vn 0.9128994345664978 0.10402976721525192 -0.39470556378364563
vn 0.8566714525222778 0.33486464619636536 -0.39240244030952454
vn -0.209957554936409 0.9683972597122192 0.13462768495082855
vn 0.3792065978050232 -0.387271523475647 0.8403708338737488
vn -0.8270809054374695 0.1888308972120285 0.5294148325920105
vn -0.23500581085681915 0.799907922744751 -0.5521952509880066
vn 0.9468865990638733 0.14972342550754547 -0.28458502888679504
vn -0.34731316566467285 -0.011006733402609825 0.9376845955848694
vn 0.6006404757499695 -0.015780627727508545 0.7993634939193726
vn 0.2624325752258301 -0.016031065955758095 0.9648171663284302
vn -0.6483315229415894 -0.005092598032206297 0.7613410949707031
vn -0.9457738995552063 -0.005161132663488388 0.32478463649749756
vn -0.975691020488739 -0.003351062536239624 0.2191251516342163
vn -0.9410425424575806 0.08540280163288116 0.3273305296897888
vn -0.9093160033226013 0.29776111245155334 0.2906590402126312
vn -0.03397439420223236 -0.9992210865020752 -0.020074550062417984
vn 0.30473339557647705 0.9482961893081665 0.08872360736131668
vn 0.8812808394432068 0.33502474427223206 -0.33332040905952454
vn -0.24623464047908783 0.9672216773033142 0.062054019421339035
vn -0.7355701923370361 0.2427419275045395 -0.6324657201766968
vn -0.5781294703483582 0.7893000245094299 0.20681335031986237
vn -0.5462825894355774 -0.21353036165237427 -0.8099259734153748
vn 0.06336541473865509 -0.7178343534469604 -0.6933243274688721
vn -0.5462825894355774 -0.21353036165237427 -0.8099259734153748
vn 0.37529703974723816 -0.837739884853363 -0.39666616916656494
vn 0.7450047135353088 -0.5422366261482239 0.3885194957256317
vn 0.37529703974723816 -0.837739884853363 -0.39666616916656494
vn 0.7089971303939819 -0.4556497037410736 0.53824383020401
vn 0.5165618658065796 0.12703591585159302 0.8467736840248108
vn 0.7089971303939819 -0.4556497037410736 0.53824383020401
vn 0.1195116713643074 0.5613492131233215 0.8189041614532471
vn -0.4451407790184021 0.8347102999687195 0.3242042362689972
vn 0.1195116713643074 0.5613492131233215 0.8189041614532471
vn -0.5781294703483582 0.7893000245094299 0.20681335031986237
vn -0.6394320130348206 0.049498919397592545 -0.7672526240348816
vn -0.5854910016059875 0.8056193590164185 0.09043087065219879
vn -0.4451407790184021 0.8347102999687195 0.3242042362689972
vn -0.7355701923370361 0.2427419275045395 -0.6324657201766968
vn 0.2111973911523819 -0.7781012654304504 -0.591569185256958
vn -0.6394320130348206 0.049498919397592545 -0.7672526240348816
vn -0.7355701923370361 0.2427419275045395 -0.6324657201766968
vn 0.06336541473865509 -0.7178343534469604 -0.6933243274688721
vn 0.7720577716827393 -0.49659618735313416 0.39663463830947876
vn 0.2111973911523819 -0.7781012654304504 -0.591569185256958
vn 0.06336541473865509 -0.7178343534469604 -0.6933243274688721
vn 0.7450047135353088 -0.5422366261482239 0.3885194957256317
vn 0.3005128502845764 0.47263795137405396 0.8284355401992798
vn 0.7720577716827393 -0.49659618735313416 0.39663463830947876
vn 0.7450047135353088 -0.5422366261482239 0.3885194957256317
vn 0.5165618658065796 0.12703591585159302 0.8467736840248108
vn 0.3005128502845764 0.47263795137405396 0.8284355401992798
vn 0.276700884103775 0.7907223701477051 0.5460720658302307
vn -0.767793595790863 -0.011765971779823303 -0.6405892372131348
vn -0.9457738995552063 -0.005161132663488388 0.32478463649749756
vn -0.975691020488739 -0.003351062536239624 0.2191251516342163
vn -0.802548348903656 0.011129027232527733 -0.5964832901954651
vn 0.012474562041461468 -0.01172888558357954 -0.9998533725738525
vn 0.048453398048877716 -0.008122308179736137 -0.9987924098968506
vn 0.7769855260848999 -0.005521885119378567 -0.6294942498207092
vn 0.8291213512420654 -0.0072220610454678535 -0.559022068977356
vn 0.9999727606773376 -0.007379770278930664 0.0000778270696173422
vn 0.9609724283218384 -0.013795211911201477 0.27629995346069336
vn -0.4451407790184021 0.8347102999687195 0.3242042362689972
vt 0 0.3555716872215271
vt 0.125 0.6036173701286316
vt 0.125 0.35578620433807373
vt 0.125 0.60418701171875
vt 0 0.6588630676269531
vt 0.125 0.6589210033416748
vt 0 0.6589202880859375
vt 0.125 0.6588852405548096
vt 0 0.6041940450668335
vt 0.125 0.37489527463912964
vt 0 0.3749358654022217
vt 0.625 0.9922513961791992
vt 1 0.992254376411438
vt 1 0.8410870432853699
vt 0 0.37489593029022217
vt 0 0.6685827970504761
vt 0.125 0.6680786609649658
vt 0 0.6177949905395508
vt 0.125 0.36523401737213135
vt 1 0.9801628589630127
vt 0.625 0.8072741031646729
vt 0.625 0.9801771640777588
vt 0.25 2
vt 0.2976912260055542 2
vt 0.25 0
vt 1 0.8072632551193237
vt 0.5817670226097107 2
vt 0 0.6707671284675598
vt 0.125 0.670997679233551
vt 0.125 0.3749350309371948
vt 0.625 0
vt 0.5865810513496399 0
vt 0.625 2
vt 0.625 0.8410794734954834
vt 0.29467999935150146 0
vt 1 0
vt 0.625 0
vt 1 2
vt 0.625 2
vt 0.25 2
vt 0.125 2
vt 0.25 0
vt 0.125 0
vt 0.125 2
vt 0.125 0
vt 0 2
vt 0.125 2
vt 0 0
vt 0.125 0
vt 0 2
vt 0 0
vt 0 2
vt 0.029999999329447746 2
vt 0 0
vt 0.029999999329447746 0
vt 0.029999999329447746 2
vt 0.029999999329447746 0
vt 0 0.3657175302505493
vt 0 0.6177949905395508
vt 0.125 0.36523401737213135
vt 0 0.3657175302505493
vt 0 0.3555716872215271
vt 0 0.6707671284675598
vt 0.125 0.6036173701286316
vt 0.29467999935150146 0
vt 0.25 0
vt 0.625 2
vt 0.5817670226097107 2
vt 0 0
vt 0.029999999329447746 0
vt 0 2
vt 0.029999999329447746 2
vt 0.029999999329447746 0
vt 0 0
vt 0.029999999329447746 2
vt 0 2
vt 0.125 0
vt 0.125 2
vt 0.125 0
vt 0 0
vt 0.125 2
vt 0 2
vt 0.25 2
vt 0.125 0
vt 0.25 0
vt 0.125 2
vt 0.25 2
vt 0.625 2
vt 1 2
vt 0.625 0
vt 1 0
vt 0.5865810513496399 0
vt 1 0.8410870432853699
vt 0.625 0.8410794734954834
vt 0.625 0.9922513961791992
vt 0.625 0
vt 0.125 0.3749350309371948
vt 0 0.37489593029022217
vt 0.125 0.60418701171875
vt 0.125 0.670997679233551
vt 0.2976912260055542 2
vt 1 0.9801628589630127
vt 1 0.8072632551193237
vt 0.625 0.8072741031646729
vt 0.625 0.9801771640777588
vt 0.125 0.6680786609649658
vt 0 0.6685827970504761
vt 0 0.6588630676269531
vt 1 0.992254376411438
vt 0.125 0.37489527463912964
vt 0 0.3749358654022217
vt 0 0.6041940450668335
vt 0.125 0.6588852405548096
vt 0 0.6589202880859375
vt 0.125 0.6589210033416748
vt 0.125 0.35578620433807373
vt 0.6709445714950562 0.5
vt 0.4267100393772125 0.5932531952857971
vt 0 0.25999999046325684
vt 0.6536623239517212 0.25999999046325684
vt 0 1
vt 0.7054414749145508 0.779525876045227
vt 0.7055083513259888 1
vt 1 0.06846189498901367
vt 1 0
vt 0.4000000059604645 0
vt 0.4000000059604645 0.10000002384185791
vt 0.4000000059604645 0.25
vt 1 0.25
vt 1 0.2009461522102356
vt 0.7295920848846436 0.8326195478439331
vt 0.45899999141693115 0.6234083771705627
vt 0 1
vt 0 0.25999999046325684
vt 0.6876667737960815 1
vt 0.7379211187362671 0.5
vt 0.7316176891326904 0.25999999046325684
vt 1 0.8999999761581421
vt 0.7809569835662842 0.8999999761581421
vt 0.49371981620788574 0.10882151126861572
vt 0.40917879343032837 0.25
vt 1 0.25
vt 0.7719705104827881 0.8999999761581421
vt 1 0.25999999046325684
vt 1 0.5
vt 0.30000001192092896 0
vt 0.22826087474822998 0
vt 0.22826087474822998 0.25
vt 0.49371981620788574 0.10882151126861572
vt 1 0.25
vt 1 0.10640507936477661
vt 0.40917879343032837 0.25
vt 1 0.10640507936477661
vt 1 0.25
vt 0.30000001192092896 0
vt 0.4000000059604645 0.25
vt 1 0.2009461522102356
vt 0.4000000059604645 0.10000002384185791
vt 1 0.06846189498901367
vt 0.4000000059604645 0
vt 1 0
vt 0.40917879343032837 0.25
vt 0.4000000059604645 0
vt 0.40917879343032837 0.25
vt 1 1
vt 0.4000000059604645 0
vt 0 1
vt 0 -0.1449275016784668
vt 0.4324924647808075 1
vt 1 1
vt 0 1
vt 0 -0.1449275016784668
vt 1 -0.1449275016784668
vt 1 -0.1449275016784668
vt 1 1
vt 1 1
vt 0 1
vt 0 -0.1449275016784668
vt 1 -0.1449275016784668
vt 1 1
vt 0 1
vt 0 -0.1449275016784668
vt 1 -0.1449275016784668
vt 0.5814720988273621 -0.1449275016784668
vt 0 1
vt 0 -0.1449275016784668
vt 1 -0.1449275016784668
vt 1 1
vt 1 -0.1449275016784668
vt 0 1
vt 0 -0.1449275016784668
vt 1 1
vt 0 1
vt 1 0
vt 1 1
vt 0 0.9994614124298096
vt 0 0
vt 1 0.9995005130767822
vt 1 0
vt 1 1
vt 0 1
vt 0 0
vt 1 0
vt 0 0
vt 0.05577685311436653 0.5009863376617432
vt 0.2779463231563568 0.05664718151092529
vt 0.5066632628440857 0.5028710961341858
vt 0.27794647216796875 0.9443894028663635
vt 0.5058751106262207 0.05616682767868042
vt 0.7222856283187866 0.05571073293685913
vt 0.722285807132721 0.9434528946876526
vt 0.9444554448127747 0.4991135597229004
vt 0.25 0
vt 0.5 0
vt 0.5 1
vt 0.25 1
vt 0.25 0
vt 0.5 0
vt 0.5 1
vt 0.25 1
vt 0.25 0
vt 0.5 0
vt 0.5 1
vt 0.25 1
vt 0.25 0
vt 0.5 0
vt 0.5 1
vt 0.25 1
vt 0.25 0
vt 0.5 1
vt 0.25 1
vt 0.5 0
vt 0.25 0
vt 0.5 1
vt 0.25 1
vt 0.5 0
vt 0.25 0
vt 0.5 1
vt 0.25 1
vt 0.5 0
vt 0.25 0
vt 0.5 1
vt 0.25 1
vt 0.5 0
vt 0.25 0
vt 0.5 1
vt 0.25 1
vt 0.75 0
vt 0.5 0
vt 0.5 1
vt 0.75 1
vt 0.5 0
vt 0.5 1
vt 0.75 0
vt 0.75 1
vt 0.5 0
vt 0.5 1
vt 0.75 0
vt 0.75 1
vt 0.25 0
vt 0.5 0
vt 0.5 1
vt 0.25 1
vt 0.25 0
vt 0.5 0
vt 0.5 1
vt 0.25 1
vt 0.25 0
vt 0.5 0
vt 0.5 1
vt 0.25 1
vt 0.25 0
vt 0.5 0
vt 0.5 1
vt 0.25 1
vt 0.25 0
vt 0.5 0
vt 0.5 1
vt 0.25 0
vt 0.5 1
vt 0.25 1
vt 0.5 0
vt 0.25 0
vt 0.5 1
vt 0.25 1
vt 0.5 0
vt 0.25 0
vt 0.5 1
vt 0.25 1
vt 0.5 0
vt 0.25 0
vt 0.5 1
vt 0.25 1
vt 0.5 0
vt 0.5 0
vt 0.75 1
vt 0.5 1
vt 0.75 0
vt 0.5 0
vt 0.75 1
vt 0.5 1
vt 0.75 0
vt 0.5 1
vt 0.5 0
vt 0.75 1
vt 0.75 0
vt 0.25 0
vt 0.5 1
vt 0.25 1
vt 0.5 0
vt 0.5 1.290096640586853
vt 0.75 0.4502415657043457
vt 0.5 0.4125603437423706
vt 0.75 1.290096640586853
vt 0.5 0.4502415657043457
vt 0.75 0.4125603437423706
vt 0.5 1.290096640586853
vt 0.75 0.4502415657043457
vt 0.5 0.4125603437423706
vt 0.75 1.290096640586853
vt 0.5 0.4502415657043457
vt 0.75 0.4125603437423706
vt 0.5 1.290096640586853
vt 0.75 0.4502415657043457
vt 0.5 0.4125603437423706
vt 0.75 1.290096640586853
vt 0.25 0
vt 0.5 1
vt 0.25 1
vt 0.5 0
vt 0.25 0
vt 0.5 1
vt 0.25 1
vt 0.5 0
vt 0.25 0
vt 0.5 1
vt 0.25 1
vt 0.5 0
vt 0.25 1
vt 0.125 0.8999999761581421
vt 0 0.75
vt 0 0.8999999761581421
vt 0.125 0.75
vt 0.125 0.8999999761581421
vt 0.125 0.9909254312515259
vt 0.25 0.8861503005027771
vt 0.25 0.75
vt 0.125 0.75
vt 0.125 0
vt 0.25 0
vt 0 0.75
vt 0.125 0.75
vt 0.125 0
vt 0 0
vt 0.25 0.8999999761581421
vt 0.125 0.8999999761581421
vt 0 0.8999999761581421
vt 0.125 0.8999999761581421
vt 0.5 0
vt 0.25 0
vt 0.25 5
vt 0.5 5
vt 0.25 0
vt 0.25 5
vt 0.125 0
vt 0.125 0.75
vt 0 0
vt 0.25 0.75
vt 0.125 0
vt 0.25 0
vt 0.5 1.290096640586853
vt 0.75 0.4502415657043457
vt 0.5 0.4125603437423706
vt 0.75 1.290096640586853
vt 0.5 0.4502415657043457
vt 0.75 0.4125603437423706
vt 0.5 1.290096640586853
vt 0.75 0.4502415657043457
vt 0.5 0.4125603437423706
vt 0.75 1.290096640586853
vt 0.5 0.4502415657043457
vt 0.75 0.4125603437423706
vt 0.5 1.290096640586853
vt 0.75 0.4502415657043457
vt 0.5 0.4125603437423706
vt 0.25 0
vt 0.5 0
vt 0.5 1
vt 0.25 1
vt 0.25 0
vt 0.5 0
vt 0.5 1
vt 0.25 1
vt 0.25 0
vt 0.5 0
vt 0.5 1
vt 0.25 1
vt 0.25 0
vt 0.5 0
vt 0.5 1
vt 0.25 1
vt 0.5 0
vt 0.125 1
vt 0.25 0
vt 0.5 0
vt 0.5 5
vt 0.25 5
vt 0.5 0
vt 0.5 5
vt 0.25 0
vt 0.25 5
vt 0.5 0
vt 0.5 5
vt 0.75 1.290096640586853
g elevator0
s 1
f 1/1/1 2/2/2 3/3/3
f 4/4/4 5/5/5 6/6/6
f 7/7/7 8/8/8 9/9/9
f 9/9/9 8/8/8 10/10/10
f 10/10/10 11/11/11 9/9/9
f 12/12/12 13/13/13 14/14/14
f 15/15/15 5/5/5 4/4/4
f 16/16/16 17/17/17 18/18/18
f 17/17/17 19/19/19 18/18/18
f 20/20/20 21/21/21 22/22/22
f 23/23/23 24/24/24 25/25/25
f 20/20/20 26/26/26 21/21/21
f 24/24/24 27/27/27 25/25/25
f 28/28/28 29/29/29 2/2/2
f 30/30/30 15/15/15 4/4/4
f 31/31/31 32/32/32 33/33/33
f 14/14/14 34/34/34 12/12/12
f 32/32/32 35/35/35 33/33/33
f 36/36/36 37/37/37 38/38/38
f 39/39/39 38/38/38 37/37/37
f 40/40/40 41/41/41 42/42/42
f 43/43/43 42/42/42 41/41/41
f 44/44/44 23/23/23 45/45/45
f 25/25/25 45/45/45 23/23/23
f 46/46/46 47/47/47 48/48/48
f 49/49/49 48/48/48 47/47/47
f 50/50/50 44/44/44 51/51/51
f 45/45/45 51/51/51 44/44/44
f 52/52/52 53/53/53 54/54/54
f 55/55/55 54/54/54 53/53/53
f 56/56/56 50/50/50 57/57/57
f 51/51/51 57/57/57 50/50/50
f 27/27/27 33/33/33 25/25/25
f 35/35/35 25/25/25 33/33/33
f 1/1/1 28/28/28 2/2/2
f 18/18/18 19/19/19 58/58/58
f 59/59/59 60/60/60 61/61/61
f 62/62/62 63/63/63 64/64/64
f 65/65/65 66/66/66 67/67/67
f 68/68/68 67/67/67 66/66/66
f 69/69/69 70/70/70 71/71/71
f 72/72/72 71/71/71 70/70/70
f 73/73/73 74/74/74 75/75/75
f 76/76/76 75/75/75 74/74/74
f 77/77/77 69/69/69 78/78/78
f 71/71/71 78/78/78 69/69/69
f 79/79/79 80/80/80 81/81/81
f 82/82/82 81/81/81 80/80/80
f 66/66/66 77/77/77 83/83/83
f 78/78/78 83/83/83 77/77/77
f 84/84/84 85/85/85 86/86/86
f 87/87/87 86/86/86 85/85/85
f 88/88/88 89/89/89 90/90/90
f 91/91/91 90/90/90 89/89/89
f 92/92/92 65/65/65 67/67/67
f 93/93/93 94/94/94 95/95/95
f 96/96/96 92/92/92 67/67/67
f 97/97/97 98/98/98 99/99/99
f 63/63/63 100/100/100 64/64/64
f 101/101/101 68/68/68 66/66/66
f 102/102/102 103/103/103 104/104/104
f 83/83/83 101/101/101 66/66/66
f 102/102/102 104/104/104 105/105/105
f 106/106/106 60/60/60 59/59/59
f 107/107/107 106/106/106 59/59/59
f 98/98/98 108/108/108 99/99/99
f 95/95/95 109/109/109 93/93/93
f 110/110/110 111/111/111 112/112/112
f 112/112/112 113/113/113 110/110/110
f 114/114/114 113/113/113 112/112/112
f 99/99/99 108/108/108 115/115/115
f 62/62/62 64/64/64 116/116/116
g elevator1
s 1
f 117/117/117 118/118/118 119/119/119
f 119/119/119 120/120/120 117/117/117
f 121/121/121 122/122/122 123/123/123
f 118/118/118 121/121/121 119/119/119
f 124/124/124 125/125/125 126/126/126
f 126/126/126 127/127/127 124/124/124
f 122/122/122 121/121/121 118/118/118
f 128/128/128 129/129/129 130/130/130
f 130/130/130 124/124/124 127/127/127
f 130/130/130 127/127/127 128/128/128
f 131/131/131 132/132/132 133/133/133
f 132/132/132 134/134/134 133/133/133
f 133/133/133 135/135/135 131/131/131
f 134/134/134 136/136/136 137/137/137
f 136/136/136 134/134/134 132/132/132
f 138/138/138 139/139/139 135/135/135
f 140/140/140 141/141/141 142/142/142
f 143/143/143 123/123/123 122/122/122
f 120/120/120 144/144/144 145/145/145
f 144/144/144 137/137/137 136/136/136
f 146/146/146 147/147/147 148/148/148
f 149/149/149 150/150/150 151/151/151
f 152/152/152 150/150/150 149/149/149
f 153/153/153 154/154/154 140/140/140
f 155/155/155 156/156/156 148/148/148
f 157/157/157 156/156/156 158/158/158
f 157/157/157 158/158/158 159/159/159
f 156/156/156 157/157/157 150/150/150
f 160/160/160 159/159/159 158/158/158
f 159/159/159 160/160/160 161/161/161
f 140/140/140 154/154/154 162/162/162
f 155/155/155 148/148/148 147/147/147
f 156/156/156 155/155/155 163/163/163
f 149/149/149 151/151/151 129/129/129
f 164/164/164 149/149/149 129/129/129
f 153/153/153 140/140/140 142/142/142
f 146/146/146 148/148/148 128/128/128
f 123/123/123 143/143/143 165/165/165
f 165/165/165 138/138/138 135/135/135
f 145/145/145 144/144/144 136/136/136
f 120/120/120 145/145/145 117/117/117
f 135/135/135 139/139/139 131/131/131
f 128/128/128 166/166/166 146/146/146
f 165/165/165 143/143/143 138/138/138
g elevator2
s 1
f 167/167/167 168/168/168 169/169/169
f 170/170/170 171/171/171 172/172/172
f 172/172/172 173/173/173 170/170/170
f 169/169/169 174/174/174 175/175/175
f 169/169/169 168/168/168 174/174/174
f 176/176/176 177/177/177 178/178/178
f 178/178/178 179/179/179 176/176/176
f 180/180/180 181/181/181 182/182/182
f 182/182/182 183/183/183 180/180/180
f 184/184/184 185/185/185 186/186/186
f 184/184/184 187/187/187 188/188/188
f 189/189/189 190/190/190 191/191/191
f 190/190/190 189/189/189 192/192/192
f 193/193/193 194/194/194 195/195/195
f 196/196/196 197/197/197 198/198/198
f 199/199/199 198/198/198 197/197/197
f 185/185/185 184/184/184 188/188/188
f 200/200/200 201/201/201 202/202/202
f 202/202/202 203/203/203 200/200/200
f 194/194/194 193/193/193 204/204/204
g elevator3
s 1
f 205/205/205 206/206/206 207/207/207
f 208/208/208 205/205/205 207/207/207
f 209/209/209 210/210/210 207/207/207
f 211/211/211 208/208/208 207/207/207
f 212/212/212 211/211/211 207/207/207
f 210/210/210 212/212/212 207/207/207
f 206/206/206 209/209/209 207/207/207
g elevator4
s 1
f 213/213/213 214/214/214 215/215/215
f 213/213/213 215/215/215 216/216/216
f 217/217/217 218/218/218 219/219/219
f 217/217/217 219/219/219 220/220/220
f 221/221/221 222/222/222 223/223/223
f 221/221/221 223/223/223 224/224/224
f 225/225/225 226/226/226 227/227/227
f 225/225/225 227/227/227 228/228/228
f 229/229/229 230/230/230 231/231/231
f 229/229/229 232/232/232 230/230/230
f 233/233/233 234/234/234 235/235/235
f 233/233/233 236/236/236 234/234/234
f 237/237/237 238/238/238 239/239/239
f 237/237/237 240/240/240 238/238/238
f 241/241/241 242/242/242 243/243/243
f 241/241/241 244/244/244 242/242/242
f 245/245/245 246/246/246 247/247/247
f 248/248/248 249/249/249 250/250/250
f 248/248/248 250/250/250 251/251/251
f 252/252/252 248/248/248 251/251/251
f 252/252/252 251/251/251 253/253/253
f 254/254/254 252/252/252 253/253/253
f 254/254/254 253/253/253 255/255/255
f 256/256/256 254/254/254 255/255/255
f 256/256/256 255/255/255 257/257/257
f 249/249/249 258/258/258 259/259/259
f 249/249/249 259/259/259 250/250/250
f 260/260/260 261/261/261 262/262/262
f 260/260/260 262/262/262 263/263/263
f 264/264/264 265/265/265 266/266/266
f 264/264/264 266/266/266 267/267/267
f 268/268/268 269/269/269 270/270/270
f 268/268/268 270/270/270 271/271/271
f 272/272/272 273/273/273 274/274/274
f 272/272/272 274/274/274 275/275/275
f 276/276/276 277/277/277 278/278/278
f 279/279/279 280/280/280 281/281/281
f 279/279/279 282/282/282 280/280/280
f 283/283/283 284/284/284 285/285/285
f 283/283/283 286/286/286 284/284/284
f 287/287/287 288/288/288 289/289/289
f 287/287/287 290/290/290 288/288/288
f 291/291/291 292/292/292 293/293/293
f 291/291/291 294/294/294 292/292/292
f 295/295/295 296/296/296 297/297/297
f 295/295/295 298/298/298 296/296/296
f 299/299/299 300/300/300 301/301/301
f 299/299/299 302/302/302 300/300/300
f 302/302/302 303/303/303 300/300/300
f 302/302/302 304/304/304 303/303/303
f 304/304/304 305/305/305 303/303/303
f 304/304/304 306/306/306 305/305/305
f 306/306/306 297/297/297 305/305/305
f 306/306/306 295/295/295 297/297/297
f 307/307/307 308/308/308 309/309/309
f 307/307/307 310/310/310 308/308/308
f 311/311/311 312/312/312 313/313/313
f 311/311/311 314/314/314 312/312/312
f 314/314/314 315/315/315 316/316/316
f 314/314/314 317/317/317 315/315/315
f 317/317/317 318/318/318 319/319/319
f 317/317/317 320/320/320 318/318/318
f 320/320/320 321/321/321 322/322/322
f 320/320/320 323/323/323 321/321/321
f 323/323/323 324/324/324 325/325/325
f 323/323/323 326/326/326 324/324/324
f 327/327/327 328/328/328 329/329/329
f 327/327/327 330/330/330 328/328/328
f 331/331/331 332/332/332 333/333/333
f 331/331/331 334/334/334 332/332/332
f 335/335/335 336/336/336 337/337/337
f 335/335/335 338/338/338 336/336/336
f 276/276/276 278/278/278 339/339/339
f 340/340/340 341/341/341 342/342/342
f 341/341/341 340/340/340 343/343/343
f 344/344/344 345/345/345 342/342/342
f 340/340/340 345/345/345 346/346/346
f 346/346/346 345/345/345 344/344/344
f 342/342/342 345/345/345 340/340/340
f 347/347/347 348/348/348 349/349/349
f 349/349/349 350/350/350 347/347/347
f 351/351/351 352/352/352 353/353/353
f 353/353/353 354/354/354 351/351/351
f 348/348/348 351/351/351 354/354/354
f 354/354/354 349/349/349 348/348/348
f 352/352/352 347/347/347 350/350/350
f 350/350/350 353/353/353 352/352/352
f 355/355/355 356/356/356 348/348/348
f 348/348/348 347/347/347 355/355/355
f 357/357/357 358/358/358 352/352/352
f 352/352/352 351/351/351 357/357/357
f 359/359/359 360/360/360 361/361/361
f 359/359/359 361/361/361 362/362/362
f 363/363/363 359/359/359 362/362/362
f 363/363/363 362/362/362 364/364/364
f 341/341/341 365/365/365 366/366/366
f 365/365/365 341/341/341 367/367/367
f 368/368/368 369/369/369 343/343/343
f 369/369/369 368/368/368 370/370/370
f 366/366/366 370/370/370 368/368/368
f 370/370/370 366/366/366 365/365/365
f 343/343/343 367/367/367 341/341/341
f 367/367/367 343/343/343 369/369/369
f 342/342/342 366/366/366 344/344/344
f 366/366/366 342/342/342 341/341/341
f 346/346/346 343/343/343 340/340/340
f 343/343/343 346/346/346 368/368/368
f 344/344/344 368/368/368 346/346/346
f 368/368/368 344/344/344 366/366/366
f 371/371/371 372/372/372 373/373/373
f 374/374/374 371/371/371 375/375/375
f 374/374/374 375/375/375 376/376/376
f 377/377/377 374/374/374 378/378/378
f 377/377/377 378/378/378 379/379/379
f 380/380/380 377/377/377 381/381/381
f 380/380/380 381/381/381 382/382/382
f 383/383/383 380/380/380 384/384/384
f 383/383/383 384/384/384 385/385/385
f 386/386/386 387/387/387 388/388/388
f 386/386/386 388/388/388 389/389/389
f 390/390/390 391/391/391 392/392/392
f 390/390/390 392/392/392 393/393/393
f 394/394/394 395/395/395 396/396/396
f 394/394/394 396/396/396 397/397/397
f 398/398/398 399/399/399 400/400/400
f 398/398/398 400/400/400 401/401/401
f 245/245/245 402/402/402 246/246/246
f 356/356/356 357/357/357 351/351/351
f 351/351/351 348/348/348 356/356/356
f 358/358/358 355/355/355 347/347/347
f 347/347/347 352/352/352 358/358/358
f 356/356/356 355/355/355 403/403/403
f 358/358/358 357/357/357 403/403/403
f 357/357/357 356/356/356 403/403/403
f 355/355/355 358/358/358 403/403/403
f 404/404/404 405/405/405 406/406/406
f 404/404/404 406/406/406 407/407/407
f 408/408/408 404/404/404 407/407/407
f 408/408/408 407/407/407 409/409/409
f 410/410/410 408/408/408 409/409/409
f 410/410/410 409/409/409 411/411/411
f 412/412/412 410/410/410 411/411/411
f 412/412/412 411/411/411 413/413/413
f 360/360/360 412/412/412 413/413/413
f 360/360/360 413/413/413 361/361/361
f 371/371/371 414/414/414 372/372/372
