# Exported using wow.export v0.2.19
o lowermesab_LowerMesaB01.obj
v 1.4763697385787964 0.29089120030403137 41.04648971557617
v -0.7836769819259644 13.549738883972168 38.3642578125
v 1.8482109308242798 13.549738883972168 41.07875442504883
v -0.42334991693496704 0.29089120030403137 39.33305740356445
v -1.6962577104568481 13.549738883972168 42.23278045654297
v -1.1406103372573853 0.29089120030403137 41.83644485473633
v 1.8482109308242798 13.549738883972168 41.07875442504883
v 1.4763697385787964 0.29089120030403137 41.04648971557617
v -1.6962577104568481 13.549738883972168 42.23278045654297
v 1.8482109308242798 13.549738883972168 41.07875442504883
v -0.7836769819259644 13.549738883972168 38.3642578125
v 5.9286956787109375 4.939560413360596 80.5938720703125
v 5.470801830291748 6.937674045562744 79.99767303466797
v 6.205694675445557 6.937674045562744 80.90492248535156
v 5.534639835357666 4.939560413360596 80.22786712646484
v 5.111777305603027 6.937674045562744 80.8571548461914
v 6.205694675445557 6.937674045562744 80.90492248535156
v 5.470801830291748 6.937674045562744 79.99767303466797
v 2.870741844177246 2.029881477355957 69.63130950927734
v 2.4286115169525146 4.0279951095581055 69.02333068847656
v 3.1395037174224854 4.0279951095581055 69.94950103759766
v 2.4864020347595215 2.029881477355957 69.25511169433594
v 2.047211170196533 4.0279951095581055 69.87312316894531
v 3.1395037174224854 4.0279951095581055 69.94950103759766
v 2.4286115169525146 4.0279951095581055 69.02333068847656
v 0.83934086561203 1.1273715496063232 63.95915603637695
v 1.7489609718322754 3.12548565864563 64.37175750732422
v 0.6621628999710083 3.12548565864563 64.23831939697266
v 1.4972206354141235 1.1273715496063232 64.03993225097656
v 1.4972206354141235 1.1273715496063232 64.03993225097656
v 1.0875153541564941 3.12548565864563 63.40964889526367
v 1.7489609718322754 3.12548565864563 64.37175750732422
v 1.1330958604812622 1.1273715496063232 63.64413833618164
v 0.6621628999710083 3.12548565864563 64.23831939697266
v 1.7489609718322754 3.12548565864563 64.37175750732422
v 1.0875153541564941 3.12548565864563 63.40964889526367
v 6.9025750160217285 5.964405059814453 85.69220733642578
v 6.452665328979492 7.96251916885376 86.30245971679688
v 6.8488383293151855 7.96251916885376 85.4594497680664
v 6.619992733001709 5.964405059814453 86.01728057861328
v 7.543457984924316 7.96251916885376 86.39788818359375
v 7.280290603637695 5.964405059814453 86.0750503540039
v 7.280290603637695 5.964405059814453 86.0750503540039
v 7.543457984924316 7.96251916885376 86.39788818359375
v 6.452665328979492 7.96251916885376 86.30245971679688
v 7.543457984924316 7.96251916885376 86.39788818359375
v 6.8488383293151855 7.96251916885376 85.4594497680664
v 2.047211170196533 4.0279951095581055 69.87312316894531
v 2.209536075592041 2.029881477355957 69.58506774902344
v 3.969224214553833 3.761688709259033 74.72645568847656
v 3.5300333499908447 5.759802341461182 75.3444595336914
v 3.911433696746826 5.759802341461182 74.49466705322266
v 3.6923582553863525 3.761688709259033 75.05641174316406
v 4.622325897216797 5.759802341461182 75.42084503173828
v 4.3535637855529785 3.761688709259033 75.10264587402344
v 4.3535637855529785 3.761688709259033 75.10264587402344
v 4.622325897216797 5.759802341461182 75.42084503173828
v 3.5300333499908447 5.759802341461182 75.3444595336914
v 4.622325897216797 5.759802341461182 75.42084503173828
v 3.911433696746826 5.759802341461182 74.49466705322266
v 3.1395037174224854 4.0279951095581055 69.94950103759766
v 2.870741844177246 2.029881477355957 69.63130950927734
v 5.111777305603027 6.937674045562744 80.8571548461914
v 5.266506195068359 4.939560413360596 80.56495666503906
v 6.205694675445557 6.937674045562744 80.90492248535156
v 5.9286956787109375 4.939560413360596 80.5938720703125
v 0.08601530641317368 0.7286187410354614 57.93937301635742
v -0.48531171679496765 2.7267327308654785 58.43777847290039
v 0.08393076807260513 2.7267327308654785 57.70050048828125
v -0.2602274417877197 0.7286187410354614 58.19558334350586
v 0.5589699149131775 2.7267327308654785 58.76704406738281
v 0.3719154894351959 0.7286187410354614 58.3948974609375
v 0.3719154894351959 0.7286187410354614 58.3948974609375
v 0.5589699149131775 2.7267327308654785 58.76704406738281
v -0.48531171679496765 2.7267327308654785 58.43777847290039
v 0.5589699149131775 2.7267327308654785 58.76704406738281
v 0.08393076807260513 2.7267327308654785 57.70050048828125
v -0.062032777816057205 0.4195672273635864 52.22813034057617
v -0.6289887428283691 2.4176812171936035 52.731502532958984
v -0.06620176136493683 2.4176812171936035 51.98928451538086
v -0.40602657198905945 0.4195672273635864 52.48735046386719
v 0.41812649369239807 2.4176812171936035 53.051639556884766
v 0.2278316617012024 0.4195672273635864 52.6811408996582
v 0.2278316617012024 0.4195672273635864 52.6811408996582
v 0.41812649369239807 2.4176812171936035 53.051639556884766
v -0.6289887428283691 2.4176812171936035 52.731502532958984
v 0.41812649369239807 2.4176812171936035 53.051639556884766
v -0.06620176136493683 2.4176812171936035 51.98928451538086
v -0.3171257972717285 0.11468304693698883 46.54531478881836
v -0.8840817809104919 2.1127970218658447 47.04869079589844
v -0.32129478454589844 2.1127970218658447 46.30647277832031
v -0.6611196398735046 0.11468304693698883 46.804534912109375
v 0.16303344070911407 2.1127970218658447 47.36882400512695
v -0.02726137451827526 0.11468304693698883 46.99832534790039
v -0.02726137451827526 0.11468304693698883 46.99832534790039
v 0.16303344070911407 2.1127970218658447 47.36882400512695
v -0.8840817809104919 2.1127970218658447 47.04869079589844
v 0.16303344070911407 2.1127970218658447 47.36882400512695
v -0.32129478454589844 2.1127970218658447 46.30647277832031
v 4.960308074951172 5.933718681335449 78.27398681640625
v 4.960244178771973 5.848782539367676 78.26972198486328
v 5.666662693023682 6.6539082527160645 80.5380859375
v 5.782809734344482 6.717148780822754 80.43688201904297
v 5.0306572914123535 5.894350528717041 78.24526977539062
v 2.7219250202178955 3.611353635787964 69.66802215576172
v 3.446235179901123 4.421903610229492 72.75820922851562
v 3.5173115730285645 4.381285190582275 72.7313461303711
v 2.610438585281372 3.68888258934021 69.73319244384766
v 3.4462828636169434 4.336385250091553 72.75394439697266
v 2.597651720046997 3.5204825401306152 69.67899322509766
v 4.060268878936768 5.570188999176025 74.93746185302734
v 4.211836814880371 5.529911994934082 74.94189453125
v 4.093080043792725 5.476036548614502 75.0400161743164
v 1.2391029596328735 2.7022526264190674 64.19668579101562
v 1.9634134769439697 2.7873077392578125 67.28687286376953
v 2.034489870071411 2.748718500137329 67.26000213623047
v 1.1276167631149292 2.7714929580688477 64.26184844970703
v 1.96346116065979 2.7027337551116943 67.28260040283203
v 1.1148297786712646 2.615821361541748 64.20764923095703
v 2.5774474143981934 3.4182538986206055 69.46611785888672
v 2.7290151119232178 3.36860990524292 69.4705581665039
v 2.6102585792541504 3.299537420272827 69.56867980957031
v 0.15224383771419525 2.4402096271514893 58.52735900878906
v 0.7138338088989258 2.4131977558135986 61.65121841430664
v 0.7862190008163452 2.3749217987060547 61.62810516357422
v 0.037499867379665375 2.508169412612915 58.58660125732422
v 0.7141048908233643 2.3287696838378906 61.6469612121582
v 0.027566952630877495 2.354464292526245 58.53180694580078
v 1.2129732370376587 2.9642302989959717 63.85961151123047
v 1.3641009330749512 2.913139581680298 63.87198257446289
v 1.240371584892273 2.841719627380371 63.96375274658203
v 0.054047029465436935 2.108276844024658 52.72953414916992
v 0.03695487603545189 2.043015241622925 55.90342330932617
v 0.11233985424041748 2.0048463344573975 55.893890380859375
v -0.06957177072763443 2.175799608230591 52.76687240600586
v 0.03799771890044212 1.9586368799209595 55.89928436279297
v -0.06935302913188934 2.0227653980255127 52.711185455322266
v 0.1252877563238144 2.5667724609375 58.16579818725586
v 0.2716311812400818 2.515187978744507 58.20549774169922
v 0.13324929773807526 2.4429666996002197 58.273193359375
v 5.743747234344482 6.721015453338623 80.6127700805664
v 6.414016246795654 7.012404441833496 83.71512603759766
v 6.485550880432129 6.973238468170166 83.68950653076172
v 5.63114070892334 6.7926130294799805 80.67598724365234
v 6.4141387939453125 6.9275617599487305 83.71086120605469
v 5.619301795959473 6.633321762084961 80.62157440185547
v 6.98992395401001 7.7904839515686035 85.9047622680664
v 7.141391277313232 7.743504047393799 85.9118423461914
v -0.13946378231048584 1.886965274810791 47.018760681152344
v -0.12885820865631104 1.7714788913726807 50.19268035888672
v -0.05355929955840111 1.7334502935409546 50.18248748779297
v -0.2627519965171814 1.9539140462875366 47.05717849731445
v -0.12785153090953827 1.6871658563613892 50.188533782958984
v -0.26301923394203186 1.801761269569397 47.00149154663086
v -0.02078598365187645 2.2594215869903564 52.45420455932617
v 0.1258983314037323 2.207188606262207 52.49262619018555
v -0.011887604370713234 2.1339151859283447 52.56151580810547
v 7.020939826965332 7.6787543296813965 86.00788879394531
v 4.1553544998168945 5.570249080657959 75.20381927490234
v 4.045612335205078 5.642670631408691 75.27188873291016
v 4.0314106941223145 5.482114315032959 75.2180404663086
v 5.63117790222168 6.763197898864746 80.43641662597656
v -0.39455685019493103 1.859438180923462 41.3359489440918
v -0.3839512765407562 1.5851846933364868 44.50986862182617
v -0.3086523413658142 1.547600269317627 44.49967575073242
v -0.5178450345993042 1.9245728254318237 41.374366760253906
v -0.38294458389282227 1.5010782480239868 44.50572204589844
v -0.518112301826477 1.7752058506011963 41.31867980957031
v -0.27587905526161194 1.9599130153656006 46.77138900756836
v -0.1291947066783905 1.905630111694336 46.809810638427734
v -0.2669806480407715 1.829030990600586 46.87870407104492
v 7.018678188323975 7.797943115234375 86.05756378173828
v 7.755043029785156 7.523689270019531 88.95064544677734
v 7.825756549835205 7.486104488372803 88.92305755615234
v 6.9078688621521 7.863077640533447 86.12256622314453
v 7.75507116317749 7.439582824707031 88.94661712646484
v 6.894870758056641 7.713710308074951 86.07182312011719
v 8.377233505249023 7.898417949676514 90.9876480102539
v 8.52831745147705 7.84413480758667 90.987060546875
v 8.410415649414062 7.76753568649292 91.08338928222656
vn 0.9675576686859131 -0.0277460515499115 0.2511221170425415
vn -0.1896458864212036 0.699105441570282 -0.6894099116325378
vn 0.7168883681297302 0.674140453338623 0.17777995765209198
vn -0.2968986928462982 -0.07761131972074509 -0.9517498016357422
vn -0.4878615438938141 0.6928764581680298 0.5309551358222961
vn -0.6932118535041809 -0.05054229870438576 0.7189595103263855
vn 0.7168883681297302 0.674140453338623 0.17777995765209198
vn 0.9675576686859131 -0.0277460515499115 0.2511221170425415
vn -0.4878615438938141 0.6928764581680298 0.5309551358222961
vn 0.7168883681297302 0.674140453338623 0.17777995765209198
vn -0.1896458864212036 0.699105441570282 -0.6894099116325378
vn 0.9561652541160583 -0.14894095063209534 -0.2521201968193054
vn 0.2659545838832855 0.42374807596206665 -0.8658555150032043
vn 0.6254197955131531 0.7179284691810608 0.30566126108169556
vn -0.5066779851913452 -0.052393440157175064 -0.8605418801307678
vn -0.9072768688201904 0.4204232692718506 -0.009642576798796654
vn 0.6254197955131531 0.7179284691810608 0.30566126108169556
vn 0.2659545838832855 0.42374807596206665 -0.8658555150032043
vn 0.9624367952346802 -0.14894236624240875 -0.22700563073158264
vn 0.2885271906852722 0.4237476587295532 -0.8585976958274841
vn 0.6172041296958923 0.717928409576416 0.3219282627105713
vn -0.48397862911224365 -0.05239396542310715 -0.8735098838806152
vn -0.906713604927063 0.4204232096672058 -0.03338892012834549
vn 0.6172041296958923 0.717928409576416 0.3219282627105713
vn 0.2885271906852722 0.4237476587295532 -0.8585976958274841
vn -0.93531733751297 -0.12896770238876343 0.32946741580963135
vn 0.5995098352432251 0.7179285287857056 0.35378891229629517
vn -0.9037238955497742 0.42042267322540283 -0.08079518377780914
vn 0.9729984402656555 -0.14894238114356995 -0.17632411420345306
vn 0.9729984402656555 -0.14894238114356995 -0.17632411420345306
vn 0.33306705951690674 0.42374810576438904 -0.8423205614089966
vn 0.5995098352432251 0.7179285287857056 0.35378891229629517
vn -0.4376011788845062 -0.052394136786460876 -0.8976414203643799
vn -0.9037238955497742 0.42042267322540283 -0.08079518377780914
vn 0.5995098352432251 0.7179285287857056 0.35378891229629517
vn 0.33306705951690674 0.42374810576438904 -0.8423205614089966
vn -0.4686591327190399 -0.052392687648534775 -0.8818240165710449
vn -0.9059923887252808 0.4204239547252655 -0.0492088608443737
vn 0.30346837639808655 0.4237481951713562 -0.853430986404419
vn -0.9232499003410339 -0.12896786630153656 0.3619072735309601
vn 0.6114925742149353 0.7179281711578369 0.33264991641044617
vn 0.9662522673606873 -0.14894050359725952 -0.21017439663410187
vn 0.9662522673606873 -0.14894050359725952 -0.21017439663410187
vn 0.6114925742149353 0.7179281711578369 0.33264991641044617
vn -0.9059923887252808 0.4204239547252655 -0.0492088608443737
vn 0.6114925742149353 0.7179281711578369 0.33264991641044617
vn 0.30346837639808655 0.4237481951713562 -0.853430986404419
vn -0.906713604927063 0.4204232096672058 -0.03338892012834549
vn -0.9167933464050293 -0.12896756827831268 0.37796464562416077
vn -0.48397862911224365 -0.05239396542310715 -0.8735098838806152
vn -0.906713604927063 0.4204232096672058 -0.03338892012834549
vn 0.2885271906852722 0.4237476587295532 -0.8585976958274841
vn -0.9167933464050293 -0.12896756827831268 0.37796464562416077
vn 0.6172041296958923 0.717928409576416 0.3219282627105713
vn 0.9624367952346802 -0.14894236624240875 -0.22700563073158264
vn 0.9624367952346802 -0.14894236624240875 -0.22700563073158264
vn 0.6172041296958923 0.717928409576416 0.3219282627105713
vn -0.906713604927063 0.4204232096672058 -0.03338892012834549
vn 0.6172041296958923 0.717928409576416 0.3219282627105713
vn 0.2885271906852722 0.4237476587295532 -0.8585976958274841
vn 0.6172041296958923 0.717928409576416 0.3219282627105713
vn 0.9624367952346802 -0.14894236624240875 -0.22700563073158264
vn -0.9072768688201904 0.4204232692718506 -0.009642576798796654
vn -0.9065852761268616 -0.12896746397018433 0.4018339514732361
vn 0.6254197955131531 0.7179284691810608 0.30566126108169556
vn 0.9561652541160583 -0.14894095063209534 -0.2521201968193054
vn -0.26669415831565857 -0.052395861595869064 -0.96235591173172
vn -0.8738689422607422 0.4204208254814148 -0.2441299706697464
vn 0.4809921979904175 0.4237481355667114 -0.7675181031227112
vn -0.9796956181526184 -0.12896768748760223 0.15350529551506042
vn 0.5249966382980347 0.7179293632507324 0.4571169912815094
vn 0.9888380765914917 -0.14894193410873413 0.003945890348404646
vn 0.9888380765914917 -0.14894193410873413 0.003945890348404646
vn 0.5249966382980347 0.7179293632507324 0.4571169912815094
vn -0.8738689422607422 0.4204208254814148 -0.2441299706697464
vn 0.5249966382980347 0.7179293632507324 0.4571169912815094
vn 0.4809921979904175 0.4237481355667114 -0.7675181031227112
vn -0.2750793993473053 -0.0523943267762661 -0.9599927663803101
vn -0.8759644627571106 0.42042264342308044 -0.23649747669696808
vn 0.47427454590797424 0.4237479269504547 -0.7716873288154602
vn -0.9783192276954651 -0.12896780669689178 0.16204576194286346
vn 0.5289674997329712 0.7179281115531921 0.452518105506897
vn 0.9888347387313843 -0.14894269406795502 -0.004686017520725727
vn 0.9888347387313843 -0.14894269406795502 -0.004686017520725727
vn 0.5289674997329712 0.7179281115531921 0.452518105506897
vn -0.8759644627571106 0.42042264342308044 -0.23649747669696808
vn 0.5289674997329712 0.7179281115531921 0.452518105506897
vn 0.47427454590797424 0.4237479269504547 -0.7716873288154602
vn -0.2750793993473053 -0.0523943193256855 -0.9599927663803101
vn -0.8759644627571106 0.42042264342308044 -0.23649752140045166
vn 0.47427454590797424 0.4237479269504547 -0.7716873288154602
vn -0.9783192276954651 -0.1289677917957306 0.16204571723937988
vn 0.5289674997329712 0.7179281115531921 0.452518105506897
vn 0.9888347387313843 -0.14894269406795502 -0.004686017520725727
vn 0.9888347387313843 -0.14894269406795502 -0.004686017520725727
vn 0.5289674997329712 0.7179281115531921 0.452518105506897
vn -0.8759644627571106 0.42042264342308044 -0.23649752140045166
vn 0.5289674997329712 0.7179281115531921 0.452518105506897
vn 0.47427454590797424 0.4237479269504547 -0.7716873288154602
vn -0.1356872171163559 0.9718809723854065 -0.1924484521150589
vn 0.07251758128404617 -0.9760730266571045 0.2049943208694458
vn -0.3868708312511444 -0.8245924711227417 0.4127689599990845
vn 0.9387370347976685 0.05160849541425705 -0.3407481908798218
vn 0.949589192867279 0.04985523223876953 -0.30950742959976196
vn 0.9617195725440979 0.06534049659967422 -0.2661316394805908
vn -0.1735571324825287 0.934720516204834 -0.31012165546417236
vn 0.956505298614502 0.043784283101558685 -0.28841033577919006
vn -0.5501146912574768 0.8335908055305481 -0.050001487135887146
vn 0.08221033215522766 -0.9401558041572571 0.33067888021469116
vn -0.41351068019866943 -0.8452754616737366 0.3384055495262146
vn -0.6547612547874451 0.7286550402641296 -0.2008717805147171
vn 0.9469699263572693 0.042015962302684784 -0.31856340169906616
vn -0.38119444251060486 -0.7799810171127319 0.49630680680274963
vn 0.965286374092102 0.06980189681053162 -0.25169405341148376
vn -0.10500871390104294 0.9874324202537537 -0.11811171472072601
vn 0.958125114440918 0.05336496978998184 -0.2813332676887512
vn -0.49644923210144043 0.8578659296035767 0.13268108665943146
vn 0.05290599912405014 -0.9907765984535217 0.12475040555000305
vn -0.45727527141571045 -0.8764171004295349 0.15097138285636902
vn -0.6053188443183899 0.7936601638793945 -0.06076745316386223
vn 0.9479421973228455 0.05758972093462944 -0.3131917417049408
vn -0.4107951521873474 -0.8471606969833374 0.3369956612586975
vn 0.9776140451431274 0.07003886997699738 -0.19840703904628754
vn -0.09052988886833191 0.9917691349983215 -0.09054476022720337
vn 0.9718125462532043 0.05467737838625908 -0.22932671010494232
vn -0.4965527057647705 0.8572620749473572 0.13615114986896515
vn 0.04129410535097122 -0.9947758913040161 0.0933578759431839
vn -0.47087597846984863 -0.8769010901451111 0.09654183685779572
vn -0.5945603251457214 0.8012481927871704 -0.06707701086997986
vn 0.9632914662361145 0.05993131920695305 -0.2616825997829437
vn -0.43242037296295166 -0.8547484874725342 0.28708478808403015
vn 0.9974108338356018 0.07009257376194 -0.016082951799035072
vn -0.07192102074623108 0.9929820895195007 -0.09388231486082077
vn 0.9973325133323669 0.0551162026822567 -0.047854162752628326
vn -0.5128815174102783 0.8567788004875183 0.05369032174348831
vn 0.02390936017036438 -0.9958760738372803 0.08751710504293442
vn -0.4808768332004547 -0.8767869472503662 -0.0014443330001085997
vn -0.571723222732544 0.8036370277404785 -0.16522739827632904
vn 0.9948453307151794 0.060728274285793304 -0.08120844513177872
vn -0.47733092308044434 -0.8571208715438843 0.19364669919013977
vn 0.968521237373352 0.06902456283569336 -0.23916983604431152
vn -0.12074588984251022 0.9765303134918213 -0.17835059762001038
vn 0.962352454662323 0.05079186335206032 -0.2670167088508606
vn -0.5124797821044922 0.8558316230773926 0.07011956721544266
vn 0.06055453419685364 -0.9805033206939697 0.18693961203098297
vn -0.4469509422779083 -0.8723520636558533 0.19808267056941986
vn -0.6180258989334106 0.7776579856872559 -0.11529131978750229
vn 0.952823281288147 0.05316830798983574 -0.29883265495300293
vn 0.9972563982009888 0.07013669610023499 -0.023675167933106422
vn -0.07190197706222534 0.9943644404411316 -0.07790651172399521
vn 0.9968864321708679 0.05567348003387451 -0.05583776533603668
vn -0.5120967030525208 0.8559325337409973 0.07166916131973267
vn 0.02485049143433571 -0.9971126914024353 0.0717548280954361
vn -0.481419175863266 -0.876420259475708 -0.01109536923468113
vn -0.5721979141235352 0.8066145181655884 -0.14819777011871338
vn 0.9941035509109497 0.0617508739233017 -0.08913446962833405
vn -0.47556182742118835 -0.8600565195083618 0.18478012084960938
vn -0.4074234664440155 -0.8308959007263184 0.37896984815597534
vn 0.9567587971687317 0.06865906715393066 -0.2826632559299469
vn -0.5147006511688232 0.8541695475578308 0.0740114375948906
vn -0.4327910244464874 -0.8699849247932434 0.23625868558883667
vn -0.6278712153434753 0.7715166807174683 -0.102663554251194
vn 0.9973351359367371 0.0701126754283905 -0.020169802010059357
vn -0.06982781738042831 0.9971359968185425 -0.029048992320895195
vn 0.9969226717948914 0.05734127759933472 -0.05345214530825615
vn -0.5114739537239075 0.8516992926597595 0.11402954161167145
vn 0.024721186608076096 -0.999444842338562 0.022335760295391083
vn -0.4834495186805725 -0.8736650943756104 -0.054642800241708755
vn -0.5693961381912231 0.8147624731063843 -0.10931657999753952
vn 0.9941326379776001 0.06490222364664078 -0.0865333303809166
vn -0.47566258907318115 -0.8679561614990234 0.1428188979625702
vn 0.9621372818946838 0.07032287865877151 -0.26333728432655334
vn -0.0757187232375145 0.9970481395721436 -0.012713365256786346
vn 0.9530561566352844 0.056784529238939285 -0.29742133617401123
vn -0.4664234519004822 0.8508626222610474 0.24183036386966705
vn 0.029490556567907333 -0.9994187355041504 0.017102953046560287
vn -0.4833065867424011 -0.8732994198799133 0.061341945081949234
vn -0.5811119079589844 0.8134025931358337 0.026174800470471382
vn 0.9415992498397827 0.06353587657213211 -0.3306872844696045
vn -0.4241763949394226 -0.8666433095932007 0.2626855969429016
vt 0.5 0
vt 0.75 1
vt 0.5 1
vt 0.75 0
vt 0.5 1
vt 0.5 0
vt 0.75 1
vt 0.75 0
vt 0.75 0.5
vt 0.875 0
vt 0.9995005130767822 0.5
vt 0.75 -0.24600005149841309
vt 0.5 0.3400000333786011
vt 0.75 0.3400000333786011
vt 0.5 -0.24600005149841309
vt 0.75 0.5
vt 0.875 0
vt 0.9995004534721375 0.5
vt 0.75 -0.24600005149841309
vt 0.5 0.3400000333786011
vt 0.75 0.3400000333786011
vt 0.5 -0.24600005149841309
vt 0.75 0.5
vt 0.875 0
vt 0.9995004534721375 0.5
vt 0.75 -0.24600005149841309
vt 0.5 0.3400000333786011
vt 0.75 0.3400000333786011
vt 0.5 -0.24600005149841309
vt 0.75 -0.24600005149841309
vt 0.5 0.3400000333786011
vt 0.75 0.3400000333786011
vt 0.5 -0.24600005149841309
vt 0.75 0.5
vt 0.875 0
vt 0.9995004534721375 0.5
vt 0.5 -0.24600005149841309
vt 0.75 0.3400000333786011
vt 0.5 0.3400000333786011
vt 0.75 -0.24600005149841309
vt 0.5 0.3400000333786011
vt 0.5 -0.24600005149841309
vt 0.75 -0.24600005149841309
vt 0.75 0.3400000333786011
vt 0.75 0.5
vt 0.875 0
vt 0.9995004534721375 0.5
vt 0.75 0.3400000333786011
vt 0.75 -0.24600005149841309
vt 0.5 -0.24600005149841309
vt 0.75 0.3400000333786011
vt 0.5 0.3400000333786011
vt 0.75 -0.24600005149841309
vt 0.5 0.3400000333786011
vt 0.5 -0.24600005149841309
vt 0.75 -0.24600005149841309
vt 0.75 0.3400000333786011
vt 0.75 0.5
vt 0.875 0
vt 0.9995004534721375 0.5
vt 0.5 0.3400000333786011
vt 0.5 -0.24600005149841309
vt 0.75 0.3400000333786011
vt 0.75 -0.24600005149841309
vt 0.5 0.3400000333786011
vt 0.5 -0.24600005149841309
vt 0.5 -0.24600005149841309
vt 0.75 0.3400000333786011
vt 0.5 0.3400000333786011
vt 0.75 -0.24600005149841309
vt 0.5 0.3400000333786011
vt 0.5 -0.24600005149841309
vt 0.75 -0.24600005149841309
vt 0.75 0.3400000333786011
vt 0.75 0.5
vt 0.875 0
vt 0.9995004534721375 0.5
vt 0.5 -0.24600005149841309
vt 0.75 0.3400000333786011
vt 0.5 0.3400000333786011
vt 0.75 -0.24600005149841309
vt 0.5 0.3400000333786011
vt 0.5 -0.24600005149841309
vt 0.75 -0.24600005149841309
vt 0.75 0.3400000333786011
vt 0.75 0.5
vt 0.875 0
vt 0.9995004534721375 0.5
vt 0.5 -0.24600005149841309
vt 0.75 0.3400000333786011
vt 0.5 0.3400000333786011
vt 0.75 -0.24600005149841309
vt 0.5 0.3400000333786011
vt 0.5 -0.24600005149841309
vt 0.75 -0.24600005149841309
vt 0.75 0.3400000333786011
vt 0.75 0.5
vt 0.875 0
vt 0.9995004534721375 0.5
vt 0.5966183543205261 1.5
vt 0.75 1.5
vt 0.75 4.701643943786621
vt 0.9396135210990906 4.701643943786621
vt 0.9396135210990906 1.5
vt 0.9396135210990906 -2.614053726196289
vt 0.5966183543205261 1.5
vt 0.9396135210990906 1.5
vt 0.5966183543205261 -2.614053726196289
vt 0.75 1.5
vt 0.75 -2.614053726196289
vt 0.5966183543205261 4.701643943786621
vt 0.9396135210990906 4.701643943786621
vt 0.75 4.701643943786621
vt 0.9396135210990906 -2.614053726196289
vt 0.5966183543205261 1.5
vt 0.9396135210990906 1.5
vt 0.5966183543205261 -2.614053726196289
vt 0.75 1.5
vt 0.75 -2.614053726196289
vt 0.5966183543205261 4.701643943786621
vt 0.9396135210990906 4.701643943786621
vt 0.75 4.701643943786621
vt 0.9396135210990906 -2.614053726196289
vt 0.5966183543205261 1.5
vt 0.9396135210990906 1.5
vt 0.5966183543205261 -2.614053726196289
vt 0.75 1.5
vt 0.75 -2.614053726196289
vt 0.5966183543205261 4.701643943786621
vt 0.9396135210990906 4.701643943786621
vt 0.75 4.701643943786621
vt 0.9396135210990906 -2.614053726196289
vt 0.5966183543205261 1.5
vt 0.9396135210990906 1.5
vt 0.5966183543205261 -2.614053726196289
vt 0.75 1.5
vt 0.75 -2.614053726196289
vt 0.5966183543205261 4.701643943786621
vt 0.9396135210990906 4.701643943786621
vt 0.75 4.701643943786621
vt 0.9396135210990906 -2.614053726196289
vt 0.5966183543205261 1.5
vt 0.9396135210990906 1.5
vt 0.5966183543205261 -2.614053726196289
vt 0.75 1.5
vt 0.75 -2.614053726196289
vt 0.5966183543205261 4.701643943786621
vt 0.9396135210990906 4.701643943786621
vt 0.9396135210990906 -2.614053726196289
vt 0.5966183543205261 1.5
vt 0.9396135210990906 1.5
vt 0.5966183543205261 -2.614053726196289
vt 0.75 1.5
vt 0.75 -2.614053726196289
vt 0.5966183543205261 4.701643943786621
vt 0.9396135210990906 4.701643943786621
vt 0.75 4.701643943786621
vt 0.75 4.701643943786621
vt 0.9396135210990906 -2.614053726196289
vt 0.5966183543205261 -2.614053726196289
vt 0.75 -2.614053726196289
vt 0.5966183543205261 4.701643943786621
vt 0.9396135210990906 -2.614053726196289
vt 0.5966183543205261 1.5
vt 0.9396135210990906 1.5
vt 0.5966183543205261 -2.614053726196289
vt 0.75 1.5
vt 0.75 -2.614053726196289
vt 0.5966183543205261 4.701643943786621
vt 0.9396135210990906 4.701643943786621
vt 0.75 4.701643943786621
vt 0.9396135210990906 -2.614053726196289
vt 0.5966183543205261 1.5
vt 0.9396135210990906 1.5
vt 0.5966183543205261 -2.614053726196289
vt 0.75 1.5
vt 0.75 -2.614053726196289
vt 0.5966183543205261 4.701643943786621
vt 0.9396135210990906 4.701643943786621
vt 0.75 4.701643943786621
g LowerMesaB010
s 1
f 1/1/1 2/2/2 3/3/3
f 1/1/1 4/4/4 2/2/2
f 4/4/4 5/5/5 2/2/2
f 4/4/4 6/6/6 5/5/5
f 6/6/6 7/7/7 5/5/5
f 6/6/6 8/8/8 7/7/7
f 9/9/9 10/10/10 11/11/11
f 12/12/12 13/13/13 14/14/14
f 12/12/12 15/15/15 13/13/13
f 16/16/16 17/17/17 18/18/18
f 19/19/19 20/20/20 21/21/21
f 19/19/19 22/22/22 20/20/20
f 23/23/23 24/24/24 25/25/25
f 26/26/26 27/27/27 28/28/28
f 26/26/26 29/29/29 27/27/27
f 30/30/30 31/31/31 32/32/32
f 30/30/30 33/33/33 31/31/31
f 34/34/34 35/35/35 36/36/36
f 33/33/33 28/28/28 31/31/31
f 37/37/37 38/38/38 39/39/39
f 37/37/37 40/40/40 38/38/38
f 40/40/40 41/41/41 38/38/38
f 40/40/40 42/42/42 41/41/41
f 43/43/43 39/39/39 44/44/44
f 43/43/43 37/37/37 39/39/39
f 45/45/45 46/46/46 47/47/47
f 33/33/33 26/26/26 28/28/28
f 22/22/22 48/48/48 20/20/20
f 22/22/22 49/49/49 48/48/48
f 50/50/50 51/51/51 52/52/52
f 50/50/50 53/53/53 51/51/51
f 53/53/53 54/54/54 51/51/51
f 53/53/53 55/55/55 54/54/54
f 56/56/56 52/52/52 57/57/57
f 56/56/56 50/50/50 52/52/52
f 58/58/58 59/59/59 60/60/60
f 49/49/49 61/61/61 48/48/48
f 49/49/49 62/62/62 61/61/61
f 15/15/15 63/63/63 13/13/13
f 15/15/15 64/64/64 63/63/63
f 64/64/64 65/65/65 63/63/63
f 64/64/64 66/66/66 65/65/65
f 67/67/67 68/68/68 69/69/69
f 67/67/67 70/70/70 68/68/68
f 70/70/70 71/71/71 68/68/68
f 70/70/70 72/72/72 71/71/71
f 73/73/73 69/69/69 74/74/74
f 73/73/73 67/67/67 69/69/69
f 75/75/75 76/76/76 77/77/77
f 78/78/78 79/79/79 80/80/80
f 78/78/78 81/81/81 79/79/79
f 81/81/81 82/82/82 79/79/79
f 81/81/81 83/83/83 82/82/82
f 84/84/84 80/80/80 85/85/85
f 84/84/84 78/78/78 80/80/80
f 86/86/86 87/87/87 88/88/88
f 89/89/89 90/90/90 91/91/91
f 89/89/89 92/92/92 90/90/90
f 92/92/92 93/93/93 90/90/90
f 92/92/92 94/94/94 93/93/93
f 95/95/95 91/91/91 96/96/96
f 95/95/95 89/89/89 91/91/91
f 97/97/97 98/98/98 99/99/99
g LowerMesaB011
s 1
f 100/100/100 101/101/101 102/102/102
f 101/101/101 103/103/103 102/102/102
f 101/101/101 104/104/104 103/103/103
f 105/105/105 106/106/106 107/107/107
f 105/105/105 108/108/108 106/106/106
f 108/108/108 109/109/109 106/106/106
f 108/108/108 110/110/110 109/109/109
f 110/110/110 107/107/107 109/109/109
f 110/110/110 105/105/105 107/107/107
f 107/107/107 111/111/111 112/112/112
f 107/107/107 106/106/106 111/111/111
f 106/106/106 113/113/113 111/111/111
f 106/106/106 109/109/109 113/113/113
f 109/109/109 112/112/112 113/113/113
f 109/109/109 107/107/107 112/112/112
f 114/114/114 115/115/115 116/116/116
f 114/114/114 117/117/117 115/115/115
f 117/117/117 118/118/118 115/115/115
f 117/117/117 119/119/119 118/118/118
f 119/119/119 116/116/116 118/118/118
f 119/119/119 114/114/114 116/116/116
f 116/116/116 120/120/120 121/121/121
f 116/116/116 115/115/115 120/120/120
f 115/115/115 122/122/122 120/120/120
f 115/115/115 118/118/118 122/122/122
f 118/118/118 121/121/121 122/122/122
f 118/118/118 116/116/116 121/121/121
f 123/123/123 124/124/124 125/125/125
f 123/123/123 126/126/126 124/124/124
f 126/126/126 127/127/127 124/124/124
f 126/126/126 128/128/128 127/127/127
f 128/128/128 125/125/125 127/127/127
f 128/128/128 123/123/123 125/125/125
f 125/125/125 129/129/129 130/130/130
f 125/125/125 124/124/124 129/129/129
f 124/124/124 131/131/131 129/129/129
f 124/124/124 127/127/127 131/131/131
f 127/127/127 130/130/130 131/131/131
f 127/127/127 125/125/125 130/130/130
f 132/132/132 133/133/133 134/134/134
f 132/132/132 135/135/135 133/133/133
f 135/135/135 136/136/136 133/133/133
f 135/135/135 137/137/137 136/136/136
f 137/137/137 134/134/134 136/136/136
f 137/137/137 132/132/132 134/134/134
f 134/134/134 138/138/138 139/139/139
f 134/134/134 133/133/133 138/138/138
f 133/133/133 140/140/140 138/138/138
f 133/133/133 136/136/136 140/140/140
f 136/136/136 139/139/139 140/140/140
f 136/136/136 134/134/134 139/139/139
f 141/141/141 142/142/142 143/143/143
f 141/141/141 144/144/144 142/142/142
f 144/144/144 145/145/145 142/142/142
f 144/144/144 146/146/146 145/145/145
f 146/146/146 143/143/143 145/145/145
f 146/146/146 141/141/141 143/143/143
f 143/143/143 147/147/147 148/148/148
f 149/149/149 150/150/150 151/151/151
f 149/149/149 152/152/152 150/150/150
f 152/152/152 153/153/153 150/150/150
f 152/152/152 154/154/154 153/153/153
f 154/154/154 151/151/151 153/153/153
f 154/154/154 149/149/149 151/151/151
f 151/151/151 155/155/155 156/156/156
f 151/151/151 150/150/150 155/155/155
f 150/150/150 157/157/157 155/155/155
f 150/150/150 153/153/153 157/157/157
f 153/153/153 156/156/156 157/157/157
f 153/153/153 151/151/151 156/156/156
f 143/143/143 142/142/142 147/147/147
f 142/142/142 158/158/158 147/147/147
f 142/142/142 145/145/145 158/158/158
f 145/145/145 148/148/148 158/158/158
f 145/145/145 143/143/143 148/148/148
f 159/159/159 100/100/100 104/104/104
f 159/159/159 160/160/160 100/100/100
f 160/160/160 101/101/101 100/100/100
f 160/160/160 161/161/161 101/101/101
f 161/161/161 104/104/104 101/101/101
f 161/161/161 159/159/159 104/104/104
f 104/104/104 162/162/162 103/103/103
f 104/104/104 100/100/100 162/162/162
f 100/100/100 102/102/102 162/162/162
f 163/163/163 164/164/164 165/165/165
f 163/163/163 166/166/166 164/164/164
f 166/166/166 167/167/167 164/164/164
f 166/166/166 168/168/168 167/167/167
f 168/168/168 165/165/165 167/167/167
f 168/168/168 163/163/163 165/165/165
f 165/165/165 169/169/169 170/170/170
f 165/165/165 164/164/164 169/169/169
f 164/164/164 171/171/171 169/169/169
f 164/164/164 167/167/167 171/171/171
f 167/167/167 170/170/170 171/171/171
f 167/167/167 165/165/165 170/170/170
f 172/172/172 173/173/173 174/174/174
f 172/172/172 175/175/175 173/173/173
f 175/175/175 176/176/176 173/173/173
f 175/175/175 177/177/177 176/176/176
f 177/177/177 174/174/174 176/176/176
f 177/177/177 172/172/172 174/174/174
f 174/174/174 178/178/178 179/179/179
f 174/174/174 173/173/173 178/178/178
f 173/173/173 180/180/180 178/178/178
f 173/173/173 176/176/176 180/180/180
f 176/176/176 179/179/179 180/180/180
f 176/176/176 174/174/174 179/179/179
