# Exported using wow.export v0.2.19
o midmesab_MidMesaB02.obj
v -15.724979400634766 19.078353881835938 53.1322021484375
v -13.29504108428955 18.66399574279785 55.081600189208984
v -13.20324993133545 9.436712265014648 53.127864837646484
v -19.48627471923828 9.037332534790039 55.006797790527344
v -17.15329360961914 8.618825912475586 56.97571563720703
v -17.525114059448242 17.826295852661133 59.02267837524414
v -19.955049514770508 18.24065399169922 57.07327651977539
v -18.70115089416504 9.671448707580566 52.02351760864258
v -19.054981231689453 18.866682052612305 54.1280403137207
v -15.55964469909668 9.871138572692871 51.084049224853516
v -14.0117769241333 8.818516731262207 56.03624725341797
v -14.195107460021973 18.037967681884766 58.0268440246582
v -12.133845329284668 0.07424687594175339 51.47511672973633
v -13.407361030578613 -0.616290807723999 54.723838806152344
v -15.193408966064453 0.5983088612556458 49.00960159301758
v -20.506954193115234 -0.45798954367637634 53.97909164428711
v -17.593917846679688 -0.8824092745780945 55.975830078125
v -19.379966735839844 0.3321903645992279 50.2615852355957
v -14.416007041931152 25.770586013793945 59.4852294921875
v -13.597765922546387 26.339702606201172 56.807743072509766
v -16.625051498413086 27.031259536743164 57.90094757080078
v -15.806803703308105 26.71639060974121 55.03556442260742
v -19.652320861816406 25.954845428466797 58.61835479736328
v -17.44329071044922 25.578155517578125 60.39053726196289
v -18.834077835083008 26.523962020874023 55.94086837768555
v -14.195107460021973 18.037967681884766 58.0268440246582
v -13.29504108428955 18.66399574279785 55.081600189208984
v -13.597765922546387 26.339702606201172 56.807743072509766
v -14.416007041931152 25.770586013793945 59.4852294921875
v -13.29504108428955 18.66399574279785 55.081600189208984
v -15.724979400634766 19.078353881835938 53.1322021484375
v -15.806803703308105 26.71639060974121 55.03556442260742
v -13.597765922546387 26.339702606201172 56.807743072509766
v -14.416007041931152 25.770586013793945 59.4852294921875
v -17.44329071044922 25.578155517578125 60.39053726196289
v -17.525114059448242 17.826295852661133 59.02267837524414
v -14.195107460021973 18.037967681884766 58.0268440246582
v -18.834077835083008 26.523962020874023 55.94086837768555
v -15.806803703308105 26.71639060974121 55.03556442260742
v -15.724979400634766 19.078353881835938 53.1322021484375
v -19.054981231689453 18.866682052612305 54.1280403137207
v -19.652320861816406 25.954845428466797 58.61835479736328
v -18.834077835083008 26.523962020874023 55.94086837768555
v -19.054981231689453 18.866682052612305 54.1280403137207
v -19.955049514770508 18.24065399169922 57.07327651977539
v -17.44329071044922 25.578155517578125 60.39053726196289
v -19.652320861816406 25.954845428466797 58.61835479736328
v -19.955049514770508 18.24065399169922 57.07327651977539
v -17.525114059448242 17.826295852661133 59.02267837524414
v 9.608654022216797 2.3398356437683105 42.94704818725586
v 9.646008491516113 2.424067974090576 43.066593170166016
v 6.319784641265869 2.112230062484741 44.84311294555664
v 6.279852390289307 2.0657081604003906 44.78005599975586
v 9.549546241760254 2.4892029762268066 42.97720718383789
v 6.274986743927002 2.1498146057128906 44.78139114379883
v 0.2993592917919159 2.5074548721313477 47.91115188598633
v 0.33818429708480835 2.5539767742156982 47.97489929199219
v -2.0620551109313965 2.9120066165924072 49.3345947265625
v -2.195949077606201 2.8354074954986572 49.24629592895508
v 0.29447081685066223 2.5915613174438477 47.91239929199219
v -2.0846917629241943 2.966289520263672 49.18262481689453
v 3.6596438884735107 2.7815823554992676 46.13652038574219
v 3.69490647315979 2.865814685821533 46.25669860839844
v 3.6000187397003174 2.9309494495391846 46.1656379699707
v 12.077954292297363 1.4153543710708618 41.49104309082031
v 12.116780281066895 1.461876392364502 41.554786682128906
v 9.716540336608887 1.819906234741211 42.91448211669922
v 9.582646369934082 1.743307113647461 42.8261833190918
v 12.073066711425781 1.4994608163833618 41.492286682128906
v 9.693903923034668 1.8741891384124756 42.76251220703125
v 15.438239097595215 1.6894819736480713 39.716407775878906
v 15.473502159118652 1.773714303970337 39.836585998535156
v 15.37861442565918 1.8388491868972778 39.74552917480469
v 3.9436404705047607 2.47025990486145 46.2444953918457
v 3.8082258701324463 2.3936607837677 46.15854263305664
v 3.9183549880981445 2.524543046951294 46.09294128417969
v -21.95623207092285 2.5680878162384033 53.138389587402344
v -21.975934982299805 2.6056721210479736 53.06471252441406
v -24.646059036254883 2.980400562286377 53.44460678100586
v -24.772382736206055 2.8495185375213623 53.46638870239258
v -21.970914840698242 2.5215656757354736 53.06521224975586
v -24.67676544189453 2.9261176586151123 53.595157623291016
v -9.007697105407715 2.8799257278442383 50.369598388671875
v -12.685887336730957 2.6056721210479736 51.25006103515625
v -12.656737327575684 2.5680878162384033 51.32054138183594
v -9.08062744140625 2.9450604915618896 50.26015853881836
v -12.680845260620117 2.5215656757354736 51.24990463256836
v -9.016112327575684 2.7956933975219727 50.244632720947266
v -15.283581733703613 2.980400562286377 51.97523498535156
v -15.294374465942383 2.9261176586151123 52.128501892089844
v -15.40598201751709 2.8495185375213623 52.01331329345703
v -2.3323357105255127 2.943904161453247 49.38911056518555
v -6.086554050445557 2.6696505546569824 49.8475341796875
v -6.0655694007873535 2.632066011428833 49.92085647583008
v -2.3924081325531006 3.0090389251708984 49.27212142944336
v -24.86071014404297 2.512439012527466 53.55658721923828
v -28.61012840270996 2.238185405731201 53.060428619384766
v -28.608171463012695 2.2006008625030518 53.13667297363281
v -24.889577865600586 2.577573776245117 53.42828369140625
v -28.605363845825195 2.154078960418701 53.06208801269531
v -24.82378387451172 2.4282066822052 53.43690872192383
v -31.295162200927734 2.6129138469696045 52.80650329589844
v -31.360164642333984 2.55863094329834 52.94572448730469
v -31.423078536987305 2.48203182220459 52.798187255859375
v -18.21428871154785 2.8799257278442383 52.671878814697266
v -18.272308349609375 2.9450604915618896 52.553855895996094
v -18.20631980895996 2.7956933975219727 52.5468864440918
v -6.081526756286621 2.5855441093444824 49.84794998168945
v -8.777714729309082 2.990096092224121 50.4250373840332
v -8.875566482543945 2.913496971130371 50.29795455932617
v -8.749641418457031 3.0443789958953857 50.27397537231445
v -2.3265507221221924 2.8596718311309814 49.26399612426758
v -31.298099517822266 0.7676838040351868 52.4171028137207
v -31.572967529296875 0.7676838040351868 53.02024459838867
v -31.96513557434082 2.7657978534698486 53.160552978515625
v -31.572967529296875 0.7676838040351868 53.02024459838867
v -30.84865379333496 2.7657978534698486 52.81903076171875
v -31.96513557434082 2.7657978534698486 53.160552978515625
v -31.08599853515625 0.7676838040351868 52.791988372802734
v -31.511064529418945 2.7657978534698486 52.164180755615234
v -31.96513557434082 2.7657978534698486 53.160552978515625
v -30.84865379333496 2.7657978534698486 52.81903076171875
v 4.082512378692627 0.9970810413360596 45.96250534057617
v 3.6953773498535156 0.9970810413360596 45.773685455322266
v 3.3766119480133057 2.995194911956787 45.68587112426758
v 3.5667495727539062 2.995194911956787 46.76419448852539
v -31.511064529418945 2.7657978534698486 52.164180755615234
v 4.293431758880615 2.995194911956787 45.85035705566406
v -8.965078353881836 1.1991488933563232 50.55046463012695
v -8.314217567443848 3.19726300239563 50.1743049621582
v -9.309625625610352 3.19726300239563 50.78449249267578
v -8.550773620605469 1.1991488933563232 50.20755386352539
v -9.119487762451172 3.19726300239563 49.7061653137207
v -9.309625625610352 3.19726300239563 50.78449249267578
v -8.314217567443848 3.19726300239563 50.1743049621582
v -1.918283224105835 1.121059536933899 49.05507278442383
v -2.619248151779175 3.119173526763916 48.76616287231445
v -1.7054388523101807 3.119173526763916 48.946624755859375
v -2.3020637035369873 1.121059536933899 48.859527587890625
v -2.4479589462280273 3.119173526763916 49.84764099121094
v -2.1983754634857178 1.121059536933899 49.51418685913086
v -2.1983754634857178 1.121059536933899 49.51418685913086
v -2.4479589462280273 3.119173526763916 49.84764099121094
v -2.619248151779175 3.119173526763916 48.76616287231445
v -2.4479589462280273 3.119173526763916 49.84764099121094
v -1.7054388523101807 3.119173526763916 48.946624755859375
v 9.159347534179688 2.624540328979492 42.34605026245117
v 9.330636978149414 2.624540328979492 43.427528381347656
v 10.073156356811523 2.624540328979492 42.526512145996094
v 9.580220222473145 0.6264263987541199 43.09407424926758
v 9.860312461853027 0.6264263987541199 42.63496398925781
v 10.073156356811523 2.624540328979492 42.526512145996094
v 9.330636978149414 2.624540328979492 43.427528381347656
v 9.476531982421875 0.6264263987541199 42.439414978027344
v 9.580220222473145 0.6264263987541199 43.09407424926758
v 9.330636978149414 2.624540328979492 43.427528381347656
v 9.159347534179688 2.624540328979492 42.34605026245117
v -25.00594139099121 3.133284568786621 52.87043380737305
v -25.214868545532227 3.133284568786621 53.94527053833008
v -24.20896339416504 3.133284568786621 53.35255432128906
v -24.866289138793945 1.135170578956604 53.71729278564453
v -24.446062088012695 1.135170578956604 53.38166427612305
v -24.20896339416504 3.133284568786621 53.35255432128906
v -25.214868545532227 3.133284568786621 53.94527053833008
v -24.739816665649414 1.135170578956604 53.066650390625
v -24.866289138793945 1.135170578956604 53.71729278564453
v -25.214868545532227 3.133284568786621 53.94527053833008
v 3.8104753494262695 0.9970810413360596 46.42643737792969
v 3.8104753494262695 0.9970810413360596 46.42643737792969
v 3.5667495727539062 2.995194911956787 46.76419448852539
v 3.3766119480133057 2.995194911956787 45.68587112426758
v 3.5667495727539062 2.995194911956787 46.76419448852539
v 4.293431758880615 2.995194911956787 45.85035705566406
v -8.849981307983398 1.1991488933563232 49.89771270751953
v -8.965078353881836 1.1991488933563232 50.55046463012695
v -9.309625625610352 3.19726300239563 50.78449249267578
v -9.119487762451172 3.19726300239563 49.7061653137207
v -25.00594139099121 3.133284568786621 52.87043380737305
vn 0.19386471807956696 0.20922014117240906 -0.9584588408470154
vn 0.9561975598335266 0.07445814460515976 -0.28309395909309387
vn 0.9939975142478943 0.08378084003925323 -0.07035420089960098
vn -0.9519679546356201 -0.022911671549081802 0.3053393065929413
vn -0.4328186810016632 -0.10305225849151611 0.8955714702606201
vn -0.1936132162809372 -0.22485661506652832 0.9549625515937805
vn -0.9554468989372253 -0.10287712514400482 0.27665409445762634
vn -0.8294795155525208 0.13284863531589508 -0.542508065700531
vn -0.7091297507286072 0.13126371800899506 -0.6927516460418701
vn 0.2123221904039383 0.22975990176200867 -0.9498050808906555
vn 0.8576551079750061 -0.023752130568027496 0.5136765241622925
vn 0.7092326879501343 -0.1352808177471161 0.6918728947639465
vn 0.993949830532074 0.10586275905370712 -0.029271546751260757
vn 0.6790692806243896 -0.05828658118844032 0.7317565083503723
vn 0.194773867726326 0.22145500779151917 -0.9555212259292603
vn -0.8492482900619507 0.021579520776867867 0.5275524854660034
vn -0.1550551801919937 -0.09627892076969147 0.9832030534744263
vn -0.709297239780426 0.18012653291225433 -0.6815070509910583
vn 0.5441663265228271 0.5079743266105652 0.6677163243293762
vn 0.714824378490448 0.695199191570282 -0.07565788924694061
vn -6.167856554384343e-7 0.9781476855278015 0.20791135728359222
vn 0.14496959745883942 0.7794467210769653 -0.609464168548584
vn -0.714825451374054 0.6043229103088379 0.35187840461730957
vn -0.14497080445289612 0.4641692042350769 0.8738022446632385
vn -0.5441666841506958 0.7356417179107666 -0.40337812900543213
vn 0.7092326879501343 -0.1352808177471161 0.6918728947639465
vn 0.9561975598335266 0.07445814460515976 -0.28309395909309387
vn 0.714824378490448 0.695199191570282 -0.07565788924694061
vn 0.5441663265228271 0.5079743266105652 0.6677163243293762
vn 0.9561975598335266 0.07445814460515976 -0.28309395909309387
vn 0.19386471807956696 0.20922014117240906 -0.9584588408470154
vn 0.14496959745883942 0.7794467210769653 -0.609464168548584
vn 0.714824378490448 0.695199191570282 -0.07565788924694061
vn 0.5441663265228271 0.5079743266105652 0.6677163243293762
vn -0.14497080445289612 0.4641692042350769 0.8738022446632385
vn -0.1936132162809372 -0.22485661506652832 0.9549625515937805
vn 0.7092326879501343 -0.1352808177471161 0.6918728947639465
vn -0.5441666841506958 0.7356417179107666 -0.40337812900543213
vn 0.14496959745883942 0.7794467210769653 -0.609464168548584
vn 0.19386471807956696 0.20922014117240906 -0.9584588408470154
vn -0.7091297507286072 0.13126371800899506 -0.6927516460418701
vn -0.714825451374054 0.6043229103088379 0.35187840461730957
vn -0.5441666841506958 0.7356417179107666 -0.40337812900543213
vn -0.7091297507286072 0.13126371800899506 -0.6927516460418701
vn -0.9554468989372253 -0.10287712514400482 0.27665409445762634
vn -0.14497080445289612 0.4641692042350769 0.8738022446632385
vn -0.714825451374054 0.6043229103088379 0.35187840461730957
vn -0.9554468989372253 -0.10287712514400482 0.27665409445762634
vn -0.1936132162809372 -0.22485661506652832 0.9549625515937805
vn -0.17669254541397095 -0.8745167255401611 -0.45166388154029846
vn 0.464876264333725 0.06967377662658691 0.882629930973053
vn 0.48991599678993225 0.05860573425889015 0.8697975277900696
vn -0.005271767266094685 -0.9995028972625732 0.03108258545398712
vn -0.3164539039134979 0.8536033630371094 -0.41378527879714966
vn -0.008940611034631729 0.9973428845405579 -0.07229973375797272
vn -0.0058123343624174595 -0.9995030164718628 0.03098285011947155
vn 0.4746609628200531 0.05860813707113266 0.8782152533531189
vn 0.4988636374473572 0.06796596944332123 0.8640114068984985
vn -0.31561505794525146 -0.8709479570388794 -0.37661221623420715
vn -0.007683876436203718 0.9973415732383728 -0.07246217131614685
vn -0.1641370952129364 0.8179059028625488 -0.5514426231384277
vn -0.16878223419189453 -0.8745177388191223 -0.45467713475227356
vn 0.4494008719921112 0.06968320906162262 0.8906082510948181
vn -0.309190958738327 0.8535935878753662 -0.4192599654197693
vn -0.005812524817883968 -0.9995030164718628 0.030982891097664833
vn 0.4746609628200531 0.0586078055202961 0.8782152533531189
vn 0.49886354804039 0.06796576082706451 0.8640114665031433
vn -0.3156152665615082 -0.8709476590156555 -0.3766127824783325
vn -0.007683519273996353 0.9973416328430176 -0.07246097177267075
vn -0.16413666307926178 0.817906379699707 -0.5514420866966248
vn -0.16878251731395721 -0.8745174407958984 -0.45467761158943176
vn 0.4494009017944336 0.06968235224485397 0.8906083106994629
vn -0.3091905415058136 0.853594183921814 -0.41925904154777527
vn 0.5138667821884155 0.06796656548976898 0.8551733493804932
vn -0.3221378028392792 -0.870949387550354 -0.3710450530052185
vn -0.17373688519001007 0.8179033994674683 -0.5484974980354309
vn 0.1456683725118637 0.05861010029911995 0.9875958561897278
vn 0.01756318472325802 0.9973422288894653 -0.07071102410554886
vn 0.03436575457453728 0.8179012537002563 -0.5743314027786255
vn -0.16777098178863525 -0.8709505200386047 -0.46184206008911133
vn -0.01605922356247902 -0.9995028972625732 0.027129601687192917
vn 0.1732688695192337 0.06796760857105255 0.9825264811515808
vn 0.24598559737205505 0.06967254728078842 0.9667661786079407
vn 0.008183705620467663 0.9973418712615967 -0.07240322977304459
vn 0.27332979440689087 0.058613091707229614 0.9601329565048218
vn -0.21111948788166046 0.8535881042480469 -0.4762519299983978
vn -0.012379804626107216 -0.999502956867218 0.028992226347327232
vn -0.06637124717235565 -0.8745184540748596 -0.4804293215274811
vn -0.04089163616299629 0.8179070949554443 -0.5738953351974487
vn 0.30003228783607483 0.06796328723430634 0.9515049457550049
vn -0.2266215831041336 -0.8709444999694824 -0.4360026717185974
vn 0.1349639892578125 0.06967373937368393 0.9883978366851807
vn 0.016327114775776863 0.997342586517334 -0.0710010677576065
vn 0.16288244724273682 0.05860969051718712 0.9849031567573547
vn -0.15584741532802582 0.8535984754562378 -0.497072696685791
vn -0.11680972576141357 0.06967402249574661 0.9907073378562927
vn 0.033583831042051315 0.9973423480987549 -0.06465598195791245
vn -0.08890609443187714 0.058604635298252106 0.994314432144165
vn -0.026427125558257103 0.8536015748977661 -0.5202556848526001
vn -0.021949054673314095 -0.9995030760765076 0.022623658180236816
vn 0.11020827293395996 -0.8745123147964478 -0.4723159372806549
vn 0.16749076545238495 0.8179065585136414 -0.5504322648048401
vn -0.060884855687618256 0.06796372681856155 0.9958282709121704
vn -0.05531914904713631 -0.8709453344345093 -0.4882561266422272
vn 0.11769310384988785 0.0696740671992302 0.9906027913093567
vn -0.14714936912059784 0.8535934090614319 -0.49972525238990784
vn -0.0030943690799176693 -0.8745193481445312 -0.4849807322025299
vn -0.015583270229399204 -0.9995028972625732 0.027407562360167503
vn 0.190389946103096 0.06796695291996002 0.9793529510498047
vn -0.17580585181713104 -0.8709495663642883 -0.45884543657302856
vn 0.02433774434030056 0.8179031610488892 -0.5748409032821655
vn -0.011559047736227512 -0.8745165467262268 -0.4848579168319702
vn -0.032963499426841736 -0.12896771728992462 -0.9911007881164551
vn -0.12442148476839066 -0.14894266426563263 0.9809869527816772
vn -0.5176903009414673 0.7179273962974548 0.4653783440589905
vn -0.12442148476839066 -0.14894266426563263 0.9809869527816772
vn 0.7031807899475098 0.4237477481365204 0.5709419250488281
vn -0.5176903009414673 0.7179273962974548 0.4653783440589905
vn 0.987684965133667 -0.052393727004528046 -0.14742201566696167
vn 0.3488099277019501 0.42042332887649536 -0.8376012444496155
vn -0.5176903009414673 0.7179273962974548 0.4653783440589905
vn 0.7031807899475098 0.4237477481365204 0.5709419250488281
vn 0.7304776310920715 -0.052393924444913864 -0.6809238195419312
vn -0.5885298848152161 -0.12896712124347687 -0.7981228232383728
vn -0.1869569569826126 0.42042362689971924 -0.8878575563430786
vn -0.16304953396320343 0.7179284691810608 0.6767522096633911
vn 0.3488099277019501 0.42042332887649536 -0.8376012444496155
vn 0.902894914150238 0.4237474203109741 0.07224170863628387
vn 0.12515927851200104 -0.14894214272499084 0.9808931350708008
vn 0.8237349390983582 0.4237472712993622 0.37669482827186584
vn -0.384679913520813 0.7179281711578369 0.5801728367805481
vn 0.9193152189254761 -0.05239395052194595 -0.39001840353012085
vn 0.12798550724983215 0.42042404413223267 -0.8982557058334351
vn -0.384679913520813 0.7179281711578369 0.5801728367805481
vn 0.8237349390983582 0.4237472712993622 0.37669482827186584
vn 0.7422506809234619 -0.05239406228065491 -0.6680709719657898
vn -0.17143230140209198 0.4204237759113312 -0.8909853100776672
vn 0.9014966487884521 0.42374730110168457 0.08798899501562119
vn -0.5745111107826233 -0.1289675235748291 -0.8082724213600159
vn -0.17483627796173096 0.7179279327392578 0.6738039255142212
vn 0.4376891553401947 -0.14894281327724457 0.88670414686203
vn 0.4376891553401947 -0.14894281327724457 0.88670414686203
vn -0.17483627796173096 0.7179279327392578 0.6738039255142212
vn -0.17143230140209198 0.4204237759113312 -0.8909853100776672
vn -0.17483627796173096 0.7179279327392578 0.6738039255142212
vn 0.9014966487884521 0.42374730110168457 0.08798899501562119
vn -0.17143239080905914 0.4204237163066864 -0.8909853100776672
vn -0.174836203455925 0.7179279923439026 0.6738039255142212
vn 0.9014965295791626 0.4237474501132965 0.08798936754465103
vn 0.4376888573169708 -0.14894254505634308 0.8867043256759644
vn 0.7422506809234619 -0.05239395424723625 -0.6680709719657898
vn 0.9014965295791626 0.4237474501132965 0.08798936754465103
vn -0.174836203455925 0.7179279923439026 0.6738039255142212
vn -0.5745111703872681 -0.1289675384759903 -0.8082723617553711
vn 0.4376888573169708 -0.14894254505634308 0.8867043256759644
vn -0.174836203455925 0.7179279923439026 0.6738039255142212
vn -0.17143239080905914 0.4204237163066864 -0.8909853100776672
vn 0.14363886415958405 0.4204234778881073 -0.8958861231803894
vn -0.39474746584892273 0.7179277539253235 0.5733708739280701
vn 0.817035436630249 0.4237480163574219 0.3910124599933624
vn 0.10802238434553146 -0.1489434540271759 0.9829277992248535
vn 0.9259802103042603 -0.05239367112517357 -0.37391912937164307
vn 0.817035436630249 0.4237480163574219 0.3910124599933624
vn -0.39474746584892273 0.7179277539253235 0.5733708739280701
vn -0.26341986656188965 -0.12896700203418732 -0.9560216665267944
vn 0.10802238434553146 -0.1489434540271759 0.9829277992248535
vn -0.39474746584892273 0.7179277539253235 0.5733708739280701
vn 0.45309826731681824 -0.148942768573761 0.8789300322532654
vn 0.45309826731681824 -0.148942768573761 0.8789300322532654
vn -0.16304953396320343 0.7179284691810608 0.6767522096633911
vn -0.1869569569826126 0.42042362689971924 -0.8878575563430786
vn -0.16304953396320343 0.7179284691810608 0.6767522096633911
vn 0.902894914150238 0.4237474203109741 0.07224170863628387
vn -0.2800616919994354 -0.1289673149585724 -0.9512795805931091
vn 0.12515927851200104 -0.14894214272499084 0.9808931350708008
vn -0.384679913520813 0.7179281711578369 0.5801728367805481
vn 0.12798550724983215 0.42042404413223267 -0.8982557058334351
vn 0.14363886415958405 0.4204234778881073 -0.8958861231803894
vt 0.875 0.9950000047683716
vt 1 0.9950000047683716
vt 1 0.5049999952316284
vt 0.5 0.5049999952316284
vt 0.625 0.5049999952316284
vt 0.6284999847412109 0.9950000047683716
vt 0.5 0.9950000047683716
vt 0.625 0.5049999952316284
vt 0.6284999847412109 0.9950000047683716
vt 0.875 0.5049999952316284
vt 0.875 0.5049999952316284
vt 0.875 0.9950000047683716
vt 1 0.9950000047683716
vt 0.875 0.9950000047683716
vt 0.875 0.9950000047683716
vt 0.5 0.9950000047683716
vt 0.625 0.9950000047683716
vt 0.625 0.9950000047683716
vt -0.4229699969291687 0.499750554561615
vt -0.48540759086608887 0.2500002980232239
vt -0.36053210496902466 0.2500002384185791
vt -0.42296987771987915 0.00025016069412231445
vt -0.23565733432769775 0.25000011920928955
vt -0.2980946898460388 0.49975043535232544
vt -0.2980949282646179 0.00025004148483276367
vt 0 0
vt 0.18000000715255737 0
vt 0.18000000715255737 0.5
vt 0 0.5
vt 0 0
vt 0.18000000715255737 0
vt 0.18000000715255737 0.5
vt 0 0.5
vt 0.18000000715255737 0.5
vt 0 0.5
vt 0 0
vt 0.18000000715255737 0
vt 0.18000000715255737 0.5
vt 0 0.5
vt 0 0
vt 0.18000000715255737 0
vt 0.18000000715255737 0.5
vt 0 0.5
vt 0 0
vt 0.18000000715255737 0
vt 0.18000000715255737 0.5
vt 0 0.5
vt 0 0
vt 0.18000000715255737 0
vt 0.75 -2.614053726196289
vt 0.9396135210990906 -2.614053726196289
vt 0.9396135210990906 1.5
vt 0.75 1.5
vt 0.5966183543205261 -2.614053726196289
vt 0.5966183543205261 1.5
vt 0.75 1.5
vt 0.9396135210990906 1.5
vt 0.9396135210990906 4.701643943786621
vt 0.75 4.701643943786621
vt 0.5966183543205261 1.5
vt 0.5966183543205261 4.701643943786621
vt 0.75 -2.614053726196289
vt 0.9396135210990906 -2.614053726196289
vt 0.5966183543205261 -2.614053726196289
vt 0.75 1.5
vt 0.9396135210990906 1.5
vt 0.9396135210990906 4.701643943786621
vt 0.75 4.701643943786621
vt 0.5966183543205261 1.5
vt 0.5966183543205261 4.701643943786621
vt 0.75 -2.614053726196289
vt 0.9396135210990906 -2.614053726196289
vt 0.5966183543205261 -2.614053726196289
vt 0.9396135210990906 4.701643943786621
vt 0.75 4.701643943786621
vt 0.5966183543205261 4.701643943786621
vt 0.9396135210990906 1.5
vt 0.5966183543205261 1.5
vt 0.5966183543205261 4.701643943786621
vt 0.75 4.701643943786621
vt 0.75 1.5
vt 0.9396135210990906 4.701643943786621
vt 0.9396135210990906 -2.614053726196289
vt 0.5966183543205261 1.5
vt 0.9396135210990906 1.5
vt 0.5966183543205261 -2.614053726196289
vt 0.75 1.5
vt 0.75 -2.614053726196289
vt 0.5966183543205261 4.701643943786621
vt 0.9396135210990906 4.701643943786621
vt 0.75 4.701643943786621
vt 0.9396135210990906 -2.614053726196289
vt 0.5966183543205261 1.5
vt 0.9396135210990906 1.5
vt 0.5966183543205261 -2.614053726196289
vt 0.9396135210990906 -2.614053726196289
vt 0.5966183543205261 1.5
vt 0.9396135210990906 1.5
vt 0.5966183543205261 -2.614053726196289
vt 0.75 1.5
vt 0.75 -2.614053726196289
vt 0.5966183543205261 4.701643943786621
vt 0.9396135210990906 4.701643943786621
vt 0.75 4.701643943786621
vt 0.9396135210990906 -2.614053726196289
vt 0.5966183543205261 -2.614053726196289
vt 0.75 -2.614053726196289
vt 0.75 1.5
vt 0.9396135210990906 4.701643943786621
vt 0.75 4.701643943786621
vt 0.5966183543205261 4.701643943786621
vt 0.75 -2.614053726196289
vt 0.75 -0.24600005149841309
vt 0.5 -0.24600005149841309
vt 0.5 0.3400000333786011
vt 0.75 -0.24600005149841309
vt 0.5 0.3400000333786011
vt 0.75 0.3400000333786011
vt 0.5 -0.24600005149841309
vt 0.75 0.5
vt 0.875 0
vt 0.9995004534721375 0.5
vt 0.5 -0.24600005149841309
vt 0.75 -0.24600005149841309
vt 0.75 0.3400000333786011
vt 0.5 0.3400000333786011
vt 0.75 0.3400000333786011
vt 0.5 0.3400000333786011
vt 0.75 -0.24600005149841309
vt 0.5 0.3400000333786011
vt 0.75 0.3400000333786011
vt 0.5 -0.24600005149841309
vt 0.75 0.5
vt 0.875 0
vt 0.9995004534721375 0.5
vt 0.5 -0.24600005149841309
vt 0.75 0.3400000333786011
vt 0.5 0.3400000333786011
vt 0.75 -0.24600005149841309
vt 0.5 0.3400000333786011
vt 0.5 -0.24600005149841309
vt 0.75 -0.24600005149841309
vt 0.75 0.3400000333786011
vt 0.75 0.5
vt 0.875 0
vt 0.9995004534721375 0.5
vt 0.75 0.5
vt 0.875 0
vt 0.9995004534721375 0.5
vt 0.75 -0.24600005149841309
vt 0.5 -0.24600005149841309
vt 0.5 0.3400000333786011
vt 0.75 0.3400000333786011
vt 0.75 -0.24600005149841309
vt 0.5 -0.24600005149841309
vt 0.5 0.3400000333786011
vt 0.75 0.3400000333786011
vt 0.75 0.5
vt 0.875 0
vt 0.9995004534721375 0.5
vt 0.75 -0.24600005149841309
vt 0.5 -0.24600005149841309
vt 0.5 0.3400000333786011
vt 0.75 0.3400000333786011
vt 0.75 -0.24600005149841309
vt 0.5 -0.24600005149841309
vt 0.5 0.3400000333786011
vt 0.5 -0.24600005149841309
vt 0.75 -0.24600005149841309
vt 0.75 0.3400000333786011
vt 0.75 0.5
vt 0.875 0
vt 0.9995004534721375 0.5
vt 0.75 -0.24600005149841309
vt 0.5 -0.24600005149841309
vt 0.5 0.3400000333786011
vt 0.75 0.3400000333786011
vt 0.75 0.3400000333786011
g MidMesaB020
s 1
f 1/1/1 2/2/2 3/3/3
f 4/4/4 5/5/5 6/6/6
f 6/6/6 7/7/7 4/4/4
f 8/8/8 4/4/4 7/7/7
f 7/7/7 9/9/9 8/8/8
f 1/1/1 10/10/10 9/9/9
f 10/10/10 8/8/8 9/9/9
f 5/5/5 11/11/11 12/12/12
f 12/12/12 6/6/6 5/5/5
f 13/13/13 11/11/11 14/14/14
f 13/13/13 3/3/3 11/11/11
f 10/10/10 13/13/13 15/15/15
f 10/10/10 3/3/3 13/13/13
f 16/16/16 17/17/17 5/5/5
f 16/16/16 5/5/5 4/4/4
f 8/8/8 18/18/18 16/16/16
f 8/8/8 16/16/16 4/4/4
f 15/15/15 8/8/8 10/10/10
f 15/15/15 18/18/18 8/8/8
f 17/17/17 14/14/14 11/11/11
f 17/17/17 11/11/11 5/5/5
f 19/19/19 20/20/20 21/21/21
f 20/20/20 22/22/22 21/21/21
f 23/23/23 24/24/24 21/21/21
f 25/25/25 23/23/23 21/21/21
f 22/22/22 25/25/25 21/21/21
f 24/24/24 19/19/19 21/21/21
f 26/26/26 27/27/27 28/28/28
f 28/28/28 29/29/29 26/26/26
f 30/30/30 31/31/31 32/32/32
f 32/32/32 33/33/33 30/30/30
f 3/3/3 10/10/10 1/1/1
f 2/2/2 12/12/12 11/11/11
f 11/11/11 3/3/3 2/2/2
f 34/34/34 35/35/35 36/36/36
f 36/36/36 37/37/37 34/34/34
f 38/38/38 39/39/39 40/40/40
f 40/40/40 41/41/41 38/38/38
f 42/42/42 43/43/43 44/44/44
f 44/44/44 45/45/45 42/42/42
f 46/46/46 47/47/47 48/48/48
f 48/48/48 49/49/49 46/46/46
g MidMesaB021
s 1
f 50/50/50 51/51/51 52/52/52
f 50/50/50 52/52/52 53/53/53
f 54/54/54 50/50/50 53/53/53
f 54/54/54 53/53/53 55/55/55
f 51/51/51 54/54/54 55/55/55
f 51/51/51 55/55/55 52/52/52
f 56/56/56 57/57/57 58/58/58
f 56/56/56 58/58/58 59/59/59
f 60/60/60 56/56/56 59/59/59
f 60/60/60 59/59/59 61/61/61
f 57/57/57 60/60/60 61/61/61
f 57/57/57 61/61/61 58/58/58
f 62/62/62 63/63/63 57/57/57
f 62/62/62 57/57/57 56/56/56
f 64/64/64 62/62/62 56/56/56
f 64/64/64 56/56/56 60/60/60
f 63/63/63 64/64/64 60/60/60
f 65/65/65 66/66/66 67/67/67
f 65/65/65 67/67/67 68/68/68
f 69/69/69 65/65/65 68/68/68
f 69/69/69 68/68/68 70/70/70
f 66/66/66 69/69/69 70/70/70
f 66/66/66 70/70/70 67/67/67
f 71/71/71 72/72/72 66/66/66
f 71/71/71 66/66/66 65/65/65
f 73/73/73 71/71/71 65/65/65
f 73/73/73 65/65/65 69/69/69
f 72/72/72 73/73/73 69/69/69
f 72/72/72 69/69/69 66/66/66
f 53/53/53 52/52/52 74/74/74
f 53/53/53 74/74/74 75/75/75
f 55/55/55 53/53/53 75/75/75
f 55/55/55 75/75/75 76/76/76
f 52/52/52 55/55/55 76/76/76
f 52/52/52 76/76/76 74/74/74
f 77/77/77 78/78/78 79/79/79
f 78/78/78 80/80/80 79/79/79
f 78/78/78 81/81/81 80/80/80
f 81/81/81 82/82/82 80/80/80
f 81/81/81 77/77/77 82/82/82
f 83/83/83 84/84/84 85/85/85
f 83/83/83 86/86/86 84/84/84
f 86/86/86 87/87/87 84/84/84
f 86/86/86 88/88/88 87/87/87
f 88/88/88 85/85/85 87/87/87
f 88/88/88 83/83/83 85/85/85
f 85/85/85 89/89/89 90/90/90
f 85/85/85 84/84/84 89/89/89
f 84/84/84 91/91/91 89/89/89
f 84/84/84 87/87/87 91/91/91
f 87/87/87 90/90/90 91/91/91
f 87/87/87 85/85/85 90/90/90
f 92/92/92 93/93/93 94/94/94
f 92/92/92 95/95/95 93/93/93
f 96/96/96 97/97/97 98/98/98
f 96/96/96 99/99/99 97/97/97
f 99/99/99 100/100/100 97/97/97
f 99/99/99 101/101/101 100/100/100
f 101/101/101 98/98/98 100/100/100
f 101/101/101 96/96/96 98/98/98
f 98/98/98 102/102/102 103/103/103
f 98/98/98 97/97/97 102/102/102
f 97/97/97 104/104/104 102/102/102
f 97/97/97 100/100/100 104/104/104
f 100/100/100 103/103/103 104/104/104
f 100/100/100 98/98/98 103/103/103
f 105/105/105 78/78/78 77/77/77
f 105/105/105 106/106/106 78/78/78
f 106/106/106 81/81/81 78/78/78
f 106/106/106 107/107/107 81/81/81
f 107/107/107 77/77/77 81/81/81
f 107/107/107 105/105/105 77/77/77
f 77/77/77 79/79/79 82/82/82
f 108/108/108 109/109/109 110/110/110
f 108/108/108 94/94/94 109/109/109
f 93/93/93 108/108/108 110/110/110
f 93/93/93 110/110/110 111/111/111
f 94/94/94 93/93/93 111/111/111
f 94/94/94 111/111/111 109/109/109
f 112/112/112 92/92/92 94/94/94
f 112/112/112 94/94/94 108/108/108
f 63/63/63 60/60/60 57/57/57
f 95/95/95 112/112/112 108/108/108
f 95/95/95 108/108/108 93/93/93
g MidMesaB022
s 1
f 113/113/113 114/114/114 115/115/115
f 116/116/116 117/117/117 118/118/118
f 116/116/116 119/119/119 117/117/117
f 120/120/120 121/121/121 122/122/122
f 123/123/123 124/124/124 125/125/125
f 124/124/124 126/126/126 125/125/125
f 113/113/113 115/115/115 127/127/127
f 119/119/119 113/113/113 127/127/127
f 119/119/119 127/127/127 117/117/117
f 123/123/123 125/125/125 128/128/128
f 129/129/129 130/130/130 131/131/131
f 129/129/129 132/132/132 130/130/130
f 133/133/133 134/134/134 135/135/135
f 136/136/136 137/137/137 138/138/138
f 136/136/136 139/139/139 137/137/137
f 139/139/139 140/140/140 137/137/137
f 139/139/139 141/141/141 140/140/140
f 142/142/142 138/138/138 143/143/143
f 142/142/142 136/136/136 138/138/138
f 144/144/144 145/145/145 146/146/146
f 147/147/147 148/148/148 149/149/149
f 150/150/150 151/151/151 152/152/152
f 150/150/150 152/152/152 153/153/153
f 154/154/154 155/155/155 156/156/156
f 154/154/154 156/156/156 157/157/157
f 151/151/151 154/154/154 157/157/157
f 151/151/151 157/157/157 152/152/152
f 158/158/158 159/159/159 160/160/160
f 161/161/161 162/162/162 163/163/163
f 161/161/161 163/163/163 164/164/164
f 165/165/165 166/166/166 167/167/167
f 124/124/124 168/168/168 126/126/126
f 169/169/169 128/128/128 170/170/170
f 169/169/169 123/123/123 128/128/128
f 171/171/171 172/172/172 173/173/173
f 174/174/174 175/175/175 176/176/176
f 174/174/174 176/176/176 177/177/177
f 132/132/132 174/174/174 177/177/177
f 132/132/132 177/177/177 130/130/130
f 162/162/162 178/178/178 163/163/163
f 162/162/162 165/165/165 178/178/178
f 165/165/165 167/167/167 178/178/178
