# Exported using wow.export v0.2.19
o midmesaa_elevator.obj
v 24.2898006439209 -10.2092866897583 70.16969299316406
v 23.747604370117188 -5.369128227233887 68.00890350341797
v 24.572830200195312 -6.1357598304748535 67.187255859375
v 11.7964448928833 26.48646354675293 99.08230590820312
v 21.32071304321289 25.15298843383789 102.8542251586914
v 11.969630241394043 24.86832046508789 100.24577331542969
v 19.738941192626953 27.43337059020996 102.49221801757812
v 11.216376304626465 26.42777442932129 101.24715423583984
v 20.351526260375977 26.58919906616211 103.68887329101562
v 11.950139045715332 27.74424934387207 100.31851959228516
v 20.878864288330078 26.64255714416504 101.7208251953125
v 23.37251091003418 27.85523223876953 103.47174835205078
v 22.996746063232422 28.49860382080078 102.70318603515625
v 22.191640853881836 28.98630142211914 103.18600463867188
v 22.654321670532227 28.46395492553711 103.98113250732422
v 23.692914962768555 30.42983055114746 103.62501525878906
v -4.7199625968933105 25.15298843383789 95.84680938720703
v -3.7706079483032227 26.64255714416504 95.08617401123047
v 3.8450098037719727 26.48646354675293 96.91175079345703
v 3.113292694091797 24.86832046508789 97.83275604248047
v -3.1691057682037354 27.43337059020996 96.32418060302734
v -4.297944068908691 26.58919906616211 97.0542221069336
v 3.2649409770965576 26.42777442932129 99.07659912109375
v 3.0938007831573486 27.74424934387207 97.9054946899414
v -6.805635452270508 27.85523223876953 95.3556900024414
v -6.095930099487305 28.49860382080078 94.87797546386719
v -5.640093803405762 28.98630142211914 95.69866180419922
v -6.438355922698975 28.46395492553711 96.15592956542969
v -7.15974760055542 30.42983055114746 95.3282241821289
v 24.777515411376953 -5.312952995300293 65.6343765258789
v 23.15055274963379 -2.7812371253967285 70.45704650878906
v 24.757761001586914 -2.7812387943267822 69.21560668945312
v 23.464576721191406 -9.442655563354492 70.99134826660156
v 23.464576721191406 -9.442655563354492 70.99134826660156
v 25.196239471435547 -5.369128227233887 68.49224853515625
v 23.747604370117188 -5.369128227233887 68.00890350341797
v 24.913211822509766 -9.442655563354492 71.47469329833984
v 24.913211822509766 -9.442655563354492 71.47469329833984
v 24.572830200195312 -6.1357598304748535 67.187255859375
v 25.196239471435547 -5.369128227233887 68.49224853515625
v 24.2898006439209 -10.2092866897583 70.16969299316406
v 24.88750648498535 -17.018991470336914 56.87044143676758
v 23.01814842224121 -9.982662200927734 68.68824005126953
v 24.350122451782227 -9.480036735534668 68.6988525390625
v 23.271081924438477 -17.628955841064453 56.85757064819336
v 23.271081924438477 -17.628955841064453 56.85757064819336
v 23.134248733520508 -11.21126937866211 69.58463287353516
v 23.01814842224121 -9.982662200927734 68.68824005126953
v 23.41197395324707 -19.119937896728516 57.94539260864258
v 23.41197395324707 -19.119937896728516 57.94539260864258
v 24.53797721862793 -11.467963218688965 70.14924621582031
v 23.134248733520508 -11.21126937866211 69.58463287353516
v 25.115476608276367 -19.43145179748535 58.63058090209961
v 25.115476608276367 -19.43145179748535 58.63058090209961
v 25.2894287109375 -10.398002624511719 69.60179901123047
v 24.53797721862793 -11.467963218688965 70.14924621582031
v 26.027402877807617 -18.132993698120117 57.96622848510742
v 26.027402877807617 -18.132993698120117 57.96622848510742
v 24.350122451782227 -9.480036735534668 68.6988525390625
v 25.2894287109375 -10.398002624511719 69.60179901123047
v 24.88750648498535 -17.018991470336914 56.87044143676758
v 24.350122451782227 -9.480036735534668 68.6988525390625
v 22.465896606445312 -2.7292308807373047 80.07430267333984
v 23.980249404907227 -2.7292306423187256 78.53182220458984
v 23.01814842224121 -9.982662200927734 68.68824005126953
v 23.01814842224121 -9.982662200927734 68.68824005126953
v 22.70993423461914 -2.729233503341675 82.52336883544922
v 22.465896606445312 -2.7292308807373047 80.07430267333984
v 23.134248733520508 -11.21126937866211 69.58463287353516
v 24.553176879882812 -2.729233503341675 83.47447967529297
v 24.53797721862793 -11.467963218688965 70.14924621582031
v 25.332340240478516 -2.729229688644409 81.17569732666016
v 25.2894287109375 -10.398002624511719 69.60179901123047
v 24.94041633605957 -10.586431503295898 57.34763717651367
v 23.711936950683594 -5.715054512023926 65.62589263916016
v 24.777515411376953 -5.312952995300293 65.6343765258789
v 23.687374114990234 -11.059271812438965 57.33765411376953
v 23.687374114990234 -11.059271812438965 57.33765411376953
v 23.80481719970703 -6.697939395904541 66.34300231933594
v 23.711936950683594 -5.715054512023926 65.62589263916016
v 23.796594619750977 -12.215072631835938 58.18092727661133
v 23.796594619750977 -12.215072631835938 58.18092727661133
v 24.927799224853516 -6.903294563293457 66.79469299316406
v 23.80481719970703 -6.697939395904541 66.34300231933594
v 25.117137908935547 -12.456555366516113 58.71208572387695
v 25.117137908935547 -12.456555366516113 58.71208572387695
v 25.52895736694336 -6.047325134277344 66.35673522949219
v 24.927799224853516 -6.903294563293457 66.79469299316406
v 25.824060440063477 -11.449999809265137 58.19707489013672
v 25.824060440063477 -11.449999809265137 58.19707489013672
v 24.777515411376953 -5.312952995300293 65.6343765258789
v 25.52895736694336 -6.047325134277344 66.35673522949219
v 24.94041633605957 -10.586431503295898 57.34763717651367
v 23.711936950683594 -5.715054512023926 65.62589263916016
v 23.16624641418457 -2.781238317489624 72.35746002197266
v 23.15055274963379 -2.7812371253967285 70.45704650878906
v 23.80481719970703 -6.697939395904541 66.34300231933594
v 24.867395401000977 -2.781238079071045 73.0488510131836
v 23.16624641418457 -2.781238317489624 72.35746002197266
v 24.927799224853516 -6.903294563293457 66.79469299316406
v 25.8300838470459 -2.7812373638153076 71.23814392089844
v 24.867395401000977 -2.781238079071045 73.0488510131836
v 25.52895736694336 -6.047325134277344 66.35673522949219
v 24.757761001586914 -2.7812387943267822 69.21560668945312
v 25.8300838470459 -2.7812373638153076 71.23814392089844
v 24.777515411376953 -5.312952995300293 65.6343765258789
v 5.532190799713135 -72.16664123535156 97.80224609375
v 5.354121208190918 11.457669258117676 100.95549011230469
v 4.188613414764404 11.457669258117676 97.52640533447266
v 6.015716075897217 -72.16664123535156 100.35774230957031
v 9.243537902832031 11.457661628723145 101.9976577758789
v 8.315155029296875 -72.16664123535156 101.57302856445312
v 11.543693542480469 11.374430656433105 100.88047790527344
v 10.698982238769531 -72.16664123535156 100.53297424316406
v 12.277422904968262 11.374430656433105 98.14216613769531
v 11.372127532958984 -72.16664123535156 98.02075958251953
v 10.825868606567383 11.457661628723145 96.09233856201172
v 9.827698707580566 -72.16664123535156 95.92813873291016
v 9.827698707580566 -72.16664123535156 95.92813873291016
v 6.606532096862793 11.37443733215332 95.44584655761719
v 10.825868606567383 11.457661628723145 96.09233856201172
v 7.228682518005371 -72.16664123535156 95.83088684082031
v 16.469036102294922 -11.449999809265137 55.15929412841797
v 15.86196231842041 -10.586431503295898 54.38396072387695
v 12.367647171020508 -6.347784519195557 60.22622299194336
v 15.86196231842041 -10.586431503295898 54.38396072387695
v 11.302069664001465 -6.749885559082031 60.21773910522461
v 12.367647171020508 -6.347784519195557 60.22622299194336
v 14.461861610412598 -11.059272766113281 54.33457565307617
v 14.461861610412598 -11.059272766113281 54.33457565307617
v 11.08246898651123 -7.732777118682861 60.85112762451172
v 11.302069664001465 -6.749885559082031 60.21773910522461
v 14.203628540039062 -12.215072631835938 55.07938766479492
v 14.203628540039062 -12.215072631835938 55.07938766479492
v 12.137381553649902 -7.938132286071777 61.28458023071289
v 11.08246898651123 -7.732777118682861 60.85112762451172
v 15.44412899017334 -12.456555366516113 55.5890998840332
v 15.44412899017334 -12.456555366516113 55.5890998840332
v 13.00896167755127 -7.082163333892822 60.91907501220703
v 12.137381553649902 -7.938132286071777 61.28458023071289
v 16.469036102294922 -11.449999809265137 55.15929412841797
v 13.00896167755127 -7.082163333892822 60.91907501220703
v 12.367647171020508 -6.347784519195557 60.22622299194336
v 7.93782901763916 -2.781238555908203 65.84970092773438
v 10.299839973449707 -2.7812397480010986 64.81050872802734
v 11.302069664001465 -6.749885559082031 60.21773910522461
v 7.097545623779297 -2.781240224838257 67.52075958251953
v 7.93782901763916 -2.781238555908203 65.84970092773438
v 11.08246898651123 -7.732777118682861 60.85112762451172
v 8.692354202270508 -2.7812392711639404 68.18365478515625
v 7.097545623779297 -2.781240224838257 67.52075958251953
v 12.137381553649902 -7.938132286071777 61.28458023071289
v 10.58886432647705 -2.781238555908203 66.62316131591797
v 8.692354202270508 -2.7812392711639404 68.18365478515625
v 13.00896167755127 -7.082163333892822 60.91907501220703
v 10.299839973449707 -2.7812397480010986 64.81050872802734
v 10.58886432647705 -2.781238555908203 66.62316131591797
v 12.367647171020508 -6.347784519195557 60.22622299194336
v 9.584731101989746 -10.2092866897583 64.67123413085938
v 9.952363014221191 -5.36913537979126 62.75423049926758
v 11.248312950134277 -6.1357598304748535 62.05870819091797
v 8.288784980773926 -9.442662239074707 65.36675262451172
v 8.288784980773926 -9.442662239074707 65.36675262451172
v 11.40099811553955 -5.36913537979126 63.23757553100586
v 9.952363014221191 -5.36913537979126 62.75423049926758
v 9.737420082092285 -9.442662239074707 65.85009765625
v 9.737420082092285 -9.442662239074707 65.85009765625
v 11.248312950134277 -6.1357598304748535 62.05870819091797
v 11.40099811553955 -5.36913537979126 63.23757553100586
v 9.584731101989746 -10.2092866897583 64.67123413085938
v 16.0180606842041 -17.018991470336914 53.96277618408203
v 8.587870597839355 -9.982662200927734 64.29055786132812
v 10.076164245605469 -9.480037689208984 64.34304809570312
v 14.211929321289062 -17.628955841064453 53.89906692504883
v 14.211929321289062 -17.628955841064453 53.89906692504883
v 8.31336784362793 -11.211270332336426 65.08228302001953
v 8.587870597839355 -9.982662200927734 64.29055786132812
v 13.878807067871094 -19.119937896728516 54.85988235473633
v 13.878807067871094 -19.119937896728516 54.85988235473633
v 9.717097282409668 -11.467964172363281 65.64688873291016
v 8.31336784362793 -11.211270332336426 65.08228302001953
v 15.47905445098877 -19.43145179748535 55.517398834228516
v 15.47905445098877 -19.43145179748535 55.517398834228516
v 10.721482276916504 -10.398003578186035 65.16722106933594
v 9.717097282409668 -11.467964172363281 65.64688873291016
v 16.801185607910156 -18.132993698120117 54.96295928955078
v 16.801185607910156 -18.132993698120117 54.96295928955078
v 10.076164245605469 -9.480037689208984 64.34304809570312
v 10.721482276916504 -10.398003578186035 65.16722106933594
v 16.0180606842041 -17.018991470336914 53.96277618408203
v 10.076164245605469 -9.480037689208984 64.34304809570312
v 2.8289906978607178 -2.7292308807373047 74.28150939941406
v 5.222811222076416 -2.729231595993042 72.97467803955078
v 8.587870597839355 -9.982662200927734 64.29055786132812
v 8.587870597839355 -9.982662200927734 64.29055786132812
v 1.9969993829727173 -2.7292346954345703 76.44225311279297
v 2.8289906978607178 -2.7292308807373047 74.28150939941406
v 8.31336784362793 -11.211270332336426 65.08228302001953
v 3.63385009765625 -2.7292351722717285 77.33805847167969
v 9.717097282409668 -11.467964172363281 65.64688873291016
v 5.544957160949707 -2.729231357574463 75.34258270263672
v 10.721482276916504 -10.398003578186035 65.16722106933594
v 27.71589469909668 -1.8659945726394653 63.06252670288086
v 21.418550491333008 -1.8659945726394653 61.38962173461914
v 23.57363510131836 -1.8659929037094116 97.0497055053711
v 16.069177627563477 -3.250051259994507 95.74063873291016
v 16.064191818237305 -1.5463244915008545 95.64383697509766
v 20.354087829589844 -3.2500522136688232 61.10438919067383
v 20.358314514160156 -1.5463262796401978 61.1428108215332
v 24.653919219970703 -1.5463244915008545 97.1442642211914
v 24.65890884399414 -3.250051259994507 97.2410659790039
v 28.784584045410156 -1.5463262796401978 63.38615798950195
v 28.780359268188477 -3.2500522136688232 63.34775161743164
v 16.064191818237305 -1.5463244915008545 95.64383697509766
v 17.14946174621582 -1.5463244915008545 95.835205078125
v 20.358314514160156 -1.5463262796401978 61.1428108215332
v 21.422773361206055 -1.5463253259658813 61.42802810668945
v 23.56865119934082 -1.5463244915008545 96.9529037475586
v 27.720123291015625 -1.5463253259658813 63.1009407043457
v 17.14946174621582 -1.5463244915008545 95.835205078125
v 17.154447555541992 -1.8659929037094116 95.9320068359375
v 21.422773361206055 -1.5463253259658813 61.42802810668945
v 21.418550491333008 -1.8659945726394653 61.38962173461914
v 23.57363510131836 -1.8659929037094116 97.0497055053711
v 27.71589469909668 -1.8659945726394653 63.06252670288086
v 17.059471130371094 -3.250051259994507 95.91362762451172
v 16.069177627563477 -3.250051259994507 95.74063873291016
v 27.776397705078125 -3.2500522136688232 63.08045959472656
v 24.65890884399414 -3.250051259994507 97.2410659790039
v 24.653919219970703 -1.5463244915008545 97.1442642211914
v 23.57363510131836 -1.8659929037094116 97.0497055053711
v 17.154447555541992 -1.8659929037094116 95.9320068359375
v 16.069177627563477 -3.250051259994507 95.74063873291016
v 17.059471130371094 -3.250051259994507 95.91362762451172
v 23.56649398803711 -3.250051259994507 97.05024719238281
v 21.418550491333008 -1.8659945726394653 61.38962173461914
v 20.358314514160156 -1.5463262796401978 61.1428108215332
v 21.422773361206055 -1.5463253259658813 61.42802810668945
v 27.720123291015625 -1.5463253259658813 63.1009407043457
v 28.784584045410156 -1.5463262796401978 63.38615798950195
v 27.71589469909668 -1.8659945726394653 63.06252670288086
v 28.780359268188477 -3.2500522136688232 63.34775161743164
v 27.776397705078125 -3.2500522136688232 63.08045959472656
v 21.418550491333008 -1.8659945726394653 61.38962173461914
v 27.71589469909668 -1.8659945726394653 63.06252670288086
v 27.776397705078125 -3.2500522136688232 63.08045959472656
v 20.354087829589844 -3.2500522136688232 61.10438919067383
v 17.14946174621582 -1.5463244915008545 95.835205078125
v 16.064191818237305 -1.5463244915008545 95.64383697509766
v 17.154447555541992 -1.8659929037094116 95.9320068359375
v 23.56649398803711 -3.250051259994507 97.05024719238281
v 23.57363510131836 -1.8659929037094116 97.0497055053711
v 23.56649398803711 -3.250051259994507 97.05024719238281
v 17.059471130371094 -3.250051259994507 95.91362762451172
v 23.56865119934082 -1.5463244915008545 96.9529037475586
v 21.217363357543945 -3.2500522136688232 61.334228515625
v 20.354087829589844 -3.2500522136688232 61.10438919067383
v 21.217363357543945 -3.2500522136688232 61.334228515625
v 21.217363357543945 -3.2500522136688232 61.334228515625
v 17.154447555541992 -1.8659929037094116 95.9320068359375
v 16.91532325744629 -3.2500522136688232 59.98068618774414
v 15.911361694335938 -3.2500522136688232 59.71339416503906
v 15.850860595703125 -1.8659945726394653 59.69546127319336
v 9.796183586120605 -1.8659945726394653 58.1059455871582
v 15.850860595703125 -1.8659945726394653 59.69546127319336
v 15.911361694335938 -3.2500522136688232 59.71339416503906
v 8.731720924377441 -3.2500522136688232 57.82071304321289
v 8.735946655273438 -1.5463262796401978 57.859130859375
v 9.796183586120605 -1.8659945726394653 58.1059455871582
v -6.3208112716674805 -1.5463253259658813 92.44161987304688
v -7.411043167114258 -1.5463253259658813 92.38855743408203
v -6.323809623718262 -1.8659937381744385 92.53425598144531
v -7.459259033203125 -3.250051259994507 92.47899627685547
v 0.9222920536994934 -3.250051259994507 92.85575103759766
v -0.13005061447620392 -3.250051259994507 92.8062744140625
v 16.91532325744629 -3.2500522136688232 59.98068618774414
v -6.323809623718262 -1.8659937381744385 92.53425598144531
v -6.4190874099731445 -3.250051259994507 92.52803802490234
v -0.13005061447620392 -3.250051259994507 92.8062744140625
v -6.4190874099731445 -3.250051259994507 92.52803802490234
v 0.970508873462677 -1.5463253259658813 92.76529693603516
v -0.11972402036190033 -1.5463253259658813 92.71224975585938
v -0.12272553890943527 -1.8659937381744385 92.80489349365234
v 9.594996452331543 -3.2500522136688232 58.05055236816406
v 8.731720924377441 -3.2500522136688232 57.82071304321289
v 9.594996452331543 -3.2500522136688232 58.05055236816406
v -7.459259033203125 -3.250051259994507 92.47899627685547
v 9.594996452331543 -3.2500522136688232 58.05055236816406
v 15.911361694335938 -3.2500522136688232 59.71339416503906
v 16.91954803466797 -1.5463262796401978 60.01909637451172
v -6.323809623718262 -1.8659937381744385 92.53425598144531
v -0.12272553890943527 -1.8659937381744385 92.80489349365234
v 9.796183586120605 -1.8659945726394653 58.1059455871582
v 15.850860595703125 -1.8659945726394653 59.69546127319336
v -7.459259033203125 -3.250051259994507 92.47899627685547
v -7.411043167114258 -1.5463253259658813 92.38855743408203
v 8.731720924377441 -3.2500522136688232 57.82071304321289
v 8.735946655273438 -1.5463262796401978 57.859130859375
v -0.12272553890943527 -1.8659937381744385 92.80489349365234
v 0.970508873462677 -1.5463253259658813 92.76529693603516
v -7.411043167114258 -1.5463253259658813 92.38855743408203
v -6.3208112716674805 -1.5463253259658813 92.44161987304688
v 8.735946655273438 -1.5463262796401978 57.859130859375
v 9.800406455993652 -1.5463253259658813 58.14434814453125
v -0.11972402036190033 -1.5463253259658813 92.71224975585938
v 15.855087280273438 -1.5463253259658813 59.7338752746582
v -6.3208112716674805 -1.5463253259658813 92.44161987304688
v -6.323809623718262 -1.8659937381744385 92.53425598144531
v 9.800406455993652 -1.5463253259658813 58.14434814453125
v 9.796183586120605 -1.8659945726394653 58.1059455871582
v -0.12272553890943527 -1.8659937381744385 92.80489349365234
v 15.850860595703125 -1.8659945726394653 59.69546127319336
v 0.9222920536994934 -3.250051259994507 92.85575103759766
v -6.4190874099731445 -3.250051259994507 92.52803802490234
v -0.13005061447620392 -3.250051259994507 92.8062744140625
v 9.800406455993652 -1.5463253259658813 58.14434814453125
v 15.855087280273438 -1.5463253259658813 59.7338752746582
v 16.91954803466797 -1.5463262796401978 60.01909637451172
v 5.973978042602539 28.08366584777832 94.13848114013672
v 2.111902952194214 28.08366584777832 97.63292694091797
v 7.481368064880371 28.68085479736328 99.11005401611328
v 3.7069408893585205 28.08366584777832 102.59917449951172
v 9.164054870605469 28.08366584777832 104.07096862792969
v 8.631803512573242 28.08366584777832 94.85530090332031
v 13.026128768920898 28.08366584777832 100.5765151977539
v 11.43109130859375 28.08366584777832 95.61026763916016
v 9.397944450378418 21.19938850402832 102.76860809326172
v 5.0290913581848145 21.19938850402832 101.59797668457031
v 5.354121208190918 11.457669258117676 100.95549011230469
v 9.243537902832031 11.457661628723145 101.9976577758789
v 9.052899360656738 19.36372947692871 95.46627044677734
v 6.606532096862793 11.37443733215332 95.44584655761719
v 6.788197994232178 19.36372947692871 95.03292083740234
v 10.825868606567383 11.457661628723145 96.09233856201172
v 3.7242236137390137 20.14535903930664 97.73014068603516
v 6.788197994232178 19.36372947692871 95.03292083740234
v 6.606532096862793 11.37443733215332 95.44584655761719
v 4.188613414764404 11.457669258117676 97.52640533447266
v 5.0290913581848145 21.19938850402832 101.59797668457031
v 3.7242236137390137 20.14535903930664 97.73014068603516
v 4.188613414764404 11.457669258117676 97.52640533447266
v 5.354121208190918 11.457669258117676 100.95549011230469
v 12.277422904968262 11.374430656433105 98.14216613769531
v 12.461920738220215 20.14535903930664 100.0713882446289
v 11.543693542480469 11.374430656433105 100.88047790527344
v 10.825868606567383 11.457661628723145 96.09233856201172
v 11.1570463180542 19.36372947692871 96.20355224609375
v 11.543693542480469 11.374430656433105 100.88047790527344
v 9.397944450378418 21.19938850402832 102.76860809326172
v 9.243537902832031 11.457661628723145 101.9976577758789
v 12.461920738220215 20.14535903930664 100.0713882446289
v 9.164054870605469 28.08366584777832 104.07096862792969
v 3.7069408893585205 28.08366584777832 102.59917449951172
v 5.0290913581848145 21.19938850402832 101.59797668457031
v 9.397944450378418 21.19938850402832 102.76860809326172
v 12.461920738220215 20.14535903930664 100.0713882446289
v 9.164054870605469 28.08366584777832 104.07096862792969
v 9.397944450378418 21.19938850402832 102.76860809326172
v 13.026128768920898 28.08366584777832 100.5765151977539
v 5.0290913581848145 21.19938850402832 101.59797668457031
v 3.7069408893585205 28.08366584777832 102.59917449951172
v 3.7242236137390137 20.14535903930664 97.73014068603516
v 2.111902952194214 28.08366584777832 97.63292694091797
v 11.1570463180542 19.36372947692871 96.20355224609375
v 9.052899360656738 19.36372947692871 95.46627044677734
v 6.788197994232178 19.36372947692871 95.03292083740234
v 6.599168300628662 24.04983901977539 94.55846405029297
v 11.1570463180542 19.36372947692871 96.20355224609375
v 8.982522964477539 24.14418601989746 95.02816009521484
v 10.860726356506348 27.64663314819336 95.3868637084961
v 11.43109130859375 28.08366584777832 95.61026763916016
v 11.46862506866455 26.74884796142578 95.5889663696289
v 9.758899688720703 24.14688491821289 90.70931243896484
v 12.1778564453125 24.23436164855957 91.36178588867188
v 11.475285530090332 24.22691535949707 95.87356567382812
v 8.628643989562988 27.56534194946289 94.78488159179688
v 6.8193864822387695 27.49945068359375 94.29692840576172
v 5.973978042602539 28.08366584777832 94.13848114013672
v 3.7242236137390137 20.14535903930664 97.73014068603516
v 5.086672306060791 24.49432373046875 96.05233001708984
v 2.111902952194214 28.08366584777832 97.63292694091797
v 6.3538079261779785 26.5631046295166 94.20948791503906
v 10.182775497436523 27.60972023010254 90.17337799072266
v 8.628643989562988 27.56534194946289 94.78488159179688
v 10.860726356506348 27.64663314819336 95.3868637084961
v 12.461920738220215 20.14535903930664 100.0713882446289
v 11.475285530090332 24.22691535949707 95.87356567382812
v 8.139233589172363 24.08770179748535 90.2725601196289
v 10.182775497436523 27.60972023010254 90.17337799072266
v 9.758899688720703 24.14688491821289 90.70931243896484
v 6.599168300628662 24.04983901977539 94.55846405029297
v 8.139233589172363 24.08770179748535 90.2725601196289
v 5.086672306060791 24.49432373046875 96.05233001708984
v 8.139233589172363 24.08770179748535 90.2725601196289
v 6.599168300628662 24.04983901977539 94.55846405029297
v 7.194910049438477 24.56131362915039 90.26512908935547
v 7.851667881011963 27.52476692199707 89.54469299316406
v 6.3538079261779785 26.5631046295166 94.20948791503906
v 6.8193864822387695 27.49945068359375 94.29692840576172
v 8.982522964477539 24.14418601989746 95.02816009521484
v 7.851667881011963 27.52476692199707 89.54469299316406
v 13.026128768920898 28.08366584777832 100.5765151977539
v 11.900959968566895 24.74178695678711 97.89015197753906
v 11.900959968566895 24.74178695678711 97.89015197753906
v 11.475285530090332 24.22691535949707 95.87356567382812
v 12.1778564453125 24.23436164855957 91.36178588867188
v 12.862255096435547 24.76712417602539 91.79362487792969
v 8.631803512573242 28.08366584777832 94.85530090332031
v 12.120266914367676 27.68033218383789 90.6958999633789
v 11.46862506866455 26.74884796142578 95.5889663696289
v 12.862255096435547 24.76712417602539 91.79362487792969
v 12.1778564453125 24.23436164855957 91.36178588867188
v 12.120266914367676 27.68033218383789 90.6958999633789
v 7.194910049438477 24.56131362915039 90.26512908935547
vn -0.8006331324577332 -0.31673669815063477 -0.5085906982421875
vn -0.9429576396942139 0.23682428896427155 0.23397673666477203
vn -0.8006331324577332 -0.31673669815063477 -0.5085906982421875
vn 0.2766185402870178 0.08498886227607727 -0.9572142362594604
vn 0.45593905448913574 -0.886753261089325 0.07608061283826828
vn 0.03478838875889778 -0.9992719888687134 -0.015659993514418602
vn -0.24142050743103027 0.9512074589729309 0.19214707612991333
vn -0.23787540197372437 0.33592119812965393 0.9113573431968689
vn -0.2293442338705063 0.10450764000415802 0.9677186608314514
vn 0.09027162194252014 0.9678334593772888 -0.2348390519618988
vn 0.29354438185691833 0.2922355830669403 -0.9101813435554504
vn 0.8934534192085266 -0.3872702717781067 0.22751429677009583
vn 0.3777499198913574 0.18883153796195984 -0.9064478278160095
vn -0.5846143960952759 0.7999079823493958 -0.13554784655570984
vn -0.11583510041236877 0.14972278475761414 0.9819192290306091
vn 0.5858261585235596 0.7907220721244812 0.17766909301280975
vn -0.4359077513217926 -0.8850356340408325 -0.16339011490345
vn 0.19598014652729034 0.29385027289390564 -0.9355446696281433
vn 0.23391342163085938 0.08611870557069778 -0.9684358835220337
vn -0.027961377054452896 -0.9990668296813965 -0.03291815146803856
vn 0.10959958285093307 0.9511778950691223 0.2885282635688782
vn -0.2844385504722595 0.10403016954660416 0.9530332684516907
vn -0.25005975365638733 0.33486542105674744 0.908479630947113
vn 0.03182714432477951 0.9683972001075745 -0.24737399816513062
vn -0.8875101804733276 -0.38727155327796936 -0.24969269335269928
vn 0.12608282268047333 0.18883059918880463 -0.9738819599151611
vn 0.5740652084350586 0.7999079823493958 0.17491821944713593
vn -0.3906429409980774 0.14972421526908875 0.9082844853401184
vn -0.5961739420890808 0.7907227277755737 -0.13904742896556854
vn 0.03777572140097618 0.834710419178009 -0.5493919849395752
vn -0.7041378617286682 0.5613491535186768 -0.43482986092567444
vn 0.21318644285202026 0.7893000245094299 -0.575809895992279
vn -0.9429571032524109 0.23682455718517303 0.23397859930992126
vn -0.9429571032524109 0.23682455718517303 0.23397859930992126
vn -0.2572782039642334 0.5824316740036011 0.7710909843444824
vn -0.9429576396942139 0.23682428896427155 0.23397673666477203
vn -0.2572782039642334 0.5824316740036011 0.7710909843444824
vn 0.9208612442016602 -0.2699507474899292 -0.28132039308547974
vn 0.9208612442016602 -0.2699507474899292 -0.28132039308547974
vn 0.9208612442016602 -0.2699507474899292 -0.28132039308547974
vn 0.9208613038063049 -0.26995062828063965 -0.2813203036785126
vn 0.3062555193901062 0.8090057969093323 -0.5017142295837402
vn -0.9623888731002808 0.21212275326251984 -0.16973976790905
vn -0.003535115858539939 0.8374372720718384 -0.5465219616889954
vn -0.8275830745697021 0.46321648359298706 -0.31707528233528137
vn -0.8275830745697021 0.46321648359298706 -0.31707528233528137
vn -0.6334047317504883 -0.6508313417434692 0.4185892641544342
vn -0.9623888731002808 0.21212275326251984 -0.16973976790905
vn -0.7994524836540222 -0.5055745244026184 0.32445353269577026
vn -0.7994524836540222 -0.5055745244026184 0.32445353269577026
vn 0.31665289402008057 -0.7727309465408325 0.5501071214675903
vn -0.6334047317504883 -0.6508313417434692 0.4185892641544342
vn 0.31665241718292236 -0.7727310061454773 0.5501072406768799
vn 0.31665241718292236 -0.7727310061454773 0.5501072406768799
vn 0.9539053440093994 0.26727035641670227 -0.13649611175060272
vn 0.31665289402008057 -0.7727309465408325 0.5501071214675903
vn 0.9978201985359192 0.06225067749619484 0.021903304383158684
vn 0.9978201985359192 0.06225067749619484 0.021903304383158684
vn -0.003535115858539939 0.8374372720718384 -0.5465219616889954
vn 0.9539053440093994 0.26727035641670227 -0.13649611175060272
vn 0.3062555193901062 0.8090057969093323 -0.5017142295837402
vn -0.003535115858539939 0.8374372720718384 -0.5465219616889954
vn -0.7481580972671509 0.5365431904792786 -0.3903599977493286
vn 0.433439701795578 0.7471981644630432 -0.5038104057312012
vn -0.9623888731002808 0.21212275326251984 -0.16973976790905
vn -0.9623888731002808 0.21212275326251984 -0.16973976790905
vn -0.8670526146888733 -0.4323940873146057 0.2474977672100067
vn -0.7481580972671509 0.5365431904792786 -0.3903599977493286
vn -0.6334047317504883 -0.6508313417434692 0.4185892641544342
vn 0.3632606863975525 -0.7819513082504272 0.5065509080886841
vn 0.31665289402008057 -0.7727309465408325 0.5501071214675903
vn 0.9954956769943237 0.07704499363899231 -0.05524929240345955
vn 0.9539053440093994 0.26727035641670227 -0.13649611175060272
vn 0.3070710301399231 0.8056195378303528 -0.5066404342651367
vn -0.9807057976722717 0.1270361840724945 -0.1485864371061325
vn 0.03777572140097618 0.834710419178009 -0.5493919849395752
vn -0.8277840614318848 0.4726383686065674 -0.3023020327091217
vn -0.8277840614318848 0.4726383686065674 -0.3023020327091217
vn -0.7765029668807983 -0.5422366261482239 0.32097128033638
vn -0.9807057976722717 0.1270361840724945 -0.1485864371061325
vn -0.8001087307929993 -0.49659639596939087 0.33647891879081726
vn -0.8001087307929993 -0.49659639596939087 0.33647891879081726
vn 0.490386962890625 -0.7178342342376709 0.4942009747028351
vn -0.7765029668807983 -0.5422366261482239 0.32097128033638
vn 0.317412793636322 -0.7781012654304504 0.5420401096343994
vn 0.317412793636322 -0.7781012654304504 0.5420401096343994
vn 0.9573123455047607 0.24274159967899323 -0.15693818032741547
vn 0.490386962890625 -0.7178342342376709 0.4942009747028351
vn 0.9987685680389404 0.04949897900223732 0.003347106510773301
vn 0.9987685680389404 0.04949897900223732 0.003347106510773301
vn 0.03777572140097618 0.834710419178009 -0.5493919849395752
vn 0.9573123455047607 0.24274159967899323 -0.15693818032741547
vn 0.3070710301399231 0.8056195378303528 -0.5066404342651367
vn -0.9807057976722717 0.1270361840724945 -0.1485864371061325
vn -0.8680535554885864 -0.4556492567062378 0.19714666903018951
vn -0.7041378617286682 0.5613491535186768 -0.43482986092567444
vn -0.7765029668807983 -0.5422366261482239 0.32097128033638
vn 0.06262779980897903 -0.8377397060394287 0.5424665212631226
vn -0.8680535554885864 -0.4556492567062378 0.19714666903018951
vn 0.490386962890625 -0.7178342342376709 0.4942009747028351
vn 0.9715830087661743 -0.21353037655353546 0.10213353484869003
vn 0.06262779980897903 -0.8377397060394287 0.5424665212631226
vn 0.9573123455047607 0.24274159967899323 -0.15693818032741547
vn 0.21318644285202026 0.7893000245094299 -0.575809895992279
vn 0.9715830087661743 -0.21353037655353546 0.10213353484869003
vn 0.03777572140097618 0.834710419178009 -0.5493919849395752
vn -0.9984591007232666 -0.013963512144982815 -0.053706858307123184
vn -0.8293776512145996 -0.012206586077809334 0.5585550665855408
vn -0.9078036546707153 -0.014184770174324512 -0.4191555380821228
vn -0.6428343057632446 -0.006529853213578463 0.7659774422645569
vn -0.10469939559698105 -0.00639049569144845 0.9944834113121033
vn -0.01719176210463047 -0.004886220674961805 0.999840259552002
vn 0.7339896559715271 -0.007183968089520931 0.6791226267814636
vn 0.7579265236854553 -0.010376849211752415 0.6522573828697205
vn 0.9727939963340759 0.012005182914435863 -0.23136059939861298
vn 0.9842662811279297 -0.01040970254689455 -0.17638461291790009
vn 0.45931392908096313 -0.002988260705024004 -0.8882690072059631
vn 0.35913437604904175 -0.004566560965031385 -0.9332746863365173
vn 0.35913437604904175 -0.004566560965031385 -0.9332746863365173
vn -0.16647517681121826 -0.004505469463765621 -0.9860353469848633
vn 0.45931392908096313 -0.002988260705024004 -0.8882690072059631
vn -0.49506041407585144 -0.009738599881529808 -0.8688039779663086
vn 0.8939031362533569 0.3527168333530426 0.27663707733154297
vn 0.35045522451400757 0.845169186592102 -0.403571754693985
vn 0.6213511228561401 0.7511706352233887 -0.22285756468772888
vn 0.35045522451400757 0.845169186592102 -0.403571754693985
vn -0.6774135828018188 0.36582887172698975 -0.6381849646568298
vn 0.6213511228561401 0.7511706352233887 -0.22285756468772888
vn -0.6650278568267822 0.38555553555488586 -0.639597475528717
vn -0.6650278568267822 0.38555553555488586 -0.639597475528717
vn -0.6251497268676758 -0.7473912239074707 0.224931538105011
vn -0.6774135828018188 0.36582887172698975 -0.6381849646568298
vn -0.8113507628440857 -0.5843654870986938 0.015063625760376453
vn -0.8113507628440857 -0.5843654870986938 0.015063625760376453
vn 0.4271497130393982 -0.6035358309745789 0.6732664108276367
vn -0.6251497268676758 -0.7473912239074707 0.224931538105011
vn 0.17963892221450806 -0.7172211408615112 0.6732931733131409
vn 0.17963892221450806 -0.7172211408615112 0.6732931733131409
vn 0.9212772250175476 0.14576640725135803 0.3605557084083557
vn 0.4271497130393982 -0.6035358309745789 0.6732664108276367
vn 0.8939031362533569 0.3527168333530426 0.27663707733154297
vn 0.9212772250175476 0.14576640725135803 0.3605557084083557
vn 0.6213511228561401 0.7511706352233887 -0.22285756468772888
vn -0.6869756579399109 0.3301546275615692 -0.6473502516746521
vn 0.30840644240379333 0.8115258812904358 -0.49629753828048706
vn -0.6774135828018188 0.36582887172698975 -0.6381849646568298
vn -0.7514937520027161 -0.6587008833885193 0.037017401307821274
vn -0.6869756579399109 0.3301546275615692 -0.6473502516746521
vn -0.6251497268676758 -0.7473912239074707 0.224931538105011
vn -0.003361109411343932 -0.8060987591743469 0.5917715430259705
vn -0.7514937520027161 -0.6587008833885193 0.037017401307821274
vn 0.4271497130393982 -0.6035358309745789 0.6732664108276367
vn 0.8593844175338745 -0.14532367885112762 0.4902442991733551
vn -0.003361109411343932 -0.8060987591743469 0.5917715430259705
vn 0.9212772250175476 0.14576640725135803 0.3605557084083557
vn 0.30840644240379333 0.8115258812904358 -0.49629753828048706
vn 0.8593844175338745 -0.14532367885112762 0.4902442991733551
vn 0.6213511228561401 0.7511706352233887 -0.22285756468772888
vn -0.5726658701896667 -0.2639063000679016 -0.7761489748954773
vn -0.5726658701896667 -0.2639063000679016 -0.7761489748954773
vn -0.5726658701896667 -0.2639063000679016 -0.7761489748954773
vn -0.5726670622825623 -0.26390594244003296 -0.77614825963974
vn -0.254706472158432 0.5936082005500793 0.7633832097053528
vn 0.6086400151252747 0.23706498742103577 0.7572037577629089
vn -0.254706472158432 0.5936082005500793 0.7633832097053528
vn 0.6086399555206299 0.23706506192684174 0.7572037577629089
vn 0.6086399555206299 0.23706506192684174 0.7572037577629089
vn 0.9409307837486267 -0.3263241648674011 0.09034253656864166
vn 0.6086400151252747 0.23706498742103577 0.7572037577629089
vn 0.9409303665161133 -0.32632583379745483 0.09034088253974915
vn 0.3716246783733368 0.8392955660820007 -0.396835058927536
vn -0.8058391213417053 0.1625828742980957 -0.5693769454956055
vn 0.08738286793231964 0.8232728242874146 -0.5608797669410706
vn -0.6639981865882874 0.38375723361968994 -0.6417451500892639
vn -0.6639981865882874 0.38375723361968994 -0.6417451500892639
vn -0.8073604702949524 -0.5898203253746033 0.01676516979932785
vn -0.8058391213417053 0.1625828742980957 -0.5693769454956055
vn -0.8073598742485046 -0.5898211598396301 0.016765836626291275
vn -0.8073598742485046 -0.5898211598396301 0.016765836626291275
vn 0.2075943648815155 -0.708888828754425 0.6740780472755432
vn -0.8073604702949524 -0.5898203253746033 0.01676516979932785
vn 0.20169296860694885 -0.7109735608100891 0.6736739277839661
vn 0.20169296860694885 -0.7109735608100891 0.6736739277839661
vn 0.9022268652915955 0.3621763586997986 0.23412589728832245
vn 0.2075943648815155 -0.708888828754425 0.6740780472755432
vn 0.8929697275161743 0.13568784296512604 0.4291781187057495
vn 0.8929697275161743 0.13568784296512604 0.4291781187057495
vn 0.08738286793231964 0.8232728242874146 -0.5608797669410706
vn 0.9022268652915955 0.3621763586997986 0.23412589728832245
vn 0.3716246783733368 0.8392955660820007 -0.396835058927536
vn 0.08738286793231964 0.8232728242874146 -0.5608797669410706
vn -0.5976492762565613 0.4361964166164398 -0.6727168560028076
vn 0.5120235085487366 0.7892959117889404 -0.33888620138168335
vn -0.8058391213417053 0.1625828742980957 -0.5693769454956055
vn -0.8058391213417053 0.1625828742980957 -0.5693769454956055
vn -0.8649365305900574 -0.4851561188697815 -0.12848486006259918
vn -0.5976492762565613 0.4361964166164398 -0.6727168560028076
vn -0.8073604702949524 -0.5898203253746033 0.01676516979932785
vn 0.23601441085338593 -0.7186525464057922 0.6540915369987488
vn 0.2075943648815155 -0.708888828754425 0.6740780472755432
vn 0.9228636622428894 0.16713304817676544 0.3469715416431427
vn 0.9022268652915955 0.3621763586997986 0.23412589728832245
vn -0.19140857458114624 0.4596306383609772 -0.8672384023666382
vn 0.5820654034614563 0.4184945523738861 -0.6971816420555115
vn -0.42150163650512695 0.37895601987838745 0.8238499164581299
vn -0.5621911287307739 -0.3829287588596344 0.7330120801925659
vn -0.5315669178962708 0.5044912695884705 0.6803860068321228
vn -0.45778101682662964 -0.5957421660423279 -0.6599453091621399
vn -0.20905792713165283 0.4737912714481354 -0.8554627895355225
vn 0.28161805868148804 0.5259483456611633 0.8025394678115845
vn 0.29789286851882935 -0.38757845759391785 0.8723776340484619
vn 0.5844362378120422 0.4353991150856018 -0.6847349405288696
vn 0.7027168869972229 -0.5417599081993103 -0.4611780643463135
vn -0.5315669178962708 0.5044912695884705 0.6803860068321228
vn 0.43425583839416504 0.7037544250488281 0.5622735619544983
vn -0.20905792713165283 0.4737912714481354 -0.8554627895355225
vn 0.6565240025520325 0.6125850081443787 -0.44013160467147827
vn -0.6158041954040527 0.6549047827720642 0.4380466938018799
vn -0.4237273037433624 0.6570313572883606 -0.6235101819038391
vn 0.43425583839416504 0.7037544250488281 0.5622735619544983
vn 0.12298541516065598 0.4145343601703644 0.9016849994659424
vn 0.6565240025520325 0.6125850081443787 -0.44013160467147827
vn 0.5820654034614563 0.4184945523738861 -0.6971816420555115
vn -0.42150163650512695 0.37895601987838745 0.8238499164581299
vn -0.19140857458114624 0.4596306383609772 -0.8672384023666382
vn -0.12159942835569382 -0.707556426525116 0.6961159706115723
vn -0.5621911287307739 -0.3829287588596344 0.7330120801925659
vn 0.181806281208992 -0.7075565457344055 -0.6828690767288208
vn 0.29789286851882935 -0.38757845759391785 0.8723776340484619
vn 0.28161805868148804 0.5259483456611633 0.8025394678115845
vn -0.42150163650512695 0.37895601987838745 0.8238499164581299
vn 0.12298541516065598 0.4145343601703644 0.9016849994659424
vn -0.5621911287307739 -0.3829287588596344 0.7330120801925659
vn -0.12159942835569382 -0.707556426525116 0.6961159706115723
vn -0.12175258994102478 -0.7066562175750732 0.6970030665397644
vn 0.5820654034614563 0.4184945523738861 -0.6971816420555115
vn -0.20905792713165283 0.4737912714481354 -0.8554627895355225
vn 0.6565240025520325 0.6125850081443787 -0.44013160467147827
vn -0.4237273037433624 0.6570313572883606 -0.6235101819038391
vn 0.5844362378120422 0.4353991150856018 -0.6847349405288696
vn -0.19140857458114624 0.4596306383609772 -0.8672384023666382
vn 0.7027168869972229 -0.5417599081993103 -0.4611780643463135
vn 0.181806281208992 -0.7075565457344055 -0.6828690767288208
vn 0.5820654034614563 0.4184945523738861 -0.6971816420555115
vn -0.19140857458114624 0.4596306383609772 -0.8672384023666382
vn 0.181806281208992 -0.7075565457344055 -0.6828690767288208
vn -0.45778101682662964 -0.5957421660423279 -0.6599453091621399
vn 0.43425583839416504 0.7037544250488281 0.5622735619544983
vn -0.5315669178962708 0.5044912695884705 0.6803860068321228
vn 0.12298541516065598 0.4145343601703644 0.9016849994659424
vn -0.12175258994102478 -0.7066562175750732 0.6970030665397644
vn -0.42150163650512695 0.37895601987838745 0.8238499164581299
vn -0.12175258994102478 -0.7066562175750732 0.6970030665397644
vn -0.12159942835569382 -0.707556426525116 0.6961159706115723
vn -0.6158041954040527 0.6549047827720642 0.4380466938018799
vn 0.18203847110271454 -0.7066552042961121 -0.6837400794029236
vn -0.45778101682662964 -0.5957421660423279 -0.6599453091621399
vn 0.18203847110271454 -0.7066552042961121 -0.6837400794029236
vn 0.18203847110271454 -0.7066552042961121 -0.6837400794029236
vn 0.12298541516065598 0.4145343601703644 0.9016849994659424
vn 0.7262877821922302 -0.6084159016609192 -0.319900244474411
vn 0.18180598318576813 -0.7075566649436951 -0.6828690767288208
vn -0.38638070225715637 0.3335604965686798 -0.8599112629890442
vn 0.6110897660255432 0.45247676968574524 -0.6494875550270081
vn -0.38638070225715637 0.3335604965686798 -0.8599112629890442
vn 0.18180598318576813 -0.7075566649436951 -0.6828690767288208
vn -0.36769580841064453 -0.5327748656272888 -0.7622012495994568
vn -0.15678967535495758 0.4317608177661896 -0.8882564902305603
vn 0.6110897660255432 0.45247676968574524 -0.6494875550270081
vn 0.39850959181785583 0.6509931683540344 0.6460634469985962
vn -0.4659028649330139 0.5828711986541748 0.6657294631004333
vn 0.36675065755844116 0.3187735974788666 0.8740007877349854
vn -0.5048674941062927 -0.4447298049926758 0.7398136258125305
vn 0.4711900055408478 -0.48651567101478577 0.7357190251350403
vn -0.033226288855075836 -0.7066657543182373 0.7067669630050659
vn 0.7262877821922302 -0.6084159016609192 -0.319900244474411
vn 0.36675065755844116 0.3187735974788666 0.8740007877349854
vn -0.0332784429192543 -0.7075473070144653 0.7058819532394409
vn -0.033226288855075836 -0.7066657543182373 0.7067669630050659
vn -0.0332784429192543 -0.7075473070144653 0.7058819532394409
vn 0.30369576811790466 0.4621185064315796 0.8331958651542664
vn -0.8313751220703125 0.5541294813156128 0.04190387949347496
vn -0.42678263783454895 0.5630407929420471 0.7077016830444336
vn 0.18203863501548767 -0.7066552042961121 -0.683739960193634
vn -0.36769580841064453 -0.5327748656272888 -0.7622012495994568
vn 0.18203863501548767 -0.7066552042961121 -0.683739960193634
vn -0.5048674941062927 -0.4447298049926758 0.7398136258125305
vn 0.18203863501548767 -0.7066552042961121 -0.683739960193634
vn 0.18180598318576813 -0.7075566649436951 -0.6828690767288208
vn 0.6116461157798767 0.48015716671943665 -0.6287591457366943
vn 0.36675065755844116 0.3187735974788666 0.8740007877349854
vn -0.42678263783454895 0.5630407929420471 0.7077016830444336
vn 0.6110897660255432 0.45247676968574524 -0.6494875550270081
vn -0.38638070225715637 0.3335604965686798 -0.8599112629890442
vn -0.5048674941062927 -0.4447298049926758 0.7398136258125305
vn -0.4659028649330139 0.5828711986541748 0.6657294631004333
vn -0.36769580841064453 -0.5327748656272888 -0.7622012495994568
vn -0.15678967535495758 0.4317608177661896 -0.8882564902305603
vn -0.42678263783454895 0.5630407929420471 0.7077016830444336
vn 0.30369576811790466 0.4621185064315796 0.8331958651542664
vn -0.4659028649330139 0.5828711986541748 0.6657294631004333
vn 0.39850959181785583 0.6509931683540344 0.6460634469985962
vn -0.15678967535495758 0.4317608177661896 -0.8882564902305603
vn 0.8697810173034668 0.4910834729671478 -0.04814564064145088
vn -0.8313751220703125 0.5541294813156128 0.04190387949347496
vn -0.33142563700675964 0.6081622838973999 -0.7213152647018433
vn 0.39850959181785583 0.6509931683540344 0.6460634469985962
vn 0.36675065755844116 0.3187735974788666 0.8740007877349854
vn 0.8697810173034668 0.4910834729671478 -0.04814564064145088
vn 0.6110897660255432 0.45247676968574524 -0.6494875550270081
vn -0.42678263783454895 0.5630407929420471 0.7077016830444336
vn -0.38638070225715637 0.3335604965686798 -0.8599112629890442
vn 0.4711900055408478 -0.48651567101478577 0.7357190251350403
vn -0.0332784429192543 -0.7075473070144653 0.7058819532394409
vn -0.033226288855075836 -0.7066657543182373 0.7067669630050659
vn 0.8697810173034668 0.4910834729671478 -0.04814564064145088
vn -0.33142563700675964 0.6081622838973999 -0.7213152647018433
vn 0.6116461157798767 0.48015716671943665 -0.6287591457366943
vn -0.07720977067947388 0.5459377765655518 -0.8342605233192444
vn -0.772990882396698 0.477923184633255 -0.41722241044044495
vn -0.0010989952133968472 0.9999994039535522 0.00014831947919446975
vn -0.5318968296051025 0.6351413726806641 0.5600724816322327
vn 0.16307131946086884 0.6448877453804016 0.7466776967048645
vn 0.18188853561878204 0.7051181793212891 -0.6853647828102112
vn 0.8348661661148071 0.546621561050415 0.06483377516269684
vn 0.46834617853164673 0.6006752848625183 -0.6479514241218567
vn 0.26859939098358154 -0.10217572003602982 0.957817554473877
vn -0.6622315049171448 -0.152791827917099 0.733555793762207
vn -0.8293776512145996 -0.012206586077809334 0.5585550665855408
vn -0.10469939559698105 -0.00639049569144845 0.9944834113121033
vn 0.2593502104282379 -0.06834519654512405 -0.9633620381355286
vn -0.16647517681121826 -0.004505469463765621 -0.9860353469848633
vn -0.2654533386230469 -0.04374377802014351 -0.9631308317184448
vn 0.45931392908096313 -0.002988260705024004 -0.8882690072059631
vn -0.9524173140525818 -0.12077774107456207 -0.2798464596271515
vn -0.2654533386230469 -0.04374377802014351 -0.9631308317184448
vn -0.16647517681121826 -0.004505469463765621 -0.9860353469848633
vn -0.9078036546707153 -0.014184770174324512 -0.4191555380821228
vn -0.6622315049171448 -0.152791827917099 0.733555793762207
vn -0.9524173140525818 -0.12077774107456207 -0.2798464596271515
vn -0.9078036546707153 -0.014184770174324512 -0.4191555380821228
vn -0.8293776512145996 -0.012206586077809334 0.5585550665855408
vn 0.9727939963340759 0.012005182914435863 -0.23136059939861298
vn 0.9830936193466187 -0.040572673082351685 0.1785520315170288
vn 0.7339896559715271 -0.007183968089520931 0.6791226267814636
vn 0.45931392908096313 -0.002988260705024004 -0.8882690072059631
vn 0.8154677152633667 -0.036948312073946 -0.5776220560073853
vn 0.7339896559715271 -0.007183968089520931 0.6791226267814636
vn 0.26859939098358154 -0.10217572003602982 0.957817554473877
vn -0.10469939559698105 -0.00639049569144845 0.9944834113121033
vn 0.9830936193466187 -0.040572673082351685 0.1785520315170288
vn 0.16307131946086884 0.6448877453804016 0.7466776967048645
vn -0.5318968296051025 0.6351413726806641 0.5600724816322327
vn -0.6622315049171448 -0.152791827917099 0.733555793762207
vn 0.26859939098358154 -0.10217572003602982 0.957817554473877
vn 0.9830936193466187 -0.040572673082351685 0.1785520315170288
vn 0.16307131946086884 0.6448877453804016 0.7466776967048645
vn 0.26859939098358154 -0.10217572003602982 0.957817554473877
vn 0.8348661661148071 0.546621561050415 0.06483377516269684
vn -0.6622315049171448 -0.152791827917099 0.733555793762207
vn -0.5318968296051025 0.6351413726806641 0.5600724816322327
vn -0.9524173140525818 -0.12077774107456207 -0.2798464596271515
vn -0.772990882396698 0.477923184633255 -0.41722241044044495
vn 0.8154677152633667 -0.036948312073946 -0.5776220560073853
vn 0.2593502104282379 -0.06834519654512405 -0.9633620381355286
vn -0.2654533386230469 -0.04374377802014351 -0.9631308317184448
vn -0.3138805031776428 -0.7047748565673828 -0.6362164616584778
vn 0.8154677152633667 -0.036948312073946 -0.5776220560073853
vn 0.24124553799629211 -0.5056730508804321 -0.8283087015151978
vn 0.4882736802101135 0.6260446906089783 -0.6079941391944885
vn 0.46834617853164673 0.6006752848625183 -0.6479514241218567
vn 0.9382344484329224 0.2127191126346588 -0.2728859484195709
vn 0.19321054220199585 -0.7655627131462097 -0.613663911819458
vn 0.4800269603729248 -0.6956486105918884 -0.53445965051651
vn 0.7665681838989258 -0.5271936058998108 -0.3666606843471527
vn 0.1456114500761032 0.7530853748321533 -0.6416071653366089
vn -0.17468853294849396 0.5810889601707458 -0.7948707342147827
vn -0.07720977067947388 0.5459377765655518 -0.8342605233192444
vn -0.9524173140525818 -0.12077774107456207 -0.2798464596271515
vn -0.7488524913787842 -0.23749695718288422 -0.6187205910682678
vn -0.772990882396698 0.477923184633255 -0.41722241044044495
vn -0.7781511545181274 0.16053497791290283 -0.6072143316268921
vn 0.17748571932315826 0.6429871320724487 -0.7450277805328369
vn 0.1456114500761032 0.7530853748321533 -0.6416071653366089
vn 0.4882736802101135 0.6260446906089783 -0.6079941391944885
vn 0.9830936193466187 -0.040572673082351685 0.1785520315170288
vn 0.7665681838989258 -0.5271936058998108 -0.3666606843471527
vn -0.07151365280151367 -0.7386509776115417 -0.6702839136123657
vn 0.17748571932315826 0.6429871320724487 -0.7450277805328369
vn 0.19321054220199585 -0.7655627131462097 -0.613663911819458
vn -0.3138805031776428 -0.7047748565673828 -0.6362164616584778
vn -0.07151365280151367 -0.7386509776115417 -0.6702839136123657
vn -0.7488524913787842 -0.23749695718288422 -0.6187205910682678
vn -0.07151365280151367 -0.7386509776115417 -0.6702839136123657
vn -0.3138805031776428 -0.7047748565673828 -0.6362164616584778
vn -0.7876201272010803 -0.22588221728801727 -0.5732641220092773
vn -0.5361530780792236 0.3797168731689453 -0.7538931965827942
vn -0.7781511545181274 0.16053497791290283 -0.6072143316268921
vn -0.17468853294849396 0.5810889601707458 -0.7948707342147827
vn 0.24124553799629211 -0.5056730508804321 -0.8283087015151978
vn -0.5361530780792236 0.3797168731689453 -0.7538931965827942
vn 0.8348661661148071 0.546621561050415 0.06483377516269684
vn 0.9826233386993408 -0.13072721660137177 -0.13176411390304565
vn 0.9826233386993408 -0.13072721660137177 -0.13176411390304565
vn 0.7665681838989258 -0.5271936058998108 -0.3666606843471527
vn 0.4800269603729248 -0.6956486105918884 -0.53445965051651
vn 0.9338232278823853 -0.26121196150779724 -0.2444227635860443
vn 0.18188853561878204 0.7051181793212891 -0.6853647828102112
vn 0.7781084775924683 0.47778236865997314 -0.40776363015174866
vn 0.9382344484329224 0.2127191126346588 -0.2728859484195709
vn 0.9338232278823853 -0.26121196150779724 -0.2444227635860443
vn 0.4800269603729248 -0.6956486105918884 -0.53445965051651
vn 0.7781084775924683 0.47778236865997314 -0.40776363015174866
vn -0.7876201272010803 -0.22588221728801727 -0.5732641220092773
vt 0.25 0
vt 0.5 1
vt 0.25 1
vt 0.125 0
vt 0 0.75
vt 0 0
vt 0.25 0.75
vt 0.125 0
vt 0.125 0.75
vt 0.25 0
vt 0.125 0.75
vt 0 0.8999999761581421
vt 0.125 0.8999999761581421
vt 0.25 0.8861503005027771
vt 0.125 0.8999999761581421
vt 0.125 0.9909254312515259
vt 0.25 0.75
vt 0.125 0.75
vt 0.125 0
vt 0.25 0
vt 0 0.75
vt 0.125 0.75
vt 0.125 0
vt 0 0
vt 0.25 0.8999999761581421
vt 0.125 0.8999999761581421
vt 0 0.8999999761581421
vt 0.125 0.8999999761581421
vt 0.125 1
vt 0.5 1.290096640586853
vt 0.75 0.4502415657043457
vt 0.5 0.4125603437423706
vt 0.5 0
vt 0.25 0
vt 0.5 1
vt 0.25 1
vt 0.5 0
vt 0.25 0
vt 0.5 1
vt 0.25 1
vt 0.5 0
vt 0.25 0
vt 0.5 1
vt 0.25 1
vt 0.5 0
vt 0.25 0
vt 0.5 1
vt 0.25 1
vt 0.5 0
vt 0.25 0
vt 0.5 1
vt 0.25 1
vt 0.5 0
vt 0.25 0
vt 0.5 1
vt 0.25 1
vt 0.5 0
vt 0.25 0
vt 0.5 1
vt 0.25 1
vt 0.5 0
vt 0.5 0
vt 0.75 1
vt 0.5 1
vt 0.75 0
vt 0.5 0
vt 0.75 1
vt 0.5 1
vt 0.75 0
vt 0.5 1
vt 0.5 0
vt 0.75 1
vt 0.75 0
vt 0.25 0
vt 0.5 1
vt 0.25 1
vt 0.5 0
vt 0.25 0
vt 0.5 1
vt 0.25 1
vt 0.5 0
vt 0.25 0
vt 0.5 1
vt 0.25 1
vt 0.5 0
vt 0.25 0
vt 0.5 1
vt 0.25 1
vt 0.5 0
vt 0.25 0
vt 0.5 1
vt 0.25 1
vt 0.5 0
vt 0.75 1.290096640586853
vt 0.5 0.4502415657043457
vt 0.75 0.4125603437423706
vt 0.5 1.290096640586853
vt 0.75 0.4502415657043457
vt 0.5 0.4125603437423706
vt 0.75 1.290096640586853
vt 0.5 0.4502415657043457
vt 0.75 0.4125603437423706
vt 0.5 1.290096640586853
vt 0.75 0.4502415657043457
vt 0.5 0.4125603437423706
vt 0.75 1.290096640586853
vt 0.25 0
vt 0.5 5
vt 0.25 5
vt 0.5 0
vt 0.25 5
vt 0.25 0
vt 0.5 5
vt 0.5 0
vt 0.25 5
vt 0.25 0
vt 0.5 5
vt 0.5 0
vt 0.25 0
vt 0.5 5
vt 0.25 5
vt 0.5 0
vt 0.25 0
vt 0.5 0
vt 0.5 1
vt 0.25 0
vt 0.5 1
vt 0.25 1
vt 0.5 0
vt 0.25 0
vt 0.5 1
vt 0.25 1
vt 0.5 0
vt 0.25 0
vt 0.5 1
vt 0.25 1
vt 0.5 0
vt 0.25 0
vt 0.5 1
vt 0.25 1
vt 0.5 0
vt 0.25 1
vt 0.5 1.290096640586853
vt 0.75 0.4502415657043457
vt 0.5 0.4125603437423706
vt 0.75 1.290096640586853
vt 0.5 0.4502415657043457
vt 0.75 0.4125603437423706
vt 0.5 1.290096640586853
vt 0.75 0.4502415657043457
vt 0.5 0.4125603437423706
vt 0.75 1.290096640586853
vt 0.5 0.4502415657043457
vt 0.75 0.4125603437423706
vt 0.5 1.290096640586853
vt 0.75 0.4502415657043457
vt 0.5 0.4125603437423706
vt 0.75 1.290096640586853
vt 0.25 0
vt 0.5 1
vt 0.25 1
vt 0.5 0
vt 0.25 0
vt 0.5 1
vt 0.25 1
vt 0.5 0
vt 0.25 0
vt 0.5 1
vt 0.25 1
vt 0.5 0
vt 0.25 0
vt 0.5 1
vt 0.25 1
vt 0.5 0
vt 0.25 0
vt 0.5 1
vt 0.25 1
vt 0.5 0
vt 0.25 0
vt 0.5 1
vt 0.25 1
vt 0.5 0
vt 0.25 0
vt 0.5 1
vt 0.25 1
vt 0.5 0
vt 0.25 0
vt 0.5 1
vt 0.25 1
vt 0.5 0
vt 0.5 0
vt 0.75 1
vt 0.5 1
vt 0.75 0
vt 0.5 0
vt 0.75 1
vt 0.5 1
vt 0.75 0
vt 0.5 1
vt 0.5 0
vt 0.75 1
vt 0.75 0
vt 0.625 2
vt 1 2
vt 0.625 0
vt 0.25 2
vt 0.125 2
vt 0.25 0
vt 0.125 0
vt 0.125 2
vt 0.25 2
vt 0.125 0
vt 0.25 0
vt 0 2
vt 0.125 2
vt 0 0
vt 0.125 0
vt 0 2
vt 0 0
vt 0 2
vt 0.029999999329447746 2
vt 0 0
vt 0.029999999329447746 0
vt 0.029999999329447746 2
vt 0.029999999329447746 0
vt 0.5817670226097107 2
vt 0.625 2
vt 0.29467999935150146 0
vt 0 0.3555716872215271
vt 0 0.6707671284675598
vt 0.125 0.6036173701286316
vt 0 0.6177949905395508
vt 0.125 0.36523401737213135
vt 0 0.3657175302505493
vt 0.125 0.35578620433807373
vt 0.125 0.60418701171875
vt 0 0.6588630676269531
vt 0.125 0.6589210033416748
vt 0 0.6589202880859375
vt 0.125 0.6588852405548096
vt 0 0.6041940450668335
vt 0.125 0.37489527463912964
vt 0 0.3749358654022217
vt 0.625 0.9922513961791992
vt 1 0.992254376411438
vt 1 0.8410870432853699
vt 0 0.37489593029022217
vt 0 0.6685827970504761
vt 0.125 0.6680786609649658
vt 1 0.9801628589630127
vt 0.625 0.8072741031646729
vt 0.625 0.9801771640777588
vt 0.2976912260055542 2
vt 1 0.8072632551193237
vt 0.125 0.670997679233551
vt 0.125 0.3749350309371948
vt 0.625 0
vt 0.5865810513496399 0
vt 0.625 0.8410794734954834
vt 1 0
vt 0.125 0.37489527463912964
vt 0 0.3749358654022217
vt 0 0.6041940450668335
vt 0.625 0.9922513961791992
vt 1 0.992254376411438
vt 1 0.8410870432853699
vt 0 0.37489593029022217
vt 0 0.6588630676269531
vt 0.125 0.60418701171875
vt 0 0.6685827970504761
vt 0.125 0.6680786609649658
vt 0 0.6177949905395508
vt 0.125 0.36523401737213135
vt 0.25 2
vt 0.2976912260055542 2
vt 0.25 0
vt 1 0.9801628589630127
vt 1 0.8072632551193237
vt 0.625 0.8072741031646729
vt 0.5817670226097107 2
vt 0 0.6707671284675598
vt 0.125 0.670997679233551
vt 0.125 0.6036173701286316
vt 0.125 0.3749350309371948
vt 0.625 0
vt 0.5865810513496399 0
vt 0.625 2
vt 0.625 0.8410794734954834
vt 0.29467999935150146 0
vt 0.125 0
vt 1 0
vt 0.625 0
vt 1 2
vt 0.625 2
vt 0.25 2
vt 0.125 2
vt 0.25 0
vt 0.125 0
vt 0.625 0.9801771640777588
vt 0.125 2
vt 0 2
vt 0.125 2
vt 0 0
vt 0.125 0
vt 0 2
vt 0 0
vt 0 2
vt 0.029999999329447746 2
vt 0 0
vt 0.029999999329447746 0
vt 0.029999999329447746 2
vt 0.029999999329447746 0
vt 0 0.3555716872215271
vt 0 0.3657175302505493
vt 0.125 0.35578620433807373
vt 0.125 0.6589210033416748
vt 0 0.6589202880859375
vt 0.125 0.6588852405548096
vt 0.7222856283187866 0.05571073293685913
vt 0.9444554448127747 0.4991135597229004
vt 0.5066632628440857 0.5028710961341858
vt 0.722285807132721 0.9434528946876526
vt 0.27794647216796875 0.9443894028663635
vt 0.5058751106262207 0.05616682767868042
vt 0.05577685311436653 0.5009863376617432
vt 0.2779463231563568 0.05664718151092529
vt 1 1
vt 0 1
vt 0 -0.1449275016784668
vt 1 -0.1449275016784668
vt 0.4324924647808075 1
vt 1 -0.1449275016784668
vt 1 1
vt 0 -0.1449275016784668
vt 1 1
vt 0 1
vt 0 -0.1449275016784668
vt 1 -0.1449275016784668
vt 1 1
vt 0 1
vt 0 -0.1449275016784668
vt 1 -0.1449275016784668
vt 0.5814720988273621 -0.1449275016784668
vt 0 1
vt 0 -0.1449275016784668
vt 1 -0.1449275016784668
vt 1 1
vt 1 -0.1449275016784668
vt 0 1
vt 0 -0.1449275016784668
vt 1 1
vt 1 1
vt 0 1
vt 0 0
vt 1 0
vt 1 0
vt 0 1
vt 0 0
vt 1 1
vt 1 0
vt 1 0.9995005130767822
vt 0 0
vt 0 0.9994614124298096
vt 0 1
vt 1 0.25999999046325684
vt 0.7316176891326904 0.25999999046325684
vt 0.7379211187362671 0.5
vt 0.6536623239517212 0.25999999046325684
vt 1 0.5
vt 0.7719705104827881 0.8999999761581421
vt 0.7055083513259888 1
vt 0.7054414749145508 0.779525876045227
vt 0.49371981620788574 0.10882151126861572
vt 0.40917879343032837 0.25
vt 1 0.25
vt 1 0.8999999761581421
vt 0.7809569835662842 0.8999999761581421
vt 0.6876667737960815 1
vt 0 0.25999999046325684
vt 0.45899999141693115 0.6234083771705627
vt 0 1
vt 0.7295920848846436 0.8326195478439331
vt 0.49371981620788574 0.10882151126861572
vt 1 0.10640507936477661
vt 1 0.25
vt 0 0.25999999046325684
vt 0.6709445714950562 0.5
vt 0.30000001192092896 0
vt 0.22826087474822998 0.25
vt 0.22826087474822998 0
vt 1 0.25
vt 0.40917879343032837 0.25
vt 1 0.06846189498901367
vt 0.4000000059604645 0
vt 1 0
vt 0.4000000059604645 0.10000002384185791
vt 0.4000000059604645 0.25
vt 1 0.2009461522102356
vt 1 0.25
vt 1 0.10640507936477661
vt 0.40917879343032837 0.25
vt 0 1
vt 0.4267100393772125 0.5932531952857971
vt 1 0.06846189498901367
vt 1 0
vt 0.4000000059604645 0
vt 0.4000000059604645 0.10000002384185791
vt 1 1
vt 0.4000000059604645 0.25
vt 1 0.2009461522102356
vt 0.4000000059604645 0
vt 0.30000001192092896 0
vt 0.40917879343032837 0.25
vt 0.4000000059604645 0
g elevator0
s 1
f 1/1/1 2/2/2 3/3/3
f 4/4/4 5/5/5 6/6/6
f 7/7/7 8/8/8 9/9/9
f 8/8/8 7/7/7 10/10/10
f 11/11/11 10/10/10 7/7/7
f 10/10/10 11/11/11 4/4/4
f 9/9/9 6/6/6 5/5/5
f 6/6/6 9/9/9 8/8/8
f 12/12/12 11/11/11 13/13/13
f 11/11/11 12/12/12 5/5/5
f 14/14/14 9/9/9 15/15/15
f 9/9/9 14/14/14 7/7/7
f 13/13/13 7/7/7 14/14/14
f 7/7/7 13/13/13 11/11/11
f 15/15/15 5/5/5 12/12/12
f 5/5/5 15/15/15 9/9/9
f 13/13/13 16/16/16 12/12/12
f 15/15/15 16/16/16 14/14/14
f 14/14/14 16/16/16 13/13/13
f 12/12/12 16/16/16 15/15/15
f 17/17/17 18/18/18 19/19/19
f 19/19/19 20/20/20 17/17/17
f 21/21/21 22/22/22 23/23/23
f 23/23/23 24/24/24 21/21/21
f 18/18/18 21/21/21 24/24/24
f 24/24/24 19/19/19 18/18/18
f 22/22/22 17/17/17 20/20/20
f 20/20/20 23/23/23 22/22/22
f 25/25/25 26/26/26 18/18/18
f 18/18/18 17/17/17 25/25/25
f 27/27/27 28/28/28 22/22/22
f 22/22/22 21/21/21 27/27/27
f 26/26/26 27/27/27 21/21/21
f 21/21/21 18/18/18 26/26/26
f 28/28/28 25/25/25 17/17/17
f 26/26/26 25/25/25 29/29/29
f 30/30/30 31/31/31 32/32/32
f 1/1/1 33/33/33 2/2/2
f 34/34/34 35/35/35 36/36/36
f 34/34/34 37/37/37 35/35/35
f 38/38/38 39/39/39 40/40/40
f 38/38/38 41/41/41 39/39/39
f 42/42/42 43/43/43 44/44/44
f 42/42/42 45/45/45 43/43/43
f 46/46/46 47/47/47 48/48/48
f 46/46/46 49/49/49 47/47/47
f 50/50/50 51/51/51 52/52/52
f 50/50/50 53/53/53 51/51/51
f 54/54/54 55/55/55 56/56/56
f 54/54/54 57/57/57 55/55/55
f 58/58/58 59/59/59 60/60/60
f 58/58/58 61/61/61 59/59/59
f 62/62/62 63/63/63 64/64/64
f 62/62/62 65/65/65 63/63/63
f 66/66/66 67/67/67 68/68/68
f 66/66/66 69/69/69 67/67/67
f 69/69/69 70/70/70 67/67/67
f 69/69/69 71/71/71 70/70/70
f 71/71/71 72/72/72 70/70/70
f 71/71/71 73/73/73 72/72/72
f 73/73/73 64/64/64 72/72/72
f 73/73/73 62/62/62 64/64/64
f 74/74/74 75/75/75 76/76/76
f 74/74/74 77/77/77 75/75/75
f 78/78/78 79/79/79 80/80/80
f 78/78/78 81/81/81 79/79/79
f 82/82/82 83/83/83 84/84/84
f 82/82/82 85/85/85 83/83/83
f 86/86/86 87/87/87 88/88/88
f 86/86/86 89/89/89 87/87/87
f 90/90/90 91/91/91 92/92/92
f 90/90/90 93/93/93 91/91/91
f 28/28/28 27/27/27 29/29/29
f 30/30/30 94/94/94 31/31/31
f 94/94/94 95/95/95 96/96/96
f 94/94/94 97/97/97 95/95/95
f 97/97/97 98/98/98 99/99/99
f 97/97/97 100/100/100 98/98/98
f 100/100/100 101/101/101 102/102/102
f 100/100/100 103/103/103 101/101/101
f 103/103/103 104/104/104 105/105/105
f 103/103/103 106/106/106 104/104/104
f 107/107/107 108/108/108 109/109/109
f 107/107/107 110/110/110 108/108/108
f 110/110/110 111/111/111 108/108/108
f 110/110/110 112/112/112 111/111/111
f 112/112/112 113/113/113 111/111/111
f 112/112/112 114/114/114 113/113/113
f 114/114/114 115/115/115 113/113/113
f 114/114/114 116/116/116 115/115/115
f 116/116/116 117/117/117 115/115/115
f 116/116/116 118/118/118 117/117/117
f 119/119/119 120/120/120 121/121/121
f 119/119/119 122/122/122 120/120/120
f 122/122/122 109/109/109 120/120/120
f 122/122/122 107/107/107 109/109/109
f 27/27/27 26/26/26 29/29/29
f 25/25/25 28/28/28 29/29/29
f 123/123/123 124/124/124 125/125/125
f 126/126/126 127/127/127 128/128/128
f 126/126/126 129/129/129 127/127/127
f 130/130/130 131/131/131 132/132/132
f 130/130/130 133/133/133 131/131/131
f 134/134/134 135/135/135 136/136/136
f 134/134/134 137/137/137 135/135/135
f 138/138/138 139/139/139 140/140/140
f 138/138/138 141/141/141 139/139/139
f 123/123/123 125/125/125 142/142/142
f 17/17/17 22/22/22 28/28/28
f 143/143/143 144/144/144 145/145/145
f 143/143/143 146/146/146 144/144/144
f 146/146/146 147/147/147 148/148/148
f 146/146/146 149/149/149 147/147/147
f 149/149/149 150/150/150 151/151/151
f 149/149/149 152/152/152 150/150/150
f 152/152/152 153/153/153 154/154/154
f 152/152/152 155/155/155 153/153/153
f 155/155/155 156/156/156 157/157/157
f 155/155/155 158/158/158 156/156/156
f 159/159/159 160/160/160 161/161/161
f 159/159/159 162/162/162 160/160/160
f 163/163/163 164/164/164 165/165/165
f 163/163/163 166/166/166 164/164/164
f 167/167/167 168/168/168 169/169/169
f 167/167/167 170/170/170 168/168/168
f 171/171/171 172/172/172 173/173/173
f 171/171/171 174/174/174 172/172/172
f 175/175/175 176/176/176 177/177/177
f 175/175/175 178/178/178 176/176/176
f 179/179/179 180/180/180 181/181/181
f 179/179/179 182/182/182 180/180/180
f 183/183/183 184/184/184 185/185/185
f 183/183/183 186/186/186 184/184/184
f 187/187/187 188/188/188 189/189/189
f 187/187/187 190/190/190 188/188/188
f 191/191/191 192/192/192 193/193/193
f 191/191/191 194/194/194 192/192/192
f 195/195/195 196/196/196 197/197/197
f 195/195/195 198/198/198 196/196/196
f 198/198/198 199/199/199 196/196/196
f 198/198/198 200/200/200 199/199/199
f 200/200/200 201/201/201 199/199/199
f 200/200/200 202/202/202 201/201/201
f 202/202/202 193/193/193 201/201/201
f 202/202/202 191/191/191 193/193/193
f 5/5/5 4/4/4 11/11/11
g elevator1
s 1
f 203/203/203 204/204/204 205/205/205
f 206/206/206 207/207/207 208/208/208
f 209/209/209 208/208/208 207/207/207
f 210/210/210 211/211/211 212/212/212
f 213/213/213 212/212/212 211/211/211
f 214/214/214 215/215/215 216/216/216
f 217/217/217 216/216/216 215/215/215
f 218/218/218 210/210/210 219/219/219
f 212/212/212 219/219/219 210/210/210
f 220/220/220 221/221/221 222/222/222
f 223/223/223 222/222/222 221/221/221
f 224/224/224 218/218/218 225/225/225
f 219/219/219 225/225/225 218/218/218
f 226/226/226 227/227/227 213/213/213
f 228/228/228 213/213/213 227/227/227
f 229/229/229 230/230/230 231/231/231
f 232/232/232 233/233/233 234/234/234
f 229/229/229 231/231/231 235/235/235
f 236/236/236 237/237/237 238/238/238
f 239/239/239 240/240/240 241/241/241
f 241/241/241 240/240/240 242/242/242
f 242/242/242 243/243/243 241/241/241
f 244/244/244 245/245/245 246/246/246
f 247/247/247 237/237/237 236/236/236
f 248/248/248 249/249/249 232/232/232
f 249/249/249 233/233/233 232/232/232
f 250/250/250 251/251/251 252/252/252
f 211/211/211 253/253/253 213/213/213
f 250/250/250 254/254/254 251/251/251
f 253/253/253 226/226/226 213/213/213
f 230/230/230 255/255/255 231/231/231
f 256/256/256 247/247/247 236/236/236
f 257/257/257 258/258/258 227/227/227
f 246/246/246 259/259/259 244/244/244
f 258/258/258 228/228/228 227/227/227
f 260/260/260 205/205/205 204/204/204
f 261/261/261 262/262/262 263/263/263
f 264/264/264 265/265/265 266/266/266
f 267/267/267 268/268/268 269/269/269
f 270/270/270 271/271/271 272/272/272
f 271/271/271 273/273/273 272/272/272
f 274/274/274 275/275/275 276/276/276
f 277/277/277 278/278/278 279/279/279
f 275/275/275 280/280/280 276/276/276
f 281/281/281 282/282/282 283/283/283
f 284/284/284 267/267/267 269/269/269
f 285/285/285 286/286/286 287/287/287
f 266/266/266 288/288/288 264/264/264
f 286/286/286 289/289/289 287/287/287
f 276/276/276 290/290/290 274/274/274
f 291/291/291 292/292/292 293/293/293
f 294/294/294 293/293/293 292/292/292
f 295/295/295 296/296/296 297/297/297
f 298/298/298 297/297/297 296/296/296
f 277/277/277 279/279/279 299/299/299
f 300/300/300 274/274/274 290/290/290
f 301/301/301 302/302/302 303/303/303
f 304/304/304 303/303/303 302/302/302
f 305/305/305 300/300/300 306/306/306
f 307/307/307 308/308/308 309/309/309
f 310/310/310 309/309/309 308/308/308
f 311/311/311 305/305/305 312/312/312
f 306/306/306 312/312/312 305/305/305
f 280/280/280 287/287/287 276/276/276
f 289/289/289 276/276/276 287/287/287
f 313/313/313 281/281/281 283/283/283
f 272/272/272 273/273/273 314/314/314
f 313/313/313 283/283/283 315/315/315
f 269/269/269 268/268/268 316/316/316
f 317/317/317 318/318/318 263/263/263
f 263/263/263 318/318/318 261/261/261
f 290/290/290 306/306/306 300/300/300
g elevator2
s 1
f 319/319/319 320/320/320 321/321/321
f 322/322/322 323/323/323 321/321/321
f 324/324/324 319/319/319 321/321/321
f 323/323/323 325/325/325 321/321/321
f 325/325/325 326/326/326 321/321/321
f 320/320/320 322/322/322 321/321/321
f 326/326/326 324/324/324 321/321/321
g elevator3
s 1
f 327/327/327 328/328/328 329/329/329
f 329/329/329 330/330/330 327/327/327
f 331/331/331 332/332/332 333/333/333
f 331/331/331 334/334/334 332/332/332
f 335/335/335 336/336/336 337/337/337
f 337/337/337 338/338/338 335/335/335
f 339/339/339 340/340/340 341/341/341
f 341/341/341 342/342/342 339/339/339
f 343/343/343 344/344/344 345/345/345
f 343/343/343 346/346/346 347/347/347
f 348/348/348 349/349/349 350/350/350
f 349/349/349 348/348/348 351/351/351
f 352/352/352 353/353/353 354/354/354
f 354/354/354 355/355/355 352/352/352
f 356/356/356 357/357/357 358/358/358
f 344/344/344 343/343/343 347/347/347
f 357/357/357 356/356/356 359/359/359
f 360/360/360 361/361/361 362/362/362
f 363/363/363 362/362/362 361/361/361
f 364/364/364 334/334/334 331/331/331
g elevator4
s 1
f 365/365/365 366/366/366 367/367/367
f 368/368/368 365/365/365 369/369/369
f 370/370/370 371/371/371 372/372/372
f 373/373/373 374/374/374 375/375/375
f 376/376/376 377/377/377 378/378/378
f 367/367/367 379/379/379 380/380/380
f 379/379/379 367/367/367 366/366/366
f 381/381/381 378/378/378 382/382/382
f 383/383/383 384/384/384 385/385/385
f 386/386/386 368/368/368 387/387/387
f 388/388/388 389/389/389 390/390/390
f 373/373/373 391/391/391 392/392/392
f 393/393/393 394/394/394 395/395/395
f 394/394/394 393/393/393 396/396/396
f 397/397/397 398/398/398 399/399/399
f 398/398/398 396/396/396 393/393/393
f 398/398/398 397/397/397 396/396/396
f 388/388/388 397/397/397 389/389/389
f 400/400/400 391/391/391 373/373/373
f 401/401/401 399/399/399 383/383/383
f 383/383/383 399/399/399 384/384/384
f 402/402/402 372/372/372 371/371/371
f 403/403/403 402/402/402 386/386/386
f 380/380/380 379/379/379 381/381/381
f 404/404/404 405/405/405 406/406/406
f 406/406/406 407/407/407 404/404/404
f 408/408/408 370/370/370 376/376/376
f 372/372/372 402/402/402 403/403/403
f 409/409/409 385/385/385 410/410/410
f 410/410/410 404/404/404 407/407/407
f 378/378/378 377/377/377 382/382/382
f 410/410/410 407/407/407 409/409/409
f 382/382/382 380/380/380 381/381/381
f 387/387/387 403/403/403 386/386/386
f 368/368/368 369/369/369 387/387/387
f 369/369/369 365/365/365 367/367/367
f 409/409/409 411/411/411 412/412/412
f 408/408/408 376/376/376 378/378/378
f 412/412/412 390/390/390 389/389/389
f 371/371/371 370/370/370 408/408/408
f 412/412/412 389/389/389 409/409/409
f 400/400/400 373/373/373 375/375/375
f 413/413/413 383/383/383 385/385/385
f 397/397/397 388/388/388 414/414/414
