# Exported using wow.export v0.2.19
o shamanmesa_shamanMesa02.obj
v 32.64976119995117 12.87769889831543 5.696076393127441
v 31.378713607788086 10.493481636047363 8.65947437286377
v 31.119821548461914 13.488301277160645 9.390555381774902
v 33.65280532836914 13.01195240020752 2.478377103805542
v 33.57169723510742 9.037126541137695 2.7074272632598877
v 32.605430603027344 9.482625007629395 5.821258068084717
v 33.255775451660156 12.877700805664062 5.910677433013916
v 32.29985427856445 10.49347972869873 8.98566722869873
v 33.21144485473633 9.482625007629395 6.035859107971191
v 32.04096603393555 13.488300323486328 9.716748237609863
v 34.37163162231445 9.037126541137695 2.9907007217407227
v 34.4527473449707 13.01195240020752 2.761650323867798
v 36.04392623901367 14.09745979309082 1.792061448097229
v 36.353755950927734 14.09745979309082 0.9171299338340759
v 35.06837844848633 13.089630126953125 0.49073001742362976
v 36.353755950927734 14.09745979309082 0.9171299338340759
v 37.1122932434082 13.303972244262695 1.2595031261444092
v 36.64547348022461 14.09745979309082 0.09334113448858261
v 37.2841911315918 8.231742858886719 1.2973264455795288
v 37.81488037109375 8.231742858886719 -0.20129546523094177
v 37.6114387512207 13.303972244262695 -0.15003147721290588
v 36.66447448730469 6.17132043838501 -0.11448676139116287
v 37.2841911315918 8.231742858886719 1.2973264455795288
v 36.08579635620117 6.17132043838501 1.5196532011032104
v 36.64144515991211 13.303972244262695 2.589130401611328
v 36.76729202270508 8.231742858886719 2.757002353668213
v 36.04392623901367 14.09745979309082 1.792061448097229
v 34.098388671875 13.303972244262695 3.2298948764801025
v 34.466835021972656 14.09745979309082 2.1894371509552
v 36.03837203979492 13.303972244262695 -2.248443841934204
v 35.669925689697266 14.09745979309082 -1.207985758781433
v 34.020790100097656 8.231742858886719 3.4490272998809814
v 36.115970611572266 8.231742858886719 -2.467576265335083
v 34.56864547729492 6.17132043838501 1.9019328355789185
v 36.76729202270508 8.231742858886719 2.757002353668213
v 34.020790100097656 8.231742858886719 3.4490272998809814
v 35.72600555419922 6.17132043838501 -1.3663465976715088
v 36.115970611572266 8.231742858886719 -2.467576265335083
v 35.96424102783203 12.856091499328613 -1.506676435470581
v 37.00952911376953 12.512396812438965 -4.689589977264404
v 36.40351486206055 12.512396812438965 -4.904191017150879
v 36.40351486206055 12.512396812438965 -4.904191017150879
v 35.16429901123047 12.856087684631348 -1.789949893951416
v 35.96424102783203 12.856091499328613 -1.506676435470581
v 37.00952911376953 12.512396812438965 -4.689589977264404
v 38.473358154296875 12.872804641723633 -8.447766304016113
v 37.552215576171875 12.872800827026367 -8.77396011352539
v 36.40351486206055 12.512396812438965 -4.904191017150879
v 38.473358154296875 12.872804641723633 -8.447766304016113
v 38.136993408203125 9.933582305908203 -7.49790096282959
v 37.215850830078125 9.93358039855957 -7.824095249176025
v 37.552215576171875 12.872800827026367 -8.77396011352539
v 38.136993408203125 9.933582305908203 -7.49790096282959
v 36.96520233154297 9.11732292175293 -4.5644211769104
v 36.359188079833984 9.11732292175293 -4.779022216796875
v 37.215850830078125 9.93358039855957 -7.824095249176025
v 36.96520233154297 9.11732292175293 -4.5644211769104
v 35.94148635864258 8.875808715820312 -1.4424301385879517
v 35.14154815673828 8.875810623168945 -1.725703477859497
v 35.14154815673828 8.875810623168945 -1.725703477859497
v 36.359188079833984 9.11732292175293 -4.779022216796875
v 36.96520233154297 9.11732292175293 -4.5644211769104
v 38.136993408203125 9.933582305908203 -7.49790096282959
v 37.00952911376953 12.512396812438965 -4.689589977264404
v 36.96520233154297 9.11732292175293 -4.5644211769104
v 38.473358154296875 12.872804641723633 -8.447766304016113
v 35.96424102783203 12.856091499328613 -1.506676435470581
v 35.94148635864258 8.875808715820312 -1.4424301385879517
v 36.40351486206055 12.512396812438965 -4.904191017150879
v 37.215850830078125 9.93358039855957 -7.824095249176025
v 36.359188079833984 9.11732292175293 -4.779022216796875
v 37.552215576171875 12.872800827026367 -8.77396011352539
v 35.14154815673828 8.875810623168945 -1.725703477859497
v 35.16429901123047 12.856087684631348 -1.789949893951416
v 33.65280532836914 13.01195240020752 2.478377103805542
v 32.64976119995117 12.87769889831543 5.696076393127441
v 33.255775451660156 12.877700805664062 5.910677433013916
v 33.255775451660156 12.877700805664062 5.910677433013916
v 34.4527473449707 13.01195240020752 2.761650323867798
v 33.65280532836914 13.01195240020752 2.478377103805542
v 32.64976119995117 12.87769889831543 5.696076393127441
v 31.119821548461914 13.488301277160645 9.390555381774902
v 32.04096603393555 13.488300323486328 9.716748237609863
v 33.255775451660156 12.877700805664062 5.910677433013916
v 31.119821548461914 13.488301277160645 9.390555381774902
v 31.378713607788086 10.493481636047363 8.65947437286377
v 32.29985427856445 10.49347972869873 8.98566722869873
v 32.04096603393555 13.488300323486328 9.716748237609863
v 31.378713607788086 10.493481636047363 8.65947437286377
v 32.605430603027344 9.482625007629395 5.821258068084717
v 33.21144485473633 9.482625007629395 6.035859107971191
v 32.29985427856445 10.49347972869873 8.98566722869873
v 32.605430603027344 9.482625007629395 5.821258068084717
v 33.57169723510742 9.037126541137695 2.7074272632598877
v 34.37163162231445 9.037126541137695 2.9907007217407227
v 34.37163162231445 9.037126541137695 2.9907007217407227
v 33.21144485473633 9.482625007629395 6.035859107971191
v 32.605430603027344 9.482625007629395 5.821258068084717
v 33.63017654418945 6.171321392059326 0.6500749588012695
v 34.56864547729492 6.17132043838501 1.9019328355789185
v 34.020790100097656 8.231742858886719 3.4490272998809814
v 32.32187271118164 8.231742858886719 1.1827731132507324
v 32.852561950683594 8.231742858886719 -0.3158489763736725
v 33.36946487426758 8.231742858886719 -1.7755250930786133
v 34.20885467529297 6.171321392059326 -0.984065055847168
v 37.74330520629883 5.13157844543457 -0.24260051548480988
v 36.09741973876953 5.13157844543457 -2.3275675773620605
v 35.72600555419922 6.17132043838501 -1.3663465976715088
v 36.66447448730469 6.17132043838501 -0.11448676139116287
v 33.4411506652832 5.13157844543457 -1.766070008277893
v 34.2067756652832 5.13157844543457 3.0114452838897705
v 36.79798126220703 5.13157844543457 2.4269096851348877
v 36.08579635620117 6.17132043838501 1.5196532011032104
v 32.495826721191406 5.13157844543457 0.9034328460693359
v 36.87442398071289 -2.117047071456909 -2.8994603157043457
v 38.52299118041992 -2.117047071456909 -0.31384706497192383
v 33.55882263183594 -2.117047071456909 -2.071751832962036
v 34.3548469543457 -2.117047071456909 4.215606689453125
v 37.26320266723633 -2.117047071456909 3.2436883449554443
v 32.29903030395508 -2.117047071456909 1.4857836961746216
v 37.81488037109375 8.231742858886719 -0.20129546523094177
v 33.792938232421875 14.09745979309082 0.03627936542034149
v 33.49128723144531 14.09745979309082 0.888114869594574
v 33.792938232421875 14.09745979309082 0.03627936542034149
v 33.02446365356445 13.303972244262695 -0.2780257761478424
v 33.49128723144531 14.09745979309082 0.888114869594574
v 32.852561950683594 8.231742858886719 -0.3158489763736725
v 32.32187271118164 8.231742858886719 1.1827731132507324
v 32.52531814575195 13.303972244262695 1.1315090656280518
v 33.49530792236328 13.303972244262695 -1.607653021812439
v 33.36946487426758 8.231742858886719 -1.7755250930786133
v 34.092830657958984 14.09745979309082 -0.8105892539024353
v 36.64547348022461 14.09745979309082 0.09334113448858261
v 35.669925689697266 14.09745979309082 -1.207985758781433
v 35.669925689697266 14.09745979309082 -1.207985758781433
v 34.092830657958984 14.09745979309082 -0.8105892539024353
v 34.466835021972656 14.09745979309082 2.1894371509552
v 36.04392623901367 14.09745979309082 1.792061448097229
v 33.49128723144531 14.09745979309082 0.888114869594574
v 34.466835021972656 14.09745979309082 2.1894371509552
v 34.092830657958984 14.09745979309082 -0.8105892539024353
v 36.64547348022461 14.09745979309082 0.09334113448858261
v 36.115970611572266 8.231742858886719 -2.467576265335083
vn -0.6500273942947388 0.7074037790298462 -0.2775684595108032
vn -0.6830881237983704 -0.6005210280418396 0.41565021872520447
vn -0.8166618943214417 0.5135517120361328 0.26330211758613586
vn -0.6831699013710022 0.7068359851837158 -0.1834714561700821
vn -0.7059357166290283 -0.6981781125068665 -0.11917250603437424
vn -0.7179295420646667 -0.6894223690032959 -0.0963016152381897
vn 0.4362194538116455 0.892792820930481 0.11239892989397049
vn 0.2637706995010376 -0.5981005430221558 0.7567699551582336
vn 0.35175031423568726 -0.8689717054367065 0.34808024764060974
vn 0.4617411494255066 0.5065069198608398 0.7281798124313354
vn 0.6284327507019043 -0.698993444442749 0.3412923216819763
vn 0.6507987976074219 0.7067197561264038 0.2775033712387085
vn 0.036028217524290085 0.9985520243644714 0.039947353303432465
vn 0.05814919248223305 0.9980954527854919 0.020593255758285522
vn 0.0000013918698869019863 1 -1.1498055840775123e-7
vn 0.05814919248223305 0.9980954527854919 0.020593255758285522
vn 0.8603513836860657 0.4086248576641083 0.3046657145023346
vn 0.0531412772834301 0.9985519051551819 -0.008373026736080647
vn 0.9200271368026733 -0.21772918105125427 0.32579755783081055
vn 0.9604488611221313 -0.23551258444786072 -0.14856597781181335
vn 0.8754947185516357 0.46591174602508545 -0.12820012867450714
vn 0.9748942255973816 0.16166651248931885 -0.15311816334724426
vn 0.9200271368026733 -0.21772918105125427 0.32579755783081055
vn 0.6752176880836487 0.12876452505588531 0.7262924909591675
vn 0.599703311920166 0.46591588854789734 0.6505984663963318
vn 0.653239905834198 -0.2743379473686218 0.7057027220726013
vn 0.036028217524290085 0.9985520243644714 0.039947353303432465
vn -0.28903815150260925 0.5002618432044983 0.8162077069282532
vn -0.016779165714979172 0.9987359642982483 0.047381266951560974
vn 0.2890365421772003 0.500262439250946 -0.8162079453468323
vn 0.016780490055680275 0.9987358450889587 -0.047383178025484085
vn -0.3163077235221863 -0.3195575177669525 0.8932146430015564
vn 0.3241991400718689 -0.23823103308677673 -0.9155003428459167
vn -0.32662373781204224 0.11463708430528641 0.9381765723228455
vn 0.653239905834198 -0.2743379473686218 0.7057027220726013
vn -0.3163077235221863 -0.3195575177669525 0.8932146430015564
vn 0.3229302763938904 0.1589258313179016 -0.9329836964607239
vn 0.3241991400718689 -0.23823103308677673 -0.9155003428459167
vn 0.6952123045921326 0.7024495601654053 0.15246132016181946
vn 0.4286061227321625 0.8934462070465088 0.13435284793376923
vn -0.6649953722953796 0.7090056538581848 -0.23471727967262268
vn -0.6649953722953796 0.7090056538581848 -0.23471727967262268
vn -0.6318984627723694 0.7018060684204102 -0.3288959860801697
vn 0.6952123045921326 0.7024495601654053 0.15246132016181946
vn 0.4286061227321625 0.8934462070465088 0.13435284793376923
vn 0.831190824508667 0.46611663699150085 -0.3030792772769928
vn -0.4623149633407593 0.4740682542324066 -0.7493491768836975
vn -0.6649953722953796 0.7090056538581848 -0.23471727967262268
vn 0.831190824508667 0.46611663699150085 -0.3030792772769928
vn 0.665661096572876 -0.6410114169120789 -0.38209906220436096
vn -0.2824118733406067 -0.6430044174194336 -0.7118910551071167
vn -0.4623149633407593 0.4740682542324066 -0.7493491768836975
vn 0.665661096572876 -0.6410114169120789 -0.38209906220436096
vn 0.47391533851623535 -0.8805657625198364 0.002858817810192704
vn -0.6331855654716492 -0.6973736882209778 -0.3357766568660736
vn -0.2824118733406067 -0.6430044174194336 -0.7118910551071167
vn 0.47391533851623535 -0.8805657625198364 0.002858817810192704
vn 0.6883194446563721 -0.7049232721328735 0.17117097973823547
vn -0.6386071443557739 -0.7044482231140137 -0.30973151326179504
vn -0.6386071443557739 -0.7044482231140137 -0.30973151326179504
vn -0.6331855654716492 -0.6973736882209778 -0.3357766568660736
vn 0.47391533851623535 -0.8805657625198364 0.002858817810192704
vn 0.665661096572876 -0.6410114169120789 -0.38209906220436096
vn 0.4286061227321625 0.8934462070465088 0.13435284793376923
vn 0.47391533851623535 -0.8805657625198364 0.002858817810192704
vn 0.831190824508667 0.46611663699150085 -0.3030792772769928
vn 0.6952123045921326 0.7024495601654053 0.15246132016181946
vn 0.6883194446563721 -0.7049232721328735 0.17117097973823547
vn -0.6649953722953796 0.7090056538581848 -0.23471727967262268
vn -0.2824118733406067 -0.6430044174194336 -0.7118910551071167
vn -0.6331855654716492 -0.6973736882209778 -0.3357766568660736
vn -0.4623149633407593 0.4740682542324066 -0.7493491768836975
vn -0.6386071443557739 -0.7044482231140137 -0.30973151326179504
vn -0.6318984627723694 0.7018060684204102 -0.3288959860801697
vn -0.6831699013710022 0.7068359851837158 -0.1834714561700821
vn -0.6500273942947388 0.7074037790298462 -0.2775684595108032
vn 0.4362194538116455 0.892792820930481 0.11239892989397049
vn 0.4362194538116455 0.892792820930481 0.11239892989397049
vn 0.6507987976074219 0.7067197561264038 0.2775033712387085
vn -0.6831699013710022 0.7068359851837158 -0.1834714561700821
vn -0.6500273942947388 0.7074037790298462 -0.2775684595108032
vn -0.8166618943214417 0.5135517120361328 0.26330211758613586
vn 0.4617411494255066 0.5065069198608398 0.7281798124313354
vn 0.4362194538116455 0.892792820930481 0.11239892989397049
vn -0.8166618943214417 0.5135517120361328 0.26330211758613586
vn -0.6830881237983704 -0.6005210280418396 0.41565021872520447
vn 0.2637706995010376 -0.5981005430221558 0.7567699551582336
vn 0.4617411494255066 0.5065069198608398 0.7281798124313354
vn -0.6830881237983704 -0.6005210280418396 0.41565021872520447
vn -0.7179295420646667 -0.6894223690032959 -0.0963016152381897
vn 0.35175031423568726 -0.8689717054367065 0.34808024764060974
vn 0.2637706995010376 -0.5981005430221558 0.7567699551582336
vn -0.7179295420646667 -0.6894223690032959 -0.0963016152381897
vn -0.7059357166290283 -0.6981781125068665 -0.11917250603437424
vn 0.6284327507019043 -0.698993444442749 0.3412923216819763
vn 0.6284327507019043 -0.698993444442749 0.3412923216819763
vn 0.35175031423568726 -0.8689717054367065 0.34808024764060974
vn -0.7179295420646667 -0.6894223690032959 -0.0963016152381897
vn -0.9807996153831482 0.1400696337223053 0.13569308817386627
vn -0.32662373781204224 0.11463708430528641 0.9381765723228455
vn -0.3163077235221863 -0.3195575177669525 0.8932146430015564
vn -0.9517766237258911 -0.2743368148803711 0.1373337060213089
vn -0.9200265407562256 -0.21772903203964233 -0.32579943537712097
vn -0.6529104709625244 -0.23551435768604279 -0.7198895215988159
vn -0.6580796837806702 0.14761961996555328 -0.7383356690406799
vn 0.8901497721672058 0.38961929082870483 -0.2362840324640274
vn 0.2946237027645111 0.4409770965576172 -0.8477830290794373
vn 0.3229302763938904 0.1589258313179016 -0.9329836964607239
vn 0.9748942255973816 0.16166651248931885 -0.15311816334724426
vn -0.5954842567443848 0.4209901690483093 -0.6842264533042908
vn -0.28323978185653687 0.4882076382637024 0.8254868388175964
vn 0.5369805097579956 0.4131634533405304 0.7354915738105774
vn 0.6752176880836487 0.12876452505588531 0.7262924909591675
vn -0.8845190405845642 0.44471630454063416 0.1409023404121399
vn 0.5495498776435852 0.10997376590967178 -0.8281912207603455
vn 0.9878026843070984 0.10735995322465897 -0.11278156191110611
vn -0.6724729537963867 0.020283039659261703 -0.7398437261581421
vn -0.0941135585308075 0.14742977917194366 0.9845847487449646
vn 0.6958951950073242 0.12436109036207199 0.7072935700416565
vn -0.9877327084541321 0.038964636623859406 0.15121451020240784
vn 0.9604488611221313 -0.23551258444786072 -0.14856597781181335
vn -0.05814870074391365 0.9980955719947815 -0.020591599866747856
vn -0.053140006959438324 0.9985519647598267 0.008372713811695576
vn -0.05814870074391365 0.9980955719947815 -0.020591599866747856
vn -0.8603508472442627 0.4086253046989441 -0.3046666979789734
vn -0.053140006959438324 0.9985519647598267 0.008372713811695576
vn -0.9200265407562256 -0.21772903203964233 -0.32579943537712097
vn -0.9517766237258911 -0.2743368148803711 0.1373337060213089
vn -0.8754934072494507 0.4659135937690735 0.12820208072662354
vn -0.5997064709663391 0.46591490507125854 -0.6505962014198303
vn -0.6529104709625244 -0.23551435768604279 -0.7198895215988159
vn -0.036028385162353516 0.9985520243644714 -0.0399479866027832
vn 0.0531412772834301 0.9985519051551819 -0.008373026736080647
vn 0.016780490055680275 0.9987358450889587 -0.047383178025484085
vn 0.016780490055680275 0.9987358450889587 -0.047383178025484085
vn -0.036028385162353516 0.9985520243644714 -0.0399479866027832
vn -0.016779165714979172 0.9987359642982483 0.047381266951560974
vn 0.036028217524290085 0.9985520243644714 0.039947353303432465
vn -0.053140006959438324 0.9985519647598267 0.008372713811695576
vn -0.016779165714979172 0.9987359642982483 0.047381266951560974
vn -0.036028385162353516 0.9985520243644714 -0.0399479866027832
vn 0.0531412772834301 0.9985519051551819 -0.008373026736080647
vn 0.3241991400718689 -0.23823103308677673 -0.9155003428459167
vt 0.9685990214347839 0.2113526463508606
vt 0.8220000267028809 0.42995166778564453
vt 0.9830917716026306 0.47101449966430664
vt 0.9951691031455994 0.016908228397369385
vt 0.766183614730835 0.011922717094421387
vt 0.7669082283973694 0.19927537441253662
vt 0.9685990214347839 0.2113526463508606
vt 0.8220000267028809 0.42995166778564453
vt 0.7669082283973694 0.19927537441253662
vt 0.9830917716026306 0.47101449966430664
vt 0.766183614730835 0.011922717094421387
vt 0.9951691031455994 0.016908228397369385
vt 0 0
vt 0.5150556564331055 0
vt 1 1
vt 0.49000000953674316 0.5
vt 0.49000000953674316 0.44999998807907104
vt 0.375 0.5
vt 0.49000000953674316 0
vt 0.375 0
vt 0.375 0.44999998807907104
vt 0.875 0.5
vt 0.75 1
vt 0.625 0.5
vt 0.375 0.44999998807907104
vt 0.375 0
vt 0.375 0.5
vt 0 0.44999998807907104
vt 0 0.5
vt 0 0.44999998807907104
vt 0 0.5
vt 0 0
vt 0 0
vt 0.5 0.5
vt 0.625 1
vt 0.5 1
vt 1 0.5
vt 1 1
vt 0.1884058117866516 0.06521743535995483
vt 0 0.06521743535995483
vt 0 0.00724637508392334
vt 0.1884058117866516 0.06521743535995483
vt 0 0.06521743535995483
vt 0 0.00724637508392334
vt 0.1884058117866516 0.06521743535995483
vt 0 0.06521743535995483
vt 0 0.00724637508392334
vt 0.1884058117866516 0.00724637508392334
vt 0.1884058117866516 0.06521743535995483
vt 0 0.06521743535995483
vt 0 0.00724637508392334
vt 0.1884058117866516 0.00724637508392334
vt 0.1884058117866516 0.06521743535995483
vt 0 0.06521743535995483
vt 0 0.00724637508392334
vt 0.1884058117866516 0.00724637508392334
vt 0 0.00724637508392334
vt 0.1884058117866516 0.00724637508392334
vt 0.1884058117866516 0.06521743535995483
vt 0 0.00724637508392334
vt 0.1884058117866516 0.00724637508392334
vt 0.1884058117866516 0.06521743535995483
vt 0.8220000267028809 0.42995166778564453
vt 0.9685990214347839 0.2113526463508606
vt 0.7669082283973694 0.19927537441253662
vt 0.9830917716026306 0.47101449966430664
vt 0.9951691031455994 0.016908228397369385
vt 0.766183614730835 0.011922717094421387
vt 0.9685990214347839 0.2113526463508606
vt 0.8220000267028809 0.42995166778564453
vt 0.7669082283973694 0.19927537441253662
vt 0.9830917716026306 0.47101449966430664
vt 0.766183614730835 0.011922717094421387
vt 0.9951691031455994 0.016908228397369385
vt 0.1884058117866516 0.06521743535995483
vt 0 0.06521743535995483
vt 0 0.00724637508392334
vt 0.1884058117866516 0.06521743535995483
vt 0 0.06521743535995483
vt 0 0.00724637508392334
vt 0.1884058117866516 0.06521743535995483
vt 0 0.06521743535995483
vt 0 0.00724637508392334
vt 0.1884058117866516 0.00724637508392334
vt 0.1884058117866516 0.06521743535995483
vt 0 0.06521743535995483
vt 0 0.00724637508392334
vt 0.1884058117866516 0.00724637508392334
vt 0.1884058117866516 0.06521743535995483
vt 0 0.06521743535995483
vt 0 0.00724637508392334
vt 0.1884058117866516 0.00724637508392334
vt 0 0.00724637508392334
vt 0.1884058117866516 0.00724637508392334
vt 0.1884058117866516 0.06521743535995483
vt 0 0.00724637508392334
vt 0.1884058117866516 0.00724637508392334
vt 0.1884058117866516 0.06521743535995483
vt 0.875 0.5
vt 1 0.5
vt 1 1
vt 0.875 1
vt 0.75 1
vt 0.625 1
vt 0.625 0.5
vt 0.625 0.6499999761581421
vt 0.5 0.6499999761581421
vt 0.5 0.5
vt 0.625 0.5
vt 0.625 0.6499999761581421
vt 1 0.6499999761581421
vt 0.875 0.6499999761581421
vt 0.875 0.5
vt 0.875 0.6499999761581421
vt 0.5 1
vt 0.625 1
vt 0.625 1
vt 1 1
vt 0.875 1
vt 0.875 1
vt 0.875 1
vt 0.4985380172729492 0
vt 1 0
vt 0.49000000953674316 0.5
vt 0.49000000953674316 0.44999998807907104
vt 0.375 0.5
vt 0.49000000953674316 0
vt 0.375 0
vt 0.375 0.44999998807907104
vt 0.375 0.44999998807907104
vt 0.375 0
vt 0.375 0.5
vt 0 0
vt 1 0
vt 0 0
vt 1 0
vt 0 0
vt 1 0
vt 0 0
vt 1 0
vt 0 0
vt 1 0
vt 0.5 1
g shamanMesa020
s 1
f 1/1/1 2/2/2 3/3/3
f 1/1/1 4/4/4 5/5/5
f 5/5/5 6/6/6 1/1/1
f 7/7/7 8/8/8 9/9/9
f 8/8/8 7/7/7 10/10/10
f 7/7/7 9/9/9 11/11/11
f 11/11/11 12/12/12 7/7/7
f 13/13/13 14/14/14 15/15/15
f 16/16/16 17/17/17 18/18/18
f 19/19/19 20/20/20 21/21/21
f 22/22/22 23/23/23 24/24/24
f 17/17/17 25/25/25 26/26/26
f 27/27/27 17/17/17 16/16/16
f 28/28/28 25/25/25 27/27/27
f 27/27/27 29/29/29 28/28/28
f 21/21/21 30/30/30 31/31/31
f 31/31/31 18/18/18 21/21/21
f 17/17/17 21/21/21 18/18/18
f 17/17/17 27/27/27 25/25/25
f 32/32/32 26/26/26 25/25/25
f 25/25/25 28/28/28 32/32/32
f 20/20/20 33/33/33 30/30/30
f 30/30/30 21/21/21 20/20/20
f 17/17/17 19/19/19 21/21/21
f 19/19/19 17/17/17 26/26/26
f 34/34/34 24/24/24 35/35/35
f 35/35/35 36/36/36 34/34/34
f 22/22/22 37/37/37 38/38/38
f 39/39/39 40/40/40 41/41/41
f 42/42/42 43/43/43 44/44/44
f 45/45/45 46/46/46 47/47/47
f 47/47/47 48/48/48 45/45/45
f 49/49/49 50/50/50 51/51/51
f 51/51/51 52/52/52 49/49/49
f 53/53/53 54/54/54 55/55/55
f 55/55/55 56/56/56 53/53/53
f 57/57/57 58/58/58 59/59/59
f 60/60/60 61/61/61 62/62/62
f 63/63/63 64/64/64 65/65/65
f 64/64/64 63/63/63 66/66/66
f 64/64/64 67/67/67 68/68/68
f 68/68/68 65/65/65 64/64/64
f 69/69/69 70/70/70 71/71/71
f 70/70/70 69/69/69 72/72/72
f 69/69/69 71/71/71 73/73/73
f 73/73/73 74/74/74 69/69/69
f 75/75/75 76/76/76 77/77/77
f 78/78/78 79/79/79 80/80/80
f 81/81/81 82/82/82 83/83/83
f 83/83/83 84/84/84 81/81/81
f 85/85/85 86/86/86 87/87/87
f 87/87/87 88/88/88 85/85/85
f 89/89/89 90/90/90 91/91/91
f 91/91/91 92/92/92 89/89/89
f 93/93/93 94/94/94 95/95/95
f 96/96/96 97/97/97 98/98/98
f 2/2/2 1/1/1 6/6/6
f 99/99/99 100/100/100 101/101/101
f 101/101/101 102/102/102 99/99/99
f 103/103/103 99/99/99 102/102/102
f 103/103/103 104/104/104 105/105/105
f 106/106/106 107/107/107 108/108/108
f 108/108/108 109/109/109 106/106/106
f 107/107/107 110/110/110 105/105/105
f 105/105/105 108/108/108 107/107/107
f 111/111/111 112/112/112 113/113/113
f 113/113/113 100/100/100 111/111/111
f 114/114/114 111/111/111 100/100/100
f 100/100/100 99/99/99 114/114/114
f 105/105/105 110/110/110 99/99/99
f 110/110/110 114/114/114 99/99/99
f 112/112/112 106/106/106 109/109/109
f 109/109/109 113/113/113 112/112/112
f 115/115/115 106/106/106 116/116/116
f 115/115/115 107/107/107 106/106/106
f 110/110/110 115/115/115 117/117/117
f 110/110/110 107/107/107 115/115/115
f 118/118/118 119/119/119 112/112/112
f 118/118/118 112/112/112 111/111/111
f 114/114/114 120/120/120 118/118/118
f 114/114/114 118/118/118 111/111/111
f 117/117/117 114/114/114 110/110/110
f 117/117/117 120/120/120 114/114/114
f 119/119/119 116/116/116 106/106/106
f 119/119/119 106/106/106 112/112/112
f 38/38/38 121/121/121 22/22/22
f 23/23/23 22/22/22 121/121/121
f 23/23/23 35/35/35 24/24/24
f 122/122/122 123/123/123 15/15/15
f 124/124/124 125/125/125 126/126/126
f 127/127/127 128/128/128 129/129/129
f 99/99/99 103/103/103 105/105/105
f 125/125/125 130/130/130 131/131/131
f 132/132/132 125/125/125 124/124/124
f 133/133/133 134/134/134 15/15/15
f 135/135/135 136/136/136 15/15/15
f 137/137/137 138/138/138 15/15/15
f 139/139/139 140/140/140 15/15/15
f 141/141/141 122/122/122 15/15/15
f 14/14/14 142/142/142 15/15/15
f 30/30/30 130/130/130 132/132/132
f 132/132/132 31/31/31 30/30/30
f 129/129/129 28/28/28 29/29/29
f 29/29/29 126/126/126 129/129/129
f 125/125/125 129/129/129 126/126/126
f 125/125/125 132/132/132 130/130/130
f 33/33/33 131/131/131 130/130/130
f 130/130/130 30/30/30 33/33/33
f 128/128/128 32/32/32 28/28/28
f 28/28/28 129/129/129 128/128/128
f 125/125/125 127/127/127 129/129/129
f 127/127/127 125/125/125 131/131/131
f 108/108/108 105/105/105 104/104/104
f 104/104/104 143/143/143 108/108/108
