# Exported using wow.export v0.2.19
o undeadcave_CaveEntrance01.obj
v -0.363609254360199 1.7984905242919922 0.10410098731517792
v 0.216125026345253 2.4171013832092285 3.785848379135132
v 3.444959878921509 2.777146577835083 1.639377236366272
v 2.0908877849578857 2.2069504261016846 -1.3318696022033691
v -0.8165795803070068 1.397011399269104 -2.0978622436523438
v -2.2268288135528564 0.7603636980056763 -2.2772743701934814
v -1.8315982818603516 0.7027977705001831 0.5788882374763489
v -1.2656136751174927 1.050271987915039 5.354482173919678
v 1.2729549407958984 1.8368903398513794 -3.1266632080078125
v -10.10804557800293 -1.0069407224655151 -0.6012755632400513
v -8.444477081298828 -0.9716477990150452 2.27514910697937
v -5.8922438621521 -0.2762863337993622 1.5077675580978394
v -6.582184314727783 -0.38699406385421753 -1.8067188262939453
v -8.061545372009277 -0.018224386498332024 6.105813503265381
v -5.340949058532715 0.6294939517974854 6.288557052612305
v -1.8315982818603516 0.7027977705001831 0.5788882374763489
v -2.2268288135528564 0.7603636980056763 -2.2772743701934814
v -1.2656136751174927 1.050271987915039 5.354482173919678
v -0.4194681644439697 7.756711483001709 -3.3069629669189453
v -0.9606802463531494 4.158212184906006 -3.232330083847046
v 0.821313202381134 4.381997108459473 -4.11769437789917
v -1.6295496225357056 -11.046184539794922 0.19410260021686554
v -1.0634307861328125 -10.416482925415039 5.80799674987793
v -4.513315677642822 -8.240768432617188 5.592097282409668
v -4.908748149871826 -8.802624702453613 0.3958757817745209
v -4.099459171295166 -4.814227104187012 8.876692771911621
v -6.222567558288574 -2.5699119567871094 8.476962089538574
v -8.994455337524414 -4.173910617828369 8.030712127685547
v -6.735339641571045 -5.541747093200684 8.31523609161377
v -9.610944747924805 -1.5812889337539673 -6.410652160644531
v -4.036104202270508 -5.783677577972412 -9.330246925354004
v -7.936736106872559 -6.376917362213135 -4.639301300048828
v -10.582517623901367 -3.7123024463653564 -3.8137168884277344
v -2.4552416801452637 -11.193929672241211 -3.135483741760254
v -5.4361701011657715 -8.93730640411377 -2.2322838306427
v -6.735339641571045 -5.541747093200684 8.31523609161377
v -7.273804664611816 -6.1985650062561035 0.23152324557304382
v -4.908748149871826 -8.802624702453613 0.3958757817745209
v -4.513315677642822 -8.240768432617188 5.592097282409668
v -7.936736106872559 -6.376917362213135 -4.639301300048828
v -5.4361701011657715 -8.93730640411377 -2.2322838306427
v 6.241518497467041 -5.609499454498291 7.557913303375244
v -1.0634307861328125 -10.416482925415039 5.80799674987793
v 6.0202789306640625 -9.454768180847168 5.21040153503418
v 5.1514434814453125 -6.83121395111084 -5.928825378417969
v 4.940272808074951 -10.583612442016602 -4.787761211395264
v -2.4552416801452637 -11.193929672241211 -3.135483741760254
v -4.513315677642822 -8.240768432617188 5.592097282409668
v -2.345364570617676 3.3086674213409424 -3.7487900257110596
v -3.80558180809021 1.8517684936523438 -7.261667251586914
v -5.706564426422119 0.4414428174495697 -6.7338762283325195
v -5.01879358291626 0.8258758187294006 -3.1330924034118652
v 5.527758598327637 -10.100408554077148 -0.3019407391548157
v 6.0202789306640625 -9.454768180847168 5.21040153503418
v 0.8098979592323303 2.188105821609497 -8.997142791748047
v -3.4300856590270996 -1.5184400081634521 -9.468235969543457
v 4.472659587860107 1.0334566831588745 -7.596445083618164
v 5.1514434814453125 -6.83121395111084 -5.928825378417969
v -4.036104202270508 -5.783677577972412 -9.330246925354004
v -3.4300856590270996 -1.5184400081634521 -9.468235969543457
v 6.241518497467041 -5.609499454498291 7.557913303375244
v 6.474062442779541 2.791635036468506 12.144109725952148
v -1.2406935691833496 1.01641047000885 11.133984565734863
v -4.099459171295166 -4.814227104187012 8.876692771911621
v 4.940272808074951 -10.583612442016602 -4.787761211395264
v -5.340949058532715 0.6294939517974854 6.288557052612305
v -8.061545372009277 -0.018224386498332024 6.105813503265381
v 0.7940751314163208 7.698874473571777 -4.17745304107666
v 1.095033049583435 9.675029754638672 -3.517054319381714
v 0.006983271334320307 9.900653839111328 -2.4902381896972656
v -10.411420822143555 -1.0436922311782837 -3.6783549785614014
v -8.211180686950684 -0.37919893860816956 -4.238697052001953
v 0.7678089737892151 8.53354263305664 -7.678587436676025
v 0.8098979592323303 2.188105821609497 -8.997142791748047
v -2.0294084548950195 3.176906108856201 -6.758023738861084
v 4.463295936584473 7.963225364685059 -7.023037910461426
v 4.472659587860107 1.0334566831588745 -7.596445083618164
v 0.8098979592323303 2.188105821609497 -8.997142791748047
v -3.4300856590270996 -1.5184400081634521 -9.468235969543457
v -3.80558180809021 1.8517684936523438 -7.261667251586914
v -2.0294084548950195 3.176906108856201 -6.758023738861084
v -3.80558180809021 1.8517684936523438 -7.261667251586914
v -2.345364570617676 3.3086674213409424 -3.7487900257110596
v -1.5221911668777466 7.976278781890869 -3.8455958366394043
v -2.196810483932495 8.39806079864502 -6.302299499511719
v 0.7678089737892151 8.53354263305664 -7.678587436676025
v 6.351912498474121 18.331823348999023 11.097447395324707
v 6.904127597808838 20.4761905670166 9.530133247375488
v 0.03687410056591034 17.65842056274414 7.2998809814453125
v 4.606966495513916 13.771794319152832 -6.251155853271484
v 4.463295936584473 7.963225364685059 -7.023037910461426
v 0.7678089737892151 8.53354263305664 -7.678587436676025
v -1.2406935691833496 1.01641047000885 11.133984565734863
v -0.4675286114215851 5.0763959884643555 10.513981819152832
v -4.0604329109191895 0.5442588925361633 10.167187690734863
v -2.817068576812744 5.9516282081604 8.553150177001953
v 6.474062442779541 2.791635036468506 12.144109725952148
v 6.390777587890625 12.497444152832031 12.174826622009277
v -0.4675286114215851 5.0763959884643555 10.513981819152832
v -6.582184314727783 -0.38699406385421753 -1.8067188262939453
v -8.211180686950684 -0.37919893860816956 -4.238697052001953
v -6.582184314727783 -0.38699406385421753 -1.8067188262939453
v -10.10804557800293 -1.0069407224655151 -0.6012755632400513
v 1.4706398248672485 21.975317001342773 2.372012138366699
v 6.224752426147461 22.65744972229004 1.5275089740753174
v 0.9508214592933655 20.400611877441406 -2.7017982006073
v -5.4361701011657715 -8.93730640411377 -2.2322838306427
v -0.08158762007951736 13.47815227508545 -0.20858058333396912
v 0.10937783122062683 15.175371170043945 5.13516092300415
v -1.0486398935317993 15.66523265838623 3.696074962615967
v -1.3579260110855103 15.9900484085083 0.23401525616645813
v -0.9296743869781494 10.757186889648438 -2.786224603652954
v -2.1675643920898438 13.492141723632812 -2.5763909816741943
v -3.43825364112854 12.402567863464355 -5.754236221313477
v -0.9296743869781494 10.757186889648438 -2.786224603652954
v -2.1675643920898438 13.492141723632812 -2.5763909816741943
v -2.8200509548187256 13.806632041931152 -5.857725620269775
v 0.10937783122062683 15.175371170043945 5.13516092300415
v -0.772522509098053 19.245162963867188 4.297055244445801
v -1.0486398935317993 15.66523265838623 3.696074962615967
v 0.6729173064231873 14.607818603515625 -6.13906192779541
v 5.921780586242676 20.50780487060547 -2.2788596153259277
v 6.497665882110596 23.114919662475586 4.956225395202637
v 6.497665882110596 23.114919662475586 4.956225395202637
v 5.921780586242676 20.50780487060547 -2.2788596153259277
v 4.606966495513916 13.771794319152832 -6.251155853271484
v 0.6729173064231873 14.607818603515625 -6.13906192779541
v 0.9508214592933655 20.400611877441406 -2.7017982006073
v 1.14849054813385 9.048843383789062 5.215657711029053
v 0.6969643235206604 5.3728928565979 5.256987571716309
v -0.5772850513458252 4.884230136871338 7.2626953125
v 0.7061263918876648 11.998382568359375 -0.5029985308647156
v 1.1350563764572144 12.087578773498535 2.6876325607299805
v 3.6677348613739014 10.926640510559082 2.128237724304199
v 3.9654438495635986 8.889883041381836 2.7814953327178955
v 1.2776457071304321 11.25853443145752 4.4202561378479
v 0.4138948321342468 12.518495559692383 6.17737340927124
v 0.10937783122062683 15.175371170043945 5.13516092300415
v 1.1350563764572144 12.087578773498535 2.6876325607299805
v -9.93566608428955 -4.562346458435059 1.3135946989059448
v -8.994455337524414 -4.173910617828369 8.030712127685547
v -8.061545372009277 -0.018224386498332024 6.105813503265381
v -8.444477081298828 -0.9716477990150452 2.27514910697937
v -2.196810483932495 8.39806079864502 -6.302299499511719
v -1.5221911668777466 7.976278781890869 -3.8455958366394043
v -9.610944747924805 -1.5812889337539673 -6.410652160644531
v -6.222567558288574 -2.5699119567871094 8.476962089538574
v -4.0604329109191895 0.5442588925361633 10.167187690734863
v -5.340949058532715 0.6294939517974854 6.288557052612305
v -0.4109106659889221 10.811535835266113 9.616460800170898
v 0.13786479830741882 14.93885326385498 8.130785942077637
v 0.4138948321342468 12.518495559692383 6.17737340927124
v 0.1280176192522049 9.652303695678711 7.209090232849121
v 1.8436883687973022 11.608590126037598 -1.8742716312408447
v 3.024456739425659 11.690804481506348 0.7166922092437744
v 3.024456739425659 11.690804481506348 0.7166922092437744
v 3.9795172214508057 5.501615047454834 2.812366247177124
v -1.5221911668777466 7.976278781890869 -3.8455958366394043
v -2.345364570617676 3.3086674213409424 -3.7487900257110596
v -2.2268288135528564 0.7603636980056763 -2.2772743701934814
v -0.8165795803070068 1.397011399269104 -2.0978622436523438
v -1.2656136751174927 1.050271987915039 5.354482173919678
v 0.216125026345253 2.4171013832092285 3.785848379135132
v 0.1280176192522049 9.652303695678711 7.209090232849121
v 6.390777587890625 12.497444152832031 12.174826622009277
v -2.817068576812744 5.9516282081604 8.553150177001953
v -0.4109106659889221 10.811535835266113 9.616460800170898
v 1.4706398248672485 21.975317001342773 2.372012138366699
v 0.9508214592933655 20.400611877441406 -2.7017982006073
v -1.1741410493850708 18.506210327148438 -1.2563011646270752
v -0.772522509098053 19.245162963867188 4.297055244445801
v -2.8200509548187256 13.806632041931152 -5.857725620269775
v -10.582517623901367 -3.7123024463653564 -3.8137168884277344
v 0.13786479830741882 14.93885326385498 8.130785942077637
v 3.444959878921509 2.777146577835083 1.639377236366272
v -5.01879358291626 0.8258758187294006 -3.1330924034118652
v -6.582184314727783 -0.38699406385421753 -1.8067188262939453
v -0.5772850513458252 4.884230136871338 7.2626953125
v -1.2656136751174927 1.050271987915039 5.354482173919678
v 1.2729549407958984 1.8368903398513794 -3.1266632080078125
v 0.1280176192522049 9.652303695678711 7.209090232849121
v -1.3579260110855103 15.9900484085083 0.23401525616645813
v -1.0486398935317993 15.66523265838623 3.696074962615967
v -2.1675643920898438 13.492141723632812 -2.5763909816741943
v -10.10804557800293 -1.0069407224655151 -0.6012755632400513
v 0.4138948321342468 12.518495559692383 6.17737340927124
v -4.036104202270508 -5.783677577972412 -9.330246925354004
v 6.351912498474121 18.331823348999023 11.097447395324707
vn -0.4535430073738098 0.8903189897537231 -0.04038356989622116
vn -0.6211346983909607 0.7286652326583862 -0.28851118683815
vn -0.36193978786468506 0.7850134968757629 -0.5027458071708679
vn -0.21402719616889954 0.9727521538734436 -0.08913788199424744
vn -0.2780957520008087 0.7651321887969971 0.5807198286056519
vn -0.37188878655433655 0.871404230594635 0.3199272155761719
vn -0.47819530963897705 0.8780413866043091 0.0193011537194252
vn -0.4842550754547119 0.8073808550834656 -0.3370952010154724
vn 0.06444504857063293 0.8635568618774414 0.5001164078712463
vn -0.6949225068092346 0.6816020607948303 0.22913174331188202
vn -0.5851987600326538 0.808914065361023 0.05657215043902397
vn -0.22942817211151123 0.9715231657028198 -0.05920695886015892
vn -0.2948647141456604 0.9403659105300903 0.16960780322551727
vn -0.6610715389251709 0.6552389860153198 0.3655765950679779
vn -0.4213731586933136 0.9023573994636536 -0.09053060412406921
vn -0.47819530963897705 0.8780413866043091 0.0193011537194252
vn -0.37188878655433655 0.871404230594635 0.3199272155761719
vn -0.4842550754547119 0.8073808550834656 -0.3370952010154724
vn 0.15522032976150513 -0.13156995177268982 0.9790791869163513
vn -0.026152750477194786 0.20250576734542847 0.9789317846298218
vn 0.3614027500152588 0.16821441054344177 0.9171106815338135
vn -0.10900910198688507 -0.989611029624939 0.09373929351568222
vn -0.13616691529750824 -0.7786471247673035 0.6125089526176453
vn -0.44058412313461304 -0.7726317644119263 0.4570840001106262
vn -0.6517937779426575 -0.7491499185562134 0.11806470155715942
vn -0.1996472179889679 -0.3330182135105133 0.9215421080589294
vn -0.5523108839988708 0.29463768005371094 0.7798342108726501
vn -0.596720814704895 -0.05318164825439453 0.8006846904754639
vn -0.42631855607032776 -0.6967979669570923 0.5768232941627502
vn -0.6680727601051331 0.416614830493927 -0.6165313124656677
vn -0.13213317096233368 -0.40290674567222595 -0.9056527614593506
vn -0.6604598760604858 -0.7270968556404114 -0.18741120398044586
vn -0.9279287457466125 -0.2963983118534088 -0.22604496777057648
vn -0.36751437187194824 -0.8970638513565063 -0.2453766018152237
vn -0.664172887802124 -0.7464414834976196 0.041224367916584015
vn -0.42631855607032776 -0.6967979669570923 0.5768232941627502
vn -0.6383965015411377 -0.7625828981399536 0.1044856458902359
vn -0.6517937779426575 -0.7491499185562134 0.11806470155715942
vn -0.44058412313461304 -0.7726317644119263 0.4570840001106262
vn -0.6604598760604858 -0.7270968556404114 -0.18741120398044586
vn -0.664172887802124 -0.7464414834976196 0.041224367916584015
vn 0.07467786967754364 -0.46733400225639343 0.8809211850166321
vn -0.13616691529750824 -0.7786471247673035 0.6125089526176453
vn 0.15783551335334778 -0.836757242679596 0.5243331789970398
vn 0.3144357204437256 -0.23150689899921417 -0.9206165075302124
vn 0.1411338597536087 -0.804643452167511 -0.5767409801483154
vn -0.36751437187194824 -0.8970638513565063 -0.2453766018152237
vn -0.44058412313461304 -0.7726317644119263 0.4570840001106262
vn -0.701045572757721 0.5181437134742737 0.4899613857269287
vn -0.47252607345581055 0.6328239440917969 -0.6133946776390076
vn -0.5348608493804932 0.8111875653266907 -0.23642878234386444
vn -0.46378853917121887 0.7843666672706604 0.4119091033935547
vn 0.14231368899345398 -0.9844903349876404 0.102594293653965
vn 0.15783551335334778 -0.836757242679596 0.5243331789970398
vn -0.06605412811040878 0.2610757350921631 -0.9630557298660278
vn -0.21114127337932587 0.23539859056472778 -0.9486868977546692
vn 0.31968551874160767 -0.05340635031461716 -0.9460173845291138
vn 0.3144357204437256 -0.23150689899921417 -0.9206165075302124
vn -0.13213317096233368 -0.40290674567222595 -0.9056527614593506
vn -0.21114127337932587 0.23539859056472778 -0.9486868977546692
vn 0.07467786967754364 -0.46733400225639343 0.8809211850166321
vn -0.1407419741153717 -0.10612878203392029 0.9843416213989258
vn -0.15209053456783295 -0.15086697041988373 0.976784348487854
vn -0.1996472179889679 -0.3330182135105133 0.9215421080589294
vn 0.1411338597536087 -0.804643452167511 -0.5767409801483154
vn -0.4213731586933136 0.9023573994636536 -0.09053060412406921
vn -0.6610715389251709 0.6552389860153198 0.3655765950679779
vn 0.353031724691391 -0.2155884951353073 0.9104340672492981
vn 0.3343285024166107 -0.4597870409488678 0.8226909041404724
vn 0.11024896800518036 -0.5009604692459106 0.8584193587303162
vn -0.671147346496582 0.7375553250312805 -0.07465507835149765
vn -0.3588331639766693 0.9281423091888428 -0.09894760698080063
vn -0.2070428878068924 0.1762869954109192 -0.9623181223869324
vn -0.06605412811040878 0.2610757350921631 -0.9630557298660278
vn -0.7904968857765198 0.3767048418521881 -0.4829162657260895
vn 0.290848970413208 0.13955961167812347 -0.9465357661247253
vn 0.31968551874160767 -0.05340635031461716 -0.9460173845291138
vn -0.06605412811040878 0.2610757350921631 -0.9630557298660278
vn -0.21114127337932587 0.23539859056472778 -0.9486868977546692
vn -0.47252607345581055 0.6328239440917969 -0.6133946776390076
vn -0.7904968857765198 0.3767048418521881 -0.4829162657260895
vn -0.47252607345581055 0.6328239440917969 -0.6133946776390076
vn -0.701045572757721 0.5181437134742737 0.4899613857269287
vn -0.8523816466331482 -0.0768699124455452 0.5172393321990967
vn -0.9693939089775085 -0.15696416795253754 -0.18877950310707092
vn -0.2070428878068924 0.1762869954109192 -0.9623181223869324
vn -0.5020393133163452 0.3361161947250366 0.7968578338623047
vn -0.4559052288532257 0.682799756526947 0.5709070563316345
vn -0.8011366724967957 0.3161402940750122 0.508168637752533
vn 0.1005844995379448 0.292984277009964 -0.9508117437362671
vn 0.290848970413208 0.13955961167812347 -0.9465357661247253
vn -0.2070428878068924 0.1762869954109192 -0.9623181223869324
vn -0.15209053456783295 -0.15086697041988373 0.976784348487854
vn -0.39033350348472595 0.16446346044540405 0.9058650732040405
vn -0.5094959735870361 0.09655169397592545 0.8550389409065247
vn -0.8947703838348389 0.4463389813899994 0.012938808649778366
vn -0.1407419741153717 -0.10612878203392029 0.9843416213989258
vn -0.3825205862522125 0.16567230224609375 0.9089723229408264
vn -0.39033350348472595 0.16446346044540405 0.9058650732040405
vn -0.2948647141456604 0.9403659105300903 0.16960780322551727
vn -0.3588331639766693 0.9281423091888428 -0.09894760698080063
vn -0.2948647141456604 0.9403659105300903 0.16960780322551727
vn -0.6949225068092346 0.6816020607948303 0.22913174331188202
vn -0.4973490536212921 0.8675206899642944 -0.007197797764092684
vn -0.10938253998756409 0.947583794593811 -0.30020055174827576
vn -0.32552507519721985 0.7685856819152832 -0.5507354140281677
vn -0.664172887802124 -0.7464414834976196 0.041224367916584015
vn -0.7776535153388977 -0.5536835193634033 0.2978079617023468
vn -0.9315746426582336 -0.3149723708629608 0.18155182898044586
vn -0.9054343104362488 -0.3226679265499115 0.27581536769866943
vn -0.9229645729064941 -0.2195921391248703 0.31609442830085754
vn -0.6974025964736938 -0.3101508617401123 0.6460928916931152
vn -0.9201954007148743 -0.0623653344810009 0.3864595890045166
vn -0.9483372569084167 -0.04311055690050125 -0.31432145833969116
vn -0.6974025964736938 -0.3101508617401123 0.6460928916931152
vn -0.9201954007148743 -0.0623653344810009 0.3864595890045166
vn -0.7703083157539368 0.42978739738464355 -0.4710710048675537
vn -0.9315746426582336 -0.3149723708629608 0.18155182898044586
vn -0.909927487373352 0.2904120087623596 0.2961297631263733
vn -0.9054343104362488 -0.3226679265499115 0.27581536769866943
vn -0.0752842128276825 0.2973093092441559 -0.951808512210846
vn 0.05375711992383003 0.707622230052948 -0.7045430541038513
vn -0.32418063282966614 0.9264481663703918 0.19131319224834442
vn -0.32418063282966614 0.9264481663703918 0.19131319224834442
vn 0.05375711992383003 0.707622230052948 -0.7045430541038513
vn 0.1005844995379448 0.292984277009964 -0.9508117437362671
vn -0.0752842128276825 0.2973093092441559 -0.951808512210846
vn -0.32552507519721985 0.7685856819152832 -0.5507354140281677
vn -0.7699663043022156 -0.08965668082237244 -0.6317543983459473
vn -0.7179170250892639 0.20020149648189545 -0.6667191982269287
vn -0.6483226418495178 0.27281972765922546 -0.7108073830604553
vn -0.5380628108978271 -0.7390465140342712 0.40533769130706787
vn -0.6955960392951965 -0.7150754928588867 -0.06937707215547562
vn -0.45115742087364197 -0.5942575931549072 -0.665818989276886
vn -0.5044721364974976 -0.13200592994689941 -0.8532773852348328
vn -0.7512765526771545 -0.5181946158409119 -0.40872713923454285
vn -0.9707381725311279 -0.14812012016773224 -0.189018115401268
vn -0.9315746426582336 -0.3149723708629608 0.18155182898044586
vn -0.6955960392951965 -0.7150754928588867 -0.06937707215547562
vn -0.9774739742279053 -0.13350851833820343 0.16346293687820435
vn -0.596720814704895 -0.05318164825439453 0.8006846904754639
vn -0.6610715389251709 0.6552389860153198 0.3655765950679779
vn -0.5851987600326538 0.808914065361023 0.05657215043902397
vn -0.9693939089775085 -0.15696416795253754 -0.18877950310707092
vn -0.8523816466331482 -0.0768699124455452 0.5172393321990967
vn -0.6680727601051331 0.416614830493927 -0.6165313124656677
vn -0.5523108839988708 0.29463768005371094 0.7798342108726501
vn -0.5094959735870361 0.09655169397592545 0.8550389409065247
vn -0.4213731586933136 0.9023573994636536 -0.09053060412406921
vn -0.8134447932243347 0.3003445863723755 0.4980970323085785
vn -0.8116141557693481 0.1827227920293808 0.5548827052116394
vn -0.9707381725311279 -0.14812012016773224 -0.189018115401268
vn -0.851069450378418 0.1313118189573288 -0.5083679556846619
vn 0.10993719100952148 -0.8913084268569946 0.43986713886260986
vn -0.21536953747272491 -0.9565775990486145 -0.19640593230724335
vn -0.21536953747272491 -0.9565775990486145 -0.19640593230724335
vn -0.48920756578445435 0.2199990153312683 -0.843964695930481
vn -0.8523816466331482 -0.0768699124455452 0.5172393321990967
vn -0.701045572757721 0.5181437134742737 0.4899613857269287
vn -0.37188878655433655 0.871404230594635 0.3199272155761719
vn -0.2780957520008087 0.7651321887969971 0.5807198286056519
vn -0.4842550754547119 0.8073808550834656 -0.3370952010154724
vn -0.6211346983909607 0.7286652326583862 -0.28851118683815
vn -0.851069450378418 0.1313118189573288 -0.5083679556846619
vn -0.3825205862522125 0.16567230224609375 0.9089723229408264
vn -0.8947703838348389 0.4463389813899994 0.012938808649778366
vn -0.8134447932243347 0.3003445863723755 0.4980970323085785
vn -0.4973490536212921 0.8675206899642944 -0.007197797764092684
vn -0.32552507519721985 0.7685856819152832 -0.5507354140281677
vn -0.8898010849952698 0.4536610543727875 -0.0494537428021431
vn -0.909927487373352 0.2904120087623596 0.2961297631263733
vn -0.7703083157539368 0.42978739738464355 -0.4710710048675537
vn -0.9279287457466125 -0.2963983118534088 -0.22604496777057648
vn -0.8116141557693481 0.1827227920293808 0.5548827052116394
vn -0.36193978786468506 0.7850134968757629 -0.5027458071708679
vn -0.46378853917121887 0.7843666672706604 0.4119091033935547
vn -0.2948647141456604 0.9403659105300903 0.16960780322551727
vn -0.6483226418495178 0.27281972765922546 -0.7108073830604553
vn -0.4842550754547119 0.8073808550834656 -0.3370952010154724
vn 0.06444504857063293 0.8635568618774414 0.5001164078712463
vn -0.851069450378418 0.1313118189573288 -0.5083679556846619
vn -0.9229645729064941 -0.2195921391248703 0.31609442830085754
vn -0.9054343104362488 -0.3226679265499115 0.27581536769866943
vn -0.9201954007148743 -0.0623653344810009 0.3864595890045166
vn -0.6949225068092346 0.6816020607948303 0.22913174331188202
vn -0.9707381725311279 -0.14812012016773224 -0.189018115401268
vn -0.13213317096233368 -0.40290674567222595 -0.9056527614593506
vn -0.5020393133163452 0.3361161947250366 0.7968578338623047
vt 0.4000000059604645 0.5
vt 0.4000000059604645 0
vt 1 0
vt 1 0.5
vt 0.4000000059604645 1
vt 0 1
vt 0 0.5
vt 0 0
vt 1 1
vt 0 1
vt 0 0.5
vt 0.5 0.5
vt 0.5 1
vt 0 0
vt 0.5 0
vt 1 0.5
vt 1 1
vt 1 0
vt 0.6600000262260437 0.3999999761581421
vt 0.6600000262260437 0.19999998807907104
vt 1 0.19999998807907104
vt 0.5 0.699999988079071
vt 0 0.699999988079071
vt 0 1
vt 0.5 1
vt 0.25 0.33000004291534424
vt 0.25 0.6600000262260437
vt 0 0.6600000262260437
vt 0 0.33000004291534424
vt 0.75 0.6600000262260437
vt 0.75 0.33000004291534424
vt 1 0.33000004291534424
vt 1 0.6600000262260437
vt 1 0.699999988079071
vt 1 1
vt 1 0.33000004291534424
vt 0.5 0.33000004291534424
vt 0.5 0
vt 1 0
vt 0 0.33000004291534424
vt 0 0
vt 0.5 0.33000004291534424
vt 0.25 0
vt 0.5 0
vt 0.5 0.33000004291534424
vt 0.5 0
vt 0.75 0
vt 0 0
vt 1 1
vt 0.5 1
vt 0.5 0.5
vt 1 0.5
vt 0.5 0.3999999761581421
vt 0 0.3999999761581421
vt 0.34999996423721313 1.4344491958618164
vt 0 0.5
vt 0.5 1
vt 0.5 0.5
vt 1 0.5
vt 1 1
vt 0.9975845813751221 0
vt 0.9975845813751221 0.5
vt 0.5 0.5
vt 0.5 0
vt 1 0.3999999761581421
vt 0.25 1
vt 0 1
vt 1 0.3999999761581421
vt 1 0.6000000238418579
vt 0.6600000262260437 0.6000000238418579
vt 0.8820101618766785 0.8395338654518127
vt 0.75 0.8349176645278931
vt 0.5 1
vt 0.25 1
vt 0.25 0.5
vt 0.5 0
vt 0.8499999642372131 0
vt 0.8499999642372131 0.4344492554664612
vt 0.8499999642372131 -0.5
vt 1 0
vt 1 0.4999999403953552
vt 0 0
vt 0.25 0
vt 0.5 0
vt 0.5 0.5
vt 0.5 0.5
vt 1 1
vt 0.7260347604751587 1
vt 0.5 0.5
vt 0 0.5
vt 0 0
vt 0.2955293655395508 0
vt 0.5 0.5893719792366028
vt 0.2500832974910736 0.5
vt 0.25005796551704407 0.6956521272659302
vt 0.13300000131130219 0.5
vt 0.5 0.5
vt 0.5 1
vt 0.32975703477859497 0.5
vt 0.75 1
vt 0.7572318315505981 0
vt 1 0
vt 1 1
vt 0 1
vt 0.4739014506340027 0.5
vt 1 1
vt 1 0
vt 0.33000001311302185 0.800000011920929
vt 0.33000001311302185 1
vt 0 1
vt 0 0.800000011920929
vt 0.33000001311302185 0.6000000238418579
vt 0 0.6000000238418579
vt 0.5 0.5
vt 1 0.5
vt 1 1
vt 0.5 1
vt 0.5 0
vt 0 0.5
vt 0 0
vt 0 1
vt 1 0.5
vt 0 0.5
vt 0.5 1
vt 0 0.5
vt 1 0.5
vt 1 1
vt 0 1
vt 0.5 0.5
vt 0.5 0.25
vt 1 0.25
vt 0.6600000262260437 0.800000011920929
vt 0.6600000262260437 1
vt 0 0.75
vt 0 0.5
vt 0.5 0.75
vt 1 0.75
vt 1 1
vt 0.5 1
vt 0.5 0.6600000262260437
vt 1 0.6600000262260437
vt 1 1
vt 0.5 1
vt 0.5 0
vt 1 0
vt 0.5 0
vt 0.3659999966621399 0
vt 0.3659999966621399 0.5
vt 0.13300000131130219 0
vt 0.25 0.6000000238418579
vt 0.25 0.8999999761581421
vt 0.10000000149011612 0.8999999761581421
vt 0.10000000149011612 0.6000000238418579
vt 1 0.800000011920929
vt 1 1
vt 0.0004996359348297119 1
vt 0 0.25
vt 0.33000001311302185 0.3999999761581421
vt 0.33000001311302185 0.19999998807907104
vt 0.33000001311302185 0
vt 0.6600000262260437 0
vt 1 0
vt 0.5 0
vt 1 0.5
vt 0.4000000059604645 0.6000000238418579
vt 0.25 0.5
vt 0.25 1
vt 1 1
vt 0.5 1
vt 0.5 0.5
vt 1 0.5
vt 0 0.5
vt 0 0.6600000262260437
vt 1 0.5
vt 0 0
vt 0 0.19999998807907104
vt 0 0
vt 0 0.5
vt 0 0
vt 1 0
vt 0 1
vt 0.5 0
vt 1 0
vt 0 0
vt 0 1
vt 1 0
vt 0 0
vt 0.4000000059604645 0.8999999761581421
g CaveEntrance010
s 1
f 1/1/1 2/2/2 3/3/3
f 3/3/3 4/4/4 1/1/1
f 1/1/1 5/5/5 6/6/6
f 6/6/6 7/7/7 1/1/1
f 2/2/2 1/1/1 7/7/7
f 7/7/7 8/8/8 2/2/2
f 4/4/4 9/9/9 5/5/5
f 5/5/5 1/1/1 4/4/4
g CaveEntrance011
s 1
f 10/10/10 11/11/11 12/12/12
f 12/12/12 13/13/13 10/10/10
f 11/11/11 14/14/14 15/15/15
f 15/15/15 12/12/12 11/11/11
f 13/13/13 12/12/12 16/16/16
f 16/16/16 17/17/17 13/13/13
f 12/12/12 15/15/15 18/18/18
f 18/18/18 16/16/16 12/12/12
g CaveEntrance012
s 1
f 19/19/19 20/20/20 21/21/21
f 22/22/22 23/23/23 24/24/24
f 24/24/24 25/25/25 22/22/22
f 26/26/26 27/27/27 28/28/28
f 28/28/28 29/29/29 26/26/26
f 30/30/30 31/31/31 32/32/32
f 32/32/32 33/33/33 30/30/30
f 34/34/34 22/22/22 25/25/25
f 25/25/25 35/35/35 34/34/34
f 36/36/36 37/37/37 38/38/38
f 38/38/38 39/39/39 36/36/36
f 37/37/37 40/40/40 41/41/41
f 41/41/41 38/38/38 37/37/37
f 42/42/42 26/26/26 43/43/43
f 43/43/43 44/44/44 42/42/42
f 31/31/31 45/45/45 46/46/46
f 46/46/46 47/47/47 31/31/31
f 26/26/26 29/29/29 48/48/48
f 48/48/48 43/43/43 26/26/26
f 49/49/49 50/50/50 51/51/51
f 51/51/51 52/52/52 49/49/49
f 53/53/53 54/54/54 23/23/23
f 23/23/23 22/22/22 53/53/53
f 50/50/50 55/55/55 56/56/56
f 56/56/56 51/51/51 50/50/50
f 57/57/57 58/58/58 59/59/59
f 59/59/59 60/60/60 57/57/57
f 61/61/61 62/62/62 63/63/63
f 63/63/63 64/64/64 61/61/61
f 65/65/65 53/53/53 22/22/22
f 22/22/22 34/34/34 65/65/65
f 27/27/27 66/66/66 67/67/67
f 67/67/67 28/28/28 27/27/27
f 68/68/68 69/69/69 70/70/70
f 70/70/70 19/19/19 68/68/68
f 71/71/71 72/72/72 30/30/30
f 30/30/30 33/33/33 71/71/71
f 21/21/21 68/68/68 19/19/19
f 73/73/73 74/74/74 75/75/75
f 76/76/76 77/77/77 78/78/78
f 79/79/79 78/78/78 77/77/77
f 78/78/78 80/80/80 81/81/81
f 82/82/82 83/83/83 75/75/75
f 84/84/84 75/75/75 83/83/83
f 75/75/75 85/85/85 73/73/73
f 78/78/78 86/86/86 76/76/76
f 87/87/87 88/88/88 89/89/89
f 90/90/90 91/91/91 92/92/92
f 93/93/93 94/94/94 95/95/95
f 94/94/94 96/96/96 95/95/95
f 97/97/97 94/94/94 93/93/93
f 98/98/98 99/99/99 97/97/97
f 72/72/72 71/71/71 100/100/100
f 51/51/51 101/101/101 102/102/102
f 71/71/71 33/33/33 103/103/103
f 103/103/103 100/100/100 71/71/71
f 104/104/104 105/105/105 106/106/106
f 32/32/32 31/31/31 47/47/47
f 47/47/47 107/107/107 32/32/32
f 108/108/108 109/109/109 110/110/110
f 110/110/110 111/111/111 108/108/108
f 112/112/112 108/108/108 111/111/111
f 111/111/111 113/113/113 112/112/112
f 114/114/114 115/115/115 116/116/116
f 116/116/116 117/117/117 114/114/114
f 118/118/118 89/89/89 119/119/119
f 119/119/119 120/120/120 118/118/118
f 121/121/121 92/92/92 114/114/114
f 92/92/92 121/121/121 90/90/90
f 105/105/105 122/122/122 106/106/106
f 105/105/105 104/104/104 123/123/123
f 119/119/119 124/124/124 104/104/104
f 88/88/88 119/119/119 89/89/89
f 125/125/125 126/126/126 127/127/127
f 127/127/127 128/128/128 125/125/125
f 75/75/75 84/84/84 85/85/85
f 129/129/129 130/130/130 131/131/131
f 109/109/109 108/108/108 132/132/132
f 132/132/132 133/133/133 109/109/109
f 108/108/108 112/112/112 70/70/70
f 70/70/70 132/132/132 108/108/108
f 134/134/134 135/135/135 129/129/129
f 129/129/129 136/136/136 134/134/134
f 137/137/137 138/138/138 139/139/139
f 139/139/139 136/136/136 137/137/137
f 140/140/140 141/141/141 142/142/142
f 142/142/142 143/143/143 140/140/140
f 114/114/114 144/144/144 145/145/145
f 145/145/145 115/115/115 114/114/114
f 51/51/51 146/146/146 101/101/101
f 102/102/102 52/52/52 51/51/51
f 147/147/147 148/148/148 96/96/96
f 96/96/96 149/149/149 147/147/147
f 150/150/150 151/151/151 152/152/152
f 152/152/152 153/153/153 150/150/150
f 132/132/132 70/70/70 69/69/69
f 69/69/69 154/154/154 132/132/132
f 154/154/154 155/155/155 133/133/133
f 133/133/133 132/132/132 154/154/154
f 136/136/136 139/139/139 156/156/156
f 156/156/156 134/134/134 136/136/136
f 135/135/135 157/157/157 130/130/130
f 130/130/130 129/129/129 135/135/135
f 158/158/158 159/159/159 20/20/20
f 20/20/20 19/19/19 158/158/158
f 112/112/112 158/158/158 19/19/19
f 19/19/19 70/70/70 112/112/112
f 159/159/159 160/160/160 161/161/161
f 161/161/161 20/20/20 159/159/159
f 162/162/162 131/131/131 130/130/130
f 130/130/130 163/163/163 162/162/162
f 164/164/164 137/137/137 136/136/136
f 136/136/136 129/129/129 164/164/164
f 131/131/131 164/164/164 129/129/129
f 151/151/151 150/150/150 165/165/165
f 166/166/166 99/99/99 167/167/167
f 98/98/98 167/167/167 99/99/99
f 168/168/168 169/169/169 170/170/170
f 170/170/170 171/171/171 168/168/168
f 169/169/169 121/121/121 172/172/172
f 172/172/172 170/170/170 169/169/169
f 40/40/40 37/37/37 140/140/140
f 140/140/140 173/173/173 40/40/40
f 88/88/88 124/124/124 119/119/119
f 89/89/89 174/174/174 87/87/87
f 157/157/157 175/175/175 163/163/163
f 163/163/163 130/130/130 157/157/157
f 160/160/160 159/159/159 176/176/176
f 176/176/176 177/177/177 160/160/160
f 178/178/178 179/179/179 149/149/149
f 149/149/149 96/96/96 178/178/178
f 180/180/180 21/21/21 20/20/20
f 20/20/20 161/161/161 180/180/180
f 166/166/166 167/167/167 181/181/181
f 181/181/181 178/178/178 166/166/166
f 171/171/171 170/170/170 182/182/182
f 182/182/182 183/183/183 171/171/171
f 170/170/170 172/172/172 184/184/184
f 184/184/184 182/182/182 170/170/170
f 185/185/185 140/140/140 143/143/143
f 140/140/140 185/185/185 173/173/173
f 174/174/174 89/89/89 118/118/118
f 118/118/118 186/186/186 174/174/174
f 37/37/37 36/36/36 141/141/141
f 141/141/141 140/140/140 37/37/37
f 114/114/114 92/92/92 144/144/144
f 121/121/121 114/114/114 117/117/117
f 56/56/56 187/187/187 146/146/146
f 146/146/146 51/51/51 56/56/56
f 64/64/64 63/63/63 148/148/148
f 148/148/148 147/147/147 64/64/64
f 165/165/165 188/188/188 151/151/151
