# Exported using wow.export v0.2.19
o uppermesaa_UpperMesaA02.obj
v 45.686614990234375 -1.7603236436843872 28.028688430786133
v 46.44464874267578 0.2377903163433075 28.014129638671875
v 45.53466796875 0.2377903014421463 28.213014602661133
v 46.116539001464844 -1.7603236436843872 28.05498504638672
v 45.856327056884766 0.2377903014421463 27.090648651123047
v 45.760406494140625 -1.7603236436843872 27.4959659576416
v 45.760406494140625 -1.7603236436843872 27.4959659576416
v 45.856327056884766 0.2377903014421463 27.090648651123047
v 46.44464874267578 0.2377903163433075 28.014129638671875
v 45.856327056884766 0.2377903014421463 27.090648651123047
v 45.53466796875 0.2377903014421463 28.213014602661133
v 30.01392936706543 -0.07595392316579819 39.34303665161133
v 30.424110412597656 -0.07595392316579819 38.32780456542969
v 29.32358741760254 -0.07595392316579819 38.71770095825195
v 17.008682250976562 -1.9281126260757446 36.16273880004883
v 16.25798988342285 0.0700012743473053 36.20241165161133
v 17.421924591064453 0.0700012743473053 36.11063766479492
v 16.483856201171875 -1.9281126260757446 36.28018569946289
v 16.76296043395996 0.0700012743473053 36.985111236572266
v 17.421924591064453 0.0700012743473053 36.11063766479492
v 16.25798988342285 0.0700012743473053 36.20241165161133
v 4.381881237030029 -0.7761995792388916 31.558753967285156
v 3.642667531967163 1.2219144105911255 31.42208480834961
v 4.7958664894104 1.2219144105911255 31.60456085205078
v 3.84413743019104 -0.7761995792388916 31.55043601989746
v 3.9509685039520264 1.2219144105911255 32.30104446411133
v 4.7958664894104 1.2219144105911255 31.60456085205078
v 3.642667531967163 1.2219144105911255 31.42208480834961
v -1.8304235935211182 -0.15263047814369202 28.317672729492188
v -0.839259684085846 1.845483422279358 28.194198608398438
v -1.8356308937072754 1.8454835414886475 28.648271560668945
v -1.2272827625274658 -0.15263047814369202 28.042804718017578
v -1.2272827625274658 -0.15263047814369202 28.042804718017578
v -1.9059358835220337 1.845483422279358 27.719470977783203
v -0.839259684085846 1.845483422279358 28.194198608398438
v -1.744550347328186 -0.15263047814369202 27.895593643188477
v -1.8356308937072754 1.8454835414886475 28.648271560668945
v -0.839259684085846 1.845483422279358 28.194198608398438
v -1.9059358835220337 1.845483422279358 27.719470977783203
v 41.343902587890625 -1.8738253116607666 32.955352783203125
v 42.08293914794922 0.1242886558175087 33.124610900878906
v 41.15187454223633 0.1242886558175087 33.097442626953125
v 41.75469207763672 -1.8738253116607666 33.08487319946289
v 41.735504150390625 0.1242886558175087 32.08623123168945
v 41.54438018798828 -1.8738253116607666 32.45630645751953
v 41.54438018798828 -1.8738253116607666 32.45630645751953
v 41.735504150390625 0.1242886558175087 32.08623123168945
v 42.08293914794922 0.1242886558175087 33.124610900878906
v 41.735504150390625 0.1242886558175087 32.08623123168945
v 41.15187454223633 0.1242886558175087 33.097442626953125
v 22.9266300201416 -1.9300861358642578 38.188140869140625
v 23.236217498779297 0.0680278018116951 38.88022232055664
v 22.697587966918945 0.0680278018116951 38.12029266357422
v 23.070411682128906 -1.9300861358642578 38.59416198730469
v 23.856409072875977 0.0680278018116951 37.97783660888672
v 23.445837020874023 -1.9300861358642578 38.04791259765625
v 23.445837020874023 -1.9300861358642578 38.04791259765625
v 23.856409072875977 0.0680278018116951 37.97783660888672
v 23.236217498779297 0.0680278018116951 38.88022232055664
v 23.856409072875977 0.0680278018116951 37.97783660888672
v 22.697587966918945 0.0680278018116951 38.12029266357422
v 3.9509685039520264 1.2219144105911255 32.30104446411133
v 3.8704330921173096 -0.7761995792388916 31.98036003112793
v 10.047063827514648 -1.4750419855117798 34.119956970214844
v 10.282612800598145 0.5230720639228821 34.84061050415039
v 9.826367378234863 0.5230720639228821 34.028541564941406
v 35.827484130859375 -1.9503735303878784 36.736671447753906
v 36.4847412109375 0.0477403923869133 37.11460494995117
v 35.6023063659668 0.0477403923869133 36.816410064697266
v 36.182456970214844 -1.9503735303878784 36.98063659667969
v 36.456077575683594 0.047740388661623 36.02001953125
v 36.16510772705078 -1.9503735303878784 36.31804275512695
v 36.16510772705078 -1.9503735303878784 36.31804275512695
v 36.456077575683594 0.047740388661623 36.02001953125
v 36.4847412109375 0.0477403923869133 37.11460494995117
v 36.456077575683594 0.047740388661623 36.02001953125
v 35.6023063659668 0.0477403923869133 36.816410064697266
v 10.147615432739258 -1.4750419855117798 34.53878402709961
v 10.993733406066895 0.5230720639228821 34.00799560546875
v 10.578083038330078 -1.4750419855117798 34.03477096557617
v 10.578083038330078 -1.4750419855117798 34.03477096557617
v 10.993733406066895 0.5230720639228821 34.00799560546875
v 10.282612800598145 0.5230720639228821 34.84061050415039
v 10.993733406066895 0.5230720639228821 34.00799560546875
v 9.826367378234863 0.5230720639228821 34.028541564941406
v 4.7958664894104 1.2219144105911255 31.60456085205078
v 4.381881237030029 -0.7761995792388916 31.558753967285156
v 16.76296043395996 0.0700012743473053 36.985111236572266
v 16.60978889465332 -1.9281126260757446 36.69209289550781
v 17.421924591064453 0.0700012743473053 36.11063766479492
v 17.008682250976562 -1.9281126260757446 36.16273880004883
v 29.561885833740234 -2.0740678310394287 38.7343635559082
v 30.01392936706543 -0.07595392316579819 39.34303665161133
v 29.32358741760254 -0.07595392316579819 38.71770095825195
v 29.790138244628906 -2.0740678310394287 39.099639892578125
v 30.424110412597656 -0.07595392316579819 38.32780456542969
v 30.038434982299805 -2.0740678310394287 38.485084533691406
v 30.038434982299805 -2.0740678310394287 38.485084533691406
v 30.424110412597656 -0.07595392316579819 38.32780456542969
v -6.295359134674072 0.08500989526510239 22.933435440063477
v -6.386439323425293 2.0831236839294434 23.686113357543945
v -6.45674467086792 2.0831236839294434 22.757312774658203
v -6.381231784820557 0.08500989526510239 23.355514526367188
v -5.390068531036377 2.0831236839294434 23.232040405273438
v -5.7780914306640625 0.08500989526510239 23.080646514892578
v -5.7780914306640625 0.08500989526510239 23.080646514892578
v -5.390068531036377 2.0831236839294434 23.232040405273438
v -6.386439323425293 2.0831236839294434 23.686113357543945
v -5.390068531036377 2.0831236839294434 23.232040405273438
v -6.45674467086792 2.0831236839294434 22.757312774658203
v -10.88487720489502 0.187857523560524 17.930463790893555
v -10.975956916809082 2.18597149848938 18.683143615722656
v -11.04626178741455 2.18597149848938 17.754343032836914
v -10.970749855041504 0.187857523560524 18.3525447845459
v -9.979586601257324 2.18597149848938 18.22907066345215
v -10.367609024047852 0.187857523560524 18.07767677307129
v -10.367609024047852 0.187857523560524 18.07767677307129
v -9.979586601257324 2.18597149848938 18.22907066345215
v -10.975956916809082 2.18597149848938 18.683143615722656
v -9.979586601257324 2.18597149848938 18.22907066345215
v -11.04626178741455 2.18597149848938 17.754343032836914
v -15.408421516418457 0.06752332299947739 12.917738914489746
v -15.647733688354492 2.0656371116638184 13.637149810791016
v -15.531455039978027 2.0656371116638184 12.71297836303711
v -15.576719284057617 0.06752332299947739 13.314225196838379
v -14.580838203430176 2.0656371116638184 13.390836715698242
v -14.930888175964355 0.06752332299947739 13.165122032165527
v -14.930888175964355 0.06752332299947739 13.165122032165527
v -14.580838203430176 2.0656371116638184 13.390836715698242
v -15.647733688354492 2.0656371116638184 13.637149810791016
v -14.580838203430176 2.0656371116638184 13.390836715698242
v -15.531455039978027 2.0656371116638184 12.71297836303711
v -18.961496353149414 -0.04637844115495682 7.078892230987549
v -19.23813247680664 1.9517356157302856 7.784792423248291
v -19.073644638061523 1.9517353773117065 6.8679728507995605
v -19.150314331054688 -0.04637844115495682 7.466026306152344
v -18.159807205200195 1.9517353773117065 7.594654560089111
v -18.4975643157959 -0.04637844115495682 7.350929260253906
v -18.4975643157959 -0.04637844115495682 7.350929260253906
v -18.159807205200195 1.9517353773117065 7.594654560089111
v -19.23813247680664 1.9517356157302856 7.784792423248291
v -18.159807205200195 1.9517353773117065 7.594654560089111
v -19.073644638061523 1.9517353773117065 6.8679728507995605
v -22.23667335510254 0.2453289031982422 1.1541545391082764
v -22.444377899169922 2.2434427738189697 1.8833194971084595
v -22.36852264404297 2.2434427738189697 0.9549552202224731
v -22.38751983642578 0.2453289031982422 1.557604432106018
v -21.38924217224121 2.2434427738189697 1.5907042026519775
v -21.748804092407227 0.2453289031982422 1.380473256111145
v -21.748804092407227 0.2453289031982422 1.380473256111145
v -21.38924217224121 2.2434427738189697 1.5907042026519775
v -22.444377899169922 2.2434427738189697 1.8833194971084595
v -21.38924217224121 2.2434427738189697 1.5907042026519775
v -22.36852264404297 2.2434427738189697 0.9549552202224731
v -26.030990600585938 0.1907532960176468 -4.517189979553223
v -26.282821655273438 2.1888670921325684 -3.802065134048462
v -26.15043067932129 2.1888670921325684 -4.724066734313965
v -26.20618438720703 0.1907532960176468 -4.123701572418213
v -25.211790084838867 2.1888670921325684 -4.029720306396484
v -25.55784797668457 0.1907532960176468 -4.261509895324707
v -25.55784797668457 0.1907532960176468 -4.261509895324707
v -25.211790084838867 2.1888670921325684 -4.029720306396484
v -26.282821655273438 2.1888670921325684 -3.802065134048462
v -25.211790084838867 2.1888670921325684 -4.029720306396484
v -26.15043067932129 2.1888670921325684 -4.724066734313965
v 27.07138442993164 -0.6411506533622742 38.49808883666992
v 29.770219802856445 -0.228837788105011 38.71073913574219
v 29.82908821105957 -0.2831208109855652 38.568809509277344
v 27.0766658782959 -0.6035661697387695 38.57417297363281
v 29.89837646484375 -0.3597199618816376 38.713462829589844
v 27.07183265686035 -0.6876725554466248 38.57271957397461
v 16.92868995666504 -0.18533086776733398 36.35414505004883
v 20.534988403320312 -0.4595843553543091 37.49384689331055
v 20.546302795410156 -0.49716880917549133 37.41842269897461
v 16.934839248657227 -0.12019610404968262 36.485511779785156
v 20.53058624267578 -0.5436907410621643 37.49138259887695
v 16.871543884277344 -0.2695632576942444 36.46559524536133
v 23.1351375579834 -0.08485595136880875 38.210166931152344
v 23.22332763671875 -0.13913899660110474 38.084346771240234
v 23.259668350219727 -0.21573813259601593 38.24056625366211
v 10.571622848510742 -0.18335740268230438 34.186309814453125
v 14.124775886535645 -0.4576108753681183 35.48222732543945
v 14.13936710357666 -0.49519532918930054 35.40736770629883
v 10.572035789489746 -0.11822263151407242 34.31782150268555
v 14.120484352111816 -0.5417172908782959 35.47957992553711
v 10.509668350219727 -0.2675897777080536 34.29515838623047
v 16.69120216369629 -0.08288248628377914 36.311283111572266
v 16.784799575805664 -0.13716551661491394 36.18943405151367
v 16.814289093017578 -0.21376466751098633 36.34708786010742
v 4.273686408996582 0.2697133421897888 31.66905403137207
v 7.741098403930664 -0.004540125373750925 33.179473876953125
v 7.760231971740723 -0.042124588042497635 33.10564422607422
v 4.2660698890686035 0.3348481059074402 31.80034828186035
v 7.73697566986084 -0.08864651620388031 33.17656326293945
v 4.205202102661133 0.1854809671640396 31.7739200592041
v 10.25212574005127 0.37018826603889465 34.163658142089844
v 10.352986335754395 0.31590524315834045 34.04774856567383
v 10.372797966003418 0.23930607736110687 34.2069091796875
v -1.4159350395202637 0.9685556888580322 28.134231567382812
v 1.736517310142517 0.6943022608757019 30.223812103271484
v 1.7681810855865479 0.6567177772521973 30.154428482055664
v -1.4462339878082275 1.0336904525756836 28.262203216552734
v 1.7329630851745605 0.6101958751678467 30.220232009887695
v -1.5015883445739746 0.8843233585357666 28.225610733032227
v 4.038496017456055 1.0690306425094604 31.62908363342285
v 4.157950401306152 1.0147476196289062 31.53244400024414
v 4.149823188781738 0.9381484985351562 31.692630767822266
v -5.941211700439453 1.5921247005462646 23.234384536743164
v -3.4370005130767822 1.317871332168579 26.068681716918945
v -3.3884575366973877 1.2802867889404297 26.009855270385742
v -6.003600120544434 1.6572595834732056 23.350154876708984
v -3.439507007598877 1.233764886856079 26.06430435180664
v -6.047597408294678 1.507892370223999 23.30048179626465
v -1.5771702527999878 1.6925997734069824 28.021860122680664
v -1.436774730682373 1.6383167505264282 27.959436416625977
v -1.4860836267471313 1.5617176294326782 28.112056732177734
v 41.65483474731445 -0.015568362548947334 32.833221435546875
v 44.11302947998047 -0.2898218333721161 29.95892333984375
v 44.04802322387695 -0.3274063169956207 29.91904067993164
v 41.778160095214844 0.04956640303134918 32.87889099121094
v 44.10904312133789 -0.3739282190799713 29.96201515197754
v 41.7350959777832 -0.09980074316263199 32.92937088012695
v 45.78836441040039 0.08490655571222305 27.845361709594727
v 45.70700454711914 0.03062351606786251 27.71502113342285
v -10.492019653320312 1.8297650814056396 18.272226333618164
v -7.9878082275390625 1.555511713027954 21.106523513793945
v -7.939265727996826 1.5179271697998047 21.047697067260742
v -10.55440902709961 1.8948999643325806 18.387996673583984
v -7.990314960479736 1.471405267715454 21.10214614868164
v -10.598405838012695 1.745532751083374 18.33832359313965
v -6.127978324890137 1.9302400350570679 23.059701919555664
v -5.987582683563232 1.8759571313858032 22.997278213500977
v -6.036891460418701 1.7993580102920532 23.149898529052734
v 45.86500549316406 -0.04597563296556473 27.74260902404785
v 36.26955795288086 -0.12907001376152039 36.64179229736328
v 39.35009002685547 -0.4033235013484955 34.44756317138672
v 39.296661376953125 -0.44090795516967773 34.39313888549805
v 36.378173828125 -0.06393525749444962 36.7159423828125
v -15.081538200378418 1.9326125383377075 13.269256591796875
v -12.577327728271484 1.658359169960022 16.103553771972656
v -12.528783798217773 1.6207746267318726 16.044727325439453
v -15.143927574157715 1.9977474212646484 13.385026931762695
v -12.579833984375 1.574252724647522 16.09917640686035
v -15.1879243850708 1.848380208015442 13.33535385131836
v -10.717496871948242 2.0330874919891357 18.056732177734375
v -10.57710075378418 1.9788044691085815 17.994306564331055
v -10.626410484313965 1.9022053480148315 18.146928787231445
v 39.34547805786133 -0.4874298870563507 34.44960021972656
v 36.32417678833008 -0.2133024036884308 36.7545051574707
v 41.486976623535156 -0.028595102950930595 32.802085876464844
v 41.43956756591797 -0.08287814259529114 32.65593338012695
v 41.58620071411133 -0.15947729349136353 32.72092819213867
v -18.591537475585938 1.8122785091400146 7.513427734375
v -16.702667236328125 1.538025140762329 10.790083885192871
v -16.64337158203125 1.5004405975341797 10.742116928100586
v -18.675756454467773 1.8774133920669556 7.61443567276001
v -16.70425033569336 1.453918695449829 10.785293579101562
v -18.708965301513672 1.728046178817749 7.556987285614014
v -15.269575119018555 1.9127534627914429 13.074844360351562
v -15.119552612304688 1.8584705591201782 13.041661262512207
v -15.1983003616333 1.7818714380264282 13.181388854980469
v 29.89705467224121 -0.20561827719211578 38.77843475341797
v 33.48451232910156 -0.4798717498779297 37.580745697021484
v 33.4493293762207 -0.5174562335014343 37.51307678222656
v 29.979244232177734 -0.14048351347446442 38.881099700927734
v 33.4795036315918 -0.5639781355857849 37.58134460449219
v 29.91632843017578 -0.289850652217865 38.902191162109375
v -21.857412338256836 1.6983767747879028 1.5153967142105103
v -20.14261817932129 1.4241234064102173 4.886417865753174
v -20.080890655517578 1.3865388631820679 4.841619968414307
v -21.946800231933594 1.7635115385055542 1.6118589639663696
v -20.143945693969727 1.3400169610977173 4.881552219390869
v -21.976957321166992 1.6141444444656372 1.5527514219284058
v -18.831064224243164 1.7988516092300415 7.243048667907715
v -18.67951011657715 1.7445687055587769 7.217763423919678
v -18.76546287536621 1.6679695844650269 7.35317850112915
v 36.00911331176758 -0.10514336079359055 36.63193130493164
v 36.00651168823242 -0.15942640602588654 36.47830581665039
v 36.12773513793945 -0.23602554202079773 36.58333206176758
v -25.652496337890625 1.990083932876587 -4.106167316436768
v -23.62249755859375 1.7158304452896118 -0.9150209426879883
v -23.565349578857422 1.678246021270752 -0.9655284881591797
v -25.732227325439453 2.0552189350128174 -4.00158166885376
v -23.62428855895996 1.6317239999771118 -0.9197371006011963
v -25.767911911010742 1.9058516025543213 -4.057526588439941
v -22.091110229492188 2.0905587673187256 1.3050543069839478
v -21.942678451538086 2.036275863647461 1.2653595209121704
v -22.015254974365234 1.959676742553711 1.4083890914916992
v 23.309173583984375 -0.3293127119541168 38.24203109741211
v 23.343608856201172 -0.26417794823646545 38.368953704833984
v 23.277503967285156 -0.41354507207870483 38.36320877075195
vn -0.41429609060287476 -0.05239386484026909 0.9086328148841858
vn 0.5124931931495667 0.42042356729507446 0.7487287521362305
vn -0.8618122935295105 0.4237476587295532 0.2787784934043884
vn 0.8491588234901428 -0.12896773219108582 0.5121489763259888
vn -0.10834287852048874 0.7179275155067444 -0.6876350045204163
vn -0.7549586892127991 -0.14894287288188934 -0.6386340260505676
vn -0.7549586892127991 -0.14894287288188934 -0.6386340260505676
vn -0.10834287852048874 0.7179275155067444 -0.6876350045204163
vn 0.5124931931495667 0.42042356729507446 0.7487287521362305
vn -0.10834287852048874 0.7179275155067444 -0.6876350045204163
vn -0.8618122935295105 0.4237476587295532 0.2787784934043884
vn -0.311945378780365 0.42042332887649536 0.8520177602767944
vn 0.4968981146812439 0.7179280519485474 -0.48751571774482727
vn -0.727415144443512 0.4237472414970398 -0.5397272706031799
vn 0.3337928056716919 -0.14894379675388336 -0.9308050870895386
vn -0.5629415512084961 0.42374658584594727 -0.7096024751663208
vn 0.6061434745788574 0.7179297804832458 -0.3422966003417969
vn -0.9961808323860168 -0.05239482969045639 -0.06984686851501465
vn -0.5218330025672913 0.42042332887649536 0.742249608039856
vn 0.6061434745788574 0.7179297804832458 -0.3422966003417969
vn -0.5629415512084961 0.42374658584594727 -0.7096024751663208
vn 0.5418648719787598 -0.14894266426563263 -0.8271629810333252
vn -0.3817315101623535 0.42374706268310547 -0.8214130997657776
vn 0.6693044900894165 0.7179282903671265 -0.19133847951889038
vn -0.9523504972457886 -0.05239417403936386 -0.3004719913005829
vn -0.6806896924972534 0.4204237461090088 0.5999211668968201
vn 0.6693044900894165 0.7179282903671265 -0.19133847951889038
vn -0.3817315101623535 0.42374706268310547 -0.8214130997657776
vn -0.625343918800354 -0.12896718084812164 0.7696183919906616
vn 0.6960203647613525 0.7179285287857056 -0.011589433066546917
vn -0.8127669095993042 0.4204237163066864 0.40330368280410767
vn 0.7374865412712097 -0.14894317090511322 -0.6587333083152771
vn 0.7374865412712097 -0.14894317090511322 -0.6587333083152771
vn -0.1561271697282791 0.42374691367149353 -0.8922235369682312
vn 0.6960203647613525 0.7179285287857056 -0.011589433066546917
vn -0.8421320915222168 -0.05239441990852356 -0.5367200374603271
vn -0.8127669095993042 0.4204237163066864 0.40330368280410767
vn 0.6960203647613525 0.7179285287857056 -0.011589433066546917
vn -0.1561271697282791 0.42374691367149353 -0.8922235369682312
vn -0.6218059659004211 -0.052394554018974304 0.7814167737960815
vn 0.3161381185054779 0.4204225540161133 0.8504713773727417
vn -0.9036555886268616 0.4237472712993622 0.06200679391622543
vn 0.7000370025634766 -0.1289691925048828 0.7023639678955078
vn 0.061229124665260315 0.7179271578788757 -0.6934202313423157
vn -0.5780344605445862 -0.1489434540271759 -0.802304208278656
vn -0.5780344605445862 -0.1489434540271759 -0.802304208278656
vn 0.061229124665260315 0.7179271578788757 -0.6934202313423157
vn 0.3161381185054779 0.4204225540161133 0.8504713773727417
vn 0.061229124665260315 0.7179271578788757 -0.6934202313423157
vn -0.9036555886268616 0.4237472712993622 0.06200679391622543
vn -0.998279333114624 -0.052394695580005646 -0.026327887549996376
vn -0.48896005749702454 0.4204232096672058 0.7643051743507385
vn -0.5933561325073242 0.4237469732761383 -0.6843734383583069
vn -0.13964049518108368 -0.12896795570850372 0.9817677140235901
vn 0.5906374454498291 0.7179282903671265 -0.3684106171131134
vn 0.2928765118122101 -0.14894315600395203 -0.9444783329963684
vn 0.2928765118122101 -0.14894315600395203 -0.9444783329963684
vn 0.5906374454498291 0.7179282903671265 -0.3684106171131134
vn -0.48896005749702454 0.4204232096672058 0.7643051743507385
vn 0.5906374454498291 0.7179282903671265 -0.3684106171131134
vn -0.5933561325073242 0.4237469732761383 -0.6843734383583069
vn -0.6806896924972534 0.4204237461090088 0.5999211668968201
vn -0.40484312176704407 -0.1289675235748291 0.9052454829216003
vn -0.9900584816932678 -0.05239447206258774 -0.13053368031978607
vn -0.5661739706993103 0.4204237461090088 0.7090069651603699
vn -0.5185689330101013 0.4237469434738159 -0.7426471710205078
vn -0.8230990171432495 -0.05239463225007057 0.5654757618904114
vn 0.05367220938205719 0.42042285203933716 0.905739426612854
vn -0.8822998404502869 0.42374736070632935 -0.20490272343158722
vn 0.46409809589385986 -0.12896764278411865 0.8763448596000671
vn 0.26128876209259033 0.7179287672042847 -0.6452181339263916
vn -0.31820952892303467 -0.1489429622888565 -0.9362471103668213
vn -0.31820952892303467 -0.1489429622888565 -0.9362471103668213
vn 0.26128876209259033 0.7179287672042847 -0.6452181339263916
vn 0.05367220938205719 0.42042285203933716 0.905739426612854
vn 0.26128876209259033 0.7179287672042847 -0.6452181339263916
vn -0.8822998404502869 0.42374736070632935 -0.20490272343158722
vn -0.24149954319000244 -0.1289675086736679 0.9617927670478821
vn 0.6259115934371948 0.7179279923439026 -0.30465400218963623
vn 0.38999757170677185 -0.1489434391260147 -0.9086900949478149
vn 0.38999757170677185 -0.1489434391260147 -0.9086900949478149
vn 0.6259115934371948 0.7179279923439026 -0.30465400218963623
vn -0.5661739706993103 0.4204237461090088 0.7090069651603699
vn 0.6259115934371948 0.7179279923439026 -0.30465400218963623
vn -0.5185689330101013 0.4237469434738159 -0.7426471710205078
vn 0.6693044900894165 0.7179282903671265 -0.19133847951889038
vn 0.5418648719787598 -0.14894266426563263 -0.8271629810333252
vn -0.5218330025672913 0.42042332887649536 0.742249608039856
vn -0.18233275413513184 -0.12896686792373657 0.9747421741485596
vn 0.6061434745788574 0.7179297804832458 -0.3422966003417969
vn 0.3337928056716919 -0.14894379675388336 -0.9308050870895386
vn -0.980315089225769 -0.052394188940525055 0.19036072492599487
vn -0.311945378780365 0.42042332887649536 0.8520177602767944
vn -0.727415144443512 0.4237472414970398 -0.5397272706031799
vn 0.07616166770458221 -0.12896834313869476 0.988719642162323
vn 0.4968981146812439 0.7179280519485474 -0.48751571774482727
vn 0.08151444792747498 -0.1489419937133789 -0.9854804277420044
vn 0.08151444792747498 -0.1489419937133789 -0.9854804277420044
vn 0.4968981146812439 0.7179280519485474 -0.48751571774482727
vn -0.8421321511268616 -0.05239454284310341 -0.5367199182510376
vn -0.8127667903900146 0.42042356729507446 0.40330401062965393
vn -0.1561271846294403 0.4237469434738159 -0.8922235369682312
vn -0.6253436803817749 -0.1289672702550888 0.769618570804596
vn 0.6960203051567078 0.7179285883903503 -0.011589230969548225
vn 0.7374866008758545 -0.14894309639930725 -0.6587332487106323
vn 0.7374866008758545 -0.14894309639930725 -0.6587332487106323
vn 0.6960203051567078 0.7179285883903503 -0.011589230969548225
vn -0.8127667903900146 0.42042356729507446 0.40330401062965393
vn 0.6960203051567078 0.7179285883903503 -0.011589230969548225
vn -0.1561271846294403 0.4237469434738159 -0.8922235369682312
vn -0.8421320915222168 -0.05239448323845863 -0.5367200374603271
vn -0.8127669095993042 0.4204236567020416 0.40330377221107483
vn -0.1561272293329239 0.4237469434738159 -0.8922235369682312
vn -0.6253436803817749 -0.1289672702550888 0.769618570804596
vn 0.6960203647613525 0.7179285287857056 -0.011589179746806622
vn 0.7374865412712097 -0.14894305169582367 -0.6587333083152771
vn 0.7374865412712097 -0.14894305169582367 -0.6587333083152771
vn 0.6960203647613525 0.7179285287857056 -0.011589179746806622
vn -0.8127669095993042 0.4204236567020416 0.40330377221107483
vn 0.6960203647613525 0.7179285287857056 -0.011589179746806622
vn -0.1561272293329239 0.4237469434738159 -0.8922235369682312
vn -0.7182218432426453 -0.05239466577768326 -0.6938387751579285
vn -0.87685626745224 0.4204230010509491 0.23316863179206848
vn 0.02488785982131958 0.423747181892395 -0.9054385423660278
vn -0.7662266492843628 -0.12896780669689178 0.6294950246810913
vn 0.6843578815460205 0.7179287075996399 0.1274074763059616
vn 0.854011595249176 -0.14894291758537292 -0.49847790598869324
vn 0.854011595249176 -0.14894291758537292 -0.49847790598869324
vn 0.6843578815460205 0.7179287075996399 0.1274074763059616
vn -0.87685626745224 0.4204230010509491 0.23316863179206848
vn 0.6843578815460205 0.7179287075996399 0.1274074763059616
vn 0.02488785982131958 0.423747181892395 -0.9054385423660278
vn -0.6809244155883789 -0.05239434540271759 -0.7304770946502686
vn -0.8878576755523682 0.4204232692718506 0.18695712089538574
vn 0.07224138081073761 0.42374712228775024 -0.9028950929641724
vn -0.7981218695640564 -0.12896814942359924 0.5885310173034668
vn 0.6767526865005493 0.7179280519485474 0.16304951906204224
vn 0.8789296746253967 -0.14894285798072815 -0.45309892296791077
vn 0.8789296746253967 -0.14894285798072815 -0.45309892296791077
vn 0.6767526865005493 0.7179280519485474 0.16304951906204224
vn -0.8878576755523682 0.4204232692718506 0.18695712089538574
vn 0.6767526865005493 0.7179280519485474 0.16304951906204224
vn 0.07224138081073761 0.42374712228775024 -0.9028950929641724
vn -0.7478015422821045 -0.05239375680685043 -0.6618517637252808
vn -0.8658511638641357 0.4204239845275879 0.271192729473114
vn -0.014629407785832882 0.42374730110168457 -0.9056622982025146
vn -0.7380408048629761 -0.12896713614463806 0.662316620349884
vn 0.6892644166946411 0.7179282307624817 0.09743518382310867
vn 0.8314560651779175 -0.14894281327724457 -0.5352540016174316
vn 0.8314560651779175 -0.14894281327724457 -0.5352540016174316
vn 0.6892644166946411 0.7179282307624817 0.09743518382310867
vn -0.8658511638641357 0.4204239845275879 0.271192729473114
vn 0.6892644166946411 0.7179282307624817 0.09743518382310867
vn -0.014629407785832882 0.42374730110168457 -0.9056622982025146
vn -0.7060021162033081 -0.05239391326904297 -0.7062689661979675
vn -0.8807920217514038 0.42042380571365356 0.21782845258712769
vn 0.04068726301193237 0.42374739050865173 -0.904866099357605
vn -0.7770970463752747 -0.12896744906902313 0.6160256266593933
vn 0.6820308566093445 0.7179279327392578 0.13933208584785461
vn 0.8625817894935608 -0.1489427536725998 -0.48349636793136597
vn 0.8625817894935608 -0.1489427536725998 -0.48349636793136597
vn 0.6820308566093445 0.7179279327392578 0.13933208584785461
vn -0.8807920217514038 0.42042380571365356 0.21782845258712769
vn 0.6820308566093445 0.7179279327392578 0.13933208584785461
vn 0.04068726301193237 0.42374739050865173 -0.904866099357605
vn 0.045448869466781616 0.0586160346865654 -0.9972454905509949
vn -0.14332221448421478 0.8179035186767578 0.557218611240387
vn 0.01738942600786686 0.06796298176050186 -0.997536301612854
vn -0.030733071267604828 0.9973427057266235 0.06605329364538193
vn 0.07656405866146088 -0.8709443807601929 0.48538005352020264
vn 0.02094108797609806 -0.9995028972625732 -0.023567434400320053
vn 0.28707006573677063 0.06967533379793167 -0.9553722143173218
vn -0.04429999366402626 0.9973428249359131 0.05783392861485481
vn 0.26021549105644226 0.0586138479411602 -0.9637698531150818
vn -0.06431824713945389 0.8535973429679871 0.5169475674629211
vn 0.025546381250023842 -0.9995028376579285 -0.01847907528281212
vn -0.19054803252220154 -0.874518871307373 0.4459912180900574
vn -0.26052984595298767 0.8179015517234802 0.5129925012588501
vn 0.23288331925868988 0.06796611845493317 -0.9701268076896667
vn -0.030304277315735817 -0.8709484934806824 0.49043893814086914
vn 0.3284691572189331 0.0696769431233406 -0.9419411420822144
vn -0.04678131639957428 0.9973422884941101 0.05585624650120735
vn 0.3020082414150238 0.058599360287189484 -0.9515025615692139
vn -0.08680148422718048 0.8536040186882019 0.5136396288871765
vn 0.026325317099690437 -0.9995031356811523 -0.017333978787064552
vn -0.2098235785961151 -0.8745130300521851 0.43726539611816406
vn -0.2826550304889679 0.8179084658622742 0.5011305809020996
vn 0.2749784290790558 0.0679631307721138 -0.9590452909469604
vn -0.051669444888830185 -0.8709462881088257 0.48865407705307007
vn 0.38536131381988525 0.06967286020517349 -0.9201316833496094
vn -0.05010555684566498 0.9973423480987549 0.05289330706000328
vn 0.3595314919948578 0.05861251428723335 -0.931290328502655
vn -0.11800544708967209 0.8535913825035095 0.5074016451835632
vn 0.027336644008755684 -0.9995028972625732 -0.01570465788245201
vn -0.23612098395824432 -0.8745220899581909 0.42362484335899353
vn -0.312723845243454 0.8179028630256653 0.4829479157924652
vn 0.33301323652267456 0.06796549260616302 -0.94046950340271
vn -0.08140341937541962 -0.8709474802017212 0.48458635807037354
vn 0.5392857193946838 0.06967136263847351 -0.8392358422279358
vn -0.058527085930109024 0.9973426461219788 0.043385181576013565
vn 0.515785813331604 0.05861442908644676 -0.8547101020812988
vn -0.20431958138942719 0.8535942435264587 0.47919762134552
vn 0.02964845299720764 -0.9995028972625732 -0.010719279758632183
vn -0.3060992658138275 -0.8745177388191223 0.3761940896511078
vn -0.39183613657951355 0.8179029226303101 0.4213066101074219
vn 0.49126484990119934 0.0679650828242302 -0.8683545589447021
vn -0.16431637108325958 -0.8709456324577332 0.4630916118621826
vn 0.7381201982498169 0.06967743486166 -0.6710615754127502
vn -0.06776761263608932 0.997342050075531 0.026764826849102974
vn 0.7194271087646484 0.05860716849565506 -0.6920908689498901
vn -0.32138025760650635 0.8535965085029602 0.4099850356578827
vn 0.03140974044799805 -0.9995030164718628 -0.0026780003681778908
vn -0.3930373787879944 -0.8745163083076477 0.2841528058052063
vn -0.48752298951148987 0.8179063200950623 0.30553334951400757
vn 0.6992722749710083 0.06796469539403915 -0.7116172909736633
vn -0.27857211232185364 -0.870947003364563 0.40478256344795227
vn -0.7672570943832397 0.0696784108877182 -0.637543261051178
vn 0.035933997482061386 0.9973421692848206 0.06338247656822205
vn -0.7854804992675781 0.05861063674092293 -0.6161048412322998
vn 0.4507220685482025 0.8535968065261841 0.2611936330795288
vn -0.007025890983641148 -0.999502956867218 -0.030732812359929085
vn 0.33608701825141907 -0.8745167255401611 0.3496655523777008
vn 0.3704153001308441 0.8179018497467041 0.4402601718902588
vn -0.8020120859146118 0.06796706467866898 -0.5934282541275024
vn 0.7381202578544617 0.06967547535896301 -0.6710616946220398
vn -0.06776581704616547 0.9973422288894653 0.02676345780491829
vn 0.7194269895553589 0.05860757827758789 -0.6920909881591797
vn -0.32137978076934814 0.8535968065261841 0.4099847972393036
vn 0.03141048550605774 -0.999502956867218 -0.002678422024473548
vn -0.3930368423461914 -0.8745167255401611 0.2841523289680481
vn -0.4875239431858063 0.8179054260253906 0.3055341839790344
vn 0.6992721557617188 0.06796514987945557 -0.7116172909736633
vn -0.2785714566707611 -0.870947539806366 0.40478187799453735
vn 0.4396101236343384 -0.8709490895271301 0.21952374279499054
vn -0.5902313590049744 0.06967004388570786 -0.804222047328949
vn 0.01953551173210144 0.9973419904708862 0.07019473612308502
vn -0.6130987405776978 0.05860745906829834 -0.7878293395042419
vn 0.37414878606796265 0.8535934090614319 0.36247894167900085
vn 0.7381202578544617 0.06967613101005554 -0.671061635017395
vn -0.06776795536279678 0.997342050075531 0.026765476912260056
vn 0.7194271087646484 0.05860679969191551 -0.6920909881591797
vn -0.3213805854320526 0.8535962104797363 0.40998542308807373
vn 0.03140841796994209 -0.9995030760765076 -0.0026765051297843456
vn -0.3930377960205078 -0.8745160102844238 0.2841532230377197
vn -0.4875233471393585 0.8179059624671936 0.3055337369441986
vn 0.6992722153663635 0.06796421855688095 -0.7116173505783081
vn -0.2785728871822357 -0.87094646692276 0.4047831594944
vn 0.0006196206086315215 -0.9995030164718628 -0.03151796758174896
vn 0.24151554703712463 -0.874514102935791 0.42058926820755005
vn 0.2529004216194153 0.817905068397522 0.5167906880378723
vn -0.6346246600151062 0.06796500831842422 -0.7698261737823486
vn 0.37344464659690857 -0.8709485530853271 0.31935518980026245
vn 0.8570906519889832 0.06967277824878693 -0.5104325413703918
vn -0.0717393234372139 0.9973423480987549 0.012714417651295662
vn 0.842964768409729 0.0586104616522789 -0.5347664952278137
vn -0.396669864654541 0.8535940647125244 0.33768361806869507
vn 0.03131628781557083 -0.9995028972625732 0.00363599369302392
vn -0.44179388880729675 -0.8745189905166626 0.20008668303489685
vn -0.5386513471603394 0.8179047107696533 0.20220430195331573
vn 0.8271077871322632 0.06796535104513168 -0.5579188466072083
vn -0.3536798357963562 -0.8709473609924316 0.34111762046813965
vn -0.32930877804756165 0.06968052685260773 -0.9416477084159851
vn -0.001838025520555675 0.9973413348197937 0.07284826785326004
vn -0.3559698164463043 0.058602411299943924 -0.9326581954956055
vn 0.251819908618927 0.853596568107605 0.4560259282588959
vn 0.009810972958803177 -0.9995032548904419 -0.02995046228170395
vn 0.10799498111009598 -0.8745121955871582 0.47282713651657104
vn 0.8826296329498291 0.0696793869137764 -0.46487605571746826
vn -0.0723147913813591 0.9973417520523071 0.008945935405790806
vn 0.8697971701622009 0.05861033871769905 -0.489916056394577
vn -0.41380152106285095 0.853592574596405 0.3164617419242859
vn 0.031078912317752838 -0.9995030164718628 0.005271338392049074
vn -0.45166343450546265 -0.8745169043540955 0.17669276893138885
vn -0.5484927892684937 0.8179069757461548 0.17373491823673248
vn 0.8551737070083618 0.06796391308307648 -0.5138665437698364
vn -0.371051549911499 -0.8709449768066406 0.32214224338531494
vn 0.09075094759464264 0.8179126381874084 0.5681401491165161
vn -0.38181862235069275 0.06796035170555115 -0.9217352867126465
vn 0.2637604773044586 -0.8709416389465332 0.41459745168685913
vn 0.8340099453926086 0.06967470794916153 -0.5473325252532959
vn -0.07111858576536179 0.9973422288894653 0.01583268865942955
vn 0.8188364505767822 0.0586102157831192 -0.5710269212722778
vn -0.38156187534332275 0.8535946607589722 0.354664146900177
vn 0.03144369274377823 -0.999502956867218 0.0022672342602163553
vn -0.4326487183570862 -0.8745169639587402 0.2191692292690277
vn -0.5293174386024475 0.8179057836532593 0.22550643980503082
vn 0.8019847869873047 0.0679648369550705 -0.5934654474258423
vn -0.3384653925895691 -0.8709464073181152 0.35622113943099976
vn 0.07348509132862091 0.06967268139123917 -0.9948596358299255
vn 0.04909350723028183 0.8535922765731812 0.5186232328414917
vn -0.08950096368789673 -0.87452232837677 0.4766552448272705
vt 0.5 -0.24600005149841309
vt 0.75 0.3400000333786011
vt 0.5 0.3400000333786011
vt 0.75 -0.24600005149841309
vt 0.5 0.3400000333786011
vt 0.5 -0.24600005149841309
vt 0.75 -0.24600005149841309
vt 0.75 0.3400000333786011
vt 0.75 0.5
vt 0.875 0
vt 0.9995004534721375 0.5
vt 0.75 0.5
vt 0.875 0
vt 0.9995004534721375 0.5
vt 0.75 -0.24600005149841309
vt 0.5 0.3400000333786011
vt 0.75 0.3400000333786011
vt 0.5 -0.24600005149841309
vt 0.75 0.5
vt 0.875 0
vt 0.9995004534721375 0.5
vt 0.75 -0.24600005149841309
vt 0.5 0.3400000333786011
vt 0.75 0.3400000333786011
vt 0.5 -0.24600005149841309
vt 0.75 0.5
vt 0.875 0
vt 0.9995004534721375 0.5
vt 0.75 -0.24600005149841309
vt 0.5 0.3400000333786011
vt 0.75 0.3400000333786011
vt 0.5 -0.24600005149841309
vt 0.75 -0.24600005149841309
vt 0.5 0.3400000333786011
vt 0.75 0.3400000333786011
vt 0.5 -0.24600005149841309
vt 0.75 0.5
vt 0.875 0
vt 0.9995004534721375 0.5
vt 0.5 -0.24600005149841309
vt 0.75 0.3400000333786011
vt 0.5 0.3400000333786011
vt 0.75 -0.24600005149841309
vt 0.5 0.3400000333786011
vt 0.5 -0.24600005149841309
vt 0.75 -0.24600005149841309
vt 0.75 0.3400000333786011
vt 0.75 0.5
vt 0.875 0
vt 0.9995004534721375 0.5
vt 0.5 -0.24600005149841309
vt 0.75 0.3400000333786011
vt 0.5 0.3400000333786011
vt 0.75 -0.24600005149841309
vt 0.5 0.3400000333786011
vt 0.5 -0.24600005149841309
vt 0.75 -0.24600005149841309
vt 0.75 0.3400000333786011
vt 0.75 0.5
vt 0.875 0
vt 0.9995004534721375 0.5
vt 0.75 0.3400000333786011
vt 0.75 -0.24600005149841309
vt 0.5 -0.24600005149841309
vt 0.75 0.3400000333786011
vt 0.5 0.3400000333786011
vt 0.5 -0.24600005149841309
vt 0.75 0.3400000333786011
vt 0.5 0.3400000333786011
vt 0.75 -0.24600005149841309
vt 0.5 0.3400000333786011
vt 0.5 -0.24600005149841309
vt 0.75 -0.24600005149841309
vt 0.75 0.3400000333786011
vt 0.75 0.5
vt 0.875 0
vt 0.9995004534721375 0.5
vt 0.75 -0.24600005149841309
vt 0.5 0.3400000333786011
vt 0.5 -0.24600005149841309
vt 0.75 -0.24600005149841309
vt 0.75 0.3400000333786011
vt 0.75 0.5
vt 0.875 0
vt 0.9995004534721375 0.5
vt 0.5 0.3400000333786011
vt 0.5 -0.24600005149841309
vt 0.75 0.3400000333786011
vt 0.75 -0.24600005149841309
vt 0.5 0.3400000333786011
vt 0.5 -0.24600005149841309
vt 0.5 -0.24600005149841309
vt 0.75 0.3400000333786011
vt 0.5 0.3400000333786011
vt 0.75 -0.24600005149841309
vt 0.5 0.3400000333786011
vt 0.5 -0.24600005149841309
vt 0.75 -0.24600005149841309
vt 0.75 0.3400000333786011
vt 0.5 -0.24600005149841309
vt 0.75 0.3400000333786011
vt 0.5 0.3400000333786011
vt 0.75 -0.24600005149841309
vt 0.5 0.3400000333786011
vt 0.5 -0.24600005149841309
vt 0.75 -0.24600005149841309
vt 0.75 0.3400000333786011
vt 0.75 0.5
vt 0.875 0
vt 0.9995004534721375 0.5
vt 0.5 -0.24600005149841309
vt 0.75 0.3400000333786011
vt 0.5 0.3400000333786011
vt 0.75 -0.24600005149841309
vt 0.5 0.3400000333786011
vt 0.5 -0.24600005149841309
vt 0.75 -0.24600005149841309
vt 0.75 0.3400000333786011
vt 0.75 0.5
vt 0.875 0
vt 0.9995004534721375 0.5
vt 0.5 -0.24600005149841309
vt 0.75 0.3400000333786011
vt 0.5 0.3400000333786011
vt 0.75 -0.24600005149841309
vt 0.5 0.3400000333786011
vt 0.5 -0.24600005149841309
vt 0.75 -0.24600005149841309
vt 0.75 0.3400000333786011
vt 0.75 0.5
vt 0.875 0
vt 0.9995004534721375 0.5
vt 0.5 -0.24600005149841309
vt 0.75 0.3400000333786011
vt 0.5 0.3400000333786011
vt 0.75 -0.24600005149841309
vt 0.5 0.3400000333786011
vt 0.5 -0.24600005149841309
vt 0.75 -0.24600005149841309
vt 0.75 0.3400000333786011
vt 0.75 0.5
vt 0.875 0
vt 0.9995004534721375 0.5
vt 0.5 -0.24600005149841309
vt 0.75 0.3400000333786011
vt 0.5 0.3400000333786011
vt 0.75 -0.24600005149841309
vt 0.5 0.3400000333786011
vt 0.5 -0.24600005149841309
vt 0.75 -0.24600005149841309
vt 0.75 0.3400000333786011
vt 0.75 0.5
vt 0.875 0
vt 0.9995004534721375 0.5
vt 0.5 -0.24600005149841309
vt 0.75 0.3400000333786011
vt 0.5 0.3400000333786011
vt 0.75 -0.24600005149841309
vt 0.5 0.3400000333786011
vt 0.5 -0.24600005149841309
vt 0.75 -0.24600005149841309
vt 0.75 0.3400000333786011
vt 0.75 0.5
vt 0.875 0
vt 0.9995004534721375 0.5
vt 0.9396135210990906 1.5
vt 0.5966183543205261 4.701643943786621
vt 0.9396135210990906 4.701643943786621
vt 0.5966183543205261 1.5
vt 0.75 4.701643943786621
vt 0.75 1.5
vt 0.9396135210990906 -2.614053726196289
vt 0.5966183543205261 1.5
vt 0.9396135210990906 1.5
vt 0.5966183543205261 -2.614053726196289
vt 0.75 1.5
vt 0.75 -2.614053726196289
vt 0.5966183543205261 4.701643943786621
vt 0.9396135210990906 4.701643943786621
vt 0.75 4.701643943786621
vt 0.9396135210990906 -2.614053726196289
vt 0.5966183543205261 1.5
vt 0.9396135210990906 1.5
vt 0.5966183543205261 -2.614053726196289
vt 0.75 1.5
vt 0.75 -2.614053726196289
vt 0.5966183543205261 4.701643943786621
vt 0.9396135210990906 4.701643943786621
vt 0.75 4.701643943786621
vt 0.9396135210990906 -2.614053726196289
vt 0.5966183543205261 1.5
vt 0.9396135210990906 1.5
vt 0.5966183543205261 -2.614053726196289
vt 0.75 1.5
vt 0.75 -2.614053726196289
vt 0.5966183543205261 4.701643943786621
vt 0.9396135210990906 4.701643943786621
vt 0.75 4.701643943786621
vt 0.9396135210990906 -2.614053726196289
vt 0.5966183543205261 1.5
vt 0.9396135210990906 1.5
vt 0.5966183543205261 -2.614053726196289
vt 0.75 1.5
vt 0.75 -2.614053726196289
vt 0.5966183543205261 4.701643943786621
vt 0.9396135210990906 4.701643943786621
vt 0.75 4.701643943786621
vt 0.9396135210990906 -2.614053726196289
vt 0.5966183543205261 1.5
vt 0.9396135210990906 1.5
vt 0.5966183543205261 -2.614053726196289
vt 0.75 1.5
vt 0.75 -2.614053726196289
vt 0.5966183543205261 4.701643943786621
vt 0.9396135210990906 4.701643943786621
vt 0.75 4.701643943786621
vt 0.9396135210990906 -2.614053726196289
vt 0.5966183543205261 1.5
vt 0.9396135210990906 1.5
vt 0.5966183543205261 -2.614053726196289
vt 0.75 1.5
vt 0.75 -2.614053726196289
vt 0.5966183543205261 4.701643943786621
vt 0.9396135210990906 4.701643943786621
vt 0.9396135210990906 -2.614053726196289
vt 0.5966183543205261 1.5
vt 0.9396135210990906 1.5
vt 0.5966183543205261 -2.614053726196289
vt 0.75 1.5
vt 0.75 -2.614053726196289
vt 0.5966183543205261 4.701643943786621
vt 0.9396135210990906 4.701643943786621
vt 0.75 4.701643943786621
vt 0.75 4.701643943786621
vt 0.9396135210990906 -2.614053726196289
vt 0.5966183543205261 1.5
vt 0.9396135210990906 1.5
vt 0.5966183543205261 -2.614053726196289
vt 0.9396135210990906 -2.614053726196289
vt 0.5966183543205261 1.5
vt 0.9396135210990906 1.5
vt 0.5966183543205261 -2.614053726196289
vt 0.75 1.5
vt 0.75 -2.614053726196289
vt 0.5966183543205261 4.701643943786621
vt 0.9396135210990906 4.701643943786621
vt 0.75 4.701643943786621
vt 0.75 1.5
vt 0.75 -2.614053726196289
vt 0.5966183543205261 4.701643943786621
vt 0.9396135210990906 4.701643943786621
vt 0.75 4.701643943786621
vt 0.9396135210990906 -2.614053726196289
vt 0.5966183543205261 1.5
vt 0.9396135210990906 1.5
vt 0.5966183543205261 -2.614053726196289
vt 0.75 1.5
vt 0.75 -2.614053726196289
vt 0.5966183543205261 4.701643943786621
vt 0.9396135210990906 4.701643943786621
vt 0.75 4.701643943786621
vt 0.9396135210990906 -2.614053726196289
vt 0.5966183543205261 1.5
vt 0.9396135210990906 1.5
vt 0.5966183543205261 -2.614053726196289
vt 0.75 1.5
vt 0.75 -2.614053726196289
vt 0.9396135210990906 -2.614053726196289
vt 0.5966183543205261 1.5
vt 0.9396135210990906 1.5
vt 0.5966183543205261 -2.614053726196289
vt 0.75 1.5
vt 0.75 -2.614053726196289
vt 0.5966183543205261 4.701643943786621
vt 0.9396135210990906 4.701643943786621
vt 0.75 4.701643943786621
vt 0.5966183543205261 4.701643943786621
vt 0.9396135210990906 4.701643943786621
vt 0.75 4.701643943786621
vt 0.9396135210990906 -2.614053726196289
vt 0.5966183543205261 1.5
vt 0.9396135210990906 1.5
vt 0.5966183543205261 -2.614053726196289
vt 0.75 1.5
vt 0.75 -2.614053726196289
vt 0.5966183543205261 4.701643943786621
vt 0.9396135210990906 4.701643943786621
vt 0.75 4.701643943786621
vt 0.9396135210990906 -2.614053726196289
vt 0.5966183543205261 -2.614053726196289
vt 0.75 -2.614053726196289
g UpperMesaA020
s 1
f 1/1/1 2/2/2 3/3/3
f 1/1/1 4/4/4 2/2/2
f 4/4/4 5/5/5 2/2/2
f 4/4/4 6/6/6 5/5/5
f 7/7/7 3/3/3 8/8/8
f 7/7/7 1/1/1 3/3/3
f 9/9/9 10/10/10 11/11/11
f 12/12/12 13/13/13 14/14/14
f 15/15/15 16/16/16 17/17/17
f 15/15/15 18/18/18 16/16/16
f 19/19/19 20/20/20 21/21/21
f 22/22/22 23/23/23 24/24/24
f 22/22/22 25/25/25 23/23/23
f 26/26/26 27/27/27 28/28/28
f 29/29/29 30/30/30 31/31/31
f 29/29/29 32/32/32 30/30/30
f 33/33/33 34/34/34 35/35/35
f 33/33/33 36/36/36 34/34/34
f 37/37/37 38/38/38 39/39/39
f 40/40/40 41/41/41 42/42/42
f 40/40/40 43/43/43 41/41/41
f 43/43/43 44/44/44 41/41/41
f 43/43/43 45/45/45 44/44/44
f 46/46/46 42/42/42 47/47/47
f 46/46/46 40/40/40 42/42/42
f 48/48/48 49/49/49 50/50/50
f 36/36/36 31/31/31 34/34/34
f 51/51/51 52/52/52 53/53/53
f 51/51/51 54/54/54 52/52/52
f 54/54/54 55/55/55 52/52/52
f 54/54/54 56/56/56 55/55/55
f 57/57/57 53/53/53 58/58/58
f 57/57/57 51/51/51 53/53/53
f 59/59/59 60/60/60 61/61/61
f 36/36/36 29/29/29 31/31/31
f 25/25/25 62/62/62 23/23/23
f 25/25/25 63/63/63 62/62/62
f 64/64/64 65/65/65 66/66/66
f 67/67/67 68/68/68 69/69/69
f 67/67/67 70/70/70 68/68/68
f 70/70/70 71/71/71 68/68/68
f 70/70/70 72/72/72 71/71/71
f 73/73/73 69/69/69 74/74/74
f 73/73/73 67/67/67 69/69/69
f 75/75/75 76/76/76 77/77/77
f 64/64/64 78/78/78 65/65/65
f 78/78/78 79/79/79 65/65/65
f 78/78/78 80/80/80 79/79/79
f 81/81/81 66/66/66 82/82/82
f 81/81/81 64/64/64 66/66/66
f 83/83/83 84/84/84 85/85/85
f 63/63/63 86/86/86 62/62/62
f 63/63/63 87/87/87 86/86/86
f 18/18/18 88/88/88 16/16/16
f 18/18/18 89/89/89 88/88/88
f 89/89/89 90/90/90 88/88/88
f 89/89/89 91/91/91 90/90/90
f 92/92/92 93/93/93 94/94/94
f 92/92/92 95/95/95 93/93/93
f 95/95/95 96/96/96 93/93/93
f 95/95/95 97/97/97 96/96/96
f 98/98/98 94/94/94 99/99/99
f 98/98/98 92/92/92 94/94/94
f 100/100/100 101/101/101 102/102/102
f 100/100/100 103/103/103 101/101/101
f 103/103/103 104/104/104 101/101/101
f 103/103/103 105/105/105 104/104/104
f 106/106/106 102/102/102 107/107/107
f 106/106/106 100/100/100 102/102/102
f 108/108/108 109/109/109 110/110/110
f 111/111/111 112/112/112 113/113/113
f 111/111/111 114/114/114 112/112/112
f 114/114/114 115/115/115 112/112/112
f 114/114/114 116/116/116 115/115/115
f 117/117/117 113/113/113 118/118/118
f 117/117/117 111/111/111 113/113/113
f 119/119/119 120/120/120 121/121/121
f 122/122/122 123/123/123 124/124/124
f 122/122/122 125/125/125 123/123/123
f 125/125/125 126/126/126 123/123/123
f 125/125/125 127/127/127 126/126/126
f 128/128/128 124/124/124 129/129/129
f 128/128/128 122/122/122 124/124/124
f 130/130/130 131/131/131 132/132/132
f 133/133/133 134/134/134 135/135/135
f 133/133/133 136/136/136 134/134/134
f 136/136/136 137/137/137 134/134/134
f 136/136/136 138/138/138 137/137/137
f 139/139/139 135/135/135 140/140/140
f 139/139/139 133/133/133 135/135/135
f 141/141/141 142/142/142 143/143/143
f 144/144/144 145/145/145 146/146/146
f 144/144/144 147/147/147 145/145/145
f 147/147/147 148/148/148 145/145/145
f 147/147/147 149/149/149 148/148/148
f 150/150/150 146/146/146 151/151/151
f 150/150/150 144/144/144 146/146/146
f 152/152/152 153/153/153 154/154/154
f 155/155/155 156/156/156 157/157/157
f 155/155/155 158/158/158 156/156/156
f 158/158/158 159/159/159 156/156/156
f 158/158/158 160/160/160 159/159/159
f 161/161/161 157/157/157 162/162/162
f 161/161/161 155/155/155 157/157/157
f 163/163/163 164/164/164 165/165/165
g UpperMesaA021
s 1
f 166/166/166 167/167/167 168/168/168
f 166/166/166 169/169/169 167/167/167
f 169/169/169 170/170/170 167/167/167
f 169/169/169 171/171/171 170/170/170
f 171/171/171 168/168/168 170/170/170
f 171/171/171 166/166/166 168/168/168
f 172/172/172 173/173/173 174/174/174
f 172/172/172 175/175/175 173/173/173
f 175/175/175 176/176/176 173/173/173
f 175/175/175 177/177/177 176/176/176
f 177/177/177 174/174/174 176/176/176
f 177/177/177 172/172/172 174/174/174
f 174/174/174 178/178/178 179/179/179
f 174/174/174 173/173/173 178/178/178
f 173/173/173 180/180/180 178/178/178
f 173/173/173 176/176/176 180/180/180
f 176/176/176 179/179/179 180/180/180
f 176/176/176 174/174/174 179/179/179
f 181/181/181 182/182/182 183/183/183
f 181/181/181 184/184/184 182/182/182
f 184/184/184 185/185/185 182/182/182
f 184/184/184 186/186/186 185/185/185
f 186/186/186 183/183/183 185/185/185
f 186/186/186 181/181/181 183/183/183
f 183/183/183 187/187/187 188/188/188
f 183/183/183 182/182/182 187/187/187
f 182/182/182 189/189/189 187/187/187
f 182/182/182 185/185/185 189/189/189
f 185/185/185 188/188/188 189/189/189
f 185/185/185 183/183/183 188/188/188
f 190/190/190 191/191/191 192/192/192
f 190/190/190 193/193/193 191/191/191
f 193/193/193 194/194/194 191/191/191
f 193/193/193 195/195/195 194/194/194
f 195/195/195 192/192/192 194/194/194
f 195/195/195 190/190/190 192/192/192
f 192/192/192 196/196/196 197/197/197
f 192/192/192 191/191/191 196/196/196
f 191/191/191 198/198/198 196/196/196
f 191/191/191 194/194/194 198/198/198
f 194/194/194 197/197/197 198/198/198
f 194/194/194 192/192/192 197/197/197
f 199/199/199 200/200/200 201/201/201
f 199/199/199 202/202/202 200/200/200
f 202/202/202 203/203/203 200/200/200
f 202/202/202 204/204/204 203/203/203
f 204/204/204 201/201/201 203/203/203
f 204/204/204 199/199/199 201/201/201
f 201/201/201 205/205/205 206/206/206
f 201/201/201 200/200/200 205/205/205
f 200/200/200 207/207/207 205/205/205
f 200/200/200 203/203/203 207/207/207
f 203/203/203 206/206/206 207/207/207
f 203/203/203 201/201/201 206/206/206
f 208/208/208 209/209/209 210/210/210
f 208/208/208 211/211/211 209/209/209
f 211/211/211 212/212/212 209/209/209
f 211/211/211 213/213/213 212/212/212
f 213/213/213 210/210/210 212/212/212
f 213/213/213 208/208/208 210/210/210
f 210/210/210 214/214/214 215/215/215
f 210/210/210 209/209/209 214/214/214
f 209/209/209 216/216/216 214/214/214
f 209/209/209 212/212/212 216/216/216
f 212/212/212 215/215/215 216/216/216
f 212/212/212 210/210/210 215/215/215
f 217/217/217 218/218/218 219/219/219
f 217/217/217 220/220/220 218/218/218
f 220/220/220 221/221/221 218/218/218
f 220/220/220 222/222/222 221/221/221
f 222/222/222 219/219/219 221/221/221
f 222/222/222 217/217/217 219/219/219
f 219/219/219 223/223/223 224/224/224
f 225/225/225 226/226/226 227/227/227
f 225/225/225 228/228/228 226/226/226
f 228/228/228 229/229/229 226/226/226
f 228/228/228 230/230/230 229/229/229
f 230/230/230 227/227/227 229/229/229
f 230/230/230 225/225/225 227/227/227
f 227/227/227 231/231/231 232/232/232
f 227/227/227 226/226/226 231/231/231
f 226/226/226 233/233/233 231/231/231
f 226/226/226 229/229/229 233/233/233
f 229/229/229 232/232/232 233/233/233
f 229/229/229 227/227/227 232/232/232
f 219/219/219 218/218/218 223/223/223
f 218/218/218 234/234/234 223/223/223
f 218/218/218 221/221/221 234/234/234
f 221/221/221 224/224/224 234/234/234
f 221/221/221 219/219/219 224/224/224
f 235/235/235 236/236/236 237/237/237
f 235/235/235 238/238/238 236/236/236
f 239/239/239 240/240/240 241/241/241
f 239/239/239 242/242/242 240/240/240
f 242/242/242 243/243/243 240/240/240
f 242/242/242 244/244/244 243/243/243
f 244/244/244 241/241/241 243/243/243
f 244/244/244 239/239/239 241/241/241
f 241/241/241 245/245/245 246/246/246
f 241/241/241 240/240/240 245/245/245
f 240/240/240 247/247/247 245/245/245
f 240/240/240 243/243/243 247/247/247
f 243/243/243 246/246/246 247/247/247
f 243/243/243 241/241/241 246/246/246
f 238/238/238 248/248/248 236/236/236
f 238/238/238 249/249/249 248/248/248
f 249/249/249 237/237/237 248/248/248
f 249/249/249 235/235/235 237/237/237
f 237/237/237 250/250/250 251/251/251
f 237/237/237 236/236/236 250/250/250
f 236/236/236 252/252/252 250/250/250
f 253/253/253 254/254/254 255/255/255
f 253/253/253 256/256/256 254/254/254
f 256/256/256 257/257/257 254/254/254
f 256/256/256 258/258/258 257/257/257
f 258/258/258 255/255/255 257/257/257
f 258/258/258 253/253/253 255/255/255
f 255/255/255 259/259/259 260/260/260
f 255/255/255 254/254/254 259/259/259
f 254/254/254 261/261/261 259/259/259
f 254/254/254 257/257/257 261/261/261
f 257/257/257 260/260/260 261/261/261
f 257/257/257 255/255/255 260/260/260
f 236/236/236 248/248/248 252/252/252
f 248/248/248 251/251/251 252/252/252
f 248/248/248 237/237/237 251/251/251
f 262/262/262 263/263/263 264/264/264
f 262/262/262 265/265/265 263/263/263
f 265/265/265 266/266/266 263/263/263
f 265/265/265 267/267/267 266/266/266
f 268/268/268 269/269/269 270/270/270
f 268/268/268 271/271/271 269/269/269
f 271/271/271 272/272/272 269/269/269
f 271/271/271 273/273/273 272/272/272
f 273/273/273 270/270/270 272/272/272
f 273/273/273 268/268/268 270/270/270
f 270/270/270 274/274/274 275/275/275
f 270/270/270 269/269/269 274/274/274
f 269/269/269 276/276/276 274/274/274
f 269/269/269 272/272/272 276/276/276
f 272/272/272 275/275/275 276/276/276
f 272/272/272 270/270/270 275/275/275
f 267/267/267 264/264/264 266/266/266
f 267/267/267 262/262/262 264/264/264
f 264/264/264 277/277/277 278/278/278
f 264/264/264 263/263/263 277/277/277
f 263/263/263 279/279/279 277/277/277
f 263/263/263 266/266/266 279/279/279
f 266/266/266 278/278/278 279/279/279
f 280/280/280 281/281/281 282/282/282
f 280/280/280 283/283/283 281/281/281
f 283/283/283 284/284/284 281/281/281
f 283/283/283 285/285/285 284/284/284
f 285/285/285 282/282/282 284/284/284
f 285/285/285 280/280/280 282/282/282
f 282/282/282 286/286/286 287/287/287
f 282/282/282 281/281/281 286/286/286
f 281/281/281 288/288/288 286/286/286
f 281/281/281 284/284/284 288/288/288
f 284/284/284 287/287/287 288/288/288
f 284/284/284 282/282/282 287/287/287
f 266/266/266 264/264/264 278/278/278
f 289/289/289 169/169/169 166/166/166
f 289/289/289 290/290/290 169/169/169
f 290/290/290 171/171/171 169/169/169
f 290/290/290 291/291/291 171/171/171
f 291/291/291 166/166/166 171/171/171
f 291/291/291 289/289/289 166/166/166
