# Exported using wow.export v0.2.19
o uppermesab_UpperMesaB01.obj
v -54.28207015991211 -0.4096504747867584 54.397186279296875
v -54.67708206176758 1.5884634256362915 55.04432678222656
v -54.35588836669922 1.5884634256362915 54.17000198364258
v -54.53524398803711 -0.4096504747867584 54.74565505981445
v -53.582122802734375 1.5884634256362915 55.04432678222656
v -53.8724250793457 -0.4096504747867584 54.74565505981445
v -53.8724250793457 -0.4096504747867584 54.74565505981445
v -53.582122802734375 1.5884634256362915 55.04432678222656
v -54.67708206176758 1.5884634256362915 55.04432678222656
v -53.582122802734375 1.5884634256362915 55.04432678222656
v -54.35588836669922 1.5884634256362915 54.17000198364258
v -60.3782844543457 1.1230618953704834 35.4644660949707
v -59.28669738769531 1.1230618953704834 35.55037307739258
v -59.98947525024414 1.1230618953704834 34.6180305480957
v -63.26464080810547 -0.6182923913002014 22.268207550048828
v -63.6293830871582 1.379821538925171 21.61087989807129
v -63.03666305541992 1.379821538925171 22.61678695678711
v -63.60026931762695 -0.6182923913002014 21.847980499267578
v -64.11150360107422 1.379821538925171 22.407859802246094
v -63.03666305541992 1.379821538925171 22.61678695678711
v -63.6293830871582 1.379821538925171 21.61087989807129
v -64.13956451416016 -0.3919452130794525 8.878605842590332
v -64.3846206665039 1.6061687469482422 8.167928695678711
v -63.9755744934082 1.6061687469482422 9.26147747039795
v -64.3971176147461 -0.3919452130794525 8.406482696533203
v -64.997802734375 1.6061687469482422 8.869078636169434
v -63.9755744934082 1.6061687469482422 9.26147747039795
v -64.3846206665039 1.6061687469482422 8.167928695678711
v -64.46317291259766 -0.4043489098548889 1.824758768081665
v -63.69689178466797 1.5937650203704834 2.465441942214966
v -64.70850372314453 1.5937650203704834 2.0464189052581787
v -63.85080337524414 -0.4043489098548889 2.07840895652771
v -63.85080337524414 -0.4043489098548889 2.07840895652771
v -64.0771713256836 1.5937650203704834 1.361560344696045
v -63.69689178466797 1.5937650203704834 2.465441942214966
v -64.09591674804688 -0.4043489098548889 1.5997047424316406
v -64.70850372314453 1.5937650203704834 2.0464189052581787
v -63.69689178466797 1.5937650203704834 2.465441942214966
v -64.0771713256836 1.5937650203704834 1.361560344696045
v -56.45820617675781 -0.6103493571281433 47.98399353027344
v -56.853214263916016 1.387764573097229 48.63113021850586
v -56.53202438354492 1.387764573097229 47.756805419921875
v -56.71138000488281 -0.6103493571281433 48.33245849609375
v -55.75825881958008 1.387764573097229 48.63113021850586
v -56.048561096191406 -0.6103493571281433 48.33245849609375
v -56.048561096191406 -0.6103493571281433 48.33245849609375
v -55.75825881958008 1.387764573097229 48.63113021850586
v -56.853214263916016 1.387764573097229 48.63113021850586
v -55.75825881958008 1.387764573097229 48.63113021850586
v -56.53202438354492 1.387764573097229 47.756805419921875
v -64.997802734375 1.6061687469482422 8.869078636169434
v -64.75835418701172 -0.3919452130794525 8.641072273254395
v -64.41683197021484 -0.3498733341693878 15.210062980651855
v -64.99676513671875 1.6482406854629517 15.698420524597168
v -64.41474151611328 1.6482406854629517 14.97119140625
v -64.76749420166016 -0.3498733341693878 15.460186958312988
v -63.95838928222656 1.6482406854629517 16.045856475830078
v -64.138916015625 -0.3498733341693878 15.670503616333008
v -64.138916015625 -0.3498733341693878 15.670503616333008
v -63.95838928222656 1.6482406854629517 16.045856475830078
v -64.99676513671875 1.6482406854629517 15.698420524597168
v -63.95838928222656 1.6482406854629517 16.045856475830078
v -64.41474151611328 1.6482406854629517 14.97119140625
v -63.9755744934082 1.6061687469482422 9.26147747039795
v -61.56188201904297 -0.7750628590583801 28.297992706298828
v -61.9568977355957 1.2230510711669922 28.94512939453125
v -61.63570022583008 1.2230510711669922 28.070802688598633
v -61.8150634765625 -0.7750628590583801 28.64645767211914
v -60.8619384765625 1.2230510711669922 28.94512939453125
v -61.15224075317383 -0.7750628590583801 28.64645767211914
v -61.15224075317383 -0.7750628590583801 28.64645767211914
v -60.8619384765625 1.2230510711669922 28.94512939453125
v -61.9568977355957 1.2230510711669922 28.94512939453125
v -60.8619384765625 1.2230510711669922 28.94512939453125
v -61.63570022583008 1.2230510711669922 28.070802688598633
v -64.13956451416016 -0.3919452130794525 8.878605842590332
v -58.50070571899414 -0.7741168141365051 41.50836181640625
v -58.96119689941406 1.2239971160888672 42.11066818237305
v -58.55037307739258 1.2239971160888672 41.27470397949219
v -58.78892135620117 -0.7741168141365051 41.828453063964844
v -57.87223434448242 1.2239971160888672 42.225120544433594
v -58.12972640991211 -0.7741168141365051 41.89773941040039
v -58.12972640991211 -0.7741168141365051 41.89773941040039
v -57.87223434448242 1.2239971160888672 42.225120544433594
v -58.96119689941406 1.2239971160888672 42.11066818237305
v -57.87223434448242 1.2239971160888672 42.225120544433594
v -58.55037307739258 1.2239971160888672 41.27470397949219
v -64.11150360107422 1.379821538925171 22.407859802246094
v -63.915283203125 -0.6182923913002014 22.141735076904297
v -63.03666305541992 1.379821538925171 22.61678695678711
v -63.26464080810547 -0.6182923913002014 22.268207550048828
v -59.93370819091797 -0.8750520348548889 34.850311279296875
v -60.3782844543457 1.1230618953704834 35.4644660949707
v -59.98947525024414 1.1230618953704834 34.6180305480957
v -60.21344757080078 -0.8750520348548889 35.17784118652344
v -59.28669738769531 1.1230618953704834 35.55037307739258
v -59.55267333984375 -0.8750520348548889 35.2298469543457
v -59.55267333984375 -0.8750520348548889 35.2298469543457
v -59.28669738769531 1.1230618953704834 35.55037307739258
v -63.61470413208008 -0.4621526002883911 -5.153375625610352
v -64.2461929321289 1.535961389541626 -4.73380708694458
v -63.58559036254883 1.535961389541626 -5.390475749969482
v -63.99142837524414 -0.4621526002883911 -4.944555282592773
v -63.25382614135742 1.535961389541626 -4.27105712890625
v -63.39070510864258 -0.4621526002883911 -4.664434909820557
v -63.39070510864258 -0.4621526002883911 -4.664434909820557
v -63.25382614135742 1.535961389541626 -4.27105712890625
v -64.2461929321289 1.535961389541626 -4.73380708694458
v -63.25382614135742 1.535961389541626 -4.27105712890625
v -63.58559036254883 1.535961389541626 -5.390475749969482
v -62.82979202270508 -0.21537728607654572 -11.826494216918945
v -63.43449783325195 1.7827366590499878 -11.369155883789062
v -62.81520462036133 1.7827366590499878 -12.064929008483887
v -63.19306182861328 -0.21537728607654572 -11.595064163208008
v -62.41572570800781 1.7827366590499878 -10.967852592468262
v -62.57636260986328 -0.21537728607654572 -11.352139472961426
v -62.57636260986328 -0.21537728607654572 -11.352139472961426
v -62.41572570800781 1.7827366590499878 -10.967852592468262
v -63.43449783325195 1.7827366590499878 -11.369155883789062
v -62.41572570800781 1.7827366590499878 -10.967852592468262
v -62.81520462036133 1.7827366590499878 -12.064929008483887
v -62.29180908203125 -0.3589557111263275 -18.5242919921875
v -63.0103759765625 1.6391582489013672 -18.28246307373047
v -62.20232391357422 1.6391582489013672 -18.745779037475586
v -62.70974349975586 -0.3589557111263275 -18.420089721679688
v -62.17158889770508 1.6391582489013672 -17.578638076782227
v -62.20199203491211 -0.3589557111263275 -17.994037628173828
v -62.20199203491211 -0.3589557111263275 -17.994037628173828
v -62.17158889770508 1.6391582489013672 -17.578638076782227
v -63.0103759765625 1.6391582489013672 -18.28246307373047
v -62.17158889770508 1.6391582489013672 -17.578638076782227
v -62.20232391357422 1.6391582489013672 -18.745779037475586
v -59.56674575805664 -0.5279467701911926 -24.599626541137695
v -60.32154846191406 1.4701671600341797 -24.67097282409668
v -59.39490509033203 1.4701671600341797 -24.765567779541016
v -59.99092483520508 -0.5279467701911926 -24.674421310424805
v -59.841552734375 1.4701671600341797 -23.68682861328125
v -59.70036697387695 -0.5279467701911926 -24.078683853149414
v -59.70036697387695 -0.5279467701911926 -24.078683853149414
v -59.841552734375 1.4701671600341797 -23.68682861328125
v -60.32154846191406 1.4701671600341797 -24.67097282409668
v -59.841552734375 1.4701671600341797 -23.68682861328125
v -59.39490509033203 1.4701671600341797 -24.765567779541016
v -54.7269287109375 -0.574265718460083 -29.29267692565918
v -55.48173522949219 1.423848271369934 -29.364023208618164
v -54.555091857910156 1.423848271369934 -29.4586181640625
v -55.1511116027832 -0.574265718460083 -29.36747169494629
v -55.00173568725586 1.423848271369934 -28.379880905151367
v -54.86054992675781 -0.574265718460083 -28.77173614501953
v -54.86054992675781 -0.574265718460083 -28.77173614501953
v -55.00173568725586 1.423848271369934 -28.379880905151367
v -55.48173522949219 1.423848271369934 -29.364023208618164
v -55.00173568725586 1.423848271369934 -28.379880905151367
v -54.555091857910156 1.423848271369934 -29.4586181640625
v -62.34481430053711 0.6113325357437134 25.9287052154541
v -62.27578353881836 0.657854437828064 25.900331497192383
v -61.30830383300781 1.015884280204773 28.48372459411621
v -61.34438705444336 0.8697032332420349 28.738948822021484
v -60.52825164794922 0.5954497456550598 32.43194580078125
v -60.457275390625 0.5578653216362 32.40403366088867
v -61.45508575439453 0.9348379969596863 28.809961318969727
v -60.5283203125 0.5113433599472046 32.426902770996094
v -61.469482421875 0.7854708433151245 28.745182037353516
v -59.84852600097656 0.9701781868934631 35.041900634765625
v -59.69546890258789 0.9158951640129089 35.05536651611328
v -59.81258773803711 0.8392959833145142 35.164947509765625
v -59.75093078613281 0.9706385135650635 35.36216735839844
v -59.03174591064453 0.6963849663734436 39.075260162353516
v -58.96006393432617 0.658800482749939 39.04921340942383
v -59.86344528198242 1.0357731580734253 35.43025207519531
v -59.03168487548828 0.6122785806655884 39.07021713256836
v -59.87614059448242 0.8864060640335083 35.3651237487793
v -58.42057418823242 1.0711133480072021 41.70211410522461
v -58.26792526245117 1.016830325126648 41.719581604003906
v -58.38787078857422 0.9402311444282532 41.8260612487793
v -64.31006622314453 1.1264629364013672 15.616206169128418
v -63.917236328125 0.8522093892097473 19.377853393554688
v -63.84355545043945 0.8146249651908875 19.358150482177734
v -64.42808532714844 1.191597580909729 15.67422866821289
v -63.9167366027832 0.7681030035018921 19.372833251953125
v -64.43505859375 1.042230486869812 15.608237266540527
v -63.53733444213867 1.2269378900527954 22.047977447509766
v -63.38678741455078 1.1726547479629517 22.078683853149414
v -63.51555633544922 1.0960556268692017 22.174301147460938
v -64.30712890625 1.3948818445205688 8.938956260681152
v -64.40865325927734 1.1206283569335938 12.719696998596191
v -64.3330307006836 1.0830438137054443 12.709781646728516
v -64.43171691894531 1.4600166082382202 8.98107624053955
v -64.40750122070312 1.0365219116210938 12.7147855758667
v -64.43001556396484 1.3106495141983032 8.914741516113281
v -64.38052368164062 1.495356798171997 15.416563034057617
v -64.23526763916016 1.4410737752914429 15.466657638549805
v -64.37541961669922 1.3644746541976929 15.54465103149414
v -64.01399230957031 1.3528099060058594 2.1461293697357178
v -64.28032684326172 1.0785565376281738 5.9188432693481445
v -64.204345703125 1.0409719944000244 5.912235260009766
v -64.14029693603516 1.4179446697235107 2.1827754974365234
v -64.27896881103516 0.994450032711029 5.913987159729004
v -64.13570404052734 1.2685775756835938 2.1165778636932373
v -64.36986541748047 1.4532848596572876 8.614370346069336
v -64.22693634033203 1.3990018367767334 8.67075252532959
v -64.37035369873047 1.3224027156829834 8.742557525634766
v -63.54903793334961 1.3404061794281006 -4.648473739624023
v -63.91404342651367 1.066152811050415 -0.884024441242218
v -63.83790969848633 1.0285682678222656 -0.8886412382125854
v -63.6762580871582 1.4055410623550415 -4.615146160125732
v -63.91255187988281 0.982046365737915 -0.8888433575630188
v -63.66992950439453 1.256173849105835 -4.681200981140137
v -64.07410430908203 1.4408812522888184 1.8082349300384521
v -63.93269729614258 1.3865982294082642 1.8683393001556396
v -64.07794952392578 1.3099991083145142 1.9363651275634766
v -56.16790008544922 1.3351045846939087 48.41534423828125
v -55.06452941894531 1.0608512163162231 52.032920837402344
v -54.9959602355957 1.0232666730880737 51.99952697753906
v -56.272682189941406 1.4002394676208496 48.49481964111328
v -55.06499481201172 0.9767447710037231 52.02790069580078
v -56.292118072509766 1.250872254371643 48.431373596191406
v -54.182125091552734 1.4355796575546265 54.58150100708008
v -54.02848434448242 1.3812966346740723 54.582916259765625
v -62.79581069946289 1.2826027870178223 -11.371752738952637
v -63.32467269897461 1.0083491802215576 -7.62680721282959
v -63.2484130859375 0.9707648158073425 -7.62809944152832
v -62.92436599731445 1.347737431526184 -11.344006538391113
v -63.32297134399414 0.9242428541183472 -7.631556987762451
v -62.9151611328125 1.198370337486267 -11.409722328186035
v -63.60201644897461 1.383077621459961 -4.944092273712158
v -63.46337127685547 1.3287945985794067 -4.877877235412598
v -63.6114501953125 1.2521953582763672 -4.8162522315979
v -54.13664627075195 1.3046975135803223 54.70134735107422
v -58.34403610229492 1.1344059705734253 42.00215148925781
v -57.24066162109375 0.8601524829864502 45.619728088378906
v -57.17210006713867 0.8225679993629456 45.58633041381836
v -58.44881057739258 1.1995407342910767 42.08162307739258
v -62.39204788208008 1.529377818107605 -18.083263397216797
v -62.69129943847656 1.2551244497299194 -14.313018798828125
v -62.61526107788086 1.21753990650177 -14.318963050842285
v -62.5186653137207 1.5945125818252563 -18.04772186279297
v -62.68988800048828 1.1710180044174194 -14.317862510681152
v -62.51349639892578 1.4451454877853394 -18.113876342773438
v -62.80435562133789 1.6298528909683228 -11.618374824523926
v -62.66191864013672 1.575569748878479 -11.560748100280762
v -62.80596160888672 1.498970627784729 -11.49019718170166
v -57.24113082885742 0.776046097278595 45.61470413208008
v -58.4682502746582 1.0501735210418701 42.0181770324707
v -56.35826110839844 1.2348809242248535 48.16830825805664
v -56.20461654663086 1.1805979013442993 48.16972351074219
v -56.31277847290039 1.1039986610412598 48.28815460205078
v -59.89137649536133 1.3857994079589844 -24.318838119506836
v -61.37147903442383 1.1115460395812988 -20.838376998901367
v -61.29749298095703 1.0739614963531494 -20.819889068603516
v -60.02273178100586 1.4509341716766357 -24.325307846069336
v -61.36861038208008 1.0274395942687988 -20.8425235748291
v -59.99684143066406 1.3015670776367188 -24.386404037475586
v -62.33372116088867 1.4862743616104126 -18.318857192993164
v -62.21693420410156 1.4319913387298584 -18.219013214111328
v -62.37591552734375 1.3553922176361084 -18.197811126708984
v -63.44771957397461 0.9696924686431885 22.316150665283203
v -62.3443489074707 0.6954389214515686 25.93372917175293
v -63.55249786376953 1.0348271131515503 22.3956241607666
v -63.57193374633789 0.8854600191116333 22.332178115844727
v -55.01699447631836 1.216808557510376 -28.916866302490234
v -57.78477096557617 0.9425550103187561 -26.339319229125977
v -57.72468948364258 0.9049705862998962 -26.292333602905273
v -55.134361267089844 1.2819432020187378 -28.97620391845703
v -57.78045654296875 0.8584486246109009 -26.34193992614746
v -55.08585739135742 1.1325761079788208 -29.021484375
v -59.6885986328125 1.3172833919525146 -24.428997039794922
v -59.62251663208008 1.2630003690719604 -24.290285110473633
v -59.77637481689453 1.186401128768921 -24.335580825805664
v -61.46194839477539 1.0701673030853271 28.48230743408203
v -61.41646194458008 0.9392850995063782 28.602155685424805
v -50.17717361450195 0.4947093427181244 -33.60991668701172
v -52.944950103759766 0.6072915196418762 -31.032373428344727
v -52.8848762512207 0.568625271320343 -30.98538589477539
v -50.29454040527344 0.5642639994621277 -33.669254302978516
v -52.940635681152344 0.5226817727088928 -31.03499412536621
v -50.246036529541016 0.4081096649169922 -33.714534759521484
v -54.84877395629883 1.257866621017456 -29.12204933166504
v -54.78269577026367 1.2085782289505005 -28.98333740234375
v -54.93655776977539 1.1400822401046753 -29.028635025024414
vn -0.5437344908714294 -0.052393827587366104 -0.8376202583312988
vn -0.9068340063095093 0.4204230010509491 0.02994389645755291
vn 0.2279311716556549 0.42374828457832336 -0.8766326308250427
vn -0.8881934285163879 -0.12896732985973358 0.44099876284599304
vn 0.638157308101654 0.7179288268089294 0.2780889868736267
vn 0.944257378578186 -0.14894132316112518 -0.2935889959335327
vn 0.944257378578186 -0.14894132316112518 -0.2935889959335327
vn 0.638157308101654 0.7179288268089294 0.2780889868736267
vn -0.9068340063095093 0.4204230010509491 0.02994389645755291
vn 0.638157308101654 0.7179288268089294 0.2780889868736267
vn 0.2279311716556549 0.42374828457832336 -0.8766326308250427
vn -0.9063872694969177 0.4204237461090088 -0.04130429029464722
vn 0.6143727898597717 0.717926561832428 0.32730337977409363
vn 0.29601380228996277 0.423747181892395 -0.856045663356781
vn 0.9829282760620117 -0.1489419788122177 -0.10801967233419418
vn 0.3910146653652191 0.42374783754348755 -0.8170344233512878
vn 0.5733713507652283 0.7179273962974548 0.39474746584892273
vn -0.3739149868488312 -0.05239380523562431 -0.925981879234314
vn -0.8958855271339417 0.4204235076904297 -0.14364247024059296
vn 0.5733713507652283 0.7179273962974548 0.39474746584892273
vn 0.3910146653652191 0.42374783754348755 -0.8170344233512878
vn 0.9867530465126038 -0.14894118905067444 0.06430336087942123
vn 0.5269496440887451 0.4237483739852905 -0.7367234230041504
vn 0.4961126744747162 0.7179290652275085 0.4883134663105011
vn -0.20744088292121887 -0.052393246442079544 -0.9768434762954712
vn -0.8573324084281921 0.4204237759113312 -0.29702699184417725
vn 0.4961126744747162 0.7179290652275085 0.4883134663105011
vn 0.5269496440887451 0.4237483739852905 -0.7367234230041504
vn -0.9893469214439392 -0.1289663314819336 0.06753038614988327
vn 0.4831605851650238 0.717927873134613 0.5011340975761414
vn -0.8492630124092102 0.42042428255081177 -0.3193677067756653
vn 0.9847313761711121 -0.14894384145736694 0.09011037647724152
vn 0.9847313761711121 -0.14894384145736694 0.09011037647724152
vn 0.5460537672042847 0.4237469434738159 -0.7226781845092773
vn 0.4831605851650238 0.717927873134613 0.5011340975761414
vn -0.18179984390735626 -0.05239385366439819 -0.9819387197494507
vn -0.8492630124092102 0.42042428255081177 -0.3193677067756653
vn 0.4831605851650238 0.717927873134613 0.5011340975761414
vn 0.5460537672042847 0.4237469434738159 -0.7226781845092773
vn -0.5437344908714294 -0.052393827587366104 -0.8376202583312988
vn -0.9068340063095093 0.4204230010509491 0.02994389645755291
vn 0.2279311716556549 0.42374828457832336 -0.8766326308250427
vn -0.8881934285163879 -0.12896732985973358 0.44099876284599304
vn 0.638157308101654 0.7179288268089294 0.2780889868736267
vn 0.944257378578186 -0.14894132316112518 -0.2935889959335327
vn 0.944257378578186 -0.14894132316112518 -0.2935889959335327
vn 0.638157308101654 0.7179288268089294 0.2780889868736267
vn -0.9068340063095093 0.4204230010509491 0.02994389645755291
vn 0.638157308101654 0.7179288268089294 0.2780889868736267
vn 0.2279311716556549 0.42374828457832336 -0.8766326308250427
vn -0.8573324084281921 0.4204237759113312 -0.29702699184417725
vn -0.9872403144836426 -0.12896615266799927 0.09340380877256393
vn -0.24985463917255402 -0.05239426717162132 -0.9668647646903992
vn -0.8694718480110168 0.4204246699810028 -0.2593488097190857
vn 0.4943079948425293 0.4237460494041443 -0.7590118050575256
vn -0.9822260737419128 -0.1289667934179306 0.1363799273967743
vn 0.5169406533241272 0.7179287672042847 0.4662087857723236
vn 0.9886184334754944 -0.14894428849220276 0.021192990243434906
vn 0.9886184334754944 -0.14894428849220276 0.021192990243434906
vn 0.5169406533241272 0.7179287672042847 0.4662087857723236
vn -0.8694718480110168 0.4204246699810028 -0.2593488097190857
vn 0.5169406533241272 0.7179287672042847 0.4662087857723236
vn 0.4943079948425293 0.4237460494041443 -0.7590118050575256
vn 0.4961126744747162 0.7179290652275085 0.4883134663105011
vn -0.5437275767326355 -0.05239276960492134 -0.8376247882843018
vn -0.9068326950073242 0.4204263389110565 0.029936373233795166
vn 0.22793340682983398 0.423747181892395 -0.876632571220398
vn -0.8881970047950745 -0.1289650797843933 0.440992146730423
vn 0.6381582617759705 0.7179273366928101 0.27809059619903564
vn 0.9442580938339233 -0.1489422619342804 -0.2935861647129059
vn 0.9442580938339233 -0.1489422619342804 -0.2935861647129059
vn 0.6381582617759705 0.7179273366928101 0.27809059619903564
vn -0.9068326950073242 0.4204263389110565 0.029936373233795166
vn 0.6381582617759705 0.7179273366928101 0.27809059619903564
vn 0.22793340682983398 0.423747181892395 -0.876632571220398
vn 0.9867530465126038 -0.14894118905067444 0.06430336087942123
vn -0.45319902896881104 -0.052392564713954926 -0.8898683190345764
vn -0.9049955010414124 0.42042431235313416 -0.06501185148954391
vn 0.3183128535747528 0.4237481653690338 -0.8480061292648315
vn -0.929426372051239 -0.12896595895290375 0.3457374572753906
vn 0.6055930256843567 0.7179296016693115 0.34326985478401184
vn 0.9697721600532532 -0.14894165098667145 -0.19328303635120392
vn 0.9697721600532532 -0.14894165098667145 -0.19328303635120392
vn 0.6055930256843567 0.7179296016693115 0.34326985478401184
vn -0.9049955010414124 0.42042431235313416 -0.06501185148954391
vn 0.6055930256843567 0.7179296016693115 0.34326985478401184
vn 0.3183128535747528 0.4237481653690338 -0.8480061292648315
vn -0.8958855271339417 0.4204235076904297 -0.14364247024059296
vn -0.9560222029685974 -0.12896834313869476 0.26341745257377625
vn 0.5733713507652283 0.7179273962974548 0.39474746584892273
vn 0.9829282760620117 -0.1489419788122177 -0.10801967233419418
vn -0.4763329327106476 -0.0523940734565258 -0.8777025938034058
vn -0.9063872694969177 0.4204237461090088 -0.04130429029464722
vn 0.29601380228996277 0.423747181892395 -0.856045663356781
vn -0.9200571775436401 -0.12896886467933655 0.3699483573436737
vn 0.6143727898597717 0.717926561832428 0.32730337977409363
vn 0.9643826484680176 -0.14894196391105652 -0.21859188377857208
vn 0.9643826484680176 -0.14894196391105652 -0.21859188377857208
vn 0.6143727898597717 0.717926561832428 0.32730337977409363
vn -0.13879665732383728 -0.05239366739988327 -0.9889339804649353
vn -0.8345243334770203 0.42042458057403564 -0.35610711574554443
vn 0.5770544409751892 0.42374685406684875 -0.6981739401817322
vn -0.9913510084152222 -0.12896546721458435 0.02431163750588894
vn 0.460841566324234 0.7179290652275085 0.5217307209968567
vn 0.9798640608787537 -0.14894385635852814 0.13297422230243683
vn 0.9798640608787537 -0.14894385635852814 0.13297422230243683
vn 0.460841566324234 0.7179290652275085 0.5217307209968567
vn -0.8345243334770203 0.42042458057403564 -0.35610711574554443
vn 0.460841566324234 0.7179290652275085 0.5217307209968567
vn 0.5770544409751892 0.42374685406684875 -0.6981739401817322
vn -0.1989118903875351 -0.05239543318748474 -0.9786157608032227
vn -0.8547084927558899 0.42042264342308044 -0.304496705532074
vn 0.5333567261695862 0.4237462878227234 -0.7320995330810547
vn -0.9880169034004211 -0.12896983325481415 0.08479032665491104
vn 0.49183377623558044 0.7179269790649414 0.49262598156929016
vn 0.9861541390419006 -0.14894427359104156 0.0729081928730011
vn 0.9861541390419006 -0.14894427359104156 0.0729081928730011
vn 0.49183377623558044 0.7179269790649414 0.49262598156929016
vn -0.8547084927558899 0.42042264342308044 -0.304496705532074
vn 0.49183377623558044 0.7179269790649414 0.49262598156929016
vn 0.5333567261695862 0.4237462878227234 -0.7320995330810547
vn 0.12188848853111267 -0.052393294870853424 -0.991159975528717
vn -0.7139215469360352 0.4204241931438446 -0.5599638819694519
vn 0.738093376159668 0.4237481355667114 -0.525029182434082
vn -0.9638637900352478 -0.12896546721458435 -0.23309771716594696
vn 0.3101045489311218 0.7179293632507324 0.623227596282959
vn 0.9120588302612305 -0.14894169569015503 0.3820537030696869
vn 0.9120588302612305 -0.14894169569015503 0.3820537030696869
vn 0.3101045489311218 0.7179293632507324 0.623227596282959
vn -0.7139215469360352 0.4204241931438446 -0.5599638819694519
vn 0.3101045489311218 0.7179293632507324 0.623227596282959
vn 0.738093376159668 0.4237481355667114 -0.525029182434082
vn 0.5144919157028198 -0.052395325154066086 -0.8558930158615112
vn -0.424440860748291 0.42042306065559387 -0.8019316792488098
vn 0.8878312110900879 0.4237464368343353 -0.1794288158416748
vn -0.785722553730011 -0.1289665400981903 -0.6049857139587402
vn 0.029801996424794197 0.717928946018219 0.6954781413078308
vn 0.6778119206428528 -0.14894527196884155 0.7199904918670654
vn 0.6778119206428528 -0.14894527196884155 0.7199904918670654
vn 0.029801996424794197 0.717928946018219 0.6954781413078308
vn -0.424440860748291 0.42042306065559387 -0.8019316792488098
vn 0.029801996424794197 0.717928946018219 0.6954781413078308
vn 0.8878312110900879 0.4237464368343353 -0.1794288158416748
vn 0.5144920945167542 -0.05239444226026535 -0.8558929562568665
vn -0.42444077134132385 0.4204232394695282 -0.801931619644165
vn 0.8878307938575745 0.42374709248542786 -0.17942926287651062
vn -0.7857233285903931 -0.1289680004119873 -0.6049844026565552
vn 0.02980407327413559 0.7179281115531921 0.6954789161682129
vn 0.6778125166893005 -0.14894387125968933 0.7199901938438416
vn 0.6778125166893005 -0.14894387125968933 0.7199901938438416
vn 0.02980407327413559 0.7179281115531921 0.6954789161682129
vn -0.42444077134132385 0.4204232394695282 -0.801931619644165
vn 0.02980407327413559 0.7179281115531921 0.6954789161682129
vn 0.8878307938575745 0.42374709248542786 -0.17942926287651062
vn 0.029698465019464493 -0.9995028376579285 0.010588452219963074
vn 0.9416559338569641 0.05860893800854683 -0.3314349949359894
vn 0.9314130544662476 0.06796684861183167 -0.35756152868270874
vn 0.970911979675293 0.06967217475175858 -0.22907567024230957
vn -0.07224830985069275 0.9973419308662415 -0.009445802308619022
vn 0.9647570252418518 0.05861225351691246 -0.25653156638145447
vn -0.47986552119255066 0.8535870909690857 0.20277614891529083
vn 0.028772782534360886 -0.999502956867218 0.012883959338068962
vn -0.48151087760925293 -0.874520480632782 0.057975511997938156
vn -0.5745174288749695 0.8179100751876831 0.030868543311953545
vn 0.9565961956977844 0.06796310096979141 -0.2833809554576874
vn -0.43989327549934387 -0.8709433674812317 0.21897847950458527
vn 0.976575493812561 0.06967809051275253 -0.20358102023601532
vn -0.07197315245866776 0.9973421692848206 -0.011332486756145954
vn 0.9711425304412842 0.05860256403684616 -0.23118796944618225
vn -0.4849885106086731 0.8535997271537781 0.19014111161231995
vn 0.02841866947710514 -0.9995030760765076 0.013636235147714615
vn -0.4828703701496124 -0.8745166659355164 0.04535199701786041
vn -0.5751236081123352 0.8179135918617249 0.015816783532500267
vn 0.9636867642402649 0.06796237826347351 -0.25824210047721863
vn -0.4454784393310547 -0.8709415793418884 0.20738793909549713
vn 0.9906021952629089 0.06968371570110321 -0.11769221723079681
vn -0.07072858512401581 0.997340977191925 -0.01756182312965393
vn 0.9875964522361755 0.05860293656587601 -0.1456674337387085
vn -0.4997257590293884 0.8535931706428528 0.1471489816904068
vn 0.027119707316160202 -0.9995031952857971 0.016059404239058495
vn -0.48498883843421936 -0.8745148777961731 0.003095385152846575
vn -0.5743177533149719 0.8179107904434204 -0.03436687961220741
vn 0.9825267195701599 0.06796339899301529 -0.17326907813549042
vn -0.4618525207042694 -0.8709445595741272 0.16777303814888
vn 0.9974897503852844 0.0696781724691391 0.012613295577466488
vn -0.06782149523496628 0.9973416924476624 -0.02664296329021454
vn 0.9981606602668762 0.0586053766310215 -0.015514585189521313
vn -0.5146589875221252 0.8535921573638916 0.08066331595182419
vn 0.024796273559331894 -0.9995030760765076 0.01946282759308815
vn -0.48123684525489807 -0.874518632888794 -0.06023470312356949
vn -0.5649140477180481 0.8179137706756592 -0.10903742164373398
vn 0.9967374205589294 0.0679611936211586 -0.043540406972169876
vn -0.4798046350479126 -0.8709421157836914 0.1060534417629242
vn 0.9959904551506042 0.06967520713806152 0.05611081048846245
vn -0.06658811122179031 0.9973421692848206 -0.029573019593954086
vn 0.9978876113891602 0.058601051568984985 0.02803960070014
vn -0.5176685452461243 0.8536036014556885 0.05813901871442795
vn 0.02391776069998741 -0.9995031356811523 0.020527532324194908
vn -0.47816455364227295 -0.8745114803314209 -0.0811687633395195
vn -0.5596359372138977 0.8179028630256653 -0.1335756480693817
vn 0.9976876378059387 0.06796591728925705 -0.00002227552977274172
vn -0.4839622974395752 -0.8709486722946167 0.08502309024333954
vn 0.9941791892051697 0.06969098746776581 0.08216416090726852
vn -0.06580322980880737 0.9973412752151489 -0.03130936995148659
vn 0.99681156873703 0.05860317870974541 0.05415115877985954
vn -0.519023597240448 0.8535972833633423 0.044566810131073
vn 0.02337098866701126 -0.9995032548904419 0.021144699305295944
vn -0.4758625030517578 -0.8745187520980835 -0.09365788102149963
vn -0.5559414029121399 0.8179073929786682 -0.14817780256271362
vn 0.9973465204238892 0.06796342134475708 0.026093097403645515
vn -0.4860284626483917 -0.8709450364112854 0.07232625782489777
vn 0.9499456286430359 0.06967247277498245 -0.30454719066619873
vn -0.07275484502315521 0.9973428249359131 -0.0037483114283531904
vn 0.9416564106941223 0.05860316753387451 -0.3314345180988312
vn -0.46244868636131287 0.8536044359207153 0.23979304730892181
vn 0.029689455404877663 -0.9995030760765076 0.010591783560812473
vn -0.4754883646965027 -0.8745144009590149 0.0955793634057045
vn -0.5703340172767639 0.8179031610488892 0.07585209608078003
vn 0.9314132332801819 0.0679657980799675 -0.35756126046180725
vn 0.9896492958068848 0.0696854367852211 0.1254519671201706
vn -0.06437612324953079 0.9973411560058594 -0.034150879830121994
vn 0.9935005903244019 0.0586056113243103 0.09758073091506958
vn -0.5204855799674988 0.8535900115966797 0.021882925182580948
vn 0.022432878613471985 -0.9995030760765076 0.022144081071019173
vn -0.4713197946548462 -0.8745212554931641 -0.11432508379220963
vn -0.5489369630813599 0.8179154396057129 -0.17228619754314423
vn 0.995259165763855 0.06796074658632278 0.0695737972855568
vn -0.4887273609638214 -0.8709413409233093 0.051056262105703354
vn -0.4213493764400482 -0.8709478974342346 0.2528131604194641
vn 0.9499460458755493 0.06966974586248398 -0.30454662442207336
vn -0.07274032384157181 0.9973438382148743 -0.0037536192685365677
vn 0.9416559338569641 0.05860816314816475 -0.33143508434295654
vn -0.46244433522224426 0.8536072373390198 0.23979134857654572
vn 0.9954626560211182 0.06967782974243164 0.06480028480291367
vn -0.06632648408412933 0.9973421096801758 -0.03015732206404209
vn 0.9976039528846741 0.058618612587451935 0.036744896322488785
vn -0.5181779861450195 0.8535905480384827 0.05361689254641533
vn 0.02375061623752117 -0.9995028972625732 0.020733192563056946
vn -0.4774259626865387 -0.874518096446991 -0.085337795317173
vn -0.5584504008293152 0.8179019093513489 -0.13845431804656982
vn 0.9976499080657959 0.06796492636203766 0.008684483356773853
vn -0.4846903681755066 -0.8709461092948914 0.08079703152179718
vn 0.029698610305786133 -0.9995028376579285 0.010588891804218292
vn -0.4754810333251953 -0.8745187520980835 0.09557610005140305
vn -0.5703340768814087 0.8179031610488892 0.07585178315639496
vn 0.9314130544662476 0.06796594709157944 -0.3575616776943207
vn -0.4213491678237915 -0.8709480166435242 0.25281310081481934
vn 0.923460841178894 0.06965575367212296 0.37731701135635376
vn -0.05330630764365196 0.9973441362380981 -0.04962915554642677
vn 0.9343925714492798 0.058607254177331924 0.3513910472393036
vn -0.5083924531936646 0.8536043167114258 -0.11356408149003983
vn 0.015944670885801315 -0.9995027780532837 0.027202751487493515
vn -0.42567703127861023 -0.874517560005188 -0.23241792619228363
vn -0.485657274723053 0.8179032206535339 -0.3084985613822937
vn 0.9433396458625793 0.06796624511480331 0.32479363679885864
vn -0.48527586460113525 -0.8709487915039062 -0.07717207074165344
vn 0.9499459862709045 0.06967046856880188 -0.3045465648174286
vn -0.07274369895458221 0.9973435997962952 -0.0037529875990003347
vn -0.46244701743125916 0.8536056280136108 0.23979200422763824
vn -0.4754810333251953 -0.8745187520980835 0.09557610005140305
vn 0.690153181552887 0.06967966258525848 0.7203008532524109
vn -0.02853696420788765 0.9973412156105042 -0.06705345958471298
vn 0.7106857299804688 0.058612458407878876 0.7010637521743774
vn -0.41826778650283813 0.8535872101783752 -0.31054940819740295
vn 0.0035049146972596645 -0.9995028972625732 0.031331609934568405
vn -0.2943406403064728 -0.8745189905166626 -0.38546091318130493
vn -0.318200021982193 0.8178979754447937 -0.47936585545539856
vn 0.7296778559684753 0.06797044724225998 0.6804044842720032
vn -0.411925733089447 -0.8709554076194763 -0.26786914467811584
vn -0.5703403949737549 0.8178985118865967 0.07585407048463821
vn -0.42134302854537964 -0.8709515929222107 0.2528109848499298
vn 0.6952753067016602 0.06986533105373383 0.7153398394584656
vn 0.041178468614816666 0.9894811511039734 -0.1386774182319641
vn 0.7143945693969727 0.05593906342983246 0.6975035667419434
vn -0.35544517636299133 0.8577995896339417 -0.3712662160396576
vn -0.07094407081604004 -0.9925183653831482 0.0993691012263298
vn -0.3578590154647827 -0.8763537406921387 -0.32239893078804016
vn -0.2636386752128601 0.8011018633842468 -0.5373364686965942
vn 0.7338191270828247 0.0626935213804245 0.6764459013938904
vn -0.47486820816993713 -0.8546733856201172 -0.20984183251857758
vt 0.5 -0.24600005149841309
vt 0.75 0.3400000333786011
vt 0.5 0.3400000333786011
vt 0.75 -0.24600005149841309
vt 0.5 0.3400000333786011
vt 0.5 -0.24600005149841309
vt 0.75 -0.24600005149841309
vt 0.75 0.3400000333786011
vt 0.75 0.5
vt 0.875 0
vt 0.9995004534721375 0.5
vt 0.75 0.5
vt 0.875 0
vt 0.9995004534721375 0.5
vt 0.75 -0.24600005149841309
vt 0.5 0.3400000333786011
vt 0.75 0.3400000333786011
vt 0.5 -0.24600005149841309
vt 0.75 0.5
vt 0.875 0
vt 0.9995004534721375 0.5
vt 0.75 -0.24600005149841309
vt 0.5 0.3400000333786011
vt 0.75 0.3400000333786011
vt 0.5 -0.24600005149841309
vt 0.75 0.5
vt 0.875 0
vt 0.9995004534721375 0.5
vt 0.75 -0.24600005149841309
vt 0.5 0.3400000333786011
vt 0.75 0.3400000333786011
vt 0.5 -0.24600005149841309
vt 0.75 -0.24600005149841309
vt 0.5 0.3400000333786011
vt 0.75 0.3400000333786011
vt 0.5 -0.24600005149841309
vt 0.75 0.5
vt 0.875 0
vt 0.9995004534721375 0.5
vt 0.5 -0.24600005149841309
vt 0.75 0.3400000333786011
vt 0.5 0.3400000333786011
vt 0.75 -0.24600005149841309
vt 0.5 0.3400000333786011
vt 0.5 -0.24600005149841309
vt 0.75 -0.24600005149841309
vt 0.75 0.3400000333786011
vt 0.75 0.5
vt 0.875 0
vt 0.9995004534721375 0.5
vt 0.75 0.3400000333786011
vt 0.75 -0.24600005149841309
vt 0.5 -0.24600005149841309
vt 0.75 0.3400000333786011
vt 0.5 0.3400000333786011
vt 0.75 -0.24600005149841309
vt 0.5 0.3400000333786011
vt 0.5 -0.24600005149841309
vt 0.75 -0.24600005149841309
vt 0.75 0.3400000333786011
vt 0.75 0.5
vt 0.875 0
vt 0.9995004534721375 0.5
vt 0.5 0.3400000333786011
vt 0.5 -0.24600005149841309
vt 0.75 0.3400000333786011
vt 0.5 0.3400000333786011
vt 0.75 -0.24600005149841309
vt 0.5 0.3400000333786011
vt 0.5 -0.24600005149841309
vt 0.75 -0.24600005149841309
vt 0.75 0.3400000333786011
vt 0.75 0.5
vt 0.875 0
vt 0.9995004534721375 0.5
vt 0.5 -0.24600005149841309
vt 0.5 -0.24600005149841309
vt 0.75 0.3400000333786011
vt 0.5 0.3400000333786011
vt 0.75 -0.24600005149841309
vt 0.5 0.3400000333786011
vt 0.5 -0.24600005149841309
vt 0.75 -0.24600005149841309
vt 0.75 0.3400000333786011
vt 0.75 0.5
vt 0.875 0
vt 0.9995004534721375 0.5
vt 0.75 0.3400000333786011
vt 0.75 -0.24600005149841309
vt 0.5 0.3400000333786011
vt 0.5 -0.24600005149841309
vt 0.5 -0.24600005149841309
vt 0.75 0.3400000333786011
vt 0.5 0.3400000333786011
vt 0.75 -0.24600005149841309
vt 0.5 0.3400000333786011
vt 0.5 -0.24600005149841309
vt 0.75 -0.24600005149841309
vt 0.75 0.3400000333786011
vt 0.5 -0.24600005149841309
vt 0.75 0.3400000333786011
vt 0.5 0.3400000333786011
vt 0.75 -0.24600005149841309
vt 0.5 0.3400000333786011
vt 0.5 -0.24600005149841309
vt 0.75 -0.24600005149841309
vt 0.75 0.3400000333786011
vt 0.75 0.5
vt 0.875 0
vt 0.9995004534721375 0.5
vt 0.5 -0.24600005149841309
vt 0.75 0.3400000333786011
vt 0.5 0.3400000333786011
vt 0.75 -0.24600005149841309
vt 0.5 0.3400000333786011
vt 0.5 -0.24600005149841309
vt 0.75 -0.24600005149841309
vt 0.75 0.3400000333786011
vt 0.75 0.5
vt 0.875 0
vt 0.9995004534721375 0.5
vt 0.5 -0.24600005149841309
vt 0.75 0.3400000333786011
vt 0.5 0.3400000333786011
vt 0.75 -0.24600005149841309
vt 0.5 0.3400000333786011
vt 0.5 -0.24600005149841309
vt 0.75 -0.24600005149841309
vt 0.75 0.3400000333786011
vt 0.75 0.5
vt 0.875 0
vt 0.9995004534721375 0.5
vt 0.5 -0.24600005149841309
vt 0.75 0.3400000333786011
vt 0.5 0.3400000333786011
vt 0.75 -0.24600005149841309
vt 0.5 0.3400000333786011
vt 0.5 -0.24600005149841309
vt 0.75 -0.24600005149841309
vt 0.75 0.3400000333786011
vt 0.75 0.5
vt 0.875 0
vt 0.9995004534721375 0.5
vt 0.5 -0.24600005149841309
vt 0.75 0.3400000333786011
vt 0.5 0.3400000333786011
vt 0.75 -0.24600005149841309
vt 0.5 0.3400000333786011
vt 0.5 -0.24600005149841309
vt 0.75 -0.24600005149841309
vt 0.75 0.3400000333786011
vt 0.75 0.5
vt 0.875 0
vt 0.9995004534721375 0.5
vt 0.75 1.5
vt 0.9396135210990906 1.5
vt 0.9396135210990906 4.701643943786621
vt 0.9396135210990906 -2.614053726196289
vt 0.5966183543205261 1.5
vt 0.9396135210990906 1.5
vt 0.5966183543205261 -2.614053726196289
vt 0.75 1.5
vt 0.75 -2.614053726196289
vt 0.5966183543205261 4.701643943786621
vt 0.9396135210990906 4.701643943786621
vt 0.75 4.701643943786621
vt 0.9396135210990906 -2.614053726196289
vt 0.5966183543205261 1.5
vt 0.9396135210990906 1.5
vt 0.5966183543205261 -2.614053726196289
vt 0.75 1.5
vt 0.75 -2.614053726196289
vt 0.5966183543205261 4.701643943786621
vt 0.9396135210990906 4.701643943786621
vt 0.75 4.701643943786621
vt 0.9396135210990906 -2.614053726196289
vt 0.5966183543205261 1.5
vt 0.9396135210990906 1.5
vt 0.5966183543205261 -2.614053726196289
vt 0.75 1.5
vt 0.75 -2.614053726196289
vt 0.5966183543205261 4.701643943786621
vt 0.9396135210990906 4.701643943786621
vt 0.75 4.701643943786621
vt 0.9396135210990906 -2.614053726196289
vt 0.5966183543205261 1.5
vt 0.9396135210990906 1.5
vt 0.5966183543205261 -2.614053726196289
vt 0.75 1.5
vt 0.75 -2.614053726196289
vt 0.5966183543205261 4.701643943786621
vt 0.9396135210990906 4.701643943786621
vt 0.75 4.701643943786621
vt 0.9396135210990906 -2.614053726196289
vt 0.5966183543205261 1.5
vt 0.9396135210990906 1.5
vt 0.5966183543205261 -2.614053726196289
vt 0.75 1.5
vt 0.75 -2.614053726196289
vt 0.5966183543205261 4.701643943786621
vt 0.9396135210990906 4.701643943786621
vt 0.75 4.701643943786621
vt 0.9396135210990906 -2.614053726196289
vt 0.5966183543205261 1.5
vt 0.9396135210990906 1.5
vt 0.5966183543205261 -2.614053726196289
vt 0.75 1.5
vt 0.75 -2.614053726196289
vt 0.5966183543205261 4.701643943786621
vt 0.9396135210990906 4.701643943786621
vt 0.75 4.701643943786621
vt 0.9396135210990906 -2.614053726196289
vt 0.5966183543205261 1.5
vt 0.9396135210990906 1.5
vt 0.5966183543205261 -2.614053726196289
vt 0.75 1.5
vt 0.75 -2.614053726196289
vt 0.5966183543205261 4.701643943786621
vt 0.9396135210990906 4.701643943786621
vt 0.9396135210990906 -2.614053726196289
vt 0.5966183543205261 1.5
vt 0.9396135210990906 1.5
vt 0.5966183543205261 -2.614053726196289
vt 0.75 1.5
vt 0.75 -2.614053726196289
vt 0.5966183543205261 4.701643943786621
vt 0.9396135210990906 4.701643943786621
vt 0.75 4.701643943786621
vt 0.75 4.701643943786621
vt 0.9396135210990906 -2.614053726196289
vt 0.5966183543205261 1.5
vt 0.9396135210990906 1.5
vt 0.5966183543205261 -2.614053726196289
vt 0.9396135210990906 -2.614053726196289
vt 0.5966183543205261 1.5
vt 0.9396135210990906 1.5
vt 0.5966183543205261 -2.614053726196289
vt 0.75 1.5
vt 0.75 -2.614053726196289
vt 0.5966183543205261 4.701643943786621
vt 0.9396135210990906 4.701643943786621
vt 0.75 4.701643943786621
vt 0.75 1.5
vt 0.75 -2.614053726196289
vt 0.5966183543205261 4.701643943786621
vt 0.9396135210990906 4.701643943786621
vt 0.75 4.701643943786621
vt 0.9396135210990906 -2.614053726196289
vt 0.5966183543205261 1.5
vt 0.9396135210990906 1.5
vt 0.5966183543205261 -2.614053726196289
vt 0.75 1.5
vt 0.75 -2.614053726196289
vt 0.5966183543205261 4.701643943786621
vt 0.9396135210990906 4.701643943786621
vt 0.75 4.701643943786621
vt 0.9396135210990906 -2.614053726196289
vt 0.5966183543205261 1.5
vt 0.5966183543205261 -2.614053726196289
vt 0.75 -2.614053726196289
vt 0.9396135210990906 -2.614053726196289
vt 0.5966183543205261 1.5
vt 0.9396135210990906 1.5
vt 0.5966183543205261 -2.614053726196289
vt 0.75 1.5
vt 0.75 -2.614053726196289
vt 0.5966183543205261 4.701643943786621
vt 0.9396135210990906 4.701643943786621
vt 0.75 4.701643943786621
vt 0.5966183543205261 4.701643943786621
vt 0.75 4.701643943786621
vt 0.9396135210990906 -2.614053726196289
vt 0.5966183543205261 1.5
vt 0.9396135210990906 1.5
vt 0.5966183543205261 -2.614053726196289
vt 0.75 1.5
vt 0.75 -2.614053726196289
vt 0.5966183543205261 4.701643943786621
vt 0.9396135210990906 4.701643943786621
vt 0.75 4.701643943786621
g UpperMesaB010
s 1
f 1/1/1 2/2/2 3/3/3
f 1/1/1 4/4/4 2/2/2
f 4/4/4 5/5/5 2/2/2
f 4/4/4 6/6/6 5/5/5
f 7/7/7 3/3/3 8/8/8
f 7/7/7 1/1/1 3/3/3
f 9/9/9 10/10/10 11/11/11
f 12/12/12 13/13/13 14/14/14
f 15/15/15 16/16/16 17/17/17
f 15/15/15 18/18/18 16/16/16
f 19/19/19 20/20/20 21/21/21
f 22/22/22 23/23/23 24/24/24
f 22/22/22 25/25/25 23/23/23
f 26/26/26 27/27/27 28/28/28
f 29/29/29 30/30/30 31/31/31
f 29/29/29 32/32/32 30/30/30
f 33/33/33 34/34/34 35/35/35
f 33/33/33 36/36/36 34/34/34
f 37/37/37 38/38/38 39/39/39
f 40/40/40 41/41/41 42/42/42
f 40/40/40 43/43/43 41/41/41
f 43/43/43 44/44/44 41/41/41
f 43/43/43 45/45/45 44/44/44
f 46/46/46 42/42/42 47/47/47
f 46/46/46 40/40/40 42/42/42
f 48/48/48 49/49/49 50/50/50
f 36/36/36 31/31/31 34/34/34
f 36/36/36 29/29/29 31/31/31
f 25/25/25 51/51/51 23/23/23
f 25/25/25 52/52/52 51/51/51
f 53/53/53 54/54/54 55/55/55
f 53/53/53 56/56/56 54/54/54
f 56/56/56 57/57/57 54/54/54
f 56/56/56 58/58/58 57/57/57
f 59/59/59 55/55/55 60/60/60
f 59/59/59 53/53/53 55/55/55
f 61/61/61 62/62/62 63/63/63
f 52/52/52 64/64/64 51/51/51
f 65/65/65 66/66/66 67/67/67
f 65/65/65 68/68/68 66/66/66
f 68/68/68 69/69/69 66/66/66
f 68/68/68 70/70/70 69/69/69
f 71/71/71 67/67/67 72/72/72
f 71/71/71 65/65/65 67/67/67
f 73/73/73 74/74/74 75/75/75
f 52/52/52 76/76/76 64/64/64
f 77/77/77 78/78/78 79/79/79
f 77/77/77 80/80/80 78/78/78
f 80/80/80 81/81/81 78/78/78
f 80/80/80 82/82/82 81/81/81
f 83/83/83 79/79/79 84/84/84
f 83/83/83 77/77/77 79/79/79
f 85/85/85 86/86/86 87/87/87
f 18/18/18 88/88/88 16/16/16
f 18/18/18 89/89/89 88/88/88
f 89/89/89 90/90/90 88/88/88
f 89/89/89 91/91/91 90/90/90
f 92/92/92 93/93/93 94/94/94
f 92/92/92 95/95/95 93/93/93
f 95/95/95 96/96/96 93/93/93
f 95/95/95 97/97/97 96/96/96
f 98/98/98 94/94/94 99/99/99
f 98/98/98 92/92/92 94/94/94
f 100/100/100 101/101/101 102/102/102
f 100/100/100 103/103/103 101/101/101
f 103/103/103 104/104/104 101/101/101
f 103/103/103 105/105/105 104/104/104
f 106/106/106 102/102/102 107/107/107
f 106/106/106 100/100/100 102/102/102
f 108/108/108 109/109/109 110/110/110
f 111/111/111 112/112/112 113/113/113
f 111/111/111 114/114/114 112/112/112
f 114/114/114 115/115/115 112/112/112
f 114/114/114 116/116/116 115/115/115
f 117/117/117 113/113/113 118/118/118
f 117/117/117 111/111/111 113/113/113
f 119/119/119 120/120/120 121/121/121
f 122/122/122 123/123/123 124/124/124
f 122/122/122 125/125/125 123/123/123
f 125/125/125 126/126/126 123/123/123
f 125/125/125 127/127/127 126/126/126
f 128/128/128 124/124/124 129/129/129
f 128/128/128 122/122/122 124/124/124
f 130/130/130 131/131/131 132/132/132
f 133/133/133 134/134/134 135/135/135
f 133/133/133 136/136/136 134/134/134
f 136/136/136 137/137/137 134/134/134
f 136/136/136 138/138/138 137/137/137
f 139/139/139 135/135/135 140/140/140
f 139/139/139 133/133/133 135/135/135
f 141/141/141 142/142/142 143/143/143
f 144/144/144 145/145/145 146/146/146
f 144/144/144 147/147/147 145/145/145
f 147/147/147 148/148/148 145/145/145
f 147/147/147 149/149/149 148/148/148
f 150/150/150 146/146/146 151/151/151
f 150/150/150 144/144/144 146/146/146
f 152/152/152 153/153/153 154/154/154
g UpperMesaB011
s 1
f 155/155/155 156/156/156 157/157/157
f 158/158/158 159/159/159 160/160/160
f 158/158/158 161/161/161 159/159/159
f 161/161/161 162/162/162 159/159/159
f 161/161/161 163/163/163 162/162/162
f 163/163/163 160/160/160 162/162/162
f 163/163/163 158/158/158 160/160/160
f 160/160/160 164/164/164 165/165/165
f 160/160/160 159/159/159 164/164/164
f 159/159/159 166/166/166 164/164/164
f 159/159/159 162/162/162 166/166/166
f 162/162/162 165/165/165 166/166/166
f 162/162/162 160/160/160 165/165/165
f 167/167/167 168/168/168 169/169/169
f 167/167/167 170/170/170 168/168/168
f 170/170/170 171/171/171 168/168/168
f 170/170/170 172/172/172 171/171/171
f 172/172/172 169/169/169 171/171/171
f 172/172/172 167/167/167 169/169/169
f 169/169/169 173/173/173 174/174/174
f 169/169/169 168/168/168 173/173/173
f 168/168/168 175/175/175 173/173/173
f 168/168/168 171/171/171 175/175/175
f 171/171/171 174/174/174 175/175/175
f 171/171/171 169/169/169 174/174/174
f 176/176/176 177/177/177 178/178/178
f 176/176/176 179/179/179 177/177/177
f 179/179/179 180/180/180 177/177/177
f 179/179/179 181/181/181 180/180/180
f 181/181/181 178/178/178 180/180/180
f 181/181/181 176/176/176 178/178/178
f 178/178/178 182/182/182 183/183/183
f 178/178/178 177/177/177 182/182/182
f 177/177/177 184/184/184 182/182/182
f 177/177/177 180/180/180 184/184/184
f 180/180/180 183/183/183 184/184/184
f 180/180/180 178/178/178 183/183/183
f 185/185/185 186/186/186 187/187/187
f 185/185/185 188/188/188 186/186/186
f 188/188/188 189/189/189 186/186/186
f 188/188/188 190/190/190 189/189/189
f 190/190/190 187/187/187 189/189/189
f 190/190/190 185/185/185 187/187/187
f 187/187/187 191/191/191 192/192/192
f 187/187/187 186/186/186 191/191/191
f 186/186/186 193/193/193 191/191/191
f 186/186/186 189/189/189 193/193/193
f 189/189/189 192/192/192 193/193/193
f 189/189/189 187/187/187 192/192/192
f 194/194/194 195/195/195 196/196/196
f 194/194/194 197/197/197 195/195/195
f 197/197/197 198/198/198 195/195/195
f 197/197/197 199/199/199 198/198/198
f 199/199/199 196/196/196 198/198/198
f 199/199/199 194/194/194 196/196/196
f 196/196/196 200/200/200 201/201/201
f 196/196/196 195/195/195 200/200/200
f 195/195/195 202/202/202 200/200/200
f 195/195/195 198/198/198 202/202/202
f 198/198/198 201/201/201 202/202/202
f 198/198/198 196/196/196 201/201/201
f 203/203/203 204/204/204 205/205/205
f 203/203/203 206/206/206 204/204/204
f 206/206/206 207/207/207 204/204/204
f 206/206/206 208/208/208 207/207/207
f 208/208/208 205/205/205 207/207/207
f 208/208/208 203/203/203 205/205/205
f 205/205/205 209/209/209 210/210/210
f 205/205/205 204/204/204 209/209/209
f 204/204/204 211/211/211 209/209/209
f 204/204/204 207/207/207 211/211/211
f 207/207/207 210/210/210 211/211/211
f 207/207/207 205/205/205 210/210/210
f 212/212/212 213/213/213 214/214/214
f 212/212/212 215/215/215 213/213/213
f 215/215/215 216/216/216 213/213/213
f 215/215/215 217/217/217 216/216/216
f 217/217/217 214/214/214 216/216/216
f 217/217/217 212/212/212 214/214/214
f 214/214/214 218/218/218 219/219/219
f 220/220/220 221/221/221 222/222/222
f 220/220/220 223/223/223 221/221/221
f 223/223/223 224/224/224 221/221/221
f 223/223/223 225/225/225 224/224/224
f 225/225/225 222/222/222 224/224/224
f 225/225/225 220/220/220 222/222/222
f 222/222/222 226/226/226 227/227/227
f 222/222/222 221/221/221 226/226/226
f 221/221/221 228/228/228 226/226/226
f 221/221/221 224/224/224 228/228/228
f 224/224/224 227/227/227 228/228/228
f 224/224/224 222/222/222 227/227/227
f 214/214/214 213/213/213 218/218/218
f 213/213/213 229/229/229 218/218/218
f 213/213/213 216/216/216 229/229/229
f 216/216/216 219/219/219 229/229/229
f 216/216/216 214/214/214 219/219/219
f 230/230/230 231/231/231 232/232/232
f 230/230/230 233/233/233 231/231/231
f 234/234/234 235/235/235 236/236/236
f 234/234/234 237/237/237 235/235/235
f 237/237/237 238/238/238 235/235/235
f 237/237/237 239/239/239 238/238/238
f 239/239/239 236/236/236 238/238/238
f 239/239/239 234/234/234 236/236/236
f 236/236/236 240/240/240 241/241/241
f 236/236/236 235/235/235 240/240/240
f 235/235/235 242/242/242 240/240/240
f 235/235/235 238/238/238 242/242/242
f 238/238/238 241/241/241 242/242/242
f 238/238/238 236/236/236 241/241/241
f 233/233/233 243/243/243 231/231/231
f 233/233/233 244/244/244 243/243/243
f 244/244/244 232/232/232 243/243/243
f 244/244/244 230/230/230 232/232/232
f 232/232/232 245/245/245 246/246/246
f 232/232/232 231/231/231 245/245/245
f 231/231/231 247/247/247 245/245/245
f 248/248/248 249/249/249 250/250/250
f 248/248/248 251/251/251 249/249/249
f 251/251/251 252/252/252 249/249/249
f 251/251/251 253/253/253 252/252/252
f 253/253/253 250/250/250 252/252/252
f 253/253/253 248/248/248 250/250/250
f 250/250/250 254/254/254 255/255/255
f 250/250/250 249/249/249 254/254/254
f 249/249/249 256/256/256 254/254/254
f 249/249/249 252/252/252 256/256/256
f 252/252/252 255/255/255 256/256/256
f 252/252/252 250/250/250 255/255/255
f 231/231/231 243/243/243 247/247/247
f 243/243/243 246/246/246 247/247/247
f 243/243/243 232/232/232 246/246/246
f 257/257/257 258/258/258 156/156/156
f 257/257/257 259/259/259 258/258/258
f 259/259/259 155/155/155 258/258/258
f 259/259/259 260/260/260 155/155/155
f 261/261/261 262/262/262 263/263/263
f 261/261/261 264/264/264 262/262/262
f 264/264/264 265/265/265 262/262/262
f 264/264/264 266/266/266 265/265/265
f 266/266/266 263/263/263 265/265/265
f 266/266/266 261/261/261 263/263/263
f 263/263/263 267/267/267 268/268/268
f 263/263/263 262/262/262 267/267/267
f 262/262/262 269/269/269 267/267/267
f 262/262/262 265/265/265 269/269/269
f 265/265/265 268/268/268 269/269/269
f 265/265/265 263/263/263 268/268/268
f 260/260/260 156/156/156 155/155/155
f 260/260/260 257/257/257 156/156/156
f 156/156/156 270/270/270 157/157/157
f 156/156/156 258/258/258 270/270/270
f 258/258/258 271/271/271 270/270/270
f 258/258/258 155/155/155 271/271/271
f 155/155/155 157/157/157 271/271/271
f 272/272/272 273/273/273 274/274/274
f 272/272/272 275/275/275 273/273/273
f 275/275/275 276/276/276 273/273/273
f 275/275/275 277/277/277 276/276/276
f 277/277/277 274/274/274 276/276/276
f 277/277/277 272/272/272 274/274/274
f 274/274/274 278/278/278 279/279/279
f 274/274/274 273/273/273 278/278/278
f 273/273/273 280/280/280 278/278/278
f 273/273/273 276/276/276 280/280/280
f 276/276/276 279/279/279 280/280/280
f 276/276/276 274/274/274 279/279/279
