# Exported using wow.export v0.2.19
o uppermesab_UpperMesaB03.obj
v 23.099849700927734 -8.74244499206543 -55.2601203918457
v 22.423715591430664 -6.744331359863281 -55.6031379699707
v 23.320547103881836 -6.744331359863281 -55.35153579711914
v 22.732595443725586 -8.74244499206543 -55.485172271728516
v 22.50962257385254 -6.744331359863281 -54.51155471801758
v 22.78460121154785 -8.74244499206543 -54.82439422607422
v 22.78460121154785 -8.74244499206543 -54.82439422607422
v 22.50962257385254 -6.744331359863281 -54.51155471801758
v 22.423715591430664 -6.744331359863281 -55.6031379699707
v 22.50962257385254 -6.744331359863281 -54.51155471801758
v 23.320547103881836 -6.744331359863281 -55.35153579711914
v 48.99690628051758 -18.607742309570312 -62.8798828125
v 48.731727600097656 -18.607742309570312 -63.21929931640625
v 48.48371887207031 -16.609628677368164 -63.43796157836914
v 48.18190383911133 -16.609628677368164 -62.38542556762695
v 48.54903030395508 -18.607742309570312 -62.5821533203125
v 48.54903030395508 -18.607742309570312 -62.5821533203125
v 49.23564529418945 -16.609628677368164 -62.88821792602539
v 48.18190383911133 -16.609628677368164 -62.38542556762695
v 48.48371887207031 -16.609628677368164 -63.43796157836914
v 48.18190383911133 -16.609628677368164 -62.38542556762695
v 49.23564529418945 -16.609628677368164 -62.88821792602539
v 67.41605377197266 -29.918148040771484 -89.7381362915039
v 67.10670471191406 -29.918148040771484 -90.1780776977539
v 67.09211730957031 -27.920034408569336 -90.41651153564453
v 66.56224060058594 -27.920034408569336 -89.65045166015625
v 67.62232208251953 -27.920034408569336 -89.37629699707031
v 67.09211730957031 -27.920034408569336 -90.41651153564453
v 67.64976501464844 -26.87020492553711 -76.48179626464844
v 68.6753921508789 -26.87020492553711 -76.09833526611328
v 68.2568130493164 -26.87020492553711 -77.18827056884766
v 67.12002563476562 -28.31413459777832 -70.318359375
v 66.4640884399414 -26.31601905822754 -69.93812561035156
v 67.1635513305664 -26.31601905822754 -70.55323791503906
v 66.73125457763672 -28.31413459777832 -70.13292694091797
v 67.42636108398438 -26.31601905822754 -69.41565704345703
v 29.31673240661621 -10.89082145690918 -57.83954620361328
v 28.662797927856445 -8.892707824707031 -58.22319793701172
v 29.542598724365234 -8.892707824707031 -57.91731643676758
v 28.96390151977539 -10.89082145690918 -58.08659744262695
v 28.681909561157227 -8.892707824707031 -57.1284065246582
v 28.97547149658203 -10.89082145690918 -57.42387771606445
v 28.97547149658203 -10.89082145690918 -57.42387771606445
v 28.681909561157227 -8.892707824707031 -57.1284065246582
v 28.662797927856445 -8.892707824707031 -58.22319793701172
v 28.681909561157227 -8.892707824707031 -57.1284065246582
v 29.542598724365234 -8.892707824707031 -57.91731643676758
v 67.31375122070312 -28.31413459777832 -69.81665802001953
v 67.31375122070312 -28.31413459777832 -69.81665802001953
v 67.42636108398438 -26.31601905822754 -69.41565704345703
v 66.4640884399414 -26.31601905822754 -69.93812561035156
v 67.42636108398438 -26.31601905822754 -69.41565704345703
v 67.1635513305664 -26.31601905822754 -70.55323791503906
v 68.24639892578125 -28.86832046508789 -76.94962310791016
v 67.64976501464844 -26.87020492553711 -76.48179626464844
v 68.2568130493164 -26.87020492553711 -77.18827056884766
v 41.838165283203125 -15.192354202270508 -61.55717086791992
v 42.24946212768555 -15.192354202270508 -61.9036865234375
v 42.4857177734375 -13.19424057006836 -61.93899154663086
v 67.88722229003906 -28.86832046508789 -76.7118911743164
v 55.70836639404297 -21.755752563476562 -63.3238410949707
v 54.99324417114258 -19.757638931274414 -63.5756721496582
v 55.91524124145508 -19.757638931274414 -63.44327926635742
v 55.314876556396484 -21.755752563476562 -63.49903106689453
v 55.22089767456055 -19.757638931274414 -62.504638671875
v 55.45268630981445 -21.755752563476562 -62.8506965637207
v 55.45268630981445 -21.755752563476562 -62.8506965637207
v 55.22089767456055 -19.757638931274414 -62.504638671875
v 35.69677734375 -13.08715534210205 -60.05570602416992
v 35.06019973754883 -11.089041709899902 -60.4675178527832
v 35.92582321166992 -11.089041709899902 -60.12355041503906
v 35.35506057739258 -13.08715534210205 -60.31791305541992
v 35.03153991699219 -11.089041709899902 -59.37293243408203
v 35.337711334228516 -13.08715534210205 -59.65532302856445
v 35.337711334228516 -13.08715534210205 -59.65532302856445
v 35.03153991699219 -11.089041709899902 -59.37293243408203
v 35.06019973754883 -11.089041709899902 -60.4675178527832
v 35.03153991699219 -11.089041709899902 -59.37293243408203
v 35.92582321166992 -11.089041709899902 -60.12355041503906
v 54.99324417114258 -19.757638931274414 -63.5756721496582
v 55.22089767456055 -19.757638931274414 -62.504638671875
v 55.91524124145508 -19.757638931274414 -63.44327926635742
v 68.6753921508789 -26.87020492553711 -76.09833526611328
v 68.50806427001953 -28.86832046508789 -76.47976684570312
v 68.50806427001953 -28.86832046508789 -76.47976684570312
v 68.6753921508789 -26.87020492553711 -76.09833526611328
v 68.38825225830078 -29.735382080078125 -83.6287841796875
v 67.91732025146484 -27.737268447875977 -83.03460693359375
v 68.3426742553711 -27.737268447875977 -83.86327362060547
v 68.09449768066406 -29.735382080078125 -83.31376647949219
v 69.00411987304688 -27.737268447875977 -82.90116119384766
v 68.75237274169922 -29.735382080078125 -83.23299407958984
v 68.75237274169922 -29.735382080078125 -83.23299407958984
v 69.00411987304688 -27.737268447875977 -82.90116119384766
v 41.676395416259766 -13.19424057006836 -62.40008544921875
v 41.94755935668945 -15.192354202270508 -62.21090316772461
v 41.49567413330078 -13.19424057006836 -61.32014465332031
v 41.838165283203125 -15.192354202270508 -61.55717086791992
v 41.49567413330078 -13.19424057006836 -61.32014465332031
v 67.91732025146484 -27.737268447875977 -83.03460693359375
v 69.00411987304688 -27.737268447875977 -82.90116119384766
v 68.3426742553711 -27.737268447875977 -83.86327362060547
v 41.676395416259766 -13.19424057006836 -62.40008544921875
v 41.49567413330078 -13.19424057006836 -61.32014465332031
v 42.4857177734375 -13.19424057006836 -61.93899154663086
v 66.56224060058594 -27.920034408569336 -89.65045166015625
v 61.568359375 -25.38431739807129 -66.7077407836914
v 60.85323715209961 -23.386201858520508 -66.9595718383789
v 61.77524185180664 -23.386201858520508 -66.82717895507812
v 61.17487335205078 -25.38431739807129 -66.88292694091797
v 61.08089065551758 -23.386201858520508 -65.88853454589844
v 61.31268310546875 -25.38431739807129 -66.2345962524414
v 61.31268310546875 -25.38431739807129 -66.2345962524414
v 61.08089065551758 -23.386201858520508 -65.88853454589844
v 60.85323715209961 -23.386201858520508 -66.9595718383789
v 61.08089065551758 -23.386201858520508 -65.88853454589844
v 61.77524185180664 -23.386201858520508 -66.82717895507812
v 66.77433776855469 -29.918148040771484 -89.90409088134766
v 67.62232208251953 -27.920034408569336 -89.37629699707031
v 67.41605377197266 -29.918148040771484 -89.7381362915039
v 67.62232208251953 -27.920034408569336 -89.37629699707031
v 28.915292739868164 -8.915627479553223 -57.60946273803711
v 25.395437240600586 -8.092000007629395 -56.22566604614258
v 25.434112548828125 -8.132655143737793 -56.15992736816406
v 28.827844619750977 -8.8379487991333 -57.70769119262695
v 25.400407791137695 -8.177535057067871 -56.22652053833008
v 28.889570236206055 -9.00657844543457 -57.7320442199707
v 22.923948287963867 -6.934389114379883 -55.146018981933594
v 22.934593200683594 -6.974496841430664 -54.992740631103516
v 22.80803871154785 -7.028098106384277 -55.09127426147461
v 35.26475143432617 -11.1474027633667 -59.82948303222656
v 31.666982650756836 -10.27603530883789 -58.66313934326172
v 31.701568603515625 -10.31682300567627 -58.59516906738281
v 35.1834602355957 -11.069178581237793 -59.93285369873047
v 31.671993255615234 -10.361632347106934 -58.6636962890625
v 35.246559143066406 -11.238645553588867 -59.95339584350586
v 29.134193420410156 -9.084381103515625 -57.73639678955078
v 29.13545799255371 -9.123872756958008 -57.5827522277832
v 29.015153884887695 -9.176473617553711 -57.6888313293457
v 41.7259407043457 -13.229101181030273 -61.78429412841797
v 38.08071517944336 -12.42335319519043 -60.77599334716797
v 38.112308502197266 -12.463958740234375 -60.70657730102539
v 41.649234771728516 -13.151626586914062 -61.89112091064453
v 38.08574676513672 -12.508865356445312 -60.77632522583008
v 41.713165283203125 -13.31994342803955 -61.90888977050781
v 35.509910583496094 -11.27849292755127 -59.96061325073242
v 35.50447463989258 -11.318831443786621 -59.80705642700195
v 35.388916015625 -11.372807502746582 -59.91828155517578
v 48.46052169799805 -16.545297622680664 -62.77635955810547
v 44.710445404052734 -15.046340942382812 -62.28519058227539
v 44.73207092285156 -15.088884353637695 -62.21205520629883
v 48.39943313598633 -16.459903717041016 -62.892822265625
v 44.715476989746094 -15.132755279541016 -62.28482437133789
v 48.465213775634766 -16.640380859375 -62.90151596069336
v 42.05118179321289 -13.4071626663208 -61.83552932739258
v 42.02442932128906 -13.43855094909668 -61.68422317504883
v 41.92546844482422 -13.478006362915039 -61.81045150756836
v 55.2668342590332 -19.799713134765625 -63.04383087158203
v 51.485260009765625 -18.392902374267578 -62.98033905029297
v 51.49846649169922 -18.435190200805664 -62.90522766113281
v 55.21931838989258 -19.71537208557129 -63.16645812988281
v 51.49021911621094 -18.479196548461914 -62.97940444946289
v 55.28566360473633 -19.89423370361328 -63.16765213012695
v 48.79219055175781 -16.819433212280273 -62.83460235595703
v 48.748477935791016 -16.85201072692871 -62.68730545043945
v 48.66444778442383 -16.893396377563477 -62.82392120361328
v 61.16740798950195 -23.375825881958008 -66.41214752197266
v 57.85828399658203 -21.72395896911621 -64.58075714111328
v 57.90520477294922 -21.766929626464844 -64.5206298828125
v 61.06787872314453 -23.288684844970703 -66.49811553955078
v 57.86309814453125 -21.810571670532227 -64.5822525024414
v 61.12590408325195 -23.471845626831055 -66.53031921386719
v 55.548858642578125 -19.975740432739258 -63.18775177001953
v 55.57941818237305 -20.00515365600586 -63.03717803955078
v 55.44108581542969 -20.041406631469727 -63.11834716796875
v 67.02739715576172 -26.322898864746094 -69.79605102539062
v 63.71827697753906 -25.061134338378906 -67.96465301513672
v 63.76519775390625 -25.10301399230957 -67.90452575683594
v 66.9278793334961 -26.24021339416504 -69.88201141357422
v 63.72309112548828 -25.147239685058594 -67.96615600585938
v 66.98589324951172 -26.416528701782227 -69.91422271728516
v 61.40884780883789 -23.591094970703125 -66.57164764404297
v 61.30107879638672 -23.66996955871582 -66.50224304199219
v 68.31700897216797 -27.154016494750977 -76.47513580322266
v 67.56051635742188 -27.09360694885254 -72.76946258544922
v 67.63670349121094 -27.13212776184082 -72.76609802246094
v 61.43941116333008 -23.625545501708984 -66.42107391357422
v 68.57486724853516 -27.856836318969727 -83.21308135986328
v 68.34146881103516 -27.71134376525879 -79.43818664550781
v 68.41738891601562 -27.75010108947754 -79.4454574584961
v 68.44889068603516 -27.78690528869629 -83.17533111572266
v 68.3427963256836 -27.795997619628906 -79.44305419921875
v 68.45291137695312 -27.943635940551758 -83.24156951904297
v 68.27545928955078 -27.037302017211914 -76.74198150634766
v 68.41887664794922 -27.086164474487305 -76.68685150146484
v 68.27609252929688 -27.15397071838379 -76.61380004882812
v 68.18700408935547 -27.085058212280273 -76.4552993774414
v 67.5625 -27.178150177001953 -72.77410125732422
v 68.2001953125 -27.24029541015625 -76.52032470703125
v 67.11991119384766 -26.480236053466797 -70.10868072509766
v 67.2542495727539 -26.53019905090332 -70.03413391113281
v 67.24547576904297 -27.990625381469727 -89.79586791992188
v 67.8997573852539 -28.26487922668457 -86.07078552246094
v 67.97188568115234 -28.302465438842773 -86.0955810546875
v 67.13179779052734 -27.925491333007812 -89.72975158691406
v 67.89990234375 -28.34898567199707 -86.0758285522461
v 67.12023162841797 -28.074859619140625 -89.79509735107422
v 68.4649887084961 -27.890151977539062 -83.43367004394531
v 68.6173095703125 -27.944435119628906 -83.41353607177734
v 68.49552154541016 -28.021034240722656 -83.30917358398438
v 67.10269165039062 -26.59978675842285 -69.9816665649414
v 66.77867126464844 -28.17339324951172 -96.4415512084961
v 66.94113159179688 -28.44764518737793 -92.6629409790039
v 67.01587677001953 -28.4852294921875 -92.67810821533203
v 66.6573257446289 -28.108257293701172 -96.3908462524414
v 66.94193267822266 -28.53175163269043 -92.66791534423828
v 66.6543960571289 -28.257625579833984 -96.4571304321289
v 67.15731811523438 -28.072917938232422 -89.97460174560547
v 67.30570220947266 -28.127201080322266 -89.93476104736328
v 67.17134094238281 -28.203800201416016 -89.84718322753906
vn 0.7923769354820251 -0.05239410325884819 -0.6077775955200195
vn -0.1010008379817009 0.42042291164398193 -0.9016891717910767
vn 0.891814112663269 0.4237478971481323 0.15844640135765076
vn -0.5093247890472412 -0.12896700203418732 -0.8508558869361877
vn -0.22716228663921356 0.717929482460022 0.6580080389976501
vn 0.3667720556259155 -0.14894245564937592 0.9183106422424316
vn 0.3667720556259155 -0.14894245564937592 0.9183106422424316
vn -0.22716228663921356 0.717929482460022 0.6580080389976501
vn -0.1010008379817009 0.42042291164398193 -0.9016891717910767
vn -0.22716228663921356 0.717929482460022 0.6580080389976501
vn 0.891814112663269 0.4237478971481323 0.15844640135765076
vn 0.955045759677887 -0.05239316076040268 -0.29179203510284424
vn -0.1790928989648819 -0.1289650797843933 -0.975342869758606
vn 0.22117382287979126 0.4204244315624237 -0.8799576163291931
vn -0.44321730732917786 0.7179287672042847 0.5367836952209473
vn 0.02194683440029621 -0.14894382655620575 0.9886021018028259
vn 0.02194683440029621 -0.14894382655620575 0.9886021018028259
vn 0.7798487544059753 0.4237479865550995 0.460731565952301
vn -0.44321730732917786 0.7179287672042847 0.5367836952209473
vn 0.22117382287979126 0.4204244315624237 -0.8799576163291931
vn -0.44321730732917786 0.7179287672042847 0.5367836952209473
vn 0.7798487544059753 0.4237479865550995 0.460731565952301
vn 0.9876896739006042 -0.14894035458564758 -0.04781125858426094
vn -0.31669121980667114 -0.05239521712064743 -0.9470804929733276
vn 0.44016367197036743 0.4237484335899353 -0.7916395664215088
vn -0.8854466676712036 0.4204227030277252 -0.19806303083896637
vn 0.5482011437416077 0.7179295420646667 0.42901360988616943
vn 0.44016367197036743 0.4237484335899353 -0.7916395664215088
vn -0.8598909974098206 0.42042362689971924 -0.28953659534454346
vn 0.5003563165664673 0.7179280519485474 0.48396578431129456
vn 0.5205001831054688 0.4237472116947174 -0.7412946820259094
vn -0.07816132158041 -0.052392393350601196 -0.9955630898475647
vn -0.8112271428108215 0.42042407393455505 -0.40639159083366394
vn 0.6186047792434692 0.423748642206192 -0.6616383194923401
vn -0.9909857511520386 -0.12896835803985596 -0.03625474125146866
vn 0.42813196778297424 0.7179266810417175 0.5488937497138977
vn 0.8280001282691956 -0.0523957796394825 -0.5582745671272278
vn -0.045769307762384415 0.4204213619232178 -0.906173825263977
vn 0.8804791569709778 0.4237469732761383 0.2125910073518753
vn -0.45643526315689087 -0.12896884977817535 -0.8803600668907166
vn -0.26690787076950073 0.7179295420646667 0.6429131627082825
vn 0.31003111600875854 -0.14894358813762665 0.9389869570732117
vn 0.31003111600875854 -0.14894358813762665 0.9389869570732117
vn -0.26690787076950073 0.7179295420646667 0.6429131627082825
vn -0.045769307762384415 0.4204213619232178 -0.906173825263977
vn -0.26690787076950073 0.7179295420646667 0.6429131627082825
vn 0.8804791569709778 0.4237469732761383 0.2125910073518753
vn 0.9699174761772156 -0.14894147217273712 0.19255253672599792
vn 0.9699174761772156 -0.14894147217273712 0.19255253672599792
vn 0.42813196778297424 0.7179266810417175 0.5488937497138977
vn -0.8112271428108215 0.42042407393455505 -0.40639159083366394
vn 0.42813196778297424 0.7179266810417175 0.5488937497138977
vn 0.6186047792434692 0.423748642206192 -0.6616383194923401
vn -0.21595539152622223 -0.05239366739988327 -0.9749965071678162
vn -0.8598909974098206 0.42042362689971924 -0.28953659534454346
vn 0.5205001831054688 0.4237472116947174 -0.7412946820259094
vn 0.1337193250656128 -0.1489444077014923 0.9797625541687012
vn 0.9158756732940674 -0.052393775433301926 -0.3980284333229065
vn 0.8269929885864258 0.4237464368343353 0.3694882392883301
vn -0.9863874316215515 -0.1289685219526291 0.1020144671201706
vn 0.7062680721282959 -0.05239427462220192 -0.7060030102729797
vn -0.2178298979997635 0.4204230010509491 -0.8807920217514038
vn 0.9048658609390259 0.42374780774116516 0.040689051151275635
vn -0.6160275936126709 -0.1289677917957306 -0.7770954370498657
vn -0.13933254778385162 0.7179282307624817 0.6820303797721863
vn 0.4834946095943451 -0.14894157648086548 0.8625829815864563
vn 0.4834946095943451 -0.14894157648086548 0.8625829815864563
vn -0.13933254778385162 0.7179282307624817 0.6820303797721863
vn 0.8515662550926208 -0.052393730729818344 -0.521622359752655
vn -0.0061950976960361 0.42042356729507446 -0.9073067903518677
vn 0.8703672885894775 0.4237469732761383 0.25079721212387085
vn -0.41759583353996277 -0.12896738946437836 -0.8994337916374207
vn -0.29469871520996094 0.7179281711578369 0.630659818649292
vn 0.2687751352787018 -0.1489449292421341 0.9516172409057617
vn 0.2687751352787018 -0.1489449292421341 0.9516172409057617
vn -0.29469871520996094 0.7179281711578369 0.630659818649292
vn -0.0061950976960361 0.42042356729507446 -0.9073067903518677
vn -0.29469871520996094 0.7179281711578369 0.630659818649292
vn 0.8703672885894775 0.4237469732761383 0.25079721212387085
vn -0.2178298979997635 0.4204230010509491 -0.8807920217514038
vn -0.13933254778385162 0.7179282307624817 0.6820303797721863
vn 0.9048658609390259 0.42374780774116516 0.040689051151275635
vn 0.5003563165664673 0.7179280519485474 0.48396578431129456
vn 0.9872764945030212 -0.14894253015518188 0.055688805878162384
vn 0.9872764945030212 -0.14894253015518188 0.055688805878162384
vn 0.5003563165664673 0.7179280519485474 0.48396578431129456
vn -0.43759986758232117 -0.05239403247833252 -0.8976420164108276
vn -0.9037236571311951 0.4204230308532715 -0.08079615235328674
vn 0.3330688178539276 0.42374780774116516 -0.8423199653625488
vn -0.9353174567222595 -0.1289677619934082 0.32946711778640747
vn 0.5995103716850281 0.7179278135299683 0.35378944873809814
vn 0.9729987978935242 -0.148942768573761 -0.17632189393043518
vn 0.9729987978935242 -0.148942768573761 -0.17632189393043518
vn 0.5995103716850281 0.7179278135299683 0.35378944873809814
vn 0.12014076858758926 0.4204251170158386 -0.8993380665779114
vn -0.28835344314575195 -0.12896521389484406 -0.9487993717193604
vn -0.3796018958091736 0.7179293036460876 0.5835065245628357
vn 0.1337193250656128 -0.1489444077014923 0.9797625541687012
vn -0.3796018958091736 0.7179293036460876 0.5835065245628357
vn -0.9037236571311951 0.4204230308532715 -0.08079615235328674
vn 0.5995103716850281 0.7179278135299683 0.35378944873809814
vn 0.3330688178539276 0.42374780774116516 -0.8423199653625488
vn 0.12014076858758926 0.4204251170158386 -0.8993380665779114
vn -0.3796018958091736 0.7179293036460876 0.5835065245628357
vn 0.8269929885864258 0.4237464368343353 0.3694882392883301
vn -0.8854466676712036 0.4204227030277252 -0.19806303083896637
vn 0.7062676548957825 -0.052395954728126526 -0.7060033082962036
vn -0.21782881021499634 0.42042338848114014 -0.8807921409606934
vn 0.9048669338226318 0.4237458407878876 0.040685102343559265
vn -0.6160263419151306 -0.12896762788295746 -0.7770964503288269
vn -0.13933350145816803 0.7179276943206787 0.6820307970046997
vn 0.48349785804748535 -0.14894527196884155 0.8625805377960205
vn 0.48349785804748535 -0.14894527196884155 0.8625805377960205
vn -0.13933350145816803 0.7179276943206787 0.6820307970046997
vn -0.21782881021499634 0.42042338848114014 -0.8807921409606934
vn -0.13933350145816803 0.7179276943206787 0.6820307970046997
vn 0.9048669338226318 0.4237458407878876 0.040685102343559265
vn -0.9703201651573181 -0.12896570563316345 0.20456445217132568
vn 0.5482011437416077 0.7179295420646667 0.42901360988616943
vn 0.9876896739006042 -0.14894035458564758 -0.04781125858426094
vn 0.5482011437416077 0.7179295420646667 0.42901360988616943
vn 0.39642298221588135 0.06749598681926727 0.9155834913253784
vn 0.24235177040100098 0.9507491588592529 -0.19323980808258057
vn 0.41611355543136597 0.04952239617705345 0.9079631567001343
vn -0.05097774416208267 0.8396708369255066 -0.5406978130340576
vn -0.26968100666999817 -0.9556357860565186 0.11845822632312775
vn -0.3636157810688019 -0.8538135886192322 -0.37253984808921814
vn 0.06739932298660278 0.7523338794708252 -0.655325174331665
vn 0.44154512882232666 0.051715265959501266 0.8957474231719971
vn -0.4978686273097992 -0.8050272464752197 -0.3225802481174469
vn 0.3405385911464691 0.06721930205821991 0.9378246068954468
vn 0.2634100317955017 0.9472050666809082 -0.18280506134033203
vn 0.3603011667728424 0.049039363861083984 0.931546151638031
vn -0.008491354063153267 0.8373606204986572 -0.5465849041938782
vn -0.28723224997520447 -0.9522084593772888 0.10390707105398178
vn -0.34995901584625244 -0.8512054681777954 -0.3911239504814148
vn 0.11437495797872543 0.7484601736068726 -0.6532424688339233
vn 0.38634809851646423 0.050949860364198685 0.9209447503089905
vn -0.48549890518188477 -0.8010081052780151 -0.35025253891944885
vn 0.29826006293296814 0.06759373843669891 0.9520882368087769
vn 0.2574863135814667 0.9520524740219116 -0.16521772742271423
vn 0.31877750158309937 0.04971078038215637 0.9465250968933105
vn 0.002229105681180954 0.8405097126960754 -0.5417918562889099
vn -0.27647754549980164 -0.9568919539451599 0.08898290991783142
vn -0.3189604580402374 -0.8547610640525818 -0.40944811701774597
vn 0.13278768956661224 0.7537616491317749 -0.643592119216919
vn 0.345369815826416 0.05199645087122917 0.9370251297950745
vn -0.45826879143714905 -0.8065157532691956 -0.3735264837741852
vn 0.17319107055664062 0.06253683567047119 0.9829007983207703
vn 0.41685396432876587 0.8927385210990906 -0.17102830111980438
vn 0.18878978490829468 0.04253994673490524 0.9810956716537476
vn 0.21188782155513763 0.79643315076828 -0.5663901567459106
vn -0.4352293610572815 -0.8991393446922302 0.04608554393053055
vn -0.39645692706108093 -0.8070916533470154 -0.43752139806747437
vn 0.3195299506187439 0.693667471408844 -0.6455432772636414
vn 0.21466276049613953 0.04115486517548561 0.975820779800415
vn -0.5135323405265808 -0.7436313033103943 -0.428132027387619
vn 0.05957430228590965 0.06333240866661072 0.9962127804756165
vn 0.4161810278892517 0.9014807343482971 -0.11885230988264084
vn 0.07601093500852585 0.04350942745804787 0.9961572289466858
vn 0.2578147053718567 0.8034732937812805 -0.5366211533546448
vn -0.41960588097572327 -0.9077063798904419 -0.0002922401181422174
vn -0.3274343013763428 -0.8145511746406555 -0.47884565591812134
vn 0.37864094972610474 0.7020345330238342 -0.6031405329704285
vn 0.10261045396327972 0.04254862293601036 0.9938111901283264
vn -0.4484964609146118 -0.7524265050888062 -0.48239538073539734
vn 0.5230734944343567 0.061164967715740204 0.850089967250824
vn 0.34649497270584106 0.8778212666511536 -0.33071303367614746
vn 0.5358797311782837 0.04092996567487717 0.8433016538619995
vn 0.011574889533221722 0.7841052412986755 -0.6205199360847473
vn -0.4160865545272827 -0.8844970464706421 0.21103785932064056
vn -0.5537980198860168 -0.7941287159919739 -0.2503344416618347
vn 0.07573212683200836 0.6797142624855042 -0.7295568585395813
vn 0.5575870275497437 0.0388793982565403 0.8292075395584106
vn -0.654166579246521 -0.7288678884506226 -0.20203396677970886
vn 0.5185076594352722 0.06451261043548584 0.8526358604431152
vn 0.2894386351108551 0.9147992134094238 -0.28172269463539124
vn 0.5340033769607544 0.04503050819039345 0.844282329082489
vn -0.046929195523262024 0.8139203190803528 -0.5790780186653137
vn -0.34241652488708496 -0.9207258820533752 0.1871224045753479
vn -0.4890785813331604 -0.8256781101226807 -0.2811722457408905
vn 0.03529210016131401 0.7150124311447144 -0.6982203722000122
vn -0.6023772954940796 -0.76610267162323 -0.22411681711673737
vn 0.9812595248222351 0.06989287585020065 0.17956824600696564
vn -0.04880480468273163 0.9911308884620667 -0.12360291182994843
vn 0.986518919467926 0.05634135380387306 0.1536426693201065
vn 0.5567630529403687 0.044803470373153687 0.8294622302055359
vn 0.9967684745788574 0.0698399692773819 0.03968575596809387
vn -0.06567015498876572 0.9883480668067932 -0.13731542229652405
vn 0.9983522295951843 0.05570332333445549 0.01378206629306078
vn -0.5131853818893433 0.8576775789260864 -0.032093122601509094
vn 0.016150234267115593 -0.9914686679840088 0.12934072315692902
vn -0.4818035364151001 -0.8760491013526917 0.0200829915702343
vn -0.5612285733222961 0.7992978692054749 -0.21481488645076752
vn 0.9979515671730042 0.0622188039124012 -0.014881862327456474
vn -0.4894462525844574 -0.8528961539268494 0.18168801069259644
vn -0.506998598575592 0.8578258156776428 -0.08418620377779007
vn 0.0030292971059679985 -0.994038999080658 0.10898293554782867
vn -0.4764058589935303 -0.8767030835151672 -0.06655196845531464
vn -0.5279768705368042 0.8038402199745178 -0.2740098237991333
vn 0.9900927543640137 0.06344607472419739 0.1252632886171341
vn 0.9799789190292358 0.06968551874160767 -0.18650798499584198
vn -0.07177019864320755 0.9973418116569519 -0.012585538439452648
vn 0.9750305414199829 0.058586619794368744 -0.21420341730117798
vn -0.4882257580757141 0.8536041378974915 0.18164697289466858
vn 0.028160924091935158 -0.999503493309021 0.014131749048829079
vn -0.48361530900001526 -0.8745014071464539 0.03692572936415672
vn -0.5753244757652283 0.8179048299789429 0.005781211424618959
vn 0.9680465459823608 0.06796606630086899 -0.24138465523719788
vn -0.4490138292312622 -0.8709505200386047 0.19957894086837769
vn -0.5060415863990784 -0.857379138469696 0.09393027424812317
vn 0.9959393739700317 0.06968500465154648 -0.05699821561574936
vn -0.06952686607837677 0.9973408579826355 -0.02184600755572319
vn 0.9946470260620117 0.05860450118780136 -0.0851045697927475
vn -0.5077759027481079 0.8535937666893005 0.11636722087860107
vn 0.026091884821653366 -0.9995030760765076 0.017685385420918465
vn -0.48427316546440125 -0.8745148777961731 -0.026517558842897415
vn -0.571150004863739 0.8179097771644592 -0.06936334073543549
vn 0.9912718534469604 0.06796593964099884 -0.11296354234218597
vn -0.4712280035018921 -0.870947539806366 0.13926421105861664
vt 0.5 -0.24600005149841309
vt 0.75 0.3400000333786011
vt 0.5 0.3400000333786011
vt 0.75 -0.24600005149841309
vt 0.5 0.3400000333786011
vt 0.5 -0.24600005149841309
vt 0.75 -0.24600005149841309
vt 0.75 0.3400000333786011
vt 0.75 0.5
vt 0.875 0
vt 0.9995004534721375 0.5
vt 0.5 -0.24600005149841309
vt 0.75 -0.24600005149841309
vt 0.75 0.3400000333786011
vt 0.5 0.3400000333786011
vt 0.5 -0.24600005149841309
vt 0.75 -0.24600005149841309
vt 0.5 0.3400000333786011
vt 0.75 0.3400000333786011
vt 0.75 0.5
vt 0.875 0
vt 0.9995004534721375 0.5
vt 0.75 -0.24600005149841309
vt 0.5 -0.24600005149841309
vt 0.5 0.3400000333786011
vt 0.75 0.5
vt 0.875 0
vt 0.9995004534721375 0.5
vt 0.75 0.5
vt 0.875 0
vt 0.9995004534721375 0.5
vt 0.5 -0.24600005149841309
vt 0.75 0.3400000333786011
vt 0.5 0.3400000333786011
vt 0.75 -0.24600005149841309
vt 0.5 0.3400000333786011
vt 0.5 -0.24600005149841309
vt 0.75 0.3400000333786011
vt 0.5 0.3400000333786011
vt 0.75 -0.24600005149841309
vt 0.5 0.3400000333786011
vt 0.5 -0.24600005149841309
vt 0.75 -0.24600005149841309
vt 0.75 0.3400000333786011
vt 0.75 0.5
vt 0.875 0
vt 0.9995004534721375 0.5
vt 0.5 -0.24600005149841309
vt 0.75 -0.24600005149841309
vt 0.75 0.3400000333786011
vt 0.75 0.5
vt 0.875 0
vt 0.9995004534721375 0.5
vt 0.5 -0.24600005149841309
vt 0.75 0.3400000333786011
vt 0.5 0.3400000333786011
vt 0.75 -0.24600005149841309
vt 0.5 -0.24600005149841309
vt 0.5 0.3400000333786011
vt 0.75 -0.24600005149841309
vt 0.5 -0.24600005149841309
vt 0.75 0.3400000333786011
vt 0.5 0.3400000333786011
vt 0.75 -0.24600005149841309
vt 0.5 0.3400000333786011
vt 0.5 -0.24600005149841309
vt 0.75 -0.24600005149841309
vt 0.75 0.3400000333786011
vt 0.5 -0.24600005149841309
vt 0.75 0.3400000333786011
vt 0.5 0.3400000333786011
vt 0.75 -0.24600005149841309
vt 0.5 0.3400000333786011
vt 0.5 -0.24600005149841309
vt 0.75 -0.24600005149841309
vt 0.75 0.3400000333786011
vt 0.75 0.5
vt 0.875 0
vt 0.9995004534721375 0.5
vt 0.75 0.5
vt 0.875 0
vt 0.9995004534721375 0.5
vt 0.5 0.3400000333786011
vt 0.5 -0.24600005149841309
vt 0.75 -0.24600005149841309
vt 0.75 0.3400000333786011
vt 0.5 -0.24600005149841309
vt 0.75 0.3400000333786011
vt 0.5 0.3400000333786011
vt 0.75 -0.24600005149841309
vt 0.5 0.3400000333786011
vt 0.5 -0.24600005149841309
vt 0.75 -0.24600005149841309
vt 0.75 0.3400000333786011
vt 0.75 0.3400000333786011
vt 0.75 -0.24600005149841309
vt 0.5 0.3400000333786011
vt 0.5 -0.24600005149841309
vt 0.75 0.3400000333786011
vt 0.75 0.5
vt 0.875 0
vt 0.9995004534721375 0.5
vt 0.75 0.5
vt 0.875 0
vt 0.9995004534721375 0.5
vt 0.75 0.3400000333786011
vt 0.5 -0.24600005149841309
vt 0.75 0.3400000333786011
vt 0.5 0.3400000333786011
vt 0.75 -0.24600005149841309
vt 0.5 0.3400000333786011
vt 0.5 -0.24600005149841309
vt 0.75 -0.24600005149841309
vt 0.75 0.3400000333786011
vt 0.75 0.5
vt 0.875 0
vt 0.9995004534721375 0.5
vt 0.75 -0.24600005149841309
vt 0.5 0.3400000333786011
vt 0.5 -0.24600005149841309
vt 0.75 0.3400000333786011
vt 0.9396135210990906 -2.614053726196289
vt 0.5966183543205261 1.5
vt 0.9396135210990906 1.5
vt 0.5966183543205261 -2.614053726196289
vt 0.75 1.5
vt 0.75 -2.614053726196289
vt 0.5966183543205261 4.701643943786621
vt 0.9396135210990906 4.701643943786621
vt 0.75 4.701643943786621
vt 0.9396135210990906 -2.614053726196289
vt 0.5966183543205261 1.5
vt 0.9396135210990906 1.5
vt 0.5966183543205261 -2.614053726196289
vt 0.75 1.5
vt 0.75 -2.614053726196289
vt 0.5966183543205261 4.701643943786621
vt 0.9396135210990906 4.701643943786621
vt 0.75 4.701643943786621
vt 0.9396135210990906 -2.614053726196289
vt 0.5966183543205261 1.5
vt 0.9396135210990906 1.5
vt 0.5966183543205261 -2.614053726196289
vt 0.75 1.5
vt 0.75 -2.614053726196289
vt 0.5966183543205261 4.701643943786621
vt 0.9396135210990906 4.701643943786621
vt 0.75 4.701643943786621
vt 0.9396135210990906 -2.614053726196289
vt 0.5966183543205261 1.5
vt 0.9396135210990906 1.5
vt 0.5966183543205261 -2.614053726196289
vt 0.75 1.5
vt 0.75 -2.614053726196289
vt 0.5966183543205261 4.701643943786621
vt 0.9396135210990906 4.701643943786621
vt 0.75 4.701643943786621
vt 0.9396135210990906 -2.614053726196289
vt 0.5966183543205261 1.5
vt 0.9396135210990906 1.5
vt 0.5966183543205261 -2.614053726196289
vt 0.75 1.5
vt 0.75 -2.614053726196289
vt 0.5966183543205261 4.701643943786621
vt 0.9396135210990906 4.701643943786621
vt 0.75 4.701643943786621
vt 0.9396135210990906 -2.614053726196289
vt 0.5966183543205261 1.5
vt 0.9396135210990906 1.5
vt 0.5966183543205261 -2.614053726196289
vt 0.75 1.5
vt 0.75 -2.614053726196289
vt 0.5966183543205261 4.701643943786621
vt 0.9396135210990906 4.701643943786621
vt 0.75 4.701643943786621
vt 0.9396135210990906 -2.614053726196289
vt 0.5966183543205261 1.5
vt 0.9396135210990906 1.5
vt 0.5966183543205261 -2.614053726196289
vt 0.75 1.5
vt 0.75 -2.614053726196289
vt 0.5966183543205261 4.701643943786621
vt 0.75 4.701643943786621
vt 0.9396135210990906 -2.614053726196289
vt 0.5966183543205261 1.5
vt 0.9396135210990906 1.5
vt 0.9396135210990906 4.701643943786621
vt 0.9396135210990906 -2.614053726196289
vt 0.5966183543205261 1.5
vt 0.9396135210990906 1.5
vt 0.5966183543205261 -2.614053726196289
vt 0.75 1.5
vt 0.75 -2.614053726196289
vt 0.5966183543205261 4.701643943786621
vt 0.9396135210990906 4.701643943786621
vt 0.75 4.701643943786621
vt 0.5966183543205261 -2.614053726196289
vt 0.75 1.5
vt 0.75 -2.614053726196289
vt 0.5966183543205261 4.701643943786621
vt 0.9396135210990906 4.701643943786621
vt 0.9396135210990906 -2.614053726196289
vt 0.5966183543205261 1.5
vt 0.9396135210990906 1.5
vt 0.5966183543205261 -2.614053726196289
vt 0.75 1.5
vt 0.75 -2.614053726196289
vt 0.5966183543205261 4.701643943786621
vt 0.9396135210990906 4.701643943786621
vt 0.75 4.701643943786621
vt 0.75 4.701643943786621
vt 0.9396135210990906 -2.614053726196289
vt 0.5966183543205261 1.5
vt 0.9396135210990906 1.5
vt 0.5966183543205261 -2.614053726196289
vt 0.75 1.5
vt 0.75 -2.614053726196289
vt 0.5966183543205261 4.701643943786621
vt 0.9396135210990906 4.701643943786621
vt 0.75 4.701643943786621
g UpperMesaB030
s 1
f 1/1/1 2/2/2 3/3/3
f 1/1/1 4/4/4 2/2/2
f 4/4/4 5/5/5 2/2/2
f 4/4/4 6/6/6 5/5/5
f 7/7/7 3/3/3 8/8/8
f 7/7/7 1/1/1 3/3/3
f 9/9/9 10/10/10 11/11/11
f 12/12/12 13/13/13 14/14/14
f 13/13/13 15/15/15 14/14/14
f 13/13/13 16/16/16 15/15/15
f 17/17/17 18/18/18 19/19/19
f 17/17/17 12/12/12 18/18/18
f 20/20/20 21/21/21 22/22/22
f 23/23/23 24/24/24 25/25/25
f 26/26/26 27/27/27 28/28/28
f 29/29/29 30/30/30 31/31/31
f 32/32/32 33/33/33 34/34/34
f 32/32/32 35/35/35 33/33/33
f 35/35/35 36/36/36 33/33/33
f 37/37/37 38/38/38 39/39/39
f 37/37/37 40/40/40 38/38/38
f 40/40/40 41/41/41 38/38/38
f 40/40/40 42/42/42 41/41/41
f 43/43/43 39/39/39 44/44/44
f 43/43/43 37/37/37 39/39/39
f 45/45/45 46/46/46 47/47/47
f 35/35/35 48/48/48 36/36/36
f 49/49/49 34/34/34 50/50/50
f 49/49/49 32/32/32 34/34/34
f 51/51/51 52/52/52 53/53/53
f 54/54/54 55/55/55 56/56/56
f 57/57/57 58/58/58 59/59/59
f 54/54/54 60/60/60 55/55/55
f 61/61/61 62/62/62 63/63/63
f 61/61/61 64/64/64 62/62/62
f 64/64/64 65/65/65 62/62/62
f 64/64/64 66/66/66 65/65/65
f 67/67/67 63/63/63 68/68/68
f 69/69/69 70/70/70 71/71/71
f 69/69/69 72/72/72 70/70/70
f 72/72/72 73/73/73 70/70/70
f 72/72/72 74/74/74 73/73/73
f 75/75/75 71/71/71 76/76/76
f 75/75/75 69/69/69 71/71/71
f 77/77/77 78/78/78 79/79/79
f 67/67/67 61/61/61 63/63/63
f 80/80/80 81/81/81 82/82/82
f 60/60/60 83/83/83 55/55/55
f 60/60/60 84/84/84 83/83/83
f 85/85/85 56/56/56 86/86/86
f 85/85/85 54/54/54 56/56/56
f 87/87/87 88/88/88 89/89/89
f 87/87/87 90/90/90 88/88/88
f 90/90/90 91/91/91 88/88/88
f 90/90/90 92/92/92 91/91/91
f 93/93/93 89/89/89 94/94/94
f 93/93/93 87/87/87 89/89/89
f 58/58/58 95/95/95 59/59/59
f 58/58/58 96/96/96 95/95/95
f 96/96/96 97/97/97 95/95/95
f 96/96/96 98/98/98 97/97/97
f 57/57/57 59/59/59 99/99/99
f 100/100/100 101/101/101 102/102/102
f 103/103/103 104/104/104 105/105/105
f 24/24/24 106/106/106 25/25/25
f 107/107/107 108/108/108 109/109/109
f 107/107/107 110/110/110 108/108/108
f 110/110/110 111/111/111 108/108/108
f 110/110/110 112/112/112 111/111/111
f 113/113/113 109/109/109 114/114/114
f 113/113/113 107/107/107 109/109/109
f 115/115/115 116/116/116 117/117/117
f 24/24/24 118/118/118 106/106/106
f 118/118/118 119/119/119 106/106/106
f 118/118/118 120/120/120 119/119/119
f 23/23/23 25/25/25 121/121/121
f 12/12/12 14/14/14 18/18/18
g UpperMesaB031
s 1
f 122/122/122 123/123/123 124/124/124
f 122/122/122 125/125/125 123/123/123
f 125/125/125 126/126/126 123/123/123
f 125/125/125 127/127/127 126/126/126
f 127/127/127 124/124/124 126/126/126
f 127/127/127 122/122/122 124/124/124
f 124/124/124 128/128/128 129/129/129
f 124/124/124 123/123/123 128/128/128
f 123/123/123 130/130/130 128/128/128
f 123/123/123 126/126/126 130/130/130
f 126/126/126 129/129/129 130/130/130
f 126/126/126 124/124/124 129/129/129
f 131/131/131 132/132/132 133/133/133
f 131/131/131 134/134/134 132/132/132
f 134/134/134 135/135/135 132/132/132
f 134/134/134 136/136/136 135/135/135
f 136/136/136 133/133/133 135/135/135
f 133/133/133 137/137/137 138/138/138
f 133/133/133 132/132/132 137/137/137
f 132/132/132 139/139/139 137/137/137
f 132/132/132 135/135/135 139/139/139
f 135/135/135 138/138/138 139/139/139
f 135/135/135 133/133/133 138/138/138
f 140/140/140 141/141/141 142/142/142
f 140/140/140 143/143/143 141/141/141
f 143/143/143 144/144/144 141/141/141
f 143/143/143 145/145/145 144/144/144
f 145/145/145 142/142/142 144/144/144
f 145/145/145 140/140/140 142/142/142
f 142/142/142 146/146/146 147/147/147
f 142/142/142 141/141/141 146/146/146
f 141/141/141 148/148/148 146/146/146
f 141/141/141 144/144/144 148/148/148
f 144/144/144 147/147/147 148/148/148
f 144/144/144 142/142/142 147/147/147
f 136/136/136 131/131/131 133/133/133
f 149/149/149 150/150/150 151/151/151
f 149/149/149 152/152/152 150/150/150
f 152/152/152 153/153/153 150/150/150
f 152/152/152 154/154/154 153/153/153
f 154/154/154 151/151/151 153/153/153
f 154/154/154 149/149/149 151/151/151
f 151/151/151 155/155/155 156/156/156
f 151/151/151 150/150/150 155/155/155
f 150/150/150 157/157/157 155/155/155
f 150/150/150 153/153/153 157/157/157
f 153/153/153 156/156/156 157/157/157
f 153/153/153 151/151/151 156/156/156
f 158/158/158 159/159/159 160/160/160
f 158/158/158 161/161/161 159/159/159
f 161/161/161 162/162/162 159/159/159
f 161/161/161 163/163/163 162/162/162
f 163/163/163 160/160/160 162/162/162
f 163/163/163 158/158/158 160/160/160
f 160/160/160 164/164/164 165/165/165
f 160/160/160 159/159/159 164/164/164
f 159/159/159 166/166/166 164/164/164
f 159/159/159 162/162/162 166/166/166
f 162/162/162 165/165/165 166/166/166
f 162/162/162 160/160/160 165/165/165
f 167/167/167 168/168/168 169/169/169
f 167/167/167 170/170/170 168/168/168
f 170/170/170 171/171/171 168/168/168
f 170/170/170 172/172/172 171/171/171
f 172/172/172 169/169/169 171/171/171
f 172/172/172 167/167/167 169/169/169
f 169/169/169 173/173/173 174/174/174
f 169/169/169 168/168/168 173/173/173
f 168/168/168 175/175/175 173/173/173
f 168/168/168 171/171/171 175/175/175
f 171/171/171 174/174/174 175/175/175
f 171/171/171 169/169/169 174/174/174
f 176/176/176 177/177/177 178/178/178
f 176/176/176 179/179/179 177/177/177
f 179/179/179 180/180/180 177/177/177
f 179/179/179 181/181/181 180/180/180
f 181/181/181 178/178/178 180/180/180
f 181/181/181 176/176/176 178/178/178
f 178/178/178 177/177/177 182/182/182
f 177/177/177 183/183/183 182/182/182
f 184/184/184 185/185/185 186/186/186
f 178/178/178 182/182/182 187/187/187
f 188/188/188 189/189/189 190/190/190
f 188/188/188 191/191/191 189/189/189
f 191/191/191 192/192/192 189/189/189
f 191/191/191 193/193/193 192/192/192
f 193/193/193 190/190/190 192/192/192
f 193/193/193 188/188/188 190/190/190
f 190/190/190 194/194/194 195/195/195
f 190/190/190 189/189/189 194/194/194
f 189/189/189 196/196/196 194/194/194
f 189/189/189 192/192/192 196/196/196
f 192/192/192 195/195/195 196/196/196
f 192/192/192 190/190/190 195/195/195
f 184/184/184 197/197/197 185/185/185
f 197/197/197 198/198/198 185/185/185
f 197/197/197 199/199/199 198/198/198
f 199/199/199 186/186/186 198/198/198
f 199/199/199 184/184/184 186/186/186
f 186/186/186 200/200/200 201/201/201
f 186/186/186 185/185/185 200/200/200
f 202/202/202 203/203/203 204/204/204
f 202/202/202 205/205/205 203/203/203
f 205/205/205 206/206/206 203/203/203
f 205/205/205 207/207/207 206/206/206
f 207/207/207 204/204/204 206/206/206
f 207/207/207 202/202/202 204/204/204
f 204/204/204 208/208/208 209/209/209
f 204/204/204 203/203/203 208/208/208
f 203/203/203 210/210/210 208/208/208
f 203/203/203 206/206/206 210/210/210
f 206/206/206 209/209/209 210/210/210
f 206/206/206 204/204/204 209/209/209
f 185/185/185 211/211/211 200/200/200
f 185/185/185 198/198/198 211/211/211
f 198/198/198 201/201/201 211/211/211
f 198/198/198 186/186/186 201/201/201
f 177/177/177 180/180/180 183/183/183
f 180/180/180 187/187/187 183/183/183
f 180/180/180 178/178/178 187/187/187
f 212/212/212 213/213/213 214/214/214
f 212/212/212 215/215/215 213/213/213
f 215/215/215 216/216/216 213/213/213
f 215/215/215 217/217/217 216/216/216
f 217/217/217 214/214/214 216/216/216
f 217/217/217 212/212/212 214/214/214
f 214/214/214 218/218/218 219/219/219
f 214/214/214 213/213/213 218/218/218
f 213/213/213 220/220/220 218/218/218
f 213/213/213 216/216/216 220/220/220
f 216/216/216 219/219/219 220/220/220
f 216/216/216 214/214/214 219/219/219
