# Exported using wow.export v0.2.19
o 21138_Mageinterior03.obj
v -150.5802459716797 45.41419982910156 302.6597595214844
v -148.9425811767578 46.14213180541992 302.7303771972656
v -150.2312774658203 45.41419982910156 303.26416015625
v -149.12322998046875 46.14213180541992 302.0562744140625
v -148.00791931152344 46.66322708129883 301.909423828125
v -147.95877075195312 46.663124084472656 302.6008605957031
v -149.12322998046875 46.14213180541992 302.0562744140625
v -148.66598510742188 45.29045867919922 303.76263427734375
v -149.6969451904297 44.56252670288086 304.18963623046875
v -150.2312774658203 45.41419982910156 303.26416015625
v -148.49209594726562 45.97673416137695 301.252197265625
v -147.55963134765625 46.01839065551758 300.6861572265625
v -147.55963134765625 46.66300964355469 301.5727233886719
v -149.424560546875 45.29045867919922 300.931640625
v -148.00791931152344 46.66322708129883 301.909423828125
v -149.55130004882812 40.49601745605469 300.4586486816406
v -151.40724182128906 41.57362365722656 301.2274169921875
v -151.4072723388672 39.725345611572266 301.2274169921875
v -145.5679473876953 45.6057014465332 300.4586486816406
v -143.7119903564453 46.33363723754883 301.2274169921875
v -143.7799835205078 46.66088104248047 301.34515380859375
v -147.55963134765625 41.266685485839844 300.1964416503906
v -148.5554656982422 42.70825958251953 300.3275451660156
v -149.55130004882812 42.32292556762695 300.4586486816406
v -147.55963134765625 43.072227478027344 300.1964416503906
v -149.55130004882812 44.14983367919922 300.4586486816406
v -150.479248046875 41.958961486816406 300.843017578125
v -151.40721130371094 43.421905517578125 301.2273864746094
v -150.479248046875 42.872413635253906 300.843017578125
v -145.69468688964844 46.662017822265625 300.931640625
v -150.479248046875 43.78586959838867 300.843017578125
v -149.424560546875 45.29045867919922 300.931640625
v -146.59388732910156 45.6057014465332 304.2875061035156
v -147.55963134765625 44.87776565551758 304.1603698730469
v -147.5596160888672 46.01839065551758 303.6169738769531
v -146.4532470703125 46.66213607788086 303.76263427734375
v -148.5174560546875 42.32292556762695 304.31695556640625
v -148.03460693359375 42.6868896484375 304.25341796875
v -148.5095672607422 40.49601745605469 304.346435546875
v -148.5253448486328 44.14983367919922 304.2875061035156
v -148.96005249023438 41.937591552734375 304.50030517578125
v -147.55963134765625 44.87776565551758 300.1964416503906
v -139.9954833984375 46.2742919921875 308.88751220703125
v -139.86436462402344 46.65793228149414 307.8916931152344
v -139.86436462402344 45.89072036743164 307.8916931152344
v -140.1265869140625 46.657859802246094 309.88336181640625
v -143.7119903564453 42.80803298950195 301.2274169921875
v -145.5679473876953 45.6057014465332 300.4586486816406
v -145.5679473876953 42.037357330322266 300.4586486816406
v -143.7119903564453 46.33363723754883 301.2274169921875
v -147.55963134765625 44.87776565551758 300.1964416503906
v -147.55963134765625 44.87776565551758 304.1603698730469
v -147.5596160888672 46.01839065551758 303.6169738769531
v -147.55963134765625 46.01839065551758 300.6861572265625
v -148.9425811767578 46.14213180541992 302.7303771972656
v -147.95877075195312 46.663124084472656 302.6008605957031
v -147.5596160888672 46.662872314453125 302.8197326660156
v -151.16236877441406 44.56252670288086 301.6514587402344
v -149.12322998046875 46.14213180541992 302.0562744140625
v -150.5802459716797 45.41419982910156 302.6597595214844
v -145.72447204589844 42.80803298950195 304.7131042480469
v -146.15182495117188 44.18549728393555 304.5033874511719
v -145.6939697265625 46.33363723754883 304.6603088378906
v -146.6096954345703 42.037357330322266 304.3464660644531
v -146.6096954345703 42.037357330322266 304.3464660644531
v -147.07675170898438 43.436195373535156 304.25445556640625
v -146.59388732910156 45.6057014465332 304.2875061035156
v -144.9211883544922 46.661102294921875 305.2532653808594
v -144.32821655273438 46.66067886352539 306.0260314941406
v -144.96432495117188 43.57870101928711 305.29638671875
v -142.11825561523438 46.659812927246094 302.4503173828125
v -143.7799835205078 46.66088104248047 301.34515380859375
v -143.7119903564453 46.33363723754883 301.2274169921875
v -148.66598510742188 45.29045867919922 303.76263427734375
v -149.55130004882812 43.23638153076172 300.4586486816406
v -143.8893280029297 45.89072036743164 307.8916931152344
v -144.01438903808594 45.12004470825195 306.9417419433594
v -143.8283233642578 46.66019058227539 307.8916931152344
v -144.3810577392578 44.34937286376953 306.0565490722656
v -143.95545959472656 46.66036605834961 306.9259338378906
v -145.72447204589844 42.80803298950195 304.7131042480469
v -142.11825561523438 43.57870101928711 302.4503173828125
v -143.7119903564453 42.80803298950195 301.2274169921875
v -140.8953399658203 44.34937286376953 304.0440673828125
v -140.12657165527344 45.12004470825195 305.9000244140625
v -140.8953399658203 46.65894317626953 304.0440673828125
v -140.12657165527344 46.65829849243164 305.9000244140625
v -145.6162872314453 46.66157913208008 304.5257263183594
v -145.6939697265625 46.33363723754883 304.6603088378906
v -145.6162872314453 46.66157913208008 304.5257263183594
v -143.95545959472656 46.66015625 308.857421875
v -147.55963134765625 41.266685485839844 304.22137451171875
v -149.39476013183594 39.725345611572266 304.7131042480469
v -149.42526245117188 43.421905517578125 304.6602783203125
v -145.72447204589844 42.80803298950195 304.7131042480469
v -144.96432495117188 43.57870101928711 305.29638671875
v -143.92135620117188 43.19336700439453 303.58172607421875
v -148.03460693359375 40.881351470947266 302.27142333984375
v -149.55130004882812 40.49601745605469 300.4586486816406
v -148.5095672607422 40.49601745605469 304.346435546875
v -147.55963134765625 41.266685485839844 300.1964416503906
v -147.55963134765625 41.266685485839844 304.22137451171875
v -140.1265869140625 46.657859802246094 309.88336181640625
v -140.9361572265625 46.08250427246094 308.38958740234375
v -142.00796508789062 46.2742919921875 308.88751220703125
v -142.041015625 46.65900802612305 309.3703918457031
v -142.94863891601562 46.08250427246094 308.38958740234375
v -143.95545959472656 46.66015625 308.857421875
v -143.8893280029297 45.89072036743164 307.8916931152344
v -139.9954833984375 46.2742919921875 308.88751220703125
v -139.86436462402344 45.89072036743164 307.8916931152344
v -141.87684631347656 45.89072036743164 307.8916931152344
v -141.9393768310547 45.5053825378418 307.4167175292969
v -143.8893280029297 45.89072036743164 307.8916931152344
v -141.87684631347656 45.89072036743164 307.8916931152344
v -139.86436462402344 45.89072036743164 307.8916931152344
v -142.99822998046875 46.659584045410156 309.1138916015625
v -140.12657165527344 45.12004470825195 305.9000244140625
v -144.01438903808594 45.12004470825195 306.9417419433594
v -142.25381469726562 44.734710693359375 305.978271484375
v -140.8953399658203 44.34937286376953 304.0440673828125
v -144.3810577392578 44.34937286376953 306.0565490722656
v -142.92984008789062 43.96403503417969 304.67022705078125
v -142.11825561523438 43.57870101928711 302.4503173828125
v -145.1608428955078 42.42269515991211 302.78692626953125
v -145.5679473876953 42.037357330322266 300.4586486816406
v -146.6096954345703 42.037357330322266 304.3464660644531
v -143.7119903564453 42.80803298950195 301.2274169921875
v -146.56378173828125 41.65202331542969 302.34002685546875
v -149.4730224609375 40.110679626464844 302.58587646484375
v -151.4072723388672 39.725345611572266 301.2274169921875
v -149.39476013183594 39.725345611572266 304.7131042480469
vn 0.5013671517372131 -0.8638309836387634 0.049265358597040176
vn 0.4046371579170227 -0.8409067988395691 -0.35936686396598816
vn 0.2425559014081955 -0.8384070992469788 -0.48809850215911865
vn 0.4348474442958832 -0.8801551461219788 0.19035381078720093
vn 0.7906600832939148 -0.5223046541213989 0.3194597363471985
vn 0.7178688645362854 -0.49044981598854065 -0.494088351726532
vn 0.4939384460449219 -0.8378832340240479 0.23232847452163696
vn 0.10554943978786469 -0.5783151388168335 -0.8089566826820374
vn -0.03311486914753914 -0.5954325199127197 -0.8027225732803345
vn 0.2425559014081955 -0.8384070992469788 -0.48809850215911865
vn 0.4146215319633484 -0.6152194142341614 0.6705178022384644
vn 0.2013155221939087 -0.675142228603363 0.7096865773200989
vn 0.4231816232204437 -0.4351535439491272 0.7947067022323608
vn 0.38619276881217957 -0.7658040523529053 0.5141977071762085
vn 0.7906600832939148 -0.5223046541213989 0.3194597363471985
vn -0.2091233730316162 0.7303408980369568 0.6502842307090759
vn 0.3176210820674896 0.3077343702316284 0.8968926668167114
vn -0.01964527927339077 0.716679036617279 0.6971263885498047
vn -0.08340605348348618 -0.4157857298851013 0.9056299924850464
vn -0.46086814999580383 -0.26701417565345764 0.846347451210022
vn -0.3810122609138489 -0.21129579842090607 0.9001020789146423
vn -0.3703031837940216 0.7303411364555359 0.5740012526512146
vn -0.028553282842040062 0.3335493206977844 0.9423001408576965
vn 0.06951028108596802 0.3184325695037842 0.9453936815261841
vn -0.16635553538799286 0.3532796800136566 0.9206080436706543
vn 0.3249000608921051 -0.1999579668045044 0.9243683218955994
vn 0.21623094379901886 0.3335391581058502 0.9176033139228821
vn 0.5529657006263733 -0.19995945692062378 0.8088542222976685
vn 0.33373498916625977 0.06351830810308456 0.9405245184898376
vn 0.034412555396556854 -0.29281380772590637 0.9555500149726868
vn 0.44256341457366943 -0.20161260664463043 0.8737791776657104
vn 0.4342002868652344 -0.5337193608283997 0.7256815433502197
vn 0.4741586446762085 -0.3044847548007965 -0.8261129856109619
vn 0.40506070852279663 -0.39321810007095337 -0.8254122138023376
vn 0.38323861360549927 -0.6453517079353333 -0.6607944965362549
vn 0.6081803441047668 -0.27476608753204346 -0.7447283267974854
vn -0.40963998436927795 0.27729976177215576 -0.8690798878669739
vn -0.31476977467536926 0.3216772675514221 -0.892997145652771
vn -0.5735645294189453 0.6777273416519165 -0.46011883020401
vn -0.10051342844963074 -0.22142015397548676 -0.9699846506118774
vn -0.5089239478111267 0.27617719769477844 -0.815305233001709
vn 0.015062021091580391 -0.3944731652736664 0.9187840223312378
vn -0.7727393507957458 0.6289809346199036 -0.08518721163272858
vn -1 0 0
vn -0.8928804397583008 0.41994887590408325 -0.16250360012054443
vn -0.6030609607696533 0.7976914644241333 -0.0024098099675029516
vn -0.5125081539154053 0.8518595695495605 0.10803065448999405
vn -0.2588215172290802 0 0.9659251570701599
vn -0.5062496662139893 0.7303410172462463 0.4585992991924286
vn -0.3826897144317627 0 0.923876941204071
vn 0.0881485864520073 -0.1311456263065338 0.9874364137649536
vn 0.06399323791265488 -0.1569737195968628 -0.9855273365974426
vn 0.1619468629360199 -0.4244177043437958 -0.8908663392066956
vn 0.2695651054382324 -0.39428550004959106 0.878563404083252
vn 0.4046371579170227 -0.8409067988395691 -0.35936686396598816
vn 0.7178688645362854 -0.49044981598854065 -0.494088351726532
vn 0.5239139795303345 -0.3912275731563568 -0.7566076517105103
vn 0.5889663100242615 -0.6284219622612 0.5081382989883423
vn 0.4348474442958832 -0.8801551461219788 0.19035381078720093
vn 0.5013671517372131 -0.8638309836387634 0.049265358597040176
vn 0.508366048336029 -0.017296265810728073 -0.8609673976898193
vn 0.4786796271800995 -0.0861806720495224 -0.873749852180481
vn 0.5563834309577942 -0.1542349010705948 -0.8164858222007751
vn 0.3942990005016327 -0.016924355179071426 -0.9188263416290283
vn -0.42177823185920715 0.7663701772689819 -0.4845408797264099
vn -0.16784609854221344 0.37993213534355164 -0.9096589088439941
vn 0.1428862065076828 -0.01671893335878849 -0.9895979166030884
vn 0.7347847819328308 -0.07726871222257614 -0.673884928226471
vn 0.8660263419151306 0 -0.49999839067459106
vn 0.7125442028045654 -0.019788730889558792 -0.7013481259346008
vn -0.6703833341598511 -0.0677010640501976 0.7389199733734131
vn -0.3810122609138489 -0.21129579842090607 0.9001020789146423
vn -0.46086814999580383 -0.26701417565345764 0.846347451210022
vn 0.35635754466056824 -0.6715939044952393 -0.6495928764343262
vn 0.20600388944149017 0.06188029423356056 0.9765926003456116
vn 0.7666300535202026 0.5544785261154175 -0.32377758622169495
vn 0.9691449999809265 -0.03954685851931572 -0.2432982474565506
vn 1 0 -7.514872280012241e-9
vn 0.8709462285041809 -0.02637689933180809 -0.490669846534729
vn 0.9659244418144226 0 -0.25882428884506226
vn 0.508366048336029 -0.017296265810728073 -0.8609673976898193
vn -0.707106351852417 0 0.7071071863174438
vn -0.6087562441825867 0 0.7933573126792908
vn -0.8660248517990112 0.000005077850346424384 0.5000009536743164
vn -0.9659261703491211 0 0.2588176727294922
vn -0.8660243153572083 -0.00002843302172550466 0.500001847743988
vn -0.9659261703491211 0 0.2588176727294922
vn 0.7066259980201721 -0.2118947058916092 -0.6751150488853455
vn 0.5563834309577942 -0.1542349010705948 -0.8164858222007751
vn 0.7066259980201721 -0.2118947058916092 -0.6751150488853455
vn 0.7608866095542908 0.6226004958152771 0.18281199038028717
vn -0.4348919093608856 0.677695631980896 -0.5929567217826843
vn -0.6942588090896606 0.6527183651924133 -0.30325478315353394
vn -0.3483610451221466 -0.22134153544902802 -0.9108526110649109
vn -0.44035863876342773 0.8396784067153931 -0.31784340739250183
vn -0.3430904448032379 0.8396785855293274 -0.42098551988601685
vn -0.3917546272277832 0.8669586777687073 -0.30807629227638245
vn -0.5555516481399536 0.8287758827209473 0.06703012436628342
vn -0.2091233730316162 0.7303408980369568 0.6502842307090759
vn -0.5735645294189453 0.6777273416519165 -0.46011883020401
vn -0.3703031837940216 0.7303411364555359 0.5740012526512146
vn -0.4348919093608856 0.677695631980896 -0.5929567217826843
vn -0.6030609607696533 0.7976914644241333 -0.0024098099675029516
vn -0.4742474853992462 0.8465864658355713 -0.24162077903747559
vn 0.11678989231586456 0.9654622673988342 -0.23290091753005981
vn 0.10957254469394684 0.9860564470291138 0.12524659931659698
vn 0.47906357049942017 0.8242380023002625 -0.3018772602081299
vn 0.7608866095542908 0.6226004958152771 0.18281199038028717
vn 0.7666300535202026 0.5544785261154175 -0.32377758622169495
vn -0.7727393507957458 0.6289809346199036 -0.08518721163272858
vn -0.8928804397583008 0.41994887590408325 -0.16250360012054443
vn -0.11515834182500839 0.8888166546821594 -0.4435577392578125
vn -0.06703362613916397 0.8536767959594727 -0.5164711475372314
vn 0 0.7765784859657288 -0.6300205588340759
vn -0.02376914955675602 0.8246338367462158 -0.565167248249054
vn -0.04737000912427902 0.8668506741523743 -0.49631237983703613
vn 0.4692944884300232 0.8672823309898376 0.16608498990535736
vn -0.1474303901195526 0.891461968421936 -0.42843887209892273
vn -0.08663245290517807 0.8396778106689453 -0.5361306071281433
vn -0.18523268401622772 0.8669573068618774 -0.46268120408058167
vn -0.25329360365867615 0.8914628028869629 -0.3756812512874603
vn -0.22244185209274292 0.8396766185760498 -0.4954420030117035
vn -0.2986702024936676 0.8669586777687073 -0.39897215366363525
vn -0.3418961763381958 0.8914629817008972 -0.29732272028923035
vn -0.49014919996261597 0.8489624261856079 -0.19752636551856995
vn -0.5062496662139893 0.7303410172462463 0.4585992991924286
vn -0.42177823185920715 0.7663701772689819 -0.4845408797264099
vn -0.5125081539154053 0.8518595695495605 0.10803065448999405
vn -0.5539610385894775 0.8287780284881592 -0.07908350229263306
vn -0.5351754426956177 0.8193424344062805 0.2055847942829132
vn -0.01964527927339077 0.716679036617279 0.6971263885498047
vn -0.6942588090896606 0.6527183651924133 -0.30325478315353394
vt -0.16775217652320862 1
vt 0.17308063805103302 0
vt 0.17308063805103302 1
vt 0.17308063805103302 1
vt -0.16775217652320862 1
vt -0.16775213181972504 0
vt -0.16775213181972504 0
vt 0.8148619532585144 0.75
vt 0.4077799618244171 0.75
vt 0.4077799618244171 1
vt 1.5281410217285156 0.8769782781600952
vt 1.8356410264968872 0.8640000224113464
vt 1.8356410264968872 1.0039565563201904
vt 1.220641016960144 0.75
vt 1.633160948753357 1
vt 1.220641016960144 0
vt 0.6056409478187561 0.2849999666213989
vt 0.6056409478187561 0
vt 2.450640916824341 0.765999972820282
vt 2.9985013008117676 0.9118985533714294
vt 2.9638171195983887 1
vt 1.8356410264968872 0
vt 1.5281410217285156 0.2849999666213989
vt 1.220641016960144 0.2849999666213989
vt 1.8356410264968872 0.322970986366272
vt 1.220641016960144 0.5699999928474426
vt 0.9131410121917725 0.2849999666213989
vt 0.6056409478187561 0.5699999928474426
vt 0.9131410121917725 0.42750000953674316
vt 2.450640916824341 1
vt 0.9131410121917725 0.5699999928474426
vt 1.220641016960144 0.75
vt 1.6290256977081299 0.7179999947547913
vt 1.2219438552856445 0.6017144918441772
vt 1.2219438552856445 0.7922859787940979
vt 1.6290256977081299 1
vt 0.8148619532585144 0.2849999666213989
vt 1.0184029340744019 0.3008572459220886
vt 0.8148619532585144 0
vt 0.8148619532585144 0.5699999928474426
vt 0.611320972442627 0.2849999666213989
vt 1.8356410264968872 0.6459420323371887
vt 1.8304647207260132 0.898631364107132
vt 1.6619285345077515 0.9981898069381714
vt 1.661928415298462 0.7986598610877991
vt 1.9990010261535645 0.9986028671264648
vt 2.9985008239746094 0
vt 2.450640916824341 0.765999972820282
vt 2.450640916824341 0
vt 2.9985013008117676 0.9118985533714294
vt 1.8356410264968872 0.6459420323371887
vt 1.2219438552856445 0.6017144918441772
vt 1.2219438552856445 0.7922859787940979
vt 1.8356410264968872 0.8640000224113464
vt 0.8148619532585144 1
vt 1.0758628845214844 0.9580000042915344
vt 1.2219438552856445 1
vt 0.6056409478187561 0.75
vt 1.220641016960144 1
vt 0.6056409478187561 1
vt 2 0.22200143337249756
vt 1.814512848854065 0.5175729393959045
vt 2 0.9082878828048706
vt 1.6290256977081299 0.12685799598693848
vt 1.6290256977081299 0.12685799598693848
vt 1.4254847764968872 0.35899996757507324
vt 1.6290256977081299 0.7179999947547913
vt 0.2011120617389679 0.9991496205329895
vt 0.4102732837200165 0.9991161227226257
vt 0.20418652892112732 0.3502286672592163
vt 0.40593278408050537 0.9978818297386169
vt 0.0150071382522583 0.9952975511550903
vt 0.00099945068359375 0.9132633805274963
vt 0.8148619532585144 0.75
vt 1.220641016960144 0.42750000953674316
vt 0.8032422065734863 0.8296196460723877
vt 0.6142537593841553 0.6597988605499268
vt 0.8101242780685425 0.9992965459823608
vt 0.4099999964237213 0.5019893050193787
vt 0.6179959774017334 0.9991662502288818
vt 0 0.21048033237457275
vt 0.40593236684799194 0.1997867226600647
vt 0.0009990334510803223 0.0004995465278625488
vt 0.8372957706451416 0.39924073219299316
vt 1.2656927108764648 0.5988675951957703
vt 0.837296187877655 0.9978127479553223
vt 1.265692949295044 0.997916042804718
vt 2 0.9999999403953552
vt 0 0.9144091606140137
vt 0 0.999219536781311
vt 0.973565936088562 0.9995004534721375
vt 1.2219438552856445 0
vt 0.4077799618244171 0
vt 0.4077799618244171 0.5699999928474426
vt 0.8899999856948853 3.8969922065734863
vt 0.8899999856948853 4.188287734985352
vt 0.49000000953674316 4.04336404800415
vt 0.49000000953674316 3.1979339122772217
vt 0.09000000357627869 3.0120127201080322
vt 0.8899999856948853 3.0106537342071533
vt 0.09000000357627869 3.38521409034729
vt 0.8899999856948853 3.382915735244751
vt 0.09000000357627869 5
vt 0.2900000214576721 4.8281073570251465
vt 0.49000000953674316 4.886394262313843
vt 0.49000000953674316 5
vt 0.6899999976158142 4.829591274261475
vt 0.8899999856948853 5
vt 0.8899999856948853 4.7727885246276855
vt 0.09000000357627869 4.8849101066589355
vt 0.09000000357627869 4.769820213317871
vt 0.4899999797344208 4.771304368972778
vt 0.49000000953674316 4.683261156082153
vt 0.8899999856948853 4.7727885246276855
vt 0.49000000953674316 4.771304368972778
vt 0.09000000357627869 4.769820213317871
vt 0.6899999976158142 5
vt 0.09000000357627869 4.595981121063232
vt 0.8899999856948853 4.5967020988464355
vt 0.49000000953674316 4.497744083404541
vt 0.09000000357627869 4.397637367248535
vt 0.8899999856948853 4.39950704574585
vt 0.49000000953674316 4.292962551116943
vt 0.09000000357627869 4.1897358894348145
vt 0.49000000953674316 3.7917680740356445
vt 0.09000000357627869 3.685258626937866
vt 0.8899999856948853 3.686396837234497
vt 0.09000000357627869 3.897139072418213
vt 0.49000000953674316 3.5340871810913086
vt 0.49000000953674316 2.881552815437317
vt 0.09000000357627869 2.750821113586426
vt 0.8899999856948853 2.7510929107666016
g Mageinterior030
s 1
f 1/1/1 2/2/2 3/3/3
f 4/4/4 5/5/5 2/2/2
f 2/2/2 5/5/5 6/6/6
f 1/1/1 7/7/7 2/2/2
g Mageinterior031
s 1
f 8/8/8 9/9/9 10/10/10
f 11/11/11 12/12/12 13/13/13
f 14/14/14 12/12/12 11/11/11
f 11/11/11 15/15/15 14/14/14
f 16/16/16 17/17/17 18/18/18
f 13/13/13 15/15/15 11/11/11
f 19/19/19 20/20/20 21/21/21
f 22/22/22 23/23/23 24/24/24
f 25/25/25 26/26/26 23/23/23
f 25/25/25 23/23/23 22/22/22
f 24/24/24 27/27/27 16/16/16
f 16/16/16 27/27/27 17/17/17
f 27/27/27 28/28/28 17/17/17
f 24/24/24 29/29/29 27/27/27
f 29/29/29 28/28/28 27/27/27
f 21/21/21 30/30/30 19/19/19
f 28/28/28 31/31/31 32/32/32
f 30/30/30 13/13/13 12/12/12
f 33/33/33 34/34/34 35/35/35
f 35/35/35 36/36/36 33/33/33
f 37/37/37 38/38/38 39/39/39
f 40/40/40 38/38/38 37/37/37
f 37/37/37 41/41/41 40/40/40
f 39/39/39 41/41/41 37/37/37
f 42/42/42 19/19/19 30/30/30
f 30/30/30 12/12/12 42/42/42
f 43/43/43 44/44/44 45/45/45
f 46/46/46 44/44/44 43/43/43
f 47/47/47 48/48/48 49/49/49
f 50/50/50 48/48/48 47/47/47
f 48/48/48 51/51/51 49/49/49
f 52/52/52 40/40/40 8/8/8
f 8/8/8 53/53/53 52/52/52
f 26/26/26 51/51/51 54/54/54
f 54/54/54 32/32/32 26/26/26
f 31/31/31 26/26/26 32/32/32
f 55/55/55 56/56/56 57/57/57
f 58/58/58 32/32/32 59/59/59
f 59/59/59 60/60/60 58/58/58
f 61/61/61 62/62/62 63/63/63
f 61/61/61 64/64/64 62/62/62
f 33/33/33 62/62/62 64/64/64
f 33/33/33 63/63/63 62/62/62
f 65/65/65 66/66/66 67/67/67
f 10/10/10 55/55/55 8/8/8
f 68/68/68 69/69/69 70/70/70
f 71/71/71 72/72/72 73/73/73
f 9/9/9 8/8/8 40/40/40
f 35/35/35 74/74/74 55/55/55
f 32/32/32 58/58/58 28/28/28
f 23/23/23 26/26/26 75/75/75
f 23/23/23 75/75/75 24/24/24
f 75/75/75 29/29/29 24/24/24
f 26/26/26 29/29/29 75/75/75
f 76/76/76 77/77/77 78/78/78
f 77/77/77 79/79/79 80/80/80
f 79/79/79 70/70/70 69/69/69
f 70/70/70 81/81/81 68/68/68
f 26/26/26 31/31/31 29/29/29
f 82/82/82 73/73/73 83/83/83
f 84/84/84 71/71/71 82/82/82
f 85/85/85 86/86/86 84/84/84
f 45/45/45 87/87/87 85/85/85
f 15/15/15 59/59/59 14/14/14
f 55/55/55 57/57/57 35/35/35
f 36/36/36 35/35/35 57/57/57
f 36/36/36 88/88/88 63/63/63
f 68/68/68 89/89/89 90/90/90
f 31/31/31 28/28/28 29/29/29
f 78/78/78 91/91/91 76/76/76
f 44/44/44 87/87/87 45/45/45
f 80/80/80 78/78/78 77/77/77
f 87/87/87 86/86/86 85/85/85
f 69/69/69 80/80/80 79/79/79
f 86/86/86 71/71/71 84/84/84
f 52/52/52 66/66/66 92/92/92
f 52/52/52 67/67/67 66/66/66
f 92/92/92 38/38/38 52/52/52
f 92/92/92 39/39/39 38/38/38
f 40/40/40 52/52/52 38/38/38
f 39/39/39 93/93/93 41/41/41
f 94/94/94 41/41/41 93/93/93
f 94/94/94 40/40/40 41/41/41
f 51/51/51 26/26/26 25/25/25
f 49/49/49 25/25/25 22/22/22
f 49/49/49 51/51/51 25/25/25
f 22/22/22 24/24/24 16/16/16
f 63/63/63 33/33/33 36/36/36
f 89/89/89 68/68/68 81/81/81
f 71/71/71 73/73/73 82/82/82
f 40/40/40 94/94/94 9/9/9
f 65/65/65 92/92/92 66/66/66
g Mageinterior032
s 1
f 95/95/95 96/96/96 97/97/97
f 98/98/98 99/99/99 100/100/100
f 101/101/101 99/99/99 98/98/98
f 98/98/98 102/102/102 101/101/101
f 100/100/100 102/102/102 98/98/98
f 103/103/103 104/104/104 105/105/105
f 105/105/105 106/106/106 103/103/103
f 107/107/107 108/108/108 105/105/105
f 109/109/109 108/108/108 107/107/107
f 107/107/107 104/104/104 109/109/109
f 105/105/105 104/104/104 107/107/107
f 103/103/103 110/110/110 104/104/104
f 110/110/110 111/111/111 104/104/104
f 104/104/104 111/111/111 112/112/112
f 104/104/104 112/112/112 109/109/109
f 113/113/113 114/114/114 115/115/115
f 113/113/113 115/115/115 116/116/116
f 105/105/105 108/108/108 117/117/117
f 105/105/105 117/117/117 106/106/106
f 113/113/113 118/118/118 119/119/119
f 116/116/116 118/118/118 113/113/113
f 119/119/119 114/114/114 113/113/113
f 120/120/120 121/121/121 122/122/122
f 118/118/118 121/121/121 120/120/120
f 120/120/120 119/119/119 118/118/118
f 122/122/122 119/119/119 120/120/120
f 123/123/123 124/124/124 96/96/96
f 121/121/121 124/124/124 123/123/123
f 123/123/123 122/122/122 121/121/121
f 96/96/96 122/122/122 123/123/123
f 125/125/125 126/126/126 127/127/127
f 128/128/128 126/126/126 125/125/125
f 125/125/125 95/95/95 128/128/128
f 127/127/127 95/95/95 125/125/125
f 129/129/129 101/101/101 102/102/102
f 126/126/126 101/101/101 129/129/129
f 129/129/129 127/127/127 126/126/126
f 102/102/102 127/127/127 129/129/129
f 130/130/130 131/131/131 132/132/132
f 99/99/99 131/131/131 130/130/130
f 130/130/130 100/100/100 99/99/99
f 132/132/132 100/100/100 130/130/130
f 97/97/97 128/128/128 95/95/95
f 124/124/124 128/128/128 97/97/97
f 97/97/97 96/96/96 124/124/124
