# Exported using wow.export v0.2.19
o 21138_Warlock07.obj
v -268.6910400390625 -9.04885196685791 430.51324462890625
v -267.2374572753906 -8.278189659118652 429.7555236816406
v -268.0865783691406 -9.04885196685791 430.8622131347656
v -263.4591369628906 -6.817879676818848 426.3283386230469
v -265.3240661621094 -7.588540077209473 426.5738830566406
v -265.4508056640625 -8.72916316986084 426.1008605957031
v -268.7730712890625 -10.202496528625488 433.68292236328125
v -269.4709777832031 -10.202496528625488 433.68292236328125
v -269.2945556640625 -9.819510459899902 431.9703063964844
v -268.62042236328125 -9.819510459899902 432.1509094238281
v -270.5396423339844 -11.054163932800293 433.68292236328125
v -270.41912841796875 -10.671181678771973 431.6689453125
v -266.4797668457031 -7.50753116607666 428.3019714355469
v -264.8420715332031 -6.736870765686035 428.3725891113281
v -266.1307678222656 -7.50753116607666 428.9064025878906
v -265.022705078125 -6.736870765686035 427.6984558105469
v -267.0618896484375 -8.359198570251465 427.293701171875
v -264.56549072265625 -7.588540077209473 429.40484619140625
v -265.5964660644531 -8.359198570251465 429.8319091796875
v -264.4248352050781 -8.72916316986084 429.9297180175781
v -265.32476806640625 -9.499823570251465 430.302490234375
v -267.3067321777344 -9.499823570251465 426.8695983886719
v -269.6993103027344 -9.900519371032715 429.93109130859375
v -267.1611022949219 -9.900519371032715 431.39654541015625
v -267.588134765625 -10.671181678771973 432.4275207519531
v -266.6905212402344 -11.041144371032715 431.6682434082031
v -267.0632629394531 -11.81180477142334 432.5681457519531
v -267.73095703125 -8.278189659118652 429.2620544433594
v -268.55419921875 -9.129860877990723 428.4388122558594
v -266.4817810058594 -9.129860877990723 430.5111999511719
v -266.0975646972656 -10.270485877990723 430.89544677734375
v -268.9004821777344 -10.270485877990723 428.092529296875
v -270.89215087890625 -11.81180477142334 431.5422058105469
v -270.1234130859375 -11.041144371032715 429.6862487792969
v -267.6087951660156 -11.054163932800293 433.68292236328125
v -267.11907958984375 -12.194788932800293 433.68292236328125
v -263.4591369628906 -7.958504676818848 425.838623046875
v -263.4591369628906 -6.817879676818848 429.2591857910156
v -263.4591369628906 -7.958504676818848 429.8025817871094
v -271.0830383300781 -12.194788932800293 433.68292236328125
v -263.4591369628906 -5.966211795806885 428.1905212402344
v -263.4591369628906 -5.966211795806885 427.4925842285156
v -271.14404296875 -16.105039596557617 433.68292236328125
v -267.11907958984375 -16.105039596557617 433.68292236328125
v -269.0741882324219 -15.924233436584473 433.1334228515625
v -268.5638732910156 -15.358097076416016 431.13507080078125
v -270.89215087890625 -15.743427276611328 431.5422058105469
v -267.00433349609375 -15.743427276611328 432.58392333984375
v -270.1234130859375 -14.97276782989502 429.6862487792969
v -266.6376647949219 -14.97276782989502 431.69873046875
v -267.7690734863281 -14.58743667602539 429.8956298828125
v -268.9004821777344 -14.202106475830078 428.092529296875
v -266.05438232421875 -14.202107429504395 430.9385986328125
v -265.29425048828125 -13.431446075439453 430.3553161621094
v -264.4090576171875 -12.660786628723145 429.9886779785156
v -265.3725280761719 -13.04611587524414 428.22808837890625
v -265.4508056640625 -12.660785675048828 426.1008605957031
v -267.3067321777344 -13.431446075439453 426.8695983886719
v -263.4591369628906 -11.890125274658203 429.86358642578125
v -263.93408203125 -12.275455474853516 427.91363525390625
v -263.4591369628906 -11.890125274658203 425.838623046875
v -266.6805419921875 -13.816776275634766 428.90411376953125
v -267.3067321777344 -11.465635299682617 426.8695983886719
v -268.9004821777344 -10.270485877990723 428.092529296875
v -267.3067321777344 -13.431446075439453 426.8695983886719
v -267.3067321777344 -9.499823570251465 426.8695983886719
v -267.0911865234375 -13.95842170715332 433.12554931640625
v -267.11907958984375 -12.194788932800293 433.68292236328125
v -267.0632629394531 -11.81180477142334 432.5681457519531
v -267.11907958984375 -16.105039596557617 433.68292236328125
v -267.00433349609375 -15.743427276611328 432.58392333984375
v -265.32476806640625 -9.499823570251465 430.302490234375
v -264.4248352050781 -8.72916316986084 429.9297180175781
v -264.85955810546875 -11.080305099487305 430.14251708984375
v -265.29425048828125 -13.431446075439453 430.3553161621094
v -264.4090576171875 -12.660786628723145 429.9886779785156
v -266.6905212402344 -11.041144371032715 431.6682434082031
v -266.0975646972656 -10.270485877990723 430.89544677734375
v -266.36761474609375 -12.621626853942871 431.2970886230469
v -266.6376647949219 -14.97276782989502 431.69873046875
v -266.05438232421875 -14.202107429504395 430.9385986328125
v -265.32476806640625 -9.499823570251465 430.302490234375
v -265.6895751953125 -11.85096549987793 430.62054443359375
v -265.29425048828125 -13.431446075439453 430.3553161621094
v -266.6905212402344 -11.041144371032715 431.6682434082031
v -266.847412109375 -13.39228630065918 432.1260986328125
v -266.6376647949219 -14.97276782989502 431.69873046875
v -263.4591369628906 -9.924314498901367 425.838623046875
v -264.4549560546875 -10.30964469909668 425.9697265625
v -263.4591369628906 -10.907219886779785 425.838623046875
v -263.4591369628906 -7.958504676818848 429.8025817871094
v -263.93408203125 -10.309645652770996 429.8956298828125
v -263.4591369628906 -11.890125274658203 429.86358642578125
v -263.4591369628906 -11.890125274658203 425.838623046875
v -264.4549560546875 -11.292550086975098 425.9697265625
v -265.4508056640625 -12.660785675048828 426.1008605957031
v -265.4508056640625 -10.694974899291992 426.1008605957031
v -267.3067321777344 -9.499823570251465 426.8695983886719
v -266.3787841796875 -11.080305099487305 426.4852294921875
v -267.3067321777344 -11.465635299682617 426.8695983886719
v -265.4508056640625 -8.72916316986084 426.1008605957031
v -265.4508056640625 -9.712068557739258 426.1008605957031
v -264.4549560546875 -9.326738357543945 425.9697265625
v -263.4591369628906 -7.958504676818848 425.838623046875
v -270.89215087890625 -15.743427276611328 431.5422058105469
v -270.89215087890625 -11.81180477142334 431.5422058105469
v -271.0830383300781 -12.194788932800293 433.68292236328125
v -271.14404296875 -16.105039596557617 433.68292236328125
v -270.1234130859375 -11.041144371032715 429.6862487792969
v -270.1234130859375 -14.97276782989502 429.6862487792969
v -270.1234130859375 -11.041144371032715 429.6862487792969
v -268.9004821777344 -14.202106475830078 428.092529296875
v -270.1234130859375 -14.97276782989502 429.6862487792969
v -267.3067321777344 -13.431446075439453 426.8695983886719
vn 0.46851685643196106 -0.8524361848831177 -0.2320443093776703
vn 0.07736898958683014 -0.8094484210014343 -0.5820715427398682
vn -0.07592365145683289 -0.8094493746757507 -0.5822605490684509
vn 0.2695122957229614 -0.6254032254219055 0.7322799563407898
vn 0.4313335716724396 -0.5917903184890747 0.6809812784194946
vn 0.32898569107055664 -0.19976948201656342 0.9229629039764404
vn -0.22110603749752045 -0.7618911266326904 0.6087972521781921
vn 0.2548620104789734 -0.7225019335746765 0.6426790356636047
vn 0.26678845286369324 -0.9122001528739929 -0.31099000573158264
vn -0.2340337485074997 -0.8542430400848389 -0.46421653032302856
vn 0.5839440822601318 -0.4382762312889099 0.6833178400993347
vn 0.8433672189712524 -0.5367992520332336 0.02404676377773285
vn 0.521769642829895 -0.8524359464645386 0.03330663591623306
vn 0.3580385744571686 -0.8094486594200134 -0.4654044210910797
vn 0.22538118064403534 -0.809449315071106 -0.5422132015228271
vn 0.4953707754611969 -0.8524365425109863 0.1672116369009018
vn 0.5928877592086792 -0.5917903184890747 0.5461394786834717
vn 0.17678679525852203 -0.5966191291809082 -0.7828103303909302
vn -0.031838688999414444 -0.5966212153434753 -0.8018911480903625
vn -0.09252296388149261 -0.2200905978679657 -0.9710816740989685
vn -0.3406974971294403 -0.2200912982225418 -0.9140487313270569
vn 0.5566553473472595 -0.19977305829524994 0.8063656687736511
vn 0.7865256667137146 -0.5917882919311523 0.1765332669019699
vn -0.4285234808921814 -0.5966235995292664 -0.678533673286438
vn -0.6614909172058105 -0.6042412519454956 -0.4442097246646881
vn -0.7520831227302551 -0.22009234130382538 -0.6212329268455505
vn -0.9120984077453613 -0.22309057414531708 -0.34395796060562134
vn 0.5126096606254578 -0.852436363697052 -0.10287631303071976
vn 0.714034914970398 -0.5917884111404419 0.3740864098072052
vn -0.23830148577690125 -0.5966216325759888 -0.7663256525993347
vn -0.565660297870636 -0.22009286284446716 -0.7947248220443726
vn 0.7463879585266113 -0.19977352023124695 0.6348193287849426
vn 0.9652708172798157 -0.20005811750888824 0.1680147498846054
vn 0.8852603435516357 -0.199773907661438 0.4200053811073303
vn -0.6081696152687073 -0.47845345735549927 0.6334129571914673
vn -0.7309576272964478 -0.16696497797966003 0.6616824269294739
vn 0.07876542955636978 -0.19978277385234833 0.9766692519187927
vn 0.39077436923980713 -0.5900120139122009 -0.706527590751648
vn 0.161805659532547 -0.22009718418121338 -0.9619647264480591
vn 0.673096776008606 -0.1524588018655777 0.7236691117286682
vn 0.4741949141025543 -0.8283255100250244 -0.2983556091785431
vn 0.42854785919189453 -0.8552660346031189 0.2913190722465515
vn 0.22546766698360443 0.8286330103874207 0.512378454208374
vn -0.404880166053772 0.7780959010124207 0.48024868965148926
vn -0.17089508473873138 0.9052069187164307 0.3890954256057739
vn -0.12766298651695251 0.8804824352264404 0.45656633377075195
vn 0.6375225186347961 0.6858845353126526 0.3508951961994171
vn -0.5368102192878723 0.8205040097236633 0.19648896157741547
vn 0.31194964051246643 0.7303433418273926 0.6076890826225281
vn -0.7306526303291321 0.6779938340187073 0.08044317364692688
vn -0.34522977471351624 0.8288233280181885 0.4403049051761627
vn 0.14403849840164185 0.7303420901298523 0.6677225232124329
vn -0.7265738248825073 0.677996039390564 -0.11140860617160797
vn -0.6729881167411804 0.6779922842979431 -0.2956576943397522
vn -0.5735308527946472 0.6779918074607849 -0.4597710967063904
vn -0.519130527973175 0.8288224935531616 0.20870231091976166
vn -0.2091180831193924 0.7303422093391418 0.650284469127655
vn -0.03368890658020973 0.7303428053855896 0.6822495460510254
vn -0.44968312978744507 0.6529833674430847 -0.6094241738319397
vn -0.5567620992660522 0.8268566131591797 0.07952442020177841
vn -0.3655700087547302 0.7166824340820312 0.5939064025878906
vn -0.4474242329597473 0.8288251757621765 0.3359471261501312
vn 0.3141648769378662 0.31873244047164917 0.8942650556564331
vn 0.7463879585266113 -0.19977352023124695 0.6348193287849426
vn -0.03368890658020973 0.7303428053855896 0.6822495460510254
vn 0.5566553473472595 -0.19977305829524994 0.8063656687736511
vn -0.9173511862754822 0.3865930438041687 0.09493431448936462
vn -0.7309576272964478 -0.16696497797966003 0.6616824269294739
vn -0.9120984077453613 -0.22309057414531708 -0.34395796060562134
vn -0.404880166053772 0.7780959010124207 0.48024868965148926
vn -0.5368102192878723 0.8205040097236633 0.19648896157741547
vn -0.3406974971294403 -0.2200912982225418 -0.9140487313270569
vn -0.09252296388149261 -0.2200905978679657 -0.9710816740989685
vn -0.49410343170166016 0.2955552041530609 -0.817624032497406
vn -0.6729881167411804 0.6779922842979431 -0.2956576943397522
vn -0.5735308527946472 0.6779918074607849 -0.4597710967063904
vn -0.7520831227302551 -0.22009234130382538 -0.6212329268455505
vn -0.565660297870636 -0.22009286284446716 -0.7947248220443726
vn -0.8367142677307129 0.2955554127693176 -0.46103814244270325
vn -0.7306526303291321 0.6779938340187073 0.08044317364692688
vn -0.7265738248825073 0.677996039390564 -0.11140860617160797
vn -0.3406974971294403 -0.2200912982225418 -0.9140487313270569
vn -0.6888765096664429 0.29555729031562805 -0.6618874669075012
vn -0.6729881167411804 0.6779922842979431 -0.2956576943397522
vn -0.7520831227302551 -0.22009234130382538 -0.6212329268455505
vn -0.8685479164123535 0.40460002422332764 -0.2862226366996765
vn -0.7306526303291321 0.6779938340187073 0.08044317364692688
vn -0.17090635001659393 0.30801960825920105 0.9359033703804016
vn -0.02282319962978363 0.32247719168663025 0.9463019967079163
vn -0.27972838282585144 0.5342980027198792 0.7976701855659485
vn 0.161805659532547 -0.22009718418121338 -0.9619647264480591
vn -0.2657388150691986 0.2955378592014313 -0.9176275730133057
vn -0.44968312978744507 0.6529833674430847 -0.6094241738319397
vn -0.3655700087547302 0.7166824340820312 0.5939064025878906
vn -0.156317338347435 0.5513447523117065 0.8195022940635681
vn -0.2091180831193924 0.7303422093391418 0.650284469127655
vn 0.07200868427753448 0.31873366236686707 0.9451050162315369
vn 0.5566553473472595 -0.19977305829524994 0.8063656687736511
vn 0.21874937415122986 0.3339545726776123 0.9168550372123718
vn 0.3141648769378662 0.31873244047164917 0.8942650556564331
vn 0.32898569107055664 -0.19976948201656342 0.9229629039764404
vn 0.209470734000206 0.06214430183172226 0.9758381247520447
vn 0.08459259569644928 0.05792761594057083 0.9947303533554077
vn 0.07876542955636978 -0.19978277385234833 0.9766692519187927
vn 0.6375225186347961 0.6858845353126526 0.3508951961994171
vn 0.9652708172798157 -0.20005811750888824 0.1680147498846054
vn 0.673096776008606 -0.1524588018655777 0.7236691117286682
vn 0.22546766698360443 0.8286330103874207 0.512378454208374
vn 0.8852603435516357 -0.199773907661438 0.4200053811073303
vn 0.31194964051246643 0.7303433418273926 0.6076890826225281
vn 0.8852603435516357 -0.199773907661438 0.4200053811073303
vn 0.14403849840164185 0.7303420901298523 0.6677225232124329
vn 0.31194964051246643 0.7303433418273926 0.6076890826225281
vn -0.03368890658020973 0.7303428053855896 0.6822495460510254
vt 0.5 0.800000011920929
vt 0.75 1.2000000476837158
vt 0.5 1.2000000476837158
vt 0.5 0.3999999761581421
vt 0.75 0.3999999761581421
vt 0.75 0
vt 0 1.2000000476837158
vt 0 0.800000011920929
vt 0.25 0.800000011920929
vt 0.25 1.2000000476837158
vt 0 0.3999999761581421
vt 0.25 0.3999999761581421
vt 1 0.800000011920929
vt 0.75 1.2000000476837158
vt 1 1.2000000476837158
vt 0.75 0.800000011920929
vt 1 0.3999999761581421
vt 0.75 1.600000023841858
vt 1 1.600000023841858
vt 0.75 2
vt 1 2
vt 1 0
vt 0.5 0.3999999761581421
vt 0.5 1.600000023841858
vt 0.25 1.600000023841858
vt 0.5 2
vt 0.25 2
vt 0.75 0.800000011920929
vt 0.75 0.3999999761581421
vt 0.75 1.600000023841858
vt 0.75 2
vt 0.75 0
vt 0.25 0
vt 0.5 0
vt 0 1.600000023841858
vt 0 2
vt 0.5 0
vt 0.5 1.600000023841858
vt 0.5 2
vt 0 0
vt 0.5 1.2000000476837158
vt 0.5 0.800000011920929
vt 0.5985081195831299 1.8864229917526245
vt 1.192502737045288 1.8864229917526245
vt 0.9039735794067383 1.9552025198936462
vt 0.9792861938476562 2.2053332328796387
vt 0.6356808543205261 2.1543750762939453
vt 1.2094390392303467 2.023982048034668
vt 0.749133288860321 2.3866844177246094
vt 1.2635509967803955 2.1347827911376953
vt 1.0965805053710938 2.3604774475097656
vt 0.929610013961792 2.586172103881836
vt 1.349630355834961 2.2299296855926514
vt 1.4618111848831177 2.302938461303711
vt 1.5924484729766846 2.3488335609436035
vt 1.4502605199813843 2.5692044496536255
vt 1.4387098550796509 2.83547043800354
vt 1.164811611175537 2.7392449378967285
vt 1.7326395511627197 2.364487409591675
vt 1.6625436544418335 2.6085622310638428
vt 1.7326388359069824 2.868290901184082
vt 1.257220983505249 2.48458731174469
vt -2.1855694143368964e-8 0.5326379537582397
vt 0.4999999701976776 1.0652759075164795
vt -4.371138828673793e-8 0
vt 0 1.0652759075164795
vt 0.75 0.5326379537582397
vt 1 1.0652759075164795
vt 0.4999999701976776 1.0652759075164795
vt 1 0
vt 0.5 0
vt 1 1.0652759075164795
vt 0.4999999701976776 1.0652759075164795
vt 0.75 0.5326379537582397
vt 1 0
vt 0.5 0
vt 1 1.0652759075164795
vt 0.4999999701976776 1.0652759075164795
vt 0.75 0.5326379537582397
vt 1 0
vt 0.5 0
vt -4.377216100692749e-8 1.0652759075164795
vt 0.2499999850988388 0.5326379537582397
vt 0 0
vt -4.377216100692749e-8 1.0652759075164795
vt 0.2499999850988388 0.5326379537582397
vt 0 0
vt -2.1855694143368964e-8 0.5326379537582397
vt 0.2499999701976776 0.5326379537582397
vt -3.278353943869661e-8 0.2663189768791199
vt -4.377216100692749e-8 1.0652759075164795
vt 0.2499999850988388 0.5326379537582397
vt 0 0
vt -4.371138828673793e-8 0
vt 0.2499999850988388 0.2663189768791199
vt 0.5 0
vt 0.5 0.5326379537582397
vt 1 1.0652759075164795
vt 0.75 0.5326379537582397
vt 1 0.5326379537582397
vt 0.4999999701976776 1.0652759075164795
vt 0.5 0.7989569306373596
vt 0.2499999850988388 0.7989569306373596
vt 0 1.0652759075164795
vt 0.5 0
vt 0.4999999701976776 1.0652759075164795
vt 1 1.0652759075164795
vt 0.9999999403953552 0
vt 0 1.0652759075164795
vt -4.371138828673793e-8 0
vt 1 1.0652759075164795
vt 0.5 0
vt 0.9999999403953552 0
vt 0.9999999403953552 0
g Warlock070
s 1
f 1/1/1 2/2/2 3/3/3
f 4/4/4 5/5/5 6/6/6
f 7/7/7 8/8/8 9/9/9
f 9/9/9 10/10/10 7/7/7
f 8/8/8 11/11/11 12/12/12
f 12/12/12 9/9/9 8/8/8
f 9/9/9 3/3/3 10/10/10
f 9/9/9 1/1/1 3/3/3
f 13/13/13 14/14/14 15/15/15
f 13/13/13 16/16/16 14/14/14
f 17/17/17 5/5/5 16/16/16
f 16/16/16 13/13/13 17/17/17
f 18/18/18 19/19/19 15/15/15
f 15/15/15 14/14/14 18/18/18
f 20/20/20 21/21/21 19/19/19
f 19/19/19 18/18/18 20/20/20
f 22/22/22 6/6/6 5/5/5
f 5/5/5 17/17/17 22/22/22
f 12/12/12 23/23/23 1/1/1
f 1/1/1 9/9/9 12/12/12
f 24/24/24 25/25/25 10/10/10
f 10/10/10 3/3/3 24/24/24
f 26/26/26 27/27/27 25/25/25
f 25/25/25 24/24/24 26/26/26
f 28/28/28 15/15/15 2/2/2
f 28/28/28 13/13/13 15/15/15
f 29/29/29 17/17/17 13/13/13
f 13/13/13 28/28/28 29/29/29
f 19/19/19 30/30/30 2/2/2
f 2/2/2 15/15/15 19/19/19
f 21/21/21 31/31/31 30/30/30
f 30/30/30 19/19/19 21/21/21
f 32/32/32 22/22/22 17/17/17
f 17/17/17 29/29/29 32/32/32
f 33/33/33 34/34/34 23/23/23
f 23/23/23 12/12/12 33/33/33
f 35/35/35 7/7/7 10/10/10
f 10/10/10 25/25/25 35/35/35
f 36/36/36 35/35/35 25/25/25
f 25/25/25 27/27/27 36/36/36
f 6/6/6 37/37/37 4/4/4
f 29/29/29 23/23/23 34/34/34
f 1/1/1 28/28/28 2/2/2
f 23/23/23 29/29/29 28/28/28
f 28/28/28 1/1/1 23/23/23
f 30/30/30 24/24/24 3/3/3
f 3/3/3 2/2/2 30/30/30
f 31/31/31 26/26/26 24/24/24
f 24/24/24 30/30/30 31/31/31
f 34/34/34 32/32/32 29/29/29
f 18/18/18 38/38/38 39/39/39
f 11/11/11 40/40/40 33/33/33
f 33/33/33 12/12/12 11/11/11
f 16/16/16 41/41/41 14/14/14
f 16/16/16 42/42/42 41/41/41
f 5/5/5 4/4/4 42/42/42
f 42/42/42 16/16/16 5/5/5
f 38/38/38 18/18/18 14/14/14
f 14/14/14 41/41/41 38/38/38
f 39/39/39 20/20/20 18/18/18
g Warlock071
s 1
f 43/43/43 44/44/44 45/45/45
f 46/46/46 47/47/47 48/48/48
f 49/49/49 47/47/47 46/46/46
f 46/46/46 50/50/50 49/49/49
f 48/48/48 50/50/50 46/46/46
f 51/51/51 49/49/49 50/50/50
f 52/52/52 49/49/49 51/51/51
f 51/51/51 53/53/53 52/52/52
f 50/50/50 53/53/53 51/51/51
f 45/45/45 44/44/44 48/48/48
f 48/48/48 47/47/47 45/45/45
f 45/45/45 47/47/47 43/43/43
f 54/54/54 55/55/55 56/56/56
f 56/56/56 55/55/55 57/57/57
f 57/57/57 58/58/58 56/56/56
f 56/56/56 58/58/58 54/54/54
f 55/55/55 59/59/59 60/60/60
f 60/60/60 59/59/59 61/61/61
f 61/61/61 57/57/57 60/60/60
f 60/60/60 57/57/57 55/55/55
f 53/53/53 54/54/54 62/62/62
f 62/62/62 54/54/54 58/58/58
f 58/58/58 52/52/52 62/62/62
f 62/62/62 52/52/52 53/53/53
g Warlock072
s 1
f 63/63/63 64/64/64 65/65/65
f 66/66/66 64/64/64 63/63/63
f 67/67/67 68/68/68 69/69/69
f 70/70/70 68/68/68 67/67/67
f 67/67/67 71/71/71 70/70/70
f 69/69/69 71/71/71 67/67/67
f 72/72/72 73/73/73 74/74/74
f 72/72/72 74/74/74 75/75/75
f 76/76/76 75/75/75 74/74/74
f 76/76/76 74/74/74 73/73/73
f 77/77/77 78/78/78 79/79/79
f 77/77/77 79/79/79 80/80/80
f 81/81/81 80/80/80 79/79/79
f 81/81/81 79/79/79 78/78/78
f 78/78/78 82/82/82 83/83/83
f 78/78/78 83/83/83 81/81/81
f 84/84/84 81/81/81 83/83/83
f 84/84/84 83/83/83 82/82/82
f 69/69/69 85/85/85 86/86/86
f 69/69/69 86/86/86 71/71/71
f 87/87/87 71/71/71 86/86/86
f 88/88/88 89/89/89 90/90/90
f 73/73/73 91/91/91 92/92/92
f 73/73/73 92/92/92 76/76/76
f 93/93/93 76/76/76 92/92/92
f 93/93/93 92/92/92 91/91/91
f 94/94/94 95/95/95 96/96/96
f 95/95/95 97/97/97 96/96/96
f 95/95/95 89/89/89 97/97/97
f 94/94/94 89/89/89 95/95/95
f 97/97/97 98/98/98 99/99/99
f 97/97/97 99/99/99 96/96/96
f 96/96/96 99/99/99 100/100/100
f 99/99/99 98/98/98 100/100/100
f 89/89/89 101/101/101 102/102/102
f 89/89/89 102/102/102 97/97/97
f 102/102/102 98/98/98 97/97/97
f 101/101/101 98/98/98 102/102/102
f 88/88/88 103/103/103 89/89/89
f 103/103/103 101/101/101 89/89/89
f 104/104/104 101/101/101 103/103/103
f 104/104/104 103/103/103 88/88/88
f 90/90/90 89/89/89 94/94/94
f 87/87/87 86/86/86 85/85/85
f 105/105/105 106/106/106 107/107/107
f 107/107/107 108/108/108 105/105/105
f 109/109/109 106/106/106 110/110/110
f 110/110/110 106/106/106 105/105/105
f 64/64/64 111/111/111 112/112/112
f 112/112/112 111/111/111 113/113/113
f 65/65/65 64/64/64 112/112/112
f 96/96/96 100/100/100 114/114/114
