# Exported using wow.export v0.2.19
o 21138_BH01.obj
v -198.31301879882812 9.149393081665039 10.315549850463867
v -197.73287963867188 8.351078033447266 10.315549850463867
v -197.73289489746094 8.393075942993164 15.828404426574707
v -203.18934631347656 11.267358779907227 3.8721978664398193
v -204.04010009765625 10.996975898742676 3.021439790725708
v -203.61473083496094 11.161949157714844 -1.1713967323303223
v -204.83233642578125 10.493340492248535 11.206164360046387
v -204.04010009765625 11.026758193969727 11.206164360046387
v -204.0401153564453 11.056540489196777 15.828404426574707
v -204.04010009765625 10.996975898742676 6.583924293518066
v -197.47862243652344 7.400765895843506 10.315549850463867
v -197.224365234375 6.299576282501221 15.828404426574707
v -197.22434997558594 6.408455848693848 4.802694320678711
v -197.73287963867188 8.309081077575684 4.802694320678711
v -197.73289489746094 8.393074035644531 -6.214992046356201
v -197.224365234375 6.299574851989746 -6.214992046356201
v -197.47862243652344 7.4007649421691895 -0.7061491012573242
v -204.0401153564453 11.056538581848145 -6.214991092681885
v -203.18934631347656 11.324464797973633 -6.214991092681885
v -201.32838439941406 11.324461936950684 15.828404426574707
v -200.9029998779297 11.16071891784668 10.315549850463867
v -200.4776153564453 11.026756286621094 10.315549850463867
v -200.4776153564453 10.99697494506836 4.802694320678711
v -201.328369140625 11.26735782623291 4.802694320678711
v -200.9029998779297 11.160717964172363 -0.706148624420166
v -200.4776153564453 11.026756286621094 -0.706148624420166
v -199.6853790283203 10.488447189331055 10.315549850463867
v -198.8931427001953 9.920355796813965 4.802694320678711
v -198.89315795898438 9.95503044128418 10.315549850463867
v -201.32838439941406 11.324460983276367 -6.214991569519043
v -199.6853790283203 10.488447189331055 -0.706148624420166
v -198.89315795898438 9.95503044128418 -0.7061491012573242
v -198.89315795898438 9.989704132080078 15.828404426574707
v -198.31301879882812 9.149393081665039 -0.706148624420166
v -198.89315795898438 9.989704132080078 -6.214992046356201
v -200.4776153564453 11.056538581848145 15.828404426574707
v -197.224365234375 6.354015350341797 -0.706148624420166
v -200.4776153564453 11.056538581848145 -6.214991569519043
v -205.62457275390625 9.989705085754395 15.828404426574707
v -205.6245574951172 9.920355796813965 8.168380737304688
v -205.62457275390625 9.989704132080078 -6.214991092681885
v -204.83233642578125 10.493339538574219 -1.596775770187378
v -197.73287963867188 8.351078033447266 -0.706148624420166
v -205.6245574951172 9.920355796813965 1.4369820356369019
v -206.7848358154297 8.393074035644531 15.828404426574707
v -206.20469665527344 9.156715393066406 11.998392105102539
v -203.18934631347656 11.267358779907227 5.733164310455322
v -204.04010009765625 10.996975898742676 6.583924293518066
v -207.27850341796875 10.99697494506836 6.58391809463501
v -207.27850341796875 11.267354011535645 5.733156204223633
v -207.27850341796875 6.408454895019531 9.837177276611328
v -207.27850341796875 8.309082984924316 9.328632354736328
v -206.78482055664062 8.309081077575684 9.328646659851074
v -205.6245574951172 9.920355796813965 8.168380737304688
v -207.27850341796875 9.920354843139648 8.168374061584473
v -203.61473083496094 11.161949157714844 10.780784606933594
v -206.78482055664062 8.309081077575684 9.328646659851074
v -205.6245574951172 9.920355796813965 1.4369820356369019
v -204.04010009765625 10.996975898742676 3.021439790725708
v -207.27850341796875 10.99697494506836 3.0214269161224365
v -201.328369140625 11.295909881591797 10.315549850463867
v -206.7848358154297 8.393073081970215 -6.214991092681885
v -206.20469665527344 9.15671443939209 -2.389004707336426
v -206.78482055664062 8.309081077575684 0.27671730518341064
v -201.328369140625 11.295909881591797 -0.706148624420166
v -207.29336547851562 6.31719446182251 15.828404426574707
v -207.03909301757812 7.313138008117676 12.57852554321289
v -207.27850341796875 6.408454895019531 9.837177276611328
v -197.224365234375 6.354016304016113 10.315549850463867
v -203.18934631347656 11.267358779907227 3.8721978664398193
v -207.27850341796875 11.267354965209961 3.872180461883545
v -207.03909301757812 7.313137054443359 -2.9691367149353027
v -207.29336547851562 6.317193031311035 -6.214991092681885
v -207.27850341796875 6.408453941345215 -0.23182296752929688
v -204.04010009765625 11.02675724029541 -1.5967755317687988
v -203.18934631347656 11.32446575164795 15.828404426574707
v -205.62457275390625 9.95503044128418 11.998392105102539
v -205.62457275390625 9.95503044128418 -2.3890044689178467
v -203.18934631347656 11.267358779907227 5.733164310455322
v -203.18934631347656 11.29591178894043 10.780784606933594
v -203.18934631347656 11.29591178894043 -1.1713967323303223
v -207.27850341796875 6.408453941345215 -0.23182296752929688
v -206.78482055664062 8.309081077575684 0.27671730518341064
v -207.27850341796875 8.309080123901367 0.2767079770565033
v -207.27850341796875 9.920354843139648 1.4369659423828125
v -206.87680053710938 -1.9753503799438477 0.5864126682281494
v -207.27850341796875 -2.5769572257995605 0.5863997340202332
v -207.27850341796875 -6.747405052185059 0.5864062905311584
v -207.27850341796875 1.5934910774230957 0.5863931775093079
v -206.47511291503906 -6.747403621673584 9.01894474029541
v -207.27850341796875 -6.747405052185059 9.018938064575195
v -206.87680053710938 -2.656851291656494 9.02005672454834
v -197.90234375 6.101206302642822 4.802694320678711
v -197.224365234375 6.354016304016113 10.315549850463867
v -197.22434997558594 6.408455848693848 4.802694320678711
v -206.47511291503906 -1.9753499031066895 9.01894474029541
v -198.04258728027344 2.7967028617858887 4.802694320678711
v -197.97247314453125 4.344111442565918 10.315549850463867
v -197.90234375 6.101206302642822 4.802694320678711
v -197.90235900878906 5.891520023345947 15.828404426574707
v -198.04258728027344 2.796705484390259 15.828404426574707
v -197.97247314453125 4.34411096572876 -0.706148624420166
v -197.90235900878906 5.891519069671631 -6.214992046356201
v -198.04258728027344 2.7967050075531006 -6.214992046356201
v -206.6153564453125 6.101205825805664 9.159187316894531
v -206.5452423095703 4.448955535888672 12.493795394897461
v -206.47511291503906 2.796703815460205 9.01894474029541
v -206.47512817382812 2.796705484390259 15.828404426574707
v -206.61537170410156 5.920093059539795 15.828404426574707
v -206.6153564453125 6.101205348968506 0.44617462158203125
v -206.47511291503906 2.796703815460205 0.5864189863204956
v -206.5452423095703 4.448955535888672 -2.8844082355499268
v -206.61537170410156 5.9200921058654785 -6.214991092681885
v -206.47512817382812 2.796705484390259 -6.214991092681885
v -207.27850341796875 6.408454895019531 9.837177276611328
v -206.6153564453125 6.010649681091309 12.493795394897461
v -206.49838256835938 1.9907112121582031 12.423674583435059
v -206.52163696289062 1.1847184896469116 15.828404426574707
v -206.47512817382812 -1.9753479957580566 12.423674583435059
v -207.27850341796875 1.4337005615234375 9.02116870880127
v -206.47511291503906 2.796703815460205 9.01894474029541
v -206.47511291503906 -6.747403621673584 9.01894474029541
v -206.47511291503906 -1.9753499031066895 9.01894474029541
v -206.47511291503906 2.796703815460205 0.5864189863204956
v -206.47511291503906 -6.747403621673584 0.5864185690879822
v -206.47512817382812 2.7967047691345215 12.423674583435059
v -197.224365234375 6.354015350341797 -0.7061491012573242
v -197.224365234375 6.299574851989746 -6.214992046356201
v -197.90235900878906 5.891519069671631 -6.214992046356201
v -197.90234375 5.996362686157227 -0.706148624420166
v -197.90234375 5.996362686157227 -0.7061491012573242
v -197.224365234375 6.299576282501221 15.828404426574707
v -197.90234375 5.996363162994385 10.315549850463867
v -197.90235900878906 5.891520023345947 15.828404426574707
v -207.29336547851562 6.317193031311035 -6.214991092681885
v -207.27850341796875 6.408453941345215 -0.23182296752929688
v -197.90234375 5.996363162994385 10.315549850463867
v -206.49838256835938 -2.781341075897217 15.828404426574707
v -206.47512817382812 -6.747400283813477 15.828404426574707
v -206.47512817382812 2.7967047691345215 -2.81428599357605
v -206.47512817382812 -1.9753491878509521 -2.814286231994629
v -206.47511291503906 -1.9753499031066895 0.5864187479019165
v -206.47511291503906 -1.9753499031066895 0.5864187479019165
v -206.47511291503906 -6.747403621673584 0.5864185690879822
v -206.47512817382812 -6.747402667999268 -2.814286231994629
v -206.47512817382812 -6.747401714324951 -6.214991092681885
v -206.47512817382812 -1.9753479957580566 -6.214991092681885
v -206.47512817382812 -6.747402191162109 12.423674583435059
v -198.04258728027344 2.796703815460205 -0.706148624420166
v -198.04258728027344 2.7967042922973633 10.315549850463867
v -207.27850341796875 6.408453941345215 -0.23182296752929688
v -207.27850341796875 6.101206302642822 0.4461686909198761
v -206.6153564453125 6.101205348968506 0.44617462158203125
v -207.27850341796875 2.7967007160186768 9.018938064575195
v -207.27850341796875 6.1012043952941895 9.159173011779785
v -206.6153564453125 6.101205825805664 9.159187316894531
v -207.29336547851562 6.31719446182251 15.828404426574707
v -207.27850341796875 -2.6568522453308105 9.02005386352539
v -197.5633544921875 6.200390815734863 -0.7061491012573242
v -197.5633544921875 6.2003912925720215 10.315549850463867
v -198.04258728027344 2.796703815460205 -0.7061491012573242
v -198.04258728027344 0.410677433013916 -3.4605705738067627
v -198.04258728027344 -1.9753503799438477 -0.7061491012573242
v -198.04258728027344 2.7967050075531006 -6.214992046356201
v -198.04258728027344 -1.9753491878509521 -6.214992046356201
v -198.04258728027344 -4.361376762390137 -3.4605705738067627
v -198.04258728027344 -6.747403621673584 -6.214992046356201
v -207.27850341796875 2.7967000007629395 0.5864046216011047
v -198.04258728027344 -6.747403621673584 -0.706148624420166
v -198.04258728027344 2.7967028617858887 4.802694320678711
v -198.04258728027344 0.4106762409210205 2.0482726097106934
v -198.04258728027344 -1.9753503799438477 4.802694320678711
v -198.04258728027344 -4.361376762390137 2.0482726097106934
v -198.04258728027344 -6.747403621673584 4.802694320678711
v -198.04258728027344 2.7967042922973633 10.315549850463867
v -198.04258728027344 0.4106767177581787 7.559122085571289
v -198.04258728027344 -1.9753491878509521 10.315549850463867
v -198.04258728027344 -4.361376762390137 7.559122085571289
v -198.04258728027344 -6.747402667999268 10.315549850463867
v -198.04258728027344 2.796705484390259 15.828404426574707
v -198.04258728027344 0.4106781482696533 13.071977615356445
v -207.27850341796875 6.408454895019531 9.837177276611328
v -198.04258728027344 -4.36137580871582 13.071977615356445
v -198.04258728027344 -1.9753479957580566 15.828404426574707
v -198.04258728027344 -6.747401714324951 15.828404426574707
v -201.328369140625 11.26735782623291 4.802694320678711
v -201.388671875 10.914483070373535 10.315544128417969
v -201.388671875 10.884187698364258 4.802684783935547
v -201.3585205078125 11.106067657470703 10.315549850463867
v -201.38868713378906 10.944778442382812 15.828404426574707
v -203.12904357910156 10.944778442382812 15.828404426574707
v -202.25885009765625 10.914483070373535 10.315544128417969
v -201.38868713378906 10.944778442382812 15.828404426574707
v -207.27850341796875 11.267354011535645 5.733156204223633
v -207.27850341796875 10.884186744689941 5.672845840454102
v -203.12901306152344 10.88418960571289 5.672854423522949
v -201.38868713378906 10.94477653503418 -6.214991569519043
v -201.32838439941406 11.324460983276367 -6.214991569519043
v -201.3585205078125 11.106067657470703 -0.706148624420166
v -203.12901306152344 10.88418960571289 5.672854423522949
v -203.1591796875 11.104328155517578 10.750629425048828
v -203.18934631347656 11.29591178894043 10.780784606933594
v -203.18934631347656 11.32446575164795 15.828404426574707
v -203.1290283203125 10.914484024047852 10.750629425048828
v -203.1591796875 11.104326248168945 -1.1412405967712402
v -203.18934631347656 11.29591178894043 -1.1713964939117432
v -203.18934631347656 11.324464797973633 -6.214991092681885
v -203.12901306152344 10.884188652038574 3.932509660720825
v -203.1290283203125 10.914483070373535 -1.1412405967712402
v -203.18934631347656 11.267358779907227 5.733164310455322
v -203.18934631347656 11.267358779907227 5.733164310455322
v -201.388671875 10.914483070373535 10.315544128417969
v -202.25885009765625 10.914482116699219 -0.7061529159545898
v -201.38868713378906 10.94477653503418 -6.214991569519043
v -201.388671875 10.914482116699219 -0.706153392791748
v -203.18934631347656 11.267358779907227 3.8721978664398193
v -201.388671875 10.914482116699219 -0.706153392791748
v -201.388671875 10.884187698364258 4.802684783935547
v -203.12901306152344 10.88418960571289 5.672854423522949
v -203.1290283203125 10.944777488708496 -6.214991092681885
v -207.27850341796875 10.884185791015625 3.9324963092803955
v -207.27850341796875 11.267354965209961 3.872180461883545
v -203.18934631347656 11.267358779907227 3.8721978664398193
v -203.1290283203125 10.914483070373535 -1.1412408351898193
v -203.12901306152344 10.884188652038574 3.932509660720825
v -201.328369140625 11.295909881591797 10.315549850463867
v -203.12904357910156 10.944778442382812 15.828404426574707
v -201.32838439941406 11.324461936950684 15.828404426574707
v -201.328369140625 11.295909881591797 -0.706148624420166
v -203.1290283203125 10.914484024047852 10.750629425048828
v -203.12901306152344 10.884188652038574 3.932509660720825
v -207.27850341796875 10.884186744689941 5.672845840454102
v -207.27850341796875 10.884185791015625 3.9324963092803955
v -203.12901306152344 10.884188652038574 3.932509660720825
v -203.12901306152344 10.88418960571289 5.672854423522949
v -203.1290283203125 10.944777488708496 -6.214991092681885
v -207.27850341796875 1.1352335214614868 1.6265894174575806
v -207.27850341796875 1.1352335214614868 8.14061164855957
v -206.3873748779297 1.1352343559265137 4.883601188659668
v -205.49624633789062 1.13523530960083 8.140612602233887
v -205.49624633789062 1.1352335214614868 1.6265913248062134
v -203.85638427734375 1.423327922821045 -2.2942001819610596
v -205.4962158203125 1.7114224433898926 -6.214991092681885
v -205.49623107910156 1.423327922821045 -2.2941999435424805
v -200.57667541503906 1.4233283996582031 -2.2941999435424805
v -198.9368438720703 1.1352344751358032 1.6265915632247925
v -198.93682861328125 1.4233280420303345 -2.2942004203796387
v -203.85638427734375 0.9575573205947876 11.984508514404297
v -205.49623107910156 0.976155161857605 11.984508514404297
v -202.2165069580078 1.7114224433898926 -6.214991569519043
v -198.9368438720703 1.1352335214614868 8.14061164855957
v -202.21652221679688 0.7798792719841003 15.828404426574707
v -205.4962158203125 0.8170750737190247 15.828404426574707
v -202.216552734375 1.1352335214614868 4.883601665496826
v -198.9368133544922 1.7114216089248657 -6.214992046356201
v -200.57669067382812 0.9575563669204712 11.984508514404297
v -198.93679809570312 0.7040379643440247 15.828404426574707
v -198.93682861328125 0.9196357727050781 11.984508514404297
v -205.62696838378906 1.4605966806411743 1.4034439325332642
v -205.49624633789062 1.1352335214614868 1.6265913248062134
v -205.49623107910156 1.423327922821045 -2.2941999435424805
v -198.76974487304688 2.0367846488952637 -6.214992046356201
v -198.9368133544922 1.7114216089248657 -6.214992046356201
v -198.93682861328125 1.4233280420303345 -2.2942001819610596
v -198.769775390625 1.4605966806411743 8.140609741210938
v -198.9368438720703 1.1352335214614868 8.14061164855957
v -198.93682861328125 0.9196357727050781 11.984508514404297
v -205.626953125 1.14243745803833 15.828404426574707
v -205.4962158203125 0.8170750737190247 15.828404426574707
v -205.49623107910156 0.976155161857605 11.984508514404297
v -206.0742950439453 1.322657585144043 12.09343147277832
v -205.626953125 1.3015170097351074 12.09607982635498
v -205.62696838378906 1.4605966806411743 8.363755226135254
v -205.49624633789062 1.13523530960083 8.140612602233887
v -206.06219482421875 1.7698339223861694 -2.827228546142578
v -205.626953125 1.7486910820007324 -2.405773639678955
v -205.62693786621094 2.03678560256958 -6.214991092681885
v -206.49745178222656 1.5028822422027588 0.5605341792106628
v -206.5399932861328 2.0790679454803467 -6.214991092681885
v -206.52960205078125 1.5028822422027588 9.054742813110352
v -206.52560424804688 1.3438003063201904 12.438924789428711
v -206.52162170410156 1.1847184896469116 15.82310676574707
v -205.56158447265625 1.5860095024108887 -2.405773639678955
v -205.4962158203125 1.7114224433898926 -6.214991092681885
v -206.5187225341797 1.7909750938415527 -2.827228546142578
v -198.85330200195312 1.5860095024108887 -2.2942004203796387
v -198.9368438720703 1.1352344751358032 1.6265915632247925
v -198.769775390625 1.4605958461761475 1.6265913248062134
v -198.85328674316406 1.0823173522949219 11.984506607055664
v -198.93679809570312 0.7040379643440247 15.828404426574707
v -198.7697296142578 1.029401183128357 15.828404426574707
v -205.5615997314453 1.13883638381958 11.984508514404297
v -198.76976013183594 1.7486902475357056 -2.2942004203796387
v -198.00755310058594 2.053758382797241 -6.214992046356201
v -198.76974487304688 1.2449989318847656 11.984506607055664
v -198.00759887695312 1.4775687456130981 8.140610694885254
v -198.388671875 1.7571771144866943 -2.2942004203796387
v -198.00759887695312 1.4775687456130981 1.6265904903411865
v -198.388671875 1.2534849643707275 11.98450756072998
v -198.007568359375 1.0463755130767822 15.828404426574707
v -205.62696838378906 1.4605966806411743 8.363755226135254
v -205.49624633789062 1.13523530960083 8.140612602233887
v -207.27850341796875 1.1352335214614868 8.14061164855957
v -207.27850341796875 1.4605966806411743 8.363754272460938
v -206.52960205078125 1.5028822422027588 9.054742813110352
v -207.27850341796875 1.5033119916915894 9.058147430419922
v -205.49624633789062 1.1352335214614868 1.6265913248062134
v -205.62696838378906 1.4605966806411743 1.4034439325332642
v -207.27850341796875 1.4605950117111206 1.4034415483474731
v -207.27850341796875 1.1352335214614868 1.6265894174575806
v -206.49745178222656 1.5028822422027588 0.5605341792106628
v -207.27850341796875 1.5033103227615356 0.5668894648551941
vn -0.8121093511581421 -0.5835033655166626 -0.001459296210668981
vn -0.905576229095459 -0.42418134212493896 -0.0014356629690155387
vn -0.907561182975769 -0.41991984844207764 0
vn -0.28091758489608765 -0.9160860180854797 -0.2861323058605194
vn 0.23292715847492218 -0.9457548260688782 0.2264789640903473
vn 0.08289352059364319 -0.9844275116920471 -0.15501968562602997
vn 0.4830551743507385 -0.86760413646698 -0.11798623204231262
vn 0.3373982608318329 -0.934361457824707 -0.11459070444107056
vn 0.4339207112789154 -0.900951087474823 0
vn 0.2329254299402237 -0.9457547068595886 -0.22648121416568756
vn -0.999983012676239 0.004274256061762571 -0.0039705540984869
vn -0.8592645525932312 0.5113205909729004 0.014686120674014091
vn -0.9039098024368286 0.4276626706123352 -0.007192665245383978
vn -0.903569221496582 -0.42843252420425415 -0.0028712910134345293
vn -0.9075613021850586 -0.4199196398258209 -1.4225064148831734e-7
vn -0.8592649698257446 0.5113223791122437 -0.014600141905248165
vn -0.999983012676239 0.004274370614439249 -0.003970631863921881
vn 0.43392083048820496 -0.9009510278701782 0
vn -0.5306524634361267 -0.7749738097190857 -0.3432544469833374
vn 0.5430153608322144 -0.7588123083114624 0.3596361577510834
vn 0.06239137426018715 -0.9759528636932373 0.20886199176311493
vn -0.43546444177627563 -0.9002029299736023 -0.0023775347508490086
vn -0.43700507283210754 -0.8994464874267578 -0.004755048546940088
vn 0.5250605940818787 -0.8510534167289734 -0.004410918802022934
vn 0.0603521503508091 -0.9748653173446655 -0.21446505188941956
vn -0.4354642927646637 -0.9002028703689575 -0.002377534518018365
vn -0.5731151103973389 -0.8194721937179565 -0.0020962387789040804
vn -0.6973986029624939 -0.7166715264320374 -0.0041379365138709545
vn -0.6958653330802917 -0.7181692719459534 -0.0020689773373305798
vn 0.5397829413414001 -0.7607194185256958 -0.3604723811149597
vn -0.5731149911880493 -0.8194722533226013 -0.0020962387789040804
vn -0.6958654522895813 -0.7181693315505981 -0.0020689775701612234
vn -0.6943259835243225 -0.7196606397628784 0
vn -0.8121094107627869 -0.5835033059120178 -0.001459296210668981
vn -0.6943260431289673 -0.7196605801582336 0
vn -0.4339199662208557 -0.9009514451026917 0
vn -0.8825860023498535 0.47002431750297546 -0.010908746160566807
vn -0.4339197874069214 -0.9009515047073364 0
vn 0.6943262219429016 -0.7196604013442993 0
vn 0.404083251953125 -0.8238492608070374 -0.39747846126556396
vn 0.6943264603614807 -0.719660222530365 -0.000003679152996483026
vn 0.4830561578273773 -0.8676040768623352 0.1179831251502037
vn -0.9055761694908142 -0.424181193113327 -0.0014357338659465313
vn 0.40408244729042053 -0.8238507509231567 0.3974761962890625
vn 0.9082016348838806 -0.4185328483581543 5.702388534700731e-7
vn 0.7092299461364746 -0.6714506149291992 -0.21481859683990479
vn -0.2809216380119324 -0.9160844087600708 0.2861335873603821
vn 0.2329254299402237 -0.9457547068595886 -0.22648121416568756
vn 0.05505991727113724 -0.8980664014816284 -0.4364001452922821
vn 0.05197839066386223 -0.8485364317893982 0.5265777707099915
vn 0.2949381470680237 0.5264204740524292 -0.7974289655685425
vn 0.052573639899492264 -0.42761656641960144 -0.9024301171302795
vn 0.5900376439094543 -0.55477374792099 -0.586584746837616
vn 0.404083251953125 -0.8238492608070374 -0.39747846126556396
vn 0.0439433790743351 -0.71595299243927 -0.6967641711235046
vn 0.08289134502410889 -0.9844276309013367 0.15502053499221802
vn 0.5900376439094543 -0.55477374792099 -0.586584746837616
vn 0.40408244729042053 -0.8238507509231567 0.3974761962890625
vn 0.23292715847492218 -0.9457548260688782 0.2264789640903473
vn 0.05505741015076637 -0.8980656266212463 0.4364021420478821
vn 0.5437321662902832 -0.8195445537567139 0.1808367669582367
vn 0.9082015752792358 -0.41853299736976624 -6.415933739845059e-7
vn 0.7092294096946716 -0.6714515089988708 0.2148173302412033
vn 0.5900232195854187 -0.5547763705253601 0.5865967869758606
vn 0.5416513681411743 -0.819856584072113 -0.1856043040752411
vn 0.9190856218338013 0.39334753155708313 0.023650143295526505
vn 0.9322671294212341 -0.09972170740365982 -0.3477551341056824
vn 0.2949381470680237 0.5264204740524292 -0.7974289655685425
vn -0.8826326131820679 0.4700483977794647 0.0037511708214879036
vn -0.28091758489608765 -0.9160860180854797 -0.2861323058605194
vn 0.05198046565055847 -0.8485406637191772 -0.5265707969665527
vn 0.9322152733802795 -0.09981781989336014 0.3478665351867676
vn 0.9191635251045227 0.393178790807724 -0.023426901549100876
vn 0.29493555426597595 0.5264222621917725 0.7974287271499634
vn 0.33739912509918213 -0.9343612790107727 0.11458953469991684
vn -0.5338192582130432 -0.773229718208313 0.3422759771347046
vn 0.567449688911438 -0.7973931431770325 -0.20534150302410126
vn 0.5674495697021484 -0.7973939776420593 0.2053384780883789
vn -0.2809216380119324 -0.9160844087600708 0.2861335873603821
vn -0.41190141439437866 -0.8540517091751099 0.31769952178001404
vn -0.41019493341445923 -0.854718804359436 -0.3181133568286896
vn 0.29493555426597595 0.5264222621917725 0.7974287271499634
vn 0.5900232195854187 -0.5547763705253601 0.5865967869758606
vn 0.05260033160448074 -0.4276689887046814 0.902403712272644
vn 0.04393122345209122 -0.7159062027931213 0.6968129873275757
vn 0.382127583026886 0.0324358306825161 0.9235401749610901
vn -0.0000072890647970780265 -0.000004777858976012794 1
vn -0.00001530000736238435 -4.4410153776652805e-8 1
vn 7.218781661322282e-7 -0.000009511308235232718 1
vn 0.7061271667480469 0 -0.7080850005149841
vn 0.00000844080659589963 0.0002727227983996272 -0.9999999403953552
vn 0.3821423053741455 -0.0010024721268564463 -0.9241030216217041
vn -0.7289557456970215 0.6844896078109741 -0.009875467978417873
vn -0.8826326131820679 0.4700483977794647 0.0037511708214879036
vn -0.9039098024368286 0.4276626706123352 -0.007192665245383978
vn 0.7063007950782776 0.029969368129968643 -0.707277238368988
vn -0.9991002678871155 0.04240245372056961 -0.0008069985779002309
vn -0.958290696144104 0.2856435477733612 0.00931048858910799
vn -0.7289557456970215 0.6844896078109741 -0.009875467978417873
vn -0.8590885996818542 0.5114792585372925 0.018860651180148125
vn -0.9989737868309021 0.045265309512615204 0.0015427920734509826
vn -0.9582833051681519 0.2856430411338806 -0.010056950151920319
vn -0.8590900301933289 0.5114829540252686 -0.018694255501031876
vn -0.9989738464355469 0.0452653244137764 -0.0015352483605965972
vn 0.5226742625236511 0.688127338886261 -0.5032816529273987
vn 0.8613065481185913 0.40464794635772705 -0.30726391077041626
vn 0.7058395147323608 0.05991179496049881 -0.7058336734771729
vn 0.9988622069358826 0.02670132741332054 -0.03951375186443329
vn 0.8560565710067749 0.5161939859390259 0.026662729680538177
vn 0.522674024105072 0.6881306767463684 0.5032773017883301
vn 0.7058311700820923 0.059911247342824936 0.7058420777320862
vn 0.863409698009491 0.41590437293052673 0.28556469082832336
vn 0.8560579419136047 0.516198456287384 -0.026532640680670738
vn 0.998993456363678 0.04485645517706871 0
vn 0.2949381470680237 0.5264204740524292 -0.7974289655685425
vn 0.7288392186164856 0.6366410851478577 -0.2519553303718567
vn 0.695633053779602 0.6030187606811523 -0.39046525955200195
vn 0.41098085045814514 0.9082187414169312 0.07895209640264511
vn 0.9234354496002197 0.03560595586895943 -0.38209831714630127
vn 0.00021277698397170752 -0.0018529384396970272 -0.9999982714653015
vn 0.7058395147323608 0.05991179496049881 -0.7058336734771729
vn 0.7061271667480469 0 -0.7080850005149841
vn 0.7063007950782776 0.029969368129968643 -0.707277238368988
vn 0.7058311700820923 0.059911247342824936 0.7058420777320862
vn 0.7071013450622559 -3.140296200854209e-8 0.707112193107605
vn 0.9152567386627197 0.04650270566344261 -0.40017810463905334
vn -0.8825860023498535 0.47002431750297546 -0.010908746160566807
vn -0.8592649698257446 0.5113223791122437 -0.014600141905248165
vn -0.8590900301933289 0.5114829540252686 -0.018694255501031876
vn -0.7987236976623535 0.6015264391899109 -0.01436943095177412
vn -0.7987236976623535 0.6015264391899109 -0.01436943095177412
vn -0.8592645525932312 0.5113205909729004 0.014686120674014091
vn -0.7987985610961914 0.6015815734863281 0.00451961625367403
vn -0.8590885996818542 0.5114792585372925 0.018860651180148125
vn 0.9191635251045227 0.393178790807724 -0.023426901549100876
vn 0.29493555426597595 0.5264222621917725 0.7974287271499634
vn -0.7987985610961914 0.6015815734863281 0.00451961625367403
vn 0.8383466005325317 0.5431153774261475 0.04691065102815628
vn 0.9999828338623047 0.005861539393663406 0
vn 0.9224549531936646 0.056688226759433746 0.3819205164909363
vn 0.923525869846344 0.024281224235892296 0.3827667832374573
vn 0.706783652305603 0.029969068244099617 0.7067945599555969
vn 0.706783652305603 0.029969068244099617 0.7067945599555969
vn 0.7071013450622559 -3.140296200854209e-8 0.707112193107605
vn 0.923878014087677 -1.6995187479551532e-8 0.38268694281578064
vn 1 0 0
vn 0.9997483491897583 0.022433875128626823 0
vn 0.9236084818840027 0.003173164324834943 -0.3833242356777191
vn -0.9990382194519043 0.04383394122123718 -0.001171124866232276
vn -0.999038815498352 0.043833959847688675 0.00036789741716347635
vn 0.29493555426597595 0.5264222621917725 0.7974287271499634
vn -0.06846745312213898 0.5566694736480713 0.8279078006744385
vn 0.522674024105072 0.6881306767463684 0.5032773017883301
vn -0.005214364267885685 0.04239881411194801 -0.9990871548652649
vn -0.06846660375595093 0.5566686987876892 -0.8279083371162415
vn 0.5226742625236511 0.688127338886261 -0.5032816529273987
vn 0.9190856218338013 0.39334753155708313 0.023650143295526505
vn 0.00011060896213166416 -0.0007901082863099873 -0.9999997019767761
vn -0.7988161444664001 0.6014491319656372 -0.012310325168073177
vn -0.7988747954368591 0.6014924645423889 0.0024197581224143505
vn -0.9990382194519043 0.04383394122123718 -0.001171124866232276
vn -0.9994469881057739 0.03323807567358017 -0.0009694896289147437
vn -0.9997750520706177 0.021205998957157135 -0.00040359009290114045
vn -0.9989738464355469 0.0452653244137764 -0.0015352483605965972
vn -0.9997434616088867 0.02263847179710865 -0.0007678212132304907
vn -0.9999437928199768 0.010603596456348896 -0.00020180639694444835
vn -1 0 0
vn -0.0052152834832668304 0.042399387806653976 0.9990871548652649
vn -1 0 -6.15527142144856e-7
vn -0.9991002678871155 0.04240245372056961 -0.0008069985779002309
vn -0.9994938969612122 0.031806014478206635 -0.0006053284159861505
vn -0.9997750520706177 0.021205998957157135 -0.0004042057553306222
vn -0.9999437928199768 0.010603596456348896 -0.00020242197206243873
vn -1 0 -0.000001231054284289712
vn -0.999038815498352 0.043833959847688675 0.00036789741716347635
vn -0.9994710683822632 0.032522059977054596 -0.000018011005522566848
vn -0.9997434616088867 0.022638464346528053 0.0007709783385507762
vn -0.9999358654022217 0.011319957673549652 0.00038489833241328597
vn -1 0 -6.15527142144856e-7
vn -0.9989737868309021 0.045265309512615204 0.0015427920734509826
vn -0.9994227290153503 0.033954065293073654 0.0011569593334570527
vn 0.2949381470680237 0.5264204740524292 -0.7974289655685425
vn -0.9999358654022217 0.011319957673549652 0.0003855138784274459
vn -0.9997434616088867 0.022638464346528053 0.000771594000980258
vn -1 0 0
vn 0.5250605940818787 -0.8510534167289734 -0.004410918802022934
vn 0.6495530009269714 -0.7603163719177246 -0.0002810394507832825
vn 0.6498206853866577 -0.7600873708724976 -0.0005620788433589041
vn 0.5889159440994263 -0.8081912994384766 -0.00221200636588037
vn 0.6492851376533508 -0.7605450749397278 0
vn -0.6492856740951538 -0.7605445981025696 0.000013108809071127325
vn 0.0003518348094075918 -0.9999999403953552 -0.0003610143612604588
vn 0.6492851376533508 -0.7605450749397278 0
vn 0.05197839066386223 -0.8485364317893982 0.5265777707099915
vn 0.046466585248708725 -0.7582581043243408 0.6502964496612549
vn -0.5154596567153931 -0.6841877698898315 0.5159345865249634
vn 0.6492853164672852 -0.7605449557304382 -9.506640026302193e-7
vn 0.5397829413414001 -0.7607194185256958 -0.3604723811149597
vn 0.5889160633087158 -0.8081912398338318 -0.0022124832030385733
vn -0.5154596567153931 -0.6841877698898315 0.5159345865249634
vn -0.5271775126457214 -0.7322339415550232 0.4311811327934265
vn -0.41190141439437866 -0.8540517091751099 0.31769952178001404
vn -0.5338192582130432 -0.773229718208313 0.3422759771347046
vn -0.604698657989502 -0.7500590682029724 0.26786360144615173
vn -0.5255767703056335 -0.7330986261367798 -0.43166589736938477
vn -0.41019493341445923 -0.854718804359436 -0.3181133568286896
vn -0.5306524634361267 -0.7749738097190857 -0.3432544469833374
vn -0.5154576897621155 -0.6841887831687927 -0.5159351229667664
vn -0.6046919226646423 -0.7500666379928589 -0.26785755157470703
vn -0.2809216380119324 -0.9160844087600708 0.2861335873603821
vn -0.2809216380119324 -0.9160844087600708 0.2861335873603821
vn 0.6495530009269714 -0.7603163719177246 -0.0002810394507832825
vn 0.00036041633575223386 -0.9999998211860657 -0.00036963223828934133
vn 0.6492853164672852 -0.7605449557304382 -9.506640026302193e-7
vn 0.6495530605316162 -0.7603162527084351 -0.0002815147745423019
vn -0.28091758489608765 -0.9160860180854797 -0.2861323058605194
vn 0.6495530605316162 -0.7603162527084351 -0.0002815147745423019
vn 0.6498206853866577 -0.7600873708724976 -0.0005620788433589041
vn -0.5154596567153931 -0.6841877698898315 0.5159345865249634
vn -0.649272620677948 -0.7605557441711426 0
vn 0.046469226479530334 -0.7582622766494751 -0.650291383266449
vn 0.05198046565055847 -0.8485406637191772 -0.5265707969665527
vn -0.28091758489608765 -0.9160860180854797 -0.2861323058605194
vn -0.6046919226646423 -0.7500666379928589 -0.26785755157470703
vn -0.5154576897621155 -0.6841887831687927 -0.5159351229667664
vn 0.5437321662902832 -0.8195445537567139 0.1808367669582367
vn -0.6492856740951538 -0.7605445981025696 0.000013108809071127325
vn 0.5430153608322144 -0.7588123083114624 0.3596361577510834
vn 0.5416513681411743 -0.819856584072113 -0.1856043040752411
vn -0.604698657989502 -0.7500590682029724 0.26786360144615173
vn -0.5154576897621155 -0.6841887831687927 -0.5159351229667664
vn 0.046466585248708725 -0.7582581043243408 0.6502964496612549
vn 0.046469226479530334 -0.7582622766494751 -0.650291383266449
vn -0.5154576897621155 -0.6841887831687927 -0.5159351229667664
vn -0.5154596567153931 -0.6841877698898315 0.5159345865249634
vn -0.649272620677948 -0.7605557441711426 0
vn -0.04435565695166588 0.883650541305542 0.46604111790657043
vn -0.04705142229795456 0.8835735321044922 -0.46592268347740173
vn 0.20337603986263275 0.9769901037216187 0.06425409018993378
vn 0.4040229022502899 0.8441407084465027 -0.3524087965488434
vn 0.39622852206230164 0.8414961695671082 0.367269903421402
vn 0.2241450995206833 0.9527178406715393 0.20515283942222595
vn 0.6005083322525024 0.7976789474487305 0.055660173296928406
vn 0.5073750019073486 0.8343992829322815 0.21528665721416473
vn -0.2529641389846802 0.9673568606376648 0.015160839073359966
vn -0.5211544632911682 0.8534623980522156 4.141412190961091e-8
vn -0.5212282538414001 0.853403627872467 0.004833209794014692
vn 0.19873663783073425 0.9649821519851685 -0.17121076583862305
vn 0.49775466322898865 0.8561502695083618 -0.13873393833637238
vn 0.03676045313477516 0.9989023208618164 0.02903102897107601
vn -0.5211694836616516 0.8534532189369202 0.0000011962343933191733
vn -0.024351978674530983 0.9993826746940613 0.02532392367720604
vn 0.5643156170845032 0.821425199508667 0.0825139731168747
vn -0.0718555822968483 0.9747929573059082 0.21122358739376068
vn -0.5212898850440979 0.8533248901367188 0.009666265919804573
vn -0.282413512468338 0.9592031240463257 0.01311067771166563
vn -0.5757048726081848 0.8165287375450134 0.0429505817592144
vn -0.5488615036010742 0.8356369733810425 0.021492503583431244
vn 0.39852920174598694 0.8314341902732849 0.3871583938598633
vn 0.39622852206230164 0.8414961695671082 0.367269903421402
vn 0.5073750019073486 0.8343992829322815 0.21528665721416473
vn -0.5639277696609497 0.8258111476898193 0.004621927160769701
vn -0.5212898850440979 0.8533248901367188 0.009666265919804573
vn -0.5212282538414001 0.853403627872467 0.004833209794014692
vn -0.5306227207183838 0.8476081490516663 -1.1030461877226116e-7
vn -0.5211694836616516 0.8534532189369202 0.0000011962343933191733
vn -0.5488615036010742 0.8356369733810425 0.021492503583431244
vn 0.6220609545707703 0.7806256413459778 0.060529306530952454
vn 0.5643156170845032 0.821425199508667 0.0825139731168747
vn 0.49775466322898865 0.8561502695083618 -0.13873393833637238
vn 0.18054886162281036 0.9773277044296265 -0.11060106754302979
vn 0.4775622487068176 0.8726376891136169 -0.10216603428125381
vn 0.30640801787376404 0.9159425497055054 -0.2591588795185089
vn 0.4040229022502899 0.8441407084465027 -0.3524087965488434
vn 0.3039718270301819 0.9513816833496094 0.04973980784416199
vn 0.49784159660339355 0.8387506604194641 0.22057004272937775
vn 0.5784011483192444 0.8144728541374207 0.0456731803715229
vn 0.0009472105884924531 0.9987920522689819 0.04912731051445007
vn 0.21306799352169037 0.9758068919181824 0.04901989921927452
vn 0.041288189589977264 0.9991213083267212 -0.007207706104964018
vn 0.04424038156867027 0.9988642930984497 0.017684901133179665
vn 0.04716477915644646 0.9979797601699829 0.04256639629602432
vn 0.5092774033546448 0.8304699063301086 0.22573477029800415
vn 0.6005083322525024 0.7976789474487305 0.055660173296928406
vn 0.10762178152799606 0.9929661154747009 0.049355268478393555
vn -0.5427185297012329 0.8399113416671753 0.002311740070581436
vn -0.5211544632911682 0.8534623980522156 4.141412190961091e-8
vn -0.5306231379508972 0.8476078510284424 -3.4593224285117685e-8
vn -0.5534989237785339 0.8325726389884949 0.02148824743926525
vn -0.5757048726081848 0.8165287375450134 0.0429505817592144
vn -0.5296503901481628 0.8480085730552673 0.01876012794673443
vn 0.5279067158699036 0.8359209895133972 -0.15016816556453705
vn -0.5473852753639221 0.8368774652481079 0.0023114103823900223
vn -0.3990055322647095 0.9166584014892578 0.02306431159377098
vn -0.5301599502563477 0.847845733165741 0.009380422532558441
vn -0.022263316437602043 0.9997521638870239 0
vn -0.46613436937332153 0.8846383094787598 0.011564888060092926
vn -0.022263316437602043 0.9997521638870239 0
vn -0.28618544340133667 0.9581248760223389 0.009727745316922665
vn -0.12602493166923523 0.9919979572296143 -0.007603170815855265
vn 0.30640801787376404 0.9159425497055054 -0.2591588795185089
vn 0.4040229022502899 0.8441407084465027 -0.3524087965488434
vn -0.04705142229795456 0.8835735321044922 -0.46592268347740173
vn -0.04637257009744644 0.8689281344413757 -0.4927610754966736
vn 0.041288189589977264 0.9991213083267212 -0.007207706104964018
vn -0.051575858145952225 0.9967927932739258 -0.06118834391236305
vn 0.39622852206230164 0.8414961695671082 0.367269903421402
vn 0.39852920174598694 0.8314341902732849 0.3871583938598633
vn -0.04371208697557449 0.871921181678772 0.48769116401672363
vn -0.04435565695166588 0.883650541305542 0.46604111790657043
vn 0.0009472105884924531 0.9987920522689819 0.04912731051445007
vn -0.051032088696956635 0.9974449276924133 0.049993325024843216
vt 2.249213218688965 0.5670730173587799
vt 2.2492129802703857 0.4083598256111145
vt 2.9985005855560303 0.4167090058326721
vt 1.2308528423309326 0.9881467223167419
vt 1.1152207851409912 0.9185253381729126
vt 0.5448747873306274 0.9592570960521698
vt 3.7249884605407715 0.818396806716919
vt 3.7249884605407715 0.9244458079338074
vt 4.353226661682129 0.9303666353225708
vt 3.096750020980835 0.918524980545044
vt 2.2492129802703857 0.2194277048110962
vt 2.9985005855560303 0.0004994869232177734
vt 1.4999253749847412 0.022146403789520264
vt 1.4999253749847412 0.4000106453895569
vt 0.001499265432357788 0.416709840297699
vt 0.001499176025390625 0.0005004405975341797
vt 0.7507123351097107 0.21942812204360962
vt -0.14110326766967773 0.9303674697875977
vt -0.14110404253005981 0.9995005130767822
vt 2.9985013008117676 0.9994991421699524
vt 2.249213457107544 0.9669454395771027
vt 2.249213218688965 0.9403125047683716
vt 1.4999254941940308 0.9343917369842529
vt 1.4999254941940308 0.9881466627120972
vt 0.7507123947143555 0.9669458866119385
vt 0.7507123947143555 0.940312922000885
vt 2.249213218688965 0.8332909941673279
vt 1.4999254941940308 0.7203487157821655
vt 2.249213218688965 0.7272420525550842
vt 0.0014993548393249512 0.999500036239624
vt 0.7507124543190002 0.8332914113998413
vt 0.7507123351097107 0.7272425293922424
vt 2.9985008239746094 0.7341353893280029
vt 0.7507122755050659 0.5670734941959381
vt 0.001499176025390625 0.7341363430023193
vt 2.9985008239746094 0.9462332725524902
vt 0.7507122755050659 0.01132345199584961
vt 0.0014993548393249512 0.9462341070175171
vt 4.353226661682129 0.718268632888794
vt 3.312103748321533 0.7044816017150879
vt -0.1411026120185852 0.7182693481445312
vt 0.4870591163635254 0.8183973431587219
vt 0.7507122755050659 0.40836024284362793
vt 0.899867057800293 0.7044819593429565
vt 4.353226661682129 0.41670823097229004
vt 3.832665205001831 0.560594916343689
vt 0.0019981861114501953 0.9994989633560181
vt 0.11127293109893799 0.9439077973365784
vt 0.5291376113891602 0.9439073801040649
vt 0.5291376113891602 0.9994980096817017
vt 0.5291370153427124 0.0004994869232177734
vt 0.529137372970581 0.39127200841903687
vt 0.4638185501098633 0.3912716507911682
vt 0.31478917598724365 0.7225527167320251
vt 0.5291379690170288 0.722552478313446
vt 3.6671721935272217 0.959256649017334
vt 3.4698028564453125 0.4000098705291748
vt 0.3147890567779541 0.7225530743598938
vt 0.11127293109893799 0.9439080953598022
vt 0.5291372537612915 0.943907618522644
vt 2.249213457107544 0.9938229024410248
vt -0.1411033272743225 0.41670918464660645
vt 0.3793818950653076 0.5605955719947815
vt 0.7421678304672241 0.400010347366333
vt 0.7507123947143555 0.9938233494758606
vt 4.353226661682129 0.00400155782699585
vt 3.9115147590637207 0.20200574398040771
vt 3.5389206409454346 0.022145509719848633
vt 2.2492129802703857 0.011322975158691406
vt 0.0019979476928710938 0.9994990825653076
vt 0.5291376113891602 0.9994983673095703
vt 0.3005322217941284 0.20200645923614502
vt -0.14110338687896729 0.004002511501312256
vt 0.6730490922927856 0.022145986557006836
vt 0.48705875873565674 0.9244464039802551
vt 4.353227615356445 0.9994996786117554
vt 3.832665205001831 0.7113751173019409
vt 0.3793821930885315 0.7113756537437439
vt 2.9811177253723145 0.9881466627120972
vt 3.66717267036438 0.9938231706619263
vt 0.544874370098114 0.9938236176967621
vt 0.529137372970581 0.000500023365020752
vt 0.4638185501098633 0.3912721276283264
vt 0.5291385650634766 0.3912721872329712
vt 0.5291377305984497 0.7225528359413147
vt 0.12897330522537231 -0.36056041717529297
vt 0.2574426531791687 -0.39886796474456787
vt 0.2574416399002075 -0.6903214454650879
vt 0.25744369626045227 -0.10741448402404785
vt 0.000499337911605835 -0.6903215646743774
vt 0.2574406862258911 -0.690321683883667
vt 0.12897127866744995 -0.40523481369018555
vt 1.5002167224884033 0.23417842388153076
vt 0.6460717916488647 0.3264464735984802
vt 1.5002167224884033 0.3264464735984802
vt 0.000500798225402832 -0.3605605363845825
vt 1.5007736682891846 -0.029606938362121582
vt 0.6449116468429565 0.10410887002944946
vt 1.5007736682891846 0.2378246784210205
vt -0.21095040440559387 0.2378246784210205
vt -0.21030348539352417 -0.029606938362121582
vt 2.3565502166748047 0.10410887002944946
vt 3.212327003479004 0.2378246784210205
vt 3.212327480316162 -0.029606938362121582
vt 0.6973482370376587 0.2448805570602417
vt 1.0138278007507324 0.1054542064666748
vt 0.6909944415092468 -0.03397214412689209
vt 1.3303074836730957 -0.03397214412689209
vt 1.3303076028823853 0.23112750053405762
vt 0.3026007413864136 0.24488067626953125
vt 0.3089545667171478 -0.03397202491760254
vt -0.006403297185897827 0.1054544448852539
vt -0.31540733575820923 0.23112785816192627
vt -0.3154073655605316 -0.03397178649902344
vt 0.7280648946762085 0.3400000333786011
vt 1.013827919960022 0.23800402879714966
vt 1.0106509923934937 -0.08223104476928711
vt 1.3303074836730957 -0.13048982620239258
vt 1.010650873184204 -0.3509674072265625
vt 0.25744321942329407 -0.1201479434967041
vt 0.0005022585391998291 -0.030799508094787598
vt 0.6909943222999573 -0.667962908744812
vt 0.690994381904602 -0.35096752643585205
vt 0.0005049705505371094 -0.030799388885498047
vt 0.0005026161670684814 -0.6903214454650879
vt 1.0106509923934937 -0.03397214412689209
vt 2.358736276626587 0.3264464735984802
vt 3.2172558307647705 0.3264464735984802
vt 3.2172558307647705 0.23417842388153076
vt 2.358736276626587 0.23417842388153076
vt 2.3565502166748047 0.2378246784210205
vt -0.20807316899299622 0.3264464735984802
vt 0.6460717916488647 0.23417842388153076
vt -0.20807316899299622 0.23417842388153076
vt -0.31540730595588684 0.3400000333786011
vt 0.2718838155269623 0.3400000333786011
vt 0.6449116468429565 0.2378246784210205
vt 1.3303074836730957 -0.3992263078689575
vt 1.3303073644638062 -0.6679627895355225
vt -0.0032263994216918945 -0.03397190570831299
vt -0.00322645902633667 -0.35096728801727295
vt 0.0005037933588027954 -0.36056041717529297
vt 0.30895450711250305 -0.3509674072265625
vt 0.3089544475078583 -0.6679627895355225
vt -0.0032264888286590576 -0.6679626703262329
vt -0.3154074549674988 -0.6679625511169434
vt -0.315407395362854 -0.3509671688079834
vt 1.010650873184204 -0.6679627895355225
vt 2.356550693511963 -0.029606938362121582
vt 0.6452350616455078 -0.029606938362121582
vt 0.2574392557144165 0.3400000333786011
vt 0.2574445605278015 0.2322080135345459
vt 0.17173069715499878 0.23220789432525635
vt 0.2574436068534851 -0.03079962730407715
vt 0.2574436068534851 0.2322077751159668
vt 0.1717279851436615 0.2322077751159668
vt 1.3303076028823853 0.3400000333786011
vt 0.2574419379234314 -0.40523481369018555
vt 2.358736276626587 0.2803124189376831
vt 0.6460717916488647 0.2803124189376831
vt 2.358386278152466 -0.03210735321044922
vt 2.787083148956299 -0.19163572788238525
vt 2.358386516571045 -0.3511641025543213
vt 3.215780019760132 -0.03210735321044922
vt 3.215780258178711 -0.3511641025543213
vt 2.787083387374878 -0.5106924772262573
vt 3.215780258178711 -0.6702208518981934
vt 0.25744396448135376 -0.030799508094787598
vt 2.358386516571045 -0.6702208518981934
vt 1.5009926557540894 -0.03210735321044922
vt 1.929689645767212 -0.19163572788238525
vt 1.500992774963379 -0.3511641025543213
vt 1.929689645767212 -0.5106924772262573
vt 1.500992774963379 -0.6702208518981934
vt 0.6452279090881348 -0.03210735321044922
vt 1.0731103420257568 -0.19163572788238525
vt 0.6452279686927795 -0.3511641025543213
vt 1.0731103420257568 -0.5106924772262573
vt 0.6452282071113586 -0.6702208518981934
vt -0.21053682267665863 -0.03210735321044922
vt 0.21734558045864105 -0.19163572788238525
vt 0.25743532180786133 0.3400000333786011
vt 0.21734580397605896 -0.5106924772262573
vt -0.21053659915924072 -0.3511641025543213
vt -0.21053636074066162 -0.6702208518981934
vt 0.025824980810284615 1.5023244619369507
vt 0.10248790681362152 2.214473247528076
vt 0.10248790681362152 1.5042986869812012
vt 0.0641564428806305 2.2134861946105957
vt 0.10248790681362152 2.924647808074951
vt -0.09542646259069443 2.9124197959899902
vt 0.005403295159339905 2.206179141998291
vt 0.10622061789035797 2.912419080734253
vt -0.07068812847137451 0.3937638998031616
vt -0.09462515264749527 0.3937636613845825
vt -0.09461725503206253 0.004075407981872559
vt 0.10248790681362152 0.09360581636428833
vt 0.025824980810284615 0.09360581636428833
vt 0.0641564428806305 0.7979651093482971
vt 0.10248790681362152 1.6782578229904175
vt 0.0641564428806305 2.301452875137329
vt 0.025824980810284615 2.306493639945984
vt 0.025824980810284615 2.924647808074951
vt 0.10248790681362152 2.301452875137329
vt 0.0641564428806305 0.7701144814491272
vt 0.025824980810284615 0.7671282291412354
vt 0.025824980810284615 0.09360581636428833
vt 0.10248790681362152 1.4466232061386108
vt 0.10248790681362152 0.7701144814491272
vt -0.07067626714706421 0.009720206260681152
vt 0.025824980810284615 1.6883394718170166
vt 0.1062268316745758 2.206178903579712
vt 0.005403377115726471 0.7937614321708679
vt 0.106220543384552 0.08758324384689331
vt 0.10622680187225342 0.7937609553337097
vt 0.025824980810284615 1.4406505823135376
vt 0.10248790681362152 0.7989522218704224
vt 0.10623305290937424 1.4999386072158813
vt -0.0954136922955513 1.6114156246185303
vt -0.09542630612850189 0.08758425712585449
vt -0.09462524205446243 0.3937636613845825
vt -0.07068580389022827 0.3937636613845825
vt -0.07067632675170898 0.009720206260681152
vt -0.09542001038789749 0.7380232810974121
vt -0.09541371464729309 1.3884623050689697
vt 0.025824980810284615 2.2134861946105957
vt 0.10248790681362152 2.924647808074951
vt 0.025824980810284615 2.924647808074951
vt 0.025824980810284615 0.7979651093482971
vt -0.09542007744312286 2.2619177103042603
vt -0.09461889415979385 0.004075407981872559
vt 0.10620252788066864 0.39118659496307373
vt -0.11979975551366806 0.39118659496307373
vt -0.11979828029870987 0.0014983415603637695
vt 0.10620351135730743 0.0014983415603637695
vt 0.10248790681362152 0.09360581636428833
vt 13.567092895507812 20.54029655456543
vt 12.865302085876465 20.54029655456543
vt 13.216197967529297 20.46404266357422
vt 12.865302085876465 20.38779067993164
vt 13.567092895507812 20.38779067993164
vt 13.989875793457031 20.245689392089844
vt 14.412659645080566 20.387788772583008
vt 13.989875793457031 20.38779067993164
vt 13.989875793457031 19.96148681640625
vt 13.567092895507812 19.819385528564453
vt 13.989875793457031 19.819385528564453
vt 12.45146369934082 20.245689392089844
vt 12.45146369934082 20.38779067993164
vt 14.412657737731934 20.103586196899414
vt 12.865302085876465 19.819385528564453
vt 12.03762435913086 20.103588104248047
vt 12.03762435913086 20.387788772583008
vt 13.216197967529297 20.103588104248047
vt 14.412657737731934 19.819385528564453
vt 12.45146369934082 19.96148681640625
vt 12.03762435913086 19.819385528564453
vt 12.45146369934082 19.819385528564453
vt 0.8500000238418579 1.5149540901184082
vt 1 1.5786466598510742
vt 1 0.7905720472335815
vt 0.8500000238418579 0.0014989972114562988
vt 1 0.0014989972114562988
vt 1 0.6527494788169861
vt 0.8500000238418579 2.961559534072876
vt 1 2.961559534072876
vt 1 3.9807796478271484
vt 0.8500000238418579 4.9866862297058105
vt 1 4.98563289642334
vt 1 4.227154731750488
vt 0.8300000429153442 4.265988349914551
vt 0.8500000238418579 4.26058030128479
vt 0.8500000238418579 3.5344743728637695
vt 1 3.4686765670776367
vt 0.8300000429153442 0.6299545764923096
vt 0.8500000238418579 0.7592524290084839
vt 0.8500000238418579 0.0035507678985595703
vt 0.8100000023841858 1.2563583850860596
vt 0.8100000023841858 0.014367222785949707
vt 0.8100000023841858 3.75527024269104
vt 0.8100000023841858 4.3763861656188965
vt 0.8100000023841858 4.997502326965332
vt 0.925000011920929 0.7587257623672485
vt 1 0.002497434616088867
vt 0.8100000023841858 0.6353628039360046
vt 0.925000011920929 0.6527495384216309
vt 1 1.3040000200271606
vt 0.8500000238418579 1.3040000200271606
vt 0.925000011920929 3.9807796478271484
vt 1 5
vt 0.8500000238418579 5
vt 0.925000011920929 4.227681398391724
vt 0.8500000238418579 0.6527495384216309
vt 0.8100000023841858 0.001498579978942871
vt 0.8500000238418579 3.9807796478271484
vt 0.8100000023841858 2.961559534072876
vt 0.8300000429153442 0.6527493000030518
vt 0.8100000023841858 1.3040000200271606
vt 0.8300000429153442 3.9807796478271484
vt 0.8100000023841858 5
vt 0.8500000238418579 0.07910525798797607
vt 0.9994999766349792 0.055687546730041504
vt 0.999500036239624 0.5160566568374634
vt 0.8500000238418579 0.5160566568374634
vt 0.8100000023841858 0.31960219144821167
vt 0.8100000023841858 0.5160562992095947
vt 0.9995008111000061 0.000499427318572998
vt 0.8500000238418579 0
vt 0.8500000238418579 0.4447122812271118
vt 0.9995007514953613 0.4447113871574402
vt 0.8100000023841858 0.2403179407119751
vt 0.8100000023841858 0.44470781087875366
g BH010
s 1
f 1/1/1 2/2/2 3/3/3
f 4/4/4 5/5/5 6/6/6
f 7/7/7 8/8/8 9/9/9
f 7/7/7 10/10/10 8/8/8
f 3/3/3 11/11/11 12/12/12
f 13/13/13 11/11/11 14/14/14
f 15/15/15 16/16/16 17/17/17
f 13/13/13 14/14/14 17/17/17
f 1/1/1 14/14/14 2/2/2
f 18/18/18 19/19/19 6/6/6
f 20/20/20 21/21/21 22/22/22
f 21/21/21 23/23/23 22/22/22
f 23/23/23 21/21/21 24/24/24
f 25/25/25 26/26/26 23/23/23
f 27/27/27 28/28/28 29/29/29
f 30/30/30 26/26/26 25/25/25
f 23/23/23 24/24/24 25/25/25
f 31/31/31 32/32/32 28/28/28
f 1/1/1 29/29/29 28/28/28
f 14/14/14 1/1/1 28/28/28
f 33/33/33 1/1/1 3/3/3
f 14/14/14 28/28/28 34/34/34
f 35/35/35 15/15/15 34/34/34
f 28/28/28 27/27/27 23/23/23
f 36/36/36 27/27/27 33/33/33
f 1/1/1 33/33/33 29/29/29
f 31/31/31 35/35/35 32/32/32
f 28/28/28 23/23/23 31/31/31
f 17/17/17 16/16/16 37/37/37
f 38/38/38 35/35/35 31/31/31
f 34/34/34 32/32/32 35/35/35
f 30/30/30 38/38/38 26/26/26
f 31/31/31 26/26/26 38/38/38
f 31/31/31 23/23/23 26/26/26
f 39/39/39 7/7/7 9/9/9
f 20/20/20 22/22/22 36/36/36
f 10/10/10 7/7/7 40/40/40
f 27/27/27 22/22/22 23/23/23
f 27/27/27 36/36/36 22/22/22
f 41/41/41 18/18/18 42/42/42
f 17/17/17 43/43/43 15/15/15
f 5/5/5 44/44/44 42/42/42
f 45/45/45 46/46/46 39/39/39
f 17/17/17 14/14/14 43/43/43
f 47/47/47 48/48/48 49/49/49
f 49/49/49 50/50/50 47/47/47
f 51/51/51 52/52/52 53/53/53
f 54/54/54 53/53/53 52/52/52
f 52/52/52 55/55/55 54/54/54
f 48/48/48 54/54/54 55/55/55
f 55/55/55 49/49/49 48/48/48
f 56/56/56 9/9/9 8/8/8
f 40/40/40 46/46/46 57/57/57
f 58/58/58 59/59/59 60/60/60
f 34/34/34 43/43/43 14/14/14
f 21/21/21 20/20/20 61/61/61
f 21/21/21 61/61/61 24/24/24
f 62/62/62 41/41/41 63/63/63
f 63/63/63 64/64/64 62/62/62
f 25/25/25 24/24/24 65/65/65
f 25/25/25 65/65/65 30/30/30
f 44/44/44 64/64/64 63/63/63
f 66/66/66 67/67/67 45/45/45
f 67/67/67 57/57/57 45/45/45
f 57/57/57 67/67/67 68/68/68
f 11/11/11 69/69/69 12/12/12
f 11/11/11 13/13/13 69/69/69
f 59/59/59 70/70/70 71/71/71
f 67/67/67 66/66/66 68/68/68
f 72/72/72 62/62/62 64/64/64
f 73/73/73 62/62/62 72/72/72
f 72/72/72 74/74/74 73/73/73
f 64/64/64 74/74/74 72/72/72
f 17/17/17 37/37/37 13/13/13
f 56/56/56 8/8/8 10/10/10
f 42/42/42 18/18/18 75/75/75
f 11/11/11 3/3/3 2/2/2
f 42/42/42 75/75/75 5/5/5
f 9/9/9 56/56/56 76/76/76
f 6/6/6 5/5/5 75/75/75
f 6/6/6 75/75/75 18/18/18
f 46/46/46 40/40/40 77/77/77
f 46/46/46 77/77/77 39/39/39
f 7/7/7 39/39/39 77/77/77
f 7/7/7 77/77/77 40/40/40
f 63/63/63 41/41/41 78/78/78
f 63/63/63 78/78/78 44/44/44
f 42/42/42 44/44/44 78/78/78
f 42/42/42 78/78/78 41/41/41
f 56/56/56 79/79/79 80/80/80
f 56/56/56 80/80/80 76/76/76
f 6/6/6 19/19/19 81/81/81
f 6/6/6 81/81/81 4/4/4
f 11/11/11 2/2/2 14/14/14
f 79/79/79 56/56/56 10/10/10
f 27/27/27 29/29/29 33/33/33
f 34/34/34 28/28/28 32/32/32
f 34/34/34 15/15/15 43/43/43
f 71/71/71 60/60/60 59/59/59
f 82/82/82 83/83/83 84/84/84
f 83/83/83 58/58/58 85/85/85
f 85/85/85 84/84/84 83/83/83
f 60/60/60 85/85/85 58/58/58
f 46/46/46 45/45/45 57/57/57
g BH011
s 1
f 86/86/86 87/87/87 88/88/88
f 86/86/86 89/89/89 87/87/87
f 90/90/90 91/91/91 92/92/92
f 93/93/93 94/94/94 95/95/95
f 92/92/92 96/96/96 90/90/90
f 97/97/97 98/98/98 99/99/99
f 100/100/100 98/98/98 101/101/101
f 97/97/97 99/99/99 102/102/102
f 103/103/103 104/104/104 102/102/102
f 105/105/105 106/106/106 107/107/107
f 108/108/108 106/106/106 109/109/109
f 110/110/110 111/111/111 112/112/112
f 112/112/112 113/113/113 110/110/110
f 114/114/114 113/113/113 112/112/112
f 115/115/115 116/116/116 105/105/105
f 115/115/115 109/109/109 116/116/116
f 106/106/106 116/116/116 109/109/109
f 106/106/106 105/105/105 116/116/116
f 117/117/117 108/108/108 118/118/118
f 107/107/107 117/117/117 119/119/119
f 117/117/117 118/118/118 119/119/119
f 120/120/120 121/121/121 96/96/96
f 119/119/119 122/122/122 123/123/123
f 119/119/119 123/123/123 107/107/107
f 124/124/124 89/89/89 86/86/86
f 88/88/88 125/125/125 86/86/86
f 126/126/126 108/108/108 117/117/117
f 107/107/107 126/126/126 117/117/117
f 106/106/106 126/126/126 107/107/107
f 106/106/106 108/108/108 126/126/126
f 93/93/93 95/95/95 127/127/127
f 120/120/120 96/96/96 92/92/92
f 128/128/128 129/129/129 130/130/130
f 102/102/102 131/131/131 103/103/103
f 102/102/102 99/99/99 131/131/131
f 132/132/132 133/133/133 134/134/134
f 113/113/113 135/135/135 136/136/136
f 98/98/98 137/137/137 99/99/99
f 98/98/98 100/100/100 137/137/137
f 119/119/119 138/138/138 139/139/139
f 119/119/119 118/118/118 138/138/138
f 112/112/112 140/140/140 114/114/114
f 112/112/112 111/111/111 140/140/140
f 140/140/140 111/111/111 141/141/141
f 114/114/114 140/140/140 141/141/141
f 86/86/86 142/142/142 124/124/124
f 86/86/86 125/125/125 142/142/142
f 141/141/141 143/143/143 144/144/144
f 141/141/141 111/111/111 143/143/143
f 145/145/145 146/146/146 141/141/141
f 144/144/144 145/145/145 141/141/141
f 141/141/141 147/147/147 114/114/114
f 141/141/141 146/146/146 147/147/147
f 148/148/148 122/122/122 119/119/119
f 139/139/139 148/148/148 119/119/119
f 102/102/102 149/149/149 97/97/97
f 102/102/102 104/104/104 149/149/149
f 136/136/136 110/110/110 113/113/113
f 98/98/98 150/150/150 101/101/101
f 98/98/98 97/97/97 150/150/150
f 151/151/151 152/152/152 153/153/153
f 154/154/154 155/155/155 156/156/156
f 156/156/156 121/121/121 154/154/154
f 109/109/109 115/115/115 157/157/157
f 92/92/92 158/158/158 120/120/120
f 92/92/92 91/91/91 158/158/158
f 93/93/93 127/127/127 159/159/159
f 159/159/159 127/127/127 128/128/128
f 128/128/128 130/130/130 159/159/159
f 159/159/159 130/130/130 93/93/93
f 160/160/160 132/132/132 94/94/94
f 93/93/93 160/160/160 94/94/94
f 160/160/160 93/93/93 133/133/133
f 132/132/132 160/160/160 133/133/133
f 121/121/121 120/120/120 154/154/154
f 161/161/161 162/162/162 163/163/163
f 161/161/161 164/164/164 162/162/162
f 162/162/162 164/164/164 165/165/165
f 163/163/163 162/162/162 165/165/165
f 163/163/163 165/165/165 166/166/166
f 166/166/166 165/165/165 167/167/167
f 124/124/124 168/168/168 89/89/89
f 167/167/167 169/169/169 166/166/166
f 166/166/166 169/169/169 163/163/163
f 170/170/170 161/161/161 171/171/171
f 171/171/171 161/161/161 163/163/163
f 163/163/163 172/172/172 171/171/171
f 171/171/171 172/172/172 170/170/170
f 169/169/169 173/173/173 163/163/163
f 169/169/169 174/174/174 173/173/173
f 173/173/173 174/174/174 172/172/172
f 163/163/163 173/173/173 172/172/172
f 175/175/175 176/176/176 177/177/177
f 175/175/175 170/170/170 176/176/176
f 176/176/176 170/170/170 172/172/172
f 177/177/177 176/176/176 172/172/172
f 177/177/177 172/172/172 178/178/178
f 178/178/178 172/172/172 174/174/174
f 174/174/174 179/179/179 178/178/178
f 178/178/178 179/179/179 177/177/177
f 180/180/180 175/175/175 181/181/181
f 181/181/181 175/175/175 177/177/177
f 152/152/152 168/168/168 124/124/124
f 182/182/182 156/156/156 155/155/155
f 177/177/177 183/183/183 184/184/184
f 183/183/183 185/185/185 184/184/184
f 179/179/179 185/185/185 183/183/183
f 179/179/179 183/183/183 177/177/177
f 181/181/181 184/184/184 180/180/180
f 177/177/177 184/184/184 181/181/181
f 124/124/124 153/153/153 152/152/152
g BH012
s 1
f 186/186/186 187/187/187 188/188/188
f 189/189/189 190/190/190 187/187/187
f 191/191/191 192/192/192 193/193/193
f 186/186/186 189/189/189 187/187/187
f 194/194/194 195/195/195 196/196/196
f 197/197/197 198/198/198 199/199/199
f 200/200/200 201/201/201 202/202/202
f 201/201/201 203/203/203 202/202/202
f 203/203/203 201/201/201 204/204/204
f 201/201/201 200/200/200 204/204/204
f 205/205/205 206/206/206 207/207/207
f 208/208/208 206/206/206 205/205/205
f 205/205/205 209/209/209 208/208/208
f 196/196/196 210/210/210 194/194/194
f 207/207/207 209/209/209 205/205/205
f 200/200/200 202/202/202 211/211/211
f 192/192/192 212/212/212 193/193/193
f 213/213/213 214/214/214 215/215/215
f 208/208/208 216/216/216 206/206/206
f 186/186/186 217/217/217 199/199/199
f 218/218/218 192/192/192 219/219/219
f 192/192/192 218/218/218 212/212/212
f 220/220/220 214/214/214 213/213/213
f 199/199/199 217/217/217 197/197/197
f 221/221/221 222/222/222 223/223/223
f 213/213/213 224/224/224 220/220/220
f 213/213/213 225/225/225 224/224/224
f 189/189/189 186/186/186 226/226/226
f 203/203/203 204/204/204 227/227/227
f 189/189/189 226/226/226 228/228/228
f 199/199/199 198/198/198 229/229/229
f 192/192/192 230/230/230 219/219/219
f 199/199/199 229/229/229 186/186/186
f 192/192/192 191/191/191 230/230/230
f 186/186/186 188/188/188 217/217/217
f 223/223/223 231/231/231 221/221/221
f 225/225/225 218/218/218 219/219/219
f 232/232/232 233/233/233 234/234/234
f 234/234/234 235/235/235 232/232/232
f 213/213/213 215/215/215 218/218/218
f 190/190/190 189/189/189 228/228/228
f 207/207/207 236/236/236 209/209/209
f 218/218/218 225/225/225 213/213/213
g BH013
s 1
f 237/237/237 238/238/238 239/239/239
f 239/239/239 238/238/238 240/240/240
f 240/240/240 241/241/241 239/239/239
f 239/239/239 241/241/241 237/237/237
f 242/242/242 243/243/243 244/244/244
f 245/245/245 246/246/246 247/247/247
f 248/248/248 240/240/240 249/249/249
f 250/250/250 243/243/243 242/242/242
f 240/240/240 248/248/248 251/251/251
f 252/252/252 248/248/248 253/253/253
f 254/254/254 246/246/246 241/241/241
f 251/251/251 246/246/246 254/254/254
f 254/254/254 240/240/240 251/251/251
f 241/241/241 240/240/240 254/254/254
f 250/250/250 245/245/245 255/255/255
f 246/246/246 245/245/245 242/242/242
f 245/245/245 250/250/250 242/242/242
f 256/256/256 257/257/257 258/258/258
f 252/252/252 257/257/257 256/256/256
f 248/248/248 252/252/252 256/256/256
f 248/248/248 256/256/256 251/251/251
f 242/242/242 244/244/244 241/241/241
f 245/245/245 247/247/247 255/255/255
f 248/248/248 249/249/249 253/253/253
f 256/256/256 258/258/258 251/251/251
f 246/246/246 242/242/242 241/241/241
g BH014
s 1
f 259/259/259 260/260/260 261/261/261
f 262/262/262 263/263/263 264/264/264
f 265/265/265 266/266/266 267/267/267
f 268/268/268 269/269/269 270/270/270
f 271/271/271 268/268/268 272/272/272
f 271/271/271 272/272/272 273/273/273
f 274/274/274 273/273/273 272/272/272
f 275/275/275 276/276/276 277/277/277
f 278/278/278 276/276/276 275/275/275
f 277/277/277 279/279/279 275/275/275
f 271/271/271 280/280/280 281/281/281
f 271/271/271 281/281/281 282/282/282
f 283/283/283 276/276/276 259/259/259
f 284/284/284 276/276/276 283/283/283
f 283/283/283 261/261/261 284/284/284
f 259/259/259 261/261/261 283/283/283
f 275/275/275 279/279/279 285/285/285
f 275/275/275 285/285/285 278/278/278
f 286/286/286 264/264/264 287/287/287
f 262/262/262 264/264/264 286/286/286
f 287/287/287 288/288/288 286/286/286
f 289/289/289 267/267/267 290/290/290
f 265/265/265 267/267/267 289/289/289
f 290/290/290 291/291/291 289/289/289
f 292/292/292 270/270/270 274/274/274
f 268/268/268 270/270/270 292/292/292
f 292/292/292 272/272/272 268/268/268
f 274/274/274 272/272/272 292/292/292
f 286/286/286 288/288/288 293/293/293
f 286/286/286 293/293/293 262/262/262
f 294/294/294 262/262/262 293/293/293
f 289/289/289 291/291/291 295/295/295
f 289/289/289 295/295/295 265/265/265
f 296/296/296 265/265/265 295/295/295
f 297/297/297 293/293/293 288/288/288
f 294/294/294 293/293/293 297/297/297
f 297/297/297 298/298/298 294/294/294
f 288/288/288 298/298/298 297/297/297
f 299/299/299 295/295/295 291/291/291
f 296/296/296 295/295/295 299/299/299
f 299/299/299 300/300/300 296/296/296
f 278/278/278 259/259/259 276/276/276
f 301/301/301 302/302/302 303/303/303
f 303/303/303 304/304/304 301/301/301
f 305/305/305 301/301/301 304/304/304
f 304/304/304 306/306/306 305/305/305
f 307/307/307 308/308/308 309/309/309
f 309/309/309 310/310/310 307/307/307
f 308/308/308 311/311/311 312/312/312
f 312/312/312 309/309/309 308/308/308
f 265/265/265 288/288/288 287/287/287
f 287/287/287 266/266/266 265/265/265
f 296/296/296 298/298/298 288/288/288
f 288/288/288 265/265/265 296/296/296
f 291/291/291 300/300/300 299/299/299
f 284/284/284 277/277/277 276/276/276
f 273/273/273 280/280/280 271/271/271
f 282/282/282 268/268/268 271/271/271
