# Exported using wow.export v0.2.19
o 21138_DW01.obj
v -318.68994140625 5.762587547302246 -272.640625
v -317.5078430175781 5.829875946044922 -272.54156494140625
v -322.2362365722656 5.829878330230713 -272.5415954589844
v -317.5078430175781 4.350439071655273 -274.41607666015625
v -312.7794494628906 4.7532548904418945 -274.1259765625
v -317.5078430175781 4.753257751464844 -274.1260070800781
v -322.2362365722656 4.753260135650635 -274.12603759765625
v -317.5078430175781 5.5607218742370605 -268.58294677734375
v -322.2362365722656 5.8298797607421875 -268.97906494140625
v -317.5078430175781 5.829876899719238 -268.9790344238281
v -312.7794494628906 2.1916680335998535 -275.54052734375
v -312.7794494628906 3.141981363296509 -275.2862548828125
v -317.5078430175781 2.6668272018432617 -275.41339111328125
v -312.7794494628906 5.829874038696289 -268.97900390625
v -322.2362365722656 3.14198637008667 -275.2862854003906
v -317.5078430175781 1.716512680053711 -275.66766357421875
v -312.7794494628906 2.19166898727417 -265.98004150390625
v -312.7794494628906 1.2413549423217773 -265.72576904296875
v -317.5078430175781 1.7165148258209229 -265.8529052734375
v -312.7794494628906 5.965064525604248 -269.4044189453125
v -322.2362365722656 1.2413605451583862 -265.7257995605469
v -317.5078430175781 2.666828155517578 -266.1072082519531
v -308.0510559082031 5.022406578063965 -267.7906494140625
v -303.3226623535156 4.753249645233154 -267.39453125
v -308.0510559082031 4.753252029418945 -267.3945617675781
v -312.7794494628906 4.7532548904418945 -267.39459228515625
v -308.0510559082031 4.350434303283691 -267.1044921875
v -312.7794494628906 3.9476184844970703 -266.814453125
v -308.0510559082031 3.544797897338867 -266.52435302734375
v -312.7794494628906 3.141982316970825 -266.23431396484375
v -317.5078430175781 3.544802665710449 -266.5244140625
v -322.2362365722656 3.1419870853424072 -266.234375
v -317.5078430175781 4.350439071655273 -267.10455322265625
v -312.7794494628906 3.947618246078491 -274.70611572265625
v -317.5078430175781 3.544802188873291 -274.9962158203125
v -308.0510559082031 3.544797420501709 -274.99615478515625
v -303.3226623535156 3.1419763565063477 -275.28619384765625
v -308.0510559082031 4.350433826446533 -274.416015625
v -322.2362365722656 6.100260257720947 -271.69085693359375
v -312.7794494628906 5.829874038696289 -272.5415344238281
v -312.7794494628906 5.965065002441406 -272.11614990234375
v -312.7794494628906 6.100255012512207 -269.82977294921875
v -303.3226623535156 6.100249290466309 -269.8297424316406
v -322.2362365722656 1.241357445716858 -275.7948303222656
v -317.5078430175781 1.2413554191589355 -275.7947998046875
v -312.7794494628906 1.2413535118103027 -275.7947998046875
v -317.5078430175781 1.2413578033447266 -265.72576904296875
v -313.9615478515625 1.5977219343185425 -275.6994323730469
v -310.4152526855469 1.478931188583374 -275.731201171875
v -308.0510559082031 5.56071662902832 -272.9376220703125
v -303.3226623535156 5.829869747161865 -272.5414733886719
v -308.0510559082031 5.829872131347656 -272.54150390625
v -308.0510559082031 5.560716152191162 -268.5828857421875
v -308.0510559082031 5.82987117767334 -268.97900390625
v -312.7794494628906 5.291563987731934 -268.1867980957031
v -303.3226623535156 5.829868316650391 -268.9789733886719
v -312.7794494628906 5.291563987731934 -273.333740234375
v -312.7794494628906 5.560719013214111 -272.9376525878906
v -322.2362365722656 4.753260135650635 -267.3946228027344
v -317.5078430175781 5.560721397399902 -272.93768310546875
v -315.1436462402344 5.6952972412109375 -272.7396240234375
v -303.3226623535156 4.753249645233154 -274.12591552734375
v -317.5078430175781 5.022412300109863 -273.7298889160156
v -308.0510559082031 2.6668221950531006 -275.4133605957031
v -303.3226623535156 1.2413495779037476 -275.79473876953125
v -308.0510559082031 1.7165091037750244 -265.8529052734375
v -303.3226623535156 3.141977548599243 -266.2342834472656
v -303.3226623535156 1.2413493394851685 -265.7257385253906
v -308.0510559082031 1.24135160446167 -275.7947692871094
v -308.0510559082031 1.7165088653564453 -275.6676330566406
v -306.86895751953125 1.360140323638916 -275.7629699707031
v -317.5078430175781 5.897472381591797 -269.1917419433594
v -322.2362365722656 6.100260257720947 -269.829833984375
v -303.3226623535156 6.100249767303467 -271.69073486328125
v -312.7794494628906 6.100255012512207 -271.6907958984375
v -308.0510559082031 2.666823387145996 -266.107177734375
v -317.5078430175781 6.032662391662598 -269.61712646484375
v -308.0510559082031 5.965061664581299 -269.40435791015625
v -311.59735107421875 5.628006935119629 -272.838623046875
v -308.0510559082031 4.753252029418945 -274.1259460449219
v -308.0510559082031 5.022406578063965 -273.7298278808594
v -317.5078430175781 3.141983985900879 -275.2862548828125
v -317.5078430175781 4.753257751464844 -267.39459228515625
v -317.5078430175781 5.022412300109863 -267.79071044921875
v -308.0510559082031 3.141979932785034 -266.23431396484375
v -308.0510559082031 1.2413520812988281 -265.72576904296875
v -317.5078430175781 3.141984701156616 -266.2343444824219
v -308.0510559082031 3.1419787406921387 -275.2862243652344
v -308.0510559082031 5.897467613220215 -272.32879638671875
v -308.0510559082031 -9.853068351745605 -274.97650146484375
v -303.3226623535156 -9.852612495422363 -274.97650146484375
v -308.0510559082031 -8.283318519592285 -274.97650146484375
v -308.0510559082031 -8.283318519592285 -266.5417175292969
v -308.0510559082031 -5.1438188552856445 -266.5417175292969
v -305.6868591308594 -7.498215675354004 -266.5417175292969
v -303.3226623535156 -3.573613166809082 -266.5417175292969
v -303.3226623535156 -9.852612495422363 -266.5417175292969
v -316.32574462890625 -6.321928977966309 -274.97650146484375
v -319.8720397949219 -5.92983341217041 -274.97650146484375
v -317.5078430175781 -8.28423023223877 -274.97650146484375
v -310.4152526855469 -9.068421363830566 -266.5417175292969
v -312.7794494628906 -6.714024543762207 -266.5417175292969
v -317.5078430175781 -5.144730567932129 -274.97650146484375
v -312.7794494628906 -6.714024543762207 -274.97650146484375
v -317.5078430175781 -5.144730567932129 -266.5417175292969
v -312.7794494628906 -5.144274711608887 -266.5417175292969
v -312.7794494628906 -9.853524208068848 -266.5417175292969
v -317.5078430175781 -9.85398006439209 -266.5417175292969
v -317.5078430175781 -8.28423023223877 -266.5417175292969
v -322.2362365722656 -9.854435920715332 -266.5417175292969
v -313.9615478515625 -8.676325798034668 -266.5417175292969
v -319.8720397949219 -5.92983341217041 -266.5417175292969
v -322.2362365722656 -3.57543683052063 -266.5417175292969
v -312.7794494628906 -3.5745248794555664 -266.5417175292969
v -308.0510559082031 -3.574069023132324 -266.5417175292969
v -322.2362365722656 -3.57543683052063 -274.97650146484375
v -322.2362365722656 -9.854435920715332 -274.97650146484375
v -305.6868591308594 -7.498215675354004 -274.97650146484375
v -317.5078430175781 1.1645433902740479 -275.62530517578125
v -317.5078430175781 1.2413554191589355 -275.7947998046875
v -322.2362365722656 1.241357445716858 -275.7948303222656
v -312.7794494628906 -9.853524208068848 -274.97650146484375
v -312.7794494628906 -2.370400905609131 -266.54400634765625
v -308.0510559082031 -2.3704020977020264 -266.5439758300781
v -312.7794494628906 -2.972005844116211 -266.54290771484375
v -309.233154296875 -7.1061201095581055 -274.97650146484375
v -317.5078430175781 0.10798215866088867 -275.0817565917969
v -312.7794494628906 0.9341057538986206 -275.1167907714844
v -317.5078430175781 0.9341081976890564 -275.1168212890625
v -322.2362365722656 0.9341106414794922 -275.1168518066406
v -312.7794494628906 -0.7181463241577148 -275.0466613769531
v -310.4152526855469 0.5210415124893188 -275.0992431640625
v -313.9615478515625 0.31451183557510376 -275.09051513671875
v -303.3226623535156 -3.573613166809082 -274.97650146484375
v -308.0510559082031 -5.1438188552856445 -274.97650146484375
v -308.0510559082031 -1.5442748069763184 -275.0115661621094
v -303.3226623535156 0.9341009259223938 -275.1167297363281
v -308.0510559082031 0.10797733068466187 -275.0816955566406
v -308.0510559082031 0.10797512531280518 -266.43878173828125
v -312.7794494628906 0.9341052770614624 -266.40374755859375
v -308.0510559082031 0.9341024160385132 -266.40374755859375
v -303.3226623535156 0.9340996146202087 -266.4037170410156
v -303.3226623535156 1.2413493394851685 -265.7257385253906
v -317.5078430175781 -1.544273853302002 -266.50897216796875
v -317.5078430175781 -2.3703994750976562 -266.5440368652344
v -322.2362365722656 -2.3703982830047607 -266.5440673828125
v -317.5078430175781 -2.6712021827697754 -266.5434875488281
v -317.5078430175781 1.0877315998077393 -275.455810546875
v -308.0510559082031 -2.671661615371704 -274.97650146484375
v -312.7794494628906 -2.370400905609131 -274.9765625
v -312.7794494628906 -2.9729199409484863 -274.97650146484375
v -312.7794494628906 -3.2732653617858887 -266.54229736328125
v -317.5078430175781 -3.273721218109131 -266.54229736328125
v -303.3226623535156 -3.573613166809082 -274.97650146484375
v -303.3226623535156 -2.370403289794922 -274.9764709472656
v -308.0510559082031 -3.2728095054626465 -266.54229736328125
v -308.0510559082031 1.0109150409698486 -275.2862548828125
v -308.0510559082031 0.9341033697128296 -275.11676025390625
v -312.7794494628906 -0.7181493639945984 -266.473876953125
v -303.3226623535156 -2.370403289794922 -266.5439453125
v -303.3226623535156 -3.573613166809082 -266.5417175292969
v -317.5078430175781 -2.671658992767334 -274.9765625
v -308.0510559082031 -1.5442763566970825 -266.5089111328125
v -322.2362365722656 -2.3703982830047607 -274.97662353515625
v -322.2362365722656 -3.57543683052063 -274.97650146484375
v -312.7794494628906 1.0877292156219482 -275.4557800292969
v -312.7794494628906 -3.5745248794555664 -274.97650146484375
v -317.5078430175781 -3.5749807357788086 -274.97650146484375
v -315.1436462402344 -4.359627723693848 -274.97650146484375
v -317.5078430175781 -3.5749807357788086 -274.97650146484375
v -317.5078430175781 -3.2741785049438477 -274.97650146484375
v -322.2362365722656 -3.57543683052063 -266.5417175292969
v -312.7794494628906 -3.5745248794555664 -274.97650146484375
v -308.0510559082031 -9.853068351745605 -266.5417175292969
v -306.86895751953125 -9.460516929626465 -266.5417175292969
v -312.7794494628906 1.2413535118103027 -275.7947998046875
v -317.5078430175781 0.10798072814941406 -266.4388427734375
v -322.2362365722656 0.9341108798980713 -266.4037780761719
v -322.2362365722656 1.2413605451583862 -265.7257995605469
v -317.5078430175781 1.2413578033447266 -265.72576904296875
v -317.5078430175781 0.9341080784797668 -266.40374755859375
v -308.0510559082031 -2.3704020977020264 -274.97650146484375
v -317.5078430175781 -1.5442723035812378 -275.01165771484375
v -317.5078430175781 -2.3703994750976562 -274.9765930175781
v -315.1436462402344 -4.359627723693848 -266.5417175292969
v -311.59735107421875 -4.751723289489746 -266.5417175292969
v -318.68994140625 -3.967532157897949 -274.97650146484375
v -311.59735107421875 -4.751723289489746 -274.97650146484375
v -317.5078430175781 -4.359855651855469 -266.5417175292969
v -310.4152526855469 -3.4236671924591064 -266.5419921875
v -313.9615478515625 -3.348694324493408 -266.5421447753906
v -308.0510559082031 1.0877271890640259 -275.45574951171875
v -308.0510559082031 -3.574069023132324 -274.97650146484375
v -308.0510559082031 -3.273266553878784 -274.97650146484375
v -313.9615478515625 1.010918378829956 -266.2342529296875
v -308.0510559082031 1.0877273082733154 -266.06475830078125
v -306.86895751953125 1.164539098739624 -265.895263671875
v -310.4152526855469 1.08772873878479 -266.06475830078125
v -312.7794494628906 1.0877301692962646 -266.06475830078125
v -312.7794494628906 1.2413549423217773 -265.72576904296875
v -308.0510559082031 1.2413520812988281 -265.72576904296875
v -306.86895751953125 0.7275712490081787 -275.10797119140625
v -312.7794494628906 -3.5745248794555664 -266.5417175292969
v -317.5078430175781 -3.5749807357788086 -266.5417175292969
v -308.0510559082031 -2.6712045669555664 -266.5434265136719
v -317.5078430175781 -3.5749807357788086 -266.5417175292969
v -312.7794494628906 -3.4238951206207275 -266.5419921875
v -303.3226623535156 1.2413495779037476 -275.79473876953125
v -308.0510559082031 1.24135160446167 -275.7947692871094
v -306.86895751953125 -3.4986400604248047 -266.5418701171875
v -308.0510559082031 -3.574069023132324 -266.5417175292969
v -308.0510559082031 -3.4234392642974854 -266.5419921875
v -308.0510559082031 -3.574069023132324 -274.97650146484375
v -317.5078430175781 -9.85398006439209 -274.97650146484375
v -318.68994140625 -3.967532157897949 -266.5417175292969
v -317.5078430175781 1.0877329111099243 -266.06475830078125
v -317.5078430175781 1.010920524597168 -266.2342529296875
v -308.0510559082031 1.1645398139953613 -265.895263671875
v -317.5078430175781 5.908673286437988 -269.8599548339844
v -312.7794494628906 5.717086315155029 -269.89007568359375
v -315.1436462402344 5.908672332763672 -269.8599548339844
v -322.2362365722656 6.100260257720947 -269.829833984375
v -317.5078430175781 5.71708869934082 -269.89007568359375
v -308.0510559082031 5.908668041229248 -271.66058349609375
v -312.7794494628906 5.717086315155029 -271.6304626464844
v -310.4152526855469 5.908669471740723 -271.6606140136719
v -303.3226623535156 6.100249767303467 -271.69073486328125
v -308.0510559082031 5.717083930969238 -271.63043212890625
v -308.0510559082031 5.812876224517822 -269.875
v -308.0510559082031 5.717083930969238 -269.89007568359375
v -303.3226623535156 5.717081546783447 -269.8900451660156
v -317.5078430175781 6.004465579986572 -269.8448791503906
v -312.7794494628906 6.100255012512207 -269.82977294921875
v -312.7794494628906 5.908670902252197 -269.85992431640625
v -317.5078430175781 5.71708869934082 -270.3251953125
v -317.5078430175781 5.71708869934082 -271.19537353515625
v -312.7794494628906 5.717086315155029 -270.76025390625
v -322.2362365722656 5.717091083526611 -271.6305236816406
v -322.2362365722656 6.100260257720947 -271.69085693359375
v -312.7794494628906 6.100255012512207 -271.6907958984375
v -311.59735107421875 5.812878131866455 -269.875
v -312.7794494628906 5.908670425415039 -271.66064453125
v -313.9615478515625 5.8128790855407715 -271.64556884765625
v -317.5078430175781 5.71708869934082 -271.6304931640625
v -308.0510559082031 5.717083930969238 -270.32513427734375
v -308.0510559082031 5.717083930969238 -269.89007568359375
v -312.7794494628906 5.717086315155029 -269.89007568359375
v -303.3226623535156 5.717081546783447 -269.8900451660156
v -317.5078430175781 5.71708869934082 -271.6304931640625
v -312.7794494628906 5.717086315155029 -271.6304626464844
v -322.2362365722656 5.717091083526611 -271.6305236816406
v -322.2362365722656 5.717091083526611 -269.8901062011719
v -317.5078430175781 5.71708869934082 -269.89007568359375
v -322.2362365722656 5.717091083526611 -269.8901062011719
v -303.3226623535156 5.717081546783447 -271.6304016113281
v -308.0510559082031 5.717083930969238 -271.1953125
v -308.0510559082031 5.717083930969238 -271.63043212890625
v -303.3226623535156 5.717081546783447 -271.6304016113281
v -303.3226623535156 6.100249290466309 -269.8297424316406
v -322.2362365722656 -3.6702592372894287 -270.6134948730469
v -317.5078430175781 -3.650491714477539 -269.83526611328125
v -317.5078430175781 -3.650491714477539 -271.4334716796875
v -308.0510559082031 -3.610957145690918 -269.8770751953125
v -303.3226623535156 -3.5911898612976074 -267.5006408691406
v -303.3226623535156 -3.5911898612976074 -273.8934631347656
v -322.2362365722656 -3.6702592372894287 -267.3564758300781
v -317.5078430175781 -3.650491714477539 -268.206787109375
v -312.7794494628906 -3.6307244300842285 -269.05706787109375
v -312.7794494628906 -3.6307244300842285 -272.25347900390625
v -308.0510559082031 -3.610957145690918 -268.27886962890625
v -312.7794494628906 -3.6307244300842285 -267.4285583496094
v -317.5078430175781 -3.650491714477539 -267.39251708984375
v -317.5078430175781 -3.650491714477539 -273.06201171875
v -322.2362365722656 -3.6702592372894287 -273.8705139160156
v -312.7794494628906 -3.6307244300842285 -273.8819885253906
v -317.5078430175781 -3.650491714477539 -273.8762512207031
v -308.0510559082031 -3.610957145690918 -273.073486328125
v -308.0510559082031 -3.610957145690918 -273.8877258300781
v -308.0510559082031 -3.610957145690918 -267.464599609375
v -321.49639892578125 -3.33398175239563 -265.990966796875
v -317.137939453125 -3.320493221282959 -266.29718017578125
v -317.5078430175781 -3.3259501457214355 -266.86834716796875
v -312.7794494628906 -3.307004928588867 -266.6033935546875
v -312.4095458984375 -3.3015480041503906 -266.0322265625
v -308.0510559082031 -3.610957145690918 -267.464599609375
v -312.7794494628906 -3.6307244300842285 -267.4285583496094
v -312.7794494628906 -3.4680428504943848 -267.3169860839844
v -312.7794494628906 -3.6307244300842285 -273.8819885253906
v -308.0510559082031 -3.610957145690918 -273.8877258300781
v -312.7794494628906 -3.4680428504943848 -273.9935607910156
v -322.2362365722656 -3.6702592372894287 -273.8705139160156
v -317.5078430175781 -3.650491714477539 -273.8762512207031
v -322.2362365722656 -3.344895601272583 -274.0936584472656
v -303.3226623535156 -3.2691142559051514 -274.17376708984375
v -312.7794494628906 -3.307004928588867 -274.13372802734375
v -303.3226623535156 -3.2691149711608887 -274.6007080078125
v -303.3226623535156 -3.2691142559051514 -267.2212219238281
v -312.7794494628906 -3.307004928588867 -267.1772766113281
v -317.45928955078125 -3.311929702758789 -275.5201416015625
v -317.4754638671875 -3.316603183746338 -275.15911865234375
v -312.7470703125 -3.2976579666137695 -275.5024719238281
v -322.1715087890625 -3.3262016773223877 -275.5378112792969
v -316.9529724121094 -3.3177647590637207 -266.0115966796875
v -313.9615478515625 -3.311741352081299 -274.4779357910156
v -312.7794494628906 -3.307004928588867 -274.7803955078125
v -317.5078430175781 -3.3259501457214355 -274.43701171875
v -310.4152526855469 -3.297532558441162 -274.51885986328125
v -308.0510559082031 -3.288059949874878 -274.6905517578125
v -303.3226623535156 -3.2691142559051514 -275.4671325683594
v -312.7794494628906 -3.3070054054260254 -274.34716796875
v -312.7794494628906 -3.307004928588867 -267.0096130371094
v -317.5078430175781 -3.3259501457214355 -267.07147216796875
v -322.2362365722656 -3.344895601272583 -267.1333312988281
v -308.0510559082031 -3.288059711456299 -266.74462890625
v -310.4152526855469 -3.297532081604004 -266.87713623046875
v -303.3226623535156 -3.2691142559051514 -266.073486328125
v -303.3226623535156 -3.2691142559051514 -266.8858947753906
v -313.9615478515625 -3.3117411136627197 -266.87274169921875
v -317.5078430175781 -3.4878101348876953 -267.28094482421875
v -317.5078430175781 -3.650491714477539 -267.39251708984375
v -308.0510559082031 -3.288059711456299 -266.94775390625
v -308.0510559082031 -3.288059711456299 -275.123779296875
v -308.0510559082031 -3.288059711456299 -266.33843994140625
v -317.5078430175781 -3.4878101348876953 -273.9878234863281
v -308.0510559082031 -3.288059711456299 -267.11541748046875
v -316.32574462890625 -3.321214199066162 -274.3062744140625
v -306.86895751953125 -3.2833237648010254 -274.5597839355469
v -318.098876953125 -3.3283185958862305 -274.2857971191406
v -306.86895751953125 -3.283323287963867 -266.88153076171875
v -308.0510559082031 -3.529616355895996 -267.4088134765625
v -303.3226623535156 -3.5911898612976074 -267.5006408691406
v -317.5078430175781 -3.4064693450927734 -267.22515869140625
v -303.3226623535156 -3.5911898612976074 -273.8934631347656
v -308.0510559082031 -3.529616355895996 -273.9435119628906
v -317.5078430175781 -3.3259501457214355 -267.1553039550781
v -322.2362365722656 -3.6702592372894287 -267.3564758300781
vn -5.502075168806186e-7 -0.8905483484268188 0.4548884630203247
vn -5.500695579030435e-7 -0.8994541168212891 0.43701526522636414
vn -5.584998348240333e-7 -0.8994530439376831 0.43701741099357605
vn -4.913880502499524e-7 -0.6518000364303589 0.7583909630775452
vn -5.146869170857826e-7 -0.7166747450828552 0.6974076628684998
vn -5.37964524482959e-7 -0.716673731803894 0.6974086165428162
vn -5.612421318801353e-7 -0.7166727781295776 0.6974095702171326
vn -1.8514055000196095e-7 -0.8617198467254639 -0.5073844194412231
vn 0 -0.8994573950767517 -0.4370085299015045
vn -1.4586618135581375e-7 -0.8994573354721069 -0.4370085597038269
vn 1.459962675198767e-7 -0.0004144303093198687 0.9999999403953552
vn -1.3040930468832812e-7 -0.42843812704086304 0.9035711288452148
vn 7.482073272058187e-8 -0.21978029608726501 0.9755493998527527
vn -2.917323627116275e-7 -0.8994573354721069 -0.4370085597038269
vn 0 -0.42843863368034363 0.9035708904266357
vn 2.7164250582245586e-7 0.21896903216838837 0.9757318496704102
vn -1.4642040468970663e-7 -0.0004214361833874136 -0.9999998807907104
vn 1.4178317542246077e-7 0.42768269777297974 -0.9039289355278015
vn -7.503803800545938e-8 0.21896100044250488 -0.9757336378097534
vn 1.2522383485702449e-7 -0.9987195730209351 0.05058775842189789
vn 0 0.42767617106437683 -0.9039320349693298
vn -1.496059098826663e-7 -0.21978381276130676 -0.9755486249923706
vn -4.1863069100145367e-7 -0.7700369358062744 -0.6379992961883545
vn -4.654915528590209e-7 -0.716676652431488 -0.6974055767059326
vn -3.8545277902812813e-7 -0.7166756391525269 -0.6974066495895386
vn -3.0541397677552595e-7 -0.7166746854782104 -0.6974076628684998
vn -3.894940903137467e-7 -0.6518034934997559 -0.7583879232406616
vn -3.104089500993723e-7 -0.5817632079124451 -0.8133582472801208
vn -2.886764036702516e-7 -0.5071106553077698 -0.8618810176849365
vn -2.0507914655354398e-7 -0.42843836545944214 -0.9035710096359253
vn -2.2886308670422295e-7 -0.5071110725402832 -0.8618807196617126
vn -1.4550293769843847e-7 -0.42843881249427795 -0.9035707712173462
vn -2.2877942740251456e-7 -0.651801347732544 -0.7583897709846497
vn -4.176386312337854e-7 -0.5817602872848511 0.8133602142333984
vn -2.0965028113550943e-7 -0.5071094036102295 0.861881673336029
vn -3.4057856623803673e-7 -0.5071089267730713 0.8618820309638977
vn -2.6081860937665624e-7 -0.42843765020370483 0.903571367263794
vn -4.446476395969512e-7 -0.651802122592926 0.7583890557289124
vn 0 -0.8507348299026489 -0.5255951285362244
vn -5.416393378254725e-7 -0.8994551301002502 0.4370131194591522
vn -2.994573833348113e-7 -0.9987214803695679 -0.05055047571659088
vn 1.0972094344197103e-7 -0.8506854176521301 0.5256751775741577
vn 2.1944188688394206e-7 -0.850695788860321 0.525658369064331
vn 3.8405488567150314e-7 0.4276847541332245 0.9039279818534851
vn 3.540131103818567e-7 0.4276859760284424 0.9039274454116821
vn 3.239713350922102e-7 0.4276871681213379 0.9039268493652344
vn 7.089158771123039e-8 0.4276794195175171 -0.9039304852485657
vn 2.709408022383286e-7 0.27255937457084656 0.9621390104293823
vn 2.6941086161968997e-7 0.32531654834747314 0.9456050992012024
vn -5.240281666374358e-7 -0.8617192506790161 0.5073854923248291
vn -5.247788408269116e-7 -0.8994572162628174 0.4370088279247284
vn -5.332091745913203e-7 -0.899456262588501 0.4370110332965851
vn -4.778060542776075e-7 -0.8617198467254639 -0.5073844194412231
vn -4.3759854406744125e-7 -0.8994573354721069 -0.4370085597038269
vn -3.6910049061589234e-7 -0.8184872269630432 -0.5745248198509216
vn -5.83464725423255e-7 -0.8994573354721069 -0.4370085597038269
vn -5.199356110097142e-7 -0.8184859752655029 0.5745264887809753
vn -5.324852736521279e-7 -0.8617180585861206 0.5073875188827515
vn -1.453363864811763e-7 -0.7166726589202881 -0.6974097490310669
vn -5.409423238234012e-7 -0.8617168068885803 0.5073896050453186
vn -5.416958401838201e-7 -0.8812887668609619 0.472578227519989
vn -4.681315601828828e-7 -0.7166765928268433 0.6974056363105774
vn -5.423179914032517e-7 -0.7700345516204834 0.6380022764205933
vn -5.884458786908908e-8 -0.21977972984313965 0.9755494594573975
vn 2.6388775609120785e-7 0.4276895523071289 0.9039256572723389
vn 7.02851465916865e-8 0.21896804869174957 -0.9757320284843445
vn -2.646553696195042e-7 -0.4284379184246063 -0.9035712480545044
vn 2.8356635084492154e-7 0.42768925428390503 -0.9039258360862732
vn 2.939295313808543e-7 0.4276883602142334 0.9039262533187866
vn 2.100589568954092e-7 0.2189716249704361 0.9757312536239624
vn 2.670574588137242e-7 0.37707939743995667 0.9261809587478638
vn 6.464465940325681e-8 -0.9799012541770935 -0.19948309659957886
vn 0 -0.8506750464439392 0.5256919264793396
vn -0.0000012884902389487252 -0.8506954312324524 -0.5256588459014893
vn -6.442451194743626e-7 -0.850715160369873 -0.5256270170211792
vn -2.1066954047910258e-7 -0.21978333592414856 -0.9755487442016602
vn 6.464498625291526e-8 -0.954723060131073 0.2974960207939148
vn -4.1252341986819374e-8 -0.9987195730209351 0.05058774724602699
vn -5.329682153387694e-7 -0.8716776967048645 0.49007952213287354
vn -4.914092528451874e-7 -0.7166756391525269 0.6974066495895386
vn -4.95613733164646e-7 -0.7700362801551819 0.6380001306533813
vn -6.520465234416406e-8 -0.42843836545944214 0.9035710096359253
vn -2.2537517452292377e-7 -0.7166736721992493 -0.6974086761474609
vn -2.580411830876983e-7 -0.7700350880622864 -0.6380015015602112
vn -2.348672580865241e-7 -0.42843812704086304 -0.9035711288452148
vn 2.1267476313369116e-7 0.4276859760284424 -0.9039273858070374
vn -1.7529103502056387e-7 -0.42843860387802124 -0.9035708904266357
vn -1.9561394992706482e-7 -0.42843788862228394 0.9035712480545044
vn -4.254958128058206e-7 -0.9798975586891174 0.19950154423713684
vn 0 0 1
vn 0 0 1
vn 5.435142336196463e-10 -0.000005636327387037454 1
vn 4.4500374940525944e-8 -0.0004614759236574173 -0.9999999403953552
vn 1.3350108929444104e-7 -0.0013844271888956428 -0.9999990463256836
vn 6.675055885807524e-8 -0.0006922137690708041 -0.9999997615814209
vn 1.7800140028612077e-7 -0.001845902530476451 -0.9999982714653015
vn 0 0 -1
vn 1.2229069978886287e-9 -0.00001268173673452111 1
vn 1.3587855285379646e-9 -0.000014090818694967311 1
vn 5.435142336196463e-10 -0.000005636327387037454 1
vn 2.2250187470262972e-8 -0.00023073796182870865 -1
vn 8.900074277562453e-8 -0.0009229517308995128 -0.9999996423721313
vn 1.630542700858939e-9 -0.00001690898170636501 1
vn 1.0870284672392927e-9 -0.000011272654774074908 1
vn 1.3350108929444104e-7 -0.0013844271888956428 -0.9999990463256836
vn 1.3350108929444104e-7 -0.0013844271888956428 -0.9999990463256836
vn 0 0 -1
vn 0 0 -1
vn 4.4500374940525944e-8 -0.0004614759236574173 -0.9999999403953552
vn 0 0 -1
vn 3.337527942903762e-8 -0.000346106942743063 -1
vn 1.1125091248231911e-7 -0.0011536894598975778 -0.9999993443489075
vn 1.7800140028612077e-7 -0.001845902530476451 -0.9999982714653015
vn 1.7800141449697549e-7 -0.0018459027633070946 -0.9999983906745911
vn 1.7800141449697549e-7 -0.0018459026468917727 -0.9999983310699463
vn 2.1740569344785854e-9 -0.000022545309548149817 1
vn 0 0 1
vn 8.152713504294695e-10 -0.000008454490853182506 1
vn 3.7824540299880027e-7 0.46170246601104736 0.8870347738265991
vn 3.540131103818567e-7 0.4276859760284424 0.9039274454116821
vn 3.8405488567150314e-7 0.4276847541332245 0.9039279818534851
vn 0 0 1
vn 2.8074115476783845e-8 0.04240243136882782 -0.9991006255149841
vn 2.2694745638318636e-8 0.0423983559012413 -0.9991008043289185
vn 1.084437002418781e-7 0.02028731070458889 -0.9997942447662354
vn 9.511499365899567e-10 -0.000009863572813628707 1
vn 2.6832714183910866e-7 0.44036003947257996 0.8978212475776672
vn 3.5072895343546406e-7 0.5595667362213135 0.8287854194641113
vn 3.47303057424142e-7 0.5595660209655762 0.8287858366966248
vn 3.438771898345294e-7 0.5595653057098389 0.8287862539291382
vn 1.876854014426499e-7 0.3127986788749695 0.9498193860054016
vn 3.136988766527793e-7 0.5011542439460754 0.8653579354286194
vn 2.91185955347828e-7 0.4710368812084198 0.8821134567260742
vn 2.1740569344785854e-9 -0.000022545309548149817 1
vn 1.630542700858939e-9 -0.00001690898170636501 1
vn 1.0348219348088605e-7 0.17930170893669128 0.983794093132019
vn 3.5758066019297985e-7 0.5595680475234985 0.8287844061851501
vn 2.7524455958882754e-7 0.44036152958869934 0.8978204727172852
vn 2.987176515034662e-7 0.4403606653213501 -0.8978208899497986
vn 1.9946645579693723e-7 0.5595641136169434 -0.828787088394165
vn 2.8780203820133465e-7 0.5595639944076538 -0.8287872076034546
vn 3.7613759218402265e-7 0.5595638155937195 -0.8287872672080994
vn 2.8356635084492154e-7 0.42768925428390503 -0.9039258360862732
vn 1.2844988361848664e-7 0.17930732667446136 -0.9837931394577026
vn 3.3453485315249054e-8 0.04240650683641434 -0.9991004467010498
vn 3.883285515371426e-8 0.042410582304000854 -0.9991002678871155
vn 7.364278786781142e-8 0.03135086968541145 -0.9995084404945374
vn 3.684545220039581e-7 0.4950534403324127 0.8688624501228333
vn 1.3531878728656466e-8 0.03180034086108208 0.9994942545890808
vn 8.65767013635832e-9 0.042398303747177124 0.9991008043289185
vn 9.746891294071247e-9 0.0211946964263916 0.9997752904891968
vn 1.4323133257221343e-7 0.009221269749104977 -0.9999575614929199
vn 1.4323133257221343e-7 0.009221269749104977 -0.9999575614929199
vn 2.1740569344785854e-9 -0.000022545309548149817 1
vn 1.731534027271664e-8 0.04240240156650543 0.9991006255149841
vn 1.4323133257221343e-7 0.009221269749104977 -0.9999575614929199
vn 3.649987263543153e-7 0.5276917219161987 0.8494359254837036
vn 3.5415479260336724e-7 0.559567391872406 0.8287849426269531
vn 2.1562956931120425e-7 0.312801718711853 -0.94981849193573
vn 1.7315375799853427e-8 0.042394284158945084 -0.9991009831428528
vn 1.7800140028612077e-7 -0.001845902530476451 -0.9999982714653015
vn 4.873719650078101e-9 0.03179623931646347 0.9994943737983704
vn 1.1758820761542665e-7 0.1792992800474167 -0.9837945103645325
vn 0 0.042394205927848816 0.9991009831428528
vn 2.1740569344785854e-9 -0.000022545309548149817 1
vn 3.7189033719187137e-7 0.4950542151927948 0.8688621520996094
vn 2.1740569344785854e-9 -0.000022545309548149817 1
vn 2.1740569344785854e-9 -0.000022545309548149817 1
vn 1.9022998731799134e-9 -0.000019727145627257414 1
vn 2.1740569344785854e-9 -0.000022545309548149817 1
vn 5.960810067762168e-9 0.010586672462522984 0.9999440312385559
vn 1.7800140028612077e-7 -0.001845902530476451 -0.9999982714653015
vn 2.1740569344785854e-9 -0.000022545309548149817 1
vn 0 0 -1
vn 1.1125093735131486e-8 -0.00011536898091435432 -1
vn 3.239713350922102e-7 0.4276871681213379 0.9039268493652344
vn 1.2035431495860394e-7 0.44036102294921875 -0.8978208303451538
vn 2.279531763349496e-8 0.5595644116401672 -0.8287868499755859
vn 0 0.42767617106437683 -0.9039320349693298
vn 7.089158771123039e-8 0.4276794195175171 -0.9039304852485657
vn 1.1113088760339451e-7 0.5595642328262329 -0.8287869691848755
vn 1.298650520453748e-8 0.04240035265684128 0.9991006851196289
vn 9.47416509688992e-8 0.17929770052433014 0.9837948083877563
vn 4.32883506817916e-9 0.04239625483751297 0.999100923538208
vn 1.5575125189570826e-7 -0.001615164801478386 -0.9999986886978149
vn 1.4462617059507465e-7 -0.0014997960533946753 -0.9999988675117493
vn 2.038178514851552e-9 -0.000021136227587703615 1
vn 1.766421231508275e-9 -0.000018318063666811213 1
vn 1.5575125189570826e-7 -0.001615164801478386 -0.9999986886978149
vn 1.6061881069617812e-7 0.0036877398379147053 -0.9999932050704956
vn 1.5192564717381174e-7 0.006454529706388712 -0.9999791979789734
vn 3.417616198930773e-7 0.49505531787872314 0.8688613772392273
vn 2.1740569344785854e-9 -0.000022545309548149817 1
vn 5.960810067762168e-9 0.010586672462522984 0.9999440312385559
vn 1.5463666613868554e-7 0.5276898741722107 -0.8494371175765991
vn 2.4221486683018156e-7 0.4950542747974396 -0.8688620328903198
vn 2.4091659156511014e-7 0.461704820394516 -0.8870335817337036
vn 1.9791937688751204e-7 0.4950543940067291 -0.868861973285675
vn 1.536238585231331e-7 0.4950544834136963 -0.868861973285675
vn 1.4178317542246077e-7 0.42768269777297974 -0.9039289355278015
vn 2.1267476313369116e-7 0.4276859760284424 -0.9039273858070374
vn 3.3583921776880743e-7 0.5306763648986816 0.8475745320320129
vn 1.7800141449697549e-7 -0.0018459027633070946 -0.9999983906745911
vn 1.7800141449697549e-7 -0.0018459026468917727 -0.9999983310699463
vn 6.288338028070939e-8 0.03134271129965782 -0.9995086789131165
vn 1.7800141449697549e-7 -0.0018459026468917727 -0.9999983310699463
vn 1.6061881069617812e-7 0.0036877398379147053 -0.9999932050704956
vn 2.6388775609120785e-7 0.4276895523071289 0.9039256572723389
vn 2.939295313808543e-7 0.4276883602142334 0.9039262533187866
vn 1.6931078050674842e-7 0.0009209222625941038 -0.9999996423721313
vn 1.7800141449697549e-7 -0.0018459026468917727 -0.9999983310699463
vn 1.6061881069617812e-7 0.0036877398379147053 -0.9999932050704956
vn 2.1740569344785854e-9 -0.000022545309548149817 1
vn 0 0 1
vn 1.668763474071966e-7 -0.001730533898808062 -0.9999985694885254
vn 8.252725791635385e-8 0.4950512945652008 -0.8688637614250183
vn 8.82732464901892e-8 0.5276899933815002 -0.8494369983673096
vn 2.1875285938222078e-7 0.4617048501968384 -0.8870335817337036
vn -1.2386769299155276e-7 -0.8077691197395325 0.5894990563392639
vn -2.4700301537450287e-7 -0.7600873708724976 0.6498209238052368
vn -1.8580139737878199e-7 -0.8077741861343384 0.5894920229911804
vn 0 -0.8506750464439392 0.5256919264793396
vn -1.2350150768725143e-7 -0.760076105594635 0.6498340964317322
vn -7.529214371970738e-7 -0.8077958822250366 -0.5894624590873718
vn -2.1290182417033066e-7 -0.7601211071014404 -0.6497814059257507
vn -6.995377930252289e-7 -0.8077982664108276 -0.5894588828086853
vn -0.0000012884902389487252 -0.8506954312324524 -0.5256588459014893
vn -3.193527504663507e-7 -0.7601156234741211 -0.6497878432273865
vn -3.7114480733180244e-7 -0.7845243811607361 0.6200979948043823
vn -3.7050457990517316e-7 -0.7600987553596497 0.6498077511787415
vn -4.940060307490057e-7 -0.7601099014282227 0.6497945189476013
vn -1.2395911141993565e-7 -0.8298404812812805 0.5580008625984192
vn 1.0972094344197103e-7 -0.8506854176521301 0.5256751775741577
vn -2.477350165008829e-7 -0.8077793121337891 0.5894850492477417
vn -1.4929102576388686e-7 -0.9380943775177002 0.34637972712516785
vn -1.4929008784747566e-7 -0.9381243586540222 -0.3462984263896942
vn -2.801017444653553e-7 -1 0.00003485686465865001
vn 0 -0.7601321339607239 -0.6497685313224792
vn 0 -0.8507348299026489 -0.5255951285362244
vn -6.442451194743626e-7 -0.850715160369873 -0.5256270170211792
vn -2.783587262911169e-7 -0.7845163941383362 0.6201082468032837
vn -6.461544330704783e-7 -0.8078007698059082 -0.5894554853439331
vn -4.0329246075998526e-7 -0.7845423817634583 -0.6200752854347229
vn -1.0645092629602004e-7 -0.7601267099380493 -0.6497750282287598
vn -4.1258530814047845e-7 -0.9381064772605896 0.34634721279144287
vn -3.7050457990517316e-7 -0.7600987553596497 0.6498077511787415
vn -2.4700301537450287e-7 -0.7600873708724976 0.6498209238052368
vn -4.940060307490057e-7 -0.7601099014282227 0.6497945189476013
vn -1.0645092629602004e-7 -0.7601267099380493 -0.6497750282287598
vn -2.1290182417033066e-7 -0.7601211071014404 -0.6497814059257507
vn 0 -0.7601321339607239 -0.6497685313224792
vn 0 -0.7600648403167725 0.6498472690582275
vn -1.2350150768725143e-7 -0.760076105594635 0.6498340964317322
vn 0 -0.7600648403167725 0.6498472690582275
vn -4.258036483406613e-7 -0.7601101398468018 -0.6497942805290222
vn -3.7623948401233065e-7 -0.938118577003479 -0.34631431102752686
vn -3.193527504663507e-7 -0.7601156234741211 -0.6497878432273865
vn -4.258036483406613e-7 -0.7601101398468018 -0.6497942805290222
vn 2.1944188688394206e-7 -0.850695788860321 0.525658369064331
vn -0.05612964928150177 0.9983723759651184 0.010101164691150188
vn -0.04391847178339958 0.9914386868476868 -0.12296562641859055
vn -0.045442044734954834 0.9889279007911682 0.14126789569854736
vn -0.020329080522060394 0.9919971227645874 -0.12461303919553757
vn -0.003507796209305525 0.8662110567092896 -0.4996659457683563
vn -0.009442439302802086 0.859450101852417 0.5111324787139893
vn -0.1272047907114029 0.880573570728302 -0.4565185308456421
vn -0.07964017987251282 0.930408239364624 -0.35776805877685547
vn -0.030920982360839844 0.9667542576789856 -0.25383085012435913
vn -0.03396337851881981 0.9622679948806763 0.2699754238128662
vn -0.017369884997606277 0.9247611165046692 -0.3801514804363251
vn -0.06549865007400513 0.8752947449684143 -0.47913363575935364
vn -0.09640410542488098 0.8784115314483643 -0.46808043122291565
vn -0.050293516367673874 0.9281637668609619 0.3687579035758972
vn -0.06606099754571915 0.8836756348609924 0.46341487765312195
vn -0.03778039291501045 0.872224748134613 0.4876437783241272
vn -0.05193055048584938 0.87811678647995 0.4756195545196533
vn -0.021893469616770744 0.9188567996025085 0.39398321509361267
vn -0.023615896701812744 0.8660017848014832 0.4994828999042511
vn -0.034521982073783875 0.8712263703346252 -0.4896658957004547
vn -0.0036028933245688677 0.9999659657478333 -0.00742403045296669
vn -0.03351781144738197 0.989861786365509 -0.13802295923233032
vn -0.09100321680307388 0.9165481328964233 -0.3894328474998474
vn -0.06282762438058853 0.9618873596191406 -0.26613011956214905
vn -0.0036028933245688677 0.9999659657478333 -0.00742403045296669
vn -0.034521982073783875 0.8712263703346252 -0.4896658957004547
vn -0.06549865007400513 0.8752947449684143 -0.47913363575935364
vn -0.060621749609708786 0.8618568778038025 -0.5035152435302734
vn -0.03778039291501045 0.872224748134613 0.4876437783241272
vn -0.023615896701812744 0.8660017848014832 0.4994828999042511
vn -0.03686759993433952 0.854907214641571 0.5174693465232849
vn -0.06606099754571915 0.8836756348609924 0.46341487765312195
vn -0.05193055048584938 0.87811678647995 0.4756195545196533
vn -0.06426278501749039 0.849669337272644 0.5233854651451111
vn -0.0018970526289194822 0.9100781679153442 0.4144323468208313
vn -0.03316046670079231 0.8820162415504456 0.4700506925582886
vn -0.004020357970148325 0.9999918937683105 9.783890391190653e-7
vn -0.005593304987996817 0.9097484350204468 -0.41512224078178406
vn -0.061748359352350235 0.8848384618759155 -0.4617878794670105
vn -0.0030769670847803354 0.9999115467071533 0.012943086214363575
vn -0.019187653437256813 0.9889525771141052 0.14698512852191925
vn -0.003076967317610979 0.9999116063117981 0.01294308714568615
vn -0.0030769668519496918 0.9999114871025085 0.012943085283041
vn -0.0036028933245688677 0.9999659657478333 -0.00742403045296669
vn -0.039070360362529755 0.9507842063903809 0.307380735874176
vn -0.03494630753993988 0.9598494172096252 0.2783304452896118
vn -0.05006380379199982 0.9131360054016113 0.40456926822662354
vn -0.027647772803902626 0.9779891967773438 0.2068159282207489
vn -0.019681228324770927 0.9898737668991089 0.1405792385339737
vn -0.0030769668519496918 0.9999114871025085 0.012943085283041
vn -0.03549947217106819 0.9616135358810425 0.27210143208503723
vn -0.06310673803091049 0.9628552794456482 -0.26253995299339294
vn -0.09116622060537338 0.9172596335411072 -0.38771575689315796
vn -0.11753591150045395 0.854662299156189 -0.5057051181793213
vn -0.03374502435326576 0.9903602004051208 -0.1343429684638977
vn -0.048530664294958115 0.9788190126419067 -0.19889189302921295
vn -0.0036028933245688677 0.9999659657478333 -0.00742403045296669
vn -0.004020440857857466 0.9999918937683105 0
vn -0.07013601809740067 0.9526969790458679 -0.2957185208797455
vn -0.09156124293804169 0.8653939962387085 -0.492655873298645
vn -0.09640410542488098 0.8784115314483643 -0.46808043122291565
vn -0.033877547830343246 0.9906041026115417 -0.1324979066848755
vn -0.019187653437256813 0.9889525771141052 0.14698512852191925
vn -0.03351781144738197 0.989861786365509 -0.13802295923233032
vn -0.051037464290857315 0.8612148761749268 0.5056719183921814
vn -0.034477002918720245 0.9397630095481873 -0.34008365869522095
vn -0.04664863273501396 0.9276167750358582 0.3706091642379761
vn -0.01592150516808033 0.9944519996643066 0.10397950559854507
vn -0.05204208940267563 0.9067696928977966 0.41840213537216187
vn -0.026414554566144943 0.9946395754814148 -0.09997203201055527
vn -0.03207799047231674 0.8643901348114014 -0.5017973780632019
vn -0.003507796209305525 0.8662110567092896 -0.4996659457683563
vn -0.08911555260419846 0.8586133718490601 -0.5048182010650635
vn -0.009442439302802086 0.859450101852417 0.5111324787139893
vn -0.02315737120807171 0.8572657704353333 0.5143531560897827
vn -0.08970890194177628 0.8703981637954712 -0.48410680890083313
vn -0.1272047907114029 0.880573570728302 -0.4565185308456421
vt 2.1788127422332764 0.9300741106271744
vt 2.051914691925049 0.94390869140625
vt 2.559507131576538 0.9439090490341187
vt 2.051915407180786 0.6397337913513184
vt 1.5443226099014282 0.7225535809993744
vt 2.051915168762207 0.7225539684295654
vt 2.5595076084136963 0.7225543260574341
vt 2.051914930343628 0.8885697573423386
vt 2.559507369995117 0.9439088106155396
vt 2.051914930343628 0.9439084529876709
vt 1.5443226099014282 0.19588685035705566
vt 1.544323205947876 0.3912729024887085
vt 2.051915168762207 0.29358023405075073
vt 1.5443224906921387 0.9439080953598022
vt 2.5595078468322754 0.3912736177444458
vt 2.051914930343628 0.09819412231445312
vt 1.5443222522735596 0.1958865523338318
vt 1.54432213306427 0.0005003213882446289
vt 2.051914691925049 0.09819382429122925
vt 1.5443224906921387 0.9717034101486206
vt 2.559507131576538 0.000501096248626709
vt 2.051914691925049 0.29357999563217163
vt 1.0367302894592285 0.7778915911912918
vt 0.5291379690170288 0.722552478313446
vt 1.0367302894592285 0.7225528657436371
vt 1.5443227291107178 0.7225532531738281
vt 1.0367302894592285 0.6397327184677124
vt 1.5443226099014282 0.5569129586219788
vt 1.0367300510406494 0.4740924835205078
vt 1.5443222522735596 0.39127272367477417
vt 2.051914930343628 0.4740931987762451
vt 2.559507131576538 0.3912734389305115
vt 2.051915168762207 0.6397334933280945
vt 1.5443230867385864 0.5569132566452026
vt 2.051915407180786 0.4740934371948242
vt 1.0367307662963867 0.4740927219390869
vt 0.5291385650634766 0.3912721872329712
vt 1.036730408668518 0.6397330462932587
vt 2.559507369995117 0.9994996786117554
vt 1.54432213306427 0.9439083337783813
vt 1.5443223714828491 0.9717036485671997
vt 1.5443224906921387 0.9994987547397614
vt 0.5291376113891602 0.9994980096817017
vt 2.559507369995117 0.0005013942718505859
vt 2.051914930343628 0.0005010366439819336
vt 1.5443223714828491 0.0005006790161132812
vt 2.051914691925049 0.0005006790161132812
vt 1.6712205410003662 0.07377058267593384
vt 1.2905261516571045 0.04934704303741455
vt 1.0367298126220703 0.8885692805051804
vt 0.5291372537612915 0.943907618522644
vt 1.0367296934127808 0.9439079761505127
vt 1.0367300510406494 0.8885690420866013
vt 1.0367300510406494 0.9439077377319336
vt 1.5443226099014282 0.8332307040691376
vt 0.5291376113891602 0.9439073801040649
vt 1.5443223714828491 0.8332309424877167
vt 1.5443222522735596 0.888569638133049
vt 2.5595076084136963 0.7225540280342102
vt 2.051914691925049 0.8885699957609177
vt 1.7981184720993042 0.9162391647696495
vt 0.5291377305984497 0.7225528359413147
vt 2.051914930343628 0.7778926342725754
vt 1.0367305278778076 0.2935795187950134
vt 0.529137372970581 0.000500023365020752
vt 1.0367295742034912 0.09819304943084717
vt 0.529137372970581 0.39127200841903687
vt 0.5291370153427124 0.0004994869232177734
vt 1.0367298126220703 0.0005003213882446289
vt 1.0367300510406494 0.09819340705871582
vt 0.9098317623138428 0.02492356300354004
vt 2.051914930343628 0.9578061103820801
vt 2.559507369995117 0.999499499797821
vt 0.5291376113891602 0.9994983673095703
vt 1.5443224906921387 0.9994990229606628
vt 1.0367298126220703 0.2935792803764343
vt 2.051914930343628 0.9856014549732208
vt 1.0367300510406494 0.971703052520752
vt 1.417424201965332 0.9024042189121246
vt 1.036730170249939 0.7225531935691833
vt 1.0367300510406494 0.7778918892145157
vt 2.0519156455993652 0.39127326011657715
vt 2.051915168762207 0.7225536406040192
vt 2.051915168762207 0.7778923660516739
vt 1.0367298126220703 0.3912723660469055
vt 1.0367295742034912 0.0004999041557312012
vt 2.051914691925049 0.3912730813026428
vt 1.0367308855056763 0.39127254486083984
vt 1.0367298126220703 0.9578056335449219
vt 0.2502497434616089 0.0007181167602539062
vt 0.0004994869232177734 0.0007908344268798828
vt 0.2502497732639313 0.2503955364227295
vt 0.2502496838569641 0.25039517879486084
vt 0.2502497434616089 0.749750018119812
vt 0.12537460029125214 0.3752702474594116
vt 0.0004995465278625488 0.9995001554489136
vt 0.0004994571208953857 0.0007905364036560059
vt 0.6873127222061157 0.5623649656772614
vt 0.8746253848075867 0.6247297525405884
vt 0.7497502565383911 0.250249981880188
vt 0.3751247823238373 0.12552011013031006
vt 0.4999999403953552 0.49999988079071045
vt 0.7497502565383911 0.7496048510074615
vt 0.5000000596046448 0.5000001788139343
vt 0.7497501373291016 0.7496045231819153
vt 0.4999999403953552 0.7496772706508636
vt 0.49999991059303284 0.0006450414657592773
vt 0.7497501373291016 0.0005723237991333008
vt 0.7497501373291016 0.2502497434616089
vt 0.9995003938674927 0.0004995465278625488
vt 0.5624374747276306 0.18788492679595947
vt 0.8746252655982971 0.6247294545173645
vt 0.9995003938674927 0.9992091655731201
vt 0.4999999701976776 0.9993546605110168
vt 0.2502497434616089 0.9994274079799652
vt 0.9995005130767822 0.9992095232009888
vt 0.9995005130767822 0.0004998445510864258
vt 0.1253746598958969 0.3752706050872803
vt 0.8010625243186951 0.31601524353027344
vt 0.8010624647140503 0.342415452003479
vt 1.0508126020431519 0.342415452003479
vt 0.5 0.0006453394889831543
vt 0.5513124465942383 -0.018585681915283203
vt 0.3015623092651367 -0.018585801124572754
vt 0.5513123869895935 -0.05760931968688965
vt 0.31268736720085144 0.4376354217529297
vt 0.8010625243186951 0.17296558618545532
vt 0.5513124465942383 0.2368152141571045
vt 0.8010625243186951 0.23681557178497314
vt 1.0508126020431519 0.2368159294128418
vt 0.5513124465942383 0.10911524295806885
vt 0.4264373779296875 0.20489007234573364
vt 0.6137499809265137 0.18892782926559448
vt 0.0004996061325073242 0.9995005130767822
vt 0.25024983286857605 0.7497503459453583
vt 0.3015623092651367 0.04526489973068237
vt 0.05181223154067993 0.23681455850601196
vt 0.3015623390674591 0.1729649305343628
vt 0.3015623092651367 0.17296409606933594
vt 0.5513123273849487 0.23681461811065674
vt 0.30156224966049194 0.23681426048278809
vt 0.051812201738357544 0.23681390285491943
vt 0.05181184411048889 0.342415452003479
vt 0.8010625243186951 0.045264363288879395
vt 0.8010625243186951 -0.018585562705993652
vt 1.0508126020431519 -0.0185854434967041
vt 0.8010624647140503 -0.038097381591796875
vt 0.8010625243186951 0.28961533308029175
vt 0.3015623688697815 -0.038192152976989746
vt 0.5513123869895935 -0.018585205078125
vt 0.5513125658035278 -0.05779886245727539
vt 0.5513124465942383 -0.07721614837646484
vt 0.8010625839233398 -0.07731103897094727
vt 0.05181223154067993 -0.09663271903991699
vt 0.051812201738357544 -0.0185854434967041
vt 0.30156227946281433 -0.07712125778198242
vt 0.3015623390674591 0.2632148265838623
vt 0.3015623390674591 0.23681485652923584
vt 0.5513124465942383 0.10911422967910767
vt 0.051812201738357544 -0.018585920333862305
vt 0.051812171936035156 -0.0966331958770752
vt 0.8010625839233398 -0.038191914558410645
vt 0.3015623092651367 0.04526412487030029
vt 1.0508126020431519 -0.0185849666595459
vt 1.0508129596710205 -0.09701216220855713
vt 0.5513124465942383 0.28961503505706787
vt 0.5000000596046448 0.9993550181388855
vt 0.7497502565383911 0.9992822706699371
vt 0.6248751878738403 0.8744799345731735
vt 0.8010627627372742 -0.09691739082336426
vt 0.8010627627372742 -0.07740545272827148
vt 1.050812840461731 -0.09701263904571533
vt 0.5513125658035278 -0.09682250022888184
vt 0.2502496838569641 0.0007177591323852539
vt 0.18781211972236633 0.06315529346466064
vt 0.5513123273849487 0.342415452003479
vt 0.8010624647140503 0.17296481132507324
vt 1.0508124828338623 0.23681533336639404
vt 1.0508124828338623 0.342415452003479
vt 0.8010623455047607 0.342415452003479
vt 0.8010624051094055 0.2368149757385254
vt 0.3015623092651367 -0.01858532428741455
vt 0.8010625243186951 0.045265138149261475
vt 0.8010624647140503 -0.01858508586883545
vt 0.6248750686645508 0.8744795918464661
vt 0.43756240606307983 0.812114804983139
vt 0.8121878504753113 0.9368447288870811
vt 0.4375625252723694 0.8121151328086853
vt 0.7497501373291016 0.8744432181119919
vt 0.4264373779296875 -0.08697211742401123
vt 0.6137499809265137 -0.08214163780212402
vt 0.30156227946281433 0.28961503505706787
vt 0.3015623986721039 -0.09672760963439941
vt 0.3015623986721039 -0.07721579074859619
vt 0.6137497425079346 0.2632150650024414
vt 0.3015620708465576 0.28961503505706787
vt 0.23912449181079865 0.316015362739563
vt 0.4264371395111084 0.2896152138710022
vt 0.5513122081756592 0.2896153926849365
vt 0.5513121485710144 0.342415452003479
vt 0.30156201124191284 0.342415452003479
vt 0.23912480473518372 0.2208523154258728
vt 0.5513125061988831 -0.09682297706604004
vt 0.8010627031326294 -0.09691786766052246
vt 0.3015623092651367 -0.03809762001037598
vt 0.7497501969337463 0.9992819130420685
vt 0.5513124465942383 -0.08701956272125244
vt 0.05181199312210083 0.342415452003479
vt 0.3015621602535248 0.342415452003479
vt 0.23912477493286133 -0.09180259704589844
vt 0.3015623390674591 -0.09672808647155762
vt 0.3015623092651367 -0.08692467212677002
vt 0.25024983286857605 0.9994277656078339
vt 0.7497502565383911 0.0005725622177124023
vt 0.8121877312660217 0.9368443787097931
vt 0.8010623455047607 0.2896153926849365
vt 0.8010623455047607 0.2632153630256653
vt 0.30156201124191284 0.31601542234420776
vt -0.0826425850391388 1.5031717419624329
vt -0.09461527317762375 1.133368968963623
vt -0.08264505118131638 1.3182703852653503
vt -0.07066988945007324 1.8729745149612427
vt -0.09461033344268799 1.5031716227531433
vt -0.08265157043933868 0.7635663151741028
vt -0.0946173295378685 1.133368968963623
vt -0.0826495885848999 0.9484676718711853
vt -0.07068580389022827 0.3937636613845825
vt -0.09462128579616547 0.7635663151741028
vt -0.08863633871078491 0.7635663747787476
vt -0.09462021291255951 0.7635663151741028
vt -0.09462515264749527 0.3937636613845825
vt -0.0766587033867836 1.5031718015670776
vt -0.07067900896072388 1.1333692073822021
vt -0.08264751732349396 1.1333690881729126
vt 0.049702320247888565 1.5005946159362793
vt -0.06329882144927979 1.5005946159362793
vt -0.00679837167263031 1.130791962146759
vt -0.09460941702127457 1.8729742765426636
vt -0.07066839933395386 1.8729742765426636
vt -0.07067710161209106 1.133368968963623
vt -0.08863262832164764 1.0409183502197266
vt -0.08264760673046112 1.133368968963623
vt -0.08863148093223572 1.2258196473121643
vt -0.09461337327957153 1.5031716227531433
vt 0.049702078104019165 0.7609892785549164
vt 0.10620264708995819 0.7609892785549164
vt 0.10620276629924774 1.130791962146759
vt 0.10620252788066864 0.39118659496307373
vt -0.11979939788579941 1.5005946159362793
vt -0.11979951709508896 1.130791962146759
vt -0.11979927867650986 1.8703973293304443
vt -0.09460539370775223 1.8729742765426636
vt 0.10620288550853729 1.5005946159362793
vt 0.10620301216840744 1.8703973293304443
vt -0.09462524205446243 0.3937636613845825
vt -0.06329905986785889 0.7609892785549164
vt -0.11979963630437851 0.7609892785549164
vt -0.11979975551366806 0.39118659496307373
vt -0.07068812847137451 0.3937638998031616
vt 42.897003173828125 30.49827003479004
vt 42.81316375732422 30.089935302734375
vt 42.98534393310547 30.089935302734375
vt 42.81766128540039 29.27326202392578
vt 42.56163787841797 28.864925384521484
vt 43.250370025634766 28.864925384521484
vt 42.546104431152344 30.49827003479004
vt 42.63771057128906 30.089935302734375
vt 42.72932052612305 29.681598663330078
vt 43.07368469238281 29.681598663330078
vt 42.645477294921875 29.27326202392578
vt 42.553871154785156 29.681598663330078
vt 42.54998779296875 30.089935302734375
vt 43.160789489746094 30.089935302734375
vt 43.24789810180664 30.49827003479004
vt 43.2491340637207 29.681598663330078
vt 43.24851608276367 30.089935302734375
vt 43.162025451660156 29.27326202392578
vt 43.249752044677734 29.27326202392578
vt 42.55775451660156 29.27326202392578
vt 0.7245772480964661 2.998722553253174
vt 0.7543208599090576 2.2489867210388184
vt 0.8170322179794312 2.2488760948181152
vt 0.7840644121170044 1.4992507696151733
vt 0.7213529944419861 1.499361276626587
vt 0.99506014585495 0.7496253848075867
vt 0.9906197786331177 1.4992507696151733
vt 0.9247502684593201 1.4992507696151733
vt 1 1.4999980926513672
vt 1 2.249245524406433
vt 0.925000011920929 1.4999979734420776
vt 1 0.0015032291412353516
vt 1 0.7507506608963013
vt 0.8500000238418579 0.00150299072265625
vt 0.8679999709129333 2.99849271774292
vt 0.8589999675750732 1.499997854232788
vt 0.8022575974464417 2.99849271774292
vt 0.8413903117179871 0
vt 0.8456951379776001 1.4992507696151733
vt 0.6436668634414673 0.7507479190826416
vt 0.6973474025726318 0.7507487535476685
vt 0.652056097984314 1.4999961853027344
vt 0.6352775692939758 0.0014996528625488281
vt 0.7229651212692261 2.2490419149398804
vt 0.8040958642959595 1.3126859664916992
vt 0.7594172954559326 1.499997854232788
vt 0.8047086596488953 0.7507504224777222
vt 0.8034831285476685 1.8746215105056763
vt 0.7808374166488647 2.249245285987854
vt 0.6688345670700073 2.99849271774292
vt 0.8261288404464722 1.499997854232788
vt 0.827689528465271 1.4992507696151733
vt 0.8388447761535645 2.2488760948181152
vt 0.8500000238418579 2.9985015392303467
vt 0.7947217226028442 0.7496253848075867
vt 0.8112056255340576 1.1244380474090576
vt 0.7181287407875061 0
vt 0.8053790330886841 0
vt 0.8141189217567444 1.6866570711135864
vt 0.9203099012374878 2.2488760948181152
vt 0.9861793518066406 2.2488760948181152
vt 0.8165342807769775 0.7496253848075867
vt 0.71412593126297 2.249245285987854
vt 0.7510966062545776 0.7496253848075867
vt 0.925000011920929 0.7507505416870117
vt 0.8345398902893066 0.7496253848075867
vt 0.8267415761947632 0.9380622506141663
vt 0.8028703927993774 2.4365570545196533
vt 0.8270479440689087 0.6570944786071777
vt 0.8082923293113708 0.5622190237045288
vt 0.9621254205703735 0.7496253848075867
vt 0.9995005130767822 0
vt 0.8873751163482666 2.2488760948181152
vt 1 2.998492956161499
vt 0.9624999761581421 2.2492454051971436
vt 0.847847580909729 2.2488760948181152
vt 0.9817389845848083 2.9985015392303467
g DW010
s 1
f 1/1/1 2/2/2 3/3/3
f 4/4/4 5/5/5 6/6/6
f 4/4/4 6/6/6 7/7/7
f 8/8/8 9/9/9 10/10/10
f 11/11/11 12/12/12 13/13/13
f 8/8/8 10/10/10 14/14/14
f 15/15/15 16/16/16 13/13/13
f 13/13/13 16/16/16 11/11/11
f 17/17/17 18/18/18 19/19/19
f 20/20/20 14/14/14 10/10/10
f 21/21/21 22/22/22 19/19/19
f 19/19/19 22/22/22 17/17/17
f 23/23/23 24/24/24 25/25/25
f 23/23/23 25/25/25 26/26/26
f 27/27/27 26/26/26 25/25/25
f 27/27/27 25/25/25 24/24/24
f 28/28/28 26/26/26 27/27/27
f 24/24/24 29/29/29 27/27/27
f 27/27/27 29/29/29 28/28/28
f 28/28/28 30/30/30 31/31/31
f 32/32/32 33/33/33 31/31/31
f 31/31/31 33/33/33 28/28/28
f 34/34/34 5/5/5 4/4/4
f 7/7/7 35/35/35 4/4/4
f 4/4/4 35/35/35 34/34/34
f 34/34/34 12/12/12 36/36/36
f 37/37/37 38/38/38 36/36/36
f 36/36/36 38/38/38 34/34/34
f 39/39/39 40/40/40 41/41/41
f 20/20/20 42/42/42 43/43/43
f 16/16/16 44/44/44 45/45/45
f 16/16/16 45/45/45 46/46/46
f 19/19/19 18/18/18 47/47/47
f 19/19/19 47/47/47 21/21/21
f 11/11/11 16/16/16 48/48/48
f 11/11/11 48/48/48 49/49/49
f 48/48/48 46/46/46 49/49/49
f 16/16/16 46/46/46 48/48/48
f 50/50/50 51/51/51 52/52/52
f 50/50/50 52/52/52 40/40/40
f 41/41/41 40/40/40 52/52/52
f 53/53/53 14/14/14 54/54/54
f 55/55/55 23/23/23 26/26/26
f 53/53/53 54/54/54 56/56/56
f 56/56/56 24/24/24 23/23/23
f 43/43/43 56/56/56 54/54/54
f 55/55/55 8/8/8 14/14/14
f 57/57/57 50/50/50 58/58/58
f 59/59/59 9/9/9 8/8/8
f 57/57/57 58/58/58 60/60/60
f 60/60/60 58/58/58 61/61/61
f 62/62/62 51/51/51 50/50/50
f 57/57/57 63/63/63 5/5/5
f 3/3/3 7/7/7 63/63/63
f 11/11/11 64/64/64 12/12/12
f 65/65/65 37/37/37 64/64/64
f 17/17/17 66/66/66 18/18/18
f 67/67/67 68/68/68 66/66/66
f 17/17/17 22/22/22 30/30/30
f 21/21/21 32/32/32 22/22/22
f 15/15/15 44/44/44 16/16/16
f 28/28/28 29/29/29 30/30/30
f 24/24/24 67/67/67 29/29/29
f 49/49/49 46/46/46 69/69/69
f 70/70/70 49/49/49 71/71/71
f 70/70/70 71/71/71 65/65/65
f 28/28/28 33/33/33 26/26/26
f 71/71/71 69/69/69 65/65/65
f 32/32/32 59/59/59 33/33/33
f 49/49/49 69/69/69 71/71/71
f 72/72/72 10/10/10 9/9/9
f 20/20/20 10/10/10 72/72/72
f 9/9/9 73/73/73 72/72/72
f 34/34/34 35/35/35 12/12/12
f 7/7/7 15/15/15 35/35/35
f 34/34/34 38/38/38 5/5/5
f 37/37/37 62/62/62 38/38/38
f 41/41/41 74/74/74 75/75/75
f 76/76/76 66/66/66 17/17/17
f 72/72/72 73/73/73 77/77/77
f 72/72/72 77/77/77 20/20/20
f 20/20/20 77/77/77 42/42/42
f 77/77/77 73/73/73 42/42/42
f 78/78/78 54/54/54 14/14/14
f 43/43/43 54/54/54 78/78/78
f 43/43/43 78/78/78 20/20/20
f 78/78/78 14/14/14 20/20/20
f 61/61/61 40/40/40 2/2/2
f 39/39/39 3/3/3 2/2/2
f 39/39/39 2/2/2 40/40/40
f 79/79/79 40/40/40 61/61/61
f 50/50/50 40/40/40 79/79/79
f 58/58/58 50/50/50 79/79/79
f 58/58/58 79/79/79 61/61/61
f 60/60/60 61/61/61 1/1/1
f 60/60/60 1/1/1 3/3/3
f 63/63/63 6/6/6 5/5/5
f 41/41/41 75/75/75 39/39/39
f 38/38/38 62/62/62 80/80/80
f 38/38/38 80/80/80 5/5/5
f 81/81/81 5/5/5 80/80/80
f 81/81/81 80/80/80 62/62/62
f 35/35/35 15/15/15 82/82/82
f 35/35/35 82/82/82 12/12/12
f 13/13/13 12/12/12 82/82/82
f 13/13/13 82/82/82 15/15/15
f 33/33/33 59/59/59 83/83/83
f 33/33/33 83/83/83 26/26/26
f 84/84/84 26/26/26 83/83/83
f 84/84/84 83/83/83 59/59/59
f 29/29/29 67/67/67 85/85/85
f 29/29/29 85/85/85 30/30/30
f 76/76/76 30/30/30 85/85/85
f 76/76/76 85/85/85 67/67/67
f 66/66/66 68/68/68 86/86/86
f 57/57/57 5/5/5 81/81/81
f 66/66/66 86/86/86 18/18/18
f 62/62/62 50/50/50 81/81/81
f 81/81/81 50/50/50 57/57/57
f 55/55/55 14/14/14 53/53/53
f 56/56/56 23/23/23 53/53/53
f 53/53/53 23/23/23 55/55/55
f 55/55/55 26/26/26 84/84/84
f 22/22/22 32/32/32 87/87/87
f 59/59/59 8/8/8 84/84/84
f 84/84/84 8/8/8 55/55/55
f 22/22/22 87/87/87 30/30/30
f 31/31/31 30/30/30 87/87/87
f 31/31/31 87/87/87 32/32/32
f 64/64/64 37/37/37 88/88/88
f 64/64/64 88/88/88 12/12/12
f 36/36/36 12/12/12 88/88/88
f 3/3/3 63/63/63 60/60/60
f 60/60/60 63/63/63 57/57/57
f 11/11/11 49/49/49 70/70/70
f 36/36/36 88/88/88 37/37/37
f 65/65/65 64/64/64 70/70/70
f 70/70/70 64/64/64 11/11/11
f 17/17/17 30/30/30 76/76/76
f 63/63/63 7/7/7 6/6/6
f 67/67/67 66/66/66 76/76/76
f 51/51/51 74/74/74 89/89/89
f 89/89/89 74/74/74 41/41/41
f 41/41/41 52/52/52 89/89/89
f 89/89/89 52/52/52 51/51/51
f 61/61/61 2/2/2 1/1/1
g DW011
s 1
f 90/90/90 91/91/91 92/92/92
f 93/93/93 94/94/94 95/95/95
f 94/94/94 96/96/96 95/95/95
f 95/95/95 96/96/96 97/97/97
f 98/98/98 99/99/99 100/100/100
f 93/93/93 101/101/101 102/102/102
f 102/102/102 94/94/94 93/93/93
f 98/98/98 103/103/103 99/99/99
f 104/104/104 103/103/103 98/98/98
f 105/105/105 106/106/106 102/102/102
f 106/106/106 94/94/94 102/102/102
f 107/107/107 108/108/108 109/109/109
f 108/108/108 110/110/110 109/109/109
f 101/101/101 111/111/111 102/102/102
f 105/105/105 112/112/112 113/113/113
f 105/105/105 109/109/109 112/112/112
f 109/109/109 110/110/110 112/112/112
f 112/112/112 110/110/110 113/113/113
f 111/111/111 109/109/109 102/102/102
f 111/111/111 107/107/107 109/109/109
f 102/102/102 109/109/109 105/105/105
f 101/101/101 107/107/107 111/111/111
f 114/114/114 115/115/115 94/94/94
f 115/115/115 96/96/96 94/94/94
f 99/99/99 116/116/116 117/117/117
f 100/100/100 99/99/99 117/117/117
f 92/92/92 91/91/91 118/118/118
f 119/119/119 120/120/120 121/121/121
f 122/122/122 92/92/92 104/104/104
f 123/123/123 124/124/124 125/125/125
f 126/126/126 92/92/92 118/118/118
f 127/127/127 128/128/128 129/129/129
f 127/127/127 129/129/129 130/130/130
f 121/121/121 130/130/130 129/129/129
f 131/131/131 132/132/132 133/133/133
f 131/131/131 133/133/133 127/127/127
f 118/118/118 91/91/91 134/134/134
f 135/135/135 118/118/118 134/134/134
f 127/127/127 133/133/133 128/128/128
f 126/126/126 118/118/118 135/135/135
f 104/104/104 126/126/126 135/135/135
f 136/136/136 137/137/137 138/138/138
f 133/133/133 132/132/132 128/128/128
f 139/139/139 140/140/140 141/141/141
f 139/139/139 141/141/141 142/142/142
f 143/143/143 142/142/142 141/141/141
f 144/144/144 123/123/123 145/145/145
f 144/144/144 145/145/145 146/146/146
f 146/146/146 145/145/145 147/147/147
f 145/145/145 123/123/123 147/147/147
f 136/136/136 138/138/138 131/131/131
f 131/131/131 138/138/138 132/132/132
f 121/121/121 148/148/148 119/119/119
f 149/149/149 150/150/150 151/151/151
f 152/152/152 153/153/153 125/125/125
f 149/149/149 154/154/154 155/155/155
f 156/156/156 152/152/152 125/125/125
f 157/157/157 158/158/158 137/137/137
f 159/159/159 140/140/140 139/139/139
f 156/156/156 160/160/160 161/161/161
f 150/150/150 162/162/162 151/151/151
f 139/139/139 163/163/163 159/159/159
f 162/162/162 164/164/164 165/165/165
f 166/166/166 158/158/158 157/157/157
f 167/167/167 168/168/168 169/169/169
f 165/165/165 170/170/170 171/171/171
f 153/153/153 172/172/172 146/146/146
f 170/170/170 173/173/173 171/171/171
f 174/174/174 107/107/107 101/101/101
f 97/97/97 175/175/175 93/93/93
f 175/175/175 101/101/101 93/93/93
f 175/175/175 174/174/174 101/101/101
f 97/97/97 174/174/174 175/175/175
f 163/163/163 124/124/124 123/123/123
f 163/163/163 160/160/160 124/124/124
f 142/142/142 163/163/163 139/139/139
f 166/166/166 176/176/176 120/120/120
f 144/144/144 177/177/177 159/159/159
f 171/171/171 173/173/173 151/151/151
f 151/151/151 162/162/162 171/171/171
f 178/178/178 179/179/179 180/180/180
f 177/177/177 181/181/181 140/140/140
f 177/177/177 178/178/178 181/181/181
f 146/146/146 177/177/177 144/144/144
f 182/182/182 150/150/150 149/149/149
f 183/183/183 184/184/184 150/150/150
f 155/155/155 182/182/182 149/149/149
f 136/136/136 182/182/182 155/155/155
f 136/136/136 150/150/150 182/182/182
f 159/159/159 123/123/123 144/144/144
f 171/171/171 162/162/162 165/165/165
f 185/185/185 186/186/186 106/106/106
f 186/186/186 94/94/94 106/106/106
f 166/166/166 120/120/120 119/119/119
f 169/169/169 187/187/187 103/103/103
f 183/183/183 164/164/164 184/184/184
f 147/147/147 123/123/123 125/125/125
f 125/125/125 153/153/153 147/147/147
f 93/93/93 95/95/95 97/97/97
f 104/104/104 98/98/98 100/100/100
f 147/147/147 153/153/153 146/146/146
f 104/104/104 92/92/92 126/126/126
f 135/135/135 188/188/188 104/104/104
f 168/168/168 187/187/187 169/169/169
f 131/131/131 150/150/150 136/136/136
f 113/113/113 189/189/189 105/105/105
f 119/119/119 148/148/148 166/166/166
f 155/155/155 137/137/137 136/136/136
f 190/190/190 191/191/191 152/152/152
f 157/157/157 192/192/192 166/166/166
f 193/193/193 194/194/194 151/151/151
f 137/137/137 192/192/192 157/157/157
f 193/193/193 154/154/154 194/194/194
f 195/195/195 140/140/140 181/181/181
f 143/143/143 196/196/196 197/197/197
f 198/198/198 140/140/140 195/195/195
f 191/191/191 153/153/153 152/152/152
f 132/132/132 158/158/158 128/128/128
f 199/199/199 200/200/200 201/201/201
f 166/166/166 128/128/128 158/158/158
f 138/138/138 137/137/137 202/202/202
f 138/138/138 202/202/202 132/132/132
f 132/132/132 202/202/202 158/158/158
f 202/202/202 137/137/137 158/158/158
f 194/194/194 154/154/154 149/149/149
f 198/198/198 195/195/195 199/199/199
f 151/151/151 194/194/194 149/149/149
f 195/195/195 181/181/181 199/199/199
f 203/203/203 204/204/204 153/153/153
f 204/204/204 172/172/172 153/153/153
f 124/124/124 205/205/205 125/125/125
f 206/206/206 114/114/114 185/185/185
f 191/191/191 207/207/207 153/153/153
f 100/100/100 122/122/122 104/104/104
f 124/124/124 160/160/160 205/205/205
f 190/190/190 207/207/207 191/191/191
f 205/205/205 160/160/160 156/156/156
f 137/137/137 208/208/208 209/209/209
f 125/125/125 205/205/205 156/156/156
f 210/210/210 211/211/211 190/190/190
f 161/161/161 211/211/211 210/210/210
f 161/161/161 210/210/210 212/212/212
f 150/150/150 184/184/184 162/162/162
f 173/173/173 193/193/193 151/151/151
f 213/213/213 167/167/167 135/135/135
f 134/134/134 213/213/213 135/135/135
f 214/214/214 122/122/122 100/100/100
f 210/210/210 190/190/190 212/212/212
f 117/117/117 214/214/214 100/100/100
f 215/215/215 206/206/206 185/185/185
f 113/113/113 206/206/206 215/215/215
f 207/207/207 203/203/203 153/153/153
f 211/211/211 203/203/203 207/207/207
f 190/190/190 211/211/211 207/207/207
f 113/113/113 215/215/215 189/189/189
f 215/215/215 185/185/185 189/189/189
f 196/196/196 141/141/141 140/140/140
f 143/143/143 141/141/141 196/196/196
f 196/196/196 140/140/140 198/198/198
f 216/216/216 180/180/180 200/200/200
f 178/178/178 180/180/180 216/216/216
f 178/178/178 216/216/216 217/217/217
f 216/216/216 200/200/200 217/217/217
f 192/192/192 209/209/209 176/176/176
f 137/137/137 209/209/209 192/192/192
f 192/192/192 176/176/176 166/166/166
f 148/148/148 129/129/129 128/128/128
f 121/121/121 129/129/129 148/148/148
f 148/148/148 128/128/128 166/166/166
f 189/189/189 106/106/106 105/105/105
f 143/143/143 197/197/197 218/218/218
f 217/217/217 181/181/181 178/178/178
f 199/199/199 181/181/181 217/217/217
f 217/217/217 200/200/200 199/199/199
f 218/218/218 201/201/201 143/143/143
f 199/199/199 201/201/201 218/218/218
f 189/189/189 185/185/185 106/106/106
f 218/218/218 198/198/198 199/199/199
f 186/186/186 114/114/114 94/94/94
f 161/161/161 212/212/212 156/156/156
f 159/159/159 163/163/163 123/123/123
f 212/212/212 152/152/152 156/156/156
f 142/142/142 160/160/160 163/163/163
f 212/212/212 190/190/190 152/152/152
f 197/197/197 198/198/198 218/218/218
f 197/197/197 196/196/196 198/198/198
f 130/130/130 164/164/164 127/127/127
f 185/185/185 114/114/114 186/186/186
f 159/159/159 177/177/177 140/140/140
f 184/184/184 164/164/164 162/162/162
f 146/146/146 178/178/178 177/177/177
f 122/122/122 90/90/90 92/92/92
f 103/103/103 116/116/116 99/99/99
f 131/131/131 183/183/183 150/150/150
f 169/169/169 103/103/103 104/104/104
f 127/127/127 164/164/164 183/183/183
f 127/127/127 183/183/183 131/131/131
f 167/167/167 188/188/188 135/135/135
f 167/167/167 169/169/169 188/188/188
f 188/188/188 169/169/169 104/104/104
f 168/168/168 116/116/116 187/187/187
f 187/187/187 116/116/116 103/103/103
g DW012
s 1
f 219/219/219 220/220/220 221/221/221
f 222/222/222 219/219/219 221/221/221
f 222/222/222 223/223/223 219/219/219
f 219/219/219 223/223/223 220/220/220
f 224/224/224 225/225/225 226/226/226
f 227/227/227 224/224/224 226/226/226
f 227/227/227 228/228/228 224/224/224
f 224/224/224 228/228/228 225/225/225
f 229/229/229 230/230/230 231/231/231
f 232/232/232 233/233/233 222/222/222
f 222/222/222 221/221/221 232/232/232
f 232/232/232 221/221/221 234/234/234
f 235/235/235 236/236/236 237/237/237
f 238/238/238 239/239/239 240/240/240
f 234/234/234 233/233/233 232/232/232
f 241/241/241 230/230/230 234/234/234
f 221/221/221 241/241/241 234/234/234
f 221/221/221 220/220/220 241/241/241
f 241/241/241 220/220/220 230/230/230
f 238/238/238 240/240/240 242/242/242
f 242/242/242 240/240/240 227/227/227
f 227/227/227 226/226/226 242/242/242
f 242/242/242 226/226/226 238/238/238
f 243/243/243 244/244/244 238/238/238
f 226/226/226 243/243/243 238/238/238
f 226/226/226 225/225/225 243/243/243
f 243/243/243 225/225/225 244/244/244
f 231/231/231 233/233/233 229/229/229
f 245/245/245 246/246/246 247/247/247
f 229/229/229 233/233/233 234/234/234
f 234/234/234 230/230/230 229/229/229
f 245/245/245 248/248/248 246/246/246
f 236/236/236 249/249/249 250/250/250
f 236/236/236 251/251/251 249/249/249
f 222/222/222 252/252/252 223/223/223
f 235/235/235 253/253/253 254/254/254
f 235/235/235 247/247/247 253/253/253
f 227/227/227 255/255/255 228/228/228
f 256/256/256 257/257/257 258/258/258
f 256/256/256 250/250/250 257/257/257
f 254/254/254 236/236/236 235/235/235
f 237/237/237 245/245/245 247/247/247
f 258/258/258 248/248/248 245/245/245
f 237/237/237 236/236/236 250/250/250
f 254/254/254 251/251/251 236/236/236
f 237/237/237 250/250/250 256/256/256
f 258/258/258 245/245/245 256/256/256
f 256/256/256 245/245/245 237/237/237
f 237/237/237 247/247/247 235/235/235
f 231/231/231 259/259/259 233/233/233
g DW013
s 1
f 260/260/260 261/261/261 262/262/262
f 263/263/263 264/264/264 265/265/265
f 266/266/266 267/267/267 260/260/260
f 268/268/268 263/263/263 269/269/269
f 270/270/270 264/264/264 263/263/263
f 261/261/261 268/268/268 262/262/262
f 267/267/267 271/271/271 268/268/268
f 267/267/267 268/268/268 261/261/261
f 266/266/266 272/272/272 267/267/267
f 272/272/272 271/271/271 267/267/267
f 262/262/262 273/273/273 274/274/274
f 262/262/262 269/269/269 273/273/273
f 260/260/260 262/262/262 274/274/274
f 262/262/262 268/268/268 269/269/269
f 269/269/269 275/275/275 273/273/273
f 271/271/271 270/270/270 268/268/268
f 267/267/267 261/261/261 260/260/260
f 273/273/273 276/276/276 274/274/274
f 273/273/273 275/275/275 276/276/276
f 277/277/277 278/278/278 275/275/275
f 277/277/277 265/265/265 278/278/278
f 279/279/279 264/264/264 270/270/270
f 271/271/271 279/279/279 270/270/270
f 277/277/277 263/263/263 265/265/265
f 269/269/269 263/263/263 277/277/277
f 269/269/269 277/277/277 275/275/275
f 268/268/268 270/270/270 263/263/263
g DW014
s 1
f 280/280/280 281/281/281 282/282/282
f 281/281/281 283/283/283 282/282/282
f 281/281/281 284/284/284 283/283/283
f 285/285/285 286/286/286 287/287/287
f 288/288/288 289/289/289 290/290/290
f 291/291/291 292/292/292 293/293/293
f 290/290/290 294/294/294 295/295/295
f 290/290/290 295/295/295 293/293/293
f 294/294/294 296/296/296 295/295/295
f 297/297/297 287/287/287 298/298/298
f 299/299/299 300/300/300 301/301/301
f 302/302/302 300/300/300 299/299/299
f 280/280/280 303/303/303 281/281/281
f 303/303/303 284/284/284 281/281/281
f 304/304/304 305/305/305 306/306/306
f 307/307/307 305/305/305 304/304/304
f 308/308/308 305/305/305 307/307/307
f 296/296/296 309/309/309 308/308/308
f 295/295/295 296/296/296 310/310/310
f 295/295/295 310/310/310 293/293/293
f 282/282/282 311/311/311 312/312/312
f 282/282/282 312/312/312 313/313/313
f 311/311/311 298/298/298 312/312/312
f 283/283/283 314/314/314 315/315/315
f 316/316/316 317/317/317 314/314/314
f 283/283/283 315/315/315 318/318/318
f 283/283/283 318/318/318 282/282/282
f 282/282/282 318/318/318 311/311/311
f 318/318/318 315/315/315 311/311/311
f 319/319/319 320/320/320 313/313/313
f 286/286/286 320/320/320 319/319/319
f 287/287/287 286/286/286 319/319/319
f 315/315/315 321/321/321 311/311/311
f 317/317/317 297/297/297 321/321/321
f 308/308/308 309/309/309 322/322/322
f 308/308/308 322/322/322 305/305/305
f 301/301/301 305/305/305 322/322/322
f 301/301/301 322/322/322 309/309/309
f 323/323/323 314/314/314 283/283/283
f 316/316/316 314/314/314 323/323/323
f 284/284/284 316/316/316 323/323/323
f 284/284/284 323/323/323 283/283/283
f 292/292/292 288/288/288 324/324/324
f 292/292/292 324/324/324 293/293/293
f 324/324/324 290/290/290 293/293/293
f 288/288/288 290/290/290 324/324/324
f 321/321/321 297/297/297 325/325/325
f 321/321/321 325/325/325 311/311/311
f 311/311/311 325/325/325 298/298/298
f 325/325/325 297/297/297 298/298/298
f 310/310/310 307/307/307 326/326/326
f 310/310/310 326/326/326 293/293/293
f 307/307/307 304/304/304 326/326/326
f 327/327/327 308/308/308 307/307/307
f 296/296/296 308/308/308 327/327/327
f 296/296/296 327/327/327 310/310/310
f 327/327/327 307/307/307 310/310/310
f 328/328/328 306/306/306 293/293/293
f 304/304/304 306/306/306 328/328/328
f 326/326/326 304/304/304 328/328/328
f 326/326/326 328/328/328 293/293/293
f 314/314/314 317/317/317 329/329/329
f 314/314/314 329/329/329 315/315/315
f 315/315/315 329/329/329 321/321/321
f 329/329/329 317/317/317 321/321/321
f 330/330/330 285/285/285 287/287/287
f 331/331/331 285/285/285 330/330/330
f 297/297/297 331/331/331 330/330/330
f 297/297/297 330/330/330 287/287/287
f 332/332/332 319/319/319 313/313/313
f 287/287/287 319/319/319 332/332/332
f 298/298/298 287/287/287 332/332/332
f 289/289/289 333/333/333 334/334/334
f 289/289/289 334/334/334 290/290/290
f 334/334/334 294/294/294 290/290/290
f 333/333/333 294/294/294 334/334/334
f 312/312/312 298/298/298 335/335/335
f 312/312/312 335/335/335 313/313/313
f 335/335/335 332/332/332 313/313/313
f 298/298/298 332/332/332 335/335/335
f 300/300/300 306/306/306 305/305/305
f 302/302/302 293/293/293 306/306/306
f 280/280/280 282/282/282 313/313/313
f 320/320/320 336/336/336 313/313/313
f 302/302/302 306/306/306 300/300/300
f 300/300/300 305/305/305 301/301/301
