# Exported using wow.export v0.2.19
o 21138_Taventrance16.obj
v -145.69216918945312 7.691666603088379 -292.9613342285156
v -147.83140563964844 7.691667556762695 -292.9613342285156
v -147.82269287109375 6.999604225158691 -292.96136474609375
v -149.97064208984375 7.69166898727417 -292.9613342285156
v -149.9706268310547 1.7448749542236328 -292.96136474609375
v -149.92466735839844 4.026209831237793 -289.4879455566406
v -149.91595458984375 1.7448773384094238 -289.4879455566406
v -149.86129760742188 1.7448798418045044 -286.0145263671875
v -149.88864135742188 6.204972267150879 -287.751220703125
v -149.9159698486328 4.7182745933532715 -289.4879150390625
v -149.9159698486328 7.691669464111328 -289.4879150390625
v -149.988037109375 6.307539463043213 -292.96136474609375
v -145.6747589111328 6.307539463043213 -292.96136474609375
v -149.86129760742188 7.691669940948486 -286.0145263671875
v -149.86129760742188 4.71827507019043 -286.0145263671875
v -149.88864135742188 3.231577157974243 -287.751220703125
v -147.83139038085938 6.307539463043213 -292.96136474609375
v -149.94329833984375 6.204971790313721 -291.224609375
v -149.97064208984375 7.69166898727417 -292.9613342285156
v -149.988037109375 6.307539463043213 -292.96136474609375
v -149.97933959960938 4.026206970214844 -292.96136474609375
v -145.7606658935547 1.7448782920837402 -289.4879455566406
v -145.72640991210938 3.231574058532715 -291.22467041015625
v -145.69216918945312 1.7448749542236328 -292.96136474609375
v -145.7606658935547 4.718273162841797 -289.4879455566406
v -145.6747589111328 6.307539463043213 -292.96136474609375
v -145.751953125 6.999605178833008 -289.4879455566406
v -145.69216918945312 7.691666603088379 -292.9613342285156
v -145.794921875 6.204972267150879 -287.751220703125
v -145.6834716796875 4.026206970214844 -292.96136474609375
v -145.794921875 3.2315773963928223 -287.751220703125
v -145.82916259765625 1.744881510734558 -286.0145263671875
v -145.82916259765625 4.718276023864746 -286.0145263671875
v -145.7606658935547 7.691668510437012 -289.4879150390625
v -145.82916259765625 7.691670894622803 -286.0145263671875
v -145.82916259765625 1.744881510734558 -286.0145263671875
v -145.7606658935547 1.7448782920837402 -289.4879455566406
v -147.7767333984375 1.7448773384094238 -289.4879455566406
v -145.69216918945312 1.7448749542236328 -292.96136474609375
v -149.86129760742188 1.7448798418045044 -286.0145263671875
v -149.91595458984375 1.7448773384094238 -289.4879455566406
v -149.9706268310547 1.7448749542236328 -292.96136474609375
v -147.83139038085938 1.7448749542236328 -292.96136474609375
v -149.5791015625 2.4860620498657227 -286.17742919921875
v -149.6983642578125 2.4860620498657227 -286.2967224121094
v -149.5791015625 7.39539098739624 -286.17742919921875
v -149.6983642578125 7.39539098739624 -286.2967224121094
v -149.86129760742188 2.4860620498657227 -286.34039306640625
v -149.86129760742188 7.39539098739624 -286.34039306640625
v -149.5354461669922 7.39539098739624 -286.0145263671875
v -149.5354461669922 2.4860620498657227 -286.0145263671875
v -149.63319396972656 2.2655301094055176 -286.4095764160156
v -149.86129760742188 2.2655301094055176 -286.4707336425781
v -149.6983642578125 2.4860620498657227 -286.2967224121094
v -149.86129760742188 2.4860620498657227 -286.34039306640625
v -149.46621704101562 2.2655301094055176 -286.24261474609375
v -149.63319396972656 2.2655301094055176 -286.4095764160156
v -149.5791015625 2.4860620498657227 -286.17742919921875
v -149.4051055908203 2.2655301094055176 -286.0145263671875
v -149.5354461669922 2.4860620498657227 -286.0145263671875
v -149.63319396972656 1.744876742362976 -286.4095764160156
v -149.86129760742188 1.744876742362976 -286.4707336425781
v -149.46621704101562 1.744876742362976 -286.24261474609375
v -149.63319396972656 1.744876742362976 -286.4095764160156
v -149.4051055908203 1.744876742362976 -286.0145263671875
v -149.86129760742188 7.567328453063965 -286.451171875
v -149.64297485351562 7.567328453063965 -286.3926696777344
v -149.86129760742188 7.39539098739624 -286.34039306640625
v -149.6983642578125 7.39539098739624 -286.2967224121094
v -149.483154296875 7.567328453063965 -286.2328186035156
v -149.6983642578125 7.39539098739624 -286.2967224121094
v -149.5791015625 7.39539098739624 -286.17742919921875
v -149.4246368408203 7.567328453063965 -286.0145263671875
v -149.5354461669922 7.39539098739624 -286.0145263671875
v -149.86129760742188 7.69166898727417 -286.451171875
v -149.64297485351562 7.69166898727417 -286.3926696777344
v -149.483154296875 7.69166898727417 -286.2328186035156
v -149.4246368408203 7.69166898727417 -286.0145263671875
v -147.7767333984375 7.691668510437012 -289.4879150390625
v -145.82916259765625 7.691670894622803 -286.0145263671875
v -149.86129760742188 7.691669940948486 -286.0145263671875
v -145.7606658935547 7.691668510437012 -289.4879150390625
v -149.9159698486328 7.691669464111328 -289.4879150390625
v -149.97064208984375 7.69166898727417 -292.9613342285156
v -145.69216918945312 7.691666603088379 -292.9613342285156
v -147.83140563964844 7.691667556762695 -292.9613342285156
vn -0.578568696975708 -0.5860067009925842 0.5673221945762634
vn 0.0010810004314407706 -0.7155880331993103 0.6985216736793518
vn -0.16853104531764984 -0.7031884789466858 0.6907410025596619
vn 0.5803307294845581 -0.5804029703140259 0.5712693333625793
vn 0.7057560086250305 0.708454966545105 0
vn 0.9508700370788574 0.1888585388660431 0.24531340599060059
vn 0.705723226070404 0.7084659337997437 -0.005553427617996931
vn 0.7056686282157898 0.708454966545105 -0.011106682941317558
vn 0.912257969379425 -0.3469882309436798 0.21767973899841309
vn 0.9130041599273682 0.09091140329837799 0.39769136905670166
vn 0.6758036017417908 -0.6758874654769897 0.2940506339073181
vn 0.8196643590927124 -0.40549859404563904 0.4046248197555542
vn -0.8179352879524231 -0.41099175810813904 0.4025762677192688
vn 0.7070192694664001 -0.7071067094802856 -0.011127150617539883
vn 0.9998757243156433 0.0009542726911604404 -0.015736715868115425
vn 0.8767487406730652 0.4329741299152374 0.20939230918884277
vn 0.0015059715369716287 -0.7111397981643677 0.7030491232872009
vn 0.8088598251342773 -0.26513147354125977 0.5248343348503113
vn 0.5803307294845581 -0.5804029703140259 0.5712693333625793
vn 0.8196643590927124 -0.40549859404563904 0.4046248197555542
vn 0.9492418169975281 0.18852432072162628 0.2517907917499542
vn -0.7063801884651184 0.7077983021736145 -0.006968510802835226
vn -0.9239165782928467 0.38255688548088074 -0.005326088983565569
vn -0.7057560086250305 0.708454966545105 0
vn -0.9999492168426514 -0.0021907093469053507 -0.009832855314016342
vn -0.8179352879524231 -0.41099175810813904 0.4025762677192688
vn -0.7880024313926697 -0.5817760229110718 0.20146667957305908
vn -0.578568696975708 -0.5860067009925842 0.5673221945762634
vn -0.9221577644348145 -0.3866012990474701 -0.012827013619244099
vn -0.9500483274459839 0.18547353148460388 0.2510133683681488
vn -0.9242070317268372 0.38167503476142883 -0.012869955971837044
vn -0.7069695591926575 0.7071066498756409 -0.013936677947640419
vn -0.9998007416725159 -0.003144914284348488 -0.0197087861597538
vn -0.6722874641418457 -0.6809302568435669 0.2904537618160248
vn -0.7025088667869568 -0.7115402221679688 -0.013847967609763145
vn -0.7069695591926575 0.7071066498756409 -0.013936677947640419
vn -0.7063801884651184 0.7077983021736145 -0.006968510802835226
vn -0.00006166780804051086 0.9999693036079407 -0.007838425226509571
vn -0.7057560086250305 0.708454966545105 0
vn 0.7056686282157898 0.708454966545105 -0.011106682941317558
vn 0.705723226070404 0.7084659337997437 -0.005553427617996931
vn 0.7057560086250305 0.708454966545105 0
vn 0 0.9999999403953552 0
vn 0.8350784778594971 0.26491862535476685 -0.4821431636810303
vn 0.4822005033493042 0.26488980650901794 -0.8350545167922974
vn 0.8304436206817627 -0.28370821475982666 -0.4794507920742035
vn 0.47951313853263855 -0.28370824456214905 -0.8304076194763184
vn 0.2502436339855194 0.25647202134132385 -0.9335952997207642
vn 0.24892109632492065 -0.27477318048477173 -0.928729236125946
vn 0.9589046239852905 -0.2837286591529846 0.000006684916570520727
vn 0.9642757177352905 0.2649005651473999 0.000011558332516869996
vn 0.4821566343307495 0.2649032771587372 -0.8350755572319031
vn 0.25024649500846863 0.25647103786468506 -0.933594822883606
vn 0.4822005033493042 0.26488980650901794 -0.8350545167922974
vn 0.2502436339855194 0.25647202134132385 -0.9335952997207642
vn 0.8350801467895508 0.2649132013320923 -0.48214325308799744
vn 0.4821566343307495 0.2649032771587372 -0.8350755572319031
vn 0.8350784778594971 0.26491862535476685 -0.4821431636810303
vn 0.9642740488052368 0.26490676403045654 -5.232748208072735e-7
vn 0.9642757177352905 0.2649005651473999 0.000011558332516869996
vn 0.5000215768814087 0 -0.8660129308700562
vn 0.25890639424324036 0 -0.9659023880958557
vn 0.8660203814506531 0 -0.5000087022781372
vn 0.5000215768814087 0 -0.8660129308700562
vn 1 0 0
vn 0.24890108406543732 -0.27477318048477173 -0.9287346005439758
vn 0.4794933497905731 -0.28370121121406555 -0.8304214477539062
vn 0.24892109632492065 -0.27477318048477173 -0.928729236125946
vn 0.47951313853263855 -0.28370824456214905 -0.8304076194763184
vn 0.8304364681243896 -0.28370511531829834 -0.47946494817733765
vn 0.47951313853263855 -0.28370824456214905 -0.8304076194763184
vn 0.8304436206817627 -0.28370821475982666 -0.4794507920742035
vn 0.9589060544967651 -0.28372374176979065 -9.92358650364622e-7
vn 0.9589046239852905 -0.2837286591529846 0.000006684916570520727
vn 0.2588650584220886 0 -0.9659134745597839
vn 0.5000389814376831 0 -0.8660028576850891
vn 0.8660202026367188 0 -0.5000089406967163
vn 1 0 -1.542707828150469e-8
vn 0.0908738300204277 -0.9148279428482056 0.39348655939102173
vn -0.7025088667869568 -0.7115402221679688 -0.013847967609763145
vn 0.7070192694664001 -0.7071067094802856 -0.011127150617539883
vn -0.6722874641418457 -0.6809302568435669 0.2904537618160248
vn 0.6758036017417908 -0.6758874654769897 0.2940506339073181
vn 0.5803307294845581 -0.5804029703140259 0.5712693333625793
vn -0.578568696975708 -0.5860067009925842 0.5673221945762634
vn 0.0010810004314407706 -0.7155880331993103 0.6985216736793518
vt 1 0
vt 0.5 0
vt 0.5 0.5
vt 0 0
vt 0.0004995167255401611 0.00099867582321167
vt 0.5 0.7674803137779236
vt 0.5000000596046448 0.0009992122650146484
vt 0.999500572681427 0.0009996891021728516
vt 0.7497503757476807 1.4995003938674927
vt 0.5000001192092896 1
vt 0.5000001192092896 1.9990005493164062
vt 0 1
vt 1 1
vt 0.999500572681427 1.9990007877349854
vt 0.999500572681427 1.000000238418579
vt 0.7497503757476807 0.5004998445510864
vt 0.5 1
vt 0.2502499222755432 1.4995001554489136
vt 0.000499725341796875 1.9990003108978271
vt 0.0004995167255401611 1.5339609384536743
vt 0.0004995167255401611 0.7674798369407654
vt 0.49999910593032837 0.0007369518280029297
vt 0.749748945236206 0.250249981880188
vt 0.999498724937439 0.000499725341796875
vt 0.49999919533729553 0.5000001788139343
vt 0.9995002746582031 0.7665550708770752
vt 0.4999999701976776 0.8830278515815735
vt 0.9994989633560181 0.9990260601043701
vt 0.250249445438385 0.749750405550003
vt 0.999499499797821 0.38352739810943604
vt 0.25024932622909546 0.25048720836639404
vt 0.0004994869232177734 0.0009742379188537598
vt 0.0004995763301849365 0.5002374351024628
vt 0.4999993145465851 0.999263346195221
vt 0.0004996657371520996 0.9995006322860718
vt -1.8493211269378662 2.616708278656006
vt -1.185663104057312 2.624776005744934
vt -1.1854294538497925 2.387315273284912
vt -0.5220050811767578 2.6328437328338623
vt -1.8488538265228271 2.141786813735962
vt -1.185429573059082 2.1353482007980347
vt -0.5220053195953369 2.1289095878601074
vt -0.5220052003860474 2.380876660346985
vt 0 0.6041005253791809
vt 0 0.6527525186538696
vt 2 0.6041005253791809
vt 2 0.6527525186538696
vt 0 0.6879504919052124
vt 2 0.6879503726959229
vt 2 0.550000011920929
vt 0 0.550000011920929
vt 0.0033549368381500244 0.11453402042388916
vt 0.0658426582813263 0.11453402042388916
vt 0.05111202597618103 0.16365844011306763
vt 0.11185508966445923 0.16365844011306763
vt 0.3348626494407654 0.11453402042388916
vt 0.19735538959503174 0.11453402042388916
vt 0.37986284494400024 0.16365844011306763
vt 0.4105238914489746 0.11453402042388916
vt 0.4256916642189026 0.16365844011306763
vt 0.0033549368381500244 0.0004994869232177734
vt 0.0658426582813263 0.0004994869232177734
vt 0.3348626494407654 0.0004994869232177734
vt 0.19735538959503174 0.0004994869232177734
vt 0.4105238914489746 0.0004994869232177734
vt 0.8205130696296692 0.11146271228790283
vt 0.8791266083717346 0.11146271228790283
vt 0.8598321676254272 0.0004534125328063965
vt 0.90566086769104 0.0004534125328063965
vt 1.1385859251022339 0.10904723405838013
vt 0.9023058414459229 0.0028687715530395508
vt 1.167311191558838 0.0004533529281616211
vt 1.2603532075881958 0.10904723405838013
vt 1.2131398916244507 0.0004533529281616211
vt 0.8205130696296692 0.1637517213821411
vt 0.8791264891624451 0.1637517213821411
vt 1.1385860443115234 0.1613362431526184
vt 1.2603532075881958 0.1613362431526184
vt 0.2164689302444458 0.5
vt 0 1
vt 0.4329378604888916 1
vt 0 0.5
vt 0.4329379200935364 0.5
vt 0.43293797969818115 0
vt 0 0
vt 0.21646898984909058 0
g Taventrance160
s 1
f 1/1/1 2/2/2 3/3/3
f 2/2/2 4/4/4 3/3/3
f 5/5/5 6/6/6 7/7/7
f 7/7/7 6/6/6 8/8/8
f 9/9/9 10/10/10 11/11/11
f 12/12/12 3/3/3 4/4/4
f 1/1/1 3/3/3 13/13/13
f 14/14/14 9/9/9 11/11/11
f 15/15/15 16/16/16 10/10/10
f 15/15/15 8/8/8 16/16/16
f 6/6/6 16/16/16 8/8/8
f 6/6/6 10/10/10 16/16/16
f 17/17/17 13/13/13 3/3/3
f 12/12/12 17/17/17 3/3/3
f 14/14/14 15/15/15 9/9/9
f 11/11/11 18/18/18 19/19/19
f 11/11/11 10/10/10 18/18/18
f 20/20/20 18/18/18 10/10/10
f 20/20/20 19/19/19 18/18/18
f 9/9/9 15/15/15 10/10/10
f 5/5/5 21/21/21 6/6/6
f 21/21/21 20/20/20 6/6/6
f 20/20/20 10/10/10 6/6/6
g Taventrance161
s 1
f 22/22/22 23/23/23 24/24/24
f 22/22/22 25/25/25 23/23/23
f 26/26/26 23/23/23 25/25/25
f 26/26/26 25/25/25 27/27/27
f 28/28/28 26/26/26 27/27/27
f 27/27/27 25/25/25 29/29/29
f 26/26/26 30/30/30 23/23/23
f 31/31/31 25/25/25 22/22/22
f 32/32/32 31/31/31 22/22/22
f 32/32/32 33/33/33 31/31/31
f 31/31/31 33/33/33 25/25/25
f 30/30/30 24/24/24 23/23/23
f 33/33/33 29/29/29 25/25/25
f 28/28/28 27/27/27 34/34/34
f 27/27/27 29/29/29 35/35/35
f 33/33/33 35/35/35 29/29/29
f 34/34/34 27/27/27 35/35/35
g Taventrance162
s 1
f 36/36/36 37/37/37 38/38/38
f 37/37/37 39/39/39 38/38/38
f 36/36/36 38/38/38 40/40/40
f 41/41/41 38/38/38 42/42/42
f 40/40/40 38/38/38 41/41/41
f 38/38/38 39/39/39 43/43/43
f 38/38/38 43/43/43 42/42/42
g Taventrance163
s 1
f 44/44/44 45/45/45 46/46/46
f 47/47/47 48/48/48 49/49/49
f 45/45/45 48/48/48 47/47/47
f 46/46/46 45/45/45 47/47/47
f 50/50/50 44/44/44 46/46/46
f 51/51/51 44/44/44 50/50/50
f 52/52/52 53/53/53 54/54/54
f 55/55/55 54/54/54 53/53/53
f 56/56/56 57/57/57 58/58/58
f 54/54/54 58/58/58 57/57/57
f 59/59/59 56/56/56 60/60/60
f 58/58/58 60/60/60 56/56/56
f 61/61/61 62/62/62 52/52/52
f 53/53/53 52/52/52 62/62/62
f 63/63/63 64/64/64 56/56/56
f 57/57/57 56/56/56 64/64/64
f 65/65/65 63/63/63 59/59/59
f 56/56/56 59/59/59 63/63/63
f 66/66/66 67/67/67 68/68/68
f 69/69/69 68/68/68 67/67/67
f 67/67/67 70/70/70 71/71/71
f 72/72/72 71/71/71 70/70/70
f 70/70/70 73/73/73 72/72/72
f 74/74/74 72/72/72 73/73/73
f 75/75/75 76/76/76 66/66/66
f 67/67/67 66/66/66 76/76/76
f 76/76/76 77/77/77 67/67/67
f 70/70/70 67/67/67 77/77/77
f 77/77/77 78/78/78 70/70/70
f 73/73/73 70/70/70 78/78/78
g Taventrance164
s 1
f 79/79/79 80/80/80 81/81/81
f 82/82/82 80/80/80 79/79/79
f 79/79/79 81/81/81 83/83/83
f 79/79/79 83/83/83 84/84/84
f 85/85/85 82/82/82 79/79/79
f 86/86/86 79/79/79 84/84/84
f 85/85/85 79/79/79 86/86/86
