# Exported using wow.export v0.2.19
o 21138_Bnkentrance07.obj
v -505.4936828613281 -2.3548080921173096 -329.34722900390625
v -507.48773193359375 -2.3548080921173096 -331.2276916503906
v -509.4817199707031 -2.3548080921173096 -329.34722900390625
v -505.49371337890625 -2.3548080921173096 -333.108154296875
v -509.48175048828125 -2.3548080921173096 -333.108154296875
v -509.48175048828125 -2.3548080921173096 -331.2276916503906
v -511.47576904296875 -2.3548080921173096 -331.2276916503906
v -513.4697875976562 -2.3548080921173096 -333.108154296875
v -511.47576904296875 -2.3548083305358887 -329.34722900390625
v -505.49365234375 -2.3548080921173096 -325.5863342285156
v -507.4876708984375 -2.3548080921173096 -327.466796875
v -512.4727783203125 -2.3548083305358887 -331.2276916503906
v -513.4697875976562 -2.354808807373047 -329.34722900390625
v -509.4817199707031 -2.354808807373047 -325.5863342285156
v -510.478759765625 -2.3548085689544678 -327.466796875
v -513.4697875976562 -2.354809284210205 -325.5863342285156
v -512.4727783203125 -2.354808807373047 -327.466796875
v -507.48773193359375 5.973199367523193 -331.2276916503906
v -505.4936828613281 5.973199844360352 -329.34722900390625
v -509.4817199707031 5.973199844360352 -329.34722900390625
v -505.49371337890625 5.973198890686035 -333.108154296875
v -509.48175048828125 5.973198890686035 -333.108154296875
v -513.4697875976562 5.973198890686035 -333.108154296875
v -511.47576904296875 5.973199367523193 -331.2276916503906
v -512.4727783203125 5.973198890686035 -331.2276916503906
v -511.47576904296875 5.973198890686035 -329.34722900390625
v -513.4697875976562 5.973198413848877 -329.34722900390625
v -510.478759765625 5.973198890686035 -327.466796875
v -512.4727783203125 5.973198413848877 -327.466796875
v -513.4697875976562 5.973197937011719 -325.5863342285156
v -507.4876708984375 5.973199844360352 -327.466796875
v -509.48175048828125 5.973199367523193 -331.2276916503906
v -513.4697875976562 5.973198890686035 -331.2276916503906
v -509.4817199707031 5.973198890686035 -325.5863342285156
v -505.49365234375 5.97320032119751 -325.5863342285156
v -513.4697875976562 -1.5890960693359375 -329.34722900390625
v -513.4697875976562 -2.354809284210205 -325.5863342285156
v -513.4697875976562 -2.354808807373047 -329.34722900390625
v -513.4697875976562 -2.3548080921173096 -333.108154296875
v -513.4697875976562 4.274052619934082 -327.466796875
v -513.4697875976562 2.574906826019287 -325.5863342285156
v -513.4697875976562 2.5749075412750244 -329.34722900390625
v -513.4697875976562 5.973197937011719 -325.5863342285156
v -513.4697875976562 5.973198413848877 -329.34722900390625
v -513.4697875976562 0.8757619261741638 -329.34722900390625
v -513.4697875976562 -0.823384165763855 -325.5863342285156
v -513.4697875976562 -0.8233835697174072 -329.34722900390625
v -513.4697875976562 -0.8233829140663147 -333.108154296875
v -513.4697875976562 0.8757622838020325 -331.2276916503906
v -513.4697875976562 2.5749080181121826 -333.108154296875
v -509.48175048828125 2.5749080181121826 -333.108154296875
v -507.48773193359375 4.274053573608398 -333.108154296875
v -509.48175048828125 5.973198890686035 -333.108154296875
v -505.49371337890625 5.973198890686035 -333.108154296875
v -505.49371337890625 2.5749080181121826 -333.108154296875
v -511.47576904296875 4.274053573608398 -333.108154296875
v -513.4697875976562 5.973198890686035 -333.108154296875
v -513.4697875976562 2.5749080181121826 -333.108154296875
v -511.47576904296875 0.8757625818252563 -333.108154296875
v -509.48175048828125 -0.8233829140663147 -333.108154296875
v -513.4697875976562 -0.8233829140663147 -333.108154296875
v -507.48773193359375 0.8757625222206116 -333.108154296875
v -505.49371337890625 -0.8233829140663147 -333.108154296875
v -513.4697875976562 5.973198890686035 -333.108154296875
v -513.4697875976562 4.27405309677124 -331.2276916503906
v -513.4697875976562 0.02618950605392456 -331.2276916503906
v -513.4697875976562 2.5749077796936035 -331.2276916503906
v -513.4697875976562 5.973198890686035 -331.2276916503906
v -509.48175048828125 -1.5890954732894897 -333.108154296875
v -513.4697875976562 -2.3548080921173096 -333.108154296875
v -505.49371337890625 -2.3548080921173096 -333.108154296875
v -509.48175048828125 -2.3548080921173096 -333.108154296875
vn -0.11481529474258423 0.993381142616272 -0.0033690377604216337
vn 0.12176931649446487 0.9587104916572571 0.25699499249458313
vn 0.23966166377067566 0.9630174040794373 0.12312418222427368
vn 0 0.9238795638084412 0.3826834261417389
vn 0.3082243502140045 0.8014469146728516 0.5125238299369812
vn 0.28041237592697144 0.9030667543411255 0.32532966136932373
vn 0.4347958266735077 0.8197498321533203 0.3727771043777466
vn 0.5773502588272095 0.5773502588272095 0.5773502588272095
vn 0.4878998398780823 0.8500803709030151 0.198285311460495
vn -0.21045075356960297 0.8969389200210571 -0.38885870575904846
vn 0.015545405447483063 0.9898278713226318 -0.14141808450222015
vn 0.548346221446991 0.7347815632820129 0.39926475286483765
vn 0.6738872528076172 0.673887312412262 0.30290549993515015
vn 0.2881482243537903 0.9306299686431885 -0.22560669481754303
vn 0.39947712421417236 0.916635274887085 -0.014063906855881214
vn 0.7071067094802856 0.7071068286895752 1.195363239503422e-7
vn 0.6057219505310059 0.7893031239509583 0.10050641745328903
vn 0.12176959216594696 -0.9587106704711914 0.2569940686225891
vn -0.11481520533561707 -0.9933810830116272 -0.0033707963302731514
vn 0.23966218531131744 -0.9630176424980164 0.1231221854686737
vn 0 -0.9238795042037964 0.38268354535102844
vn 0.30822432041168213 -0.8014468550682068 0.512523889541626
vn 0.5773502588272095 -0.5773502588272095 0.5773503184318542
vn 0.43479618430137634 -0.8197501301765442 0.3727761507034302
vn 0.5483464598655701 -0.7347816824913025 0.39926424622535706
vn 0.4879002571105957 -0.8500804305076599 0.19828420877456665
vn 0.6738873720169067 -0.6738872528076172 0.302905410528183
vn 0.3994775712490082 -0.9166349768638611 -0.014065571129322052
vn 0.605722188949585 -0.7893030643463135 0.1005057618021965
vn 0.70710688829422 -0.7071067094802856 -7.969087079118253e-8
vn 0.01554586086422205 -0.9898275136947632 -0.14142094552516937
vn 0.2804126739501953 -0.9030669927597046 0.3253287374973297
vn 0.6330986022949219 -0.6330985426902771 0.4453899562358856
vn 0.2881486117839813 -0.9306293725967407 -0.22560882568359375
vn -0.2104504257440567 -0.8969375491142273 -0.3888620436191559
vn 0.8880739212036133 0.32505759596824646 0.32505759596824646
vn 0.7071067094802856 0.7071068286895752 1.195363239503422e-7
vn 0.6738872528076172 0.673887312412262 0.30290549993515015
vn 0.5773502588272095 0.5773502588272095 0.5773502588272095
vn 0.7886751890182495 -0.5773502588272095 0.2113247960805893
vn 0.9238795638084412 -0.3826833963394165 -4.3128387972046767e-8
vn 0.8164966106414795 -0.40824824571609497 0.40824824571609497
vn 0.70710688829422 -0.7071067094802856 -7.969087079118253e-8
vn 0.6738873720169067 -0.6738872528076172 0.302905410528183
vn 0.8969369530677795 -0.21045109629631042 0.3888629376888275
vn 1 0 0
vn 0.9238795638084412 0 0.3826834261417389
vn 0.7071067690849304 0 0.7071067690849304
vn 0.7886751890182495 -0.21132484078407288 0.5773502588272095
vn 0.673887312412262 -0.30290547013282776 0.6738873720169067
vn 0.3250575661659241 -0.3250575661659241 0.8880738615989685
vn 0.17947396636009216 -0.6895754337310791 0.7016230821609497
vn 0.30822432041168213 -0.8014468550682068 0.512523889541626
vn 0 -0.9238795042037964 0.38268354535102844
vn 0 -0.5555701851844788 0.8314696550369263
vn 0.46438518166542053 -0.46438518166542053 0.7541171908378601
vn 0.5773502588272095 -0.5773502588272095 0.5773503184318542
vn 0.673887312412262 -0.30290547013282776 0.6738873720169067
vn 0.5354671478271484 -0.16863365471363068 0.8275492191314697
vn 0.3826834261417389 0 0.9238795638084412
vn 0.7071067690849304 0 0.7071067690849304
vn 0.16727682948112488 -0.16727682948112488 0.9716156125068665
vn 0 0 1
vn 0.5773502588272095 -0.5773502588272095 0.5773503184318542
vn 0.7071067690849304 -0.4999999701976776 0.5
vn 0.8208726048469543 -0.10769876837730408 0.5608646869659424
vn 0.7548786401748657 -0.3601990044116974 0.5481011271476746
vn 0.6330986022949219 -0.6330985426902771 0.4453899562358856
vn 0.44357383251190186 0.5795571804046631 0.6836342811584473
vn 0.5773502588272095 0.5773502588272095 0.5773502588272095
vn 0 0.9238795638084412 0.3826834261417389
vn 0.3082243502140045 0.8014469146728516 0.5125238299369812
vt 1.1554317474365234 0.3868652582168579
vt 0.853308916091919 0.6858810782432556
vt 0.5511859059333801 0.38686543703079224
vt 1.1554319858551025 0.984896719455719
vt 0.5511860847473145 0.9848968684673309
vt 0.5511859655380249 0.6858811378479004
vt 0.24906304478645325 0.6858812272548676
vt -0.05305981636047363 0.9848970174789429
vt 0.24906295537948608 0.38686543703079224
vt 1.1554316282272339 -0.2111661434173584
vt 0.8533087968826294 0.08784961700439453
vt 0.09800156950950623 0.6858812272548676
vt -0.05305999517440796 0.38686543703079224
vt 0.5511857271194458 -0.2111661434173584
vt 0.40012434124946594 0.08784961700439453
vt -0.053060173988342285 -0.2111661434173584
vt 0.0980013906955719 0.08784961700439453
vt 0.6951171159744263 0.7497503757476807
vt 0.4999997615814209 0.9995004534721375
vt 0.49999988079071045 0.5000002086162567
vt 0.8902343511581421 0.999500572681427
vt 0.8902344703674316 0.5000003278255463
vt 0.8902345895767212 0.0005000829696655273
vt 0.6951172351837158 0.2502501606941223
vt 0.6951172351837158 0.12537503242492676
vt 0.49999988079071045 0.25025004148483276
vt 0.49999985098838806 0.0004998445510864258
vt 0.3048825263977051 0.37512505054473877
vt 0.3048824965953827 0.12537485361099243
vt 0.10976511240005493 0.0004996657371520996
vt 0.3048825263977051 0.7497502565383911
vt 0.695117175579071 0.5000002682209015
vt 0.6951172351837158 0.0004999637603759766
vt 0.10976514220237732 0.5
vt 0.10976517200469971 0.9995003342628479
vt 0.4999997913837433 0.09235197305679321
vt 0.0004993081092834473 0.0004994869232177734
vt 0.4999997913837433 0.0004995465278625488
vt 0.9995002746582031 0.0004996061325073242
vt 0.25024956464767456 0.7956764101982117
vt 0.0004993081092834473 0.5918523669242859
vt 0.4999997913837433 0.5918524265289307
vt 0.0004993081092834473 0.9995003938674927
vt 0.4999997913837433 0.9995004534721375
vt 0.4999997913837433 0.3880283832550049
vt 0.0004993081092834473 0.1842043399810791
vt 0.4999997913837433 0.18420439958572388
vt 0.9995002746582031 0.18420445919036865
vt 0.749750018119812 0.38802844285964966
vt 0.9995002746582031 0.5918524861335754
vt 0.5000001192092896 0.5918524861335754
vt 0.7497502565383911 0.7956764996051788
vt 0.5000001192092896 0.9995005130767822
vt 0.9995003938674927 0.9995005130767822
vt 0.9995003938674927 0.5918524861335754
vt 0.250249981880188 0.7956764996051788
vt 0.0004998743534088135 0.9995005130767822
vt 0.0004998743534088135 0.5918524861335754
vt 0.250249981880188 0.38802850246429443
vt 0.5000001192092896 0.18420445919036865
vt 0.0004998743534088135 0.18420445919036865
vt 0.7497502565383911 0.38802850246429443
vt 0.9995003938674927 0.18420445919036865
vt 0.9995002746582031 0.9995005130767822
vt 0.749750018119812 0.7956764698028564
vt 0.749750018119812 0.28611642122268677
vt 0.749750018119812 0.591852456331253
vt 0.749750018119812 0.9995004832744598
vt 0.5000001192092896 0.09235203266143799
vt 0.0004998743534088135 0.0004996061325073242
vt 0.9995003938674927 0.0004996061325073242
vt 0.5000001192092896 0.0004996061325073242
g Bnkentrance070
s 1
f 1/1/1 2/2/2 3/3/3
f 1/1/1 4/4/4 2/2/2
f 2/2/2 4/4/4 5/5/5
f 6/6/6 5/5/5 7/7/7
f 3/3/3 6/6/6 7/7/7
f 7/7/7 5/5/5 8/8/8
f 3/3/3 7/7/7 9/9/9
f 10/10/10 1/1/1 11/11/11
f 11/11/11 1/1/1 3/3/3
f 9/9/9 12/12/12 13/13/13
f 14/14/14 15/15/15 16/16/16
f 3/3/3 9/9/9 15/15/15
f 3/3/3 15/15/15 14/14/14
f 17/17/17 13/13/13 16/16/16
f 9/9/9 13/13/13 17/17/17
f 15/15/15 9/9/9 17/17/17
f 15/15/15 17/17/17 16/16/16
f 12/12/12 8/8/8 13/13/13
f 7/7/7 8/8/8 12/12/12
f 7/7/7 12/12/12 9/9/9
f 3/3/3 2/2/2 6/6/6
f 6/6/6 2/2/2 5/5/5
f 11/11/11 3/3/3 14/14/14
f 10/10/10 11/11/11 14/14/14
g Bnkentrance071
s 1
f 18/18/18 19/19/19 20/20/20
f 21/21/21 19/19/19 18/18/18
f 21/21/21 18/18/18 22/22/22
f 23/23/23 24/24/24 25/25/25
f 25/25/25 24/24/24 26/26/26
f 25/25/25 26/26/26 27/27/27
f 26/26/26 28/28/28 29/29/29
f 29/29/29 28/28/28 30/30/30
f 27/27/27 29/29/29 30/30/30
f 27/27/27 26/26/26 29/29/29
f 19/19/19 31/31/31 20/20/20
f 24/24/24 20/20/20 26/26/26
f 18/18/18 32/32/32 22/22/22
f 18/18/18 20/20/20 32/32/32
f 32/32/32 20/20/20 24/24/24
f 22/22/22 32/32/32 24/24/24
f 33/33/33 25/25/25 27/27/27
f 23/23/23 25/25/25 33/33/33
f 26/26/26 20/20/20 28/28/28
f 28/28/28 20/20/20 34/34/34
f 28/28/28 34/34/34 30/30/30
f 20/20/20 31/31/31 34/34/34
f 31/31/31 35/35/35 34/34/34
f 19/19/19 35/35/35 31/31/31
f 22/22/22 24/24/24 23/23/23
g Bnkentrance072
s 1
f 36/36/36 37/37/37 38/38/38
f 36/36/36 38/38/38 39/39/39
f 40/40/40 41/41/41 42/42/42
f 43/43/43 41/41/41 40/40/40
f 40/40/40 44/44/44 43/43/43
f 42/42/42 44/44/44 40/40/40
f 45/45/45 46/46/46 47/47/47
f 36/36/36 48/48/48 47/47/47
f 36/36/36 47/47/47 46/46/46
f 42/42/42 45/45/45 49/49/49
f 48/48/48 50/50/50 49/49/49
f 51/51/51 52/52/52 53/53/53
f 52/52/52 54/54/54 53/53/53
f 55/55/55 54/54/54 52/52/52
f 55/55/55 52/52/52 51/51/51
f 56/56/56 53/53/53 57/57/57
f 51/51/51 53/53/53 56/56/56
f 56/56/56 58/58/58 51/51/51
f 57/57/57 58/58/58 56/56/56
f 51/51/51 59/59/59 60/60/60
f 59/59/59 61/61/61 60/60/60
f 58/58/58 61/61/61 59/59/59
f 58/58/58 59/59/59 51/51/51
f 62/62/62 60/60/60 63/63/63
f 51/51/51 60/60/60 62/62/62
f 62/62/62 55/55/55 51/51/51
f 63/63/63 55/55/55 62/62/62
f 50/50/50 64/64/64 65/65/65
f 42/42/42 65/65/65 44/44/44
f 66/66/66 47/47/47 48/48/48
f 45/45/45 47/47/47 66/66/66
f 49/49/49 45/45/45 66/66/66
f 49/49/49 66/66/66 48/48/48
f 49/49/49 50/50/50 67/67/67
f 49/49/49 67/67/67 42/42/42
f 67/67/67 65/65/65 42/42/42
f 50/50/50 65/65/65 67/67/67
f 65/65/65 64/64/64 68/68/68
f 65/65/65 68/68/68 44/44/44
f 69/69/69 60/60/60 61/61/61
f 41/41/41 46/46/46 45/45/45
f 42/42/42 41/41/41 45/45/45
f 61/61/61 70/70/70 69/69/69
f 71/71/71 63/63/63 69/69/69
f 46/46/46 37/37/37 36/36/36
f 39/39/39 48/48/48 36/36/36
f 69/69/69 70/70/70 72/72/72
f 69/69/69 72/72/72 71/71/71
f 69/69/69 63/63/63 60/60/60
