# Exported using wow.export v0.2.19
o 21138_Warrior_Left.obj
v -23.57554054260254 2.2608137130737305 -238.04296875
v -26.394695281982422 5.459514141082764 -238.04299926757812
v -23.57554054260254 5.4595208168029785 -238.04299926757812
v -18.135438919067383 5.459514141082764 -246.0612030029297
v -18.135438919067383 2.3838188648223877 -242.05209350585938
v -18.135438919067383 5.459519386291504 -242.05209350585938
v -18.135438919067383 5.459524631500244 -238.04299926757812
v -31.83479881286621 2.3838202953338623 -242.05209350585938
v -31.83479881286621 5.4595208168029785 -242.05209350585938
v -31.83479881286621 5.459527969360352 -238.04299926757812
v -31.83479881286621 5.4595136642456055 -246.06117248535156
v -24.985118865966797 2.3838133811950684 -246.06118774414062
v -24.985118865966797 -0.6918872594833374 -246.06118774414062
v -19.549938201904297 -0.6918871402740479 -246.0612030029297
v -30.420297622680664 -0.6918874382972717 -246.06117248535156
v -18.135438919067383 -0.6918867826461792 -238.04299926757812
v -18.135438919067383 2.2608139514923096 -238.04299926757812
v -18.135438919067383 0.7844634056091309 -242.05209350585938
v -31.83479881286621 -0.6918873190879822 -246.06117248535156
v -30.420297622680664 5.4595136642456055 -246.06117248535156
v -23.57554054260254 -0.6918875575065613 -238.04296875
v -26.394695281982422 2.2608137130737305 -238.04296875
v -18.135438919067383 -0.6918871402740479 -246.0612030029297
v -26.394697189331055 -0.6918873190879822 -238.04296875
v -31.83479881286621 2.2608137130737305 -238.04299926757812
v -31.83479881286621 -0.6918870210647583 -238.04299926757812
v -31.83479881286621 0.7844632267951965 -242.05209350585938
v -19.549938201904297 5.459514141082764 -246.0612030029297
v -24.985118865966797 5.4595136642456055 -246.06118774414062
v -18.135438919067383 -0.6918869614601135 -242.05209350585938
v -31.83479881286621 5.4595136642456055 -246.06117248535156
v -31.83479881286621 -0.6918873190879822 -246.06117248535156
v -18.135438919067383 -0.6918871402740479 -246.0612030029297
v -18.135438919067383 5.459514141082764 -246.0612030029297
v -31.83479881286621 -0.6918871402740479 -242.05209350585938
v -31.83479881286621 -0.6918871402740479 -242.05209350585938
v -31.83479881286621 -0.6918870210647583 -238.04299926757812
v -31.127548217773438 -0.6918871402740479 -242.05206298828125
v -31.83479881286621 -0.6918873190879822 -246.06117248535156
v -18.135438919067383 -0.6918869614601135 -242.05209350585938
v -18.135438919067383 -0.6918871402740479 -246.0612030029297
v -18.842689514160156 -0.6918869614601135 -242.05209350585938
v -18.135438919067383 -0.6918867826461792 -238.04299926757812
v -19.549938201904297 -0.6918869614601135 -242.05209350585938
v -19.549938201904297 -0.6918867826461792 -238.04296875
v -21.562740325927734 -0.691887378692627 -242.05209350585938
v -19.549938201904297 -0.6918871402740479 -246.0612030029297
v -24.985118865966797 -0.6918870806694031 -242.05209350585938
v -30.420297622680664 -0.6918872594833374 -242.05206298828125
v -27.702709197998047 -0.6918870210647583 -240.0475311279297
v -30.420297622680664 -0.6918870210647583 -238.04296875
v -26.394697189331055 -0.6918873190879822 -238.04296875
v -22.97231674194336 -0.6918872594833374 -242.05209350585938
v -30.420297622680664 -0.6918874382972717 -246.06117248535156
v -23.57554054260254 -0.6918875575065613 -238.04296875
v -22.267528533935547 -0.6918871402740479 -244.056640625
v -24.985118865966797 -0.6918872594833374 -246.06118774414062
v -27.702709197998047 -0.6918872594833374 -244.056640625
v -18.135438919067383 5.459524631500244 -238.04299926757812
v -18.135438919067383 2.2608139514923096 -238.04299926757812
v -19.549938201904297 2.2608139514923096 -238.04296875
v -19.549938201904297 5.459524631500244 -238.04299926757812
v -30.420297622680664 5.459527969360352 -238.04299926757812
v -30.420297622680664 2.2608137130737305 -238.04296875
v -31.83479881286621 2.2608137130737305 -238.04299926757812
v -30.420297622680664 -0.6918870210647583 -238.04296875
v -31.83479881286621 -0.6918870210647583 -238.04299926757812
v -18.135438919067383 -0.6918867826461792 -238.04299926757812
v -19.549938201904297 -0.6918867826461792 -238.04296875
v -31.83479881286621 5.459527969360352 -238.04299926757812
v -19.796031951904297 5.459519386291504 -242.29818725585938
v -20.042123794555664 5.459516525268555 -243.95228576660156
v -19.549938201904297 5.459514141082764 -246.0612030029297
v -20.1468448638916 5.930757999420166 -243.8475799560547
v -24.985118865966797 5.930756568908691 -243.8475799560547
v -25.037479400634766 5.695136070251465 -243.89993286132812
v -28.40749740600586 4.273614406585693 -238.04296875
v -29.17776107788086 4.120398998260498 -238.04296875
v -30.420297622680664 5.459527969360352 -238.04299926757812
v -30.2670841217041 3.031078815460205 -238.04296875
v -29.83076286315918 3.6840786933898926 -238.04296875
v -26.394695281982422 5.459514141082764 -238.04299926757812
v -27.637231826782227 4.120398998260498 -238.04296875
v -24.985118865966797 5.4595136642456055 -246.06118774414062
v -19.549938201904297 5.459514141082764 -246.0612030029297
v -20.042123794555664 5.459516525268555 -243.95228576660156
v -26.394695281982422 2.2608137130737305 -238.04296875
v -26.54791259765625 3.0310792922973633 -238.04296875
v -26.98423194885254 3.684079170227051 -238.04296875
v -25.231210708618164 5.45951509475708 -245.00672912597656
v -29.92811393737793 5.459514141082764 -243.95228576660156
v -30.420297622680664 5.4595136642456055 -246.06117248535156
v -31.127548217773438 5.4595208168029785 -242.05209350585938
v -30.420297622680664 5.459527969360352 -238.04299926757812
v -31.83479881286621 5.459527969360352 -238.04299926757812
v -31.83479881286621 5.4595136642456055 -246.06117248535156
v -30.420297622680664 5.4595136642456055 -246.06117248535156
v -23.57554054260254 2.2608137130737305 -238.04296875
v -23.57554054260254 5.4595208168029785 -238.04299926757812
v -23.422327041625977 3.0310792922973633 -238.04296875
v -19.32147979736328 4.533837795257568 -244.9838409423828
v -19.599727630615234 -0.08073022961616516 -244.70594787597656
v -18.13543701171875 4.533837795257568 -244.9838409423828
v -18.135435104370117 -0.08073022961616516 -244.70594787597656
v -19.32147979736328 4.53383731842041 -246.06117248535156
v -19.599727630615234 -0.08073059469461441 -246.06117248535156
v -19.32147979736328 4.533837795257568 -244.9838409423828
v -19.599727630615234 -0.08073022961616516 -244.70594787597656
v -21.562740325927734 4.273614883422852 -238.04296875
v -22.333005905151367 4.120399475097656 -238.04296875
v -18.842689514160156 5.459519386291504 -242.05209350585938
v -19.549938201904297 5.459514141082764 -246.0612030029297
v -18.135438919067383 5.459514141082764 -246.0612030029297
v -18.135438919067383 5.459524631500244 -238.04299926757812
v -19.549938201904297 5.459524631500244 -238.04299926757812
v -30.420297622680664 5.459527969360352 -238.04299926757812
v -30.420297622680664 5.4595208168029785 -242.05209350585938
v -29.92811393737793 5.459514141082764 -243.95228576660156
v -30.420297622680664 5.4595136642456055 -246.06117248535156
v -30.420297622680664 5.4595208168029785 -242.05209350585938
v -30.420297622680664 2.2608137130737305 -238.04296875
v -24.985118865966797 5.459515571594238 -243.95228576660156
v -20.042123794555664 5.459524631500244 -238.53518676757812
v -20.1468448638916 5.930765628814697 -238.63992309570312
v -20.1468448638916 5.930757999420166 -243.8475799560547
v -23.57554054260254 5.9307637214660645 -238.63992309570312
v -20.1468448638916 5.930765628814697 -238.63992309570312
v -20.042123794555664 5.459524631500244 -238.53518676757812
v -23.57554054260254 5.459522247314453 -238.53518676757812
v -26.394697189331055 5.930755615234375 -238.63992309570312
v -19.549938201904297 5.459524631500244 -238.04299926757812
v -29.82339096069336 5.930755138397217 -243.8475799560547
v -29.82339096069336 5.930765151977539 -238.63992309570312
v -29.92811393737793 5.459524631500244 -238.53518676757812
v -29.82339096069336 5.930765151977539 -238.63992309570312
v -26.394695281982422 5.459514617919922 -238.53518676757812
v -29.92811393737793 5.459524631500244 -238.53518676757812
v -19.549938201904297 5.459524631500244 -238.04299926757812
v -23.57554054260254 5.4595208168029785 -238.04299926757812
v -26.394695281982422 5.459514141082764 -238.04299926757812
v -30.420297622680664 5.459527969360352 -238.04299926757812
v -22.986005783081055 3.684079170227051 -238.04296875
v -19.549938201904297 5.459524631500244 -238.04299926757812
v -20.7924747467041 4.120399475097656 -238.04296875
v -19.549938201904297 2.2608139514923096 -238.04296875
v -19.703153610229492 3.0310792922973633 -238.04296875
v -29.82339096069336 5.930755138397217 -243.8475799560547
v -20.139474868774414 3.68407940864563 -238.04296875
v -31.83479881286621 5.4595208168029785 -242.05209350585938
v -18.135438919067383 5.459519386291504 -242.05209350585938
v -19.549938201904297 5.459519386291504 -242.05209350585938
v -19.549938201904297 5.459519386291504 -242.05209350585938
v -30.68222427368164 4.533837795257568 -244.9838409423828
v -31.83479881286621 4.53383731842041 -244.9838409423828
v -30.403974533081055 -0.08073001354932785 -244.70594787597656
v -31.83479881286621 -0.08073022961616516 -244.70594787597656
v -30.68222427368164 4.53383731842041 -246.06117248535156
v -30.68222427368164 4.533837795257568 -244.9838409423828
v -30.403974533081055 -0.0807303860783577 -246.06117248535156
v -30.403974533081055 -0.08073001354932785 -244.70594787597656
v -24.985118865966797 5.930760383605957 -241.24374389648438
v -20.1468448638916 5.930757999420166 -243.8475799560547
v -20.1468448638916 5.930765628814697 -238.63992309570312
v -26.699466705322266 5.930759429931641 -241.24374389648438
v -26.394697189331055 5.930755615234375 -238.63992309570312
v -29.82339096069336 5.930755138397217 -243.8475799560547
v -24.985118865966797 5.930756568908691 -243.8475799560547
v -29.82339096069336 5.930765151977539 -238.63992309570312
v -23.57554054260254 5.9307637214660645 -238.63992309570312
v -18.13543701171875 -0.24068351089954376 -244.18975830078125
v -20.246829986572266 -0.24068386852741241 -244.18975830078125
v -20.280696868896484 -0.6918875575065613 -244.1557159423828
v -30.68222427368164 4.533837795257568 -244.9838409423828
v -30.68222427368164 4.53383731842041 -246.06117248535156
v -30.018985748291016 4.53383731842041 -246.06117248535156
v -30.018985748291016 4.533837795257568 -244.4306182861328
v -31.83479881286621 4.53383731842041 -244.4306182861328
v -30.68222427368164 4.533837795257568 -244.9838409423828
v -30.018985748291016 4.533837795257568 -244.4306182861328
v -31.83479881286621 4.53383731842041 -244.9838409423828
v -29.94715118408203 4.776567459106445 -244.98814392089844
v -29.94715118408203 4.776566982269287 -246.06117248535156
v -29.74616241455078 5.4556756019592285 -244.08921813964844
v -29.67432975769043 5.4556756019592285 -244.64675903320312
v -30.658945083618164 4.776566505432129 -244.34768676757812
v -29.74616241455078 5.4556756019592285 -244.08921813964844
v -30.492719650268555 5.4556756019592285 -244.08924865722656
v -31.83479881286621 4.789551258087158 -244.344482421875
v -29.756874084472656 -0.24068398773670197 -246.06117248535156
v -30.403974533081055 -0.08073001354932785 -244.70594787597656
v -29.756874084472656 -0.24068361520767212 -244.18975830078125
v -30.403974533081055 -0.0807303860783577 -246.06117248535156
v -29.756874084472656 -0.24068361520767212 -244.18975830078125
v -31.83479881286621 -0.08073022961616516 -244.70594787597656
v -31.83479881286621 -0.24068386852741241 -244.18975830078125
v -30.403974533081055 -0.08073001354932785 -244.70594787597656
v -29.72300910949707 -0.6918876767158508 -246.06117248535156
v -29.723005294799805 -0.6918873190879822 -244.1557159423828
v -29.723005294799805 -0.6918873190879822 -244.1557159423828
v -31.83479881286621 -0.6918874979019165 -244.15573120117188
v -24.985124588012695 4.981037616729736 -246.06117248535156
v -24.985124588012695 4.9810380935668945 -244.9881134033203
v -29.94715118408203 4.776567459106445 -244.98814392089844
v -29.94715118408203 4.776566982269287 -246.06117248535156
v -24.985124588012695 5.4595136642456055 -244.64675903320312
v -29.67432975769043 5.4556756019592285 -244.64675903320312
v -30.49271583557129 5.4556756019592285 -241.4584503173828
v -30.658945083618164 4.945964336395264 -241.4584503173828
v -30.658945083618164 4.776566505432129 -244.34768676757812
v -30.492719650268555 5.4556756019592285 -244.08924865722656
v -31.83479881286621 4.958950042724609 -241.4584503173828
v -31.83479881286621 4.789551258087158 -244.344482421875
v -30.65894317626953 4.780417442321777 -238.04299926757812
v -30.49271583557129 5.459527969360352 -238.04299926757812
v -31.83479881286621 4.793402671813965 -238.04299926757812
v -19.32147979736328 4.533837795257568 -244.9838409423828
v -19.98472023010254 4.53383731842041 -246.06117248535156
v -19.32147979736328 4.53383731842041 -246.06117248535156
v -19.98472023010254 4.533837795257568 -244.4306182861328
v -18.13543701171875 4.533837795257568 -244.4305877685547
v -19.98472023010254 4.533837795257568 -244.4306182861328
v -19.32147979736328 4.533837795257568 -244.9838409423828
v -18.13543701171875 4.533837795257568 -244.9838409423828
v -20.056550979614258 4.776567459106445 -244.98814392089844
v -20.056549072265625 4.776566982269287 -246.06117248535156
v -20.257537841796875 5.4556756019592285 -244.08921813964844
v -20.32937240600586 5.4556756019592285 -244.64675903320312
v -19.344757080078125 4.776566505432129 -244.34768676757812
v -19.510982513427734 5.4556756019592285 -244.08921813964844
v -20.257537841796875 5.4556756019592285 -244.08921813964844
v -18.13543701171875 4.789551258087158 -244.344482421875
v -20.246829986572266 -0.24068351089954376 -246.06117248535156
v -20.246829986572266 -0.24068386852741241 -244.18975830078125
v -19.599727630615234 -0.08073022961616516 -244.70594787597656
v -19.599727630615234 -0.08073059469461441 -246.06117248535156
v -18.135435104370117 -0.08073022961616516 -244.70594787597656
v -19.599727630615234 -0.08073022961616516 -244.70594787597656
v -20.28069496154785 -0.6918875575065613 -246.06117248535156
v -20.280696868896484 -0.6918875575065613 -244.1557159423828
v -18.13543701171875 -0.6918871402740479 -244.1557159423828
v -20.056550979614258 4.776567459106445 -244.98814392089844
v -20.056549072265625 4.776566982269287 -246.06117248535156
v -20.32937240600586 5.4556756019592285 -244.64675903320312
v -19.5109806060791 5.4556756019592285 -241.4584503173828
v -19.344757080078125 4.776566505432129 -244.34768676757812
v -19.344755172729492 4.945964336395264 -241.4584503173828
v -19.510982513427734 5.4556756019592285 -244.08921813964844
v -18.13543701171875 4.789551258087158 -244.344482421875
v -18.135435104370117 4.958950519561768 -241.4584503173828
v -19.34475326538086 4.780417442321777 -238.04299926757812
v -19.510982513427734 5.459527969360352 -238.04299926757812
v -18.135433197021484 4.793403148651123 -238.04299926757812
vn 0.7037017941474915 -0.06930925697088242 -0.7071067690849304
vn 0.000001700996790532372 -0.7071064710617065 -0.7071070671081543
vn 0.000001700996790532372 -0.7071064710617065 -0.7071070671081543
vn -0.5773500204086304 -0.5773500204086304 0.5773507952690125
vn -1 -2.064765141085445e-7 4.12953028217089e-7
vn -0.7071067690849304 -0.7071067690849304 6.20504124526633e-7
vn -0.5773504972457886 -0.5773504972457886 -0.5773497819900513
vn 1 -3.0971472142482526e-7 5.161911644790962e-7
vn 0.7071067690849304 -0.7071067690849304 8.39505560179532e-7
vn 0.5773506164550781 -0.5773506164550781 -0.5773496031761169
vn 0.5773499011993408 -0.5773499011993408 0.5773509740829468
vn 0.000002422844772809185 2.9502785992008285e-7 0.9999999403953552
vn 0.0000016890850247364142 0.7071068286895752 0.7071067690849304
vn 0.0000016342795561286039 0.7071068286895752 0.7071067690849304
vn 0.0000017438904933442245 0.7071068286895752 0.7071067690849304
vn -0.5773502588272095 0.5773502588272095 -0.5773502588272095
vn -0.7071067690849304 0 -0.7071067690849304
vn -0.9082483053207397 0.40824830532073975 -0.09175171703100204
vn 0.5773503184318542 0.5773502588272095 0.5773501992225647
vn 0.0000017921412336363574 -0.7071064114570618 0.7071071863174438
vn 0.4082481563091278 0.8164966106414795 -0.4082483649253845
vn -0.7037017941474915 -0.0693090558052063 -0.7071067690849304
vn -0.5773502588272095 0.5773502588272095 0.5773502588272095
vn -0.40824824571609497 0.8164966106414795 -0.40824824571609497
vn 0.7071067690849304 0 -0.7071067690849304
vn 0.5773502588272095 0.5773502588272095 -0.5773502588272095
vn 0.9082483053207397 0.40824827551841736 -0.09175174683332443
vn 0.0000017921412336363574 -0.7071064114570618 0.7071071863174438
vn 0.0000017921412336363574 -0.7071064114570618 0.7071071863174438
vn -0.7071067690849304 0.7071067690849304 0
vn 0.5773499011993408 -0.5773499011993408 0.5773509740829468
vn 0.5773503184318542 0.5773502588272095 0.5773501992225647
vn -0.5773502588272095 0.5773502588272095 0.5773502588272095
vn -0.5773500204086304 -0.5773500204086304 0.5773507952690125
vn 0.7071067690849304 0.7071067690849304 -3.650024282819686e-8
vn 0.7071067690849304 0.7071067690849304 -3.650024282819686e-8
vn 0.5773502588272095 0.5773502588272095 -0.5773502588272095
vn 0.5745384693145752 0.812519907951355 0.09857440739870071
vn 0.5773503184318542 0.5773502588272095 0.5773501992225647
vn -0.7071067690849304 0.7071067690849304 0
vn -0.5773502588272095 0.5773502588272095 0.5773502588272095
vn -0.40824732184410095 0.9082486629486084 0.09175174683332443
vn -0.5773502588272095 0.5773502588272095 -0.5773502588272095
vn -0.2542939782142639 0.9490417242050171 0.18615680932998657
vn -0.4082483947277069 0.8164965510368347 -0.40824830532073975
vn 0.2542957663536072 0.9490412473678589 0.18615667521953583
vn 0.0000016342795561286039 0.7071068286895752 0.7071067690849304
vn 0.25429585576057434 0.9490414261817932 0.1861559897661209
vn 0.25429588556289673 0.9490413069725037 0.18615595996379852
vn 0.34892910718917847 0.9298213124275208 -0.11696574836969376
vn 0.40824806690216064 0.8164960145950317 -0.4082496464252472
vn -0.40824824571609497 0.8164966106414795 -0.40824824571609497
vn -0.25429388880729675 0.9490417242050171 0.18615683913230896
vn 0.0000017438904933442245 0.7071068286895752 0.7071067690849304
vn 0.4082481563091278 0.8164966106414795 -0.4082483649253845
vn 0.1339259147644043 0.8722113370895386 0.47043731808662415
vn 0.0000016890850247364142 0.7071068286895752 0.7071067690849304
vn 0.13392597436904907 0.8722113370895386 0.47043731808662415
vn -0.5773504972457886 -0.5773504972457886 -0.5773497819900513
vn -0.7071067690849304 0 -0.7071067690849304
vn -0.7037018537521362 -0.0693085566163063 -0.7071067690849304
vn -3.255353533404559e-7 -0.7071072459220886 -0.7071062922477722
vn -0.0000046763270802330226 -0.7071073651313782 -0.7071061730384827
vn 0.7037012577056885 -0.06930848956108093 -0.707107424736023
vn 0.7071067690849304 0 -0.7071067690849304
vn 0.40824806690216064 0.8164960145950317 -0.4082496464252472
vn 0.5773502588272095 0.5773502588272095 -0.5773502588272095
vn -0.5773502588272095 0.5773502588272095 -0.5773502588272095
vn -0.4082483947277069 0.8164965510368347 -0.40824830532073975
vn 0.5773506164550781 -0.5773506164550781 -0.5773496031761169
vn -0.32162460684776306 -0.9361443519592285 0.14209645986557007
vn -0.490442156791687 -0.7203680276870728 0.4904451072216034
vn 0.0000017921412336363574 -0.7071064114570618 0.7071071863174438
vn -0.4904420077800751 -0.720367968082428 0.4904453158378601
vn -0.0000016072862081273342 -0.8266093730926514 0.5627760291099548
vn -8.207422297346056e-7 -0.8266096115112305 0.5627756714820862
vn 1.504039488509079e-7 -0.7071067690849304 -0.7071067690849304
vn 0.2705976963043213 -0.6532816290855408 -0.7071067690849304
vn -0.0000046763270802330226 -0.7071073651313782 -0.7071061730384827
vn 0.653281569480896 -0.27059781551361084 -0.7071067690849304
vn 0.4999998211860657 -0.5000001788139343 -0.7071067690849304
vn 0.000001700996790532372 -0.7071064710617065 -0.7071070671081543
vn -0.27059778571128845 -0.653281569480896 -0.7071067690849304
vn 0.0000017921412336363574 -0.7071064114570618 0.7071071863174438
vn 0.0000017921412336363574 -0.7071064114570618 0.7071071863174438
vn -0.490442156791687 -0.7203680276870728 0.4904451072216034
vn -0.7037017941474915 -0.0693090558052063 -0.7071067690849304
vn -0.6532812714576721 -0.27059847116470337 -0.7071067690849304
vn -0.5 -0.5 -0.7071067690849304
vn -0.2545434534549713 -0.7408735752105713 0.6215416193008423
vn 0.49044057726860046 -0.7203700542449951 0.49044370651245117
vn 0.0000017921412336363574 -0.7071064114570618 0.7071071863174438
vn 0.40824952721595764 -0.9082475900650024 0.09175240248441696
vn -0.0000046763270802330226 -0.7071073651313782 -0.7071061730384827
vn 0.5773506164550781 -0.5773506164550781 -0.5773496031761169
vn 0.5773499011993408 -0.5773499011993408 0.5773509740829468
vn 0.0000017921412336363574 -0.7071064114570618 0.7071071863174438
vn 0.7037017941474915 -0.06930925697088242 -0.7071067690849304
vn 0.000001700996790532372 -0.7071064710617065 -0.7071070671081543
vn 0.6532812714576721 -0.27059847116470337 -0.7071067690849304
vn -0.6001166701316833 -0.5288820266723633 0.6001197695732117
vn -0.4553021192550659 0.752471923828125 0.4759054183959961
vn 0 -0.6855251789093018 0.7280489206314087
vn -1.0200110978075827e-7 0.6172385215759277 0.7867761254310608
vn -0.7280757427215576 -0.6854966878890991 2.696936860502319e-7
vn -0.768471360206604 0.6398841738700867 -1.7511193561858818e-7
vn -0.6001166701316833 -0.5288820266723633 0.6001197695732117
vn -0.4553021192550659 0.752471923828125 0.4759054183959961
vn 0 -0.7071067690849304 -0.7071067690849304
vn 0.27059778571128845 -0.653281569480896 -0.7071067690849304
vn -0.40824827551841736 -0.9082483053207397 -0.09175097942352295
vn 0.0000017921412336363574 -0.7071064114570618 0.7071071863174438
vn -0.5773500204086304 -0.5773500204086304 0.5773507952690125
vn -0.5773504972457886 -0.5773504972457886 -0.5773497819900513
vn -3.255353533404559e-7 -0.7071072459220886 -0.7071062922477722
vn -0.0000046763270802330226 -0.7071073651313782 -0.7071061730384827
vn -0.0000020394270450196927 -0.9999999403953552 7.164962880779058e-7
vn 0.49044057726860046 -0.7203700542449951 0.49044370651245117
vn 0.0000017921412336363574 -0.7071064114570618 0.7071071863174438
vn -0.0000020394270450196927 -0.9999999403953552 7.164962880779058e-7
vn 0.7037012577056885 -0.06930848956108093 -0.707107424736023
vn -9.062362664735701e-7 -0.8266096711158752 0.5627755522727966
vn -0.49043458700180054 -0.7203835844993591 -0.4904298484325409
vn -0.49043431878089905 -0.7203837633132935 -0.4904298484325409
vn -0.4904420077800751 -0.720367968082428 0.4904453158378601
vn 0.000002228308176199789 -0.7800514101982117 -0.625715434551239
vn -0.49043431878089905 -0.7203837633132935 -0.4904298484325409
vn -0.49043458700180054 -0.7203835844993591 -0.4904298484325409
vn 0.0000021110295165271964 -0.7800511717796326 -0.6257157325744629
vn -0.00000212146301237226 -0.7800525426864624 -0.6257140040397644
vn -3.255353533404559e-7 -0.7071072459220886 -0.7071062922477722
vn 0.49043920636177063 -0.7203702926635742 0.49044468998908997
vn 0.49043139815330505 -0.7203863263130188 -0.49042895436286926
vn 0.4904305636882782 -0.7203867435455322 -0.49042922258377075
vn 0.49043139815330505 -0.7203863263130188 -0.49042895436286926
vn 0.00000115824070689996 -0.7800517678260803 -0.6257149577140808
vn 0.4904305636882782 -0.7203867435455322 -0.49042922258377075
vn -3.255353533404559e-7 -0.7071072459220886 -0.7071062922477722
vn 0.000001700996790532372 -0.7071064710617065 -0.7071070671081543
vn 0.000001700996790532372 -0.7071064710617065 -0.7071070671081543
vn -0.0000046763270802330226 -0.7071073651313782 -0.7071061730384827
vn 0.5 -0.5 -0.7071067690849304
vn -3.255353533404559e-7 -0.7071072459220886 -0.7071062922477722
vn -0.2705979347229004 -0.6532815098762512 -0.7071067690849304
vn -0.7037018537521362 -0.0693085566163063 -0.7071067690849304
vn -0.653281569480896 -0.27059781551361084 -0.7071067690849304
vn 0.49043920636177063 -0.7203702926635742 0.49044468998908997
vn -0.5000001192092896 -0.49999991059303284 -0.7071067690849304
vn 0.7071067690849304 -0.7071067690849304 8.39505560179532e-7
vn -0.7071067690849304 -0.7071067690849304 6.20504124526633e-7
vn 0.0000010370468999099103 -0.9999999403953552 6.322026706584438e-7
vn 0.0000010370468999099103 -0.9999999403953552 6.322026706584438e-7
vn 0.6001166701316833 -0.5288820266723633 0.6001197695732117
vn 2.6172872935603664e-7 -0.6855251789093018 0.7280489206314087
vn 0.4553021788597107 0.752471923828125 0.47590532898902893
vn -7.94440069284974e-8 0.6172382235527039 0.7867763042449951
vn 0.7280757427215576 -0.6854966878890991 2.6969371447194135e-7
vn 0.6001166701316833 -0.5288820266723633 0.6001197695732117
vn 0.7684716582298279 0.639883816242218 -1.7511182193175046e-7
vn 0.4553021788597107 0.752471923828125 0.47590532898902893
vn 0.000003392377038835548 -1 0.000010301242582499981
vn -0.4904420077800751 -0.720367968082428 0.4904453158378601
vn -0.49043431878089905 -0.7203837633132935 -0.4904298484325409
vn 0.3095579445362091 -0.9470396041870117 -0.08538049459457397
vn -0.00000212146301237226 -0.7800525426864624 -0.6257140040397644
vn 0.49043920636177063 -0.7203702926635742 0.49044468998908997
vn -0.0000016072862081273342 -0.8266093730926514 0.5627760291099548
vn 0.49043139815330505 -0.7203863263130188 -0.49042895436286926
vn 0.000002228308176199789 -0.7800514101982117 -0.625715434551239
vn -1.1046224557276219e-7 0.6231853365898132 0.7820741534233093
vn -0.4513600170612335 0.7574232220649719 0.47178831696510315
vn -0.7031463980674744 0.10583071410655975 0.7031251788139343
vn 0.6001166701316833 -0.5288820266723633 0.6001197695732117
vn 0.7280757427215576 -0.6854966878890991 2.6969371447194135e-7
vn 0.5984229445457458 -0.801180362701416 3.1548702850159316e-7
vn 0.45094138383865356 -0.7733243703842163 0.44566941261291504
vn 1.8957700831379043e-7 -0.8121554851531982 0.5834410786628723
vn 0.6001166701316833 -0.5288820266723633 0.6001197695732117
vn 0.45094138383865356 -0.7733243703842163 0.44566941261291504
vn 2.6172872935603664e-7 -0.6855251789093018 0.7280489206314087
vn 0.627512514591217 -0.7056595087051392 0.32904815673828125
vn 0.6147927641868591 -0.7886887192726135 3.1153962254393264e-7
vn 0.7798892855644226 -0.44442757964134216 0.4407457411289215
vn 0.36692187190055847 -0.5810084342956543 0.7264967560768127
vn 0.43462666869163513 -0.769605278968811 0.46776852011680603
vn 0.7798892855644226 -0.44442757964134216 0.4407457411289215
vn 0.6595004796981812 -0.40292298793792725 0.6345961093902588
vn -0.007249992340803146 -0.7967573404312134 0.6042558550834656
vn 0.7637518048286438 0.6455100178718567 -1.279256025554787e-7
vn 0.4553021788597107 0.752471923828125 0.47590532898902893
vn 0.4513601064682007 0.7574232220649719 0.471788227558136
vn 0.7684716582298279 0.639883816242218 -1.7511182193175046e-7
vn 0.4513601064682007 0.7574232220649719 0.471788227558136
vn -7.94440069284974e-8 0.6172382235527039 0.7867763042449951
vn -0.000007823879968782421 0.6231617331504822 0.7820930480957031
vn 0.4553021788597107 0.752471923828125 0.47590532898902893
vn 0.997194766998291 0.07485014945268631 -0.0000017891134120873176
vn 0.7031437158584595 0.10578958690166473 0.7031340599060059
vn 0.7031437158584595 0.10578958690166473 0.7031340599060059
vn -0.000012814665751648135 0.07517816871404648 0.997170090675354
vn 0.04117216914892197 -0.9991520643234253 3.9466468138016353e-7
vn 0.022746630012989044 -0.766448438167572 0.6419029235839844
vn 0.627512514591217 -0.7056595087051392 0.32904815673828125
vn 0.6147927641868591 -0.7886887192726135 3.1153962254393264e-7
vn 0.00047535859630443156 -0.5807811617851257 0.8140596151351929
vn 0.36692187190055847 -0.5810084342956543 0.7264967560768127
vn 0.9505623579025269 -0.3100014626979828 0.018175577744841576
vn 0.37334591150283813 -0.9276221394538879 0.011402005329728127
vn 0.43462666869163513 -0.769605278968811 0.46776852011680603
vn 0.6595004796981812 -0.40292298793792725 0.6345961093902588
vn -0.011042790487408638 -0.9999260306358337 0.005097863730043173
vn -0.007249992340803146 -0.7967573404312134 0.6042558550834656
vn 0.5827316641807556 -0.8117116689682007 -0.039344288408756256
vn 0.9713259935379028 -0.2377515286207199 0.0002681411860976368
vn -0.011029987595975399 -0.9987666010856628 -0.04841039329767227
vn -0.6001166701316833 -0.5288820266723633 0.6001197695732117
vn -0.5984306335449219 -0.8011745810508728 -6.300586505858519e-7
vn -0.7280757427215576 -0.6854966878890991 2.696936860502319e-7
vn -0.45094481110572815 -0.7733214497566223 0.44567108154296875
vn -0.00000855894268170232 -0.8121277093887329 0.5834797024726868
vn -0.45094481110572815 -0.7733214497566223 0.44567108154296875
vn -0.6001166701316833 -0.5288820266723633 0.6001197695732117
vn 0 -0.6855251789093018 0.7280489206314087
vn -0.6275932788848877 -0.7056037783622742 0.3290136158466339
vn -0.6149104237556458 -0.7885969877243042 -6.600786832677841e-7
vn -0.7798911333084106 -0.44443652033805847 0.4407334327697754
vn -0.3669649064540863 -0.5810120105743408 0.7264721989631653
vn -0.43474847078323364 -0.7695627808570862 0.4677252769470215
vn -0.6595098972320557 -0.4029422700405121 0.6345740556716919
vn -0.7798911333084106 -0.44443652033805847 0.4407334327697754
vn 0.007049270905554295 -0.7967371940612793 0.6042848229408264
vn -0.7637504935264587 0.6455115675926208 1.2792591519428242e-7
vn -0.4513600170612335 0.7574232220649719 0.47178831696510315
vn -0.4553021192550659 0.752471923828125 0.4759054183959961
vn -0.768471360206604 0.6398841738700867 -1.7511193561858818e-7
vn -1.0200110978075827e-7 0.6172385215759277 0.7867761254310608
vn -0.4553021192550659 0.752471923828125 0.4759054183959961
vn -0.997194766998291 0.07485021650791168 -8.872723924469028e-7
vn -0.7031463980674744 0.10583071410655975 0.7031251788139343
vn -1.4865296549260165e-8 0.07523778080940247 0.9971656203269958
vn -0.6275932788848877 -0.7056037783622742 0.3290136158466339
vn -0.6149104237556458 -0.7885969877243042 -6.600786832677841e-7
vn -0.3669649064540863 -0.5810120105743408 0.7264721989631653
vn -0.9505642056465149 -0.30999574065208435 0.018175795674324036
vn -0.43474847078323364 -0.7695627808570862 0.4677252769470215
vn -0.37355732917785645 -0.9275370240211487 0.011401113122701645
vn -0.6595098972320557 -0.4029422700405121 0.6345740556716919
vn 0.007049270905554295 -0.7967371940612793 0.6042848229408264
vn 0.010737570002675056 -0.9999293684959412 0.0050979494117200375
vn -0.5828579664230347 -0.8116212487220764 -0.039339032024145126
vn -0.9713248610496521 -0.23775610327720642 0.00026766263181343675
vn 0.010725120082497597 -0.9987699389457703 -0.048410557210445404
vt 1.1916277408599854 0.9600470066070557
vt 1.8083728551864624 1.9989964962005615
vt 1.1916277408599854 1.9989986419677734
vt 0.001499176025390625 1.9989964962005615
vt 1.0007495880126953 0.9999995827674866
vt 1.0007495880126953 1.99899822473526
vt 2 1.9989999532699585
vt 1.000749945640564 1
vt 1.0007498264312744 1.9989985823631287
vt 0.0014998018741607666 1.999000906944275
vt 2 1.9989962577819824
vt 1.500000238418579 0.9999977350234985
vt 1.5000001192092896 0.0009990930557250977
vt 2.689051628112793 0.000999152660369873
vt 0.3109484910964966 0.0009990334510803223
vt 2 0.0009992718696594238
vt 2 0.9600470662117004
vt 1.0007495880126953 0.48052310943603516
vt 2 0.0009990930557250977
vt 0.3109486699104309 1.9989962577819824
vt 1.1916277408599854 0.0009990334510803223
vt 1.8083728551864624 0.9600470066070557
vt 0.001499176025390625 0.000999152660369873
vt 1.808372974395752 0.0009990930557250977
vt 0.0014998018741607666 0.9600470066070557
vt 0.0014998018741607666 0.0009992122650146484
vt 1.0007498264312744 0.4805230498313904
vt 2.689051628112793 1.9989964962005615
vt 1.5000001192092896 1.998996376991272
vt 1.0007495880126953 0.0009992122650146484
vt 0.001499265432357788 1.9989962577819824
vt 0.001499086618423462 0.0009990930557250977
vt 2.9985013008117676 0.000999152660369873
vt 2.9985013008117676 1.9989964962005615
vt 1.000749945640564 0.000999152660369873
vt 6.944123268127441 9.526485443115234
vt 6.104915142059326 9.526485443115234
vt 6.944123268127441 9.367982864379883
vt 7.783331871032715 9.526485443115234
vt 6.944123268127441 6.456297397613525
vt 7.783331394195557 6.456296920776367
vt 6.944123268127441 6.614800453186035
vt 6.104915142059326 6.456297874450684
vt 6.944123268127441 6.773303508758545
vt 6.104915142059326 6.773303985595703
vt 6.944123268127441 7.224395751953125
vt 7.783331394195557 6.773303031921387
vt 6.944123268127441 7.991391181945801
vt 6.944123268127441 9.209479331970215
vt 6.524518966674805 8.600435256958008
vt 6.104915142059326 9.209479331970215
vt 6.104915142059326 8.307294845581055
vt 6.944123268127441 7.540298938751221
vt 7.783331871032715 9.209479331970215
vt 6.104915142059326 7.675488471984863
vt 7.363727569580078 7.382347106933594
vt 7.783331871032715 7.991391181945801
vt 7.363727569580078 8.600435256958008
vt 3.5579123497009277 1.998999834060669
vt 3.5579123497009277 0.9600468873977661
vt 3.082477569580078 0.9600468873977661
vt 3.082477569580078 1.998999834060669
vt 0.03734290599822998 1.9990010261535645
vt 0.03734290599822998 0.9600469470024109
vt -0.4380917549133301 0.9600470066070557
vt 0.03734290599822998 0.0009990930557250977
vt -0.4380917549133301 0.0009990930557250977
vt 3.5579123497009277 0.0009989738464355469
vt 3.082477569580078 0.0009990334510803223
vt -0.4380917549133301 1.9990010261535645
vt 0.949999988079071 1.0640052556991577
vt 1 1.4734991788864136
vt 0.8999999761581421 2.004366874694824
vt 1.110866665840149 2.8339316844940186
vt 1.1108665466308594 1.499999761581421
vt 1.0489544868469238 1.4855637550354004
vt 0.5000001192092896 0.6291239857673645
vt 0.7332038283348083 0.5812727808952332
vt 1.1093906164169312 0.9995003938674927
vt 1.063003420829773 0.24106353521347046
vt 0.9309043288230896 0.44500404596328735
vt -0.10939056426286697 0.999496340751648
vt 0.2667964696884155 0.5812728404998779
vt 0.6965393424034119 1.4999999403953552
vt 0.6965395212173462 2.9985013008117676
vt 0.9870425462722778 2.8628034591674805
vt -0.10939056426286697 0.0004996657371520996
vt -0.06300334632396698 0.24106383323669434
vt 0.06909593194723129 0.44500434398651123
vt 0.8417908549308777 1.4321510195732117
vt 0.9870423078536987 0.137195885181427
vt 0.6965391635894775 0.0014986395835876465
vt 0.05207453668117523 1.5000001192092896
vt 0.10364937782287598 0.0014993548393249512
vt 0.0004995465278625488 0.0014994144439697266
vt 0.000499725341796875 2.9985010623931885
vt 0.10364952683448792 2.9985008239746094
vt 1.1093906164169312 0.000499427318572998
vt 1.1093906164169312 0.9994992017745972
vt 1.063003420829773 0.24106383323669434
vt 0.13300059735774994 0.9995004534721375
vt 0.13300059735774994 0.0004996061325073242
vt 0.8669994473457336 0.9995004534721375
vt 0.8669994473457336 0.0004996061325073242
vt 0.13300059735774994 0.9995003938674927
vt 0.13300059735774994 0.0004994869232177734
vt 0.8669994473457336 0.9995004534721375
vt 0.8669994473457336 0.0004996061325073242
vt 0.5000002980232239 0.629124641418457
vt 0.7332038283348083 0.5812734365463257
vt 0.9479254484176636 1.4999994039535522
vt 0.896350622177124 2.998500347137451
vt 0.9995004534721375 2.998500347137451
vt 0.9995002746582031 0.0014982819557189941
vt 0.8963505029678345 0.0014984607696533203
vt 0.8999999761581421 0.006365597248077393
vt 0.8999999761581421 1.0053663849830627
vt 1 1.4734992980957031
vt 0.8999999761581421 2.0043671131134033
vt 0.10364945232868195 1.5000001192092896
vt 1.1093904972076416 0.0004994869232177734
vt 0.9870424270629883 1.4999996423721313
vt 1 0.12364357709884644
vt 1.1131532192230225 0.14973855018615723
vt 1.1131532192230225 1.4474048614501953
vt 1.1184325218200684 1.888625979423523
vt 1.118432641029358 2.8339319229125977
vt 1 2.8628039360046387
vt 1 1.8886263370513916
vt 1.1184285879135132 1.1113731861114502
vt 0.8999999761581421 0.006365060806274414
vt 1.1131532192230225 1.4474049806594849
vt 1.1131532192230225 0.14973914623260498
vt 1 0.12364405393600464
vt 1.1184364557266235 0.16606831550598145
vt 1 1.1113736629486084
vt 1 0.13719618320465088
vt 0.8980274796485901 2.9985013008117676
vt 0.8980290293693542 1.8886263370513916
vt 0.8980294466018677 1.1113736629486084
vt 0.8980310559272766 0.0014986395835876465
vt 0.9309042692184448 0.44500458240509033
vt -0.10939056426286697 0.999500572681427
vt 0.2667964696884155 0.5812734961509705
vt -0.10939060151576996 0.0004996657371520996
vt -0.06300342082977295 0.24106407165527344
vt 1.1108664274215698 0.16606783866882324
vt 0.06909604370594025 0.44500482082366943
vt 0.0004996359348297119 1.500000238418579
vt 0.9995003938674927 1.4999992847442627
vt 0.8999999761581421 1.0053659677505493
vt 0.8963505625724792 1.4999994039535522
vt 0.8884615898132324 0.9995004534721375
vt 0.11153845489025116 0.9995003938674927
vt 0.8884615898132324 0.0004996657371520996
vt 0.11153845489025116 0.0004996061325073242
vt 0.8884615898132324 0.9995003938674927
vt 0.11153845489025116 0.9995004534721375
vt 0.8884615898132324 0.0004996061325073242
vt 0.11153845489025116 0.0004996657371520996
vt 1.4999994039535522 2.499999761581421
vt 0.001499086618423462 4.997502326965332
vt 2.998500108718872 4.997501850128174
vt 1.4999994039535522 1.6150580644607544
vt 2.9985015392303467 1.7723788022994995
vt 0.0014987289905548096 0.002497553825378418
vt 0.0014989078044891357 2.4999998807907104
vt 2.9984989166259766 0.002497434616088867
vt 2.998500108718872 3.22761869430542
vt 1.00141441822052 0.5
vt 0.015444397926330566 0.5
vt 0.020383715629577637 0
vt 0.5462943315505981 0
vt 0.0004995465278625488 0
vt 0.0004996359348297119 0.11644190549850464
vt 0.8265606760978699 0.38214290142059326
vt 0.001739591360092163 0.1637488603591919
vt 0.5506724715232849 0.0004995465278625488
vt 0.8685058951377869 0.16125571727752686
vt 0.0004995167255401611 0.002081751823425293
vt 0.5441105961799622 0.5437406301498413
vt 0.0004991888999938965 0.5437401533126831
vt 1.003446102142334 1.0019155740737915
vt 0.7209956645965576 1.0019155740737915
vt 0.5632108449935913 0.38064372539520264
vt 0.9995005130767822 0.9984756708145142
vt 0.6431374549865723 0.9995005130767822
vt 0.001932770013809204 0.3935889005661011
vt 0.0004990994930267334 0.5
vt 0.7307606935501099 1.0169082880020142
vt 0.9816528558731079 0.5
vt 0.020235031843185425 1.0169082880020142
vt 0.990963339805603 0.5
vt 0.09440629184246063 1.0169082880020142
vt 0.07384379208087921 0.5
vt 0.7401939630508423 1.0169082880020142
vt 0.000500023365020752 0
vt 0.9994984269142151 0
vt 0.986024022102356 0
vt 0.07384379208087921 0
vt 1.5 0.004188418388366699
vt 1.5 0.5389999747276306
vt 0.0009989738464355469 0.5389999747276306
vt 0.0013622045516967773 0.004188418388366699
vt 1.5 1
vt 0.05598592758178711 1
vt 0.9166205525398254 0.9938656091690063
vt 0.9166205525398254 0.3880000114440918
vt 0.0009992718696594238 0.3880000114440918
vt 0.0829048752784729 0.9938656091690063
vt 0.9166207313537598 0
vt 0.002016127109527588 0
vt 1.999000072479248 0.3880000114440918
vt 1.999000072479248 0.9995004534721375
vt 1.999000072479248 0
vt 0.4460393190383911 0.005160093307495117
vt 0.9985077977180481 0.40591686964035034
vt 0.9927836060523987 0.0004994869232177734
vt 0.1710098385810852 0.4129711985588074
vt 0.9982607960700989 0.4001426696777344
vt 0.12943872809410095 0.39757239818573
vt 0.44227904081344604 0.0004997849464416504
vt 0.9995002746582031 0.002147674560546875
vt 0.45457154512405396 0.5575445890426636
vt 0.9991278052330017 0.5529020428657532
vt 0.00012683868408203125 0.9836406707763672
vt 0.2836880683898926 0.9995003938674927
vt 0.4299177825450897 0.5518614053726196
vt 0.35124287009239197 0.9995007514953613
vt 0.0004992485046386719 0.9984630346298218
vt 0.9980687499046326 0.5648791790008545
vt 0.0005016624927520752 0.5
vt 0.981654942035675 0.5
vt 0.7307621240615845 1.0169082880020142
vt 0.020236819982528687 1.0169082880020142
vt 0.9982943534851074 1.0169082880020142
vt 0.30847129225730896 1.0169082880020142
vt 0.0005016624927520752 0
vt 0.999500036239624 0
vt 1.00141441822052 0
vt 3 0.5389999747276306
vt 3 0.004188418388366699
vt 3 1
vt 0.9166216850280762 0.993864893913269
vt 0.0010009407997131348 0.3880000114440918
vt 0.9166216850280762 0.3880000114440918
vt 0.08290624618530273 0.993864893913269
vt 0.002017974853515625 0
vt 0.9166223406791687 0
vt 1.9990007877349854 0.3880000114440918
vt 1.9990007877349854 0.9994997382164001
vt 1.9990010261535645 0
g Warrior_Left0
s 1
f 1/1/1 2/2/2 3/3/3
f 4/4/4 5/5/5 6/6/6
f 6/6/6 5/5/5 7/7/7
f 8/8/8 9/9/9 10/10/10
f 8/8/8 11/11/11 9/9/9
f 12/12/12 13/13/13 14/14/14
f 12/12/12 15/15/15 13/13/13
f 16/16/16 17/17/17 18/18/18
f 19/19/19 11/11/11 8/8/8
f 20/20/20 15/15/15 12/12/12
f 1/1/1 21/21/21 22/22/22
f 22/22/22 2/2/2 1/1/1
f 5/5/5 23/23/23 18/18/18
f 5/5/5 18/18/18 17/17/17
f 22/22/22 21/21/21 24/24/24
f 25/25/25 26/26/26 27/27/27
f 7/7/7 5/5/5 17/17/17
f 4/4/4 23/23/23 5/5/5
f 14/14/14 28/28/28 12/12/12
f 12/12/12 28/28/28 29/29/29
f 30/30/30 18/18/18 23/23/23
f 16/16/16 18/18/18 30/30/30
f 12/12/12 29/29/29 20/20/20
f 8/8/8 10/10/10 25/25/25
f 31/31/31 32/32/32 15/15/15
f 15/15/15 20/20/20 31/31/31
f 33/33/33 34/34/34 28/28/28
f 28/28/28 14/14/14 33/33/33
f 27/27/27 26/26/26 35/35/35
f 27/27/27 35/35/35 19/19/19
f 19/19/19 8/8/8 27/27/27
f 27/27/27 8/8/8 25/25/25
g Warrior_Left1
s 1
f 36/36/36 37/37/37 38/38/38
f 39/39/39 36/36/36 38/38/38
f 40/40/40 41/41/41 42/42/42
f 43/43/43 40/40/40 42/42/42
f 44/44/44 45/45/45 42/42/42
f 46/46/46 44/44/44 47/47/47
f 46/46/46 45/45/45 44/44/44
f 48/48/48 49/49/49 50/50/50
f 50/50/50 49/49/49 51/51/51
f 50/50/50 51/51/51 52/52/52
f 48/48/48 50/50/50 52/52/52
f 52/52/52 46/46/46 53/53/53
f 53/53/53 46/46/46 47/47/47
f 53/53/53 48/48/48 52/52/52
f 49/49/49 54/54/54 38/38/38
f 51/51/51 49/49/49 38/38/38
f 42/42/42 41/41/41 47/47/47
f 42/42/42 45/45/45 43/43/43
f 38/38/38 37/37/37 51/51/51
f 38/38/38 54/54/54 39/39/39
f 52/52/52 55/55/55 46/46/46
f 55/55/55 45/45/45 46/46/46
f 47/47/47 44/44/44 42/42/42
f 56/56/56 48/48/48 53/53/53
f 47/47/47 56/56/56 53/53/53
f 47/47/47 57/57/57 56/56/56
f 56/56/56 57/57/57 48/48/48
f 57/57/57 58/58/58 48/48/48
f 57/57/57 54/54/54 58/58/58
f 58/58/58 54/54/54 49/49/49
f 48/48/48 58/58/58 49/49/49
g Warrior_Left2
s 1
f 59/59/59 60/60/60 61/61/61
f 61/61/61 62/62/62 59/59/59
f 63/63/63 64/64/64 65/65/65
f 64/64/64 66/66/66 67/67/67
f 67/67/67 65/65/65 64/64/64
f 60/60/60 68/68/68 69/69/69
f 69/69/69 61/61/61 60/60/60
f 65/65/65 70/70/70 63/63/63
g Warrior_Left3
s 1
f 71/71/71 72/72/72 73/73/73
f 74/74/74 75/75/75 76/76/76
f 77/77/77 78/78/78 79/79/79
f 80/80/80 79/79/79 81/81/81
f 78/78/78 81/81/81 79/79/79
f 77/77/77 82/82/82 83/83/83
f 84/84/84 85/85/85 86/86/86
f 87/87/87 88/88/88 82/82/82
f 83/83/83 82/82/82 89/89/89
f 90/90/90 91/91/91 92/92/92
f 90/90/90 84/84/84 86/86/86
f 92/92/92 84/84/84 90/90/90
f 88/88/88 89/89/89 82/82/82
f 79/79/79 82/82/82 77/77/77
f 93/93/93 94/94/94 95/95/95
f 93/93/93 96/96/96 97/97/97
f 98/98/98 99/99/99 100/100/100
f 101/101/101 102/102/102 103/103/103
f 104/104/104 103/103/103 102/102/102
f 105/105/105 106/106/106 107/107/107
f 108/108/108 107/107/107 106/106/106
f 109/109/109 110/110/110 99/99/99
f 111/111/111 112/112/112 113/113/113
f 111/111/111 114/114/114 115/115/115
f 116/116/116 117/117/117 118/118/118
f 117/117/117 119/119/119 118/118/118
f 97/97/97 120/120/120 93/93/93
f 120/120/120 94/94/94 93/93/93
f 121/121/121 79/79/79 80/80/80
f 76/76/76 122/122/122 74/74/74
f 91/91/91 122/122/122 76/76/76
f 122/122/122 91/91/91 90/90/90
f 86/86/86 122/122/122 90/90/90
f 72/72/72 123/123/123 124/124/124
f 124/124/124 125/125/125 72/72/72
f 126/126/126 127/127/127 128/128/128
f 128/128/128 129/129/129 126/126/126
f 130/130/130 126/126/126 129/129/129
f 71/71/71 131/131/131 123/123/123
f 132/132/132 133/133/133 134/134/134
f 134/134/134 118/118/118 132/132/132
f 135/135/135 130/130/130 136/136/136
f 136/136/136 137/137/137 135/135/135
f 129/129/129 128/128/128 138/138/138
f 138/138/138 139/139/139 129/129/129
f 137/137/137 136/136/136 140/140/140
f 140/140/140 141/141/141 137/137/137
f 136/136/136 129/129/129 139/139/139
f 139/139/139 140/140/140 136/136/136
f 100/100/100 99/99/99 142/142/142
f 110/110/110 142/142/142 99/99/99
f 109/109/109 143/143/143 144/144/144
f 145/145/145 146/146/146 143/143/143
f 75/75/75 147/147/147 91/91/91
f 144/144/144 143/143/143 148/148/148
f 146/146/146 148/148/148 143/143/143
f 95/95/95 149/149/149 93/93/93
f 149/149/149 96/96/96 93/93/93
f 99/99/99 143/143/143 109/109/109
f 113/113/113 150/150/150 111/111/111
f 150/150/150 114/114/114 111/111/111
f 76/76/76 75/75/75 91/91/91
f 151/151/151 131/131/131 71/71/71
f 73/73/73 151/151/151 71/71/71
f 152/152/152 112/112/112 111/111/111
f 118/118/118 134/134/134 116/116/116
f 153/153/153 154/154/154 155/155/155
f 156/156/156 155/155/155 154/154/154
f 157/157/157 158/158/158 159/159/159
f 160/160/160 159/159/159 158/158/158
f 115/115/115 152/152/152 111/111/111
f 122/122/122 86/86/86 74/74/74
f 129/129/129 136/136/136 130/130/130
f 123/123/123 72/72/72 71/71/71
g Warrior_Left4
s 1
f 161/161/161 162/162/162 163/163/163
f 164/164/164 165/165/165 166/166/166
f 167/167/167 162/162/162 161/161/161
f 166/166/166 167/167/167 161/161/161
f 165/165/165 168/168/168 166/166/166
f 169/169/169 165/165/165 164/164/164
f 164/164/164 161/161/161 169/169/169
f 166/166/166 161/161/161 164/164/164
f 161/161/161 163/163/163 169/169/169
g Warrior_Left5
s 1
f 170/170/170 171/171/171 172/172/172
f 173/173/173 174/174/174 175/175/175
f 175/175/175 176/176/176 173/173/173
f 177/177/177 178/178/178 179/179/179
f 178/178/178 177/177/177 180/180/180
f 181/181/181 175/175/175 182/182/182
f 175/175/175 181/181/181 176/176/176
f 183/183/183 181/181/181 184/184/184
f 181/181/181 183/183/183 176/176/176
f 185/185/185 186/186/186 187/187/187
f 186/186/186 185/185/185 179/179/179
f 188/188/188 179/179/179 185/185/185
f 179/179/179 188/188/188 177/177/177
f 189/189/189 190/190/190 191/191/191
f 190/190/190 189/189/189 192/192/192
f 193/193/193 194/194/194 195/195/195
f 194/194/194 193/193/193 196/196/196
f 197/197/197 191/191/191 198/198/198
f 191/191/191 197/197/197 189/189/189
f 199/199/199 195/195/195 200/200/200
f 195/195/195 199/199/199 193/193/193
f 201/201/201 202/202/202 203/203/203
f 203/203/203 204/204/204 201/201/201
f 202/202/202 205/205/205 206/206/206
f 206/206/206 203/203/203 202/202/202
f 207/207/207 208/208/208 209/209/209
f 209/209/209 210/210/210 207/207/207
f 208/208/208 211/211/211 212/212/212
f 212/212/212 209/209/209 208/208/208
f 207/207/207 213/213/213 208/208/208
f 213/213/213 207/207/207 214/214/214
f 208/208/208 215/215/215 211/211/211
f 215/215/215 208/208/208 213/213/213
f 216/216/216 217/217/217 218/218/218
f 217/217/217 216/216/216 219/219/219
f 220/220/220 221/221/221 222/222/222
f 222/222/222 223/223/223 220/220/220
f 224/224/224 225/225/225 217/217/217
f 217/217/217 219/219/219 224/224/224
f 226/226/226 227/227/227 224/224/224
f 224/224/224 219/219/219 226/226/226
f 228/228/228 229/229/229 230/230/230
f 230/230/230 221/221/221 228/228/228
f 231/231/231 228/228/228 221/221/221
f 221/221/221 220/220/220 231/231/231
f 232/232/232 233/233/233 234/234/234
f 234/234/234 235/235/235 232/232/232
f 171/171/171 170/170/170 236/236/236
f 236/236/236 237/237/237 171/171/171
f 238/238/238 239/239/239 233/233/233
f 233/233/233 232/232/232 238/238/238
f 172/172/172 240/240/240 170/170/170
f 201/201/201 241/241/241 202/202/202
f 241/241/241 201/201/201 242/242/242
f 202/202/202 243/243/243 205/205/205
f 243/243/243 202/202/202 241/241/241
f 244/244/244 245/245/245 246/246/246
f 245/245/245 244/244/244 247/247/247
f 246/246/246 248/248/248 249/249/249
f 248/248/248 246/246/246 245/245/245
f 244/244/244 246/246/246 250/250/250
f 250/250/250 251/251/251 244/244/244
f 246/246/246 249/249/249 252/252/252
f 252/252/252 250/250/250 246/246/246
