# Exported using wow.export v0.2.19
o 21138_WB01.obj
v -152.0783233642578 1.9825352430343628 -201.56524658203125
v -152.0783233642578 1.4491181373596191 -202.35748291015625
v -146.56600952148438 1.4144437313079834 -202.35748291015625
v -141.05313110351562 1.9825358390808105 -201.56524658203125
v -146.56600952148438 2.491062641143799 -200.7730255126953
v -157.59063720703125 1.4837926626205444 -202.3574981689453
v -135.54026794433594 2.8185513019561768 -199.92227172851562
v -141.05313110351562 2.6548070907592773 -200.34765625
v -141.05313110351562 2.520845413208008 -200.7730255126953
v -135.54026794433594 2.5506279468536377 -200.7730255126953
v -135.54026794433594 1.4837931394577026 -202.3574981689453
v -152.0783233642578 0.6434811353683472 -202.9376220703125
v -146.56600952148438 2.7614452838897705 -199.92225646972656
v -152.0783233642578 2.654806613922119 -200.34765625
v -152.0783233642578 2.5208446979522705 -200.7730255126953
v -157.59063720703125 2.8185503482818604 -199.9222869873047
v -141.05313110351562 1.4491183757781982 -202.35748291015625
v -157.59063720703125 2.550626754760742 -200.7730255126953
v -141.05313110351562 0.6434813737869263 -202.9376220703125
v -151.6005401611328 -2.09745717048645 -193.95729064941406
v -151.0919952392578 -0.19683091342449188 -194.46580505371094
v -151.0919952392578 -0.19683033227920532 -193.95729064941406
v -135.54026794433594 1.4837939739227295 -195.62608337402344
v -140.16253662109375 1.9874287843704224 -196.41830444335938
v -135.54026794433594 2.550628900527954 -197.21054077148438
v -152.0783233642578 -1.1051464080810547 -203.7720184326172
v -152.0783233642578 -2.1518959999084473 -204.02627563476562
v -146.56600952148438 -2.097456216812134 -204.02627563476562
v -144.7847900390625 2.4910635948181152 -197.2105255126953
v -143.20033264160156 1.414443850517273 -195.62606811523438
v -157.59063720703125 -2.2063357830047607 -204.0262908935547
v -149.9317169189453 1.414444088935852 -195.62606811523438
v -149.93174743652344 1.4144432544708252 -193.95729064941406
v -157.59063720703125 1.483792781829834 -195.62608337402344
v -157.59063720703125 2.5506279468536377 -197.21054077148438
v -152.96896362304688 1.9874285459518433 -196.41830444335938
v -141.05313110351562 -1.1051459312438965 -203.7720184326172
v -141.05313110351562 -2.151895523071289 -204.02627563476562
v -135.54026794433594 -2.2063348293304443 -204.0262908935547
v -148.34727478027344 2.4910643100738525 -197.2105255126953
v -149.9317169189453 1.414444088935852 -195.62606811523438
v -135.54026794433594 -0.11283747106790543 -194.4658203125
v -139.37030029296875 0.6508031487464905 -195.0459442138672
v -142.04006958007812 -0.19683095812797546 -194.46580505371094
v -148.34727478027344 2.491063117980957 -193.95729064941406
v -157.59063720703125 -0.11283794045448303 -194.4658203125
v -153.76116943359375 0.6508030891418457 -195.0459442138672
v -151.0919952392578 -0.19683091342449188 -194.46580505371094
v -135.54026794433594 -2.1887176036834717 -193.95729064941406
v -138.7901611328125 -1.1927742958068848 -194.2115478515625
v -141.5315399169922 -2.09745717048645 -193.95729064941406
v -154.34130859375 -1.1927745342254639 -194.2115478515625
v -157.59063720703125 -2.18871808052063 -193.95729064941406
v -151.6005401611328 -2.09745717048645 -193.95729064941406
v -148.34727478027344 2.4910643100738525 -197.2105255126953
v -147.49652099609375 2.761446237564087 -198.061279296875
v -147.4965362548828 2.761443614959717 -193.95729064941406
v -145.6355438232422 2.761446237564087 -198.061279296875
v -144.7847900390625 2.4910635948181152 -197.2105255126953
v -144.7847900390625 2.4910624027252197 -193.95729064941406
v -145.6355438232422 2.761446237564087 -198.061279296875
v -140.58790588378906 2.6560375690460205 -197.6359100341797
v -145.63555908203125 2.7614426612854004 -193.95729064941406
v -135.54026794433594 2.818554401397705 -198.06130981445312
v -147.49652099609375 2.761446237564087 -198.061279296875
v -152.5435791015625 2.6560370922088623 -197.6359100341797
v -157.59063720703125 -0.11283677071332932 -203.51776123046875
v -141.05313110351562 2.7899982929229736 -199.92227172851562
v -157.59063720703125 2.8185532093048096 -198.06130981445312
v -141.5315399169922 -2.09745717048645 -193.95729064941406
v -142.0400848388672 -0.196829155087471 -193.95729064941406
v -142.04006958007812 -0.19683095812797546 -194.46580505371094
v -146.56600952148438 -0.1968303918838501 -203.5177459716797
v -141.05313110351562 -0.15483304858207703 -203.51776123046875
v -135.54026794433594 -0.11283571273088455 -203.51776123046875
v -143.20033264160156 1.4144432544708252 -193.95729064941406
v -152.0783233642578 -0.15483358502388 -203.51776123046875
v -143.20033264160156 1.414443850517273 -195.62606811523438
v -152.5435791015625 2.7899997234344482 -198.06129455566406
v -140.58790588378906 2.7900004386901855 -198.06129455566406
v -153.76116943359375 1.4491183757781982 -195.62606811523438
v -139.37030029296875 1.4491188526153564 -195.62606811523438
v -152.96896362304688 2.520846128463745 -197.21054077148438
v -140.16253662109375 2.520846366882324 -197.21054077148438
v -152.0783233642578 2.7899978160858154 -199.92227172851562
v -146.56600952148438 -5.709209442138672 -203.20803833007812
v -141.05313110351562 -4.161799907684326 -203.27816772460938
v -146.56600952148438 -2.4047060012817383 -203.34828186035156
v -135.54026794433594 -2.6143906116485596 -203.34829711914062
v -135.54026794433594 -5.640687942504883 -203.1610870361328
v -152.0783233642578 -4.161800384521484 -203.27816772460938
v -157.59063720703125 -2.614391803741455 -203.34829711914062
v -157.59063720703125 -5.640682220458984 -203.16110229492188
v -142.2095184326172 -2.4047067165374756 -194.63526916503906
v -138.87489318847656 -4.056956768035889 -194.7053985595703
v -142.34976196289062 -5.709208965301514 -194.7755126953125
v -135.54026794433594 -5.709206581115723 -194.77552795410156
v -135.54026794433594 -2.5858187675476074 -194.63528442382812
v -157.59063720703125 -5.709206581115723 -194.77552795410156
v -154.18646240234375 -5.709207534790039 -194.7755126953125
v -154.18646240234375 -10.48126220703125 -194.7755126953125
v -157.59063720703125 -2.5858192443847656 -194.63528442382812
v -154.256591796875 -4.056957244873047 -194.7053985595703
v -146.56600952148438 -2.4047060012817383 -203.34828186035156
v -146.56600952148438 -2.097456216812134 -204.02627563476562
v -152.0783233642578 -2.1518959999084473 -204.02627563476562
v -141.05313110351562 -2.151895523071289 -204.02627563476562
v -157.59063720703125 -2.2063357830047607 -204.0262908935547
v -157.59063720703125 -2.614391803741455 -203.34829711914062
v -152.0783233642578 -2.5095489025115967 -203.34829711914062
v -152.0783233642578 -2.5095489025115967 -203.34829711914062
v -135.54026794433594 -2.2063348293304443 -204.0262908935547
v -141.05313110351562 -2.5095481872558594 -203.34829711914062
v -135.54026794433594 -2.6143906116485596 -203.34829711914062
v -141.05313110351562 -2.5095481872558594 -203.34829711914062
v -150.92254638671875 -2.4047060012817383 -193.95729064941406
v -150.7823028564453 -5.709210395812988 -193.95729064941406
v -150.7823028564453 -5.709208965301514 -194.7755126953125
v -150.92254638671875 -2.404707431793213 -194.63526916503906
v -141.05313110351562 -5.674948692321777 -203.1845703125
v -146.56600952148438 -5.709209442138672 -203.20803833007812
v -143.2027130126953 -6.293593883514404 -203.1610870361328
v -141.05313110351562 -5.674948692321777 -203.1845703125
v -152.0783233642578 -5.674945831298828 -203.1845703125
v -149.7167205810547 -6.293593883514404 -203.1610870361328
v -152.0783233642578 -5.674945831298828 -203.1845703125
v -141.5315399169922 -2.09745717048645 -193.95729064941406
v -138.87489318847656 -2.495262622833252 -194.63528442382812
v -151.6005401611328 -2.09745717048645 -193.95729064941406
v -150.92254638671875 -2.404707431793213 -194.63526916503906
v -154.256591796875 -2.4952633380889893 -194.63528442382812
v -138.94500732421875 -10.481260299682617 -194.7755126953125
v -142.34976196289062 -15.253317832946777 -194.7755126953125
v -142.34976196289062 -10.481263160705566 -194.7755126953125
v -142.3497772216797 -5.709210395812988 -193.95729064941406
v -142.34976196289062 -5.709208965301514 -194.7755126953125
v -142.34976196289062 -10.481264114379883 -194.7755126953125
v -135.54026794433594 -15.253313064575195 -194.77552795410156
v -138.94500732421875 -15.253314971923828 -194.7755126953125
v -135.54026794433594 -10.481260299682617 -194.77552795410156
v -138.94500732421875 -5.709207534790039 -194.7755126953125
v -157.59063720703125 -15.253315925598145 -194.77552795410156
v -157.59063720703125 -10.481261253356934 -194.77552795410156
v -150.7823028564453 -15.253317832946777 -194.7755126953125
v -154.18646240234375 -15.253316879272461 -194.7755126953125
v -150.7823028564453 -5.709208965301514 -194.7755126953125
v -150.7823028564453 -10.481264114379883 -194.7755126953125
v -150.7823028564453 -15.253317832946777 -193.95726013183594
v -150.7823028564453 -15.253317832946777 -194.7755126953125
v -150.7823028564453 -10.481263160705566 -194.7755126953125
v -151.6005401611328 -2.09745717048645 -193.95729064941406
v -142.2095489501953 -2.4047069549560547 -193.95729064941406
v -142.2095184326172 -2.4047067165374756 -194.63526916503906
v -141.5315399169922 -2.09745717048645 -193.95729064941406
v -157.59063720703125 -2.18871808052063 -193.95729064941406
v -142.34976196289062 -10.481264114379883 -194.36639404296875
v -142.3497772216797 -10.481264114379883 -193.957275390625
v -142.3497772216797 -15.253317832946777 -193.95726013183594
v -150.7823028564453 -10.481264114379883 -194.36639404296875
v -150.7823028564453 -10.481264114379883 -193.957275390625
v -135.54026794433594 -2.1887176036834717 -193.95729064941406
v -142.34976196289062 -15.253317832946777 -194.7755126953125
v -152.0783233642578 -2.305521011352539 -203.68728637695312
v -141.05313110351562 -2.305520534515381 -203.68728637695312
v -153.6536865234375 -5.967138290405273 -203.16110229492188
v -157.59063720703125 -5.640682220458984 -203.16110229492188
v -135.54026794433594 -5.640687942504883 -203.1610870361328
v -139.37149047851562 -5.967141151428223 -203.1610870361328
v -145.69586181640625 2.3782765865325928 -198.12161254882812
v -140.61807250976562 2.5984153747558594 -198.09146118164062
v -140.58790588378906 2.7900004386901855 -198.06129455566406
v -141.0531463623047 2.408571481704712 -198.99179077148438
v -146.56602478027344 2.3782756328582764 -199.86195373535156
v -141.0531463623047 2.408571243286133 -199.86196899414062
v -152.07833862304688 2.4085707664489746 -198.99179077148438
v -152.07833862304688 2.4085707664489746 -199.86196899414062
v -146.56600952148438 2.7614452838897705 -199.92225646972656
v -146.56602478027344 2.3782756328582764 -199.86195373535156
v -152.07833862304688 2.4085707664489746 -199.86196899414062
v -135.54026794433594 2.4388673305511475 -198.12161254882812
v -140.61807250976562 2.40857195854187 -198.12161254882812
v -145.69586181640625 2.3782765865325928 -198.12161254882812
v -135.54026794433594 2.818554401397705 -198.06130981445312
v -140.61807250976562 2.40857195854187 -198.12161254882812
v -135.54026794433594 2.4388673305511475 -198.12161254882812
v -147.4362030029297 2.3782761096954346 -198.12161254882812
v -152.513427734375 2.408571243286133 -198.12161254882812
v -157.59063720703125 2.438866138458252 -198.1216278076172
v -157.59063720703125 2.8185532093048096 -198.06130981445312
v -157.59063720703125 2.438866138458252 -198.1216278076172
v -152.513427734375 2.408571243286133 -198.12161254882812
v -145.6355438232422 2.761446237564087 -198.061279296875
v -147.4362030029297 2.3782761096954346 -198.12161254882812
v -147.49652099609375 2.761446237564087 -198.061279296875
v -152.5435791015625 2.7899997234344482 -198.06129455566406
v -147.49652099609375 2.761446237564087 -198.061279296875
v -147.4362030029297 2.3782761096954346 -198.12161254882812
v -147.43621826171875 2.378274440765381 -193.95729064941406
v -145.63555908203125 2.7614426612854004 -193.95729064941406
v -145.6958770751953 2.378274440765381 -193.95729064941406
v -145.69586181640625 2.3782765865325928 -198.12161254882812
v -152.0783233642578 2.6001553535461426 -199.89212036132812
v -152.0783233642578 2.7899978160858154 -199.92227172851562
v -157.59063720703125 2.8185503482818604 -199.9222869873047
v -141.05313110351562 2.600156307220459 -199.89212036132812
v -141.05313110351562 2.7899982929229736 -199.92227172851562
v -135.54026794433594 2.8185513019561768 -199.92227172851562
v -147.4362030029297 2.3782761096954346 -198.12161254882812
v -145.69586181640625 2.3782765865325928 -198.12161254882812
v -145.6958770751953 2.378274440765381 -193.95729064941406
v -147.43621826171875 2.378274440765381 -193.95729064941406
v -152.513427734375 2.598414659500122 -198.09146118164062
v -145.6355438232422 2.761446237564087 -198.061279296875
v -157.59063720703125 2.4388656616210938 -199.86196899414062
v -135.54026794433594 2.4388670921325684 -199.86196899414062
v -141.0531463623047 2.408571243286133 -199.86196899414062
v -147.4965362548828 2.761443614959717 -193.95729064941406
v -135.54026794433594 2.4388670921325684 -199.86196899414062
v -157.59063720703125 2.4388656616210938 -199.86196899414062
v -143.2027130126953 -6.293593883514404 -203.1610870361328
v -149.7167205810547 -6.310566425323486 -202.39889526367188
v -143.2027130126953 -6.310566425323486 -202.39889526367188
v -139.37149047851562 -6.146794319152832 -202.3153533935547
v -135.54026794433594 -5.657660007476807 -202.39889526367188
v -139.37149047851562 -5.9841132164001465 -202.39889526367188
v -149.7167205810547 -6.293593883514404 -203.1610870361328
v -153.6536865234375 -5.98411226272583 -202.39889526367188
v -153.6536865234375 -6.146793365478516 -202.31536865234375
v -157.59063720703125 -5.657658100128174 -202.39891052246094
v -143.0033721923828 -6.635929107666016 -193.95729064941406
v -142.76681518554688 -6.310566425323486 -195.5417022705078
v -143.0033721923828 -6.635929584503174 -195.6724395751953
v -142.76681518554688 -6.31056547164917 -193.95729064941406
v -139.36146545410156 -5.975625991821289 -202.77999877929688
v -153.6536865234375 -6.309474945068359 -202.2318115234375
v -157.59063720703125 -5.983020782470703 -202.23182678222656
v -135.5202178955078 -5.640685558319092 -203.1610870361328
v -149.7167205810547 -6.635929584503174 -202.2318115234375
v -143.2027130126953 -6.635929107666016 -202.2318115234375
v -142.07388305664062 -6.268280982971191 -194.73057556152344
v -142.07388305664062 -6.267849922180176 -193.95729064941406
v -135.5202178955078 -5.6153717041015625 -194.73056030273438
v -139.14352416992188 -5.962968826293945 -195.13613891601562
v -142.07388305664062 -6.268280982971191 -194.73057556152344
v -142.76681518554688 -6.310566425323486 -195.5417022705078
v -135.54026794433594 -5.657658576965332 -195.5417022705078
v -139.15353393554688 -5.984112739562988 -195.5417022705078
v -151.01258850097656 -6.268280506134033 -194.73057556152344
v -157.59063720703125 -5.657656669616699 -195.5417022705078
v -157.59063720703125 -5.615367889404297 -194.73056030273438
v -143.0033721923828 -6.635929584503174 -195.6724395751953
v -150.14474487304688 -6.310566425323486 -195.5417022705078
v -153.86769104003906 -6.146794319152832 -195.60707092285156
v -153.86769104003906 -5.984111785888672 -195.5417022705078
v -150.14474487304688 -6.31056547164917 -193.95729064941406
v -149.90821838378906 -6.635929584503174 -195.6724395751953
v -150.14474487304688 -6.310566425323486 -195.5417022705078
v -157.59063720703125 -5.9830217361450195 -195.6724395751953
v -139.37149047851562 -6.309475898742676 -202.2318115234375
v -151.01258850097656 -6.267849922180176 -193.95729064941406
v -151.01258850097656 -6.268280506134033 -194.73057556152344
v -149.90821838378906 -6.635929107666016 -193.95729064941406
v -153.6536865234375 -5.975625991821289 -202.77999877929688
v -153.74942016601562 -6.309475898742676 -195.6724395751953
v -149.90821838378906 -6.635929584503174 -195.6724395751953
v -139.27182006835938 -6.309475898742676 -195.6724395751953
v -135.54026794433594 -5.9830217361450195 -195.6724395751953
v -157.5652618408203 -5.640683650970459 -203.1610870361328
v -139.27182006835938 -6.146794319152832 -195.60707092285156
v -135.54026794433594 -5.983023166656494 -202.23182678222656
v -149.90821838378906 -6.635929584503174 -195.6724395751953
v -153.74942016601562 -6.309474945068359 -198.95213317871094
v -153.74942016601562 -6.309475898742676 -195.6724395751953
v -139.37149047851562 -6.309475898742676 -202.2318115234375
v -139.37149047851562 -6.309475421905518 -198.95211791992188
v -135.54026794433594 -5.983023166656494 -202.23182678222656
v -143.2027130126953 -6.635929107666016 -202.2318115234375
v -135.54026794433594 -5.9830217361450195 -195.6724395751953
v -139.27182006835938 -6.309475898742676 -195.6724395751953
v -146.5554656982422 -6.635929107666016 -198.95211791992188
v -146.45579528808594 -6.635929584503174 -195.6724395751953
v -143.0033721923828 -6.635929584503174 -195.6724395751953
v -146.45579528808594 -6.635929107666016 -194.8148651123047
v -146.45579528808594 -6.635929107666016 -193.95729064941406
v -143.0033721923828 -6.635929107666016 -193.95729064941406
v -149.7167205810547 -6.635929584503174 -202.2318115234375
v -157.59063720703125 -5.983020782470703 -202.23182678222656
v -157.59063720703125 -5.9830217361450195 -195.6724395751953
v -149.90821838378906 -6.635929107666016 -193.95729064941406
v -153.6536865234375 -6.309474945068359 -202.2318115234375
vn -0.0020949221216142178 -0.8194715976715088 0.5731160640716553
vn -0.002067678142338991 -0.7181692719459534 0.6958653330802917
vn -0.004135338123887777 -0.7166715264320374 0.6973986029624939
vn -0.0020949223544448614 -0.8194721937179565 0.5731150507926941
vn -0.004752076230943203 -0.8994465470314026 0.4370048940181732
vn 0 -0.7196606993675232 0.6943259239196777
vn 0.3596353232860565 -0.7588120102882385 -0.5430163741111755
vn 0.20886321365833282 -0.9759525060653687 -0.062392059713602066
vn -0.002376048592850566 -0.9002029895782471 0.4354642927646637
vn 0 -0.9009514451026917 0.43391987681388855
vn 0 -0.7196605801582336 0.6943259835243225
vn -0.0014583863085135818 -0.5835033655166626 0.8121093511581421
vn -0.0044081914238631725 -0.8510532975196838 -0.5250608325004578
vn -0.2142001986503601 -0.974800169467926 -0.06231370568275452
vn -0.002376048592850566 -0.9002024531364441 0.43546533584594727
vn -0.359631210565567 -0.7588193416595459 -0.5430088639259338
vn -0.002067678375169635 -0.7181693315505981 0.6958654522895813
vn 0 -0.9009504318237305 0.4339219927787781
vn -0.0014583863085135818 -0.5835033059120178 0.8121093511581421
vn 0.7909087538719177 0.5225368142127991 -0.31846287846565247
vn 0.5865455269813538 -0.5564814805984497 -0.5884664058685303
vn 0.9035739302635193 -0.4284322261810303 5.707593686565815e-7
vn -5.760537078458583e-7 -0.7196604609489441 -0.6943262219429016
vn -0.11798696219921112 -0.8676041960716248 -0.48305484652519226
vn 0 -0.9009509086608887 -0.43392103910446167
vn -0.0039681061170995235 0.004274371080100536 0.999983012676239
vn -0.010949760675430298 0.470023512840271 0.8825860023498535
vn -0.007188122719526291 0.42766276001930237 0.9039098024368286
vn -0.22648203372955322 -0.9457547068595886 -0.23292477428913116
vn -0.39747968316078186 -0.8238492608070374 -0.4040820300579071
vn -0.014686616137623787 0.5113204717636108 0.859264612197876
vn 0.3974786400794983 -0.8238523006439209 -0.4040769338607788
vn 0.6974049806594849 -0.7166772484779358 0.000004807146069651935
vn -0.0000030312291983136674 -0.719660222530365 -0.6943264603614807
vn 0 -0.900951087474823 -0.43392062187194824
vn 0.11798522621393204 -0.8676042556762695 -0.4830552637577057
vn -0.0039679864421486855 0.004274354781955481 0.999983012676239
vn 0.003753443481400609 0.4700484275817871 0.8826326131820679
vn 0.014686117880046368 0.5113205909729004 0.8592645525932312
vn 0.22648225724697113 -0.9457545876502991 -0.23292510211467743
vn 0.3974786400794983 -0.8238523006439209 -0.4040769338607788
vn 3.7766420746265794e-7 -0.4185328483581543 -0.9082016944885254
vn -0.21481943130493164 -0.6714508533477783 -0.7092295289039612
vn -0.5865358114242554 -0.5564824342727661 -0.5884751677513123
vn 0.43700912594795227 -0.8994570374488831 0.000004218141839373857
vn -4.561937316793774e-7 -0.41853296756744385 -0.9082016348838806
vn 0.2148190438747406 -0.6714532375335693 -0.7092273831367493
vn 0.5865455269813538 -0.5564814805984497 -0.5884664058685303
vn 0.023650184273719788 0.39334771037101746 -0.9190855622291565
vn -0.34800484776496887 -0.10085827857255936 -0.9320515990257263
vn -0.7909070253372192 0.5225349068641663 -0.31847041845321655
vn 0.34801188111305237 -0.10085824131965637 -0.9320489764213562
vn -0.0236501544713974 0.39334729313850403 -0.9190857410430908
vn 0.7909087538719177 0.5225368142127991 -0.31846287846565247
vn 0.22648225724697113 -0.9457545876502991 -0.23292510211467743
vn -0.28613045811653137 -0.9160860180854797 0.28091946244239807
vn -0.5256438255310059 -0.8507047295570374 -0.000002865929218387464
vn 0.2861306965351105 -0.9160855412483215 0.2809208631515503
vn -0.22648203372955322 -0.9457547068595886 -0.23292477428913116
vn -0.4370085597038269 -0.8994573354721069 -0.0000010968097967634094
vn 0.2861306965351105 -0.9160855412483215 0.2809208631515503
vn 0.1550189107656479 -0.984427809715271 -0.08289191126823425
vn 0.5256458520889282 -0.8507034778594971 9.973803116736235e-7
vn 0.3422757387161255 -0.77322918176651 0.5338201522827148
vn -0.28613045811653137 -0.9160860180854797 0.28091946244239807
vn -0.15501871705055237 -0.9844277501106262 -0.08289241045713425
vn -1.0788191673327674e-7 -0.4199197292327881 0.9075612425804138
vn 0.18083767592906952 -0.8195440769195557 -0.5437326431274414
vn -0.3422781527042389 -0.7732303142547607 0.5338169932365417
vn -0.7909070253372192 0.5225349068641663 -0.31847041845321655
vn -0.9035724401473999 -0.4284353256225586 -0.000012797076124115847
vn -0.5865358114242554 -0.5564824342727661 -0.5884751677513123
vn -0.0028695007786154747 -0.42843255400657654 0.903569221496582
vn -0.0014347137184813619 -0.4241812527179718 0.9055761694908142
vn 1.0787953641511194e-7 -0.4199197590351105 0.9075612425804138
vn -0.6974061727523804 -0.7166760563850403 -2.842972151029244e-7
vn -0.0014348215190693736 -0.4241812527179718 0.9055761694908142
vn -0.39747968316078186 -0.8238492608070374 -0.4040820300579071
vn -0.3176990747451782 -0.8540529012680054 0.41189923882484436
vn 0.3176979422569275 -0.8540521264076233 0.4119015336036682
vn 0.2053401917219162 -0.7973952889442444 -0.5674470663070679
vn -0.20534244179725647 -0.797393262386322 -0.567449152469635
vn 0.11459124088287354 -0.9343615174293518 -0.33739808201789856
vn -0.11459112912416458 -0.9343615174293518 -0.33739811182022095
vn -0.18517158925533295 -0.818874716758728 -0.5432823300361633
vn -0.0008064884459599853 0.04240244999527931 0.9991002678871155
vn 0.009441819041967392 0.28959837555885315 0.9571017026901245
vn -0.009869231842458248 0.6844896674156189 0.7289557456970215
vn 0.019095528870821 0.5185568928718567 0.8548298478126526
vn -0.06603390723466873 0.554565966129303 0.8295156359672546
vn -0.010274144820868969 0.2895873188972473 0.9570963978767395
vn -0.019094999879598618 0.5185414552688599 0.8548392653465271
vn 0.12690716981887817 0.550154983997345 0.8253629803657532
vn -0.5035182237625122 0.6898829340934753 -0.5201258659362793
vn -0.2859286069869995 0.41723018884658813 -0.8626493215560913
vn -0.7058306932449341 0.05991232767701149 -0.7058424353599548
vn 0 0.044856444001197815 -0.998993456363678
vn 0.026662608608603477 0.5161939263343811 -0.8560566306114197
vn 0 0.04485645145177841 -0.998993456363678
vn 0.3819209039211273 0.05668752267956734 -0.9224548935890198
vn 0.38276705145835876 0.02428124099969864 -0.9235257506370544
vn -0.026662861928343773 0.5161938667297363 -0.8560566306114197
vn 0.285932719707489 0.41723543405532837 -0.8626454472541809
vn -0.009869231842458248 0.6844896674156189 0.7289557456970215
vn -0.007188122719526291 0.42766276001930237 0.9039098024368286
vn -0.010949760675430298 0.470023512840271 0.8825860023498535
vn 0.003753443481400609 0.4700484275817871 0.8826326131820679
vn -0.014686616137623787 0.5113204717636108 0.859264612197876
vn -0.019094999879598618 0.5185414552688599 0.8548392653465271
vn -0.014561456628143787 0.6048109531402588 0.7962359189987183
vn -0.014561456628143787 0.6048109531402588 0.7962359189987183
vn 0.014686117880046368 0.5113205909729004 0.8592645525932312
vn 0.004638859536498785 0.6048758029937744 0.796306312084198
vn 0.019095528870821 0.5185568928718567 0.8548298478126526
vn 0.004638859536498785 0.6048758029937744 0.796306312084198
vn 0.8287878632545471 0.5595629811286926 0.000008587864613218699
vn 0.9991008043289185 0.0423983596265316 0.000016636020518490113
vn 0.7058426141738892 0.05990992486476898 -0.7058307528495789
vn 0.5035234093666077 0.689889132976532 -0.5201126337051392
vn -0.03472673520445824 0.31015321612358093 0.9500520825386047
vn -0.0008064884459599853 0.04240244999527931 0.9991002678871155
vn -0.004579090978950262 0.05388021841645241 0.9985368847846985
vn -0.03472673520445824 0.31015321612358093 0.9500520825386047
vn 0.06559482216835022 0.3082354664802551 0.9490460157394409
vn 0.004606317728757858 0.055392686277627945 0.9984540343284607
vn 0.06559482216835022 0.3082354664802551 0.9490460157394409
vn -0.7909070253372192 0.5225349068641663 -0.31847041845321655
vn -0.25217077136039734 0.6377975344657898 -0.7277528047561646
vn 0.7909087538719177 0.5225368142127991 -0.31846287846565247
vn 0.5035234093666077 0.689889132976532 -0.5201126337051392
vn 0.2521739900112152 0.6378023028373718 -0.7277474999427795
vn -0.382134348154068 0.03243632987141609 -0.9235373735427856
vn -0.7071009278297424 0 -0.7071126103401184
vn -0.7067833542823792 0.029969627037644386 -0.7067950367927551
vn -0.9991008043289185 0.042398370802402496 -0.000039945149183040485
vn -0.7058306932449341 0.05991232767701149 -0.7058424353599548
vn -0.7067833542823792 0.029969627037644386 -0.7067950367927551
vn 0 0 -1
vn -0.38267964124679565 0 -0.9238811135292053
vn 0 0.022433869540691376 -0.9997483491897583
vn -0.38191309571266174 0.056688614189624786 -0.9224579930305481
vn 0 0 -1
vn 0 0.022433873265981674 -0.9997483491897583
vn 0.7071126103401184 0 -0.7071009278297424
vn 0.38268721103668213 0 -0.9238778948783875
vn 0.7058426141738892 0.05990992486476898 -0.7058307528495789
vn 0.7067950367927551 0.029968421906232834 -0.7067832350730896
vn 1 0 0.00001657605025684461
vn 0.7071126103401184 0 -0.7071009278297424
vn 0.7067950367927551 0.029968421906232834 -0.7067832350730896
vn 0.7909087538719177 0.5225368142127991 -0.31846287846565247
vn -0.8287860751152039 0.559565544128418 -0.00003297986768302508
vn -0.5035182237625122 0.6898829340934753 -0.5201258659362793
vn -0.7909070253372192 0.5225349068641663 -0.31847041845321655
vn -0.0236501544713974 0.39334729313850403 -0.9190857410430908
vn -0.9235557317733765 0.022949958220124245 -0.38277700543403625
vn -0.9997751116752625 0.02120395191013813 -0.000028266953449929133
vn -1 0 -0.00001657605025684461
vn 0.9235405921936035 0.03243514150381088 -0.38212671875953674
vn 0.9997751116752625 0.021203946322202682 0.00001660976886341814
vn 0.023650184273719788 0.39334771037101746 -0.9190855622291565
vn -0.7071009278297424 0 -0.7071126103401184
vn -0.012350684031844139 0.6014482975006104 0.7988162040710449
vn 0.0024228934198617935 0.6014925241470337 0.7988747954368591
vn 0.06827571243047714 0.3143722712993622 0.9468412399291992
vn 0.12690716981887817 0.550154983997345 0.8253629803657532
vn -0.06603390723466873 0.554565966129303 0.8295156359672546
vn -0.03662605583667755 0.31559324264526367 0.9481874108314514
vn 0.5159310698509216 -0.6841916441917419 0.5154579877853394
vn 0.4311791956424713 -0.7322355508804321 0.5271770358085632
vn 0.3176979422569275 -0.8540521264076233 0.4119015336036682
vn -0.0003608347906265408 -0.9999998807907104 -0.00035187401226721704
vn -0.0005618060240522027 -0.7600873112678528 -0.6498207449913025
vn -0.0002809030411299318 -0.7603163123130798 -0.6495530009269714
vn -0.00036945281317457557 -0.9999998211860657 -0.0003605338861234486
vn -0.00028126276447437704 -0.7603219151496887 -0.6495465636253357
vn -0.0044081914238631725 -0.8510532975196838 -0.5250608325004578
vn -0.0005618060240522027 -0.7600873112678528 -0.6498207449913025
vn -0.00028126276447437704 -0.7603219151496887 -0.6495465636253357
vn 0.000013109040082781576 -0.7605445981025696 0.6492856740951538
vn 0.26786166429519653 -0.7500606775283813 0.6046975255012512
vn 0.5159310698509216 -0.6841916441917419 0.5154579877853394
vn 0.3422757387161255 -0.77322918176651 0.5338201522827148
vn 0.26786166429519653 -0.7500606775283813 0.6046975255012512
vn 0.000013109040082781576 -0.7605445981025696 0.6492856740951538
vn -0.5159322619438171 -0.6841923594474792 0.5154559016227722
vn -0.2678559720516205 -0.7500682473182678 0.6046907305717468
vn 0 -0.7605558633804321 0.6492725014686584
vn -0.3422781527042389 -0.7732303142547607 0.5338169932365417
vn 0 -0.7605558633804321 0.6492725014686584
vn -0.2678559720516205 -0.7500682473182678 0.6046907305717468
vn 0.2861306965351105 -0.9160855412483215 0.2809208631515503
vn -0.5159322619438171 -0.6841923594474792 0.5154559016227722
vn -0.28613045811653137 -0.9160860180854797 0.28091946244239807
vn -0.3176990747451782 -0.8540529012680054 0.41189923882484436
vn -0.28613045811653137 -0.9160860180854797 0.28091946244239807
vn -0.5159322619438171 -0.6841923594474792 0.5154559016227722
vn -0.649807870388031 -0.7600985169410706 -0.000002445575319143245
vn 0.5256458520889282 -0.8507034778594971 9.973803116736235e-7
vn 0.6498076915740967 -0.7600986361503601 0.0000018297988617632654
vn 0.5159310698509216 -0.6841916441917419 0.5154579877853394
vn -0.0022109979763627052 -0.8081962466239929 -0.5889090299606323
vn -0.18517158925533295 -0.818874716758728 -0.5432823300361633
vn -0.359631210565567 -0.7588193416595459 -0.5430088639259338
vn -0.0022106387186795473 -0.8081912398338318 -0.5889160633087158
vn 0.18083767592906952 -0.8195440769195557 -0.5437326431274414
vn 0.3596353232860565 -0.7588120102882385 -0.5430163741111755
vn -0.5159322619438171 -0.6841923594474792 0.5154559016227722
vn 0.5159310698509216 -0.6841916441917419 0.5154579877853394
vn 0.6498076915740967 -0.7600986361503601 0.0000018297988617632654
vn -0.649807870388031 -0.7600985169410706 -0.000002445575319143245
vn -0.4311809837818146 -0.7322364449501038 0.5271742939949036
vn 0.2861306965351105 -0.9160855412483215 0.2809208631515503
vn -7.194009299382742e-7 -0.7605562210083008 -0.649272084236145
vn 0 -0.7605450749397278 -0.6492851376533508
vn -0.0002809030411299318 -0.7603163123130798 -0.6495530009269714
vn -0.5256438255310059 -0.8507047295570374 -0.000002865929218387464
vn 0 -0.7605450749397278 -0.6492851376533508
vn -7.194009299382742e-7 -0.7605562210083008 -0.649272084236145
vn 0 0.9997521638870239 0.022263316437602043
vn 0 0.8476160168647766 0.5306100845336914
vn 0 0.8476160168647766 0.5306100845336914
vn -0.03113759122788906 0.8490369319915771 0.5274150371551514
vn -0.06224310025572777 0.843730092048645 0.5331466197967529
vn -0.031136712059378624 0.8460851311683655 0.5321375131607056
vn 0 0.9997521638870239 0.022263316437602043
vn 0.056306663900613785 0.8425580263137817 0.5356544256210327
vn 0.04763946309685707 0.8681550025939941 0.49400144815444946
vn 0.11243193596601486 0.8347856998443604 0.5389730334281921
vn -0.4538516104221344 0.8910772800445557 -2.146040429806817e-7
vn -0.38302111625671387 0.8381035923957825 -0.3884291350841522
vn -0.3616507351398468 0.8427855372428894 -0.39864933490753174
vn -0.4807913303375244 0.8768350481987 -4.562400306440395e-7
vn -0.04394004866480827 0.956949770450592 0.2869083881378174
vn 0.04762904718518257 0.8708979487419128 0.48915064334869385
vn 0.09508686512708664 0.8851938843727112 0.4554011821746826
vn -0.08466038107872009 0.9961628913879395 0.022183388471603394
vn -3.811979709666957e-8 0.8534704446792603 0.5211412310600281
vn -5.5490009032155285e-8 0.8534705638885498 0.5211410522460938
vn -0.06090950220823288 0.9981433153152466 -5.193599008634919e-7
vn -0.06152746453881264 0.9981052279472351 -0.0005259314784780145
vn -0.0896143838763237 0.9946259260177612 -0.0518505834043026
vn -0.24322208762168884 0.9431375861167908 -0.22657153010368347
vn -0.06090950220823288 0.9981433153152466 -5.193599008634919e-7
vn -0.38302111625671387 0.8381035923957825 -0.3884291350841522
vn -0.14130224287509918 0.8149368166923523 -0.5620601773262024
vn -0.2651316523551941 0.8358836770057678 -0.4806286096572876
vn 0.04817754402756691 0.9988386631011963 -0.0005258004530332983
vn 0.1077808365225792 0.8666132688522339 -0.48720094561576843
vn 0.1442551463842392 0.6794983148574829 -0.7193556427955627
vn -0.3616507351398468 0.8427855372428894 -0.39864933490753174
vn 0.3796826899051666 0.8361015319824219 -0.3959486484527588
vn 0.23680731654167175 0.8648319244384766 -0.44270533323287964
vn 0.24630644917488098 0.8603507876396179 -0.4462394416332245
vn 0.47563624382019043 0.8796420693397522 -4.577006507133774e-7
vn 0.3598479926586151 0.8464688062667847 -0.39242836833000183
vn 0.3796826899051666 0.8361015319824219 -0.3959486484527588
vn 0.0883847028017044 0.8733036518096924 -0.47909167408943176
vn -0.034311868250370026 0.8729514479637146 0.48659881949424744
vn 0.04817754402756691 0.9988386631011963 -0.0005258004530332983
vn 0.04817754402756691 0.9988386631011963 -0.0005258004530332983
vn 0.5095630884170532 0.8604332804679871 0.000049616715841693804
vn 0.05850471183657646 0.9546141028404236 0.2920430898666382
vn 0.22644725441932678 0.8688294291496277 -0.4402921199798584
vn 0.3598479926586151 0.8464688062667847 -0.39242836833000183
vn -0.24591900408267975 0.8419662714004517 -0.48022568225860596
vn -0.12525680661201477 0.8242661952972412 -0.552173912525177
vn 0.08288184553384781 0.9963123798370361 0.02218782529234886
vn -0.2539011538028717 0.8368527889251709 -0.48498615622520447
vn -0.06852933019399643 0.8900318145751953 0.4507184624671936
vn 0.3598479926586151 0.8464688062667847 -0.39242836833000183
vn 0.25393620133399963 0.9665820598602295 0.035150256007909775
vn 0.22644725441932678 0.8688294291496277 -0.4402921199798584
vn -0.034311868250370026 0.8729514479637146 0.48659881949424744
vn -0.07443837821483612 0.9970551133155823 -0.018442388623952866
vn -0.06852933019399643 0.8900318145751953 0.4507184624671936
vn -5.5490009032155285e-8 0.8534705638885498 0.5211410522460938
vn -0.12525680661201477 0.8242661952972412 -0.552173912525177
vn -0.24591900408267975 0.8419662714004517 -0.48022568225860596
vn 0.20652790367603302 0.9756479859352112 0.07387220114469528
vn -0.0009664564277045429 0.9056150317192078 -0.42409947514533997
vn -0.3616507351398468 0.8427855372428894 -0.39864933490753174
vn 0.08425743877887726 0.9702290296554565 -0.22706009447574615
vn 0.03179159387946129 0.9994944930076599 0.00002819117253238801
vn -0.4538516104221344 0.8910772800445557 -2.146040429806817e-7
vn -3.811979709666957e-8 0.8534704446792603 0.5211412310600281
vn 0.09508686512708664 0.8851938843727112 0.4554011821746826
vn 0.0883847028017044 0.8733036518096924 -0.47909167408943176
vn 0.5095630884170532 0.8604332804679871 0.000049616715841693804
vn 0.04762904718518257 0.8708979487419128 0.48915064334869385
vt 0.7507124543190002 0.8332914113998413
vt 0.7507123351097107 0.7272425293922424
vt 1.4999254941940308 0.7203487157821655
vt 2.249213218688965 0.8332909941673279
vt 1.4999254941940308 0.9343917369842529
vt 0.001499176025390625 0.7341363430023193
vt 2.9985013008117676 0.9994991421699524
vt 2.249213457107544 0.9669454395771027
vt 2.249213218688965 0.9403125047683716
vt 2.9985008239746094 0.9462332725524902
vt 2.9985008239746094 0.7341353893280029
vt 0.7507122755050659 0.5670734941959381
vt 1.4999254941940308 0.9881466627120972
vt 0.7507123947143555 0.9669458866119385
vt 0.7507123947143555 0.940312922000885
vt 0.0014993548393249512 0.999500036239624
vt 2.249213218688965 0.7272420525550842
vt 0.0014993548393249512 0.9462341070175171
vt 2.249213218688965 0.5670730173587799
vt 0.529137372970581 0.000500023365020752
vt 0.4638185501098633 0.3912721276283264
vt 0.5291385650634766 0.3912721872329712
vt 4.353226661682129 0.718268632888794
vt 3.7249884605407715 0.818396806716919
vt 4.353226661682129 0.9303666353225708
vt 0.7507123351097107 0.21942812204360962
vt 0.7507122755050659 0.01132345199584961
vt 1.4999253749847412 0.022146403789520264
vt 3.096750020980835 0.918524980545044
vt 3.312103748321533 0.7044816017150879
vt 0.001499176025390625 0.0005004405975341797
vt 0.3147890567779541 0.7225530743598938
vt 0.5291377305984497 0.7225528359413147
vt -0.1411026120185852 0.7182693481445312
vt -0.14110326766967773 0.9303674697875977
vt 0.4870591163635254 0.8183973431587219
vt 2.2492129802703857 0.2194277048110962
vt 2.2492129802703857 0.011322975158691406
vt 2.9985005855560303 0.0004994869232177734
vt 1.1152207851409912 0.9185253381729126
vt 0.899867057800293 0.7044819593429565
vt 4.353226661682129 0.41670823097229004
vt 3.832665205001831 0.560594916343689
vt 3.4698028564453125 0.4000098705291748
vt 0.5291372537612915 0.943907618522644
vt -0.1411033272743225 0.41670918464660645
vt 0.3793818950653076 0.5605955719947815
vt 0.7421678304672241 0.400010347366333
vt 4.353226661682129 0.00400155782699585
vt 3.9115147590637207 0.20200574398040771
vt 3.5389206409454346 0.022145509719848633
vt 0.3005322217941284 0.20200645923614502
vt -0.14110338687896729 0.004002511501312256
vt 0.6730490922927856 0.022145986557006836
vt 0.11127293109893799 0.9439080953598022
vt 0.0019979476928710938 0.9994990825653076
vt 0.5291376113891602 0.9994983673095703
vt 0.0019981861114501953 0.9994989633560181
vt 0.11127293109893799 0.9439077973365784
vt 0.5291376113891602 0.9439073801040649
vt 2.9811177253723145 0.9881466627120972
vt 3.6671721935272217 0.959256649017334
vt 0.5291376113891602 0.9994980096817017
vt 4.353227615356445 0.9994996786117554
vt 1.2308528423309326 0.9881467223167419
vt 0.5448747873306274 0.9592570960521698
vt 0.001499265432357788 0.416709840297699
vt 2.249213457107544 0.9938229024410248
vt -0.14110404253005981 0.9995005130767822
vt 0.5291370153427124 0.0004994869232177734
vt 0.529137372970581 0.39127200841903687
vt 0.4638185501098633 0.3912716507911682
vt 1.4999253749847412 0.4000106453895569
vt 2.2492129802703857 0.4083598256111145
vt 2.9985005855560303 0.4167090058326721
vt 0.5291379690170288 0.722552478313446
vt 0.7507122755050659 0.40836024284362793
vt 0.31478917598724365 0.7225527167320251
vt 0.544874370098114 0.9938236176967621
vt 3.66717267036438 0.9938231706619263
vt 0.3793821930885315 0.7113756537437439
vt 3.832665205001831 0.7113751173019409
vt 0.48705875873565674 0.9244464039802551
vt 3.7249884605407715 0.9244458079338074
vt 0.7507123947143555 0.9938233494758606
vt 1.5007736682891846 -0.029606938362121582
vt 0.6449116468429565 0.10410887002944946
vt 1.5007736682891846 0.2378246784210205
vt -0.21095040440559387 0.2378246784210205
vt -0.21030348539352417 -0.029606938362121582
vt 2.3565502166748047 0.10410887002944946
vt 3.212327003479004 0.2378246784210205
vt 3.212327480316162 -0.029606938362121582
vt 0.6973482370376587 0.2448805570602417
vt 1.0138278007507324 0.1054542064666748
vt 0.6909944415092468 -0.03397214412689209
vt 1.3303074836730957 -0.03397214412689209
vt 1.3303076028823853 0.23112750053405762
vt -0.3154073655605316 -0.03397178649902344
vt -0.0032263994216918945 -0.03397190570831299
vt -0.00322645902633667 -0.35096728801727295
vt -0.31540733575820923 0.23112785816192627
vt -0.006403297185897827 0.1054544448852539
vt 1.5002167224884033 0.23417842388153076
vt 1.5002167224884033 0.3264464735984802
vt 2.358736276626587 0.3264464735984802
vt 0.6460717916488647 0.3264464735984802
vt 3.2172558307647705 0.3264464735984802
vt 3.2172558307647705 0.23417842388153076
vt 2.358736276626587 0.23417842388153076
vt 2.3565502166748047 0.2378246784210205
vt -0.20807316899299622 0.3264464735984802
vt 0.6460717916488647 0.23417842388153076
vt -0.20807316899299622 0.23417842388153076
vt 0.6449116468429565 0.2378246784210205
vt 0.2574445605278015 0.2322080135345459
vt 0.25744396448135376 -0.030799508094787598
vt 0.0005049705505371094 -0.030799388885498047
vt 0.17173069715499878 0.23220789432525635
vt 0.6461449265480042 -0.03210735321044922
vt 1.5009926557540894 -0.03210735321044922
vt 1.02787184715271 -0.0745234489440918
vt 0.6452350616455078 -0.029606938362121582
vt 2.3567638397216797 -0.03210735321044922
vt 2.0097568035125732 -0.07391905784606934
vt 2.356550693511963 -0.029606938362121582
vt 0.7280648946762085 0.3400000333786011
vt 1.013827919960022 0.23800402879714966
vt 0.2718838155269623 0.3400000333786011
vt 0.3026007413864136 0.24488067626953125
vt -0.006403297185897827 0.23800426721572876
vt 1.010650873184204 -0.3509674072265625
vt 0.6909943222999573 -0.667962908744812
vt 0.690994381904602 -0.35096752643585205
vt 0.2574436068534851 -0.03079962730407715
vt 0.0005022585391998291 -0.030799508094787598
vt 0.000500798225402832 -0.3605605363845825
vt 1.3303073644638062 -0.6679627895355225
vt 1.010650873184204 -0.6679627895355225
vt 1.3303074836730957 -0.3509674072265625
vt 1.0106509923934937 -0.03397214412689209
vt -0.3154074549674988 -0.6679625511169434
vt -0.315407395362854 -0.3509671688079834
vt 0.3089544475078583 -0.6679627895355225
vt -0.0032264888286590576 -0.6679626703262329
vt 0.3089545667171478 -0.03397202491760254
vt 0.30895450711250305 -0.3509674072265625
vt 0.2574416399002075 -0.6903214454650879
vt 0.0005026161670684814 -0.6903214454650879
vt 0.0005037933588027954 -0.36056041717529297
vt 0.2574392557144165 0.3400000333786011
vt 0.2574436068534851 0.2322077751159668
vt 0.1717279851436615 0.2322077751159668
vt 0.25743532180786133 0.3400000333786011
vt -0.31540730595588684 0.3400000333786011
vt 0.12897147238254547 -0.36056065559387207
vt 0.2574421465396881 -0.36056065559387207
vt 0.2574406862258911 -0.690321683883667
vt 0.12897330522537231 -0.36056041717529297
vt 0.25744280219078064 -0.36056041717529297
vt 1.3303076028823853 0.3400000333786011
vt 0.000499337911605835 -0.6903215646743774
vt 2.358736276626587 0.2803124189376831
vt 0.6460717916488647 0.2803124189376831
vt 2.6111459732055664 -0.05301320552825928
vt 3.2125351428985596 -0.03210735321044922
vt -0.20870278775691986 -0.03210735321044922
vt 0.40958452224731445 -0.05331540107727051
vt 0.10248790681362152 1.6782578229904175
vt 0.0641564428806305 2.301452875137329
vt 0.025824980810284615 2.306493639945984
vt 0.005403295159339905 2.206179141998291
vt 0.10623305290937424 1.4999386072158813
vt 0.1062268316745758 2.206178903579712
vt 0.005403377115726471 0.7937614321708679
vt 0.10622680187225342 0.7937609553337097
vt 0.025824980810284615 1.5023244619369507
vt 0.10248790681362152 1.5042986869812012
vt 0.10248790681362152 0.7989522218704224
vt -0.09542646259069443 2.9124197959899902
vt -0.09542007744312286 2.2619177103042603
vt -0.0954136922955513 1.6114156246185303
vt 0.025824980810284615 2.924647808074951
vt 0.10248790681362152 2.301452875137329
vt 0.10248790681362152 2.924647808074951
vt -0.09541371464729309 1.3884623050689697
vt -0.09542001038789749 0.7380232810974121
vt -0.09542630612850189 0.08758425712585449
vt 0.025824980810284615 0.09360581636428833
vt 0.10248790681362152 0.09360581636428833
vt 0.10248790681362152 0.7701144814491272
vt 0.025824980810284615 1.6883394718170166
vt 0.10248790681362152 1.4466232061386108
vt 0.025824980810284615 1.4406505823135376
vt 0.025824980810284615 0.7671282291412354
vt -0.07067632675170898 0.009720206260681152
vt -0.09461889415979385 0.004075407981872559
vt -0.09462524205446243 0.3937636613845825
vt -0.07068812847137451 0.3937638998031616
vt -0.09462515264749527 0.3937636613845825
vt -0.09461725503206253 0.004075407981872559
vt 0.0641564428806305 0.7979651093482971
vt 0.025824980810284615 0.7979651093482971
vt 0.025824980810284615 0.09360581636428833
vt 0.0641564428806305 2.2134861946105957
vt 0.025824980810284615 2.2134861946105957
vt 0.025824980810284615 2.924647808074951
vt -0.11979828029870987 0.0014983415603637695
vt 0.10620351135730743 0.0014983415603637695
vt 0.10620252788066864 0.39118659496307373
vt -0.11979975551366806 0.39118659496307373
vt 0.0641564428806305 0.7701144814491272
vt -0.07067626714706421 0.009720206260681152
vt 0.106220543384552 0.08758324384689331
vt 0.10622061789035797 2.912419080734253
vt 0.10248790681362152 2.214473247528076
vt -0.07068580389022827 0.3937636613845825
vt 0.10248790681362152 2.924647808074951
vt 0.10248790681362152 0.09360581636428833
vt 0.8100000023841858 3.260014057159424
vt 0.8500000238418579 1.7792046070098877
vt 0.8500000238418579 3.252429485321045
vt 0.925000011920929 4.1203436851501465
vt 0.8500000238418579 4.989919185638428
vt 0.8500000238418579 4.121174335479736
vt 0.8100000023841858 1.7867891788482666
vt 0.8500000238418579 0.8916828632354736
vt 0.925000011920929 0.8908515572547913
vt 0.8500000238418579 0.00416111946105957
vt 1 0.6285429000854492
vt 0.8500000238418579 0.2742164731025696
vt 1 0.24578475952148438
vt 0.8500000238418579 0.6285430788993835
vt 0.8300000429153442 4.124966382980347
vt 1 0.8900201916694641
vt 1 0.0024985074996948242
vt 0.8100000023841858 4.997503280639648
vt 1 1.7775418758392334
vt 1 3.250767946243286
vt 0.8100000023841858 0.4506266713142395
vt 0.8100000023841858 0.6285422444343567
vt 0.8100000023841858 0.0024973154067993164
vt 0.8300000429153442 0.8481864333152771
vt 0.8100000023841858 1.5438014268875122
vt 0.8500000238418579 1.6938755512237549
vt 0.8500000238418579 0.004517316818237305
vt 0.8500000238418579 0.8491964340209961
vt 0.8100000023841858 3.45361328125
vt 0.8500000238418579 4.997176170349121
vt 0.8100000023841858 4.995157241821289
vt 1 1.744737148284912
vt 0.8500000238418579 3.2702138423919678
vt 0.925000011920929 4.133857727050781
vt 0.8500000238418579 4.133695125579834
vt 0.8500000238418579 0.6285430788993835
vt 1 0.24578475952148438
vt 0.8500000238418579 0.2742164731025696
vt 1 4.997501850128174
vt 1 4.119512557983398
vt 0.8100000023841858 0.6285422444343567
vt 0.8100000023841858 0.4506266713142395
vt 1 0.6285429000854492
vt 0.8300000429153442 0.8954751491546631
vt 1 4.108752012252808
vt 1 3.2200021743774414
vt 1 0.8747900128364563
vt 1 0.004842877388000488
vt 0.8100000023841858 0.011745691299438477
vt 0.925000011920929 0.8746272325515747
vt 1 4.98825740814209
vt 34.82319259643555 15.570807456970215
vt 35.17652893066406 15.902568817138672
vt 34.82319259643555 15.902566909790039
vt 35.529869079589844 14.656879425048828
vt 35.17652893066406 14.656879425048828
vt 35.529869079589844 14.324015617370605
vt 35.52986526489258 14.989742279052734
vt 34.82319259643555 14.324015617370605
vt 34.82319259643555 14.648242950439453
vt 35.17652893066406 15.280275344848633
vt 34.82319259643555 15.271638870239258
vt 34.82319259643555 14.972469329833984
vt 34.728389739990234 15.271638870239258
vt 34.63358688354492 15.271638870239258
vt 34.63358688354492 14.972469329833984
vt 35.529869079589844 15.554213523864746
vt 35.529869079589844 16.234329223632812
vt 34.82319259643555 16.23432731628418
vt 34.63358688354492 15.570809364318848
vt 35.529869079589844 15.894271850585938
g WB010
s 1
f 1/1/1 2/2/2 3/3/3
f 3/3/3 4/4/4 5/5/5
f 1/1/1 6/6/6 2/2/2
f 7/7/7 8/8/8 9/9/9
f 10/10/10 4/4/4 11/11/11
f 12/12/12 2/2/2 6/6/6
f 12/12/12 3/3/3 2/2/2
f 8/8/8 5/5/5 9/9/9
f 5/5/5 8/8/8 13/13/13
f 14/14/14 15/15/15 5/5/5
f 16/16/16 15/15/15 14/14/14
f 5/5/5 13/13/13 14/14/14
f 3/3/3 5/5/5 1/1/1
f 4/4/4 17/17/17 11/11/11
f 18/18/18 6/6/6 1/1/1
f 4/4/4 3/3/3 17/17/17
f 19/19/19 17/17/17 3/3/3
f 19/19/19 11/11/11 17/17/17
f 20/20/20 21/21/21 22/22/22
f 23/23/23 24/24/24 25/25/25
f 26/26/26 27/27/27 28/28/28
f 29/29/29 24/24/24 30/30/30
f 26/26/26 31/31/31 27/27/27
f 21/21/21 32/32/32 33/33/33
f 34/34/34 35/35/35 36/36/36
f 37/37/37 38/38/38 39/39/39
f 40/40/40 41/41/41 36/36/36
f 42/42/42 43/43/43 23/23/23
f 37/37/37 28/28/28 38/38/38
f 30/30/30 43/43/43 44/44/44
f 43/43/43 42/42/42 44/44/44
f 45/45/45 33/33/33 32/32/32
f 46/46/46 34/34/34 47/47/47
f 47/47/47 48/48/48 46/46/46
f 41/41/41 48/48/48 47/47/47
f 49/49/49 50/50/50 42/42/42
f 50/50/50 44/44/44 42/42/42
f 44/44/44 50/50/50 51/51/51
f 50/50/50 49/49/49 51/51/51
f 52/52/52 46/46/46 48/48/48
f 53/53/53 46/46/46 52/52/52
f 52/52/52 54/54/54 53/53/53
f 48/48/48 54/54/54 52/52/52
f 33/33/33 22/22/22 21/21/21
f 32/32/32 55/55/55 45/45/45
f 55/55/55 56/56/56 57/57/57
f 58/58/58 59/59/59 60/60/60
f 61/61/61 62/62/62 29/29/29
f 60/60/60 63/63/63 58/58/58
f 25/25/25 62/62/62 64/64/64
f 65/65/65 40/40/40 66/66/66
f 6/6/6 67/67/67 12/12/12
f 8/8/8 7/7/7 68/68/68
f 35/35/35 69/69/69 66/66/66
f 70/70/70 71/71/71 72/72/72
f 73/73/73 3/3/3 12/12/12
f 19/19/19 73/73/73 74/74/74
f 19/19/19 74/74/74 75/75/75
f 11/11/11 19/19/19 75/75/75
f 37/37/37 75/75/75 74/74/74
f 73/73/73 19/19/19 3/3/3
f 57/57/57 45/45/45 55/55/55
f 37/37/37 74/74/74 73/73/73
f 76/76/76 60/60/60 59/59/59
f 12/12/12 67/67/67 77/77/77
f 12/12/12 77/77/77 73/73/73
f 59/59/59 78/78/78 76/76/76
f 26/26/26 73/73/73 77/77/77
f 71/71/71 76/76/76 78/78/78
f 28/28/28 73/73/73 26/26/26
f 66/66/66 79/79/79 65/65/65
f 66/66/66 69/69/69 79/79/79
f 26/26/26 77/77/77 67/67/67
f 67/67/67 31/31/31 26/26/26
f 4/4/4 10/10/10 9/9/9
f 62/62/62 80/80/80 64/64/64
f 62/62/62 61/61/61 80/80/80
f 36/36/36 81/81/81 34/34/34
f 4/4/4 9/9/9 5/5/5
f 28/28/28 37/37/37 73/73/73
f 36/36/36 41/41/41 81/81/81
f 47/47/47 81/81/81 41/41/41
f 47/47/47 34/34/34 81/81/81
f 24/24/24 82/82/82 30/30/30
f 24/24/24 23/23/23 82/82/82
f 43/43/43 82/82/82 23/23/23
f 43/43/43 30/30/30 82/82/82
f 66/66/66 83/83/83 35/35/35
f 66/66/66 40/40/40 83/83/83
f 36/36/36 83/83/83 40/40/40
f 36/36/36 35/35/35 83/83/83
f 62/62/62 84/84/84 29/29/29
f 62/62/62 25/25/25 84/84/84
f 24/24/24 84/84/84 25/25/25
f 24/24/24 29/29/29 84/84/84
f 7/7/7 9/9/9 10/10/10
f 75/75/75 37/37/37 39/39/39
f 78/78/78 72/72/72 71/71/71
f 1/1/1 5/5/5 15/15/15
f 14/14/14 85/85/85 16/16/16
f 1/1/1 15/15/15 18/18/18
f 16/16/16 18/18/18 15/15/15
f 14/14/14 13/13/13 85/85/85
f 8/8/8 68/68/68 13/13/13
g WB011
s 1
f 86/86/86 87/87/87 88/88/88
f 89/89/89 87/87/87 90/90/90
f 86/86/86 88/88/88 91/91/91
f 92/92/92 93/93/93 91/91/91
f 94/94/94 95/95/95 96/96/96
f 97/97/97 95/95/95 98/98/98
f 99/99/99 100/100/100 101/101/101
f 99/99/99 102/102/102 103/103/103
f 104/104/104 105/105/105 106/106/106
f 104/104/104 107/107/107 105/105/105
f 108/108/108 109/109/109 110/110/110
f 91/91/91 111/111/111 92/92/92
f 91/91/91 88/88/88 111/111/111
f 112/112/112 113/113/113 114/114/114
f 87/87/87 115/115/115 88/88/88
f 87/87/87 89/89/89 115/115/115
f 116/116/116 117/117/117 118/118/118
f 118/118/118 119/119/119 116/116/116
f 120/120/120 121/121/121 122/122/122
f 87/87/87 86/86/86 123/123/123
f 87/87/87 123/123/123 90/90/90
f 121/121/121 124/124/124 125/125/125
f 91/91/91 93/93/93 126/126/126
f 91/91/91 126/126/126 86/86/86
f 127/127/127 98/98/98 128/128/128
f 127/127/127 128/128/128 94/94/94
f 95/95/95 94/94/94 128/128/128
f 95/95/95 128/128/128 98/98/98
f 129/129/129 130/130/130 131/131/131
f 129/129/129 131/131/131 102/102/102
f 103/103/103 102/102/102 131/131/131
f 103/103/103 131/131/131 130/130/130
f 132/132/132 133/133/133 134/134/134
f 132/132/132 134/134/134 96/96/96
f 135/135/135 136/136/136 137/137/137
f 138/138/138 139/139/139 132/132/132
f 139/139/139 133/133/133 132/132/132
f 132/132/132 97/97/97 140/140/140
f 132/132/132 140/140/140 138/138/138
f 96/96/96 141/141/141 132/132/132
f 141/141/141 97/97/97 132/132/132
f 95/95/95 97/97/97 141/141/141
f 95/95/95 141/141/141 96/96/96
f 101/101/101 142/142/142 143/143/143
f 101/101/101 143/143/143 99/99/99
f 144/144/144 145/145/145 101/101/101
f 145/145/145 142/142/142 101/101/101
f 101/101/101 146/146/146 147/147/147
f 101/101/101 147/147/147 144/144/144
f 148/148/148 149/149/149 150/150/150
f 130/130/130 146/146/146 103/103/103
f 103/103/103 100/100/100 99/99/99
f 103/103/103 146/146/146 100/100/100
f 100/100/100 146/146/146 101/101/101
f 151/151/151 116/116/116 119/119/119
f 135/135/135 152/152/152 153/153/153
f 153/153/153 136/136/136 135/135/135
f 154/154/154 153/153/153 152/152/152
f 102/102/102 155/155/155 129/129/129
f 156/156/156 157/157/157 135/135/135
f 156/156/156 158/158/158 157/157/157
f 159/159/159 160/160/160 148/148/148
f 159/159/159 117/117/117 160/160/160
f 98/98/98 127/127/127 161/161/161
f 162/162/162 158/158/158 156/156/156
f 135/135/135 137/137/137 156/156/156
f 156/156/156 137/137/137 162/162/162
f 118/118/118 117/117/117 159/159/159
f 148/148/148 150/150/150 159/159/159
f 159/159/159 150/150/150 118/118/118
f 104/104/104 106/106/106 163/163/163
f 163/163/163 106/106/106 108/108/108
f 108/108/108 110/110/110 163/163/163
f 163/163/163 110/110/110 104/104/104
f 164/164/164 112/112/112 107/107/107
f 104/104/104 164/164/164 107/107/107
f 164/164/164 104/104/104 113/113/113
f 112/112/112 164/164/164 113/113/113
f 122/122/122 121/121/121 125/125/125
f 124/124/124 165/165/165 125/125/125
f 124/124/124 166/166/166 165/165/165
f 167/167/167 120/120/120 168/168/168
f 168/168/168 120/120/120 122/122/122
g WB012
s 1
f 169/169/169 170/170/170 171/171/171
f 172/172/172 173/173/173 174/174/174
f 175/175/175 176/176/176 173/173/173
f 177/177/177 178/178/178 179/179/179
f 172/172/172 180/180/180 181/181/181
f 172/172/172 181/181/181 182/182/182
f 183/183/183 184/184/184 185/185/185
f 175/175/175 186/186/186 187/187/187
f 175/175/175 187/187/187 188/188/188
f 189/189/189 190/190/190 191/191/191
f 169/169/169 171/171/171 192/192/192
f 193/193/193 194/194/194 195/195/195
f 196/196/196 197/197/197 198/198/198
f 199/199/199 200/200/200 201/201/201
f 202/202/202 203/203/203 177/177/177
f 202/202/202 204/204/204 203/203/203
f 205/205/205 206/206/206 207/207/207
f 205/205/205 177/177/177 206/206/206
f 208/208/208 209/209/209 210/210/210
f 210/210/210 211/211/211 208/208/208
f 189/189/189 191/191/191 212/212/212
f 212/212/212 191/191/191 193/193/193
f 193/193/193 195/195/195 212/212/212
f 212/212/212 195/195/195 189/189/189
f 170/170/170 169/169/169 184/184/184
f 183/183/183 170/170/170 184/184/184
f 170/170/170 183/183/183 171/171/171
f 201/201/201 213/213/213 199/199/199
f 175/175/175 214/214/214 176/176/176
f 172/172/172 174/174/174 215/215/215
f 173/173/173 172/172/172 182/182/182
f 180/180/180 172/172/172 215/215/215
f 177/177/177 216/216/216 178/178/178
f 188/188/188 214/214/214 175/175/175
f 173/173/173 186/186/186 175/175/175
f 186/186/186 173/173/173 182/182/182
f 198/198/198 217/217/217 196/196/196
f 177/177/177 205/205/205 216/216/216
f 205/205/205 218/218/218 216/216/216
f 218/218/218 205/205/205 207/207/207
f 202/202/202 179/179/179 219/219/219
f 177/177/177 179/179/179 202/202/202
f 219/219/219 204/204/204 202/202/202
g WB013
s 1
f 220/220/220 221/221/221 222/222/222
f 223/223/223 224/224/224 225/225/225
f 226/226/226 227/227/227 221/221/221
f 228/228/228 227/227/227 229/229/229
f 230/230/230 231/231/231 232/232/232
f 231/231/231 230/230/230 233/233/233
f 222/222/222 234/234/234 220/220/220
f 221/221/221 228/228/228 235/235/235
f 228/228/228 236/236/236 235/235/235
f 236/236/236 228/228/228 229/229/229
f 221/221/221 220/220/220 226/226/226
f 237/237/237 225/225/225 224/224/224
f 222/222/222 238/238/238 239/239/239
f 238/238/238 222/222/222 221/221/221
f 240/240/240 233/233/233 241/241/241
f 242/242/242 243/243/243 244/244/244
f 243/243/243 245/245/245 244/244/244
f 234/234/234 237/237/237 220/220/220
f 243/243/243 242/242/242 246/246/246
f 247/247/247 243/243/243 246/246/246
f 245/245/245 243/243/243 247/247/247
f 248/248/248 249/249/249 250/250/250
f 247/247/247 251/251/251 245/245/245
f 252/252/252 253/253/253 254/254/254
f 223/223/223 225/225/225 222/222/222
f 255/255/255 256/256/256 257/257/257
f 253/253/253 258/258/258 254/254/254
f 224/224/224 223/223/223 259/259/259
f 223/223/223 239/239/239 259/259/259
f 260/260/260 257/257/257 261/261/261
f 256/256/256 255/255/255 262/262/262
f 226/226/226 263/263/263 227/227/227
f 228/228/228 221/221/221 227/227/227
f 254/254/254 258/258/258 249/249/249
f 249/249/249 248/248/248 254/254/254
f 254/254/254 248/248/248 252/252/252
f 263/263/263 229/229/229 227/227/227
f 264/264/264 252/252/252 265/265/265
f 266/266/266 246/246/246 267/267/267
f 221/221/221 235/235/235 238/238/238
f 233/233/233 240/240/240 231/231/231
f 229/229/229 263/263/263 268/268/268
f 253/253/253 252/252/252 264/264/264
f 263/263/263 226/226/226 268/268/268
f 237/237/237 234/234/234 225/225/225
f 269/269/269 251/251/251 247/247/247
f 234/234/234 222/222/222 225/225/225
f 224/224/224 259/259/259 270/270/270
f 246/246/246 269/269/269 247/247/247
f 269/269/269 246/246/246 266/266/266
f 251/251/251 269/269/269 266/266/266
f 239/239/239 223/223/223 222/222/222
f 257/257/257 260/260/260 255/255/255
f 258/258/258 253/253/253 264/264/264
g WB014
s 1
f 271/271/271 272/272/272 273/273/273
f 274/274/274 275/275/275 276/276/276
f 277/277/277 275/275/275 274/274/274
f 278/278/278 275/275/275 279/279/279
f 280/280/280 271/271/271 281/281/281
f 280/280/280 281/281/281 282/282/282
f 283/283/283 282/282/282 281/281/281
f 283/283/283 281/281/281 271/271/271
f 279/279/279 275/275/275 282/282/282
f 282/282/282 284/284/284 285/285/285
f 272/272/272 271/271/271 286/286/286
f 272/272/272 287/287/287 288/288/288
f 275/275/275 278/278/278 276/276/276
f 275/275/275 277/277/277 282/282/282
f 277/277/277 280/280/280 282/282/282
f 271/271/271 280/280/280 286/286/286
f 280/280/280 277/277/277 286/286/286
f 289/289/289 283/283/283 271/271/271
f 282/282/282 283/283/283 284/284/284
f 283/283/283 289/289/289 284/284/284
f 290/290/290 272/272/272 286/286/286
f 287/287/287 272/272/272 290/290/290
f 273/273/273 272/272/272 288/288/288
