# Exported using wow.export v0.2.19
o 21138_Taventrance26.obj
v -332.71978759765625 4.545414447784424 -303.5253601074219
v -334.8590087890625 4.545415878295898 -303.5253601074219
v -334.85028076171875 3.8533520698547363 -303.5253601074219
v -336.99822998046875 4.545416831970215 -303.5253601074219
v -336.99822998046875 -1.4013772010803223 -303.5253601074219
v -336.9522705078125 0.8799576759338379 -300.05194091796875
v -336.9435729980469 -1.4013748168945312 -300.05194091796875
v -336.888916015625 -1.4013723134994507 -296.57855224609375
v -336.916259765625 3.058720111846924 -298.31524658203125
v -336.9435729980469 1.5720223188400269 -300.05194091796875
v -336.9435729980469 4.545417308807373 -300.05194091796875
v -337.0156555175781 3.161287546157837 -303.5253601074219
v -332.7023620605469 3.161287546157837 -303.5253601074219
v -336.888916015625 4.545417785644531 -296.57855224609375
v -336.888916015625 1.5720226764678955 -296.57855224609375
v -336.916259765625 0.08532500267028809 -298.31524658203125
v -334.8590087890625 3.161287546157837 -303.5253601074219
v -336.97088623046875 3.0587196350097656 -301.78863525390625
v -336.99822998046875 4.545416831970215 -303.5253601074219
v -337.0156555175781 3.161287546157837 -303.5253601074219
v -337.0069580078125 0.8799552917480469 -303.5253601074219
v -332.78826904296875 -1.4013738632202148 -300.05072021484375
v -332.7540283203125 0.08532178401947021 -301.78802490234375
v -332.71978759765625 -1.4013772010803223 -303.5253601074219
v -332.78826904296875 1.5720207691192627 -300.05072021484375
v -332.7023620605469 3.161287546157837 -303.5253601074219
v -332.7795715332031 3.8533530235290527 -300.05072021484375
v -332.71978759765625 4.545414447784424 -303.5253601074219
v -332.822509765625 3.0587196350097656 -298.31341552734375
v -332.7110595703125 0.8799550533294678 -303.5253601074219
v -332.822509765625 0.08532500267028809 -298.31341552734375
v -332.8567810058594 -1.401370644569397 -296.57611083984375
v -332.8567810058594 1.5720239877700806 -296.57611083984375
v -332.78826904296875 4.545416831970215 -300.05072021484375
v -332.8567810058594 4.545418739318848 -296.57611083984375
v -332.8567810058594 -1.401370644569397 -296.57611083984375
v -332.78826904296875 -1.4013738632202148 -300.05072021484375
v -334.8043518066406 -1.4013748168945312 -300.05194091796875
v -332.71978759765625 -1.4013772010803223 -303.5253601074219
v -336.888916015625 -1.4013723134994507 -296.57855224609375
v -336.9435729980469 -1.4013748168945312 -300.05194091796875
v -336.99822998046875 -1.4013772010803223 -303.5253601074219
v -334.8590087890625 -1.4013772010803223 -303.5253601074219
v -336.6067199707031 -0.6601901650428772 -296.7414855957031
v -336.7259826660156 -0.6601901650428772 -296.8607482910156
v -336.6067199707031 4.249138832092285 -296.7414855957031
v -336.7259826660156 4.249138832092285 -296.8607482910156
v -336.888916015625 -0.6601901650428772 -296.9044494628906
v -336.888916015625 4.249138832092285 -296.9044494628906
v -336.56304931640625 4.249138832092285 -296.5783386230469
v -336.56304931640625 -0.6601901650428772 -296.5783386230469
v -336.6607971191406 -0.8807221055030823 -296.9736328125
v -336.888916015625 -0.8807221055030823 -297.0347900390625
v -336.7259826660156 -0.6601901650428772 -296.8607482910156
v -336.888916015625 -0.6601901650428772 -296.9044494628906
v -336.49383544921875 -0.8807221055030823 -296.8066711425781
v -336.6607971191406 -0.8807221055030823 -296.9736328125
v -336.6067199707031 -0.6601901650428772 -296.7414855957031
v -336.4327087402344 -0.8807221055030823 -296.5782775878906
v -336.56304931640625 -0.6601901650428772 -296.5783386230469
v -336.6607971191406 -1.401375412940979 -296.9736328125
v -336.888916015625 -1.401375412940979 -297.0347900390625
v -336.49383544921875 -1.401375412940979 -296.8066711425781
v -336.6607971191406 -1.401375412940979 -296.9736328125
v -336.4327087402344 -1.401375412940979 -296.5782775878906
v -336.888916015625 4.42107629776001 -297.0152282714844
v -336.67059326171875 4.42107629776001 -296.9566955566406
v -336.888916015625 4.249138832092285 -296.9044494628906
v -336.7259826660156 4.249138832092285 -296.8607482910156
v -336.5107727050781 4.42107629776001 -296.796875
v -336.7259826660156 4.249138832092285 -296.8607482910156
v -336.6067199707031 4.249138832092285 -296.7414855957031
v -336.4522705078125 4.42107629776001 -296.5782775878906
v -336.56304931640625 4.249138832092285 -296.5783386230469
v -336.888916015625 4.545416831970215 -297.0152282714844
v -336.67059326171875 4.545416831970215 -296.9566955566406
v -336.5107727050781 4.545416831970215 -296.796875
v -336.4522705078125 4.545416831970215 -296.5782775878906
v -334.8043518066406 4.545415878295898 -300.05194091796875
v -332.8567810058594 4.545418739318848 -296.57611083984375
v -336.888916015625 4.545417785644531 -296.57855224609375
v -332.78826904296875 4.545416831970215 -300.05072021484375
v -336.9435729980469 4.545417308807373 -300.05194091796875
v -336.99822998046875 4.545416831970215 -303.5253601074219
v -332.71978759765625 4.545414447784424 -303.5253601074219
v -334.8590087890625 4.545415878295898 -303.5253601074219
vn -0.578568696975708 -0.5860067009925842 0.5673221945762634
vn 0.001080780872143805 -0.7155876755714417 0.6985220909118652
vn -0.16853126883506775 -0.7031880021095276 0.6907414197921753
vn 0.5803303718566895 -0.5804025530815125 0.5712701082229614
vn 0.7057560086250305 0.708454966545105 0
vn 0.9508697986602783 0.1888584941625595 0.24531450867652893
vn 0.705723226070404 0.7084659337997437 -0.00555273937061429
vn 0.7056686282157898 0.708454966545105 -0.011105306446552277
vn 0.9122576713562012 -0.34698808193206787 0.21768128871917725
vn 0.9130035638809204 0.09091166406869888 0.3976927399635315
vn 0.6758033633232117 -0.6758871078491211 0.29405176639556885
vn 0.8196641206741333 -0.4054986238479614 0.4046252369880676
vn -0.8179352879524231 -0.41099175810813904 0.4025762677192688
vn 0.7070193290710449 -0.7071067094802856 -0.011125769466161728
vn 0.9998757243156433 0.0009542726329527795 -0.01573476381599903
vn 0.876748263835907 0.4329742193222046 0.20939376950263977
vn 0.001505763386376202 -0.7111395597457886 0.7030492424964905
vn 0.8088592290878296 -0.2651310861110687 0.5248354077339172
vn 0.5803303718566895 -0.5804025530815125 0.5712701082229614
vn 0.8196641206741333 -0.4054986238479614 0.4046252369880676
vn 0.9492417573928833 0.18852432072162628 0.2517910599708557
vn -0.7063801884651184 0.7077983021736145 -0.006968510802835226
vn -0.9239165782928467 0.38255688548088074 -0.005326088983565569
vn -0.7057560086250305 0.708454966545105 0
vn -0.9999492168426514 -0.0021907093469053507 -0.009832855314016342
vn -0.8179352879524231 -0.41099175810813904 0.4025762677192688
vn -0.7880024313926697 -0.5817760229110718 0.20146667957305908
vn -0.578568696975708 -0.5860067009925842 0.5673221945762634
vn -0.9221577644348145 -0.3866012990474701 -0.012827013619244099
vn -0.9500483274459839 0.18547353148460388 0.2510133683681488
vn -0.9242070317268372 0.38167503476142883 -0.012869955971837044
vn -0.7069695591926575 0.7071066498756409 -0.013936677947640419
vn -0.9998007416725159 -0.003144914284348488 -0.0197087861597538
vn -0.6722874641418457 -0.6809302568435669 0.2904537618160248
vn -0.7025088667869568 -0.7115402221679688 -0.013847967609763145
vn -0.7069695591926575 0.7071066498756409 -0.013936677947640419
vn -0.7063801884651184 0.7077983021736145 -0.006968510802835226
vn -0.00006166780804051086 0.9999693036079407 -0.007837453857064247
vn -0.7057560086250305 0.708454966545105 0
vn 0.7056686282157898 0.708454966545105 -0.011105306446552277
vn 0.705723226070404 0.7084659337997437 -0.00555273937061429
vn 0.7057560086250305 0.708454966545105 0
vn 0 0.9999999403953552 0
vn 0.8350614309310913 0.2649005055427551 -0.48218265175819397
vn 0.4821791350841522 0.2649002969264984 -0.8350635170936584
vn 0.8304199576377869 -0.2837075889110565 -0.4794921278953552
vn 0.47950080037117004 -0.28370821475982666 -0.8304147124290466
vn 0.25026315450668335 0.25647079944610596 -0.9335904121398926
vn 0.2489382028579712 -0.2747728228569031 -0.9287247657775879
vn 0.9589120745658875 -0.28370338678359985 -0.000010277543879055884
vn 0.9642756581306458 0.2649007737636566 0.000004063202140969224
vn 0.48217514157295227 0.2649005651473999 -0.8350657224655151
vn 0.2502461075782776 0.2564767599105835 -0.9335933327674866
vn 0.4821791350841522 0.2649002969264984 -0.8350635170936584
vn 0.25026315450668335 0.25647079944610596 -0.9335904121398926
vn 0.835066556930542 0.26489803194999695 -0.48217520117759705
vn 0.48217514157295227 0.2649005651473999 -0.8350657224655151
vn 0.8350614309310913 0.2649005055427551 -0.48218265175819397
vn 0.964275062084198 0.2649029493331909 -1.6929951129895926e-7
vn 0.9642756581306458 0.2649007737636566 0.000004063202140969224
vn 0.5000391602516174 0 -0.8660027980804443
vn 0.25890642404556274 0 -0.9659023880958557
vn 0.8660027980804443 0 -0.5000391602516174
vn 0.5000391602516174 0 -0.8660027980804443
vn 1 0 0
vn 0.24891555309295654 -0.2747728228569031 -0.928730845451355
vn 0.4794820547103882 -0.2837005853652954 -0.8304281830787659
vn 0.2489382028579712 -0.2747728228569031 -0.9287247657775879
vn 0.47950080037117004 -0.28370821475982666 -0.8304147124290466
vn 0.8304255604743958 -0.28370845317840576 -0.47948187589645386
vn 0.47950080037117004 -0.28370821475982666 -0.8304147124290466
vn 0.8304199576377869 -0.2837075889110565 -0.4794921278953552
vn 0.9589101076126099 -0.28371015191078186 3.230936158615805e-7
vn 0.9589120745658875 -0.28370338678359985 -0.000010277543879055884
vn 0.25888004899024963 0 -0.965909481048584
vn 0.5000273585319519 0 -0.8660095930099487
vn 0.8660095930099487 0 -0.5000273585319519
vn 1 0 0
vn 0.0908738374710083 -0.9148275852203369 0.3934873938560486
vn -0.7025088667869568 -0.7115402221679688 -0.013847967609763145
vn 0.7070193290710449 -0.7071067094802856 -0.011125769466161728
vn -0.6722874641418457 -0.6809302568435669 0.2904537618160248
vn 0.6758033633232117 -0.6758871078491211 0.29405176639556885
vn 0.5803303718566895 -0.5804025530815125 0.5712701082229614
vn -0.578568696975708 -0.5860067009925842 0.5673221945762634
vn 0.001080780872143805 -0.7155876755714417 0.6985220909118652
vt 1 0
vt 0.5 0
vt 0.5 0.5
vt 0 0
vt 0.0004995167255401611 0.00099867582321167
vt 0.5 0.7674803137779236
vt 0.5000000596046448 0.0009992122650146484
vt 0.999500572681427 0.0009996891021728516
vt 0.7497503757476807 1.4995003938674927
vt 0.5000001192092896 1
vt 0.5000001192092896 1.9990005493164062
vt 0 1
vt 1 1
vt 0.999500572681427 1.9990007877349854
vt 0.999500572681427 1.000000238418579
vt 0.7497503757476807 0.5004998445510864
vt 0.5 1
vt 0.2502499222755432 1.4995001554489136
vt 0.000499725341796875 1.9990003108978271
vt 0.0004995167255401611 1.5339609384536743
vt 0.0004995167255401611 0.7674798369407654
vt 0.49999910593032837 0.0007369518280029297
vt 0.749748945236206 0.250249981880188
vt 0.999498724937439 0.000499725341796875
vt 0.49999919533729553 0.5000001788139343
vt 0.9995002746582031 0.7665550708770752
vt 0.4999999701976776 0.8830278515815735
vt 0.9994989633560181 0.9990260601043701
vt 0.250249445438385 0.749750405550003
vt 0.999499499797821 0.38352739810943604
vt 0.25024932622909546 0.25048720836639404
vt 0.0004994869232177734 0.0009742379188537598
vt 0.0004995763301849365 0.5002374351024628
vt 0.4999993145465851 0.999263346195221
vt 0.0004996657371520996 0.9995006322860718
vt -1.8493211269378662 2.616708278656006
vt -1.185663104057312 2.624776005744934
vt -1.1854294538497925 2.387315273284912
vt -0.5220050811767578 2.6328437328338623
vt -1.8488538265228271 2.141786813735962
vt -1.185429573059082 2.1353482007980347
vt -0.5220053195953369 2.1289095878601074
vt -0.5220052003860474 2.380876660346985
vt 0 0.6041005253791809
vt 0 0.6527525186538696
vt 2 0.6041005253791809
vt 2 0.6527525186538696
vt 0 0.6879504919052124
vt 2 0.6879503726959229
vt 2 0.550000011920929
vt 0 0.550000011920929
vt 0.0033549368381500244 0.11453402042388916
vt 0.0658426582813263 0.11453402042388916
vt 0.05111202597618103 0.16365844011306763
vt 0.11185508966445923 0.16365844011306763
vt 0.3348626494407654 0.11453402042388916
vt 0.19735538959503174 0.11453402042388916
vt 0.37986284494400024 0.16365844011306763
vt 0.4105238914489746 0.11453402042388916
vt 0.4256916642189026 0.16365844011306763
vt 0.0033549368381500244 0.0004994869232177734
vt 0.0658426582813263 0.0004994869232177734
vt 0.3348626494407654 0.0004994869232177734
vt 0.19735538959503174 0.0004994869232177734
vt 0.4105238914489746 0.0004994869232177734
vt 0.8205130696296692 0.11146271228790283
vt 0.8791266083717346 0.11146271228790283
vt 0.8598321676254272 0.0004534125328063965
vt 0.90566086769104 0.0004534125328063965
vt 1.1385859251022339 0.10904723405838013
vt 0.9023058414459229 0.0028687715530395508
vt 1.167311191558838 0.0004533529281616211
vt 1.2603532075881958 0.10904723405838013
vt 1.2131398916244507 0.0004533529281616211
vt 0.8205130696296692 0.1637517213821411
vt 0.8791264891624451 0.1637517213821411
vt 1.1385860443115234 0.1613362431526184
vt 1.2603532075881958 0.1613362431526184
vt 0.2164689302444458 0.5
vt 0 1
vt 0.4329378604888916 1
vt 0 0.5
vt 0.4329379200935364 0.5
vt 0.43293797969818115 0
vt 0 0
vt 0.21646898984909058 0
g Taventrance260
s 1
f 1/1/1 2/2/2 3/3/3
f 2/2/2 4/4/4 3/3/3
f 5/5/5 6/6/6 7/7/7
f 7/7/7 6/6/6 8/8/8
f 9/9/9 10/10/10 11/11/11
f 12/12/12 3/3/3 4/4/4
f 1/1/1 3/3/3 13/13/13
f 14/14/14 9/9/9 11/11/11
f 15/15/15 16/16/16 10/10/10
f 15/15/15 8/8/8 16/16/16
f 6/6/6 16/16/16 8/8/8
f 6/6/6 10/10/10 16/16/16
f 17/17/17 13/13/13 3/3/3
f 12/12/12 17/17/17 3/3/3
f 14/14/14 15/15/15 9/9/9
f 11/11/11 18/18/18 19/19/19
f 11/11/11 10/10/10 18/18/18
f 20/20/20 18/18/18 10/10/10
f 20/20/20 19/19/19 18/18/18
f 9/9/9 15/15/15 10/10/10
f 5/5/5 21/21/21 6/6/6
f 21/21/21 20/20/20 6/6/6
f 20/20/20 10/10/10 6/6/6
g Taventrance261
s 1
f 22/22/22 23/23/23 24/24/24
f 22/22/22 25/25/25 23/23/23
f 26/26/26 23/23/23 25/25/25
f 26/26/26 25/25/25 27/27/27
f 28/28/28 26/26/26 27/27/27
f 27/27/27 25/25/25 29/29/29
f 26/26/26 30/30/30 23/23/23
f 31/31/31 25/25/25 22/22/22
f 32/32/32 31/31/31 22/22/22
f 32/32/32 33/33/33 31/31/31
f 31/31/31 33/33/33 25/25/25
f 30/30/30 24/24/24 23/23/23
f 33/33/33 29/29/29 25/25/25
f 28/28/28 27/27/27 34/34/34
f 27/27/27 29/29/29 35/35/35
f 33/33/33 35/35/35 29/29/29
f 34/34/34 27/27/27 35/35/35
g Taventrance262
s 1
f 36/36/36 37/37/37 38/38/38
f 37/37/37 39/39/39 38/38/38
f 36/36/36 38/38/38 40/40/40
f 41/41/41 38/38/38 42/42/42
f 40/40/40 38/38/38 41/41/41
f 38/38/38 39/39/39 43/43/43
f 38/38/38 43/43/43 42/42/42
g Taventrance263
s 1
f 44/44/44 45/45/45 46/46/46
f 47/47/47 48/48/48 49/49/49
f 45/45/45 48/48/48 47/47/47
f 46/46/46 45/45/45 47/47/47
f 50/50/50 44/44/44 46/46/46
f 51/51/51 44/44/44 50/50/50
f 52/52/52 53/53/53 54/54/54
f 55/55/55 54/54/54 53/53/53
f 56/56/56 57/57/57 58/58/58
f 54/54/54 58/58/58 57/57/57
f 59/59/59 56/56/56 60/60/60
f 58/58/58 60/60/60 56/56/56
f 61/61/61 62/62/62 52/52/52
f 53/53/53 52/52/52 62/62/62
f 63/63/63 64/64/64 56/56/56
f 57/57/57 56/56/56 64/64/64
f 65/65/65 63/63/63 59/59/59
f 56/56/56 59/59/59 63/63/63
f 66/66/66 67/67/67 68/68/68
f 69/69/69 68/68/68 67/67/67
f 67/67/67 70/70/70 71/71/71
f 72/72/72 71/71/71 70/70/70
f 70/70/70 73/73/73 72/72/72
f 74/74/74 72/72/72 73/73/73
f 75/75/75 76/76/76 66/66/66
f 67/67/67 66/66/66 76/76/76
f 76/76/76 77/77/77 67/67/67
f 70/70/70 67/67/67 77/77/77
f 77/77/77 78/78/78 70/70/70
f 73/73/73 70/70/70 78/78/78
g Taventrance264
s 1
f 79/79/79 80/80/80 81/81/81
f 82/82/82 80/80/80 79/79/79
f 79/79/79 81/81/81 83/83/83
f 79/79/79 83/83/83 84/84/84
f 85/85/85 82/82/82 79/79/79
f 86/86/86 79/79/79 84/84/84
f 85/85/85 79/79/79 86/86/86
