# Exported using wow.export v0.2.19
o 21138_Garrison_Right.obj
v -34.43270492553711 5.459522724151611 -260.94390869140625
v -34.43270492553711 -0.6918778419494629 -260.94390869140625
v -34.43270492553711 2.383822202682495 -255.50872802734375
v -34.43270492553711 -0.691878080368042 -248.65904235839844
v -34.43270492553711 5.459522247314453 -248.65904235839844
v -34.43270492553711 -0.6918781399726868 -250.07354736328125
v -34.43270492553711 5.459522247314453 -250.07354736328125
v -34.432701110839844 5.459522724151611 -262.3583984375
v -34.432701110839844 -0.6918778419494629 -262.3583984375
v -38.441795349121094 -0.6918778419494629 -248.65904235839844
v -38.441795349121094 0.7844722270965576 -248.65904235839844
v -34.43270492553711 -0.691878080368042 -248.65904235839844
v -42.45088577270508 -0.6918776631355286 -248.65904235839844
v -34.43270492553711 5.459522247314453 -248.65904235839844
v -38.441795349121094 2.38382887840271 -248.65904235839844
v -38.441795349121094 5.459528923034668 -248.65904235839844
v -42.45088577270508 5.459536075592041 -248.65904235839844
v -42.45088577270508 2.2608225345611572 -248.65904235839844
v -34.432701110839844 -0.6918778419494629 -262.3583984375
v -38.441795349121094 2.3838276863098145 -262.3583984375
v -38.441795349121094 0.7844724655151367 -262.3583984375
v -34.43270492553711 -0.6918779611587524 -255.50872802734375
v -42.45088577270508 2.2608227729797363 -262.3583984375
v -42.45088577270508 -0.6918774843215942 -262.3583984375
v -42.45088577270508 5.459533214569092 -262.3583984375
v -34.432701110839844 5.459522724151611 -262.3583984375
v -42.45088577270508 5.459522724151611 -254.09915161132812
v -42.45088577270508 2.2608230113983154 -254.09915161132812
v -42.45088577270508 2.2608225345611572 -256.9183044433594
v -42.45088577270508 -0.6918780207633972 -256.9183044433594
v -42.45088577270508 5.459529399871826 -256.9183044433594
v -42.45088577270508 -0.6918776035308838 -254.09915161132812
v -38.441795349121094 -0.6918776631355286 -262.3583984375
v -38.441795349121094 5.459527969360352 -262.3583984375
v -34.43270492553711 5.459522247314453 -255.50872802734375
v -38.441795349121094 -0.6918777227401733 -260.94390869140625
v -38.441795349121094 -0.6918779611587524 -258.93109130859375
v -34.43270492553711 -0.6918778419494629 -260.94390869140625
v -40.44634246826172 -0.6918773651123047 -252.7911376953125
v -38.441795349121094 -0.691877543926239 -255.50872802734375
v -42.45088577270508 -0.6918776035308838 -254.09915161132812
v -38.441795349121094 -0.6918777227401733 -250.07354736328125
v -42.45088577270508 -0.6918772459030151 -250.07354736328125
v -38.441795349121094 -0.6918777227401733 -257.52154541015625
v -42.45088577270508 -0.6918776631355286 -248.65904235839844
v -38.441795349121094 -0.6918778419494629 -248.65904235839844
v -38.441795349121094 -0.6918776631355286 -249.36630249023438
v -34.43270492553711 -0.691878080368042 -248.65904235839844
v -34.432701110839844 -0.6918778419494629 -262.3583984375
v -38.441795349121094 -0.6918776631355286 -262.3583984375
v -38.441795349121094 -0.6918776631355286 -261.6511535644531
v -42.45088577270508 -0.6918774843215942 -262.3583984375
v -34.43270492553711 -0.6918781399726868 -250.07354736328125
v -42.45088577270508 -0.6918776631355286 -260.94390869140625
v -42.45088577270508 -0.6918780207633972 -256.9183044433594
v -36.43724822998047 -0.6918777227401733 -258.226318359375
v -36.43724822998047 -0.6918778419494629 -252.7911376953125
v -34.43270492553711 -0.6918779611587524 -255.50872802734375
v -42.45088577270508 -0.6918774843215942 -262.3583984375
v -42.45088577270508 2.2608227729797363 -262.3583984375
v -42.45088577270508 -0.6918776631355286 -260.94390869140625
v -42.45088577270508 2.2608230113983154 -250.07354736328125
v -42.45088577270508 5.459536075592041 -250.07354736328125
v -42.45088577270508 2.2608225345611572 -248.65904235839844
v -42.45088577270508 5.459536075592041 -248.65904235839844
v -42.45088577270508 -0.6918776631355286 -248.65904235839844
v -42.45088577270508 -0.6918772459030151 -250.07354736328125
v -42.45088577270508 5.459533214569092 -262.3583984375
v -42.45088577270508 2.2608225345611572 -260.94390869140625
v -42.45088577270508 5.459533214569092 -260.94390869140625
v -42.45088577270508 5.459533214569092 -262.3583984375
v -38.441795349121094 5.459527969360352 -262.3583984375
v -38.441795349121094 5.459527969360352 -261.6511535644531
v -38.441795349121094 5.459528923034668 -248.65904235839844
v -42.45088577270508 5.459536075592041 -248.65904235839844
v -38.441795349121094 5.459528923034668 -249.36630249023438
v -34.43270492553711 5.459522247314453 -248.65904235839844
v -36.64631652832031 5.9307637214660645 -250.67044067382812
v -36.64631652832031 5.930765151977539 -255.50872802734375
v -36.541595458984375 5.459522724151611 -250.56573486328125
v -36.593955993652344 5.6951446533203125 -255.4563751220703
v -42.45088577270508 5.459533214569092 -260.94390869140625
v -38.195701599121094 5.459527969360352 -260.69781494140625
v -41.95869827270508 5.459532737731934 -260.45172119140625
v -36.54159164428711 5.459524631500244 -260.45172119140625
v -34.43270492553711 5.459522724151611 -260.94390869140625
v -38.441795349121094 5.459528923034668 -250.07354736328125
v -34.43270492553711 5.459522247314453 -250.07354736328125
v -42.45088577270508 5.459536075592041 -250.07354736328125
v -38.441795349121094 5.459528923034668 -250.07354736328125
v -42.45088577270508 5.459536075592041 -250.07354736328125
v -36.541595458984375 5.459522724151611 -250.56573486328125
v -34.43270492553711 5.459522247314453 -250.07354736328125
v -42.45088577270508 5.459533214569092 -260.94390869140625
v -34.43270492553711 5.459522724151611 -260.94390869140625
v -34.432701110839844 5.459522724151611 -262.3583984375
v -35.51006317138672 4.533846378326416 -261.17236328125
v -35.78794479370117 -0.08072095364332199 -260.8941345214844
v -34.432708740234375 -0.08072137832641602 -260.8941345214844
v -34.43270492553711 4.533846378326416 -261.17236328125
v -35.51006317138672 4.533846378326416 -262.3583984375
v -35.78794479370117 -0.08072095364332199 -262.3583984375
v -35.78794479370117 -0.08072095364332199 -260.8941345214844
v -35.51006317138672 4.533846378326416 -261.17236328125
v -34.43270492553711 5.459522247314453 -255.50872802734375
v -35.48714828491211 5.4595232009887695 -255.26263427734375
v -36.54159164428711 5.459524631500244 -260.45172119140625
v -34.43270492553711 5.459522247314453 -250.07354736328125
v -34.43270492553711 5.459522724151611 -260.94390869140625
v -36.64631652832031 5.9307661056518555 -260.3470153808594
v -36.541595458984375 5.459523677825928 -255.50872802734375
v -42.45088577270508 5.459536075592041 -250.07354736328125
v -42.45088577270508 2.2608230113983154 -250.07354736328125
v -42.45088577270508 3.03108811378479 -250.2267608642578
v -42.45088577270508 4.120408535003662 -251.3160858154297
v -42.45088577270508 4.273623466491699 -252.0863494873047
v -42.45088577270508 3.6840875148773193 -250.6630859375
v -42.45088577270508 5.459522724151611 -254.09915161132812
v -42.45088577270508 4.120408535003662 -252.8566131591797
v -42.45088577270508 3.0310885906219482 -253.94593811035156
v -42.45088577270508 2.2608230113983154 -254.09915161132812
v -35.51006317138672 4.533846378326416 -248.65904235839844
v -35.51006317138672 4.533846378326416 -249.8115997314453
v -35.78794479370117 -0.08072074502706528 -250.08987426757812
v -35.78794479370117 -0.08072095364332199 -248.65904235839844
v -35.51006317138672 4.533846378326416 -249.8115997314453
v -34.432708740234375 4.533846378326416 -249.8115997314453
v -34.432708740234375 -0.0807211697101593 -250.08987426757812
v -35.78794479370117 -0.08072074502706528 -250.08987426757812
v -41.85397720336914 5.930773735046387 -260.3470153808594
v -41.853981018066406 5.930772304534912 -256.9183044433594
v -41.95869827270508 5.459532737731934 -260.45172119140625
v -41.95869827270508 5.459530830383301 -256.9183044433594
v -41.85398483276367 5.930764198303223 -254.09915161132812
v -41.95869827270508 5.4595232009887695 -254.09915161132812
v -36.64631652832031 5.9307661056518555 -260.3470153808594
v -41.85397720336914 5.930773735046387 -260.3470153808594
v -41.853981018066406 5.9307732582092285 -250.67044067382812
v -36.64631652832031 5.9307637214660645 -250.67044067382812
v -41.95869827270508 5.459532737731934 -250.56573486328125
v -41.853981018066406 5.9307732582092285 -250.67044067382812
v -41.95869827270508 5.459532737731934 -250.56573486328125
v -42.45088577270508 5.459533214569092 -260.94390869140625
v -42.45088577270508 5.459529399871826 -256.9183044433594
v -42.45088577270508 5.459522724151611 -254.09915161132812
v -42.45088577270508 5.459536075592041 -250.07354736328125
v -38.441795349121094 5.459527969360352 -260.94390869140625
v -38.441795349121094 5.459527969360352 -260.94390869140625
v -42.45088577270508 5.459533214569092 -260.94390869140625
v -42.45088577270508 5.459529399871826 -256.9183044433594
v -42.45088577270508 4.273622989654541 -258.93109130859375
v -42.45088577270508 3.684087038040161 -260.3543701171875
v -42.45088577270508 3.031087636947632 -260.7906799316406
v -42.45088577270508 4.120408058166504 -259.70135498046875
v -42.45088577270508 2.2608225345611572 -260.94390869140625
v -42.45088577270508 3.6840875148773193 -257.5078430175781
v -42.45088577270508 4.120408058166504 -258.16082763671875
v -42.45088577270508 3.03108811378479 -257.0715026855469
v -42.45088577270508 2.2608225345611572 -256.9183044433594
v -42.45088577270508 3.6840879917144775 -253.5095977783203
v -36.64631652832031 5.930765151977539 -255.50872802734375
v -36.64631652832031 5.9307637214660645 -250.67044067382812
v -39.250144958496094 5.930768966674805 -255.50872802734375
v -41.85398483276367 5.930764198303223 -254.09915161132812
v -41.853981018066406 5.930772304534912 -256.9183044433594
v -39.25014877319336 5.930768013000488 -253.79437255859375
v -36.64631652832031 5.9307661056518555 -260.3470153808594
v -41.85397720336914 5.930773735046387 -260.3470153808594
v -41.853981018066406 5.9307732582092285 -250.67044067382812
v -35.50575637817383 4.9810471534729 -255.5087127685547
v -34.432708740234375 4.981046676635742 -255.5087127685547
v -35.50575637817383 4.776575565338135 -250.54669189453125
v -34.432708740234375 4.533846378326416 -249.8115997314453
v -35.51006317138672 4.533846378326416 -249.8115997314453
v -34.432708740234375 4.533846378326416 -250.474853515625
v -36.063289642333984 4.533846378326416 -250.474853515625
v -35.51006317138672 4.533846378326416 -249.8115997314453
v -36.063289642333984 4.533846378326416 -248.65904235839844
v -36.063289642333984 4.533846378326416 -250.474853515625
v -35.51006317138672 4.533846378326416 -248.65904235839844
v -35.50575637817383 4.776575565338135 -250.54669189453125
v -34.43270492553711 4.776575565338135 -250.54669189453125
v -36.40465545654297 5.455684185028076 -250.74766540527344
v -35.84712219238281 5.455684185028076 -250.8195037841797
v -36.40465545654297 5.455684185028076 -250.74766540527344
v -36.146202087402344 4.776575088500977 -249.8349151611328
v -36.40465545654297 5.455684185028076 -250.00111389160156
v -36.1494140625 4.789559841156006 -248.65904235839844
v -35.78794479370117 -0.08072074502706528 -250.08987426757812
v -34.43270492553711 -0.24067476391792297 -250.73695373535156
v -36.30413055419922 -0.24067439138889313 -250.7369842529297
v -34.432708740234375 -0.0807211697101593 -250.08987426757812
v -35.78794479370117 -0.08072095364332199 -248.65904235839844
v -36.30413055419922 -0.24067439138889313 -250.7369842529297
v -36.30413055419922 -0.24067465960979462 -248.65904235839844
v -35.78794479370117 -0.08072074502706528 -250.08987426757812
v -34.432708740234375 -0.6918784379959106 -250.7708282470703
v -36.33816909790039 -0.6918780207633972 -250.7708282470703
v -36.33816909790039 -0.6918780207633972 -250.7708282470703
v -36.33816909790039 -0.6918781995773315 -248.65904235839844
v -34.43270492553711 4.776575565338135 -250.54669189453125
v -35.84712219238281 5.459522247314453 -255.5087127685547
v -35.84712219238281 5.455684185028076 -250.8195037841797
v -39.03544235229492 4.9459733963012695 -249.8349151611328
v -39.03544235229492 5.455684185028076 -250.00111389160156
v -36.146202087402344 4.776575088500977 -249.8349151611328
v -36.40465545654297 5.455684185028076 -250.00111389160156
v -39.03544616699219 4.958958625793457 -248.65904235839844
v -36.1494140625 4.789559841156006 -248.65904235839844
v -42.45088577270508 4.780426502227783 -249.8349151611328
v -42.45088577270508 5.459536075592041 -250.00111389160156
v -42.45088577270508 4.793411731719971 -248.65904235839844
v -34.432708740234375 4.533846378326416 -260.5091247558594
v -35.51006317138672 4.533846378326416 -261.17236328125
v -34.43270492553711 4.533846378326416 -261.17236328125
v -36.06329345703125 4.533846378326416 -260.5091247558594
v -36.06329345703125 4.533846378326416 -260.5091247558594
v -36.06329345703125 4.533846378326416 -262.3583984375
v -35.51006317138672 4.533846378326416 -261.17236328125
v -35.51006317138672 4.533846378326416 -262.3583984375
v -34.432708740234375 4.776575565338135 -260.4372863769531
v -35.50575637817383 4.776575565338135 -260.4372863769531
v -35.84712219238281 5.455684185028076 -260.1644592285156
v -36.40465545654297 5.455684185028076 -260.2362976074219
v -36.40465545654297 5.455684185028076 -260.98284912109375
v -36.14620590209961 4.776575088500977 -261.1490783691406
v -36.40465545654297 5.455684185028076 -260.2362976074219
v -36.1494140625 4.789559841156006 -262.3583984375
v -36.30413055419922 -0.24067465960979462 -260.24700927734375
v -34.432708740234375 -0.24067422747612 -260.24700927734375
v -35.78794479370117 -0.08072095364332199 -260.8941345214844
v -34.432708740234375 -0.08072137832641602 -260.8941345214844
v -36.30413055419922 -0.24067422747612 -262.3583984375
v -36.30413055419922 -0.24067465960979462 -260.24700927734375
v -35.78794479370117 -0.08072095364332199 -262.3583984375
v -35.78794479370117 -0.08072095364332199 -260.8941345214844
v -36.33816909790039 -0.6918781995773315 -260.213134765625
v -34.432708740234375 -0.6918781995773315 -260.213134765625
v -36.33816909790039 -0.6918778419494629 -262.3583984375
v -36.33816909790039 -0.6918781995773315 -260.213134765625
v -35.50575637817383 4.776575565338135 -260.4372863769531
v -34.432708740234375 4.776575565338135 -260.4372863769531
v -35.84712219238281 5.455684185028076 -260.1644592285156
v -36.14620590209961 4.776575088500977 -261.1490783691406
v -39.03544235229492 5.455684185028076 -260.98284912109375
v -39.03544235229492 4.9459733963012695 -261.1490783691406
v -36.40465545654297 5.455684185028076 -260.98284912109375
v -36.1494140625 4.789559841156006 -262.3583984375
v -39.03544616699219 4.958959102630615 -262.3583984375
v -42.45088577270508 4.780426502227783 -261.1490783691406
v -42.45088577270508 5.459536075592041 -260.98284912109375
v -42.45088577270508 4.793412208557129 -262.3583984375
vn -0.7071071863174438 -0.7071064114570618 -2.7571370964096786e-8
vn -0.7071067690849304 0.7071068286895752 1.302894361288054e-7
vn -0.9999999403953552 2.9502785992008285e-7 7.263261636580864e-8
vn -0.5773502588272095 0.5773502588272095 -0.5773502588272095
vn -0.5773509740829468 -0.5773499011993408 -0.5773499011993408
vn -0.7071067690849304 0.7071068286895752 1.7232116178433898e-8
vn -0.7071071863174438 -0.7071064114570618 -2.7571370964096786e-8
vn -0.5773512125015259 -0.5773504972457886 0.5773491263389587
vn -0.5773506760597229 0.5773507356643677 0.5773493647575378
vn 0 0.7071067690849304 -0.7071067690849304
vn 0.09175171703100204 0.40824830532073975 -0.9082483053207397
vn -0.5773502588272095 0.5773502588272095 -0.5773502588272095
vn 0.5773502588272095 0.5773502588272095 -0.5773502588272095
vn -0.5773509740829468 -0.5773499011993408 -0.5773499011993408
vn -5.678103320860828e-7 -3.0971472142482526e-7 -1
vn -8.39505560179532e-7 -0.7071067690849304 -0.7071067690849304
vn 0.5773496031761169 -0.5773506164550781 -0.5773506164550781
vn 0.7071067690849304 0 -0.7071067690849304
vn -0.5773506760597229 0.5773507356643677 0.5773493647575378
vn -7.742875709482178e-7 2.064766846388011e-7 1
vn 0.09175144881010056 0.40824878215789795 0.9082480072975159
vn -0.7071067690849304 0.7071068286895752 7.376077348908439e-8
vn 0.7071067690849304 0 0.7071067690849304
vn 0.5773502588272095 0.5773502588272095 0.5773502588272095
vn 0.5773497819900513 -0.5773504972457886 0.5773504972457886
vn -0.5773512125015259 -0.5773504972457886 0.5773491263389587
vn 0.7071070671081543 -0.7071064710617065 -8.505001574121707e-7
vn 0.707106351852417 -0.06930698454380035 0.703702449798584
vn 0.7071071863174438 -0.06930706650018692 -0.7037016153335571
vn 0.4082483649253845 0.8164967894554138 -0.40824779868125916
vn 0.7071070671081543 -0.7071064710617065 -8.505001574121707e-7
vn 0.4082481861114502 0.8164964318275452 0.408248633146286
vn -2.5550176019351056e-7 0.7071072459220886 0.707106351852417
vn -8.760059699852718e-7 -0.7071072459220886 0.707106351852417
vn -0.7071071863174438 -0.7071064114570618 -2.7571370964096786e-8
vn -0.1861567497253418 0.9490414261817932 0.2542950212955475
vn -0.18615670502185822 0.9490415453910828 -0.2542944848537445
vn -0.7071067690849304 0.7071068286895752 1.302894361288054e-7
vn 0.11696459352970123 0.9298215508460999 -0.3489287197589874
vn -0.18615677952766418 0.9490414261817932 -0.25429484248161316
vn 0.4082481861114502 0.8164964318275452 0.408248633146286
vn -0.18615677952766418 0.9490414261817932 -0.25429490208625793
vn 0.40824824571609497 0.8164965510368347 -0.4082483649253845
vn -0.18615683913230896 0.9490413665771484 0.2542951703071594
vn 0.5773502588272095 0.5773502588272095 -0.5773502588272095
vn 0 0.7071067690849304 -0.7071067690849304
vn -0.09857521951198578 0.8125198483467102 -0.5745384097099304
vn -0.5773502588272095 0.5773502588272095 -0.5773502588272095
vn -0.5773506760597229 0.5773507356643677 0.5773493647575378
vn -2.5550176019351056e-7 0.7071072459220886 0.707106351852417
vn -0.09175170212984085 0.908248245716095 0.40824833512306213
vn 0.5773502588272095 0.5773502588272095 0.5773502588272095
vn -0.7071067690849304 0.7071068286895752 1.7232116178433898e-8
vn 0.40824830532073975 0.8164965510368347 0.4082483947277069
vn 0.4082483649253845 0.8164967894554138 -0.40824779868125916
vn -0.47043776512145996 0.8722113370895386 -0.1339244544506073
vn -0.47043776512145996 0.8722113370895386 -0.13392449915409088
vn -0.7071067690849304 0.7071068286895752 7.376077348908439e-8
vn 0.5773502588272095 0.5773502588272095 0.5773502588272095
vn 0.7071067690849304 0 0.7071067690849304
vn 0.40824830532073975 0.8164965510368347 0.4082483947277069
vn 0.7071067690849304 -0.06930706650018692 -0.7037020325660706
vn 0.7071061730384827 -0.7071073651313782 0.000004676298431149917
vn 0.7071067690849304 0 -0.7071067690849304
vn 0.5773496031761169 -0.5773506164550781 -0.5773506164550781
vn 0.5773502588272095 0.5773502588272095 -0.5773502588272095
vn 0.40824824571609497 0.8164965510368347 -0.4082483649253845
vn 0.5773497819900513 -0.5773504972457886 0.5773504972457886
vn 0.7071067690849304 -0.06930706650018692 0.7037020325660706
vn 0.7071062922477722 -0.7071072459220886 3.2553052164985274e-7
vn 0.5773497819900513 -0.5773504972457886 0.5773504972457886
vn -8.760059699852718e-7 -0.7071072459220886 0.707106351852417
vn 0.09175068885087967 -0.9082486629486084 0.4082476496696472
vn -8.39505560179532e-7 -0.7071067690849304 -0.7071067690849304
vn 0.5773496031761169 -0.5773506164550781 -0.5773506164550781
vn -0.09175244718790054 -0.9082480669021606 -0.4082484543323517
vn -0.5773509740829468 -0.5773499011993408 -0.5773499011993408
vn -0.4904434382915497 -0.7203684449195862 -0.4904431998729706
vn -0.5627739429473877 -0.8266108632087708 -3.419763672241061e-8
vn -0.49044069647789 -0.7203699946403503 -0.49044370651245117
vn -0.5627725124359131 -0.8266118764877319 -3.248776181408175e-7
vn 0.7071062922477722 -0.7071072459220886 3.2553052164985274e-7
vn -0.1420898139476776 -0.9361417293548584 0.32163500785827637
vn 0.4904416501522064 -0.720368504524231 0.4904448986053467
vn -0.49044114351272583 -0.7203699946403503 0.49044325947761536
vn -0.7071071863174438 -0.7071064114570618 -2.7571370964096786e-8
vn -7.164962880779058e-7 -0.9999999403953552 0.0000032871457733563147
vn -0.7071071863174438 -0.7071064114570618 -2.7571370964096786e-8
vn 0.7071061730384827 -0.7071073651313782 0.000004676298431149917
vn -7.164962880779058e-7 -0.9999999403953552 0.0000032871457733563147
vn 0.7071061730384827 -0.7071073651313782 0.000004676298431149917
vn -0.49044069647789 -0.7203699946403503 -0.49044370651245117
vn -0.7071071863174438 -0.7071064114570618 -2.7571370964096786e-8
vn 0.7071062922477722 -0.7071072459220886 3.2553052164985274e-7
vn -0.7071071863174438 -0.7071064114570618 -2.7571370964096786e-8
vn -0.5773512125015259 -0.5773504972457886 0.5773491263389587
vn -0.6001191139221191 -0.5288835763931274 0.6001160144805908
vn -0.47590720653533936 0.7524710297584534 0.4553017020225525
vn 1.977743551151434e-7 0.639884352684021 0.7684712409973145
vn -2.7316605155647267e-7 -0.6854974627494812 0.7280750274658203
vn -0.7280484437942505 -0.6855257153511047 0
vn -0.786777675151825 0.6172364354133606 1.1657304099799148e-7
vn -0.47590720653533936 0.7524710297584534 0.4553017020225525
vn -0.6001191139221191 -0.5288835763931274 0.6001160144805908
vn -0.7071071863174438 -0.7071064114570618 -2.7571370964096786e-8
vn -0.6215396523475647 -0.7408746480941772 0.2545449733734131
vn -0.49044114351272583 -0.7203699946403503 0.49044325947761536
vn -0.7071071863174438 -0.7071064114570618 -2.7571370964096786e-8
vn -0.7071071863174438 -0.7071064114570618 -2.7571370964096786e-8
vn -0.49044138193130493 -0.7203698754310608 0.4904431402683258
vn -0.5627723336219788 -0.8266119956970215 -2.5648233759056893e-7
vn 0.7071061730384827 -0.7071073651313782 0.000004676298431149917
vn 0.7071067690849304 -0.06930706650018692 -0.7037020325660706
vn 0.7071067690849304 -0.27060121297836304 -0.6532801985740662
vn 0.7071067690849304 -0.6532809138298035 -0.2705993950366974
vn 0.7071067690849304 -0.7071067690849304 0
vn 0.7071067690849304 -0.5000025033950806 -0.49999749660491943
vn 0.7071070671081543 -0.7071064710617065 -8.505001574121707e-7
vn 0.7071067690849304 -0.6532809734344482 0.27059927582740784
vn 0.7071067690849304 -0.27060115337371826 0.6532801985740662
vn 0.707106351852417 -0.06930698454380035 0.703702449798584
vn -0.7280484437942505 -0.6855257153511047 -2.61731855744074e-7
vn -0.6001202464103699 -0.5288811326026917 -0.600117027759552
vn -0.47590526938438416 0.7524720430374146 -0.45530208945274353
vn -0.786777913570404 0.6172361373901367 7.871525298241977e-8
vn -0.6001202464103699 -0.5288811326026917 -0.600117027759552
vn -2.6968893962475704e-7 -0.6854953169822693 -0.7280770540237427
vn 1.9774012116613449e-7 0.6398823857307434 -0.7684728503227234
vn -0.47590526938438416 0.7524720430374146 -0.45530208945274353
vn 0.4904397130012512 -0.7203704714775085 0.4904439449310303
vn 0.6257288455963135 -0.7800406813621521 -0.000001475664589634107
vn 0.4904416501522064 -0.720368504524231 0.4904448986053467
vn 0.6257317662239075 -0.7800382971763611 -0.000002111001094817766
vn 0.625730037689209 -0.7800397276878357 0.000001502598138358735
vn 0.6257283687591553 -0.7800410389900208 -0.0000011583198329390143
vn -0.49044138193130493 -0.7203698754310608 0.4904431402683258
vn 0.4904397130012512 -0.7203704714775085 0.4904439449310303
vn 0.49044176936149597 -0.7203693985939026 -0.49044349789619446
vn -0.4904434382915497 -0.7203684449195862 -0.4904431998729706
vn 0.49044203758239746 -0.720369815826416 -0.4904426336288452
vn 0.49044176936149597 -0.7203693985939026 -0.49044349789619446
vn 0.49044203758239746 -0.720369815826416 -0.4904426336288452
vn 0.7071062922477722 -0.7071072459220886 3.2553052164985274e-7
vn 0.7071070671081543 -0.7071064710617065 -8.505001574121707e-7
vn 0.7071070671081543 -0.7071064710617065 -8.505001574121707e-7
vn 0.7071061730384827 -0.7071073651313782 0.000004676298431149917
vn -6.322026706584438e-7 -0.9999999403953552 2.1068892408493411e-7
vn -6.322026706584438e-7 -0.9999999403953552 2.1068892408493411e-7
vn 0.7071062922477722 -0.7071072459220886 3.2553052164985274e-7
vn 0.7071070671081543 -0.7071064710617065 -8.505001574121707e-7
vn 0.7071067690849304 -0.7071067690849304 0
vn 0.7071067690849304 -0.5000025033950806 0.49999749660491943
vn 0.7071067690849304 -0.27060121297836304 0.6532801985740662
vn 0.7071067690849304 -0.6532809138298035 0.2705993950366974
vn 0.7071067690849304 -0.06930706650018692 0.7037020325660706
vn 0.7071067690849304 -0.5000026226043701 -0.4999973475933075
vn 0.7071067690849304 -0.6532809734344482 -0.27059927582740784
vn 0.7071067690849304 -0.27060115337371826 -0.6532801985740662
vn 0.7071071863174438 -0.06930706650018692 -0.7037016153335571
vn 0.7071067690849304 -0.5000026226043701 0.4999973475933075
vn -0.5627739429473877 -0.8266108632087708 -3.419763672241061e-8
vn -0.4904434382915497 -0.7203684449195862 -0.4904431998729706
vn -0.0000025856802494672593 -1 5.171360726308194e-7
vn 0.625730037689209 -0.7800397276878357 0.000001502598138358735
vn 0.6257288455963135 -0.7800406813621521 -0.000001475664589634107
vn 0.08539026975631714 -0.947037398815155 -0.3095618784427643
vn -0.49044138193130493 -0.7203698754310608 0.4904431402683258
vn 0.4904397130012512 -0.7203704714775085 0.4904439449310303
vn 0.49044176936149597 -0.7203693985939026 -0.49044349789619446
vn -0.6419099569320679 -0.7664425373077393 -0.022748012095689774
vn -3.9466593193537847e-7 -0.9991520643234253 -0.04117228090763092
vn -0.3290546238422394 -0.705649197101593 -0.627520740032196
vn -2.6968893962475704e-7 -0.6854953169822693 -0.7280770540237427
vn -0.6001202464103699 -0.5288811326026917 -0.600117027759552
vn -3.131553967250511e-7 -0.8011766672134399 -0.5984278917312622
vn -0.44567909836769104 -0.773317277431488 -0.45094406604766846
vn -0.6001202464103699 -0.5288811326026917 -0.600117027759552
vn -0.5834457278251648 -0.8121521472930908 -1.8993956985013938e-7
vn -0.44567909836769104 -0.773317277431488 -0.45094406604766846
vn -0.7280484437942505 -0.6855257153511047 -2.61731855744074e-7
vn -0.3290546238422394 -0.705649197101593 -0.627520740032196
vn -3.0924124416742416e-7 -0.7886848449707031 -0.6147976517677307
vn -0.44073548913002014 -0.44442465901374817 -0.7798967361450195
vn -0.7265040278434753 -0.5809965133666992 -0.36692628264427185
vn -0.44073548913002014 -0.44442465901374817 -0.7798967361450195
vn -0.4677615165710449 -0.7695977091789246 -0.4346475601196289
vn -0.634580671787262 -0.40291762351989746 -0.6595185399055481
vn -0.6042847037315369 -0.7967355251312256 0.007244372274726629
vn -0.47590526938438416 0.7524720430374146 -0.45530208945274353
vn 0.00001119885655498365 0.6455242037773132 -0.763739824295044
vn -0.47179481387138367 0.7574154138565063 -0.4513663053512573
vn 1.9774012116613449e-7 0.6398823857307434 -0.7684728503227234
vn -0.786777913570404 0.6172361373901367 7.871525298241977e-8
vn -0.47179481387138367 0.7574154138565063 -0.4513663053512573
vn -0.7820802330970764 0.6231777667999268 7.758020359460716e-8
vn -0.47590526938438416 0.7524720430374146 -0.45530208945274353
vn 1.7070004076913392e-8 0.07482048869132996 -0.9971970319747925
vn -0.7031274437904358 0.1057993695139885 -0.7031488418579102
vn -0.7031274437904358 0.1057993695139885 -0.7031488418579102
vn -0.9971667528152466 0.07522288709878922 7.700869275595323e-9
vn -3.0924124416742416e-7 -0.7886848449707031 -0.6147976517677307
vn -0.8140593767166138 -0.5807814598083496 -0.0004753562097903341
vn -0.7265040278434753 -0.5809965133666992 -0.36692628264427185
vn -0.011401351541280746 -0.9276179671287537 -0.37335625290870667
vn -0.018173309043049812 -0.3099617063999176 -0.9505753517150879
vn -0.4677615165710449 -0.7695977091789246 -0.4346475601196289
vn -0.634580671787262 -0.40291762351989746 -0.6595185399055481
vn -0.005098005756735802 -0.9999260306358337 0.011042322963476181
vn -0.6042847037315369 -0.7967355251312256 0.007244372274726629
vn 0.03934311494231224 -0.8116995096206665 -0.5827487111091614
vn -0.0002681093174032867 -0.23772422969341278 -0.9713326692581177
vn 0.048410315066576004 -0.9987666606903076 0.011029677465558052
vn -3.1547935464004695e-7 -0.8011766672134399 0.5984278917312622
vn -0.6001191139221191 -0.5288835763931274 0.6001160144805908
vn -2.7316605155647267e-7 -0.6854974627494812 0.7280750274658203
vn -0.44567975401878357 -0.7733163237571716 0.45094501972198486
vn -0.44567975401878357 -0.7733163237571716 0.45094501972198486
vn -0.583450436592102 -0.8121487498283386 0
vn -0.6001191139221191 -0.5288835763931274 0.6001160144805908
vn -0.7280484437942505 -0.6855257153511047 0
vn -3.0954385010772967e-7 -0.7885990738868713 0.6149077415466309
vn -0.32901886105537415 -0.7055957317352295 0.6275995969772339
vn -0.726479709148407 -0.580998420715332 0.3669714331626892
vn -0.4407363831996918 -0.44442301988601685 0.779897153377533
vn -0.6345782279968262 -0.40293747186660767 0.6595088243484497
vn -0.467728853225708 -0.7695612907409668 0.43474721908569336
vn -0.4407363831996918 -0.44442301988601685 0.779897153377533
vn -0.6043106317520142 -0.796717643737793 -0.007045557722449303
vn -0.4717883765697479 0.7574253082275391 0.451356440782547
vn -1.462038881072658e-7 0.6455252766609192 0.7637389302253723
vn -0.47590720653533936 0.7524710297584534 0.4553017020225525
vn 1.977743551151434e-7 0.639884352684021 0.7684712409973145
vn -0.7820799946784973 0.6231780648231506 1.2383378589220229e-7
vn -0.4717883765697479 0.7574253082275391 0.451356440782547
vn -0.786777675151825 0.6172364354133606 1.1657304099799148e-7
vn -0.47590720653533936 0.7524710297584534 0.4553017020225525
vn -0.7031258940696716 0.10584117472171783 0.7031440734863281
vn 0 0.07488010823726654 0.9971925616264343
vn -0.9971667528152466 0.07522287964820862 1.3004537890992651e-8
vn -0.7031258940696716 0.10584117472171783 0.7031440734863281
vn -0.32901886105537415 -0.7055957317352295 0.6275995969772339
vn -3.0954385010772967e-7 -0.7885990738868713 0.6149077415466309
vn -0.726479709148407 -0.580998420715332 0.3669714331626892
vn -0.467728853225708 -0.7695612907409668 0.43474721908569336
vn -0.018176009878516197 -0.31000739336013794 0.9505603909492493
vn -0.011401251889765263 -0.9275381565093994 0.3735545575618744
vn -0.6345782279968262 -0.40293747186660767 0.6595088243484497
vn -0.6043106317520142 -0.796717643737793 -0.007045557722449303
vn -0.005098073277622461 -0.9999293684959412 -0.010737298987805843
vn 0.03933953866362572 -0.8116248250007629 0.5828529596328735
vn -0.00026815084856934845 -0.23776081204414368 0.9713236689567566
vn 0.048410527408123016 -0.9987699389457703 -0.010724997147917747
vt 2.689051628112793 1.9989964962005615
vt 2.689051628112793 0.000999152660369873
vt 1.5000001192092896 0.9999976754188538
vt 0.001499086618423462 0.0009990930557250977
vt 0.001499265432357788 1.9989962577819824
vt 0.3109484910964966 0.0009990334510803223
vt 0.3109486699104309 1.9989962577819824
vt 2.9985013008117676 1.9989964962005615
vt 2.9985013008117676 0.000999152660369873
vt 1.0007498264312744 0.000999152660369873
vt 1.000749945640564 0.4805230498313904
vt 2 0.0009990930557250977
vt 0.0014998018741607666 0.0009992122650146484
vt 2 1.9989962577819824
vt 1.0007498264312744 1
vt 1.000749945640564 1.9989985823631287
vt 0.0014998018741607666 1.999000906944275
vt 0.0014998018741607666 0.9600470066070557
vt 0.001499176025390625 0.000999152660369873
vt 1.0007495880126953 0.9999995231628418
vt 1.0007495880126953 0.48052310943603516
vt 1.5 0.0009990930557250977
vt 2 0.9600470662117004
vt 2 0.0009992718696594238
vt 2 1.9989999532699585
vt 0.001499176025390625 1.9989964962005615
vt 1.8083728551864624 1.9989964962005615
vt 1.8083728551864624 0.9600470066070557
vt 1.1916277408599854 0.9600470066070557
vt 1.1916277408599854 0.0009990334510803223
vt 1.1916277408599854 1.9989986419677734
vt 1.808372974395752 0.0009990930557250977
vt 1.0007495880126953 0.0009992122650146484
vt 1.0007495880126953 1.99899822473526
vt 1.500000238418579 1.998996376991272
vt 10.898676872253418 11.00718879699707
vt 10.477344512939453 11.00718879699707
vt 10.898676872253418 10.108704566955566
vt 9.192087173461914 11.456432342529297
vt 9.760950088500977 11.007189750671387
vt 9.465888977050781 11.905674934387207
vt 8.623224258422852 11.007190704345703
vt 8.623224258422852 11.905674934387207
vt 10.182283401489258 11.007189750671387
vt 8.327132225036621 11.905674934387207
vt 8.327132225036621 11.007190704345703
vt 8.475177764892578 11.007190704345703
vt 8.327132225036621 10.108705520629883
vt 11.194768905639648 10.108704566955566
vt 11.194768905639648 11.00718879699707
vt 11.046722412109375 11.00718879699707
vt 11.194768905639648 11.90567398071289
vt 8.623224258422852 10.108705520629883
vt 10.898676872253418 11.90567398071289
vt 10.056013107299805 11.90567398071289
vt 10.329813003540039 10.557947158813477
vt 9.192087173461914 10.557947158813477
vt 9.760950088500977 10.108705520629883
vt 3.5579123497009277 0.0009989738464355469
vt 3.5579123497009277 0.9600468873977661
vt 3.082477569580078 0.0009990334510803223
vt 0.03734290599822998 0.9600469470024109
vt 0.03734290599822998 1.9990010261535645
vt -0.4380917549133301 0.9600470066070557
vt -0.4380917549133301 1.9990010261535645
vt -0.4380917549133301 0.0009990930557250977
vt 0.03734290599822998 0.0009990930557250977
vt 3.5579123497009277 1.998999834060669
vt 3.082477569580078 0.9600468873977661
vt 3.082477569580078 1.998999834060669
vt 0.9995002746582031 0.0014982819557189941
vt 0.9995003938674927 1.4999993443489075
vt 0.9479254484176636 1.4999994039535522
vt 0.0004996359348297119 1.500000238418579
vt 0.0004995465278625488 0.0014994144439697266
vt 0.05207453668117523 1.5000001192092896
vt 0.000499725341796875 2.9985010623931885
vt 1.1108664274215698 0.16606783866882324
vt 1.1108665466308594 1.499999761581421
vt 0.9870423078536987 0.137195885181427
vt 1.0489544868469238 1.4855638146400452
vt 0.8999999761581421 0.006365060806274414
vt 0.949999988079071 1.064005196094513
vt 1 0.12364357709884644
vt 1 1.4734991788864136
vt 0.8999999761581421 2.004366874694824
vt 0.10364945232868195 1.5000000596046448
vt 0.10364952683448792 2.9985008239746094
vt 0.10364937782287598 0.0014993548393249512
vt 0.8999999761581421 1.005366325378418
vt 0.8999999761581421 0.006365597248077393
vt 1 1.4734992980957031
vt 0.8999999761581421 2.0043671131134033
vt 0.8963505029678345 0.0014984607696533203
vt 0.896350622177124 2.998500347137451
vt 0.9995004534721375 2.998500347137451
vt 0.8669994473457336 0.9995004534721375
vt 0.8669994473457336 0.0004996061325073242
vt 0.13300059735774994 0.0004994869232177734
vt 0.13300059735774994 0.9995003938674927
vt 0.8669994473457336 0.9995004534721375
vt 0.8669994473457336 0.0004996061325073242
vt 0.13300059735774994 0.0004996061325073242
vt 0.13300059735774994 0.9995004534721375
vt 0.6965393424034119 1.5
vt 0.8417908549308777 1.4321510791778564
vt 0.9870425462722778 2.8628034591674805
vt 0.6965391635894775 0.0014986395835876465
vt 0.6965395212173462 2.9985013008117676
vt 1.110866665840149 2.8339316844940186
vt 0.9870424270629883 1.4999997019767761
vt 1.1093906164169312 0.9995003938674927
vt 1.1093904972076416 0.0004994869232177734
vt 1.063003420829773 0.24106353521347046
vt 0.7332038283348083 0.5812727808952332
vt 0.5000001192092896 0.6291239857673645
vt 0.9309043288230896 0.44500404596328735
vt -0.10939056426286697 0.999496340751648
vt 0.2667964696884155 0.5812728404998779
vt -0.06300334632396698 0.24106383323669434
vt -0.10939056426286697 0.0004996657371520996
vt 0.11153845489025116 0.9995003938674927
vt 0.8884615898132324 0.9995004534721375
vt 0.8884615898132324 0.0004996657371520996
vt 0.11153845489025116 0.0004996061325073242
vt 0.11153845489025116 0.9995004534721375
vt 0.8884615898132324 0.9995003938674927
vt 0.8884615898132324 0.0004996061325073242
vt 0.11153845489025116 0.0004996657371520996
vt 1.118432641029358 2.8339319229125977
vt 1.1184325218200684 1.888625979423523
vt 1 2.8628039360046387
vt 1 1.8886263370513916
vt 1.1184285879135132 1.1113731861114502
vt 1 1.1113736629486084
vt 1.1131532192230225 1.4474048614501953
vt 1.1131532192230225 0.14973855018615723
vt 1.1131532192230225 0.14973914623260498
vt 1.1131532192230225 1.4474049806594849
vt 1 0.12364405393600464
vt 1.1184364557266235 0.16606831550598145
vt 1 0.13719618320465088
vt 0.8980274796485901 2.9985013008117676
vt 0.8980290293693542 1.8886263370513916
vt 0.8980294466018677 1.1113736629486084
vt 0.8980310559272766 0.0014986395835876465
vt 0.8963505625724792 1.4999994039535522
vt 0.8999999761581421 1.0053659677505493
vt -0.10939056426286697 0.999500572681427
vt 1.1093906164169312 0.9994992017745972
vt 0.5000002980232239 0.629124641418457
vt 0.06909604370594025 0.44500482082366943
vt -0.06300342082977295 0.24106407165527344
vt 0.2667964696884155 0.5812734961509705
vt -0.10939060151576996 0.0004996657371520996
vt 0.9309042692184448 0.44500458240509033
vt 0.7332038283348083 0.5812734365463257
vt 1.063003420829773 0.24106383323669434
vt 1.1093906164169312 0.000499427318572998
vt 0.06909593194723129 0.44500434398651123
vt 0.0014989078044891357 2.5
vt 0.0014987289905548096 0.002497553825378418
vt 1.4999994039535522 2.4999996423721313
vt 2.9985015392303467 1.7723788022994995
vt 2.998500108718872 3.22761869430542
vt 1.4999994039535522 1.615058183670044
vt 0.001499086618423462 4.997502326965332
vt 2.998500108718872 4.997501850128174
vt 2.9984989166259766 0.002497434616088867
vt 1.5 0.5389999747276306
vt 1.5 0.004188418388366699
vt 0.0009989738464355469 0.5389999747276306
vt 0.0004995465278625488 0
vt 0.5462943315505981 0
vt 0.0004996359348297119 0.11644190549850464
vt 0.8265606760978699 0.38214290142059326
vt 0.5506724715232849 0.0004995465278625488
vt 0.001739591360092163 0.1637488603591919
vt 0.8685058951377869 0.16125571727752686
vt 0.0004995167255401611 0.002081751823425293
vt 0.5441105961799622 0.5437406301498413
vt 0.0004991888999938965 0.5437401533126831
vt 1.003446102142334 1.0019155740737915
vt 0.7209956645965576 1.0019155740737915
vt 0.9995005130767822 0.9984756708145142
vt 0.5632108449935913 0.38064372539520264
vt 0.6431374549865723 0.9995005130767822
vt 0.001932770013809204 0.3935889005661011
vt 0.7307606935501099 1.0169082880020142
vt 0.0004990994930267334 0.5
vt 0.9816528558731079 0.5
vt 0.020235031843185425 1.0169082880020142
vt 0.09440629184246063 1.0169082880020142
vt 0.990963339805603 0.5
vt 0.07384379208087921 0.5
vt 0.7401939630508423 1.0169082880020142
vt 0.000500023365020752 0
vt 0.9994984269142151 0
vt 0.986024022102356 0
vt 0.07384379208087921 0
vt 0.0013622045516967773 0.004188418388366699
vt 1.5 1
vt 0.05598592758178711 1
vt 0.9166205525398254 0.3880000114440918
vt 0.9166205525398254 0.9938656091690063
vt 0.0009992718696594238 0.3880000114440918
vt 0.0829048752784729 0.9938656091690063
vt 0.9166207313537598 0
vt 0.002016127109527588 0
vt 1.999000072479248 0.3880000114440918
vt 1.999000072479248 0.9995004534721375
vt 1.999000072479248 0
vt 0.9985077977180481 0.40591686964035034
vt 0.4460393190383911 0.005160093307495117
vt 0.9927836060523987 0.0004994869232177734
vt 0.1710098385810852 0.4129711985588074
vt 0.12943872809410095 0.39757239818573
vt 0.9982607960700989 0.4001426696777344
vt 0.44227904081344604 0.0004997849464416504
vt 0.9995002746582031 0.002147674560546875
vt 0.9991278052330017 0.5529020428657532
vt 0.45457154512405396 0.5575445890426636
vt 0.2836880683898926 0.9995003938674927
vt 0.00012683868408203125 0.9836406707763672
vt 0.35124287009239197 0.9995007514953613
vt 0.4299177825450897 0.5518614053726196
vt 0.0004992485046386719 0.9984630346298218
vt 0.9980687499046326 0.5648791790008545
vt 0.981654942035675 0.5
vt 0.0005016624927520752 0.5
vt 0.7307621240615845 1.0169082880020142
vt 0.020236819982528687 1.0169082880020142
vt 1.00141441822052 0.5
vt 0.015444397926330566 0.5
vt 0.9982943534851074 1.0169082880020142
vt 0.30847129225730896 1.0169082880020142
vt 0.999500036239624 0
vt 0.0005016624927520752 0
vt 1.00141441822052 0
vt 0.020383715629577637 0
vt 3 0.5389999747276306
vt 3 0.004188418388366699
vt 3 1
vt 0.0010009407997131348 0.3880000114440918
vt 0.9166216850280762 0.993864893913269
vt 0.9166216850280762 0.3880000114440918
vt 0.08290624618530273 0.993864893913269
vt 0.002017974853515625 0
vt 0.9166223406791687 0
vt 1.9990007877349854 0.3880000114440918
vt 1.9990007877349854 0.9994997382164001
vt 1.9990010261535645 0
g Garrison_Right0
s 1
f 1/1/1 2/2/2 3/3/3
f 4/4/4 5/5/5 6/6/6
f 7/7/7 6/6/6 5/5/5
f 8/8/8 9/9/9 1/1/1
f 2/2/2 1/1/1 9/9/9
f 10/10/10 11/11/11 12/12/12
f 13/13/13 11/11/11 10/10/10
f 14/14/14 15/15/15 16/16/16
f 16/16/16 15/15/15 17/17/17
f 13/13/13 18/18/18 11/11/11
f 19/19/19 20/20/20 21/21/21
f 6/6/6 3/3/3 22/22/22
f 22/22/22 3/3/3 2/2/2
f 21/21/21 20/20/20 23/23/23
f 23/23/23 24/24/24 21/21/21
f 20/20/20 25/25/25 23/23/23
f 19/19/19 26/26/26 20/20/20
f 27/27/27 28/28/28 29/29/29
f 30/30/30 29/29/29 28/28/28
f 27/27/27 29/29/29 31/31/31
f 30/30/30 28/28/28 32/32/32
f 21/21/21 24/24/24 33/33/33
f 14/14/14 12/12/12 15/15/15
f 21/21/21 33/33/33 19/19/19
f 17/17/17 15/15/15 18/18/18
f 6/6/6 7/7/7 3/3/3
f 20/20/20 34/34/34 25/25/25
f 20/20/20 26/26/26 34/34/34
f 15/15/15 11/11/11 18/18/18
f 15/15/15 12/12/12 11/11/11
f 35/35/35 3/3/3 7/7/7
f 1/1/1 3/3/3 35/35/35
g Garrison_Right1
s 1
f 36/36/36 37/37/37 38/38/38
f 39/39/39 40/40/40 41/41/41
f 42/42/42 40/40/40 39/39/39
f 42/42/42 39/39/39 43/43/43
f 40/40/40 44/44/44 41/41/41
f 37/37/37 41/41/41 44/44/44
f 45/45/45 46/46/46 47/47/47
f 46/46/46 48/48/48 47/47/47
f 37/37/37 44/44/44 38/38/38
f 49/49/49 50/50/50 51/51/51
f 50/50/50 52/52/52 51/51/51
f 42/42/42 43/43/43 47/47/47
f 53/53/53 42/42/42 47/47/47
f 45/45/45 47/47/47 43/43/43
f 53/53/53 47/47/47 48/48/48
f 43/43/43 39/39/39 41/41/41
f 54/54/54 55/55/55 37/37/37
f 56/56/56 38/38/38 44/44/44
f 53/53/53 57/57/57 42/42/42
f 53/53/53 58/58/58 57/57/57
f 57/57/57 58/58/58 40/40/40
f 40/40/40 56/56/56 44/44/44
f 54/54/54 51/51/51 52/52/52
f 49/49/49 51/51/51 38/38/38
f 58/58/58 56/56/56 40/40/40
f 58/58/58 38/38/38 56/56/56
f 54/54/54 37/37/37 36/36/36
f 54/54/54 36/36/36 51/51/51
f 36/36/36 38/38/38 51/51/51
f 57/57/57 40/40/40 42/42/42
f 55/55/55 41/41/41 37/37/37
g Garrison_Right2
s 1
f 59/59/59 60/60/60 61/61/61
f 62/62/62 63/63/63 64/64/64
f 65/65/65 64/64/64 63/63/63
f 64/64/64 66/66/66 62/62/62
f 67/67/67 62/62/62 66/66/66
f 60/60/60 68/68/68 69/69/69
f 70/70/70 69/69/69 68/68/68
f 69/69/69 61/61/61 60/60/60
g Garrison_Right3
s 1
f 71/71/71 72/72/72 73/73/73
f 74/74/74 75/75/75 76/76/76
f 77/77/77 74/74/74 76/76/76
f 78/78/78 79/79/79 80/80/80
f 79/79/79 81/81/81 80/80/80
f 82/82/82 83/83/83 84/84/84
f 85/85/85 83/83/83 86/86/86
f 85/85/85 84/84/84 83/83/83
f 87/87/87 88/88/88 76/76/76
f 89/89/89 87/87/87 76/76/76
f 90/90/90 91/91/91 92/92/92
f 93/93/93 90/90/90 92/92/92
f 71/71/71 73/73/73 94/94/94
f 95/95/95 73/73/73 96/96/96
f 97/97/97 98/98/98 99/99/99
f 99/99/99 100/100/100 97/97/97
f 101/101/101 102/102/102 103/103/103
f 103/103/103 104/104/104 101/101/101
f 77/77/77 76/76/76 88/88/88
f 89/89/89 76/76/76 75/75/75
f 105/105/105 106/106/106 107/107/107
f 105/105/105 108/108/108 106/106/106
f 109/109/109 105/105/105 107/107/107
f 80/80/80 106/106/106 108/108/108
f 79/79/79 110/110/110 81/81/81
f 111/111/111 81/81/81 110/110/110
f 111/111/111 80/80/80 81/81/81
f 112/112/112 113/113/113 114/114/114
f 115/115/115 116/116/116 112/112/112
f 112/112/112 114/114/114 117/117/117
f 117/117/117 115/115/115 112/112/112
f 118/118/118 116/116/116 119/119/119
f 120/120/120 121/121/121 118/118/118
f 122/122/122 123/123/123 124/124/124
f 124/124/124 125/125/125 122/122/122
f 126/126/126 127/127/127 128/128/128
f 128/128/128 129/129/129 126/126/126
f 130/130/130 131/131/131 132/132/132
f 133/133/133 132/132/132 131/131/131
f 131/131/131 134/134/134 133/133/133
f 135/135/135 133/133/133 134/134/134
f 136/136/136 137/137/137 85/85/85
f 84/84/84 85/85/85 137/137/137
f 80/80/80 111/111/111 106/106/106
f 111/111/111 107/107/107 106/106/106
f 138/138/138 139/139/139 140/140/140
f 92/92/92 140/140/140 139/139/139
f 134/134/134 141/141/141 135/135/135
f 142/142/142 135/135/135 141/141/141
f 132/132/132 133/133/133 143/143/143
f 144/144/144 143/143/143 133/133/133
f 135/135/135 142/142/142 145/145/145
f 146/146/146 145/145/145 142/142/142
f 133/133/133 135/135/135 144/144/144
f 145/145/145 144/144/144 135/135/135
f 107/107/107 111/111/111 110/110/110
f 95/95/95 147/147/147 73/73/73
f 140/140/140 92/92/92 91/91/91
f 147/147/147 94/94/94 73/73/73
f 82/82/82 148/148/148 83/83/83
f 148/148/148 86/86/86 83/83/83
f 149/149/149 150/150/150 151/151/151
f 152/152/152 153/153/153 149/149/149
f 149/149/149 154/154/154 152/152/152
f 153/153/153 155/155/155 149/149/149
f 149/149/149 151/151/151 154/154/154
f 156/156/156 157/157/157 150/150/150
f 150/150/150 158/158/158 156/156/156
f 157/157/157 151/151/151 150/150/150
f 150/150/150 159/159/159 158/158/158
f 118/118/118 112/112/112 116/116/116
f 160/160/160 120/120/120 118/118/118
f 118/118/118 119/119/119 160/160/160
f 72/72/72 96/96/96 73/73/73
g Garrison_Right4
s 1
f 161/161/161 162/162/162 163/163/163
f 164/164/164 165/165/165 166/166/166
f 164/164/164 166/166/166 162/162/162
f 163/163/163 162/162/162 166/166/166
f 163/163/163 166/166/166 165/165/165
f 167/167/167 163/163/163 168/168/168
f 168/168/168 163/163/163 165/165/165
f 169/169/169 164/164/164 162/162/162
f 167/167/167 161/161/161 163/163/163
g Garrison_Right5
s 1
f 170/170/170 171/171/171 172/172/172
f 173/173/173 174/174/174 175/175/175
f 176/176/176 175/175/175 174/174/174
f 177/177/177 178/178/178 179/179/179
f 178/178/178 177/177/177 180/180/180
f 175/175/175 181/181/181 182/182/182
f 181/181/181 175/175/175 176/176/176
f 181/181/181 183/183/183 184/184/184
f 183/183/183 181/181/181 176/176/176
f 185/185/185 186/186/186 187/187/187
f 186/186/186 185/185/185 179/179/179
f 179/179/179 188/188/188 186/186/186
f 188/188/188 179/179/179 178/178/178
f 189/189/189 190/190/190 191/191/191
f 190/190/190 189/189/189 192/192/192
f 193/193/193 194/194/194 195/195/195
f 194/194/194 193/193/193 196/196/196
f 191/191/191 197/197/197 198/198/198
f 197/197/197 191/191/191 190/190/190
f 195/195/195 199/199/199 200/200/200
f 199/199/199 195/195/195 194/194/194
f 201/201/201 172/172/172 171/171/171
f 202/202/202 170/170/170 203/203/203
f 172/172/172 203/203/203 170/170/170
f 204/204/204 205/205/205 206/206/206
f 207/207/207 206/206/206 205/205/205
f 208/208/208 204/204/204 209/209/209
f 206/206/206 209/209/209 204/204/204
f 210/210/210 205/205/205 204/204/204
f 205/205/205 210/210/210 211/211/211
f 212/212/212 204/204/204 208/208/208
f 204/204/204 212/212/212 210/210/210
f 213/213/213 214/214/214 215/215/215
f 214/214/214 213/213/213 216/216/216
f 217/217/217 218/218/218 219/219/219
f 220/220/220 219/219/219 218/218/218
f 221/221/221 222/222/222 213/213/213
f 216/216/216 213/213/213 222/222/222
f 223/223/223 224/224/224 222/222/222
f 216/216/216 222/222/222 224/224/224
f 225/225/225 226/226/226 227/227/227
f 217/217/217 227/227/227 226/226/226
f 226/226/226 228/228/228 217/217/217
f 218/218/218 217/217/217 228/228/228
f 229/229/229 230/230/230 231/231/231
f 232/232/232 231/231/231 230/230/230
f 233/233/233 234/234/234 235/235/235
f 236/236/236 235/235/235 234/234/234
f 237/237/237 238/238/238 229/229/229
f 230/230/230 229/229/229 238/238/238
f 239/239/239 240/240/240 233/233/233
f 234/234/234 233/233/233 240/240/240
f 241/241/241 171/171/171 170/170/170
f 171/171/171 241/241/241 242/242/242
f 243/243/243 170/170/170 202/202/202
f 170/170/170 243/243/243 241/241/241
f 244/244/244 245/245/245 246/246/246
f 245/245/245 244/244/244 247/247/247
f 248/248/248 246/246/246 249/249/249
f 246/246/246 248/248/248 244/244/244
f 246/246/246 245/245/245 250/250/250
f 251/251/251 250/250/250 245/245/245
f 249/249/249 246/246/246 252/252/252
f 250/250/250 252/252/252 246/246/246
