# Exported using wow.export v0.2.19
o 21138_TreeFacades04.obj
v -571.2205810546875 18.750465393066406 -357.40533447265625
v -571.8988647460938 18.750465393066406 -357.9546203613281
v -571.349609375 18.750465393066406 -358.6329345703125
v -570.6713256835938 18.750465393066406 -358.0836486816406
v -571.2205810546875 19.50689697265625 -357.40533447265625
v -570.6713256835938 19.50689697265625 -358.0836486816406
v -571.349609375 19.50689697265625 -358.6329345703125
v -571.8988647460938 19.50689697265625 -357.9546203613281
v -571.2205810546875 18.750465393066406 -357.40533447265625
v -570.6713256835938 18.750465393066406 -358.0836486816406
v -570.6713256835938 19.50689697265625 -358.0836486816406
v -571.2205810546875 19.50689697265625 -357.40533447265625
v -570.6713256835938 18.750465393066406 -358.0836486816406
v -571.349609375 18.750465393066406 -358.6329345703125
v -571.349609375 19.50689697265625 -358.6329345703125
v -570.6713256835938 19.50689697265625 -358.0836486816406
v -571.349609375 18.750465393066406 -358.6329345703125
v -571.8988647460938 18.750465393066406 -357.9546203613281
v -571.8988647460938 19.50689697265625 -357.9546203613281
v -571.349609375 19.50689697265625 -358.6329345703125
v -571.8988647460938 18.750465393066406 -357.9546203613281
v -571.2205810546875 18.750465393066406 -357.40533447265625
v -571.2205810546875 19.50689697265625 -357.40533447265625
v -571.8988647460938 19.50689697265625 -357.9546203613281
v -573.410400390625 11.751081466674805 -293.0280456542969
v -574.0547485351562 11.751081466674805 -293.7070617675781
v -573.3757934570312 11.751081466674805 -294.3514099121094
v -572.7313842773438 11.751081466674805 -293.6723937988281
v -573.410400390625 12.562355995178223 -293.0280456542969
v -572.7313842773438 12.562355995178223 -293.6723937988281
v -573.3757934570312 12.562355995178223 -294.3514099121094
v -574.0547485351562 12.562355995178223 -293.7070617675781
v -573.410400390625 11.751081466674805 -293.0280456542969
v -572.7313842773438 11.751081466674805 -293.6723937988281
v -572.7313842773438 12.562355995178223 -293.6723937988281
v -573.410400390625 12.562355995178223 -293.0280456542969
v -572.7313842773438 11.751081466674805 -293.6723937988281
v -573.3757934570312 11.751081466674805 -294.3514099121094
v -573.3757934570312 12.562355995178223 -294.3514099121094
v -572.7313842773438 12.562355995178223 -293.6723937988281
v -573.3757934570312 11.751081466674805 -294.3514099121094
v -574.0547485351562 11.751081466674805 -293.7070617675781
v -574.0547485351562 12.562355995178223 -293.7070617675781
v -573.3757934570312 12.562355995178223 -294.3514099121094
v -574.0547485351562 11.751081466674805 -293.7070617675781
v -573.410400390625 11.751081466674805 -293.0280456542969
v -573.410400390625 12.562355995178223 -293.0280456542969
v -574.0547485351562 12.562355995178223 -293.7070617675781
vn 0 -1 0
vn 0 -1 0
vn 0 -1 0
vn 0 -1 0
vn 0 1 0
vn 0 1 0
vn 0 1 0
vn 0 1 0
vn 0.7771558165550232 0 0.6293081641197205
vn 0.7771558165550232 0 0.6293081641197205
vn 0.7771558165550232 0 0.6293081641197205
vn 0.7771558165550232 0 0.6293081641197205
vn 0.6293421387672424 0 -0.7771283388137817
vn 0.6293421387672424 0 -0.7771283388137817
vn 0.6293421387672424 0 -0.7771283388137817
vn 0.6293421387672424 0 -0.7771283388137817
vn -0.7771558165550232 0 -0.6293081641197205
vn -0.7771558165550232 0 -0.6293081641197205
vn -0.7771558165550232 0 -0.6293081641197205
vn -0.7771558165550232 0 -0.6293081641197205
vn -0.6293421387672424 0 0.7771283388137817
vn -0.6293421387672424 0 0.7771283388137817
vn -0.6293421387672424 0 0.7771283388137817
vn -0.6293421387672424 0 0.7771283388137817
vn 0 -1 0
vn 0 -1 0
vn 0 -1 0
vn 0 -1 0
vn 0 1 0
vn 0 1 0
vn 0 1 0
vn 0 1 0
vn 0.6883609294891357 0 0.725368320941925
vn 0.6883609294891357 0 0.725368320941925
vn 0.6883609294891357 0 0.725368320941925
vn 0.6883609294891357 0 0.725368320941925
vn 0.7253676056861877 0 -0.6883617043495178
vn 0.7253676056861877 0 -0.6883617043495178
vn 0.7253676056861877 0 -0.6883617043495178
vn 0.7253676056861877 0 -0.6883617043495178
vn -0.6883609294891357 0 -0.725368320941925
vn -0.6883609294891357 0 -0.725368320941925
vn -0.6883609294891357 0 -0.725368320941925
vn -0.6883609294891357 0 -0.725368320941925
vn -0.7253676056861877 0 0.6883617043495178
vn -0.7253676056861877 0 0.6883617043495178
vn -0.7253676056861877 0 0.6883617043495178
vn -0.7253676056861877 0 0.6883617043495178
vt 0.9995005130767822 0.000499725341796875
vt 0.9995002746582031 0.9995005130767822
vt 0.0004994869232177734 0.9995002746582031
vt 0.000499725341796875 0.0004994869232177734
vt 0.0004994869232177734 0.000499725341796875
vt 0.9995002746582031 0.0004994869232177734
vt 0.9995005130767822 0.9995002746582031
vt 0.000499725341796875 0.9995005130767822
vt 0.0004994869232177734 0.0004994869232177734
vt 0.9995002746582031 0.0004994869232177734
vt 0.9995002746582031 0.9995005130767822
vt 0.0004994869232177734 0.9995005130767822
vt 0.0004994869232177734 0.0004994869232177734
vt 0.9995002746582031 0.0004994869232177734
vt 0.9995002746582031 0.9995005130767822
vt 0.0004994869232177734 0.9995005130767822
vt 0.0004994869232177734 0.0004994869232177734
vt 0.9995002746582031 0.0004994869232177734
vt 0.9995002746582031 0.9995005130767822
vt 0.0004994869232177734 0.9995005130767822
vt 0.0004994869232177734 0.0004994869232177734
vt 0.9995002746582031 0.0004994869232177734
vt 0.9995002746582031 0.9995005130767822
vt 0.0004994869232177734 0.9995005130767822
vt 0.9995005130767822 0.000499725341796875
vt 0.9995002746582031 0.9995005130767822
vt 0.0004994869232177734 0.9995002746582031
vt 0.000499725341796875 0.0004994869232177734
vt 0.0004994869232177734 0.000499725341796875
vt 0.9995002746582031 0.0004994869232177734
vt 0.9995005130767822 0.9995002746582031
vt 0.000499725341796875 0.9995005130767822
vt 0.0004994869232177734 0.0004994869232177734
vt 0.9995002746582031 0.0004994869232177734
vt 0.9995002746582031 0.9995005130767822
vt 0.0004994869232177734 0.9995005130767822
vt 0.0004994869232177734 0.0004994869232177734
vt 0.9995002746582031 0.0004994869232177734
vt 0.9995002746582031 0.9995005130767822
vt 0.0004994869232177734 0.9995005130767822
vt 0.0004994869232177734 0.0004994869232177734
vt 0.9995002746582031 0.0004994869232177734
vt 0.9995002746582031 0.9995005130767822
vt 0.0004994869232177734 0.9995005130767822
vt 0.0004994869232177734 0.0004994869232177734
vt 0.9995002746582031 0.0004994869232177734
vt 0.9995002746582031 0.9995005130767822
vt 0.0004994869232177734 0.9995005130767822
g TreeFacades040
s 1
f 1/1/1 2/2/2 3/3/3
f 3/3/3 4/4/4 1/1/1
f 5/5/5 6/6/6 7/7/7
f 7/7/7 8/8/8 5/5/5
f 9/9/9 10/10/10 11/11/11
f 11/11/11 12/12/12 9/9/9
f 13/13/13 14/14/14 15/15/15
f 15/15/15 16/16/16 13/13/13
f 17/17/17 18/18/18 19/19/19
f 19/19/19 20/20/20 17/17/17
f 21/21/21 22/22/22 23/23/23
f 23/23/23 24/24/24 21/21/21
f 25/25/25 26/26/26 27/27/27
f 27/27/27 28/28/28 25/25/25
f 29/29/29 30/30/30 31/31/31
f 31/31/31 32/32/32 29/29/29
f 33/33/33 34/34/34 35/35/35
f 35/35/35 36/36/36 33/33/33
f 37/37/37 38/38/38 39/39/39
f 39/39/39 40/40/40 37/37/37
f 41/41/41 42/42/42 43/43/43
f 43/43/43 44/44/44 41/41/41
f 45/45/45 46/46/46 47/47/47
f 47/47/47 48/48/48 45/45/45
