# Exported using wow.export v0.2.19
o 21138_Outside.obj
v -299.48443603515625 37.97514343261719 134.3717803955078
v -301.9974365234375 37.97514343261719 131.85879516601562
v -303.4096984863281 37.97514343261719 138.29705810546875
v -305.9226989746094 37.97513961791992 135.78404235839844
vn 0 1 0
vn 0 1 0
vn 0 1 0
vn -0.0000011065859553127666 1 -2.4273649046335777e-7
vt 0.8283425569534302 0.9707678556442261
vt 0.1716574728488922 0.9707677364349365
vt 0.8283425569534302 0.5287322998046875
vt 0.1716574728488922 0.5287322998046875
g Outside0
s 1
f 1/1/1 2/2/2 3/3/3
f 4/4/4 3/3/3 2/2/2
