# Exported using wow.export v0.2.19
o 21138_WB03.obj
v -142.6202392578125 0.6088221073150635 -165.62295532226562
v -143.20034790039062 1.4144585132598877 -165.62295532226562
v -142.91030883789062 1.0116376876831055 -170.3453369140625
v -151.21914672851562 -0.6719698309898376 -160.90057373046875
v -151.47341918945312 -1.6222831010818481 -160.90057373046875
v -151.34628295898438 -1.1471290588378906 -165.62295532226562
v -151.60055541992188 -2.097442150115967 -165.62295532226562
v -150.22183227539062 1.0116426944732666 -160.90057373046875
v -149.9317626953125 1.4144587516784668 -165.62295532226562
v -149.9317626953125 1.4144611358642578 -160.90057373046875
v -151.47341918945312 -1.6222882270812988 -170.3453369140625
v -151.09201049804688 -0.19682040810585022 -175.06773376464844
v -151.21914672851562 -0.671974778175354 -170.3453369140625
v -145.6355743408203 2.7614541053771973 -175.06773376464844
v -144.78482055664062 2.491071939468384 -175.06773376464844
v -144.78482055664062 2.491074562072754 -170.3453369140625
v -151.09201049804688 -0.19681549072265625 -165.62295532226562
v -151.09201049804688 -0.19681794941425323 -170.3453369140625
v -141.65869140625 -1.6222822666168213 -160.90057373046875
v -141.9129638671875 -0.6719686388969421 -160.90057373046875
v -141.78582763671875 -1.1471281051635742 -165.62295532226562
v -144.38870239257812 2.2219200134277344 -170.3453369140625
v -141.53155517578125 -2.0974364280700684 -156.1781768798828
v -144.78482055664062 2.491077184677124 -165.62295532226562
v -142.33016967773438 0.20600643754005432 -160.90057373046875
v -142.25765991210938 0.10529990494251251 -164.44236755371094
v -142.04010009765625 -0.19681444764137268 -165.62295532226562
v -142.18515014648438 0.004593372344970703 -167.98416137695312
v -142.33016967773438 0.2060038149356842 -165.62295532226562
v -150.22183227539062 1.0116376876831055 -170.3453369140625
v -149.9317626953125 1.4144538640975952 -175.06773376464844
v -150.0042724609375 1.313750982284546 -171.52593994140625
v -150.07679748535156 1.2130482196807861 -167.98416137695312
v -149.9317626953125 1.4144563674926758 -170.3453369140625
v -142.33016967773438 0.20600120723247528 -170.3453369140625
v -142.0401153564453 -0.19681967794895172 -175.06773376464844
v -142.11264038085938 -0.09611315280199051 -171.52593994140625
v -142.04010009765625 -0.1968170702457428 -170.3453369140625
v -148.54534912109375 2.356499195098877 -167.98416137695312
v -148.3472900390625 2.491075277328491 -170.3453369140625
v -148.3472900390625 2.4910776615142822 -165.62295532226562
v -147.92190551757812 2.626268148422241 -165.62295532226562
v -148.743408203125 2.2219204902648926 -170.3453369140625
v -148.3472900390625 2.4910728931427 -175.06773376464844
v -148.44631958007812 2.423786163330078 -171.52593994140625
v -142.91029357910156 1.0116429328918457 -160.90057373046875
v -143.20034790039062 1.4144611358642578 -160.90057373046875
v -143.20034790039062 1.4144636392593384 -156.1781768798828
v -143.59646606445312 1.6836156845092773 -160.90057373046875
v -141.53155517578125 -2.0974416732788086 -165.62295532226562
v -141.9129638671875 -0.6719738841056824 -170.3453369140625
v -141.65869140625 -1.622287631034851 -170.3453369140625
v -149.53564453125 1.6836109161376953 -170.3453369140625
v -150.80194091796875 0.20600062608718872 -170.3453369140625
v -141.53155517578125 -2.097444534301758 -170.3453369140625
v -141.5315704345703 -2.097447156906128 -175.06773376464844
v -147.4965362548828 2.7614548206329346 -175.06773376464844
v -147.4965362548828 2.7614591121673584 -165.62295532226562
v -147.4965362548828 2.7614634037017822 -156.1781768798828
v -151.60055541992188 -2.097444772720337 -170.3453369140625
v -151.60055541992188 -2.097447395324707 -175.06773376464844
v -148.743408203125 2.2219252586364746 -160.90057373046875
v -149.9317626953125 1.4144636392593384 -156.1781768798828
v -149.53564453125 1.6836159229278564 -160.90057373046875
v -149.1395263671875 1.952768087387085 -165.62295532226562
v -150.80194091796875 0.2060055434703827 -160.90057373046875
v -151.09201049804688 -0.19681303203105927 -160.90057373046875
v -143.59646606445312 1.6836106777191162 -170.3453369140625
v -143.99258422851562 1.9527678489685059 -165.62295532226562
v -143.2003631591797 1.414453387260437 -175.06773376464844
v -145.21018981933594 2.6262683868408203 -165.62295532226562
v -145.6355743408203 2.761458396911621 -165.62295532226562
v -145.42288208007812 2.693861246109009 -170.3453369140625
v -145.210205078125 2.626265525817871 -170.3453369140625
v -144.78480529785156 2.4910824298858643 -156.1781768798828
v -145.6355743408203 2.761462688446045 -156.1781768798828
v -144.99749755859375 2.5586752891540527 -160.90057373046875
v -144.78482055664062 2.491079807281494 -160.90057373046875
v -148.1345977783203 2.5586705207824707 -170.3453369140625
v -151.60055541992188 -2.0974371433258057 -156.1781768798828
v -150.5118865966797 0.6088216304779053 -165.62295532226562
v -144.38870239257812 2.2219252586364746 -160.90057373046875
v -151.09201049804688 -0.19681057333946228 -156.1781768798828
v -148.64437866210938 2.289212226867676 -164.44236755371094
v -148.3472900390625 2.4910824298858643 -156.1781768798828
v -148.3472900390625 2.4910800457000732 -160.90057373046875
v -142.04010009765625 -0.19680921733379364 -156.1781768798828
v -142.04010009765625 -0.19681182503700256 -160.90057373046875
v -141.53155517578125 -2.0974390506744385 -160.90057373046875
v -151.60055541992188 -2.097439765930176 -160.90057373046875
v -143.20034790039062 1.4144558906555176 -170.3453369140625
v -150.14932250976562 1.1123454570770264 -164.44236755371094
v -147.92190551757812 2.6262705326080322 -160.90057373046875
v -142.3475341796875 -13.1932373046875 -160.90057373046875
v -142.34754943847656 -13.19323444366455 -156.17819213867188
v -142.3475341796875 -11.62348747253418 -160.90057373046875
v -142.3475341796875 -13.193239212036133 -165.62295532226562
v -142.3475341796875 -10.053739547729492 -165.62295532226562
v -142.3475341796875 -10.446175575256348 -162.0811767578125
v -142.3475341796875 -10.838611602783203 -158.5393829345703
v -142.3475341796875 -8.483987808227539 -160.90057373046875
v -150.78233337402344 -6.913779258728027 -160.90057373046875
v -150.78233337402344 -6.913322448730469 -165.62295532226562
v -150.78231811523438 -6.612977027893066 -160.90057373046875
v -150.78233337402344 -6.914235591888428 -156.1781768798828
v -150.78233337402344 -6.913779258728027 -160.90057373046875
v -150.78233337402344 -6.914235591888428 -156.1781768798828
v -150.78233337402344 -8.483529090881348 -160.90057373046875
v -150.78233337402344 -6.913322448730469 -165.62295532226562
v -142.3475341796875 -13.193241119384766 -170.3453369140625
v -142.3475341796875 -11.623491287231445 -170.3453369140625
v -142.3475341796875 -13.193243980407715 -175.06773376464844
v -150.78233337402344 -6.912866115570068 -170.3453369140625
v -150.78233337402344 -6.912409782409668 -175.06773376464844
v -150.78231811523438 -6.612063884735107 -170.3453369140625
v -142.34811401367188 -6.612518787384033 -160.90057373046875
v -142.34754943847656 -6.914235591888428 -156.1781768798828
v -142.34979248046875 -5.709194183349609 -156.1781768798828
v -150.78233337402344 -6.912866115570068 -170.3453369140625
v -150.78233337402344 -8.482616424560547 -170.3453369140625
v -150.78233337402344 -6.912409782409668 -175.06773376464844
v -142.34754943847656 -6.912866115570068 -170.3453369140625
v -142.34754943847656 -6.913322448730469 -165.62295532226562
v -142.34783935546875 -6.76246452331543 -167.98416137695312
v -142.34922790527344 -6.009085178375244 -170.3453369140625
v -142.34979248046875 -5.70736837387085 -175.06773376464844
v -142.34754943847656 -6.912409782409668 -175.06773376464844
v -142.34754943847656 -6.912866115570068 -170.3453369140625
v -142.34754943847656 -6.912409782409668 -175.06773376464844
v -142.3475341796875 -8.483074188232422 -170.3453369140625
v -142.34979248046875 -5.708281517028809 -165.62295532226562
v -142.34866333007812 -6.310801982879639 -165.62295532226562
v -142.34754943847656 -6.913322448730469 -165.62295532226562
v -150.78231811523438 -6.010456085205078 -160.90057373046875
v -150.78231811523438 -5.709194183349609 -156.1781768798828
v -150.78231811523438 -13.193241119384766 -170.3453369140625
v -150.78231811523438 -13.193243980407715 -175.06773376464844
v -150.78231811523438 -11.62303352355957 -170.3453369140625
v -150.78231811523438 -5.709197044372559 -165.62295532226562
v -150.78231811523438 -6.311717987060547 -165.62295532226562
v -150.78231811523438 -6.010458946228027 -170.3453369140625
v -150.78231811523438 -5.709200382232666 -175.06773376464844
v -150.78231811523438 -5.709198951721191 -170.3453369140625
v -150.78233337402344 -10.05282211303711 -165.62295532226562
v -150.8173828125 -4.883068561553955 -160.90057373046875
v -150.78231811523438 -5.709195613861084 -160.90057373046875
v -150.78231811523438 -9.267721176147461 -172.70654296875
v -142.31472778320312 -4.882156848907471 -170.3453369140625
v -142.34979248046875 -5.70782470703125 -170.3453369140625
v -142.3475341796875 -10.838159561157227 -172.70654296875
v -150.78233337402344 -11.623027801513672 -160.90057373046875
v -142.34754943847656 -6.914235591888428 -156.1781768798828
v -150.78233337402344 -9.268631935119629 -158.53936767578125
v -150.78233337402344 -13.19323444366455 -156.17819213867188
v -150.85244750976562 -4.056942939758301 -165.62295532226562
v -150.88751220703125 -3.230813980102539 -160.90057373046875
v -141.8705596923828 -2.2510666847229004 -165.62295532226562
v -141.53155517578125 -2.0974416732788086 -165.62295532226562
v -141.53155517578125 -2.097444534301758 -170.3453369140625
v -150.9225616455078 -2.404695510864258 -175.06773376464844
v -151.60055541992188 -2.097447395324707 -175.06773376464844
v -151.60055541992188 -2.097444772720337 -170.3453369140625
v -150.8173828125 -4.8830718994140625 -170.3453369140625
v -150.88751220703125 -3.2308192253112793 -170.3453369140625
v -150.905029296875 -2.8177547454833984 -167.98416137695312
v -142.31472778320312 -4.88306999206543 -160.90057373046875
v -142.24459838867188 -3.2308156490325928 -160.90057373046875
v -142.2796630859375 -4.056945323944092 -165.62295532226562
v -142.24459838867188 -3.230821132659912 -170.3453369140625
v -150.78231811523438 -11.623030662536621 -165.62295532226562
v -142.3475341796875 -8.48353099822998 -165.62295532226562
v -142.34811401367188 -6.611605644226074 -170.3453369140625
v -142.34922790527344 -6.009998321533203 -160.90057373046875
v -141.5315704345703 -2.097447156906128 -175.06773376464844
v -142.2095489501953 -2.4046967029571533 -175.06773376464844
v -142.2095489501953 -2.404694080352783 -170.3453369140625
v -142.2095489501953 -2.404691219329834 -165.62295532226562
v -142.2095489501953 -2.404688596725464 -160.90057373046875
v -142.2095489501953 -2.4046859741210938 -156.1781768798828
v -150.78231811523438 -13.193239212036133 -165.62295532226562
v -141.70106506347656 -2.174257516860962 -171.52593994140625
v -141.8705596923828 -2.251067876815796 -167.98416137695312
v -141.70106506347656 -2.1742568016052246 -170.3453369140625
v -141.8705596923828 -2.2510690689086914 -170.3453369140625
v -142.04005432128906 -2.32787823677063 -164.44236755371094
v -151.60055541992188 -2.0974371433258057 -156.1781768798828
v -151.26156616210938 -2.251063823699951 -160.90057373046875
v -151.43106079101562 -2.1742515563964844 -160.90057373046875
v -151.26156616210938 -2.251066207885742 -165.62295532226562
v -151.60055541992188 -2.097439765930176 -160.90057373046875
v -151.26156616210938 -2.2510688304901123 -170.3453369140625
v -151.09207153320312 -2.327880859375 -170.3453369140625
v -150.9225616455078 -2.4046928882598877 -170.3453369140625
v -150.78231811523438 -13.1932373046875 -160.90057373046875
v -150.78231811523438 -12.800683975219727 -159.719970703125
v -150.78231811523438 -12.408134460449219 -163.2617645263672
v -150.78231811523438 -12.408132553100586 -160.90057373046875
v -141.87054443359375 -2.251063823699951 -160.90057373046875
v -142.04005432128906 -2.327876329421997 -160.90057373046875
v -141.53155517578125 -2.0974390506744385 -160.90057373046875
v -150.9225616455078 -2.4046902656555176 -165.62295532226562
v -150.9225616455078 -2.4046878814697266 -160.90057373046875
v -142.3475341796875 -7.306445121765137 -159.719970703125
v -142.3475341796875 -7.698655128479004 -163.26174926757812
v -142.3475341796875 -7.698883056640625 -160.90057373046875
v -142.34754943847656 -6.913779258728027 -160.90057373046875
v -142.3475341796875 -8.090864181518555 -166.8035430908203
v -150.78231811523438 -12.015583992004395 -166.80355834960938
v -142.34768676757812 -6.837437152862549 -171.52593994140625
v -142.3479766845703 -6.687491416931152 -164.44236755371094
v -142.34754943847656 -6.913779258728027 -160.90057373046875
v -151.60055541992188 -2.097442150115967 -165.62295532226562
v -150.9225616455078 -2.4046852588653564 -156.1781768798828
v -150.91378784179688 -2.611225128173828 -171.52593994140625
v -141.53155517578125 -2.0974364280700684 -156.1781768798828
v -142.34979248046875 -5.708737850189209 -160.90057373046875
v -150.89627075195312 -3.0242843627929688 -164.44236755371094
v -146.56605529785156 2.3782899379730225 -165.62295532226562
v -146.13096618652344 2.3782882690429688 -170.3453369140625
v -145.6958770751953 2.378290891647339 -165.62295532226562
v -145.6958770751953 2.378286600112915 -175.06773376464844
v -145.6958770751953 2.378288745880127 -170.3453369140625
v -147.4965362548828 2.7614548206329346 -175.06773376464844
v -147.4362335205078 2.378286838531494 -170.3453369140625
v -147.4663848876953 2.5698719024658203 -170.3453369140625
v -147.4663848876953 2.5698742866516113 -165.62295532226562
v -147.4965362548828 2.7614591121673584 -165.62295532226562
v -147.0011444091797 2.378291606903076 -160.90057373046875
v -147.4362335205078 2.378291368484497 -160.90057373046875
v -147.4362335205078 2.378289222717285 -165.62295532226562
v -146.13096618652344 2.3782925605773926 -160.90057373046875
v -147.4362335205078 2.378293514251709 -156.1781768798828
v -147.4362335205078 2.378293514251709 -156.1781768798828
v -147.45130920410156 2.4740822315216064 -164.44236755371094
v -147.4362335205078 2.378289222717285 -165.62295532226562
v -147.4362335205078 2.378291368484497 -160.90057373046875
v -147.4663848876953 2.569873094558716 -167.98416137695312
v -145.6657257080078 2.5698766708374023 -160.90057373046875
v -145.6958770751953 2.378293037414551 -160.90057373046875
v -145.6958770751953 2.378290891647339 -165.62295532226562
v -145.6355743408203 2.761462688446045 -156.1781768798828
v -145.68080139160156 2.4740822315216064 -166.8035430908203
v -145.6958770751953 2.378288745880127 -170.3453369140625
v -145.6958770751953 2.378286600112915 -175.06773376464844
v -145.6657257080078 2.569875717163086 -163.26174926757812
v -145.6958770751953 2.3782951831817627 -156.1781768798828
v -145.6355743408203 2.7614541053771973 -175.06773376464844
v -145.6355743408203 2.761458396911621 -165.62295532226562
v -145.6958770751953 2.3782951831817627 -156.1781768798828
v -145.6958770751953 2.378293037414551 -160.90057373046875
v -145.6657257080078 2.5698747634887695 -165.62295532226562
v -147.0011444091797 2.3782873153686523 -170.3453369140625
v -147.4362335205078 2.3782846927642822 -175.06773376464844
v -147.4965362548828 2.7614634037017822 -156.1781768798828
v -147.4362335205078 2.378286838531494 -170.3453369140625
v -147.4362335205078 2.3782846927642822 -175.06773376464844
v -144.89340209960938 -5.752885818481445 -160.90057373046875
v -143.22178649902344 -5.3679375648498535 -156.1781768798828
v -143.16717529296875 -5.671601295471191 -160.90057373046875
v -145.7838134765625 -5.641695976257324 -158.53936767578125
v -148.3458251953125 -5.915454864501953 -160.90057373046875
v -150.1266326904297 -5.693075656890869 -156.1781768798828
v -143.11257934570312 -5.975265026092529 -165.62295532226562
v -146.56500244140625 -6.137834072113037 -165.62295532226562
v -146.67420959472656 -5.530506610870361 -156.1781768798828
v -149.2158966064453 -5.914841651916504 -160.90057373046875
v -150.08596801757812 -5.914228439331055 -160.90057373046875
v -150.04531860351562 -6.135381698608398 -165.62295532226562
v -149.13458251953125 -6.357147693634033 -170.3453369140625
v -150.00466918945312 -6.356534481048584 -170.3453369140625
v -147.39442443847656 -6.358374118804932 -170.3453369140625
v -148.30516052246094 -6.136608123779297 -165.62295532226562
v -144.7841796875 -6.360213279724121 -170.3453369140625
v -143.0579833984375 -6.278928756713867 -170.3453369140625
v -143.0033721923828 -6.582592487335205 -175.06773376464844
v -149.96400451660156 -6.5776872634887695 -175.06773376464844
v -146.52435302734375 -6.358986854553223 -170.3453369140625
v -146.4836883544922 -6.580140113830566 -175.06773376464844
v -142.99429321289062 -5.812582969665527 -165.62295532226562
v -142.87603759765625 -5.649901390075684 -165.62295532226562
v -142.88055419921875 -6.034905910491943 -170.3453369140625
v -143.1080322265625 -5.5902605056762695 -160.90057373046875
v -142.98526000976562 -5.042573928833008 -156.1781768798828
v -143.22178649902344 -5.3679375648498535 -156.1781768798828
v -142.37904357910156 -5.015268325805664 -156.1781768798828
v -150.1077880859375 -5.58897590637207 -160.90057373046875
v -150.08596801757812 -5.914228439331055 -160.90057373046875
v -150.04531860351562 -6.135381698608398 -165.62295532226562
v -150.17027282714844 -5.042570114135742 -156.1781768798828
v -150.067138671875 -5.810128688812256 -165.62295532226562
v -150.01556396484375 -6.193907737731934 -170.3453369140625
v -150.2611541748047 -6.255612373352051 -175.06773376464844
v -150.00466918945312 -6.356534481048584 -170.3453369140625
v -143.11257934570312 -5.975265026092529 -165.62295532226562
v -143.16717529296875 -5.671601295471191 -160.90057373046875
v -149.96400451660156 -6.5776872634887695 -175.06773376464844
v -142.939697265625 -6.116247177124023 -170.3453369140625
v -142.76681518554688 -6.257228851318359 -175.06773376464844
v -143.0033721923828 -6.582592487335205 -175.06773376464844
v -143.0579833984375 -6.278928756713867 -170.3453369140625
v -150.59927368164062 -5.626925468444824 -165.62295532226562
v -150.21571350097656 -5.6490912437438965 -165.62295532226562
v -151.01258850097656 -6.214513301849365 -175.06773376464844
v -150.93739318847656 -4.9982380867004395 -156.1781768798828
v -142.57293701171875 -5.636248588562012 -165.62295532226562
v -142.00100708007812 -4.998240947723389 -156.1781768798828
v -142.07386779785156 -6.214512825012207 -175.06773376464844
v -150.1266326904297 -5.693075656890869 -156.1781768798828
vn -0.8133595585823059 -0.5817612409591675 -2.0781772036571056e-7
vn -0.6974061727523804 -0.7166761159896851 -1.2973760021850467e-7
vn -0.7583889961242676 -0.6518023014068604 -4.2147715362261806e-7
vn 0.9755500555038452 -0.219777449965477 6.932652354407765e-7
vn 0.9757310152053833 0.21897277235984802 5.225460881774779e-7
vn 0.9999998807907104 -0.00041236894321627915 7.898111675785913e-7
vn 0.9039255380630493 0.4276898205280304 5.472305133480404e-7
vn 0.7583881616592407 -0.6518032550811768 5.894980859011412e-7
vn 0.6974049806594849 -0.7166773080825806 6.30071667728771e-7
vn 0.6974049806594849 -0.7166773080825806 4.974163516635599e-7
vn 0.9757310152053833 0.2189728021621704 8.478784252474725e-7
vn 0.9035724997520447 -0.42843517661094666 0.0000012287418940104544
vn 0.9755500555038452 -0.2197774350643158 0.0000010344757583879982
vn 0.5256429314613342 -0.8507053256034851 8.970837370725349e-7
vn -0.43701139092445374 -0.8994559645652771 -1.5240591011433935e-8
vn -0.4370107054710388 -0.8994563817977905 1.0476059486563827e-7
vn 0.9035724997520447 -0.42843520641326904 8.958430726124789e-7
vn 0.9035724997520447 -0.42843520641326904 0.0000010622925401548855
vn -0.9757317304611206 0.2189694344997406 -4.862963578489143e-7
vn -0.9755497574806213 -0.2197786271572113 -2.54938839816532e-7
vn -1 -0.00041469334973953664 -7.201941798484768e-7
vn -0.5073854923248291 -0.8617192506790161 8.306574272864964e-8
vn -0.9039275050163269 0.42768576741218567 -2.287070230977406e-7
vn -0.4370100200176239 -0.8994567394256592 2.247617771899968e-7
vn -0.8618823289871216 -0.5071083307266235 7.489162179297182e-9
vn -0.872959315776825 -0.48779311776161194 -2.629736854942166e-7
vn -0.9035724401473999 -0.4284353256225586 -4.2515361542427854e-7
vn -0.8836033940315247 -0.4682360589504242 -5.333061494638969e-7
vn -0.8618823289871216 -0.5071083307266235 -3.1774513331583876e-7
vn 0.7583881616592407 -0.6518032550811768 8.558644708500651e-7
vn 0.6974049806594849 -0.7166772484779358 8.953822430157743e-7
vn 0.7131887674331665 -0.7009720206260681 8.194828069463256e-7
vn 0.7286189198493958 -0.6849192976951599 7.43176997275441e-7
vn 0.6974049806594849 -0.7166773080825806 7.627269269505632e-7
vn -0.8618823289871216 -0.5071083307266235 -6.429794439100078e-7
vn -0.9035724401473999 -0.4284353256225586 -0.0000010730439043982187
vn -0.8938094973564148 -0.4484468698501587 -8.033741778490366e-7
vn -0.9035724401473999 -0.4284353256225586 -7.490987741221034e-7
vn 0.47257328033447266 -0.8812913298606873 6.857959533590474e-7
vn 0.43700942397117615 -0.8994569778442383 7.146076086428366e-7
vn 0.437009334564209 -0.8994570970535278 6.265592560339428e-7
vn -0.05057871714234352 -0.998720109462738 6.936217005204526e-7
vn 0.5073835849761963 -0.8617203235626221 7.445023015861807e-7
vn 0.4370095133781433 -0.8994568586349487 8.026560180951492e-7
vn 0.45488208532333374 -0.8905516266822815 7.443744038937439e-7
vn -0.7583889961242676 -0.6518023014068604 8.257850225845687e-8
vn -0.6974061727523804 -0.7166761159896851 1.212912366099772e-7
vn -0.6974061727523804 -0.7166760563850403 3.723200734384591e-7
vn -0.6379992365837097 -0.770037055015564 2.774658867110702e-7
vn -0.9039275050163269 0.42768576741218567 -8.815943033368967e-7
vn -0.9755497574806213 -0.2197786271572113 -9.190052310259489e-7
vn -0.9757317304611206 0.2189694344997406 -0.0000011554844832062372
vn 0.6379978060722351 -0.7700382471084595 7.910136332611728e-7
vn 0.8618820905685425 -0.5071086287498474 0.0000010232075737803825
vn -0.9039275050163269 0.42768576741218567 -0.00000120803792924562
vn -0.9039275050163269 0.42768576741218567 -0.0000015344816119977622
vn -0.5256435871124268 -0.8507049083709717 7.71414931932668e-8
vn -0.5256437659263611 -0.8507049083709717 2.449956468808523e-7
vn -0.5256438851356506 -0.8507047295570374 4.128497437250189e-7
vn 0.9039255380630493 0.4276898503303528 7.05934212419379e-7
vn 0.9039255380630493 0.4276898503303528 8.646379683341365e-7
vn 0.507383406162262 -0.8617204427719116 5.678421644006448e-7
vn 0.6974049210548401 -0.7166773080825806 3.6476106402005826e-7
vn 0.6379978060722351 -0.7700382471084595 5.248544994174154e-7
vn 0.5745223760604858 -0.8184889554977417 6.816010795773764e-7
vn 0.8618820905685425 -0.5071086287498474 6.889840165058558e-7
vn 0.9035724997520447 -0.42843520641326904 7.293936619134911e-7
vn -0.6379992365837097 -0.770037055015564 -2.261976277395661e-7
vn -0.5745241045951843 -0.8184877634048462 1.808423917282198e-7
vn -0.6974061727523804 -0.7166761159896851 -6.317952738754684e-7
vn 0.050578705966472626 -0.998720109462738 7.771305376991222e-7
vn 0.5256443619728088 -0.8507044315338135 6.705209898427711e-7
vn 0.29746419191360474 -0.9547330737113953 8.642833790872828e-7
vn 0.05057786777615547 -0.9987200498580933 6.401747896234156e-7
vn -0.4370085299015045 -0.8994573354721069 4.647640992061497e-7
vn 0.5256457924842834 -0.8507035374641418 4.4395827103471674e-7
vn -0.19948753714561462 -0.9799003601074219 6.411060553546122e-7
vn -0.4370092749595642 -0.8994570374488831 3.4476295240892796e-7
vn 0.1994880586862564 -0.9799002408981323 7.724269153186469e-7
vn 0.9039255976676941 0.427689790725708 2.2982305836194428e-7
vn 0.8133591413497925 -0.5817619562149048 8.09561811365711e-7
vn -0.5073840618133545 -0.861720085144043 3.238357919599366e-7
vn 0.9035724997520447 -0.42843520641326904 5.629442512145033e-7
vn 0.49007606506347656 -0.8716796636581421 6.269440859796305e-7
vn 0.4370090663433075 -0.8994570970535278 4.5046235186418926e-7
vn 0.43700921535491943 -0.8994570970535278 5.385107897382113e-7
vn -0.9035724401473999 -0.4284353256225586 2.2273667354966165e-7
vn -0.9035724401473999 -0.4284353256225586 -1.0120847093730845e-7
vn -0.9039275050163269 0.42768576741218567 -5.551506774281734e-7
vn 0.9039256572723389 0.4276898503303528 3.885268426984112e-7
vn -0.6974061727523804 -0.7166761159896851 -3.8076643704698654e-7
vn 0.7436879277229309 -0.6685270071029663 6.665027854069194e-7
vn -0.050578806549310684 -0.9987200498580933 5.931328814767767e-7
vn -1 -5.398713369686448e-7 -5.213852266594543e-11
vn -1 0 0
vn -0.9999999403953552 -0.0004648296453524381 -4.4932981779766124e-8
vn -1 -0.0000010797426739372895 -1.0427704533189086e-10
vn -0.9999996423721313 -0.0009296591742895544 -8.986594934867753e-8
vn -0.9999997019767761 -0.0008131818613037467 -7.860663231440412e-8
vn -0.9999997615814209 -0.0006967044901102781 -6.734732238555807e-8
vn -0.9999990463256836 -0.0013934086309745908 -1.3469461634940672e-7
vn 1 -0.000011272653864580207 1.7869335522391339e-7
vn 1 -0.000011272653864580207 3.5847639878738846e-7
vn 0.9999439716339111 0.010594116523861885 1.7279423047966702e-7
vn 1 -0.000011272654774074908 -1.0896777924429557e-9
vn 1 -0.000011272653864580207 1.7869335522391339e-7
vn 1 -0.000011272654774074908 -1.0896777924429557e-9
vn 1 -0.000008454490853182506 1.789657773088038e-7
vn 1 -0.000011272653864580207 3.5847639878738846e-7
vn -1 -0.0000016196140677493531 -1.564155749367302e-10
vn -0.9999999403953552 -0.0004659093974623829 -4.50372574789526e-8
vn -1 -0.000002159485347874579 -2.0855409066378172e-10
vn 1 -0.000011272653864580207 5.382594281400088e-7
vn 1 -0.000011272653864580207 7.180424859143386e-7
vn 0.9999439716339111 0.010594116523861885 5.323805680745863e-7
vn -0.9999576210975647 0.009210782125592232 -9.527647648610582e-8
vn -0.9999982714653015 -0.0018571579130366445 -1.7952325492842647e-7
vn -0.9991006255149841 0.04240240529179573 6.950039619368908e-7
vn 1 -0.000011272653864580207 5.382594281400088e-7
vn 1 -0.000008454489943687804 5.385318786466087e-7
vn 1 -0.000011272653864580207 7.180424859143386e-7
vn -0.9999982714653015 -0.0018571574473753572 -5.826567530675675e-7
vn -0.9999982714653015 -0.001857157563790679 -4.4827891088061733e-7
vn -0.9999933242797852 0.003676868975162506 -4.0616180285724113e-7
vn -0.9995084404945374 0.03135164454579353 -3.758533466680092e-7
vn -0.9990997910499573 0.0424218475818634 -7.406425197586941e-7
vn -0.9999982714653015 -0.0018571573309600353 -7.170345952545176e-7
vn -0.9999982714653015 -0.0018571574473753572 -5.826567530675675e-7
vn -0.9999982714653015 -0.0018571573309600353 -7.170345952545176e-7
vn -0.9999990463256836 -0.0013934083981439471 -4.034503149341617e-7
vn -0.9991002082824707 0.04241212457418442 -2.281927891090163e-8
vn -0.9997944235801697 0.020277593284845352 -1.1018016721209278e-8
vn -0.9999982714653015 -0.001857157563790679 -4.4827891088061733e-7
vn 0.9994942545890808 0.03180009499192238 1.66931414469218e-7
vn 0.9991008043289185 0.042398303747177124 -1.281459827140452e-8
vn 1 0 0
vn 1 0 0
vn 1 -0.0000028181634661450516 1.7951062147858465e-7
vn 0.9991008043289185 0.04239833354949951 3.4071823051817773e-7
vn 0.999775230884552 0.02119831182062626 3.466586520062265e-7
vn 0.9994942545890808 0.031800124794244766 5.20484150001721e-7
vn 0.9991008043289185 0.0423983596265316 6.942510708540794e-7
vn 0.9991008043289185 0.042398348450660706 5.174846364752739e-7
vn 1 -0.000005636326932290103 3.590212429571693e-7
vn 0.9837946891784668 0.17929904162883759 1.0120314186679025e-7
vn 0.9991008043289185 0.04239831864833832 1.6395181035022688e-7
vn 1 -0.0000070454088927363046 4.487765465910343e-7
vn -0.9837919473648071 0.17931336164474487 -4.724433324554411e-7
vn -0.9990999698638916 0.04241698607802391 -3.8173089933479787e-7
vn -0.9999997615814209 -0.0006977841258049011 -2.0182947935154516e-7
vn 1 -0.0000028181634661450516 1.7951062147858465e-7
vn -0.9999982714653015 -0.0018571579130366445 -1.7952325492842647e-7
vn 1 -0.0000070454088927363046 8.921047367493884e-8
vn 1 0 0
vn 0.9498199224472046 0.3127973675727844 2.1330043864509207e-7
vn 0.897821307182312 0.44036000967025757 -3.5569176048966256e-8
vn -0.8688629865646362 0.49505266547203064 -7.063609359647671e-7
vn -0.9039275050163269 0.42768576741218567 -8.815943033368967e-7
vn -0.9039275050163269 0.42768576741218567 -0.00000120803792924562
vn 0.8287855982780457 0.5595663189888 2.8760263148797094e-7
vn 0.9039255380630493 0.4276898503303528 8.646379683341365e-7
vn 0.9039255380630493 0.4276898503303528 7.05934212419379e-7
vn 0.9837946891784668 0.17929907143115997 4.58122457303034e-7
vn 0.897821307182312 0.44036000967025757 2.528505831378425e-7
vn 0.8653585314750671 0.5011533498764038 1.2631670642804238e-7
vn -0.9837937355041504 0.17930381000041962 2.522553188555321e-7
vn -0.8978205919265747 0.4403613805770874 -3.5055769842529116e-8
vn -0.9498180747032166 0.31280267238616943 -1.9528023642578773e-7
vn -0.8978184461593628 0.440365731716156 -6.391101123881526e-7
vn 1 -0.0000028181634661450516 1.7951062147858465e-7
vn -0.9999990463256836 -0.001393408514559269 -2.690724727472116e-7
vn -0.9999576210975647 0.009210782125592232 -3.640486170297663e-7
vn -0.9995087385177612 0.03134191781282425 3.42013919407691e-7
vn -0.9039275050163269 0.42768576741218567 -0.0000015344816119977622
vn -0.8287815451622009 0.5595722794532776 -0.000001070812004400068
vn -0.8287829160690308 0.5595703125 -7.71650547903846e-7
vn -0.8287842869758606 0.5595682859420776 -4.7248906298591464e-7
vn -0.8287856578826904 0.5595662593841553 -1.7332759227883798e-7
vn -0.8287870287895203 0.5595642328262329 1.2583387842823868e-7
vn 1 0 0
vn -0.8870347142219543 0.46170273423194885 -0.0000011962908956775209
vn -0.8688623309135437 0.4950536787509918 -8.563743563172466e-7
vn -0.8870348930358887 0.4617021977901459 -0.000001121229956879688
vn -0.868861734867096 0.4950547516345978 -0.0000010063877198263071
vn -0.8494367003440857 0.527690589427948 -5.152226094651269e-7
vn 0.9039255976676941 0.427689790725708 2.2982305836194428e-7
vn 0.868861198425293 0.4950557053089142 1.1620634410292041e-7
vn 0.8870331048965454 0.4617057144641876 2.4481863647451974e-7
vn 0.868861198425293 0.4950557053089142 2.594610748474224e-7
vn 0.9039256572723389 0.4276898503303528 3.885268426984112e-7
vn 0.8688611388206482 0.4950557351112366 4.186237845260621e-7
vn 0.8494360446929932 0.5276916027069092 2.7372925615054555e-7
vn 0.8287855982780457 0.5595663189888 1.447610173954672e-7
vn 1 0 0
vn 1 -7.045408665362629e-7 4.487765536964616e-8
vn 1 -0.0000014090817330725258 8.975531073929233e-8
vn 1 -0.0000014090817330725258 8.975531073929233e-8
vn -0.8688629865646362 0.49505266547203064 -3.7897314086876577e-7
vn -0.8494375944137573 0.5276890397071838 -2.904729967667663e-7
vn -0.9039275050163269 0.42768576741218567 -5.551506774281734e-7
vn 0.8287855982780457 0.5595663189888 1.919403302963474e-9
vn 0.8287855982780457 0.5595663189888 -1.4092221078954026e-7
vn -0.9999985694885254 -0.0017412207089364529 -2.3550505545699707e-7
vn -0.9999986886978149 -0.0016252831555902958 -2.914867991421488e-7
vn -0.9999986886978149 -0.0016252831555902958 -2.2429786383781902e-7
vn -0.9999982714653015 -0.0018571577966213226 -3.139010686936672e-7
vn -0.9999988675117493 -0.0015093458350747824 -3.4746855703815527e-7
vn 1 -0.000002113622485921951 1.3463296966165217e-7
vn -0.9999996423721313 0.0009098593145608902 -5.616003591057961e-7
vn -0.9999792575836182 0.006443850230425596 -2.507201202206488e-7
vn -0.9999982714653015 -0.0018571577966213226 -3.139010686936672e-7
vn 0.9039255380630493 0.4276898205280304 5.472305133480404e-7
vn 0.8287855982780457 0.5595663189888 -2.83763824882044e-7
vn 0.8475753664970398 0.5306749939918518 2.070826354838573e-7
vn -0.9039275050163269 0.42768576741218567 -2.287070230977406e-7
vn -0.9991004467010498 0.04240726679563522 3.360923415129946e-7
vn 0.8821136951446533 0.4710363745689392 4.540072495728964e-8
vn 2.744594951309409e-7 -1 2.0139891887538397e-7
vn 0.34633925557136536 -0.938109278678894 5.796770210508839e-7
vn 0.6498079895973206 -0.760098397731781 6.225379820534727e-7
vn 0.6498079895973206 -0.760098397731781 8.862021445565915e-7
vn 0.6498079895973206 -0.760098397731781 7.543700348833227e-7
vn -0.5256435871124268 -0.8507049083709717 7.71414931932668e-8
vn -0.6498075723648071 -0.7600987553596497 4.903148465018603e-8
vn -0.5894690155982971 -0.8077909350395203 1.1429419544128905e-7
vn -0.5894690155982971 -0.8077909350395203 2.1633532298892533e-7
vn -0.5256437659263611 -0.8507049083709717 2.449956468808523e-7
vn -0.34633874893188477 -0.9381095170974731 2.96153302770108e-7
vn -0.6498075723648071 -0.7600987553596497 2.525101479022851e-7
vn -0.6498075723648071 -0.7600987553596497 1.5077081627623556e-7
vn 0.34633925557136536 -0.938109278678894 2.986180049902032e-7
vn -0.6498075723648071 -0.7600987553596497 3.542494653174799e-7
vn -0.6498075723648071 -0.7600987553596497 3.542494653174799e-7
vn -0.6200970411300659 -0.7845252156257629 2.0906711029056169e-7
vn -0.6498075723648071 -0.7600987553596497 1.5077081627623556e-7
vn -0.6498075723648071 -0.7600987553596497 2.525101479022851e-7
vn -0.5894690155982971 -0.8077909350395203 1.653147592151072e-7
vn 0.5894702672958374 -0.8077900409698486 5.348298941498797e-7
vn 0.6498079895973206 -0.760098397731781 4.907059292236227e-7
vn 0.6498079895973206 -0.760098397731781 6.225379820534727e-7
vn 0.5256457924842834 -0.8507035374641418 4.4395827103471674e-7
vn 0.620097815990448 -0.7845245003700256 6.78157334732532e-7
vn 0.6498079895973206 -0.760098397731781 7.543700348833227e-7
vn 0.6498079895973206 -0.760098397731781 8.862021445565915e-7
vn 0.5894702672958374 -0.8077900409698486 6.00941405082267e-7
vn 0.6498079895973206 -0.760098397731781 3.5887387639377266e-7
vn 0.5256429314613342 -0.8507053256034851 8.970837370725349e-7
vn 0.5256443619728088 -0.8507044315338135 6.705209898427711e-7
vn 0.6498079895973206 -0.760098397731781 3.5887387639377266e-7
vn 0.6498079895973206 -0.760098397731781 4.907059292236227e-7
vn 0.5894702672958374 -0.8077900409698486 6.67053029701492e-7
vn -0.34633874893188477 -0.9381095170974731 7.925039113843013e-8
vn -0.6498075723648071 -0.7600987553596497 -5.2707843423149825e-8
vn -0.5256438851356506 -0.8507047295570374 4.128497437250189e-7
vn -0.6498075723648071 -0.7600987553596497 4.903148465018603e-8
vn -0.6498075723648071 -0.7600987553596497 -5.2707843423149825e-8
vn -0.21367843449115753 0.9754651188850403 -0.05300309509038925
vn -0.4740074574947357 0.878337025642395 -0.06197579577565193
vn -0.46906906366348267 0.8819013833999634 -0.04716163128614426
vn -0.0817338302731514 0.994610071182251 -0.06379912793636322
vn 0.3242221474647522 0.9443840980529785 -0.054942402988672256
vn 0.5622058510780334 0.8243562579154968 -0.06604074686765671
vn -0.4640103280544281 0.8852394223213196 -0.03233536332845688
vn 0.06316482275724411 0.9972038269042969 -0.03993402421474457
vn 0.05158478766679764 0.9958578944206238 -0.07487332075834274
vn 0.4473482668399811 0.8927334547042847 -0.05391044169664383
vn 0.562431275844574 0.8250579237937927 -0.05431828275322914
vn 0.5625791549682617 0.8256458044052124 -0.04258832335472107
vn 0.4475418031215668 0.8937519192695618 -0.030231207609176636
vn 0.5626494288444519 0.8261198401451111 -0.030852491036057472
vn 0.19567075371742249 0.980298638343811 -0.026972297579050064
vn 0.32443180680274963 0.9450283050537109 -0.04080895334482193
vn -0.2023877054452896 0.9790565371513367 -0.022083695977926254
vn -0.4588325619697571 0.8883503079414368 -0.017500802874565125
vn -0.45353707671165466 0.8912334442138672 -0.0026617534458637238
vn 0.562641978263855 0.8264797329902649 -0.019112400710582733
vn 0.06328067183494568 0.9976493716239929 -0.02629433199763298
vn 0.06338471919298172 0.9979089498519897 -0.012649739161133766
vn -0.4777492582798004 0.8779044151306152 -0.032240405678749084
vn -0.47729602456092834 0.8781506419181824 -0.03225075826048851
vn -0.47945934534072876 0.8773923516273499 -0.017360176891088486
vn -0.4759317934513092 0.8782193064689636 -0.047113388776779175
vn -0.4730992317199707 0.8788251280784607 -0.06199634075164795
vn -0.4740074574947357 0.878337025642395 -0.06197579577565193
vn -0.011382968164980412 0.9998763203620911 0.010852685198187828
vn 0.6788823008537292 0.7322983145713806 -0.053460266441106796
vn 0.562431275844574 0.8250579237937927 -0.05431828275322914
vn 0.5625791549682617 0.8256458044052124 -0.04258832335472107
vn 0.7800067663192749 0.6225778460502625 -0.06313692778348923
vn 0.6790727972984314 0.7328912615776062 -0.041599322110414505
vn 0.6226360201835632 0.7819191813468933 -0.030442826449871063
vn 0.503145158290863 0.8636812567710876 -0.029994048178195953
vn 0.5626494288444519 0.8261198401451111 -0.030852491036057472
vn -0.4640103280544281 0.8852394223213196 -0.03233536332845688
vn -0.46906906366348267 0.8819013833999634 -0.04716163128614426
vn 0.562641978263855 0.8264797329902649 -0.019112400710582733
vn -0.4726102650165558 0.8810995817184448 -0.01740843988955021
vn -0.48106181621551514 0.8766831755638123 -0.002476050751283765
vn -0.45353707671165466 0.8912334442138672 -0.0026617534458637238
vn -0.4588325619697571 0.8883503079414368 -0.017500802874565125
vn 0.28829923272132874 0.9563130140304565 -0.048467040061950684
vn 0.6527590155601501 0.7560827732086182 -0.04737715423107147
vn 0.05461214855313301 0.9985036849975586 -0.0028201111126691103
vn 0.05757356062531471 0.9962703585624695 -0.06427042931318283
vn -0.2538224160671234 0.9672411680221558 0.004317596089094877
vn -0.05326654016971588 0.9984328746795654 0.017160683870315552
vn -0.06152663752436638 0.9981014728546143 -0.002818955574184656
vn 0.5622058510780334 0.8243562579154968 -0.06604074686765671
vt 1.5443226099014282 0.5569129586219788
vt 1.5443227291107178 0.7225532531738281
vt 1.0367302894592285 0.6397327184677124
vt 2.051915168762207 0.29358023405075073
vt 2.051914930343628 0.09819412231445312
vt 1.5443226099014282 0.19588685035705566
vt 1.5443223714828491 0.0005006790161132812
vt 2.051915407180786 0.6397337913513184
vt 1.5443227291107178 0.7225535809993744
vt 2.051915168762207 0.7225539684295654
vt 1.0367300510406494 0.09819340705871582
vt 0.5291385650634766 0.3912721872329712
vt 1.0367305278778076 0.2935795187950134
vt 0.5291376113891602 0.9994980096817017
vt 0.5291376113891602 0.9439073801040649
vt 1.0367300510406494 0.9439077377319336
vt 1.544323205947876 0.3912729024887085
vt 1.0367308855056763 0.39127254486083984
vt 2.051914691925049 0.09819382429122925
vt 2.051914691925049 0.29357999563217163
vt 1.5443222522735596 0.1958865523338318
vt 1.0367300510406494 0.8885690420866013
vt 2.559507131576538 0.000501096248626709
vt 1.5443224906921387 0.9439080953598022
vt 2.051914930343628 0.4740931987762451
vt 1.6712205410003662 0.45338791608810425
vt 1.5443222522735596 0.39127272367477417
vt 1.2905261516571045 0.4326826333999634
vt 1.5443224906921387 0.47409284114837646
vt 1.036730408668518 0.6397330462932587
vt 0.5291377305984497 0.7225528359413147
vt 0.9098321795463562 0.7018480896949768
vt 1.2905266284942627 0.6811433136463165
vt 1.0367302894592285 0.7225531935691833
vt 1.0367300510406494 0.4740924835205078
vt 0.529137372970581 0.39127200841903687
vt 0.9098317623138428 0.41197729110717773
vt 1.0367298126220703 0.3912723660469055
vt 1.2905259132385254 0.9162388071417809
vt 1.0367296934127808 0.9439079761505127
vt 1.54432213306427 0.9439083337783813
vt 1.5443223714828491 0.9717036485671997
vt 1.0367298126220703 0.8885692805051804
vt 0.5291372537612915 0.943907618522644
vt 0.9098315834999084 0.9300732165575027
vt 2.051915168762207 0.6397334933280945
vt 2.051915168762207 0.7225536406040192
vt 2.5595076084136963 0.7225540280342102
vt 2.051915168762207 0.7778923660516739
vt 1.54432213306427 0.0005003213882446289
vt 1.0367298126220703 0.2935792803764343
vt 1.0367295742034912 0.09819304943084717
vt 1.0367300510406494 0.7778918892145157
vt 1.0367307662963867 0.4740927219390869
vt 1.0367295742034912 0.0004999041557312012
vt 0.5291370153427124 0.0004994869232177734
vt 0.5291376113891602 0.9994983673095703
vt 1.5443224906921387 0.9994990229606628
vt 2.559507369995117 0.9994996786117554
vt 1.0367298126220703 0.0005003213882446289
vt 0.529137372970581 0.000500023365020752
vt 2.051914691925049 0.8885699957609177
vt 2.5595076084136963 0.7225543260574341
vt 2.051914930343628 0.7778926342725754
vt 1.5443223714828491 0.8332309424877167
vt 2.051915407180786 0.4740934371948242
vt 2.0519156455993652 0.39127326011657715
vt 1.0367302894592285 0.7778915911912918
vt 1.5443226099014282 0.8332307040691376
vt 0.5291379690170288 0.722552478313446
vt 1.5443224906921387 0.9717034101486206
vt 1.5443224906921387 0.9994987547397614
vt 1.0367300510406494 0.9856007099151611
vt 1.0367300510406494 0.971703052520752
vt 2.559507369995117 0.9439088106155396
vt 2.559507369995117 0.999499499797821
vt 2.051914930343628 0.9578061103820801
vt 2.051914930343628 0.9439084529876709
vt 1.0367298126220703 0.9578056335449219
vt 2.559507369995117 0.0005013942718505859
vt 1.5443230867385864 0.5569132566452026
vt 2.051914930343628 0.8885697573423386
vt 2.5595078468322754 0.3912736177444458
vt 1.671220302581787 0.902404397726059
vt 2.559507131576538 0.9439090490341187
vt 2.051914691925049 0.94390869140625
vt 2.559507131576538 0.3912734389305115
vt 2.051914691925049 0.3912730813026428
vt 2.051914691925049 0.0005006790161132812
vt 2.051914930343628 0.0005010366439819336
vt 1.0367302894592285 0.7225528657436371
vt 1.6712210178375244 0.6604385375976562
vt 2.051914691925049 0.9717040061950684
vt 0.7497501373291016 0.0005723237991333008
vt 0.9995003938674927 0.0004995465278625488
vt 0.7497501373291016 0.2502497434616089
vt 0.49999991059303284 0.0006450414657592773
vt 0.49999991059303284 0.49999988079071045
vt 0.6873126029968262 0.43752598762512207
vt 0.8746252655982971 0.3750520348548889
vt 0.7497501373291016 0.7496045231819153
vt 0.8010627627372742 -0.09691739082336426
vt 0.5513125658035278 -0.09682250022888184
vt 0.8010627627372742 -0.07740545272827148
vt 1.0508129596710205 -0.09701216220855713
vt 0.7497502565383911 0.9992822706699371
vt 0.9995005130767822 0.9992095232009888
vt 0.7497502565383911 0.7496048510074615
vt 0.5000000596046448 0.9993550181388855
vt 0.2502496838569641 0.0007177591323852539
vt 0.2502496838569641 0.25039517879486084
vt 0.0004994571208953857 0.0007905364036560059
vt 0.3015623986721039 -0.09672760963439941
vt 0.05181223154067993 -0.09663271903991699
vt 0.3015623986721039 -0.07721579074859619
vt 0.8010625839233398 -0.07731103897094727
vt 1.050812840461731 -0.09701263904571533
vt 1.0508126020431519 -0.0185854434967041
vt 0.25024983286857605 0.9994277656078339
vt 0.25024983286857605 0.7497503459453583
vt 0.0004996061325073242 0.9995005130767822
vt 0.3015623390674591 -0.09672808647155762
vt 0.5513125061988831 -0.09682297706604004
vt 0.4264373779296875 -0.08697211742401123
vt 0.3015623092651367 -0.03809762001037598
vt 0.051812201738357544 -0.018585920333862305
vt 0.051812171936035156 -0.0966331958770752
vt 0.2502497434616089 0.9994274079799652
vt 0.0004995465278625488 0.9995001554489136
vt 0.2502497434616089 0.749750018119812
vt 0.5513124465942383 -0.018585681915283203
vt 0.5513123869895935 -0.05760931968688965
vt 0.4999999701976776 0.9993546605110168
vt 0.8010625839233398 -0.038191914558410645
vt 1.0508126020431519 -0.0185849666595459
vt 0.2502497434616089 0.0007181167602539062
vt 0.0004994869232177734 0.0007908344268798828
vt 0.2502497732639313 0.2503955364227295
vt 0.5513123869895935 -0.018585205078125
vt 0.5513125658035278 -0.05779886245727539
vt 0.3015623688697815 -0.038192152976989746
vt 0.051812201738357544 -0.0185854434967041
vt 0.3015623092651367 -0.01858532428741455
vt 0.5000000596046448 0.5000001788139343
vt 0.8010625243186951 0.045265138149261475
vt 0.8010624647140503 -0.01858508586883545
vt 0.1253746896982193 0.6249480247497559
vt 0.3015623092651367 0.04526412487030029
vt 0.3015623092651367 -0.018585801124572754
vt 0.12537460029125214 0.3752702474594116
vt 0.7497502565383911 0.250249981880188
vt 0.9995003938674927 0.9992091655731201
vt 0.8746253848075867 0.6247297525405884
vt 0.9995005130767822 0.0004998445510864258
vt 0.5513124465942383 0.10911524295806885
vt 0.8010625243186951 0.17296558618545532
vt 0.5513122081756592 0.2896153926849365
vt 0.5513121485710144 0.342415452003479
vt 0.30156201124191284 0.342415452003479
vt 0.05181223154067993 0.23681455850601196
vt 0.05181199312210083 0.342415452003479
vt 0.3015621602535248 0.342415452003479
vt 0.3015623092651367 0.04526489973068237
vt 0.3015623390674591 0.1729649305343628
vt 0.4264373779296875 0.20489007234573364
vt 0.8010625243186951 0.045264363288879395
vt 0.8010624647140503 0.17296481132507324
vt 0.5513124465942383 0.10911422967910767
vt 0.3015623092651367 0.17296409606933594
vt 0.5 0.25032275915145874
vt 0.4999999403953552 0.7496772706508636
vt 0.30156227946281433 -0.07712125778198242
vt 0.8010624647140503 -0.038097381591796875
vt 0.05181184411048889 0.342415452003479
vt 0.051812201738357544 0.23681390285491943
vt 0.30156224966049194 0.23681426048278809
vt 0.5513123273849487 0.23681461811065674
vt 0.8010624051094055 0.2368149757385254
vt 1.0508124828338623 0.23681533336639404
vt 0.5 0.0006453394889831543
vt 0.23912449181079865 0.316015362739563
vt 0.4264371395111084 0.2896152138710022
vt 0.30156201124191284 0.31601542234420776
vt 0.3015620708465576 0.28961503505706787
vt 0.6137497425079346 0.2632150650024414
vt 1.0508126020431519 0.342415452003479
vt 0.8010625243186951 0.28961533308029175
vt 0.8010625243186951 0.31601524353027344
vt 0.5513124465942383 0.28961503505706787
vt 0.8010624647140503 0.342415452003479
vt 0.30156227946281433 0.28961503505706787
vt 0.3015623390674591 0.2632148265838623
vt 0.3015623390674591 0.23681485652923584
vt 0.7497502565383911 0.0005725622177124023
vt 0.8121878504753113 0.0629737377166748
vt 0.6248751878738403 0.12544769048690796
vt 0.7497502565383911 0.1254112720489502
vt 0.8010623455047607 0.2896153926849365
vt 0.8010623455047607 0.2632153630256653
vt 0.8010623455047607 0.342415452003479
vt 0.5513124465942383 0.2368152141571045
vt 0.8010625243186951 0.23681557178497314
vt 0.8121877312660217 0.9368443787097931
vt 0.6248750686645508 0.8744795918464661
vt 0.7497501373291016 0.8744432181119919
vt 0.7497501969337463 0.9992819130420685
vt 0.43756240606307983 0.812114804983139
vt 0.4375624656677246 0.1879216432571411
vt 0.23912477493286133 -0.09180259704589844
vt 0.6137499809265137 -0.08214163780212402
vt 0.8010627031326294 -0.09691786766052246
vt 0.5513123273849487 0.342415452003479
vt 1.0508126020431519 0.2368159294128418
vt 0.23912480473518372 0.2208523154258728
vt 1.0508124828338623 0.342415452003479
vt 0.8010625243186951 -0.018585562705993652
vt 0.6137499809265137 0.18892782926559448
vt -0.00679837167263031 1.130791962146759
vt 0.049702078104019165 0.7609892785549164
vt 0.10620276629924774 1.130791962146759
vt 0.10620252788066864 0.39118659496307373
vt 0.10620264708995819 0.7609892785549164
vt -0.07068580389022827 0.3937636613845825
vt -0.09462128579616547 0.7635663151741028
vt -0.08265157043933868 0.7635663151741028
vt -0.08264760673046112 1.133368968963623
vt -0.07067710161209106 1.133368968963623
vt -0.06329882144927979 1.5005946159362793
vt -0.11979939788579941 1.5005946159362793
vt -0.11979951709508896 1.130791962146759
vt 0.049702320247888565 1.5005946159362793
vt -0.09460941702127457 1.8729742765426636
vt -0.11979927867650986 1.8703973293304443
vt -0.08863148093223572 1.2258196473121643
vt -0.0946173295378685 1.133368968963623
vt -0.09461337327957153 1.5031716227531433
vt -0.0826495885848999 0.9484676718711853
vt -0.0826425850391388 1.5031717419624329
vt -0.09461033344268799 1.5031716227531433
vt -0.09461527317762375 1.133368968963623
vt -0.07066988945007324 1.8729745149612427
vt -0.08863262832164764 1.0409183502197266
vt -0.09462021291255951 0.7635663151741028
vt -0.09462515264749527 0.3937636613845825
vt -0.08264505118131638 1.3182703852653503
vt 0.10620301216840744 1.8703973293304443
vt -0.07068812847137451 0.3937638998031616
vt -0.07067900896072388 1.1333692073822021
vt -0.09460539370775223 1.8729742765426636
vt 0.10620288550853729 1.5005946159362793
vt -0.08264751732349396 1.1333690881729126
vt -0.06329905986785889 0.7609892785549164
vt -0.11979975551366806 0.39118659496307373
vt -0.07066839933395386 1.8729742765426636
vt -0.11979963630437851 0.7609892785549164
vt -0.09462524205446243 0.3937636613845825
vt 31.07305145263672 15.136249542236328
vt 30.564403533935547 14.9913969039917
vt 31.07305145263672 14.986665725708008
vt 30.818729400634766 15.213407516479492
vt 31.07305335998535 15.435419082641602
vt 30.564407348632812 15.589735984802246
vt 31.581697463989258 14.98193359375
vt 31.58169937133789 15.281103134155273
vt 30.56440544128418 15.290566444396973
vt 31.07305335998535 15.51081657409668
vt 31.07305335998535 15.586212158203125
vt 31.58169937133789 15.58268928527832
vt 32.09034729003906 15.503768920898438
vt 32.09034729003906 15.579166412353516
vt 32.09034729003906 15.352975845336914
vt 31.58169937133789 15.431896209716797
vt 32.09034729003906 15.126786231994629
vt 32.0903434753418 14.977201461791992
vt 32.59899139404297 14.972469329833984
vt 32.59899139404297 15.575642585754395
vt 32.09034729003906 15.277579307556152
vt 32.59899139404297 15.274055480957031
vt 0.925000011920929 2
vt 0.8500000238418579 2
vt 0.8875000476837158 1
vt 0.9624999761581421 3
vt 0.8500000238418579 4
vt 1 4
vt 0.8253633379936218 4
vt 0.925000011920929 3
vt 1 3
vt 1 2
vt 0.8500000238418579 4
vt 0.925000011920929 2
vt 0.9624999761581421 1
vt 0.8500000238418579 0
vt 1 1
vt 1 2
vt 1 3
vt 1 0
vt 0.925000011920929 1
vt 0.8500000238418579 0
vt 1 0
vt 1 1
vt 0.8300000429153442 2
vt 0.8500000238418579 2
vt 0.8100000023841858 0
vt 0.8100000023841858 4
vt 0.8376816511154175 2
vt 0.8100000023841858 4
vt 0.8100000023841858 0
vt 1 4
g WB030
s 1
f 1/1/1 2/2/2 3/3/3
f 4/4/4 5/5/5 6/6/6
f 6/6/6 5/5/5 7/7/7
f 8/8/8 9/9/9 10/10/10
f 11/11/11 12/12/12 13/13/13
f 14/14/14 15/15/15 16/16/16
f 11/11/11 13/13/13 6/6/6
f 6/6/6 13/13/13 17/17/17
f 13/13/13 18/18/18 17/17/17
f 19/19/19 20/20/20 21/21/21
f 22/22/22 16/16/16 15/15/15
f 23/23/23 20/20/20 19/19/19
f 22/22/22 24/24/24 16/16/16
f 13/13/13 12/12/12 18/18/18
f 25/25/25 26/26/26 27/27/27
f 26/26/26 28/28/28 27/27/27
f 29/29/29 28/28/28 26/26/26
f 29/29/29 26/26/26 25/25/25
f 30/30/30 31/31/31 32/32/32
f 30/30/30 32/32/32 33/33/33
f 33/33/33 32/32/32 34/34/34
f 32/32/32 31/31/31 34/34/34
f 35/35/35 36/36/36 37/37/37
f 35/35/35 37/37/37 28/28/28
f 28/28/28 37/37/37 38/38/38
f 37/37/37 36/36/36 38/38/38
f 39/39/39 40/40/40 41/41/41
f 42/42/42 41/41/41 40/40/40
f 43/43/43 44/44/44 45/45/45
f 43/43/43 45/45/45 39/39/39
f 39/39/39 45/45/45 40/40/40
f 45/45/45 44/44/44 40/40/40
f 46/46/46 47/47/47 2/2/2
f 46/46/46 48/48/48 47/47/47
f 49/49/49 47/47/47 48/48/48
f 21/21/21 50/50/50 19/19/19
f 49/49/49 2/2/2 47/47/47
f 51/51/51 52/52/52 21/21/21
f 36/36/36 52/52/52 51/51/51
f 33/33/33 34/34/34 9/9/9
f 53/53/53 34/34/34 31/31/31
f 53/53/53 9/9/9 34/34/34
f 54/54/54 18/18/18 12/12/12
f 52/52/52 55/55/55 50/50/50
f 52/52/52 56/56/56 55/55/55
f 21/21/21 27/27/27 51/51/51
f 42/42/42 57/57/57 58/58/58
f 42/42/42 58/58/58 59/59/59
f 11/11/11 60/60/60 61/61/61
f 62/62/62 63/63/63 64/64/64
f 62/62/62 64/64/64 65/65/65
f 65/65/65 64/64/64 9/9/9
f 11/11/11 7/7/7 60/60/60
f 54/54/54 17/17/17 18/18/18
f 53/53/53 43/43/43 65/65/65
f 66/66/66 67/67/67 17/17/17
f 65/65/65 43/43/43 39/39/39
f 22/22/22 68/68/68 69/69/69
f 8/8/8 10/10/10 63/63/63
f 70/70/70 35/35/35 3/3/3
f 3/3/3 35/35/35 1/1/1
f 71/71/71 72/72/72 73/73/73
f 73/73/73 72/72/72 14/14/14
f 14/14/14 74/74/74 73/73/73
f 73/73/73 74/74/74 71/71/71
f 75/75/75 76/76/76 77/77/77
f 77/77/77 76/76/76 71/71/71
f 71/71/71 78/78/78 77/77/77
f 77/77/77 78/78/78 75/75/75
f 44/44/44 57/57/57 79/79/79
f 79/79/79 57/57/57 42/42/42
f 42/42/42 40/40/40 79/79/79
f 79/79/79 40/40/40 44/44/44
f 64/64/64 63/63/63 10/10/10
f 1/1/1 46/46/46 2/2/2
f 4/4/4 80/80/80 5/5/5
f 25/25/25 46/46/46 1/1/1
f 48/48/48 75/75/75 49/49/49
f 69/69/69 2/2/2 49/49/49
f 81/81/81 30/30/30 33/33/33
f 54/54/54 30/30/30 81/81/81
f 54/54/54 31/31/31 30/30/30
f 1/1/1 35/35/35 29/29/29
f 1/1/1 29/29/29 25/25/25
f 35/35/35 28/28/28 29/29/29
f 74/74/74 24/24/24 71/71/71
f 14/14/14 16/16/16 74/74/74
f 74/74/74 16/16/16 24/24/24
f 71/71/71 24/24/24 78/78/78
f 82/82/82 78/78/78 24/24/24
f 63/63/63 83/83/83 8/8/8
f 82/82/82 75/75/75 78/78/78
f 84/84/84 39/39/39 41/41/41
f 62/62/62 84/84/84 41/41/41
f 12/12/12 31/31/31 54/54/54
f 65/65/65 84/84/84 62/62/62
f 81/81/81 17/17/17 54/54/54
f 65/65/65 39/39/39 84/84/84
f 59/59/59 85/85/85 86/86/86
f 62/62/62 86/86/86 85/85/85
f 62/62/62 41/41/41 86/86/86
f 28/28/28 38/38/38 27/27/27
f 87/87/87 48/48/48 25/25/25
f 51/51/51 38/38/38 36/36/36
f 51/51/51 27/27/27 38/38/38
f 70/70/70 36/36/36 35/35/35
f 25/25/25 27/27/27 88/88/88
f 19/19/19 89/89/89 23/23/23
f 19/19/19 50/50/50 89/89/89
f 25/25/25 88/88/88 87/87/87
f 5/5/5 90/90/90 7/7/7
f 5/5/5 80/80/80 90/90/90
f 68/68/68 91/91/91 2/2/2
f 68/68/68 70/70/70 91/91/91
f 83/83/83 80/80/80 4/4/4
f 3/3/3 91/91/91 70/70/70
f 6/6/6 17/17/17 4/4/4
f 3/3/3 2/2/2 91/91/91
f 61/61/61 12/12/12 11/11/11
f 92/92/92 33/33/33 9/9/9
f 6/6/6 7/7/7 11/11/11
f 8/8/8 92/92/92 9/9/9
f 81/81/81 92/92/92 8/8/8
f 81/81/81 33/33/33 92/92/92
f 81/81/81 66/66/66 17/17/17
f 23/23/23 87/87/87 20/20/20
f 8/8/8 66/66/66 81/81/81
f 21/21/21 20/20/20 27/27/27
f 8/8/8 83/83/83 66/66/66
f 20/20/20 87/87/87 88/88/88
f 20/20/20 88/88/88 27/27/27
f 53/53/53 44/44/44 43/43/43
f 93/93/93 41/41/41 42/42/42
f 36/36/36 56/56/56 52/52/52
f 59/59/59 93/93/93 42/42/42
f 21/21/21 52/52/52 50/50/50
f 59/59/59 86/86/86 93/93/93
f 93/93/93 86/86/86 41/41/41
f 22/22/22 70/70/70 68/68/68
f 4/4/4 17/17/17 67/67/67
f 4/4/4 67/67/67 83/83/83
f 69/69/69 68/68/68 2/2/2
f 85/85/85 63/63/63 62/62/62
f 69/69/69 82/82/82 24/24/24
f 49/49/49 82/82/82 69/69/69
f 49/49/49 75/75/75 82/82/82
f 31/31/31 44/44/44 53/53/53
f 69/69/69 24/24/24 22/22/22
f 65/65/65 9/9/9 53/53/53
f 66/66/66 83/83/83 67/67/67
f 15/15/15 70/70/70 22/22/22
f 71/71/71 76/76/76 72/72/72
f 64/64/64 10/10/10 9/9/9
f 25/25/25 48/48/48 46/46/46
g WB031
s 1
f 94/94/94 95/95/95 96/96/96
f 97/97/97 94/94/94 96/96/96
f 98/98/98 96/96/96 99/99/99
f 99/99/99 96/96/96 100/100/100
f 99/99/99 100/100/100 101/101/101
f 98/98/98 99/99/99 101/101/101
f 102/102/102 103/103/103 104/104/104
f 105/105/105 102/102/102 104/104/104
f 106/106/106 107/107/107 108/108/108
f 109/109/109 106/106/106 108/108/108
f 110/110/110 97/97/97 111/111/111
f 112/112/112 110/110/110 111/111/111
f 113/113/113 114/114/114 115/115/115
f 103/103/103 113/113/113 115/115/115
f 116/116/116 117/117/117 118/118/118
f 119/119/119 109/109/109 120/120/120
f 121/121/121 119/119/119 120/120/120
f 122/122/122 123/123/123 124/124/124
f 125/125/125 126/126/126 127/127/127
f 128/128/128 129/129/129 130/130/130
f 131/131/131 125/125/125 132/132/132
f 133/133/133 128/128/128 130/130/130
f 134/134/134 135/135/135 105/105/105
f 136/136/136 137/137/137 138/138/138
f 139/139/139 134/134/134 140/140/140
f 141/141/141 114/114/114 142/142/142
f 143/143/143 139/139/139 141/141/141
f 141/141/141 139/139/139 140/140/140
f 144/144/144 138/138/138 120/120/120
f 120/120/120 109/109/109 144/144/144
f 145/145/145 146/146/146 139/139/139
f 147/147/147 137/137/137 121/121/121
f 138/138/138 137/137/137 147/147/147
f 120/120/120 138/138/138 147/147/147
f 120/120/120 147/147/147 121/121/121
f 145/145/145 135/135/135 146/146/146
f 146/146/146 135/135/135 134/134/134
f 139/139/139 146/146/146 134/134/134
f 98/98/98 130/130/130 111/111/111
f 111/111/111 97/97/97 98/98/98
f 148/148/148 149/149/149 131/131/131
f 150/150/150 129/129/129 112/112/112
f 130/130/130 129/129/129 150/150/150
f 111/111/111 130/130/130 150/150/150
f 111/111/111 150/150/150 112/112/112
f 148/148/148 126/126/126 149/149/149
f 149/149/149 126/126/126 125/125/125
f 131/131/131 149/149/149 125/125/125
f 109/109/109 108/108/108 144/144/144
f 144/144/144 108/108/108 151/151/151
f 101/101/101 100/100/100 152/152/152
f 100/100/100 95/95/95 152/152/152
f 151/151/151 153/153/153 154/154/154
f 153/153/153 107/107/107 154/154/154
f 108/108/108 107/107/107 153/153/153
f 108/108/108 153/153/153 151/151/151
f 97/97/97 96/96/96 98/98/98
f 96/96/96 95/95/95 100/100/100
f 155/155/155 145/145/145 139/139/139
f 156/156/156 135/135/135 145/145/145
f 156/156/156 145/145/145 155/155/155
f 157/157/157 158/158/158 159/159/159
f 160/160/160 161/161/161 162/162/162
f 163/163/163 160/160/160 164/164/164
f 163/163/163 164/164/164 155/155/155
f 155/155/155 164/164/164 165/165/165
f 166/166/166 167/167/167 168/168/168
f 118/118/118 167/167/167 166/166/166
f 168/168/168 131/131/131 166/166/166
f 168/168/168 148/148/148 131/131/131
f 169/169/169 126/126/126 148/148/148
f 169/169/169 148/148/148 168/168/168
f 151/151/151 170/170/170 144/144/144
f 170/170/170 138/138/138 144/144/144
f 101/101/101 171/171/171 98/98/98
f 171/171/171 130/130/130 98/98/98
f 103/103/103 115/115/115 140/140/140
f 115/115/115 114/114/114 141/141/141
f 140/140/140 115/115/115 141/141/141
f 104/104/104 103/103/103 140/140/140
f 140/140/140 134/134/134 104/104/104
f 104/104/104 134/134/134 105/105/105
f 172/172/172 124/124/124 132/132/132
f 132/132/132 125/125/125 172/172/172
f 172/172/172 125/125/125 127/127/127
f 173/173/173 131/131/131 132/132/132
f 132/132/132 116/116/116 173/173/173
f 173/173/173 116/116/116 118/118/118
f 174/174/174 175/175/175 176/176/176
f 169/169/169 176/176/176 175/175/175
f 169/169/169 177/177/177 176/176/176
f 167/167/167 178/178/178 177/177/177
f 167/167/167 179/179/179 178/178/178
f 163/163/163 139/139/139 143/143/143
f 163/163/163 143/143/143 142/142/142
f 142/142/142 143/143/143 141/141/141
f 180/180/180 136/136/136 138/138/138
f 181/181/181 182/182/182 183/183/183
f 174/174/174 181/181/181 183/183/183
f 174/174/174 184/184/184 181/181/181
f 181/181/181 184/184/184 182/182/182
f 185/185/185 178/178/178 157/157/157
f 182/182/182 185/185/185 157/157/157
f 182/182/182 177/177/177 185/185/185
f 185/185/185 177/177/177 178/178/178
f 186/186/186 187/187/187 188/188/188
f 188/188/188 187/187/187 189/189/189
f 189/189/189 190/190/190 188/188/188
f 188/188/188 190/190/190 186/186/186
f 160/160/160 191/191/191 192/192/192
f 192/192/192 191/191/191 189/189/189
f 189/189/189 193/193/193 192/192/192
f 192/192/192 193/193/193 160/160/160
f 154/154/154 194/194/194 195/195/195
f 195/195/195 194/194/194 196/196/196
f 195/195/195 196/196/196 197/197/197
f 154/154/154 195/195/195 197/197/197
f 198/198/198 158/158/158 199/199/199
f 179/179/179 198/198/198 199/199/199
f 179/179/179 200/200/200 198/198/198
f 198/198/198 200/200/200 158/158/158
f 187/187/187 201/201/201 189/189/189
f 186/186/186 202/202/202 187/187/187
f 187/187/187 202/202/202 201/201/201
f 203/203/203 204/204/204 205/205/205
f 152/152/152 203/203/203 205/205/205
f 152/152/152 206/206/206 203/203/203
f 203/203/203 206/206/206 204/204/204
f 207/207/207 130/130/130 171/171/171
f 204/204/204 207/207/207 171/171/171
f 204/204/204 133/133/133 207/207/207
f 207/207/207 133/133/133 130/130/130
f 194/194/194 180/180/180 196/196/196
f 208/208/208 138/138/138 170/170/170
f 196/196/196 208/208/208 170/170/170
f 196/196/196 180/180/180 208/208/208
f 208/208/208 180/180/180 138/138/138
f 127/127/127 122/122/122 209/209/209
f 209/209/209 122/122/122 124/124/124
f 209/209/209 124/124/124 172/172/172
f 127/127/127 209/209/209 172/172/172
f 199/199/199 158/158/158 157/157/157
f 157/157/157 178/178/178 199/199/199
f 199/199/199 178/178/178 179/179/179
f 183/183/183 182/182/182 157/157/157
f 157/157/157 159/159/159 183/183/183
f 183/183/183 159/159/159 174/174/174
f 124/124/124 123/123/123 210/210/210
f 210/210/210 123/123/123 116/116/116
f 210/210/210 116/116/116 132/132/132
f 124/124/124 210/210/210 132/132/132
f 206/206/206 133/133/133 204/204/204
f 211/211/211 117/117/117 116/116/116
f 123/123/123 211/211/211 116/116/116
f 184/184/184 177/177/177 182/182/182
f 174/174/174 176/176/176 184/184/184
f 184/184/184 176/176/176 177/177/177
f 191/191/191 212/212/212 189/189/189
f 160/160/160 162/162/162 191/191/191
f 191/191/191 162/162/162 212/212/212
f 213/213/213 135/135/135 156/156/156
f 214/214/214 160/160/160 193/193/193
f 165/165/165 214/214/214 193/193/193
f 142/142/142 160/160/160 163/163/163
f 164/164/164 214/214/214 165/165/165
f 155/155/155 139/139/139 163/163/163
f 164/164/164 160/160/160 214/214/214
f 189/189/189 201/201/201 193/193/193
f 165/165/165 193/193/193 201/201/201
f 118/118/118 179/179/179 167/167/167
f 168/168/168 167/167/167 177/177/177
f 175/175/175 126/126/126 169/169/169
f 168/168/168 177/177/177 169/169/169
f 179/179/179 215/215/215 200/200/200
f 189/189/189 212/212/212 190/190/190
f 205/205/205 204/204/204 171/171/171
f 205/205/205 171/171/171 101/101/101
f 152/152/152 205/205/205 101/101/101
f 197/197/197 196/196/196 170/170/170
f 197/197/197 170/170/170 151/151/151
f 154/154/154 197/197/197 151/151/151
f 216/216/216 131/131/131 173/173/173
f 118/118/118 216/216/216 173/173/173
f 166/166/166 216/216/216 118/118/118
f 166/166/166 131/131/131 216/216/216
f 217/217/217 165/165/165 201/201/201
f 156/156/156 217/217/217 201/201/201
f 155/155/155 217/217/217 156/156/156
f 155/155/155 165/165/165 217/217/217
f 186/186/186 213/213/213 202/202/202
f 156/156/156 202/202/202 213/213/213
f 156/156/156 201/201/201 202/202/202
g WB032
s 1
f 218/218/218 219/219/219 220/220/220
f 219/219/219 221/221/221 222/222/222
f 223/223/223 224/224/224 225/225/225
f 226/226/226 227/227/227 223/223/223
f 228/228/228 229/229/229 230/230/230
f 218/218/218 220/220/220 231/231/231
f 232/232/232 227/227/227 226/226/226
f 228/228/228 233/233/233 229/229/229
f 234/234/234 235/235/235 236/236/236
f 237/237/237 235/235/235 234/234/234
f 238/238/238 239/239/239 240/240/240
f 241/241/241 239/239/239 238/238/238
f 242/242/242 243/243/243 244/244/244
f 241/241/241 238/238/238 245/245/245
f 246/246/246 228/228/228 231/231/231
f 225/225/225 235/235/235 237/237/237
f 225/225/225 224/224/224 235/235/235
f 244/244/244 247/247/247 248/248/248
f 241/241/241 249/249/249 239/239/239
f 231/231/231 250/250/250 246/246/246
f 231/231/231 220/220/220 250/250/250
f 219/219/219 222/222/222 220/220/220
f 223/223/223 225/225/225 237/237/237
f 238/238/238 240/240/240 245/245/245
f 241/241/241 245/245/245 251/251/251
f 218/218/218 230/230/230 252/252/252
f 218/218/218 228/228/228 230/230/230
f 253/253/253 219/219/219 252/252/252
f 246/246/246 233/233/233 228/228/228
f 232/232/232 254/254/254 227/227/227
f 231/231/231 228/228/228 218/218/218
f 245/245/245 242/242/242 244/244/244
f 245/245/245 240/240/240 242/242/242
f 242/242/242 240/240/240 243/243/243
f 234/234/234 236/236/236 232/232/232
f 237/237/237 234/234/234 232/232/232
f 252/252/252 219/219/219 218/218/218
f 252/252/252 230/230/230 255/255/255
f 223/223/223 237/237/237 226/226/226
f 251/251/251 248/248/248 241/241/241
f 226/226/226 237/237/237 232/232/232
f 252/252/252 255/255/255 253/253/253
f 244/244/244 248/248/248 251/251/251
f 223/223/223 256/256/256 224/224/224
f 251/251/251 245/245/245 244/244/244
f 253/253/253 221/221/221 219/219/219
g WB033
s 1
f 257/257/257 258/258/258 259/259/259
f 260/260/260 258/258/258 257/257/257
f 261/261/261 260/260/260 257/257/257
f 262/262/262 260/260/260 261/261/261
f 257/257/257 259/259/259 263/263/263
f 261/261/261 257/257/257 264/264/264
f 262/262/262 265/265/265 260/260/260
f 264/264/264 257/257/257 263/263/263
f 265/265/265 258/258/258 260/260/260
f 266/266/266 267/267/267 262/262/262
f 266/266/266 268/268/268 267/267/267
f 269/269/269 270/270/270 268/268/268
f 264/264/264 271/271/271 272/272/272
f 261/261/261 272/272/272 266/266/266
f 261/261/261 266/266/266 262/262/262
f 273/273/273 263/263/263 274/274/274
f 273/273/273 274/274/274 275/275/275
f 264/264/264 272/272/272 261/261/261
f 272/272/272 268/268/268 266/266/266
f 271/271/271 269/269/269 272/272/272
f 271/271/271 276/276/276 269/269/269
f 272/272/272 269/269/269 268/268/268
f 277/277/277 278/278/278 271/271/271
f 264/264/264 277/277/277 271/271/271
f 273/273/273 277/277/277 264/264/264
f 273/273/273 278/278/278 277/277/277
f 275/275/275 278/278/278 273/273/273
f 264/264/264 263/263/263 273/273/273
f 278/278/278 276/276/276 271/271/271
f 269/269/269 276/276/276 270/270/270
g WB034
s 1
f 279/279/279 280/280/280 281/281/281
f 282/282/282 283/283/283 279/279/279
f 284/284/284 283/283/283 282/282/282
f 279/279/279 283/283/283 280/280/280
f 285/285/285 280/280/280 283/283/283
f 286/286/286 287/287/287 288/288/288
f 289/289/289 287/287/287 286/286/286
f 289/289/289 286/286/286 290/290/290
f 286/286/286 288/288/288 290/290/290
f 291/291/291 292/292/292 290/290/290
f 290/290/290 293/293/293 291/291/291
f 279/279/279 294/294/294 295/295/295
f 291/291/291 293/293/293 296/296/296
f 297/297/297 294/294/294 279/279/279
f 298/298/298 299/299/299 300/300/300
f 279/279/279 295/295/295 282/282/282
f 282/282/282 295/295/295 284/284/284
f 301/301/301 302/302/302 292/292/292
f 298/298/298 300/300/300 297/297/297
f 290/290/290 288/288/288 293/293/293
f 303/303/303 304/304/304 301/301/301
f 303/303/303 301/301/301 292/292/292
f 285/285/285 305/305/305 280/280/280
f 305/305/305 298/298/298 280/280/280
f 306/306/306 298/298/298 305/305/305
f 306/306/306 305/305/305 285/285/285
f 296/296/296 292/292/292 291/291/291
f 281/281/281 297/297/297 279/279/279
f 298/298/298 297/297/297 281/281/281
f 290/290/290 292/292/292 302/302/302
f 281/281/281 280/280/280 298/298/298
f 290/290/290 302/302/302 289/289/289
f 304/304/304 289/289/289 302/302/302
f 298/298/298 306/306/306 307/307/307
f 289/289/289 308/308/308 287/287/287
f 304/304/304 302/302/302 301/301/301
f 297/297/297 300/300/300 294/294/294
