# Exported using wow.export v0.2.19
o 21138_Warlock03.obj
v -263.469482421875 12.120588302612305 391.3403625488281
v -265.0330810546875 11.349929809570312 391.5462341308594
v -265.33441162109375 10.498260498046875 390.421630859375
v -265.4611511230469 9.357637405395508 389.9486389160156
v -263.469482421875 10.1282958984375 389.6864013671875
v -263.469482421875 11.2689208984375 390.1761169433594
v -267.7503662109375 6.978766441345215 397.5306701660156
v -268.8138732910156 7.817801475524902 397.5306701660156
v -268.6307678222656 8.267290115356445 395.9986877441406
v -267.5985107421875 7.415618896484375 396.2752990722656
v -269.3049011230469 8.267290115356445 395.81805419921875
v -268.0969543457031 9.037948608398438 394.7099609375
v -268.7013854980469 9.037948608398438 394.3609924316406
v -270.42950439453125 7.415618896484375 395.5167236328125
v -269.70965576171875 8.186281204223633 393.77886962890625
v -266.4901428222656 10.579269409179688 392.1497497558594
v -264.8524475097656 11.349929809570312 392.2203674316406
v -266.1411437988281 10.579269409179688 392.754150390625
v -267.0722351074219 9.727602005004883 391.1414794921875
v -264.5758361816406 10.498260498046875 393.2525939941406
v -265.6068420410156 9.727602005004883 393.6796569824219
v -264.4352111816406 9.357637405395508 393.7774963378906
v -265.3351135253906 8.586977005004883 394.1502685546875
v -267.31707763671875 8.586977005004883 390.7173767089844
v -267.1714782714844 8.186281204223633 395.2442932128906
v -266.70086669921875 7.045656204223633 395.5160217285156
v -267.0736389160156 6.274995803833008 396.4159240722656
v -270.9024963378906 6.274995803833008 395.3899841308594
v -270.1337585449219 7.045656204223633 393.5340270996094
v -267.7413330078125 9.808610916137695 393.10980224609375
v -267.247802734375 9.808610916137695 393.6033020019531
v -268.5645751953125 8.956939697265625 392.28656005859375
v -266.49212646484375 8.956939697265625 394.3589782714844
v -266.10791015625 7.816314697265625 394.74322509765625
v -268.91082763671875 7.816314697265625 391.9403076171875
v -267.2095947265625 5.855063438415527 397.5306701660156
v -270.66705322265625 6.978766441345215 397.5306701660156
v -271.1544189453125 5.855063438415527 397.5306701660156
v -263.469482421875 12.120588302612305 392.03826904296875
v -263.469482421875 11.2689208984375 393.1069641113281
v -263.469482421875 10.1282958984375 393.65032958984375
v -269.5084228515625 7.817801475524902 397.5306701660156
v -266.06475830078125 3.884692668914795 394.7863464355469
v -265.3045959472656 4.655354976654053 394.20306396484375
v -266.69091796875 4.270023822784424 392.7518615722656
v -268.57421875 2.728703022003174 394.98284912109375
v -270.9024963378906 2.3433735370635986 395.3899841308594
v -267.01470947265625 2.3433735370635986 396.43170166015625
v -270.1337585449219 3.11403226852417 393.5340270996094
v -266.6480407714844 3.11403226852417 395.5465087890625
v -267.7794189453125 3.499363422393799 393.743408203125
v -268.91082763671875 3.8846943378448486 391.9403076171875
v -267.31707763671875 4.655354976654053 390.7173767089844
v -271.1544189453125 1.9817606210708618 397.5306701660156
v -269.1516418457031 1.9817606210708618 397.5306701660156
v -269.0845642089844 2.162567138671875 396.981201171875
v -267.14886474609375 1.9817606210708618 397.5306701660156
v -264.4194030761719 5.426013469696045 393.83642578125
v -263.469482421875 6.196675777435303 393.7113342285156
v -263.9444580078125 5.811344623565674 391.76141357421875
v -263.469482421875 6.196675777435303 389.6864013671875
v -265.4611511230469 5.426015377044678 389.9486389160156
v -265.38287353515625 5.040685176849365 392.07586669921875
v -267.31707763671875 6.621166229248047 390.7173767089844
v -268.91082763671875 7.816314697265625 391.9403076171875
v -267.31707763671875 4.655354976654053 390.7173767089844
v -267.31707763671875 8.586977005004883 390.7173767089844
v -267.11126708984375 4.128377914428711 396.9732971191406
v -267.2095947265625 5.855063438415527 397.5306701660156
v -267.0736389160156 6.274995803833008 396.4159240722656
v -267.01470947265625 2.3433735370635986 396.43170166015625
v -267.14886474609375 1.9817606210708618 397.5306701660156
v -266.70086669921875 7.045656204223633 395.5160217285156
v -266.10791015625 7.816314697265625 394.74322509765625
v -266.37799072265625 5.465173721313477 395.1448669433594
v -266.6480407714844 3.11403226852417 395.5465087890625
v -266.06475830078125 3.884692668914795 394.7863464355469
v -265.3351135253906 8.586977005004883 394.1502685546875
v -265.699951171875 6.235835075378418 394.46832275390625
v -265.3045959472656 4.655354976654053 394.20306396484375
v -266.70086669921875 7.045656204223633 395.5160217285156
v -266.8577880859375 4.694514751434326 395.973876953125
v -266.6480407714844 3.11403226852417 395.5465087890625
v -265.3351135253906 8.586977005004883 394.1502685546875
v -264.4352111816406 9.357637405395508 393.7774963378906
v -264.8699035644531 7.006496429443359 393.99029541015625
v -265.3045959472656 4.655354976654053 394.20306396484375
v -264.4194030761719 5.426013469696045 393.83642578125
v -263.469482421875 10.1282958984375 393.65032958984375
v -263.9444580078125 7.777154922485352 393.7433776855469
v -263.469482421875 6.196675777435303 393.7113342285156
v -267.1792297363281 3.918412208557129 397.5306701660156
v -271.1544189453125 3.91841197013855 397.5306701660156
v -271.1544189453125 1.9817606210708618 397.5306701660156
v -271.0284423828125 4.099218368530273 396.4603271484375
v -263.469482421875 6.196675777435303 389.6864013671875
v -264.46533203125 6.794251441955566 389.8175048828125
v -265.4611511230469 5.426015377044678 389.9486389160156
v -265.4611511230469 7.391826629638672 389.9486389160156
v -264.46533203125 7.777156829833984 389.8175048828125
v -267.31707763671875 8.586977005004883 390.7173767089844
v -266.38909912109375 7.006496429443359 390.3330078125
v -267.31707763671875 6.621166229248047 390.7173767089844
v -263.469482421875 8.16248607635498 389.6864013671875
v -264.46533203125 8.760061264038086 389.8175048828125
v -265.4611511230469 9.357637405395508 389.9486389160156
v -263.469482421875 10.1282958984375 389.6864013671875
v -263.469482421875 7.1795806884765625 389.6864013671875
v -265.4611511230469 8.37473201751709 389.9486389160156
v -271.1544189453125 5.855063438415527 397.5306701660156
v -270.1337585449219 7.045656204223633 393.5340270996094
v -270.9024963378906 6.274995803833008 395.3899841308594
v -270.1337585449219 3.11403226852417 393.5340270996094
v -270.9024963378906 2.3433735370635986 395.3899841308594
v -270.1337585449219 7.045656204223633 393.5340270996094
v -268.91082763671875 3.8846943378448486 391.9403076171875
v -270.1337585449219 3.11403226852417 393.5340270996094
v -267.31707763671875 4.655354976654053 390.7173767089844
vn 0.42854785919189453 -0.8552660346031189 0.2913190722465515
vn 0.4953707754611969 -0.8524365425109863 0.1672116369009018
vn 0.4313335716724396 -0.5917903184890747 0.6809812784194946
vn 0.32898569107055664 -0.19976948201656342 0.9229629039764404
vn 0.07876542955636978 -0.19978277385234833 0.9766692519187927
vn 0.2695122957229614 -0.6254032254219055 0.7322799563407898
vn -0.7625167369842529 -0.6248618960380554 -0.1676778346300125
vn -0.2916828989982605 -0.933066725730896 -0.21049360930919647
vn -0.22378823161125183 -0.8442173600196838 -0.48704811930656433
vn -0.6419674158096313 -0.5960720181465149 -0.4822613298892975
vn 0.26928001642227173 -0.9066365361213684 -0.32480520009994507
vn -0.07592365145683289 -0.8094493746757507 -0.5822605490684509
vn 0.46851685643196106 -0.8524361848831177 -0.2320443093776703
vn 0.8034617304801941 -0.5952810645103455 0.00947311706840992
vn 0.7865256667137146 -0.5917882919311523 0.1765332669019699
vn 0.521769642829895 -0.8524359464645386 0.03330663591623306
vn 0.3580385744571686 -0.8094486594200134 -0.4654044210910797
vn 0.22538118064403534 -0.809449315071106 -0.5422132015228271
vn 0.5928877592086792 -0.5917903184890747 0.5461394786834717
vn 0.17678679525852203 -0.5966191291809082 -0.7828103303909302
vn -0.031838688999414444 -0.5966212153434753 -0.8018911480903625
vn -0.09252296388149261 -0.2200905978679657 -0.9710816740989685
vn -0.3406974971294403 -0.2200912982225418 -0.9140487313270569
vn 0.5566553473472595 -0.19977305829524994 0.8063656687736511
vn -0.4285234808921814 -0.5966235995292664 -0.678533673286438
vn -0.7520831227302551 -0.22009234130382538 -0.6212329268455505
vn -0.9032545685768127 -0.22237512469291687 -0.3669883906841278
vn 0.961890697479248 -0.20062851905822754 0.18578088283538818
vn 0.8852603435516357 -0.199773907661438 0.4200053811073303
vn 0.5126096606254578 -0.852436363697052 -0.10287631303071976
vn 0.07736898958683014 -0.8094484210014343 -0.5820715427398682
vn 0.714034914970398 -0.5917884111404419 0.3740864098072052
vn -0.23830148577690125 -0.5966216325759888 -0.7663256525993347
vn -0.565660297870636 -0.22009286284446716 -0.7947248220443726
vn 0.7463879585266113 -0.19977352023124695 0.6348193287849426
vn -0.960624635219574 -0.2475682497024536 -0.12613576650619507
vn 0.7836751937866211 -0.6197496056556702 -0.041995614767074585
vn 0.9790143370628357 -0.20355752110481262 -0.009762270376086235
vn 0.4741949141025543 -0.8283255100250244 -0.2983556091785431
vn 0.39077436923980713 -0.5900120139122009 -0.706527590751648
vn 0.161805659532547 -0.22009718418121338 -0.9619647264480591
vn 0.30986011028289795 -0.9364488124847412 -0.164469912648201
vn -0.7265738248825073 0.677996039390564 -0.11140860617160797
vn -0.6729881167411804 0.6779922842979431 -0.2956576943397522
vn -0.4474242329597473 0.8288251757621765 0.3359471261501312
vn -0.1277800053358078 0.8814346194267273 0.454692542552948
vn 0.6346429586410522 0.6838986277580261 0.3598763644695282
vn -0.5368937253952026 0.8213353157043457 0.19275225698947906
vn 0.31194964051246643 0.7303433418273926 0.6076890826225281
vn -0.7306526303291321 0.6779938340187073 0.08044317364692688
vn -0.34522977471351624 0.8288233280181885 0.4403049051761627
vn 0.14403849840164185 0.7303420901298523 0.6677225232124329
vn -0.03368890658020973 0.7303428053855896 0.6822495460510254
vn 0.5784834027290344 0.8013469576835632 0.15231533348560333
vn -0.09245974570512772 0.9835912585258484 0.1549176275730133
vn 0.02506175823509693 0.9778212904930115 0.20793622732162476
vn -0.7187092900276184 0.6903827786445618 0.08263514190912247
vn -0.5735308527946472 0.6779918074607849 -0.4597710967063904
vn -0.44968312978744507 0.6529833674430847 -0.6094241738319397
vn -0.5567620992660522 0.8268566131591797 0.07952442020177841
vn -0.3655700087547302 0.7166824340820312 0.5939064025878906
vn -0.2091180831193924 0.7303422093391418 0.650284469127655
vn -0.519130527973175 0.8288224935531616 0.20870231091976166
vn 0.3141648769378662 0.31873244047164917 0.8942650556564331
vn 0.7463879585266113 -0.19977352023124695 0.6348193287849426
vn -0.03368890658020973 0.7303428053855896 0.6822495460510254
vn 0.5566553473472595 -0.19977305829524994 0.8063656687736511
vn -0.9474555253982544 0.27338242530822754 -0.16610237956047058
vn -0.960624635219574 -0.2475682497024536 -0.12613576650619507
vn -0.9032545685768127 -0.22237512469291687 -0.3669883906841278
vn -0.5368937253952026 0.8213353157043457 0.19275225698947906
vn -0.7187092900276184 0.6903827786445618 0.08263514190912247
vn -0.7520831227302551 -0.22009234130382538 -0.6212329268455505
vn -0.565660297870636 -0.22009286284446716 -0.7947248220443726
vn -0.8367142677307129 0.2955554127693176 -0.46103814244270325
vn -0.7306526303291321 0.6779938340187073 0.08044317364692688
vn -0.7265738248825073 0.677996039390564 -0.11140860617160797
vn -0.3406974971294403 -0.2200912982225418 -0.9140487313270569
vn -0.6888765096664429 0.29555729031562805 -0.6618874669075012
vn -0.6729881167411804 0.6779922842979431 -0.2956576943397522
vn -0.7520831227302551 -0.22009234130382538 -0.6212329268455505
vn -0.8677372932434082 0.4047558307647705 -0.28845253586769104
vn -0.7306526303291321 0.6779938340187073 0.08044317364692688
vn -0.3406974971294403 -0.2200912982225418 -0.9140487313270569
vn -0.09252296388149261 -0.2200905978679657 -0.9710816740989685
vn -0.49410343170166016 0.2955552041530609 -0.817624032497406
vn -0.6729881167411804 0.6779922842979431 -0.2956576943397522
vn -0.5735308527946472 0.6779918074607849 -0.4597710967063904
vn 0.161805659532547 -0.22009718418121338 -0.9619647264480591
vn -0.2657388150691986 0.2955378592014313 -0.9176275730133057
vn -0.44968312978744507 0.6529833674430847 -0.6094241738319397
vn -0.9666458964347839 0.2548896372318268 -0.025039510801434517
vn 0.9302062392234802 0.3570261597633362 0.0851389616727829
vn 0.5784834027290344 0.8013469576835632 0.15231533348560333
vn 0.9383636116981506 0.27932488918304443 0.2035961151123047
vn -0.3655700087547302 0.7166824340820312 0.5939064025878906
vn -0.156317338347435 0.5513447523117065 0.8195022940635681
vn -0.2091180831193924 0.7303422093391418 0.650284469127655
vn 0.07200868427753448 0.31873366236686707 0.9451050162315369
vn -0.02282319962978363 0.32247719168663025 0.9463019967079163
vn 0.5566553473472595 -0.19977305829524994 0.8063656687736511
vn 0.21874937415122986 0.3339545726776123 0.9168550372123718
vn 0.3141648769378662 0.31873244047164917 0.8942650556564331
vn -0.17090635001659393 0.30801960825920105 0.9359033703804016
vn 0.08459259569644928 0.05792761594057083 0.9947303533554077
vn 0.32898569107055664 -0.19976948201656342 0.9229629039764404
vn 0.07876542955636978 -0.19978277385234833 0.9766692519187927
vn -0.27972838282585144 0.5342980027198792 0.7976701855659485
vn 0.209470734000206 0.06214430183172226 0.9758381247520447
vn 0.9790143370628357 -0.20355752110481262 -0.009762270376086235
vn 0.8852603435516357 -0.199773907661438 0.4200053811073303
vn 0.961890697479248 -0.20062851905822754 0.18578088283538818
vn 0.31194964051246643 0.7303433418273926 0.6076890826225281
vn 0.6346429586410522 0.6838986277580261 0.3598763644695282
vn 0.8852603435516357 -0.199773907661438 0.4200053811073303
vn 0.14403849840164185 0.7303420901298523 0.6677225232124329
vn 0.31194964051246643 0.7303433418273926 0.6076890826225281
vn -0.03368890658020973 0.7303428053855896 0.6822495460510254
vt 0.5 0.800000011920929
vt 0.75 0.800000011920929
vt 0.75 0.3999999761581421
vt 0.75 0
vt 0.5 0
vt 0.5 0.3999999761581421
vt 0 1.600000023841858
vt 0 1.2000000476837158
vt 0.25 1.2000000476837158
vt 0.25 1.600000023841858
vt 0.25 0.800000011920929
vt 0.5 1.2000000476837158
vt 0.5 0.800000011920929
vt 0.25 0.3999999761581421
vt 0.5 0.3999999761581421
vt 1 0.800000011920929
vt 0.75 1.2000000476837158
vt 1 1.2000000476837158
vt 1 0.3999999761581421
vt 0.75 1.600000023841858
vt 1 1.600000023841858
vt 0.75 2
vt 1 2
vt 1 0
vt 0.5 1.600000023841858
vt 0.5 2
vt 0.25 2
vt 0.25 0
vt 0.5 0
vt 0.75 0.800000011920929
vt 0.75 1.2000000476837158
vt 0.75 0.3999999761581421
vt 0.75 1.600000023841858
vt 0.75 2
vt 0.75 0
vt 0 2
vt 0 0.3999999761581421
vt 0 0
vt 0.5 1.2000000476837158
vt 0.5 1.600000023841858
vt 0.5 2
vt 0 0.800000011920929
vt 1.7407147884368896 0.9946174621582031
vt 1.6122424602508545 0.8810353875160217
vt 1.8465447425842285 0.5984387397766113
vt 2.1648435592651367 1.0328831672668457
vt 2.558350086212158 1.1121599674224854
vt 1.9012659788131714 1.315016746520996
vt 2.4284210205078125 0.7507495880126953
vt 1.839295506477356 1.1426403522491455
vt 2.030514717102051 0.7915201485157013
vt 2.221734046936035 0.4403999447822571
vt 1.9523745775222778 0.20226001739501953
vt 2.600921154022217 1.4850444793701172
vt 2.2624313831329346 1.5295605659484863
vt 2.251093626022339 1.4000306129455566
vt 1.923941731452942 1.5740766525268555
vt 1.4626327753067017 0.8096346259117126
vt 1.3020820617675781 0.7852815985679626
vt 1.3823578357696533 0.4055666923522949
vt 1.3020827770233154 0.0014986991882324219
vt 1.6386985778808594 0.05255889892578125
vt 1.625470519065857 0.4667971134185791
vt -2.1855694143368964e-8 0.5326379537582397
vt 0.4999999701976776 1.0652759075164795
vt -4.371138828673793e-8 0
vt 0 1.0652759075164795
vt 0.75 0.5326379537582397
vt 1 1.0652759075164795
vt 0.4999999701976776 1.0652759075164795
vt 0.5 0
vt 1 0
vt 1 1.0652759075164795
vt 0.4999999701976776 1.0652759075164795
vt 0.75 0.5326379537582397
vt 1 0
vt 0.5 0
vt -4.377216100692749e-8 1.0652759075164795
vt 0.2499999850988388 0.5326379537582397
vt 0 0
vt -4.377216100692749e-8 1.0652759075164795
vt 0.2499999850988388 0.5326379537582397
vt 0 0
vt 1 1.0652759075164795
vt 0.4999999701976776 1.0652759075164795
vt 0.75 0.5326379537582397
vt 1 0
vt 0.5 0
vt -4.377216100692749e-8 1.0652759075164795
vt 0.2499999850988388 0.5326379537582397
vt 0 0
vt 1 0.5326379537582397
vt 1 0.5326379537582397
vt 0.9999999403953552 0
vt 0.75 0.5326379537582397
vt -4.371138828673793e-8 0
vt 0.2499999850988388 0.2663189768791199
vt 0.5 0
vt 0.5 0.5326379537582397
vt 0.2499999701976776 0.5326379537582397
vt 1 1.0652759075164795
vt 0.75 0.5326379537582397
vt 1 0.5326379537582397
vt -2.1855694143368964e-8 0.5326379537582397
vt 0.2499999850988388 0.7989569306373596
vt 0.4999999701976776 1.0652759075164795
vt 0 1.0652759075164795
vt -3.278353943869661e-8 0.2663189768791199
vt 0.5 0.7989569306373596
vt 1 1.0652759075164795
vt 0 1.0652759075164795
vt 0.4999999701976776 1.0652759075164795
vt -4.371138828673793e-8 0
vt 0.5 0
vt 1 1.0652759075164795
vt 0.5 0
vt 0.9999999403953552 0
vt 0.9999999403953552 0
g Warlock030
s 1
f 1/1/1 2/2/2 3/3/3
f 4/4/4 5/5/5 6/6/6
f 6/6/6 3/3/3 4/4/4
f 7/7/7 8/8/8 9/9/9
f 9/9/9 10/10/10 7/7/7
f 11/11/11 12/12/12 9/9/9
f 11/11/11 13/13/13 12/12/12
f 14/14/14 15/15/15 13/13/13
f 13/13/13 11/11/11 14/14/14
f 16/16/16 17/17/17 18/18/18
f 16/16/16 2/2/2 17/17/17
f 19/19/19 3/3/3 2/2/2
f 2/2/2 16/16/16 19/19/19
f 20/20/20 21/21/21 18/18/18
f 18/18/18 17/17/17 20/20/20
f 22/22/22 23/23/23 21/21/21
f 21/21/21 20/20/20 22/22/22
f 24/24/24 4/4/4 3/3/3
f 3/3/3 19/19/19 24/24/24
f 25/25/25 10/10/10 9/9/9
f 9/9/9 12/12/12 25/25/25
f 26/26/26 27/27/27 10/10/10
f 10/10/10 25/25/25 26/26/26
f 28/28/28 29/29/29 15/15/15
f 15/15/15 14/14/14 28/28/28
f 30/30/30 18/18/18 31/31/31
f 30/30/30 16/16/16 18/18/18
f 32/32/32 19/19/19 16/16/16
f 16/16/16 30/30/30 32/32/32
f 21/21/21 33/33/33 31/31/31
f 31/31/31 18/18/18 21/21/21
f 23/23/23 34/34/34 33/33/33
f 33/33/33 21/21/21 23/23/23
f 35/35/35 24/24/24 19/19/19
f 19/19/19 32/32/32 35/35/35
f 36/36/36 7/7/7 10/10/10
f 10/10/10 27/27/27 36/36/36
f 37/37/37 38/38/38 28/28/28
f 28/28/28 14/14/14 37/37/37
f 17/17/17 39/39/39 40/40/40
f 41/41/41 22/22/22 20/20/20
f 20/20/20 40/40/40 41/41/41
f 40/40/40 20/20/20 17/17/17
f 13/13/13 31/31/31 12/12/12
f 13/13/13 30/30/30 31/31/31
f 15/15/15 32/32/32 30/30/30
f 30/30/30 13/13/13 15/15/15
f 33/33/33 25/25/25 12/12/12
f 12/12/12 31/31/31 33/33/33
f 34/34/34 26/26/26 25/25/25
f 25/25/25 33/33/33 34/34/34
f 29/29/29 35/35/35 32/32/32
f 32/32/32 15/15/15 29/29/29
f 8/8/8 42/42/42 11/11/11
f 11/11/11 9/9/9 8/8/8
f 42/42/42 37/37/37 14/14/14
f 14/14/14 11/11/11 42/42/42
f 2/2/2 39/39/39 17/17/17
f 2/2/2 1/1/1 39/39/39
f 3/3/3 6/6/6 1/1/1
g Warlock031
s 1
f 43/43/43 44/44/44 45/45/45
f 46/46/46 47/47/47 48/48/48
f 49/49/49 47/47/47 46/46/46
f 46/46/46 50/50/50 49/49/49
f 48/48/48 50/50/50 46/46/46
f 51/51/51 49/49/49 50/50/50
f 52/52/52 49/49/49 51/51/51
f 51/51/51 43/43/43 52/52/52
f 50/50/50 43/43/43 51/51/51
f 45/45/45 44/44/44 53/53/53
f 53/53/53 52/52/52 45/45/45
f 45/45/45 52/52/52 43/43/43
f 54/54/54 55/55/55 56/56/56
f 56/56/56 57/57/57 48/48/48
f 48/48/48 47/47/47 56/56/56
f 56/56/56 47/47/47 54/54/54
f 55/55/55 57/57/57 56/56/56
f 58/58/58 59/59/59 60/60/60
f 60/60/60 59/59/59 61/61/61
f 61/61/61 62/62/62 60/60/60
f 60/60/60 62/62/62 58/58/58
f 44/44/44 58/58/58 63/63/63
f 63/63/63 58/58/58 62/62/62
f 62/62/62 53/53/53 63/63/63
f 63/63/63 53/53/53 44/44/44
g Warlock032
s 1
f 64/64/64 65/65/65 66/66/66
f 67/67/67 65/65/65 64/64/64
f 68/68/68 69/69/69 70/70/70
f 68/68/68 71/71/71 72/72/72
f 70/70/70 71/71/71 68/68/68
f 73/73/73 74/74/74 75/75/75
f 73/73/73 75/75/75 76/76/76
f 77/77/77 76/76/76 75/75/75
f 77/77/77 75/75/75 74/74/74
f 74/74/74 78/78/78 79/79/79
f 74/74/74 79/79/79 77/77/77
f 80/80/80 77/77/77 79/79/79
f 80/80/80 79/79/79 78/78/78
f 70/70/70 81/81/81 82/82/82
f 70/70/70 82/82/82 71/71/71
f 83/83/83 71/71/71 82/82/82
f 83/83/83 82/82/82 81/81/81
f 84/84/84 85/85/85 86/86/86
f 84/84/84 86/86/86 87/87/87
f 88/88/88 87/87/87 86/86/86
f 88/88/88 86/86/86 85/85/85
f 85/85/85 89/89/89 90/90/90
f 85/85/85 90/90/90 88/88/88
f 91/91/91 88/88/88 90/90/90
f 91/91/91 90/90/90 89/89/89
f 92/92/92 69/69/69 68/68/68
f 93/93/93 94/94/94 95/95/95
f 96/96/96 97/97/97 98/98/98
f 97/97/97 99/99/99 98/98/98
f 97/97/97 100/100/100 99/99/99
f 96/96/96 100/100/100 97/97/97
f 99/99/99 101/101/101 102/102/102
f 99/99/99 102/102/102 98/98/98
f 98/98/98 102/102/102 103/103/103
f 102/102/102 101/101/101 103/103/103
f 104/104/104 105/105/105 100/100/100
f 105/105/105 106/106/106 100/100/100
f 107/107/107 106/106/106 105/105/105
f 107/107/107 105/105/105 104/104/104
f 108/108/108 100/100/100 96/96/96
f 104/104/104 100/100/100 108/108/108
f 100/100/100 106/106/106 109/109/109
f 100/100/100 109/109/109 99/99/99
f 109/109/109 101/101/101 99/99/99
f 106/106/106 101/101/101 109/109/109
f 72/72/72 92/92/92 68/68/68
f 110/110/110 93/93/93 95/95/95
f 111/111/111 112/112/112 113/113/113
f 113/113/113 112/112/112 114/114/114
f 65/65/65 115/115/115 116/116/116
f 116/116/116 115/115/115 117/117/117
f 66/66/66 65/65/65 116/116/116
f 95/95/95 112/112/112 110/110/110
f 114/114/114 112/112/112 95/95/95
f 95/95/95 94/94/94 114/114/114
f 98/98/98 103/103/103 118/118/118
