# Exported using wow.export v0.2.19
o 21138_HB02.obj
v -310.603271484375 4.131591320037842 -5.846871852874756
v -315.3256530761719 4.333918571472168 -6.484930992126465
v -305.88092041015625 4.199644088745117 -6.059574604034424
v -305.88092041015625 2.1821978092193604 -11.361276626586914
v -301.1585693359375 2.5854737758636475 -11.071224212646484
v -305.88092041015625 2.9878344535827637 -10.781147003173828
v -299.9779052734375 1.4778387546539307 -2.962009906768799
v -296.4361267089844 1.3774772882461548 -2.889503002166748
v -301.15850830078125 1.3770196437835693 -2.8894906044006348
v -301.1585693359375 -0.04845142364501953 -12.322816848754883
v -301.1585693359375 -0.5236080884933472 -12.449949264526367
v -296.4361877441406 -0.5231505632400513 -12.44996166229248
v -305.88092041015625 -0.5240656733512878 -12.449936866760254
v -307.0614929199219 1.6785614490509033 -3.1070237159729004
v -303.51971435546875 1.578200101852417 -3.0345168113708496
v -305.8808898925781 1.3765621185302734 -2.8894784450531006
v -310.603271484375 1.7789227962493896 -3.179530620574951
v -305.8808898925781 2.1821985244750977 -3.4696075916290283
v -315.3256530761719 1.3756470680236816 -2.889453887939453
v -315.3256530761719 2.986919403076172 -4.049712181091309
v -296.4361572265625 4.33574914932251 -6.48498010635376
v -296.4361572265625 4.06536865234375 -5.634218215942383
v -301.1585388183594 4.064910888671875 -5.6342058181762695
v -301.1585388183594 3.7957563400268555 -5.238091468811035
v -296.4361267089844 2.9887497425079346 -4.0497612953186035
v -301.15850830078125 2.5854740142822266 -3.7596845626831055
v -305.88092041015625 4.064453601837158 -5.634193420410156
v -305.8808898925781 2.9878344535827637 -4.049736976623535
v -310.603271484375 2.5845589637756348 -3.759659767150879
v -310.603271484375 2.9873769283294678 -4.049724578857422
v -310.603271484375 3.2565317153930664 -4.445838928222656
v -315.3256530761719 1.3756459951400757 -11.941380500793457
v -315.3256530761719 -0.5249807834625244 -12.449912071228027
v -310.603271484375 -0.049366533756256104 -12.322792053222656
v -305.88092041015625 4.199644565582275 -8.771308898925781
v -305.88092041015625 4.064454555511475 -9.196685791015625
v -301.1585693359375 4.064911842346191 -9.196698188781738
v -305.88092041015625 0.4262477159500122 -12.195671081542969
v -301.1585693359375 3.7957570552825928 -9.592813491821289
v -296.4361877441406 1.3774762153625488 -11.94143009185791
v -301.1585693359375 0.9018619656562805 -12.068550109863281
v -296.4361877441406 4.065369606018066 -9.196710586547852
v -305.88092041015625 1.376561164855957 -11.941405296325684
v -310.603271484375 2.5845584869384766 -11.071199417114258
v -310.603271484375 2.9873769283294678 -10.781135559082031
v -315.3256530761719 2.986919403076172 -10.781123161315918
v -310.603271484375 3.2565319538116455 -10.385019302368164
v -301.15850830078125 0.9018627405166626 -2.7623543739318848
v -315.3256530761719 -0.5249807834625244 -2.380908489227295
v -310.603271484375 -0.049366265535354614 -2.508057117462158
v -301.1585693359375 1.7798370122909546 -11.65135383605957
v -301.1585693359375 1.377018690109253 -11.941417694091797
v -296.4361267089844 -0.5231505632400513 -2.380957841873169
v -305.8808898925781 0.4262482523918152 -2.6352057456970215
v -315.3256530761719 4.063539505004883 -9.196660995483398
v -305.88092041015625 3.526144504547119 -9.988916397094727
v -310.603271484375 -0.5245232582092285 -12.44992446899414
v -310.603271484375 0.9009476900100708 -2.7623298168182373
v -310.603271484375 1.3761045932769775 -2.8894662857055664
v -296.4361877441406 2.9887497425079346 -10.781171798706055
v -301.15850830078125 3.257446765899658 -4.445863246917725
v -301.15850830078125 2.9882922172546387 -4.049749374389648
v -301.1585693359375 3.2574472427368164 -10.38504409790039
v -301.1585693359375 2.9882922172546387 -10.781159400939941
v -315.3256530761719 4.063538551330566 -5.634169101715088
v -305.88092041015625 3.526144027709961 -4.841965198516846
v -310.603271484375 0.900946855545044 -12.068525314331055
v -310.603271484375 1.3761036396026611 -11.94139289855957
v -310.603271484375 1.7789218425750732 -11.651329040527344
v -301.15850830078125 1.7798378467559814 -3.1795554161071777
v -301.1585388183594 4.200101375579834 -6.059586524963379
v -301.1585388183594 4.267696380615234 -6.272277355194092
v -305.8808898925781 -0.5240656733512878 -2.3809332847595215
v -310.603271484375 -0.5245232582092285 -2.380920886993408
v -310.603271484375 4.063996315002441 -5.634181022644043
v -301.1585693359375 4.267697334289551 -8.558632850646973
v -305.88092041015625 4.334834575653076 -8.345932006835938
v -301.1585693359375 4.13250732421875 -8.984009742736816
v -296.4361877441406 4.335749626159668 -8.345956802368164
v -310.603271484375 4.199187278747559 -8.771296501159668
v -315.3256530761719 4.333919525146484 -8.345907211303711
v -305.88092041015625 4.334834098815918 -6.484955787658691
v -310.603271484375 4.063997268676758 -9.196673393249512
v -310.603271484375 3.7948412895202637 -5.238067150115967
v -310.603271484375 3.794842004776001 -9.592788696289062
v -301.15850830078125 -0.04845115542411804 -2.5080819129943848
v -303.51971435546875 -0.28625839948654175 -2.444507598876953
v -299.9779052734375 -0.4047044813632965 -2.4127326011657715
v -301.15850830078125 -0.5236080884933472 -2.3809456825256348
v -307.0614929199219 -0.16781233251094818 -2.4762823581695557
v -310.603271484375 -6.909235954284668 -3.1969289779663086
v -312.9644775390625 -7.694339275360107 -3.19692325592041
v -315.3256530761719 -5.339943885803223 -3.1969168186187744
v -305.88092041015625 -4.135818958282471 -11.631708145141602
v -310.603271484375 -4.1362762451171875 -11.631695747375488
v -305.88092041015625 -4.737423896789551 -11.6317138671875
v -310.603271484375 -3.310150384902954 -11.666754722595215
v -315.3256530761719 -4.1367340087890625 -11.631683349609375
v -296.4361267089844 -0.5231505632400513 -2.380957841873169
v -296.4361267089844 -0.830400288105011 -3.058962106704712
v -301.15850830078125 -0.8308578729629517 -3.0589499473571777
v -301.15850830078125 -1.656983733177185 -3.094008684158325
v -305.8808898925781 -0.8313153982162476 -3.0589375495910645
v -305.8808898925781 -5.339028835296631 -11.631719589233398
v -301.15850830078125 -5.338571548461914 -11.631731033325195
v -301.15850830078125 -5.338571548461914 -11.631731033325195
v -305.8808898925781 -5.339028835296631 -11.631719589233398
v -301.15850830078125 -6.908320903778076 -11.631731033325195
v -296.4361267089844 -5.338113784790039 -11.631743431091309
v -310.603271484375 -11.618484497070312 -11.631706237792969
v -305.8808898925781 -11.618026733398438 -11.631718635559082
v -310.603271484375 -10.048734664916992 -11.631707191467285
v -315.3256530761719 -11.618942260742188 -11.631694793701172
v -305.88092041015625 -2.4835667610168457 -11.701826095581055
v -305.88092041015625 -0.8313143253326416 -11.771944999694824
v -310.603271484375 -1.6578980684280396 -11.736873626708984
v -315.3256530761719 -0.8322294354438782 -11.771920204162598
v -296.4361877441406 -4.134903907775879 -11.631732940673828
v -301.1585693359375 -1.6569828987121582 -11.736898422241211
v -301.1585693359375 -3.3092353343963623 -11.666779518127441
v -305.8808898925781 -2.483567237854004 -3.1290552616119385
v -301.15850830078125 -3.3092355728149414 -3.164126396179199
v -303.51971435546875 -3.722527265548706 -3.181649684906006
v -296.4361267089844 -4.134903907775879 -3.19919753074646
v -310.603271484375 -3.310150623321533 -3.1641018390655518
v -310.603271484375 -1.6578989028930664 -3.0939841270446777
v -315.3256530761719 -0.8322304487228394 -3.058912992477417
v -301.15850830078125 -10.047820091247559 -3.196953773498535
v -298.79730224609375 -9.262716293334961 -3.196959972381592
v -296.4361267089844 -11.617112159729004 -3.1969659328460693
v -301.15850830078125 -6.908320903778076 -3.196953773498535
v -296.4361267089844 -5.338113784790039 -3.1969659328460693
v -315.3256530761719 -0.5249807834625244 -12.449912071228027
v -310.603271484375 -0.678147554397583 -12.110928535461426
v -311.78387451171875 -0.6014497876167297 -12.280424118041992
v -303.51971435546875 -10.832923889160156 -3.1969475746154785
v -305.8808898925781 -8.478528022766113 -3.196941375732422
v -296.4361877441406 -0.830399215221405 -11.77196979522705
v -301.1585693359375 -0.8308568000793457 -11.771957397460938
v -310.603271484375 -4.437078952789307 -3.1986026763916016
v -310.603271484375 -5.038683891296387 -3.1974868774414062
v -315.3256530761719 -4.1367340087890625 -3.199148416519165
v -305.8808898925781 -4.737423896789551 -3.198057174682617
v -301.15850830078125 -5.037768840789795 -3.197511672973633
v -301.15850830078125 -4.436163902282715 -3.198627471923828
v -296.4361267089844 -5.338113784790039 -3.1969659328460693
v -303.51971435546875 -5.188398838043213 -3.1972265243530273
v -301.15850830078125 -5.037768840789795 -11.631729125976562
v -301.1585693359375 -4.436163902282715 -11.631723403930664
v -296.4361267089844 -5.338113784790039 -11.631743431091309
v -310.603271484375 -4.437078952789307 -11.631698608398438
v -310.603271484375 -5.038683891296387 -11.631704330444336
v -305.88092041015625 -0.6776900291442871 -12.110940933227539
v -305.88092041015625 -0.5240656733512878 -12.449936866760254
v -310.603271484375 -0.5245232582092285 -12.44992446899414
v -315.3256530761719 -5.339943885803223 -11.631694793701172
v -310.603271484375 -5.339486122131348 -11.631707191467285
v -310.603271484375 -5.339486122131348 -11.631707191467285
v -308.2420654296875 -6.12413215637207 -11.631712913513184
v -301.1585693359375 -4.135361671447754 -11.631720542907715
v -305.8808898925781 -8.478528022766113 -11.631719589233398
v -302.339111328125 -8.870622634887695 -11.631728172302246
v -298.79730224609375 -9.262716293334961 -11.631736755371094
v -301.15850830078125 -10.047820091247559 -11.631731033325195
v -310.603271484375 -6.909235954284668 -11.631707191467285
v -315.3256530761719 -5.339943885803223 -11.631694793701172
v -312.9644775390625 -7.694339275360107 -11.63170051574707
v -309.42266845703125 -8.086433410644531 -11.631710052490234
v -304.7002868652344 -6.516226768493652 -11.631721496582031
v -301.15850830078125 -11.617568969726562 -11.631731033325195
v -296.4361267089844 -11.617112159729004 -11.631742477416992
v -305.8808898925781 -6.908778190612793 -3.196941375732422
v -305.8808898925781 -11.618026733398438 -3.196941614151001
v -310.603271484375 -11.618484497070312 -3.196929454803467
v -310.603271484375 -10.048734664916992 -3.196929454803467
v -315.3256530761719 -11.618942260742188 -3.1969172954559326
v -307.0614929199219 -10.440829277038574 -3.1969385147094727
v -305.8808898925781 -5.339028835296631 -3.196941375732422
v -301.15850830078125 -5.338571548461914 -3.196953773498535
v -301.15850830078125 -5.338571548461914 -3.196953773498535
v -305.8808898925781 -5.339028835296631 -3.196941375732422
v -310.603271484375 -0.8317729234695435 -3.058925151824951
v -305.8808898925781 -0.6776905059814453 -2.719935417175293
v -305.8808898925781 -4.135818958282471 -3.1991729736328125
v -310.603271484375 -4.1362762451171875 -3.199160575866699
v -307.0614929199219 -3.51633882522583 -3.1728758811950684
v -310.603271484375 -0.8317718505859375 -11.771932601928711
v -299.9779052734375 -11.225017547607422 -3.1969566345214844
v -296.4361877441406 -0.5231505632400513 -12.44996166229248
v -301.1585693359375 -0.5236080884933472 -12.449949264526367
v -315.3256530761719 -0.5249807834625244 -2.380908489227295
v -310.603271484375 -0.5245232582092285 -2.380920886993408
v -301.15850830078125 -4.135361671447754 -3.199185371398926
v -299.9779052734375 -3.928715705871582 -3.1904234886169434
v -311.78387451171875 -5.7320380210876465 -11.631704330444336
v -301.15850830078125 -0.6772329807281494 -2.7199478149414062
v -310.603271484375 -5.339486122131348 -3.1969289779663086
v -315.3256530761719 -5.339943885803223 -3.1969168186187744
v -310.603271484375 -5.339486122131348 -3.1969289779663086
v -308.2420654296875 -6.12413215637207 -3.1969351768493652
v -305.8808898925781 -4.43662166595459 -3.198615074157715
v -307.0614929199219 -5.113541603088379 -3.197356700897217
v -305.8808898925781 -0.5240656733512878 -2.3809332847595215
v -301.15850830078125 -0.5236080884933472 -2.3809456825256348
v -301.1585693359375 -0.7540446519851685 -11.941455841064453
v -310.603271484375 -0.6013354063034058 -12.280426025390625
v -308.24212646484375 -0.6779187917709351 -12.11093521118164
v -299.9779052734375 -5.263256072998047 -3.197096347808838
v -310.603271484375 -6.124361038208008 -3.1969289779663086
v -304.7002868652344 -6.516226768493652 -3.19694447517395
v -301.15850830078125 -11.617568969726562 -3.196953773498535
v -311.78387451171875 -5.7320380210876465 -3.1969261169433594
v -310.603271484375 -0.6781480312347412 -2.7199230194091797
v -301.1585693359375 -0.6772324442863464 -12.110953330993652
v -310.603271484375 -0.7549604773521423 -2.8894243240356445
v -301.15850830078125 -0.6004205346107483 -2.5504465103149414
v -304.7003479003906 -0.7543877959251404 -11.941446304321289
v -308.2420654296875 -4.286448955535889 -3.198887825012207
v -305.8808898925781 -4.286220073699951 -3.1988940238952637
v -310.603271484375 -4.286677837371826 -3.1988816261291504
v -310.603271484375 3.9512081146240234 -6.980340957641602
v -310.603271484375 3.9512081146240234 -6.545253753662109
v -315.3256530761719 3.9507505893707275 -6.545241355895996
v -305.88092041015625 4.14324951171875 -6.515110969543457
v -305.88092041015625 3.9516656398773193 -6.545266151428223
v -301.1585388183594 3.9521231651306152 -6.545278549194336
v -303.51971435546875 3.9518942832946777 -6.762815475463867
v -301.1585388183594 3.9521231651306152 -6.545278549194336
v -305.88092041015625 3.9516656398773193 -6.545266151428223
v -315.3256530761719 4.333918571472168 -6.484930992126465
v -310.603271484375 3.9512081146240234 -6.545253753662109
v -310.603271484375 4.142792224884033 -6.515098571777344
v -296.4361572265625 3.952580690383911 -6.545290470123291
v -305.88092041015625 4.334834098815918 -6.484955787658691
v -305.88092041015625 3.9516656398773193 -6.980353355407715
v -307.0614929199219 3.9515511989593506 -6.871578216552734
v -301.1585693359375 4.143707752227783 -8.315786361694336
v -301.1585693359375 3.9521231651306152 -8.285628318786621
v -305.88092041015625 3.9516656398773193 -8.285615921020508
v -296.4361877441406 4.335749626159668 -8.345956802368164
v -305.88092041015625 4.143249988555908 -8.315773963928223
v -301.1585693359375 3.9521231651306152 -7.850541114807129
v -301.1585388183594 3.9521231651306152 -6.980365753173828
v -305.88092041015625 3.9516656398773193 -7.415441036224365
v -296.4361877441406 3.952580690383911 -8.285640716552734
v -315.3256530761719 3.9507505893707275 -8.285591125488281
v -315.3256530761719 4.333919525146484 -8.345907211303711
v -310.603271484375 4.047000408172607 -8.300682067871094
v -305.88092041015625 3.9516656398773193 -8.285615921020508
v -301.1585388183594 3.9521231651306152 -6.762822151184082
v -296.4361572265625 3.952580690383911 -6.545290470123291
v -299.9779357910156 3.952237606048584 -6.654052734375
v -315.3256530761719 3.9507505893707275 -8.285591125488281
v -310.603271484375 3.9512081146240234 -7.850516319274902
v -310.603271484375 3.9512081146240234 -8.285603523254395
v -310.603271484375 3.9512081146240234 -8.285603523254395
v -296.4361877441406 3.952580690383911 -8.285640716552734
v -301.1585693359375 3.9521231651306152 -8.285628318786621
v -315.3256530761719 3.9507505893707275 -6.545241355895996
v -305.88092041015625 4.334834575653076 -8.345932006835938
v -296.4361572265625 4.33574914932251 -6.48498010635376
v -308.2420654296875 -4.940525531768799 -5.017895221710205
v -310.603271484375 -4.940525531768799 -4.218788146972656
v -305.880859375 -4.940525531768799 -4.2188005447387695
v -304.70025634765625 -4.940525531768799 -5.417454719543457
v -310.603271484375 -4.940525531768799 -9.01339340209961
v -310.603271484375 -4.940525531768799 -10.611595153808594
v -315.3256530761719 -4.940525531768799 -10.61158275604248
v -305.880859375 -4.940525531768799 -5.817002296447754
v -310.603271484375 -4.940525531768799 -5.017889022827148
v -301.1584777832031 -4.940525531768799 -5.817014694213867
v -301.15850830078125 -4.940525531768799 -9.013418197631836
v -305.880859375 -4.940525531768799 -7.415204048156738
v -310.603271484375 -4.940525531768799 -5.816989898681641
v -305.88092041015625 -4.940525531768799 -10.611607551574707
v -301.1584777832031 -4.940525531768799 -4.218812942504883
v -296.43609619140625 -4.940525531768799 -4.218825817108154
v -315.3256530761719 -4.940525531768799 -4.218775749206543
v -311.78387451171875 -4.940525531768799 -4.618335723876953
v -296.4361572265625 -4.940525531768799 -10.611632347106934
v -301.1585388183594 -4.940525531768799 -10.61161994934082
v -298.79730224609375 -4.940525531768799 -8.214323043823242
v -312.9644775390625 -4.940525531768799 -8.214286804199219
v -296.4361877441406 -4.618449687957764 -12.032556533813477
v -301.1585693359375 -4.6184492111206055 -11.66414737701416
v -296.4361877441406 -4.6184492111206055 -10.891963005065918
v -301.15850830078125 -4.779487609863281 -4.0790910720825195
v -301.1584777832031 -4.940525531768799 -4.218812942504883
v -305.880859375 -4.940525531768799 -4.2188005447387695
v -296.4361267089844 -4.6184492111206055 -3.9393815994262695
v -305.88092041015625 -4.618449687957764 -11.866035461425781
v -305.88092041015625 -4.6184492111206055 -11.295738220214844
v -305.88092041015625 -4.779487609863281 -10.7517728805542
v -305.88092041015625 -4.6184492111206055 -10.891938209533691
v -315.3256530761719 -4.6184492111206055 -10.891913414001465
v -305.8808898925781 -4.779487609863281 -4.079078674316406
v -301.1585693359375 -4.6184492111206055 -11.093851089477539
v -301.1585693359375 -4.6184492111206055 -10.891950607299805
v -296.4361572265625 -4.940525531768799 -10.611632347106934
v -310.603271484375 -4.940525531768799 -4.218788146972656
v -315.3256530761719 -4.940525531768799 -4.218775749206543
v -310.603271484375 -4.940525531768799 -10.611595153808594
v -310.603271484375 -4.779487609863281 -10.751760482788086
v -301.1585388183594 -4.860006332397461 -10.681702613830566
v -301.1585388183594 -4.940525531768799 -10.61161994934082
v -315.3256530761719 -4.6184492111206055 -3.9393320083618164
v -305.8808898925781 -4.6184492111206055 -3.939356803894043
v -296.4361267089844 -4.618449687957764 -2.962245464324951
v -315.3256530761719 -4.618449687957764 -3.1029021739959717
v -315.3256530761719 -4.618449687957764 -11.69951343536377
v -296.43609619140625 -4.940525531768799 -4.218825817108154
v -305.88092041015625 -4.940525531768799 -10.611607551574707
v -301.1585388183594 -4.779487609863281 -10.751785278320312
v -315.3256530761719 -4.940525531768799 -10.61158275604248
v -301.1585693359375 -4.618449687957764 -11.949295997619629
vn -5.064973720436683e-7 -0.9799008965492249 -0.1994851678609848
vn -3.8893173837095674e-7 -0.8506995439529419 0.525652289390564
vn -5.032252374803647e-7 -0.9987198114395142 0.05058390647172928
vn -2.8617577640943637e-7 -0.5817609429359436 0.813359797000885
vn -3.4487362654544995e-7 -0.6518028378486633 0.7583884596824646
vn -3.7836903743482253e-7 -0.7166773080825806 0.6974049806594849
vn -2.3841458585138753e-7 -0.4484480023384094 -0.893808901309967
vn -2.3430767726040358e-7 -0.42843642830848694 -0.9035719037055969
vn -2.2432328705690452e-7 -0.4284365773200989 -0.9035719633102417
vn 0.2605006992816925 0.29890984296798706 0.9180372357368469
vn 0.24103589355945587 0.5045313239097595 0.8290656805038452
vn 0.31845858693122864 0.5225375890731812 0.790910005569458
vn 0.1617393046617508 0.48260268568992615 0.8607759475708008
vn -2.462718384776963e-7 -0.48779430985450745 -0.8729586005210876
vn -2.4240330276370514e-7 -0.4682372510433197 -0.8836027979850769
vn -2.143388542208413e-7 -0.4284365773200989 -0.9035718441009521
vn -2.5001827452797443e-7 -0.5071095824241638 -0.8618816137313843
vn -3.0368451575668587e-7 -0.5817623138427734 -0.8133589029312134
vn -1.9437003118127905e-7 -0.4284367263317108 -0.9035717844963074
vn -3.880867609495908e-7 -0.7166768312454224 -0.6974053978919983
vn -4.03935558779267e-7 -0.8506996035575867 0.5256521105766296
vn -4.6476424131469685e-7 -0.8994572758674622 -0.43700870871543884
vn -4.680522920352814e-7 -0.8994572162628174 -0.43700873851776123
vn -4.497787813306786e-7 -0.8617205619812012 -0.5073832273483276
vn -4.0338827034247515e-7 -0.7166767716407776 -0.6974055171012878
vn -3.5494332450980437e-7 -0.6518031358718872 -0.7583882808685303
vn -4.713404280209943e-7 -0.8994573354721069 -0.4370088577270508
vn -3.95737515646033e-7 -0.7166768312454224 -0.6974054574966431
vn -3.472620733191434e-7 -0.6518030762672424 -0.7583881616592407
vn -3.919121240869572e-7 -0.7166768312454224 -0.6974054574966431
vn -4.113174156827881e-7 -0.7700380086898804 -0.6379980444908142
vn -2.354790069603041e-7 -0.42843350768089294 0.9035733342170715
vn 1.1455096426971068e-7 0.42768919467926025 0.9039258360862732
vn 0.0943538174033165 0.24668554961681366 0.9644913077354431
vn -4.7097600486267766e-7 -0.998720109462738 -0.050578948110342026
vn -4.152084045472293e-7 -0.8994567394256592 0.4370098114013672
vn -4.09740096074529e-7 -0.8994566798210144 0.43700993061065674
vn 0.18443018198013306 0.054498910903930664 0.9813335537910461
vn -4.1286423879682843e-7 -0.861720085144043 0.5073839426040649
vn -2.0739398109981266e-7 -0.42843326926231384 0.9035733938217163
vn 0.09553629159927368 -0.19370116293430328 0.9763978123664856
vn -4.042718160235381e-7 -0.8994566202163696 0.4370100498199463
vn -2.2143649403005838e-7 -0.4284333884716034 0.9035733938217163
vn -3.223158842047269e-7 -0.6518027186393738 0.7583885788917542
vn -3.6713487361339503e-7 -0.716677188873291 0.6974050402641296
vn -3.5590070979196753e-7 -0.7166771292686462 0.6974050998687744
vn -3.886013359988283e-7 -0.7700380682945251 0.6379979252815247
vn -1.1534235255794556e-7 -0.21977874636650085 -0.9755496978759766
vn 2.5101311962316686e-7 0.4276886582374573 -0.9039261341094971
vn 1.3337670168311888e-7 0.21897150576114655 -0.9757313132286072
vn -2.477669625022827e-7 -0.507107138633728 0.8618829250335693
vn -2.1441523756493552e-7 -0.4284333288669586 0.9035733938217163
vn 0.31846827268600464 0.522536039352417 -0.7909071445465088
vn 9.242301146628051e-9 -0.00041370445978827775 -0.9999998807907104
vn -4.2614499307092046e-7 -0.8994568586349487 0.4370096027851105
vn -4.1882398704728985e-7 -0.8184887766838074 0.5745224952697754
vn 0.08118528872728348 0.45692208409309387 0.8857941627502441
vn -9.487497010240986e-8 -0.21977892518043518 -0.9755496978759766
vn -2.0435444980648754e-7 -0.42843663692474365 -0.9035718441009521
vn -4.0083736507767753e-7 -0.7166774272918701 0.6974048018455505
vn -4.1899261304934043e-7 -0.7700380086898804 -0.637998104095459
vn -3.995629072051088e-7 -0.7166768312454224 -0.6974054574966431
vn -4.1114151372312335e-7 -0.7700382471084595 0.6379978060722351
vn -3.8960320125625003e-7 -0.7166773676872253 0.6974048614501953
vn -4.77916501040454e-7 -0.8994572162628174 -0.4370088577270508
vn -4.3192522980461945e-7 -0.8184889554977417 -0.5745224356651306
vn 0.09553627669811249 -0.19370128214359283 0.9763977527618408
vn -2.2845775049518124e-7 -0.42843344807624817 0.9035733938217163
vn -2.61865380934978e-7 -0.5071072578430176 0.8618828654289246
vn -2.700665504562494e-7 -0.5071093440055847 -0.861881673336029
vn -4.994726054974308e-7 -0.9987198114395142 0.05058390647172928
vn -4.6830601263536664e-7 -0.9547305703163147 0.297471821308136
vn 0.1617444008588791 0.48260197043418884 -0.8607752323150635
vn 0.08118793368339539 0.4569215178489685 -0.8857941031455994
vn -4.7462845031986944e-7 -0.8994572758674622 -0.4370088577270508
vn -4.822263122150616e-7 -0.9547324776649475 -0.2974659502506256
vn -4.421092967277218e-7 -0.8507038354873657 -0.52564537525177
vn -4.5183125507719524e-7 -0.9799002408981323 0.19948823750019073
vn -4.631503713881102e-7 -0.8507034778594971 -0.525645911693573
vn -4.772168153976963e-7 -0.9987199902534485 -0.050579071044921875
vn -4.210682220673334e-7 -0.8507041335105896 -0.5256447792053223
vn -3.9643370541853074e-7 -0.8506996631622314 0.5256522297859192
vn -4.206767130199296e-7 -0.899456799030304 0.43700969219207764
vn -4.563759432585357e-7 -0.8617205023765564 -0.5073833465576172
vn -4.2383581444482843e-7 -0.8617202043533325 0.5073837041854858
vn 0.16828325390815735 0.27589699625968933 -0.9463412165641785
vn 0.1639702469110489 0.3817809820175171 -0.909591555595398
vn 0.24298018217086792 0.455459326505661 -0.8564562797546387
vn 0.24104337394237518 0.5045303106307983 -0.8290640711784363
vn 0.08258369565010071 0.30256903171539307 -0.9495429396629333
vn -0.000002215886979684001 0.022923225536942482 -0.9997372627258301
vn -0.0000018466234905645251 0.019103216007351875 -0.9998175501823425
vn -0.0000029543145956267836 0.03056221827864647 -0.9995328783988953
vn 8.442562915433882e-8 0.042399998754262924 0.9991008043289185
vn 7.575693672379202e-8 0.04239993914961815 0.9991006851196289
vn 2.8892046088913048e-8 0.021200235933065414 0.9997751712799072
vn 1.1730349314120758e-7 0.17929941415786743 0.9837945103645325
vn 6.70882656095273e-8 0.04239989072084427 0.9991007447242737
vn 0.31846827268600464 0.522536039352417 -0.7909071445465088
vn 2.2702884905356768e-7 0.5595657229423523 -0.8287859559059143
vn 2.287988252192008e-7 0.5595657825469971 -0.8287860155105591
vn 1.597181267243286e-7 0.4403597414493561 -0.897821307182312
vn 2.3056878717397922e-7 0.5595657825469971 -0.8287860751152039
vn -4.3991882137106586e-8 -0.000009159031833405606 1
vn -4.3991882137106586e-8 -0.000009159031833405606 1
vn -4.3991882137106586e-8 -0.000009159031833405606 1
vn -4.3991882137106586e-8 -0.000009159031833405606 1
vn -4.4213223304723215e-8 -0.000006869273875054205 1
vn -4.3991882137106586e-8 -0.000009159031833405606 1
vn -5.6099821676980355e-8 3.375182089371265e-8 1
vn -6.732239654638761e-8 6.75036417874253e-8 1
vn -4.465590563995647e-8 -0.0000022897579583514016 1
vn -4.48772468075731e-8 0 1
vn 1.6529281765542692e-7 0.31279662251472473 0.9498201012611389
vn 2.7089578225059086e-7 0.5595645904541016 0.8287867307662964
vn 1.9264214756731235e-7 0.44035816192626953 0.8978222012519836
vn 2.163359624773875e-7 0.5595635771751404 0.8287874460220337
vn 1.0176297848829563e-7 0.042400095611810684 0.9991006851196289
vn 2.477246141552314e-7 0.44035929441452026 0.8978216648101807
vn 1.3480692473422096e-7 0.17929953336715698 0.9837945699691772
vn 8.937659856655955e-8 0.31279754638671875 -0.949819803237915
vn 1.7339074176447866e-8 0.1792997419834137 -0.9837945699691772
vn -1.8889057429305467e-8 0.11111349612474442 -0.9938076734542847
vn -5.502747768559857e-8 0.04239952191710472 -0.9991007447242737
vn 1.7339074176447866e-8 0.1792997419834137 -0.9837945699691772
vn 1.632919435223812e-7 0.4403597414493561 -0.897821307182312
vn 2.341086826618266e-7 0.5595657229423523 -0.8287859559059143
vn -7.386865377156937e-7 0.007641670294106007 -0.9999708533287048
vn -3.246184121508122e-7 0.0033581596799194813 -0.9999944567680359
vn 0 0 -1
vn -6.492331294793985e-7 0.006716280709952116 -0.9999774694442749
vn 1.7891125025926158e-7 -0.0018508266657590866 -0.9999982714653015
vn 1.1455096426971068e-7 0.42768919467926025 0.9039258360862732
vn 1.932807549565041e-7 0.49505454301834106 0.8688618540763855
vn 1.6087157916899741e-7 0.4617049992084503 0.8870334625244141
vn -3.6934756053597084e-7 0.003820879617705941 -0.9999927282333374
vn -0.0000014773298744330532 0.015282894484698772 -0.9998832941055298
vn 3.2545557360208477e-7 0.5595656037330627 0.8287860751152039
vn 2.9817570634804724e-7 0.5595651268959045 0.8287864923477173
vn 3.4650069480335333e-9 0.03134133666753769 -0.999508798122406
vn -0.0000014461978707913659 0.025421103462576866 -0.9996768236160278
vn -5.502747768559857e-8 0.04239952191710472 -0.9991007447242737
vn 6.195706703238102e-8 0.02027931436896324 -0.9997943639755249
vn 1.2044152697399113e-7 0.009214808233082294 -0.9999575614929199
vn 3.4650069480335333e-9 0.03134133666753769 -0.999508798122406
vn 1.7891125025926158e-7 -0.0018508266657590866 -0.9999982714653015
vn -6.337023137348297e-7 0.011786235496401787 -0.9999306201934814
vn -7.550342573381386e-9 0.010596134699881077 0.9999438524246216
vn 6.533119289997558e-8 0.03180195763707161 0.9994942545890808
vn -4.3991882137106586e-8 -0.000009159031833405606 1
vn 4.799286301704342e-8 0.03180185332894325 0.9994942545890808
vn -7.550342573381386e-9 0.010596134699881077 0.9999438524246216
vn 2.2063954929762986e-7 0.49505504965782166 0.8688615560531616
vn 0.1617393046617508 0.48260268568992615 0.8607759475708008
vn 0.08118528872728348 0.45692208409309387 0.8857941627502441
vn -4.3991882137106586e-8 -0.000009159031833405606 1
vn -4.3991882137106586e-8 -0.000009159031833405606 1
vn -4.3991882137106586e-8 -0.000009159031833405606 1
vn -4.41025527209149e-8 -0.00000801415262685623 1
vn 9.309430026860355e-8 0.042400047183036804 0.9991007447242737
vn -4.4434564472339844e-8 -0.000004579515916702803 1
vn -5.5712472857294415e-8 -0.000003973324510297971 1
vn -6.699038124224899e-8 -0.000003367133331266814 1
vn -6.710105537877098e-8 -0.000002222254352091113 1
vn -4.4213223304723215e-8 -0.000006869273875054205 1
vn -4.3991882137106586e-8 -0.000009159031833405606 1
vn -4.432389388853153e-8 -0.0000057243951232521795 1
vn -4.437922740407885e-8 -0.000005151955519977491 1
vn -4.415788623646222e-8 -0.000007441713023581542 1
vn -7.854497141579486e-8 1.0125546623385162e-7 1
vn -8.976754628520212e-8 1.350072835748506e-7 1
vn -0.000001432607291462773 0.014820241369307041 -0.9998902678489685
vn -3.262639290679825e-12 3.375181734099897e-8 -1
vn -4.893958936019738e-12 5.062772601149845e-8 -1
vn -7.386897777905688e-7 0.007641703821718693 -0.9999708533287048
vn -6.52527858135965e-12 6.750363468199794e-8 -1
vn -5.540197776099376e-7 0.005731302313506603 -0.9999836683273315
vn -0.0000013878840263714665 0.014357581734657288 -0.9998968839645386
vn -6.045062832527037e-7 0.0062535833567380905 -0.9999804496765137
vn -6.045062832527037e-7 0.0062535833567380905 -0.9999804496765137
vn -0.0000013878840263714665 0.014357581734657288 -0.9998968839645386
vn 2.323387349179029e-7 0.5595657825469971 -0.8287860155105591
vn 0.161350280046463 0.5482407808303833 -0.820608377456665
vn -5.502747768559857e-8 0.04239952191710472 -0.9991007447242737
vn -5.502747768559857e-8 0.04239952191710472 -0.9991007447242737
vn -7.754520914282637e-10 0.14529289305210114 -0.9893885850906372
vn 2.436158865748439e-7 0.5595641136169434 0.828787088394165
vn -1.846741355393533e-7 0.0019104434177279472 -0.9999982714653015
vn 0.31845858693122864 0.5225375890731812 0.790910005569458
vn 0.24103589355945587 0.5045313239097595 0.8290656805038452
vn 2.5101311962316686e-7 0.4276886582374573 -0.9039261341094971
vn 0.08118793368339539 0.4569215178489685 -0.8857941031455994
vn -5.502747768559857e-8 0.04239952191710472 -0.9991007447242737
vn -3.6980228657057523e-8 0.07680211216211319 -0.9970462918281555
vn -4.404721920536758e-8 -0.000008586592230130918 1
vn 0.16135026514530182 0.5482407212257385 -0.820608377456665
vn -0.000002171170763176633 0.022460639476776123 -0.9997477531433105
vn -0.0000029543145956267836 0.03056221827864647 -0.9995328783988953
vn -0.000002171170763176633 0.022460639476776123 -0.9997477531433105
vn -0.0000018019020444626221 0.01864057593047619 -0.9998263120651245
vn 3.4650069480335333e-9 0.03134133666753769 -0.999508798122406
vn -0.0000010399743359812419 0.018604101613163948 -0.999826967716217
vn 0.1617444008588791 0.48260197043418884 -0.8607752323150635
vn 0.24104337394237518 0.5045303106307983 -0.8290640711784363
vn 2.732446091613383e-7 0.5276908874511719 0.8494364023208618
vn 1.6771623734257446e-7 0.46170514822006226 0.8870334625244141
vn 2.069601663379217e-7 0.49505481123924255 0.868861734867096
vn -2.274008181757381e-7 0.004967819899320602 -0.9999877214431763
vn -0.000002193528871430317 0.022691933438181877 -0.9997425675392151
vn -0.0000012255892443135963 0.012678653933107853 -0.9999196529388428
vn -1.6313196453399126e-12 1.6875908670499484e-8 -1
vn -0.0000023781506115483353 0.024601833894848824 -0.9996973276138306
vn 0.08120910078287125 0.5232537984848022 -0.8482984900474548
vn 0.08120656758546829 0.5232539772987366 0.8482987880706787
vn 0.0809410810470581 0.5557283163070679 -0.8274144530296326
vn 0.24069973826408386 0.5371524095535278 -0.8084126114845276
vn 2.527501976601343e-7 0.5276905298233032 0.8494367599487305
vn -2.5781631052268494e-8 0.03687099367380142 -0.9993201494216919
vn -2.5781631052268494e-8 0.03687099367380142 -0.9993201494216919
vn -2.5781631052268494e-8 0.03687099367380142 -0.9993201494216919
vn -4.406444702453882e-7 -0.9381074905395508 0.34634435176849365
vn -3.748625658772653e-7 -0.7600940465927124 0.6498131155967712
vn -3.6336734865471954e-7 -0.7600937485694885 0.6498134136199951
vn -4.003239268968173e-7 -0.8077861666679382 0.5894755721092224
vn -3.8635778309981106e-7 -0.7600942850112915 0.6498128175735474
vn -3.978530571657757e-7 -0.7600946426391602 0.6498125195503235
vn -4.317288073707459e-7 -0.8625519871711731 0.505968451499939
vn -3.978530571657757e-7 -0.7600946426391602 0.6498125195503235
vn -3.8635778309981106e-7 -0.7600942850112915 0.6498128175735474
vn -3.8893173837095674e-7 -0.8506995439529419 0.525652289390564
vn -3.748625658772653e-7 -0.7600940465927124 0.6498131155967712
vn -3.8879463204466447e-7 -0.8077859282493591 0.5894759297370911
vn -4.0934818912319315e-7 -0.7600948214530945 0.6498121619224548
vn -3.9643370541853074e-7 -0.8506996631622314 0.5256522297859192
vn -4.5289797867553716e-7 -0.9381076097488403 0.3463439345359802
vn -4.378971425467171e-7 -0.903860330581665 0.4278275668621063
vn -4.18099858734422e-7 -0.8077901601791382 -0.5894701480865479
vn -3.558159846761555e-7 -0.7600988149642944 -0.6498075723648071
vn -3.7057628787806607e-7 -0.7600986957550049 -0.6498076319694519
vn -4.631503713881102e-7 -0.8507034778594971 -0.525645911693573
vn -4.3290398821227427e-7 -0.8077901005744934 -0.5894702672958374
vn -4.2875262806774117e-7 -0.9381101727485657 -0.3463369309902191
vn -4.651514871056861e-7 -0.9381076693534851 0.3463435173034668
vn -4.6337754611158744e-7 -1 0.000003920861672668252
vn -3.4105570989595435e-7 -0.7600988745689392 -0.6498074531555176
vn -4.000968942818872e-7 -0.7600985169410706 -0.6498078107833862
vn -4.210682220673334e-7 -0.8507041335105896 -0.5256447792053223
vn -4.1680874574012705e-7 -0.78452467918396 -0.6200977563858032
vn -3.7057628787806607e-7 -0.7600986957550049 -0.6498076319694519
vn -4.3795265014523466e-7 -0.8625521063804626 0.5059682726860046
vn -4.0934818912319315e-7 -0.7600948214530945 0.6498121619224548
vn -4.221876395149593e-7 -0.8145050406455994 0.5801565051078796
vn -4.000968942818872e-7 -0.7600985169410706 -0.6498078107833862
vn -4.6022091737540904e-7 -0.9381101131439209 -0.3463371992111206
vn -3.853366479233955e-7 -0.7600986957550049 -0.6498077511787415
vn -3.853366479233955e-7 -0.7600986957550049 -0.6498077511787415
vn -3.4105570989595435e-7 -0.7600988745689392 -0.6498074531555176
vn -3.558159846761555e-7 -0.7600988149642944 -0.6498075723648071
vn -3.6336734865471954e-7 -0.7600937485694885 0.6498134136199951
vn -4.421092967277218e-7 -0.8507038354873657 -0.52564537525177
vn -4.03935558779267e-7 -0.8506996035575867 0.5256521105766296
vn -2.0033492376114737e-7 0.9488713145256042 -0.3156633675098419
vn -1.3103479545861774e-7 0.9097657799720764 -0.41512197256088257
vn -2.5195080866069475e-7 0.9097658395767212 -0.4151219129562378
vn -2.947199675418233e-7 0.9643831253051758 -0.2645092308521271
vn -1.2977439212136233e-7 0.9773059487342834 0.2118329554796219
vn 1.2949166716680338e-7 0.9100911021232605 0.41440826654434204
vn 1.1418938683505075e-8 0.9100911617279053 0.4144080877304077
vn -2.645286087954446e-7 0.9771394729614258 -0.21259945631027222
vn -1.3811239796268637e-7 0.9488711953163147 -0.3156633973121643
vn -3.882629471263499e-7 0.9771394729614258 -0.21259936690330505
vn 1.1187520243538529e-7 0.9773058891296387 0.21183332800865173
vn -2.650559167705069e-7 0.9999999403953552 -0.00039214419666677713
vn -1.4079425625368458e-7 0.977139413356781 -0.21259953081607819
vn 2.475644009791722e-7 0.9100910425186157 0.41440844535827637
vn -3.728668502844812e-7 0.9097658395767212 -0.41512182354927063
vn -4.937828634865582e-7 0.909765899181366 -0.41512173414230347
vn -1.011877159839969e-8 0.9097657203674316 -0.41512206196784973
vn -1.0537738859284218e-7 0.9306480884552002 -0.365915447473526
vn 4.837098686039099e-7 0.9100908637046814 0.41440877318382263
vn 3.6563713479154103e-7 0.9100909233093262 0.4144086241722107
vn 5.028842764431829e-8 0.9943311810493469 0.10632797330617905
vn -6.816438968826333e-8 0.9943311810493469 0.10632751137018204
vn -6.462184121147629e-9 1 -3.7160933175073296e-7
vn 1.1487747286764716e-7 0.9942999482154846 0.10661984980106354
vn 4.837095843868155e-7 0.910090982913971 0.41440853476524353
vn -3.7286673659764347e-7 0.909765899181366 -0.41512173414230347
vn -3.728668502844812e-7 0.9097658395767212 -0.41512182354927063
vn -2.5195080866069475e-7 0.9097658395767212 -0.4151219129562378
vn -4.937826361128828e-7 0.9097659587860107 -0.41512155532836914
vn -1.5519217910764382e-8 1 -4.4822115796705475e-7
vn 2.349074748053681e-7 0.9772643446922302 0.21202455461025238
vn 2.408133639164589e-7 0.9100910425186157 0.4144083261489868
vn 2.4081322180791176e-7 0.9100911617279053 0.41440820693969727
vn -2.083144989839525e-9 0.9100912809371948 0.4144078493118286
vn -2.51950694973857e-7 0.9097658395767212 -0.41512179374694824
vn 3.613684214087698e-7 0.9490876793861389 0.3150121867656708
vn 3.6226140309736365e-7 0.9100910425186157 0.4144083857536316
vn 4.837098686039099e-7 0.9100908637046814 0.41440877318382263
vn -1.3103479545861774e-7 0.9097657799720764 -0.41512197256088257
vn -1.011877159839969e-8 0.9097657203674316 -0.41512206196784973
vn 1.2949166716680338e-7 0.9100911021232605 0.41440826654434204
vn 1.227406301040901e-7 0.9100911617279053 0.4144081473350525
vn 3.6226168731445796e-7 0.9100910425186157 0.4144086241722107
vn 3.6563713479154103e-7 0.9100909233093262 0.4144086241722107
vn -1.0219993740179234e-8 0.9097658395767212 -0.41512182354927063
vn -2.520013140383526e-7 0.909765899181366 -0.4151216745376587
vn 5.062506945770207e-13 1 4.3377306724323716e-7
vn -1.841736069208011e-10 1 5.06743333517079e-7
vn -2.4576252144470345e-8 1 -5.24833012605086e-7
vn -4.937828634865582e-7 0.909765899181366 -0.41512173414230347
vn 2.475644009791722e-7 0.9100910425186157 0.41440844535827637
vn 3.622615452059108e-7 0.9100910425186157 0.41440850496292114
vn 1.1418938683505075e-8 0.9100911617279053 0.4144080877304077
vn -1.0990700793911401e-8 1 -4.0991523064803914e-7
vt 2.051914930343628 0.9578061103820801
vt 2.559507369995117 0.999499499797821
vt 1.5443224906921387 0.9717034101486206
vt 1.5443230867385864 0.5569132566452026
vt 1.036730408668518 0.6397330462932587
vt 1.5443226099014282 0.7225535809993744
vt 0.9098317623138428 0.41197729110717773
vt 0.529137372970581 0.39127200841903687
vt 1.0367298126220703 0.3912723660469055
vt 1.0367300510406494 0.09819340705871582
vt 1.0367298126220703 0.0005003213882446289
vt 0.529137372970581 0.000500023365020752
vt 1.5443223714828491 0.0005006790161132812
vt 1.6712205410003662 0.45338791608810425
vt 1.2905261516571045 0.4326826333999634
vt 1.5443222522735596 0.39127272367477417
vt 2.051914930343628 0.4740931987762451
vt 1.5443226099014282 0.5569129586219788
vt 2.559507131576538 0.3912734389305115
vt 2.5595076084136963 0.7225540280342102
vt 0.5291376113891602 0.9994980096817017
vt 0.5291376113891602 0.9439073801040649
vt 1.0367300510406494 0.9439077377319336
vt 1.0367300510406494 0.8885690420866013
vt 0.5291379690170288 0.722552478313446
vt 1.0367302894592285 0.6397327184677124
vt 1.5443224906921387 0.9439080953598022
vt 1.5443227291107178 0.7225532531738281
vt 2.051915168762207 0.6397334933280945
vt 2.051915168762207 0.7225536406040192
vt 2.051915168762207 0.7778923660516739
vt 2.5595078468322754 0.3912736177444458
vt 2.559507369995117 0.0005013942718505859
vt 2.051914930343628 0.09819412231445312
vt 1.5443223714828491 0.9717036485671997
vt 1.54432213306427 0.9439083337783813
vt 1.0367296934127808 0.9439079761505127
vt 1.5443226099014282 0.19588685035705566
vt 1.0367298126220703 0.8885692805051804
vt 0.5291385650634766 0.3912721872329712
vt 1.0367305278778076 0.2935795187950134
vt 0.5291372537612915 0.943907618522644
vt 1.544323205947876 0.3912729024887085
vt 2.051915407180786 0.6397337913513184
vt 2.051915168762207 0.7225539684295654
vt 2.5595076084136963 0.7225543260574341
vt 2.051914930343628 0.7778926342725754
vt 1.0367298126220703 0.2935792803764343
vt 2.559507131576538 0.000501096248626709
vt 2.051914691925049 0.09819382429122925
vt 1.0367307662963867 0.4740927219390869
vt 1.0367308855056763 0.39127254486083984
vt 0.5291370153427124 0.0004994869232177734
vt 1.5443222522735596 0.1958865523338318
vt 2.559507131576538 0.9439090490341187
vt 1.5443223714828491 0.8332309424877167
vt 2.051914930343628 0.0005010366439819336
vt 2.051914691925049 0.29357999563217163
vt 2.051914691925049 0.3912730813026428
vt 0.5291377305984497 0.7225528359413147
vt 1.0367302894592285 0.7778915911912918
vt 1.0367302894592285 0.7225528657436371
vt 1.0367300510406494 0.7778918892145157
vt 1.036730170249939 0.7225531935691833
vt 2.559507369995117 0.9439088106155396
vt 1.5443226099014282 0.8332307040691376
vt 2.051915168762207 0.29358023405075073
vt 2.0519156455993652 0.39127326011657715
vt 2.051915407180786 0.4740934371948242
vt 1.0367300510406494 0.4740924835205078
vt 1.0367300510406494 0.971703052520752
vt 1.0367300510406494 0.9856007099151611
vt 1.54432213306427 0.0005003213882446289
vt 2.051914691925049 0.0005006790161132812
vt 2.051914930343628 0.9439084529876709
vt 1.0367300510406494 0.985601007938385
vt 1.5443224906921387 0.9994990229606628
vt 1.0367298126220703 0.9578056335449219
vt 0.5291376113891602 0.9994983673095703
vt 2.051914691925049 0.9717040061950684
vt 2.559507369995117 0.9994996786117554
vt 1.5443224906921387 0.9994987547397614
vt 2.051914691925049 0.94390869140625
vt 2.051914930343628 0.8885697573423386
vt 2.051914691925049 0.8885699957609177
vt 1.0367295742034912 0.09819304943084717
vt 1.2905259132385254 0.0493466854095459
vt 0.9098314642906189 0.024923086166381836
vt 1.0367295742034912 0.0004999041557312012
vt 1.671220302581787 0.07377028465270996
vt 0.7497501373291016 0.7496045231819153
vt 0.8746252655982971 0.6247294545173645
vt 0.9995003938674927 0.9992091655731201
vt 0.5666272044181824 -0.02260446548461914
vt 0.8163772821426392 -0.02260422706604004
vt 0.5666273236274719 -0.07366585731506348
vt 0.8163772821426392 0.04043072462081909
vt 1.0661274194717407 -0.02260410785675049
vt 0.06712662428617477 0.3400000333786011
vt 0.06712698191404343 0.22953391075134277
vt 0.3168770372867584 0.22953426837921143
vt 0.3168770968914032 0.16649925708770752
vt 0.5666270852088928 0.22953462600708008
vt 0.5666273236274719 -0.12453722953796387
vt 0.31687718629837036 -0.12444233894348145
vt 0.25024983286857605 0.9994277656078339
vt 0.5000000596046448 0.9993550181388855
vt 0.25024983286857605 0.7497503459453583
vt 0.0004996061325073242 0.9995005130767822
vt 0.7497502565383911 0.0005725622177124023
vt 0.5 0.0006453394889831543
vt 0.7497502565383911 0.250249981880188
vt 0.9995005130767822 0.0004998445510864258
vt 0.5666272044181824 0.10346555709838867
vt 0.5666272044181824 0.22953522205352783
vt 0.8163772821426392 0.16650068759918213
vt 1.0661274194717407 0.22953587770462036
vt 0.06712698191404343 -0.022604703903198242
vt 0.3168770968914032 0.16650009155273438
vt 0.3168770968914032 0.040430426597595215
vt 0.5666272044181824 0.10346466302871704
vt 0.3168770968914032 0.04042983055114746
vt 0.4417521357536316 0.008912503719329834
vt 0.06712698191404343 -0.022605061531066895
vt 0.8163772821426392 0.04043006896972656
vt 0.8163771629333496 0.16649997234344482
vt 1.0661271810531616 0.22953534126281738
vt 0.2502496838569641 0.25039517879486084
vt 0.12537460029125214 0.3752702474594116
vt 0.0004994571208953857 0.0007905364036560059
vt 0.2502497434616089 0.749750018119812
vt 0.0004995465278625488 0.9995001554489136
vt 1.0661273002624512 0.3400000333786011
vt 0.8163772821426392 0.28476762771606445
vt 0.8788147568702698 0.312383770942688
vt 0.3751247823238373 0.12552011013031006
vt 0.4999999403953552 0.49999988079071045
vt 0.06712701171636581 0.2295345664024353
vt 0.3168770968914032 0.22953486442565918
vt 0.8163772821426392 -0.04804039001464844
vt 0.8163773417472839 -0.09910178184509277
vt 1.0661274194717407 -0.02260458469390869
vt 0.5666271448135376 -0.07347631454467773
vt 0.3168770372867584 -0.09891211986541748
vt 0.3168770670890808 -0.04804062843322754
vt 0.06712695211172104 -0.12434792518615723
vt 0.441752165555954 -0.111724853515625
vt 0.31687718629837036 -0.09900665283203125
vt 0.316877156496048 -0.04813528060913086
vt 0.06712701171636581 -0.12434744834899902
vt 0.8163774013519287 -0.04813504219055176
vt 0.8163775205612183 -0.0991964340209961
vt 0.5666271448135376 0.2847672700881958
vt 0.566627025604248 0.3400000333786011
vt 0.8163771629333496 0.3400000333786011
vt 1.0661276578903198 -0.12472689151763916
vt 0.8163775205612183 -0.12463212013244629
vt 0.7497502565383911 0.9992822706699371
vt 0.6248751878738403 0.8744799345731735
vt 0.3168770968914032 -0.02260458469390869
vt 0.5000000596046448 0.5000001788139343
vt 0.31268736720085144 0.4376354217529297
vt 0.1253746598958969 0.3752706050872803
vt 0.2502497732639313 0.2503955364227295
vt 0.7497502565383911 0.7496048510074615
vt 0.9995005130767822 0.9992095232009888
vt 0.8746253848075867 0.6247297525405884
vt 0.6873127222061157 0.5623649656772614
vt 0.4375625252723694 0.8121151328086853
vt 0.2502497434616089 0.0007181167602539062
vt 0.0004994869232177734 0.0007908344268798828
vt 0.4999999403953552 0.7496772706508636
vt 0.49999991059303284 0.0006450414657592773
vt 0.7497501373291016 0.0005723237991333008
vt 0.7497501373291016 0.2502497434616089
vt 0.9995003938674927 0.0004995465278625488
vt 0.5624374747276306 0.18788492679595947
vt 0.4999999701976776 0.9993546605110168
vt 0.2502497434616089 0.9994274079799652
vt 0.3168770968914032 -0.12444281578063965
vt 0.5666272640228271 -0.12453770637512207
vt 0.8163771629333496 0.22953498363494873
vt 0.5666269063949585 0.28476768732070923
vt 0.5666272044181824 -0.022604823112487793
vt 0.8163772821426392 -0.022604703903198242
vt 0.629064679145813 0.024671316146850586
vt 0.8163772821426392 0.22953557968139648
vt 0.18781211972236633 0.06315529346466064
vt 0.06712677329778671 0.3400000333786011
vt 0.3168768882751465 0.3400000333786011
vt 1.0661271810531616 0.3400000333786011
vt 0.8163770437240601 0.3400000333786011
vt 0.3168770968914032 -0.022604942321777344
vt 0.2544395625591278 -0.006846308708190918
vt 0.8121878504753113 0.9368447288870811
vt 0.3168768584728241 0.2847673296928406
vt 0.8163774013519287 -0.12463259696960449
vt 1.0661275386810303 -0.12472736835479736
vt 0.7497501969337463 0.9992819130420685
vt 0.6248750686645508 0.8744795918464661
vt 0.5666271448135376 -0.04804050922393799
vt 0.6290647387504578 -0.10541331768035889
vt 0.5666269063949585 0.3400000333786011
vt 0.31687676906585693 0.3400000333786011
vt 0.3168770670890808 0.25715088844299316
vt 0.8163772225379944 0.31238365173339844
vt 0.6915022134780884 0.2847674489021301
vt 0.2544395625591278 -0.11803638935089111
vt 0.7497501373291016 0.8744432181119919
vt 0.43756240606307983 0.812114804983139
vt 0.2502496838569641 0.0007177591323852539
vt 0.8121877312660217 0.9368443787097931
vt 0.8163770437240601 0.28476768732070923
vt 0.31687700748443604 0.2847672700881958
vt 0.8163770437240601 0.2571514844894409
vt 0.31687676906585693 0.31238389015197754
vt 0.504189670085907 0.25715112686157227
vt 0.6915022134780884 -0.03532266616821289
vt 0.5666271448135376 -0.03532266616821289
vt 0.8163772821426392 -0.03532254695892334
vt 0.049702320247888565 1.5005946159362793
vt 0.10620288550853729 1.5005946159362793
vt 0.10620301216840744 1.8703973293304443
vt -0.08264751732349396 1.1333690881729126
vt -0.09461527317762375 1.133368968963623
vt -0.09462021291255951 0.7635663151741028
vt 0.07795242220163345 0.9458906054496765
vt 0.10620264708995819 0.7609892785549164
vt 0.10620276629924774 1.130791962146759
vt -0.07066988945007324 1.8729745149612427
vt -0.09461033344268799 1.5031716227531433
vt -0.0826425850391388 1.5031717419624329
vt -0.09462515264749527 0.3937636613845825
vt -0.07067900896072388 1.1333692073822021
vt 0.049702197313308716 1.1307919323444366
vt 0.06382737308740616 1.223242610692978
vt -0.08265157043933868 0.7635663151741028
vt -0.09462128579616547 0.7635663151741028
vt -0.0946173295378685 1.133368968963623
vt -0.07068580389022827 0.3937636613845825
vt -0.08264760673046112 1.133368968963623
vt -0.06329905986785889 0.7609892785549164
vt 0.049702078104019165 0.7609892785549164
vt -0.00679837167263031 1.130791962146759
vt -0.11979975551366806 0.39118659496307373
vt -0.09460941702127457 1.8729742765426636
vt -0.07066839933395386 1.8729742765426636
vt -0.08862851560115814 1.5031716227531433
vt -0.11979951709508896 1.130791962146759
vt 0.07795236259698868 0.760989248752594
vt 0.10620252788066864 0.39118659496307373
vt 0.09207747876644135 0.6685386002063751
vt -0.11979927867650986 1.8703973293304443
vt -0.06329882144927979 1.5005946159362793
vt -0.09461337327957153 1.5031716227531433
vt -0.11979939788579941 1.5005946159362793
vt -0.09462524205446243 0.3937636613845825
vt -0.11979963630437851 0.7609892785549164
vt -0.09460539370775223 1.8729742765426636
vt -0.07067710161209106 1.133368968963623
vt -0.07068812847137451 0.3937638998031616
vt 41.64289093017578 43.62615203857422
vt 41.566246032714844 43.93070983886719
vt 41.566246032714844 43.321598052978516
vt 41.68121337890625 43.16931915283203
vt 42.026123046875 43.93070983886719
vt 42.17941665649414 43.93070983886719
vt 42.17941665649414 44.539817810058594
vt 41.719539642333984 43.321598052978516
vt 41.64289093017578 43.93070983886719
vt 41.719539642333984 42.712486267089844
vt 42.026123046875 42.712486267089844
vt 41.872833251953125 43.321598052978516
vt 41.719539642333984 43.93070983886719
vt 42.17941665649414 43.321598052978516
vt 41.566246032714844 42.712486267089844
vt 41.566246032714844 42.10337829589844
vt 41.566246032714844 44.539817810058594
vt 41.60456848144531 44.082984924316406
vt 42.17941665649414 42.10337829589844
vt 42.17941665649414 42.712486267089844
vt 41.94947814941406 42.40793228149414
vt 41.94947814941406 44.23526382446289
vt 0.7215076088905334 5
vt 0.7551161050796509 3.75
vt 0.8500000238418579 5
vt 0.925000011920929 1.25
vt 1 1.25
vt 1 2.5
vt 0.8500000238418579 0
vt 0.7244784832000732 2.5
vt 0.7887246608734131 2.5
vt 0.925000011920929 2.5
vt 0.8500000238418579 2.5
vt 0.8500000238418579 0
vt 0.925000011920929 2.5
vt 0.8193623423576355 3.75
vt 0.8500000238418579 3.75
vt 1 5
vt 1 3.75
vt 1 5
vt 1 1.25
vt 0.925000011920929 1.25
vt 0.9624999761581421 3.75
vt 1 3.75
vt 0.8500000238418579 5
vt 0.8500000238418579 2.5
vt 0.7399513125419617 0
vt 0.7591946721076965 5
vt 0.727449357509613 0
vt 1 0
vt 1 2.5
vt 0.925000011920929 3.75
vt 1 0
vt 0.722993016242981 3.75
g HB020
s 1
f 1/1/1 2/2/2 3/3/3
f 4/4/4 5/5/5 6/6/6
f 7/7/7 8/8/8 9/9/9
f 10/10/10 11/11/11 12/12/12
f 10/10/10 13/13/13 11/11/11
f 14/14/14 15/15/15 16/16/16
f 17/17/17 14/14/14 16/16/16
f 18/18/18 14/14/14 17/17/17
f 19/19/19 20/20/20 17/17/17
f 18/18/18 15/15/15 14/14/14
f 21/21/21 22/22/22 23/23/23
f 24/24/24 23/23/23 22/22/22
f 25/25/25 8/8/8 26/26/26
f 24/24/24 27/27/27 23/23/23
f 18/18/18 28/28/28 26/26/26
f 29/29/29 30/30/30 28/28/28
f 29/29/29 20/20/20 30/30/30
f 31/31/31 30/30/30 20/20/20
f 31/31/31 28/28/28 30/30/30
f 32/32/32 33/33/33 34/34/34
f 35/35/35 36/36/36 37/37/37
f 38/38/38 34/34/34 13/13/13
f 39/39/39 37/37/37 36/36/36
f 12/12/12 40/40/40 41/41/41
f 39/39/39 42/42/42 37/37/37
f 38/38/38 41/41/41 43/43/43
f 44/44/44 45/45/45 46/46/46
f 44/44/44 6/6/6 45/45/45
f 47/47/47 45/45/45 6/6/6
f 47/47/47 46/46/46 45/45/45
f 15/15/15 9/9/9 16/16/16
f 48/48/48 9/9/9 8/8/8
f 49/49/49 19/19/19 50/50/50
f 48/48/48 16/16/16 9/9/9
f 51/51/51 52/52/52 40/40/40
f 51/51/51 43/43/43 52/52/52
f 8/8/8 53/53/53 48/48/48
f 41/41/41 52/52/52 43/43/43
f 54/54/54 16/16/16 48/48/48
f 55/55/55 46/46/46 47/47/47
f 41/41/41 40/40/40 52/52/52
f 56/56/56 47/47/47 6/6/6
f 15/15/15 7/7/7 9/9/9
f 34/34/34 57/57/57 13/13/13
f 34/34/34 33/33/33 57/57/57
f 58/58/58 59/59/59 16/16/16
f 58/58/58 19/19/19 59/59/59
f 60/60/60 42/42/42 39/39/39
f 17/17/17 59/59/59 19/19/19
f 56/56/56 39/39/39 36/36/36
f 17/17/17 16/16/16 59/59/59
f 61/61/61 62/62/62 28/28/28
f 61/61/61 25/25/25 62/62/62
f 26/26/26 62/62/62 25/25/25
f 26/26/26 28/28/28 62/62/62
f 63/63/63 64/64/64 60/60/60
f 20/20/20 65/65/65 31/31/31
f 63/63/63 6/6/6 64/64/64
f 66/66/66 28/28/28 31/31/31
f 5/5/5 64/64/64 6/6/6
f 22/22/22 25/25/25 24/24/24
f 5/5/5 60/60/60 64/64/64
f 66/66/66 27/27/27 24/24/24
f 67/67/67 68/68/68 32/32/32
f 67/67/67 43/43/43 68/68/68
f 69/69/69 68/68/68 43/43/43
f 69/69/69 32/32/32 68/68/68
f 70/70/70 7/7/7 15/15/15
f 70/70/70 8/8/8 7/7/7
f 21/21/21 71/71/71 72/72/72
f 72/72/72 71/71/71 3/3/3
f 65/65/65 2/2/2 1/1/1
f 50/50/50 73/73/73 74/74/74
f 3/3/3 75/75/75 1/1/1
f 40/40/40 60/60/60 5/5/5
f 50/50/50 74/74/74 49/49/49
f 35/35/35 76/76/76 77/77/77
f 78/78/78 76/76/76 35/35/35
f 78/78/78 79/79/79 76/76/76
f 80/80/80 36/36/36 35/35/35
f 81/81/81 80/80/80 35/35/35
f 35/35/35 77/77/77 81/81/81
f 3/3/3 2/2/2 82/82/82
f 81/81/81 83/83/83 80/80/80
f 80/80/80 83/83/83 36/36/36
f 3/3/3 82/82/82 72/72/72
f 42/42/42 79/79/79 78/78/78
f 35/35/35 37/37/37 78/78/78
f 66/66/66 61/61/61 28/28/28
f 24/24/24 61/61/61 66/66/66
f 24/24/24 25/25/25 61/61/61
f 66/66/66 84/84/84 27/27/27
f 31/31/31 84/84/84 66/66/66
f 31/31/31 65/65/65 84/84/84
f 56/56/56 6/6/6 63/63/63
f 60/60/60 39/39/39 63/63/63
f 63/63/63 39/39/39 56/56/56
f 56/56/56 36/36/36 85/85/85
f 55/55/55 47/47/47 85/85/85
f 85/85/85 47/47/47 56/56/56
f 54/54/54 86/86/86 87/87/87
f 48/48/48 86/86/86 54/54/54
f 48/48/48 53/53/53 86/86/86
f 54/54/54 58/58/58 16/16/16
f 50/50/50 58/58/58 54/54/54
f 50/50/50 19/19/19 58/58/58
f 38/38/38 13/13/13 10/10/10
f 12/12/12 41/41/41 10/10/10
f 10/10/10 41/41/41 38/38/38
f 38/38/38 43/43/43 67/67/67
f 32/32/32 34/34/34 67/67/67
f 67/67/67 34/34/34 38/38/38
f 18/18/18 70/70/70 15/15/15
f 26/26/26 70/70/70 18/18/18
f 26/26/26 8/8/8 70/70/70
f 18/18/18 29/29/29 28/28/28
f 17/17/17 29/29/29 18/18/18
f 17/17/17 20/20/20 29/29/29
f 4/4/4 43/43/43 51/51/51
f 40/40/40 5/5/5 51/51/51
f 51/51/51 5/5/5 4/4/4
f 4/4/4 6/6/6 44/44/44
f 46/46/46 69/69/69 44/44/44
f 44/44/44 69/69/69 4/4/4
f 78/78/78 37/37/37 42/42/42
f 88/88/88 53/53/53 89/89/89
f 87/87/87 88/88/88 89/89/89
f 86/86/86 88/88/88 87/87/87
f 86/86/86 53/53/53 88/88/88
f 72/72/72 82/82/82 21/21/21
f 71/71/71 27/27/27 3/3/3
f 21/21/21 23/23/23 71/71/71
f 71/71/71 23/23/23 27/27/27
f 3/3/3 27/27/27 75/75/75
f 84/84/84 75/75/75 27/27/27
f 84/84/84 65/65/65 75/75/75
f 81/81/81 55/55/55 83/83/83
f 85/85/85 83/83/83 55/55/55
f 85/85/85 36/36/36 83/83/83
f 46/46/46 32/32/32 69/69/69
f 90/90/90 87/87/87 73/73/73
f 4/4/4 69/69/69 43/43/43
f 50/50/50 90/90/90 73/73/73
f 54/54/54 90/90/90 50/50/50
f 54/54/54 87/87/87 90/90/90
f 87/87/87 89/89/89 73/73/73
f 76/76/76 79/79/79 77/77/77
f 1/1/1 75/75/75 65/65/65
g HB021
s 1
f 91/91/91 92/92/92 93/93/93
f 94/94/94 95/95/95 96/96/96
f 97/97/97 95/95/95 94/94/94
f 97/97/97 98/98/98 95/95/95
f 99/99/99 100/100/100 101/101/101
f 102/102/102 101/101/101 100/100/100
f 102/102/102 103/103/103 101/101/101
f 104/104/104 105/105/105 96/96/96
f 106/106/106 107/107/107 108/108/108
f 109/109/109 106/106/106 108/108/108
f 110/110/110 111/111/111 112/112/112
f 113/113/113 110/110/110 112/112/112
f 114/114/114 115/115/115 116/116/116
f 117/117/117 97/97/97 116/116/116
f 116/116/116 97/97/97 114/114/114
f 118/118/118 119/119/119 120/120/120
f 120/120/120 119/119/119 114/114/114
f 114/114/114 94/94/94 120/120/120
f 121/121/121 122/122/122 123/123/123
f 102/102/102 122/122/122 121/121/121
f 102/102/102 124/124/124 122/122/122
f 125/125/125 126/126/126 121/121/121
f 125/125/125 127/127/127 126/126/126
f 121/121/121 126/126/126 103/103/103
f 128/128/128 129/129/129 130/130/130
f 128/128/128 131/131/131 129/129/129
f 131/131/131 132/132/132 129/129/129
f 133/133/133 134/134/134 135/135/135
f 128/128/128 136/136/136 137/137/137
f 137/137/137 131/131/131 128/128/128
f 119/119/119 138/138/138 139/139/139
f 119/119/119 139/139/139 115/115/115
f 140/140/140 141/141/141 142/142/142
f 143/143/143 141/141/141 140/140/140
f 144/144/144 145/145/145 146/146/146
f 143/143/143 145/145/145 144/144/144
f 144/144/144 147/147/147 143/143/143
f 96/96/96 148/148/148 149/149/149
f 148/148/148 150/150/150 149/149/149
f 105/105/105 150/150/150 148/148/148
f 105/105/105 148/148/148 96/96/96
f 96/96/96 151/151/151 152/152/152
f 151/151/151 98/98/98 152/152/152
f 95/95/95 98/98/98 151/151/151
f 95/95/95 151/151/151 96/96/96
f 153/153/153 154/154/154 155/155/155
f 156/156/156 157/157/157 152/152/152
f 157/157/157 104/104/104 152/152/152
f 107/107/107 158/158/158 159/159/159
f 118/118/118 160/160/160 149/149/149
f 160/160/160 94/94/94 149/149/149
f 120/120/120 94/94/94 160/160/160
f 120/120/120 160/160/160 118/118/118
f 161/161/161 162/162/162 108/108/108
f 162/162/162 163/163/163 108/108/108
f 162/162/162 164/164/164 163/163/163
f 161/161/161 164/164/164 162/162/162
f 159/159/159 165/165/165 161/161/161
f 165/165/165 166/166/166 167/167/167
f 161/161/161 168/168/168 112/112/112
f 168/168/168 167/167/167 112/112/112
f 168/168/168 165/165/165 167/167/167
f 161/161/161 165/165/165 168/168/168
f 108/108/108 169/169/169 161/161/161
f 169/169/169 159/159/159 161/161/161
f 107/107/107 159/159/159 169/169/169
f 107/107/107 169/169/169 108/108/108
f 111/111/111 170/170/170 164/164/164
f 170/170/170 171/171/171 164/164/164
f 91/91/91 172/172/172 137/137/137
f 172/172/172 131/131/131 137/137/137
f 173/173/173 174/174/174 175/175/175
f 174/174/174 176/176/176 175/175/175
f 136/136/136 177/177/177 137/137/137
f 177/177/177 175/175/175 137/137/137
f 177/177/177 173/173/173 175/175/175
f 136/136/136 173/173/173 177/177/177
f 178/178/178 179/179/179 131/131/131
f 179/179/179 132/132/132 131/131/131
f 180/180/180 181/181/181 147/147/147
f 126/126/126 127/127/127 182/182/182
f 126/126/126 182/182/182 103/103/103
f 183/183/183 103/103/103 182/182/182
f 125/125/125 184/184/184 185/185/185
f 125/125/125 185/185/185 142/142/142
f 121/121/121 123/123/123 186/186/186
f 121/121/121 186/186/186 125/125/125
f 125/125/125 186/186/186 184/184/184
f 186/186/186 123/123/123 184/184/184
f 116/116/116 115/115/115 187/187/187
f 116/116/116 187/187/187 117/117/117
f 133/133/133 117/117/117 187/187/187
f 130/130/130 188/188/188 128/128/128
f 188/188/188 136/136/136 128/128/128
f 188/188/188 173/173/173 136/136/136
f 138/138/138 189/189/189 190/190/190
f 127/127/127 191/191/191 192/192/192
f 123/123/123 193/193/193 184/184/184
f 184/184/184 193/193/193 145/145/145
f 193/193/193 124/124/124 145/145/145
f 122/122/122 124/124/124 194/194/194
f 122/122/122 194/194/194 123/123/123
f 123/123/123 194/194/194 193/193/193
f 194/194/194 124/124/124 193/193/193
f 158/158/158 166/166/166 195/195/195
f 158/158/158 195/195/195 159/159/159
f 159/159/159 195/195/195 165/165/165
f 195/195/195 166/166/166 165/165/165
f 196/196/196 101/101/101 103/103/103
f 99/99/99 101/101/101 196/196/196
f 196/196/196 103/103/103 183/183/183
f 181/181/181 197/197/197 141/141/141
f 197/197/197 198/198/198 141/141/141
f 199/199/199 178/178/178 200/200/200
f 140/140/140 201/201/201 143/143/143
f 201/201/201 145/145/145 143/143/143
f 147/147/147 202/202/202 143/143/143
f 202/202/202 141/141/141 143/143/143
f 202/202/202 181/181/181 141/141/141
f 147/147/147 181/181/181 202/202/202
f 183/183/183 203/203/203 204/204/204
f 205/205/205 139/139/139 138/138/138
f 153/153/153 139/139/139 205/205/205
f 205/205/205 154/154/154 153/153/153
f 206/206/206 155/155/155 133/133/133
f 153/153/153 155/155/155 206/206/206
f 206/206/206 207/207/207 153/153/153
f 146/146/146 208/208/208 144/144/144
f 208/208/208 147/147/147 144/144/144
f 208/208/208 180/180/180 147/147/147
f 146/146/146 180/180/180 208/208/208
f 93/93/93 209/209/209 91/91/91
f 209/209/209 172/172/172 91/91/91
f 209/209/209 200/200/200 172/172/172
f 210/210/210 178/178/178 131/131/131
f 200/200/200 178/178/178 210/210/210
f 200/200/200 210/210/210 172/172/172
f 210/210/210 131/131/131 172/172/172
f 130/130/130 211/211/211 188/188/188
f 211/211/211 173/173/173 188/188/188
f 212/212/212 199/199/199 200/200/200
f 93/93/93 199/199/199 212/212/212
f 93/93/93 212/212/212 209/209/209
f 212/212/212 200/200/200 209/209/209
f 213/213/213 192/192/192 203/203/203
f 127/127/127 192/192/192 213/213/213
f 213/213/213 203/203/203 183/183/183
f 134/134/134 187/187/187 115/115/115
f 133/133/133 187/187/187 134/134/134
f 134/134/134 115/115/115 207/207/207
f 214/214/214 190/190/190 154/154/154
f 138/138/138 190/190/190 214/214/214
f 138/138/138 214/214/214 205/205/205
f 214/214/214 154/154/154 205/205/205
f 215/215/215 182/182/182 127/127/127
f 183/183/183 182/182/182 215/215/215
f 215/215/215 213/213/213 183/183/183
f 127/127/127 213/213/213 215/215/215
f 216/216/216 196/196/196 183/183/183
f 99/99/99 196/196/196 216/216/216
f 216/216/216 204/204/204 99/99/99
f 183/183/183 204/204/204 216/216/216
f 217/217/217 115/115/115 139/139/139
f 207/207/207 115/115/115 217/217/217
f 207/207/207 217/217/217 153/153/153
f 217/217/217 139/139/139 153/153/153
f 142/142/142 185/185/185 218/218/218
f 218/218/218 145/145/145 201/201/201
f 219/219/219 184/184/184 145/145/145
f 185/185/185 184/184/184 219/219/219
f 218/218/218 185/185/185 219/219/219
f 218/218/218 219/219/219 145/145/145
f 142/142/142 220/220/220 140/140/140
f 220/220/220 201/201/201 140/140/140
f 220/220/220 218/218/218 201/201/201
f 142/142/142 218/218/218 220/220/220
f 133/133/133 135/135/135 206/206/206
f 135/135/135 207/207/207 206/206/206
f 135/135/135 134/134/134 207/207/207
f 129/129/129 132/132/132 130/130/130
f 112/112/112 111/111/111 161/161/161
f 142/142/142 127/127/127 125/125/125
f 100/100/100 124/124/124 102/102/102
f 121/121/121 103/103/103 102/102/102
f 117/117/117 98/98/98 97/97/97
f 114/114/114 97/97/97 94/94/94
f 118/118/118 138/138/138 119/119/119
f 114/114/114 119/119/119 115/115/115
f 149/149/149 150/150/150 118/118/118
f 149/149/149 94/94/94 96/96/96
f 141/141/141 198/198/198 142/142/142
f 145/145/145 124/124/124 146/146/146
f 152/152/152 98/98/98 156/156/156
f 152/152/152 104/104/104 96/96/96
f 108/108/108 163/163/163 109/109/109
f 163/163/163 171/171/171 109/109/109
f 111/111/111 164/164/164 161/161/161
f 164/164/164 171/171/171 163/163/163
f 112/112/112 167/167/167 113/113/113
f 167/167/167 166/166/166 113/113/113
f 137/137/137 175/175/175 91/91/91
f 92/92/92 176/176/176 93/93/93
f 175/175/175 176/176/176 92/92/92
f 91/91/91 175/175/175 92/92/92
g HB022
s 1
f 221/221/221 222/222/222 223/223/223
f 224/224/224 225/225/225 226/226/226
f 227/227/227 228/228/228 229/229/229
f 230/230/230 231/231/231 232/232/232
f 230/230/230 232/232/232 224/224/224
f 233/233/233 234/234/234 224/224/224
f 224/224/224 234/234/234 230/230/230
f 235/235/235 236/236/236 221/221/221
f 235/235/235 227/227/227 236/236/236
f 236/236/236 227/227/227 229/229/229
f 221/221/221 236/236/236 229/229/229
f 232/232/232 225/225/225 224/224/224
f 237/237/237 238/238/238 239/239/239
f 240/240/240 238/238/238 237/237/237
f 240/240/240 237/237/237 241/241/241
f 242/242/242 243/243/243 244/244/244
f 245/245/245 243/243/243 242/242/242
f 237/237/237 239/239/239 241/241/241
f 246/246/246 247/247/247 248/248/248
f 244/244/244 249/249/249 242/242/242
f 250/250/250 251/251/251 252/252/252
f 221/221/221 253/253/253 254/254/254
f 243/243/243 251/251/251 250/250/250
f 221/221/221 254/254/254 244/244/244
f 244/244/244 254/254/254 249/249/249
f 243/243/243 250/250/250 235/235/235
f 235/235/235 250/250/250 227/227/227
f 241/241/241 239/239/239 255/255/255
f 250/250/250 252/252/252 227/227/227
f 254/254/254 256/256/256 249/249/249
f 227/227/227 252/252/252 228/228/228
f 254/254/254 253/253/253 256/256/256
f 240/240/240 257/257/257 238/238/238
f 242/242/242 249/249/249 258/258/258
f 230/230/230 259/259/259 231/231/231
f 224/224/224 226/226/226 233/233/233
f 232/232/232 231/231/231 225/225/225
f 242/242/242 258/258/258 245/245/245
f 241/241/241 255/255/255 248/248/248
f 244/244/244 235/235/235 221/221/221
f 244/244/244 243/243/243 235/235/235
f 223/223/223 253/253/253 221/221/221
f 245/245/245 251/251/251 243/243/243
f 248/248/248 247/247/247 241/241/241
f 241/241/241 260/260/260 240/240/240
f 241/241/241 247/247/247 260/260/260
f 248/248/248 255/255/255 246/246/246
f 233/233/233 261/261/261 234/234/234
f 252/252/252 251/251/251 228/228/228
f 221/221/221 229/229/229 222/222/222
g HB023
s 1
f 262/262/262 263/263/263 264/264/264
f 265/265/265 262/262/262 264/264/264
f 266/266/266 267/267/267 268/268/268
f 269/269/269 270/270/270 262/262/262
f 269/269/269 265/265/265 271/271/271
f 271/271/271 272/272/272 273/273/273
f 274/274/274 270/270/270 269/269/269
f 273/273/273 275/275/275 266/266/266
f 271/271/271 276/276/276 277/277/277
f 271/271/271 264/264/264 276/276/276
f 270/270/270 278/278/278 279/279/279
f 279/279/279 278/278/278 263/263/263
f 272/272/272 280/280/280 281/281/281
f 269/269/269 262/262/262 265/265/265
f 277/277/277 280/280/280 282/282/282
f 272/272/272 281/281/281 275/275/275
f 266/266/266 274/274/274 273/273/273
f 268/268/268 283/283/283 266/266/266
f 266/266/266 275/275/275 267/267/267
f 277/277/277 282/282/282 271/271/271
f 273/273/273 269/269/269 271/271/271
f 283/283/283 274/274/274 266/266/266
f 273/273/273 272/272/272 275/275/275
f 271/271/271 265/265/265 264/264/264
f 271/271/271 282/282/282 272/272/272
f 273/273/273 274/274/274 269/269/269
f 262/262/262 279/279/279 263/263/263
f 283/283/283 278/278/278 274/274/274
f 268/268/268 278/278/278 283/283/283
f 274/274/274 278/278/278 270/270/270
f 270/270/270 279/279/279 262/262/262
f 282/282/282 280/280/280 272/272/272
g HB024
s 1
f 284/284/284 285/285/285 286/286/286
f 287/287/287 288/288/288 289/289/289
f 290/290/290 288/288/288 287/287/287
f 285/285/285 291/291/291 292/292/292
f 293/293/293 294/294/294 295/295/295
f 290/290/290 287/287/287 296/296/296
f 287/287/287 289/289/289 296/296/296
f 292/292/292 295/295/295 294/294/294
f 297/297/297 294/294/294 298/298/298
f 297/297/297 298/298/298 286/286/286
f 299/299/299 286/286/286 298/298/298
f 285/285/285 292/292/292 297/297/297
f 285/285/285 297/297/297 286/286/286
f 292/292/292 294/294/294 297/297/297
f 296/296/296 300/300/300 301/301/301
f 296/296/296 289/289/289 300/300/300
f 295/295/295 302/302/302 303/303/303
f 304/304/304 305/305/305 299/299/299
f 296/296/296 306/306/306 307/307/307
f 296/296/296 307/307/307 290/290/290
f 308/308/308 290/290/290 307/307/307
f 308/308/308 307/307/307 306/306/306
f 309/309/309 308/308/308 306/306/306
f 301/301/301 306/306/306 296/296/296
f 310/310/310 295/295/295 292/292/292
f 290/290/290 311/311/311 288/288/288
f 303/303/303 302/302/302 312/312/312
f 299/299/299 313/313/313 304/304/304
f 295/295/295 314/314/314 302/302/302
f 293/293/293 312/312/312 305/305/305
f 315/315/315 291/291/291 285/285/285
f 284/284/284 315/315/315 285/285/285
f 295/295/295 303/303/303 293/293/293
f 303/303/303 312/312/312 293/293/293
f 304/304/304 313/313/313 293/293/293
f 313/313/313 298/298/298 294/294/294
f 293/293/293 305/305/305 304/304/304
f 299/299/299 298/298/298 313/313/313
f 291/291/291 310/310/310 292/292/292
f 313/313/313 294/294/294 293/293/293
