# Exported using wow.export v0.2.19
o 21138_Griffon06.obj
v -55.31878662109375 11.177505493164062 -46.837684631347656
v -53.807491302490234 11.177505493164062 -47.3181266784668
v -54.742279052734375 11.177505493164062 -44.88310241699219
v -53.233150482177734 11.177504539489746 -41.952293395996094
v -55.120643615722656 11.177505493164062 -43.910179138183594
v -52.47642135620117 11.177505493164062 -43.89813995361328
v -51.71969223022461 11.177505493164062 -45.8439826965332
v -53.167076110839844 11.177505493164062 -48.96489715576172
v -50.43885803222656 11.177505493164062 -49.13751983642578
v -52.72174072265625 9.798718452453613 -50.12492370605469
v -50.43821716308594 8.419929504394531 -49.1391487121582
v -55.89529037475586 11.177506446838379 -48.79227066040039
v -56.830078125 11.177505493164062 -46.35724639892578
v -55.00526428222656 7.682286739349365 -51.11069107055664
v -55.00526428222656 11.177507400512695 -51.11069869995117
v -54.53118133544922 11.177505493164062 -48.87858581542969
v -54.0861701965332 11.177506446838379 -50.03779602050781
v -50.43885803222656 11.177505493164062 -49.13751983642578
v -52.72174072265625 8.051108360290527 -50.12491989135742
v -55.495994567871094 6.118527412414551 -42.945011138916016
v -57.76487350463867 4.328681468963623 -43.922218322753906
v -55.496315002441406 7.528237342834473 -42.94418716430664
v -53.22711944580078 7.90837287902832 -41.967803955078125
v -53.233360290527344 4.328680992126465 -41.95172882080078
v -52.72174072265625 6.445021629333496 -50.12492370605469
v -55.00526428222656 4.470113277435303 -51.11069869995117
v -50.4466667175293 4.699575901031494 -49.1174201965332
v -55.496315002441406 10.952649116516113 -42.94418716430664
v -56.630592346191406 9.35287094116211 -43.433204650878906
v -57.76486587524414 11.177505493164062 -43.922218322753906
v -57.764869689941406 7.753093719482422 -43.922218322753906
v -52.72206115722656 11.177506446838379 -50.124107360839844
v -52.72206115722656 11.177506446838379 -50.124107360839844
v -55.00526428222656 11.177507400512695 -51.11069869995117
v -54.85139083862305 11.177505493164062 -48.055198669433594
v -53.227760314941406 10.727792739868164 -41.966156005859375
v -53.230987548828125 11.177505493164062 -45.36354064941406
v -55.49900817871094 11.177505493164062 -42.937255859375
v -57.76486587524414 11.177505493164062 -43.922218322753906
v -55.49900817871094 11.177505493164062 -42.937255859375
v -53.233150482177734 11.177504539489746 -41.952293395996094
v -56.253570556640625 11.177505493164062 -44.40266036987305
v -55.499114990234375 4.328680992126465 -42.936973571777344
v -52.72596740722656 4.584844589233398 -50.11405944824219
v -57.76487350463867 4.328681468963623 -43.922218322753906
v -55.499114990234375 4.328680992126465 -42.936973571777344
v -54.310874938964844 4.416139602661133 -46.03219985961914
v -56.57663345336914 4.416139602661133 -47.0174446105957
v -53.772117614746094 4.372410297393799 -43.991966247558594
v -51.84001159667969 4.514128684997559 -45.534576416015625
v -53.233360290527344 4.328680992126465 -41.95172882080078
v -54.849632263183594 4.459868431091309 -48.07243347167969
v -53.61420440673828 4.50886344909668 -47.82362365722656
v -55.38839340209961 4.503597736358643 -50.1126708984375
v -52.72596740722656 4.584844589233398 -50.11405944824219
v -55.00526428222656 4.470113277435303 -51.11069869995117
v -55.13450622558594 4.482115745544434 -50.7740364074707
v -50.4466667175293 4.699575901031494 -49.1174201965332
v -52.91753005981445 4.601586818695068 -49.61504364013672
vn 0.25075507164001465 -0.9612630605697632 -0.11443425714969635
vn 0.2637367844581604 -0.9591262340545654 0.1025654524564743
vn 0.4820876717567444 -0.8480514883995056 -0.22000035643577576
vn 0.7553786635398865 -0.6419612169265747 -0.1314871460199356
vn 0.5445085167884827 -0.7829038500785828 -0.3009519875049591
vn 0.6478099226951599 -0.7610641717910767 0.03351860120892525
vn 0.5059179663658142 -0.8398434519767761 0.19674842059612274
vn 0.23812301456928253 -0.9031661748886108 0.3571948707103729
vn 0.4301333725452423 -0.6314148902893066 0.6452135443687439
vn -0.2857196629047394 -0.2628542184829712 0.9215595722198486
vn -0.009645272046327591 0.28611353039741516 0.9581471681594849
vn -0.0000049902600949280895 -1 -0.000002281366732859169
vn 0.20244646072387695 -0.9242380261421204 -0.3237273395061493
vn -0.6321465373039246 -8.649135452287737e-7 0.7748488783836365
vn -0.4535287916660309 -0.7122209072113037 0.5357733368873596
vn 0.12205038964748383 -0.9754917621612549 0.18308354914188385
vn -0.1159156933426857 -0.8692836165428162 0.48053041100502014
vn 0.4301333725452423 -0.6314148902893066 0.6452135443687439
vn -0.34319767355918884 0.15299852192401886 0.9267182350158691
vn 0.4494546949863434 0.7406426072120667 -0.4994388520717621
vn 0.15173043310642242 0.9220905303955078 -0.3559873104095459
vn 0.7088845372200012 0.5825620293617249 -0.39762312173843384
vn 0.683292806148529 0.45391857624053955 -0.5718993544578552
vn 0.25621742010116577 0.7223711609840393 -0.6422869563102722
vn -0.2441885769367218 0.6286852359771729 0.7383270263671875
vn -0.4248426556587219 0.8325144052505493 0.3555678427219391
vn -0.3078080415725708 0.6913917660713196 0.6536296010017395
vn 0.7655190229415894 -0.40896347165107727 -0.4967186450958252
vn 0.7334001660346985 -0.0852295532822609 -0.6744332909584045
vn 0.3742223381996155 -0.7084315419197083 -0.598399817943573
vn 0.4736331105232239 0.19240505993366241 -0.8594486117362976
vn -0.013077139854431152 -0.7510407567024231 0.660126268863678
vn -0.013077139854431152 -0.7510407567024231 0.660126268863678
vn -0.4535287916660309 -0.7122209072113037 0.5357733368873596
vn 0.133234441280365 -0.9897292852401733 0.051813799887895584
vn 0.9630374312400818 -0.005973157472908497 -0.2693014442920685
vn 0.5051319003105164 -0.8629602789878845 -0.011887882836163044
vn 0.5926995277404785 -0.7085486054420471 -0.38297033309936523
vn 0.3742223381996155 -0.7084315419197083 -0.598399817943573
vn 0.5926995277404785 -0.7085486054420471 -0.38297033309936523
vn 0.7553786635398865 -0.6419612169265747 -0.1314871460199356
vn 0.43780064582824707 -0.7957740426063538 -0.4184187054634094
vn 0.2074458748102188 0.8362264633178711 -0.5076332092285156
vn -0.3720646798610687 0.7738908529281616 0.5125044584274292
vn 0.15173043310642242 0.9220905303955078 -0.3559873104095459
vn 0.2074458748102188 0.8362264633178711 -0.5076332092285156
vn 0.08495376259088516 0.9202199578285217 -0.38207074999809265
vn 0.027442054823040962 0.9757882356643677 -0.21698921918869019
vn 0.17356587946414948 0.8356443643569946 -0.5211271047592163
vn -0.036466263234615326 0.9993027448654175 0.008017423562705517
vn 0.25621742010116577 0.7223711609840393 -0.6422869563102722
vn -0.006575811188668013 0.9731937050819397 -0.22989344596862793
vn -0.06725596636533737 0.9972559213638306 -0.03094007447361946
vn -0.097879558801651 0.9927459955215454 -0.06982115656137466
vn -0.3720646798610687 0.7738908529281616 0.5125044584274292
vn -0.4248426556587219 0.8325144052505493 0.3555678427219391
vn -0.12213247269392014 0.9891082644462585 -0.08214928954839706
vn -0.3078080415725708 0.6913917660713196 0.6536296010017395
vn -0.22192475199699402 0.9212799668312073 0.3193628191947937
vt 0.49519503116607666 0.5068196654319763
vt 0.39929816126823425 0.5942888855934143
vt 0.6527478694915771 0.5986670553684235
vt 0.8671817779541016 0.7445816993713379
vt 0.7543047666549683 0.5914111137390137
vt 0.6640679836273193 0.7590936124324799
vt 0.46095412969589233 0.7736055254936218
vt 0.22791510820388794 0.5677782893180847
vt 0.9994999170303345 0.7205843925476074
vt 0.798383891582489 0.5646758675575256
vt 0.5972675085067749 0.7185479402542114
vt 0.33764219284057617 0.4149722456932068
vt 0.5910918712615967 0.41935038566589355
vt 0.48967185616493225 0.41080379486083984
vt 0.9995002746582031 0.41080379486083984
vt 0.28277865052223206 0.49137526750564575
vt 0.16212210059165955 0.48929107189178467
vt 0.11818800866603851 0.7205843329429626
vt 0.5434696674346924 0.5646758675575256
vt 0.7384254932403564 0.5744984149932861
vt 0.9995003938674927 0.42372846603393555
vt 0.5327987670898438 0.5755256712436676
vt 0.47735053300857544 0.7252683639526367
vt 0.9995006322860718 0.7452842593193054
vt 0.3091985285282135 0.5646758675575256
vt 0.021129554137587547 0.41080379486083984
vt 0.05459985509514809 0.7455989718437195
vt 0.0332985445857048 0.5755257308483124
vt 0.26664936542510986 0.49962711334228516
vt 0.0004999497905373573 0.4237285852432251
vt 0.5000001788139343 0.4237285256385803
vt 0.9995000958442688 0.5656940937042236
vt 0.10725855827331543 0.5656940639019012
vt 0.09632910788059235 0.41080379486083984
vt 0.3684701919555664 0.5046305656433105
vt 0.06609714031219482 0.7273228764533997
vt 0.5568510293960571 0.6861363053321838
vt 0.8558616638183594 0.5841551423072815
vt 0.8445415496826172 0.4237285852432251
vt 0.0005000350065529346 0.5841551423072815
vt 0.000500120222568512 0.7445816993713379
vt 0.7486447095870972 0.5111978054046631
vt 0.9995005130767822 0.5845063626766205
vt 0.03786470741033554 0.5782013833522797
vt 9.664522171020508 0.8225677013397217
vt 9.763243675231934 0.9577767252922058
vt 9.346712112426758 1.0818873643875122
vt 9.247990608215332 0.9466783404350281
vt 9.604338645935059 1.087436556816101
vt 9.382345199584961 1.2592626214027405
vt 9.86196517944336 1.09298574924469
vt 9.089085578918457 1.0763381719589233
vt 9.106902122497559 1.1650258004665375
vt 8.831459045410156 1.0707889795303345
vt 8.79994010925293 1.2620737552642822
vt 8.697153091430664 1.0986080169677734
vt 8.74245834350586 1.0893635749816895
vt 8.902726173400879 1.425539493560791
vt 8.86709213256836 1.2481642365455627
g Griffon060
s 1
f 1/1/1 2/2/2 3/3/3
f 4/4/4 5/5/5 6/6/6
f 7/7/7 2/2/2 8/8/8
f 9/9/9 10/10/10 11/11/11
f 12/12/12 1/1/1 13/13/13
f 14/14/14 10/10/10 15/15/15
f 1/1/1 3/3/3 13/13/13
f 2/2/2 16/16/16 8/8/8
f 17/17/17 8/8/8 16/16/16
f 7/7/7 8/8/8 18/18/18
f 14/14/14 19/19/19 10/10/10
f 20/20/20 21/21/21 22/22/22
f 23/23/23 20/20/20 22/22/22
f 24/24/24 20/20/20 23/23/23
f 19/19/19 11/11/11 10/10/10
f 11/11/11 19/19/19 25/25/25
f 25/25/25 14/14/14 26/26/26
f 19/19/19 14/14/14 25/25/25
f 27/27/27 11/11/11 25/25/25
f 28/28/28 22/22/22 29/29/29
f 28/28/28 29/29/29 30/30/30
f 29/29/29 31/31/31 30/30/30
f 22/22/22 31/31/31 29/29/29
f 9/9/9 32/32/32 10/10/10
f 32/32/32 15/15/15 10/10/10
f 33/33/33 18/18/18 8/8/8
f 6/6/6 5/5/5 3/3/3
f 34/34/34 17/17/17 12/12/12
f 35/35/35 12/12/12 16/16/16
f 36/36/36 22/22/22 28/28/28
f 6/6/6 3/3/3 37/37/37
f 6/6/6 37/37/37 7/7/7
f 23/23/23 22/22/22 36/36/36
f 2/2/2 7/7/7 37/37/37
f 2/2/2 37/37/37 3/3/3
f 4/4/4 38/38/38 5/5/5
f 38/38/38 39/39/39 5/5/5
f 28/28/28 30/30/30 40/40/40
f 28/28/28 40/40/40 41/41/41
f 17/17/17 16/16/16 12/12/12
f 12/12/12 35/35/35 1/1/1
f 35/35/35 2/2/2 1/1/1
f 2/2/2 35/35/35 16/16/16
f 5/5/5 39/39/39 42/42/42
f 5/5/5 42/42/42 3/3/3
f 13/13/13 3/3/3 42/42/42
f 43/43/43 21/21/21 20/20/20
f 24/24/24 43/43/43 20/20/20
f 13/13/13 42/42/42 39/39/39
f 22/22/22 21/21/21 31/31/31
f 36/36/36 28/28/28 41/41/41
f 27/27/27 25/25/25 44/44/44
f 44/44/44 25/25/25 26/26/26
f 34/34/34 33/33/33 17/17/17
f 17/17/17 33/33/33 8/8/8
g Griffon061
s 1
f 45/45/45 46/46/46 47/47/47
f 45/45/45 47/47/47 48/48/48
f 49/49/49 50/50/50 47/47/47
f 51/51/51 50/50/50 49/49/49
f 46/46/46 51/51/51 49/49/49
f 46/46/46 49/49/49 47/47/47
f 52/52/52 53/53/53 54/54/54
f 47/47/47 53/53/53 52/52/52
f 48/48/48 47/47/47 52/52/52
f 48/48/48 52/52/52 54/54/54
f 55/55/55 56/56/56 57/57/57
f 50/50/50 58/58/58 53/53/53
f 47/47/47 50/50/50 53/53/53
f 59/59/59 57/57/57 54/54/54
f 58/58/58 57/57/57 59/59/59
f 53/53/53 58/58/58 59/59/59
f 53/53/53 59/59/59 54/54/54
f 58/58/58 55/55/55 57/57/57
