# Exported using wow.export v0.2.19
o 21138_Taventrance23.obj
v -87.62821960449219 9.520598411560059 307.8695068359375
v -87.62574768066406 7.239266395568848 307.8611755371094
v -90.94308471679688 9.520600318908691 306.83062744140625
v -87.62574768066406 13.186060905456543 307.8611755371094
v -87.01817321777344 13.186059951782227 305.81005859375
v -87.01569366455078 12.493995666503906 305.80169677734375
v -86.41059875488281 13.186058044433594 303.7589111328125
v -87.63069152832031 11.80193042755127 307.87786865234375
v -90.94061279296875 7.2392683029174805 306.822265625
v -94.2554702758789 7.239269733428955 305.7833557128906
v -92.59803771972656 8.725967407226562 306.30279541015625
v -94.2554702758789 10.212666511535645 305.7833557128906
v -90.94061279296875 10.212665557861328 306.822265625
v -87.0181655883789 11.80193042755127 305.8100280761719
v -87.63069152832031 11.80193042755127 307.87786865234375
v -86.4056396484375 11.80193042755127 303.7421875
v -90.94061279296875 13.18606185913086 306.822265625
v -89.2831802368164 11.699363708496094 307.34173583984375
v -87.62574768066406 13.186060905456543 307.8611755371094
v -92.59803771972656 11.699363708496094 306.30279541015625
v -94.2554702758789 13.186062812805176 305.7833557128906
v -89.76161193847656 10.212664604187012 302.83770751953125
v -89.76161193847656 8.725967407226562 302.83770751953125
v -88.08610534667969 8.72596549987793 303.2983093261719
v -86.41059875488281 7.239266395568848 303.7589111328125
v -86.4056396484375 11.80193042755127 303.7421875
v -86.41059875488281 13.186058044433594 303.7589111328125
v -89.7591323852539 12.493996620178223 302.829345703125
v -93.11262512207031 10.212667465209961 301.9165344238281
v -93.11262512207031 7.239271640777588 301.9165344238281
v -86.40811920166016 9.520598411560059 303.75054931640625
v -91.43711853027344 11.699363708496094 302.37713623046875
v -93.11262512207031 13.186062812805176 301.9165344238281
v -89.76161193847656 13.186059951782227 302.83770751953125
v -89.76161193847656 7.239269256591797 302.83770751953125
v -90.33303833007812 7.2392683029174805 304.7711181640625
v -93.11262512207031 7.239271640777588 301.9165344238281
v -94.2554702758789 7.239269733428955 305.7833557128906
v -89.76161193847656 7.239269256591797 302.83770751953125
v -90.94061279296875 7.2392683029174805 306.822265625
v -87.62574768066406 7.239266395568848 307.8611755371094
v -86.41059875488281 7.239266395568848 303.7589111328125
v -87.01817321777344 7.239266395568848 305.81005859375
v -93.9386215209961 7.980452060699463 305.7072448730469
v -94.01910400390625 7.980452060699463 305.5589904785156
v -94.01910400390625 12.88978099822998 305.5589904785156
v -93.94303131103516 7.980452060699463 305.8758850097656
v -93.9386215209961 12.88978099822998 305.7072448730469
v -93.94303131103516 12.88978099822998 305.8758850097656
v -94.16310119628906 12.889779090881348 305.4708251953125
v -94.16310119628906 7.98045015335083 305.4708251953125
v -93.81805419921875 7.759920120239258 305.9128723144531
v -93.81187438964844 7.759920120239258 305.67681884765625
v -93.9386215209961 7.980452060699463 305.7072448730469
v -93.94303131103516 7.980452060699463 305.8758850097656
v -93.81187438964844 7.759920120239258 305.67681884765625
v -93.92455291748047 7.759920120239258 305.46929931640625
v -94.01910400390625 7.980452060699463 305.5589904785156
v -94.12615203857422 7.759918212890625 305.3458251953125
v -94.16310119628906 7.98045015335083 305.4708251953125
v -93.81805419921875 7.239266395568848 305.9128723144531
v -93.81187438964844 7.239266395568848 305.67681884765625
v -93.81187438964844 7.239266395568848 305.67681884765625
v -93.92455291748047 7.239266395568848 305.46929931640625
v -94.12615203857422 7.239264488220215 305.3458251953125
v -93.83088684082031 13.061718940734863 305.6813659667969
v -93.83679962158203 13.061718940734863 305.9073486328125
v -93.94303131103516 12.88978099822998 305.8758850097656
v -93.9386215209961 12.88978099822998 305.7072448730469
v -93.93873596191406 13.061718940734863 305.4827575683594
v -93.9386215209961 12.88978099822998 305.7072448730469
v -94.01910400390625 12.88978099822998 305.5589904785156
v -94.1316909790039 13.06171703338623 305.36456298828125
v -94.16310119628906 12.889779090881348 305.4708251953125
v -93.83088684082031 13.186059951782227 305.6813659667969
v -93.83679962158203 13.186059951782227 305.9073486328125
v -93.93873596191406 13.186059951782227 305.4827575683594
v -94.1316909790039 13.186058044433594 305.36456298828125
v -93.11262512207031 13.186062812805176 301.9165344238281
v -90.33303833007812 13.186059951782227 304.7711181640625
v -94.2554702758789 13.186062812805176 305.7833557128906
v -89.76161193847656 13.186059951782227 302.83770751953125
v -86.41059875488281 13.186058044433594 303.7589111328125
v -90.94061279296875 13.18606185913086 306.822265625
v -87.62574768066406 13.186060905456543 307.8611755371094
v -87.01817321777344 13.186059951782227 305.81005859375
vn 0.034850120544433594 0.18885894119739532 -0.9813856482505798
vn 0.21106822788715363 0.7084558010101318 -0.673454225063324
vn 0.028399379923939705 0.18756531178951263 -0.981841504573822
vn -0.3829229176044464 -0.5804023146629333 -0.7186815738677979
vn -0.669449508190155 -0.7155879139900208 -0.1994277387857437
vn -0.7101647853851318 -0.7031850218772888 -0.034595806151628494
vn -0.7082815766334534 -0.5860080122947693 0.3936138153076172
vn -0.15516360104084015 -0.40549877285957336 -0.9008301496505737
vn 0.20595254004001617 0.7077926993370056 -0.6757315993309021
vn 0.20083028078079224 0.7071069478988647 -0.6779874563217163
vn 0.03900313377380371 0.4311748743057251 -0.9014250040054321
vn 0.2840632200241089 -8.429378226537665e-7 -0.958805501461029
vn -0.12876227498054504 0.08959603309631348 -0.9876197576522827
vn -0.6736714243888855 -0.7111362814903259 -0.20112687349319458
vn -0.15516360104084015 -0.40549877285957336 -0.9008301496505737
vn -0.6183127164840698 -0.4109928011894226 0.6699061989784241
vn -0.09538944065570831 -0.6747050285339355 -0.7318975329399109
vn -0.2769235372543335 -0.26562389731407166 -0.9234486222267151
vn -0.3829229176044464 -0.5804023146629333 -0.7186815738677979
vn 0.040573518723249435 -0.34733903408050537 -0.9368614554405212
vn 0.20089536905288696 -0.7071081399917603 -0.6779668927192688
vn -0.2745553255081177 -1.2644667890526762e-7 0.9615712761878967
vn -0.2551536560058594 0.3826987147331238 0.8879405856132507
vn -0.25002598762512207 0.38268715143203735 0.8894028663635254
vn -0.187427818775177 0.7071066498756409 0.6818144917488098
vn -0.6183127164840698 -0.4109928011894226 0.6699061989784241
vn -0.7082815766334534 -0.5860080122947693 0.3936138153076172
vn -0.4236856997013092 -0.5783131122589111 0.69716876745224
vn -0.28401562571525574 -1.2644053981603065e-7 0.9588196277618408
vn -0.2008255571126938 0.7071066498756409 0.6779891848564148
vn -0.5031899809837341 0.18492494523525238 0.8441579937934875
vn -0.25728100538253784 -0.38268736004829407 0.8873313069343567
vn -0.20083321630954742 -0.7071068286895752 0.6779866814613342
vn -0.476050466299057 -0.6771289706230164 0.5611347556114197
vn -0.19413141906261444 0.7071238160133362 0.6799183487892151
vn 0.009476510807871819 0.9999514222145081 0.0027059910353273153
vn -0.2008255571126938 0.7071066498756409 0.6779891848564148
vn 0.20083028078079224 0.7071069478988647 -0.6779874563217163
vn -0.19413141906261444 0.7071238160133362 0.6799183487892151
vn 0.20595254004001617 0.7077926993370056 -0.6757315993309021
vn 0.21106822788715363 0.7084558010101318 -0.673454225063324
vn -0.187427818775177 0.7071066498756409 0.6818144917488098
vn 0.016697745770215988 0.9998431205749512 0.005905041936784983
vn 0.9376352429389954 0.26490318775177 -0.2250920981168747
vn 0.6994712352752686 0.26488620042800903 -0.6637584567070007
vn 0.6955888271331787 -0.2837052345275879 -0.6600511074066162
vn 0.9662180542945862 0.2564813196659088 0.025297939777374268
vn 0.9324116110801697 -0.2837257385253906 -0.2238488346338272
vn 0.9611725211143494 -0.2747986614704132 0.02516055665910244
vn 0.2723565697669983 -0.28371086716651917 -0.9194183349609375
vn 0.27389970421791077 0.2648942470550537 -0.9245593547821045
vn 0.9662192463874817 0.25647786259651184 0.02528803050518036
vn 0.9376306533813477 0.26489612460136414 -0.22511962056159973
vn 0.9376352429389954 0.26490318775177 -0.2250920981168747
vn 0.9662180542945862 0.2564813196659088 0.025297939777374268
vn 0.9376306533813477 0.26489612460136414 -0.22511962056159973
vn 0.6994741559028625 0.2648903727531433 -0.6637536883354187
vn 0.6994712352752686 0.26488620042800903 -0.6637584567070007
vn 0.27389782667160034 0.264891654253006 -0.9245606660842896
vn 0.27389970421791077 0.2648942470550537 -0.9245593547821045
vn 0.9996576905250549 0 0.02616318315267563
vn 0.9723666906356812 0 -0.23345889151096344
vn 0.9723666906356812 0 -0.23345889151096344
vn 0.7253859043121338 0 -0.6883423924446106
vn 0.28404462337493896 0 -0.9588110446929932
vn 0.9324056506156921 -0.2837289273738861 -0.22386963665485382
vn 0.9611726999282837 -0.2747986614704132 0.025154341012239456
vn 0.9611725211143494 -0.2747986614704132 0.02516055665910244
vn 0.9324116110801697 -0.2837257385253906 -0.2238488346338272
vn 0.6955702304840088 -0.2837148904800415 -0.6600666046142578
vn 0.9324116110801697 -0.2837257385253906 -0.2238488346338272
vn 0.6955888271331787 -0.2837052345275879 -0.6600511074066162
vn 0.27235615253448486 -0.2837076187133789 -0.9194194674491882
vn 0.2723565697669983 -0.28371086716651917 -0.9194183349609375
vn 0.9723653197288513 0 -0.2334645837545395
vn 0.9996577501296997 0 0.02616151235997677
vn 0.7253786325454712 0 -0.6883500814437866
vn 0.28402623534202576 0 -0.9588165283203125
vn -0.20083321630954742 -0.7071068286895752 0.6779866814613342
vn -0.35784289240837097 -0.9119924902915955 -0.20054492354393005
vn 0.20089536905288696 -0.7071081399917603 -0.6779668927192688
vn -0.476050466299057 -0.6771289706230164 0.5611347556114197
vn -0.7082815766334534 -0.5860080122947693 0.3936138153076172
vn -0.09538944065570831 -0.6747050285339355 -0.7318975329399109
vn -0.3829229176044464 -0.5804023146629333 -0.7186815738677979
vn -0.669449508190155 -0.7155879139900208 -0.1994277387857437
vt 0.0004995167255401611 0.7674797773361206
vt 0.0004995167255401611 0.00099867582321167
vt 0.5000000596046448 0.7674803137779236
vt 0 0
vt 0.5 0
vt 0.5 0.5
vt 1 0
vt 0.0004995167255401611 1.5339609384536743
vt 0.5 0.0009992122650146484
vt 0.999500572681427 0.0009996891021728516
vt 0.7497503757476807 0.5004998445510864
vt 0.999500572681427 1.000000238418579
vt 0.5000001192092896 1
vt 0.5 1
vt 0 1
vt 1 1
vt 0.5000001192092896 1.9990005493164062
vt 0.2502499222755432 1.4995001554489136
vt 0.000499725341796875 1.9990003108978271
vt 0.7497503757476807 1.4995003938674927
vt 0.999500572681427 1.9990007877349854
vt 0.49999919533729553 0.5000001788139343
vt 0.49999916553497314 0.250368595123291
vt 0.749748945236206 0.250249981880188
vt 0.999498724937439 0.000499725341796875
vt 0.9995002746582031 0.7665550708770752
vt 0.9994989633560181 0.9990260601043701
vt 0.4999999701976776 0.8830278515815735
vt 0.0004995763301849365 0.5002374351024628
vt 0.0004994869232177734 0.0009742379188537598
vt 0.999499499797821 0.38352739810943604
vt 0.250249445438385 0.749750405550003
vt 0.0004996657371520996 0.9995006322860718
vt 0.4999993145465851 0.999263346195221
vt 0.49999910593032837 0.0007369518280029297
vt -1.1854294538497925 2.387315273284912
vt -1.8493211269378662 2.616708278656006
vt -1.8488538265228271 2.141786813735962
vt -1.185663104057312 2.624776005744934
vt -1.185429573059082 2.1353482007980347
vt -0.5220053195953369 2.1289095878601074
vt -0.5220050811767578 2.6328437328338623
vt -0.5220052003860474 2.380876660346985
vt 0 0.6527525186538696
vt 0 0.6041005253791809
vt 2 0.6041005253791809
vt 0 0.6879504919052124
vt 2 0.6527525186538696
vt 2 0.6879503726959229
vt 2 0.550000011920929
vt 0 0.550000011920929
vt 0.0658426582813263 0.11453402042388916
vt 0.0033549368381500244 0.11453402042388916
vt 0.05111202597618103 0.16365844011306763
vt 0.11185508966445923 0.16365844011306763
vt 0.19735538959503174 0.11453402042388916
vt 0.3348626494407654 0.11453402042388916
vt 0.37986284494400024 0.16365844011306763
vt 0.4105238914489746 0.11453402042388916
vt 0.4256916642189026 0.16365844011306763
vt 0.0658426582813263 0.0004994869232177734
vt 0.0033549368381500244 0.0004994869232177734
vt 0.19735538959503174 0.0004994869232177734
vt 0.3348626494407654 0.0004994869232177734
vt 0.4105238914489746 0.0004994869232177734
vt 0.8791266083717346 0.11146271228790283
vt 0.8205130696296692 0.11146271228790283
vt 0.8598321676254272 0.0004534125328063965
vt 0.90566086769104 0.0004534125328063965
vt 1.1385859251022339 0.10904723405838013
vt 0.9023058414459229 0.0028687715530395508
vt 1.167311191558838 0.0004533529281616211
vt 1.2603532075881958 0.10904723405838013
vt 1.2131398916244507 0.0004533529281616211
vt 0.8791264891624451 0.1637517213821411
vt 0.8205130696296692 0.1637517213821411
vt 1.1385860443115234 0.1613362431526184
vt 1.2603532075881958 0.1613362431526184
vt 0 1
vt 0.2164689302444458 0.5
vt 0.4329378604888916 1
vt 0 0.5
vt 0 0
vt 0.4329379200935364 0.5
vt 0.43293797969818115 0
vt 0.21646898984909058 0
g Taventrance230
s 1
f 1/1/1 2/2/2 3/3/3
f 4/4/4 5/5/5 6/6/6
f 5/5/5 7/7/7 6/6/6
f 8/8/8 1/1/1 3/3/3
f 3/3/3 9/9/9 10/10/10
f 11/11/11 12/12/12 13/13/13
f 13/13/13 3/3/3 11/11/11
f 11/11/11 3/3/3 10/10/10
f 14/14/14 15/15/15 6/6/6
f 16/16/16 14/14/14 6/6/6
f 13/13/13 17/17/17 18/18/18
f 18/18/18 17/17/17 19/19/19
f 19/19/19 8/8/8 18/18/18
f 18/18/18 8/8/8 13/13/13
f 12/12/12 20/20/20 13/13/13
f 12/12/12 21/21/21 20/20/20
f 13/13/13 8/8/8 3/3/3
f 6/6/6 15/15/15 4/4/4
f 6/6/6 7/7/7 16/16/16
f 20/20/20 21/21/21 17/17/17
f 13/13/13 20/20/20 17/17/17
f 10/10/10 12/12/12 11/11/11
f 3/3/3 2/2/2 9/9/9
g Taventrance231
s 1
f 22/22/22 23/23/23 24/24/24
f 24/24/24 23/23/23 25/25/25
f 24/24/24 26/26/26 22/22/22
f 26/26/26 27/27/27 28/28/28
f 22/22/22 29/29/29 23/23/23
f 29/29/29 30/30/30 23/23/23
f 22/22/22 26/26/26 28/28/28
f 25/25/25 31/31/31 24/24/24
f 31/31/31 26/26/26 24/24/24
f 22/22/22 28/28/28 32/32/32
f 32/32/32 28/28/28 33/33/33
f 33/33/33 29/29/29 32/32/32
f 32/32/32 29/29/29 22/22/22
f 28/28/28 34/34/34 33/33/33
f 23/23/23 35/35/35 25/25/25
f 28/28/28 27/27/27 34/34/34
f 23/23/23 30/30/30 35/35/35
g Taventrance232
s 1
f 36/36/36 37/37/37 38/38/38
f 39/39/39 37/37/37 36/36/36
f 36/36/36 38/38/38 40/40/40
f 36/36/36 40/40/40 41/41/41
f 42/42/42 39/39/39 36/36/36
f 42/42/42 36/36/36 43/43/43
f 43/43/43 36/36/36 41/41/41
g Taventrance233
s 1
f 44/44/44 45/45/45 46/46/46
f 47/47/47 48/48/48 49/49/49
f 47/47/47 44/44/44 48/48/48
f 44/44/44 46/46/46 48/48/48
f 45/45/45 50/50/50 46/46/46
f 45/45/45 51/51/51 50/50/50
f 52/52/52 53/53/53 54/54/54
f 54/54/54 55/55/55 52/52/52
f 56/56/56 57/57/57 58/58/58
f 58/58/58 54/54/54 56/56/56
f 57/57/57 59/59/59 60/60/60
f 60/60/60 58/58/58 57/57/57
f 61/61/61 62/62/62 53/53/53
f 53/53/53 52/52/52 61/61/61
f 63/63/63 64/64/64 57/57/57
f 57/57/57 56/56/56 63/63/63
f 64/64/64 65/65/65 59/59/59
f 59/59/59 57/57/57 64/64/64
f 66/66/66 67/67/67 68/68/68
f 68/68/68 69/69/69 66/66/66
f 70/70/70 66/66/66 71/71/71
f 71/71/71 72/72/72 70/70/70
f 73/73/73 70/70/70 72/72/72
f 72/72/72 74/74/74 73/73/73
f 75/75/75 76/76/76 67/67/67
f 67/67/67 66/66/66 75/75/75
f 77/77/77 75/75/75 66/66/66
f 66/66/66 70/70/70 77/77/77
f 78/78/78 77/77/77 70/70/70
f 70/70/70 73/73/73 78/78/78
g Taventrance234
s 1
f 79/79/79 80/80/80 81/81/81
f 82/82/82 83/83/83 80/80/80
f 79/79/79 82/82/82 80/80/80
f 84/84/84 80/80/80 85/85/85
f 81/81/81 80/80/80 84/84/84
f 80/80/80 83/83/83 86/86/86
f 80/80/80 86/86/86 85/85/85
