# Exported using wow.export v0.2.19
o 21138_Taventrance31.obj
v -420.02166748046875 -3.691385269165039 360.06256103515625
v -420.0184631347656 -5.97271728515625 360.054443359375
v -423.2333984375 -3.69138240814209 358.7386474609375
v -420.0185241699219 -0.0259229876101017 360.0544128417969
v -419.2344970703125 -0.025924257934093475 358.06402587890625
v -419.23126220703125 -0.7179879546165466 358.05596923828125
v -418.4504699707031 -0.0259255301207304 356.07366943359375
v -420.02490234375 -1.4100528955459595 360.0706481933594
v -423.23016357421875 -5.972714424133301 358.73052978515625
v -426.44189453125 -5.97271203994751 357.4066467285156
v -424.8360595703125 -4.4860148429870605 358.068603515625
v -426.44189453125 -2.9993157386779785 357.4066467285156
v -423.230224609375 -2.9993176460266113 358.73052978515625
v -419.2344665527344 -1.4100528955459595 358.0640869140625
v -420.02490234375 -1.4100528955459595 360.0706481933594
v -418.44403076171875 -1.4100528955459595 356.0574951171875
v -423.230224609375 -0.0259212926030159 358.73052978515625
v -421.6243896484375 -1.5126203298568726 359.3924560546875
v -420.0185241699219 -0.0259229876101017 360.0544128417969
v -424.8360595703125 -1.5126186609268188 358.068603515625
v -426.44189453125 -0.02591959573328495 357.4066467285156
v -421.70843505859375 -2.9993178844451904 354.8639221191406
v -421.70843505859375 -4.486015796661377 354.8639221191406
v -420.0794372558594 -4.48601770401001 355.46881103515625
v -418.450439453125 -5.97271728515625 356.07366943359375
v -418.44403076171875 -1.4100528955459595 356.0574951171875
v -418.4504699707031 -0.0259255301207304 356.07366943359375
v -421.70526123046875 -0.7179858088493347 354.8558349609375
v -424.9664611816406 -2.999314546585083 353.6541748046875
v -424.9664611816406 -5.972710609436035 353.6541748046875
v -418.4472351074219 -3.69138503074646 356.0655822753906
v -423.33746337890625 -1.5126183032989502 354.259033203125
v -424.9664611816406 -0.02591874822974205 353.6541748046875
v -421.7084655761719 -0.02592213824391365 354.8639221191406
v -421.70843505859375 -5.972713947296143 354.8639221191406
v -422.4461669921875 -5.972714424133301 356.74017333984375
v -424.9664611816406 -5.972710609436035 353.6541748046875
v -426.44189453125 -5.97271203994751 357.4066467285156
v -421.70843505859375 -5.972713947296143 354.8639221191406
v -423.23016357421875 -5.972714424133301 358.73052978515625
v -420.0184631347656 -5.97271728515625 360.054443359375
v -418.450439453125 -5.97271728515625 356.07366943359375
v -419.23443603515625 -5.97271728515625 358.0640563964844
v -426.11962890625 -5.231530666351318 357.35845947265625
v -426.1869201660156 -5.231530666351318 357.2037658691406
v -426.1869201660156 -0.3222011923789978 357.2037658691406
v -426.13873291015625 -5.231530666351318 357.52606201171875
v -426.11962890625 -0.3222011923789978 357.35845947265625
v -426.13873291015625 -0.3222011923789978 357.52606201171875
v -426.3226623535156 -0.3222028911113739 357.1034240722656
v -426.3226623535156 -5.231532096862793 357.1034240722656
v -426.0174865722656 -5.452062606811523 357.5738525390625
v -425.99072265625 -5.452062606811523 357.3392028808594
v -426.11962890625 -5.231530666351318 357.35845947265625
v -426.13873291015625 -5.231530666351318 357.52606201171875
v -425.99072265625 -5.452062606811523 357.3392028808594
v -426.0848693847656 -5.452062606811523 357.1226501464844
v -426.1869201660156 -5.231530666351318 357.2037658691406
v -426.2749938964844 -5.452064037322998 356.98211669921875
v -426.3226623535156 -5.231532096862793 357.1034240722656
v -426.0174865722656 -5.972715854644775 357.5738525390625
v -425.99072265625 -5.972715854644775 357.3392028808594
v -425.99072265625 -5.972715854644775 357.3392028808594
v -426.0848693847656 -5.972715854644775 357.1226501464844
v -426.2749938964844 -5.97271728515625 356.98211669921875
v -426.01007080078125 -0.1502634733915329 357.34210205078125
v -426.03564453125 -0.1502634733915329 357.566650390625
v -426.13873291015625 -0.3222011923789978 357.52606201171875
v -426.11962890625 -0.3222011923789978 357.35845947265625
v -426.1002197265625 -0.1502634733915329 357.13482666015625
v -426.11962890625 -0.3222011923789978 357.35845947265625
v -426.1869201660156 -0.3222011923789978 357.2037658691406
v -426.2821350097656 -0.150265172123909 357.00030517578125
v -426.3226623535156 -0.3222028911113739 357.1034240722656
v -426.01007080078125 -0.025922562927007675 357.34210205078125
v -426.03564453125 -0.025922562927007675 357.566650390625
v -426.1002197265625 -0.025922562927007675 357.13482666015625
v -426.2821350097656 -0.025924259796738625 357.00030517578125
v -424.9664611816406 -0.02591874822974205 353.6541748046875
v -422.4461669921875 -0.025922562927007675 356.74017333984375
v -426.44189453125 -0.02591959573328495 357.4066467285156
v -421.7084655761719 -0.02592213824391365 354.8639221191406
v -418.4504699707031 -0.0259255301207304 356.07366943359375
v -423.230224609375 -0.0259212926030159 358.73052978515625
v -420.0185241699219 -0.0259229876101017 360.0544128417969
v -419.2344970703125 -0.025924257934093475 358.06402587890625
vn 0.12024739384651184 0.18885837495326996 -0.9746143817901611
vn 0.26896023750305176 0.7084558606147766 -0.6524956822395325
vn 0.11382642388343811 0.1875630021095276 -0.9756349921226501
vn -0.31882697343826294 -0.580409586429596 -0.7493157386779785
vn -0.6495195031166077 -0.7155901193618774 -0.2570120394229889
vn -0.7044367790222168 -0.7031972408294678 -0.09634585678577423
vn -0.7398935556411743 -0.5860064625740051 0.33038464188575745
vn -0.0760662853717804 -0.4055001139640808 -0.9109245538711548
vn 0.2640356421470642 0.7077928185462952 -0.6552210450172424
vn 0.2591025233268738 0.7071069478988647 -0.6579253077507019
vn 0.11736974120140076 0.43117034435272217 -0.8946040868759155
vn 0.36642101407051086 1.6858739115832577e-7 -0.9304491281509399
vn -0.042232125997543335 0.08958975225687027 -0.9950829744338989
vn -0.6535722017288208 -0.7111464738845825 -0.25906386971473694
vn -0.0760662853717804 -0.4055001139640808 -0.9109245538711548
vn -0.6743292808532715 -0.410999059677124 0.6134817004203796
vn -0.03130113333463669 -0.6746934056282043 -0.7374340295791626
vn -0.1954043209552765 -0.2656305134296417 -0.9440643787384033
vn -0.31882697343826294 -0.580409586429596 -0.7493157386779785
vn 0.12197942286729813 -0.3473362326622009 -0.9297733306884766
vn 0.25909507274627686 -0.7071067094802856 -0.657928466796875
vn -0.3573165833950043 -1.6859556239978701e-7 0.9339832663536072
vn -0.3315710723400116 0.382698655128479 0.8623238205909729
vn -0.3265916109085083 0.38268715143203735 0.8642271161079407
vn -0.24613988399505615 0.7071066498756409 0.6628841161727905
vn -0.6743292808532715 -0.410999059677124 0.6134817004203796
vn -0.7398935556411743 -0.5860064625740051 0.33038464188575745
vn -0.48282501101493835 -0.578315019607544 0.6575953960418701
vn -0.3664989471435547 -1.6858739115832577e-7 0.9304184913635254
vn -0.2591502070426941 0.7071066498756409 0.6579068303108215
vn -0.574838399887085 0.18492093682289124 0.79709792137146
vn -0.3336367607116699 -0.38268741965293884 0.861531674861908
vn -0.25915759801864624 -0.70710688829422 0.6579036712646484
vn -0.5231451988220215 -0.6771285533905029 0.5175093412399292
vn -0.252651184797287 0.7071238160133362 0.660411536693573
vn 0.009165528230369091 0.9999518394470215 0.0035062378738075495
vn -0.2591502070426941 0.7071066498756409 0.6579068303108215
vn 0.2591025233268738 0.7071069478988647 -0.6579253077507019
vn -0.252651184797287 0.7071238160133362 0.660411536693573
vn 0.2640356421470642 0.7077928185462952 -0.6552210450172424
vn 0.26896023750305176 0.7084558606147766 -0.6524956822395325
vn -0.24613988399505615 0.7071066498756409 0.6628841161727905
vn 0.016118520870804787 0.9998431205749512 0.007337580900639296
vn 0.9536816477775574 0.26488813757896423 -0.14256803691387177
vn 0.7546585202217102 0.2649119794368744 -0.6002600789070129
vn 0.7504504323005676 -0.2836807668209076 -0.5969500541687012
vn 0.9603451490402222 0.2564474046230316 0.10941623896360397
vn 0.9483769536018372 -0.28368932008743286 -0.14177989959716797
vn 0.9553276300430298 -0.27477940917015076 0.10883673280477524
vn 0.35147932171821594 -0.28369438648223877 -0.8921769857406616
vn 0.3534263074398041 0.2648736834526062 -0.897179901599884
vn 0.9603345990180969 0.25646525621414185 0.1094670295715332
vn 0.9536876678466797 0.2649049758911133 -0.14249640703201294
vn 0.9536816477775574 0.26488813757896423 -0.14256803691387177
vn 0.9603451490402222 0.2564474046230316 0.10941623896360397
vn 0.9536876678466797 0.2649049758911133 -0.14249640703201294
vn 0.7546451091766357 0.26489871740341187 -0.6002827882766724
vn 0.7546585202217102 0.2649119794368744 -0.6002600789070129
vn 0.3534238934516907 0.26487913727760315 -0.8971792459487915
vn 0.3534263074398041 0.2648736834526062 -0.897179901599884
vn 0.9935659766197205 0 0.11325503140687943
vn 0.9890205264091492 0 -0.14777803421020508
vn 0.9890205264091492 0 -0.14777803421020508
vn 0.7826045751571655 0 -0.6225191950798035
vn 0.36651483178138733 0 -0.930412232875824
vn 0.9483763575553894 -0.2836916148662567 -0.14177915453910828
vn 0.955328643321991 -0.27477937936782837 0.10882759839296341
vn 0.9553276300430298 -0.27477940917015076 0.10883673280477524
vn 0.9483769536018372 -0.28368932008743286 -0.14177989959716797
vn 0.7504611015319824 -0.2836747467517853 -0.5969395041465759
vn 0.9483769536018372 -0.28368932008743286 -0.14177989959716797
vn 0.7504504323005676 -0.2836807668209076 -0.5969500541687012
vn 0.351467490196228 -0.2836973965167999 -0.8921806812286377
vn 0.35147932171821594 -0.28369438648223877 -0.8921769857406616
vn 0.9890096187591553 0 -0.14785136282444
vn 0.9935740232467651 0 0.1131843701004982
vn 0.7826098799705505 0 -0.6225124597549438
vn 0.36652565002441406 0 -0.9304079413414001
vn -0.25915759801864624 -0.70710688829422 0.6579036712646484
vn -0.33907902240753174 -0.9119570255279541 -0.2309974730014801
vn 0.25909507274627686 -0.7071067094802856 -0.657928466796875
vn -0.5231451988220215 -0.6771285533905029 0.5175093412399292
vn -0.7398935556411743 -0.5860064625740051 0.33038464188575745
vn -0.03130113333463669 -0.6746934056282043 -0.7374340295791626
vn -0.31882697343826294 -0.580409586429596 -0.7493157386779785
vn -0.6495195031166077 -0.7155901193618774 -0.2570120394229889
vt 0.0004995167255401611 0.7674797773361206
vt 0.0004995167255401611 0.00099867582321167
vt 0.5000000596046448 0.7674803137779236
vt 0 0
vt 0.5 0
vt 0.5 0.5
vt 1 0
vt 0.0004995167255401611 1.5339609384536743
vt 0.5 0.0009992122650146484
vt 0.999500572681427 0.0009996891021728516
vt 0.7497503757476807 0.5004998445510864
vt 0.999500572681427 1.000000238418579
vt 0.5000001192092896 1
vt 0.5 1
vt 0 1
vt 1 1
vt 0.5000001192092896 1.9990005493164062
vt 0.2502499222755432 1.4995001554489136
vt 0.000499725341796875 1.9990003108978271
vt 0.7497503757476807 1.4995003938674927
vt 0.999500572681427 1.9990007877349854
vt 0.49999919533729553 0.5000001788139343
vt 0.49999916553497314 0.250368595123291
vt 0.749748945236206 0.250249981880188
vt 0.999498724937439 0.000499725341796875
vt 0.9995002746582031 0.7665550708770752
vt 0.9994989633560181 0.9990260601043701
vt 0.4999999701976776 0.8830278515815735
vt 0.0004995763301849365 0.5002374351024628
vt 0.0004994869232177734 0.0009742379188537598
vt 0.999499499797821 0.38352739810943604
vt 0.250249445438385 0.749750405550003
vt 0.0004996657371520996 0.9995006322860718
vt 0.4999993145465851 0.999263346195221
vt 0.49999910593032837 0.0007369518280029297
vt -1.1854294538497925 2.387315273284912
vt -1.8493211269378662 2.616708278656006
vt -1.8488538265228271 2.141786813735962
vt -1.185663104057312 2.624776005744934
vt -1.185429573059082 2.1353482007980347
vt -0.5220053195953369 2.1289095878601074
vt -0.5220050811767578 2.6328437328338623
vt -0.5220052003860474 2.380876660346985
vt 0 0.6527525186538696
vt 0 0.6041005253791809
vt 2 0.6041005253791809
vt 0 0.6879504919052124
vt 2 0.6527525186538696
vt 2 0.6879503726959229
vt 2 0.550000011920929
vt 0 0.550000011920929
vt 0.0658426582813263 0.11453402042388916
vt 0.0033549368381500244 0.11453402042388916
vt 0.05111202597618103 0.16365844011306763
vt 0.11185508966445923 0.16365844011306763
vt 0.19735538959503174 0.11453402042388916
vt 0.3348626494407654 0.11453402042388916
vt 0.37986284494400024 0.16365844011306763
vt 0.4105238914489746 0.11453402042388916
vt 0.4256916642189026 0.16365844011306763
vt 0.0658426582813263 0.0004994869232177734
vt 0.0033549368381500244 0.0004994869232177734
vt 0.19735538959503174 0.0004994869232177734
vt 0.3348626494407654 0.0004994869232177734
vt 0.4105238914489746 0.0004994869232177734
vt 0.8791266083717346 0.11146271228790283
vt 0.8205130696296692 0.11146271228790283
vt 0.8598321676254272 0.0004534125328063965
vt 0.90566086769104 0.0004534125328063965
vt 1.1385859251022339 0.10904723405838013
vt 0.9023058414459229 0.0028687715530395508
vt 1.167311191558838 0.0004533529281616211
vt 1.2603532075881958 0.10904723405838013
vt 1.2131398916244507 0.0004533529281616211
vt 0.8791264891624451 0.1637517213821411
vt 0.8205130696296692 0.1637517213821411
vt 1.1385860443115234 0.1613362431526184
vt 1.2603532075881958 0.1613362431526184
vt 0 1
vt 0.2164689302444458 0.5
vt 0.4329378604888916 1
vt 0 0.5
vt 0 0
vt 0.4329379200935364 0.5
vt 0.43293797969818115 0
vt 0.21646898984909058 0
g Taventrance310
s 1
f 1/1/1 2/2/2 3/3/3
f 4/4/4 5/5/5 6/6/6
f 5/5/5 7/7/7 6/6/6
f 8/8/8 1/1/1 3/3/3
f 3/3/3 9/9/9 10/10/10
f 11/11/11 12/12/12 13/13/13
f 13/13/13 3/3/3 11/11/11
f 11/11/11 3/3/3 10/10/10
f 14/14/14 15/15/15 6/6/6
f 16/16/16 14/14/14 6/6/6
f 13/13/13 17/17/17 18/18/18
f 18/18/18 17/17/17 19/19/19
f 19/19/19 8/8/8 18/18/18
f 18/18/18 8/8/8 13/13/13
f 12/12/12 20/20/20 13/13/13
f 12/12/12 21/21/21 20/20/20
f 13/13/13 8/8/8 3/3/3
f 6/6/6 15/15/15 4/4/4
f 6/6/6 7/7/7 16/16/16
f 20/20/20 21/21/21 17/17/17
f 13/13/13 20/20/20 17/17/17
f 10/10/10 12/12/12 11/11/11
f 3/3/3 2/2/2 9/9/9
g Taventrance311
s 1
f 22/22/22 23/23/23 24/24/24
f 24/24/24 23/23/23 25/25/25
f 24/24/24 26/26/26 22/22/22
f 26/26/26 27/27/27 28/28/28
f 22/22/22 29/29/29 23/23/23
f 29/29/29 30/30/30 23/23/23
f 22/22/22 26/26/26 28/28/28
f 25/25/25 31/31/31 24/24/24
f 31/31/31 26/26/26 24/24/24
f 22/22/22 28/28/28 32/32/32
f 32/32/32 28/28/28 33/33/33
f 33/33/33 29/29/29 32/32/32
f 32/32/32 29/29/29 22/22/22
f 28/28/28 34/34/34 33/33/33
f 23/23/23 35/35/35 25/25/25
f 28/28/28 27/27/27 34/34/34
f 23/23/23 30/30/30 35/35/35
g Taventrance312
s 1
f 36/36/36 37/37/37 38/38/38
f 39/39/39 37/37/37 36/36/36
f 36/36/36 38/38/38 40/40/40
f 36/36/36 40/40/40 41/41/41
f 42/42/42 39/39/39 36/36/36
f 42/42/42 36/36/36 43/43/43
f 43/43/43 36/36/36 41/41/41
g Taventrance313
s 1
f 44/44/44 45/45/45 46/46/46
f 47/47/47 48/48/48 49/49/49
f 47/47/47 44/44/44 48/48/48
f 44/44/44 46/46/46 48/48/48
f 45/45/45 50/50/50 46/46/46
f 45/45/45 51/51/51 50/50/50
f 52/52/52 53/53/53 54/54/54
f 54/54/54 55/55/55 52/52/52
f 56/56/56 57/57/57 58/58/58
f 58/58/58 54/54/54 56/56/56
f 57/57/57 59/59/59 60/60/60
f 60/60/60 58/58/58 57/57/57
f 61/61/61 62/62/62 53/53/53
f 53/53/53 52/52/52 61/61/61
f 63/63/63 64/64/64 57/57/57
f 57/57/57 56/56/56 63/63/63
f 64/64/64 65/65/65 59/59/59
f 59/59/59 57/57/57 64/64/64
f 66/66/66 67/67/67 68/68/68
f 68/68/68 69/69/69 66/66/66
f 70/70/70 66/66/66 71/71/71
f 71/71/71 72/72/72 70/70/70
f 73/73/73 70/70/70 72/72/72
f 72/72/72 74/74/74 73/73/73
f 75/75/75 76/76/76 67/67/67
f 67/67/67 66/66/66 75/75/75
f 77/77/77 75/75/75 66/66/66
f 66/66/66 70/70/70 77/77/77
f 78/78/78 77/77/77 70/70/70
f 70/70/70 73/73/73 78/78/78
g Taventrance314
s 1
f 79/79/79 80/80/80 81/81/81
f 82/82/82 83/83/83 80/80/80
f 79/79/79 82/82/82 80/80/80
f 84/84/84 80/80/80 85/85/85
f 81/81/81 80/80/80 84/84/84
f 80/80/80 83/83/83 86/86/86
f 80/80/80 86/86/86 85/85/85
