# Exported using wow.export v0.2.19
o 21138_TreeFacades12.obj
v -171.77516174316406 3.3289287090301514 218.390380859375
v -171.21250915527344 3.3289287090301514 218.78436279296875
v -171.6064910888672 3.3289287090301514 219.3470001220703
v -172.1691436767578 3.3289287090301514 218.95303344726562
v -171.77516174316406 3.9242143630981445 218.390380859375
v -172.1691436767578 3.9242143630981445 218.95303344726562
v -171.6064910888672 3.9242143630981445 219.3470001220703
v -171.21250915527344 3.9242143630981445 218.78436279296875
v -171.77516174316406 3.3289287090301514 218.390380859375
v -172.1691436767578 3.3289287090301514 218.95303344726562
v -172.1691436767578 3.9242143630981445 218.95303344726562
v -171.77516174316406 3.9242143630981445 218.390380859375
v -172.1691436767578 3.3289287090301514 218.95303344726562
v -171.6064910888672 3.3289287090301514 219.3470001220703
v -171.6064910888672 3.9242143630981445 219.3470001220703
v -172.1691436767578 3.9242143630981445 218.95303344726562
v -171.6064910888672 3.3289287090301514 219.3470001220703
v -171.21250915527344 3.3289287090301514 218.78436279296875
v -171.21250915527344 3.9242143630981445 218.78436279296875
v -171.6064910888672 3.9242143630981445 219.3470001220703
v -171.21250915527344 3.3289287090301514 218.78436279296875
v -171.77516174316406 3.3289287090301514 218.390380859375
v -171.77516174316406 3.9242143630981445 218.390380859375
v -171.21250915527344 3.9242143630981445 218.78436279296875
vn 0 -1 0
vn 0 -1 0
vn 0 -1 0
vn 0 -1 0
vn 0 1 0
vn 0 1 0
vn 0 1 0
vn 0 1 0
vn -0.819149374961853 0 -0.573580265045166
vn -0.819149374961853 0 -0.573580265045166
vn -0.819149374961853 0 -0.573580265045166
vn -0.819149374961853 0 -0.573580265045166
vn -0.573580265045166 0 0.819149374961853
vn -0.573580265045166 0 0.819149374961853
vn -0.573580265045166 0 0.819149374961853
vn -0.573580265045166 0 0.819149374961853
vn 0.819149374961853 0 0.573580265045166
vn 0.819149374961853 0 0.573580265045166
vn 0.819149374961853 0 0.573580265045166
vn 0.819149374961853 0 0.573580265045166
vn 0.573580265045166 0 -0.819149374961853
vn 0.573580265045166 0 -0.819149374961853
vn 0.573580265045166 0 -0.819149374961853
vn 0.573580265045166 0 -0.819149374961853
vt 0.9995005130767822 0.000499725341796875
vt 0.9995002746582031 0.9995005130767822
vt 0.0004994869232177734 0.9995002746582031
vt 0.000499725341796875 0.0004994869232177734
vt 0.0004994869232177734 0.000499725341796875
vt 0.9995002746582031 0.0004994869232177734
vt 0.9995005130767822 0.9995002746582031
vt 0.000499725341796875 0.9995005130767822
vt 0.0004994869232177734 0.0004994869232177734
vt 0.9995002746582031 0.0004994869232177734
vt 0.9995002746582031 0.9995005130767822
vt 0.0004994869232177734 0.9995005130767822
vt 0.0004994869232177734 0.0004994869232177734
vt 0.9995002746582031 0.0004994869232177734
vt 0.9995002746582031 0.9995005130767822
vt 0.0004994869232177734 0.9995005130767822
vt 0.0004994869232177734 0.0004994869232177734
vt 0.9995002746582031 0.0004994869232177734
vt 0.9995002746582031 0.9995005130767822
vt 0.0004994869232177734 0.9995005130767822
vt 0.0004994869232177734 0.0004994869232177734
vt 0.9995002746582031 0.0004994869232177734
vt 0.9995002746582031 0.9995005130767822
vt 0.0004994869232177734 0.9995005130767822
g TreeFacades120
s 1
f 1/1/1 2/2/2 3/3/3
f 3/3/3 4/4/4 1/1/1
f 5/5/5 6/6/6 7/7/7
f 7/7/7 8/8/8 5/5/5
f 9/9/9 10/10/10 11/11/11
f 11/11/11 12/12/12 9/9/9
f 13/13/13 14/14/14 15/15/15
f 15/15/15 16/16/16 13/13/13
f 17/17/17 18/18/18 19/19/19
f 19/19/19 20/20/20 17/17/17
f 21/21/21 22/22/22 23/23/23
f 23/23/23 24/24/24 21/21/21
