# Exported using wow.export v0.2.19
o 21138_NEH02.obj
v -402.16778564453125 6.811701774597168 162.9300537109375
v -402.45782470703125 7.2145233154296875 167.65243530273438
v -402.4578552246094 7.21451997756958 162.9300537109375
v -407.17938232421875 8.426332473754883 167.65245056152344
v -406.7540588378906 8.561516761779785 158.20770263671875
v -406.7540283203125 8.5615234375 167.65245056152344
v -409.18927001953125 7.214516639709473 158.2077178955078
v -408.00091552734375 8.021984100341797 162.93008422851562
v -408.7931213378906 7.4836745262146 162.93008422851562
v -406.75396728515625 8.561529159545898 177.09719848632812
v -409.479248046875 6.811707496643066 172.3748321533203
v -410.34942626953125 5.603254795074463 177.09719848632812
v -410.05938720703125 6.006070137023926 172.3748321533203
v -408.39697265625 7.752832412719727 167.6524658203125
v -409.189208984375 7.2145233154296875 167.6524658203125
v -409.76934814453125 6.408885955810547 167.6524658203125
v -407.8028564453125 8.156562805175781 165.291259765625
v -408.0008850097656 8.021986961364746 167.6524658203125
v -408.0008544921875 8.021989822387695 172.3748321533203
v -410.3494873046875 5.603248596191406 167.6524658203125
v -402.8539123535156 7.483680725097656 172.37481689453125
v -404.0422058105469 8.29114818572998 177.09718322753906
v -403.6461181640625 8.021989822387695 172.37481689453125
v -402.167724609375 6.811708450317383 172.37481689453125
v -402.4577941894531 7.214526176452637 172.37481689453125
v -403.25006103515625 7.752832412719727 167.65243530273438
v -410.0594482421875 6.006064414978027 162.93008422851562
v -409.47930908203125 6.81170129776001 162.93008422851562
v -404.4676513671875 8.426331520080566 167.65243530273438
v -404.8930358886719 8.561521530151367 167.65243530273438
v -404.8930969238281 8.561514854431152 158.2076873779297
v -404.8929748535156 8.561528205871582 177.09718322753906
v -402.457763671875 7.214529514312744 177.09718322753906
v -409.3342590332031 7.0131120681762695 165.29127502441406
v -401.58758544921875 6.006072044372559 172.37481689453125
v -401.877685546875 6.408886909484863 167.65243530273438
v -401.297607421875 5.603243827819824 158.20767211914062
v -401.587646484375 6.006065368652344 162.9300537109375
v -401.4425964355469 5.804657936096191 165.29124450683594
v -410.4765930175781 5.1280951499938965 172.3748321533203
v -410.85797119140625 3.7026283740997314 177.09719848632812
v -410.7308654785156 4.17778205871582 172.3748321533203
v -410.603759765625 4.65293550491333 167.6524658203125
v -410.8580322265625 3.702622175216675 167.6524658203125
v -410.73089599609375 4.177775859832764 162.93008422851562
v -410.3495178222656 5.603242874145508 158.2077178955078
v -410.47662353515625 5.12808895111084 162.93008422851562
v -401.04327392578125 4.6529364585876465 167.65243530273438
v -400.9161376953125 4.177779674530029 167.65243530273438
v -400.9161376953125 4.177783012390137 172.37481689453125
v -400.9161682128906 4.177776336669922 162.9300537109375
v -404.4676818847656 8.426328659057617 162.9300537109375
v -404.04229736328125 8.2911376953125 162.9300537109375
v -404.0422668457031 8.291141510009766 167.65243530273438
v -407.17938232421875 8.426335334777832 172.37481689453125
v -407.604736328125 8.291145324707031 172.37481689453125
v -407.6047668457031 8.291141510009766 167.65245056152344
v -410.8580322265625 3.7026190757751465 162.93008422851562
v -410.8580627441406 3.702615976333618 158.2077178955078
v -410.3494567871094 5.6032514572143555 172.3748321533203
v -401.17041015625 5.128096580505371 172.37481689453125
v -401.29754638671875 5.603253364562988 172.37481689453125
v -401.29754638671875 5.603250503540039 167.65243530273438
v -401.2975158691406 5.603256702423096 177.09718322753906
v -410.3494873046875 5.603245735168457 162.93008422851562
v -400.85260009765625 3.9401979446411133 162.9300537109375
v -400.7890625 3.702615976333618 158.20765686035156
v -400.8208312988281 3.8214077949523926 161.74945068359375
v -400.85260009765625 3.940199375152588 165.29122924804688
v -408.7930603027344 7.483680725097656 172.3748321533203
v -409.1891784667969 7.214526176452637 172.3748321533203
v -409.18914794921875 7.214529514312744 177.09719848632812
v -402.8539733886719 7.4836745262146 162.9300537109375
v -401.1704406738281 5.128089904785156 162.9300537109375
v -403.64617919921875 8.021984100341797 162.9300537109375
v -402.4578857421875 7.214516639709473 158.20767211914062
v -404.0423278808594 8.29113483428955 158.2076873779297
v -407.6048278808594 8.291135787963867 158.20770263671875
v -407.39208984375 8.358734130859375 162.93008422851562
v -407.60479736328125 8.291138648986816 162.93008422851562
v -409.1892395019531 7.21451997756958 162.93008422851562
v -404.25494384765625 8.358739852905273 172.37481689453125
v -404.042236328125 8.291145324707031 172.37481689453125
v -409.40673828125 6.912409782409668 168.8330535888672
v -407.703857421875 8.223849296569824 161.74948120117188
v -407.90185546875 8.089276313781738 168.83303833007812
v -401.3701171875 5.703950881958008 161.74945068359375
v -401.2975769042969 5.603247165679932 162.9300537109375
v -400.7889709472656 3.7026290893554688 177.09718322753906
v -409.26177978515625 7.113814353942871 161.74949645996094
v -401.51507568359375 5.905364990234375 168.83303833007812
v -410.8580017089844 3.702625274658203 172.3748321533203
v -407.6047058105469 8.29114818572998 177.09719848632812
v -400.7890319824219 3.7026190757751465 162.93003845214844
v -400.78900146484375 3.702622413635254 167.6524200439453
v -400.8843688964844 4.058991432189941 168.83302307128906
v -400.78900146484375 3.7026257514953613 172.3748016357422
v -401.60552978515625 -0.8124537467956543 172.37481689453125
v -401.6049499511719 -1.1141705513000488 177.09718322753906
v -401.607177734375 0.0908711776137352 177.09718322753906
v -410.03973388671875 -0.21039137244224548 172.37481689453125
v -410.0397033691406 0.0908711776137352 177.09719848632812
v -410.03973388671875 -1.1141705513000488 177.09719848632812
v -401.4669494628906 3.3953795433044434 177.09718322753906
v -400.7889709472656 3.7026290893554688 177.09718322753906
v -400.78900146484375 3.7026257514953613 172.3748016357422
v -410.0397644042969 0.09086693823337555 167.65245056152344
v -410.039794921875 -0.5116539001464844 167.65245056152344
v -401.606689453125 -0.20993712544441223 162.9300537109375
v -401.6072998046875 0.0908626988530159 158.20765686035156
v -401.6049499511719 -1.1123449802398682 158.20770263671875
v -401.60723876953125 0.09086693823337555 167.6524200439453
v -401.6060791015625 -0.5107369422912598 167.65243530273438
v -410.039794921875 -0.21039560437202454 162.93008422851562
v -410.03973388671875 -1.1123449802398682 158.20770263671875
v -410.0398254394531 0.0908626988530159 158.20770263671875
v -410.51904296875 3.5489978790283203 167.65245056152344
v -410.8580322265625 3.702622175216675 167.6524658203125
v -410.8580017089844 3.702625274658203 172.3748321533203
v -401.6049499511719 -7.3913445472717285 158.20770263671875
v -401.6049499511719 -7.391800880432129 162.93006896972656
v -401.6049499511719 -6.999249458312988 161.74948120117188
v -401.6049499511719 -6.60715389251709 165.291259765625
v -401.6049499511719 -5.822051048278809 162.93006896972656
v -401.6049499511719 -7.392256736755371 167.65243530273438
v -410.03973388671875 -1.1137142181396484 172.37481689453125
v -410.03973388671875 -1.1132577657699585 167.65245056152344
v -410.0397644042969 -0.8129122257232666 172.37481689453125
v -410.03973388671875 -1.1132577657699585 167.65245056152344
v -410.03973388671875 -1.1137142181396484 172.37481689453125
v -410.03973388671875 -1.8983607292175293 170.01364135742188
v -410.1537170410156 2.7757797241210938 168.83303833007812
v -410.1625061035156 2.982308864593506 165.291259765625
v -410.1800231933594 3.395373821258545 167.65245056152344
v -410.1449279785156 2.5692505836486816 172.37481689453125
v -410.03973388671875 -2.6825509071350098 162.93008422851562
v -410.03973388671875 -5.036947727203369 160.5688934326172
v -410.03973388671875 -1.1123449802398682 158.20770263671875
v -410.03973388671875 -7.3913445472717285 158.20770263671875
v -410.1098937988281 1.7431213855743408 167.65245056152344
v -401.6072082519531 0.09086905419826508 172.3748016357422
v -401.60662841796875 -0.2099328637123108 172.37481689453125
v -401.5721435546875 0.9169949293136597 172.3748016357422
v -400.7890625 3.702615976333618 158.20765686035156
v -401.4670715332031 3.3953661918640137 158.20765686035156
v -401.467041015625 3.395369529724121 162.93003845214844
v -410.03973388671875 -7.392256736755371 167.65245056152344
v -410.03973388671875 -5.822051048278809 162.93008422851562
v -410.03973388671875 -4.2527570724487305 167.65245056152344
v -401.5020751953125 2.569242477416992 162.93003845214844
v -410.03973388671875 -5.822962760925293 172.37481689453125
v -410.03973388671875 -3.468566656112671 174.7360076904297
v -410.03973388671875 -7.393168926239014 177.09719848632812
v -410.03973388671875 -1.1141705513000488 177.09719848632812
v -401.4670104980469 3.3953728675842285 167.6524200439453
v -410.85797119140625 3.7026283740997314 177.09719848632812
v -410.1799621582031 3.3953800201416016 177.09719848632812
v -410.17999267578125 3.3953769207000732 172.37481689453125
v -401.6049499511719 -4.252757549285889 167.65243530273438
v -401.6049499511719 -5.822963237762451 172.37481689453125
v -401.6049499511719 -2.6834640502929688 172.37481689453125
v -401.6049499511719 -3.46856689453125 174.73599243164062
v -401.6049499511719 -7.393168926239014 177.09718322753906
v -401.6049499511719 -1.1141705513000488 177.09718322753906
v -401.6049499511719 -1.1128013134002686 162.93006896972656
v -401.6049499511719 -1.1132577657699585 167.65243530273438
v -401.605224609375 -0.9623993635177612 165.291259765625
v -401.6049499511719 -1.1128013134002686 162.93006896972656
v -401.6049499511719 -1.1123449802398682 158.20770263671875
v -401.6049499511719 -2.682551383972168 162.93006896972656
v -401.6049499511719 -1.1132577657699585 167.65243530273438
v -401.6049499511719 -6.215058326721191 168.83303833007812
v -401.6049499511719 -5.036948204040527 160.56887817382812
v -401.6049499511719 -7.392712593078613 172.37481689453125
v -401.6049499511719 -2.6830077171325684 167.65243530273438
v -410.0747985839844 0.9169963002204895 172.37481689453125
v -410.03973388671875 -2.6834638118743896 172.37481689453125
v -410.03973388671875 -3.8606619834899902 171.19422912597656
v -410.03973388671875 -7.391800880432129 162.93008422851562
v -410.0748596191406 0.9169920682907104 162.93008422851562
v -410.1800842285156 3.395367383956909 158.20770263671875
v -410.1449890136719 2.569244384765625 162.93008422851562
v -410.03973388671875 -2.2904558181762695 166.47186279296875
v -401.537109375 1.7431186437606812 167.6524200439453
v -401.57220458984375 0.9169906377792358 162.93003845214844
v -401.50201416015625 2.569249153137207 172.3748016357422
v -410.03973388671875 -4.644852638244629 164.1106719970703
v -410.03973388671875 -7.392712593078613 172.37481689453125
v -410.03973388671875 -1.1128013134002686 162.93008422851562
v -410.03973388671875 -1.1128013134002686 162.93008422851562
v -410.03973388671875 0.09086905419826508 172.37481689453125
v -410.0397644042969 -0.8119994401931763 162.93008422851562
v -401.60552978515625 -0.811540961265564 162.93006896972656
v -410.8580627441406 3.702615976333618 158.2077178955078
v -410.8580322265625 3.7026190757751465 162.93008422851562
v -401.6072692871094 0.09086482226848602 162.93003845214844
v -401.46697998046875 3.395376205444336 172.3748016357422
v -410.039794921875 0.09086482226848602 162.93008422851562
v -401.12799072265625 3.5489978790283203 167.6524200439453
v -400.7890319824219 3.7026190757751465 162.93003845214844
v -400.9585266113281 3.6258068084716797 162.93003845214844
v -400.78900146484375 3.702622413635254 167.6524200439453
v -401.1280212402344 3.5489959716796875 165.29122924804688
v -401.12799072265625 3.5490009784698486 172.3748016357422
v -401.1280517578125 3.548994541168213 162.93003845214844
v -410.51898193359375 3.5490012168884277 172.37481689453125
v -401.6049499511719 -1.5062657594680786 173.55540466308594
v -401.6049499511719 -1.8983609676361084 170.0136260986328
v -401.6049499511719 -1.8985891342163086 172.37481689453125
v -401.6049499511719 -1.1137142181396484 172.37481689453125
v -401.6049499511719 -2.2904562950134277 166.4718475341797
v -410.03973388671875 -1.506265640258789 173.555419921875
v -410.6885070800781 3.6258130073547363 172.37481689453125
v -401.2974853515625 3.4721860885620117 168.8330078125
v -401.6051025390625 -1.03737211227417 161.74948120117188
v -410.51904296875 3.548994779586792 162.93008422851562
v -410.34954833984375 3.4721827507019043 162.93008422851562
v -410.1800537109375 3.3953704833984375 162.93008422851562
v -401.2974853515625 3.472188711166382 172.3748016357422
v -401.6053771972656 -0.8874265551567078 168.83303833007812
v -410.1712951660156 3.188838005065918 161.74948120117188
v -401.6049499511719 -1.1137142181396484 172.37481689453125
v -404.8929748535156 8.561528205871582 177.09718322753906
v -404.92315673828125 8.369939804077148 170.01361083984375
v -404.9231872558594 8.369937896728516 167.65243530273438
v -404.9532775878906 8.178360939025879 177.09718322753906
v -404.95330810546875 8.17835807800293 172.37481689453125
v -406.6937561035156 8.17834758758545 158.20770263671875
v -404.9533996582031 8.17834758758545 158.2076873779297
v -405.3884582519531 8.178350448608398 162.9300537109375
v -406.2586364746094 8.178350448608398 162.93006896972656
v -406.6936950683594 8.178353309631348 167.65245056152344
v -406.6937255859375 8.178350448608398 162.93008422851562
v -406.7540588378906 8.561516761779785 158.20770263671875
v -406.6937561035156 8.17834758758545 158.20770263671875
v -406.6937255859375 8.178350448608398 162.93008422851562
v -405.8235168457031 8.178354263305664 167.65243530273438
v -406.2585754394531 8.178356170654297 172.37481689453125
v -404.9532775878906 8.178360939025879 177.09718322753906
v -406.6936340332031 8.178359031677246 177.09719848632812
v -406.708740234375 8.274147033691406 171.19422912597656
v -406.69366455078125 8.178356170654297 172.37481689453125
v -406.6936340332031 8.178359031677246 177.09719848632812
v -404.953369140625 8.178350448608398 162.9300537109375
v -404.9533386230469 8.178354263305664 167.65243530273438
v -406.69366455078125 8.178356170654297 172.37481689453125
v -404.92315673828125 8.369941711425781 172.37481689453125
v -404.9533386230469 8.178354263305664 167.65243530273438
v -406.723876953125 8.369935035705566 162.93008422851562
v -406.6936950683594 8.178353309631348 167.65245056152344
v -406.723876953125 8.369935989379883 165.291259765625
v -405.3883972167969 8.17835807800293 172.37481689453125
v -406.7087707519531 8.27414608001709 168.83303833007812
v -404.9382629394531 8.274145126342773 166.47183227539062
v -404.953369140625 8.178350448608398 162.9300537109375
v -404.93829345703125 8.27414321899414 164.11065673828125
v -404.8930358886719 8.561521530151367 167.65243530273438
v -404.9533996582031 8.17834758758545 158.2076873779297
v -404.95330810546875 8.17835807800293 172.37481689453125
v -404.8930969238281 8.561514854431152 158.2076873779297
v -406.7540283203125 8.5615234375 167.65245056152344
v -406.75396728515625 8.561529159545898 177.09719848632812
v -404.032470703125 -1.2926170825958252 172.37481689453125
v -406.069580078125 -1.2445464134216309 171.1942138671875
v -406.47235107421875 -1.3887584209442139 174.7360076904297
v -405.6667785644531 -1.1003345251083374 167.65243530273438
v -408.9237976074219 -1.1003345251083374 167.65245056152344
v -407.28948974609375 -1.2926170825958252 172.37481689453125
v -403.6600036621094 -1.1484050750732422 168.83303833007812
v -403.28753662109375 -1.0041931867599487 165.29124450683594
v -407.30108642578125 -0.9080518484115601 162.93006896972656
v -404.92181396484375 -0.8119105100631714 160.56887817382812
v -408.93536376953125 -0.7157692313194275 158.20770263671875
v -402.5425720214844 -0.7157692313194275 158.20767211914062
v -402.398193359375 -1.4848997592926025 177.09718322753906
v -408.9122314453125 -1.4848997592926025 177.09719848632812
v -402.9150390625 -0.8599811792373657 161.74945068359375
v -404.10467529296875 -0.9080518484115601 162.9300537109375
v -408.91802978515625 -1.2926170825958252 172.37481689453125
v -402.47039794921875 -1.1003345251083374 167.65243530273438
v -402.8428649902344 -1.2445464134216309 171.1942138671875
v -403.02911376953125 -1.3166524171829224 172.96511840820312
v -408.9295654296875 -0.9080518484115601 162.93008422851562
v -402.5064697265625 -0.9080518484115601 162.9300537109375
v -405.2943115234375 -0.9561225175857544 164.11065673828125
v -409.15545654296875 -0.9680758714675903 172.37481689453125
v -409.4843444824219 -0.9680758714675903 172.37481689453125
v -409.1353759765625 -1.159536600112915 177.09719848632812
v -409.175537109375 -0.7766151428222656 167.65245056152344
v -409.0353698730469 -0.9376529455184937 167.65245056152344
v -408.9122314453125 -1.4848997592926025 177.09719848632812
v -408.91802978515625 -1.2926170825958252 172.37481689453125
v -402.47039794921875 -1.1003345251083374 167.65243530273438
v -402.398193359375 -1.4848997592926025 177.09718322753906
v -402.175048828125 -1.159536600112915 177.09718322753906
v -402.2630920410156 -0.3936936557292938 158.20765686035156
v -402.5425720214844 -0.7157692313194275 158.20767211914062
v -402.21905517578125 -0.7766151428222656 167.6524200439453
v -409.19561767578125 -0.5851544141769409 162.93008422851562
v -409.5245056152344 -0.5851544141769409 162.93008422851562
v -409.2156982421875 -0.3936936557292938 158.20770263671875
v -408.93536376953125 -0.7157692313194275 158.20770263671875
v -410.48577880859375 -0.5851544141769409 162.91912841796875
v -410.1822509765625 -0.5851544141769409 162.93008422851562
v -410.5312194824219 -0.3936936557292938 158.20770263671875
v -410.4403076171875 -0.7766151428222656 167.63055419921875
v -410.1368103027344 -0.7766151428222656 167.64151000976562
v -409.83331298828125 -0.7766151428222656 167.65245056152344
v -410.09136962890625 -0.9680758714675903 172.35293579101562
v -410.2658386230469 -0.872345507144928 169.9917449951172
v -401.04315185546875 -1.159536600112915 177.09718322753906
v -401.03411865234375 -0.9680758714675903 172.3748016357422
v -401.31707763671875 -0.9680758714675903 172.3748016357422
v -401.0250549316406 -0.7766151428222656 167.6524200439453
v -401.59100341796875 -0.7766151428222656 167.6524200439453
v -401.6729431152344 -0.5851544141769409 162.93003845214844
v -401.8189697265625 -0.6808847188949585 165.29122924804688
v -401.0069580078125 -0.3936936557292938 158.20765686035156
v -401.7548828125 -0.3936936557292938 158.20765686035156
v -401.85101318359375 -0.8244802951812744 168.8330078125
v -401.8830261230469 -0.9680758714675903 172.3748016357422
v -401.9649658203125 -0.7766151428222656 167.6524200439453
v -402.07000732421875 -0.9680758714675903 172.3748016357422
v -409.08538818359375 -1.0485947132110596 172.37481689453125
v -409.032470703125 -1.0337941646575928 170.01364135742188
v -408.9295654296875 -0.9080518484115601 162.93008422851562
v -408.9853515625 -0.8267110586166382 162.93008422851562
v -401.85992431640625 -0.5851544141769409 162.93003845214844
v -402.5064697265625 -0.9080518484115601 162.9300537109375
v -402.35882568359375 -0.9376529455184937 167.65243530273438
v -401.2989807128906 -0.5851544141769409 162.93003845214844
v -402.114013671875 -0.5851544141769409 162.93003845214844
v -409.0554504394531 -0.746192216873169 162.93008422851562
v -408.9237976074219 -1.1003345251083374 167.65245056152344
v -409.02960205078125 -1.1299355030059814 172.37481689453125
v -410.3948669433594 -0.9680758714675903 172.34197998046875
v -410.22406005859375 -0.7287499904632568 166.46090698242188
v -410.3076171875 -1.0159410238265991 173.5225830078125
v -410.34942626953125 -1.159536600112915 177.05340576171875
v -402.1970520019531 -0.9680758714675903 172.3748016357422
v -408.98101806640625 -0.9709230065345764 166.47186279296875
v -401.78692626953125 -0.5372892022132874 161.74945068359375
v -409.08392333984375 -1.096665382385254 173.555419921875
vn -0.7583880424499512 -0.6518033146858215 -0.000005169149062567158
vn -0.6974055767059326 -0.7166767120361328 -0.0000032569228096690495
vn -0.6974055767059326 -0.7166767120361328 -0.000005084435542812571
vn -0.050568267703056335 -0.9987205862998962 8.485648095302167e-7
vn -0.5256292223930359 -0.8507137894630432 -0.0000035291714084451087
vn -0.5256291627883911 -0.850713849067688 -0.0000015331795566453366
vn 0.6974058151245117 -0.7166764140129089 2.841813397935766e-7
vn 0.507386326789856 -0.8617187738418579 7.138677915463632e-7
vn 0.6379992961883545 -0.7700369358062744 3.4266386705894547e-7
vn -0.5256290435791016 -0.8507139086723328 4.628122383110167e-7
vn 0.7583882808685303 -0.6518031358718872 4.0469305417900614e-7
vn 0.903571367263794 -0.42843765020370483 2.317071761126499e-7
vn 0.8618812561035156 -0.5071101784706116 3.1695009283794207e-7
vn 0.5745245218276978 -0.818487286567688 3.9896133330330485e-7
vn 0.6974058151245117 -0.7166764736175537 3.453394015195954e-7
vn 0.8133586645126343 -0.5817626118659973 3.996804025518941e-7
vn 0.472576379776001 -0.8812896609306335 7.390578389276925e-7
vn 0.5073863863945007 -0.8617187142372131 5.832913529957295e-7
vn 0.5073864459991455 -0.8617186546325684 4.5271491444509593e-7
vn 0.903571367263794 -0.42843765020370483 3.0596092415180465e-7
vn -0.6379979848861694 -0.7700380086898804 -1.3629166062401055e-7
vn -0.4370124638080597 -0.8994554281234741 5.044116164754087e-7
vn -0.5073848962783813 -0.86171954870224 -8.296688491782334e-8
vn -0.7583880424499512 -0.6518033146858215 -0.000001499579411756713
vn -0.6974055767059326 -0.7166767120361328 -0.0000014294103038992034
vn -0.5745221376419067 -0.8184890747070312 -6.698163588225725e-7
vn 0.8618812561035156 -0.5071102380752563 3.9149935560089943e-7
vn 0.7583882212638855 -0.6518030166625977 3.4329156051171594e-7
vn 0.05058810114860535 -0.9987196326255798 -0.0000010596887705105473
vn 0.5256458520889282 -0.8507034778594971 -9.326072927251516e-7
vn 0.5256626605987549 -0.8506931066513062 -0.0000023614020392415114
vn 0.5256289839744568 -0.8507139086723328 4.961874537912081e-7
vn -0.6974055767059326 -0.716676652431488 3.981021166055143e-7
vn 0.728619396686554 -0.6849188208580017 3.4477901067475614e-7
vn -0.8618811368942261 -0.5071103572845459 -0.0000015747593806736404
vn -0.8133585453033447 -0.5817627906799316 -0.00000338537324751087
vn -0.9035712480545044 -0.4284377992153168 -0.000032354855648009107
vn -0.8618811368942261 -0.5071103572845459 -0.000017941227270057425
vn -0.8836022019386292 -0.46823832392692566 -0.000016981644876068458
vn 0.9763940572738647 -0.1937071979045868 -0.09556256979703903
vn 0.9039255380630493 0.4276898205280304 -2.500684388451191e-7
vn 0.9644893407821655 0.24668331444263458 -0.09437993913888931
vn 0.981324315071106 0.054492466151714325 -0.18448054790496826
vn 0.8607675433158875 0.48260262608528137 -0.16178330779075623
vn 0.9180195331573486 0.29890307784080505 -0.2605708837509155
vn 0.9035713076591492 -0.4284376800060272 3.802146579801047e-7
vn 0.97639399766922 -0.19370721280574799 -0.09556249529123306
vn -0.9999998807907104 -0.00041416636668145657 -0.000018040207578451373
vn -0.9649551510810852 0.24844330549240112 -0.08448371291160583
vn -0.9757312536239624 0.21897156536579132 -0.000009374855835631024
vn -0.9463430047035217 0.2758975327014923 -0.168272003531456
vn 0.05058937519788742 -0.9987195730209351 -0.0000016945592733463855
vn -0.4370090365409851 -0.8994570970535278 -0.0000011644050346149015
vn -0.43701016902923584 -0.8994565606117249 -6.081328365326044e-7
vn -0.05056818202137947 -0.9987205862998962 7.000149935265654e-7
vn 0.43701285123825073 -0.8994553089141846 6.337418199109379e-7
vn 0.43701279163360596 -0.8994553089141846 7.639019941052538e-7
vn 0.8290485739707947 0.5045283436775208 -0.24110068380832672
vn 0.7908812165260315 0.5225297808647156 -0.3185427486896515
vn 0.903571367263794 -0.42843765020370483 2.688340430267999e-7
vn -0.9755495190620422 -0.21977974474430084 -0.000009118047273659613
vn -0.9035712480545044 -0.42843782901763916 -0.000007902460311015602
vn -0.9035712480545044 -0.42843782901763916 -0.000016053258150350302
vn -0.9035712480545044 -0.42843782901763916 2.4833818201841495e-7
vn 0.903571367263794 -0.42843765020370483 3.4308777685509995e-7
vn -0.8960584402084351 0.39344847202301025 -0.2056153118610382
vn -0.7909196019172668 0.5225401520729065 -0.3184305727481842
vn -0.8564630150794983 0.45546117424964905 -0.24295324087142944
vn -0.9095941781997681 0.38178154826164246 -0.1639549285173416
vn 0.6379992365837097 -0.7700369954109192 4.040175269892643e-7
vn 0.6974058151245117 -0.7166764736175537 3.759184323826048e-7
vn 0.6974057555198669 -0.7166764736175537 4.064974632456142e-7
vn -0.6379979848861694 -0.7700380086898804 -0.000003803007302849437
vn -0.9755495190620422 -0.21977972984313965 -0.000025826659111771733
vn -0.5073826909065247 -0.8617208003997803 -0.0000011990697430519504
vn -0.6974055767059326 -0.7166767120361328 -0.0000069119478212087415
vn -0.437007874250412 -0.8994576930999756 -0.0000017206772326971986
vn 0.437012642621994 -0.8994553685188293 0.000001024222228807048
vn 0.19949489831924438 -0.9798988699913025 9.667922995504341e-7
vn 0.4370127320289612 -0.8994553089141846 8.940621114561509e-7
vn 0.6974058151245117 -0.7166764736175537 3.14760370656586e-7
vn -0.19948506355285645 -0.9799008369445801 -2.866524653200031e-7
vn -0.4370113015174866 -0.8994560241699219 -5.1860610028597875e-8
vn 0.74368816614151 -0.6685266494750977 3.7482894299500913e-7
vn 0.45488521456718445 -0.8905500769615173 8.818158789836161e-7
vn 0.4900790750980377 -0.8716778755187988 5.960051225883944e-7
vn -0.8938083052635193 -0.4484492242336273 -0.000024674367523402907
vn -0.9035712480545044 -0.42843782901763916 -0.000024204056899179704
vn -0.9039258360862732 0.42768919467926025 -2.527687854581018e-7
vn 0.7131894826889038 -0.7009714841842651 3.1455820703740756e-7
vn -0.8729581236839294 -0.48779526352882385 -0.000009280503036279697
vn 0.8857913613319397 0.4569232165813446 -0.08120760321617126
vn 0.4370129108428955 -0.8994552493095398 5.035817025600409e-7
vn -0.8290712833404541 0.5045323371887207 -0.24101436138153076
vn -0.8607785701751709 0.4826027452945709 -0.1617247313261032
vn -0.949543297290802 0.30256903171539307 -0.08258054405450821
vn -0.8857949376106262 0.4569218158721924 -0.08117799460887909
vn -0.9999575614929199 0.009217173792421818 -1.4022369043686922e-7
vn -0.9999982714653015 -0.0018459017155691981 -1.7839374777395278e-7
vn -0.9991009831428528 0.04239421337842941 -2.5629203648236398e-8
vn 0.9994942545890808 0.031800348311662674 1.4051868113540422e-8
vn 0.9991006255149841 0.042402397841215134 -1.4322194985538772e-8
vn 1 -0.000022545309548149817 -2.1788495452312873e-9
vn -0.8287872076034546 0.559563934803009 -3.2765964874670317e-7
vn -0.9039258360862732 0.42768919467926025 -2.527687854581018e-7
vn -0.8857949376106262 0.4569218158721924 -0.08117799460887909
vn 0.9991006255149841 0.04240242391824722 3.634312761846559e-8
vn 0.9997752904891968 0.021194718778133392 4.242434670231887e-8
vn -0.999508798122406 0.031338609755039215 -0.00002003492227231618
vn -0.9991009831428528 0.04239427298307419 -0.00003996535451733507
vn -0.9999982714653015 -0.0018459017155691981 -1.7839374777395278e-7
vn -0.9991009831428528 0.0423942431807518 -0.000019995492039015517
vn -0.9997943639755249 0.02027912065386772 -1.0203645217643498e-7
vn 0.9994942545890808 0.03180037438869476 6.472005509294831e-8
vn 1 -0.000022545309548149817 -2.1788495452312873e-9
vn 0.9991006255149841 0.042402446269989014 8.700845199882679e-8
vn 0.8688607811927795 0.49505650997161865 -6.903424036863726e-7
vn 0.8607675433158875 0.48260262608528137 -0.16178330779075623
vn 0.8857913613319397 0.4569232165813446 -0.08120760321617126
vn -1 0 0
vn -1 0 0
vn -1 -0.00011536892998265103 -1.1149615453120987e-8
vn -1 -0.00023073785996530205 -2.2299230906241974e-8
vn -0.9999999403953552 -0.0004614757199306041 -4.459846181248395e-8
vn -1 0 0
vn 1 -0.000022545309548149817 -2.1788495452312873e-9
vn 1 -0.000022545309548149817 -2.1788495452312873e-9
vn 0.9999440312385559 0.010586683638393879 2.0123883004430354e-8
vn 1 -0.000022545309548149817 -2.1788495452312873e-9
vn 1 -0.000022545309548149817 -2.1788495452312873e-9
vn 1 -0.000019727145627257414 -1.9064934075885276e-9
vn 0.8821126222610474 0.47103843092918396 -4.4633802076532447e-7
vn 0.8653574585914612 0.5011551976203918 -6.739939522049099e-7
vn 0.8287845253944397 0.559567928314209 -7.203875043160224e-7
vn 0.8978201746940613 0.44036224484443665 -2.181519960231526e-7
vn 1 -0.00001690898170636501 -1.6341371589234654e-9
vn 1 -0.000008454490853182506 -8.170685794617327e-10
vn 1 -0.000022545309548149817 -2.1788495452312873e-9
vn 1 0 0
vn 0.9498189687728882 0.31280025839805603 -1.1802395505355889e-7
vn -0.9991009831428528 0.04239422827959061 -0.000010010560799855739
vn -0.999508798122406 0.03133857995271683 -6.383672968013343e-8
vn -0.9837952852249146 0.17929525673389435 -0.000008673433512740303
vn -0.7909196019172668 0.5225401520729065 -0.3184305727481842
vn -0.8287872672080994 0.5595638155937195 -0.000032991578336805105
vn -0.8287872076034546 0.5595638155937195 -0.000024825596483424306
vn 1 0 0
vn 1 -0.000005636327387037454 -5.447123863078218e-10
vn 1 -0.000011272654774074908 -1.0894247726156436e-9
vn -0.8978227376937866 0.4403570294380188 -0.000025314297090517357
vn 1 -0.000005636327387037454 -5.447123863078218e-10
vn 1 -0.000014090818694967311 -1.3617809102584033e-9
vn 1 0 0
vn 1 -0.000022545309548149817 -2.1788495452312873e-9
vn -0.8287873268127441 0.559563934803009 -0.000016659620087011717
vn 0.9039255380630493 0.4276898205280304 -2.500684388451191e-7
vn 0.8287844657897949 0.5595679879188538 -3.141404079087806e-7
vn 0.8287845849990845 0.5595679879188538 -5.172640271666751e-7
vn -0.9999996423721313 -0.0009229513234458864 -8.919691651954054e-8
vn -0.9999999403953552 -0.0004614757199306041 -4.459846181248395e-8
vn -0.9999990463256836 -0.0013844266068190336 -1.3379535346302873e-7
vn -0.9999993443489075 -0.0011536889942362905 -1.1149613499128463e-7
vn -1 0 0
vn -0.9999982714653015 -0.0018459017155691981 -1.7839374777395278e-7
vn -0.9999983310699463 -0.00184590183198452 -1.7839374777395278e-7
vn -0.9999983906745911 -0.0018459019483998418 -1.783937619848075e-7
vn -0.9999932050704956 0.003685692325234413 -1.5931114205613994e-7
vn -0.9999983310699463 -0.00184590183198452 -1.7839374777395278e-7
vn -0.9999982714653015 -0.0018459017155691981 -1.7839374777395278e-7
vn -0.9999990463256836 -0.0013844266068190336 -1.3379535346302873e-7
vn -0.9999983906745911 -0.0018459019483998418 -1.783937619848075e-7
vn -1 -0.0003461067972239107 -3.344884547118454e-8
vn -0.9999997615814209 -0.0006922134780324996 -6.689769094236908e-8
vn -1 0 0
vn -0.9999990463256836 -0.0013844266068190336 -1.3379535346302873e-7
vn 0.9837939739227295 0.17930252850055695 -6.680693331873044e-8
vn 1 -0.00001690898170636501 -1.6341371589234654e-9
vn 1 -0.00001268173673452111 -1.2256028414370235e-9
vn 1 0 0
vn 0.9837939739227295 0.17930255830287933 -1.565629759170406e-8
vn 0.8287845849990845 0.5595678091049194 -0.0000011266346291449736
vn 0.897820234298706 0.44036218523979187 -6.282904791987676e-7
vn 1 -0.000018318063666811213 -1.7703152277448453e-9
vn -0.9498209953308105 0.3127939701080322 -0.000017156649846583605
vn -0.9837952852249146 0.17929528653621674 -0.000028834587283199653
vn -0.8978226780891418 0.4403570890426636 -0.000008825895747577306
vn 1 -0.000009863572813628707 -9.532467037942638e-10
vn 1 0 0
vn 1 -0.000022545309548149817 -2.1788495452312873e-9
vn 1 -0.000022545309548149817 -2.1788495452312873e-9
vn 0.9991006255149841 0.04240240901708603 1.1010466316463408e-8
vn 0.9999440312385559 0.010586683638393879 2.0123883004430354e-8
vn -0.9999575614929199 0.009217173792421818 -1.4022369043686922e-7
vn 0.7908812165260315 0.5225297808647156 -0.3185427486896515
vn 0.8290485739707947 0.5045283436775208 -0.24110068380832672
vn -0.9991009831428528 0.042394258081912994 -0.000029980423278175294
vn -0.8287872672080994 0.559563934803009 -0.000008493640052620322
vn 0.9991006255149841 0.04240243509411812 6.167579158500303e-8
vn -0.8206126689910889 0.5482401251792908 -0.1613306850194931
vn -0.8290712833404541 0.5045323371887207 -0.24101436138153076
vn -0.8084203004837036 0.5371537208557129 -0.24067078530788422
vn -0.8607785701751709 0.4826027452945709 -0.1617247313261032
vn -0.8206121921539307 0.5482398271560669 -0.16133473813533783
vn -0.8483001589775085 0.5232529044151306 -0.08119919896125793
vn -0.8206115961074829 0.5482394099235535 -0.16133876144886017
vn 0.8688607811927795 0.4950565695762634 -4.866313929596799e-7
vn -0.9999985694885254 -0.0017305330839008093 -1.6724416695979016e-7
vn -0.9999986886978149 -0.001615164102986455 -1.5609455772391811e-7
vn -0.9999986886978149 -0.001615164102986455 -1.5609455772391811e-7
vn -0.9999983310699463 -0.00184590183198452 -1.7839374777395278e-7
vn -0.9999988675117493 -0.0014997953549027443 -1.4494494848804607e-7
vn 1 -0.000021136227587703615 -2.042671365387605e-9
vn 0.8870328664779663 0.46170613169670105 -4.7054476226549014e-7
vn -0.8274161219596863 0.5557263493537903 -0.08093732595443726
vn -0.9999996423721313 0.0009198989137075841 -1.6885310571979062e-7
vn 0.848295271396637 0.5232560038566589 -0.08122920989990234
vn 0.8494353294372559 0.5276927351951599 -9.091441484088136e-7
vn 0.8287845849990845 0.5595678687095642 -9.235110383087886e-7
vn -0.8274164795875549 0.5557265877723694 -0.08093121647834778
vn -0.9999791979789734 0.006451457738876343 -1.497679846806932e-7
vn 0.8475743532180786 0.5306766629219055 -9.008491588247125e-7
vn -0.9999983310699463 -0.00184590183198452 -1.7839374777395278e-7
vn 0.5256289839744568 -0.8507139086723328 4.961874537912081e-7
vn 0.5894656181335449 -0.8077934980392456 1.7285390185861615e-7
vn 0.5894690752029419 -0.8077909350395203 8.326449574269645e-8
vn 0.64979487657547 -0.7601096034049988 3.844437230782205e-7
vn 0.6498013734817505 -0.7601040601730347 2.0579498993811285e-7
vn -0.6497947573661804 -0.7601097226142883 -0.0000046263407966762315
vn 0.6498207449913025 -0.7600874900817871 -3.301512094822101e-7
vn 0.34634703397750854 -0.9381064772605896 -0.0000016631748849249561
vn -0.3463309705257416 -0.9381124377250671 -0.000003952970018872293
vn -0.6497946381568909 -0.7601097822189331 -0.000002121014631484286
vn -0.6497946977615356 -0.7601097822189331 -0.0000033736778277670965
vn -0.5256292223930359 -0.8507137894630432 -0.0000035291714084451087
vn -0.6497947573661804 -0.7601097226142883 -0.0000046263407966762315
vn -0.6497946977615356 -0.7601097822189331 -0.0000033736778277670965
vn 7.841585158985254e-8 -1 -0.000002790319058476598
vn -0.34633079171180725 -0.9381124377250671 -0.0000012823661563743372
vn 0.64979487657547 -0.7601096034049988 3.844437230782205e-7
vn -0.6497945189476013 -0.7601099014282227 3.8431167581620684e-7
vn -0.6200835704803467 -0.784535825252533 -9.111600434152933e-7
vn -0.6497946381568909 -0.7601099610328674 -8.68351605731732e-7
vn -0.6497945189476013 -0.7601099014282227 3.8431167581620684e-7
vn 0.649814248085022 -0.7600930333137512 -1.5150247634210245e-7
vn 0.6498078107833862 -0.7600985765457153 2.7146256798005197e-8
vn -0.6497946381568909 -0.7601099610328674 -8.68351605731732e-7
vn 0.5894622206687927 -0.8077959418296814 2.62443251131117e-7
vn 0.6498078107833862 -0.7600985765457153 2.7146256798005197e-8
vn -0.5894553065299988 -0.8078010082244873 -0.0000028334732178336708
vn -0.6497946381568909 -0.7601097822189331 -0.000002121014631484286
vn -0.589455246925354 -0.8078009486198425 -0.000002205283635703381
vn 0.34633108973503113 -0.9381124377250671 -0.000001282296011595463
vn -0.6200836300849915 -0.7845357060432434 -0.0000015379551996375085
vn 0.6200987696647644 -0.7845238447189331 1.0683618434370601e-8
vn 0.649814248085022 -0.7600930333137512 -1.5150247634210245e-7
vn 0.6201021671295166 -0.7845211029052734 -7.870690410527459e-8
vn 0.5256458520889282 -0.8507034778594971 -9.326072927251516e-7
vn 0.6498207449913025 -0.7600874900817871 -3.301512094822101e-7
vn 0.6498013734817505 -0.7601040601730347 2.0579498993811285e-7
vn 0.5256626605987549 -0.8506931066513062 -0.0000023614020392415114
vn -0.5256291627883911 -0.850713849067688 -0.0000015331795566453366
vn -0.5256290435791016 -0.8507139086723328 4.628122383110167e-7
vn -0.23066361248493195 0.9723358750343323 0.03684062138199806
vn 0.0724095031619072 0.9967527985572815 0.03522415831685066
vn 0.12560951709747314 0.9913271069526672 0.03863513842225075
vn 0.01900157704949379 0.9993164539337158 0.031712040305137634
vn 0.48258548974990845 0.8754713535308838 0.025712981820106506
vn 0.24917222559452057 0.9678429365158081 0.03454412519931793
vn -0.30063411593437195 0.9531861543655396 0.03248514607548714
vn -0.3690167963504791 0.9290021061897278 0.0279580969363451
vn 0.26746800541877747 0.9632530808448792 0.024582838639616966
vn -0.12584300339221954 0.9917753338813782 0.02334981970489025
vn 0.499060720205307 0.866421103477478 0.01590278372168541
vn -0.4995843470096588 0.8660680055618286 0.01848570629954338
vn -0.4657769501209259 0.8840136528015137 0.03964504599571228
vn 0.4658932685852051 0.8841280341148376 0.035511620342731476
vn -0.4354504942893982 0.8999115228652954 0.02328338846564293
vn -0.24940069019794464 0.9680500030517578 0.026050357148051262
vn 0.47426605224609375 0.8798492550849915 0.03061402402818203
vn -0.4827960729598999 0.8752501010894775 0.02907232753932476
vn -0.41799938678741455 0.9078164100646973 0.03385036438703537
vn -0.38475286960601807 0.9223091006278992 0.036210719496011734
vn 0.4908507168292999 0.8709952235221863 0.020809054374694824
vn -0.49121958017349243 0.8707111477851868 0.02378043904900551
vn -0.0535622164607048 0.9981828927993774 0.02760385535657406
vn 0.5009902715682983 0.865451455116272 0.0015174985164776444
vn 0.4058593511581421 0.9139341711997986 0.001550913555547595
vn 0.5288330316543579 0.8487234711647034 0.002020853804424405
vn 0.4726189374923706 0.8812662363052368 0.001012542168609798
vn 0.5140363574028015 0.8577215671539307 0.008963379077613354
vn 0.4658932685852051 0.8841280341148376 0.035511620342731476
vn 0.47426605224609375 0.8798492550849915 0.03061402402818203
vn -0.4827960729598999 0.8752501010894775 0.02907232753932476
vn -0.4657769501209259 0.8840136528015137 0.03964504599571228
vn -0.5241304039955139 0.8516373634338379 0.0010778465075418353
vn -0.41510897874832153 0.9097716808319092 -3.008076987498498e-8
vn -0.4995843470096588 0.8660680055618286 0.01848570629954338
vn -0.47051844000816345 0.882390022277832 0.0005399396177381277
vn 0.4437488317489624 0.896151065826416 0.000506517244502902
vn 0.34567105770111084 0.9383556246757507 0.000526896386872977
vn 0.41441041231155396 0.9100900888442993 -4.231404560073315e-8
vn 0.499060720205307 0.866421103477478 0.01590278372168541
vn 0 0.9999485015869141 0.01015357207506895
vn 0.13885623216629028 0.9903124570846558 0.0005305730155669153
vn 0 1 -5.8292670246373746e-8
vn 0 0.9997938275337219 0.02030615322291851
vn 0.138876810669899 0.9902509450912476 0.010783464647829533
vn 0.27502208948135376 0.9614372849464417 0.0010509243002161384
vn 0.13888278603553772 0.9900853633880615 0.021035222336649895
vn 0.06961077451705933 0.9973610043525696 0.020621394738554955
vn 0 0.9991753101348877 0.040603987872600555
vn 1.0585193832568507e-9 0.9995361566543579 0.030456656590104103
vn -0.13751360774040222 0.990281879901886 0.020783456042408943
vn 2.1169295205680783e-9 0.9997938275337219 0.02030618116259575
vn -0.2723619043827057 0.9621947407722473 0.000560097920242697
vn -0.13748659193515778 0.9905036091804504 0.0002827055286616087
vn -0.20541253685951233 0.9786754250526428 0.00042239128379151225
vn 4.232985961749591e-9 1 0
vn 0 1 -5.6290893724053603e-8
vn -0.3053707480430603 0.9522332549095154 0.0006279643857851624
vn -0.40206435322761536 0.9156110882759094 0.0008268241654150188
vn -0.2723619043827057 0.9621947407722473 0.0005600686417892575
vn -0.40206435322761536 0.9156110882759094 0.0008268093806691468
vn 0.5214574337005615 0.8532597422599792 0.005492356140166521
vn 0.5099879503250122 0.8601057529449463 0.011418226175010204
vn 0.4908507168292999 0.8709952235221863 0.020809054374694824
vn 0.50657057762146 0.8621088266372681 0.01243362296372652
vn -0.13748659193515778 0.9905036091804504 0.0002826907439157367
vn -0.49121958017349243 0.8707111477851868 0.02378043904900551
vn -0.5119286775588989 0.8589722514152527 0.00978313758969307
vn -0.13748659193515778 0.9905036091804504 0.00028273393400013447
vn -0.3447333872318268 0.9387005567550659 0.0002808322315104306
vn 0.4859091639518738 0.8739683628082275 0.008458869531750679
vn 0.48258548974990845 0.8754713535308838 0.025712981820106506
vn 0.5059253573417664 0.8624657392501831 0.01387284230440855
vn 0 0.9995361566543579 0.03045664355158806
vn 0.10430195927619934 0.9944894313812256 0.010582929477095604
vn 0.034828245639801025 0.9989237189292908 0.03063279576599598
vn 0 0.9991753101348877 0.040603991597890854
vn -0.4975620210170746 0.8674279451370239 0.0008092795615084469
vn 0.5004552006721497 0.8656125068664551 0.016114795580506325
vn -0.10325822979211807 0.9946545958518982 0.0002123023587046191
vn 0.5194476842880249 0.8544757962226868 0.006720021367073059
vt 1.0367302894592285 0.6397327184677124
vt 1.5443227291107178 0.7225532531738281
vt 1.0367302894592285 0.7225528657436371
vt 1.5443223714828491 0.9717036485671997
vt 0.5291376113891602 0.9994983673095703
vt 1.5443224906921387 0.9994990229606628
vt 0.5291377305984497 0.7225528359413147
vt 1.0367298126220703 0.8885692805051804
vt 1.0367300510406494 0.7778918892145157
vt 2.559507369995117 0.9994996786117554
vt 2.051915407180786 0.6397337913513184
vt 2.5595078468322754 0.3912736177444458
vt 2.051915407180786 0.4740934371948242
vt 1.5443223714828491 0.8332309424877167
vt 1.5443227291107178 0.7225535809993744
vt 1.5443230867385864 0.5569132566452026
vt 1.2905259132385254 0.9162388071417809
vt 1.5443222522735596 0.888569638133049
vt 2.051914691925049 0.8885699957609177
vt 1.544323205947876 0.3912729024887085
vt 2.051915168762207 0.7778923660516739
vt 2.559507369995117 0.9439088106155396
vt 2.051914930343628 0.8885697573423386
vt 2.051915168762207 0.6397334933280945
vt 2.051915168762207 0.7225536406040192
vt 1.5443226099014282 0.8332307040691376
vt 1.0367307662963867 0.4740927219390869
vt 1.036730408668518 0.6397330462932587
vt 1.5443224906921387 0.9717034101486206
vt 1.5443224906921387 0.9994987547397614
vt 0.5291376113891602 0.9994980096817017
vt 2.559507369995117 0.999499499797821
vt 2.5595076084136963 0.7225540280342102
vt 1.2905266284942627 0.6811433136463165
vt 2.051914930343628 0.4740931987762451
vt 1.5443226099014282 0.5569129586219788
vt 0.529137372970581 0.39127200841903687
vt 1.0367300510406494 0.4740924835205078
vt 1.2905261516571045 0.4326826333999634
vt 2.051915168762207 0.29358023405075073
vt 2.559507369995117 0.0005013942718505859
vt 2.051914930343628 0.09819412231445312
vt 1.5443226099014282 0.19588685035705566
vt 1.5443223714828491 0.0005006790161132812
vt 1.0367300510406494 0.09819340705871582
vt 0.5291385650634766 0.3912721872329712
vt 1.0367305278778076 0.2935795187950134
vt 1.5443222522735596 0.1958865523338318
vt 1.54432213306427 0.09819340705871582
vt 2.051914691925049 0.09819382429122925
vt 1.0367295742034912 0.09819304943084717
vt 1.0367300510406494 0.971703052520752
vt 1.0367300510406494 0.9439077377319336
vt 1.5443224906921387 0.9439080953598022
vt 2.051914691925049 0.9717040061950684
vt 2.051914691925049 0.94390869140625
vt 1.54432213306427 0.9439083337783813
vt 1.0367298126220703 0.0005003213882446289
vt 0.529137372970581 0.000500023365020752
vt 2.0519156455993652 0.39127326011657715
vt 2.051914691925049 0.29357999563217163
vt 2.051914691925049 0.3912730813026428
vt 1.5443222522735596 0.39127272367477417
vt 2.559507131576538 0.3912734389305115
vt 1.0367308855056763 0.39127254486083984
vt 1.0367295742034912 0.0493464469909668
vt 0.5291370153427124 0.0004994869232177734
vt 0.9098314642906189 0.024923086166381836
vt 1.2905259132385254 0.0493466854095459
vt 2.051914930343628 0.7778926342725754
vt 2.051915168762207 0.7225539684295654
vt 2.5595076084136963 0.7225543260574341
vt 1.0367302894592285 0.7778915911912918
vt 1.0367298126220703 0.2935792803764343
vt 1.0367300510406494 0.8885690420866013
vt 0.5291379690170288 0.722552478313446
vt 0.5291376113891602 0.9439073801040649
vt 0.5291372537612915 0.943907618522644
vt 1.0367298126220703 0.9578056335449219
vt 1.0367296934127808 0.9439079761505127
vt 1.0367302894592285 0.7225531935691833
vt 2.051914930343628 0.9578061103820801
vt 2.051914930343628 0.9439084529876709
vt 1.6712210178375244 0.6604385375976562
vt 0.9098315834999084 0.9300732165575027
vt 1.671220302581787 0.902404397726059
vt 0.9098317623138428 0.41197729110717773
vt 1.0367298126220703 0.3912723660469055
vt 2.559507131576538 0.000501096248626709
vt 0.9098321795463562 0.7018480896949768
vt 1.6712205410003662 0.45338791608810425
vt 2.051914930343628 0.0005010366439819336
vt 2.559507131576538 0.9439090490341187
vt 1.0367295742034912 0.0004999041557312012
vt 1.54432213306427 0.0005003213882446289
vt 1.671220302581787 0.07377028465270996
vt 2.051914691925049 0.0005006790161132812
vt 0.8163773417472839 -0.09910178184509277
vt 1.0661275386810303 -0.12472736835479736
vt 1.0661274194717407 -0.02260458469390869
vt 0.8163774013519287 -0.04813504219055176
vt 1.0661274194717407 -0.02260410785675049
vt 1.0661276578903198 -0.12472689151763916
vt 1.0661271810531616 0.22953534126281738
vt 1.0661271810531616 0.3400000333786011
vt 0.8163770437240601 0.3400000333786011
vt 0.5666272044181824 -0.02260446548461914
vt 0.5666273236274719 -0.07366585731506348
vt 0.3168770670890808 -0.04804062843322754
vt 0.06712698191404343 -0.022605061531066895
vt 0.06712695211172104 -0.12434792518615723
vt 0.5666272044181824 -0.022604823112487793
vt 0.5666271448135376 -0.07347631454467773
vt 0.316877156496048 -0.04813528060913086
vt 0.06712701171636581 -0.12434744834899902
vt 0.06712698191404343 -0.022604703903198242
vt 0.5666271448135376 0.2847672700881958
vt 0.566627025604248 0.3400000333786011
vt 0.8163771629333496 0.3400000333786011
vt 0.0004994571208953857 0.0007905364036560059
vt 0.2502496838569641 0.0007177591323852539
vt 0.18781211972236633 0.06315529346466064
vt 0.3751247823238373 0.12552011013031006
vt 0.2502496838569641 0.25039517879486084
vt 0.49999991059303284 0.0006450414657592773
vt 0.8163775205612183 -0.12463212013244629
vt 0.5666273236274719 -0.12453722953796387
vt 0.8163775205612183 -0.0991964340209961
vt 0.5000000596046448 0.9993550181388855
vt 0.7497502565383911 0.9992822706699371
vt 0.6248751878738403 0.8744799345731735
vt 0.6290647387504578 0.18225914239883423
vt 0.441752165555954 0.19801759719848633
vt 0.5666272044181824 0.22953522205352783
vt 0.8163772821426392 0.16650068759918213
vt 0.25024983286857605 0.7497503459453583
vt 0.1253746598958969 0.3752706050872803
vt 0.0004996061325073242 0.9995005130767822
vt 0.0004994869232177734 0.0007908344268798828
vt 0.5666272044181824 0.10346555709838867
vt 0.8163772821426392 -0.022604703903198242
vt 0.8163772821426392 -0.04804039001464844
vt 0.8163772821426392 0.04043006896972656
vt 0.06712662428617477 0.3400000333786011
vt 0.06712698191404343 0.22953391075134277
vt 0.3168770372867584 0.22953426837921143
vt 0.5 0.0006453394889831543
vt 0.2502497732639313 0.2503955364227295
vt 0.5000000596046448 0.5000001788139343
vt 0.3168770968914032 0.16649925708770752
vt 0.7497502565383911 0.250249981880188
vt 0.8746253848075867 0.6247297525405884
vt 0.9995005130767822 0.0004998445510864258
vt 0.9995005130767822 0.9992095232009888
vt 0.5666270852088928 0.22953462600708008
vt 1.0661273002624512 0.3400000333786011
vt 1.0661274194717407 0.22953587770462036
vt 0.8163772821426392 0.22953557968139648
vt 0.4999999403953552 0.49999988079071045
vt 0.7497501373291016 0.2502497434616089
vt 0.7497501373291016 0.7496045231819153
vt 0.8746252655982971 0.6247294545173645
vt 0.9995003938674927 0.0004995465278625488
vt 0.9995003938674927 0.9992091655731201
vt 0.3168770968914032 -0.12444281578063965
vt 0.5666272640228271 -0.12453770637512207
vt 0.441752165555954 -0.111724853515625
vt 0.2502497434616089 0.9994274079799652
vt 0.0004995465278625488 0.9995001554489136
vt 0.2502497434616089 0.749750018119812
vt 0.4999999701976776 0.9993546605110168
vt 0.5624374747276306 0.18788492679595947
vt 0.12537460029125214 0.3752702474594116
vt 0.7497501373291016 0.0005723237991333008
vt 0.4999999403953552 0.7496772706508636
vt 0.8163772821426392 0.04043072462081909
vt 0.7497502565383911 0.7496048510074615
vt 0.6873127222061157 0.5623649656772614
vt 0.2502497434616089 0.0007181167602539062
vt 0.3168770968914032 0.040430426597595215
vt 0.06712701171636581 0.2295345664024353
vt 0.3168770968914032 0.16650009155273438
vt 0.4375625252723694 0.8121151328086853
vt 0.5666272044181824 0.10346466302871704
vt 0.3168770968914032 0.04042983055114746
vt 0.8163771629333496 0.16649997234344482
vt 0.31268736720085144 0.4376354217529297
vt 0.7497502565383911 0.0005725622177124023
vt 0.25024983286857605 0.9994277656078339
vt 0.31687718629837036 -0.12444233894348145
vt 0.8163772821426392 -0.02260422706604004
vt 0.31687718629837036 -0.09900665283203125
vt 0.3168770372867584 -0.09891211986541748
vt 0.06712677329778671 0.3400000333786011
vt 0.3168768882751465 0.3400000333786011
vt 0.3168770968914032 -0.022604942321777344
vt 0.8163771629333496 0.22953498363494873
vt 0.3168770968914032 -0.02260458469390869
vt 0.5666269063949585 0.28476768732070923
vt 0.31687676906585693 0.3400000333786011
vt 0.31687676906585693 0.31238389015197754
vt 0.5666269063949585 0.3400000333786011
vt 0.4417518973350525 0.2847675085067749
vt 0.8163770437240601 0.28476768732070923
vt 0.3168768584728241 0.2847673296928406
vt 0.8163772821426392 0.28476762771606445
vt 0.8121877312660217 0.9368443787097931
vt 0.6248750686645508 0.8744795918464661
vt 0.7497501373291016 0.8744432181119919
vt 0.7497501969337463 0.9992819130420685
vt 0.43756240606307983 0.812114804983139
vt 0.8121878504753113 0.9368447288870811
vt 0.8163772225379944 0.31238365173339844
vt 0.6290645599365234 0.2571512460708618
vt 0.2544395625591278 -0.11803638935089111
vt 0.31687700748443604 0.2847672700881958
vt 0.3168770670890808 0.25715088844299316
vt 0.3168770968914032 0.22953486442565918
vt 0.8163770437240601 0.2571514844894409
vt 0.6290647387504578 -0.10541331768035889
vt 0.2544395923614502 0.2137761116027832
vt 0.8163774013519287 -0.12463259696960449
vt -0.07066988945007324 1.8729745149612427
vt -0.08264505118131638 1.3182703852653503
vt -0.08264751732349396 1.1333690881729126
vt -0.09460539370775223 1.8729742765426636
vt -0.09461033344268799 1.5031716227531433
vt -0.11979975551366806 0.39118659496307373
vt 0.10620252788066864 0.39118659496307373
vt 0.049702078104019165 0.7609892785549164
vt -0.06329905986785889 0.7609892785549164
vt -0.11979951709508896 1.130791962146759
vt -0.11979963630437851 0.7609892785549164
vt -0.07068580389022827 0.3937636613845825
vt -0.09462524205446243 0.3937636613845825
vt -0.09462128579616547 0.7635663151741028
vt -0.00679837167263031 1.130791962146759
vt -0.06329882144927979 1.5005946159362793
vt 0.10620301216840744 1.8703973293304443
vt -0.11979927867650986 1.8703973293304443
vt -0.08862949907779694 1.4107209742069244
vt -0.09461337327957153 1.5031716227531433
vt -0.09460941702127457 1.8729742765426636
vt 0.10620264708995819 0.7609892785549164
vt 0.10620276629924774 1.130791962146759
vt -0.11979939788579941 1.5005946159362793
vt -0.0826425850391388 1.5031717419624329
vt -0.09461527317762375 1.133368968963623
vt -0.08265157043933868 0.7635663151741028
vt -0.0946173295378685 1.133368968963623
vt -0.0826495885848999 0.9484676718711853
vt 0.049702320247888565 1.5005946159362793
vt -0.08863148093223572 1.2258196473121643
vt -0.08863262832164764 1.0409183502197266
vt -0.09462021291255951 0.7635663151741028
vt -0.08863510191440582 0.8560170233249664
vt -0.07067900896072388 1.1333692073822021
vt -0.09462515264749527 0.3937636613845825
vt 0.10620288550853729 1.5005946159362793
vt -0.07068812847137451 0.3937638998031616
vt -0.07067710161209106 1.133368968963623
vt -0.07066839933395386 1.8729742765426636
vt 24.632293701171875 55.99242401123047
vt 24.74550437927246 56.2552375793457
vt 24.405872344970703 56.30720520019531
vt 25.08513641357422 56.203269958496094
vt 25.08513641357422 56.62347412109375
vt 24.632293701171875 56.412628173828125
vt 24.971923828125 55.944366455078125
vt 25.311555862426758 55.89630889892578
vt 25.53797721862793 56.41411590576172
vt 25.76439666748047 56.107154846191406
vt 25.99081802368164 56.62496566772461
vt 25.99081802368164 55.80019760131836
vt 24.179452896118164 55.781578063964844
vt 24.179452896118164 56.62198257446289
vt 25.651187896728516 55.84825134277344
vt 25.53797721862793 56.001731872558594
vt 24.632293701171875 56.62272644042969
vt 25.08513641357422 55.79088592529297
vt 24.74550437927246 55.83894348144531
vt 24.575687408447266 55.862972259521484
vt 25.53797721862793 56.62422180175781
vt 25.53797721862793 55.79553985595703
vt 25.424766540527344 56.15521240234375
vt 0.8500000238418579 1.25
vt 0.8129482865333557 1.25
vt 0.8500000238418579 0
vt 0.8500000238418579 2.5
vt 0.925000011920929 2.5
vt 1 0
vt 1 1.25
vt 1 1.6930854320526123
vt 1 4.466207027435303
vt 0.855627715587616 4.510167121887207
vt 0.855627715587616 -1.0359315872192383
vt 1 -1.0800361633300781
vt 0.855627715587616 1.7371177673339844
vt 0.8500000238418579 3.75
vt 0.8129482865333557 3.75
vt 0.8500000238418579 5
vt 1 5
vt 0.704652726650238 3.75
vt 0.7388448715209961 3.75
vt 0.7017931342124939 5
vt 0.7075123190879822 2.5
vt 0.7417044639587402 2.5
vt 0.7758965492248535 2.5
vt 0.7445640563964844 1.25
vt 0.7260382175445557 1.875
vt 0.7273060083389282 4.506560325622559
vt 0.7237847447395325 3.11993670463562
vt 0.7558651566505432 3.120838165283203
vt 0.7202634811401367 1.7333130836486816
vt 0.7844243049621582 1.7351162433624268
vt 0.7912192940711975 0.34878265857696533
vt 0.8090201616287231 1.0425453186035156
vt 0.7132209539413452 -1.0399343967437744
vt 0.7980142831802368 -1.037550926208496
vt 0.8145231008529663 2.0825934410095215
vt 0.8200260400772095 3.1226415634155273
vt 0.826820969581604 1.7363080978393555
vt 0.8412243127822876 3.1232376098632812
vt 0.8875000476837158 1.25
vt 0.925000011920929 1.875
vt 1 3.75
vt 0.9624999761581421 3.75
vt 0.8124176263809204 0.3493785858154297
vt 1 0.3065246343612671
vt 0.9278138875961304 1.7150654792785645
vt 0.7488226294517517 0.34759092330932617
vt 0.8412243127822876 0.3501882553100586
vt 0.925000011920929 3.75
vt 1 2.5
vt 0.925000011920929 1.25
vt 0.7103719115257263 1.25
vt 0.7324415445327759 2.8125
vt 0.7196348905563354 0.9375
vt 0.7132315039634705 0
vt 0.855627715587616 3.1236424446105957
vt 0.9624999761581421 2.8125
vt 0.80351722240448 0.0024971961975097656
vt 0.8875000476837158 0.9375
g NEH020
s 1
f 1/1/1 2/2/2 3/3/3
f 4/4/4 5/5/5 6/6/6
f 7/7/7 8/8/8 9/9/9
f 4/4/4 6/6/6 10/10/10
f 11/11/11 12/12/12 13/13/13
f 14/14/14 15/15/15 9/9/9
f 11/11/11 13/13/13 16/16/16
f 8/8/8 17/17/17 18/18/18
f 14/14/14 18/18/18 19/19/19
f 14/14/14 8/8/8 18/18/18
f 16/16/16 13/13/13 20/20/20
f 21/21/21 22/22/22 23/23/23
f 24/24/24 25/25/25 2/2/2
f 21/21/21 23/23/23 26/26/26
f 27/27/27 7/7/7 28/28/28
f 29/29/29 30/30/30 31/31/31
f 29/29/29 32/32/32 30/30/30
f 27/27/27 28/28/28 16/16/16
f 24/24/24 33/33/33 25/25/25
f 16/16/16 28/28/28 34/34/34
f 35/35/35 33/33/33 24/24/24
f 35/35/35 24/24/24 36/36/36
f 36/36/36 24/24/24 2/2/2
f 1/1/1 37/37/37 38/38/38
f 1/1/1 38/38/38 36/36/36
f 36/36/36 38/38/38 39/39/39
f 21/21/21 25/25/25 33/33/33
f 21/21/21 2/2/2 25/25/25
f 40/40/40 41/41/41 42/42/42
f 40/40/40 42/42/42 43/43/43
f 43/43/43 42/42/42 44/44/44
f 45/45/45 46/46/46 47/47/47
f 48/48/48 49/49/49 50/50/50
f 48/48/48 51/51/51 49/49/49
f 52/52/52 53/53/53 54/54/54
f 31/31/31 53/53/53 52/52/52
f 31/31/31 52/52/52 29/29/29
f 52/52/52 54/54/54 29/29/29
f 45/45/45 47/47/47 43/43/43
f 55/55/55 56/56/56 57/57/57
f 10/10/10 56/56/56 55/55/55
f 10/10/10 55/55/55 4/4/4
f 55/55/55 57/57/57 4/4/4
f 45/45/45 58/58/58 59/59/59
f 45/45/45 44/44/44 58/58/58
f 13/13/13 60/60/60 20/20/20
f 13/13/13 12/12/12 60/60/60
f 40/40/40 60/60/60 12/12/12
f 40/40/40 20/20/20 60/60/60
f 61/61/61 62/62/62 63/63/63
f 61/61/61 64/64/64 62/62/62
f 35/35/35 62/62/62 64/64/64
f 35/35/35 63/63/63 62/62/62
f 47/47/47 65/65/65 20/20/20
f 43/43/43 47/47/47 20/20/20
f 66/66/66 67/67/67 68/68/68
f 66/66/66 68/68/68 69/69/69
f 50/50/50 64/64/64 61/61/61
f 50/50/50 61/61/61 48/48/48
f 47/47/47 46/46/46 65/65/65
f 27/27/27 65/65/65 46/46/46
f 27/27/27 20/20/20 65/65/65
f 70/70/70 71/71/71 15/15/15
f 70/70/70 72/72/72 71/71/71
f 48/48/48 61/61/61 63/63/63
f 73/73/73 3/3/3 2/2/2
f 74/74/74 51/51/51 48/48/48
f 14/14/14 70/70/70 15/15/15
f 19/19/19 70/70/70 14/14/14
f 19/19/19 72/72/72 70/70/70
f 26/26/26 54/54/54 75/75/75
f 1/1/1 3/3/3 76/76/76
f 77/77/77 73/73/73 75/75/75
f 75/75/75 73/73/73 26/26/26
f 11/11/11 15/15/15 71/71/71
f 48/48/48 63/63/63 74/74/74
f 26/26/26 23/23/23 54/54/54
f 78/78/78 5/5/5 79/79/79
f 79/79/79 5/5/5 4/4/4
f 9/9/9 8/8/8 14/14/14
f 4/4/4 80/80/80 79/79/79
f 34/34/34 81/81/81 15/15/15
f 9/9/9 81/81/81 7/7/7
f 22/22/22 32/32/32 82/82/82
f 82/82/82 32/32/32 29/29/29
f 46/46/46 7/7/7 27/27/27
f 29/29/29 83/83/83 82/82/82
f 16/16/16 20/20/20 27/27/27
f 82/82/82 83/83/83 22/22/22
f 73/73/73 76/76/76 3/3/3
f 16/16/16 34/34/34 84/84/84
f 16/16/16 84/84/84 11/11/11
f 11/11/11 84/84/84 15/15/15
f 64/64/64 33/33/33 35/35/35
f 85/85/85 78/78/78 80/80/80
f 17/17/17 85/85/85 80/80/80
f 8/8/8 85/85/85 17/17/17
f 76/76/76 37/37/37 1/1/1
f 8/8/8 78/78/78 85/85/85
f 36/36/36 2/2/2 1/1/1
f 18/18/18 86/86/86 19/19/19
f 18/18/18 17/17/17 86/86/86
f 86/86/86 17/17/17 57/57/57
f 19/19/19 86/86/86 57/57/57
f 4/4/4 57/57/57 80/80/80
f 12/12/12 41/41/41 40/40/40
f 17/17/17 80/80/80 57/57/57
f 43/43/43 20/20/20 40/40/40
f 49/49/49 66/66/66 69/69/69
f 59/59/59 46/46/46 45/45/45
f 51/51/51 66/66/66 49/49/49
f 43/43/43 44/44/44 45/45/45
f 51/51/51 67/67/67 66/66/66
f 87/87/87 37/37/37 88/88/88
f 39/39/39 87/87/87 88/88/88
f 38/38/38 87/87/87 39/39/39
f 38/38/38 37/37/37 87/87/87
f 89/89/89 64/64/64 50/50/50
f 90/90/90 7/7/7 81/81/81
f 34/34/34 90/90/90 81/81/81
f 37/37/37 67/67/67 51/51/51
f 28/28/28 90/90/90 34/34/34
f 28/28/28 7/7/7 90/90/90
f 84/84/84 34/34/34 15/15/15
f 36/36/36 39/39/39 91/91/91
f 36/36/36 91/91/91 35/35/35
f 35/35/35 91/91/91 63/63/63
f 91/91/91 39/39/39 63/63/63
f 42/42/42 41/41/41 92/92/92
f 93/93/93 72/72/72 19/19/19
f 42/42/42 92/92/92 44/44/44
f 69/69/69 94/94/94 95/95/95
f 7/7/7 78/78/78 8/8/8
f 49/49/49 96/96/96 50/50/50
f 49/49/49 69/69/69 96/96/96
f 96/96/96 69/69/69 95/95/95
f 50/50/50 95/95/95 97/97/97
f 33/33/33 22/22/22 21/21/21
f 50/50/50 96/96/96 95/95/95
f 26/26/26 2/2/2 21/21/21
f 77/77/77 76/76/76 73/73/73
f 50/50/50 97/97/97 89/89/89
f 26/26/26 73/73/73 2/2/2
f 37/37/37 51/51/51 74/74/74
f 11/11/11 71/71/71 72/72/72
f 68/68/68 67/67/67 94/94/94
f 74/74/74 63/63/63 88/88/88
f 74/74/74 88/88/88 37/37/37
f 39/39/39 88/88/88 63/63/63
f 69/69/69 68/68/68 94/94/94
f 19/19/19 57/57/57 56/56/56
f 19/19/19 56/56/56 93/93/93
f 10/10/10 93/93/93 56/56/56
f 23/23/23 22/22/22 83/83/83
f 23/23/23 83/83/83 54/54/54
f 29/29/29 54/54/54 83/83/83
f 75/75/75 54/54/54 53/53/53
f 75/75/75 53/53/53 77/77/77
f 31/31/31 77/77/77 53/53/53
f 9/9/9 15/15/15 81/81/81
f 79/79/79 80/80/80 78/78/78
f 72/72/72 12/12/12 11/11/11
g NEH021
s 1
f 98/98/98 99/99/99 100/100/100
f 101/101/101 102/102/102 103/103/103
f 104/104/104 105/105/105 106/106/106
f 107/107/107 101/101/101 108/108/108
f 109/109/109 110/110/110 111/111/111
f 112/112/112 109/109/109 113/113/113
f 114/114/114 115/115/115 116/116/116
f 117/117/117 118/118/118 119/119/119
f 114/114/114 107/107/107 108/108/108
f 120/120/120 121/121/121 122/122/122
f 122/122/122 121/121/121 123/123/123
f 122/122/122 123/123/123 124/124/124
f 120/120/120 122/122/122 124/124/124
f 121/121/121 125/125/125 123/123/123
f 126/126/126 127/127/127 128/128/128
f 103/103/103 126/126/126 128/128/128
f 129/129/129 130/130/130 131/131/131
f 132/132/132 133/133/133 134/134/134
f 135/135/135 132/132/132 134/134/134
f 136/136/136 137/137/137 138/138/138
f 137/137/137 139/139/139 138/138/138
f 140/140/140 132/132/132 135/135/135
f 140/140/140 133/133/133 132/132/132
f 141/141/141 112/112/112 142/142/142
f 100/100/100 141/141/141 142/142/142
f 143/143/143 141/141/141 100/100/100
f 143/143/143 112/112/112 141/141/141
f 144/144/144 145/145/145 146/146/146
f 147/147/147 148/148/148 149/149/149
f 150/150/150 146/146/146 145/145/145
f 148/148/148 139/139/139 137/137/137
f 151/151/151 152/152/152 153/153/153
f 152/152/152 154/154/154 153/153/153
f 150/150/150 155/155/155 146/146/146
f 156/156/156 157/157/157 158/158/158
f 135/135/135 158/158/158 157/157/157
f 159/159/159 160/160/160 161/161/161
f 135/135/135 134/134/134 158/158/158
f 162/162/162 163/163/163 164/164/164
f 160/160/160 163/163/163 162/162/162
f 161/161/161 160/160/160 162/162/162
f 161/161/161 162/162/162 164/164/164
f 165/165/165 166/166/166 167/167/167
f 168/168/168 169/169/169 170/170/170
f 171/171/171 168/168/168 170/170/170
f 123/123/123 125/125/125 172/172/172
f 172/172/172 125/125/125 160/160/160
f 159/159/159 170/170/170 124/124/124
f 124/124/124 123/123/123 159/159/159
f 172/172/172 160/160/160 159/159/159
f 173/173/173 169/169/169 120/120/120
f 170/170/170 169/169/169 173/173/173
f 124/124/124 170/170/170 173/173/173
f 124/124/124 173/173/173 120/120/120
f 123/123/123 172/172/172 159/159/159
f 174/174/174 163/163/163 160/160/160
f 125/125/125 174/174/174 160/160/160
f 175/175/175 170/170/170 159/159/159
f 140/140/140 176/176/176 107/107/107
f 161/161/161 175/175/175 159/159/159
f 135/135/135 102/102/102 176/176/176
f 135/135/135 176/176/176 140/140/140
f 149/149/149 177/177/177 178/178/178
f 178/178/178 177/177/177 152/152/152
f 178/178/178 152/152/152 151/151/151
f 149/149/149 178/178/178 151/151/151
f 179/179/179 139/139/139 148/148/148
f 147/147/147 179/179/179 148/148/148
f 177/177/177 154/154/154 152/152/152
f 131/131/131 177/177/177 149/149/149
f 180/180/180 181/181/181 182/182/182
f 180/180/180 182/182/182 140/140/140
f 140/140/140 182/182/182 133/133/133
f 129/129/129 183/183/183 136/136/136
f 129/129/129 131/131/131 183/183/183
f 184/184/184 155/155/155 150/150/150
f 150/150/150 185/185/185 184/184/184
f 145/145/145 185/185/185 150/150/150
f 143/143/143 186/186/186 184/184/184
f 100/100/100 186/186/186 143/143/143
f 183/183/183 131/131/131 149/149/149
f 184/184/184 112/112/112 143/143/143
f 136/136/136 183/183/183 149/149/149
f 149/149/149 148/148/148 187/187/187
f 153/153/153 188/188/188 151/151/151
f 138/138/138 189/189/189 136/136/136
f 189/189/189 129/129/129 136/136/136
f 127/127/127 190/190/190 108/108/108
f 187/187/187 148/148/148 137/137/137
f 187/187/187 137/137/137 136/136/136
f 149/149/149 187/187/187 136/136/136
f 176/176/176 191/191/191 107/107/107
f 176/176/176 102/102/102 191/191/191
f 191/191/191 102/102/102 101/101/101
f 107/107/107 191/191/191 101/101/101
f 188/188/188 147/147/147 151/151/151
f 190/190/190 192/192/192 108/108/108
f 190/190/190 115/115/115 192/192/192
f 192/192/192 115/115/115 114/114/114
f 108/108/108 192/192/192 114/114/114
f 193/193/193 167/167/167 113/113/113
f 113/113/113 109/109/109 193/193/193
f 193/193/193 109/109/109 111/111/111
f 128/128/128 127/127/127 108/108/108
f 108/108/108 101/101/101 128/128/128
f 128/128/128 101/101/101 103/103/103
f 142/142/142 112/112/112 113/113/113
f 113/113/113 98/98/98 142/142/142
f 142/142/142 98/98/98 100/100/100
f 181/181/181 194/194/194 195/195/195
f 196/196/196 110/110/110 109/109/109
f 112/112/112 196/196/196 109/109/109
f 185/185/185 196/196/196 112/112/112
f 185/185/185 110/110/110 196/196/196
f 186/186/186 197/197/197 155/155/155
f 186/186/186 104/104/104 197/197/197
f 198/198/198 107/107/107 114/114/114
f 116/116/116 198/198/198 114/114/114
f 180/180/180 198/198/198 116/116/116
f 180/180/180 107/107/107 198/198/198
f 199/199/199 200/200/200 201/201/201
f 201/201/201 200/200/200 144/144/144
f 199/199/199 202/202/202 200/200/200
f 144/144/144 203/203/203 201/201/201
f 201/201/201 203/203/203 199/199/199
f 204/204/204 202/202/202 199/199/199
f 104/104/104 106/106/106 204/204/204
f 204/204/204 106/106/106 202/202/202
f 205/205/205 155/155/155 203/203/203
f 144/144/144 205/205/205 203/203/203
f 144/144/144 146/146/146 205/205/205
f 205/205/205 146/146/146 155/155/155
f 206/206/206 134/134/134 117/117/117
f 156/156/156 158/158/158 206/206/206
f 206/206/206 158/158/158 134/134/134
f 207/207/207 208/208/208 209/209/209
f 164/164/164 207/207/207 209/209/209
f 164/164/164 210/210/210 207/207/207
f 207/207/207 210/210/210 208/208/208
f 211/211/211 170/170/170 175/175/175
f 208/208/208 211/211/211 175/175/175
f 208/208/208 171/171/171 211/211/211
f 211/211/211 171/171/171 170/170/170
f 209/209/209 208/208/208 175/175/175
f 151/151/151 147/147/147 149/149/149
f 209/209/209 175/175/175 161/161/161
f 164/164/164 209/209/209 161/161/161
f 130/130/130 212/212/212 131/131/131
f 130/130/130 154/154/154 212/212/212
f 212/212/212 154/154/154 177/177/177
f 131/131/131 212/212/212 177/177/177
f 157/157/157 102/102/102 135/135/135
f 116/116/116 181/181/181 180/180/180
f 140/140/140 107/107/107 180/180/180
f 100/100/100 104/104/104 186/186/186
f 184/184/184 186/186/186 155/155/155
f 156/156/156 206/206/206 213/213/213
f 213/213/213 206/206/206 117/117/117
f 145/145/145 110/110/110 185/185/185
f 117/117/117 119/119/119 213/213/213
f 184/184/184 185/185/185 112/112/112
f 213/213/213 119/119/119 156/156/156
f 214/214/214 197/197/197 199/199/199
f 111/111/111 165/165/165 215/215/215
f 215/215/215 165/165/165 167/167/167
f 215/215/215 167/167/167 193/193/193
f 111/111/111 215/215/215 193/193/193
f 203/203/203 214/214/214 199/199/199
f 203/203/203 155/155/155 214/214/214
f 214/214/214 155/155/155 197/197/197
f 181/181/181 216/216/216 217/217/217
f 217/217/217 216/216/216 117/117/117
f 117/117/117 218/218/218 217/217/217
f 217/217/217 218/218/218 181/181/181
f 104/104/104 204/204/204 219/219/219
f 219/219/219 204/204/204 199/199/199
f 199/199/199 197/197/197 219/219/219
f 219/219/219 197/197/197 104/104/104
f 167/167/167 166/166/166 220/220/220
f 220/220/220 166/166/166 98/98/98
f 117/117/117 134/134/134 218/218/218
f 182/182/182 181/181/181 221/221/221
f 182/182/182 221/221/221 133/133/133
f 133/133/133 221/221/221 218/218/218
f 221/221/221 181/181/181 218/218/218
f 216/216/216 195/195/195 118/118/118
f 181/181/181 195/195/195 216/216/216
f 216/216/216 118/118/118 117/117/117
f 166/166/166 222/222/222 98/98/98
f 222/222/222 99/99/99 98/98/98
f 210/210/210 171/171/171 208/208/208
f 167/167/167 220/220/220 113/113/113
f 220/220/220 98/98/98 113/113/113
f 133/133/133 218/218/218 134/134/134
g NEH022
s 1
f 223/223/223 224/224/224 225/225/225
f 223/223/223 226/226/226 227/227/227
f 228/228/228 229/229/229 230/230/230
f 231/231/231 232/232/232 233/233/233
f 231/231/231 233/233/233 228/228/228
f 234/234/234 235/235/235 236/236/236
f 237/237/237 238/238/238 232/232/232
f 239/239/239 240/240/240 238/238/238
f 241/241/241 242/242/242 243/243/243
f 230/230/230 244/244/244 245/245/245
f 230/230/230 229/229/229 244/244/244
f 238/238/238 246/246/246 232/232/232
f 247/247/247 227/227/227 248/248/248
f 223/223/223 227/227/227 247/247/247
f 223/223/223 247/247/247 224/224/224
f 247/247/247 248/248/248 224/224/224
f 249/249/249 236/236/236 250/250/250
f 234/234/234 236/236/236 249/249/249
f 234/234/234 249/249/249 251/251/251
f 249/249/249 250/250/250 251/251/251
f 238/238/238 240/240/240 246/246/246
f 252/252/252 238/238/238 237/237/237
f 239/239/239 238/238/238 252/252/252
f 237/237/237 245/245/245 252/252/252
f 253/253/253 242/242/242 241/241/241
f 254/254/254 248/248/248 255/255/255
f 224/224/224 248/248/248 254/254/254
f 231/231/231 230/230/230 237/237/237
f 225/225/225 224/224/224 256/256/256
f 228/228/228 230/230/230 231/231/231
f 237/237/237 232/232/232 231/231/231
f 225/225/225 257/257/257 223/223/223
f 258/258/258 257/257/257 225/225/225
f 252/252/252 245/245/245 259/259/259
f 252/252/252 259/259/259 239/239/239
f 253/253/253 250/250/250 242/242/242
f 234/234/234 241/241/241 243/243/243
f 258/258/258 260/260/260 257/257/257
f 251/251/251 253/253/253 241/241/241
f 243/243/243 261/261/261 234/234/234
f 243/243/243 262/262/262 261/261/261
f 251/251/251 250/250/250 253/253/253
f 237/237/237 230/230/230 245/245/245
f 225/225/225 256/256/256 258/258/258
f 256/256/256 255/255/255 258/258/258
f 234/234/234 251/251/251 241/241/241
f 254/254/254 255/255/255 256/256/256
f 224/224/224 254/254/254 256/256/256
g NEH023
s 1
f 263/263/263 264/264/264 265/265/265
f 266/266/266 267/267/267 268/268/268
f 269/269/269 270/270/270 266/266/266
f 271/271/271 272/272/272 273/273/273
f 272/272/272 274/274/274 273/273/273
f 275/275/275 265/265/265 276/276/276
f 275/275/275 263/263/263 265/265/265
f 277/277/277 274/274/274 278/278/278
f 268/268/268 279/279/279 276/276/276
f 270/270/270 278/278/278 266/266/266
f 263/263/263 266/266/266 264/264/264
f 270/270/270 277/277/277 278/278/278
f 268/268/268 267/267/267 279/279/279
f 275/275/275 280/280/280 281/281/281
f 275/275/275 281/281/281 282/282/282
f 265/265/265 268/268/268 276/276/276
f 271/271/271 283/283/283 267/267/267
f 264/264/264 266/266/266 268/268/268
f 263/263/263 269/269/269 266/266/266
f 284/284/284 277/277/277 270/270/270
f 281/281/281 270/270/270 269/269/269
f 271/271/271 273/273/273 283/283/283
f 275/275/275 282/282/282 263/263/263
f 284/284/284 274/274/274 277/277/277
f 282/282/282 269/269/269 263/263/263
f 265/265/265 264/264/264 268/268/268
f 282/282/282 281/281/281 269/269/269
f 266/266/266 285/285/285 271/271/271
f 285/285/285 272/272/272 271/271/271
f 278/278/278 274/274/274 285/285/285
f 266/266/266 278/278/278 285/285/285
f 266/266/266 271/271/271 267/267/267
f 285/285/285 274/274/274 272/272/272
f 281/281/281 280/280/280 270/270/270
f 280/280/280 284/284/284 270/270/270
g NEH024
s 1
f 286/286/286 287/287/287 288/288/288
f 289/289/289 287/287/287 286/286/286
f 290/290/290 289/289/289 286/286/286
f 291/291/291 292/292/292 288/288/288
f 293/293/293 294/294/294 295/295/295
f 296/296/296 297/297/297 298/298/298
f 299/299/299 300/300/300 289/289/289
f 301/301/301 300/300/300 299/299/299
f 302/302/302 301/301/301 299/299/299
f 303/303/303 304/304/304 305/305/305
f 306/306/306 304/304/304 303/303/303
f 307/307/307 308/308/308 304/304/304
f 309/309/309 308/308/308 307/307/307
f 310/310/310 309/309/309 307/307/307
f 311/311/311 312/312/312 313/313/313
f 312/312/312 314/314/314 313/313/313
f 315/315/315 316/316/316 317/317/317
f 318/318/318 319/319/319 316/316/316
f 315/315/315 317/317/317 320/320/320
f 315/315/315 320/320/320 321/321/321
f 321/321/321 320/320/320 322/322/322
f 320/320/320 317/317/317 322/322/322
f 321/321/321 322/322/322 323/323/323
f 321/321/321 323/323/323 295/295/295
f 322/322/322 298/298/298 323/323/323
f 324/324/324 286/286/286 288/288/288
f 290/290/290 286/286/286 324/324/324
f 325/325/325 290/290/290 324/324/324
f 326/326/326 302/302/302 327/327/327
f 326/326/326 327/327/327 290/290/290
f 327/327/327 289/289/289 290/290/290
f 317/317/317 328/328/328 322/322/322
f 319/319/319 296/296/296 328/328/328
f 329/329/329 293/293/293 295/295/295
f 298/298/298 297/297/297 330/330/330
f 330/330/330 329/329/329 295/295/295
f 297/297/297 329/329/329 330/330/330
f 331/331/331 316/316/316 315/315/315
f 318/318/318 316/316/316 331/331/331
f 314/314/314 318/318/318 331/331/331
f 314/314/314 331/331/331 315/315/315
f 328/328/328 296/296/296 332/332/332
f 328/328/328 332/332/332 322/322/322
f 322/322/322 332/332/332 298/298/298
f 332/332/332 296/296/296 298/298/298
f 333/333/333 299/299/299 289/289/289
f 302/302/302 299/299/299 333/333/333
f 302/302/302 333/333/333 327/327/327
f 333/333/333 289/289/289 327/327/327
f 292/292/292 334/334/334 335/335/335
f 292/292/292 335/335/335 288/288/288
f 334/334/334 325/325/325 335/335/335
f 336/336/336 310/310/310 306/306/306
f 310/310/310 337/337/337 306/306/306
f 337/337/337 304/304/304 306/306/306
f 337/337/337 307/307/307 304/304/304
f 310/310/310 307/307/307 337/337/337
f 338/338/338 309/309/309 310/310/310
f 339/339/339 309/309/309 338/338/338
f 339/339/339 338/338/338 336/336/336
f 338/338/338 310/310/310 336/336/336
f 323/323/323 298/298/298 340/340/340
f 323/323/323 340/340/340 295/295/295
f 340/340/340 330/330/330 295/295/295
f 298/298/298 330/330/330 340/340/340
f 334/334/334 326/326/326 341/341/341
f 334/334/334 341/341/341 325/325/325
f 341/341/341 290/290/290 325/325/325
f 326/326/326 290/290/290 341/341/341
f 316/316/316 319/319/319 342/342/342
f 316/316/316 342/342/342 317/317/317
f 317/317/317 342/342/342 328/328/328
f 342/342/342 319/319/319 328/328/328
f 343/343/343 324/324/324 288/288/288
f 325/325/325 324/324/324 343/343/343
f 335/335/335 325/325/325 343/343/343
f 335/335/335 343/343/343 288/288/288
f 301/301/301 305/305/305 304/304/304
f 339/339/339 288/288/288 287/287/287
f 289/289/289 308/308/308 287/287/287
f 311/311/311 321/321/321 295/295/295
f 300/300/300 304/304/304 308/308/308
f 301/301/301 304/304/304 300/300/300
f 300/300/300 308/308/308 289/289/289
f 309/309/309 287/287/287 308/308/308
f 339/339/339 287/287/287 309/309/309
f 311/311/311 313/313/313 321/321/321
f 313/313/313 315/315/315 321/321/321
f 313/313/313 314/314/314 315/315/315
