# Exported using wow.export v0.2.19
o 21138_TreeFacades03.obj
v -535.9786987304688 17.352230072021484 -142.70867919921875
v -536.623046875 17.352230072021484 -143.38768005371094
v -536.623046875 16.540956497192383 -143.38768005371094
v -536.623046875 17.352230072021484 -143.38768005371094
v -535.944091796875 17.352230072021484 -144.0320587158203
v -535.944091796875 16.540956497192383 -144.0320587158203
v -536.623046875 16.540956497192383 -143.38768005371094
v -535.944091796875 17.352230072021484 -144.0320587158203
v -535.2996826171875 17.352230072021484 -143.35304260253906
v -535.2996826171875 16.540956497192383 -143.35304260253906
v -535.944091796875 16.540956497192383 -144.0320587158203
v -535.2996826171875 17.352230072021484 -143.35304260253906
v -535.9786987304688 17.352230072021484 -142.70867919921875
v -535.9786987304688 16.540956497192383 -142.70867919921875
v -535.2996826171875 16.540956497192383 -143.35304260253906
v -535.944091796875 17.352230072021484 -144.0320587158203
v -536.623046875 17.352230072021484 -143.38768005371094
v -535.9786987304688 17.352230072021484 -142.70867919921875
v -535.2996826171875 17.352230072021484 -143.35304260253906
v -535.944091796875 16.540956497192383 -144.0320587158203
v -535.2996826171875 16.540956497192383 -143.35304260253906
v -535.9786987304688 16.540956497192383 -142.70867919921875
v -536.623046875 16.540956497192383 -143.38768005371094
v -504.5914611816406 20.340442657470703 -187.28677368164062
v -505.1734619140625 20.340442657470703 -187.75804138183594
v -505.1734619140625 19.691423416137695 -187.75804138183594
v -504.5914611816406 19.691423416137695 -187.28677368164062
v -505.1734619140625 20.340442657470703 -187.75804138183594
v -504.7021484375 20.340442657470703 -188.34002685546875
v -504.7021484375 19.691423416137695 -188.34002685546875
v -505.1734619140625 19.691423416137695 -187.75804138183594
v -504.7021484375 20.340442657470703 -188.34002685546875
v -504.12017822265625 20.340442657470703 -187.86874389648438
v -504.12017822265625 19.691423416137695 -187.86874389648438
v -535.9786987304688 16.540956497192383 -142.70867919921875
v -504.7021484375 19.691423416137695 -188.34002685546875
v -480.86383056640625 13.505425453186035 -101.23062896728516
v -481.4411926269531 13.505425453186035 -101.69817352294922
v -480.9736328125 13.505425453186035 -102.27554321289062
v -504.7021484375 20.340442657470703 -188.34002685546875
v -505.1734619140625 20.340442657470703 -187.75804138183594
v -504.5914611816406 20.340442657470703 -187.28677368164062
v -504.12017822265625 20.340442657470703 -187.86874389648438
v -504.7021484375 19.691423416137695 -188.34002685546875
v -504.12017822265625 19.691423416137695 -187.86874389648438
v -504.5914611816406 19.691423416137695 -187.28677368164062
v -505.1734619140625 19.691423416137695 -187.75804138183594
v -480.86383056640625 14.149293899536133 -101.23062896728516
v -481.4411926269531 14.149293899536133 -101.69817352294922
v -481.4411926269531 13.505425453186035 -101.69817352294922
v -480.86383056640625 13.505425453186035 -101.23062896728516
v -481.4411926269531 14.149293899536133 -101.69817352294922
v -480.9736328125 14.149293899536133 -102.27554321289062
v -480.9736328125 13.505425453186035 -102.27554321289062
v -481.4411926269531 13.505425453186035 -101.69817352294922
v -480.9736328125 14.149293899536133 -102.27554321289062
v -480.3962707519531 14.149293899536133 -101.80799865722656
v -480.3962707519531 13.505425453186035 -101.80799865722656
v -480.9736328125 13.505425453186035 -102.27554321289062
v -480.3962707519531 14.149293899536133 -101.80799865722656
v -480.86383056640625 14.149293899536133 -101.23062896728516
v -480.86383056640625 13.505425453186035 -101.23062896728516
v -480.3962707519531 13.505425453186035 -101.80799865722656
v -480.9736328125 14.149293899536133 -102.27554321289062
v -481.4411926269531 14.149293899536133 -101.69817352294922
v -480.86383056640625 14.149293899536133 -101.23062896728516
v -480.3962707519531 14.149293899536133 -101.80799865722656
v -480.3962707519531 13.505425453186035 -101.80799865722656
v -504.5914611816406 19.691423416137695 -187.28677368164062
v -504.12017822265625 19.691423416137695 -187.86874389648438
v -504.12017822265625 20.340442657470703 -187.86874389648438
v -504.5914611816406 20.340442657470703 -187.28677368164062
vn -0.7253676056861877 0 0.6883617043495178
vn -0.7253676056861877 0 0.6883617043495178
vn -0.7253676056861877 0 0.6883617043495178
vn -0.6883761882781982 0 -0.7253538966178894
vn -0.6883761882781982 0 -0.7253538966178894
vn -0.6883761882781982 0 -0.7253538966178894
vn -0.6883761882781982 0 -0.7253538966178894
vn 0.7253676056861877 0 -0.6883617043495178
vn 0.7253676056861877 0 -0.6883617043495178
vn 0.7253676056861877 0 -0.6883617043495178
vn 0.7253676056861877 0 -0.6883617043495178
vn 0.6883761882781982 0 0.7253538966178894
vn 0.6883761882781982 0 0.7253538966178894
vn 0.6883761882781982 0 0.7253538966178894
vn 0.6883761882781982 0 0.7253538966178894
vn 0 1 0
vn 0 1 0
vn 0 1 0
vn 0 1 0
vn 0 -1 0
vn 0 -1 0
vn 0 -1 0
vn 0 -1 0
vn -0.6293180584907532 0 0.7771478295326233
vn -0.6293180584907532 0 0.7771478295326233
vn -0.6293180584907532 0 0.7771478295326233
vn -0.6293180584907532 0 0.7771478295326233
vn -0.777130126953125 0 -0.6293399333953857
vn -0.777130126953125 0 -0.6293399333953857
vn -0.777130126953125 0 -0.6293399333953857
vn -0.777130126953125 0 -0.6293399333953857
vn 0.6293180584907532 0 -0.7771478295326233
vn 0.6293180584907532 0 -0.7771478295326233
vn 0.6293180584907532 0 -0.7771478295326233
vn -0.7253676056861877 0 0.6883617043495178
vn 0.6293180584907532 0 -0.7771478295326233
vn 0 -1 0
vn 0 -1 0
vn 0 -1 0
vn 0 1 0
vn 0 1 0
vn 0 1 0
vn 0 1 0
vn 0 -1 0
vn 0 -1 0
vn 0 -1 0
vn 0 -1 0
vn -0.6293216347694397 0 0.7771449685096741
vn -0.6293216347694397 0 0.7771449685096741
vn -0.6293216347694397 0 0.7771449685096741
vn -0.6293216347694397 0 0.7771449685096741
vn -0.7771360278129578 0 -0.6293326616287231
vn -0.7771360278129578 0 -0.6293326616287231
vn -0.7771360278129578 0 -0.6293326616287231
vn -0.7771360278129578 0 -0.6293326616287231
vn 0.6293216347694397 0 -0.7771449685096741
vn 0.6293216347694397 0 -0.7771449685096741
vn 0.6293216347694397 0 -0.7771449685096741
vn 0.6293216347694397 0 -0.7771449685096741
vn 0.7771360278129578 0 0.6293326616287231
vn 0.7771360278129578 0 0.6293326616287231
vn 0.7771360278129578 0 0.6293326616287231
vn 0.7771360278129578 0 0.6293326616287231
vn 0 1 0
vn 0 1 0
vn 0 1 0
vn 0 1 0
vn 0 -1 0
vn 0.777130126953125 0 0.6293399333953857
vn 0.777130126953125 0 0.6293399333953857
vn 0.777130126953125 0 0.6293399333953857
vn 0.777130126953125 0 0.6293399333953857
vt 0.9995002746582031 0.9995005130767822
vt 0.0004994869232177734 0.9995005130767822
vt 0.0004994869232177734 0.0004994869232177734
vt 0.9995002746582031 0.9995005130767822
vt 0.0004994869232177734 0.9995005130767822
vt 0.0004994869232177734 0.0004994869232177734
vt 0.9995002746582031 0.0004994869232177734
vt 0.9995002746582031 0.9995005130767822
vt 0.0004994869232177734 0.9995005130767822
vt 0.0004994869232177734 0.0004994869232177734
vt 0.9995002746582031 0.0004994869232177734
vt 0.9995002746582031 0.9995005130767822
vt 0.0004994869232177734 0.9995005130767822
vt 0.0004994869232177734 0.0004994869232177734
vt 0.9995002746582031 0.0004994869232177734
vt 0.9995005130767822 0.9995002746582031
vt 0.000499725341796875 0.9995005130767822
vt 0.0004994869232177734 0.000499725341796875
vt 0.9995002746582031 0.0004994869232177734
vt 0.0004994869232177734 0.9995002746582031
vt 0.000499725341796875 0.0004994869232177734
vt 0.9995005130767822 0.000499725341796875
vt 0.9995002746582031 0.9995005130767822
vt 0.9995002746582031 0.9995005130767822
vt 0.0004994869232177734 0.9995005130767822
vt 0.0004994869232177734 0.0004994869232177734
vt 0.9995002746582031 0.0004994869232177734
vt 0.9995002746582031 0.9995005130767822
vt 0.0004994869232177734 0.9995005130767822
vt 0.0004994869232177734 0.0004994869232177734
vt 0.9995002746582031 0.0004994869232177734
vt 0.9995002746582031 0.9995005130767822
vt 0.0004994869232177734 0.9995005130767822
vt 0.0004994869232177734 0.0004994869232177734
vt 0.9995002746582031 0.0004994869232177734
vt 0.9995002746582031 0.0004994869232177734
vt 0.9995005130767822 0.000499725341796875
vt 0.9995002746582031 0.9995005130767822
vt 0.0004994869232177734 0.9995002746582031
vt 0.9995005130767822 0.9995002746582031
vt 0.000499725341796875 0.9995005130767822
vt 0.0004994869232177734 0.000499725341796875
vt 0.9995002746582031 0.0004994869232177734
vt 0.0004994869232177734 0.9995002746582031
vt 0.000499725341796875 0.0004994869232177734
vt 0.9995005130767822 0.000499725341796875
vt 0.9995002746582031 0.9995005130767822
vt 0.9995002746582031 0.9995005130767822
vt 0.0004994869232177734 0.9995005130767822
vt 0.0004994869232177734 0.0004994869232177734
vt 0.9995002746582031 0.0004994869232177734
vt 0.9995002746582031 0.9995005130767822
vt 0.0004994869232177734 0.9995005130767822
vt 0.0004994869232177734 0.0004994869232177734
vt 0.9995002746582031 0.0004994869232177734
vt 0.9995002746582031 0.9995005130767822
vt 0.0004994869232177734 0.9995005130767822
vt 0.0004994869232177734 0.0004994869232177734
vt 0.9995002746582031 0.0004994869232177734
vt 0.9995002746582031 0.9995005130767822
vt 0.0004994869232177734 0.9995005130767822
vt 0.0004994869232177734 0.0004994869232177734
vt 0.9995002746582031 0.0004994869232177734
vt 0.9995005130767822 0.9995002746582031
vt 0.000499725341796875 0.9995005130767822
vt 0.0004994869232177734 0.000499725341796875
vt 0.9995002746582031 0.0004994869232177734
vt 0.000499725341796875 0.0004994869232177734
vt 0.0004994869232177734 0.0004994869232177734
vt 0.9995002746582031 0.0004994869232177734
vt 0.9995002746582031 0.9995005130767822
vt 0.0004994869232177734 0.9995005130767822
g TreeFacades030
s 1
f 1/1/1 2/2/2 3/3/3
f 4/4/4 5/5/5 6/6/6
f 6/6/6 7/7/7 4/4/4
f 8/8/8 9/9/9 10/10/10
f 10/10/10 11/11/11 8/8/8
f 12/12/12 13/13/13 14/14/14
f 14/14/14 15/15/15 12/12/12
f 16/16/16 17/17/17 18/18/18
f 18/18/18 19/19/19 16/16/16
f 20/20/20 21/21/21 22/22/22
f 22/22/22 23/23/23 20/20/20
f 24/24/24 25/25/25 26/26/26
f 26/26/26 27/27/27 24/24/24
f 28/28/28 29/29/29 30/30/30
f 30/30/30 31/31/31 28/28/28
f 32/32/32 33/33/33 34/34/34
f 3/3/3 35/35/35 1/1/1
f 34/34/34 36/36/36 32/32/32
f 37/37/37 38/38/38 39/39/39
f 40/40/40 41/41/41 42/42/42
f 42/42/42 43/43/43 40/40/40
f 44/44/44 45/45/45 46/46/46
f 46/46/46 47/47/47 44/44/44
f 48/48/48 49/49/49 50/50/50
f 50/50/50 51/51/51 48/48/48
f 52/52/52 53/53/53 54/54/54
f 54/54/54 55/55/55 52/52/52
f 56/56/56 57/57/57 58/58/58
f 58/58/58 59/59/59 56/56/56
f 60/60/60 61/61/61 62/62/62
f 62/62/62 63/63/63 60/60/60
f 64/64/64 65/65/65 66/66/66
f 66/66/66 67/67/67 64/64/64
f 39/39/39 68/68/68 37/37/37
f 69/69/69 70/70/70 71/71/71
f 71/71/71 72/72/72 69/69/69
