# Exported using wow.export v0.2.19
o 21138_City01.obj
v -12.642285346984863 3.7278213500976562 5.980180740356445
v -12.642285346984863 5.051336765289307 3.288628578186035
v -8.51819896697998 3.7278168201446533 6.426753520965576
v -9.246631622314453 -6.88002872467041 21.016510009765625
v -9.246639251708984 -7.650816917419434 21.016510009765625
v -9.244524002075195 -6.879762649536133 18.953561782836914
v -8.518195152282715 3.727816343307495 18.953561782836914
v -8.51819896697998 3.7278168201446533 6.426753520965576
v -7.136641025543213 4.421360969543457 18.95355987548828
v -8.51820182800293 3.7278168201446533 -6.963767051696777
v -10.51380729675293 1.7440688610076904 -19.490549087524414
v -8.518195152282715 3.7278175354003906 -19.490549087524414
v -11.768622398376465 -1.181022047996521 -9.522971153259277
v -12.27427864074707 -4.730441093444824 -19.49054718017578
v -11.768619537353516 -1.1810224056243896 -19.49054527282715
v -2.8267924785614014 5.642391681671143 -19.490549087524414
v -5.755075931549072 5.051331043243408 -4.25020694732666
v -5.75506591796875 5.051332950592041 -19.490549087524414
v -7.13663387298584 4.421361923217773 -19.49054718017578
v -10.513811111450195 1.7106966972351074 -8.693906784057617
v -12.27428913116455 -4.730442523956299 -9.466376304626465
v -2.826795816421509 5.642390727996826 -0.26850393414497375
v -8.51820182800293 3.7278168201446533 -6.963767051696777
v -12.642285346984863 5.051332950592041 -3.826105833053589
v -12.642285346984863 3.7278196811676025 -6.517656326293945
v -5.755075931549072 5.051331043243408 -4.25020694732666
v -10.513811111450195 1.7106966972351074 -8.693906784057617
v -12.642285346984863 1.7106995582580566 -8.394590377807617
v 3.5763516426086426 -6.879763126373291 19.26496124267578
v 3.5768229961395264 -7.584208011627197 19.254592895507812
v 3.5907320976257324 -6.866875648498535 21.016510009765625
v -11.768622398376465 -1.181022047996521 -9.522971153259277
v -12.642285346984863 -1.1810193061828613 -9.385258674621582
v -12.27428913116455 -4.730442523956299 -9.466376304626465
v -12.642285346984863 -4.730438232421875 -9.408132553100586
v -12.642285346984863 5.642394065856934 -0.26873600482940674
v -2.826795816421509 5.642390727996826 -0.26850393414497375
v -9.18496036529541 -7.257049560546875 14.676312446594238
v -9.24452018737793 -6.879744052886963 7.393220901489258
v -9.24452018737793 -6.879761219024658 -19.490550994873047
v -9.244524002075195 -7.404665470123291 -19.490550994873047
v -9.246631622314453 -6.880029678344727 -21.5427303314209
v -9.183037757873535 -7.640541076660156 7.430189609527588
v 3.590935707092285 -7.549407958984375 -21.5427303314209
v 3.587127685546875 -7.548946857452393 -20.91172218322754
v 3.57635498046875 -6.8797607421875 -19.179153442382812
v 3.57680606842041 -7.547700881958008 -19.18898582458496
v 3.5763447284698486 -6.879759788513184 0.042894840240478516
v 3.576819658279419 -7.575630187988281 4.842153549194336
v 3.576819658279419 -7.572767734527588 0.032694023102521896
v 3.58168888092041 -7.593169212341309 19.871530532836914
v 3.5768094062805176 -7.557485103607178 -11.68677043914795
v 3.5768094062805176 -7.565654277801514 -5.422117710113525
v 3.5768229961395264 -7.581473350524902 14.659578323364258
v 3.590742349624634 -7.609829425811768 21.016510009765625
v -9.24587345123291 -7.486682415008545 -20.852046966552734
v -9.244537353515625 -6.8797502517700195 -11.73991584777832
v -9.244534492492676 -6.879744052886963 -7.930241107940674
v -9.225772857666016 -7.218660354614258 -7.930241107940674
v -9.250616073608398 -7.552337646484375 -21.5427303314209
v 3.5907320976257324 -6.86687707901001 -21.5427303314209
v -9.183037757873535 -7.640541076660156 7.430189609527588
v -12.642285346984863 -7.56296968460083 6.966941833496094
v -12.642285346984863 -6.879739761352539 6.966943264007568
v -9.244534492492676 -7.5264763832092285 18.953563690185547
v -9.23763370513916 -7.561221599578857 19.966419219970703
v -10.513811111450195 1.7440682649612427 18.953561782836914
v -11.768619537353516 -1.1810237169265747 18.953561782836914
v -12.274285316467285 -4.730442523956299 18.95670509338379
v -11.768619537353516 -1.1810239553451538 8.98595142364502
v -5.755075931549072 5.051333427429199 3.7131941318511963
v -5.755069255828857 5.051331043243408 18.953561782836914
v -5.755075931549072 5.051333427429199 3.7131941318511963
v -10.51380729675293 1.7106966972351074 8.156885147094727
v -12.274285316467285 -4.730444431304932 8.929362297058105
v -2.826795816421509 5.64238977432251 18.95355987548828
v 0.101470947265625 5.051338195800781 -0.26850625872612
v 2.345008134841919 4.010533809661865 18.953561782836914
v 0.101484514772892 5.051331520080566 18.953561782836914
v 6.115030765533447 -1.181020736694336 -0.2685064673423767
v 6.60611629486084 -4.730441093444824 19.264963150024414
v 6.11503791809082 -1.181023120880127 18.953561782836914
v 6.606119632720947 -4.730440139770508 0.042895156890153885
v 4.860212802886963 1.7443119287490845 -0.2685064673423767
v 4.86021614074707 1.7106953859329224 18.953561782836914
v 2.8645968437194824 3.7278175354003906 -0.26850637793540955
v 2.864600419998169 3.727815866470337 18.95355987548828
v -9.24452018737793 -6.879744052886963 7.393220901489258
v -9.244534492492676 -6.879744052886963 -7.930241107940674
v -12.642285346984863 -6.879740238189697 -7.5048828125
v -12.642285346984863 -7.225749492645264 -7.504429340362549
v -9.225772857666016 -7.218660354614258 -7.930241107940674
v 2.8646037578582764 3.727818489074707 -19.490556716918945
v 1.4830491542816162 4.4488983154296875 -19.490554809570312
v 4.860219478607178 1.7106977701187134 -19.49056053161621
v 6.115041255950928 -1.1810208559036255 -19.490556716918945
v 6.606119632720947 -4.730439186096191 -19.179157257080078
v 0.1014879047870636 5.051334857940674 -19.490554809570312
v -12.642285346984863 -4.730438232421875 8.870654106140137
v -12.642285346984863 -1.181017518043518 8.8477783203125
v -12.274285316467285 -4.730444431304932 8.929362297058105
v -11.768619537353516 -1.1810239553451538 8.98595142364502
v -10.51380729675293 1.7106966972351074 8.156885147094727
v -12.642285346984863 1.7107003927230835 7.857109069824219
v 4.900119304656982 -5.038886070251465 -21.5427303314209
v 3.5907320976257324 -6.86687707901001 -21.5427303314209
v 4.885549068450928 -5.05203914642334 -19.179155349731445
v -10.556012153625488 -5.052039623260498 21.016510009765625
v -9.246631622314453 -6.88002872467041 21.016510009765625
v -10.553714752197266 -5.052042007446289 18.953561782836914
v -12.274285316467285 -4.730442523956299 18.95670509338379
v -12.276837348937988 -4.7303924560546875 21.016510009765625
v -9.244534492492676 -6.879744052886963 -7.930241107940674
v -12.642285346984863 -5.052038669586182 -8.251489639282227
v -12.642285346984863 -6.879740238189697 -7.5048828125
v -10.553714752197266 -5.0520405769348145 -19.490550994873047
v -12.27427864074707 -4.730441093444824 -19.49054718017578
v -12.27428913116455 -4.730442523956299 -9.466376304626465
v 6.60611629486084 -4.730441093444824 19.264963150024414
v 4.88554573059082 -5.052041530609131 19.264963150024414
v 6.620931148529053 -4.736963748931885 21.016510009765625
v 4.900119304656982 -5.03888463973999 21.016510009765625
v 6.606119632720947 -4.730439186096191 -19.179157257080078
v 6.606119632720947 -4.730440139770508 0.042895156890153885
v 4.88553524017334 -5.05203914642334 0.04289478808641434
v 3.57635498046875 -6.8797607421875 -19.179153442382812
v 3.5763447284698486 -6.879759788513184 0.042894840240478516
v 3.5763516426086426 -6.879763126373291 19.26496124267578
v 6.620924472808838 -4.743541240692139 -21.5427303314209
v -9.244524002075195 -6.879762649536133 18.953561782836914
v -12.642285346984863 -4.730438232421875 -9.408132553100586
v -10.553717613220215 -5.052042007446289 -8.540251731872559
v -12.27428913116455 -4.730442523956299 -9.466376304626465
v -10.553714752197266 -5.052042007446289 8.003230094909668
v -9.24452018737793 -6.879744052886963 7.393220901489258
v -12.642285346984863 -5.052037715911865 7.714237689971924
v 3.5907320976257324 -6.866875648498535 21.016510009765625
v -12.276837348937988 -4.730393409729004 -21.5427303314209
v -10.556015014648438 -5.0520405769348145 -21.5427303314209
v -10.553717613220215 -5.052042007446289 -8.540251731872559
v -9.244537353515625 -6.8797502517700195 -11.73991584777832
v -9.24452018737793 -6.879761219024658 -19.490550994873047
v -9.246631622314453 -6.880029678344727 -21.5427303314209
v -12.642285346984863 -6.879739761352539 6.966943264007568
v -12.274285316467285 -4.730444431304932 8.929362297058105
v -12.642285346984863 -4.730438232421875 8.870654106140137
v -10.553714752197266 -5.052042007446289 8.003230094909668
v -9.24452018737793 -6.879744052886963 7.393220901489258
v -12.274285316467285 -4.730444431304932 8.929362297058105
v -9.244534492492676 -6.879744052886963 -7.930241107940674
v -8.520194053649902 3.7291150093078613 21.016510009765625
v -10.516104698181152 1.7450735569000244 21.016510009765625
v -8.518195152282715 3.727816343307495 18.953561782836914
v -10.513811111450195 1.7440682649612427 18.953561782836914
v -11.771100044250488 -1.1804498434066772 21.016510009765625
v -12.276837348937988 -4.7303924560546875 21.016510009765625
v -11.768619537353516 -1.1810237169265747 18.953561782836914
v -12.274285316467285 -4.730442523956299 18.95670509338379
v -2.827953815460205 5.643971920013428 21.016510009765625
v -5.756661415100098 5.052825450897217 21.016510009765625
v -2.826795816421509 5.64238977432251 18.95355987548828
v -5.755069255828857 5.051331043243408 18.953561782836914
v -8.000532150268555 4.011876106262207 21.016510009765625
v -7.998613357543945 4.010534763336182 18.953563690185547
v 2.8642849922180176 3.729116678237915 21.016510009765625
v 2.3446247577667236 4.011875152587891 21.016510009765625
v 2.864600419998169 3.727815866470337 18.95355987548828
v 2.345008134841919 4.010533809661865 18.953561782836914
v 4.860195636749268 1.7450765371322632 21.016510009765625
v 4.86021614074707 1.7106953859329224 18.953561782836914
v 6.115200519561768 -1.1804461479187012 21.016510009765625
v 6.11503791809082 -1.181023120880127 18.953561782836914
v 6.620931148529053 -4.736963748931885 21.016510009765625
v 6.60611629486084 -4.730441093444824 19.264963150024414
v 0.1007554829120636 5.052826881408691 21.016510009765625
v 0.101484514772892 5.051331520080566 18.953561782836914
v -10.516104698181152 1.7450727224349976 -21.5427303314209
v -8.520197868347168 3.729114055633545 -21.5427303314209
v -10.51380729675293 1.7440688610076904 -19.490549087524414
v -8.518195152282715 3.7278175354003906 -19.490549087524414
v -12.276837348937988 -4.730393409729004 -21.5427303314209
v -11.771100044250488 -1.1804507970809937 -21.5427303314209
v -12.27427864074707 -4.730441093444824 -19.49054718017578
v -11.768619537353516 -1.1810224056243896 -19.49054527282715
v -5.75507116317749 5.051332950592041 -21.5427303314209
v -2.82680082321167 5.642390727996826 -21.5427303314209
v -5.75506591796875 5.051332950592041 -19.490549087524414
v -2.8267924785614014 5.642391681671143 -19.490549087524414
v -7.13663387298584 4.421361446380615 -21.54273223876953
v -7.13663387298584 4.421361923217773 -19.49054718017578
v -7.991607666015625 3.9921650886535645 -21.5427303314209
v 1.4830491542816162 4.448897838592529 -21.54273223876953
v 2.34462833404541 4.0118727684021 -21.542734146118164
v 1.4830491542816162 4.4488983154296875 -19.490554809570312
v 2.8646037578582764 3.727818489074707 -19.490556716918945
v 2.8645968437194824 3.727818727493286 -21.5427303314209
v 4.860208988189697 1.7106988430023193 -21.5427303314209
v 4.860219478607178 1.7106977701187134 -19.49056053161621
v 6.115030765533447 -1.1810188293457031 -21.5427303314209
v 6.115041255950928 -1.1810208559036255 -19.490556716918945
v 6.620924472808838 -4.743541240692139 -21.5427303314209
v 6.606119632720947 -4.730439186096191 -19.179157257080078
v 0.1007554829120636 5.052824974060059 -21.5427303314209
v 0.1014879047870636 5.051334857940674 -19.490554809570312
v 3.590935707092285 -7.549407958984375 -21.5427303314209
v -9.24587345123291 -7.486682415008545 -20.852046966552734
v 3.587127685546875 -7.548946857452393 -20.91172218322754
v 3.58168888092041 -7.593169212341309 19.871530532836914
v -9.246639251708984 -7.650816917419434 21.016510009765625
v 3.590742349624634 -7.609829425811768 21.016510009765625
v -9.250616073608398 -7.552337646484375 -21.5427303314209
v -12.64229679107666 -14.206552505493164 21.016510009765625
v -9.215180397033691 -8.12614631652832 21.016510009765625
v -12.642300605773926 -7.626791954040527 21.016510009765625
v -9.23763370513916 -7.561221599578857 19.966419219970703
v -12.642285346984863 -7.741230487823486 -4.661472797393799
v 3.576819658279419 -7.575630187988281 4.842153549194336
v 3.576819658279419 -7.572767734527588 0.032694023102521896
v 3.57680606842041 -7.547700881958008 -19.18898582458496
v -9.244537353515625 -6.8797502517700195 -11.73991584777832
v 3.5768094062805176 -7.557485103607178 -11.68677043914795
v 3.5768229961395264 -7.584208011627197 19.254592895507812
v -9.23763370513916 -7.561221599578857 19.966419219970703
v 3.58168888092041 -7.593169212341309 19.871530532836914
v -9.244534492492676 -7.5264763832092285 18.953563690185547
v 3.587127685546875 -7.548946857452393 -20.91172218322754
v 3.5768094062805176 -7.565654277801514 -5.422117710113525
v -9.225772857666016 -7.218660354614258 -7.930241107940674
v -12.642285346984863 -7.225749492645264 -7.504429340362549
v -12.642285346984863 -7.741230487823486 4.116016864776611
v -9.183037757873535 -7.640541076660156 7.430189609527588
v -9.18496036529541 -7.257049560546875 14.676312446594238
v -9.244524002075195 -7.404665470123291 -19.490550994873047
v -9.24587345123291 -7.486682415008545 -20.852046966552734
v 3.5768229961395264 -7.581473350524902 14.659578323364258
v -12.642285346984863 -7.56296968460083 6.966941833496094
v -4.645565509796143 0.5120737552642822 -17.992515563964844
v -4.890163898468018 1.8973571062088013 -17.773942947387695
v -4.769237995147705 1.8989639282226562 -18.284597396850586
v 0.7131016850471497 2.5071728229522705 -18.375343322753906
v 0.7280358076095581 1.9610462188720703 -17.900602340698242
v -2.960667848587036 2.561053991317749 -18.375343322753906
v -1.1961991786956787 5.48256254196167 -18.436479568481445
v -1.5444607734680176 1.9034572839736938 -17.91900634765625
v -1.772143006324768 5.489297866821289 -17.880783081054688
v -1.1520979404449463 1.8989639282226562 -18.284597396850586
v -1.0032144784927368 5.480075359344482 -17.66028594970703
v -1.1520979404449463 1.8989639282226562 -18.284597396850586
v -1.1961991786956787 5.48256254196167 -18.436479568481445
v -1.0311720371246338 1.8973568677902222 -17.773942947387695
v -1.772143006324768 5.489297866821289 -17.880783081054688
v -1.0311720371246338 1.8973568677902222 -17.773942947387695
v -1.0032144784927368 5.480075359344482 -17.66028594970703
v -1.5444607734680176 1.9034572839736938 -17.91900634765625
v -1.2757704257965088 0.5120733976364136 -17.992515563964844
v 4.2698822021484375 5.4825615882873535 -18.436479568481445
v 3.921621561050415 1.9034568071365356 -17.919008255004883
v 3.693939208984375 5.489297389984131 -17.880783081054688
v 4.313984394073486 1.8989633321762085 -18.284597396850586
v 4.462867736816406 5.480074882507324 -17.66028594970703
v 4.313984394073486 1.8989633321762085 -18.284597396850586
v 4.2698822021484375 5.4825615882873535 -18.436479568481445
v 4.434910297393799 1.8973565101623535 -17.773942947387695
v 3.693939208984375 5.489297389984131 -17.880783081054688
v 4.434910297393799 1.8973565101623535 -17.773942947387695
v 4.462867736816406 5.480074882507324 -17.66028594970703
v 3.921621561050415 1.9034568071365356 -17.919008255004883
v 4.3955864906311035 0.5120729804039001 -17.992517471313477
v -6.63443660736084 2.5071728229522705 -18.375343322753906
v -11.656726837158203 2.2591564655303955 -18.375341415405273
v -6.621412754058838 2.6452462673187256 -17.66501235961914
v -11.62589168548584 2.397230625152588 -17.66501235961914
v -6.621412754058838 2.6452462673187256 -17.66501235961914
v -11.62589168548584 2.397230625152588 -17.66501235961914
v -6.64937162399292 1.9610466957092285 -17.900602340698242
v -11.692075729370117 1.7130303382873535 -17.90060043334961
v -6.64937162399292 1.9610466957092285 -17.900602340698242
v -11.692075729370117 1.7130303382873535 -17.90060043334961
v -6.63443660736084 2.5071728229522705 -18.375343322753906
v -11.656726837158203 2.2591564655303955 -18.375341415405273
v -6.821480751037598 5.469166278839111 -17.880781173706055
v -7.0491623878479 1.8833255767822266 -17.91900634765625
v -7.39742374420166 5.462430477142334 -18.436477661132812
v -7.441524982452393 1.8788323402404785 -18.284597396850586
v -7.39742374420166 5.462430477142334 -18.436477661132812
v -7.441524982452393 1.8788323402404785 -18.284597396850586
v -7.5904083251953125 5.459944248199463 -17.66028594970703
v -7.562450885772705 1.8772252798080444 -17.773942947387695
v -7.5904083251953125 5.459944248199463 -17.66028594970703
v -7.562450885772705 1.8772252798080444 -17.773942947387695
v -6.821480751037598 5.469166278839111 -17.880781173706055
v -7.0491623878479 1.8833255767822266 -17.91900634765625
v -7.43310546875 0.4919418692588806 -17.992515563964844
v -6.63443660736084 2.5071728229522705 -18.375343322753906
v -2.960667848587036 2.6991279125213623 -17.66501235961914
v -2.960667848587036 2.561053991317749 -18.375343322753906
v -6.621412754058838 2.6452462673187256 -17.66501235961914
v -2.960667848587036 2.014927864074707 -17.90060043334961
v -2.960667848587036 2.6991279125213623 -17.66501235961914
v -6.64937162399292 1.9610466957092285 -17.900602340698242
v -2.960667848587036 2.014927864074707 -17.90060043334961
v -4.14919376373291 5.489297389984131 -17.880781173706055
v -4.376875400543213 1.9034572839736938 -17.91900634765625
v -4.725136756896973 5.4825615882873535 -18.436477661132812
v -4.725136756896973 5.4825615882873535 -18.436477661132812
v -4.769237995147705 1.8989639282226562 -18.284597396850586
v -4.918121337890625 5.480075359344482 -17.6602840423584
v -4.890163898468018 1.8973571062088013 -17.773942947387695
v -4.918121337890625 5.480075359344482 -17.6602840423584
v -4.14919376373291 5.489297389984131 -17.880781173706055
v -4.376875400543213 1.9034572839736938 -17.91900634765625
v 0.7280358076095581 1.9610462188720703 -17.900602340698242
v 0.7000766396522522 2.6452460289001465 -17.665014266967773
v 0.7000766396522522 2.6452460289001465 -17.665014266967773
v 0.7131016850471497 2.5071728229522705 -18.375343322753906
v 1.6411157846450806 1.8772248029708862 -17.773942947387695
v 1.1278263330459595 1.883325219154358 -17.91900634765625
v 1.511770486831665 0.4919411242008209 -17.992517471313477
v 1.520189881324768 1.8788316249847412 -18.284597396850586
v 1.6411157846450806 1.8772248029708862 -17.773942947387695
v 1.1278263330459595 1.883325219154358 -17.91900634765625
v 1.520189881324768 1.8788316249847412 -18.284597396850586
v 0.9001448154449463 5.469166278839111 -17.880783081054688
v 1.6690733432769775 5.459944248199463 -17.66028594970703
v 1.6690733432769775 5.459944248199463 -17.66028594970703
v 1.4760878086090088 5.462430477142334 -18.436479568481445
v 1.4760878086090088 5.462430477142334 -18.436479568481445
v 0.9001448154449463 5.469166278839111 -17.880783081054688
v 5.735391139984131 2.259155511856079 -18.375343322753906
v 5.770741939544678 1.7130292654037476 -17.900602340698242
v 0.7280358076095581 1.9610462188720703 -17.900602340698242
v 5.770741939544678 1.7130292654037476 -17.900602340698242
v 5.7045578956604 2.3972294330596924 -17.665014266967773
v 0.7000766396522522 2.6452460289001465 -17.665014266967773
v 5.7045578956604 2.3972294330596924 -17.665014266967773
v 5.735391139984131 2.259155511856079 -18.375343322753906
v 0.7131016850471497 2.5071728229522705 -18.375343322753906
v -10.356245040893555 1.897357702255249 17.26120376586914
v -10.316923141479492 0.512074887752533 17.47977638244629
v -10.235321044921875 1.898964524269104 17.77185821533203
v -10.191218376159668 5.4825615882873535 -18.436477661132812
v -9.842958450317383 1.9034576416015625 -17.91900634765625
v -10.235319137573242 1.8989641666412354 -18.284595489501953
v -10.191218376159668 5.4825615882873535 -18.436477661132812
v -10.235319137573242 1.8989641666412354 -18.284595489501953
v -10.38420295715332 5.480075836181641 -17.6602840423584
v -10.356244087219238 1.8973573446273804 -17.773941040039062
v -10.38420295715332 5.480075836181641 -17.6602840423584
v -10.356244087219238 1.8973573446273804 -17.773941040039062
v -9.615273475646973 5.489297866821289 -17.880781173706055
v -9.842958450317383 1.9034576416015625 -17.91900634765625
v -10.316922187805176 0.5120740532875061 -17.992515563964844
v 5.735392093658447 2.2591562271118164 17.862600326538086
v 0.7000766396522522 2.6452465057373047 17.152273178100586
v 0.7131016850471497 2.5071730613708496 17.86260223388672
v 5.704558372497559 2.3972301483154297 17.152271270751953
v 5.704558372497559 2.3972301483154297 17.152271270751953
v 0.7280358076095581 1.961046814918518 17.387861251831055
v 0.7000766396522522 2.6452465057373047 17.152273178100586
v 5.770742893218994 1.7130300998687744 17.387859344482422
v 5.770742893218994 1.7130300998687744 17.387859344482422
v 0.7131016850471497 2.5071730613708496 17.86260223388672
v 0.7280358076095581 1.961046814918518 17.387861251831055
v 5.735392093658447 2.2591562271118164 17.862600326538086
v 1.1278263330459595 1.8833258152008057 17.406265258789062
v 1.4760886430740356 5.462430000305176 17.923738479614258
v 0.9001456499099731 5.469165325164795 17.3680419921875
v 1.520189881324768 1.8788323402404785 17.7718563079834
v 1.520189881324768 1.8788323402404785 17.7718563079834
v 1.6690741777420044 5.4599432945251465 17.147544860839844
v 1.4760886430740356 5.462430000305176 17.923738479614258
v 1.6411157846450806 1.8772255182266235 17.261201858520508
v 1.6411157846450806 1.8772255182266235 17.261201858520508
v 0.9001456499099731 5.469165325164795 17.3680419921875
v 1.6690741777420044 5.4599432945251465 17.147544860839844
v 1.1278263330459595 1.8833258152008057 17.406265258789062
v 1.511770486831665 0.49194231629371643 17.47977638244629
v -2.960667848587036 2.6991281509399414 17.152273178100586
v -2.960667848587036 2.5610544681549072 17.86260223388672
v 0.7131016850471497 2.5071730613708496 17.86260223388672
v -2.960667848587036 2.014928102493286 17.387861251831055
v -2.960667848587036 2.6991281509399414 17.152273178100586
v 0.7000766396522522 2.6452465057373047 17.152273178100586
v -2.960667848587036 2.5610544681549072 17.86260223388672
v -2.960667848587036 2.014928102493286 17.387861251831055
v 0.7280358076095581 1.961046814918518 17.387861251831055
v -1.5444607734680176 1.9034578800201416 17.406265258789062
v -1.1961991786956787 5.4825615882873535 17.923738479614258
v -1.7721421718597412 5.489296913146973 17.3680419921875
v -1.1520979404449463 1.8989644050598145 17.7718563079834
v -1.1520979404449463 1.8989644050598145 17.7718563079834
v -1.0032144784927368 5.480074882507324 17.147544860839844
v -1.1961991786956787 5.4825615882873535 17.923738479614258
v -1.0311720371246338 1.8973575830459595 17.261201858520508
v -1.0311720371246338 1.8973575830459595 17.261201858520508
v -1.7721421718597412 5.489296913146973 17.3680419921875
v -1.0032144784927368 5.480074882507324 17.147544860839844
v -1.5444607734680176 1.9034578800201416 17.406265258789062
v -1.2757704257965088 0.5120744705200195 17.479774475097656
v 3.921621561050415 1.9034574031829834 17.406265258789062
v 4.26988410949707 5.4825615882873535 17.923738479614258
v 3.6939408779144287 5.489296913146973 17.3680419921875
v 4.313984394073486 1.8989641666412354 17.7718563079834
v 4.313984394073486 1.8989641666412354 17.7718563079834
v 4.462868690490723 5.480074405670166 17.147544860839844
v 4.26988410949707 5.4825615882873535 17.923738479614258
v 4.434911251068115 1.8973571062088013 17.261201858520508
v 4.434911251068115 1.8973571062088013 17.261201858520508
v 3.6939408779144287 5.489296913146973 17.3680419921875
v 4.462868690490723 5.480074405670166 17.147544860839844
v 3.921621561050415 1.9034574031829834 17.406265258789062
v 4.3955864906311035 0.5120741724967957 17.479774475097656
v -11.65672779083252 2.2591567039489746 17.86260223388672
v -6.634438514709473 2.5071730613708496 17.86260414123535
v -6.621412754058838 2.6452465057373047 17.152273178100586
v -11.625893592834473 2.397230863571167 17.152273178100586
v -11.625893592834473 2.397230863571167 17.152273178100586
v -6.621412754058838 2.6452465057373047 17.152273178100586
v -6.64937162399292 1.9610470533370972 17.387861251831055
v -11.692079544067383 1.7130306959152222 17.387861251831055
v -11.692079544067383 1.7130306959152222 17.387861251831055
v -6.64937162399292 1.9610470533370972 17.387861251831055
v -6.634438514709473 2.5071730613708496 17.86260414123535
v -11.65672779083252 2.2591567039489746 17.86260223388672
v -7.049163818359375 1.8833260536193848 17.406267166137695
v -6.821482181549072 5.469165325164795 17.3680419921875
v -7.39742374420166 5.462429523468018 17.923738479614258
v -7.441526889801025 1.8788326978683472 17.77185821533203
v -7.441526889801025 1.8788326978683472 17.77185821533203
v -7.39742374420166 5.462429523468018 17.923738479614258
v -7.590410232543945 5.4599432945251465 17.147546768188477
v -7.562452793121338 1.877225637435913 17.26120376586914
v -7.562452793121338 1.877225637435913 17.26120376586914
v -7.590410232543945 5.4599432945251465 17.147546768188477
v -6.821482181549072 5.469165325164795 17.3680419921875
v -7.049163818359375 1.8833260536193848 17.406267166137695
v -7.433107376098633 0.49194273352622986 17.47977638244629
v -6.634438514709473 2.5071730613708496 17.86260414123535
v -6.621412754058838 2.6452465057373047 17.152273178100586
v -6.64937162399292 1.9610470533370972 17.387861251831055
v -4.376875400543213 1.9034578800201416 17.406267166137695
v -4.14919376373291 5.4892964363098145 17.3680419921875
v -4.725136756896973 5.4825615882873535 17.923738479614258
v -4.769237995147705 1.8989644050598145 17.7718563079834
v -4.769237995147705 1.8989644050598145 17.7718563079834
v -4.725136756896973 5.4825615882873535 17.923738479614258
v -4.918121337890625 5.480074405670166 17.147544860839844
v -4.890163898468018 1.8973575830459595 17.261201858520508
v -4.890163898468018 1.8973575830459595 17.261201858520508
v -4.918121337890625 5.480074405670166 17.147544860839844
v -4.14919376373291 5.4892964363098145 17.3680419921875
v -4.376875400543213 1.9034578800201416 17.406267166137695
v -4.645565509796143 0.5120747089385986 17.47977638244629
v -9.842960357666016 1.9034581184387207 17.406267166137695
v -9.615275382995605 5.489296913146973 17.368043899536133
v -10.1912202835083 5.482561111450195 17.92374038696289
v -10.235321044921875 1.898964524269104 17.77185821533203
v -10.1912202835083 5.482561111450195 17.92374038696289
v -10.384204864501953 5.480074882507324 17.147546768188477
v -10.356245040893555 1.897357702255249 17.26120376586914
v -10.384204864501953 5.480074882507324 17.147546768188477
v -9.615275382995605 5.489296913146973 17.368043899536133
v -9.842960357666016 1.9034581184387207 17.406267166137695
v -9.615273475646973 5.489297866821289 -17.880781173706055
vn -0.0002496685483492911 -0.8025751709938049 -0.5965509414672852
vn -0.00032974264468066394 -0.9520806670188904 -0.30584684014320374
vn 0.3431360423564911 -0.8838633894920349 -0.31787288188934326
vn 0.9520928263664246 0.3058091402053833 -0.0000011024853847629856
vn 0.8595775365829468 0.30305227637290955 0.4114435017108917
vn 0.9669711589813232 0.2548856735229492 0.0003529984678607434
vn 0.5974910855293274 -0.8018748164176941 0.0010822743643075228
vn 0.3431360423564911 -0.8838633894920349 -0.31787288188934326
vn 0.414880633354187 -0.9098641276359558 0.004618046339601278
vn 0.34310775995254517 -0.8838682174682617 0.3178899884223938
vn 0.8268998861312866 -0.5623478889465332 -0.0011999004054814577
vn 0.5841496586799622 -0.8116459846496582 0
vn 0.7234576344490051 -0.2834489941596985 0.6294963955879211
vn 0.8125684261322021 0.5828651189804077 -0.0008569380734115839
vn 0.9628648161888123 -0.26998111605644226 -0.0012364189606159925
vn 5.776637408416718e-7 -1 1.6637785904549673e-7
vn 0.17159400880336761 -0.9737198352813721 0.14975038170814514
vn 0.3083837926387787 -0.9512619972229004 0
vn 0.41488656401634216 -0.9098731279373169 1.8792384537391627e-7
vn 0.571549117565155 -0.6435406804084778 0.5091040730476379
vn 0.5306379199028015 0.6968750953674316 0.48248159885406494
vn -9.940558953758227e-8 -1 0.000001358164240627957
vn 0.34310775995254517 -0.8838682174682617 0.3178899884223938
vn -0.00038098706863820553 -0.9520806074142456 0.30584704875946045
vn -0.0003494584234431386 -0.8025757074356079 0.5965501666069031
vn 0.17159400880336761 -0.9737198352813721 0.14975038170814514
vn 0.571549117565155 -0.6435406804084778 0.5091040730476379
vn 0.06386926025152206 -0.513119101524353 0.8559377789497375
vn -0.9521945118904114 0.3054923117160797 3.8309485717036296e-7
vn -0.69830322265625 0.7158019542694092 0.000426546175731346
vn -0.9517154693603516 0.3069767653942108 0.0017063557170331478
vn 0.7234576344490051 -0.2834489941596985 0.6294963955879211
vn 0.07709729671478271 -0.16701418161392212 0.9829355478286743
vn 0.5306379199028015 0.6968750953674316 0.48248159885406494
vn 0.06099532172083855 0.6031094193458557 0.7953229546546936
vn -0.00037327365134842694 -0.9999999403953552 3.5497788530847174e-7
vn -9.940558953758227e-8 -1 0.000001358164240627957
vn 0.8672477602958679 0.49783754348754883 0.00625580595806241
vn 0.6811743974685669 0.35922563076019287 -0.6379328966140747
vn 0.9520929455757141 0.3058083951473236 -0.0005386900738812983
vn 0.7086985111236572 0.7041908502578735 -0.043147966265678406
vn 0.9497255086898804 0.3130730986595154 0.0025826930068433285
vn 0.6070646643638611 0.568902850151062 -0.5548170804977417
vn -0.8049978017807007 0.3918655514717102 -0.4454435706138611
vn -0.7055179476737976 0.7071385979652405 -0.04689851403236389
vn -0.9520832896232605 0.30582159757614136 -0.003242776496335864
vn -0.688438892364502 0.7252936959266663 0.0009462281595915556
vn -0.9521945118904114 0.3054923117160797 3.8309485717036296e-7
vn -0.71062171459198 0.7034235000610352 -0.014565730467438698
vn -0.7111429572105408 0.7030467987060547 0.0009171361452899873
vn -0.7081643342971802 0.7058695554733276 0.01585618034005165
vn -0.688438892364502 0.7252936959266663 0.0009461421868763864
vn -0.29999086260795593 0.9500341415405273 0.08625882863998413
vn -0.6983080506324768 0.7157972455024719 0.00042625280912034214
vn -0.8613280653953552 0.2967894375324249 0.4123469293117523
vn 0.708659827709198 0.7042310833930969 -0.04312548786401749
vn 0.5881931781768799 0.8082292079925537 0.02818416617810726
vn 0.6878043413162231 0.34026265144348145 0.6412070989608765
vn 0.5986091494560242 0.559770405292511 0.5729958415031433
vn 0.8586106300354004 0.2929164171218872 -0.4206990897655487
vn -0.9509614706039429 0.3093075454235077 -0.0010688283946365118
vn 0.6070646643638611 0.568902850151062 -0.5548170804977417
vn 0.044462792575359344 0.6853459477424622 -0.7268589735031128
vn 0.06150193139910698 0.18315908312797546 -0.9811576008796692
vn 0.7081811428070068 0.7052115797996521 0.03400084003806114
vn 0.6986312866210938 0.7152643799781799 0.017642706632614136
vn 0.8271327614784241 -0.5620052814483643 0.001192891038954258
vn 0.9628645181655884 -0.26998230814933777 0.0012302737450227141
vn 0.8125676512718201 0.5828662514686584 0.0008505740552209318
vn 0.7236301302909851 -0.2834077477455139 -0.6293166875839233
vn 0.17160344123840332 -0.9737191200256348 -0.14974428713321686
vn 0.31149348616600037 -0.9502478241920471 0.0009289290173910558
vn 0.17160344123840332 -0.9737191200256348 -0.14974428713321686
vn 0.571620762348175 -0.6435177326202393 -0.5090526342391968
vn 0.5310952067375183 0.6967701315879822 -0.48212993144989014
vn 1.2921427128276264e-7 -0.9999998807907104 0.000440036877989769
vn -0.3173511028289795 -0.9483081102371216 -1.0559084984151923e-7
vn -0.47792842984199524 -0.8783602714538574 0.008222282864153385
vn -0.31149497628211975 -0.9502478241920471 -3.339493659382242e-8
vn -0.9634105563163757 -0.268030047416687 4.672922315762662e-8
vn -0.8113932013511658 0.5845006704330444 -1.0446718334833349e-7
vn -0.9634109139442444 -0.26802870631217957 3.0739246881239524e-7
vn -0.8113926649093628 0.5845014452934265 1.506473523704699e-8
vn -0.8271234035491943 -0.562019944190979 -0.0006315503269433975
vn -0.8259397745132446 -0.5637574791908264 -0.0009857839904725552
vn -0.5765731334686279 -0.8170453310012817 -0.0006289683515205979
vn -0.5800006985664368 -0.8146159648895264 3.0463635170008274e-8
vn 0.6811743974685669 0.35922563076019287 -0.6379328966140747
vn 0.6878043413162231 0.34026265144348145 0.6412070989608765
vn 0.06054120883345604 0.19303081929683685 0.979323148727417
vn 0.015795841813087463 0.7511053085327148 0.6599934101104736
vn 0.5986091494560242 0.559770405292511 0.5729958415031433
vn -0.5800008177757263 -0.8146159052848816 -2.405539589744876e-7
vn -0.4626946747303009 -0.8865008354187012 -0.005472126416862011
vn -0.8259398341178894 -0.5637574791908264 0.0009855706011876464
vn -0.9634109139442444 -0.26802873611450195 -5.083704195385508e-7
vn -0.8113932013511658 0.5845006704330444 2.5777028511697608e-8
vn -0.300467312335968 -0.9537920951843262 -1.3555282407651248e-7
vn 0.06145673990249634 0.6031014919281006 -0.7952934503555298
vn 0.07761183381080627 -0.16701290011405945 -0.9828952550888062
vn 0.5310952067375183 0.6967701315879822 -0.48212993144989014
vn 0.7236301302909851 -0.2834077477455139 -0.6293166875839233
vn 0.571620762348175 -0.6435177326202393 -0.5090526342391968
vn 0.0641043409705162 -0.5131135582923889 -0.8559235334396362
vn -0.5297345519065857 0.8481451869010925 -0.005572701804339886
vn -0.9509614706039429 0.3093075454235077 -0.0010688283946365118
vn -0.5371022820472717 0.8435171246528625 -3.789874938320281e-7
vn 0.5371037721633911 0.8435161709785461 3.5293328437546734e-7
vn 0.9520928263664246 0.3058091402053833 -0.0000011024853847629856
vn 0.5371032953262329 0.84351646900177 -1.1195454163726026e-7
vn 0.8125676512718201 0.5828662514686584 0.0008505740552209318
vn 0.49135664105415344 0.808067262172699 0.32495537400245667
vn 0.6878043413162231 0.34026265144348145 0.6412070989608765
vn 0.00023408583365380764 0.7471103668212891 0.6646999716758728
vn 0.06054120883345604 0.19303081929683685 0.979323148727417
vn 0.5371030569076538 0.8435165882110596 3.409715532143309e-7
vn 0.8125684261322021 0.5828651189804077 -0.0008569380734115839
vn 0.5306379199028015 0.6968750953674316 0.48248159885406494
vn -0.8113932013511658 0.5845006704330444 -1.0446718334833349e-7
vn -0.5371022820472717 0.8435171246528625 3.7723998502769973e-7
vn -0.49318021535873413 0.8097526431083679 0.3179212510585785
vn -0.5313053727149963 0.8471620082855225 0.005578597541898489
vn -0.8113932013511658 0.5845006704330444 2.5777028511697608e-8
vn -0.8113926649093628 0.5845014452934265 1.506473523704699e-8
vn -0.5371026992797852 0.8435168266296387 3.1379809684040083e-7
vn -0.9520832896232605 0.30582159757614136 -0.003242776496335864
vn -0.9521945118904114 0.3054923117160797 3.8309485717036296e-7
vn -0.9521945118904114 0.3054923117160797 3.8309485717036296e-7
vn -0.49148544669151306 0.8108062744140625 -0.3178604543209076
vn 0.9669711589813232 0.2548856735229492 0.0003529984678607434
vn 0.06099532172083855 0.6031094193458557 0.7953229546546936
vn 0.3453916609287262 0.8703799843788147 0.3509177565574646
vn 0.5306379199028015 0.6968750953674316 0.48248159885406494
vn 0.34542083740234375 0.8703706860542297 -0.3509121239185333
vn 0.6811743974685669 0.35922563076019287 -0.6379328966140747
vn 0.00034421609598211944 0.7472009062767029 -0.6645981669425964
vn -0.9517154693603516 0.3069767653942108 0.0017063557170331478
vn 0.49269968271255493 0.8067959547042847 -0.3260786831378937
vn 0.5371032357215881 0.8435165286064148 3.129066215024068e-7
vn 0.3453916609287262 0.8703799843788147 0.3509177565574646
vn 0.5881931781768799 0.8082292079925537 0.02818416617810726
vn 0.9520929455757141 0.3058083951473236 -0.0005386900738812983
vn 0.9497255086898804 0.3130730986595154 0.0025826930068433285
vn 0.06150193139910698 0.18315908312797546 -0.9811576008796692
vn 0.5310952067375183 0.6967701315879822 -0.48212993144989014
vn 0.06145673990249634 0.6031014919281006 -0.7952934503555298
vn 0.34542083740234375 0.8703706860542297 -0.3509121239185333
vn 0.6811743974685669 0.35922563076019287 -0.6379328966140747
vn 0.5310952067375183 0.6967701315879822 -0.48212993144989014
vn 0.6878043413162231 0.34026265144348145 0.6412070989608765
vn 0.5763559341430664 -0.8171957731246948 0.002206398406997323
vn 0.5724857449531555 -0.7200191020965576 0.39221492409706116
vn 0.5974910855293274 -0.8018748164176941 0.0010822743643075228
vn 0.8271327614784241 -0.5620052814483643 0.001192891038954258
vn 0.6823307871818542 -0.18674209713935852 0.7067899703979492
vn 0.49135664105415344 0.808067262172699 0.32495537400245667
vn 0.9628645181655884 -0.26998230814933777 0.0012302737450227141
vn 0.8125676512718201 0.5828662514686584 0.0008505740552209318
vn 2.3226455425628956e-7 -1 -1.4839774564734398e-7
vn 0.31707027554512024 -0.948399543762207 0.002191583625972271
vn 1.2921427128276264e-7 -0.9999998807907104 0.000440036877989769
vn 0.31149348616600037 -0.9502478241920471 0.0009289290173910558
vn 0.4208291471004486 -0.9071393609046936 0.0009819668484851718
vn 0.42082861065864563 -0.9071396589279175 0.0009812212083488703
vn -0.5763565897941589 -0.8171953558921814 0.0022047965321689844
vn -0.477944940328598 -0.8783896565437317 0.00048238749150186777
vn -0.5800006985664368 -0.8146159648895264 3.0463635170008274e-8
vn -0.47792842984199524 -0.8783602714538574 0.008222282864153385
vn -0.5705697536468506 -0.7158188223838806 0.40255874395370483
vn -0.8259397745132446 -0.5637574791908264 -0.0009857839904725552
vn -0.6801294088363647 -0.19009453058242798 0.7080169916152954
vn -0.9634109139442444 -0.26802870631217957 3.0739246881239524e-7
vn -0.49318021535873413 0.8097526431083679 0.3179212510585785
vn -0.8113932013511658 0.5845006704330444 -1.0446718334833349e-7
vn -0.3170706033706665 -0.9483994245529175 0.002191107487305999
vn -0.31149497628211975 -0.9502478241920471 -3.339493659382242e-8
vn 0.5724591016769409 -0.7201599478721619 -0.39199525117874146
vn 0.5766618847846985 -0.8169796466827393 -0.0023014256730675697
vn 0.8268998861312866 -0.5623478889465332 -0.0011999004054814577
vn 0.5841496586799622 -0.8116459846496582 0
vn 0.49269968271255493 0.8067959547042847 -0.3260786831378937
vn 0.682689368724823 -0.1876012533903122 -0.7062159776687622
vn 0.8125684261322021 0.5828651189804077 -0.0008569380734115839
vn 0.9628648161888123 -0.26998111605644226 -0.0012364189606159925
vn 0.31453895568847656 -0.9492404460906982 -0.0028046397492289543
vn 0.00006981906335568056 -0.9999999403953552 -0.00034958787728101015
vn 0.3083837926387787 -0.9512619972229004 0
vn 5.776637408416718e-7 -1 1.6637785904549673e-7
vn 0.41488656401634216 -0.9098731279373169 1.8792384537391627e-7
vn 0.41488656401634216 -0.9098731279373169 1.8792384537391627e-7
vn 0.44864365458488464 -0.893710732460022 0
vn -0.45236989855766296 -0.8918303847312927 1.8419808611724875e-7
vn -0.45236989855766296 -0.8918303847312927 1.8419808611724875e-7
vn -0.4626946747303009 -0.8865008354187012 -0.005472126416862011
vn -0.5800008177757263 -0.8146159052848816 -2.405539589744876e-7
vn -0.580285906791687 -0.8144094944000244 -0.002345180604606867
vn -0.5727222561836243 -0.7143272757530212 -0.40215134620666504
vn -0.8259398341178894 -0.5637574791908264 0.0009855706011876464
vn -0.6818476319313049 -0.1917102187871933 -0.7059256434440613
vn -0.9634109139442444 -0.26802873611450195 -5.083704195385508e-7
vn -0.49148544669151306 0.8108062744140625 -0.3178604543209076
vn -0.8113932013511658 0.5845006704330444 2.5777028511697608e-8
vn -0.3147188127040863 -0.9491814970970154 -0.002553155180066824
vn -0.300467312335968 -0.9537920951843262 -1.3555282407651248e-7
vn -0.8049978017807007 0.3918655514717102 -0.4454435706138611
vn 0.708659827709198 0.7042310833930969 -0.04312548786401749
vn -0.7055179476737976 0.7071385979652405 -0.04689851403236389
vn -0.7081643342971802 0.7058695554733276 0.01585618034005165
vn 0.8595775365829468 0.30305227637290955 0.4114435017108917
vn -0.8613280653953552 0.2967894375324249 0.4123469293117523
vn 0.8586106300354004 0.2929164171218872 -0.4206990897655487
vn 0 0 1
vn 0.6931746006011963 0.310360848903656 0.650526762008667
vn 0 0 1
vn 0.6986312866210938 0.7152643799781799 0.017642706632614136
vn -0.033882465213537216 0.995726466178894 0.08591156452894211
vn -0.71062171459198 0.7034235000610352 -0.014565730467438698
vn -0.7111429572105408 0.7030467987060547 0.0009171361452899873
vn -0.688438892364502 0.7252936959266663 0.0009462281595915556
vn 0.5881931781768799 0.8082292079925537 0.02818416617810726
vn -0.688438892364502 0.7252936959266663 0.0009461421868763864
vn -0.69830322265625 0.7158019542694092 0.000426546175731346
vn 0.6986312866210938 0.7152643799781799 0.017642706632614136
vn -0.7081643342971802 0.7058695554733276 0.01585618034005165
vn 0.7081811428070068 0.7052115797996521 0.03400084003806114
vn -0.7055179476737976 0.7071385979652405 -0.04689851403236389
vn -0.29999086260795593 0.9500341415405273 0.08625882863998413
vn 0.5986091494560242 0.559770405292511 0.5729958415031433
vn 0.015795841813087463 0.7511053085327148 0.6599934101104736
vn -0.033938825130462646 0.9974759221076965 -0.062369491904973984
vn 0.6070646643638611 0.568902850151062 -0.5548170804977417
vn 0.8672477602958679 0.49783754348754883 0.00625580595806241
vn 0.7086985111236572 0.7041908502578735 -0.043147966265678406
vn 0.708659827709198 0.7042310833930969 -0.04312548786401749
vn -0.6983080506324768 0.7157972455024719 0.00042625280912034214
vn 0.044462792575359344 0.6853459477424622 -0.7268589735031128
vn -0.04001283645629883 -0.9991990327835083 0.0005233657429926097
vn -0.95313960313797 -0.09337636828422546 0.2877599596977234
vn -0.7185210585594177 -0.09849782288074493 -0.6884952187538147
vn 0.016185421496629715 0.32508811354637146 -0.9455451965332031
vn -0.04834211245179176 -0.980411171913147 0.19093720614910126
vn 0.0048127626068890095 0.32551679015159607 -0.9455240368843079
vn 0.2764033377170563 -0.03469816595315933 -0.9604151248931885
vn -0.9678348898887634 -0.06404594331979752 0.24329766631126404
vn -0.9682696461677551 -0.06462278217077255 0.24140793085098267
vn 0.718520998954773 -0.09849806129932404 -0.6884952783584595
vn 0.6943007111549377 -0.026598796248435974 0.7191933393478394
vn 0.718520998954773 -0.09849806129932404 -0.6884952783584595
vn 0.2764033377170563 -0.03469816595315933 -0.9604151248931885
vn 0.95313960313797 -0.09337615221738815 0.287759929895401
vn -0.9682696461677551 -0.06462278217077255 0.24140793085098267
vn 0.95313960313797 -0.09337615221738815 0.287759929895401
vn 0.6943007111549377 -0.026598796248435974 0.7191933393478394
vn -0.9678348898887634 -0.06404594331979752 0.24329766631126404
vn 0.040012482553720474 -0.9991990327835083 0.0005228242371231318
vn 0.27640247344970703 -0.034697674214839935 -0.9604154229164124
vn -0.9508489370346069 -0.19787849485874176 0.23818151652812958
vn -0.9682695865631104 -0.0646224394440651 0.24140824377536774
vn -0.21832320094108582 -0.13059811294078827 -0.9670982956886292
vn 0.6943011283874512 -0.02659863419830799 0.7191929221153259
vn -0.21832320094108582 -0.13059811294078827 -0.9670982956886292
vn 0.27640247344970703 -0.034697674214839935 -0.9604154229164124
vn 0.24453678727149963 -0.09812943637371063 0.9646617770195007
vn -0.9682695865631104 -0.0646224394440651 0.24140824377536774
vn 0.24453678727149963 -0.09812943637371063 0.9646617770195007
vn 0.6943011283874512 -0.02659863419830799 0.7191929221153259
vn -0.9508489370346069 -0.19787849485874176 0.23818151652812958
vn 0.09792046993970871 -0.9950986504554749 0.013792403973639011
vn -0.01618565060198307 0.32508814334869385 -0.9455451965332031
vn -0.016032958403229713 0.32465827465057373 -0.9456954598426819
vn -0.03226253017783165 0.6544691920280457 0.7554000020027161
vn -0.032411810010671616 0.6540078520774841 0.7557930946350098
vn -0.03226253017783165 0.6544691920280457 0.7554000020027161
vn -0.032411810010671616 0.6540078520774841 0.7557930946350098
vn 0.04834175109863281 -0.9804113507270813 0.19093619287014008
vn 0.048224061727523804 -0.9804972410202026 0.19052445888519287
vn 0.04834175109863281 -0.9804113507270813 0.19093619287014008
vn 0.048224061727523804 -0.9804972410202026 0.19052445888519287
vn -0.01618565060198307 0.32508814334869385 -0.9455451965332031
vn -0.016032958403229713 0.32465827465057373 -0.9456954598426819
vn 0.968269407749176 -0.06462238729000092 0.2414090931415558
vn 0.9566581845283508 -0.16871802508831024 0.23735901713371277
vn -0.27640271186828613 -0.03469760715961456 -0.9604153633117676
vn 0.22084006667137146 -0.10625588148832321 -0.969504714012146
vn -0.27640271186828613 -0.03469760715961456 -0.9604153633117676
vn 0.22084006667137146 -0.10625588148832321 -0.969504714012146
vn -0.6943015456199646 -0.026598704978823662 0.7191925048828125
vn -0.24421380460262299 -0.08819899708032608 0.9657021164894104
vn -0.6943015456199646 -0.026598704978823662 0.7191925048828125
vn -0.24421380460262299 -0.08819899708032608 0.9657021164894104
vn 0.968269407749176 -0.06462238729000092 0.2414090931415558
vn 0.9566581845283508 -0.16871802508831024 0.23735901713371277
vn -0.07700835913419724 -0.9970216751098633 0.004176110029220581
vn -0.01618565060198307 0.32508814334869385 -0.9455451965332031
vn 0.009604167193174362 0.6559683680534363 0.754727303981781
vn 0.0048127626068890095 0.32551679015159607 -0.9455240368843079
vn -0.03226253017783165 0.6544691920280457 0.7554000020027161
vn -0.014373479411005974 -0.9815199375152588 0.19081929326057434
vn 0.009604167193174362 0.6559683680534363 0.754727303981781
vn 0.04834175109863281 -0.9804113507270813 0.19093619287014008
vn -0.014373479411005974 -0.9815199375152588 0.19081929326057434
vn 0.9682695865631104 -0.06462271511554718 0.2414080798625946
vn 0.9678348302841187 -0.06404583901166916 0.2432979792356491
vn -0.27640295028686523 -0.03469761088490486 -0.960415244102478
vn -0.27640295028686523 -0.03469761088490486 -0.960415244102478
vn -0.7185210585594177 -0.09849782288074493 -0.6884952187538147
vn -0.694300651550293 -0.026599138975143433 0.7191933393478394
vn -0.95313960313797 -0.09337636828422546 0.2877599596977234
vn -0.694300651550293 -0.026599138975143433 0.7191933393478394
vn 0.9682695865631104 -0.06462271511554718 0.2414080798625946
vn 0.9678348302841187 -0.06404583901166916 0.2432979792356491
vn -0.04834211245179176 -0.980411171913147 0.19093720614910126
vn 0.03226263448596001 0.6544702649116516 0.7553991079330444
vn 0.03226263448596001 0.6544702649116516 0.7553991079330444
vn 0.016185421496629715 0.32508811354637146 -0.9455451965332031
vn 0.24421317875385284 -0.0881996899843216 0.9657021760940552
vn -0.9566581845283508 -0.16871830821037292 0.23735882341861725
vn 0.07701193541288376 -0.9970214366912842 0.004173568449914455
vn -0.22083906829357147 -0.10625559091567993 -0.9695049524307251
vn 0.24421317875385284 -0.0881996899843216 0.9657021760940552
vn -0.9566581845283508 -0.16871830821037292 0.23735882341861725
vn -0.22083906829357147 -0.10625559091567993 -0.9695049524307251
vn -0.9682695865631104 -0.06462260335683823 0.24140824377536774
vn 0.6943011283874512 -0.026598630473017693 0.7191929221153259
vn 0.6943011283874512 -0.026598630473017693 0.7191929221153259
vn 0.27640247344970703 -0.034697841852903366 -0.9604154229164124
vn 0.27640247344970703 -0.034697841852903366 -0.9604154229164124
vn -0.9682695865631104 -0.06462260335683823 0.24140824377536774
vn 0.016032682731747627 0.3246580958366394 -0.9456955194473267
vn -0.048224110156297684 -0.9804972410202026 0.1905243843793869
vn -0.04834211245179176 -0.980411171913147 0.19093720614910126
vn -0.048224110156297684 -0.9804972410202026 0.1905243843793869
vn 0.032411955296993256 0.6540088057518005 0.7557922601699829
vn 0.03226263448596001 0.6544702649116516 0.7553991079330444
vn 0.032411955296993256 0.6540088057518005 0.7557922601699829
vn 0.016032682731747627 0.3246580958366394 -0.9456955194473267
vn 0.016185421496629715 0.32508811354637146 -0.9455451965332031
vn -0.24453753232955933 -0.09812910854816437 -0.9646616578102112
vn -0.09791717678308487 -0.9950987100601196 -0.01381236594170332
vn 0.21832744777202606 -0.1305987685918808 0.9670972228050232
vn -0.27640366554260254 -0.0346982516348362 -0.9604150056838989
vn 0.9508491158485413 -0.19787852466106415 0.2381807565689087
vn 0.21832522749900818 -0.13059823215007782 -0.967097818851471
vn -0.27640366554260254 -0.0346982516348362 -0.9604150056838989
vn 0.21832522749900818 -0.13059823215007782 -0.967097818851471
vn -0.6943008899688721 -0.02659865841269493 0.719193160533905
vn -0.2445361167192459 -0.09812968224287033 0.9646619558334351
vn -0.6943008899688721 -0.02659865841269493 0.719193160533905
vn -0.2445361167192459 -0.09812968224287033 0.9646619558334351
vn 0.9682697057723999 -0.06462282687425613 0.24140767753124237
vn 0.9508491158485413 -0.19787852466106415 0.2381807565689087
vn -0.09791330993175507 -0.9950991868972778 0.013804327696561813
vn 0.016032984480261803 0.32465797662734985 0.9456955790519714
vn 0.03226234391331673 0.6544701457023621 -0.7553991675376892
vn 0.016185715794563293 0.3250880539417267 0.9455451965332031
vn 0.032411668449640274 0.6540087461471558 -0.7557923197746277
vn 0.032411668449640274 0.6540087461471558 -0.7557923197746277
vn -0.04834213852882385 -0.9804111123085022 -0.19093728065490723
vn 0.03226234391331673 0.6544701457023621 -0.7553991675376892
vn -0.04822412505745888 -0.9804972410202026 -0.1905243843793869
vn -0.04822412505745888 -0.9804972410202026 -0.1905243843793869
vn 0.016185715794563293 0.3250880539417267 0.9455451965332031
vn -0.04834213852882385 -0.9804111123085022 -0.19093728065490723
vn 0.016032984480261803 0.32465797662734985 0.9456955790519714
vn -0.9566581845283508 -0.16871824860572815 -0.23735886812210083
vn 0.27640247344970703 -0.034697916358709335 0.9604154229164124
vn -0.9682695865631104 -0.06462239474058151 -0.24140824377536774
vn -0.22083908319473267 -0.1062556728720665 0.9695049524307251
vn -0.22083908319473267 -0.1062556728720665 0.9695049524307251
vn 0.6943010687828064 -0.02659880369901657 -0.7191929221153259
vn 0.27640247344970703 -0.034697916358709335 0.9604154229164124
vn 0.24421317875385284 -0.08819980919361115 -0.9657021760940552
vn 0.24421317875385284 -0.08819980919361115 -0.9657021760940552
vn -0.9682695865631104 -0.06462239474058151 -0.24140824377536774
vn 0.6943010687828064 -0.02659880369901657 -0.7191929221153259
vn -0.9566581845283508 -0.16871824860572815 -0.23735886812210083
vn 0.07701190561056137 -0.9970214366912842 -0.004173748195171356
vn 0.009603753685951233 0.6559683680534363 -0.754727303981781
vn 0.004813159350305796 0.325517475605011 0.9455237984657288
vn 0.016185715794563293 0.3250880539417267 0.9455451965332031
vn -0.014373513869941235 -0.9815201163291931 -0.19081830978393555
vn 0.009603753685951233 0.6559683680534363 -0.754727303981781
vn 0.03226234391331673 0.6544701457023621 -0.7553991675376892
vn 0.004813159350305796 0.325517475605011 0.9455237984657288
vn -0.014373513869941235 -0.9815201163291931 -0.19081830978393555
vn -0.04834213852882385 -0.9804111123085022 -0.19093728065490723
vn -0.9678348302841187 -0.0640457421541214 -0.24329794943332672
vn 0.27640300989151 -0.034698061645030975 0.960415244102478
vn -0.9682696461677551 -0.06462261080741882 -0.24140802025794983
vn 0.718520998954773 -0.09849810600280762 0.6884952187538147
vn 0.718520998954773 -0.09849810600280762 0.6884952187538147
vn 0.694300651550293 -0.02659880556166172 -0.7191933989524841
vn 0.27640300989151 -0.034698061645030975 0.960415244102478
vn 0.95313960313797 -0.09337620437145233 -0.2877599895000458
vn 0.95313960313797 -0.09337620437145233 -0.2877599895000458
vn -0.9682696461677551 -0.06462261080741882 -0.24140802025794983
vn 0.694300651550293 -0.02659880556166172 -0.7191933989524841
vn -0.9678348302841187 -0.0640457421541214 -0.24329794943332672
vn 0.04001246765255928 -0.9991990327835083 -0.0005231851246207952
vn -0.9508483409881592 -0.1978783905506134 -0.23818378150463104
vn 0.27640300989151 -0.03469812870025635 0.960415244102478
vn -0.9682696461677551 -0.06462244689464569 -0.24140802025794983
vn -0.21832531690597534 -0.1305987685918808 0.9670976996421814
vn -0.21832531690597534 -0.1305987685918808 0.9670976996421814
vn 0.694300651550293 -0.026599034667015076 -0.7191933989524841
vn 0.27640300989151 -0.03469812870025635 0.960415244102478
vn 0.2445383220911026 -0.09812883287668228 -0.9646614789962769
vn 0.2445383220911026 -0.09812883287668228 -0.9646614789962769
vn -0.9682696461677551 -0.06462244689464569 -0.24140802025794983
vn 0.694300651550293 -0.026599034667015076 -0.7191933989524841
vn -0.9508483409881592 -0.1978783905506134 -0.23818378150463104
vn 0.09792482107877731 -0.9950981736183167 -0.013795677572488785
vn -0.016032956540584564 0.32465821504592896 0.9456955194473267
vn -0.016185373067855835 0.32508742809295654 0.9455454349517822
vn -0.03226257115602493 0.6544699668884277 -0.7553993463516235
vn -0.032411839812994 0.654008686542511 -0.7557923793792725
vn -0.032411839812994 0.654008686542511 -0.7557923793792725
vn -0.03226257115602493 0.6544699668884277 -0.7553993463516235
vn 0.048341959714889526 -0.9804109930992126 -0.19093814492225647
vn 0.048223961144685745 -0.9804971218109131 -0.19052532315254211
vn 0.048223961144685745 -0.9804971218109131 -0.19052532315254211
vn 0.048341959714889526 -0.9804109930992126 -0.19093814492225647
vn -0.016185373067855835 0.32508742809295654 0.9455454349517822
vn -0.016032956540584564 0.32465821504592896 0.9456955194473267
vn 0.956658124923706 -0.16871801018714905 -0.23735935986042023
vn 0.9682692289352417 -0.0646224096417427 -0.2414097934961319
vn -0.2764010429382324 -0.034697312861680984 0.9604158401489258
vn 0.22084005177021027 -0.10625576227903366 0.969504714012146
vn 0.22084005177021027 -0.10625576227903366 0.969504714012146
vn -0.2764010429382324 -0.034697312861680984 0.9604158401489258
vn -0.6943022608757019 -0.026598390191793442 -0.7191917896270752
vn -0.2442137897014618 -0.08819902688264847 -0.9657021164894104
vn -0.2442137897014618 -0.08819902688264847 -0.9657021164894104
vn -0.6943022608757019 -0.026598390191793442 -0.7191917896270752
vn 0.9682692289352417 -0.0646224096417427 -0.2414097934961319
vn 0.956658124923706 -0.16871801018714905 -0.23735935986042023
vn -0.0770084336400032 -0.9970216751098633 -0.004175927489995956
vn -0.016185373067855835 0.32508742809295654 0.9455454349517822
vn -0.03226257115602493 0.6544699668884277 -0.7553993463516235
vn 0.048341959714889526 -0.9804109930992126 -0.19093814492225647
vn 0.9678351879119873 -0.06404587626457214 -0.24329645931720734
vn 0.9682696461677551 -0.06462229043245316 -0.24140803515911102
vn -0.27640300989151 -0.03469773381948471 0.960415244102478
vn -0.7185210585594177 -0.09849786013364792 0.6884951591491699
vn -0.7185210585594177 -0.09849786013364792 0.6884951591491699
vn -0.27640300989151 -0.03469773381948471 0.960415244102478
vn -0.694300651550293 -0.02659880742430687 -0.7191933989524841
vn -0.95313960313797 -0.0933760553598404 -0.2877599596977234
vn -0.95313960313797 -0.0933760553598404 -0.2877599596977234
vn -0.694300651550293 -0.02659880742430687 -0.7191933989524841
vn 0.9682696461677551 -0.06462229043245316 -0.24140803515911102
vn 0.9678351879119873 -0.06404587626457214 -0.24329645931720734
vn -0.04000887647271156 -0.9991992115974426 -0.0005154224345460534
vn 0.9508485794067383 -0.1978786289691925 -0.23818287253379822
vn 0.9682697057723999 -0.06462318450212479 -0.24140766263008118
vn -0.27640366554260254 -0.03469860181212425 0.9604150056838989
vn 0.21832744777202606 -0.1305987685918808 0.9670972228050232
vn -0.27640366554260254 -0.03469860181212425 0.9604150056838989
vn -0.6943008303642273 -0.026598675176501274 -0.7191932201385498
vn -0.24453753232955933 -0.09812910854816437 -0.9646616578102112
vn -0.6943008303642273 -0.026598675176501274 -0.7191932201385498
vn 0.9682697057723999 -0.06462318450212479 -0.24140766263008118
vn 0.9508485794067383 -0.1978786289691925 -0.23818287253379822
vn 0.9682697057723999 -0.06462282687425613 0.24140767753124237
vt 0.0005008280277252197 1.5
vt 0.0005000829696655273 2
vt 0.4202388525009155 1.5
vt 3.998002052307129 2.9984986782073975
vt 3.998002052307129 2.9069600105285645
vt 3.804703712463379 2.9984989166259766
vt 3.99770450592041 1.5
vt 2.686230182647705 1.5
vt 3.99770450592041 1.75
vt 1.3134709596633911 1.5
vt 0.001998424530029297 1
vt 0.0019985437393188477 1.5
vt 0.9984937906265259 0.5
vt 0.0019981861114501953 0.0012500286102294922
vt 0.001998305320739746 0.5
vt 0.0019987821578979492 2.5
vt 1.6091104745864868 2
vt 0.001998424530029297 2
vt 0.0019985437393188477 1.75
vt 1.107309103012085 1
vt 0.9959564208984375 0.0012494325637817383
vt 1.9999994039535522 2.5
vt 0.4202389121055603 1.5
vt 0.000500112771987915 2
vt 0.0005009174346923828 1.5
vt 0.7014647722244263 2
vt 0.21712905168533325 1
vt 0.0005003809928894043 1
vt 3.833940267562866 2.9984984397888184
vt 3.8329668045043945 2.8987033367156982
vt 3.998002052307129 2.9984984397888184
vt 0.08941653370857239 0.5
vt 0.000500410795211792 0.5
vt 0.037950098514556885 0.0012492537498474121
vt 0.0004993677139282227 0.0012492537498474121
vt 0.0004998445510864258 2.5
vt 0.9995002150535583 2.5
vt 3.426565408706665 2.9474148750305176
vt 2.794849395751953 2.9985015392303467
vt 0.19529759883880615 2.998499631881714
vt 0.19529756903648376 2.9241394996643066
vt 0.0019989013671875 2.998499631881714
vt 2.794849395751953 2.891237258911133
vt 0.030292289331555367 2.90183162689209
vt 0.08251883834600449 2.902383804321289
vt 0.22453415393829346 2.9984993934631348
vt 0.2236110419034958 2.9038758277893066
vt 2.029236316680908 2.9984991550445557
vt 2.4798247814178467 2.899919033050537
vt 2.0282785892486572 2.900324583053589
vt 3.8906900882720947 2.896817922592163
vt 0.9279720783233643 2.90248966217041
vt 1.5161421298980713 2.901332378387451
vt 3.4015543460845947 2.8990910053253174
vt 3.998002052307129 2.893312692642212
vt 0.067662313580513 2.9125452041625977
vt 0.8723546266555786 2.9985008239746094
vt 1.2051489353179932 2.9985015392303467
vt 1.2051489353179932 2.9504892826080322
vt 0.0019988720305263996 2.9065802097320557
vt 0.031235337257385254 2.9984993934631348
vt 0.5367013812065125 2.8912370204925537
vt 0.0005021780962124467 2.896604537963867
vt 0.0005022287368774414 2.9985013008117676
vt 3.804703712463379 2.916835069656372
vt 3.898193359375 2.9120590686798096
vt 3.997704267501831 1
vt 3.997704267501831 0.5
vt 3.998002052307129 0.0012487173080444336
vt 3.0012059211730957 0.5
vt 0.7014647722244263 2
vt 3.99770450592041 2
vt 2.3905909061431885 2
vt 2.892390727996826 1
vt 3.003744125366211 0.0012488365173339844
vt 3.998002052307129 2.5
vt 1.9999994039535522 2
vt 3.998002052307129 1.75
vt 3.998002052307129 2
vt 1.9999991655349731 0.5
vt 3.9980015754699707 0.0012486577033996582
vt 3.9980015754699707 0.5
vt 1.999998927116394 0.001249551773071289
vt 1.9999992847442627 1
vt 3.998002052307129 1
vt 1.9999994039535522 1.5
vt 3.99800181388855 1.5
vt 0.5367014408111572 2.9985013008117676
vt 0.5366986989974976 2.9985013008117676
vt 0.000499427318572998 2.9985015392303467
vt 0.0004994521732442081 2.949484348297119
vt 0.5366986989974976 2.950488805770874
vt 0.0019986629486083984 1.5
vt 0.0019986629486083984 1.75
vt 0.0019981861114501953 1
vt 0.001998305320739746 0.5
vt 0.0019980669021606445 0.0012502074241638184
vt 0.0019987821578979492 2
vt 0.0004992783069610596 0.0012486577033996582
vt 0.0005002915859222412 0.5
vt 0.037949979305267334 0.0012486577033996582
vt 0.08941641449928284 0.5
vt 0.2171289622783661 1
vt 0.0005003213882446289 1
vt 0.031232118606567383 0.21958720684051514
vt 0.031232357025146484 0.0005028843879699707
vt 0.22451651096343994 0.21958708763122559
vt 3.997704029083252 0.21958470344543457
vt 3.997703790664673 0.000500798225402832
vt 3.804419994354248 0.21958482265472412
vt 3.8047146797180176 0.003411233425140381
vt 3.998002052307129 0.0034109950065612793
vt 0.371907114982605 0.0005000829696655273
vt 0.0005020201206207275 0.23649382591247559
vt 0.0004997551441192627 0.0005003213882446289
vt 0.19528234004974365 0.2195872664451599
vt 0.19528281688690186 0.003413558006286621
vt 0.9959564208984375 0.0034124255180358887
vt 3.8336546421051025 0.003410518169403076
vt 3.8336544036865234 0.21958422660827637
vt 3.997704029083252 0.0034103989601135254
vt 3.997704029083252 0.21958410739898682
vt 0.2245163917541504 0.003413379192352295
vt 2.0290846824645996 0.0034120678901672363
vt 2.0290846824645996 0.21958601474761963
vt 0.2245166301727295 0.0005027651786804199
vt 2.0290846824645996 0.0005021095275878906
vt 3.8336544036865234 0.000499725341796875
vt 0.031232118606567383 0.0034134984016418457
vt 3.804419994354248 0.0005008578300476074
vt 0.0005005300045013428 0.0019159913063049316
vt 0.344194233417511 0.22924745082855225
vt 0.10868909955024719 0.0019159913063049316
vt 0.3441939949989319 0.22924649715423584
vt 0.37190985679626465 0.0004994869232177734
vt 0.000501781702041626 0.23649287223815918
vt 3.997703790664673 0.0004996657371520996
vt 0.0019981861114501953 0.0034136176109313965
vt 0.0019980669021606445 0.2195873260498047
vt 1.1230018138885498 0.21958625316619873
vt 0.8722888827323914 0.0005078315734863281
vt 0.1952822208404541 0.0005033016204833984
vt 0.0019980669021606445 0.0005034208297729492
vt 0.0005025267601013184 0.000499725341796875
vt 0.1086888313293457 0.0019148588180541992
vt 0.0005002617835998535 0.0019148588180541992
vt 2.876697301864624 0.21958529949188232
vt 2.79464054107666 0.0005095005035400391
vt 3.0037434101104736 0.0034113526344299316
vt 1.2050584554672241 0.000510096549987793
vt 0.11170471459627151 1.5
vt 0.11170471459627151 1
vt -0.11524605751037598 1.5
vt -0.11524605751037598 1
vt 0.11170471459627151 0.5
vt 0.11170471459627151 0
vt -0.11524605751037598 0.5
vt -0.11524605751037598 0
vt 0.11170471459627151 2.5
vt 0.11170471459627151 2
vt -0.11524605751037598 2.5
vt -0.11524605751037598 2
vt 0.11170471459627151 1.75
vt -0.11524605751037598 1.75
vt 0.11170471459627151 1.5
vt 0.11170471459627151 1.75
vt -0.11524605751037598 1.5
vt -0.11524605751037598 1.75
vt 0.11170471459627151 1
vt -0.11524605751037598 1
vt 0.11170471459627151 0.5
vt -0.11524605751037598 0.5
vt 0.11170471459627151 0
vt -0.11524605751037598 0
vt 0.11170471459627151 2
vt -0.11524605751037598 2
vt -0.10996486991643906 1
vt -0.10996486991643906 1.5
vt 0.10950818657875061 1
vt 0.10950818657875061 1.5
vt -0.10996486991643906 0.0020009279251098633
vt -0.10996486991643906 0.5
vt 0.10950818657875061 0.0020008087158203125
vt 0.10950818657875061 0.5
vt -0.10996486991643906 2
vt -0.10996486991643906 2.5
vt 0.10950818657875061 2
vt 0.10950818657875061 2.5
vt -0.10996486991643906 1.75
vt 0.10950818657875061 1.75
vt -0.10996486991643906 1.595288634300232
vt -0.10996486991643906 1.75
vt -0.10996486991643906 1.594768762588501
vt 0.10950818657875061 1.75
vt 0.10950818657875061 1.5
vt -0.10996486991643906 1.5
vt -0.10996486991643906 1
vt 0.10950818657875061 1
vt -0.10996486991643906 0.5
vt 0.10950818657875061 0.5
vt -0.10996486991643906 0.0020006895065307617
vt 0.10950818657875061 0.0020006895065307617
vt -0.10996486991643906 2
vt 0.10950818657875061 2
vt 0 0.00099867582321167
vt 0.11599999666213989 1.5814929008483887
vt 0.11599999666213989 0.00099867582321167
vt 0.11220782995223999 0.0009998679161071777
vt 0.000050380440370645374 1.5788004398345947
vt 0.000050076843763235956 0.0009999275207519531
vt 0 1.581550121307373
vt 0.0010001063346862793 1.9990012645721436
vt 1.827548861503601 1.577185869216919
vt 1.976874589920044 1.9990012645721436
vt 0.10433228313922882 1.5797126293182373
vt 14.244535446166992 3.676034450531006
vt 13.218262672424316 2.1842405796051025
vt 13.735074043273926 2.1842405796051025
vt 15.806487083435059 2.1842405796051025
vt 14.99660587310791 3.36840558052063
vt 14.996732711791992 2.1842405796051025
vt 11.66572380065918 2.184242010116577
vt 11.591092109680176 3.3629791736602783
vt 11.600765228271484 2.184242010116577
vt 11.697651863098145 3.3620553016662598
vt 15.990513801574707 2.1842405796051025
vt 14.324933052062988 2.1842405796051025
vt 14.601675033569336 3.360473871231079
vt 14.550870895385742 3.6760358810424805
vt 13.298887252807617 3.676034450531006
vt 12.941234588623047 3.3578643798828125
vt 12.16057014465332 3.358041286468506
vt 15.845647811889648 3.358492851257324
vt 15.986343383789062 3.3643078804016113
vt 12.160163879394531 2.184242010116577
vt 12.991741180419922 3.676034450531006
vt 0.3448275625705719 0.0006094574928283691
vt 0.17041102051734924 0.22000360488891602
vt 0.3448275625705719 0.22000360488891602
vt 1.0195972919464111 0.36500000953674316
vt 0.9375771284103394 0.36500000953674316
vt 1.0195972919464111 0.002415478229522705
vt 0.3448275625705719 0.0006094574928283691
vt 0.17041102051734924 0.22000360488891602
vt 0.1853013038635254 0.0006094574928283691
vt 0.3448275625705719 0.22000360488891602
vt 0.3448275625705719 0.0006094574928283691
vt 0.17041102051734924 0.22000360488891602
vt 0.1853013038635254 0.0006094574928283691
vt 0.3448275625705719 0.22000360488891602
vt 0.3448275625705719 0.0006094574928283691
vt 0.17041102051734924 0.22000360488891602
vt 0.1853013038635254 0.0006094574928283691
vt 0.3448275625705719 0.22000360488891602
vt 0.3448275625705719 0.0006094574928283691
vt 0.3448275625705719 0.0006094574928283691
vt 0.17041102051734924 0.22000360488891602
vt 0.1853013038635254 0.0006094574928283691
vt 0.3448275625705719 0.22000360488891602
vt 0.3448275625705719 0.0006094574928283691
vt 0.17041102051734924 0.22000360488891602
vt 0.1853013038635254 0.0006094574928283691
vt 0.3448275625705719 0.22000360488891602
vt 0.3448275625705719 0.0006094574928283691
vt 0.17041102051734924 0.22000360488891602
vt 0.1853013038635254 0.0006094574928283691
vt 0.3448275625705719 0.22000360488891602
vt 0.3448275625705719 0.0006094574928283691
vt 0.9423566460609436 0.36500000953674316
vt 0.9277093410491943 0
vt 1.0195972919464111 0.36500000953674316
vt 1.0108706951141357 0
vt 0.9423566460609436 0.36500000953674316
vt 0.9277093410491943 0
vt 1.0195972919464111 0.36500000953674316
vt 1.0108706951141357 0
vt 0.9423566460609436 0.36500000953674316
vt 0.9277093410491943 0
vt 1.0195972919464111 0.36500000953674316
vt 1.0108706951141357 0
vt 0.1853013038635254 0.0006094574928283691
vt 0.17041102051734924 0.22000360488891602
vt 0.3448275625705719 0.0006094574928283691
vt 0.3448275625705719 0.22000360488891602
vt 0.1853013038635254 0.0006094574928283691
vt 0.17041102051734924 0.22000360488891602
vt 0.3448275625705719 0.0006094574928283691
vt 0.3448275625705719 0.22000360488891602
vt 0.1853013038635254 0.0006094574928283691
vt 0.17041102051734924 0.22000360488891602
vt 0.3448275625705719 0.0006094574928283691
vt 0.3448275625705719 0.22000360488891602
vt 0.3448275625705719 0.0006094574928283691
vt 0.9375771284103394 0.36500000953674316
vt 1.0195972919464111 0.002415478229522705
vt 0.9423566460609436 0.002415478229522705
vt 0.9375771284103394 0.36500000953674316
vt 1.0195972919464111 0.002415478229522705
vt 0.9423566460609436 0.002415478229522705
vt 0.9375771284103394 0.36500000953674316
vt 0.9423566460609436 0.002415478229522705
vt 0.1853013038635254 0.0006094574928283691
vt 0.17041102051734924 0.22000360488891602
vt 0.3448275625705719 0.0006094574928283691
vt 0.1853013038635254 0.0006094574928283691
vt 0.17041102051734924 0.22000360488891602
vt 0.3448275625705719 0.0006094574928283691
vt 0.3448275625705719 0.22000360488891602
vt 0.1853013038635254 0.0006094574928283691
vt 0.3448275625705719 0.0006094574928283691
vt 0.3448275625705719 0.22000360488891602
vt 1.0195972919464111 0.36500000953674316
vt 0.9375771284103394 0.36500000953674316
vt 1.0195972919464111 0.36500000953674316
vt 0.9375771284103394 0.36500000953674316
vt 0.3448275625705719 0.22000360488891602
vt 0.17041102051734924 0.22000360488891602
vt 0.3448275625705719 0.0006094574928283691
vt 0.3448275625705719 0.22000360488891602
vt 0.17041102051734924 0.22000360488891602
vt 0.3448275625705719 0.22000360488891602
vt 0.17041102051734924 0.22000360488891602
vt 0.3448275625705719 0.0006094574928283691
vt 0.1853013038635254 0.0006094574928283691
vt 0.3448275625705719 0.0006094574928283691
vt 0.1853013038635254 0.0006094574928283691
vt 0.3448275625705719 0.0006094574928283691
vt 0.1853013038635254 0.0006094574928283691
vt 1.0108706951141357 0
vt 0.9277093410491943 0
vt 0.9423566460609436 0.36500000953674316
vt 1.0108706951141357 0
vt 0.9277093410491943 0
vt 0.9423566460609436 0.36500000953674316
vt 1.0108706951141357 0
vt 0.9277093410491943 0
vt 0.9423566460609436 0.36500000953674316
vt 0.17041102051734924 0.22000360488891602
vt 0.3448275625705719 0.0006094574928283691
vt 0.3448275625705719 0.22000360488891602
vt 0.3448275625705719 0.0006094574928283691
vt 0.17041102051734924 0.22000360488891602
vt 0.3448275625705719 0.22000360488891602
vt 0.1853013038635254 0.0006094574928283691
vt 0.17041102051734924 0.22000360488891602
vt 0.3448275625705719 0.0006094574928283691
vt 0.3448275625705719 0.22000360488891602
vt 0.1853013038635254 0.0006094574928283691
vt 0.17041102051734924 0.22000360488891602
vt 0.3448275625705719 0.0006094574928283691
vt 0.3448275625705719 0.22000360488891602
vt 0.3448275625705719 0.0006094574928283691
vt 0.9277093410491943 0
vt 1.0195972919464111 0.36500000953674316
vt 0.9423566460609436 0.36500000953674316
vt 1.0108706951141357 0
vt 0.9277093410491943 0
vt 1.0195972919464111 0.36500000953674316
vt 0.9423566460609436 0.36500000953674316
vt 1.0108706951141357 0
vt 0.9277093410491943 0
vt 1.0195972919464111 0.36500000953674316
vt 0.9423566460609436 0.36500000953674316
vt 1.0108706951141357 0
vt 0.17041102051734924 0.22000360488891602
vt 0.3448275625705719 0.0006094574928283691
vt 0.1853013038635254 0.0006094574928283691
vt 0.3448275625705719 0.22000360488891602
vt 0.17041102051734924 0.22000360488891602
vt 0.3448275625705719 0.0006094574928283691
vt 0.1853013038635254 0.0006094574928283691
vt 0.3448275625705719 0.22000360488891602
vt 0.17041102051734924 0.22000360488891602
vt 0.3448275625705719 0.0006094574928283691
vt 0.1853013038635254 0.0006094574928283691
vt 0.3448275625705719 0.22000360488891602
vt 0.3448275625705719 0.0006094574928283691
vt 1.0195972919464111 0.002415478229522705
vt 0.9423566460609436 0.002415478229522705
vt 0.9375771284103394 0.36500000953674316
vt 1.0195972919464111 0.002415478229522705
vt 0.9423566460609436 0.002415478229522705
vt 0.9375771284103394 0.36500000953674316
vt 1.0195972919464111 0.002415478229522705
vt 0.9423566460609436 0.002415478229522705
vt 0.9375771284103394 0.36500000953674316
vt 0.17041102051734924 0.22000360488891602
vt 0.3448275625705719 0.0006094574928283691
vt 0.1853013038635254 0.0006094574928283691
vt 0.3448275625705719 0.22000360488891602
vt 0.17041102051734924 0.22000360488891602
vt 0.3448275625705719 0.0006094574928283691
vt 0.1853013038635254 0.0006094574928283691
vt 0.3448275625705719 0.22000360488891602
vt 0.17041102051734924 0.22000360488891602
vt 0.3448275625705719 0.0006094574928283691
vt 0.1853013038635254 0.0006094574928283691
vt 0.3448275625705719 0.22000360488891602
vt 0.3448275625705719 0.0006094574928283691
vt 0.17041102051734924 0.22000360488891602
vt 0.3448275625705719 0.0006094574928283691
vt 0.1853013038635254 0.0006094574928283691
vt 0.3448275625705719 0.22000360488891602
vt 0.17041102051734924 0.22000360488891602
vt 0.3448275625705719 0.0006094574928283691
vt 0.1853013038635254 0.0006094574928283691
vt 0.3448275625705719 0.22000360488891602
vt 0.17041102051734924 0.22000360488891602
vt 0.3448275625705719 0.0006094574928283691
vt 0.1853013038635254 0.0006094574928283691
vt 0.3448275625705719 0.22000360488891602
vt 0.3448275625705719 0.0006094574928283691
vt 0.9277093410491943 0
vt 0.9423566460609436 0.36500000953674316
vt 1.0195972919464111 0.36500000953674316
vt 1.0108706951141357 0
vt 0.9277093410491943 0
vt 0.9423566460609436 0.36500000953674316
vt 1.0195972919464111 0.36500000953674316
vt 1.0108706951141357 0
vt 0.9277093410491943 0
vt 0.9423566460609436 0.36500000953674316
vt 1.0195972919464111 0.36500000953674316
vt 1.0108706951141357 0
vt 0.17041102051734924 0.22000360488891602
vt 0.1853013038635254 0.0006094574928283691
vt 0.3448275625705719 0.0006094574928283691
vt 0.3448275625705719 0.22000360488891602
vt 0.17041102051734924 0.22000360488891602
vt 0.1853013038635254 0.0006094574928283691
vt 0.3448275625705719 0.0006094574928283691
vt 0.3448275625705719 0.22000360488891602
vt 0.17041102051734924 0.22000360488891602
vt 0.1853013038635254 0.0006094574928283691
vt 0.3448275625705719 0.0006094574928283691
vt 0.3448275625705719 0.22000360488891602
vt 0.3448275625705719 0.0006094574928283691
vt 0.9375771284103394 0.36500000953674316
vt 0.9375771284103394 0.36500000953674316
vt 0.9375771284103394 0.36500000953674316
vt 0.17041102051734924 0.22000360488891602
vt 0.1853013038635254 0.0006094574928283691
vt 0.3448275625705719 0.0006094574928283691
vt 0.3448275625705719 0.22000360488891602
vt 0.17041102051734924 0.22000360488891602
vt 0.1853013038635254 0.0006094574928283691
vt 0.3448275625705719 0.0006094574928283691
vt 0.3448275625705719 0.22000360488891602
vt 0.17041102051734924 0.22000360488891602
vt 0.1853013038635254 0.0006094574928283691
vt 0.3448275625705719 0.0006094574928283691
vt 0.3448275625705719 0.22000360488891602
vt 0.3448275625705719 0.0006094574928283691
vt 0.17041102051734924 0.22000360488891602
vt 0.1853013038635254 0.0006094574928283691
vt 0.3448275625705719 0.0006094574928283691
vt 0.17041102051734924 0.22000360488891602
vt 0.1853013038635254 0.0006094574928283691
vt 0.3448275625705719 0.0006094574928283691
vt 0.3448275625705719 0.22000360488891602
vt 0.1853013038635254 0.0006094574928283691
vt 0.3448275625705719 0.0006094574928283691
vt 0.3448275625705719 0.22000360488891602
vt 0.1853013038635254 0.0006094574928283691
g City010
s 1
f 1/1/1 2/2/2 3/3/3
f 4/4/4 5/5/5 6/6/6
f 7/7/7 8/8/8 9/9/9
f 10/10/10 11/11/11 12/12/12
f 13/13/13 14/14/14 15/15/15
f 16/16/16 17/17/17 18/18/18
f 18/18/18 10/10/10 19/19/19
f 10/10/10 18/18/18 17/17/17
f 15/15/15 11/11/11 20/20/20
f 20/20/20 11/11/11 10/10/10
f 20/20/20 13/13/13 15/15/15
f 21/21/21 14/14/14 13/13/13
f 22/22/22 17/17/17 16/16/16
f 23/23/23 24/24/24 25/25/25
f 24/24/24 23/23/23 26/26/26
f 27/27/27 25/25/25 28/28/28
f 25/25/25 27/27/27 23/23/23
f 29/29/29 30/30/30 31/31/31
f 32/32/32 28/28/28 33/33/33
f 28/28/28 32/32/32 27/27/27
f 34/34/34 33/33/33 35/35/35
f 33/33/33 34/34/34 32/32/32
f 26/26/26 36/36/36 24/24/24
f 36/36/36 26/26/26 37/37/37
f 19/19/19 10/10/10 12/12/12
f 6/6/6 38/38/38 39/39/39
f 40/40/40 41/41/41 42/42/42
f 38/38/38 43/43/43 39/39/39
f 44/44/44 45/45/45 46/46/46
f 46/46/46 47/47/47 48/48/48
f 49/49/49 48/48/48 50/50/50
f 30/30/30 51/51/51 31/31/31
f 45/45/45 47/47/47 46/46/46
f 52/52/52 53/53/53 48/48/48
f 54/54/54 48/48/48 49/49/49
f 30/30/30 48/48/48 54/54/54
f 51/51/51 55/55/55 31/31/31
f 53/53/53 50/50/50 48/48/48
f 41/41/41 56/56/56 42/42/42
f 57/57/57 41/41/41 40/40/40
f 58/58/58 59/59/59 57/57/57
f 56/56/56 60/60/60 42/42/42
f 61/61/61 44/44/44 46/46/46
f 62/62/62 63/63/63 64/64/64
f 6/6/6 65/65/65 38/38/38
f 5/5/5 66/66/66 6/6/6
f 66/66/66 65/65/65 6/6/6
f 7/7/7 67/67/67 8/8/8
f 68/68/68 69/69/69 70/70/70
f 2/2/2 36/36/36 71/71/71
f 9/9/9 8/8/8 72/72/72
f 73/73/73 72/72/72 8/8/8
f 74/74/74 67/67/67 68/68/68
f 8/8/8 67/67/67 74/74/74
f 68/68/68 70/70/70 74/74/74
f 70/70/70 69/69/69 75/75/75
f 76/76/76 73/73/73 22/22/22
f 37/37/37 71/71/71 36/36/36
f 72/72/72 73/73/73 76/76/76
f 77/77/77 78/78/78 79/79/79
f 77/77/77 79/79/79 22/22/22
f 76/76/76 22/22/22 79/79/79
f 48/48/48 30/30/30 29/29/29
f 80/80/80 81/81/81 82/82/82
f 81/81/81 80/80/80 83/83/83
f 84/84/84 82/82/82 85/85/85
f 82/82/82 84/84/84 80/80/80
f 86/86/86 85/85/85 87/87/87
f 85/85/85 86/86/86 84/84/84
f 77/77/77 87/87/87 78/78/78
f 87/87/87 77/77/77 86/86/86
f 88/88/88 62/62/62 64/64/64
f 89/89/89 90/90/90 91/91/91
f 91/91/91 92/92/92 89/89/89
f 86/86/86 77/77/77 93/93/93
f 94/94/94 93/93/93 77/77/77
f 84/84/84 86/86/86 95/95/95
f 93/93/93 95/95/95 86/86/86
f 80/80/80 84/84/84 96/96/96
f 95/95/95 96/96/96 84/84/84
f 83/83/83 80/80/80 97/97/97
f 96/96/96 97/97/97 80/80/80
f 47/47/47 52/52/52 48/48/48
f 98/98/98 22/22/22 16/16/16
f 22/22/22 98/98/98 77/77/77
f 98/98/98 94/94/94 77/77/77
f 99/99/99 100/100/100 101/101/101
f 102/102/102 101/101/101 100/100/100
f 103/103/103 102/102/102 104/104/104
f 100/100/100 104/104/104 102/102/102
f 3/3/3 103/103/103 1/1/1
f 71/71/71 3/3/3 2/2/2
f 104/104/104 1/1/1 103/103/103
g City011
s 1
f 105/105/105 106/106/106 107/107/107
f 108/108/108 109/109/109 110/110/110
f 110/110/110 111/111/111 108/108/108
f 112/112/112 108/108/108 111/111/111
f 113/113/113 114/114/114 115/115/115
f 116/116/116 117/117/117 118/118/118
f 119/119/119 120/120/120 121/121/121
f 122/122/122 121/121/121 120/120/120
f 123/123/123 107/107/107 124/124/124
f 125/125/125 124/124/124 107/107/107
f 107/107/107 126/126/126 125/125/125
f 127/127/127 125/125/125 126/126/126
f 120/120/120 128/128/128 122/122/122
f 107/107/107 123/123/123 105/105/105
f 129/129/129 105/105/105 123/123/123
f 126/126/126 107/107/107 106/106/106
f 130/130/130 110/110/110 109/109/109
f 131/131/131 132/132/132 133/133/133
f 134/134/134 135/135/135 136/136/136
f 137/137/137 122/122/122 128/128/128
f 117/117/117 116/116/116 138/138/138
f 139/139/139 138/138/138 116/116/116
f 140/140/140 141/141/141 142/142/142
f 128/128/128 125/125/125 127/127/127
f 125/125/125 128/128/128 120/120/120
f 120/120/120 124/124/124 125/125/125
f 124/124/124 120/120/120 119/119/119
f 142/142/142 116/116/116 140/140/140
f 132/132/132 131/131/131 114/114/114
f 116/116/116 142/142/142 139/139/139
f 143/143/143 139/139/139 142/142/142
f 144/144/144 136/136/136 135/135/135
f 145/145/145 134/134/134 146/146/146
f 136/136/136 146/146/146 134/134/134
f 147/147/147 110/110/110 130/130/130
f 130/130/130 148/148/148 147/147/147
f 147/147/147 149/149/149 110/110/110
f 149/149/149 111/111/111 110/110/110
f 114/114/114 113/113/113 132/132/132
f 140/140/140 150/150/150 141/141/141
f 116/116/116 118/118/118 140/140/140
g City012
s 1
f 151/151/151 152/152/152 153/153/153
f 154/154/154 153/153/153 152/152/152
f 155/155/155 156/156/156 157/157/157
f 158/158/158 157/157/157 156/156/156
f 159/159/159 160/160/160 161/161/161
f 162/162/162 161/161/161 160/160/160
f 160/160/160 163/163/163 162/162/162
f 164/164/164 162/162/162 163/163/163
f 152/152/152 155/155/155 154/154/154
f 157/157/157 154/154/154 155/155/155
f 163/163/163 151/151/151 164/164/164
f 153/153/153 164/164/164 151/151/151
f 165/165/165 166/166/166 167/167/167
f 168/168/168 167/167/167 166/166/166
f 169/169/169 165/165/165 170/170/170
f 171/171/171 169/169/169 172/172/172
f 170/170/170 172/172/172 169/169/169
f 173/173/173 171/171/171 174/174/174
f 172/172/172 174/174/174 171/171/171
f 175/175/175 159/159/159 176/176/176
f 161/161/161 176/176/176 159/159/159
f 166/166/166 175/175/175 168/168/168
f 176/176/176 168/168/168 175/175/175
f 177/177/177 178/178/178 179/179/179
f 180/180/180 179/179/179 178/178/178
f 181/181/181 182/182/182 183/183/183
f 184/184/184 183/183/183 182/182/182
f 185/185/185 186/186/186 187/187/187
f 188/188/188 187/187/187 186/186/186
f 189/189/189 185/185/185 190/190/190
f 187/187/187 190/190/190 185/185/185
f 182/182/182 177/177/177 184/184/184
f 179/179/179 184/184/184 177/177/177
f 178/178/178 191/191/191 180/180/180
f 190/190/190 180/180/180 189/189/189
f 192/192/192 193/193/193 194/194/194
f 195/195/195 194/194/194 196/196/196
f 196/196/196 197/197/197 195/195/195
f 198/198/198 195/195/195 197/197/197
f 197/197/197 199/199/199 198/198/198
f 200/200/200 198/198/198 199/199/199
f 199/199/199 201/201/201 200/200/200
f 202/202/202 200/200/200 201/201/201
f 186/186/186 203/203/203 188/188/188
f 204/204/204 188/188/188 203/203/203
f 203/203/203 192/192/192 204/204/204
f 194/194/194 204/204/204 192/192/192
f 191/191/191 189/189/189 180/180/180
f 193/193/193 196/196/196 194/194/194
f 205/205/205 206/206/206 207/207/207
f 208/208/208 209/209/209 210/210/210
f 205/205/205 211/211/211 206/206/206
f 212/212/212 213/213/213 214/214/214
f 208/208/208 215/215/215 209/209/209
f 167/167/167 170/170/170 165/165/165
g City013
s 1
f 216/216/216 217/217/217 218/218/218
f 219/219/219 220/220/220 221/221/221
f 222/222/222 223/223/223 224/224/224
f 222/222/222 225/225/225 223/223/223
f 219/219/219 226/226/226 220/220/220
f 227/227/227 228/228/228 229/229/229
f 227/227/227 220/220/220 228/228/228
f 230/230/230 231/231/231 217/217/217
f 220/220/220 227/227/227 221/221/221
f 227/227/227 229/229/229 216/216/216
f 222/222/222 232/232/232 225/225/225
f 216/216/216 218/218/218 227/227/227
f 217/217/217 216/216/216 230/230/230
f 233/233/233 226/226/226 234/234/234
f 235/235/235 231/231/231 232/232/232
f 235/235/235 232/232/232 222/222/222
f 235/235/235 217/217/217 231/231/231
f 226/226/226 233/233/233 220/220/220
f 231/231/231 230/230/230 236/236/236
g City014
s 1
f 237/237/237 238/238/238 239/239/239
f 240/240/240 241/241/241 242/242/242
f 243/243/243 244/244/244 245/245/245
f 246/246/246 244/244/244 243/243/243
f 247/247/247 248/248/248 249/249/249
f 250/250/250 248/248/248 247/247/247
f 251/251/251 252/252/252 253/253/253
f 254/254/254 252/252/252 251/251/251
f 254/254/254 248/248/248 255/255/255
f 246/246/246 252/252/252 255/255/255
f 250/250/250 244/244/244 255/255/255
f 256/256/256 257/257/257 258/258/258
f 259/259/259 257/257/257 256/256/256
f 260/260/260 261/261/261 262/262/262
f 263/263/263 261/261/261 260/260/260
f 264/264/264 265/265/265 266/266/266
f 267/267/267 265/265/265 264/264/264
f 267/267/267 261/261/261 268/268/268
f 259/259/259 265/265/265 268/268/268
f 263/263/263 257/257/257 268/268/268
f 269/269/269 270/270/270 271/271/271
f 271/271/271 270/270/270 272/272/272
f 273/273/273 274/274/274 275/275/275
f 275/275/275 274/274/274 276/276/276
f 277/277/277 278/278/278 279/279/279
f 279/279/279 278/278/278 280/280/280
f 281/281/281 282/282/282 283/283/283
f 283/283/283 282/282/282 284/284/284
f 285/285/285 286/286/286 287/287/287
f 287/287/287 286/286/286 288/288/288
f 289/289/289 290/290/290 291/291/291
f 291/291/291 290/290/290 292/292/292
f 293/293/293 286/286/286 292/292/292
f 293/293/293 290/290/290 284/284/284
f 293/293/293 282/282/282 288/288/288
f 294/294/294 295/295/295 296/296/296
f 295/295/295 294/294/294 271/271/271
f 297/297/297 298/298/298 299/299/299
f 298/298/298 297/297/297 275/275/275
f 300/300/300 242/242/242 301/301/301
f 242/242/242 300/300/300 279/279/279
f 302/302/302 303/303/303 304/304/304
f 304/304/304 303/303/303 239/239/239
f 305/305/305 306/306/306 307/307/307
f 307/307/307 306/306/306 308/308/308
f 309/309/309 238/238/238 310/310/310
f 310/310/310 238/238/238 311/311/311
f 237/237/237 306/306/306 311/311/311
f 301/301/301 242/242/242 241/241/241
f 312/312/312 313/313/313 298/298/298
f 299/299/299 298/298/298 313/313/313
f 314/314/314 315/315/315 295/295/295
f 296/296/296 295/295/295 315/315/315
f 316/316/316 317/317/317 318/318/318
f 319/319/319 320/320/320 318/318/318
f 321/321/321 322/322/322 318/318/318
f 321/321/321 320/320/320 323/323/323
f 323/323/323 320/320/320 324/324/324
f 316/316/316 322/322/322 325/325/325
f 325/325/325 322/322/322 326/326/326
f 319/319/319 317/317/317 327/327/327
f 327/327/327 317/317/317 328/328/328
f 329/329/329 330/330/330 240/240/240
f 240/240/240 330/330/330 331/331/331
f 332/332/332 333/333/333 312/312/312
f 312/312/312 333/333/333 334/334/334
f 335/335/335 336/336/336 314/314/314
f 314/314/314 336/336/336 337/337/337
f 237/237/237 303/303/303 308/308/308
f 338/338/338 339/339/339 340/340/340
f 341/341/341 342/342/342 343/343/343
f 344/344/344 345/345/345 346/346/346
f 346/346/346 345/345/345 347/347/347
f 348/348/348 349/349/349 350/350/350
f 350/350/350 349/349/349 351/351/351
f 352/352/352 345/345/345 351/351/351
f 352/352/352 349/349/349 343/343/343
f 352/352/352 342/342/342 347/347/347
f 353/353/353 354/354/354 355/355/355
f 353/353/353 356/356/356 354/354/354
f 357/357/357 358/358/358 359/359/359
f 357/357/357 360/360/360 358/358/358
f 361/361/361 362/362/362 363/363/363
f 361/361/361 364/364/364 362/362/362
f 365/365/365 366/366/366 367/367/367
f 365/365/365 368/368/368 366/366/366
f 369/369/369 370/370/370 371/371/371
f 369/369/369 372/372/372 370/370/370
f 373/373/373 374/374/374 375/375/375
f 373/373/373 376/376/376 374/374/374
f 369/369/369 376/376/376 377/377/377
f 373/373/373 368/368/368 377/377/377
f 365/365/365 372/372/372 377/377/377
f 378/378/378 379/379/379 380/380/380
f 380/380/380 354/354/354 378/378/378
f 381/381/381 382/382/382 383/383/383
f 383/383/383 358/358/358 381/381/381
f 384/384/384 385/385/385 386/386/386
f 386/386/386 362/362/362 384/384/384
f 387/387/387 388/388/388 389/389/389
f 387/387/387 390/390/390 388/388/388
f 391/391/391 392/392/392 393/393/393
f 391/391/391 394/394/394 392/392/392
f 395/395/395 396/396/396 397/397/397
f 395/395/395 398/398/398 396/396/396
f 391/391/391 398/398/398 399/399/399
f 395/395/395 390/390/390 399/399/399
f 387/387/387 394/394/394 399/399/399
f 400/400/400 401/401/401 402/402/402
f 400/400/400 403/403/403 401/401/401
f 404/404/404 405/405/405 406/406/406
f 404/404/404 407/407/407 405/405/405
f 408/408/408 409/409/409 410/410/410
f 408/408/408 411/411/411 409/409/409
f 404/404/404 411/411/411 412/412/412
f 408/408/408 403/403/403 412/412/412
f 400/400/400 407/407/407 412/412/412
f 413/413/413 414/414/414 415/415/415
f 413/413/413 415/415/415 416/416/416
f 417/417/417 418/418/418 419/419/419
f 417/417/417 419/419/419 420/420/420
f 421/421/421 422/422/422 423/423/423
f 421/421/421 423/423/423 424/424/424
f 425/425/425 426/426/426 427/427/427
f 425/425/425 427/427/427 428/428/428
f 429/429/429 430/430/430 431/431/431
f 429/429/429 431/431/431 432/432/432
f 433/433/433 434/434/434 435/435/435
f 433/433/433 435/435/435 436/436/436
f 429/429/429 437/437/437 436/436/436
f 433/433/433 437/437/437 428/428/428
f 425/425/425 437/437/437 432/432/432
f 378/378/378 438/438/438 379/379/379
f 438/438/438 378/378/378 415/415/415
f 381/381/381 439/439/439 382/382/382
f 439/439/439 381/381/381 419/419/419
f 384/384/384 440/440/440 385/385/385
f 440/440/440 384/384/384 423/423/423
f 441/441/441 442/442/442 443/443/443
f 441/441/441 443/443/443 444/444/444
f 445/445/445 446/446/446 447/447/447
f 445/445/445 447/447/447 448/448/448
f 449/449/449 450/450/450 451/451/451
f 449/449/449 451/451/451 452/452/452
f 445/445/445 453/453/453 452/452/452
f 449/449/449 453/453/453 444/444/444
f 441/441/441 453/453/453 448/448/448
f 454/454/454 455/455/455 456/456/456
f 454/454/454 456/456/456 340/340/340
f 457/457/457 458/458/458 459/459/459
f 457/457/457 459/459/459 460/460/460
f 338/338/338 461/461/461 462/462/462
f 338/338/338 462/462/462 463/463/463
f 457/457/457 339/339/339 463/463/463
f 464/464/464 342/342/342 341/341/341
f 454/454/454 339/339/339 460/460/460
