# Exported using wow.export v0.2.19
o 21138_Warlock02.obj
v -258.2375793457031 18.285869598388672 400.40228271484375
v -257.634033203125 17.515209197998047 398.9452209472656
v -256.5094299316406 16.66353988647461 399.24658203125
v -258.3081970214844 17.515209197998047 398.7646179199219
v -258.84197998046875 18.285869598388672 400.0533447265625
v -259.7674865722656 17.434200286865234 399.51898193359375
v -260.2380676269531 16.293575286865234 399.2472839355469
v -259.8653259277344 15.522916793823242 398.3473815917969
v -259.3404541015625 16.66353988647461 398.4880065917969
v -256.03643798828125 15.522916793823242 399.3733215332031
v -256.8052062988281 16.293575286865234 401.2292785644531
v -257.2292785644531 17.434200286865234 400.9844055175781
v -260.4488525390625 13.661908149719238 392.1497497558594
v -259.6911315917969 14.432568550109863 393.60333251953125
v -260.79779052734375 13.661908149719238 392.754150390625
v -259.1976623535156 14.432568550109863 393.10980224609375
v -259.86669921875 12.810239791870117 391.1414794921875
v -258.3743896484375 13.580899238586426 392.2865295410156
v -260.4468078613281 13.580899238586426 394.3589782714844
v -261.3321228027344 12.810239791870117 393.6796569824219
v -257.4281921386719 16.74454689025879 397.38165283203125
v -258.1261291503906 16.74454689025879 397.38165283203125
v -256.263916015625 15.892881393432617 397.38165283203125
v -259.19476318359375 15.892881393432617 397.38165283203125
v -259.7381896972656 14.7522554397583 397.38165283203125
v -255.77423095703125 14.7522554397583 397.38165283203125
v -260.8310546875 12.440274238586426 394.74322509765625
v -261.60382080078125 11.669614791870117 394.1502685546875
v -259.6218566894531 11.669614791870117 390.7173767089844
v -258.0281066894531 12.440274238586426 391.9403076171875
v -263.469482421875 10.1282958984375 389.6864013671875
v -261.4778137207031 10.898956298828125 389.9486083984375
v -261.60455322265625 12.039579391479492 390.421630859375
v -263.469482421875 11.2689208984375 390.1761169433594
v -257.634033203125 15.97388744354248 395.8180236816406
v -258.1261291503906 16.74454689025879 397.38165283203125
v -258.3081970214844 15.97388744354248 395.9986877441406
v -257.4281921386719 16.74454689025879 397.38165283203125
v -256.5094299316406 15.122222900390625 395.5167236328125
v -256.263916015625 15.892881393432617 397.38165283203125
v -259.19476318359375 15.892881393432617 397.38165283203125
v -259.3404541015625 15.122222900390625 396.2752990722656
v -259.7381896972656 14.7522554397583 397.38165283203125
v -259.8653259277344 13.981595039367676 396.4159240722656
v -256.03643798828125 13.981595039367676 395.3899841308594
v -255.77423095703125 14.7522554397583 397.38165283203125
v -263.469482421875 12.120588302612305 391.3403625488281
v -262.0865173339844 12.89124870300293 392.2203674316406
v -263.469482421875 12.120588302612305 392.03826904296875
v -261.9058837890625 12.89124870300293 391.5462341308594
v -260.79779052734375 13.661908149719238 392.754150390625
v -260.4488525390625 13.661908149719238 392.1497497558594
v -258.2375793457031 15.203227043151855 394.3609924316406
v -258.84197998046875 15.203227043151855 394.7099609375
v -257.2292785644531 14.3515625 393.77886962890625
v -259.7674865722656 14.3515625 395.2442932128906
v -260.2380676269531 13.21093463897705 395.5160217285156
v -256.8052062988281 13.21093463897705 393.5340270996094
v -259.86669921875 12.810239791870117 391.1414794921875
v -261.3321228027344 12.810239791870117 393.6796569824219
v -262.36309814453125 12.039579391479492 393.2525939941406
v -261.60382080078125 11.669614791870117 394.1502685546875
v -262.5037536621094 10.898956298828125 393.7774963378906
v -260.79779052734375 19.82718849182129 402.0091552734375
v -262.0865173339844 20.597848892211914 402.5429382324219
v -262.36309814453125 19.746179580688477 401.51068115234375
v -259.6218566894531 11.669614791870117 390.7173767089844
v -263.469482421875 11.2689208984375 393.1069641113281
v -263.469482421875 10.1282958984375 393.65032958984375
v -261.9058837890625 20.597848892211914 403.2170715332031
v -263.4694519042969 21.36850929260254 402.7250061035156
v -263.4694519042969 21.36850929260254 403.4229431152344
v -261.6045227050781 19.746179580688477 404.3416748046875
v -263.4694519042969 20.5168399810791 404.5871887207031
v -258.3743896484375 18.20486068725586 402.4767150878906
v -258.0281066894531 17.06423568725586 402.822998046875
v -260.4468078613281 18.20486068725586 400.404296875
v -260.8310546875 17.06423568725586 400.02008056640625
v -259.6911315917969 19.056528091430664 401.1600036621094
v -259.1976623535156 19.056528091430664 401.6534729003906
v -263.4694519042969 20.5168399810791 401.6563415527344
v -263.4694519042969 19.3762149810791 401.1129455566406
v -262.5037536621094 18.605554580688477 400.9858093261719
v -261.477783203125 18.605554580688477 404.8146667480469
v -263.4694519042969 19.3762149810791 405.076904296875
v -259.86669921875 18.97551918029785 403.621826171875
v -259.6218566894531 17.834896087646484 404.0459289550781
v -261.3321228027344 18.97551918029785 401.0836486816406
v -261.60382080078125 17.834896087646484 400.613037109375
v -260.4488220214844 19.82718849182129 402.6135559082031
v -261.0706787109375 7.352664470672607 392.27691650390625
v -261.4778137207031 6.967334270477295 389.9486083984375
v -262.51953125 6.967334270477295 393.83642578125
v -259.6218566894531 7.73799467086792 390.7173767089844
v -261.63433837890625 7.73799467086792 394.20306396484375
v -259.83123779296875 8.123324394226074 393.0716857910156
v -258.0281066894531 8.50865364074707 391.9403076171875
v -260.8741760253906 8.50865364074707 394.7863464355469
v -258.1636962890625 9.664643287658691 395.46826171875
v -256.8052062988281 9.279314041137695 393.5340270996094
v -260.2909240722656 9.279314041137695 395.5465087890625
v -256.03643798828125 10.049972534179688 395.3899841308594
v -259.9242248535156 10.049972534179688 396.43170166015625
v -257.9178161621094 11.205965042114258 398.37750244140625
v -255.77423095703125 10.820632934570312 397.38165283203125
v -259.7991943359375 10.820632934570312 397.38165283203125
v -256.03643798828125 11.591297149658203 399.3733215332031
v -259.9242248535156 11.591291427612305 398.33160400390625
v -259.1595153808594 12.747283935546875 401.0198974609375
v -256.80517578125 12.361955642700195 401.2292785644531
v -260.2909240722656 12.36195182800293 399.216796875
v -260.8741760253906 13.132611274719238 399.9769592285156
v -258.0281066894531 13.132615089416504 402.822998046875
v -260.2480163574219 13.517942428588867 402.0114440917969
v -259.6218566894531 13.903274536132812 404.0459289550781
v -261.63433837890625 13.903274536132812 400.5602111816406
v -262.4736328125 6.582005023956299 391.8299560546875
v -263.469482421875 6.196675777435303 389.6864013671875
v -263.469482421875 6.196675777435303 393.7113342285156
v -258.8396911621094 8.893983840942383 394.1601867675781
v -257.8492431640625 10.435302734375 396.90667724609375
v -258.36468505859375 11.97662353515625 399.78045654296875
v -261.5560607910156 14.288603782653809 402.68743896484375
v -261.477783203125 14.673933029174805 404.8146667480469
v -262.51953125 14.673933029174805 400.9268798828125
v -262.9945068359375 15.059263229370117 403.00189208984375
v -263.4694519042969 15.44459342956543 405.076904296875
v -263.4694519042969 15.44459342956543 401.05194091796875
v -256.80517578125 12.361955642700195 401.2292785644531
v -256.03643798828125 13.557106971740723 399.3733215332031
v -256.03643798828125 11.591297149658203 399.3733215332031
v -256.03643798828125 15.522916793823242 399.3733215332031
v -255.90533447265625 14.154681205749512 398.37750244140625
v -255.77423095703125 14.7522554397583 397.38165283203125
v -255.90533447265625 13.171775817871094 398.37750244140625
v -255.77423095703125 14.7522554397583 397.38165283203125
v -256.03643798828125 13.981595039367676 395.3899841308594
v -255.77423095703125 13.769350051879883 397.38165283203125
v -255.77423095703125 12.786443710327148 397.38165283203125
v -255.77423095703125 13.769350051879883 397.38165283203125
v -255.77423095703125 12.786443710327148 397.38165283203125
v -255.90533447265625 12.401113510131836 396.38580322265625
v -256.03643798828125 12.015783309936523 395.3899841308594
v -255.77423095703125 10.820632934570312 397.38165283203125
v -262.4736328125 8.547815322875977 389.8175048828125
v -263.469482421875 10.1282958984375 389.6864013671875
v -263.469482421875 8.16248607635498 389.6864013671875
v -261.4778137207031 6.967334270477295 389.9486083984375
v -261.4778137207031 8.933145523071289 389.9486083984375
v -256.4208068847656 13.942436218261719 400.3013000488281
v -256.80517578125 14.327765464782715 401.2292785644531
v -263.4694519042969 15.44459342956543 401.05194091796875
v -262.9945068359375 17.025074005126953 401.0198974609375
v -263.4694519042969 19.3762149810791 401.1129455566406
v -262.51953125 14.673933029174805 400.9268798828125
v -262.5037536621094 18.605554580688477 400.9858093261719
v -259.9242248535156 10.049972534179688 396.43170166015625
v -260.078125 11.630455017089844 395.981201171875
v -259.8653259277344 13.981595039367676 396.4159240722656
v -260.2909240722656 9.279314041137695 395.5465087890625
v -260.2380676269531 13.21093463897705 395.5160217285156
v -260.8741760253906 8.50865364074707 394.7863464355469
v -261.2326965332031 10.089134216308594 394.47314453125
v -260.8310546875 12.440274238586426 394.74322509765625
v -261.63433837890625 7.73799467086792 394.20306396484375
v -261.60382080078125 11.669614791870117 394.1502685546875
v -261.63433837890625 13.903274536132812 400.5602111816406
v -261.239013671875 15.483753204345703 400.29498291015625
v -261.60382080078125 17.834896087646484 400.613037109375
v -260.8741760253906 13.132611274719238 399.9769592285156
v -260.8310546875 17.06423568725586 400.02008056640625
v -260.2909240722656 12.36195182800293 399.216796875
v -260.0811462402344 13.94243335723877 398.7894287109375
v -260.2380676269531 16.293575286865234 399.2472839355469
v -259.9242248535156 11.591291427612305 398.33160400390625
v -259.8653259277344 15.522916793823242 398.3473815917969
v -259.832275390625 13.171774864196777 397.864501953125
v -259.7991943359375 10.820632934570312 397.38165283203125
v -259.7381896972656 14.7522554397583 397.38165283203125
v -259.7991943359375 10.820632934570312 397.38165283203125
v -259.8312072753906 12.401113510131836 396.90667724609375
v -259.7381896972656 14.7522554397583 397.38165283203125
v -262.51953125 6.967334270477295 393.83642578125
v -262.98663330078125 8.547816276550293 393.7444152832031
v -262.5037536621094 10.898956298828125 393.7774963378906
v -263.469482421875 6.196675777435303 393.7113342285156
v -263.469482421875 10.1282958984375 393.65032958984375
v -261.63433837890625 7.73799467086792 394.20306396484375
v -262.0616760253906 9.318474769592285 393.99334716796875
v -261.60382080078125 11.669614791870117 394.1502685546875
v -262.06903076171875 16.254413604736328 400.77301025390625
v -261.63433837890625 13.903274536132812 400.5602111816406
v -261.60382080078125 17.834896087646484 400.613037109375
v -260.56097412109375 14.713093757629395 399.6184387207031
v -260.2909240722656 12.36195182800293 399.216796875
v -260.2380676269531 16.293575286865234 399.2472839355469
v -260.2909240722656 9.279314041137695 395.5465087890625
v -260.5561218261719 10.859794616699219 395.15118408203125
v -260.2380676269531 13.21093463897705 395.5160217285156
v -256.8052062988281 13.21093463897705 393.5340270996094
v -256.03643798828125 10.049972534179688 395.3899841308594
v -255.77423095703125 10.820632934570312 397.38165283203125
v -261.477783203125 18.605554580688477 404.8146667480469
v -259.6218566894531 17.834896087646484 404.0459289550781
v -261.477783203125 14.673933029174805 404.8146667480469
v -259.6218566894531 7.73799467086792 390.7173767089844
v -261.4778137207031 10.898956298828125 389.9486083984375
v -263.469482421875 7.1795806884765625 389.6864013671875
v -259.6218566894531 13.903274536132812 404.0459289550781
v -259.6218566894531 13.903274536132812 404.0459289550781
v -258.0281066894531 17.06423568725586 402.822998046875
v -258.0281066894531 13.132615089416504 402.822998046875
v -259.6218566894531 17.834896087646484 404.0459289550781
v -256.8052062988281 16.293575286865234 401.2292785644531
v -263.4694519042969 15.44459342956543 405.076904296875
v -263.4694519042969 17.410404205322266 405.076904296875
v -263.4694519042969 19.3762149810791 405.076904296875
v -263.469482421875 6.196675777435303 389.6864013671875
v -256.8052062988281 9.279314041137695 393.5340270996094
v -256.8052062988281 9.279314041137695 393.5340270996094
v -258.0281066894531 12.440274238586426 391.9403076171875
v -258.0281066894531 8.50865364074707 391.9403076171875
v -256.8052062988281 13.21093463897705 393.5340270996094
v -259.6218566894531 11.669614791870117 390.7173767089844
v -259.6218566894531 7.73799467086792 390.7173767089844
v -259.6218566894531 11.669614791870117 390.7173767089844
v -256.8052062988281 16.293575286865234 401.2292785644531
v -256.80517578125 14.327765464782715 401.2292785644531
v -256.80517578125 12.361955642700195 401.2292785644531
vn -0.4685173034667969 -0.8524371981620789 0.2320396602153778
vn -0.3924923539161682 -0.8524368405342102 0.3454000949859619
vn -0.8054147362709045 -0.5917893648147583 0.033052634447813034
vn 0.22403299808502197 -0.809449315071106 0.542771577835083
vn 0.07591935247182846 -0.8094498515129089 0.5822604298591614
vn 0.42852169275283813 -0.5966209173202515 0.678537130355835
vn 0.752077579498291 -0.22009186446666718 0.6212397813796997
vn 0.8872407674789429 -0.2200864553451538 0.40542054176330566
vn 0.5895395278930664 -0.5966200828552246 0.5445067286491394
vn -0.9638013243675232 -0.19977188110351562 -0.17657336592674255
vn -0.8852595686912537 -0.1997697651386261 -0.42000895738601685
vn -0.7865244746208191 -0.591791033744812 -0.17652957141399384
vn 0.23204533755779266 -0.8524349927902222 0.4685184359550476
vn 0.5820702314376831 -0.8094497323036194 0.07736562192440033
vn 0.5822629332542419 -0.8094479441642761 -0.07592011988162994
vn 0.10287740081548691 -0.8524360656738281 0.5126099586486816
vn -0.1765214204788208 -0.5917933583259583 0.7865245342254639
vn -0.37407705187797546 -0.591791033744812 0.7140376567840576
vn 0.7663252353668213 -0.5966213941574097 -0.23830357193946838
vn 0.6785379648208618 -0.596619188785553 -0.4285227060317993
vn -0.2897240221500397 -0.8524373173713684 0.4352133274078369
vn 0.3568778932094574 -0.8094497323036194 0.46629318594932556
vn -0.769416868686676 -0.5917890071868896 0.24038183689117432
vn 0.710382342338562 -0.5966184139251709 0.373367577791214
vn 0.9619380831718445 -0.22009308636188507 0.16196966171264648
vn -0.9766618013381958 -0.19976896047592163 0.07889273017644882
vn 0.7947221994400024 -0.22009587287902832 -0.5656628608703613
vn 0.6212469935417175 -0.22009232640266418 -0.7520714998245239
vn -0.4200049340724945 -0.1997738480567932 0.8852605819702148
vn -0.6348205208778381 -0.19976551830768585 0.7463890910148621
vn 0.07876542955636978 -0.19978277385234833 0.9766692519187927
vn -0.1765691190958023 -0.19978004693984985 0.9638004302978516
vn 0.03305663540959358 -0.5917957425117493 0.8054099082946777
vn 0.2695122957229614 -0.6254032254219055 0.7322799563407898
vn -0.16721202433109283 -0.8524360060691833 0.49537160992622375
vn 0.3568778932094574 -0.8094497323036194 0.46629318594932556
vn 0.46540576219558716 -0.8094484210014343 0.3580373227596283
vn -0.2897240221500397 -0.8524373173713684 0.4352133274078369
vn -0.6809856295585632 -0.591787576675415 0.43133053183555603
vn -0.769416868686676 -0.5917890071868896 0.24038183689117432
vn 0.710382342338562 -0.5966184139251709 0.373367577791214
vn 0.7828115224838257 -0.5966178178787231 0.17678605020046234
vn 0.9619380831718445 -0.22009308636188507 0.16196966171264648
vn 0.9710828065872192 -0.2200891375541687 -0.09251429885625839
vn -0.9229633808135986 -0.1997687816619873 0.3289848268032074
vn -0.9766618013381958 -0.19976896047592163 0.07889273017644882
vn 0.42854785919189453 -0.8552660346031189 0.2913190722465515
vn 0.5427742004394531 -0.8094465136528015 -0.22403697669506073
vn 0.4741949141025543 -0.8283255100250244 -0.2983556091785431
vn 0.3453941345214844 -0.8524356484413147 0.3925001919269562
vn 0.5822629332542419 -0.8094479441642761 -0.07592011988162994
vn 0.23204533755779266 -0.8524349927902222 0.4685184359550476
vn -0.03330298140645027 -0.8524367213249207 0.5217686295509338
vn 0.542216956615448 -0.8094462752342224 0.22538311779499054
vn -0.5461457967758179 -0.5917870402336121 0.5928852558135986
vn 0.8018937110900879 -0.5966176390647888 -0.03184081241488457
vn 0.9140488505363464 -0.22009079158306122 -0.34069743752479553
vn -0.8063691854476929 -0.199765145778656 0.5566530823707581
vn -0.1765214204788208 -0.5917933583259583 0.7865245342254639
vn 0.6785379648208618 -0.596619188785553 -0.4285227060317993
vn 0.5445042848587036 -0.5966225266456604 -0.5895393490791321
vn 0.6212469935417175 -0.22009232640266418 -0.7520714998245239
vn 0.40542152523994446 -0.22009359300136566 -0.8872385025024414
vn -0.22538438439369202 -0.8094489574432373 0.5422124266624451
vn -0.3580363988876343 -0.8094486594200134 0.46540603041648865
vn -0.1767847239971161 -0.5966200828552246 0.7828100919723511
vn -0.4200049340724945 -0.1997738480567932 0.8852605819702148
vn 0.39077436923980713 -0.5900120139122009 -0.706527590751648
vn 0.161805659532547 -0.22009718418121338 -0.9619647264480591
vn -0.4953709542751312 -0.8524364233016968 -0.16721180081367493
vn -0.4741959571838379 -0.828324019908905 0.2983579933643341
vn -0.42854729294776917 -0.8552661538124084 -0.2913194000720978
vn -0.4313335120677948 -0.5917901992797852 -0.680981457233429
vn -0.26951196789741516 -0.6254029870033264 -0.7322802543640137
vn -0.7140353322029114 -0.5917891263961792 -0.3740844130516052
vn -0.7463914155960083 -0.19977334141731262 -0.6348152756690979
vn 0.2382991462945938 -0.5966243743896484 0.7663242816925049
vn 0.5656611323356628 -0.22008724510669708 0.794725775718689
vn -0.07737431675195694 -0.8094531893730164 0.5820642113685608
vn -0.512608528137207 -0.8524367213249207 0.10287918150424957
vn -0.3907761573791504 -0.5900092720985413 0.706528902053833
vn -0.1618063896894455 -0.22009997069835663 0.961963951587677
vn 0.0925230011343956 -0.2200903296470642 0.9710817337036133
vn -0.32898545265197754 -0.19976922869682312 -0.9229630827903748
vn -0.07876597344875336 -0.19978275895118713 -0.976669192314148
vn -0.5928876996040344 -0.5917902588844299 -0.5461395978927612
vn -0.5566554069519043 -0.19977331161499023 -0.8063655495643616
vn 0.03184301778674126 -0.5966250896453857 0.801888108253479
vn 0.3407075107097626 -0.2200912982225418 0.914044976234436
vn -0.521770715713501 -0.8524355292320251 -0.03330095112323761
vn -0.5146486163139343 0.8288261294364929 -0.21950870752334595
vn -0.5062424540519714 0.7303439974784851 0.4586024582386017
vn -0.26679903268814087 0.6779962778091431 -0.6849374771118164
vn -0.6076903343200684 0.7303425669670105 0.3119489550590515
vn -0.0804453194141388 0.6779927015304565 -0.7306534647941589
vn -0.44030454754829407 0.8288230895996094 -0.34523072838783264
vn -0.6677205562591553 0.7303441762924194 0.14403711259365082
vn 0.11140364408493042 0.6779929995536804 -0.7265774011611938
vn -0.2086976319551468 0.8288252353668213 -0.5191280841827393
vn -0.6822488903999329 0.7303434610366821 -0.033687688410282135
vn 0.29566317796707153 0.6779946684837341 -0.6729832887649536
vn -0.6502819657325745 0.730344295501709 -0.20911866426467896
vn 0.45976656675338745 0.6779937148094177 -0.573532223701477
vn 0.07882478088140488 0.8288264870643616 -0.5539254546165466
vn -0.5740004181861877 0.730343759059906 -0.37029924988746643
vn 0.5925429463386536 0.6779960989952087 -0.43498754501342773
vn -0.4586040675640106 0.7303438186645508 -0.5062412023544312
vn 0.684934139251709 0.677994966506958 -0.26681095361709595
vn 0.3452274799346924 0.8288258910179138 -0.44030165672302246
vn -0.3119499385356903 0.7303407192230225 -0.6076920628547668
vn 0.7306509017944336 0.6779961585998535 -0.08043885231018066
vn 0.7265752553939819 0.6779953241348267 0.11140377819538116
vn -0.1440410614013672 0.7303431630134583 -0.6677207946777344
vn 0.4474245309829712 0.8288239240646362 -0.3359496295452118
vn 0.033688709139823914 0.7303428053855896 -0.6822495460510254
vn 0.6729880571365356 0.6779922842979431 0.29565781354904175
vn -0.5662279725074768 0.8193929195404053 -0.08933695405721664
vn -0.3655700087547302 0.7166824340820312 0.5939064025878906
vn -0.44968312978744507 0.6529833674430847 -0.6094241738319397
vn -0.33594951033592224 0.828823447227478 -0.4474254548549652
vn -0.06722800433635712 0.8288236856460571 -0.5554562211036682
vn 0.21950572729110718 0.8288226127624512 -0.5146556496620178
vn 0.5191304683685303 0.828822672367096 -0.20870213210582733
vn 0.20911797881126404 0.7303423881530762 -0.6502842903137207
vn 0.5735278725624084 0.6779948472976685 0.4597703218460083
vn 0.5567574501037598 0.8268595933914185 -0.07952553778886795
vn 0.3655649721622467 0.716684103012085 -0.5939074754714966
vn 0.4496798813343048 0.652985155582428 0.6094246506690979
vn -0.3119499385356903 0.7303407192230225 -0.6076920628547668
vn -0.8544895648956299 0.31873345375061035 -0.41019102931022644
vn -0.4586040675640106 0.7303438186645508 -0.5062412023544312
vn -0.9638013243675232 -0.19977188110351562 -0.17657336592674255
vn -0.98201984167099 0.0637989267706871 -0.1776704639196396
vn -0.9766618013381958 -0.19976896047592163 0.07889273017644882
vn -0.9033935070037842 0.3339575529098511 -0.26898419857025146
vn -0.9766618013381958 -0.19976896047592163 0.07889273017644882
vn -0.9229633808135986 -0.1997687816619873 0.3289848268032074
vn -0.9968020915985107 0.06214531511068344 -0.05023476481437683
vn -0.9315377473831177 0.3187350630760193 -0.17505821585655212
vn -0.9968020915985107 0.06214531511068344 -0.05023476481437683
vn -0.9315377473831177 0.3187350630760193 -0.17505821585655212
vn -0.942229151725769 0.33395811915397644 -0.026004407554864883
vn -0.9451044797897339 0.31873559951782227 0.07200787216424942
vn -0.5740004181861877 0.730343759059906 -0.37029924988746643
vn -0.26905912160873413 0.3339415192604065 0.9033770561218262
vn 0.07876542955636978 -0.19978277385234833 0.9766692519187927
vn -0.17090635001659393 0.30801960825920105 0.9359033703804016
vn -0.5062424540519714 0.7303439974784851 0.4586024582386017
vn -0.4101906716823578 0.31872978806495667 0.854491114616394
vn -0.8029921650886536 0.3339543044567108 -0.49363774061203003
vn -0.7192054986953735 0.31873250007629395 -0.6173758506774902
vn 0.4496798813343048 0.652985155582428 0.6094246506690979
vn 0.26573681831359863 0.29553842544555664 0.9176279902458191
vn -0.1618063896894455 -0.22009997069835663 0.961963951587677
vn 0.5735278725624084 0.6779948472976685 0.4597703218460083
vn 0.0925230011343956 -0.2200903296470642 0.9710817337036133
vn 0.45976656675338745 0.6779937148094177 -0.573532223701477
vn 0.8176283836364746 0.2955577075481415 -0.49409472942352295
vn 0.9710828065872192 -0.2200891375541687 -0.09251429885625839
vn 0.29566317796707153 0.6779946684837341 -0.6729832887649536
vn 0.9140488505363464 -0.22009079158306122 -0.34069743752479553
vn 0.11140364408493042 0.6779929995536804 -0.7265774011611938
vn 0.46103522181510925 0.2955528497695923 -0.8367168307304382
vn 0.7947221994400024 -0.22009587287902832 -0.5656628608703613
vn -0.0804453194141388 0.6779927015304565 -0.7306534647941589
vn 0.6212469935417175 -0.22009232640266418 -0.7520714998245239
vn 0.6729880571365356 0.6779922842979431 0.29565781354904175
vn 0.6888830661773682 0.2955564856529236 0.6618810892105103
vn 0.3407075107097626 -0.2200912982225418 0.914044976234436
vn 0.7265752553939819 0.6779953241348267 0.11140377819538116
vn 0.5656611323356628 -0.22008724510669708 0.794725775718689
vn 0.7306509017944336 0.6779961585998535 -0.08043885231018066
vn 0.927529513835907 0.29555681347846985 0.22876861691474915
vn 0.752077579498291 -0.22009186446666718 0.6212397813796997
vn 0.684934139251709 0.677994966506958 -0.26681095361709595
vn 0.8872407674789429 -0.2200864553451538 0.40542054176330566
vn 0.9551334977149963 0.29555997252464294 -0.019084163010120392
vn 0.5925429463386536 0.6779960989952087 -0.43498754501342773
vn 0.9619380831718445 -0.22009308636188507 0.16196966171264648
vn 0.5925429463386536 0.6779960989952087 -0.43498754501342773
vn 0.9176489114761353 0.29555508494377136 -0.2656458616256714
vn 0.9619380831718445 -0.22009308636188507 0.16196966171264648
vn -0.26679903268814087 0.6779962778091431 -0.6849374771118164
vn -0.028397617861628532 0.27773594856262207 -0.9602375030517578
vn 0.40542152523994446 -0.22009359300136566 -0.8872385025024414
vn -0.44968312978744507 0.6529833674430847 -0.6094241738319397
vn 0.161805659532547 -0.22009718418121338 -0.9619647264480591
vn -0.0804453194141388 0.6779927015304565 -0.7306534647941589
vn 0.22878067195415497 0.2955569922924042 -0.9275265336036682
vn 0.6212469935417175 -0.22009232640266418 -0.7520714998245239
vn 0.4941032826900482 0.29555532336235046 0.817624032497406
vn 0.6729880571365356 0.6779922842979431 0.29565781354904175
vn 0.3407075107097626 -0.2200912982225418 0.914044976234436
vn 0.836711585521698 0.29555976390838623 0.46104031801223755
vn 0.7306509017944336 0.6779961585998535 -0.08043885231018066
vn 0.752077579498291 -0.22009186446666718 0.6212397813796997
vn 0.29566317796707153 0.6779946684837341 -0.6729832887649536
vn 0.6618850231170654 0.295555979013443 -0.6888794898986816
vn 0.9140488505363464 -0.22009079158306122 -0.34069743752479553
vn -0.8063691854476929 -0.199765145778656 0.5566530823707581
vn -0.6502819657325745 0.730344295501709 -0.20911866426467896
vn -0.5740004181861877 0.730343759059906 -0.37029924988746643
vn -0.32898545265197754 -0.19976922869682312 -0.9229630827903748
vn -0.5566554069519043 -0.19977331161499023 -0.8063655495643616
vn 0.20911797881126404 0.7303423881530762 -0.6502842903137207
vn -0.6076903343200684 0.7303425669670105 0.3119489550590515
vn -0.1765691190958023 -0.19978004693984985 0.9638004302978516
vn -0.27972838282585144 0.5342980027198792 0.7976701855659485
vn 0.033688709139823914 0.7303428053855896 -0.6822495460510254
vn 0.033688709139823914 0.7303428053855896 -0.6822495460510254
vn -0.7463914155960083 -0.19977334141731262 -0.6348152756690979
vn -0.1440410614013672 0.7303431630134583 -0.6677207946777344
vn -0.5566554069519043 -0.19977331161499023 -0.8063655495643616
vn -0.8852595686912537 -0.1997697651386261 -0.42000895738601685
vn 0.3655649721622467 0.716684103012085 -0.5939074754714966
vn 0.17090296745300293 0.3080205023288727 -0.9359035491943359
vn -0.07876597344875336 -0.19978275895118713 -0.976669192314148
vn -0.3655700087547302 0.7166824340820312 0.5939064025878906
vn -0.6822488903999329 0.7303434610366821 -0.033687688410282135
vn -0.6822488903999329 0.7303434610366821 -0.033687688410282135
vn -0.6348205208778381 -0.19976551830768585 0.7463890910148621
vn -0.6677205562591553 0.7303441762924194 0.14403711259365082
vn -0.8063691854476929 -0.199765145778656 0.5566530823707581
vn -0.4200049340724945 -0.1997738480567932 0.8852605819702148
vn -0.6076903343200684 0.7303425669670105 0.3119489550590515
vn -0.4200049340724945 -0.1997738480567932 0.8852605819702148
vn -0.8852595686912537 -0.1997697651386261 -0.42000895738601685
vn -0.7192054986953735 0.31873250007629395 -0.6173758506774902
vn -0.3119499385356903 0.7303407192230225 -0.6076920628547668
vt 0.5 1.2000000476837158
vt 0.75 1.2000000476837158
vt 0.75 1.600000023841858
vt 0.75 0.800000011920929
vt 0.5 0.800000011920929
vt 0.5 0.3999999761581421
vt 0.5 0
vt 0.75 0
vt 0.75 0.3999999761581421
vt 0.75 2
vt 0.5 2
vt 0.5 1.600000023841858
vt 1 1.2000000476837158
vt 0.75 0.800000011920929
vt 1 0.800000011920929
vt 0.75 1.2000000476837158
vt 1 1.600000023841858
vt 0.75 1.600000023841858
vt 0.75 0.3999999761581421
vt 1 0.3999999761581421
vt 1 1.2000000476837158
vt 1 0.800000011920929
vt 1 1.600000023841858
vt 1 0.3999999761581421
vt 1 0
vt 1 2
vt 0.75 0
vt 1 0
vt 1 2
vt 0.75 2
vt 0.5 0
vt 0.25 0
vt 0.25 0.3999999761581421
vt 0.5 0.3999999761581421
vt 0.25 1.2000000476837158
vt 0 0.800000011920929
vt 0.25 0.800000011920929
vt 0 1.2000000476837158
vt 0.25 1.600000023841858
vt 0 1.600000023841858
vt 0 0.3999999761581421
vt 0.25 0.3999999761581421
vt 0 0
vt 0.25 0
vt 0.25 2
vt 0 2
vt 0.5 0.800000011920929
vt 0.25 1.2000000476837158
vt 0.5 1.2000000476837158
vt 0.25 0.800000011920929
vt 0 1.2000000476837158
vt 0 0.800000011920929
vt 0.5 1.2000000476837158
vt 0.5 0.800000011920929
vt 0.5 1.600000023841858
vt 0.5 0.3999999761581421
vt 0.5 0
vt 0.5 2
vt 0 0.3999999761581421
vt 0 1.600000023841858
vt 0.25 1.600000023841858
vt 0 2
vt 0.25 2
vt 0 0.800000011920929
vt 0.25 0.800000011920929
vt 0.25 0.3999999761581421
vt 0 0
vt 0.5 1.600000023841858
vt 0.5 2
vt 0.25 1.2000000476837158
vt 0.5 0.800000011920929
vt 0.5 1.2000000476837158
vt 0.25 1.600000023841858
vt 0.5 1.600000023841858
vt 0.25 1.600000023841858
vt 0.25 2
vt 0.25 0.3999999761581421
vt 0.25 0
vt 0.25 0.800000011920929
vt 0.25 1.2000000476837158
vt 0.5 0.3999999761581421
vt 0.5 0
vt 0.25 0
vt 0.25 2
vt 0.5 2
vt 0 1.600000023841858
vt 0 2
vt 0 0.3999999761581421
vt 0 0
vt 0 1.2000000476837158
vt 0.8966610431671143 0.5059473514556885
vt 0.9654670357704163 0.05255866050720215
vt 1.141531229019165 0.8096351623535156
vt 0.6517909169197083 0.20225954055786133
vt 0.9919216632843018 0.8810359239578247
vt 0.6871764659881592 0.6607174873352051
vt 0.3824312388896942 0.44039905071258545
vt 0.863449215888977 0.9946179986000061
vt 0.40534186363220215 1.1274000406265259
vt 0.17574414610862732 0.750748872756958
vt 0.7648687362670898 1.142641305923462
vt 0.04581499099731445 1.1121587753295898
vt 0.7028985023498535 1.3150173425674438
vt 0.3637882471084595 1.6939204931259155
vt 0.0014985501766204834 1.4999991655349731
vt 0.6817617416381836 1.5000007152557373
vt 0.045814722776412964 1.8878402709960938
vt 0.7028987407684326 1.6849833726882935
vt 0.5736497640609741 2.2084800004959106
vt 0.17574352025985718 2.2492501735687256
vt 0.7648690938949585 1.8573596477508545
vt 0.8634495735168457 2.005382537841797
vt 0.38243043422698975 2.559600353240967
vt 0.7576198577880859 2.4015612602233887
vt 0.6517901420593262 2.7977399826049805
vt 0.9919221997261047 2.118964433670044
vt 1.1337745189666748 0.4189201593399048
vt 1.3020827770233154 0.0014986991882324219
vt 1.3020820617675781 0.7852815985679626
vt 0.5195966958999634 0.8726834356784821
vt 0.3521985411643982 1.4075082540512085
vt 0.4393211305141449 1.9671167731285095
vt 0.9786940813064575 2.5332027673721313
vt 0.9654659628868103 2.9474411010742188
vt 1.1415319442749023 2.1903653144836426
vt 1.2218067646026611 2.5944334268569946
vt 1.3020817041397095 2.9985015392303467
vt 1.3020825386047363 2.2147185802459717
vt -4.371138828673793e-8 0
vt 0.5 0.5326379537582397
vt 0.5 0
vt 0.4999999701976776 1.0652759075164795
vt 0.75 0.7989569306373596
vt 1 1.0652759075164795
vt 0.75 0.5326379537582397
vt 0 1.0652759075164795
vt 0.4999999701976776 1.0652759075164795
vt -1.0927847071684482e-8 0.7989569306373596
vt -2.1855694143368964e-8 0.5326379537582397
vt 1 0.7989569306373596
vt 1 0.5326379537582397
vt 0.2499999701976776 0.5326379537582397
vt 0.5 0.5326379537582397
vt -4.371138828673793e-8 0
vt 0.75 0.5326379537582397
vt 1 1.0652759075164795
vt 1 0.5326379537582397
vt 0.5 0
vt 0.5 0.5326379537582397
vt 0.2499999701976776 0.5326379537582397
vt -2.1855694143368964e-8 0.5326379537582397
vt 0 0
vt 0.2499999850988388 0.5326379537582397
vt -4.377216100692749e-8 1.0652759075164795
vt 0.5 0
vt 0.4999999701976776 1.0652759075164795
vt 0.5 0
vt 0.75 0.5326379537582397
vt 0.4999999701976776 1.0652759075164795
vt 1 0
vt 1 1.0652759075164795
vt 0.5 0
vt 0.75 0.5326379537582397
vt 0.4999999701976776 1.0652759075164795
vt 1 0
vt 1 1.0652759075164795
vt 0 0
vt 0.2499999850988388 0.5326379537582397
vt -4.377216100692749e-8 1.0652759075164795
vt 0.5 0
vt 0.4999999701976776 1.0652759075164795
vt 0 0
vt 0.2499999850988388 0.5326379537582397
vt -4.377216100692749e-8 1.0652759075164795
vt 0.5 0
vt 0.4999999701976776 1.0652759075164795
vt 0.75 0.5326379537582397
vt 1 0
vt 1 1.0652759075164795
vt 0 0
vt 0.2499999850988388 0.5326379537582397
vt -4.377216100692749e-8 1.0652759075164795
vt 0.5 0
vt 0.75 0.5326379537582397
vt 0.4999999701976776 1.0652759075164795
vt 1 0
vt 1 1.0652759075164795
vt 0 0
vt 0.2499999850988388 0.5326379537582397
vt -4.377216100692749e-8 1.0652759075164795
vt 0.75 0.5326379537582397
vt 1 0
vt 1 1.0652759075164795
vt 0.75 0.5326379537582397
vt 1 0
vt 1 1.0652759075164795
vt 0 0
vt 0.2499999850988388 0.5326379537582397
vt -4.377216100692749e-8 1.0652759075164795
vt 1 1.0652759075164795
vt 0.5 0
vt 0.9999999403953552 0
vt 0.4999999701976776 1.0652759075164795
vt 1 1.0652759075164795
vt 0.5 0
vt -4.371138828673793e-8 0
vt 0.4999999701976776 1.0652759075164795
vt 1 0.2663189768791199
vt 0.9999999403953552 0
vt -4.371138828673793e-8 0
vt 0.4999999701976776 1.0652759075164795
vt 0.5 0
vt 0 1.0652759075164795
vt 1 1.0652759075164795
vt -4.371138828673793e-8 0
vt -2.1855694143368964e-8 0.5326379537582397
vt 0 1.0652759075164795
vt 0.9999999403953552 0
vt 0.9999999403953552 0
vt -4.371138828673793e-8 0
vt 0.4999999701976776 1.0652759075164795
vt 0.5 0
vt 0 1.0652759075164795
vt 1 1.0652759075164795
vt 0.9999999403953552 0
vt 0 1.0652759075164795
vt 0 1.0652759075164795
vt 1 0.5326379537582397
vt 0.9999999403953552 0
g Warlock020
s 1
f 1/1/1 2/2/2 3/3/3
f 4/4/4 5/5/5 6/6/6
f 7/7/7 8/8/8 9/9/9
f 9/9/9 6/6/6 7/7/7
f 10/10/10 11/11/11 12/12/12
f 12/12/12 3/3/3 10/10/10
f 13/13/13 14/14/14 15/15/15
f 13/13/13 16/16/16 14/14/14
f 17/17/17 18/18/18 16/16/16
f 16/16/16 13/13/13 17/17/17
f 19/19/19 20/20/20 15/15/15
f 15/15/15 14/14/14 19/19/19
f 21/21/21 4/4/4 22/22/22
f 21/21/21 2/2/2 4/4/4
f 23/23/23 3/3/3 2/2/2
f 2/2/2 21/21/21 23/23/23
f 9/9/9 24/24/24 22/22/22
f 22/22/22 4/4/4 9/9/9
f 8/8/8 25/25/25 24/24/24
f 24/24/24 9/9/9 8/8/8
f 26/26/26 10/10/10 3/3/3
f 3/3/3 23/23/23 26/26/26
f 27/27/27 28/28/28 20/20/20
f 20/20/20 19/19/19 27/27/27
f 29/29/29 30/30/30 18/18/18
f 18/18/18 17/17/17 29/29/29
f 31/31/31 32/32/32 33/33/33
f 33/33/33 34/34/34 31/31/31
f 35/35/35 36/36/36 37/37/37
f 35/35/35 38/38/38 36/36/36
f 39/39/39 40/40/40 38/38/38
f 38/38/38 35/35/35 39/39/39
f 41/41/41 42/42/42 37/37/37
f 37/37/37 36/36/36 41/41/41
f 43/43/43 44/44/44 42/42/42
f 42/42/42 41/41/41 43/43/43
f 45/45/45 46/46/46 40/40/40
f 40/40/40 39/39/39 45/45/45
f 47/47/47 48/48/48 49/49/49
f 47/47/47 50/50/50 48/48/48
f 34/34/34 33/33/33 50/50/50
f 50/50/50 47/47/47 34/34/34
f 50/50/50 51/51/51 48/48/48
f 50/50/50 52/52/52 51/51/51
f 53/53/53 37/37/37 54/54/54
f 53/53/53 35/35/35 37/37/37
f 55/55/55 39/39/39 35/35/35
f 35/35/35 53/53/53 55/55/55
f 42/42/42 56/56/56 54/54/54
f 54/54/54 37/37/37 42/42/42
f 44/44/44 57/57/57 56/56/56
f 56/56/56 42/42/42 44/44/44
f 58/58/58 45/45/45 39/39/39
f 39/39/39 55/55/55 58/58/58
f 33/33/33 59/59/59 52/52/52
f 52/52/52 50/50/50 33/33/33
f 60/60/60 61/61/61 48/48/48
f 48/48/48 51/51/51 60/60/60
f 62/62/62 63/63/63 61/61/61
f 6/6/6 9/9/9 4/4/4
f 61/61/61 60/60/60 62/62/62
f 64/64/64 65/65/65 66/66/66
f 16/16/16 53/53/53 54/54/54
f 18/18/18 55/55/55 53/53/53
f 53/53/53 16/16/16 18/18/18
f 56/56/56 19/19/19 14/14/14
f 14/14/14 54/54/54 56/56/56
f 57/57/57 27/27/27 19/19/19
f 19/19/19 56/56/56 57/57/57
f 30/30/30 58/58/58 55/55/55
f 55/55/55 18/18/18 30/30/30
f 32/32/32 67/67/67 59/59/59
f 59/59/59 33/33/33 32/32/32
f 61/61/61 68/68/68 49/49/49
f 3/3/3 12/12/12 1/1/1
f 2/2/2 1/1/1 5/5/5
f 2/2/2 5/5/5 4/4/4
f 68/68/68 61/61/61 63/63/63
f 63/63/63 69/69/69 68/68/68
f 49/49/49 48/48/48 61/61/61
f 70/70/70 71/71/71 65/65/65
f 70/70/70 72/72/72 71/71/71
f 73/73/73 74/74/74 72/72/72
f 75/75/75 12/12/12 11/11/11
f 11/11/11 76/76/76 75/75/75
f 6/6/6 77/77/77 78/78/78
f 78/78/78 7/7/7 6/6/6
f 5/5/5 79/79/79 77/77/77
f 77/77/77 6/6/6 5/5/5
f 80/80/80 1/1/1 12/12/12
f 12/12/12 75/75/75 80/80/80
f 1/1/1 80/80/80 79/79/79
f 1/1/1 79/79/79 5/5/5
f 72/72/72 70/70/70 73/73/73
f 81/81/81 66/66/66 65/65/65
f 65/65/65 71/71/71 81/81/81
f 82/82/82 83/83/83 66/66/66
f 66/66/66 81/81/81 82/82/82
f 84/84/84 85/85/85 74/74/74
f 86/86/86 75/75/75 76/76/76
f 76/76/76 87/87/87 86/86/86
f 77/77/77 88/88/88 89/89/89
f 89/89/89 78/78/78 77/77/77
f 79/79/79 64/64/64 88/88/88
f 88/88/88 77/77/77 79/79/79
f 90/90/90 80/80/80 75/75/75
f 75/75/75 86/86/86 90/90/90
f 80/80/80 90/90/90 64/64/64
f 80/80/80 64/64/64 79/79/79
f 74/74/74 73/73/73 84/84/84
f 90/90/90 65/65/65 64/64/64
f 90/90/90 70/70/70 65/65/65
f 86/86/86 73/73/73 70/70/70
f 70/70/70 90/90/90 86/86/86
f 66/66/66 88/88/88 64/64/64
f 73/73/73 86/86/86 87/87/87
f 87/87/87 84/84/84 73/73/73
f 88/88/88 66/66/66 83/83/83
f 83/83/83 89/89/89 88/88/88
f 16/16/16 54/54/54 14/14/14
g Warlock021
s 1
f 91/91/91 92/92/92 93/93/93
f 94/94/94 92/92/92 91/91/91
f 91/91/91 95/95/95 94/94/94
f 93/93/93 95/95/95 91/91/91
f 96/96/96 94/94/94 95/95/95
f 97/97/97 94/94/94 96/96/96
f 96/96/96 98/98/98 97/97/97
f 95/95/95 98/98/98 96/96/96
f 99/99/99 100/100/100 101/101/101
f 102/102/102 100/100/100 99/99/99
f 99/99/99 103/103/103 102/102/102
f 101/101/101 103/103/103 99/99/99
f 104/104/104 105/105/105 106/106/106
f 107/107/107 105/105/105 104/104/104
f 104/104/104 108/108/108 107/107/107
f 106/106/106 108/108/108 104/104/104
f 109/109/109 110/110/110 111/111/111
f 109/109/109 112/112/112 113/113/113
f 111/111/111 112/112/112 109/109/109
f 114/114/114 113/113/113 112/112/112
f 115/115/115 113/113/113 114/114/114
f 114/114/114 116/116/116 115/115/115
f 112/112/112 116/116/116 114/114/114
f 117/117/117 118/118/118 119/119/119
f 92/92/92 118/118/118 117/117/117
f 117/117/117 93/93/93 92/92/92
f 119/119/119 93/93/93 117/117/117
f 120/120/120 97/97/97 98/98/98
f 100/100/100 97/97/97 120/120/120
f 120/120/120 101/101/101 100/100/100
f 98/98/98 101/101/101 120/120/120
f 121/121/121 102/102/102 103/103/103
f 105/105/105 102/102/102 121/121/121
f 121/121/121 106/106/106 105/105/105
f 103/103/103 106/106/106 121/121/121
f 122/122/122 107/107/107 108/108/108
f 110/110/110 107/107/107 122/122/122
f 122/122/122 111/111/111 110/110/110
f 108/108/108 111/111/111 122/122/122
f 123/123/123 115/115/115 116/116/116
f 124/124/124 115/115/115 123/123/123
f 123/123/123 125/125/125 124/124/124
f 116/116/116 125/125/125 123/123/123
f 126/126/126 124/124/124 125/125/125
f 127/127/127 124/124/124 126/126/126
f 126/126/126 128/128/128 127/127/127
f 125/125/125 128/128/128 126/126/126
f 113/113/113 110/110/110 109/109/109
g Warlock022
s 1
f 129/129/129 130/130/130 131/131/131
f 132/132/132 133/133/133 130/130/130
f 132/132/132 134/134/134 133/133/133
f 133/133/133 134/134/134 135/135/135
f 130/130/130 133/133/133 135/135/135
f 136/136/136 137/137/137 138/138/138
f 138/138/138 137/137/137 139/139/139
f 135/135/135 140/140/140 141/141/141
f 135/135/135 134/134/134 140/140/140
f 142/142/142 137/137/137 143/143/143
f 144/144/144 142/142/142 143/143/143
f 139/139/139 142/142/142 144/144/144
f 139/139/139 137/137/137 142/142/142
f 145/145/145 146/146/146 147/147/147
f 148/148/148 145/145/145 147/147/147
f 149/149/149 145/145/145 148/148/148
f 149/149/149 146/146/146 145/145/145
f 131/131/131 135/135/135 141/141/141
f 130/130/130 135/135/135 131/131/131
f 150/150/150 132/132/132 130/130/130
f 129/129/129 150/150/150 130/130/130
f 151/151/151 150/150/150 129/129/129
f 151/151/151 132/132/132 150/150/150
f 152/152/152 153/153/153 154/154/154
f 152/152/152 155/155/155 153/153/153
f 156/156/156 153/153/153 155/155/155
f 156/156/156 154/154/154 153/153/153
f 157/157/157 158/158/158 159/159/159
f 157/157/157 160/160/160 158/158/158
f 161/161/161 158/158/158 160/160/160
f 161/161/161 159/159/159 158/158/158
f 162/162/162 163/163/163 164/164/164
f 162/162/162 165/165/165 163/163/163
f 166/166/166 163/163/163 165/165/165
f 166/166/166 164/164/164 163/163/163
f 167/167/167 168/168/168 169/169/169
f 167/167/167 170/170/170 168/168/168
f 171/171/171 168/168/168 170/170/170
f 171/171/171 169/169/169 168/168/168
f 172/172/172 173/173/173 174/174/174
f 172/172/172 175/175/175 173/173/173
f 176/176/176 173/173/173 175/175/175
f 176/176/176 174/174/174 173/173/173
f 175/175/175 177/177/177 176/176/176
f 175/175/175 178/178/178 177/177/177
f 179/179/179 177/177/177 178/178/178
f 179/179/179 176/176/176 177/177/177
f 180/180/180 181/181/181 182/182/182
f 180/180/180 157/157/157 181/181/181
f 159/159/159 181/181/181 157/157/157
f 159/159/159 182/182/182 181/181/181
f 183/183/183 184/184/184 185/185/185
f 183/183/183 186/186/186 184/184/184
f 187/187/187 184/184/184 186/186/186
f 187/187/187 185/185/185 184/184/184
f 188/188/188 189/189/189 190/190/190
f 188/188/188 183/183/183 189/189/189
f 185/185/185 189/189/189 183/183/183
f 185/185/185 190/190/190 189/189/189
f 155/155/155 191/191/191 156/156/156
f 155/155/155 192/192/192 191/191/191
f 193/193/193 191/191/191 192/192/192
f 193/193/193 156/156/156 191/191/191
f 170/170/170 194/194/194 171/171/171
f 170/170/170 195/195/195 194/194/194
f 196/196/196 194/194/194 195/195/195
f 196/196/196 171/171/171 194/194/194
f 197/197/197 198/198/198 199/199/199
f 197/197/197 162/162/162 198/198/198
f 164/164/164 198/198/198 162/162/162
f 164/164/164 199/199/199 198/198/198
f 137/137/137 200/200/200 143/143/143
f 143/143/143 200/200/200 201/201/201
f 144/144/144 143/143/143 201/201/201
f 131/131/131 141/141/141 202/202/202
f 203/203/203 204/204/204 205/205/205
f 206/206/206 207/207/207 149/149/149
f 207/207/207 146/146/146 149/149/149
f 148/148/148 147/147/147 208/208/208
f 206/206/206 149/149/149 148/148/148
f 205/205/205 204/204/204 209/209/209
f 210/210/210 211/211/211 212/212/212
f 213/213/213 211/211/211 210/210/210
f 211/211/211 214/214/214 212/212/212
f 215/215/215 203/203/203 205/205/205
f 216/216/216 203/203/203 215/215/215
f 217/217/217 203/203/203 216/216/216
f 148/148/148 208/208/208 218/218/218
f 201/201/201 200/200/200 219/219/219
f 220/220/220 221/221/221 222/222/222
f 223/223/223 221/221/221 220/220/220
f 222/222/222 224/224/224 225/225/225
f 221/221/221 224/224/224 222/222/222
f 226/226/226 207/207/207 206/206/206
f 227/227/227 132/132/132 151/151/151
f 212/212/212 214/214/214 228/228/228
f 212/212/212 228/228/228 229/229/229
