# Exported using wow.export v0.2.19
o 21138_Garrison_Left.obj
v -50.13579177856445 2.260822057723999 -256.91827392578125
v -50.13579559326172 5.459522247314453 -254.09912109375
v -50.135799407958984 5.459528923034668 -256.91827392578125
v -58.15398025512695 5.459522247314453 -262.3583679199219
v -54.14488983154297 2.3838272094726562 -262.3583679199219
v -54.14488983154297 5.459527492523193 -262.3583679199219
v -50.135799407958984 5.459532737731934 -262.3583679199219
v -54.14488983154297 2.38382887840271 -248.6590118408203
v -54.14488983154297 5.459528923034668 -248.6590118408203
v -50.13579559326172 5.459536075592041 -248.6590118408203
v -58.15398025512695 5.459521770477295 -248.6590118408203
v -58.15398025512695 2.383821725845337 -255.50869750976562
v -58.15398025512695 -0.6918784379959106 -255.50869750976562
v -58.15398025512695 -0.6918782591819763 -260.9438781738281
v -58.15398025512695 -0.6918785572052002 -250.07351684570312
v -50.13579559326172 2.260822057723999 -248.6590118408203
v -50.13579559326172 -0.6918781399726868 -248.6590118408203
v -54.14488983154297 0.7844718098640442 -248.6590118408203
v -58.15398025512695 -0.6918784976005554 -248.6590118408203
v -58.15398025512695 5.459521770477295 -250.07351684570312
v -50.13579177856445 -0.691878616809845 -256.91827392578125
v -50.13579177856445 2.260822057723999 -254.09912109375
v -50.13579177856445 -0.6918784379959106 -254.09912109375
v -50.135799407958984 -0.6918779015541077 -262.3583679199219
v -50.135799407958984 2.260822296142578 -262.3583679199219
v -54.14488983154297 0.7844719886779785 -262.3583679199219
v -58.15398025512695 -0.6918782591819763 -262.3583679199219
v -58.15398025512695 5.459522247314453 -260.9438781738281
v -58.15398025512695 5.459522247314453 -255.50869750976562
v -54.14488983154297 -0.6918783187866211 -248.6590118408203
v -58.15398025512695 5.459521770477295 -248.6590118408203
v -58.15398025512695 -0.6918784976005554 -248.6590118408203
v -58.15398025512695 -0.6918782591819763 -262.3583679199219
v -58.15398025512695 5.459522247314453 -262.3583679199219
v -54.14488983154297 -0.691878080368042 -262.3583679199219
v -54.14488983154297 -0.691878080368042 -262.3583679199219
v -58.15398025512695 -0.6918782591819763 -262.3583679199219
v -54.14488983154297 -0.691878080368042 -261.651123046875
v -50.135799407958984 -0.6918779015541077 -262.3583679199219
v -54.14488983154297 -0.6918783187866211 -248.6590118408203
v -50.13579559326172 -0.6918781399726868 -248.6590118408203
v -54.14488983154297 -0.6918783187866211 -249.36627197265625
v -58.15398025512695 -0.6918784976005554 -248.6590118408203
v -54.1448860168457 -0.691878080368042 -260.9438781738281
v -50.13579177856445 -0.6918779015541077 -260.9438781738281
v -54.1448860168457 -0.6918784379959106 -258.93109130859375
v -58.15398025512695 -0.6918782591819763 -260.9438781738281
v -54.14488983154297 -0.6918781995773315 -255.50869750976562
v -54.14488983154297 -0.6918783187866211 -250.07351684570312
v -52.140342712402344 -0.6918781995773315 -252.79110717773438
v -50.13579559326172 -0.6918781399726868 -250.07351684570312
v -50.13579177856445 -0.6918784379959106 -254.09912109375
v -54.1448860168457 -0.6918783187866211 -257.521484375
v -58.15398025512695 -0.6918785572052002 -250.07351684570312
v -50.13579177856445 -0.691878616809845 -256.91827392578125
v -56.149436950683594 -0.6918781995773315 -258.2262878417969
v -58.15398025512695 -0.6918784379959106 -255.50869750976562
v -56.149436950683594 -0.6918783783912659 -252.79110717773438
v -50.135799407958984 5.459532737731934 -262.3583679199219
v -50.135799407958984 2.260822296142578 -262.3583679199219
v -50.13579177856445 2.260822296142578 -260.9438781738281
v -50.135799407958984 5.459532737731934 -260.9438781738281
v -50.13579559326172 5.459536075592041 -250.07351684570312
v -50.13579559326172 2.260822057723999 -250.07351684570312
v -50.13579559326172 2.260822057723999 -248.6590118408203
v -50.13579559326172 -0.6918781399726868 -250.07351684570312
v -50.13579559326172 -0.6918781399726868 -248.6590118408203
v -50.135799407958984 -0.6918779015541077 -262.3583679199219
v -50.13579177856445 -0.6918779015541077 -260.9438781738281
v -50.13579559326172 5.459536075592041 -248.6590118408203
v -54.39098358154297 5.459527015686035 -260.6977844238281
v -56.04509353637695 5.459524631500244 -260.4516906738281
v -58.15398025512695 5.459522247314453 -260.9438781738281
v -55.94036865234375 5.930765628814697 -260.34698486328125
v -55.94036865234375 5.930764198303223 -255.50869750976562
v -55.99272918701172 5.695143699645996 -255.4563446044922
v -50.13579177856445 4.273622989654541 -252.08631896972656
v -50.13579559326172 4.120407581329346 -251.31605529785156
v -50.13579559326172 5.459536075592041 -250.07351684570312
v -50.13579559326172 3.0310871601104736 -250.2267303466797
v -50.13579559326172 3.684086799621582 -250.66305541992188
v -50.13579559326172 5.459522247314453 -254.09912109375
v -50.13579177856445 4.120407581329346 -252.85658264160156
v -58.15398025512695 5.459522247314453 -255.50869750976562
v -58.15398025512695 5.459522247314453 -260.9438781738281
v -56.04509353637695 5.459524631500244 -260.4516906738281
v -50.13579177856445 2.260822057723999 -254.09912109375
v -50.13579177856445 3.031087636947632 -253.94590759277344
v -50.13579177856445 3.684087038040161 -253.50958251953125
v -57.09953689575195 5.4595232009887695 -255.26260375976562
v -56.04508972167969 5.459522247314453 -250.56570434570312
v -58.15398025512695 5.459521770477295 -250.07351684570312
v -54.14488983154297 5.459528923034668 -249.36627197265625
v -50.13579559326172 5.459536075592041 -250.07351684570312
v -50.13579559326172 5.459536075592041 -248.6590118408203
v -58.15398025512695 5.459521770477295 -248.6590118408203
v -58.15398025512695 5.459521770477295 -250.07351684570312
v -50.13579177856445 2.260822057723999 -256.91827392578125
v -50.135799407958984 5.459528923034668 -256.91827392578125
v -50.13579177856445 3.031087636947632 -257.07147216796875
v -57.07661819458008 4.533846378326416 -261.1723327636719
v -56.79874038696289 -0.08072137832641602 -260.89410400390625
v -57.07661819458008 4.533846378326416 -262.3583679199219
v -56.79874038696289 -0.08072137832641602 -262.3583679199219
v -58.15398025512695 4.533845901489258 -261.1723327636719
v -58.15398025512695 -0.08072180300951004 -260.89410400390625
v -57.07661819458008 4.533846378326416 -261.1723327636719
v -56.79874038696289 -0.08072137832641602 -260.89410400390625
v -50.13579177856445 4.273622989654541 -258.9310607910156
v -50.13579177856445 4.120408058166504 -258.1607971191406
v -54.14488983154297 5.459527492523193 -261.651123046875
v -58.15398025512695 5.459522247314453 -260.9438781738281
v -58.15398025512695 5.459522247314453 -262.3583679199219
v -50.135799407958984 5.459532737731934 -262.3583679199219
v -50.135799407958984 5.459532737731934 -260.9438781738281
v -50.13579559326172 5.459536075592041 -250.07351684570312
v -54.14488983154297 5.459528923034668 -250.07351684570312
v -56.04508972167969 5.459522247314453 -250.56570434570312
v -58.15398025512695 5.459521770477295 -250.07351684570312
v -54.14488983154297 5.459528923034668 -250.07351684570312
v -50.13579559326172 2.260822057723999 -250.07351684570312
v -56.04508972167969 5.4595232009887695 -255.50869750976562
v -50.62798309326172 5.459532260894775 -260.4516906738281
v -50.73270797729492 5.9307732582092285 -260.34698486328125
v -55.94036865234375 5.930765628814697 -260.34698486328125
v -50.732704162597656 5.930771827697754 -256.91827392578125
v -50.73270797729492 5.9307732582092285 -260.34698486328125
v -50.62798309326172 5.459532260894775 -260.4516906738281
v -50.62798309326172 5.459530353546143 -256.91827392578125
v -50.73270034790039 5.9307637214660645 -254.09912109375
v -50.135799407958984 5.459532737731934 -260.9438781738281
v -55.94036865234375 5.930763244628906 -250.67041015625
v -50.732704162597656 5.9307732582092285 -250.67041015625
v -50.62798309326172 5.459532260894775 -250.56570434570312
v -50.732704162597656 5.9307732582092285 -250.67041015625
v -50.62798309326172 5.459522724151611 -254.09912109375
v -50.62798309326172 5.459532260894775 -250.56570434570312
v -50.135799407958984 5.459532737731934 -260.9438781738281
v -50.135799407958984 5.459528923034668 -256.91827392578125
v -50.13579559326172 5.459522247314453 -254.09912109375
v -50.13579559326172 5.459536075592041 -250.07351684570312
v -50.13579177856445 3.684087038040161 -257.5078125
v -50.135799407958984 5.459532737731934 -260.9438781738281
v -50.13579177856445 4.120408058166504 -259.7013244628906
v -50.13579177856445 2.260822296142578 -260.9438781738281
v -50.13579177856445 3.031087636947632 -260.7906799316406
v -55.94036865234375 5.930763244628906 -250.67041015625
v -50.13579177856445 3.6840875148773193 -260.3543395996094
v -54.14488983154297 5.459528923034668 -248.6590118408203
v -54.14488983154297 5.459527492523193 -262.3583679199219
v -54.14488983154297 5.459527492523193 -260.9438781738281
v -54.14488983154297 5.459527492523193 -260.9438781738281
v -57.07661819458008 4.533846378326416 -249.81158447265625
v -57.07661819458008 4.533845901489258 -248.6590118408203
v -56.79874038696289 -0.0807211697101593 -250.08984375
v -56.79874038696289 -0.08072137832641602 -248.6590118408203
v -58.15398025512695 4.533845901489258 -249.81158447265625
v -57.07661819458008 4.533846378326416 -249.81158447265625
v -58.15398025512695 -0.08072159439325333 -250.08984375
v -56.79874038696289 -0.0807211697101593 -250.08984375
v -53.33654022216797 5.930768013000488 -255.50869750976562
v -55.94036865234375 5.930765628814697 -260.34698486328125
v -50.73270797729492 5.9307732582092285 -260.34698486328125
v -53.3365364074707 5.93076753616333 -253.79434204101562
v -50.73270034790039 5.9307637214660645 -254.09912109375
v -55.94036865234375 5.930763244628906 -250.67041015625
v -55.94036865234375 5.930764198303223 -255.50869750976562
v -50.732704162597656 5.9307732582092285 -250.67041015625
v -50.732704162597656 5.930771827697754 -256.91827392578125
v -56.28255081176758 -0.24067465960979462 -262.3583679199219
v -56.28255081176758 -0.24067507684230804 -260.2469787597656
v -56.24851608276367 -0.691878616809845 -260.2131042480469
v -57.07661819458008 4.533846378326416 -249.81158447265625
v -58.15398025512695 4.533845901489258 -249.81158447265625
v -58.15398025512695 4.533845901489258 -250.47482299804688
v -56.52339553833008 4.533846378326416 -250.47482299804688
v -56.52339553833008 4.533845901489258 -248.6590118408203
v -57.07661819458008 4.533846378326416 -249.81158447265625
v -56.52339553833008 4.533846378326416 -250.47482299804688
v -57.07661819458008 4.533845901489258 -248.6590118408203
v -57.08092498779297 4.776575565338135 -250.54666137695312
v -58.15398025512695 4.776575088500977 -250.54666137695312
v -56.18202590942383 5.455683708190918 -250.7476348876953
v -56.73956298828125 5.455683708190918 -250.81947326660156
v -56.44047927856445 4.776574611663818 -249.8348846435547
v -56.18202590942383 5.455683708190918 -250.7476348876953
v -56.18202590942383 5.455683708190918 -250.00108337402344
v -56.43727111816406 4.789559364318848 -248.6590118408203
v -58.15398025512695 -0.2406751811504364 -250.73692321777344
v -56.79874038696289 -0.0807211697101593 -250.08984375
v -56.28255081176758 -0.24067480862140656 -250.73695373535156
v -58.15398025512695 -0.08072159439325333 -250.08984375
v -56.28255081176758 -0.24067480862140656 -250.73695373535156
v -56.79874038696289 -0.08072137832641602 -248.6590118408203
v -56.28255081176758 -0.24067507684230804 -248.6590118408203
v -56.79874038696289 -0.0807211697101593 -250.08984375
v -58.15397262573242 -0.6918788552284241 -250.77081298828125
v -56.24851608276367 -0.6918784379959106 -250.77081298828125
v -56.24851608276367 -0.6918784379959106 -250.77081298828125
v -56.24851608276367 -0.691878616809845 -248.6590118408203
v -58.15397262573242 4.981046199798584 -255.50868225097656
v -57.08092498779297 4.981046676635742 -255.50868225097656
v -57.08092498779297 4.776575565338135 -250.54666137695312
v -58.15398025512695 4.776575088500977 -250.54666137695312
v -56.73956298828125 5.459521770477295 -255.50868225097656
v -56.73956298828125 5.455683708190918 -250.81947326660156
v -53.55124282836914 5.455683708190918 -250.00108337402344
v -53.55124282836914 4.945972919464111 -249.8348846435547
v -56.44047927856445 4.776574611663818 -249.8348846435547
v -56.18202590942383 5.455683708190918 -250.00108337402344
v -53.551239013671875 4.958958148956299 -248.6590118408203
v -56.43727111816406 4.789559364318848 -248.6590118408203
v -50.13579559326172 4.780426025390625 -249.8348846435547
v -50.13579559326172 5.459536075592041 -250.00108337402344
v -50.13579559326172 4.7934112548828125 -248.6590118408203
v -57.07661819458008 4.533846378326416 -261.1723327636719
v -58.15397262573242 4.533845901489258 -260.50909423828125
v -58.15398025512695 4.533845901489258 -261.1723327636719
v -56.52339172363281 4.533846378326416 -260.50909423828125
v -56.52339172363281 4.533846378326416 -262.3583679199219
v -56.52339172363281 4.533846378326416 -260.50909423828125
v -57.07661819458008 4.533846378326416 -261.1723327636719
v -57.07661819458008 4.533846378326416 -262.3583679199219
v -57.08092498779297 4.776575565338135 -260.437255859375
v -58.15397262573242 4.776575088500977 -260.437255859375
v -56.18202590942383 5.455683708190918 -260.23626708984375
v -56.73956298828125 5.455683708190918 -260.1644592285156
v -56.44047927856445 4.776574611663818 -261.1490783691406
v -56.18202590942383 5.455683708190918 -260.9828186035156
v -56.18202590942383 5.455683708190918 -260.23626708984375
v -56.43727111816406 4.789559364318848 -262.3583679199219
v -58.15397262573242 -0.24067465960979462 -260.2469787597656
v -56.28255081176758 -0.24067507684230804 -260.2469787597656
v -56.79874038696289 -0.08072137832641602 -260.89410400390625
v -58.15398025512695 -0.08072180300951004 -260.89410400390625
v -56.79874038696289 -0.08072137832641602 -262.3583679199219
v -56.79874038696289 -0.08072137832641602 -260.89410400390625
v -58.15397262573242 -0.691878616809845 -260.2131042480469
v -56.24851608276367 -0.691878616809845 -260.2131042480469
v -56.24851608276367 -0.6918782591819763 -262.3583679199219
v -57.08092498779297 4.776575565338135 -260.437255859375
v -58.15397262573242 4.776575088500977 -260.437255859375
v -56.73956298828125 5.455683708190918 -260.1644592285156
v -53.55124282836914 5.455683708190918 -260.9828186035156
v -56.44047927856445 4.776574611663818 -261.1490783691406
v -53.55124282836914 4.945972919464111 -261.1490783691406
v -56.18202590942383 5.455683708190918 -260.9828186035156
v -56.43727111816406 4.789559364318848 -262.3583679199219
v -53.551239013671875 4.958958625793457 -262.3583679199219
v -50.135799407958984 4.780426025390625 -261.1490783691406
v -50.135799407958984 5.459536075592041 -260.9828186035156
v -50.135799407958984 4.793411731719971 -262.3583679199219
vn -0.7071071863174438 -0.06930706650018692 -0.7037016153335571
vn -0.7071070671081543 -0.7071064710617065 -8.505003279424272e-7
vn -0.7071070671081543 -0.7071064710617065 -8.505003279424272e-7
vn 0.5773507952690125 -0.5773500204086304 0.5773500204086304
vn 4.12953028217089e-7 -2.064765141085445e-7 1
vn 6.20504124526633e-7 -0.7071067690849304 0.7071067690849304
vn -0.5773497819900513 -0.5773504972457886 0.5773504972457886
vn 5.678103320860828e-7 -3.0971472142482526e-7 -1
vn 8.39505560179532e-7 -0.7071067690849304 -0.7071067690849304
vn -0.5773496031761169 -0.5773506164550781 -0.5773506164550781
vn 0.5773509740829468 -0.5773499011993408 -0.5773499011993408
vn 0.9999999403953552 2.9502785992008285e-7 7.263261636580864e-8
vn 0.7071067690849304 0.7071068286895752 7.376077348908439e-8
vn 0.7071067690849304 0.7071068286895752 1.302894361288054e-7
vn 0.7071067690849304 0.7071068286895752 1.7232116178433898e-8
vn -0.7071067690849304 0 -0.7071067690849304
vn -0.5773502588272095 0.5773502588272095 -0.5773502588272095
vn -0.09175171703100204 0.40824830532073975 -0.9082483053207397
vn 0.5773502588272095 0.5773502588272095 -0.5773502588272095
vn 0.7071071863174438 -0.7071064114570618 -2.7571370964096786e-8
vn -0.4082483649253845 0.8164967894554138 -0.40824779868125916
vn -0.707106351852417 -0.06930698454380035 0.703702449798584
vn -0.4082481861114502 0.8164964318275452 0.408248633146286
vn -0.5773502588272095 0.5773502588272095 0.5773502588272095
vn -0.7071067690849304 0 0.7071067690849304
vn -0.09175171703100204 0.40824830532073975 0.9082483053207397
vn 0.5773502588272095 0.5773502588272095 0.5773502588272095
vn 0.7071071863174438 -0.7071064114570618 -2.7571370964096786e-8
vn 0.7071071863174438 -0.7071064114570618 -2.7571370964096786e-8
vn 0 0.7071067690849304 -0.7071067690849304
vn 0.5773509740829468 -0.5773499011993408 -0.5773499011993408
vn 0.5773502588272095 0.5773502588272095 -0.5773502588272095
vn 0.5773502588272095 0.5773502588272095 0.5773502588272095
vn 0.5773507952690125 -0.5773500204086304 0.5773500204086304
vn 0 0.7071067690849304 0.7071067690849304
vn 0 0.7071067690849304 0.7071067690849304
vn 0.5773502588272095 0.5773502588272095 0.5773502588272095
vn 0.09175170212984085 0.908248245716095 0.40824833512306213
vn -0.5773502588272095 0.5773502588272095 0.5773502588272095
vn 0 0.7071067690849304 -0.7071067690849304
vn -0.5773502588272095 0.5773502588272095 -0.5773502588272095
vn 0.09857518970966339 0.8125199675559998 -0.5745384097099304
vn 0.5773502588272095 0.5773502588272095 -0.5773502588272095
vn 0.18615677952766418 0.9490414261817932 0.2542950212955475
vn -0.40824824571609497 0.8164965510368347 0.4082484245300293
vn 0.18615670502185822 0.9490415453910828 -0.2542944848537445
vn 0.7071067690849304 0.7071068286895752 1.302894361288054e-7
vn 0.1861567497253418 0.9490414261817932 -0.25429481267929077
vn 0.1861567497253418 0.9490414261817932 -0.25429487228393555
vn -0.11696463823318481 0.9298215508460999 -0.3489287197589874
vn -0.40824830532073975 0.8164965510368347 -0.40824833512306213
vn -0.4082481861114502 0.8164964318275452 0.408248633146286
vn 0.18615683913230896 0.9490413665771484 0.2542951703071594
vn 0.7071067690849304 0.7071068286895752 1.7232116178433898e-8
vn -0.4082483649253845 0.8164967894554138 -0.40824779868125916
vn 0.4704377353191376 0.8722113370895386 -0.1339244395494461
vn 0.7071067690849304 0.7071068286895752 7.376077348908439e-8
vn 0.4704377353191376 0.8722113370895386 -0.1339244842529297
vn -0.5773497819900513 -0.5773504972457886 0.5773504972457886
vn -0.7071067690849304 0 0.7071067690849304
vn -0.7071067690849304 -0.06930706650018692 0.7037020325660706
vn -0.7071062922477722 -0.7071072459220886 3.255310332406225e-7
vn -0.7071061730384827 -0.7071073651313782 0.000004676298885897268
vn -0.7071067690849304 -0.06930706650018692 -0.7037020325660706
vn -0.7071067690849304 0 -0.7071067690849304
vn -0.40824830532073975 0.8164965510368347 -0.40824833512306213
vn -0.5773502588272095 0.5773502588272095 -0.5773502588272095
vn -0.5773502588272095 0.5773502588272095 0.5773502588272095
vn -0.40824824571609497 0.8164965510368347 0.4082484245300293
vn -0.5773496031761169 -0.5773506164550781 -0.5773506164550781
vn 0.1420898139476776 -0.9361417293548584 0.32163500785827637
vn 0.49044114351272583 -0.7203699946403503 0.49044325947761536
vn 0.7071071863174438 -0.7071064114570618 -2.7571370964096786e-8
vn 0.49044138193130493 -0.7203698754310608 0.4904431402683258
vn 0.5627739429473877 -0.8266108632087708 -3.419763672241061e-8
vn 0.5627725124359131 -0.8266118764877319 -3.248776181408175e-7
vn -0.7071067690849304 -0.7071067690849304 0
vn -0.7071067690849304 -0.6532809138298035 -0.2705993950366974
vn -0.7071061730384827 -0.7071073651313782 0.000004676298885897268
vn -0.7071067690849304 -0.27060121297836304 -0.6532801985740662
vn -0.7071067690849304 -0.5000025033950806 -0.49999749660491943
vn -0.7071070671081543 -0.7071064710617065 -8.505003279424272e-7
vn -0.7071067690849304 -0.6532809734344482 0.27059927582740784
vn 0.7071071863174438 -0.7071064114570618 -2.7571370964096786e-8
vn 0.7071071863174438 -0.7071064114570618 -2.7571370964096786e-8
vn 0.49044114351272583 -0.7203699946403503 0.49044325947761536
vn -0.707106351852417 -0.06930698454380035 0.703702449798584
vn -0.7071067690849304 -0.27060115337371826 0.6532801985740662
vn -0.7071067690849304 -0.5000026226043701 0.4999973475933075
vn 0.6215396523475647 -0.7408746480941772 0.2545449733734131
vn 0.49044069647789 -0.7203699946403503 -0.49044370651245117
vn 0.7071071863174438 -0.7071064114570618 -2.7571370964096786e-8
vn 0.09175244718790054 -0.9082480669021606 -0.4082484543323517
vn -0.7071061730384827 -0.7071073651313782 0.000004676298885897268
vn -0.5773496031761169 -0.5773506164550781 -0.5773506164550781
vn 0.5773509740829468 -0.5773499011993408 -0.5773499011993408
vn 0.7071071863174438 -0.7071064114570618 -2.7571370964096786e-8
vn -0.7071071863174438 -0.06930706650018692 -0.7037016153335571
vn -0.7071070671081543 -0.7071064710617065 -8.505003279424272e-7
vn -0.7071067690849304 -0.27060121297836304 -0.6532801985740662
vn 0.6001191139221191 -0.5288835763931274 0.6001160144805908
vn 0.47590720653533936 0.7524710297584534 0.4553017020225525
vn 0.7280484437942505 -0.6855257153511047 0
vn 0.786777675151825 0.6172364354133606 1.1657304099799148e-7
vn 2.696889112030476e-7 -0.6854974627494812 0.7280750274658203
vn -2.0012595314256032e-7 0.639884352684021 0.7684712409973145
vn 0.6001191139221191 -0.5288835763931274 0.6001160144805908
vn 0.47590720653533936 0.7524710297584534 0.4553017020225525
vn -0.7071067690849304 -0.7071067690849304 0
vn -0.7071067690849304 -0.6532809734344482 -0.27059927582740784
vn -0.09175097942352295 -0.9082483053207397 0.40824827551841736
vn 0.7071071863174438 -0.7071064114570618 -2.7571370964096786e-8
vn 0.5773507952690125 -0.5773500204086304 0.5773500204086304
vn -0.5773497819900513 -0.5773504972457886 0.5773504972457886
vn -0.7071062922477722 -0.7071072459220886 3.255310332406225e-7
vn -0.7071061730384827 -0.7071073651313782 0.000004676298885897268
vn 7.164962880779058e-7 -0.9999999403953552 0.0000032871462281036656
vn 0.49044069647789 -0.7203699946403503 -0.49044370651245117
vn 0.7071071863174438 -0.7071064114570618 -2.7571370964096786e-8
vn 7.164962880779058e-7 -0.9999999403953552 0.0000032871462281036656
vn -0.7071067690849304 -0.06930706650018692 -0.7037020325660706
vn 0.5627723336219788 -0.8266119956970215 -2.5648233759056893e-7
vn -0.4904416501522064 -0.720368504524231 0.4904448986053467
vn -0.4904397130012512 -0.7203704714775085 0.4904439449310303
vn 0.49044138193130493 -0.7203698754310608 0.4904431402683258
vn -0.6257288455963135 -0.7800406813621521 -0.0000014756647033209447
vn -0.4904397130012512 -0.7203704714775085 0.4904439449310303
vn -0.4904416501522064 -0.720368504524231 0.4904448986053467
vn -0.6257317662239075 -0.7800382971763611 -0.000002111001094817766
vn -0.625730037689209 -0.7800397276878357 0.000001502598138358735
vn -0.7071062922477722 -0.7071072459220886 3.255310332406225e-7
vn 0.4904434382915497 -0.7203684449195862 -0.4904431998729706
vn -0.49044176936149597 -0.7203693985939026 -0.49044349789619446
vn -0.49044203758239746 -0.720369815826416 -0.4904426336288452
vn -0.49044176936149597 -0.7203693985939026 -0.49044349789619446
vn -0.6257283687591553 -0.7800410389900208 -0.0000011583200603126897
vn -0.49044203758239746 -0.720369815826416 -0.4904426336288452
vn -0.7071062922477722 -0.7071072459220886 3.255310332406225e-7
vn -0.7071070671081543 -0.7071064710617065 -8.505003279424272e-7
vn -0.7071070671081543 -0.7071064710617065 -8.505003279424272e-7
vn -0.7071061730384827 -0.7071073651313782 0.000004676298885897268
vn -0.7071067690849304 -0.5000026226043701 -0.4999973475933075
vn -0.7071062922477722 -0.7071072459220886 3.255310332406225e-7
vn -0.7071067690849304 -0.6532809138298035 0.2705993950366974
vn -0.7071067690849304 -0.06930706650018692 0.7037020325660706
vn -0.7071067690849304 -0.27060121297836304 0.6532801985740662
vn 0.4904434382915497 -0.7203684449195862 -0.4904431998729706
vn -0.7071067690849304 -0.5000025033950806 0.49999749660491943
vn 8.39505560179532e-7 -0.7071067690849304 -0.7071067690849304
vn 6.20504124526633e-7 -0.7071067690849304 0.7071067690849304
vn 6.322026706584438e-7 -0.9999999403953552 2.10689279356302e-7
vn 6.322026706584438e-7 -0.9999999403953552 2.10689279356302e-7
vn 0.6001202464103699 -0.5288811326026917 -0.600117027759552
vn 0.7280484437942505 -0.6855257153511047 -2.61731855744074e-7
vn 0.47590526938438416 0.7524720430374146 -0.45530208945274353
vn 0.786777913570404 0.6172361373901367 7.94433532291805e-8
vn 2.6968808697347413e-7 -0.6854953169822693 -0.7280770540237427
vn 0.6001202464103699 -0.5288811326026917 -0.600117027759552
vn -2.0012535628666228e-7 0.6398823857307434 -0.7684728503227234
vn 0.47590526938438416 0.7524720430374146 -0.45530208945274353
vn 0.0000025856802494672593 -1 5.171360726308194e-7
vn 0.49044138193130493 -0.7203698754310608 0.4904431402683258
vn -0.4904397130012512 -0.7203704714775085 0.4904439449310303
vn -0.08539026975631714 -0.947037398815155 -0.3095618784427643
vn -0.625730037689209 -0.7800397276878357 0.000001502598138358735
vn 0.4904434382915497 -0.7203684449195862 -0.4904431998729706
vn 0.5627739429473877 -0.8266108632087708 -3.419763672241061e-8
vn -0.49044176936149597 -0.7203693985939026 -0.49044349789619446
vn -0.6257288455963135 -0.7800406813621521 -0.0000014756647033209447
vn 0.7820799946784973 0.6231780648231506 1.2383378589220229e-7
vn 0.4717883765697479 0.7574253082275391 0.451356440782547
vn 0.7031258940696716 0.10584117472171783 0.7031440734863281
vn 0.6001202464103699 -0.5288811326026917 -0.600117027759552
vn 2.6968808697347413e-7 -0.6854953169822693 -0.7280770540237427
vn 3.154791272663715e-7 -0.8011766672134399 -0.5984278917312622
vn 0.4456791281700134 -0.7733172178268433 -0.45094409584999084
vn 0.5834457278251648 -0.8121521472930908 -1.895765961990037e-7
vn 0.6001202464103699 -0.5288811326026917 -0.600117027759552
vn 0.4456791281700134 -0.7733172178268433 -0.45094409584999084
vn 0.7280484437942505 -0.6855257153511047 -2.61731855744074e-7
vn 0.3290553689002991 -0.7056483626365662 -0.627521276473999
vn 3.115302433798206e-7 -0.7886848449707031 -0.6147976517677307
vn 0.44073551893234253 -0.444424569606781 -0.7798967957496643
vn 0.726504921913147 -0.5809951424598694 -0.3669266700744629
vn 0.4677615165710449 -0.7695977091789246 -0.4346475601196289
vn 0.44073551893234253 -0.444424569606781 -0.7798967957496643
vn 0.634580671787262 -0.40291765332221985 -0.6595185399055481
vn 0.6042846441268921 -0.7967355847358704 0.007244373206049204
vn -0.000011198504580534063 0.6455242037773132 -0.763739824295044
vn 0.47590526938438416 0.7524720430374146 -0.45530208945274353
vn 0.47179481387138367 0.7574154138565063 -0.4513663053512573
vn -2.0012535628666228e-7 0.6398823857307434 -0.7684728503227234
vn 0.47179481387138367 0.7574154138565063 -0.4513663053512573
vn 0.786777913570404 0.6172361373901367 7.94433532291805e-8
vn 0.7820802330970764 0.6231777667999268 7.821265768370722e-8
vn 0.47590526938438416 0.7524720430374146 -0.45530208945274353
vn -1.6643284084238985e-8 0.07482048124074936 -0.9971970319747925
vn 0.7031274437904358 0.1057993695139885 -0.7031488418579102
vn 0.7031274437904358 0.1057993695139885 -0.7031488418579102
vn 0.9971667528152466 0.07522288709878922 7.548957903225073e-9
vn 3.946671824905934e-7 -0.9991520643234253 -0.04117227718234062
vn 0.641910970211029 -0.7664417028427124 -0.022748200222849846
vn 0.3290553689002991 -0.7056483626365662 -0.627521276473999
vn 3.115302433798206e-7 -0.7886848449707031 -0.6147976517677307
vn 0.8140593767166138 -0.5807814598083496 -0.0004753585089929402
vn 0.726504921913147 -0.5809951424598694 -0.3669266700744629
vn 0.01817331276834011 -0.3099617063999176 -0.9505753517150879
vn 0.011401353403925896 -0.9276179671287537 -0.37335625290870667
vn 0.4677615165710449 -0.7695977091789246 -0.4346475601196289
vn 0.634580671787262 -0.40291765332221985 -0.6595185399055481
vn 0.0050980038940906525 -0.9999260306358337 0.011042320169508457
vn 0.6042846441268921 -0.7967355847358704 0.007244373206049204
vn -0.03934311866760254 -0.8116995096206665 -0.5827487111091614
vn 0.0002681087062228471 -0.23772422969341278 -0.9713326692581177
vn -0.0484103187918663 -0.9987666606903076 0.011029671877622604
vn 0.6001191139221191 -0.5288835763931274 0.6001160144805908
vn 3.154795820137224e-7 -0.8011766672134399 0.5984278917312622
vn 2.696889112030476e-7 -0.6854974627494812 0.7280750274658203
vn 0.44567978382110596 -0.7733163237571716 0.4509449899196625
vn 0.583450436592102 -0.8121487498283386 0
vn 0.44567978382110596 -0.7733163237571716 0.4509449899196625
vn 0.6001191139221191 -0.5288835763931274 0.6001160144805908
vn 0.7280484437942505 -0.6855257153511047 0
vn 0.32901886105537415 -0.7055957317352295 0.6275995969772339
vn 3.1149829737842083e-7 -0.7885990738868713 0.6149077415466309
vn 0.4407363831996918 -0.4444230794906616 0.779897153377533
vn 0.726479709148407 -0.580998420715332 0.3669714331626892
vn 0.467728853225708 -0.7695612907409668 0.43474721908569336
vn 0.6345782279968262 -0.40293747186660767 0.6595088243484497
vn 0.4407363831996918 -0.4444230794906616 0.779897153377533
vn 0.6043106317520142 -0.796717643737793 -0.007045554928481579
vn 1.462041581135054e-7 0.6455252766609192 0.7637389302253723
vn 0.4717883765697479 0.7574253082275391 0.451356440782547
vn 0.47590720653533936 0.7524710297584534 0.4553017020225525
vn -2.0012595314256032e-7 0.639884352684021 0.7684712409973145
vn 0.786777675151825 0.6172364354133606 1.1657304099799148e-7
vn 0.47590720653533936 0.7524710297584534 0.4553017020225525
vn 0 0.07488011568784714 0.9971925616264343
vn 0.7031258940696716 0.10584117472171783 0.7031440734863281
vn 0.9971667528152466 0.07522287219762802 1.3004536114635812e-8
vn 0.32901886105537415 -0.7055957317352295 0.6275995969772339
vn 3.1149829737842083e-7 -0.7885990738868713 0.6149077415466309
vn 0.726479709148407 -0.580998420715332 0.3669714331626892
vn 0.018176008015871048 -0.31000739336013794 0.9505603909492493
vn 0.467728853225708 -0.7695612907409668 0.43474721908569336
vn 0.011401251889765263 -0.9275381565093994 0.3735545575618744
vn 0.6345782279968262 -0.40293747186660767 0.6595088243484497
vn 0.6043106317520142 -0.796717643737793 -0.007045554928481579
vn 0.005098073277622461 -0.9999293684959412 -0.010737297125160694
vn -0.03933953493833542 -0.8116248250007629 0.5828529596328735
vn 0.00026815084856934845 -0.23776081204414368 0.9713236689567566
vn -0.048410527408123016 -0.9987699389457703 -0.010724997147917747
vt 1.1916277408599854 0.9600470066070557
vt 1.8083728551864624 1.9989964962005615
vt 1.1916277408599854 1.9989986419677734
vt 0.001499176025390625 1.9989964962005615
vt 1.0007495880126953 0.9999995827674866
vt 1.0007495880126953 1.99899822473526
vt 2 1.9989999532699585
vt 1.000749945640564 1
vt 1.0007498264312744 1.9989985823631287
vt 0.0014998018741607666 1.999000906944275
vt 2 1.9989962577819824
vt 1.500000238418579 0.9999977350234985
vt 1.5000001192092896 0.0009990930557250977
vt 2.689051628112793 0.000999152660369873
vt 0.3109484910964966 0.0009990334510803223
vt 0.0014998018741607666 0.9600470066070557
vt 0.0014998018741607666 0.0009992122650146484
vt 1.0007498264312744 0.4805230498313904
vt 2 0.0009990930557250977
vt 0.3109486699104309 1.9989962577819824
vt 1.1916277408599854 0.0009990334510803223
vt 1.8083728551864624 0.9600470066070557
vt 1.808372974395752 0.0009990930557250977
vt 2 0.0009992718696594238
vt 2 0.9600470662117004
vt 1.0007495880126953 0.48052310943603516
vt 0.001499176025390625 0.000999152660369873
vt 2.689051628112793 1.9989964962005615
vt 1.5000001192092896 1.998996376991272
vt 1.000749945640564 0.000999152660369873
vt 0.001499265432357788 1.9989962577819824
vt 0.001499086618423462 0.0009990930557250977
vt 2.9985013008117676 0.000999152660369873
vt 2.9985013008117676 1.9989964962005615
vt 1.0007495880126953 0.0009992122650146484
vt 11.194764137268066 14.526437759399414
vt 11.194764137268066 15.424922943115234
vt 11.04671859741211 14.526437759399414
vt 11.194764137268066 13.62795352935791
vt 8.327127456665039 14.526437759399414
vt 8.327126502990723 13.62795352935791
vt 8.475172996520996 14.526437759399414
vt 8.327127456665039 15.424922943115234
vt 10.898672103881836 14.526437759399414
vt 10.898672103881836 13.62795352935791
vt 10.477339744567871 14.526437759399414
vt 10.898672103881836 15.424922943115234
vt 9.760945320129395 14.526437759399414
vt 8.623218536376953 14.526437759399414
vt 9.192081451416016 14.07719612121582
vt 8.623218536376953 13.62795352935791
vt 9.465883255004883 13.62795352935791
vt 10.18227767944336 14.526437759399414
vt 8.62321949005127 15.424922943115234
vt 10.056007385253906 13.62795352935791
vt 10.329809188842773 14.975680351257324
vt 9.760946273803711 15.424922943115234
vt 9.192082405090332 14.975680351257324
vt 4.0579118728637695 1.998999834060669
vt 4.0579118728637695 0.9600468873977661
vt 3.582477569580078 0.9600468873977661
vt 3.582477569580078 1.998999834060669
vt 0.53734290599823 1.9990010261535645
vt 0.53734290599823 0.9600469470024109
vt 0.06190824508666992 0.9600470066070557
vt 0.53734290599823 0.0009990930557250977
vt 0.06190824508666992 0.0009990930557250977
vt 4.0579118728637695 0.0009989738464355469
vt 3.582477569580078 0.0009990334510803223
vt 0.06190824508666992 1.9990010261535645
vt 0.949999988079071 1.0640052556991577
vt 1 1.4734991788864136
vt 0.8999999761581421 2.004366874694824
vt 1.110866665840149 2.8339316844940186
vt 1.1108665466308594 1.499999761581421
vt 1.0489544868469238 1.4855637550354004
vt 0.5000001192092896 0.6291239857673645
vt 0.7332038283348083 0.5812727808952332
vt 1.1093906164169312 0.9995003938674927
vt 1.063003420829773 0.24106353521347046
vt 0.9309043288230896 0.44500404596328735
vt -0.10939056426286697 0.999496340751648
vt 0.2667964696884155 0.5812728404998779
vt 0.6965393424034119 1.4999999403953552
vt 0.6965395212173462 2.9985013008117676
vt 0.9870425462722778 2.8628034591674805
vt -0.10939056426286697 0.0004996657371520996
vt -0.06300334632396698 0.24106383323669434
vt 0.06909593194723129 0.44500434398651123
vt 0.8417908549308777 1.4321510195732117
vt 0.9870423078536987 0.137195885181427
vt 0.6965391635894775 0.0014986395835876465
vt 0.05207453668117523 1.5000001192092896
vt 0.10364937782287598 0.0014993548393249512
vt 0.0004995465278625488 0.0014994144439697266
vt 0.000499725341796875 2.9985010623931885
vt 0.10364952683448792 2.9985008239746094
vt 1.1093906164169312 0.000499427318572998
vt 1.1093906164169312 0.9994992017745972
vt 1.063003420829773 0.24106383323669434
vt 0.13300059735774994 0.9995004534721375
vt 0.13300059735774994 0.0004996061325073242
vt 0.8669994473457336 0.9995004534721375
vt 0.8669994473457336 0.0004996061325073242
vt 0.13300059735774994 0.9995003938674927
vt 0.13300059735774994 0.0004994869232177734
vt 0.8669994473457336 0.9995004534721375
vt 0.8669994473457336 0.0004996061325073242
vt 0.5000002980232239 0.629124641418457
vt 0.7332038283348083 0.5812734365463257
vt 0.9479254484176636 1.4999994039535522
vt 0.896350622177124 2.998500347137451
vt 0.9995004534721375 2.998500347137451
vt 0.9995002746582031 0.0014982819557189941
vt 0.8963505029678345 0.0014984607696533203
vt 0.8999999761581421 0.006365597248077393
vt 0.8999999761581421 1.0053663849830627
vt 1 1.4734992980957031
vt 0.8999999761581421 2.0043671131134033
vt 0.10364945232868195 1.5000001192092896
vt 1.1093904972076416 0.0004994869232177734
vt 0.9870424270629883 1.4999996423721313
vt 1 0.12364357709884644
vt 1.1131532192230225 0.14973855018615723
vt 1.1131532192230225 1.4474048614501953
vt 1.1184325218200684 1.888625979423523
vt 1.118432641029358 2.8339319229125977
vt 1 2.8628039360046387
vt 1 1.8886263370513916
vt 1.1184285879135132 1.1113731861114502
vt 0.8999999761581421 0.006365060806274414
vt 1.1131532192230225 1.4474049806594849
vt 1.1131532192230225 0.14973914623260498
vt 1 0.12364405393600464
vt 1.1184364557266235 0.16606831550598145
vt 1 1.1113736629486084
vt 1 0.13719618320465088
vt 0.8980274796485901 2.9985013008117676
vt 0.8980290293693542 1.8886263370513916
vt 0.8980294466018677 1.1113736629486084
vt 0.8980310559272766 0.0014986395835876465
vt 0.9309042692184448 0.44500458240509033
vt -0.10939056426286697 0.999500572681427
vt 0.2667964696884155 0.5812734961509705
vt -0.10939060151576996 0.0004996657371520996
vt -0.06300342082977295 0.24106407165527344
vt 1.1108664274215698 0.16606783866882324
vt 0.06909604370594025 0.44500482082366943
vt 0.0004996359348297119 1.500000238418579
vt 0.9995003938674927 1.4999992847442627
vt 0.8999999761581421 1.0053659677505493
vt 0.8963505625724792 1.4999994039535522
vt 0.8884615898132324 0.9995004534721375
vt 0.11153845489025116 0.9995003938674927
vt 0.8884615898132324 0.0004996657371520996
vt 0.11153845489025116 0.0004996061325073242
vt 0.8884615898132324 0.9995003938674927
vt 0.11153845489025116 0.9995004534721375
vt 0.8884615898132324 0.0004996061325073242
vt 0.11153845489025116 0.0004996657371520996
vt 1.4999994039535522 2.499999761581421
vt 0.001499086618423462 4.997502326965332
vt 2.998500108718872 4.997501850128174
vt 1.4999994039535522 1.6150580644607544
vt 2.9985015392303467 1.7723788022994995
vt 0.0014987289905548096 0.002497553825378418
vt 0.0014989078044891357 2.4999998807907104
vt 2.9984989166259766 0.002497434616088867
vt 2.998500108718872 3.22761869430542
vt 1.00141441822052 0.5
vt 0.015444397926330566 0.5
vt 0.020383715629577637 0
vt 0.5462943315505981 0
vt 0.0004995465278625488 0
vt 0.0004996359348297119 0.11644190549850464
vt 0.8265606760978699 0.38214290142059326
vt 0.001739591360092163 0.1637488603591919
vt 0.5506724715232849 0.0004995465278625488
vt 0.8685058951377869 0.16125571727752686
vt 0.0004995167255401611 0.002081751823425293
vt 0.5441105961799622 0.5437406301498413
vt 0.0004991888999938965 0.5437401533126831
vt 1.003446102142334 1.0019155740737915
vt 0.7209956645965576 1.0019155740737915
vt 0.5632108449935913 0.38064372539520264
vt 0.9995005130767822 0.9984756708145142
vt 0.6431374549865723 0.9995005130767822
vt 0.001932770013809204 0.3935889005661011
vt 0.0004990994930267334 0.5
vt 0.7307606935501099 1.0169082880020142
vt 0.9816528558731079 0.5
vt 0.020235031843185425 1.0169082880020142
vt 0.990963339805603 0.5
vt 0.09440629184246063 1.0169082880020142
vt 0.07384379208087921 0.5
vt 0.7401939630508423 1.0169082880020142
vt 0.000500023365020752 0
vt 0.9994984269142151 0
vt 0.986024022102356 0
vt 0.07384379208087921 0
vt 1.5 0.004188418388366699
vt 1.5 0.5389999747276306
vt 0.0009989738464355469 0.5389999747276306
vt 0.0013622045516967773 0.004188418388366699
vt 1.5 1
vt 0.05598592758178711 1
vt 0.9166205525398254 0.9938656091690063
vt 0.9166205525398254 0.3880000114440918
vt 0.0009992718696594238 0.3880000114440918
vt 0.0829048752784729 0.9938656091690063
vt 0.9166207313537598 0
vt 0.002016127109527588 0
vt 1.999000072479248 0.3880000114440918
vt 1.999000072479248 0.9995004534721375
vt 1.999000072479248 0
vt 0.4460393190383911 0.005160093307495117
vt 0.9985077977180481 0.40591686964035034
vt 0.9927836060523987 0.0004994869232177734
vt 0.1710098385810852 0.4129711985588074
vt 0.9982607960700989 0.4001426696777344
vt 0.12943872809410095 0.39757239818573
vt 0.44227904081344604 0.0004997849464416504
vt 0.9995002746582031 0.002147674560546875
vt 0.45457154512405396 0.5575445890426636
vt 0.9991278052330017 0.5529020428657532
vt 0.00012683868408203125 0.9836406707763672
vt 0.2836880683898926 0.9995003938674927
vt 0.4299177825450897 0.5518614053726196
vt 0.35124287009239197 0.9995007514953613
vt 0.0004992485046386719 0.9984630346298218
vt 0.9980687499046326 0.5648791790008545
vt 0.0005016624927520752 0.5
vt 0.981654942035675 0.5
vt 0.7307621240615845 1.0169082880020142
vt 0.020236819982528687 1.0169082880020142
vt 0.9982943534851074 1.0169082880020142
vt 0.30847129225730896 1.0169082880020142
vt 0.0005016624927520752 0
vt 0.999500036239624 0
vt 1.00141441822052 0
vt 3 0.5389999747276306
vt 3 0.004188418388366699
vt 3 1
vt 0.9166216850280762 0.993864893913269
vt 0.0010009407997131348 0.3880000114440918
vt 0.9166216850280762 0.3880000114440918
vt 0.08290624618530273 0.993864893913269
vt 0.002017974853515625 0
vt 0.9166223406791687 0
vt 1.9990007877349854 0.3880000114440918
vt 1.9990007877349854 0.9994997382164001
vt 1.9990010261535645 0
g Garrison_Left0
s 1
f 1/1/1 2/2/2 3/3/3
f 4/4/4 5/5/5 6/6/6
f 6/6/6 5/5/5 7/7/7
f 8/8/8 9/9/9 10/10/10
f 8/8/8 11/11/11 9/9/9
f 12/12/12 13/13/13 14/14/14
f 12/12/12 15/15/15 13/13/13
f 16/16/16 17/17/17 18/18/18
f 19/19/19 11/11/11 8/8/8
f 20/20/20 15/15/15 12/12/12
f 1/1/1 21/21/21 22/22/22
f 22/22/22 2/2/2 1/1/1
f 18/18/18 8/8/8 16/16/16
f 19/19/19 8/8/8 18/18/18
f 22/22/22 21/21/21 23/23/23
f 24/24/24 25/25/25 26/26/26
f 7/7/7 5/5/5 25/25/25
f 4/4/4 27/27/27 5/5/5
f 14/14/14 28/28/28 12/12/12
f 12/12/12 28/28/28 29/29/29
f 18/18/18 17/17/17 30/30/30
f 18/18/18 30/30/30 19/19/19
f 12/12/12 29/29/29 20/20/20
f 8/8/8 10/10/10 16/16/16
f 31/31/31 32/32/32 15/15/15
f 15/15/15 20/20/20 31/31/31
f 33/33/33 34/34/34 28/28/28
f 28/28/28 14/14/14 33/33/33
f 35/35/35 26/26/26 27/27/27
f 24/24/24 26/26/26 35/35/35
f 5/5/5 26/26/26 25/25/25
f 5/5/5 27/27/27 26/26/26
g Garrison_Left1
s 1
f 36/36/36 37/37/37 38/38/38
f 39/39/39 36/36/36 38/38/38
f 40/40/40 41/41/41 42/42/42
f 43/43/43 40/40/40 42/42/42
f 44/44/44 45/45/45 38/38/38
f 46/46/46 44/44/44 47/47/47
f 46/46/46 45/45/45 44/44/44
f 48/48/48 49/49/49 50/50/50
f 50/50/50 49/49/49 51/51/51
f 50/50/50 51/51/51 52/52/52
f 48/48/48 50/50/50 52/52/52
f 52/52/52 46/46/46 53/53/53
f 53/53/53 46/46/46 47/47/47
f 53/53/53 48/48/48 52/52/52
f 49/49/49 54/54/54 42/42/42
f 51/51/51 49/49/49 42/42/42
f 38/38/38 37/37/37 47/47/47
f 38/38/38 45/45/45 39/39/39
f 42/42/42 41/41/41 51/51/51
f 42/42/42 54/54/54 43/43/43
f 52/52/52 55/55/55 46/46/46
f 55/55/55 45/45/45 46/46/46
f 47/47/47 44/44/44 38/38/38
f 56/56/56 48/48/48 53/53/53
f 47/47/47 56/56/56 53/53/53
f 47/47/47 57/57/57 56/56/56
f 56/56/56 57/57/57 48/48/48
f 57/57/57 58/58/58 48/48/48
f 57/57/57 54/54/54 58/58/58
f 58/58/58 54/54/54 49/49/49
f 48/48/48 58/58/58 49/49/49
g Garrison_Left2
s 1
f 59/59/59 60/60/60 61/61/61
f 61/61/61 62/62/62 59/59/59
f 63/63/63 64/64/64 65/65/65
f 64/64/64 66/66/66 67/67/67
f 67/67/67 65/65/65 64/64/64
f 60/60/60 68/68/68 69/69/69
f 69/69/69 61/61/61 60/60/60
f 65/65/65 70/70/70 63/63/63
g Garrison_Left3
s 1
f 71/71/71 72/72/72 73/73/73
f 74/74/74 75/75/75 76/76/76
f 77/77/77 78/78/78 79/79/79
f 80/80/80 79/79/79 81/81/81
f 78/78/78 81/81/81 79/79/79
f 77/77/77 82/82/82 83/83/83
f 84/84/84 85/85/85 86/86/86
f 87/87/87 88/88/88 82/82/82
f 83/83/83 82/82/82 89/89/89
f 90/90/90 91/91/91 92/92/92
f 90/90/90 84/84/84 86/86/86
f 92/92/92 84/84/84 90/90/90
f 88/88/88 89/89/89 82/82/82
f 79/79/79 82/82/82 77/77/77
f 93/93/93 94/94/94 95/95/95
f 93/93/93 96/96/96 97/97/97
f 98/98/98 99/99/99 100/100/100
f 101/101/101 102/102/102 103/103/103
f 104/104/104 103/103/103 102/102/102
f 105/105/105 106/106/106 107/107/107
f 108/108/108 107/107/107 106/106/106
f 109/109/109 110/110/110 99/99/99
f 111/111/111 112/112/112 113/113/113
f 111/111/111 114/114/114 115/115/115
f 116/116/116 117/117/117 118/118/118
f 117/117/117 119/119/119 118/118/118
f 97/97/97 120/120/120 93/93/93
f 120/120/120 94/94/94 93/93/93
f 121/121/121 79/79/79 80/80/80
f 76/76/76 122/122/122 74/74/74
f 91/91/91 122/122/122 76/76/76
f 122/122/122 91/91/91 90/90/90
f 86/86/86 122/122/122 90/90/90
f 72/72/72 123/123/123 124/124/124
f 124/124/124 125/125/125 72/72/72
f 126/126/126 127/127/127 128/128/128
f 128/128/128 129/129/129 126/126/126
f 130/130/130 126/126/126 129/129/129
f 71/71/71 131/131/131 123/123/123
f 132/132/132 133/133/133 134/134/134
f 134/134/134 118/118/118 132/132/132
f 135/135/135 130/130/130 136/136/136
f 136/136/136 137/137/137 135/135/135
f 129/129/129 128/128/128 138/138/138
f 138/138/138 139/139/139 129/129/129
f 137/137/137 136/136/136 140/140/140
f 140/140/140 141/141/141 137/137/137
f 136/136/136 129/129/129 139/139/139
f 139/139/139 140/140/140 136/136/136
f 100/100/100 99/99/99 142/142/142
f 110/110/110 142/142/142 99/99/99
f 109/109/109 143/143/143 144/144/144
f 145/145/145 146/146/146 143/143/143
f 75/75/75 147/147/147 91/91/91
f 144/144/144 143/143/143 148/148/148
f 146/146/146 148/148/148 143/143/143
f 95/95/95 149/149/149 93/93/93
f 149/149/149 96/96/96 93/93/93
f 99/99/99 143/143/143 109/109/109
f 113/113/113 150/150/150 111/111/111
f 150/150/150 114/114/114 111/111/111
f 76/76/76 75/75/75 91/91/91
f 151/151/151 131/131/131 71/71/71
f 73/73/73 151/151/151 71/71/71
f 152/152/152 112/112/112 111/111/111
f 118/118/118 134/134/134 116/116/116
f 153/153/153 154/154/154 155/155/155
f 156/156/156 155/155/155 154/154/154
f 157/157/157 158/158/158 159/159/159
f 160/160/160 159/159/159 158/158/158
f 115/115/115 152/152/152 111/111/111
f 122/122/122 86/86/86 74/74/74
f 129/129/129 136/136/136 130/130/130
f 123/123/123 72/72/72 71/71/71
g Garrison_Left4
s 1
f 161/161/161 162/162/162 163/163/163
f 164/164/164 165/165/165 166/166/166
f 167/167/167 162/162/162 161/161/161
f 166/166/166 167/167/167 161/161/161
f 165/165/165 168/168/168 166/166/166
f 169/169/169 165/165/165 164/164/164
f 164/164/164 161/161/161 169/169/169
f 166/166/166 161/161/161 164/164/164
f 161/161/161 163/163/163 169/169/169
g Garrison_Left5
s 1
f 170/170/170 171/171/171 172/172/172
f 173/173/173 174/174/174 175/175/175
f 175/175/175 176/176/176 173/173/173
f 177/177/177 178/178/178 179/179/179
f 178/178/178 177/177/177 180/180/180
f 181/181/181 175/175/175 182/182/182
f 175/175/175 181/181/181 176/176/176
f 183/183/183 181/181/181 184/184/184
f 181/181/181 183/183/183 176/176/176
f 185/185/185 186/186/186 187/187/187
f 186/186/186 185/185/185 179/179/179
f 188/188/188 179/179/179 185/185/185
f 179/179/179 188/188/188 177/177/177
f 189/189/189 190/190/190 191/191/191
f 190/190/190 189/189/189 192/192/192
f 193/193/193 194/194/194 195/195/195
f 194/194/194 193/193/193 196/196/196
f 197/197/197 191/191/191 198/198/198
f 191/191/191 197/197/197 189/189/189
f 199/199/199 195/195/195 200/200/200
f 195/195/195 199/199/199 193/193/193
f 201/201/201 202/202/202 203/203/203
f 203/203/203 204/204/204 201/201/201
f 202/202/202 205/205/205 206/206/206
f 206/206/206 203/203/203 202/202/202
f 207/207/207 208/208/208 209/209/209
f 209/209/209 210/210/210 207/207/207
f 208/208/208 211/211/211 212/212/212
f 212/212/212 209/209/209 208/208/208
f 207/207/207 213/213/213 208/208/208
f 213/213/213 207/207/207 214/214/214
f 208/208/208 215/215/215 211/211/211
f 215/215/215 208/208/208 213/213/213
f 216/216/216 217/217/217 218/218/218
f 217/217/217 216/216/216 219/219/219
f 220/220/220 221/221/221 222/222/222
f 222/222/222 223/223/223 220/220/220
f 224/224/224 225/225/225 217/217/217
f 217/217/217 219/219/219 224/224/224
f 226/226/226 227/227/227 224/224/224
f 224/224/224 219/219/219 226/226/226
f 228/228/228 229/229/229 230/230/230
f 230/230/230 221/221/221 228/228/228
f 231/231/231 228/228/228 221/221/221
f 221/221/221 220/220/220 231/231/231
f 232/232/232 233/233/233 234/234/234
f 234/234/234 235/235/235 232/232/232
f 171/171/171 170/170/170 236/236/236
f 236/236/236 237/237/237 171/171/171
f 238/238/238 239/239/239 233/233/233
f 233/233/233 232/232/232 238/238/238
f 172/172/172 240/240/240 170/170/170
f 201/201/201 241/241/241 202/202/202
f 241/241/241 201/201/201 242/242/242
f 202/202/202 243/243/243 205/205/205
f 243/243/243 202/202/202 241/241/241
f 244/244/244 245/245/245 246/246/246
f 245/245/245 244/244/244 247/247/247
f 246/246/246 248/248/248 249/249/249
f 248/248/248 246/246/246 245/245/245
f 244/244/244 246/246/246 250/250/250
f 250/250/250 251/251/251 244/244/244
f 246/246/246 249/249/249 252/252/252
f 252/252/252 250/250/250 246/246/246
