# Exported using wow.export v0.2.19
o 21138_TreeFacades09.obj
v -69.54715728759766 18.539859771728516 -175.88844299316406
v -69.1355972290039 18.539859771728516 -176.21580505371094
v -69.1355972290039 18.084096908569336 -176.21580505371094
v -69.1355972290039 18.539859771728516 -176.21580505371094
v -68.8082275390625 18.539859771728516 -175.8042449951172
v -68.8082275390625 18.084096908569336 -175.8042449951172
v -69.1355972290039 18.084096908569336 -176.21580505371094
v -68.8082275390625 18.539859771728516 -175.8042449951172
v -69.21978759765625 18.539859771728516 -175.4768829345703
v -69.21978759765625 18.084096908569336 -175.4768829345703
v -68.8082275390625 18.084096908569336 -175.8042449951172
v -69.21978759765625 18.539859771728516 -175.4768829345703
v -69.54715728759766 18.539859771728516 -175.88844299316406
v -69.54715728759766 18.084096908569336 -175.88844299316406
v -69.21978759765625 18.084096908569336 -175.4768829345703
v -68.8082275390625 18.539859771728516 -175.8042449951172
v -69.1355972290039 18.539859771728516 -176.21580505371094
v -69.54715728759766 18.539859771728516 -175.88844299316406
v -69.21978759765625 18.539859771728516 -175.4768829345703
v -68.8082275390625 18.084096908569336 -175.8042449951172
v -69.21978759765625 18.084096908569336 -175.4768829345703
v -69.54715728759766 18.084096908569336 -175.88844299316406
v -69.1355972290039 18.084096908569336 -176.21580505371094
v -31.407663345336914 10.71200942993164 -138.91436767578125
v -31.71578598022461 10.71200942993164 -139.03265380859375
v -31.71578598022461 10.42597484588623 -139.03265380859375
v -31.407663345336914 10.42597484588623 -138.91436767578125
v -31.71578598022461 10.71200942993164 -139.03265380859375
v -31.597511291503906 10.71200942993164 -139.3407745361328
v -31.597511291503906 10.42597484588623 -139.3407745361328
v -31.71578598022461 10.42597484588623 -139.03265380859375
v -31.597511291503906 10.71200942993164 -139.3407745361328
v -31.28938865661621 10.71200942993164 -139.2224884033203
v -31.28938865661621 10.42597484588623 -139.2224884033203
v -31.597511291503906 10.42597484588623 -139.3407745361328
v -31.28938865661621 10.71200942993164 -139.2224884033203
v -31.407663345336914 10.71200942993164 -138.91436767578125
v -31.407663345336914 10.42597484588623 -138.91436767578125
v -31.28938865661621 10.42597484588623 -139.2224884033203
v -31.597511291503906 10.71200942993164 -139.3407745361328
v -31.71578598022461 10.71200942993164 -139.03265380859375
v -31.407663345336914 10.71200942993164 -138.91436767578125
v -31.28938865661621 10.71200942993164 -139.2224884033203
v -31.597511291503906 10.42597484588623 -139.3407745361328
v -31.28938865661621 10.42597484588623 -139.2224884033203
v -31.407663345336914 10.42597484588623 -138.91436767578125
v -69.54715728759766 18.084096908569336 -175.88844299316406
v -31.71578598022461 10.42597484588623 -139.03265380859375
v -38.17402267456055 14.03611946105957 -124.65318298339844
v -38.5052490234375 14.03611946105957 -124.94622039794922
v -38.21220397949219 14.03611946105957 -125.27745056152344
v -34.06251907348633 16.101505279541016 -164.16659545898438
v -33.66545104980469 16.101505279541016 -164.6315155029297
v -33.66545104980469 15.571635246276855 -164.6315155029297
v -34.06251907348633 15.571635246276855 -164.16659545898438
v -33.66545104980469 16.101505279541016 -164.6315155029297
v -33.20054626464844 16.101505279541016 -164.2344512939453
v -33.20054626464844 15.571635246276855 -164.2344512939453
v -33.66545104980469 15.571635246276855 -164.6315155029297
v -33.20054626464844 16.101505279541016 -164.2344512939453
v -33.59761428833008 16.101505279541016 -163.76953125
v -33.59761428833008 15.571635246276855 -163.76953125
v -33.20054626464844 15.571635246276855 -164.2344512939453
v -33.66545104980469 16.101505279541016 -164.6315155029297
v -34.06251907348633 16.101505279541016 -164.16659545898438
v -33.59761428833008 16.101505279541016 -163.76953125
v -33.20054626464844 16.101505279541016 -164.2344512939453
v -33.66545104980469 15.571635246276855 -164.6315155029297
v -33.20054626464844 15.571635246276855 -164.2344512939453
v -33.59761428833008 15.571635246276855 -163.76953125
v -34.06251907348633 15.571635246276855 -164.16659545898438
v -38.17402267456055 14.41940689086914 -124.65318298339844
v -38.5052490234375 14.41940689086914 -124.94622039794922
v -38.5052490234375 14.03611946105957 -124.94622039794922
v -38.17402267456055 14.03611946105957 -124.65318298339844
v -38.5052490234375 14.41940689086914 -124.94622039794922
v -38.21220397949219 14.41940689086914 -125.27745056152344
v -38.21220397949219 14.03611946105957 -125.27745056152344
v -38.5052490234375 14.03611946105957 -124.94622039794922
v -38.21220397949219 14.41940689086914 -125.27745056152344
v -37.88097381591797 14.41940689086914 -124.98441314697266
v -37.88097381591797 14.03611946105957 -124.98441314697266
v -38.21220397949219 14.03611946105957 -125.27745056152344
v -37.88097381591797 14.41940689086914 -124.98441314697266
v -38.17402267456055 14.41940689086914 -124.65318298339844
v -38.17402267456055 14.03611946105957 -124.65318298339844
v -37.88097381591797 14.03611946105957 -124.98441314697266
v -38.21220397949219 14.41940689086914 -125.27745056152344
v -38.5052490234375 14.41940689086914 -124.94622039794922
v -38.17402267456055 14.41940689086914 -124.65318298339844
v -37.88097381591797 14.41940689086914 -124.98441314697266
v -37.88097381591797 14.03611946105957 -124.98441314697266
v -34.06251907348633 15.571635246276855 -164.16659545898438
v -33.59761428833008 15.571635246276855 -163.76953125
v -33.59761428833008 16.101505279541016 -163.76953125
v -34.06251907348633 16.101505279541016 -164.16659545898438
vn -0.6225097179412842 0 -0.7826120257377625
vn -0.6225097179412842 0 -0.7826120257377625
vn -0.6225097179412842 0 -0.7826120257377625
vn 0.7826107740402222 0 -0.6225113272666931
vn 0.7826107740402222 0 -0.6225113272666931
vn 0.7826107740402222 0 -0.6225113272666931
vn 0.7826107740402222 0 -0.6225113272666931
vn 0.6225097179412842 0 0.7826120257377625
vn 0.6225097179412842 0 0.7826120257377625
vn 0.6225097179412842 0 0.7826120257377625
vn 0.6225097179412842 0 0.7826120257377625
vn -0.7826107740402222 0 0.6225113272666931
vn -0.7826107740402222 0 0.6225113272666931
vn -0.7826107740402222 0 0.6225113272666931
vn -0.7826107740402222 0 0.6225113272666931
vn 0 1 0
vn 0 1 0
vn 0 1 0
vn 0 1 0
vn 0 -1 0
vn 0 -1 0
vn 0 -1 0
vn 0 -1 0
vn -0.35839176177978516 0 0.9335712790489197
vn -0.35839176177978516 0 0.9335712790489197
vn -0.35839176177978516 0 0.9335712790489197
vn -0.35839176177978516 0 0.9335712790489197
vn -0.9335802793502808 0 -0.3583683371543884
vn -0.9335802793502808 0 -0.3583683371543884
vn -0.9335802793502808 0 -0.3583683371543884
vn -0.9335802793502808 0 -0.3583683371543884
vn 0.35839176177978516 0 -0.9335712790489197
vn 0.35839176177978516 0 -0.9335712790489197
vn 0.35839176177978516 0 -0.9335712790489197
vn 0.35839176177978516 0 -0.9335712790489197
vn 0.9335802793502808 0 0.3583683371543884
vn 0.9335802793502808 0 0.3583683371543884
vn 0.9335802793502808 0 0.3583683371543884
vn 0.9335802793502808 0 0.3583683371543884
vn 0 1 0
vn 0 1 0
vn 0 1 0
vn 0 1 0
vn 0 -1 0
vn 0 -1 0
vn 0 -1 0
vn -0.6225097179412842 0 -0.7826120257377625
vn 0 -1 0
vn 0 -1 0
vn 0 -1 0
vn 0 -1 0
vn -0.7604094743728638 0 -0.6494439244270325
vn -0.7604094743728638 0 -0.6494439244270325
vn -0.7604094743728638 0 -0.6494439244270325
vn -0.7604094743728638 0 -0.6494439244270325
vn 0.6494494080543518 0 -0.7604048252105713
vn 0.6494494080543518 0 -0.7604048252105713
vn 0.6494494080543518 0 -0.7604048252105713
vn 0.6494494080543518 0 -0.7604048252105713
vn 0.7604094743728638 0 0.6494439244270325
vn 0.7604094743728638 0 0.6494439244270325
vn 0.7604094743728638 0 0.6494439244270325
vn 0.7604094743728638 0 0.6494439244270325
vn 0 1 0
vn 0 1 0
vn 0 1 0
vn 0 1 0
vn 0 -1 0
vn 0 -1 0
vn 0 -1 0
vn 0 -1 0
vn -0.662608802318573 0 0.7489656805992126
vn -0.662608802318573 0 0.7489656805992126
vn -0.662608802318573 0 0.7489656805992126
vn -0.662608802318573 0 0.7489656805992126
vn -0.748957633972168 0 -0.6626178622245789
vn -0.748957633972168 0 -0.6626178622245789
vn -0.748957633972168 0 -0.6626178622245789
vn -0.748957633972168 0 -0.6626178622245789
vn 0.662608802318573 0 -0.7489656805992126
vn 0.662608802318573 0 -0.7489656805992126
vn 0.662608802318573 0 -0.7489656805992126
vn 0.662608802318573 0 -0.7489656805992126
vn 0.748957633972168 0 0.6626178622245789
vn 0.748957633972168 0 0.6626178622245789
vn 0.748957633972168 0 0.6626178622245789
vn 0.748957633972168 0 0.6626178622245789
vn 0 1 0
vn 0 1 0
vn 0 1 0
vn 0 1 0
vn 0 -1 0
vn -0.6494494080543518 0 0.7604048252105713
vn -0.6494494080543518 0 0.7604048252105713
vn -0.6494494080543518 0 0.7604048252105713
vn -0.6494494080543518 0 0.7604048252105713
vt 0.9995002746582031 0.9995005130767822
vt 0.0004994869232177734 0.9995005130767822
vt 0.0004994869232177734 0.0004994869232177734
vt 0.9995002746582031 0.9995005130767822
vt 0.0004994869232177734 0.9995005130767822
vt 0.0004994869232177734 0.0004994869232177734
vt 0.9995002746582031 0.0004994869232177734
vt 0.9995002746582031 0.9995005130767822
vt 0.0004994869232177734 0.9995005130767822
vt 0.0004994869232177734 0.0004994869232177734
vt 0.9995002746582031 0.0004994869232177734
vt 0.9995002746582031 0.9995005130767822
vt 0.0004994869232177734 0.9995005130767822
vt 0.0004994869232177734 0.0004994869232177734
vt 0.9995002746582031 0.0004994869232177734
vt 0.9995005130767822 0.9995002746582031
vt 0.000499725341796875 0.9995005130767822
vt 0.0004994869232177734 0.000499725341796875
vt 0.9995002746582031 0.0004994869232177734
vt 0.0004994869232177734 0.9995002746582031
vt 0.000499725341796875 0.0004994869232177734
vt 0.9995005130767822 0.000499725341796875
vt 0.9995002746582031 0.9995005130767822
vt 0.9995002746582031 0.9995005130767822
vt 0.0004994869232177734 0.9995005130767822
vt 0.0004994869232177734 0.0004994869232177734
vt 0.9995002746582031 0.0004994869232177734
vt 0.9995002746582031 0.9995005130767822
vt 0.0004994869232177734 0.9995005130767822
vt 0.0004994869232177734 0.0004994869232177734
vt 0.9995002746582031 0.0004994869232177734
vt 0.9995002746582031 0.9995005130767822
vt 0.0004994869232177734 0.9995005130767822
vt 0.0004994869232177734 0.0004994869232177734
vt 0.9995002746582031 0.0004994869232177734
vt 0.9995002746582031 0.9995005130767822
vt 0.0004994869232177734 0.9995005130767822
vt 0.0004994869232177734 0.0004994869232177734
vt 0.9995002746582031 0.0004994869232177734
vt 0.9995005130767822 0.9995002746582031
vt 0.000499725341796875 0.9995005130767822
vt 0.0004994869232177734 0.000499725341796875
vt 0.9995002746582031 0.0004994869232177734
vt 0.0004994869232177734 0.9995002746582031
vt 0.000499725341796875 0.0004994869232177734
vt 0.9995005130767822 0.000499725341796875
vt 0.9995002746582031 0.0004994869232177734
vt 0.9995002746582031 0.9995005130767822
vt 0.9995005130767822 0.000499725341796875
vt 0.9995002746582031 0.9995005130767822
vt 0.0004994869232177734 0.9995002746582031
vt 0.9995002746582031 0.9995005130767822
vt 0.0004994869232177734 0.9995005130767822
vt 0.0004994869232177734 0.0004994869232177734
vt 0.9995002746582031 0.0004994869232177734
vt 0.9995002746582031 0.9995005130767822
vt 0.0004994869232177734 0.9995005130767822
vt 0.0004994869232177734 0.0004994869232177734
vt 0.9995002746582031 0.0004994869232177734
vt 0.9995002746582031 0.9995005130767822
vt 0.0004994869232177734 0.9995005130767822
vt 0.0004994869232177734 0.0004994869232177734
vt 0.9995002746582031 0.0004994869232177734
vt 0.9995005130767822 0.9995002746582031
vt 0.000499725341796875 0.9995005130767822
vt 0.0004994869232177734 0.000499725341796875
vt 0.9995002746582031 0.0004994869232177734
vt 0.0004994869232177734 0.9995002746582031
vt 0.000499725341796875 0.0004994869232177734
vt 0.9995005130767822 0.000499725341796875
vt 0.9995002746582031 0.9995005130767822
vt 0.9995002746582031 0.9995005130767822
vt 0.0004994869232177734 0.9995005130767822
vt 0.0004994869232177734 0.0004994869232177734
vt 0.9995002746582031 0.0004994869232177734
vt 0.9995002746582031 0.9995005130767822
vt 0.0004994869232177734 0.9995005130767822
vt 0.0004994869232177734 0.0004994869232177734
vt 0.9995002746582031 0.0004994869232177734
vt 0.9995002746582031 0.9995005130767822
vt 0.0004994869232177734 0.9995005130767822
vt 0.0004994869232177734 0.0004994869232177734
vt 0.9995002746582031 0.0004994869232177734
vt 0.9995002746582031 0.9995005130767822
vt 0.0004994869232177734 0.9995005130767822
vt 0.0004994869232177734 0.0004994869232177734
vt 0.9995002746582031 0.0004994869232177734
vt 0.9995005130767822 0.9995002746582031
vt 0.000499725341796875 0.9995005130767822
vt 0.0004994869232177734 0.000499725341796875
vt 0.9995002746582031 0.0004994869232177734
vt 0.000499725341796875 0.0004994869232177734
vt 0.0004994869232177734 0.0004994869232177734
vt 0.9995002746582031 0.0004994869232177734
vt 0.9995002746582031 0.9995005130767822
vt 0.0004994869232177734 0.9995005130767822
g TreeFacades090
s 1
f 1/1/1 2/2/2 3/3/3
f 4/4/4 5/5/5 6/6/6
f 6/6/6 7/7/7 4/4/4
f 8/8/8 9/9/9 10/10/10
f 10/10/10 11/11/11 8/8/8
f 12/12/12 13/13/13 14/14/14
f 14/14/14 15/15/15 12/12/12
f 16/16/16 17/17/17 18/18/18
f 18/18/18 19/19/19 16/16/16
f 20/20/20 21/21/21 22/22/22
f 22/22/22 23/23/23 20/20/20
f 24/24/24 25/25/25 26/26/26
f 26/26/26 27/27/27 24/24/24
f 28/28/28 29/29/29 30/30/30
f 30/30/30 31/31/31 28/28/28
f 32/32/32 33/33/33 34/34/34
f 34/34/34 35/35/35 32/32/32
f 36/36/36 37/37/37 38/38/38
f 38/38/38 39/39/39 36/36/36
f 40/40/40 41/41/41 42/42/42
f 42/42/42 43/43/43 40/40/40
f 44/44/44 45/45/45 46/46/46
f 3/3/3 47/47/47 1/1/1
f 46/46/46 48/48/48 44/44/44
f 49/49/49 50/50/50 51/51/51
f 52/52/52 53/53/53 54/54/54
f 54/54/54 55/55/55 52/52/52
f 56/56/56 57/57/57 58/58/58
f 58/58/58 59/59/59 56/56/56
f 60/60/60 61/61/61 62/62/62
f 62/62/62 63/63/63 60/60/60
f 64/64/64 65/65/65 66/66/66
f 66/66/66 67/67/67 64/64/64
f 68/68/68 69/69/69 70/70/70
f 70/70/70 71/71/71 68/68/68
f 72/72/72 73/73/73 74/74/74
f 74/74/74 75/75/75 72/72/72
f 76/76/76 77/77/77 78/78/78
f 78/78/78 79/79/79 76/76/76
f 80/80/80 81/81/81 82/82/82
f 82/82/82 83/83/83 80/80/80
f 84/84/84 85/85/85 86/86/86
f 86/86/86 87/87/87 84/84/84
f 88/88/88 89/89/89 90/90/90
f 90/90/90 91/91/91 88/88/88
f 51/51/51 92/92/92 49/49/49
f 93/93/93 94/94/94 95/95/95
f 95/95/95 96/96/96 93/93/93
