# Exported using wow.export v0.2.19
o 21138_HB03.obj
v -293.97509765625 3.561735153198242 -13.818341255187988
v -294.76727294921875 2.9887521266937256 -10.78112506866455
v -294.767333984375 3.0234251022338867 -14.610570907592773
v -290.0457763671875 4.229113578796387 -1.902958869934082
v -290.47119140625 4.392856121063232 3.6094932556152344
v -290.47113037109375 4.364304542541504 -1.902958869934082
v -290.4710998535156 4.335753440856934 -7.415411472320557
v -290.0457458496094 4.2291131019592285 -12.927713394165039
v -290.47113037109375 4.364304542541504 -12.927713394165039
v -290.4711608886719 4.392855167388916 -18.44001579284668
v -293.1828308105469 4.065372467041016 -9.196666717529297
v -292.3320617675781 4.33575439453125 -8.345907211303711
v -296.4361877441406 4.335749626159668 -8.345956802368164
v -296.4361877441406 4.065369606018066 -9.196710586547852
v -296.4361877441406 -0.5231505632400513 -12.44996166229248
v -295.92755126953125 1.3774772882461548 -11.941389083862305
v -296.4361877441406 1.3774762153625488 -11.94143009185791
v -294.76727294921875 2.9887521266937256 -10.78112506866455
v -296.4361877441406 2.9887497425079346 -10.781171798706055
v -286.62139892578125 0.46916139125823975 -1.902958869934082
v -286.3670959472656 -0.5231474041938782 -7.41541051864624
v -286.36712646484375 -0.577587902545929 -1.9029583930969238
v -286.3671569824219 -0.6320284008979797 3.6094932556152344
v -286.62139892578125 0.4691609740257263 -12.927711486816406
v -286.3671569824219 -0.6320289969444275 -18.440013885498047
v -286.36712646484375 -0.5775882005691528 -12.927712440490723
v -292.33209228515625 4.33575439453125 -6.484940052032471
v -293.1828308105469 4.065371990203857 -5.634180068969727
v -296.4361572265625 4.06536865234375 -5.634218215942383
v -296.4361572265625 4.33574914932251 -6.48498010635376
v -296.4361267089844 -0.5231505632400513 -2.380957841873169
v -296.4361267089844 1.3774772882461548 -2.889503002166748
v -295.92755126953125 1.3774772882461548 -2.8894565105438232
v -294.76727294921875 2.9887521266937256 -4.049722671508789
v -296.4361267089844 2.9887497425079346 -4.0497612953186035
v -287.455810546875 2.2177884578704834 -1.9029583930969238
v -288.0359802246094 3.058098793029785 3.6094932556152344
v -288.0359191894531 3.023425579071045 -1.902958869934082
v -288.0358581542969 2.9887521266937256 -7.41541051864624
v -288.828125 3.556842803955078 -1.9029583930969238
v -287.455810546875 2.2177882194519043 -12.927712440490723
v -288.035888671875 3.0234251022338867 -12.927711486816406
v -288.03594970703125 3.058098316192627 -18.440013885498047
v -288.828125 3.55684232711792 -12.927712440490723
v -286.8756408691406 1.3774782419204712 -7.41541051864624
v -286.87567138671875 1.4194742441177368 -1.9029583930969238
v -286.8757019042969 1.4614702463150024 3.6094932556152344
v -286.8757019042969 1.461469292640686 -18.440013885498047
v -286.87567138671875 1.4194737672805786 -12.927712440490723
v -289.62042236328125 4.12493371963501 3.6094932556152344
v -289.620361328125 4.095152378082275 -1.902958869934082
v -289.6203308105469 4.065371036529541 -7.41541051864624
v -289.620361328125 4.095151901245117 -12.927711486816406
v -292.7574768066406 4.230343818664551 -13.392961502075195
v -292.33209228515625 4.364306449890137 -13.392961502075195
v -292.3320617675781 4.33575439453125 -8.345907211303711
v -292.3321533203125 4.392858028411865 -18.44001579284668
v -292.75750732421875 4.230343818664551 -1.4377236366271973
v -292.3321228027344 4.364306926727295 -1.4377236366271973
v -292.3321533203125 4.39285945892334 3.6094932556152344
v -292.33209228515625 4.33575439453125 -6.484940052032471
v -294.7673645019531 3.058098077774048 -18.44001579284668
v -293.97509765625 3.5617356300354004 -1.012343406677246
v -293.182861328125 4.095152854919434 -1.012343406677246
v -293.18292236328125 4.12493371963501 3.6094932556152344
v -294.767333984375 3.023425579071045 -0.22011470794677734
v -294.76727294921875 2.9887521266937256 -4.049722671508789
v -294.7673645019531 3.0580990314483643 3.6094932556152344
v -295.34747314453125 2.2251100540161133 -0.22011470794677734
v -293.182861328125 4.095152854919434 -13.818341255187988
v -293.1828918457031 4.124933242797852 -18.44001579284668
v -293.1828308105469 4.065372467041016 -9.196666717529297
v -293.1828308105469 4.065371990203857 -5.634180068969727
v -295.92755126953125 1.3774772882461548 -11.941389083862305
v -296.4361877441406 -0.5231505632400513 -12.44996166229248
v -296.181884765625 0.3815326690673828 -15.190703392028809
v -296.4361877441406 -0.6144118905067444 -18.440017700195312
v -295.9276428222656 1.4614676237106323 -18.440017700195312
v -296.1818542480469 0.3815329074859619 0.360018253326416
v -296.4361572265625 -0.614411473274231 3.6094932556152344
v -296.4361267089844 -0.5231505632400513 -2.380957841873169
v -295.92755126953125 1.3774772882461548 -2.8894565105438232
v -295.9276428222656 1.4614681005477905 3.6094932556152344
v -295.34747314453125 2.225109815597534 -14.610570907592773
v -289.62042236328125 4.124932289123535 -18.440013885498047
v -295.7580871582031 -0.8303983807563782 -3.058915376663208
v -295.68798828125 -2.482649087905884 0.27528882026672363
v -295.6178283691406 -4.1349005699157715 -3.19915771484375
v -295.617919921875 -4.134899616241455 3.6094932556152344
v -295.7581787109375 -1.0115127563476562 3.6094932556152344
v -295.7580871582031 -0.8303989768028259 -11.771931648254395
v -295.6178283691406 -4.1349005699157715 -11.631688117980957
v -295.68798828125 -2.482649326324463 -15.105974197387695
v -295.617919921875 -4.134899616241455 -18.440017700195312
v -295.7581787109375 -1.0115129947662354 -18.440017700195312
v -296.4361877441406 -0.5231505632400513 -12.44996166229248
v -295.75811767578125 -0.920956015586853 -15.105974197387695
v -296.4361267089844 -0.5231505632400513 -2.380957841873169
v -295.75811767578125 -0.9209555387496948 0.27528905868530273
v -287.11529541015625 -2.9671449661254883 -12.927435874938965
v -287.1853942871094 -4.894200325012207 -18.440013885498047
v -287.1853942871094 -4.89420223236084 -12.927435874938965
v -287.1853942871094 -4.894204616546631 -7.414858341217041
v -287.11529541015625 -2.96714448928833 -1.9026827812194824
v -287.1853942871094 -4.89420223236084 -1.9026827812194824
v -287.1853942871094 -4.894199848175049 3.6094932556152344
v -295.6178283691406 -8.906953811645508 0.2051682472229004
v -295.6178283691406 -13.679008483886719 -3.199158191680908
v -295.6178283691406 -8.906954765319824 -3.199157953262329
v -296.4361267089844 -4.134903907775879 -3.19919753074646
v -295.6178283691406 -4.1349005699157715 -3.19915771484375
v -295.6178283691406 -8.906953811645508 -3.199157953262329
v -295.6178283691406 -13.67900562286377 3.60949444770813
v -295.6178283691406 -13.679006576538086 0.2051680088043213
v -295.61785888671875 -8.906953811645508 -15.035852432250977
v -295.6178283691406 -13.679006576538086 -18.440027236938477
v -295.61785888671875 -8.906952857971191 -18.440021514892578
v -295.6178283691406 -13.679008483886719 -11.631688117980957
v -295.6178283691406 -13.679007530212402 -15.035858154296875
v -295.6178283691406 -8.906953811645508 -11.631688117980957
v -296.43609619140625 -13.679010391235352 -11.63170051574707
v -295.6178283691406 -13.679008483886719 -11.631688117980957
v -295.6178283691406 -8.906954765319824 -11.631688117980957
v -295.61785888671875 -4.134900093078613 -15.035852432250977
v -295.6253967285156 -4.578158378601074 3.6094932556152344
v -295.6216125488281 -9.128582000732422 3.6094937324523926
v -295.6216125488281 -4.356529235839844 0.2051677703857422
v -287.045166015625 -1.0400842428207397 3.6094932556152344
v -287.04510498046875 -0.935240626335144 -1.902958869934082
v -287.0450744628906 -0.8303970694541931 -7.41541051864624
v -287.04510498046875 -0.9352411031723022 -12.927711486816406
v -287.045166015625 -1.0400850772857666 -18.440013885498047
v -286.3671569824219 -0.6320289969444275 -18.440013885498047
v -287.045166015625 -1.0400850772857666 -18.440013885498047
v -287.04510498046875 -0.9352411031723022 -12.927712440490723
v -287.0450744628906 -0.8303970694541931 -7.41541051864624
v -286.36712646484375 -0.577587902545929 -1.902958869934082
v -286.3670959472656 -0.5231474041938782 -7.41541051864624
v -286.36712646484375 -0.5775882005691528 -12.927711486816406
v -295.61785888671875 -4.134900093078613 0.2051677703857422
v -286.3671569824219 -0.6320284008979797 3.6094932556152344
v -286.70611572265625 -0.7312127351760864 -1.902958869934082
v -287.04510498046875 -0.935240626335144 -1.9029583930969238
v -286.70611572265625 -0.7312130331993103 -12.927711486816406
v -296.0269775390625 -8.90695571899414 -3.1991777420043945
v -295.6178283691406 -13.679008483886719 -3.199158191680908
v -296.43609619140625 -13.679010391235352 -3.1991658210754395
v -296.0269775390625 -8.90695571899414 -11.631694793701172
v -295.6178283691406 -4.1349005699157715 -11.631688117980957
v -296.4361877441406 -4.134903907775879 -11.631732940673828
v -296.4361572265625 -8.906957626342773 -11.63171672821045
v -296.43609619140625 -8.906957626342773 -3.19918155670166
v -287.045166015625 -1.0400842428207397 3.6094932556152344
v -296.4361877441406 -0.830399215221405 -11.77196979522705
v -295.7580871582031 -0.8303989768028259 -11.771931648254395
v -296.4361877441406 -0.5231505632400513 -12.44996166229248
v -296.4361267089844 -0.830400288105011 -3.058962106704712
v -295.7580871582031 -0.8303983807563782 -3.058915376663208
v -296.4361267089844 -0.5231505632400513 -2.380957841873169
v -296.4361877441406 -0.6144118905067444 -18.440017700195312
v -296.4361572265625 -0.614411473274231 3.6094932556152344
v -287.1853942871094 -4.89420223236084 -1.9026823043823242
v -287.18536376953125 -7.090404510498047 -4.658908843994141
v -287.18536376953125 -9.286603927612305 -1.902958869934082
v -287.18536376953125 -9.286605834960938 -7.415134906768799
v -287.185302734375 -13.679006576538086 -12.927719116210938
v -287.1853332519531 -11.482806205749512 -10.171426773071289
v -287.18536376953125 -9.286605834960938 -12.92744255065918
v -287.185302734375 -13.679006576538086 -7.415411472320557
v -287.1853332519531 -11.482805252075195 -4.659185409545898
v -287.185302734375 -13.679006576538086 -1.9029583930969238
v -287.1853942871094 -4.894199848175049 3.6094932556152344
v -287.18536376953125 -7.090401649475098 0.8532671928405762
v -287.18536376953125 -9.286602973937988 3.6094937324523926
v -287.1853942871094 -4.894204616546631 -7.414858341217041
v -287.1853332519531 -11.482805252075195 0.8532676696777344
v -287.1853942871094 -4.89420223236084 -12.927436828613281
v -287.18536376953125 -7.090405464172363 -10.171150207519531
v -287.185302734375 -13.67900562286377 3.60949444770813
v -287.18536376953125 -7.090403079986572 -15.683728218078613
v -287.18536376953125 -9.286603927612305 -18.440021514892578
v -287.1853942871094 -4.894200325012207 -18.440013885498047
v -287.1853332519531 -11.482806205749512 -15.683734893798828
v -287.185302734375 -13.679006576538086 -18.440027236938477
v -290.4710998535156 4.335753440856934 -7.415411472320557
v -290.50128173828125 4.174463272094727 -1.9029593467712402
v -290.53143310546875 3.9828784465789795 -1.9029631614685059
v -296.4361572265625 4.33574914932251 -6.48498010635376
v -296.4361572265625 3.952580690383911 -6.545290470123291
v -292.2717590332031 3.952584981918335 -6.545249938964844
v -292.33209228515625 4.33575439453125 -6.484940052032471
v -292.2717590332031 3.9525842666625977 -8.285595893859863
v -290.5314025878906 3.9525842666625977 -7.415419578552246
v -292.2717590332031 3.952584981918335 -6.545249938964844
v -292.2717590332031 3.9525842666625977 -8.285595893859863
v -292.2717590332031 3.952584981918335 -6.545249938964844
v -296.4361572265625 3.952580690383911 -6.545290470123291
v -290.50128173828125 4.17446231842041 -12.927713394165039
v -290.4711608886719 4.392855167388916 -18.44001579284668
v -290.47113037109375 4.364304542541504 -12.927713394165039
v -296.4361877441406 3.952580690383911 -8.285640716552734
v -296.4361877441406 4.335749626159668 -8.345956802368164
v -292.3320617675781 4.33575439453125 -8.345907211303711
v -292.2717590332031 3.9525842666625977 -8.285595893859863
v -290.47113037109375 4.364304542541504 -1.9029593467712402
v -290.47119140625 4.392856121063232 3.6094932556152344
v -292.2717590332031 3.9525842666625977 -8.285595893859863
v -292.3320617675781 4.33575439453125 -8.345907211303711
v -292.33209228515625 4.364306449890137 -13.392961502075195
v -292.2717590332031 3.952584981918335 -6.545249938964844
v -292.3321228027344 4.364306926727295 -1.437723159790039
v -292.33209228515625 4.33575439453125 -6.484940052032471
v -292.3321533203125 4.39285945892334 3.6094932556152344
v -292.30194091796875 4.172722339630127 -1.4678783416748047
v -292.27178955078125 3.9828786849975586 -1.4678783416748047
v -292.30194091796875 4.172720909118652 -13.36280632019043
v -292.3321533203125 4.392858028411865 -18.44001579284668
v -291.401611328125 3.9828784465789795 -1.9029631614685059
v -290.53143310546875 3.9828784465789795 -1.9029631614685059
v -296.4361877441406 3.952580690383911 -8.285640716552734
v -290.531494140625 4.013172626495361 3.6094932556152344
v -290.5314025878906 3.9525842666625977 -7.415419578552246
v -291.401611328125 3.982877731323242 -12.927717208862305
v -290.531494140625 4.0131707191467285 -18.44001579284668
v -290.53143310546875 3.982877492904663 -12.927717208862305
v -290.53143310546875 3.982877492904663 -12.927717208862305
v -292.2718505859375 4.013172626495361 3.6094932556152344
v -292.27178955078125 3.9828786849975586 -1.4678783416748047
v -292.2718505859375 4.013172626495361 3.6094932556152344
v -292.27178955078125 3.982877731323242 -13.36280632019043
v -292.2718505859375 4.013171195983887 -18.44001579284668
v -292.2718505859375 4.013171195983887 -18.44001579284668
v -292.27178955078125 3.982877731323242 -13.36280632019043
v -290.531494140625 4.0131707191467285 -18.44001579284668
v -290.531494140625 4.013172626495361 3.6094932556152344
v -290.24713134765625 -4.940526962280273 -14.525809288024902
v -290.24713134765625 -4.940525054931641 -10.611602783203125
v -285.8504333496094 -4.940525531768799 -10.611602783203125
v -286.5179138183594 -4.940526962280273 -14.525808334350586
v -285.8504638671875 -4.94052791595459 -18.440013885498047
v -287.1853942871094 -4.94052791595459 -18.440013885498047
v -294.6438293457031 -4.940524578094482 -10.611602783203125
v -294.6438293457031 -4.940524578094482 -4.2187957763671875
v -290.24713134765625 -4.940525054931641 -7.415199279785156
v -285.8504333496094 -4.940525054931641 -4.2187957763671875
v -285.8504638671875 -4.940526962280273 -14.525808334350586
v -290.91461181640625 -4.940526008605957 -0.30465126037597656
v -287.1853942871094 -4.94052791595459 3.6094932556152344
v -290.24713134765625 -4.940526485443115 -0.30465126037597656
v -290.91461181640625 -4.940528392791748 3.6094932556152344
v -294.64385986328125 -4.940528869628906 3.6094932556152344
v -290.91461181640625 -4.940528392791748 -18.440013885498047
v -294.64385986328125 -4.940528869628906 -18.44001579284668
v -285.8504638671875 -4.940526962280273 -0.30465126037597656
v -294.64385986328125 -4.940526962280273 -0.30465126037597656
v -290.24713134765625 -4.940525054931641 -4.2187957763671875
v -294.64385986328125 -4.940526962280273 -14.525809288024902
v -285.8504638671875 -4.940528392791748 3.6094932556152344
v -296.4361572265625 -4.940525531768799 -10.611632347106934
v -296.43609619140625 -4.940525531768799 -4.218825817108154
v -295.52978515625 -4.59830379486084 0.05852556228637695
v -295.9058837890625 -4.6184492111206055 0.058519840240478516
v -295.6253967285156 -4.578158855438232 3.6095046997070312
v -295.3172302246094 -4.618448734283447 -11.31139087677002
v -295.39642333984375 -4.6184492111206055 -14.874275207519531
v -295.847412109375 -4.61845064163208 -14.875703811645508
v -294.9444580078125 -4.618453502655029 3.6094932556152344
v -294.64385986328125 -4.940528869628906 3.6094932556152344
v -294.64385986328125 -4.940526962280273 -0.30465126037597656
v -294.9444580078125 -4.618451118469238 -14.665974617004395
v -294.9444885253906 -4.618453502655029 -18.44001579284668
v -295.2100524902344 -4.6184492111206055 -14.664546012878418
v -296.4361267089844 -4.618449687957764 -2.962245464324951
v -295.4342041015625 -4.6184492111206055 -3.4924538135528564
v -296.4361267089844 -4.6184492111206055 -3.9393815994262695
v -294.7941589355469 -4.779488563537598 -14.665974617004395
v -294.9444580078125 -4.618448734283447 -3.9393513202667236
v -294.9444580078125 -4.618448734283447 -3.9393513202667236
v -295.52978515625 -4.59830379486084 0.05852532386779785
v -295.284912109375 -4.59830379486084 -0.16492319107055664
v -295.47564697265625 -4.6184492111206055 -18.437158584594727
v -294.9444580078125 -4.618448734283447 -10.89193344116211
v -295.39642333984375 -4.6184492111206055 -14.874275207519531
v -296.4361877441406 -4.618449687957764 -12.032556533813477
v -296.4361877441406 -4.6184492111206055 -10.891963005065918
v -295.4342041015625 -4.6184492111206055 -3.4924538135528564
v -295.6253967285156 -4.578158855438232 3.6095046997070312
v -296.3775939941406 -4.618452548980713 -18.440017700195312
v -295.47564697265625 -4.6184492111206055 -18.437158584594727
v -294.9444580078125 -4.618448734283447 -10.89193344116211
v -296.3775634765625 -4.6184492111206055 3.6094937324523926
v -294.9444580078125 -4.618451118469238 -0.16492891311645508
v -295.3172302246094 -4.618448734283447 -11.31139087677002
v -294.79412841796875 -4.779489040374756 -0.30465126037597656
v -294.6438293457031 -4.940524578094482 -4.2187957763671875
v -294.64385986328125 -4.940528869628906 -18.44001579284668
v -294.64385986328125 -4.940526962280273 -14.525809288024902
v -296.4361572265625 -4.940525531768799 -10.611632347106934
v -294.6438293457031 -4.940524578094482 -10.611602783203125
v -296.43609619140625 -4.940525531768799 -4.218825817108154
v -294.6438293457031 -4.940524578094482 -4.2187957763671875
v -294.6438293457031 -4.940524578094482 -10.611602783203125
vn 0.48305317759513855 -0.8676053285598755 0.11798476427793503
vn 0.4040805399417877 -0.8238500356674194 0.3974795639514923
vn 0.5674479603767395 -0.7973945140838623 0.20534051954746246
vn 0.06200487166643143 -0.9759655594825745 0.2089177370071411
vn 0.5423811078071594 -0.7591865658760071 0.3598034083843231
vn 0.5433956980705261 -0.8197484612464905 0.18092402815818787
vn 0.5250292420387268 -0.8510727882385254 -0.004408310633152723
vn 0.06229859218001366 -0.9748020172119141 -0.21419577300548553
vn 0.5432536005973816 -0.8188942074775696 -0.1851695328950882
vn 0.5429844260215759 -0.7588387131690979 -0.3596271872520447
vn 0.23292259871959686 -0.9457553625106812 0.22648152709007263
vn -0.2809341251850128 -0.9160799980163574 -0.2861354351043701
vn -4.631503713881102e-7 -0.8507034778594971 -0.525645911693573
vn -4.042718160235381e-7 -0.8994566202163696 0.4370100498199463
vn 0.31845858693122864 0.5225375890731812 0.790910005569458
vn 0.5884581208229065 -0.5564869046211243 0.5865486860275269
vn -2.0739398109981266e-7 -0.42843326926231384 0.9035733938217163
vn 0.4040805399417877 -0.8238500356674194 0.3974795639514923
vn -4.0083736507767753e-7 -0.7166774272918701 0.6974048018455505
vn -0.999983012676239 0.004272992257028818 -0.0039680032059550285
vn -0.9039096236228943 0.427663117647171 -0.007188218645751476
vn -0.8826307058334351 0.4700520634651184 0.003743484616279602
vn -0.8592607975006104 0.5113275051116943 0.014666319824755192
vn -0.9999828934669495 0.0042757997289299965 -0.00396817596629262
vn -0.8592630624771118 0.511323094367981 -0.014686882495880127
vn -0.8825851082801819 0.4700250029563904 -0.010949943214654922
vn -0.28092190623283386 -0.9160841107368469 0.28613415360450745
vn 0.23292645812034607 -0.9457545876502991 -0.22648073732852936
vn -4.6476424131469685e-7 -0.8994572758674622 -0.43700870871543884
vn -4.03935558779267e-7 -0.8506996035575867 0.5256521105766296
vn 0.31846827268600464 0.522536039352417 -0.7909071445465088
vn -2.3430767726040358e-7 -0.42843642830848694 -0.9035719037055969
vn 0.5884748697280884 -0.556484043598175 -0.5865346193313599
vn 0.4040846824645996 -0.8238487243652344 -0.3974780738353729
vn -4.0338827034247515e-7 -0.7166767716407776 -0.6974055171012878
vn -0.8121105432510376 -0.5835016965866089 -0.0014583843294531107
vn -0.6943274140357971 -0.7196592688560486 0
vn -0.6958673596382141 -0.7181674838066101 -0.0020676786080002785
vn -0.6974010467529297 -0.7166691422462463 -0.004135338589549065
vn -0.5731162428855896 -0.8194714188575745 -0.0020949235185980797
vn -0.812110960483551 -0.5835011601448059 -0.001458384096622467
vn -0.6958677768707275 -0.7181668877601624 -0.002067678375169635
vn -0.6943284273147583 -0.7196582555770874 0
vn -0.5731164216995239 -0.8194711804389954 -0.002094923285767436
vn -0.9035701155662537 -0.42843061685562134 -0.0028694968204945326
vn -0.9055759310722351 -0.4241816997528076 -0.0014346758835017681
vn -0.9075599312782288 -0.4199225902557373 1.794083885897635e-7
vn -0.907562255859375 -0.419917494058609 -1.4384133351086348e-7
vn -0.9055771231651306 -0.42417916655540466 -0.0014348375843837857
vn -0.43391939997673035 -0.9009516835212708 0
vn -0.43546417355537415 -0.9002030491828918 -0.0023760597687214613
vn -0.4370051324367523 -0.8994464874267578 -0.004752098582684994
vn -0.43546444177627563 -0.9002029299736023 -0.0023760597687214613
vn 0.08289264887571335 -0.9844144582748413 -0.1551034301519394
vn -0.41191011667251587 -0.8540441393852234 -0.31770843267440796
vn -0.2809341251850128 -0.9160799980163574 -0.2861354351043701
vn -0.5338240265846252 -0.7732194066047668 -0.34229180216789246
vn 0.08289124071598053 -0.9844275712966919 0.15502086281776428
vn -0.4115656018257141 -0.8541846871376038 0.3177771270275116
vn -0.5331957936286926 -0.7735780477523804 0.342460572719574
vn -0.28092190623283386 -0.9160841107368469 0.28613415360450745
vn 0.6943249702453613 -0.7196615934371948 -0.0000031776462492416613
vn 0.4830564558506012 -0.8676034212112427 -0.11798597872257233
vn 0.3373987674713135 -0.9343612790107727 -0.11459045112133026
vn 0.4339207708835602 -0.9009510278701782 0
vn 0.5674511194229126 -0.7973920702934265 -0.20534127950668335
vn 0.4040846824645996 -0.8238487243652344 -0.3974780738353729
vn 0.6943275928497314 -0.7196590304374695 0
vn 0.7092292904853821 -0.6714513301849365 -0.21481828391551971
vn 0.33740824460983276 -0.9343672394752502 0.1145145520567894
vn 0.43393662571907043 -0.900943398475647 -0.00015308507136069238
vn 0.23292259871959686 -0.9457553625106812 0.22648152709007263
vn 0.23292645812034607 -0.9457545876502991 -0.22648073732852936
vn 0.5884581208229065 -0.5564869046211243 0.5865486860275269
vn 0.31845858693122864 0.5225375890731812 0.790910005569458
vn 0.9320475459098816 -0.10086100548505783 0.3480152189731598
vn 0.9190850257873535 0.39334896206855774 -0.023650407791137695
vn 0.9082003235816956 -0.4185357689857483 -4.206731603062508e-7
vn 0.9320491552352905 -0.10087111592292786 -0.3480077385902405
vn 0.9190946221351624 0.39332717657089233 0.023639587685465813
vn 0.31846827268600464 0.522536039352417 -0.7909071445465088
vn 0.5884748697280884 -0.556484043598175 -0.5865346193313599
vn 0.9082003235816956 -0.41853567957878113 4.1975084741352475e-7
vn 0.7092277407646179 -0.6714526414871216 0.2148192822933197
vn -0.4339199662208557 -0.9009514451026917 0
vn 0.5201175212860107 0.6898878216743469 -0.503520131111145
vn 0.8626468777656555 0.41723406314849854 -0.28593045473098755
vn 0.7058398723602295 0.05991169810295105 -0.7058333158493042
vn 0.998993456363678 0.04485645517706871 0
vn 0.856059193611145 0.5161910057067871 0.026636850088834763
vn 0.5201076865196228 0.6898918747901917 0.5035247206687927
vn 0.7058314085006714 0.05991094931960106 0.7058418393135071
vn 0.8626439571380615 0.41723763942718506 0.2859339118003845
vn 0.998993456363678 0.04485645517706871 0
vn 0.8560543060302734 0.516197681427002 -0.026663003489375114
vn 0.31845858693122864 0.5225375890731812 0.790910005569458
vn 0.7277440428733826 0.6378059983253479 0.2521747052669525
vn 0.31846827268600464 0.522536039352417 -0.7909071445465088
vn 0.7277482748031616 0.6377972364425659 -0.2521848976612091
vn -0.9600311517715454 0.27971434593200684 -0.01000386755913496
vn -0.9993380904197693 0.03635731711983681 -0.0012391854543238878
vn -0.9993717074394226 0.0354304276406765 -0.0009477181592956185
vn -0.9994043707847595 0.034503497183322906 -0.0006562499911524355
vn -0.9600374698638916 0.2797165513038635 0.009309889748692513
vn -0.9993721842765808 0.035430438816547394 0.000290880590910092
vn -0.9993380904197693 0.03635731339454651 0.0012380105908960104
vn 0.9235366582870483 0.03243601694703102 -0.3821360766887665
vn 0.7071100473403931 3.140257121003742e-8 -0.7071034908294678
vn 0.7067924737930298 0.02996932715177536 -0.7067859172821045
vn -5.502747768559857e-8 0.04239952191710472 -0.9991007447242737
vn 0.7058398723602295 0.05991169810295105 -0.7058333158493042
vn 0.7067924737930298 0.02996932715177536 -0.7067859172821045
vn 1 0 0
vn 0.923880398273468 1.699493168416666e-8 -0.382681280374527
vn 0.9235259294509888 0.02428123727440834 0.38276657462120056
vn 1 0 0
vn 0.9997483491897583 0.022433875128626823 0
vn 0.7071016430854797 0 0.7071118950843811
vn 0.9238781332969666 0 0.3826867938041687
vn 0.7067839503288269 0.029968934133648872 0.706794261932373
vn -0.000014504044884233736 0 1
vn 0.7071016430854797 0 0.7071118950843811
vn 0.7067839503288269 0.029968934133648872 0.706794261932373
vn 0.9224550127983093 0.056688059121370316 0.38192033767700195
vn 0.42058679461479187 0.9048070907592773 -0.06656495481729507
vn 0.8427891135215759 0.5367933511734009 -0.039490874856710434
vn 0.6736357808113098 0.5769298076629639 -0.4619165360927582
vn -0.8613609075546265 0.5076491236686707 0.01870087906718254
vn -0.8008124232292175 0.5988985896110535 0.004461776930838823
vn -0.7304977774620056 0.6828442811965942 -0.009831738658249378
vn -0.8007379174232483 0.5988425612449646 -0.014368953183293343
vn -0.8613606691360474 0.5076483488082886 -0.018733585253357887
vn -0.8592630624771118 0.511323094367981 -0.014686882495880127
vn -0.8613606691360474 0.5076483488082886 -0.018733585253357887
vn -0.8007379174232483 0.5988425612449646 -0.014368953183293343
vn -0.7304977774620056 0.6828442811965942 -0.009831738658249378
vn -0.8826307058334351 0.4700520634651184 0.003743484616279602
vn -0.9039096236228943 0.427663117647171 -0.007188218645751476
vn -0.8825851082801819 0.4700250029563904 -0.010949943214654922
vn 0.9224573969841003 0.0566883347928524 -0.3819148540496826
vn -0.8592607975006104 0.5113275051116943 0.014666319824755192
vn -0.7995500564575195 0.6005944013595581 0.0024314946494996548
vn -0.8008124232292175 0.5988985896110535 0.004461776930838823
vn -0.7994931936264038 0.6005486249923706 -0.012330451980233192
vn 0.3827568590641022 0.02295077033340931 -0.923564076423645
vn 0.7071100473403931 3.140257121003742e-8 -0.7071034908294678
vn 0.000009324028724222444 4.4410150223939127e-8 -1
vn 0.38212811946868896 0.032435689121484756 0.923539936542511
vn 0.7058314085006714 0.05991094931960106 0.7058418393135071
vn 1.0176297848829563e-7 0.042400095611810684 0.9991006851196289
vn -0.000007202760571090039 0.021204816177487373 0.9997751712799072
vn 0.000004635543518816121 0.021204551681876183 -0.9997751712799072
vn -0.8613609075546265 0.5076491236686707 0.01870087906718254
vn 3.2545557360208477e-7 0.5595656037330627 0.8287860751152039
vn 0.5201076865196228 0.6898918747901917 0.5035247206687927
vn 0.31845858693122864 0.5225375890731812 0.790910005569458
vn 2.2702884905356768e-7 0.5595657229423523 -0.8287859559059143
vn 0.5201175212860107 0.6898878216743469 -0.503520131111145
vn 0.31846827268600464 0.522536039352417 -0.7909071445465088
vn 0.9190850257873535 0.39334896206855774 -0.023650407791137695
vn 0.9190946221351624 0.39332717657089233 0.023639587685465813
vn -0.9993721842765808 0.035430438816547394 0.000290880590910092
vn -0.9996531009674072 0.0263411495834589 -0.00001857171992014628
vn -0.9998345971107483 0.018177034333348274 0.0006191077991388738
vn -0.9998511672019958 0.017249686643481255 -0.0003281738900113851
vn -1 -0.00000926375014387304 0
vn -0.9999629259109497 0.008620533160865307 -0.00016409307136200368
vn -0.9998511672019958 0.017249686643481255 -0.0003281738900113851
vn -1 -0.00000926375014387304 0
vn -0.9999587535858154 0.009084262885153294 0.00030956673435866833
vn -1 -0.000009263749234378338 7.122942643697505e-13
vn -0.9993380904197693 0.03635731339454651 0.0012380105908960104
vn -0.9996278285980225 0.0272683035582304 0.0009285977575927973
vn -0.9998345971107483 0.018177034333348274 0.0006191077991388738
vn -0.9994043707847595 0.034503497183322906 -0.0006562499911524355
vn -0.9999587535858154 0.009084262885153294 0.00030956673435866833
vn -0.9993717074394226 0.0354304276406765 -0.0009477181592956185
vn -0.9996650815010071 0.025877557694911957 -0.0004922303487546742
vn -1 -0.000009263749234378338 1.424588528739501e-12
vn -0.9996404051780701 0.0268047284334898 -0.0007837155135348439
vn -0.9998345971107483 0.018177036195993423 -0.0006196953472681344
vn -0.9993380904197693 0.03635731711983681 -0.0012391854543238878
vn -0.9999629259109497 0.008620533160865307 -0.00016409307136200368
vn -1 -0.00000926375014387304 0
vn 0.5250292420387268 -0.8510727882385254 -0.004408310633152723
vn 0.5889010429382324 -0.8082021474838257 -0.002210701582953334
vn 0.6495398879051208 -0.7603275179862976 -0.00028097827453166246
vn -4.03935558779267e-7 -0.8506996035575867 0.5256521105766296
vn -4.0934818912319315e-7 -0.7600948214530945 0.6498121619224548
vn -0.5154595971107483 -0.684187114238739 0.515935480594635
vn -0.28092190623283386 -0.9160841107368469 0.28613415360450745
vn -0.5154750347137451 -0.6841676831245422 -0.5159457325935364
vn 0.6497944593429565 -0.7601097226142883 -0.000561956490855664
vn -0.5154595971107483 -0.684187114238739 0.515935480594635
vn -0.5154750347137451 -0.6841676831245422 -0.5159457325935364
vn -0.5154595971107483 -0.684187114238739 0.515935480594635
vn -4.0934818912319315e-7 -0.7600948214530945 0.6498121619224548
vn 0.5888870358467102 -0.8082123398780823 -0.002211178420111537
vn 0.5429844260215759 -0.7588387131690979 -0.3596271872520447
vn 0.5432536005973816 -0.8188942074775696 -0.1851695328950882
vn -3.4105570989595435e-7 -0.7600988745689392 -0.6498074531555176
vn -4.631503713881102e-7 -0.8507034778594971 -0.525645911693573
vn -0.2809341251850128 -0.9160799980163574 -0.2861354351043701
vn -0.5154750347137451 -0.6841676831245422 -0.5159457325935364
vn 0.5433956980705261 -0.8197484612464905 0.18092402815818787
vn 0.5423811078071594 -0.7591865658760071 0.3598034083843231
vn -0.5154750347137451 -0.6841676831245422 -0.5159457325935364
vn -0.2809341251850128 -0.9160799980163574 -0.2861354351043701
vn -0.41191011667251587 -0.8540441393852234 -0.31770843267440796
vn -0.5154595971107483 -0.684187114238739 0.515935480594635
vn -0.4115656018257141 -0.8541846871376038 0.3177771270275116
vn -0.28092190623283386 -0.9160841107368469 0.28613415360450745
vn -0.5331957936286926 -0.7735780477523804 0.342460572719574
vn -0.5268626809120178 -0.7324065566062927 0.43127310276031494
vn -0.6046998500823975 -0.7500602006912231 0.2678578197956085
vn -0.5271876454353333 -0.7322188019752502 -0.4311947226524353
vn -0.5338240265846252 -0.7732194066047668 -0.34229180216789246
vn 0.00033462225110270083 -0.9999999403953552 -0.00036954908864572644
vn 0.6495398879051208 -0.7603275179862976 -0.00028097827453166246
vn -3.4105570989595435e-7 -0.7600988745689392 -0.6498074531555176
vn 0.6492851376533508 -0.7605450749397278 0
vn 0.6497944593429565 -0.7601097226142883 -0.000561956490855664
vn 0.00033458307734690607 -0.9999999403953552 -0.0003695491177495569
vn 0.6492588520050049 -0.7605674862861633 -9.566944072503247e-7
vn 0.6495267152786255 -0.7603387236595154 -0.00028145662508904934
vn 0.6495267152786255 -0.7603387236595154 -0.00028145662508904934
vn -0.649285614490509 -0.7605446577072144 0
vn -0.6046998500823975 -0.7500602006912231 0.2678578197956085
vn -0.649285614490509 -0.7605446577072144 0
vn -0.6047086715698242 -0.7500510811805725 -0.2678634822368622
vn -0.6492856740951538 -0.7605445981025696 0
vn -0.6492856740951538 -0.7605445981025696 0
vn -0.6047086715698242 -0.7500510811805725 -0.2678634822368622
vn 0.6492588520050049 -0.7605674862861633 -9.566944072503247e-7
vn 0.6492851376533508 -0.7605450749397278 0
vn 0.27529704570770264 0.9613010287284851 -0.010582705028355122
vn 0.14579781889915466 0.9778095483779907 0.15043742954730988
vn 9.640301357194403e-8 1 -6.630190085843424e-8
vn -0.09809312224388123 0.9948867559432983 0.0240405835211277
vn -0.2862604856491089 0.9578540325164795 0.02388763055205345
vn -0.19518320262432098 0.9795995354652405 0.04783538728952408
vn 0.28512492775917053 0.9122231602668762 0.2941983938217163
vn 0.28521159291267395 0.9120378494262695 -0.29468855261802673
vn 0.14579781889915466 0.9778095483779907 0.15043742954730988
vn 9.640301357194403e-8 1 -6.630190085843424e-8
vn -0.144662544131279 0.9894073605537415 0.01207165140658617
vn 0.04664567857980728 0.9807395339012146 -0.18966862559318542
vn -0.19530963897705078 0.9781779050827026 -0.07086683809757233
vn 0.0007385825156234205 0.9817746877670288 -0.19004759192466736
vn 0.10668613016605377 0.9923412799835205 -0.062263209372758865
vn 0.3989226818084717 0.915729284286499 -0.04796399176120758
vn 0.17979106307029724 0.9835935831069946 0.014792727306485176
vn 0.5292865037918091 0.8481991291046143 -0.0203462615609169
vn -0.1434703916311264 0.9890745282173157 -0.03388110175728798
vn 0.34526780247688293 0.9224346280097961 -0.17292936146259308
vn 0.14584921300411224 0.9777622222900391 -0.15069544315338135
vn 0.41574621200561523 0.8986721634864807 0.1397978812456131
vn -0.28380587697029114 0.956536591053009 -0.06702179461717606
vn 4.837098686039099e-7 0.9100908637046814 0.41440877318382263
vn -4.937828634865582e-7 0.909765899181366 -0.41512173414230347
vn 0.0013951859436929226 0.9999974966049194 -0.0017791580175980926
vn 0 1 0
vn 0.002790364669635892 0.9999897480010986 -0.003558306721970439
vn 0 1 -5.948206194261729e-8
vn 0 1 -5.948206194261729e-8
vn 0 0.9996220469474792 0.027491694316267967
vn 0.549816370010376 0.8352601528167725 -0.006512994412332773
vn 0.3989226818084717 0.915729284286499 -0.04796399176120758
vn 0.34526780247688293 0.9224346280097961 -0.17292936146259308
vn 0.34613361954689026 0.9261481761932373 0.14980287849903107
vn 0.3985697329044342 0.9171364307403564 0.0016973348101601005
vn 0.14579792320728302 0.9778095483779907 0.15043744444847107
vn 5.062506945770207e-13 1 4.3377306724323716e-7
vn 0 1 0
vn -4.937826361128828e-7 0.9097659587860107 -0.41512155532836914
vn 0.4157463312149048 0.8986720442771912 0.1397978812456131
vn 0.306355357170105 0.9057435989379883 -0.2928735315799713
vn 0.306355357170105 0.9057435989379883 -0.2928735315799713
vn 0.0013951859436929226 0.9999974966049194 -0.0017791580175980926
vn 0.15827089548110962 0.9756633043289185 -0.15176187455654144
vn 0 1 -5.948206194261729e-8
vn 0.2851252257823944 0.9122230410575867 0.2941984236240387
vn 0 1 -5.948206194261729e-8
vn -6.462184121147629e-9 1 -3.7160933175073296e-7
vn 4.837095843868155e-7 0.910090982913971 0.41440853476524353
vn 0 1 0
vn 0.002790364669635892 0.9999897480010986 -0.003558306721970439
vn 0 0.9984884262084961 0.05496266484260559
vn 0 1 -5.948206194261729e-8
vn 0.2851252257823944 0.9122230410575867 0.2941984236240387
vn 0 1 0
vn 0.4361328184604645 0.8868651390075684 -0.15250712633132935
vn 0 1 -5.948206194261729e-8
vn 0.42606547474861145 0.8915430307388306 -0.15368537604808807
vn 0.28521159291267395 0.9120378494262695 -0.29468855261802673
vn 0.5292865037918091 0.8481991291046143 -0.0203462615609169
vn 0.41574621200561523 0.8986721634864807 0.1397978812456131
vn 4.837098686039099e-7 0.9100908637046814 0.41440877318382263
vn 0.28512492775917053 0.9122231602668762 0.2941983938217163
vn -4.937828634865582e-7 0.909765899181366 -0.41512173414230347
vn 0.28521159291267395 0.9120378494262695 -0.29468855261802673
vn 0.28512492775917053 0.9122231602668762 0.2941983938217163
vt 0.4870591163635254 0.8183973431587219
vt 0.899867057800293 0.7044819593429565
vt 0.3793821930885315 0.7113756537437439
vt 2.249213457107544 0.9669454395771027
vt 2.9985013008117676 0.9994991421699524
vt 2.249213457107544 0.9938229024410248
vt 1.4999254941940308 0.9881466627120972
vt 0.7507123947143555 0.9669458866119385
vt 0.7507123947143555 0.9938233494758606
vt 0.0014993548393249512 0.999500036239624
vt 0.11127293109893799 0.9439080953598022
vt 0.0019979476928710938 0.9994990825653076
vt 0.5291376113891602 0.9994983673095703
vt 0.5291372537612915 0.943907618522644
vt 0.529137372970581 0.000500023365020752
vt 0.4638185501098633 0.3912721276283264
vt 0.5291385650634766 0.3912721872329712
vt 0.3147890567779541 0.7225530743598938
vt 0.5291377305984497 0.7225528359413147
vt 2.2492129802703857 0.2194277048110962
vt 1.4999253749847412 0.022146403789520264
vt 2.2492129802703857 0.011322975158691406
vt 2.9985005855560303 0.0004994869232177734
vt 0.7507123351097107 0.21942812204360962
vt 0.001499176025390625 0.0005004405975341797
vt 0.7507122755050659 0.01132345199584961
vt 0.0019981861114501953 0.9994989633560181
vt 0.11127293109893799 0.9439077973365784
vt 0.5291376113891602 0.9439073801040649
vt 0.5291376113891602 0.9994980096817017
vt 0.5291370153427124 0.0004994869232177734
vt 0.529137372970581 0.39127200841903687
vt 0.4638185501098633 0.3912716507911682
vt 0.31478917598724365 0.7225527167320251
vt 0.5291379690170288 0.722552478313446
vt 2.249213218688965 0.5670730173587799
vt 2.9985008239746094 0.7341353893280029
vt 2.249213218688965 0.7272420525550842
vt 1.4999254941940308 0.7203487157821655
vt 2.249213218688965 0.8332909941673279
vt 0.7507122755050659 0.5670734941959381
vt 0.7507123351097107 0.7272425293922424
vt 0.001499176025390625 0.7341363430023193
vt 0.7507124543190002 0.8332914113998413
vt 1.4999253749847412 0.4000106453895569
vt 2.2492129802703857 0.4083598256111145
vt 2.9985005855560303 0.4167090058326721
vt 0.001499265432357788 0.416709840297699
vt 0.7507122755050659 0.40836024284362793
vt 2.9985008239746094 0.9462332725524902
vt 2.249213218688965 0.9403125047683716
vt 1.4999254941940308 0.9343917369842529
vt 0.7507123947143555 0.940312922000885
vt 0.5448747873306274 0.9592570960521698
vt 0.544874370098114 0.9938236176967621
vt 1.2308528423309326 0.9881467223167419
vt -0.14110404253005981 0.9995005130767822
vt 3.6671721935272217 0.959256649017334
vt 3.66717267036438 0.9938231706619263
vt 4.353227615356445 0.9994996786117554
vt 2.9811177253723145 0.9881466627120972
vt -0.1411026120185852 0.7182693481445312
vt 3.7249884605407715 0.818396806716919
vt 3.7249884605407715 0.9244458079338074
vt 4.353226661682129 0.9303666353225708
vt 3.832665205001831 0.7113751173019409
vt 3.312103748321533 0.7044816017150879
vt 4.353226661682129 0.718268632888794
vt 3.832665205001831 0.560594916343689
vt 0.48705875873565674 0.9244464039802551
vt -0.14110326766967773 0.9303674697875977
vt 1.1152207851409912 0.9185253381729126
vt 3.096750020980835 0.918524980545044
vt 0.7421678304672241 0.400010347366333
vt 0.6730490922927856 0.022145986557006836
vt 0.3005322217941284 0.20200645923614502
vt -0.14110338687896729 0.004002511501312256
vt -0.1411033272743225 0.41670918464660645
vt 3.9115147590637207 0.20200574398040771
vt 4.353226661682129 0.00400155782699585
vt 3.5389206409454346 0.022145509719848633
vt 3.4698028564453125 0.4000098705291748
vt 4.353226661682129 0.41670823097229004
vt 0.3793818950653076 0.5605955719947815
vt 0.0014993548393249512 0.9462341070175171
vt 0.6973482370376587 0.2448805570602417
vt 1.0138278007507324 0.1054542064666748
vt 0.6909944415092468 -0.03397214412689209
vt 1.3303074836730957 -0.03397214412689209
vt 1.3303076028823853 0.23112750053405762
vt 0.3026007413864136 0.24488067626953125
vt 0.3089545667171478 -0.03397202491760254
vt -0.006403297185897827 0.1054544448852539
vt -0.3154073655605316 -0.03397178649902344
vt -0.31540733575820923 0.23112785816192627
vt 0.2718838155269623 0.3400000333786011
vt -0.006403297185897827 0.23800426721572876
vt 0.7280648946762085 0.3400000333786011
vt 1.013827919960022 0.23800402879714966
vt 2.3565502166748047 0.11891233921051025
vt 3.212327480316162 0
vt 2.356550693511963 0
vt 1.5007736682891846 0
vt 0.6449116468429565 0.11891233921051025
vt 0.6452350616455078 0
vt -0.21030348539352417 0
vt 1.010650873184204 -0.3509674072265625
vt 0.6909943222999573 -0.667962908744812
vt 0.690994381904602 -0.35096752643585205
vt 0.2574436068534851 -0.03079962730407715
vt 0.0005022585391998291 -0.030799508094787598
vt 0.000500798225402832 -0.3605605363845825
vt 1.3303073644638062 -0.6679627895355225
vt 1.010650873184204 -0.6679627895355225
vt -0.00322645902633667 -0.35096728801727295
vt -0.3154074549674988 -0.6679625511169434
vt -0.315407395362854 -0.3509671688079834
vt 0.3089544475078583 -0.6679627895355225
vt -0.0032264888286590576 -0.6679626703262329
vt 0.30895450711250305 -0.3509674072265625
vt 0.2574416399002075 -0.6903214454650879
vt 0.0005026161670684814 -0.6903214454650879
vt 0.0005037933588027954 -0.36056041717529297
vt -0.0032263994216918945 -0.03397190570831299
vt 1.3303074836730957 -0.06277680397033691
vt 1.3303074836730957 -0.3653697967529297
vt 1.0106509923934937 -0.04837441444396973
vt -0.21095040440559387 0.2378246784210205
vt 0.6449116468429565 0.2378246784210205
vt 1.5007736682891846 0.2378246784210205
vt 2.3565502166748047 0.2378246784210205
vt 3.212327003479004 0.2378246784210205
vt 3.2172558307647705 0.3264464735984802
vt 3.2172558307647705 0.23417842388153076
vt 2.358736276626587 0.23417842388153076
vt 1.5002167224884033 0.23417842388153076
vt 0.6460717916488647 0.3264464735984802
vt 1.5002167224884033 0.3264464735984802
vt 2.358736276626587 0.3264464735984802
vt 1.0106509923934937 -0.03397214412689209
vt -0.20807316899299622 0.3264464735984802
vt 0.6460717916488647 0.2803124189376831
vt 0.6460717916488647 0.23417842388153076
vt 2.358736276626587 0.2803124189376831
vt 0.12897147238254547 -0.36056065559387207
vt 0.000499337911605835 -0.6903215646743774
vt 0.2574406862258911 -0.690321683883667
vt 0.12897330522537231 -0.36056041717529297
vt 0.0005049705505371094 -0.030799388885498047
vt 0.25744396448135376 -0.030799508094787598
vt 0.25744280219078064 -0.36056041717529297
vt 0.2574421465396881 -0.36056065559387207
vt -0.20807316899299622 0.23417842388153076
vt 0.2574445605278015 0.2322080135345459
vt 0.17173069715499878 0.23220789432525635
vt 0.2574392557144165 0.3400000333786011
vt 0.2574436068534851 0.2322077751159668
vt 0.1717279851436615 0.2322077751159668
vt 0.25743532180786133 0.3400000333786011
vt -0.31540730595588684 0.3400000333786011
vt 1.3303076028823853 0.3400000333786011
vt 1.1487672328948975 0.0010825395584106445
vt 1.576385259628296 -0.29198288917541504
vt 1.1487672328948975 -0.5850484371185303
vt 2.0040035247802734 -0.5850484371185303
vt 2.8591763973236084 -1.1711792945861816
vt 2.4315898418426514 -0.878113865852356
vt 2.8591761589050293 -0.5850484371185303
vt 2.0040035247802734 -1.1711792945861816
vt 1.5763853788375854 -0.878113865852356
vt 1.1487674713134766 -1.1711792945861816
vt 0.2935311198234558 0.0010825395584106445
vt 0.721149206161499 -0.29198288917541504
vt 0.2935313582420349 -0.5850484371185303
vt 2.0040032863616943 0.0010825395584106445
vt 0.7211493849754333 -0.878113865852356
vt 2.8591761589050293 0.0010825395584106445
vt 2.4315896034240723 -0.29198288917541504
vt 0.2935315668582916 -1.1711792945861816
vt 3.2867627143859863 -0.29198288917541504
vt 3.7143492698669434 -0.5850484371185303
vt 3.7143492698669434 0.0010825395584106445
vt 3.2867627143859863 -0.878113865852356
vt 3.7143492698669434 -1.1711792945861816
vt 0.025824980810284615 1.5023244619369507
vt 0.0641564428806305 2.2134861946105957
vt 0.10248790681362152 2.214473247528076
vt -0.07068812847137451 0.3937638998031616
vt -0.09462515264749527 0.3937636613845825
vt -0.09461725503206253 0.004075407981872559
vt -0.07067626714706421 0.009720206260681152
vt -0.09541371464729309 1.3884623050689697
vt 0.10623305290937424 1.4999386072158813
vt -0.0954136922955513 1.6114156246185303
vt -0.11979828029870987 0.0014983415603637695
vt 0.10620351135730743 0.0014983415603637695
vt 0.10620252788066864 0.39118659496307373
vt 0.0641564428806305 0.7979651093482971
vt 0.025824980810284615 0.09360581636428833
vt 0.025824980810284615 0.7979651093482971
vt -0.09462524205446243 0.3937636613845825
vt -0.07068580389022827 0.3937636613845825
vt -0.07067632675170898 0.009720206260681152
vt -0.09461889415979385 0.004075407981872559
vt 0.025824980810284615 2.2134861946105957
vt 0.025824980810284615 2.924647808074951
vt 0.10248790681362152 1.4466232061386108
vt 0.025824980810284615 1.4406505823135376
vt 0.025824980810284615 0.7671282291412354
vt 0.10248790681362152 1.6782578229904175
vt 0.025824980810284615 2.306493639945984
vt 0.025824980810284615 1.6883394718170166
vt 0.025824980810284615 2.924647808074951
vt 0.0641564428806305 2.301452875137329
vt 0.10248790681362152 2.301452875137329
vt 0.0641564428806305 0.7701144814491272
vt 0.025824980810284615 0.09360581636428833
vt 0.005403295159339905 2.206179141998291
vt 0.1062268316745758 2.206178903579712
vt -0.11979975551366806 0.39118659496307373
vt 0.10622061789035797 2.912419080734253
vt 0.10248790681362152 1.5042986869812012
vt 0.005403377115726471 0.7937614321708679
vt 0.106220543384552 0.08758324384689331
vt 0.10622680187225342 0.7937609553337097
vt 0.10248790681362152 0.7989522218704224
vt -0.09542646259069443 2.9124197959899902
vt -0.09542007744312286 2.2619177103042603
vt 0.10248790681362152 2.924647808074951
vt -0.09542001038789749 0.7380232810974121
vt -0.09542630612850189 0.08758425712585449
vt 0.10248790681362152 0.09360581636428833
vt 0.10248790681362152 0.7701144814491272
vt 0.10248790681362152 0.09360581636428833
vt 0.10248790681362152 2.924647808074951
vt 42.554710388183594 41.31245422363281
vt 42.179412841796875 41.31245422363281
vt 42.179412841796875 40.745216369628906
vt 42.554710388183594 40.83133316040039
vt 42.93000793457031 40.745216369628906
vt 42.93000793457031 40.917449951171875
vt 42.179412841796875 41.879695892333984
vt 41.566246032714844 41.879695892333984
vt 41.87282943725586 41.31245422363281
vt 41.566246032714844 40.745216369628906
vt 42.554710388183594 40.745216369628906
vt 41.190895080566406 41.39857482910156
vt 40.81554412841797 40.917449951171875
vt 41.190895080566406 41.31245422363281
vt 40.81554412841797 41.39857482910156
vt 40.81554412841797 41.879695892333984
vt 42.93000793457031 41.39857482910156
vt 42.93000793457031 41.879695892333984
vt 41.190895080566406 40.745216369628906
vt 41.190895080566406 41.879695892333984
vt 41.566246032714844 41.31245422363281
vt 42.554710388183594 41.879695892333984
vt 40.81554412841797 40.745216369628906
vt 42.179412841796875 42.10337829589844
vt 41.566246032714844 42.10337829589844
vt 0.39920732378959656 0.7409895062446594
vt 0.39920735359191895 0.863979697227478
vt 0.0004394960415083915 0.7540196180343628
vt 0.8009461760520935 0.30573588609695435
vt 0.40047308802604675 0.28291887044906616
vt 0.40047308802604675 0.15286791324615479
vt 0.8500000238418579 0.0009990334510803223
vt 1 0.0009990334510803223
vt 1 0.9999999403953552
vt 0.8500000238418579 1.0362860560417175
vt 0.8500000238418579 2
vt 0.8255500197410583 1.0362860560417175
vt 0.7400118112564087 1
vt 0.7979751825332642 0.727959394454956
vt 0.8500000238418579 1
vt 0.925000011920929 1.0362861156463623
vt 0.8500000238418579 0.5868605375289917
vt 0.8500000238418579 1.9276642799377441
vt 0.8009999990463257 0.9072896838188171
vt 0.8255000114440918 0.9643316864967346
vt 0.8011000156402588 2
vt 0.8500000238418579 0.07257217168807983
vt 0.8011000156402588 1.0898337364196777
vt 0.7215039730072021 0
vt 0.8500000238418579 0
vt 0.8009999990463257 1.8135802745819092
vt 0.8009999990463257 0.0009990930557250977
vt 0 0
vt 0 0.260101854801178
vt 0.8500000238418579 0.41313624382019043
vt 0.000439522264059633 1
vt 0.8500000238418579 0.9643316864967346
vt 0.8011000156402588 0.1796674132347107
vt 0.925000011920929 1
vt 1 1.999000906944275
vt 1 2
vt 1 1.000499427318573
vt 1 0
vt 1 0.4997459650039673
vt 1 1
vt 1 0.5002508163452148
vt 1 0.0009987950325012207
g HB030
s 1
f 1/1/1 2/2/2 3/3/3
f 4/4/4 5/5/5 6/6/6
f 4/4/4 6/6/6 7/7/7
f 8/8/8 7/7/7 9/9/9
f 8/8/8 9/9/9 10/10/10
f 11/11/11 12/12/12 13/13/13
f 13/13/13 14/14/14 11/11/11
f 15/15/15 16/16/16 17/17/17
f 16/16/16 18/18/18 19/19/19
f 19/19/19 17/17/17 16/16/16
f 20/20/20 21/21/21 22/22/22
f 20/20/20 22/22/22 23/23/23
f 18/18/18 11/11/11 14/14/14
f 24/24/24 25/25/25 26/26/26
f 24/24/24 26/26/26 21/21/21
f 27/27/27 28/28/28 29/29/29
f 29/29/29 30/30/30 27/27/27
f 31/31/31 32/32/32 33/33/33
f 34/34/34 33/33/33 32/32/32
f 32/32/32 35/35/35 34/34/34
f 36/36/36 37/37/37 38/38/38
f 36/36/36 38/38/38 39/39/39
f 40/40/40 39/39/39 38/38/38
f 40/40/40 38/38/38 37/37/37
f 41/41/41 39/39/39 42/42/42
f 41/41/41 42/42/42 43/43/43
f 44/44/44 43/43/43 42/42/42
f 44/44/44 42/42/42 39/39/39
f 36/36/36 45/45/45 46/46/46
f 36/36/36 46/46/46 47/47/47
f 20/20/20 47/47/47 46/46/46
f 20/20/20 46/46/46 45/45/45
f 41/41/41 48/48/48 49/49/49
f 41/41/41 49/49/49 45/45/45
f 24/24/24 45/45/45 49/49/49
f 24/24/24 49/49/49 48/48/48
f 40/40/40 50/50/50 51/51/51
f 40/40/40 51/51/51 52/52/52
f 28/28/28 34/34/34 35/35/35
f 52/52/52 7/7/7 8/8/8
f 10/10/10 53/53/53 8/8/8
f 8/8/8 53/53/53 52/52/52
f 52/52/52 4/4/4 7/7/7
f 4/4/4 52/52/52 51/51/51
f 5/5/5 4/4/4 51/51/51
f 54/54/54 55/55/55 56/56/56
f 54/54/54 57/57/57 55/55/55
f 58/58/58 59/59/59 60/60/60
f 58/58/58 61/61/61 59/59/59
f 1/1/1 3/3/3 62/62/62
f 14/14/14 19/19/19 18/18/18
f 63/63/63 64/64/64 65/65/65
f 47/47/47 20/20/20 23/23/23
f 21/21/21 20/20/20 45/45/45
f 63/63/63 66/66/66 67/67/67
f 63/63/63 68/68/68 66/66/66
f 69/69/69 66/66/66 68/68/68
f 69/69/69 67/67/67 66/66/66
f 54/54/54 70/70/70 71/71/71
f 54/54/54 72/72/72 70/70/70
f 1/1/1 70/70/70 72/72/72
f 1/1/1 71/71/71 70/70/70
f 58/58/58 64/64/64 73/73/73
f 58/58/58 65/65/65 64/64/64
f 35/35/35 29/29/29 28/28/28
f 63/63/63 73/73/73 64/64/64
f 65/65/65 58/58/58 60/60/60
f 61/61/61 58/58/58 73/73/73
f 71/71/71 57/57/57 54/54/54
f 56/56/56 72/72/72 54/54/54
f 74/74/74 75/75/75 76/76/76
f 76/76/76 75/75/75 77/77/77
f 77/77/77 78/78/78 76/76/76
f 76/76/76 78/78/78 74/74/74
f 79/79/79 80/80/80 81/81/81
f 82/82/82 79/79/79 81/81/81
f 79/79/79 82/82/82 83/83/83
f 80/80/80 79/79/79 83/83/83
f 2/2/2 74/74/74 84/84/84
f 84/84/84 74/74/74 78/78/78
f 78/78/78 62/62/62 84/84/84
f 69/69/69 83/83/83 82/82/82
f 67/67/67 69/69/69 82/82/82
f 83/83/83 69/69/69 68/68/68
f 72/72/72 2/2/2 1/1/1
f 62/62/62 71/71/71 1/1/1
f 73/73/73 63/63/63 67/67/67
f 68/68/68 63/63/63 65/65/65
f 85/85/85 43/43/43 44/44/44
f 39/39/39 52/52/52 44/44/44
f 50/50/50 40/40/40 37/37/37
f 39/39/39 40/40/40 52/52/52
f 43/43/43 48/48/48 41/41/41
f 45/45/45 39/39/39 41/41/41
f 37/37/37 36/36/36 47/47/47
f 45/45/45 36/36/36 39/39/39
f 10/10/10 85/85/85 53/53/53
f 44/44/44 53/53/53 85/85/85
f 44/44/44 52/52/52 53/53/53
f 5/5/5 51/51/51 50/50/50
f 21/21/21 45/45/45 24/24/24
f 48/48/48 25/25/25 24/24/24
f 84/84/84 62/62/62 3/3/3
f 84/84/84 3/3/3 2/2/2
g HB031
s 1
f 86/86/86 87/87/87 88/88/88
f 89/89/89 87/87/87 90/90/90
f 91/91/91 92/92/92 93/93/93
f 94/94/94 95/95/95 93/93/93
f 96/96/96 91/91/91 97/97/97
f 96/96/96 97/97/97 95/95/95
f 93/93/93 95/95/95 97/97/97
f 93/93/93 97/97/97 91/91/91
f 98/98/98 90/90/90 99/99/99
f 98/98/98 99/99/99 86/86/86
f 87/87/87 86/86/86 99/99/99
f 87/87/87 99/99/99 90/90/90
f 100/100/100 101/101/101 102/102/102
f 100/100/100 102/102/102 103/103/103
f 104/104/104 103/103/103 105/105/105
f 104/104/104 105/105/105 106/106/106
f 107/107/107 108/108/108 109/109/109
f 107/107/107 109/109/109 88/88/88
f 110/110/110 111/111/111 112/112/112
f 113/113/113 114/114/114 107/107/107
f 114/114/114 108/108/108 107/107/107
f 115/115/115 116/116/116 117/117/117
f 115/115/115 117/117/117 94/94/94
f 118/118/118 119/119/119 115/115/115
f 119/119/119 116/116/116 115/115/115
f 115/115/115 92/92/92 120/120/120
f 115/115/115 120/120/120 118/118/118
f 121/121/121 122/122/122 123/123/123
f 94/94/94 124/124/124 115/115/115
f 124/124/124 92/92/92 115/115/115
f 93/93/93 92/92/92 124/124/124
f 93/93/93 124/124/124 94/94/94
f 107/107/107 125/125/125 126/126/126
f 107/107/107 126/126/126 113/113/113
f 88/88/88 127/127/127 107/107/107
f 127/127/127 125/125/125 107/107/107
f 127/127/127 89/89/89 125/125/125
f 104/104/104 128/128/128 129/129/129
f 104/104/104 129/129/129 130/130/130
f 100/100/100 130/130/130 131/131/131
f 100/100/100 131/131/131 132/132/132
f 133/133/133 134/134/134 135/135/135
f 136/136/136 137/137/137 138/138/138
f 136/136/136 138/138/138 139/139/139
f 87/87/87 89/89/89 140/140/140
f 87/87/87 140/140/140 88/88/88
f 88/88/88 140/140/140 127/127/127
f 140/140/140 89/89/89 127/127/127
f 141/141/141 142/142/142 143/143/143
f 142/142/142 136/136/136 143/143/143
f 136/136/136 142/142/142 137/137/137
f 142/142/142 141/141/141 137/137/137
f 144/144/144 135/135/135 136/136/136
f 133/133/133 135/135/135 144/144/144
f 144/144/144 139/139/139 133/133/133
f 136/136/136 139/139/139 144/144/144
f 145/145/145 112/112/112 146/146/146
f 110/110/110 112/112/112 145/145/145
f 146/146/146 147/147/147 145/145/145
f 148/148/148 123/123/123 149/149/149
f 121/121/121 123/123/123 148/148/148
f 149/149/149 150/150/150 148/148/148
f 148/148/148 150/150/150 151/151/151
f 148/148/148 151/151/151 121/121/121
f 145/145/145 147/147/147 152/152/152
f 145/145/145 152/152/152 110/110/110
f 141/141/141 143/143/143 153/153/153
f 154/154/154 150/150/150 149/149/149
f 149/149/149 155/155/155 154/154/154
f 156/156/156 154/154/154 155/155/155
f 110/110/110 157/157/157 158/158/158
f 158/158/158 111/111/111 110/110/110
f 159/159/159 158/158/158 157/157/157
f 95/95/95 160/160/160 96/96/96
f 90/90/90 98/98/98 161/161/161
f 103/103/103 104/104/104 130/130/130
f 128/128/128 104/104/104 106/106/106
f 103/103/103 130/130/130 100/100/100
f 132/132/132 101/101/101 100/100/100
g HB032
s 1
f 162/162/162 163/163/163 164/164/164
f 164/164/164 163/163/163 165/165/165
f 166/166/166 167/167/167 168/168/168
f 166/166/166 169/169/169 167/167/167
f 167/167/167 169/169/169 165/165/165
f 168/168/168 167/167/167 165/165/165
f 164/164/164 165/165/165 170/170/170
f 170/170/170 165/165/165 169/169/169
f 169/169/169 171/171/171 170/170/170
f 170/170/170 171/171/171 164/164/164
f 172/172/172 162/162/162 173/173/173
f 173/173/173 162/162/162 164/164/164
f 164/164/164 174/174/174 173/173/173
f 173/173/173 174/174/174 172/172/172
f 163/163/163 175/175/175 165/165/165
f 162/162/162 175/175/175 163/163/163
f 171/171/171 176/176/176 164/164/164
f 175/175/175 177/177/177 178/178/178
f 176/176/176 179/179/179 174/174/174
f 164/164/164 176/176/176 174/174/174
f 168/168/168 165/165/165 178/178/178
f 178/178/178 165/165/165 175/175/175
f 168/168/168 180/180/180 181/181/181
f 180/180/180 182/182/182 181/181/181
f 177/177/177 182/182/182 180/180/180
f 177/177/177 180/180/180 168/168/168
f 183/183/183 181/181/181 184/184/184
f 168/168/168 181/181/181 183/183/183
f 183/183/183 166/166/166 168/168/168
f 184/184/184 166/166/166 183/183/183
f 178/178/178 177/177/177 168/168/168
f 171/171/171 179/179/179 176/176/176
g HB033
s 1
f 185/185/185 186/186/186 187/187/187
f 188/188/188 189/189/189 190/190/190
f 190/190/190 191/191/191 188/188/188
f 192/192/192 193/193/193 194/194/194
f 195/195/195 196/196/196 197/197/197
f 198/198/198 199/199/199 200/200/200
f 201/201/201 202/202/202 203/203/203
f 203/203/203 204/204/204 201/201/201
f 186/186/186 205/205/205 206/206/206
f 186/186/186 185/185/185 205/205/205
f 207/207/207 208/208/208 209/209/209
f 210/210/210 211/211/211 212/212/212
f 213/213/213 214/214/214 215/215/215
f 214/214/214 210/210/210 215/215/215
f 216/216/216 209/209/209 217/217/217
f 207/207/207 209/209/209 216/216/216
f 218/218/218 193/193/193 219/219/219
f 197/197/197 220/220/220 195/195/195
f 218/218/218 219/219/219 221/221/221
f 185/185/185 187/187/187 222/222/222
f 223/223/223 224/224/224 225/225/225
f 223/223/223 225/225/225 193/193/193
f 185/185/185 222/222/222 226/226/226
f 218/218/218 227/227/227 228/228/228
f 218/218/218 228/228/228 194/194/194
f 213/213/213 215/215/215 229/229/229
f 223/223/223 192/192/192 230/230/230
f 223/223/223 230/230/230 231/231/231
f 217/217/217 232/232/232 233/233/233
f 216/216/216 233/233/233 207/207/207
f 217/217/217 233/233/233 216/216/216
f 193/193/193 192/192/192 223/223/223
f 231/231/231 224/224/224 223/223/223
f 193/193/193 218/218/218 194/194/194
f 198/198/198 200/200/200 185/185/185
f 227/227/227 218/218/218 221/221/221
f 214/214/214 213/213/213 211/211/211
f 210/210/210 214/214/214 211/211/211
f 234/234/234 199/199/199 198/198/198
f 185/185/185 226/226/226 198/198/198
f 198/198/198 226/226/226 234/234/234
f 235/235/235 186/186/186 206/206/206
f 186/186/186 235/235/235 187/187/187
g HB034
s 1
f 236/236/236 237/237/237 238/238/238
f 239/239/239 240/240/240 241/241/241
f 238/238/238 239/239/239 236/236/236
f 239/239/239 241/241/241 236/236/236
f 242/242/242 243/243/243 244/244/244
f 245/245/245 238/238/238 244/244/244
f 246/246/246 240/240/240 239/239/239
f 247/247/247 248/248/248 249/249/249
f 247/247/247 250/250/250 248/248/248
f 247/247/247 251/251/251 250/250/250
f 236/236/236 252/252/252 253/253/253
f 236/236/236 241/241/241 252/252/252
f 254/254/254 245/245/245 249/249/249
f 243/243/243 255/255/255 247/247/247
f 244/244/244 256/256/256 245/245/245
f 244/244/244 243/243/243 256/256/256
f 249/249/249 256/256/256 243/243/243
f 249/249/249 245/245/245 256/256/256
f 243/243/243 247/247/247 249/249/249
f 257/257/257 242/242/242 236/236/236
f 253/253/253 257/257/257 236/236/236
f 244/244/244 237/237/237 242/242/242
f 244/244/244 238/238/238 237/237/237
f 255/255/255 251/251/251 247/247/247
f 249/249/249 248/248/248 258/258/258
f 258/258/258 254/254/254 249/249/249
f 238/238/238 246/246/246 239/239/239
f 259/259/259 260/260/260 243/243/243
f 243/243/243 242/242/242 259/259/259
f 236/236/236 242/242/242 237/237/237
g HB035
s 1
f 261/261/261 262/262/262 263/263/263
f 264/264/264 265/265/265 266/266/266
f 267/267/267 268/268/268 269/269/269
f 270/270/270 271/271/271 272/272/272
f 273/273/273 274/274/274 275/275/275
f 276/276/276 271/271/271 270/270/270
f 274/274/274 277/277/277 275/275/275
f 278/278/278 279/279/279 280/280/280
f 272/272/272 271/271/271 281/281/281
f 282/282/282 272/272/272 283/283/283
f 284/284/284 285/285/285 264/264/264
f 278/278/278 286/286/286 279/279/279
f 274/274/274 262/262/262 261/261/261
f 276/276/276 270/270/270 282/282/282
f 280/280/280 279/279/279 287/287/287
f 266/266/266 284/284/284 264/264/264
f 288/288/288 284/284/284 266/266/266
f 266/266/266 289/289/289 288/288/288
f 264/264/264 285/285/285 290/290/290
f 272/272/272 281/281/281 283/283/283
f 262/262/262 291/291/291 263/263/263
f 265/265/265 289/289/289 266/266/266
f 262/262/262 274/274/274 273/273/273
f 282/282/282 270/270/270 272/272/272
f 278/278/278 280/280/280 292/292/292
f 282/282/282 283/283/283 293/293/293
f 292/292/292 280/280/280 267/267/267
f 294/294/294 292/292/292 267/267/267
f 295/295/295 278/278/278 294/294/294
f 267/267/267 269/269/269 294/294/294
f 294/294/294 278/278/278 292/292/292
f 294/294/294 269/269/269 295/295/295
f 280/280/280 287/287/287 267/267/267
f 296/296/296 271/271/271 276/276/276
f 282/282/282 297/297/297 276/276/276
f 276/276/276 297/297/297 296/296/296
f 285/285/285 298/298/298 299/299/299
f 299/299/299 290/290/290 285/285/285
f 300/300/300 275/275/275 277/277/277
f 277/277/277 301/301/301 300/300/300
f 282/282/282 302/302/302 297/297/297
f 291/291/291 262/262/262 273/273/273
