# Exported using wow.export v0.2.19
o 21138_Warrior_Entry.obj
v -26.39469337463379 5.459514617919922 -231.56871032714844
v -26.39469337463379 5.459514617919922 -236.83233642578125
v -26.39469337463379 2.2608139514923096 -236.83233642578125
v -26.394695281982422 0.7844633460044861 -234.80584716796875
v -26.394695281982422 -0.6918871402740479 -234.20053100585938
v -26.39469337463379 2.2608139514923096 -231.56871032714844
v -26.394697189331055 -0.6918873190879822 -238.04296875
v -26.39469337463379 2.2608139514923096 -230.3580780029297
v -26.39469337463379 -0.6918869018554688 -230.3580780029297
v -26.394695281982422 2.2608137130737305 -238.04296875
v -28.407489776611328 -0.6918866634368896 -235.13018798828125
v -30.4202880859375 -0.6918860077857971 -236.1836700439453
v -30.420284271240234 -0.6918860077857971 -232.21739196777344
v -26.394697189331055 -0.6918873190879822 -238.04296875
v -28.40749740600586 -0.6918869614601135 -234.20053100585938
v -32.834293365478516 -0.6918848156929016 -235.88783264160156
v -32.834293365478516 -0.6918848156929016 -232.5132598876953
v -30.42029571533203 -0.6918866038322449 -230.3580780029297
v -26.39469337463379 -0.6918869018554688 -230.3580780029297
v -30.420297622680664 -0.6918870210647583 -238.04296875
v -26.394695281982422 -0.6918871402740479 -234.20053100585938
v -30.42029571533203 2.2608139514923096 -230.3580780029297
v -30.42029571533203 -0.6918866038322449 -230.3580780029297
v -30.420284271240234 -0.6918860077857971 -232.21739196777344
v -30.4202880859375 4.193718433380127 -236.1836700439453
v -30.42029571533203 2.2608139514923096 -236.83233642578125
v -30.42029571533203 5.45952844619751 -236.83233642578125
v -30.42029571533203 5.45952844619751 -231.56871032714844
v -30.4202880859375 4.193718433380127 -232.21739196777344
v -30.42029571533203 2.2608139514923096 -231.56871032714844
v -32.834293365478516 -0.6918848156929016 -232.5132598876953
v -32.834293365478516 3.4648492336273193 -232.5132598876953
v -30.4202880859375 4.193718433380127 -232.21739196777344
v -30.4202880859375 -0.6918860077857971 -236.1836700439453
v -30.420297622680664 2.2608137130737305 -238.04296875
v -30.420297622680664 -0.6918870210647583 -238.04296875
v -32.834293365478516 3.464848518371582 -235.88783264160156
v -32.834293365478516 -0.6918848156929016 -235.88783264160156
v -30.4202880859375 -0.6918860077857971 -236.1836700439453
v -30.4202880859375 4.193718433380127 -236.1836700439453
v -32.834293365478516 3.4648492336273193 -232.5132598876953
v -32.834293365478516 3.464848518371582 -235.88783264160156
v -30.420284271240234 -0.6918860077857971 -232.21739196777344
v -26.547908782958984 3.0310795307159424 -230.3580780029297
v -26.39469337463379 2.2608139514923096 -231.56871032714844
v -26.39469337463379 2.2608139514923096 -230.3580780029297
v -26.547908782958984 3.0310795307159424 -231.56871032714844
v -26.984230041503906 3.68407940864563 -230.3580780029297
v -26.984230041503906 3.68407940864563 -231.56871032714844
v -27.637229919433594 4.120399475097656 -230.3580780029297
v -27.637229919433594 4.120399475097656 -231.56871032714844
v -28.407495498657227 4.273614883422852 -230.3580780029297
v -28.407495498657227 4.273614883422852 -231.56871032714844
v -29.17776107788086 4.120399475097656 -230.3580780029297
v -29.17776107788086 4.120399475097656 -231.56871032714844
v -29.830759048461914 3.684079170227051 -230.3580780029297
v -29.830759048461914 3.684079170227051 -231.56871032714844
v -30.267080307006836 3.0310792922973633 -230.3580780029297
v -30.267080307006836 3.0310792922973633 -231.56871032714844
v -30.42029571533203 2.2608139514923096 -230.3580780029297
v -30.42029571533203 2.2608139514923096 -231.56871032714844
v -30.267080307006836 3.0310792922973633 -231.56871032714844
v -30.42029571533203 2.2608139514923096 -231.56871032714844
v -30.42029571533203 5.45952844619751 -231.56871032714844
v -28.407495498657227 4.273614883422852 -231.56871032714844
v -29.17776107788086 4.120399475097656 -231.56871032714844
v -29.830759048461914 3.684079170227051 -231.56871032714844
v -27.637229919433594 4.120399475097656 -231.56871032714844
v -26.39469337463379 5.459514617919922 -231.56871032714844
v -26.39469337463379 2.2608139514923096 -231.56871032714844
v -26.547908782958984 3.0310795307159424 -231.56871032714844
v -26.984230041503906 3.68407940864563 -231.56871032714844
v -30.42029571533203 5.45952844619751 -231.56871032714844
v -26.886878967285156 5.459516525268555 -232.06089782714844
v -26.39469337463379 5.459514617919922 -231.56871032714844
v -29.928110122680664 5.459526538848877 -232.06089782714844
v -26.99159812927246 5.930757999420166 -232.1656036376953
v -29.823389053344727 5.930767059326172 -232.1656036376953
v -28.407495498657227 4.273614883422852 -236.83233642578125
v -28.40749740600586 4.273614406585693 -238.04296875
v -27.637229919433594 4.120399475097656 -236.83233642578125
v -26.54791259765625 3.0310792922973633 -238.04296875
v -26.394695281982422 2.2608137130737305 -238.04296875
v -26.39469337463379 2.2608139514923096 -236.83233642578125
v -26.547908782958984 3.0310795307159424 -236.83233642578125
v -26.98423194885254 3.684079170227051 -238.04296875
v -26.984230041503906 3.68407940864563 -236.83233642578125
v -27.637231826782227 4.120398998260498 -238.04296875
v -29.17776107788086 4.120398998260498 -238.04296875
v -29.177759170532227 4.120399475097656 -236.83233642578125
v -29.83076286315918 3.6840786933898926 -238.04296875
v -29.830759048461914 3.684079170227051 -236.83233642578125
v -30.2670841217041 3.031078815460205 -238.04296875
v -30.267080307006836 3.0310792922973633 -236.83233642578125
v -30.420297622680664 2.2608137130737305 -238.04296875
v -30.42029571533203 2.2608139514923096 -236.83233642578125
v -30.267080307006836 3.0310792922973633 -236.83233642578125
v -30.42029571533203 5.45952844619751 -236.83233642578125
v -30.42029571533203 2.2608139514923096 -236.83233642578125
v -29.177759170532227 4.120399475097656 -236.83233642578125
v -28.407495498657227 4.273614883422852 -236.83233642578125
v -29.830759048461914 3.684079170227051 -236.83233642578125
v -27.637229919433594 4.120399475097656 -236.83233642578125
v -26.39469337463379 5.459514617919922 -236.83233642578125
v -26.547908782958984 3.0310795307159424 -236.83233642578125
v -26.39469337463379 2.2608139514923096 -236.83233642578125
v -26.984230041503906 3.68407940864563 -236.83233642578125
v -30.42029571533203 5.45952844619751 -231.56871032714844
v -30.42029571533203 5.45952844619751 -236.83233642578125
v -29.928110122680664 5.459526538848877 -236.34014892578125
v -29.928110122680664 5.459526538848877 -232.06089782714844
v -30.42029571533203 5.45952844619751 -236.83233642578125
v -26.39469337463379 5.459514617919922 -236.83233642578125
v -26.886878967285156 5.459516525268555 -236.34014892578125
v -29.928110122680664 5.459526538848877 -236.34014892578125
v -26.39469337463379 5.459514617919922 -236.83233642578125
v -26.39469337463379 5.459514617919922 -231.56871032714844
v -26.886878967285156 5.459516525268555 -232.06089782714844
v -26.886878967285156 5.459516525268555 -236.34014892578125
v -26.991596221923828 5.930757999420166 -236.2354278564453
v -29.823389053344727 5.930767059326172 -236.2354278564453
v -26.99159812927246 5.930757999420166 -232.1656036376953
v -26.991596221923828 5.930757999420166 -236.2354278564453
v -29.823389053344727 5.930767059326172 -236.2354278564453
v -29.823389053344727 5.930767059326172 -232.1656036376953
v -29.823389053344727 5.930767059326172 -236.2354278564453
v -26.99159812927246 5.930757999420166 -232.1656036376953
v -29.823389053344727 5.930767059326172 -232.1656036376953
v -26.991596221923828 5.930757999420166 -236.2354278564453
v -30.420291900634766 3.630953550338745 -237.3158721923828
v -26.394689559936523 3.630953550338745 -237.3158721923828
v -26.394689559936523 3.630953550338745 -237.59877014160156
v -27.700241088867188 2.8047451972961426 -237.47903442382812
v -27.843549728393555 4.273614883422852 -237.561767578125
v -27.556930541992188 4.273614883422852 -237.561767578125
v -27.700241088867188 4.273614883422852 -237.3135528564453
v -27.843549728393555 4.273614883422852 -237.561767578125
v -28.40749168395996 2.8047451972961426 -237.47903442382812
v -28.26418113708496 4.273614883422852 -237.561767578125
v -28.40749168395996 4.273614883422852 -237.3135528564453
v -28.55080223083496 4.273614883422852 -237.561767578125
v -28.26418113708496 4.273614883422852 -237.561767578125
v -28.40749168395996 4.273614883422852 -237.3135528564453
v -28.55080223083496 4.273614883422852 -237.561767578125
v -29.1147403717041 2.8047451972961426 -237.47903442382812
v -28.9714298248291 4.273614883422852 -237.561767578125
v -29.1147403717041 4.273614883422852 -237.3135528564453
v -29.2580509185791 4.273614883422852 -237.561767578125
v -28.9714298248291 4.273614883422852 -237.561767578125
v -29.1147403717041 4.273614883422852 -237.3135528564453
v -29.2580509185791 4.273614883422852 -237.561767578125
v -29.821990966796875 2.8047451972961426 -237.47903442382812
v -29.678680419921875 4.273614883422852 -237.561767578125
v -29.821990966796875 4.273614883422852 -237.3135528564453
v -29.965301513671875 4.273614883422852 -237.561767578125
v -29.678680419921875 4.273614883422852 -237.561767578125
v -29.821990966796875 4.273614883422852 -237.3135528564453
v -29.965301513671875 4.273614883422852 -237.561767578125
v -30.420291900634766 3.630953550338745 -237.59877014160156
v -26.394689559936523 3.348053455352783 -237.3158721923828
v -30.420291900634766 3.348053455352783 -237.3158721923828
v -30.420291900634766 3.348053455352783 -237.59877014160156
v -26.394689559936523 3.348053455352783 -237.59877014160156
v -26.394689559936523 3.630953550338745 -237.3158721923828
v -30.420291900634766 3.630953550338745 -237.3158721923828
v -30.420291900634766 3.348053455352783 -237.3158721923828
v -26.394689559936523 3.348053455352783 -237.3158721923828
v -26.394689559936523 3.630953550338745 -237.59877014160156
v -26.394689559936523 3.348053455352783 -237.59877014160156
v -30.420291900634766 3.348053455352783 -237.59877014160156
v -30.420291900634766 3.630953550338745 -237.59877014160156
v -26.992990493774414 2.8047451972961426 -230.92201232910156
v -27.136301040649414 4.273614883422852 -230.8392791748047
v -26.992990493774414 4.273614883422852 -231.08750915527344
v -27.700241088867188 2.8047451972961426 -230.92201232910156
v -27.700241088867188 4.273614883422852 -231.08750915527344
v -27.556930541992188 4.273614883422852 -230.8392791748047
v -27.556930541992188 4.273614883422852 -237.561767578125
v -27.700241088867188 4.273614883422852 -237.3135528564453
v -26.992990493774414 2.8047451972961426 -237.47903442382812
v -26.992990493774414 4.273614883422852 -237.3135528564453
v -27.136301040649414 4.273614883422852 -237.561767578125
v -27.136301040649414 4.273614883422852 -237.561767578125
v -26.849679946899414 4.273614883422852 -237.561767578125
v -26.849679946899414 4.273614883422852 -237.561767578125
v -26.992990493774414 4.273614883422852 -237.3135528564453
v -27.556930541992188 4.273614883422852 -230.8392791748047
v -27.843551635742188 4.273614883422852 -230.8392791748047
v -29.821990966796875 2.8047451972961426 -230.92201232910156
v -29.821990966796875 4.273614883422852 -231.08750915527344
v -29.678680419921875 4.273614883422852 -230.8392791748047
v -29.678680419921875 4.273614883422852 -230.8392791748047
v -29.965301513671875 4.273614883422852 -230.8392791748047
v -29.965301513671875 4.273614883422852 -230.8392791748047
v -29.821990966796875 4.273614883422852 -231.08750915527344
v -30.420291900634766 3.348053455352783 -230.80227661132812
v -26.394691467285156 3.630953550338745 -230.80227661132812
v -30.420291900634766 3.630953550338745 -230.80227661132812
v -26.394691467285156 3.348053455352783 -230.80227661132812
v -30.420291900634766 3.348053455352783 -231.08517456054688
v -26.394691467285156 3.630953550338745 -231.08517456054688
v -26.394691467285156 3.348053455352783 -231.08517456054688
v -30.420291900634766 3.630953550338745 -231.08517456054688
v -30.420291900634766 3.348053455352783 -230.80227661132812
v -26.394691467285156 3.348053455352783 -231.08517456054688
v -26.394691467285156 3.348053455352783 -230.80227661132812
v -28.40749168395996 2.8047451972961426 -230.92201232910156
v -28.40749168395996 4.273614883422852 -231.08750915527344
v -28.26418113708496 4.273614883422852 -230.8392791748047
v -28.26418113708496 4.273614883422852 -230.8392791748047
v -28.55080223083496 4.273614883422852 -230.8392791748047
v -28.55080223083496 4.273614883422852 -230.8392791748047
v -28.40749168395996 4.273614883422852 -231.08750915527344
v -29.1147403717041 2.8047451972961426 -230.92201232910156
v -29.1147403717041 4.273614883422852 -231.08750915527344
v -28.971431732177734 4.273614883422852 -230.8392791748047
v -28.971431732177734 4.273614883422852 -230.8392791748047
v -29.2580509185791 4.273614883422852 -230.8392791748047
v -29.2580509185791 4.273614883422852 -230.8392791748047
v -29.1147403717041 4.273614883422852 -231.08750915527344
v -26.849679946899414 4.273614883422852 -230.8392791748047
v -27.136301040649414 4.273614883422852 -230.8392791748047
v -26.992990493774414 4.273614883422852 -231.08750915527344
v -26.849679946899414 4.273614883422852 -230.8392791748047
v -30.420291900634766 3.630953550338745 -231.08517456054688
v -26.394691467285156 3.630953550338745 -230.80227661132812
v -26.394691467285156 3.630953550338745 -231.08517456054688
v -30.420291900634766 3.630953550338745 -230.80227661132812
v -30.420291900634766 3.348053455352783 -231.08517456054688
v -27.843551635742188 4.273614883422852 -230.8392791748047
v -27.700241088867188 4.273614883422852 -231.08750915527344
vn -0.5773516297340393 -0.5773493051528931 -0.577349841594696
vn -0.5773515105247498 -0.5773496031761169 0.5773496627807617
vn -0.8892580270767212 -0.08758481591939926 0.4489421248435974
vn -0.7554871439933777 0.4244171679019928 -0.4991084337234497
vn -0.4472135603427887 0.8944272398948669 0
vn -0.889258086681366 -0.08758419007062912 -0.4489421844482422
vn -0.40824824571609497 0.8164966106414795 -0.40824824571609497
vn -0.7037018537521362 -0.06930851191282272 0.7071067690849304
vn -0.40824824571609497 0.8164966106414795 0.40824824571609497
vn -0.7037017941474915 -0.0693090558052063 -0.7071067690849304
vn 0.12714426219463348 0.8128194808959961 -0.5684706568717957
vn 0.6228213906288147 0.5552757978439331 0.5511463284492493
vn 0.6228258013725281 0.5552745461463928 -0.551142692565918
vn -0.40824824571609497 0.8164966106414795 -0.40824824571609497
vn -1.6425117621565732e-7 1 0.0000011862584869959392
vn -0.3661637604236603 0.8335327506065369 0.41369950771331787
vn -0.36613383889198303 0.8335682153701782 -0.41365453600883484
vn 0.4082479774951935 0.8164957761764526 0.40825018286705017
vn -0.40824824571609497 0.8164966106414795 0.40824824571609497
vn 0.40824806690216064 0.8164960145950317 -0.4082496464252472
vn -0.4472135603427887 0.8944272398948669 0
vn 0.7037009000778198 -0.06930845975875854 0.7071077823638916
vn 0.4082479774951935 0.8164957761764526 0.40825018286705017
vn 0.6228258013725281 0.5552745461463928 -0.551142692565918
vn 0.7150934934616089 -0.48527345061302185 0.5031411647796631
vn 0.889259934425354 -0.08758442103862762 0.44893842935562134
vn 0.5773509740829468 -0.5773529410362244 0.577346920967102
vn 0.5773499608039856 -0.5773488879203796 -0.577351987361908
vn 0.7150954604148865 -0.4852682948112488 -0.5031432509422302
vn 0.8892603516578674 -0.08758414536714554 -0.44893768429756165
vn -0.36613383889198303 0.8335682153701782 -0.41365453600883484
vn -0.5977422595024109 -0.556542694568634 -0.5770307183265686
vn 0.7150954604148865 -0.4852682948112488 -0.5031432509422302
vn 0.6228213906288147 0.5552757978439331 0.5511463284492493
vn 0.7037012577056885 -0.06930848956108093 -0.707107424736023
vn 0.40824806690216064 0.8164960145950317 -0.4082496464252472
vn -0.5977346301078796 -0.5565416216850281 0.5770396590232849
vn -0.3661637604236603 0.8335327506065369 0.41369950771331787
vn 0.6228213906288147 0.5552757978439331 0.5511463284492493
vn 0.7150934934616089 -0.48527345061302185 0.5031411647796631
vn -0.5977422595024109 -0.556542694568634 -0.5770307183265686
vn -0.5977346301078796 -0.5565416216850281 0.5770396590232849
vn 0.6228258013725281 0.5552745461463928 -0.551142692565918
vn -0.653281569480896 -0.27059778571128845 0.7071067690849304
vn -0.889258086681366 -0.08758419007062912 -0.4489421844482422
vn -0.7037018537521362 -0.06930851191282272 0.7071067690849304
vn -0.8230928778648376 -0.3409358263015747 -0.4541815221309662
vn -0.5 -0.5 0.7071067690849304
vn -0.6299678683280945 -0.6299678683280945 -0.45418158173561096
vn -0.27059778571128845 -0.653281569480896 0.7071067690849304
vn -0.3409358561038971 -0.8230928778648376 -0.4541815221309662
vn -1.5040392042919848e-7 -0.7071067690849304 0.7071067690849304
vn -1.89499289149353e-7 -0.8909091949462891 -0.4541815221309662
vn 0.2705982029438019 -0.6532814502716064 0.7071067690849304
vn 0.3409363329410553 -0.8230926394462585 -0.45418161153793335
vn 0.5000004172325134 -0.4999995827674866 0.7071067690849304
vn 0.6299684643745422 -0.6299673914909363 -0.4541815221309662
vn 0.653281569480896 -0.27059781551361084 0.7071067690849304
vn 0.8230928778648376 -0.3409358859062195 -0.4541815221309662
vn 0.7037009000778198 -0.06930845975875854 0.7071077823638916
vn 0.8892603516578674 -0.08758414536714554 -0.44893768429756165
vn 0.8230928778648376 -0.3409358859062195 -0.4541815221309662
vn 0.8892603516578674 -0.08758414536714554 -0.44893768429756165
vn 0.5773499608039856 -0.5773488879203796 -0.577351987361908
vn -1.89499289149353e-7 -0.8909091949462891 -0.4541815221309662
vn 0.3409363329410553 -0.8230926394462585 -0.45418161153793335
vn 0.6299684643745422 -0.6299673914909363 -0.4541815221309662
vn -0.3409358561038971 -0.8230928778648376 -0.4541815221309662
vn -0.5773516297340393 -0.5773493051528931 -0.577349841594696
vn -0.889258086681366 -0.08758419007062912 -0.4489421844482422
vn -0.8230928778648376 -0.3409358263015747 -0.4541815221309662
vn -0.6299678683280945 -0.6299678683280945 -0.45418158173561096
vn 0.5773499608039856 -0.5773488879203796 -0.577351987361908
vn -0.4904439151287079 -0.7203675508499146 -0.49044403433799744
vn -0.5773516297340393 -0.5773493051528931 -0.577349841594696
vn 0.49043890833854675 -0.7203710079193115 -0.49044397473335266
vn -0.4904438555240631 -0.7203676104545593 -0.4904440641403198
vn 0.49043896794319153 -0.7203709483146667 -0.49044397473335266
vn 1.8949931757106242e-7 -0.8909091353416443 0.4541815519332886
vn 1.504039488509079e-7 -0.7071067690849304 -0.7071067690849304
vn -0.3409358561038971 -0.8230928778648376 0.4541815221309662
vn -0.6532812714576721 -0.27059847116470337 -0.7071067690849304
vn -0.7037017941474915 -0.0693090558052063 -0.7071067690849304
vn -0.8892580270767212 -0.08758481591939926 0.4489421248435974
vn -0.8230925798416138 -0.34093672037124634 0.4541814625263214
vn -0.5 -0.5 -0.7071067690849304
vn -0.6299678683280945 -0.6299678683280945 0.45418158173561096
vn -0.27059778571128845 -0.653281569480896 -0.7071067690849304
vn 0.2705976963043213 -0.6532816290855408 -0.7071067690849304
vn 0.34093573689460754 -0.8230929374694824 0.4541814923286438
vn 0.4999998211860657 -0.5000001788139343 -0.7071067690849304
vn 0.6299676299095154 -0.6299681067466736 0.45418161153793335
vn 0.653281569480896 -0.27059781551361084 -0.7071067690849304
vn 0.8230928778648376 -0.3409358859062195 0.4541815221309662
vn 0.7037012577056885 -0.06930848956108093 -0.707107424736023
vn 0.889259934425354 -0.08758442103862762 0.44893842935562134
vn 0.8230928778648376 -0.3409358859062195 0.4541815221309662
vn 0.5773509740829468 -0.5773529410362244 0.577346920967102
vn 0.889259934425354 -0.08758442103862762 0.44893842935562134
vn 0.34093573689460754 -0.8230929374694824 0.4541814923286438
vn 1.8949931757106242e-7 -0.8909091353416443 0.4541815519332886
vn 0.6299676299095154 -0.6299681067466736 0.45418161153793335
vn -0.3409358561038971 -0.8230928778648376 0.4541815221309662
vn -0.5773515105247498 -0.5773496031761169 0.5773496627807617
vn -0.8230925798416138 -0.34093672037124634 0.4541814625263214
vn -0.8892580270767212 -0.08758481591939926 0.4489421248435974
vn -0.6299678683280945 -0.6299678683280945 0.45418158173561096
vn 0.5773499608039856 -0.5773488879203796 -0.577351987361908
vn 0.5773509740829468 -0.5773529410362244 0.577346920967102
vn 0.49043890833854675 -0.7203710079193115 0.49044397473335266
vn 0.49043890833854675 -0.7203710079193115 -0.49044397473335266
vn 0.5773509740829468 -0.5773529410362244 0.577346920967102
vn -0.5773515105247498 -0.5773496031761169 0.5773496627807617
vn -0.4904438853263855 -0.7203675508499146 0.4904440641403198
vn 0.49043890833854675 -0.7203710079193115 0.49044397473335266
vn -0.5773515105247498 -0.5773496031761169 0.5773496627807617
vn -0.5773516297340393 -0.5773493051528931 -0.577349841594696
vn -0.4904439151287079 -0.7203675508499146 -0.49044403433799744
vn -0.4904438853263855 -0.7203675508499146 0.4904440641403198
vn -0.4904448091983795 -0.7203666567802429 0.4904444217681885
vn 0.49043896794319153 -0.7203709483146667 0.49044397473335266
vn -0.4904438555240631 -0.7203676104545593 -0.4904440641403198
vn -0.4904448091983795 -0.7203666567802429 0.4904444217681885
vn 0.49043896794319153 -0.7203709483146667 0.49044397473335266
vn 0.49043896794319153 -0.7203709483146667 -0.49044397473335266
vn 0.49043896794319153 -0.7203709483146667 0.49044397473335266
vn -0.4904438555240631 -0.7203676104545593 -0.4904440641403198
vn 0.49043896794319153 -0.7203709483146667 -0.49044397473335266
vn -0.4904448091983795 -0.7203666567802429 0.4904444217681885
vn 0 0.7071067690849304 0.7071067690849304
vn 0 0.7071067690849304 0.7071067690849304
vn 0 0.7071067690849304 -0.7071067690849304
vn -0.000015191204511211254 -1 0.0001789382513379678
vn -0.8605852723121643 -0.11194812506437302 -0.4968506395816803
vn 0.8605864644050598 -0.11194910854101181 -0.4968484342098236
vn -0.000002550849558247137 -0.1119452565908432 0.9937143921852112
vn -0.8605852723121643 -0.11194812506437302 -0.4968506395816803
vn 0 -1 0.00020490401948336512
vn 0.8605864644050598 -0.11194910854101181 -0.4968484342098236
vn 0 -0.1119452714920044 0.9937143921852112
vn -0.8605864644050598 -0.11194910854101181 -0.4968484342098236
vn 0.8605864644050598 -0.11194910854101181 -0.4968484342098236
vn 0 -0.1119452714920044 0.9937143921852112
vn -0.8605864644050598 -0.11194910854101181 -0.4968484342098236
vn 0 -1 0.00020490401948336512
vn 0.8605864644050598 -0.11194910854101181 -0.4968484342098236
vn 0 -0.1119452714920044 0.9937143921852112
vn -0.8605864644050598 -0.11194910854101181 -0.4968484342098236
vn 0.8605864644050598 -0.11194910854101181 -0.4968484342098236
vn 0 -0.1119452714920044 0.9937143921852112
vn -0.8605864644050598 -0.11194910854101181 -0.4968484342098236
vn 0 -1 0.00020490401948336512
vn 0.8605864644050598 -0.11194910854101181 -0.4968484342098236
vn 0 -0.1119452714920044 0.9937143921852112
vn -0.8605864644050598 -0.11194910854101181 -0.4968484342098236
vn 0.8605864644050598 -0.11194910854101181 -0.4968484342098236
vn 0 -0.1119452714920044 0.9937143921852112
vn -0.8605864644050598 -0.11194910854101181 -0.4968484342098236
vn 0 0.7071067690849304 -0.7071067690849304
vn 0 -0.7071067690849304 0.7071067690849304
vn 0 -0.7071067690849304 0.7071067690849304
vn 0 -0.7071067690849304 -0.7071067690849304
vn 0 -0.7071067690849304 -0.7071067690849304
vn 0 0.7071067690849304 0.7071067690849304
vn 0 0.7071067690849304 0.7071067690849304
vn 0 -0.7071067690849304 0.7071067690849304
vn 0 -0.7071067690849304 0.7071067690849304
vn 0 0.7071067690849304 -0.7071067690849304
vn 0 -0.7071067690849304 -0.7071067690849304
vn 0 -0.7071067690849304 -0.7071067690849304
vn 0 0.7071067690849304 -0.7071067690849304
vn 0 -0.9999999403953552 0.000281551037915051
vn -0.8605746030807495 -0.11194910854101181 0.4968689978122711
vn 0 -0.11196339130401611 -0.993712306022644
vn 0 -0.9999999403953552 0.000281551037915051
vn 0 -0.11196339130401611 -0.993712306022644
vn 0.8605746030807495 -0.11194910854101181 0.4968689978122711
vn 0.8605864644050598 -0.11194910854101181 -0.4968484342098236
vn -0.000002550849558247137 -0.1119452565908432 0.9937143921852112
vn -0.000015191204511211254 -1 0.0001789382513379678
vn -0.000002550849558247137 -0.1119452565908432 0.9937143921852112
vn -0.8605852723121643 -0.11194812506437302 -0.4968506395816803
vn -0.8605852723121643 -0.11194812506437302 -0.4968506395816803
vn 0.8605864644050598 -0.11194910854101181 -0.4968484342098236
vn 0.8605864644050598 -0.11194910854101181 -0.4968484342098236
vn -0.000002550849558247137 -0.1119452565908432 0.9937143921852112
vn 0.8605746030807495 -0.11194910854101181 0.4968689978122711
vn -0.8605746030807495 -0.11194910854101181 0.4968689978122711
vn 0 -0.9999999403953552 0.000281551037915051
vn 0 -0.11196339130401611 -0.993712306022644
vn 0.8605746030807495 -0.11194910854101181 0.4968689978122711
vn 0.8605746030807495 -0.11194910854101181 0.4968689978122711
vn -0.8605746030807495 -0.11194910854101181 0.4968689978122711
vn -0.8605746030807495 -0.11194910854101181 0.4968689978122711
vn 0 -0.11196339130401611 -0.993712306022644
vn 0 -0.7071067690849304 0.7071067690849304
vn 0 0.7071067690849304 0.7071067690849304
vn 0 0.7071067690849304 0.7071067690849304
vn 0 -0.7071067690849304 0.7071067690849304
vn 0 -0.7071067690849304 -0.7071067690849304
vn 0 0.7071067690849304 -0.7071067690849304
vn 0 -0.7071067690849304 -0.7071067690849304
vn 0 0.7071067690849304 -0.7071067690849304
vn 0 -0.7071067690849304 0.7071067690849304
vn 0 -0.7071067690849304 -0.7071067690849304
vn 0 -0.7071067690849304 0.7071067690849304
vn 0 -0.9999999403953552 0.000281551037915051
vn 0 -0.11196339130401611 -0.993712306022644
vn 0.8605746030807495 -0.11194910854101181 0.4968689978122711
vn 0.8605746030807495 -0.11194910854101181 0.4968689978122711
vn -0.8605746030807495 -0.11194910854101181 0.4968689978122711
vn -0.8605746030807495 -0.11194910854101181 0.4968689978122711
vn 0 -0.11196339130401611 -0.993712306022644
vn 0.000030380842872546054 -0.9999999403953552 0.00033383601112291217
vn 0.000005102130671730265 -0.11196339130401611 -0.993712306022644
vn 0.8605722188949585 -0.11194714903831482 0.4968734681606293
vn 0.8605722188949585 -0.11194714903831482 0.4968734681606293
vn -0.8605746030807495 -0.11194910854101181 0.4968689978122711
vn -0.8605746030807495 -0.11194910854101181 0.4968689978122711
vn 0.000005102130671730265 -0.11196339130401611 -0.993712306022644
vn 0.8605746030807495 -0.11194910854101181 0.4968689978122711
vn -0.8605746030807495 -0.11194910854101181 0.4968689978122711
vn 0 -0.11196339130401611 -0.993712306022644
vn 0.8605746030807495 -0.11194910854101181 0.4968689978122711
vn 0 0.7071067690849304 -0.7071067690849304
vn 0 0.7071067690849304 0.7071067690849304
vn 0 0.7071067690849304 -0.7071067690849304
vn 0 0.7071067690849304 0.7071067690849304
vn 0 -0.7071067690849304 -0.7071067690849304
vn -0.8605746030807495 -0.11194910854101181 0.4968689978122711
vn 0 -0.11196339130401611 -0.993712306022644
vt 0.23681455850601196 1.9989964962005615
vt 1.2631852626800537 1.9989964962005615
vt 1.2631852626800537 0.9600470662117004
vt 0.8680325746536255 0.48052310943603516
vt 0.7499999403953552 0.000999152660369873
vt 0.23681455850601196 0.9600470662117004
vt 1.4992506504058838 0.000999152660369873
vt 0.0007492303848266602 0.9600470662117004
vt 0.0007492303848266602 0.000999152660369873
vt 1.4992506504058838 0.9600470662117004
vt 5.49518346786499 8.758386611938477
vt 5.715707778930664 9.209478378295898
vt 4.885457992553711 9.209479331970215
vt 6.1049089431762695 8.307293891906738
vt 5.300581932067871 8.758386611938477
vt 5.653780937194824 9.750490188598633
vt 4.947393417358398 9.750490188598633
vt 4.496255397796631 9.209479331970215
vt 4.496254920959473 8.307293891906738
vt 6.1049089431762695 9.209478378295898
vt 5.300581932067871 8.307293891906738
vt 1.999000906944275 0.9600469470024109
vt 1.999000906944275 0.0009990930557250977
vt 1.5155987739562988 0.0009989738464355469
vt 0.4844013452529907 1.5878610610961914
vt 0.31575286388397217 0.9600469470024109
vt 0.31575286388397217 1.9990010261535645
vt 1.6842471361160278 1.9990010261535645
vt 1.515599250793457 1.5878612995147705
vt 1.6842471361160278 0.9600469470024109
vt 0.9994950890541077 0.0005431175231933594
vt 0.9994950294494629 0.9995005130767822
vt 0 1
vt 0.48440128564834595 0.0009989738464355469
vt 0.0009990930557250977 0.9600469470024109
vt 0.0009990930557250977 0.0009990930557250977
vt 0.0005053877830505371 0.9995002746582031
vt 0.0005053877830505371 0.0005431175231933594
vt 0.9995003938674927 0.0005431175231933594
vt 0.9995005130767822 0.9995002746582031
vt 0 0
vt 1 0
vt 0.0004999637603759766 0.0005431175231933594
vt 1.106796145439148 1.3531461954116821
vt -0.10679610818624496 1.6000043153762817
vt 1.106796145439148 1.606112003326416
vt -0.10679610818624496 1.3480002880096436
vt 1.106796145439148 1.1475603580474854
vt -0.10679610818624496 1.1424144506454468
vt 1.106796145439148 0.8443197011947632
vt -0.10679610818624496 0.8391737937927246
vt 1.106796145439148 0.48959028720855713
vt -0.10679610818624496 0.48444437980651855
vt 1.106796145439148 0.1373763084411621
vt -0.10679610818624496 0.13223040103912354
vt 1.106796145439148 -0.15870094299316406
vt -0.10679610818624496 -0.16384673118591309
vt 1.106796145439148 -0.35356616973876953
vt -0.10679610818624496 -0.35871195793151855
vt 1.106796145439148 -0.5865159034729004
vt -0.10679610818624496 -0.5926237106323242
vt -0.057429175823926926 0.2765917181968689
vt -0.10335693508386612 0.04976654052734375
vt -0.10335678607225418 0.9995003938674927
vt 0.49999985098838806 0.6227558851242065
vt 0.2691052258014679 0.5866914391517639
vt 0.07336211949586868 0.46513473987579346
vt 0.7308945655822754 0.5678377151489258
vt 1.1033570766448975 0.9502291679382324
vt 1.1033568382263184 0.0004993677139282227
vt 1.0574288368225098 0.23107492923736572
vt 0.926637589931488 0.43029773235321045
vt 0.8964931964874268 0.0004994869232177734
vt 0.9959364533424377 0.8773587942123413
vt 0.8964948654174805 0.9995004534721375
vt 0.9959352016448975 0.12264108657836914
vt 1.1119930744171143 0.8513716459274292
vt 1.1119918823242188 0.1486290693283081
vt -0.10679610818624496 0.48444437980651855
vt 1.106796145439148 0.48959028720855713
vt -0.10679610818624496 0.8391737937927246
vt 1.106796145439148 1.3531461954116821
vt 1.106796145439148 1.606112003326416
vt -0.10679610818624496 1.6000043153762817
vt -0.10679610818624496 1.3480002880096436
vt 1.106796145439148 1.1475603580474854
vt -0.10679610818624496 1.1424144506454468
vt 1.106796145439148 0.8443197011947632
vt 1.106796145439148 0.1373763084411621
vt -0.10679610818624496 0.13223040103912354
vt 1.106796145439148 -0.15870094299316406
vt -0.10679610818624496 -0.16384673118591309
vt 1.106796145439148 -0.35356616973876953
vt -0.10679610818624496 -0.35871195793151855
vt 1.106796145439148 -0.5865159034729004
vt -0.10679610818624496 -0.5926237106323242
vt -0.057429175823926926 0.2765917181968689
vt -0.10335678607225418 0.9995003938674927
vt -0.10335693508386612 0.04976654052734375
vt 0.2691052258014679 0.5866914391517639
vt 0.49999985098838806 0.6227558851242065
vt 0.07336211949586868 0.46513473987579346
vt 0.7308945655822754 0.5678377151489258
vt 1.1033570766448975 0.9502291679382324
vt 1.0574288368225098 0.23107492923736572
vt 1.1033568382263184 0.0004993677139282227
vt 0.926637589931488 0.43029773235321045
vt 1.109989047050476 0.9995005130767822
vt 1.1099883317947388 0.0004995465278625488
vt 0.9994732737541199 0.09391283988952637
vt 0.9994738101959229 0.9060872197151184
vt 0.8964931964874268 0.0004994869232177734
vt 0.8964948654174805 0.9995004534721375
vt 0.9959364533424377 0.8773587942123413
vt 0.9959352016448975 0.12264108657836914
vt 1.1084405183792114 0.999500572681427
vt 1.1084367036819458 0.0004993677139282227
vt 0.9994931221008301 0.09146654605865479
vt 0.9994962215423584 0.9036411643028259
vt 1.1119930744171143 0.8513716459274292
vt 1.1119918823242188 0.1486290693283081
vt 0.8956049680709839 0.10514497756958008
vt 0.8956078290939331 0.8775692582130432
vt 0.8964936137199402 0.11378800868988037
vt 0.8964940905570984 0.8862119913101196
vt 0.0014987289905548096 0.0009998083114624023
vt 2.9985013008117676 1.9990003108978271
vt 2.9985008239746094 0.0009990930557250977
vt 0.001499176025390625 1.9990010261535645
vt 0.0004994869232177734 0.9906183481216431
vt 2 0.9906183481216431
vt 2 0.5966183543205261
vt -0.23595815896987915 0.36985504627227783
vt 0.7640418410301208 0.1393236517906189
vt 0.7547661662101746 0.4106280207633972
vt 0.7640418410301208 0.1393236517906189
vt 0.7547661662101746 0.4106280207633972
vt -0.23595815896987915 0.36985504627227783
vt 0.7640418410301208 0.1393236517906189
vt 0.7547661662101746 0.4106280207633972
vt 0.7640418410301208 0.1393236517906189
vt 0.7547661662101746 0.4106280207633972
vt 0.7640418410301208 0.1393236517906189
vt 0.7547661662101746 0.4106280207633972
vt -0.23595815896987915 0.36985504627227783
vt 0.7640418410301208 0.1393236517906189
vt 0.7547661662101746 0.4106280207633972
vt 0.7640418410301208 0.1393236517906189
vt 0.7547661662101746 0.4106280207633972
vt 0.7640418410301208 0.1393236517906189
vt 0.7547661662101746 0.4106280207633972
vt -0.23595815896987915 0.36985504627227783
vt 0.7640418410301208 0.1393236517906189
vt 0.7547661662101746 0.4106280207633972
vt 0.7640418410301208 0.1393236517906189
vt 0.7547661662101746 0.4106280207633972
vt 0.7640418410301208 0.1393236517906189
vt 0.7547661662101746 0.4106280207633972
vt 0.0004994869232177734 0.5966183543205261
vt 2.000000238418579 0.5942028164863586
vt 0.000499725341796875 0.5942028164863586
vt 0.000499725341796875 0.9882028102874756
vt 2.000000238418579 0.9882028102874756
vt 1.9990010261535645 0.9995002746582031
vt 0.0009990930557250977 0.9995002746582031
vt 0.0009990930557250977 0.542165994644165
vt 1.9990010261535645 0.542165994644165
vt 0.0009989738464355469 0.5776733756065369
vt 0.0009989738464355469 0.9995003938674927
vt 1.999000906944275 0.9995003938674927
vt 1.999000906944275 0.5776733756065369
vt -0.23595815896987915 0.36985504627227783
vt 0.7547661662101746 0.4106280207633972
vt 0.7640418410301208 0.1393236517906189
vt -0.23595815896987915 0.36985504627227783
vt 0.7547661662101746 0.4106280207633972
vt 0.7640418410301208 0.1393236517906189
vt 0.7640418410301208 0.1393236517906189
vt 0.7547661662101746 0.4106280207633972
vt -0.23595815896987915 0.36985504627227783
vt 0.7640418410301208 0.1393236517906189
vt 0.7547661662101746 0.4106280207633972
vt 0.7640418410301208 0.1393236517906189
vt 0.7547661662101746 0.4106280207633972
vt 0.7640418410301208 0.1393236517906189
vt 0.7547661662101746 0.4106280207633972
vt 0.7547661662101746 0.4106280207633972
vt 0.7640418410301208 0.1393236517906189
vt -0.23595815896987915 0.36985504627227783
vt 0.7547661662101746 0.4106280207633972
vt 0.7640418410301208 0.1393236517906189
vt 0.7547661662101746 0.4106280207633972
vt 0.7640418410301208 0.1393236517906189
vt 0.7547661662101746 0.4106280207633972
vt 0.7640418410301208 0.1393236517906189
vt 1.999000906944275 0.9995003938674927
vt 0.0009989738464355469 0.5776733756065369
vt 1.999000906944275 0.5776733756065369
vt 0.0009989738464355469 0.9995003938674927
vt 0.0009990930557250977 0.542165994644165
vt 1.9990010261535645 0.9995002746582031
vt 1.9990010261535645 0.542165994644165
vt 0.0009990930557250977 0.9995002746582031
vt 0.000499725341796875 0.9882028102874756
vt 2.000000238418579 0.5942028164863586
vt 2.000000238418579 0.9882028102874756
vt -0.23595815896987915 0.36985504627227783
vt 0.7547661662101746 0.4106280207633972
vt 0.7640418410301208 0.1393236517906189
vt 0.7547661662101746 0.4106280207633972
vt 0.7640418410301208 0.1393236517906189
vt 0.7547661662101746 0.4106280207633972
vt 0.7640418410301208 0.1393236517906189
vt -0.23595815896987915 0.36985504627227783
vt 0.7547661662101746 0.4106280207633972
vt 0.7640418410301208 0.1393236517906189
vt 0.7547661662101746 0.4106280207633972
vt 0.7640418410301208 0.1393236517906189
vt 0.7547661662101746 0.4106280207633972
vt 0.7640418410301208 0.1393236517906189
vt 0.7547661662101746 0.4106280207633972
vt 0.7640418410301208 0.1393236517906189
vt 0.7547661662101746 0.4106280207633972
vt 0.7640418410301208 0.1393236517906189
vt 0.0004994869232177734 0.9906183481216431
vt 2 0.5966183543205261
vt 2 0.9906183481216431
vt 0.0004994869232177734 0.5966183543205261
vt 0.000499725341796875 0.5942028164863586
vt 0.7547661662101746 0.4106280207633972
vt 0.7640418410301208 0.1393236517906189
g Warrior_Entry0
s 1
f 1/1/1 2/2/2 3/3/3
f 4/4/4 5/5/5 6/6/6
f 7/7/7 5/5/5 4/4/4
f 8/8/8 6/6/6 9/9/9
f 10/10/10 7/7/7 3/3/3
f 4/4/4 3/3/3 7/7/7
f 3/3/3 6/6/6 1/1/1
f 5/5/5 9/9/9 6/6/6
f 6/6/6 3/3/3 4/4/4
g Warrior_Entry1
s 1
f 11/11/11 12/12/12 13/13/13
f 14/14/14 12/12/12 11/11/11
f 11/11/11 15/15/15 14/14/14
f 13/13/13 15/15/15 11/11/11
f 13/13/13 16/16/16 17/17/17
f 13/13/13 12/12/12 16/16/16
f 18/18/18 19/19/19 15/15/15
f 13/13/13 18/18/18 15/15/15
f 14/14/14 20/20/20 12/12/12
f 15/15/15 19/19/19 21/21/21
f 15/15/15 21/21/21 14/14/14
g Warrior_Entry2
s 1
f 22/22/22 23/23/23 24/24/24
f 25/25/25 26/26/26 27/27/27
f 25/25/25 27/27/27 28/28/28
f 29/29/29 28/28/28 30/30/30
f 29/29/29 30/30/30 24/24/24
f 25/25/25 28/28/28 29/29/29
f 31/31/31 32/32/32 33/33/33
f 34/34/34 35/35/35 26/26/26
f 35/35/35 34/34/34 36/36/36
f 37/37/37 38/38/38 39/39/39
f 24/24/24 30/30/30 22/22/22
f 25/25/25 34/34/34 26/26/26
f 40/40/40 33/33/33 41/41/41
f 41/41/41 42/42/42 40/40/40
f 33/33/33 43/43/43 31/31/31
f 39/39/39 40/40/40 37/37/37
g Warrior_Entry3
s 1
f 44/44/44 45/45/45 46/46/46
f 47/47/47 45/45/45 44/44/44
f 48/48/48 47/47/47 44/44/44
f 49/49/49 47/47/47 48/48/48
f 50/50/50 49/49/49 48/48/48
f 51/51/51 49/49/49 50/50/50
f 52/52/52 51/51/51 50/50/50
f 53/53/53 51/51/51 52/52/52
f 54/54/54 53/53/53 52/52/52
f 55/55/55 53/53/53 54/54/54
f 56/56/56 55/55/55 54/54/54
f 57/57/57 55/55/55 56/56/56
f 58/58/58 57/57/57 56/56/56
f 59/59/59 57/57/57 58/58/58
f 60/60/60 59/59/59 58/58/58
f 61/61/61 59/59/59 60/60/60
f 62/62/62 63/63/63 64/64/64
f 64/64/64 65/65/65 66/66/66
f 67/67/67 62/62/62 64/64/64
f 64/64/64 66/66/66 67/67/67
f 68/68/68 65/65/65 69/69/69
f 69/69/69 70/70/70 71/71/71
f 72/72/72 68/68/68 69/69/69
f 69/69/69 71/71/71 72/72/72
f 65/65/65 64/64/64 69/69/69
f 73/73/73 74/74/74 75/75/75
f 74/74/74 73/73/73 76/76/76
f 76/76/76 77/77/77 74/74/74
f 77/77/77 76/76/76 78/78/78
f 79/79/79 80/80/80 81/81/81
f 82/82/82 83/83/83 84/84/84
f 85/85/85 82/82/82 84/84/84
f 86/86/86 82/82/82 85/85/85
f 87/87/87 86/86/86 85/85/85
f 88/88/88 86/86/86 87/87/87
f 81/81/81 88/88/88 87/87/87
f 80/80/80 88/88/88 81/81/81
f 89/89/89 80/80/80 79/79/79
f 90/90/90 89/89/89 79/79/79
f 91/91/91 89/89/89 90/90/90
f 92/92/92 91/91/91 90/90/90
f 93/93/93 91/91/91 92/92/92
f 94/94/94 93/93/93 92/92/92
f 95/95/95 93/93/93 94/94/94
f 96/96/96 95/95/95 94/94/94
f 97/97/97 98/98/98 99/99/99
f 98/98/98 100/100/100 101/101/101
f 102/102/102 98/98/98 97/97/97
f 98/98/98 102/102/102 100/100/100
f 103/103/103 104/104/104 101/101/101
f 104/104/104 105/105/105 106/106/106
f 107/107/107 104/104/104 103/103/103
f 104/104/104 107/107/107 105/105/105
f 101/101/101 104/104/104 98/98/98
f 108/108/108 109/109/109 110/110/110
f 110/110/110 111/111/111 108/108/108
f 112/112/112 113/113/113 114/114/114
f 114/114/114 115/115/115 112/112/112
f 116/116/116 117/117/117 118/118/118
f 118/118/118 119/119/119 116/116/116
f 115/115/115 114/114/114 120/120/120
f 120/120/120 121/121/121 115/115/115
f 119/119/119 118/118/118 122/122/122
f 122/122/122 123/123/123 119/119/119
f 111/111/111 110/110/110 124/124/124
f 124/124/124 125/125/125 111/111/111
g Warrior_Entry4
s 1
f 126/126/126 127/127/127 128/128/128
f 126/126/126 129/129/129 127/127/127
g Warrior_Entry5
s 1
f 130/130/130 131/131/131 132/132/132
f 133/133/133 134/134/134 135/135/135
f 133/133/133 136/136/136 137/137/137
f 138/138/138 139/139/139 140/140/140
f 138/138/138 141/141/141 142/142/142
f 138/138/138 143/143/143 144/144/144
f 145/145/145 146/146/146 147/147/147
f 145/145/145 148/148/148 149/149/149
f 145/145/145 150/150/150 151/151/151
f 152/152/152 153/153/153 154/154/154
f 152/152/152 155/155/155 156/156/156
f 152/152/152 157/157/157 158/158/158
f 132/132/132 159/159/159 130/130/130
f 160/160/160 161/161/161 162/162/162
f 162/162/162 163/163/163 160/160/160
f 164/164/164 165/165/165 166/166/166
f 166/166/166 167/167/167 164/164/164
f 168/168/168 169/169/169 170/170/170
f 170/170/170 171/171/171 168/168/168
f 172/172/172 173/173/173 174/174/174
f 175/175/175 176/176/176 177/177/177
f 133/133/133 178/178/178 179/179/179
f 180/180/180 181/181/181 182/182/182
f 180/180/180 183/183/183 184/184/184
f 180/180/180 185/185/185 186/186/186
f 175/175/175 187/187/187 188/188/188
f 189/189/189 190/190/190 191/191/191
f 189/189/189 192/192/192 193/193/193
f 189/189/189 194/194/194 195/195/195
f 196/196/196 197/197/197 198/198/198
f 197/197/197 196/196/196 199/199/199
f 200/200/200 201/201/201 202/202/202
f 201/201/201 200/200/200 203/203/203
f 204/204/204 205/205/205 206/206/206
f 207/207/207 208/208/208 209/209/209
f 207/207/207 210/210/210 211/211/211
f 207/207/207 212/212/212 213/213/213
f 214/214/214 215/215/215 216/216/216
f 214/214/214 217/217/217 218/218/218
f 214/214/214 219/219/219 220/220/220
f 172/172/172 221/221/221 222/222/222
f 172/172/172 223/223/223 224/224/224
f 225/225/225 226/226/226 227/227/227
f 226/226/226 225/225/225 228/228/228
f 205/205/205 204/204/204 229/229/229
f 175/175/175 230/230/230 231/231/231
