# Exported using wow.export v0.2.19
o 21138_BW01.obj
v -168.93475341796875 6.45723819732666 -52.52763366699219
v -170.16390991210938 7.019091606140137 -52.7498664855957
v -173.82684326171875 6.73816442489624 -52.18916320800781
v -175.00631713867188 6.73816442489624 -52.06520080566406
v -165.27182006835938 6.738164901733398 -53.08833312988281
v -161.60887145996094 7.019092082977295 -53.6490364074707
v -165.88638305664062 7.019091606140137 -53.1994514465332
v -178.7189483642578 7.01909065246582 -51.8506965637207
v -174.44143676757812 7.0190911293029785 -52.3002815246582
v -176.01174926757812 2.9142699241638184 -51.382503509521484
v -178.6223907470703 1.0213475227355957 -50.93366241455078
v -176.69155883789062 1.1678755283355713 -51.13660430908203
v -167.8124542236328 5.688353061676025 -52.56789016723633
v -171.29367065429688 6.45723819732666 -52.279701232910156
v -172.39981079101562 5.688351631164551 -52.08573913574219
v -174.4640655517578 4.585015773773193 -51.7322883605957
v -164.13323974609375 2.9142696857452393 -52.630985260009766
v -163.4171600341797 1.1678763628005981 -52.531795501708984
v -161.5126495361328 1.0193716287612915 -52.73196792602539
v -168.9129180908203 5.967406272888184 -52.47121047973633
v -165.7198028564453 4.58501672744751 -52.651344299316406
v -171.3032989501953 5.967405796051025 -52.219966888427734
v -168.88658142089844 2.2054359912872314 -40.33812713623047
v -168.8417510986328 3.47685170173645 -39.9266471862793
v -164.57403564453125 2.6497902870178223 -40.58329772949219
v -160.30477905273438 1.965924859046936 -41.240108489990234
v -160.26150512695312 3.094144582748413 -40.828468322753906
v -164.54283142089844 3.7958755493164062 -40.29408264160156
v -168.8017120361328 4.596399784088135 -39.73902893066406
v -164.52281188964844 4.355649948120117 -40.20027160644531
v -160.24391174316406 4.114899635314941 -40.66151809692383
v -173.128173828125 2.7213938236236572 -39.68421936035156
v -160.35220336914062 1.2244341373443604 -41.691043853759766
v -164.64361572265625 1.2791321277618408 -41.23999786376953
v -164.61990356445312 1.6498774290084839 -41.01453399658203
v -168.93504333496094 1.3338299989700317 -40.78895568847656
v -177.37136840820312 3.0732357501983643 -39.03014373779297
v -177.41461181640625 1.9659358263015747 -39.441795349121094
v -164.5516357421875 3.2854981422424316 -40.37755584716797
v -173.17428588867188 1.7159326076507568 -40.11542892456055
v -173.19851684570312 1.2801296710968018 -40.340843200683594
v -173.15060424804688 2.085685968399048 -39.88996124267578
v -177.46197509765625 1.2264292240142822 -39.892730712890625
v -173.1065673828125 3.2750437259674072 -39.4783935546875
v -173.0966033935547 3.77874755859375 -39.38352966308594
v -164.59567260742188 2.0856804847717285 -40.78911590576172
v -177.35145568847656 4.080643177032471 -38.84041213989258
v -173.0765838623047 4.338521480560303 -39.28971862792969
v -163.50328063964844 0.8893489837646484 -51.14756393432617
v -161.32054138183594 0.6109695434570312 -50.90418243408203
v -161.5126495361328 1.0193716287612915 -52.73196792602539
v -178.43104553222656 0.5674980878829956 -49.11311721801758
v -176.3195343017578 0.8893479108810425 -49.80052185058594
v -178.6223907470703 1.0213475227355957 -50.93366241455078
v -178.4063262939453 -2.6601040363311768 -48.87881088256836
v -174.12210083007812 -2.6601028442382812 -49.329097747802734
v -174.116943359375 0.69920814037323 -49.54707336425781
v -174.8297119140625 0.889348566532135 -49.95710754394531
v -176.69155883789062 1.1678755283355713 -51.13660430908203
v -165.67892456054688 0.6992097496986389 -51.14492416381836
v -165.6511993408203 -2.6601011753082275 -51.1479377746582
v -165.55465698242188 -2.6601028442382812 -50.229576110839844
v -165.6050262451172 0.69920814037323 -50.441707611083984
v -174.17034912109375 -8.424009323120117 -49.788307189941406
v -174.21859741210938 -8.424007415771484 -50.24737548828125
v -174.21859741210938 -4.643805503845215 -50.24751663208008
v -163.4171600341797 1.1678763628005981 -52.531795501708984
v -165.55465698242188 -2.6601028442382812 -50.229576110839844
v -161.29676818847656 -2.660102367401123 -50.67710494995117
v -165.6029052734375 -7.432157039642334 -50.68864059448242
v -165.65118408203125 -8.4240083694458 -51.147850036621094
v -165.6511688232422 -12.204211235046387 -51.147705078125
v -165.65118408203125 -4.643805027008057 -51.14799118041992
v -174.12210083007812 -12.20421314239502 -49.329097747802734
v -174.21859741210938 -12.204209327697754 -50.24723815917969
v -174.12210083007812 -7.43215799331665 -49.329097747802734
v -174.12210083007812 -2.6601028442382812 -49.329097747802734
v -174.21861267089844 -2.6601011753082275 -50.24746322631836
v -165.55465698242188 -2.6601028442382812 -50.229576110839844
v -165.6511993408203 -2.6601011753082275 -51.1479377746582
v -176.26409912109375 -7.43215799331665 -49.103965759277344
v -178.4060821533203 -12.20421314239502 -48.87883377075195
v -174.12210083007812 -12.20421314239502 -49.329097747802734
v -163.42572021484375 -7.432157516479492 -50.453338623046875
v -165.55465698242188 -12.20421314239502 -50.229576110839844
v -161.29701232910156 -12.20421314239502 -50.67708206176758
v -174.12210083007812 -7.43215799331665 -49.329097747802734
v -165.55465698242188 -12.20421314239502 -50.229576110839844
v -178.4062042236328 -7.432158470153809 -48.878822326660156
v -165.55465698242188 -7.43215799331665 -50.229576110839844
v -165.55465698242188 -7.43215799331665 -50.229576110839844
v -161.29689025878906 -7.432157516479492 -50.677093505859375
v -165.0166015625 0.952698826789856 -51.21453094482422
v -165.6050262451172 0.69920814037323 -50.441707611083984
v -164.99310302734375 0.8893494009971619 -50.9909782409668
v -165.0166015625 0.952698826789856 -51.21453094482422
v -174.19085693359375 0.6992098689079285 -50.25028610229492
v -174.116943359375 0.69920814037323 -49.54707336425781
v -174.19085693359375 0.6992098689079285 -50.25028610229492
v -174.8532257080078 0.9526985883712769 -50.1806640625
v -174.8297119140625 0.889348566532135 -49.95710754394531
v -174.8297119140625 0.889348566532135 -49.95710754394531
v -165.6050262451172 0.69920814037323 -50.441707611083984
v -164.99310302734375 0.8893494009971619 -50.9909782409668
v -173.07369995117188 6.140362739562988 -39.28736877441406
v -173.0738525390625 4.767216682434082 -39.28912353515625
v -177.35145568847656 4.080643177032471 -38.84041213989258
v -173.0765838623047 4.338521480560303 -39.28971862792969
v -168.79611206054688 6.826936721801758 -39.73607635498047
v -164.5186767578125 6.140364646911621 -40.18653869628906
v -168.7962646484375 5.453790664672852 -39.737831115722656
v -164.5299072265625 -0.9217660427093506 -40.29236602783203
v -168.8073272705078 -0.27347850799560547 -39.84300994873047
v -164.52992248535156 0.3748093247413635 -40.29280090332031
v -177.3511505126953 6.826934814453125 -38.8369026184082
v -173.07363891601562 6.826935768127441 -39.28649139404297
v -168.83566284179688 1.090617299079895 -39.8404655456543
v -164.54409790039062 1.0568572282791138 -40.291526794433594
v -160.2525177001953 1.0230971574783325 -40.74258804321289
v -168.80731201171875 -1.5700538158416748 -39.84257507324219
v -173.084716796875 -1.570054054260254 -39.393001556396484
v -173.08473205566406 -0.9217663407325745 -39.393218994140625
v -177.3621368408203 -1.5700541734695435 -38.94342803955078
v -164.52139282226562 5.711668968200684 -40.187137603759766
v -160.24107360839844 6.826938152313232 -40.63524627685547
v -160.25250244140625 -1.5700535774230957 -40.741722106933594
v -168.8017120361328 4.596399784088135 -39.73902893066406
v -164.51858520507812 6.826937675476074 -40.18566131591797
v -173.09896850585938 1.0551276206970215 -39.392372131347656
v -173.09890747070312 -0.23971843719482422 -39.391944885253906
v -164.5299072265625 -1.5700536966323853 -40.29214859008789
v -177.36228942871094 1.0196380615234375 -38.944278717041016
v -160.24391174316406 4.114899635314941 -40.66151809692383
v -164.52281188964844 4.355649948120117 -40.20027160644531
v -168.90505981445312 -7.434663772583008 -40.771339416503906
v -164.62759399414062 -5.048636436462402 -41.220916748046875
v -164.62771606445312 -9.820690155029297 -41.22090530395508
v -168.90493774414062 -12.206718444824219 -40.77135467529297
v -160.3501434326172 -2.6626086235046387 -41.67049789428711
v -160.3502655029297 -7.434662342071533 -41.67048645019531
v -173.18238830566406 -5.048637390136719 -40.321773529052734
v -177.4595947265625 -7.434664726257324 -39.872222900390625
v -177.459716796875 -2.6626105308532715 -39.87220764160156
v -173.18226623535156 -9.82069206237793 -40.32178497314453
v -168.90499877929688 -5.0486369132995605 -40.77134704589844
v -177.3621368408203 -1.5700541734695435 -38.94342803955078
v -173.084716796875 -1.570054054260254 -39.393001556396484
v -177.44334411621094 -1.749451756477356 -39.71619415283203
v -168.90493774414062 -2.662609577178955 -40.77135467529297
v -164.62753295898438 -2.662609100341797 -41.220924377441406
v -160.33372497558594 -1.74945068359375 -41.51448440551758
v -162.48898315429688 -8.627676010131836 -41.44569396972656
v -160.3503875732422 -12.206716537475586 -41.67047119140625
v -171.0436553955078 -3.855623483657837 -40.54656219482422
v -164.62765502929688 -12.206717491149902 -41.22091293334961
v -175.3209228515625 -8.627677917480469 -40.09700393676758
v -177.45947265625 -12.206719398498535 -39.87223434448242
v -173.1822052001953 -12.206718444824219 -40.32179260253906
v -173.18235778808594 -3.855623722076416 -40.32177734375
v -168.896728515625 -2.2060306072235107 -40.69334411621094
v -168.88853454589844 -1.7494511604309082 -40.61534118652344
v -168.84793090820312 -1.659752607345581 -40.22895812988281
v -168.80731201171875 -1.5700538158416748 -39.84257507324219
v -164.5299072265625 -1.5700536966323853 -40.29214859008789
v -173.12533569335938 -1.6597528457641602 -39.77938461303711
v -173.1823272705078 -2.6626100540161133 -40.321781158447266
v -164.61932373046875 -2.2060301303863525 -41.142921447753906
v -160.25250244140625 -1.5700535774230957 -40.741722106933594
v -164.5502166748047 -1.6149030923843384 -40.4853401184082
v -173.1456298828125 -1.7046022415161133 -39.97257614135742
v -170.8647918701172 4.950638771057129 -50.45098114013672
v -171.7287139892578 4.724641799926758 -50.35588455200195
v -171.7445831298828 4.7383270263671875 -50.50728225708008
v -170.88021850585938 4.961396217346191 -50.59812545776367
v -170.81898498535156 4.6452741622924805 -50.60457229614258
v -170.74545288085938 4.645270824432373 -49.90506362915039
v -176.3195343017578 0.8893479108810425 -49.80052185058594
v -175.63827514648438 2.8028175830841064 -49.90205764770508
v -176.01174926757812 2.9142699241638184 -51.382503509521484
v -170.8647918701172 4.950638771057129 -50.45098114013672
v -176.69155883789062 1.1678755283355713 -51.13660430908203
v -174.1389923095703 4.4249796867370605 -50.085018157958984
v -174.4640655517578 4.585015773773193 -51.7322883605957
v -172.13919067382812 5.50887393951416 -50.327640533447266
v -172.39981079101562 5.688351631164551 -52.08573913574219
v -168.76437377929688 5.781081199645996 -50.68751907348633
v -168.10923767089844 4.724643707275391 -50.73630905151367
v -167.7018585205078 5.508872032165527 -50.79402160644531
v -171.7287139892578 4.724641799926758 -50.35588455200195
v -170.8647918701172 4.950638771057129 -50.45098114013672
v -171.07774353027344 5.7810797691345215 -50.444374084472656
v -171.16436767578125 6.2262492179870605 -50.04962921142578
v -168.97726440429688 4.645270824432373 -50.090904235839844
v -168.59756469726562 6.226249694824219 -50.319400787353516
v -172.13919067382812 5.50887393951416 -50.327640533447266
v -168.9740447998047 4.9506402015686035 -50.64970779418945
v -174.8297119140625 0.889348566532135 -49.95710754394531
v -174.5128936767578 2.477978229522705 -50.02058410644531
v -175.63827514648438 2.8028175830841064 -49.90205764770508
v -170.74545288085938 4.645270824432373 -49.90506362915039
v -176.3195343017578 0.8893479108810425 -49.80052185058594
v -168.93475341796875 6.45723819732666 -52.52763366699219
v -171.16436767578125 6.2262492179870605 -50.04962921142578
v -168.59756469726562 6.226249694824219 -50.319400787353516
v -167.8124542236328 5.688353061676025 -52.56789016723633
v -165.69654846191406 4.424980163574219 -50.98419952392578
v -165.7198028564453 4.58501672744751 -52.651344299316406
v -168.9129180908203 5.967406272888184 -52.47121047973633
v -171.29367065429688 6.45723819732666 -52.279701232910156
v -173.3367462158203 3.824753999710083 -50.16978454589844
v -174.1389923095703 4.4249796867370605 -50.085018157958984
v -165.31617736816406 2.4779791831970215 -50.98719787597656
v -164.19140625 2.8028197288513184 -51.1115837097168
v -166.49765014648438 3.824755907058716 -50.88859939575195
v -164.13323974609375 2.9142696857452393 -52.630985260009766
v -163.50328063964844 0.8893489837646484 -51.14756393432617
v -163.4171600341797 1.1678763628005981 -52.531795501708984
v -168.76437377929688 5.781081199645996 -50.68751907348633
v -168.59756469726562 6.226249694824219 -50.319400787353516
v -168.97726440429688 4.645270824432373 -50.090904235839844
v -171.3032989501953 5.967405796051025 -52.219966888427734
v -168.9740447998047 4.9506402015686035 -50.64970779418945
v -168.9129180908203 5.967406272888184 -52.47121047973633
v -168.59756469726562 6.226249694824219 -50.319400787353516
v -168.76437377929688 5.781081199645996 -50.68751907348633
v -171.07774353027344 5.7810797691345215 -50.444374084472656
v -164.99310302734375 0.8893494009971619 -50.9909782409668
v -171.16436767578125 6.2262492179870605 -50.04962921142578
v -171.29367065429688 6.45723819732666 -52.279701232910156
v -171.3032989501953 5.967405796051025 -52.219966888427734
v -170.88021850585938 4.961396217346191 -50.59812545776367
v -171.07774353027344 5.7810797691345215 -50.444374084472656
v -174.5128936767578 2.477978229522705 -50.02058410644531
v -174.8297119140625 0.889348566532135 -49.95710754394531
v -174.8532257080078 0.9526985883712769 -50.1806640625
v -171.07774353027344 5.7810797691345215 -50.444374084472656
v -170.8647918701172 4.950638771057129 -50.45098114013672
v -170.74545288085938 4.645270824432373 -49.90506362915039
v -171.16436767578125 6.2262492179870605 -50.04962921142578
v -174.5332794189453 2.520756483078003 -50.2142448425293
v -173.3367462158203 3.824753999710083 -50.16978454589844
v -168.93475341796875 6.45723819732666 -52.52763366699219
v -170.81898498535156 4.6452741622924805 -50.60457229614258
v -169.05081176757812 4.645272731781006 -50.79042053222656
v -168.97726440429688 4.645270824432373 -50.090904235839844
v -173.35443115234375 3.8500916957855225 -50.33810806274414
v -168.9740447998047 4.9506402015686035 -50.64970779418945
v -170.74545288085938 4.645270824432373 -49.90506362915039
v -168.12513732910156 4.7383270263671875 -50.88770294189453
v -166.51536560058594 3.8500916957855225 -51.05691909790039
v -166.49765014648438 3.824755907058716 -50.88859939575195
v -168.10923767089844 4.724643707275391 -50.73630905151367
v -165.3365478515625 2.520756483078003 -51.18085479736328
v -165.31617736816406 2.4779791831970215 -50.98719787597656
v -165.0166015625 0.952698826789856 -51.21453094482422
v -164.99310302734375 0.8893494009971619 -50.9909782409668
v -168.98760986328125 4.959920406341553 -50.79704284667969
v -168.9740447998047 4.9506402015686035 -50.64970779418945
v -168.98760986328125 4.959920406341553 -50.79704284667969
v -173.14866638183594 1.1767339706420898 -39.866615295410156
v -173.09896850585938 1.0551276206970215 -39.392372131347656
v -177.36228942871094 1.0196380615234375 -38.944278717041016
v -165.35281372070312 6.945028305053711 -48.18413543701172
v -169.44964599609375 6.920542240142822 -46.07691192626953
v -169.80252075195312 6.970119953155518 -49.434593200683594
v -160.2525177001953 1.0230971574783325 -40.74258804321289
v -164.54409790039062 1.0568572282791138 -40.291526794433594
v -160.35220336914062 1.2244341373443604 -41.691043853759766
v -174.2607421875 6.99460506439209 -50.64264678955078
v -170.16390991210938 7.019091606140137 -52.7498664855957
v -173.5616455078125 6.897292137145996 -44.05271911621094
v -177.3511505126953 6.826934814453125 -38.8369026184082
v -177.9961700439453 6.92114782333374 -45.22014617919922
v -169.12713623046875 6.873435974121094 -42.88528823852539
v -173.2391357421875 6.850185394287109 -40.8610954284668
v -173.07363891601562 6.826935768127441 -39.28649139404297
v -168.79611206054688 6.826936721801758 -39.73607635498047
v -164.68411254882812 6.850187301635742 -41.76026916503906
v -160.9031219482422 6.919936656951904 -46.93367385864258
v -160.24107360839844 6.826938152313232 -40.63524627685547
v -165.7056884765625 6.994606018066406 -51.54181671142578
v -161.60887145996094 7.019092082977295 -53.6490364074707
v -164.51858520507812 6.826937675476074 -40.18566131591797
v -173.722900390625 6.920845031738281 -45.648529052734375
v -173.89935302734375 6.945633888244629 -47.327369689941406
v -174.44143676757812 7.0190911293029785 -52.3002815246582
v -168.93504333496094 1.3338299989700317 -40.78895568847656
v -168.83566284179688 1.090617299079895 -39.8404655456543
v -178.7189483642578 7.01909065246582 -51.8506965637207
v -165.01513671875 6.896686553955078 -44.909481048583984
v -165.1763916015625 6.920239448547363 -46.50529479980469
v -178.35755920410156 6.970119476318359 -48.535423278808594
v -164.59393310546875 1.1575257778167725 -40.76575469970703
v -164.64361572265625 1.2791321277618408 -41.23999786376953
v -165.88638305664062 7.019091606140137 -53.1994514465332
v -161.25599670410156 6.9695143699646 -50.29135513305664
v -173.19851684570312 1.2801296710968018 -40.340843200683594
v -177.46197509765625 1.2264292240142822 -39.892730712890625
v -169.4755859375 -4.706093788146973 -45.360679626464844
v -165.90414428710938 -4.52955961227417 -42.53968048095703
v -166.56871032714844 -4.977766990661621 -48.862571716308594
v -172.38247680664062 -4.434421062469482 -41.85878372192383
v -173.0470428466797 -4.938313007354736 -48.181671142578125
v -177.9429931640625 -3.857064962387085 -44.470703125
v -160.83351135253906 -4.71622896194458 -46.26898956298828
v -161.16578674316406 -4.71623420715332 -49.43043899536133
v -160.50123596191406 -4.71623420715332 -43.10755920410156
v -169.92166137695312 -5.020249366760254 -49.60466003417969
v -173.2746124267578 -5.102185249328613 -50.34674835205078
v -166.7962646484375 -5.102185249328613 -51.02764892578125
v -178.2752685546875 -3.857064962387085 -47.63214874267578
v -177.6107177734375 -3.8570659160614014 -41.30925750732422
v -166.3582763671875 -4.652403354644775 -48.99531555175781
v -165.5529327392578 -4.666900634765625 -50.21604537963867
v -165.65089416503906 -4.732490062713623 -51.14802932739258
v -166.57432556152344 -4.776823043823242 -51.050968170166016
v -166.7962646484375 -5.102185249328613 -51.02764892578125
v -166.56871032714844 -4.977766990661621 -48.862571716308594
v -173.49652099609375 -4.776823043823242 -50.323421478271484
v -174.2162628173828 -4.7324910163879395 -50.247772216796875
v -174.11830139160156 -4.621579647064209 -49.31578826904297
v -173.2804718017578 -4.612949848175049 -48.267765045166016
v -177.60208129882812 -3.531700849533081 -41.22709274291992
v -177.45846557617188 -3.483771324157715 -39.86077117919922
v -172.23023986816406 -4.061130046844482 -40.41029739379883
v -172.3738555908203 -4.1090569496154785 -41.776611328125
v -172.38247680664062 -4.434421062469482 -41.85878372192383
v -177.6107177734375 -3.8570659160614014 -41.30925750732422
v -173.2804718017578 -4.612949848175049 -48.267765045166016
v -174.11830139160156 -4.621579647064209 -49.31578826904297
v -178.40487670898438 -3.4873695373535156 -48.86524200439453
v -178.28677368164062 -3.5317015647888184 -47.7415657043457
v -173.0470428466797 -4.938313007354736 -48.181671142578125
v -178.2752685546875 -3.857064962387085 -47.63214874267578
v -165.8955078125 -4.204195499420166 -42.457515716552734
v -165.7519073486328 -4.1562676429748535 -41.09120178222656
v -160.34896850585938 -4.342939376831055 -41.65906524658203
v -160.49258422851562 -4.390870094299316 -43.02538299560547
v -165.90414428710938 -4.52955961227417 -42.53968048095703
v -160.50123596191406 -4.71623420715332 -43.10755920410156
v -173.2746124267578 -5.102185249328613 -50.34674835205078
v -173.0470428466797 -4.938313007354736 -48.181671142578125
v -165.5529327392578 -4.666900634765625 -50.21604537963867
v -166.3582763671875 -4.652403354644775 -48.99531555175781
v -161.17727661132812 -4.390871047973633 -49.53986358642578
v -161.2953643798828 -4.3465352058410645 -50.66352844238281
v -166.56871032714844 -4.977766990661621 -48.862571716308594
v -161.16578674316406 -4.71623420715332 -49.43043899536133
v -176.9054718017578 -3.6544182300567627 -40.049129486083984
v -177.1192626953125 -3.635714292526245 -41.10395431518555
v -175.98951721191406 -3.734553813934326 -41.334678649902344
v -176.81077575683594 -2.572014808654785 -40.049129486083984
v -177.02456665039062 -2.5533103942871094 -41.10395431518555
v -177.1192626953125 -3.635714292526245 -41.10395431518555
v -177.02456665039062 -2.5533103942871094 -41.10395431518555
v -175.8948211669922 -2.6521501541137695 -41.334678649902344
v -175.98951721191406 -3.734553813934326 -41.334678649902344
v -177.1192626953125 -3.635714292526245 -41.10395431518555
v -175.77572631835938 -3.7532577514648438 -40.27985763549805
v -176.81077575683594 -2.572014808654785 -40.049129486083984
v -175.6810302734375 -2.670854330062866 -40.27985763549805
v -175.8948211669922 -2.6521501541137695 -41.334678649902344
v -176.9054718017578 -3.6544182300567627 -40.049129486083984
v -175.77572631835938 -3.7532577514648438 -40.27985763549805
v -175.6810302734375 -2.670854330062866 -40.27985763549805
v -176.81077575683594 -2.572014808654785 -40.049129486083984
v -175.98951721191406 -3.734553813934326 -41.334678649902344
v -175.6810302734375 -2.670854330062866 -40.27985763549805
vn 0.44227302074432373 0.6125211119651794 0.6551430821418762
vn 0.08487025648355484 -0.3142908811569214 0.9455254077911377
vn 0.3160097002983093 0.015947474166750908 0.948621928691864
vn -0.16103282570838928 0.01575392112135887 0.9868232607841492
vn 0.3034844696521759 0.3268273174762726 0.8950313329696655
vn 0.11661498993635178 -0.010645653121173382 0.9931201338768005
vn 0.10196685791015625 -0.16444259881973267 0.9811021089553833
vn 0.04502266272902489 -0.5879296660423279 0.8076581358909607
vn 0.06573569029569626 -0.4565922021865845 0.8872442245483398
vn -0.7120734453201294 0.46124038100242615 0.5293474793434143
vn 0.03410276398062706 0.7195058465003967 0.6936485171318054
vn -0.3626110851764679 0.6434262990951538 0.674177885055542
vn 0.3450630307197571 0.8106497526168823 0.4730522632598877
vn -0.29639604687690735 0.6125216484069824 0.7327800393104553
vn -0.23928341269493103 0.8108000755310059 0.5341785550117493
vn -0.43695834279060364 0.7004663348197937 0.5642821192741394
vn 0.8071694374084473 0.45287811756134033 0.37865403294563293
vn 0.49524426460266113 0.6432417035102844 0.5839291214942932
vn 0.09635499119758606 0.718261182308197 0.689069390296936
vn 0.8926070928573608 0.3242853283882141 0.31319573521614075
vn 0.5365403294563293 0.7079840898513794 0.45921996235847473
vn -0.8079800605773926 0.3242999315261841 0.4919327199459076
vn -0.08314105123281479 0.38679954409599304 -0.918408215045929
vn -0.09111853688955307 0.23657725751399994 -0.9673306345939636
vn -0.08740361779928207 0.31266793608665466 -0.9458326101303101
vn -0.08447688817977905 0.40375828742980957 -0.9109571576118469
vn -0.09111853688955307 0.23657725751399994 -0.9673306345939636
vn -0.05340426042675972 0.1617400348186493 -0.9853873252868652
vn -0.10179255902767181 0.08908458799123764 -0.9908088445663452
vn -0.058600153774023056 0.08748167008161545 -0.9944409728050232
vn -0.015297510661184788 0.0857141837477684 -0.9962023496627808
vn -0.10090242326259613 0.339476078748703 -0.9351869821548462
vn -0.10157934576272964 -0.3765687644481659 -0.9208027124404907
vn -0.09830071777105331 -0.3925497531890869 -0.9144625067710876
vn -0.09819715470075607 -0.0025454885326325893 -0.9951637387275696
vn -0.09499198198318481 -0.40841051936149597 -0.9078421592712402
vn -0.11329591274261475 0.2690575420856476 -0.9564371705055237
vn -0.10950401425361633 0.43839719891548157 -0.892085611820221
vn -0.09111854434013367 0.23657728731632233 -0.9673307538032532
vn -0.09843946993350983 -0.0032426880206912756 -0.9951377511024475
vn -0.09657929092645645 -0.40060603618621826 -0.9111461639404297
vn -0.09637133777141571 0.4128074049949646 -0.9057055711746216
vn -0.09815941751003265 -0.39277175068855286 -0.9143823385238647
vn -0.10222851485013962 0.2528700530529022 -0.9620842337608337
vn -0.10004867613315582 0.16576535999774933 -0.9810770750045776
vn -0.08381258696317673 0.39529597759246826 -0.9147221446037292
vn -0.10845024138689041 0.0940776914358139 -0.9896402955055237
vn -0.10512232780456543 0.09158194065093994 -0.9902333617210388
vn 0.5546731948852539 0.680793821811676 0.4783904254436493
vn 0.10383166372776031 0.7077733874320984 0.6987673044204712
vn 0.09635499119758606 0.718261182308197 0.689069390296936
vn 0.04340437799692154 0.6964355111122131 0.7163055539131165
vn -0.35592684149742126 0.7448654174804688 0.5643506646156311
vn 0.03410276398062706 0.7195058465003967 0.6936485171318054
vn 0.10425034910440445 0.07280424982309341 0.9918827414512634
vn 0.7771614789962769 0.04561943933367729 0.6276454925537109
vn 0.39644819498062134 0.7865331172943115 0.4734918475151062
vn 0.5094548463821411 0.7596501111984253 0.40421217679977417
vn -0.3626110851764679 0.6434262990951538 0.674177885055542
vn -0.8407166600227356 0.5379449725151062 0.061730626970529556
vn -0.9931959509849548 0.04240049049258232 0.10846173018217087
vn -0.628015398979187 0.03966117277741432 0.7771896123886108
vn -0.33909764885902405 0.7890822887420654 0.5122127532958984
vn 0.9582915902137756 -0.0010054463054984808 0.28579074144363403
vn 0.9947133660316467 -0.0009296245407313108 -0.10268745571374893
vn 0.994900643825531 -0.001859244890511036 -0.10084263235330582
vn 0.49524426460266113 0.6432417035102844 0.5839291214942932
vn -0.628015398979187 0.03966117277741432 0.7771896123886108
vn 0.10427577793598175 0.06962962448596954 0.9921079874038696
vn -0.8784425854682922 0.021472586318850517 0.4773651957511902
vn -0.9942135214805603 -0.0000032174457373912446 0.10742191970348358
vn -0.99452143907547 0 0.10453297197818756
vn -0.9938972592353821 -0.000006434864644688787 0.11030996590852737
vn 0.7771468162536621 0 0.6293193697929382
vn 0.9945215582847595 0 -0.10453182458877563
vn 0.7773566842079163 0.022815663367509842 0.6286462545394897
vn 0.7771614789962769 0.04561943933367729 0.6276454925537109
vn 0.994914710521698 -0.008305943571031094 -0.10037818551063538
vn -0.628015398979187 0.03966117277741432 0.7771896123886108
vn -0.9931959509849548 0.04240049049258232 0.10846173018217087
vn 0.4773995578289032 0.024701109156012535 0.8783390522003174
vn 0.10452774167060852 0 0.994521975517273
vn 0.7771468162536621 0 0.6293193697929382
vn -0.2842938005924225 0.037702228873968124 0.9579956531524658
vn -0.6293182373046875 0 0.7771477103233337
vn 0.1045294925570488 0 0.9945217967033386
vn 0.7773566842079163 0.022815663367509842 0.6286462545394897
vn -0.6293182373046875 0 0.7771477103233337
vn 0.10445836931467056 0.036426298320293427 0.9938619136810303
vn -0.628790557384491 0.0198344886302948 0.7773215770721436
vn -0.628790557384491 0.0198344886302948 0.7773215770721436
vn 0.1044660434126854 0.03483595699071884 0.9939181804656982
vn -0.7726871371269226 0.6234484314918518 0.11944299191236496
vn -0.33909764885902405 0.7890822887420654 0.5122127532958984
vn -0.34632188081741333 0.6683782935142517 0.658279299736023
vn -0.7726871371269226 0.6234484314918518 0.11944299191236496
vn 0.7384920120239258 0.6730342507362366 -0.04067426174879074
vn 0.39644819498062134 0.7865331172943115 0.4734918475151062
vn 0.7384920120239258 0.6730342507362366 -0.04067426174879074
vn 0.8868009448051453 0.4608236849308014 -0.03500892594456673
vn 0.5094548463821411 0.7596501111984253 0.40421217679977417
vn 0.5094548463821411 0.7596501111984253 0.40421217679977417
vn -0.33909764885902405 0.7890822887420654 0.5122127532958984
vn -0.34632188081741333 0.6683782935142517 0.658279299736023
vn -0.15529759228229523 -0.4404838979244232 -0.8842265605926514
vn 0.012598266825079918 -0.03153454139828682 -0.9994233250617981
vn -0.10845024138689041 0.0940776914358139 -0.9896402955055237
vn -0.10512232780456543 0.09158194065093994 -0.9902333617210388
vn -0.03209066018462181 -0.5716634392738342 -0.8198604583740234
vn 0.2498580366373062 -0.2760659158229828 -0.9280940890312195
vn 0.13326218724250793 -0.156184121966362 -0.9786969423294067
vn -0.10043687373399734 0.32731547951698303 -0.9395620822906494
vn -0.10767072439193726 -0.004858935717493296 -0.9941747188568115
vn -0.10269660502672195 -0.3364858031272888 -0.9360719919204712
vn -0.4169881343841553 -0.6485720872879028 -0.6367692947387695
vn -0.22999709844589233 -0.6249474287033081 -0.7460174560546875
vn -0.09026534855365753 -0.6136314868927002 -0.7844160795211792
vn -0.08817707002162933 -0.6218315958976746 -0.778171181678772
vn -0.08607903122901917 -0.6299628615379333 -0.7718401551246643
vn -0.08181647211313248 0.6223833560943604 -0.7784247398376465
vn -0.08181668817996979 0.6223847270011902 -0.7784236073493958
vn -0.1004374772310257 0.32731884717941284 -0.9395610094070435
vn -0.0818169116973877 0.62238609790802 -0.778422474861145
vn 0.13660016655921936 -0.1586030125617981 -0.9778473377227783
vn 0.35882648825645447 -0.3875202536582947 -0.8491593599319458
vn -0.08181603252887726 0.6223806142807007 -0.7784269452095032
vn -0.10179255902767181 0.08908458799123764 -0.9908088445663452
vn 0.1673387885093689 -0.4912489354610443 -0.8547937273979187
vn -0.08189518004655838 -0.6207684278488159 -0.7797049880027771
vn -0.10944562405347824 0.005567999090999365 -0.9939771890640259
vn -0.08181626349687576 0.6223820447921753 -0.778425931930542
vn -0.07351329177618027 -0.6278164386749268 -0.7748821377754211
vn -0.015297510661184788 0.0857141837477684 -0.9962023496627808
vn -0.058600153774023056 0.08748167008161545 -0.9944409728050232
vn -0.10443399846553802 0.04251965135335922 -0.9936224818229675
vn -0.1043158695101738 0.06375548243522644 -0.9924985766410828
vn -0.10450489073991776 0.021264633163809776 -0.9942970275878906
vn -0.10452853888273239 0 -0.9945219159126282
vn -0.10415058583021164 0.08496247977018356 -0.9909258484840393
vn -0.10443400591611862 0.042519692331552505 -0.9936224818229675
vn -0.1043158695101738 0.06375544518232346 -0.9924985766410828
vn -0.10443399846553802 0.04251965135335922 -0.9936224818229675
vn -0.10415057837963104 0.084962397813797 -0.9909258484840393
vn -0.10450489073991776 0.021264633163809776 -0.9942970275878906
vn -0.10431588441133499 0.06375547498464584 -0.9924986958503723
vn -0.0818169116973877 0.62238609790802 -0.778422474861145
vn -0.08181668817996979 0.6223847270011902 -0.7784236073493958
vn -0.07598089426755905 0.6867524981498718 -0.7229093313217163
vn -0.10415059328079224 0.08496244996786118 -0.9909259676933289
vn -0.10415059328079224 0.08496246486902237 -0.9909259080886841
vn -0.07598088681697845 0.6867526769638062 -0.722909152507782
vn -0.10447535663843155 0.03189396858215332 -0.9940159916877747
vn -0.10452853888273239 0 -0.9945219159126282
vn -0.10423912107944489 0.07436314970254898 -0.9917683601379395
vn -0.10452853888273239 0 -0.9945219159126282
vn -0.10447535663843155 0.03189394995570183 -0.9940159916877747
vn -0.10452853888273239 0 -0.9945219159126282
vn -0.10452853888273239 0 -0.9945219159126282
vn -0.10423912853002548 0.07436314225196838 -0.9917683005332947
vn -0.09539953619241714 0.40870848298072815 -0.9076652526855469
vn -0.07598089426755905 0.6867526173591614 -0.7229092717170715
vn -0.07897015661001205 0.6551613807678223 -0.7513503432273865
vn -0.08181647211313248 0.6223833560943604 -0.7784247398376465
vn -0.08181626349687576 0.6223820447921753 -0.778425931930542
vn -0.07897037267684937 0.6551626920700073 -0.7513490915298462
vn -0.10415058583021164 0.08496242761611938 -0.9909259080886841
vn -0.09539954364299774 0.40870851278305054 -0.9076653122901917
vn -0.08181603252887726 0.6223806142807007 -0.7784269452095032
vn -0.08041133731603622 0.6389159560203552 -0.7650622725486755
vn -0.0774931088089943 0.6711092591285706 -0.7372971177101135
vn -0.3745719790458679 -0.7197914123535156 0.5844622850418091
vn 0.38165050745010376 -0.8539304733276367 0.353759229183197
vn 0.39551082253456116 -0.9151520729064941 -0.0778966173529625
vn -0.5076627731323242 -0.8600841164588928 0.0503372922539711
vn -0.6462486982345581 -0.7600914239883423 0.06799761205911636
vn -0.48619943857192993 -0.637495756149292 0.5976698398590088
vn -0.35592684149742126 0.7448654174804688 0.5643506646156311
vn -0.6371603608131409 0.4430292844772339 0.6306756138801575
vn -0.7120734453201294 0.46124038100242615 0.5293474793434143
vn -0.3745719790458679 -0.7197914123535156 0.5844622850418091
vn -0.3626110851764679 0.6434262990951538 0.674177885055542
vn -0.4445270299911499 0.6745414137840271 0.5893976092338562
vn -0.43695834279060364 0.7004663348197937 0.5642821192741394
vn -0.24565139412879944 0.7969315052032471 0.5518655180931091
vn -0.23928341269493103 0.8108000755310059 0.5341785550117493
vn 0.738810658454895 0.4002763032913208 0.5421602129936218
vn -0.30058982968330383 -0.8534972667694092 0.42566198110580444
vn 0.3580356538295746 0.7969306111335754 0.4865306317806244
vn 0.38165050745010376 -0.8539304733276367 0.353759229183197
vn -0.3745719790458679 -0.7197914123535156 0.5844622850418091
vn -0.6099423766136169 0.40029439330101013 0.6839113235473633
vn -0.771618664264679 0.3645492494106293 0.5212566256523132
vn 0.5998371839523315 -0.6374857425689697 0.4835362136363983
vn 0.8631365299224854 0.3645365536212921 0.3494401276111603
vn -0.24565139412879944 0.7969315052032471 0.5518655180931091
vn 0.4867607355117798 -0.7200711369514465 0.49453163146972656
vn 0.5094548463821411 0.7596501111984253 0.40421217679977417
vn 0.863375186920166 -0.4049886167049408 0.30094432830810547
vn -0.6371603608131409 0.4430292844772339 0.6306756138801575
vn -0.48619943857192993 -0.637495756149292 0.5976698398590088
vn -0.35592684149742126 0.7448654174804688 0.5643506646156311
vn 0.44227302074432373 0.6125211119651794 0.6551430821418762
vn -0.771618664264679 0.3645492494106293 0.5212566256523132
vn 0.8631365299224854 0.3645365536212921 0.3494401276111603
vn 0.3450630307197571 0.8106497526168823 0.4730522632598877
vn 0.5588787794113159 0.6745566725730896 0.4823150634765625
vn 0.5365403294563293 0.7079840898513794 0.45921996235847473
vn 0.8926070928573608 0.3242853283882141 0.31319573521614075
vn -0.29639604687690735 0.6125216484069824 0.7327800393104553
vn 0.6217992901802063 -0.7219955325126648 0.30346012115478516
vn -0.4445270299911499 0.6745414137840271 0.5893976092338562
vn -0.7817751169204712 -0.4039137661457062 0.4750593304634094
vn 0.7538356184959412 0.44492200016975403 0.48350417613983154
vn -0.5434953570365906 -0.7220180630683899 0.4281386435031891
vn 0.8071694374084473 0.45287811756134033 0.37865403294563293
vn 0.5546731948852539 0.680793821811676 0.4783904254436493
vn 0.49524426460266113 0.6432417035102844 0.5839291214942932
vn 0.738810658454895 0.4002763032913208 0.5421602129936218
vn 0.8631365299224854 0.3645365536212921 0.3494401276111603
vn 0.5998371839523315 -0.6374857425689697 0.4835362136363983
vn -0.8079800605773926 0.3242999315261841 0.4919327199459076
vn 0.4867607355117798 -0.7200711369514465 0.49453163146972656
vn 0.8926070928573608 0.3242853283882141 0.31319573521614075
vn 0.8631365299224854 0.3645365536212921 0.3494401276111603
vn 0.738810658454895 0.4002763032913208 0.5421602129936218
vn -0.6099423766136169 0.40029439330101013 0.6839113235473633
vn -0.34632188081741333 0.6683782935142517 0.658279299736023
vn -0.771618664264679 0.3645492494106293 0.5212566256523132
vn -0.29639604687690735 0.6125216484069824 0.7327800393104553
vn -0.8079800605773926 0.3242999315261841 0.4919327199459076
vn -0.5076627731323242 -0.8600841164588928 0.0503372922539711
vn -0.6099423766136169 0.40029439330101013 0.6839113235473633
vn 0.863375186920166 -0.4049886167049408 0.30094432830810547
vn 0.5094548463821411 0.7596501111984253 0.40421217679977417
vn 0.8868009448051453 0.4608236849308014 -0.03500892594456673
vn -0.6099423766136169 0.40029439330101013 0.6839113235473633
vn -0.3745719790458679 -0.7197914123535156 0.5844622850418091
vn -0.48619943857192993 -0.637495756149292 0.5976698398590088
vn -0.771618664264679 0.3645492494106293 0.5212566256523132
vn 0.878750205039978 -0.46139076352119446 -0.12213385850191116
vn 0.6217992901802063 -0.7219955325126648 0.30346012115478516
vn 0.44227302074432373 0.6125211119651794 0.6551430821418762
vn -0.6462486982345581 -0.7600914239883423 0.06799761205911636
vn 0.6296579241752625 -0.7739457488059998 -0.06737084686756134
vn 0.5998371839523315 -0.6374857425689697 0.4835362136363983
vn 0.6499282121658325 -0.7523397207260132 -0.10760237276554108
vn 0.4867607355117798 -0.7200711369514465 0.49453163146972656
vn -0.48619943857192993 -0.637495756149292 0.5976698398590088
vn -0.3837745487689972 -0.9233121871948242 -0.014551828615367413
vn -0.6148888468742371 -0.7886107563972473 -0.0021889598574489355
vn -0.5434953570365906 -0.7220180630683899 0.4281386435031891
vn -0.30058982968330383 -0.8534972667694092 0.42566198110580444
vn -0.8805005550384521 -0.47172972559928894 0.04679585620760918
vn -0.7817751169204712 -0.4039137661457062 0.4750593304634094
vn -0.7726871371269226 0.6234484314918518 0.11944299191236496
vn -0.34632188081741333 0.6683782935142517 0.658279299736023
vn 0.5464481115341187 -0.8352249264717102 -0.06159353628754616
vn 0.4867607355117798 -0.7200711369514465 0.49453163146972656
vn 0.5464481115341187 -0.8352249264717102 -0.06159353628754616
vn -0.08495945483446121 -0.5224600434303284 -0.8484205007553101
vn -0.08189518004655838 -0.6207684278488159 -0.7797049880027771
vn -0.07351329177618027 -0.6278164386749268 -0.7748821377754211
vn 0.04331604391336441 -0.9290255308151245 0.36747151613235474
vn -0.0015346924774348736 -0.9998922944068909 -0.01460256613790989
vn 0.08153875172138214 -0.7160047888755798 0.6933171153068542
vn -0.08607903122901917 -0.6299628615379333 -0.7718401551246643
vn -0.08817707002162933 -0.6218315958976746 -0.778171181678772
vn -0.10157934576272964 -0.3765687644481659 -0.9208027124404907
vn 0.06352584064006805 -0.6544927358627319 0.7533947825431824
vn 0.08487025648355484 -0.3142908811569214 0.9455254077911377
vn -0.11834321171045303 -0.9745410680770874 -0.19043278694152832
vn -0.4169881343841553 -0.6485720872879028 -0.6367692947387695
vn -0.0015347517328336835 -0.9998921751976013 -0.014602677896618843
vn -0.2298021912574768 -0.9051375985145569 -0.35765472054481506
vn -0.33087342977523804 -0.7948190569877625 -0.5087096095085144
vn -0.22999709844589233 -0.6249474287033081 -0.7460174560546875
vn -0.03209066018462181 -0.5716634392738342 -0.8198604583740234
vn 0.07276615500450134 -0.7290234565734863 -0.6806098818778992
vn -0.0015346327563747764 -0.9998921751976013 -0.014602449722588062
vn 0.35882648825645447 -0.3875202536582947 -0.8491593599319458
vn 0.10728492587804794 -0.39342501759529114 0.91307532787323
vn 0.11661498993635178 -0.010645653121173382 0.9931201338768005
vn 0.1673387885093689 -0.4912489354610443 -0.8547937273979187
vn -0.0015347220469266176 -0.9998922348022461 -0.014602622017264366
vn 0.043315984308719635 -0.9290255904197693 0.3674714267253876
vn 0.06573569029569626 -0.4565922021865845 0.8872442245483398
vn -0.09499198198318481 -0.40841051936149597 -0.9078421592712402
vn -0.09026534855365753 -0.6136314868927002 -0.7844160795211792
vn 0.04502266272902489 -0.5879296660423279 0.8076581358909607
vn -0.11834315210580826 -0.9745410680770874 -0.19043266773223877
vn -0.0015346626751124859 -0.9998922348022461 -0.014602508395910263
vn 0.02449486032128334 -0.8943514227867126 0.44669389724731445
vn -0.09683357924222946 -0.49980342388153076 -0.8607088923454285
vn -0.09830071777105331 -0.3925497531890869 -0.9144625067710876
vn 0.10196685791015625 -0.16444259881973267 0.9811021089553833
vn 0.08153883367776871 -0.7160047292709351 0.6933172345161438
vn -0.09657929092645645 -0.40060603618621826 -0.9111461639404297
vn -0.09815941751003265 -0.39277175068855286 -0.9143823385238647
vn -0.15763893723487854 0.9863671064376831 0.04722116142511368
vn -0.05589492991566658 0.767177164554596 -0.6389952898025513
vn -0.333852082490921 0.8444071412086487 0.41895025968551636
vn 0.048428867012262344 0.9415227770805359 -0.33345097303390503
vn 0.3246276080608368 0.9332831501960754 0.1536211371421814
vn 0.20580391585826874 0.9779761433601379 -0.0347471609711647
vn -0.04782559350132942 0.9988430738449097 0.00502579752355814
vn 0.021651849150657654 0.8116587996482849 0.5837303996086121
vn 0.016232546418905258 0.7537829279899597 -0.6569229960441589
vn -0.07418380677700043 0.9896069765090942 0.12318571656942368
vn 0.465557724237442 0.8845458030700684 -0.028892241418361664
vn -0.4608922004699707 0.8844772577285767 0.0726526752114296
vn 0.266703724861145 0.8746241927146912 0.404847651720047
vn -0.002278426894918084 0.7114949822425842 -0.7026875019073486
vn -0.3659812808036804 0.8328327536582947 0.41526779532432556
vn -0.07391145080327988 0.9972314834594727 -0.008151412010192871
vn -0.06123208999633789 0.997986376285553 -0.01654888316988945
vn -0.48173677921295166 0.8731302618980408 0.07465418428182602
vn -0.4608922004699707 0.8844772577285767 0.0726526752114296
vn -0.333852082490921 0.8444071412086487 0.41895025968551636
vn 0.4987209141254425 0.8633373975753784 -0.07698065787553787
vn 0.05578461289405823 0.9970073699951172 -0.053520143032073975
vn 0.16868580877780914 0.9752583503723145 -0.14288528263568878
vn 0.37063726782798767 0.9205247759819031 0.12353996187448502
vn 0.019504345953464508 0.7743301391601562 -0.6324811577796936
vn 0.17865817248821259 0.9830138087272644 -0.04201386123895645
vn 0.05823933705687523 0.9974558353424072 -0.04111030325293541
vn 0.007529588881880045 0.9058974385261536 -0.4234301745891571
vn 0.048428867012262344 0.9415227770805359 -0.33345097303390503
vn -0.002278426894918084 0.7114949822425842 -0.7026875019073486
vn 0.37063726782798767 0.9205247759819031 0.12353996187448502
vn 0.16868580877780914 0.9752583503723145 -0.14288528263568878
vn 0.23437876999378204 0.710050642490387 0.6639990210533142
vn 0.2863236963748932 0.7358309030532837 0.613654375076294
vn 0.3246276080608368 0.9332831501960754 0.1536211371421814
vn 0.266703724861145 0.8746241927146912 0.404847651720047
vn -0.05429718643426895 0.7784401774406433 -0.6253660917282104
vn 0.010870695114135742 0.9992855787277222 -0.03619569167494774
vn -0.05182831361889839 0.6911260485649109 -0.7208734750747681
vn 0.010186750441789627 0.7806536555290222 -0.6248809099197388
vn -0.05589492991566658 0.767177164554596 -0.6389952898025513
vn 0.016232546418905258 0.7537829279899597 -0.6569229960441589
vn 0.465557724237442 0.8845458030700684 -0.028892241418361664
vn 0.3246276080608368 0.9332831501960754 0.1536211371421814
vn -0.07391145080327988 0.9972314834594727 -0.008151412010192871
vn -0.3659812808036804 0.8328327536582947 0.41526779532432556
vn 0.0028203006368130445 0.8560435771942139 0.5168959498405457
vn -0.0004463322984520346 0.6908935308456421 0.7229563593864441
vn -0.333852082490921 0.8444071412086487 0.41895025968551636
vn 0.021651849150657654 0.8116587996482849 0.5837303996086121
vn -0.4992605149745941 -0.5358761548995972 0.6808639168739319
vn -0.7285928130149841 -0.5158110857009888 -0.4506567120552063
vn 0.3986216187477112 -0.6144313216209412 -0.6808633804321289
vn -0.398621529340744 0.6144312620162964 0.6808634996414185
vn -0.6279537081718445 0.6344946026802063 -0.45065584778785706
vn -0.7285928130149841 -0.5158110857009888 -0.4506567120552063
vn -0.6279537081718445 0.6344946026802063 -0.45065584778785706
vn 0.49926066398620605 0.5358762145042419 -0.6808637976646423
vn 0.3986216187477112 -0.6144313216209412 -0.6808633804321289
vn -0.7285928130149841 -0.5158110857009888 -0.4506567120552063
vn 0.6279537081718445 -0.6344945430755615 0.4506560266017914
vn -0.398621529340744 0.6144312620162964 0.6808634996414185
vn 0.7285927534103394 0.515811026096344 0.45065686106681824
vn 0.49926066398620605 0.5358762145042419 -0.6808637976646423
vn -0.4992605149745941 -0.5358761548995972 0.6808639168739319
vn 0.6279537081718445 -0.6344945430755615 0.4506560266017914
vn 0.7285927534103394 0.515811026096344 0.45065686106681824
vn -0.398621529340744 0.6144312620162964 0.6808634996414185
vn 0.3986216187477112 -0.6144313216209412 -0.6808633804321289
vn 0.7285927534103394 0.515811026096344 0.45065686106681824
vt 2.1867563724517822 0.6153905391693115
vt 2.2844159603118896 0.6792508959770203
vt 2.6693520545959473 0.6473205983638763
vt 2.870957374572754 0.6473205983638763
vt 1.801820158958435 0.6473208367824554
vt 1.416883945465088 0.6792511343955994
vt 1.8506499528884888 0.6792510151863098
vt 3.1519479751586914 0.6792506575584412
vt 2.71818208694458 0.6792507767677307
vt 2.9532508850097656 0.21269649267196655
vt 3.151947498321533 -0.0034748315811157227
vt 3.0065202713012695 -0.0034748315811157227
vt 2.1017162799835205 0.5279991626739502
vt 2.5899667739868164 0.6153905391693115
vt 2.6750071048736572 0.5279988646507263
vt 2.8336424827575684 0.40259361267089844
vt 1.823472499847412 0.21269673109054565
vt 1.770202875137329 -0.0034748315811157227
vt 1.4168837070465088 -0.0034748315811157227
vt 2.1855552196502686 0.5597162842750549
vt 1.9430806636810303 0.4025939106941223
vt 2.591167688369751 0.5597161650657654
vt 1.505258560180664 0.32560479640960693
vt 1.505051612854004 0.7598164081573486
vt 0.9366828203201294 0.47887784242630005
vt 0.36810699105262756 0.24570775032043457
vt 0.3681070804595947 0.6321508884429932
vt 0.9365793466567993 0.8964910507202148
vt 1.5023871660232544 1.193786859512329
vt 0.9352470636367798 1.113476276397705
vt 0.36810699105262756 1.033165693283081
vt 2.068474054336548 0.5027633905410767
vt 0.3681069016456604 0
vt 0.9367535710334778 0
vt 0.9367536306381226 0.12285387516021729
vt 1.5054001808166504 0
vt 2.631896495819092 0.6251749992370605
vt 2.631896495819092 0.2457103729248047
vt 0.9365793466567993 0.6959836483001709
vt 2.068577527999878 0.16280239820480347
vt 2.068648338317871 0
vt 2.068577527999878 0.2856575846672058
vt 2.631896495819092 0
vt 2.068474054336548 0.6924957036972046
vt 2.068474292755127 0.8907767534255981
vt 0.9366828203201294 0.28565627336502075
vt 2.631896734237671 1.0217370986938477
vt 2.0671420097351074 1.1077619791030884
vt 1.237431526184082 1.288364291191101
vt 0.9835370779037476 1.2282986640930176
vt 0.9835370779037476 1.3265401124954224
vt 3.016467332839966 1.2218841314315796
vt 2.762477397918701 1.2883638143539429
vt 3.0164670944213867 1.3268312215805054
vt 3.0164670944213867 0.968999981880188
vt 2.5096869468688965 0.968999981880188
vt 2.5063838958740234 1.2223265171051025
vt 2.5851998329162598 1.2883639335632324
vt 2.789736270904541 1.3294599056243896
vt 0.07013541460037231 1.2480779886245728
vt 0.07013511657714844 0.9687854647636414
vt 0.000500112771987915 0.9687854647636414
vt 0.016810327768325806 1.248077630996704
vt 0.03531739488244057 0.6142209768295288
vt 0.07013525068759918 0.6142209768295288
vt 0.07013530284166336 0.8884419202804565
vt 1.2101719379425049 1.3294605016708374
vt 1.4902210235595703 0.968999981880188
vt 0.983536958694458 0.968999981880188
vt 0.035317569971084595 0.6556004881858826
vt 0.07013505697250366 0.606974720954895
vt 0.07013502717018127 0.3400000333786011
vt 0.07013509422540665 0.873949408531189
vt 0.0004994869232177734 0.3400000333786011
vt 0.0701352059841156 0.3400000333786011
vt 0.0004995465278625488 0.6543927490711212
vt 0.0004996061325073242 0.9687854647636414
vt 0.07013532519340515 0.9687854647636414
vt 0.000500112771987915 0.9712009429931641
vt 0.07013511657714844 0.9712009429931641
vt 2.7630767822265625 0.6545000076293945
vt 3.0164666175842285 0.3400000333786011
vt 2.5096867084503174 0.3400000333786011
vt 1.2368788719177246 0.6545000076293945
vt 1.4902207851409912 0.3400000333786011
vt 0.9835366010665894 0.3400000333786011
vt 2.5096869468688965 0.6545000076293945
vt 0.0004999935626983643 0.3400000333786011
vt 3.0164668560028076 0.6545000076293945
vt 1.4902209043502808 0.6545000076293945
vt 0.0005000531673431396 0.6556004881858826
vt 0.9835367798805237 0.6545000076293945
vt 0.07013550400733948 1.3314697742462158
vt 1 1
vt 0 1
vt 0 0
vt 0.07013532519340515 1.2480775117874146
vt 0.01681041717529297 1.248077392578125
vt 0 0
vt 1 0
vt 1 1
vt 0.05318933725357056 1.322122573852539
vt 1.4935240745544434 1.2223267555236816
vt 1.414709210395813 1.288364291191101
vt 1.490214228630066 0.30375999212265015
vt 1.4902141094207764 0.11025500297546387
vt 1.9804260730743408 0.013501942157745361
vt 1.4912469387054443 0.03628087043762207
vt 1.000002384185791 0.4005129933357239
vt 0.5097902417182922 0.30376100540161133
vt 1.000002145767212 0.2070080041885376
vt 0.9261905550956726 0.24391210079193115
vt 1.5000019073486328 0.4873235821723938
vt 0.9261906147003174 0.7307356297969818
vt 1.98042631149292 0.4005119800567627
vt 1.4902143478393555 0.4005124568939209
vt 1.5055153369903564 0.9994986653327942
vt 0.9289473295211792 0.986823171377182
vt 0.35237932205200195 0.9741476774215698
vt 1.5000017881393433 0.0005000829696655273
vt 2.0738131999969482 0.0004997849464416504
vt 2.0738131999969482 0.2439115047454834
vt 2.6476244926452637 0.0004994869232177734
vt 0.510823130607605 0.2297869324684143
vt 0.01957833766937256 0.40051400661468506
vt 0.3523792326450348 0.0005006790161132812
vt 1.0020679235458374 0.059059858322143555
vt 0.5097903609275818 0.40051352977752686
vt 2.0765700340270996 0.9861731827259064
vt 2.0765700340270996 0.4999990463256836
vt 0.9261904954910278 0.0005003809928894043
vt 2.6476244926452637 0.9728477001190186
vt 0.019577741622924805 0.025801897048950195
vt 0.5108228325843811 0.042430877685546875
vt 1.5000019073486328 1.3460791110992432
vt 0.9569328427314758 2.0183693170547485
vt 0.9569326639175415 0.6737895011901855
vt 1.5000016689300537 0.001499176025390625
vt 0.41386377811431885 2.690659523010254
vt 0.4138636589050293 1.346079707145691
vt 2.0430710315704346 2.018368721008301
vt 2.5861399173736572 1.3460783958435059
vt 2.5861401557922363 2.6906583309173584
vt 2.0430707931518555 0.6737887859344482
vt 1.5000019073486328 2.01836895942688
vt 2.5861401557922363 2.9984984397888184
vt 2.0430710315704346 2.9984986782073975
vt 2.5861401557922363 2.947951316833496
vt 1.5000019073486328 2.690658926963806
vt 0.9569328427314758 2.690659284591675
vt 0.41386377811431885 2.9479520320892334
vt 0.6853981614112854 1.0099345445632935
vt 0.41386350989341736 0.0014998912811279297
vt 1.7715365886688232 2.3545138835906982
vt 0.956932544708252 0.0014995336532592773
vt 2.314605236053467 1.009933590888977
vt 2.586139678955078 0.0014984607696533203
vt 2.0430707931518555 0.0014988183975219727
vt 2.0430710315704346 2.354513645172119
vt 1.5000019073486328 2.819305181503296
vt 1.5000020265579224 2.9479516744613647
vt 1.5000020265579224 2.973225235939026
vt 1.5000020265579224 2.998498797416687
vt 0.9569329619407654 2.9984989166259766
vt 2.0430710315704346 2.9732251167297363
vt 2.0430710315704346 2.6906585693359375
vt 0.9569328427314758 2.819305419921875
vt 0.413863867521286 2.9984991550445557
vt 0.9569329023361206 2.9858622550964355
vt 2.0430710315704346 2.960588216781616
vt 0.01321786642074585 2
vt 0.012537837028503418 1.5
vt 0.03677821159362793 1.5
vt 0.12319966405630112 0.22912538051605225
vt 0 0.22912538051605225
vt 0 0.06728160381317139
vt 0.18225696682929993 0
vt 0.18225696682929993 0.5
vt 1.1109999418258667 0.5
vt 0.12319966405630112 0.19508349895477295
vt 1.1109999418258667 0
vt 0.18225696682929993 1
vt 1.1109999418258667 1
vt 0.18225696682929993 1.5
vt 1.1109999418258667 1.5
vt 0.18101321160793304 2
vt -0.07436511665582657 1.5
vt 0.18101321160793304 1.5
vt 1.0826927423477173 1.5
vt 1.0826927423477173 2
vt 0.8273143768310547 2
vt 1 0.39418554306030273
vt 0 -0.08887207508087158
vt 0 0.39418649673461914
vt 0.8273143768310547 1.5
vt -0.07436511665582657 2
vt 1.0826927423477173 0.0014993548393249512
vt 1.0826927423477173 0.5
vt 0.8273143768310547 0.5
vt 1 -0.08887231349945068
vt 0.8273143768310547 0.0014986991882324219
vt 0 0.5581117272377014
vt 1 0.04465758800506592
vt 0 0.04465603828430176
vt 1.1109999418258667 1.5
vt 0.18101321160793304 1
vt 1.1109999418258667 1
vt 1.1109999418258667 2
vt 1 0.5581117272377014
vt 1.0826927423477173 1
vt 0.8273143768310547 1
vt -0.07436511665582657 0.5
vt 0.18101321160793304 0.5
vt -0.07436511665582657 1
vt 1.1109999418258667 0.5
vt 0.18101321160793304 0.0015009641647338867
vt 1.1109999418258667 0
vt 0.11119005084037781 0.24718952178955078
vt 0 0.3913043737411499
vt 0.00394710898399353 -0.08937191963195801
vt 1.1109999418258667 2
vt 0.11119005084037781 -0.03359413146972656
vt -0.0902506411075592 2.4553260803222656
vt 0.0805291160941124 2.9553442001342773
vt -0.0902506411075592 2.8670897483825684
vt 0.18225696682929993 2
vt -0.07436511665582657 0.0015010833740234375
vt 0.0805291160941124 2.9553427696228027
vt 0.0805291160941124 2.4418883323669434
vt -0.0902506411075592 2.4553260803222656
vt 0.03677821159362793 2
vt -0.0902506411075592 2.8670897483825684
vt 0.005778670310974121 0.5
vt 0.000999152660369873 0.0014986991882324219
vt 0.03677821159362793 0.040077388286590576
vt 0.11119005084037781 0.24718821048736572
vt 0.11119005084037781 -0.03359544277191162
vt 0.00394710898399353 -0.08937191963195801
vt 0 0.3913043737411499
vt 0.03677821159362793 0.5
vt 0.009830594062805176 1
vt 0.0805291160941124 2.4418883323669434
vt 1 0.22862482070922852
vt 0 0.22862446308135986
vt 0 0.06678128242492676
vt 0.03677701950073242 1
vt 0.12319966405630112 0.19508349895477295
vt 1 0.06678116321563721
vt 0.03677797317504883 1.5
vt 0.036779046058654785 1
vt 0.009830474853515625 1
vt 0.012537956237792969 1.5
vt 0.03677773475646973 0.5
vt 0.005778670310974121 0.5
vt 0.03677856922149658 0.04007887840270996
vt 0.0009990930557250977 0.0015004277229309082
vt 0.03677809238433838 2
vt 0.013217806816101074 2
vt 0.12319966405630112 0.22912514209747314
vt 2.068650722503662 0.5050000250339508
vt 2.0686705112457275 0.3400000333786011
vt 2.631898880004883 0.3400000333786011
vt 0.5004995465278625 0.5874999761581421
vt 1 0.6699999868869781
vt 1 0.5050000250339508
vt 0.36810949444770813 0.3400000333786011
vt 0.936775803565979 0.3400000333786011
vt 0.36810949444770813 0.6700000166893005
vt 1.4995005130767822 0.42250001430511475
vt 1 0.3400000333786011
vt 1.4995005130767822 0.5874999761581421
vt 1.9990010261535645 0.3399999737739563
vt 1.999000906944275 0.6700000166893005
vt 1.0000001192092896 0.504999965429306
vt 1.4995005130767822 0.42249995470046997
vt 1.4995005130767822 0.3399999737739563
vt 1.0000001192092896 0.3399999737739563
vt 0.5004996657371521 0.42249995470046997
vt 0.000999125768430531 0.6699999570846558
vt 0.0009992122650146484 0.3399999737739563
vt 0.5004994869232178 0.42250001430511475
vt 0.0009990334510803223 0.3400000333786011
vt 0.5004996657371521 0.3399999737739563
vt 1.4995005130767822 0.6700000166893005
vt 1.4995005130767822 0.5875000357627869
vt 1.4995005130767822 0.3400000333786011
vt 1.505402684211731 0.6700000166893005
vt 1.5054420232772827 0.3400000333786011
vt 1.999000906944275 0.3400000333786011
vt 0.5004996061325073 0.5874999761581421
vt 0.5004995465278625 0.6699999570846558
vt 1.999000906944275 0.5050000250339508
vt 0.9367757439613342 0.5050000250339508
vt 0.9367560744285583 0.6700000166893005
vt 0.5004994869232178 0.3400000333786011
vt 0.0009990795515477657 0.5049999952316284
vt 2.068650722503662 0.6700000166893005
vt 2.631898880004883 0.6700000166893005
vt 18.62928581237793 17.266422271728516
vt 18.32536506652832 16.956939697265625
vt 19.006563186645508 17.0145263671875
vt 18.25200843811035 17.51831817626953
vt 18.93320655822754 17.575904846191406
vt 18.533729553222656 17.997676849365234
vt 18.72713851928711 16.517576217651367
vt 19.067737579345703 16.546375274658203
vt 18.386539459228516 16.488786697387695
vt 19.08575439453125 17.305011749267578
vt 19.164945602416992 17.595497131347656
vt 19.23830223083496 17.034116744995117
vt 18.87432861328125 18.026470184326172
vt 18.19312858581543 17.968883514404297
vt 0.8500000238418579 0
vt 0.8100000023841858 0.2403179407119751
vt 0.8100000023841858 0.44470781087875366
vt 0.8500000238418579 0.4447122812271118
vt 0.9995007514953613 0.4447113871574402
vt 0.9995008111000061 0.000499427318572998
vt 0.8500000238418579 0.5160566568374634
vt 0.8100000023841858 0.5160562992095947
vt 0.8100000023841858 0.31960219144821167
vt 0.8500000238418579 0.07910525798797607
vt 0.8500000238418579 5
vt 0.8100000023841858 5
vt 0.8100000023841858 2.961559534072876
vt 0.8500000238418579 2.961559534072876
vt 1 2.961559534072876
vt 1 5
vt 0.8500000238418579 3.5344743728637695
vt 0.8100000023841858 3.75527024269104
vt 0.8100000023841858 4.997502326965332
vt 0.8500000238418579 4.9866862297058105
vt 1 3.4686765670776367
vt 1 4.98563289642334
vt 0.8500000238418579 1.3040000200271606
vt 0.8100000023841858 1.3040000200271606
vt 0.8100000023841858 0.001498579978942871
vt 0.8500000238418579 0.0014989972114562988
vt 1 1.3040000200271606
vt 1 0.0014989972114562988
vt 0.999500036239624 0.5160566568374634
vt 0.9994999766349792 0.055687546730041504
vt 0.8100000023841858 1.2563583850860596
vt 0.8500000238418579 1.5149540901184082
vt 0.8500000238418579 0.0035507678985595703
vt 0.8100000023841858 0.014367222785949707
vt 1 1.5786466598510742
vt 1 0.002497434616088867
vt 0.9995004534721375 0.0004998445510864258
vt 0.9995002150535583 0.9995004534721375
vt 0.0004995465278625488 0.9995001554489136
vt 0.9995001554489136 0.9995003938674927
vt 0.0004997849464416504 0.9995004534721375
vt 0.0004995465278625488 0.0004996061325073242
vt 0.9995002150535583 0.9995003938674927
vt 0.0004995465278625488 0.9995003938674927
vt 0.0004995465278625488 0.0004996061325073242
vt 0.9995002150535583 0.0004996061325073242
vt 0.0004997849464416504 0.0004995465278625488
vt 0.0004995465278625488 0.0004998445510864258
vt 0.9995002150535583 0.0004995465278625488
vt 0.9995004534721375 0.9995001554489136
vt 0.0004995465278625488 0.0004996061325073242
vt 0.9995002150535583 0.0004996061325073242
vt 0.9995002150535583 0.9995003938674927
vt 0.0004995465278625488 0.9995003938674927
vt 0.9995001554489136 0.0004996061325073242
vt 0.0004995465278625488 0.9995003938674927
g BW010
s 1
f 1/1/1 2/2/2 3/3/3
f 1/1/1 3/3/3 4/4/4
f 5/5/5 6/6/6 7/7/7
f 3/3/3 8/8/8 4/4/4
f 3/3/3 2/2/2 9/9/9
f 5/5/5 7/7/7 2/2/2
f 3/3/3 9/9/9 8/8/8
f 10/10/10 11/11/11 12/12/12
f 1/1/1 5/5/5 2/2/2
f 1/1/1 13/13/13 5/5/5
f 5/5/5 13/13/13 6/6/6
f 1/1/1 4/4/4 14/14/14
f 8/8/8 15/15/15 4/4/4
f 4/4/4 15/15/15 14/14/14
f 16/16/16 8/8/8 10/10/10
f 8/8/8 16/16/16 15/15/15
f 17/17/17 18/18/18 19/19/19
f 13/13/13 1/1/1 20/20/20
f 6/6/6 17/17/17 19/19/19
f 21/21/21 6/6/6 13/13/13
f 17/17/17 6/6/6 21/21/21
f 10/10/10 8/8/8 11/11/11
f 15/15/15 22/22/22 14/14/14
g BW011
s 1
f 23/23/23 24/24/24 25/25/25
f 26/26/26 25/25/25 27/27/27
f 28/28/28 29/29/29 30/30/30
f 28/28/28 30/30/30 31/31/31
f 24/24/24 23/23/23 32/32/32
f 33/33/33 34/34/34 35/35/35
f 34/34/34 36/36/36 35/35/35
f 37/37/37 32/32/32 38/38/38
f 24/24/24 29/29/29 28/28/28
f 25/25/25 24/24/24 39/39/39
f 40/40/40 36/36/36 41/41/41
f 23/23/23 36/36/36 40/40/40
f 42/42/42 40/40/40 43/43/43
f 42/42/42 23/23/23 40/40/40
f 33/33/33 35/35/35 26/26/26
f 44/44/44 24/24/24 32/32/32
f 25/25/25 39/39/39 27/27/27
f 32/32/32 42/42/42 38/38/38
f 32/32/32 23/23/23 42/42/42
f 39/39/39 24/24/24 28/28/28
f 27/27/27 39/39/39 28/28/28
f 44/44/44 37/37/37 45/45/45
f 24/24/24 44/44/44 45/45/45
f 37/37/37 44/44/44 32/32/32
f 36/36/36 23/23/23 46/46/46
f 45/45/45 47/47/47 48/48/48
f 24/24/24 45/45/45 48/48/48
f 45/45/45 37/37/37 47/47/47
f 46/46/46 23/23/23 25/25/25
f 36/36/36 46/46/46 35/35/35
f 35/35/35 46/46/46 26/26/26
f 40/40/40 41/41/41 43/43/43
f 27/27/27 28/28/28 31/31/31
f 24/24/24 48/48/48 29/29/29
f 26/26/26 46/46/46 25/25/25
f 38/38/38 42/42/42 43/43/43
g BW012
s 1
f 49/49/49 50/50/50 51/51/51
f 52/52/52 53/53/53 54/54/54
f 52/52/52 55/55/55 56/56/56
f 57/57/57 58/58/58 53/53/53
f 53/53/53 59/59/59 54/54/54
f 60/60/60 61/61/61 62/62/62
f 62/62/62 63/63/63 60/60/60
f 64/64/64 65/65/65 66/66/66
f 49/49/49 51/51/51 67/67/67
f 68/68/68 69/69/69 50/50/50
f 70/70/70 71/71/71 72/72/72
f 56/56/56 57/57/57 52/52/52
f 57/57/57 53/53/53 52/52/52
f 70/70/70 73/73/73 71/71/71
f 74/74/74 75/75/75 64/64/64
f 66/66/66 76/76/76 64/64/64
f 64/64/64 76/76/76 74/74/74
f 77/77/77 66/66/66 78/78/78
f 79/79/79 80/80/80 73/73/73
f 56/56/56 55/55/55 81/81/81
f 82/82/82 83/83/83 81/81/81
f 69/69/69 68/68/68 84/84/84
f 85/85/85 86/86/86 84/84/84
f 66/66/66 77/77/77 76/76/76
f 81/81/81 83/83/83 87/87/87
f 81/81/81 87/87/87 56/56/56
f 79/79/79 73/73/73 70/70/70
f 72/72/72 88/88/88 70/70/70
f 81/81/81 55/55/55 89/89/89
f 81/81/81 89/89/89 82/82/82
f 84/84/84 68/68/68 90/90/90
f 84/84/84 90/90/90 85/85/85
f 70/70/70 88/88/88 91/91/91
f 70/70/70 91/91/91 79/79/79
f 84/84/84 86/86/86 92/92/92
f 84/84/84 92/92/92 69/69/69
f 64/64/64 75/75/75 65/65/65
f 93/93/93 60/60/60 63/63/63
f 94/94/94 95/95/95 96/96/96
f 78/78/78 97/97/97 98/98/98
f 98/98/98 77/77/77 78/78/78
f 99/99/99 100/100/100 101/101/101
f 102/102/102 98/98/98 97/97/97
f 103/103/103 50/50/50 49/49/49
f 68/68/68 50/50/50 103/103/103
f 103/103/103 49/49/49 104/104/104
g BW013
s 1
f 105/105/105 106/106/106 107/107/107
f 108/108/108 107/107/107 106/106/106
f 109/109/109 110/110/110 111/111/111
f 112/112/112 113/113/113 114/114/114
f 115/115/115 116/116/116 105/105/105
f 116/116/116 109/109/109 105/105/105
f 117/117/117 118/118/118 114/114/114
f 118/118/118 119/119/119 114/114/114
f 120/120/120 121/121/121 122/122/122
f 121/121/121 123/123/123 122/122/122
f 124/124/124 110/110/110 125/125/125
f 126/126/126 112/112/112 114/114/114
f 124/124/124 111/111/111 110/110/110
f 127/127/127 111/111/111 124/124/124
f 112/112/112 120/120/120 113/113/113
f 128/128/128 125/125/125 110/110/110
f 108/108/108 106/106/106 111/111/111
f 105/105/105 111/111/111 106/106/106
f 109/109/109 128/128/128 110/110/110
f 129/129/129 117/117/117 130/130/130
f 117/117/117 114/114/114 113/113/113
f 120/120/120 122/122/122 113/113/113
f 130/130/130 122/122/122 123/123/123
f 130/130/130 113/113/113 122/122/122
f 131/131/131 120/120/120 112/112/112
f 126/126/126 131/131/131 112/112/112
f 132/132/132 130/130/130 123/123/123
f 117/117/117 113/113/113 130/130/130
f 127/127/127 108/108/108 111/111/111
f 115/115/115 105/105/105 107/107/107
f 105/105/105 109/109/109 111/111/111
f 126/126/126 114/114/114 119/119/119
f 133/133/133 134/134/134 124/124/124
f 134/134/134 127/127/127 124/124/124
f 132/132/132 129/129/129 130/130/130
f 133/133/133 124/124/124 125/125/125
g BW014
s 1
f 135/135/135 136/136/136 137/137/137
f 137/137/137 138/138/138 135/135/135
f 136/136/136 139/139/139 140/140/140
f 141/141/141 142/142/142 143/143/143
f 135/135/135 144/144/144 141/141/141
f 138/138/138 144/144/144 135/135/135
f 141/141/141 145/145/145 135/135/135
f 145/145/145 136/136/136 135/135/135
f 146/146/146 147/147/147 148/148/148
f 149/149/149 150/150/150 136/136/136
f 150/150/150 139/139/139 136/136/136
f 139/139/139 150/150/150 151/151/151
f 137/137/137 136/136/136 152/152/152
f 137/137/137 152/152/152 153/153/153
f 152/152/152 140/140/140 153/153/153
f 136/136/136 140/140/140 152/152/152
f 154/154/154 149/149/149 136/136/136
f 154/154/154 136/136/136 145/145/145
f 153/153/153 155/155/155 137/137/137
f 155/155/155 138/138/138 137/137/137
f 141/141/141 156/156/156 142/142/142
f 156/156/156 157/157/157 142/142/142
f 144/144/144 157/157/157 156/156/156
f 144/144/144 156/156/156 141/141/141
f 138/138/138 158/158/158 144/144/144
f 158/158/158 157/157/157 144/144/144
f 143/143/143 159/159/159 141/141/141
f 159/159/159 145/145/145 141/141/141
f 159/159/159 154/154/154 145/145/145
f 143/143/143 154/154/154 159/159/159
f 148/148/148 160/160/160 143/143/143
f 151/151/151 161/161/161 162/162/162
f 148/148/148 161/161/161 160/160/160
f 161/161/161 151/151/151 160/160/160
f 163/163/163 164/164/164 162/162/162
f 147/147/147 163/163/163 165/165/165
f 147/147/147 165/165/165 148/148/148
f 163/163/163 162/162/162 165/165/165
f 143/143/143 166/166/166 154/154/154
f 166/166/166 149/149/149 154/154/154
f 149/149/149 166/166/166 160/160/160
f 166/166/166 143/143/143 160/160/160
f 150/150/150 149/149/149 167/167/167
f 150/150/150 167/167/167 151/151/151
f 167/167/167 160/160/160 151/151/151
f 149/149/149 160/160/160 167/167/167
f 164/164/164 168/168/168 169/169/169
f 164/164/164 169/169/169 162/162/162
f 151/151/151 162/162/162 169/169/169
f 151/151/151 169/169/169 168/168/168
f 165/165/165 162/162/162 170/170/170
f 165/165/165 170/170/170 148/148/148
f 161/161/161 148/148/148 170/170/170
f 161/161/161 170/170/170 162/162/162
g BW015
s 1
f 171/171/171 172/172/172 173/173/173
f 174/174/174 175/175/175 176/176/176
f 177/177/177 178/178/178 179/179/179
f 176/176/176 180/180/180 174/174/174
f 179/179/179 181/181/181 177/177/177
f 178/178/178 182/182/182 183/183/183
f 183/183/183 179/179/179 178/178/178
f 182/182/182 184/184/184 185/185/185
f 185/185/185 183/183/183 182/182/182
f 186/186/186 187/187/187 188/188/188
f 189/189/189 190/190/190 191/191/191
f 192/192/192 193/193/193 194/194/194
f 191/191/191 195/195/195 189/189/189
f 187/187/187 186/186/186 196/196/196
f 197/197/197 198/198/198 199/199/199
f 193/193/193 192/192/192 200/200/200
f 199/199/199 201/201/201 197/197/197
f 202/202/202 203/203/203 204/204/204
f 205/205/205 206/206/206 207/207/207
f 188/188/188 208/208/208 186/186/186
f 208/208/208 188/188/188 205/205/205
f 202/202/202 209/209/209 203/203/203
f 198/198/198 210/210/210 211/211/211
f 206/206/206 205/205/205 188/188/188
f 211/211/211 199/199/199 198/198/198
f 206/206/206 212/212/212 213/213/213
f 210/210/210 189/189/189 195/195/195
f 212/212/212 206/206/206 214/214/214
f 195/195/195 211/211/211 210/210/210
f 215/215/215 216/216/216 217/217/217
f 218/218/218 219/219/219 220/220/220
f 216/216/216 215/215/215 213/213/213
f 221/221/221 185/185/185 184/184/184
f 218/218/218 220/220/220 222/222/222
f 223/223/223 224/224/224 225/225/225
f 184/184/184 226/226/226 221/221/221
f 213/213/213 227/227/227 216/216/216
f 228/228/228 229/229/229 230/230/230
f 213/213/213 207/207/207 206/206/206
f 173/173/173 231/231/231 171/171/171
f 214/214/214 188/188/188 187/187/187
f 230/230/230 232/232/232 228/228/228
f 233/233/233 234/234/234 235/235/235
f 188/188/188 214/214/214 206/206/206
f 236/236/236 237/237/237 238/238/238
f 207/207/207 213/213/213 215/215/215
f 236/236/236 238/238/238 239/239/239
f 235/235/235 240/240/240 233/233/233
f 241/241/241 233/233/233 240/240/240
f 224/224/224 223/223/223 242/242/242
f 243/243/243 244/244/244 245/245/245
f 240/240/240 246/246/246 241/241/241
f 172/172/172 241/241/241 246/246/246
f 246/246/246 173/173/173 172/172/172
f 247/247/247 245/245/245 244/244/244
f 245/245/245 248/248/248 243/243/243
f 249/249/249 250/250/250 251/251/251
f 251/251/251 252/252/252 249/249/249
f 250/250/250 253/253/253 254/254/254
f 254/254/254 251/251/251 250/250/250
f 253/253/253 255/255/255 256/256/256
f 256/256/256 254/254/254 253/253/253
f 257/257/257 249/249/249 252/252/252
f 252/252/252 258/258/258 257/257/257
f 244/244/244 259/259/259 247/247/247
f 227/227/227 213/213/213 212/212/212
g BW016
s 1
f 260/260/260 261/261/261 262/262/262
f 263/263/263 264/264/264 265/265/265
f 266/266/266 267/267/267 268/268/268
f 265/265/265 269/269/269 270/270/270
f 271/271/271 272/272/272 273/273/273
f 264/264/264 274/274/274 271/271/271
f 272/272/272 275/275/275 276/276/276
f 276/276/276 275/275/275 277/277/277
f 278/278/278 279/279/279 280/280/280
f 277/277/277 274/274/274 278/278/278
f 265/265/265 270/270/270 281/281/281
f 263/263/263 265/265/265 281/281/281
f 263/263/263 281/281/281 282/282/282
f 277/277/277 278/278/278 283/283/283
f 283/283/283 278/278/278 280/280/280
f 284/284/284 273/273/273 285/285/285
f 264/264/264 284/284/284 285/285/285
f 264/264/264 271/271/271 284/284/284
f 284/284/284 271/271/271 273/273/273
f 269/269/269 286/286/286 270/270/270
f 287/287/287 288/288/288 261/261/261
f 269/269/269 289/289/289 286/286/286
f 279/279/279 290/290/290 291/291/291
f 291/291/291 290/290/290 264/264/264
f 291/291/291 264/264/264 263/263/263
f 279/279/279 291/291/291 263/263/263
f 275/275/275 274/274/274 277/277/277
f 275/275/275 272/272/272 271/271/271
f 274/274/274 275/275/275 271/271/271
f 290/290/290 279/279/279 278/278/278
f 274/274/274 290/290/290 278/278/278
f 290/290/290 274/274/274 264/264/264
f 292/292/292 289/289/289 269/269/269
f 293/293/293 294/294/294 268/268/268
f 273/273/273 292/292/292 269/269/269
f 281/281/281 270/270/270 295/295/295
f 281/281/281 295/295/295 282/282/282
f 264/264/264 285/285/285 265/265/265
f 285/285/285 269/269/269 265/265/265
f 273/273/273 269/269/269 285/285/285
f 296/296/296 263/263/263 282/282/282
f 279/279/279 263/263/263 296/296/296
f 293/293/293 287/287/287 294/294/294
f 288/288/288 287/287/287 293/293/293
f 267/267/267 293/293/293 268/268/268
f 267/267/267 288/288/288 293/293/293
f 297/297/297 287/287/287 260/260/260
f 298/298/298 297/297/297 260/260/260
f 287/287/287 261/261/261 260/260/260
f 298/298/298 260/260/260 262/262/262
g BW017
s 1
f 299/299/299 300/300/300 301/301/301
f 302/302/302 300/300/300 299/299/299
f 303/303/303 304/304/304 302/302/302
f 305/305/305 306/306/306 301/301/301
f 300/300/300 305/305/305 301/301/301
f 305/305/305 300/300/300 307/307/307
f 308/308/308 309/309/309 303/303/303
f 301/301/301 303/303/303 299/299/299
f 299/299/299 303/303/303 302/302/302
f 310/310/310 309/309/309 308/308/308
f 308/308/308 301/301/301 310/310/310
f 303/303/303 301/301/301 308/308/308
f 304/304/304 303/303/303 311/311/311
f 304/304/304 312/312/312 302/302/302
g BW018
s 1
f 313/313/313 314/314/314 315/315/315
f 316/316/316 317/317/317 318/318/318
f 318/318/318 313/313/313 316/316/316
f 319/319/319 320/320/320 321/321/321
f 321/321/321 322/322/322 319/319/319
f 323/323/323 324/324/324 325/325/325
f 326/326/326 327/327/327 328/328/328
f 328/328/328 323/323/323 326/326/326
f 329/329/329 330/330/330 331/331/331
f 331/331/331 332/332/332 329/329/329
f 333/333/333 329/329/329 332/332/332
f 332/332/332 334/334/334 333/333/333
f 335/335/335 336/336/336 337/337/337
f 337/337/337 338/338/338 335/335/335
f 339/339/339 335/335/335 338/338/338
f 338/338/338 340/340/340 339/339/339
f 341/341/341 319/319/319 322/322/322
f 325/325/325 336/336/336 335/335/335
f 325/325/325 326/326/326 323/323/323
f 322/322/322 342/342/342 341/341/341
f 343/343/343 344/344/344 345/345/345
f 345/345/345 346/346/346 343/343/343
f 344/344/344 347/347/347 348/348/348
f 348/348/348 345/345/345 344/344/344
f 335/335/335 326/326/326 325/325/325
f 339/339/339 327/327/327 326/326/326
f 326/326/326 335/335/335 339/339/339
f 315/315/315 316/316/316 313/313/313
g BW019
s 1
f 349/349/349 350/350/350 351/351/351
f 352/352/352 353/353/353 354/354/354
f 354/354/354 349/349/349 352/352/352
f 355/355/355 356/356/356 357/357/357
f 357/357/357 358/358/358 355/355/355
f 351/351/351 359/359/359 349/349/349
f 360/360/360 361/361/361 362/362/362
f 362/362/362 353/353/353 360/360/360
f 363/363/363 364/364/364 365/365/365
f 365/365/365 366/366/366 363/363/363
f 359/359/359 367/367/367 362/362/362
f 362/362/362 368/368/368 359/359/359
