# Exported using wow.export v0.2.19
o 21138_Stairs11.obj
v -488.38885498046875 -12.766998291015625 -67.8106689453125
v -488.38885498046875 -12.766998291015625 -68.97537994384766
v -488.3890686035156 -13.837379455566406 -67.81067657470703
v -488.38885498046875 -12.766998291015625 -66.64596557617188
v -488.38861083984375 -11.696617126464844 -67.8106689453125
v -488.3890686035156 -13.837379455566406 -70.14009094238281
v -488.38861083984375 -11.696617126464844 -70.14009094238281
v -488.38836669921875 -10.626235961914062 -68.97537231445312
v -488.38861083984375 -11.696617126464844 -68.97537994384766
v -488.38812255859375 -9.555854797363281 -68.97537231445312
v -488.38812255859375 -9.555854797363281 -70.14008331298828
v -488.38812255859375 -9.555854797363281 -70.14008331298828
v -488.6793212890625 -13.837379455566406 -70.14009857177734
v -488.38861083984375 -11.696617126464844 -70.14009094238281
v -488.3890686035156 -13.837379455566406 -70.14009094238281
v -488.38812255859375 -9.555854797363281 -67.8106689453125
v -488.3890686035156 -13.837379455566406 -66.64596557617188
v -488.3890686035156 -13.837379455566406 -65.48126220703125
v -493.7697448730469 -12.760063171386719 -64.4706802368164
v -493.7693786621094 -9.5558500289917 -64.4706802368164
v -494.04583740234375 -9.555851936340332 -64.47068786621094
v -494.0412902832031 -12.760063171386719 -64.47068786621094
v -488.6784362792969 -9.555858612060547 -64.4706802368164
v -488.3722229003906 -12.760061264038086 -64.47068786621094
v -488.3817443847656 -9.55601978302002 -64.47068786621094
v -488.6793518066406 -12.760063171386719 -64.47068786621094
v -489.09320068359375 -11.69661808013916 -70.86092376708984
v -489.0936584472656 -13.837379455566406 -70.86092376708984
v -489.0936584472656 -13.837377548217773 -70.5612564086914
v -489.0927734375 -9.555856704711914 -70.86092376708984
v -489.09320068359375 -11.69661808013916 -70.86092376708984
v -489.0927734375 -9.555856704711914 -70.86092376708984
v -491.42926025390625 -11.696610450744629 -70.86549377441406
v -488.38885498046875 -12.766998291015625 -65.48126220703125
v -488.3890686035156 -13.837379455566406 -65.48126220703125
v -488.6793212890625 -13.837379455566406 -65.48126220703125
v -489.0936584472656 -13.837379455566406 -70.86092376708984
v -488.38861083984375 -11.696617126464844 -65.48126220703125
v -488.38885498046875 -12.766998291015625 -65.48126220703125
v -488.38861083984375 -11.696617126464844 -65.48126220703125
v -491.4288330078125 -9.555849075317383 -70.86549377441406
v -493.7648620605469 -9.555841445922852 -70.87006378173828
v -488.38861083984375 -11.696617126464844 -66.64596557617188
v -493.76531982421875 -11.69660472869873 -70.87006378173828
v -493.7648620605469 -9.555841445922852 -70.87006378173828
v -493.7648620605469 -9.555839538574219 -70.57039642333984
v -493.7657775878906 -13.83736801147461 -70.87006378173828
v -488.38836669921875 -10.626235961914062 -66.64596557617188
v -493.76531982421875 -11.69660472869873 -70.87006378173828
v -493.7657775878906 -13.83736801147461 -70.87006378173828
v -488.38836669921875 -10.626235961914062 -65.48126220703125
v -494.7833251953125 -12.760055541992188 -70.57039642333984
v -494.27410888671875 -11.157947540283203 -70.57039642333984
v -494.7833251953125 -9.555840492248535 -70.57039642333984
v -493.7648620605469 -9.555839538574219 -70.57039642333984
v -488.38812255859375 -9.555854797363281 -65.48126220703125
v -488.38812255859375 -9.555854797363281 -66.64596557617188
v -488.38836669921875 -10.626235961914062 -67.8106689453125
v -493.76531982421875 -11.696602821350098 -70.57039642333984
v -488.38812255859375 -9.555854797363281 -65.48126220703125
v -488.38836669921875 -10.626235961914062 -65.48126220703125
v -494.27630615234375 -11.157943725585938 -65.48001098632812
v -494.7833251953125 -9.555831909179688 -65.48001098632812
v -493.7693176269531 -9.555848121643066 -65.48001098632812
v -489.09320068359375 -11.696616172790527 -70.35066986083984
v -493.7696838378906 -12.760058403015137 -65.48001098632812
v -494.7833251953125 -12.760040283203125 -65.48001098632812
v -488.88604736328125 -11.696617126464844 -70.14009094238281
v -489.0927734375 -9.555854797363281 -70.14008331298828
v -489.0936584472656 -13.837379455566406 -70.14008331298828
v -489.0936584472656 -13.837379455566406 -70.14008331298828
v -493.7657775878906 -13.837366104125977 -70.57039642333984
v -494.7833251953125 -14.415396690368652 -70.5699234008789
v -493.7658386230469 -14.647891998291016 -70.57040405273438
v -489.0927734375 -9.555854797363281 -70.14008331298828
v -488.67889404296875 -11.696617126464844 -65.48126220703125
v -488.6784362792969 -9.555854797363281 -65.48126220703125
v -494.7833251953125 -14.64788818359375 -70.57040405273438
v -494.7833251953125 -14.6478853225708 -65.48001861572266
v -494.7833251953125 -14.41539478302002 -65.47953033447266
v -493.76947021484375 -14.64788818359375 -65.48001861572266
v -493.7697448730469 -12.760063171386719 -64.4706802368164
v -493.76953125 -14.647891998291016 -64.47068786621094
v -493.76947021484375 -14.64788818359375 -65.48001861572266
v -493.7696838378906 -12.760058403015137 -65.48001098632812
v -493.7693786621094 -9.5558500289917 -64.4706802368164
v -493.7693176269531 -9.555848121643066 -65.48001098632812
v -488.67889404296875 -11.696617126464844 -65.48126220703125
v -488.6793212890625 -13.837379455566406 -65.48126220703125
v -488.6793518066406 -12.760063171386719 -64.47068786621094
v -493.76531982421875 -11.696602821350098 -70.57039642333984
v -493.7657775878906 -13.837366104125977 -70.57039642333984
v -488.6793518066406 -14.647905349731445 -65.48126983642578
v -488.6798095703125 -14.642927169799805 -64.47068786621094
v -488.6795959472656 -13.704383850097656 -64.47068786621094
v -491.4297180175781 -13.837373733520508 -70.86549377441406
v -494.7833251953125 -14.257941246032715 -70.5700454711914
v -489.09368896484375 -14.647905349731445 -70.14009094238281
v -489.09368896484375 -14.647905349731445 -70.5612564086914
v -494.7833251953125 -14.257941246032715 -65.47965240478516
v -488.6793518066406 -14.647905349731445 -70.14009857177734
v -489.09368896484375 -14.647905349731445 -70.14009094238281
v -488.67889404296875 -11.157958984375 -64.9759750366211
v -488.6784362792969 -9.555854797363281 -65.48126220703125
v -488.6784362792969 -9.555858612060547 -64.4706802368164
v -488.6798095703125 -14.642927169799805 -64.47068786621094
v -488.681884765625 -16.243473052978516 -62.18471908569336
v -488.6817626953125 -15.774201393127441 -62.18471908569336
v -493.77740478515625 -18.453094482421875 -56.502262115478516
v -493.77532958984375 -18.624361038208008 -58.61834716796875
v -493.77532958984375 -17.870647430419922 -58.618377685546875
v -493.7732238769531 -17.2882022857666 -60.7344970703125
v -493.775634765625 -17.129802703857422 -58.354942321777344
v -493.76947021484375 -14.821699142456055 -64.47068786621094
v -493.7713623046875 -15.968047142028809 -62.60259246826172
v -493.76953125 -14.647891998291016 -64.47068786621094
v -493.771484375 -15.02413272857666 -62.60258865356445
v -488.6832275390625 -15.61603832244873 -60.47212600708008
v -488.3722229003906 -12.760061264038086 -64.47068786621094
v -488.6812744140625 -14.188051223754883 -62.471405029296875
v -488.6793518066406 -12.760063171386719 -64.47068786621094
v -488.6812744140625 -14.188051223754883 -62.471405029296875
v -488.6793518066406 -12.760063171386719 -64.47068786621094
v -488.681640625 -15.302041053771973 -62.18471908569336
v -488.6832275390625 -15.61603832244873 -60.47212600708008
v -493.77178955078125 -14.283287048339844 -62.339149475097656
v -493.7697448730469 -12.760063171386719 -64.4706802368164
v -494.0412902832031 -12.760063171386719 -64.47068786621094
v -493.7738342285156 -15.806511878967285 -60.20762252807617
v -493.77178955078125 -14.283287048339844 -62.339149475097656
v -493.7738342285156 -15.806511878967285 -60.20762252807617
v -493.7697448730469 -12.760063171386719 -64.4706802368164
v -494.04400634765625 -18.453046798706055 -56.502262115478516
v -494.0433349609375 -17.029800415039062 -58.49436950683594
v -494.04266357421875 -15.606554985046387 -60.486473083496094
v -488.37603759765625 -15.60659122467041 -60.486473083496094
v -488.3779602050781 -17.029855728149414 -58.49436950683594
v -488.3798828125 -18.453121185302734 -56.502262115478516
v -488.6793212890625 -13.837379455566406 -65.48126220703125
v -488.3890686035156 -13.837379455566406 -66.64596557617188
v -488.3890686035156 -13.837379455566406 -67.81067657470703
v -488.3890686035156 -13.837379455566406 -65.48126220703125
v -488.3890686035156 -13.837379455566406 -70.14009094238281
v -488.6839294433594 -17.844018936157227 -59.89875030517578
v -488.6795959472656 -13.704383850097656 -64.47068786621094
v -488.68701171875 -18.45309066772461 -56.502262115478516
v -488.68511962890625 -17.034564971923828 -58.4871940612793
v -488.68511962890625 -17.034564971923828 -58.4871940612793
v -493.775634765625 -17.129802703857422 -58.354942321777344
v -493.77740478515625 -18.453094482421875 -56.502262115478516
v -493.77740478515625 -19.960519790649414 -56.502193450927734
v -489.0936584472656 -13.837377548217773 -70.5612564086914
v -491.4297180175781 -13.837373733520508 -70.86549377441406
v -493.7657775878906 -13.83736801147461 -70.87006378173828
v -493.7774658203125 -20.10789680480957 -56.5021858215332
v -489.0936584472656 -13.837379455566406 -70.86092376708984
v -489.09368896484375 -14.647905349731445 -70.5612564086914
v -491.42974853515625 -14.242635726928711 -70.56582641601562
v -493.7657775878906 -13.837366104125977 -70.57039642333984
v -493.7658386230469 -14.647891998291016 -70.57040405273438
v -488.3741455078125 -14.183326721191406 -62.478580474853516
v -493.76953125 -15.537787437438965 -64.21158599853516
v -493.7734680175781 -17.917118072509766 -60.41706848144531
v -493.77740478515625 -20.29644775390625 -56.6225471496582
v -494.0419921875 -14.183309555053711 -62.478580474853516
v -488.68341064453125 -17.91752815246582 -60.41471862792969
v -488.6798400878906 -15.538604736328125 -64.2068862915039
v -488.68701171875 -20.296451568603516 -56.6225471496582
v -488.68701171875 -20.10790252685547 -56.5021858215332
v -488.6798095703125 -15.03140926361084 -64.47068786621094
v -493.76947021484375 -15.030606269836426 -64.4706802368164
v -488.68701171875 -19.96051788330078 -56.502193450927734
v -488.6798095703125 -14.822513580322266 -64.47068786621094
v -488.6793212890625 -14.445274353027344 -68.97538757324219
v -488.6793518066406 -14.647905349731445 -70.14009857177734
v -488.6793518066406 -14.647905349731445 -67.81068420410156
v -488.6793212890625 -14.242642402648926 -67.81068420410156
v -488.6793212890625 -13.837379455566406 -70.14009857177734
v -488.6793518066406 -14.647905349731445 -65.48126983642578
v -488.6793212890625 -14.040010452270508 -66.6459732055664
v -488.6793212890625 -13.837379455566406 -67.81068420410156
v -491.42974853515625 -14.64789867401123 -70.56582641601562
v -491.4297180175781 -13.837371826171875 -70.56582641601562
v -488.6798095703125 -14.642927169799805 -64.47068786621094
v -493.7648620605469 -9.555839538574219 -70.57039642333984
v -493.7648620605469 -9.555841445922852 -70.87006378173828
v -491.4288330078125 -9.555849075317383 -70.86549377441406
v -491.2119445800781 -13.265542984008789 -59.208030700683594
v -489.7958984375 -13.265583038330078 -59.20697784423828
v -491.2119445800781 -13.914163589477539 -58.306854248046875
v -493.76708984375 -9.555843353271484 -68.02520751953125
v -494.27410888671875 -9.555835723876953 -68.02520751953125
v -492.62799072265625 -13.265501022338867 -59.209075927734375
v -491.2239074707031 -9.555852890014648 -64.97596740722656
v -491.223876953125 -9.555850982666016 -65.48063659667969
v -489.951171875 -9.555853843688965 -65.2286148071289
v -488.6784362792969 -9.555854797363281 -65.48126220703125
v -488.6784362792969 -9.555858612060547 -64.4706802368164
v -494.04400634765625 -12.616839408874512 -60.11130142211914
v -491.3612060546875 -11.086349487304688 -62.290992736816406
v -491.2119445800781 -12.616921424865723 -60.10920333862305
v -488.3798828125 -12.617003440856934 -60.10710525512695
v -494.7833251953125 -9.555831909179688 -65.48001098632812
v -494.7833251953125 -9.555835723876953 -68.02520751953125
v -494.5287170410156 -9.55583381652832 -66.75260925292969
v -493.7693176269531 -9.555848121643066 -65.48001098632812
v -491.4310302734375 -9.555850982666016 -67.81004333496094
v -493.7693786621094 -9.5558500289917 -64.4706802368164
v -491.2239074707031 -9.555854797363281 -64.4706802368164
v -488.5291748046875 -11.086431503295898 -62.28889465332031
v -488.38079833984375 -11.086511611938477 -62.28889465332031
v -488.6784362792969 -9.555858612060547 -64.4706802368164
v -491.2239074707031 -9.555854797363281 -64.4706802368164
v -488.3798828125 -13.91424560546875 -58.30475616455078
v -488.3798828125 -15.21148681640625 -56.502410888671875
v -494.7833251953125 -9.555840492248535 -70.57039642333984
v -491.21197509765625 -15.211488723754883 -56.502410888671875
v -494.0440673828125 -15.211490631103516 -56.502410888671875
v -490.05474853515625 -9.555852890014648 -66.6456527709961
v -489.951171875 -9.555852890014648 -65.48094940185547
v -488.8856201171875 -9.555854797363281 -67.8106689453125
v -488.78204345703125 -9.555854797363281 -66.64596557617188
v -488.7404479980469 -9.555854797363281 -67.8106689453125
v -491.32745361328125 -9.555850982666016 -66.64533996582031
v -492.60015869140625 -9.555849075317383 -66.64502716064453
v -493.7693786621094 -9.5558500289917 -64.4706802368164
v -488.38812255859375 -9.555854797363281 -65.48126220703125
v -491.4288330078125 -9.55584716796875 -70.35523986816406
v -489.0927734375 -9.555856704711914 -70.86092376708984
v -489.0927734375 -9.555854797363281 -70.14008331298828
v -494.0440368652344 -13.914165496826172 -58.306854248046875
v -490.26190185546875 -9.555852890014648 -68.97506713867188
v -488.38812255859375 -9.555854797363281 -68.97537231445312
v -488.38812255859375 -9.555854797363281 -67.8106689453125
v -493.90667724609375 -11.086344718933105 -62.290992736816406
v -494.044921875 -11.086345672607422 -62.290992736816406
v -488.38812255859375 -9.555854797363281 -70.14008331298828
v -490.1583251953125 -9.555852890014648 -67.81035614013672
v -488.98919677734375 -9.555854797363281 -68.97537231445312
v -488.3817443847656 -9.55601978302002 -64.47068786621094
v -488.38812255859375 -9.555854797363281 -66.64596557617188
v -494.04583740234375 -9.555851936340332 -64.47068786621094
v -488.6793518066406 -14.647905349731445 -67.81068420410156
v -488.6793518066406 -14.647905349731445 -70.14009857177734
v -488.88653564453125 -14.647905349731445 -67.81068420410156
v -490.26263427734375 -14.64790153503418 -68.9750747680664
v -491.43157958984375 -14.647896766662598 -67.81005859375
v -490.1590576171875 -14.64790153503418 -67.81037139892578
v -488.782958984375 -14.647905349731445 -66.64598083496094
v -490.05548095703125 -14.64790153503418 -66.64566040039062
v -488.6793518066406 -14.647905349731445 -65.48126983642578
v -491.22442626953125 -14.647896766662598 -65.48064422607422
v -489.951904296875 -14.64790153503418 -65.48095703125
v -491.2246398925781 -14.645407676696777 -64.97535705566406
v -488.9901123046875 -14.647905349731445 -68.97538757324219
v -494.7833251953125 -14.647886276245117 -68.02520751953125
v -494.7833251953125 -14.6478853225708 -65.48001861572266
v -494.2763977050781 -14.64788818359375 -68.02520751953125
v -491.42974853515625 -14.64789867401123 -70.3552474975586
v -493.76947021484375 -14.64788818359375 -65.48001861572266
v -493.76953125 -14.647891998291016 -64.47068786621094
v -493.7658386230469 -14.647891998291016 -70.57040405273438
v -494.7833251953125 -14.64788818359375 -70.57040405273438
v -493.76763916015625 -14.647890090942383 -68.02520751953125
v -488.6798095703125 -14.642927169799805 -64.47068786621094
v -491.22467041015625 -14.64540958404541 -64.47068786621094
v -489.09368896484375 -14.647905349731445 -70.14009094238281
v -491.42974853515625 -14.64789867401123 -70.56582641601562
v -489.09368896484375 -14.647905349731445 -70.5612564086914
v -491.21807861328125 -15.056652069091797 -63.962833404541016
v -494.1769104003906 -15.056257247924805 -63.9650764465332
v -494.1769104003906 -15.431342124938965 -63.96529769897461
v -491.018310546875 -19.960519790649414 -56.795928955078125
v -488.68701171875 -19.96051788330078 -56.502193450927734
v -488.25921630859375 -19.960519790649414 -57.08966827392578
v -493.77740478515625 -19.960519790649414 -56.502193450927734
v -491.21807861328125 -19.960519790649414 -57.08967208862305
v -491.4283447265625 -15.043832778930664 -64.21788024902344
v -493.76947021484375 -15.030606269836426 -64.4706802368164
v -494.1769104003906 -15.056257247924805 -63.9650764465332
v -488.6798095703125 -15.03140926361084 -64.47068786621094
v -491.21807861328125 -15.056652069091797 -63.962833404541016
v -488.25921630859375 -16.952653884887695 -61.66511535644531
v -488.25921630859375 -16.55519676208496 -61.67069625854492
v -491.21807861328125 -16.753528594970703 -61.67014694213867
v -494.1769104003906 -16.951860427856445 -61.66959762573242
v -494.1769104003906 -16.55439567565918 -61.675048828125
v -491.21807861328125 -17.14238929748535 -61.09748458862305
v -488.25921630859375 -17.33059310913086 -61.0952033996582
v -488.25921630859375 -16.954980850219727 -61.09526443481445
v -494.1769104003906 -17.329797744750977 -61.09970474243164
v -494.1769104003906 -16.954187393188477 -61.09975051879883
v -491.21807861328125 -17.526046752929688 -60.524375915527344
v -488.25921630859375 -17.71414566040039 -60.52215576171875
v -488.25921630859375 -17.3387393951416 -60.52210235595703
v -494.1769104003906 -17.71335220336914 -60.52664566040039
v -494.1769104003906 -17.337942123413086 -60.52659225463867
v -491.21807861328125 -17.902122497558594 -59.951507568359375
v -488.25921630859375 -18.090145111083984 -59.9493408203125
v -488.25921630859375 -17.714887619018555 -59.94919204711914
v -494.1769104003906 -17.714101791381836 -59.95367431640625
v -494.1769104003906 -18.08935546875 -59.95382308959961
v -491.21807861328125 -16.367691040039062 -62.245887756347656
v -494.1769104003906 -16.179683685302734 -62.24810028076172
v -494.1769104003906 -16.554901123046875 -62.2481689453125
v -488.25921630859375 -16.18048095703125 -62.24361038208008
v -488.25921630859375 -16.555694580078125 -62.24367904663086
v -491.21807861328125 -18.277488708496094 -59.37901306152344
v -494.1769104003906 -18.08950424194336 -59.38115310668945
v -494.1769104003906 -18.46466827392578 -59.38136291503906
v -488.25921630859375 -18.090309143066406 -59.37666702270508
v -488.25921630859375 -18.465457916259766 -59.37687301635742
v -491.21807861328125 -19.401325225830078 -57.66219711303711
v -488.25921630859375 -19.58929443359375 -57.6600341796875
v -488.25921630859375 -19.214155197143555 -57.65987014770508
v -494.1769104003906 -19.5884952545166 -57.66452407836914
v -494.1769104003906 -19.213369369506836 -57.66436004638672
v -491.21807861328125 -15.99317741394043 -62.81841278076172
v -488.25921630859375 -16.1811466217041 -62.81625747680664
v -488.25921630859375 -15.806010246276855 -62.81608963012695
v -494.1769104003906 -16.18034553527832 -62.82073211669922
v -494.1769104003906 -15.80522346496582 -62.82057571411133
v -491.21807861328125 -15.244194984436035 -63.96294403076172
v -488.25921630859375 -15.432148933410645 -63.9608039855957
v -488.25921630859375 -15.057047843933105 -63.96059036254883
v -491.21807861328125 -18.652345657348633 -58.806724548339844
v -488.25921630859375 -18.84029197692871 -58.80458068847656
v -488.25921630859375 -18.46519660949707 -58.80437469482422
v -494.1769104003906 -18.839494705200195 -58.80907440185547
v -494.1769104003906 -18.46440315246582 -58.80885696411133
v -491.21807861328125 -19.02688980102539 -58.2344970703125
v -488.25921630859375 -19.214834213256836 -58.23236083984375
v -488.25921630859375 -18.83974838256836 -58.23214340209961
v -494.1769104003906 -19.214033126831055 -58.23685073852539
v -494.1769104003906 -18.83894920349121 -58.23664093017578
v -491.21807861328125 -15.618749618530273 -63.390716552734375
v -494.1769104003906 -15.430806159973145 -63.39286422729492
v -494.1769104003906 -15.805891036987305 -63.39306640625
v -488.25921630859375 -15.431607246398926 -63.38836669921875
v -488.25921630859375 -15.80668830871582 -63.38857650756836
v -491.21807861328125 -19.774574279785156 -57.08967208862305
v -494.1769104003906 -19.587833404541016 -57.08966827392578
v -494.1769104003906 -19.960519790649414 -57.08967590332031
v -488.25921630859375 -19.58863067626953 -57.08966827392578
v -491.21807861328125 -19.960519790649414 -57.08967208862305
v -493.7774658203125 -20.10789680480957 -56.5021858215332
v -488.68701171875 -20.10790252685547 -56.5021858215332
v -493.76947021484375 -14.821699142456055 -64.47068786621094
v -488.6798095703125 -14.822513580322266 -64.47068786621094
v -488.6798095703125 -14.642927169799805 -64.4706802368164
v -493.76947021484375 -15.030606269836426 -64.4706802368164
v -488.6798095703125 -15.03140926361084 -64.47068786621094
v -493.76953125 -14.647891998291016 -64.47068786621094
v -494.7833251953125 -14.647886276245117 -68.02520751953125
v -494.7833251953125 -14.64788818359375 -70.57040405273438
v -494.7833251953125 -14.415396690368652 -70.5699234008789
v -494.7833251953125 -14.6478853225708 -65.48001861572266
v -494.7833251953125 -14.41539478302002 -65.47953033447266
v -494.1769104003906 -19.960519790649414 -57.08967590332031
v -488.25921630859375 -19.960519790649414 -57.08966827392578
v -491.21807861328125 -19.588563919067383 -57.37485122680664
v -494.1769104003906 -19.5884952545166 -57.66452407836914
v -494.1769104003906 -19.587833404541016 -57.08966827392578
v -488.25921630859375 -19.58929443359375 -57.6600341796875
v -488.25921630859375 -19.58863067626953 -57.08966827392578
v -491.21807861328125 -17.334266662597656 -60.81089782714844
v -494.1769104003906 -17.329797744750977 -61.09970474243164
v -494.1769104003906 -17.337942123413086 -60.52659225463867
v -488.25921630859375 -17.33059310913086 -61.0952033996582
v -488.25921630859375 -17.3387393951416 -60.52210235595703
v -491.21807861328125 -16.55504608154297 -61.95936584472656
v -494.1769104003906 -16.554901123046875 -62.2481689453125
v -494.1769104003906 -16.55439567565918 -61.675048828125
v -488.25921630859375 -16.555694580078125 -62.24367904663086
v -488.25921630859375 -16.55519676208496 -61.67069625854492
v -491.21807861328125 -17.714122772216797 -60.2379150390625
v -488.25921630859375 -17.714887619018555 -59.94919204711914
v -488.25921630859375 -17.71414566040039 -60.52215576171875
v -488.25921630859375 -16.952653884887695 -61.66511535644531
v -494.1769104003906 -16.951860427856445 -61.66959762573242
v -491.21807861328125 -16.953420639038086 -61.38243103027344
v -494.1769104003906 -16.954187393188477 -61.09975051879883
v -488.25921630859375 -16.954980850219727 -61.09526443481445
v -488.25921630859375 -15.432148933410645 -63.9608039855957
v -494.1769104003906 -15.431342124938965 -63.96529769897461
v -491.21807861328125 -15.431477546691895 -63.67683410644531
v -494.1769104003906 -15.430806159973145 -63.39286422729492
v -488.25921630859375 -15.431607246398926 -63.38836669921875
v -488.25921630859375 -18.84029197692871 -58.80458068847656
v -494.1769104003906 -18.839494705200195 -58.80907440185547
v -491.21807861328125 -18.83962059020996 -58.52061080932617
v -494.1769104003906 -18.83894920349121 -58.23664093017578
v -488.25921630859375 -18.83974838256836 -58.23214340209961
v -494.1769104003906 -15.80522346496582 -62.82057571411133
v -488.25921630859375 -15.806010246276855 -62.81608963012695
v -491.21807861328125 -15.80595588684082 -63.104576110839844
v -488.25921630859375 -15.80668830871582 -63.38857650756836
v -494.1769104003906 -15.805891036987305 -63.39306640625
v -488.25921630859375 -19.214834213256836 -58.23236083984375
v -494.1769104003906 -19.214033126831055 -58.23685073852539
v -491.21807861328125 -19.214101791381836 -57.948360443115234
v -494.1769104003906 -19.213369369506836 -57.66436004638672
v -488.25921630859375 -19.214155197143555 -57.65987014770508
v -494.1769104003906 -18.46440315246582 -58.80885696411133
v -488.25921630859375 -18.46519660949707 -58.80437469482422
v -491.21807861328125 -18.46493148803711 -59.092864990234375
v -488.25921630859375 -18.465457916259766 -59.37687301635742
v -494.1769104003906 -18.46466827392578 -59.38136291503906
v -488.25921630859375 -16.1811466217041 -62.81625747680664
v -494.1769104003906 -16.18034553527832 -62.82073211669922
v -491.21807861328125 -16.180416107177734 -62.53218078613281
v -494.1769104003906 -16.179683685302734 -62.24810028076172
v -488.25921630859375 -16.18048095703125 -62.24361038208008
v -488.25921630859375 -18.090145111083984 -59.9493408203125
v -494.1769104003906 -18.08935546875 -59.95382308959961
v -491.21807861328125 -18.089824676513672 -59.665245056152344
v -494.1769104003906 -18.08950424194336 -59.38115310668945
v -488.25921630859375 -18.090309143066406 -59.37666702270508
v -494.1769104003906 -17.71335220336914 -60.52664566040039
v -494.1769104003906 -17.714101791381836 -59.95367431640625
v -488.25921630859375 -15.057047843933105 -63.96059036254883
v -494.04266357421875 -12.688451766967773 -62.290992736816406
v -494.0419921875 -14.183309555053711 -62.478580474853516
v -494.0412902832031 -12.760063171386719 -64.47068786621094
v -488.3798828125 -12.617003440856934 -60.10710525512695
v -488.3741455078125 -14.183326721191406 -62.478580474853516
v -488.37603759765625 -15.60659122467041 -60.486473083496094
v -494.044921875 -11.086345672607422 -62.290992736816406
v -494.04400634765625 -12.616839408874512 -60.11130142211914
v -488.37603759765625 -12.688531875610352 -62.28889465332031
v -488.3722229003906 -12.760061264038086 -64.47068786621094
v -488.38079833984375 -11.086511611938477 -62.28889465332031
v -488.3817443847656 -9.55601978302002 -64.47068786621094
v -494.04583740234375 -9.555851936340332 -64.47068786621094
v -494.04400634765625 -18.453046798706055 -56.502262115478516
v -494.04400634765625 -15.534942626953125 -58.30678176879883
v -494.0440673828125 -15.211490631103516 -56.502410888671875
v -494.04266357421875 -15.606554985046387 -60.486473083496094
v -488.3798828125 -18.453121185302734 -56.502262115478516
v -488.3798828125 -15.21148681640625 -56.502410888671875
v -488.3798828125 -15.535062789916992 -58.304683685302734
v -488.3798828125 -13.91424560546875 -58.30475616455078
v -494.0440368652344 -13.914165496826172 -58.306854248046875
v -494.0433349609375 -17.029800415039062 -58.49436950683594
v -488.3779602050781 -17.029855728149414 -58.49436950683594
vn -1 0.00021541601745411754 0
vn -1 0.00021541601745411754 0
vn -1 0.00021541601745411754 0
vn -1 0.00021541601745411754 0
vn -1 0.00021541601745411754 0
vn -1 0.00021541601745411754 0
vn -1 0.00021541601745411754 0
vn -1 0.00021541601745411754 0
vn -1 0.00021541601745411754 0
vn -1 0.00021541601745411754 0
vn -1 0.00021541601745411754 0
vn 0 -0.0000031678825962444535 1
vn 0.000032735370041336864 -2.1911796821427743e-9 1
vn -0.000011682242984534241 -0.000002373395545873791 1
vn -0.000023364485969068483 -0.0000015789083818162908 1
vn -1 0.00021541601745411754 0
vn -1 0.00021541601745411754 0
vn -1 0.00021541601745411754 0
vn 0.7070891261100769 0.00010155863856198266 0.7071244120597839
vn 0.7350105047225952 -0.6016501784324646 0.3126925528049469
vn 0.7354336380958557 -0.600844144821167 0.3132469952106476
vn 0.7068734169006348 0.00026655851979739964 0.7073400020599365
vn -0.0004958290373906493 -0.8872086405754089 0.4613681733608246
vn -0.7077136039733887 -0.0007526522967964411 0.7064989805221558
vn -0.7343881726264954 -0.6031323671340942 0.3112963140010834
vn 1.1683530878880966e-11 -0.0000021164948975638254 1
vn -1 0.0002027445734711364 -1.1470567828908429e-9
vn -1 0.0002027445734711364 -1.1470567828908429e-9
vn -1 0.0002027445734711364 -1.1470567828908429e-9
vn -1 0.0002027445734711364 -1.1470567828908429e-9
vn -0.0019566593691706657 3.967020631989726e-7 0.9999980926513672
vn -0.0019566593691706657 3.967020631989726e-7 0.9999980926513672
vn -0.0019566593691706657 3.967020631989726e-7 0.9999980926513672
vn 0 0 -1
vn 0 0 -1
vn 0 0 -1
vn -0.0019566593691706657 3.967020631989726e-7 0.9999980926513672
vn 0 0 -1
vn -1 0.00021541601745411754 0
vn -1 0.00021541601745411754 0
vn -0.0019566593691706657 3.967020631989726e-7 0.9999980926513672
vn -0.0019566593691706657 3.967020631989726e-7 0.9999980926513672
vn -1 0.00021541601745411754 0
vn 1 -0.0002154159446945414 1.1470557836901207e-9
vn 1 -0.0002154159446945414 1.1470557836901207e-9
vn 1 -0.0002154159446945414 1.1470557836901207e-9
vn 1 -0.0002154159446945414 1.1470557836901207e-9
vn -1 0.00021541601745411754 0
vn -0.0019566479604691267 4.090964011993492e-7 0.9999980926513672
vn -0.0019566365517675877 4.214907391997258e-7 0.9999980926513672
vn 0 0 -1
vn -0.16572725772857666 0.32193586230278015 0.9321436285972595
vn -0.08430951088666916 0.16377006471157074 0.9828892350196838
vn -0.4510425925254822 -0.7352291941642761 0.5059630870819092
vn -0.00000665885318085202 0 1
vn -1 0.00021541601745411754 0
vn -1 0.00021541601745411754 0
vn -1 0.00021541601745411754 0
vn -0.000006661111456196522 7.176980121315069e-10 1
vn 0 0 -1
vn -1 0.00021541601745411754 0
vn 0.3083004951477051 0.18333378434181213 -0.9334557056427002
vn -0.45115408301353455 -0.735202968120575 -0.5059017539024353
vn 0.7071257829666138 -0.00008381104271393269 -0.7070877552032471
vn -1 0.00020274460257496685 -8.119572791898122e-10
vn 0.7071257829666138 0.00008128689660225064 -0.7070877552032471
vn -0.16573353111743927 0.3220278024673462 -0.9321107864379883
vn 0.000016367685020668432 -0.00000158503689817735 1
vn 0 -0.0000031678825962444535 1
vn 0.000032735370041336864 -2.1911796821427743e-9 1
vn -1 0.00006693615432595834 2.694518774770671e-10
vn -0.0000066633697315410245 1.4353960242630137e-9 1
vn 0.5930675864219666 0.13453149795532227 0.7938337922096252
vn -0.0000019162785065418575 -0.000008366891051991843 1
vn -1 0.0002027446316787973 -4.768577199776303e-10
vn 0 0 -1
vn 0 0 -1
vn 0 0 1
vn 9.733484157559147e-11 0.000029102338885422796 -1
vn 0.592975378036499 0.13437092304229736 -0.7939298748970032
vn 0.7071067690849304 0.0001221848069690168 -0.7071067690849304
vn 0.7070891261100769 0.00010155863856198266 0.7071244120597839
vn 1 0.00014369306154549122 0
vn 0.7071067690849304 0.0001221848069690168 -0.7071067690849304
vn 0.7071257829666138 0.00008128689660225064 -0.7070877552032471
vn 0.7350105047225952 -0.6016501784324646 0.3126925528049469
vn 0.7071257829666138 -0.00008381104271393269 -0.7070877552032471
vn -1 0.0002588264469522983 -0.00014933611964806914
vn -0.9999999403953552 0.0002298095205333084 -0.0002986732288263738
vn -0.9999999403953552 0.0002298095205333084 -0.0002986732288263738
vn 1 -0.0002154159446945414 1.1470557836901207e-9
vn 1 -0.0002154159446945414 1.1470557836901207e-9
vn -0.9999998807907104 0.00006693975592497736 -0.00043096017907373607
vn -0.9999999403953552 0.000235577070270665 -0.0002994322858285159
vn -0.9999999403953552 0.0002298095205333084 -0.0002986732288263738
vn -0.0019566479604691267 4.090964011993492e-7 0.9999980926513672
vn 0.2690366506576538 0.2721487283706665 0.9238800406455994
vn -1 0.00006693615432595834 2.694518774770671e-10
vn -1 0.00006693601608276367 0
vn 0.2690371572971344 0.27214768528938293 -0.9238802194595337
vn 0.000032735370041336864 -2.1911796821427743e-9 1
vn 0.000016367685020668432 -0.000008368115231860429 1
vn -1 0.0002588264469522983 -0.00014933611964806914
vn -0.9999999403953552 0.00028784331516362727 1.0226259838930218e-9
vn -0.9999999403953552 0.00028784331516362727 1.0226259838930218e-9
vn -0.9999997019767761 0.0002355737960897386 -0.0007360304007306695
vn -0.9999997615814209 0.00016090358258225024 -0.0008155114483088255
vn -0.9999997615814209 0.00015802141570020467 -0.0008181211305782199
vn 0.6204552054405212 0.6358475089073181 0.45905694365501404
vn 0.9520745873451233 0.1527513712644577 0.26499250531196594
vn 0.9000005125999451 0.3531496524810791 0.2555083930492401
vn 0.9999995231628418 -4.541762876897337e-8 0.0009870158974081278
vn 0.8999904990196228 0.3531719148159027 0.2555127739906311
vn 0.9999995231628418 0 0.0010019552428275347
vn 0.999999463558197 0.00007182179251685739 0.001045256620272994
vn 0.9999994039535522 0.0001436890015611425 0.0011034973431378603
vn 0.999999463558197 0.00007182179251685739 0.001045256620272994
vn -0.000004493682808970334 0.8137470483779907 0.5812191963195801
vn -0.000004493682808970334 0.8137470483779907 0.5812191963195801
vn -0.000004493682808970334 0.8137470483779907 0.5812191963195801
vn -0.000004493682808970334 0.8137470483779907 0.5812191963195801
vn -0.9999995827674866 0.00008516749949194491 -0.0008991338545456529
vn -0.9999995827674866 0.00008410165901295841 -0.0009032754460349679
vn -0.9999995827674866 0.00008516749949194491 -0.0008991338545456529
vn -0.9999995827674866 0.00008623334724688902 -0.0008949922630563378
vn 0.0011562453582882881 0.813640832901001 0.5813667178153992
vn -0.000029658198400284164 0.8136062026023865 0.5814163088798523
vn 0.0023421472869813442 0.8136743307113647 0.5813162326812744
vn 0.0023421472869813442 0.8136743307113647 0.5813162326812744
vn 0.999999463558197 0.00009543119085719809 0.0010517636546865106
vn 0.9999995231628418 0.000047173380153253675 0.0010000299662351608
vn 0.9999994039535522 0.0001436890015611425 0.0011034973431378603
vn 0.44924527406692505 0.6816337704658508 0.5775414705276489
vn 0.3430840075016022 0.7302674055099487 0.590764582157135
vn 0.23218464851379395 0.7688159346580505 0.5958291888237
vn -0.23071567714214325 0.7692174315452576 0.595881462097168
vn -0.34205561876296997 0.7307157516479492 0.5908066630363464
vn -0.4486393332481384 0.6820536255836487 0.5775167346000671
vn -0.7070831060409546 0.707130491733551 0
vn 0 1 0
vn 0 1 0
vn 0 1 0
vn 0 1 0
vn -0.9999995827674866 0.00008623334724688902 -0.0008949922630563378
vn -0.9999997019767761 0.00022980946232564747 -0.0007412497070617974
vn -0.6205931305885315 0.6361282467842102 0.45848122239112854
vn -0.9002633690834045 0.35342660546302795 0.2541959583759308
vn -0.3285352885723114 0.767542839050293 0.5504021644592285
vn 0.32955628633499146 0.7670215368270874 0.5505185723304749
vn 0.6204552054405212 0.6358475089073181 0.45905694365501404
vn 0.8133895993232727 0.29094117879867554 0.5037366151809692
vn -0.0013817566214129329 0.7071058750152588 0.707106351852417
vn 0.0000025512188130960567 1 -0.000005657644578604959
vn 0.0000025512188130960567 1 -0.000005657644578604959
vn 0.7701570987701416 0.00001516366046416806 0.637854278087616
vn 0.0000025512188130960567 1 -0.000005657644578604959
vn -0.0019566365517675877 -0.000008236016583396122 0.9999980926513672
vn -0.0018067278433591127 0.3826790153980255 0.9238795042037964
vn -0.0013817566214129329 0.7071058750152588 0.707106351852417
vn -0.0019566365517675877 -0.000008236032954300754 0.9999980926513672
vn -0.11616773158311844 0.7970234155654907 0.5926707983016968
vn 0.9999992847442627 0.0001975217164726928 0.0011604491155594587
vn 0.9999995827674866 -0.00012231328582856804 0.0009264623513445258
vn 0.9999996423721313 -0.0004421482444740832 0.0006924754125066102
vn 0.11807874590158463 0.7967467308044434 0.5926651358604431
vn -0.9999996423721313 -0.00006234216562006623 -0.0009340448305010796
vn -0.9999991059303284 -0.00053248560288921 -0.0012294419575482607
vn -0.9999997019767761 0.000407801300752908 -0.0006386471795849502
vn -0.7706744074821472 0.000279917469015345 0.6372290849685669
vn -0.9999991059303284 -0.00053248560288921 -0.0012294419575482607
vn 0.9999995231628418 0 0.0010019552428275347
vn -0.8138642907142639 0.29112306237220764 0.5028640627861023
vn -0.9999995827674866 3.518961122495057e-8 -0.0009018394048325717
vn -0.98077392578125 0.1951477825641632 0
vn -1 0.00006693615432595834 0
vn -1 0.00006693615432595834 0
vn -0.9238603115081787 0.38272982835769653 0
vn -0.7070831060409546 0.707130491733551 0
vn -1 0.00006693615432595834 0
vn -0.8314463496208191 0.5556050539016724 0
vn -0.7070831060409546 0.707130491733551 0
vn -0.0019566365517675877 -0.000008236024768848438 0.9999980926513672
vn -0.0013817566214129329 0.7071058750152588 0.707106351852417
vn -0.9999995827674866 3.518961122495057e-8 -0.0009018394048325717
vn 1.1137752178869142e-11 -1 -0.0000016653166312607937
vn -0.000003277013775004889 -1 0.000005657644578604959
vn -0.000003277013775004889 -1 0.000005657644578604959
vn 0.026358919218182564 -0.9695892333984375 -0.24331435561180115
vn -0.38097676634788513 -0.9096035957336426 -0.1657649129629135
vn 0.04884415492415428 -0.9914961457252502 0.12062178552150726
vn 1.1137752178869142e-11 -1 -0.0000016653166312607937
vn -0.24217796325683594 -0.9314510226249695 -0.2715672254562378
vn 0.42807459831237793 -0.8891444802284241 -0.16178445518016815
vn -0.000001332539568466018 -1 -0.0000016798179558463744
vn -6.662642135779606e-7 -1 -0.0000016725673503970029
vn -0.000001332539568466018 -1 -0.0000016798179558463744
vn -0.000001332539568466018 -1 -0.0000016798179558463744
vn -0.000001665143713580619 -1 -0.0000033553444609424332
vn 0.7071163654327393 -0.578693151473999 -0.4063258469104767
vn 0.4339744448661804 -0.9002907872200012 0.0338045135140419
vn 0.0003564822836779058 -0.818305253982544 -0.5747838616371155
vn -0.7066120505332947 -0.578961968421936 -0.4068199396133423
vn -0.45115408301353455 -0.735202968120575 -0.5059017539024353
vn -0.5229682326316833 -0.8523522019386292 0.00003555245348252356
vn -0.3527641296386719 -0.8479857444763184 -0.39557257294654846
vn 1.1137752178869142e-11 -1 -0.0000016653166312607937
vn -0.0000015561511190753663 -1 -0.0000016666766669004573
vn -0.000001332539568466018 -1 -0.0000016798179558463744
vn -0.0000014988415841798997 -1 -0.000002517581151550985
vn -0.4341573119163513 -0.9002143144607544 0.0334920808672905
vn -0.7721296548843384 -0.6334003806114197 -0.05118432268500328
vn -0.0004958290373906493 -0.8872086405754089 0.4613681733608246
vn 0.4009861946105957 -0.8127977252006531 0.4225752055644989
vn -0.7724270224571228 -0.6304910778999329 0.07640383392572403
vn -0.6524794101715088 -0.530392050743103 0.5412530899047852
vn -0.4510425925254822 -0.7352291941642761 0.5059630870819092
vn 0.0006489856750704348 -0.698521077632904 0.715589165687561
vn 0.6534624695777893 -0.527701735496521 0.5426948070526123
vn -0.0000014443453437706921 -1 -0.0000016732473113734159
vn -9.994018910219893e-7 -1 -0.0000016761925962782698
vn -0.0000022224264739634236 -1 -0.0000016739272723498289
vn -0.0000017774830212147208 -1 -0.0000016768726709415205
vn -0.0000015561566897304147 -1 -8.340183512700605e-7
vn -0.0000011112076663266635 -1 -0.0000016696219518053113
vn -7.780699888826348e-7 -1 -0.0000016659967059240444
vn 0.7350105047225952 -0.6016501784324646 0.3126925528049469
vn 0 -1 0
vn -0.0000015561511190753663 -1 -0.0000016666766669004573
vn -0.000003277013775004889 -1 0.000005657644578604959
vn -0.0000031123133794608293 -1 -0.000001668036702540121
vn 0.7735206484794617 -0.6290112137794495 0.0775289237499237
vn -0.000002334232249268098 -1 -0.0000016673566278768703
vn 0 -1 0
vn 0 -1 0
vn 0.7728715538978577 -0.632575273513794 -0.050180405378341675
vn 0.7731854915618896 -0.6322145462036133 -0.049888890236616135
vn 0 -1 0
vn -0.000001889288796519395 -1 -0.000001670302026468562
vn -0.0000026673699267121265 -1 -0.000001670981987444975
vn -0.7343881726264954 -0.6031323671340942 0.3112963140010834
vn 0 -1 0
vn 0.7354336380958557 -0.600844144821167 0.3132469952106476
vn 0 1 0
vn 0 1 0
vn 0.0000014515136399495532 1 0
vn 0.00000301042609862634 1 -1.6593672569342743e-7
vn 0.000003117824689979898 1 -3.3187345138685487e-7
vn 0.0000022846691081213066 1 -1.6593672569342743e-7
vn 7.257568199747766e-7 1 0
vn 0.000001558912344989949 1 -1.6593672569342743e-7
vn 0 1 0
vn 0.0000016663111637171824 1 -3.3187345138685487e-7
vn 8.331555818585912e-7 1 -1.6593672569342743e-7
vn 0.0000034301342566323 1 0.00039895210647955537
vn 0.0000021772705167677486 1 0
vn 0.000003338596798130311 1 -6.64936806060723e-7
vn 0.000003344571041452582 1 -6.661266525043175e-7
vn 0.0000033326223274343647 1 -6.637469027737097e-7
vn 0.000003117824689979898 1 -3.3187345138685487e-7
vn 0.0000033326223274343647 1 -6.637469027737097e-7
vn 0.00016189120651688427 1 0
vn 0.0000033326223274343647 1 -6.637469027737097e-7
vn 0.0000033326223274343647 1 -6.637469027737097e-7
vn 0.0000033326223274343647 1 -6.637469027737097e-7
vn 0.0000035276450489618583 0.9999997019767761 0.0007985678385011852
vn 0.00008270943362731487 1 0.0003992839774582535
vn 0.0000029030272798991064 1 0
vn 0.000003117824689979898 1 -3.3187345138685487e-7
vn 0.0000029030272798991064 1 0
vn -0.0007587299915030599 -0.0005785593530163169 0.9999995231628418
vn -0.0007575856288895011 -0.0005966525641269982 0.9999995231628418
vn -0.0007598744123242795 -0.0005604661419056356 0.9999995827674866
vn 0.1887386441230774 0.8583681583404541 0.47705554962158203
vn -0.3240048289299011 0.4736025631427765 0.8189758658409119
vn -6.6613500848689e-7 1 -0.000006256577307794942
vn 0.32401391863822937 0.47358620166778564 0.8189817667007446
vn -3.33067504243445e-7 1 -0.000003128288653897471
vn 0.00009537546429783106 0.9987432360649109 0.050119441002607346
vn 0.0001577577495481819 0.9987090229988098 0.050795990973711014
vn 0.00009537546429783106 0.9987432360649109 0.050119441002607346
vn 0.00009537546429783106 0.9987432360649109 0.050119441002607346
vn 0.00009537546429783106 0.9987432360649109 0.050119441002607346
vn -0.0007555487100034952 0.014041183516383171 0.9999011158943176
vn -0.0007555487100034952 0.014041183516383171 0.9999011158943176
vn -0.0007555487100034952 0.014041183516383171 0.9999011158943176
vn -0.0007555487100034952 0.014041183516383171 0.9999011158943176
vn -0.0007338079740293324 0.013716853223741055 0.9999056458473206
vn -0.0007609222084283829 0.00016249391774181277 0.9999997019767761
vn -0.0007609222084283829 0.00016249391774181277 0.9999997019767761
vn -0.0007609222084283829 0.00016249391774181277 0.9999997019767761
vn -0.0007609222084283829 0.00016249391774181277 0.9999997019767761
vn -0.0007586352294310927 0.0001263848680537194 0.9999997019767761
vn -0.0007586714928038418 -0.000144519071909599 0.9999997019767761
vn -0.0007586714928038418 -0.000144519071909599 0.9999997019767761
vn -0.0007586714928038418 -0.000144519071909599 0.9999997019767761
vn -0.0007586714928038418 -0.000144519071909599 0.9999997019767761
vn -0.0007586714345961809 -0.00014451776223722845 0.9999997019767761
vn -0.0007575590279884636 -0.00039758507045917213 0.9999996423721313
vn -0.0007575590279884636 -0.00039758507045917213 0.9999996423721313
vn -0.0007575590279884636 -0.00039758507045917213 0.9999996423721313
vn -0.0007575589115731418 -0.00039758867933414876 0.9999996423721313
vn -0.0007575590279884636 -0.00039758507045917213 0.9999996423721313
vn -0.0007586763822473586 -0.00018074223771691322 0.9999997019767761
vn -0.0007586764404550195 -0.00018074059335049242 0.9999997019767761
vn -0.0007586763822473586 -0.00018074223771691322 0.9999997019767761
vn -0.0007586763822473586 -0.00018074223771691322 0.9999997019767761
vn -0.0007586763822473586 -0.00018074223771691322 0.9999997019767761
vn -0.0007587242871522903 -0.0005423197289928794 0.9999995827674866
vn -0.0007575820200145245 -0.0005603762110695243 0.9999995827674866
vn -0.0007587242871522903 -0.0005423197289928794 0.9999995827674866
vn -0.0007587242871522903 -0.0005423197289928794 0.9999995827674866
vn -0.0007587242871522903 -0.0005423197289928794 0.9999995827674866
vn -0.0007587107247672975 -0.00043386677862145007 0.9999996423721313
vn -0.0007587107247672975 -0.00043386677862145007 0.9999996423721313
vn -0.0007587107247672975 -0.00043386677862145007 0.9999996423721313
vn -0.0007587107247672975 -0.00043386677862145007 0.9999996423721313
vn -0.000758709735237062 -0.00043388246558606625 0.9999996423721313
vn -0.0007564213592559099 -0.00045194823178462684 0.9999997019767761
vn -0.0007564212428405881 -0.00045194817357696593 0.9999995827674866
vn -0.0007564212428405881 -0.00045194817357696593 0.9999995827674866
vn -0.0007564212428405881 -0.00045194817357696593 0.9999995827674866
vn -0.0007587073487229645 -0.00041580828838050365 0.9999996423721313
vn -0.0007598744123242795 -0.0005604661419056356 0.9999995827674866
vn -0.0007598744123242795 -0.0005604661419056356 0.9999995827674866
vn -0.0007598744123242795 -0.0005604661419056356 0.9999995827674866
vn -0.0007598709780722857 -0.0005423967959359288 0.9999995827674866
vn -0.0007598709780722857 -0.0005423967959359288 0.9999995827674866
vn -0.0007598709780722857 -0.0005423967959359288 0.9999995827674866
vn -0.0007598709780722857 -0.0005423967959359288 0.9999995827674866
vn -0.0007575835334137082 -0.0005785622051917017 0.9999995231628418
vn -0.0007587302243337035 -0.0005785726243630052 0.9999995231628418
vn -0.0007587302243337035 -0.0005785726243630052 0.9999995231628418
vn -0.0007587302243337035 -0.0005785726243630052 0.9999995231628418
vn -0.0007587302243337035 -0.0005785726243630052 0.9999995231628418
vn -0.0007598737138323486 -0.000560491404030472 0.9999995827674866
vn -0.0007587274303659797 -0.0005604978068731725 0.9999995827674866
vn -0.0007598712691105902 -0.0005424115224741399 0.9999995827674866
vn -0.0007587274303659797 -0.0005604978068731725 0.9999995827674866
vn -0.0007587274303659797 -0.0005604978068731725 0.9999995827674866
vn -0.0007587274303659797 -0.0005604978068731725 0.9999995827674866
vn -0.0000011460004998298245 0 1
vn -2.450278646648485e-9 -0.000018196706150774844 1
vn -0.0000011460004998298245 0 1
vn -0.0000011460004998298245 0 1
vn -0.0000011460004998298245 0 1
vn 0.1872534602880478 0.000023421300284098834 0.9823116064071655
vn -0.18725091218948364 0.000023421289370162413 0.9823121428489685
vn 0.0000013262769016364473 -0.000039019821997499093 1
vn 0.0000013262769016364473 -0.000039019821997499093 1
vn 0.0000013262769016364473 -0.000039019821997499093 1
vn 0.0000013324379324330948 0 1
vn 0.0000013324379324330948 0 1
vn 0 0 1
vn 1 0 0
vn 1 0 0
vn 0.5930675864219666 0.13453149795532227 0.7938337922096252
vn 1 0 0
vn 0.592975378036499 0.13437092304229736 -0.7939298748970032
vn 0 1 0
vn -0.0000011460004998298245 0 1
vn 0.00013465496886055917 0.9999994039535522 -0.0011652233079075813
vn 0.00013610058522317559 0.9999993443489075 -0.0011502244742587209
vn 0.00013465495430864394 0.9999992847442627 -0.0011652231914922595
vn 0.00013465495430864394 0.9999992847442627 -0.0011652231914922595
vn 0.00013465495430864394 0.9999992847442627 -0.0011652231914922595
vn 0.00012386070739012212 0.9998990297317505 0.014210405759513378
vn 0.00012382840213831514 0.9998990297317505 0.014210069552063942
vn 0.00012386070739012212 0.9998990297317505 0.014210405759513378
vn 0.00012386070739012212 0.9998990297317505 0.014210405759513378
vn 0.00012386070739012212 0.9998990297317505 0.014210405759513378
vn 0.00013586804561782628 0.9999997019767761 -0.0008699251338839531
vn 0.00013475079322233796 0.9999995827674866 -0.0008815520559437573
vn 0.00013586803106591105 0.9999995827674866 -0.0008699250174686313
vn 0.00013586803106591105 0.9999995827674866 -0.0008699250174686313
vn 0.00013586803106591105 0.9999995827674866 -0.0008699250174686313
vn 0.00013195416249800473 0.9999991655349731 0.0012960562016814947
vn 0.00013195416249800473 0.9999991655349731 0.0012960562016814947
vn 0.00013195416249800473 0.9999991655349731 0.0012960562016814947
vn 0.00013098416093271226 0.9999916553497314 0.004081938415765762
vn 0.0001309888029936701 0.9999916553497314 0.004081986844539642
vn 0.00013098416093271226 0.9999916553497314 0.004081938415765762
vn 0.00013098416093271226 0.9999916553497314 0.004081938415765762
vn 0.00013098416093271226 0.9999916553497314 0.004081938415765762
vn 0.00013594809570349753 0.9999995231628418 -0.0009477657731622458
vn 0.00013708509504795074 0.9999995231628418 -0.0009359187097288668
vn 0.00013594811025541276 0.9999996423721313 -0.0009477658895775676
vn 0.00013594809570349753 0.9999995231628418 -0.0009477657731622458
vn 0.00013594809570349753 0.9999995231628418 -0.0009477657731622458
vn 0.00013594809570349753 0.9999995231628418 -0.0009477657731622458
vn 0.00013537959603127092 0.9999995231628418 -0.0009536893339827657
vn 0.00013594811025541276 0.9999996423721313 -0.0009477658895775676
vn 0.00013594809570349753 0.9999995231628418 -0.0009477657731622458
vn 0.00013594809570349753 0.9999995231628418 -0.0009477657731622458
vn 0.00013383464829530567 0.9999992847442627 -0.0011845947010442615
vn 0.00013383464829530567 0.9999992847442627 -0.0011845947010442615
vn 0.00013383464829530567 0.9999992847442627 -0.0011845947010442615
vn 0.00013383464829530567 0.9999992847442627 -0.0011845947010442615
vn 0.00013554016186390072 0.9999992847442627 -0.001166825764812529
vn 0.00013383464829530567 0.9999992847442627 -0.0011845947010442615
vn 0.00013610867608804256 0.9999993443489075 -0.0011609027860686183
vn 0.00013383464829530567 0.9999992847442627 -0.0011845947010442615
vn 0.00013383464829530567 0.9999992847442627 -0.0011845947010442615
vn 0.00013383464829530567 0.9999992847442627 -0.0011845947010442615
vn 0.00013442749332170933 0.9999998807907104 -0.00045606374624185264
vn 0.00013442749332170933 0.9999998807907104 -0.00045606374624185264
vn 0.00013442749332170933 0.9999998807907104 -0.00045606374624185264
vn 0.00013442749332170933 0.9999998807907104 -0.00045606374624185264
vn 0.00013385951751843095 0.9999998807907104 -0.00046198113705031574
vn 0.00013553546159528196 0.9999993443489075 -0.0011605867184698582
vn 0.00013610134192276746 0.9999993443489075 -0.0011546926107257605
vn 0.00013553546159528196 0.9999993443489075 -0.0011605867184698582
vn 0.00013553546159528196 0.9999993443489075 -0.0011605867184698582
vn 0.00013553546159528196 0.9999993443489075 -0.0011605867184698582
vn 0.0001355857530143112 0.9999999403953552 0.00028421200113371015
vn 0.00013331169611774385 0.9999999403953552 0.0002605276822578162
vn 0.0001355857530143112 0.9999999403953552 0.00028421200113371015
vn 0.0001355857530143112 0.9999999403953552 0.00028421200113371015
vn 0.0001355857530143112 0.9999999403953552 0.00028421200113371015
vn 0.00013308972120285034 0.9999991655349731 0.0013078770134598017
vn 0.00013195416249800473 0.9999991655349731 0.0012960562016814947
vn 0.00009537546429783106 0.9987432360649109 0.050119441002607346
vn 0.9080930352210999 -0.371477335691452 0.19331742823123932
vn 0.6766507029533386 0.18697421252727509 0.7121688723564148
vn 0.7068734169006348 0.00026655851979739964 0.7073400020599365
vn -0.7066120505332947 -0.578961968421936 -0.4068199396133423
vn -0.6773164868354797 0.1863749772310257 0.7116929292678833
vn -0.6225577592849731 0.36679908633232117 0.6912888288497925
vn 0.7731854915618896 -0.6322145462036133 -0.049888890236616135
vn 0.7071163654327393 -0.578693151473999 -0.4063258469104767
vn -0.9080017805099487 -0.37217867374420166 0.1923949271440506
vn -0.7077136039733887 -0.0007526522967964411 0.7064989805221558
vn -0.7721296548843384 -0.6334003806114197 -0.05118432268500328
vn -0.7343881726264954 -0.6031323671340942 0.3112963140010834
vn 0.7354336380958557 -0.600844144821167 0.3132469952106476
vn 0.44924527406692505 0.6816337704658508 0.5775414705276489
vn 0.9854021072387695 0.08772160857915878 0.14590266346931458
vn 0.6534624695777893 -0.527701735496521 0.5426948070526123
vn 0.6222062706947327 0.3669888377189636 0.6915045380592346
vn -0.4486393332481384 0.6820536255836487 0.5775167346000671
vn -0.6524794101715088 -0.530392050743103 0.5412530899047852
vn -0.9854270815849304 0.08793697506189346 0.14560401439666748
vn -0.7724270224571228 -0.6304910778999329 0.07640383392572403
vn 0.7735206484794617 -0.6290112137794495 0.0775289237499237
vn 0.5454890131950378 0.5338665246963501 0.6460868120193481
vn -0.5454071164131165 0.5340303182601929 0.646020770072937
vt 0.9261313676834106 0.4125000238418579
vt 0.4650188088417053 0.4125000238418579
vt 0.9261313676834106 0.25
vt 1.3872439861297607 0.4125000238418579
vt 0.9261313676834106 0.574999988079071
vt 0.00390625 0.25
vt 0.00390625 0.574999988079071
vt 0.4650188088417053 0.7374999821186066
vt 0.4650188088417053 0.574999988079071
vt 0.46484375 0.8999999761581421
vt 0.00390625 0.8999999761581421
vt 0.824413537979126 0.9995006322860718
vt 0.8767099380493164 0.16314303874969482
vt 0.8245055675506592 0.5813218355178833
vt 0.8245975971221924 0.16314303874969482
vt 0.92578125 0.8999999761581421
vt 1.3872439861297607 0.25
vt 1.8483564853668213 0.25
vt 0.8692269325256348 0.3707742691040039
vt 0.8692269921302795 1
vt 0.9999999403953552 1
vt 0.9999998807907104 0.37077420949935913
vt 0.8692269921302795 1
vt 1 0.3707742691040039
vt 0.9999999403953552 1
vt 0.8692270517349243 0.37077420949935913
vt 0.8244484066963196 0.5813207924365997
vt 0.8244117498397827 0.16314256191253662
vt 0.8761021494865417 0.16314297914505005
vt 0.8244850635528564 0.9994990229606628
vt 1.8480063676834106 0.574999988079071
vt 1.84765625 0.8999999761581421
vt 0.9261313676834106 0.574999988079071
vt 0.862895667552948 0.3695114850997925
vt 0.8628004789352417 0.15951520204544067
vt 0.8080030679702759 0.15951520204544067
vt 1.8483564853668213 0.25
vt 0.8629908561706543 0.5795077979564667
vt 1.8481814861297607 0.4125000238418579
vt 1.8480063676834106 0.574999988079071
vt 0.92578125 0.8999999761581421
vt 0.00390625 0.8999999761581421
vt 1.3870688676834106 0.574999988079071
vt 0.9030538201332092 0.5777381658554077
vt 0.9044809937477112 0.9965416193008423
vt 0.9621720314025879 0.9965421557426453
vt 0.9016266465187073 0.15893471240997314
vt 1.3868937492370605 0.7374999821186066
vt 0.00390625 0.574999988079071
vt 0.00390625 0.25
vt 0.8630860447883606 0.7895040959119797
vt 0.8107979893684387 0.36328125
vt 0.8844000101089478 0.6799117028713226
vt 0.8095412850379944 0.9978368878364563
vt 0.9580020308494568 0.9965421557426453
vt 1.84765625 0.8999999761581421
vt 1.38671875 0.8999999761581421
vt 0.9259563088417053 0.7374999821186066
vt 0.9591356515884399 0.5777384340763092
vt 0.8631812334060669 0.9995003938674927
vt 1.8478312492370605 0.7374999821186066
vt 0.8795312643051147 0.6851855516433716
vt 0.953516960144043 0.9995006322860718
vt 0.8055455684661865 0.9995006322860718
vt 0.918738603591919 0.5813212096691132
vt 0.8057014346122742 0.3708704710006714
vt 0.953516960144043 0.3708704710006714
vt 0.9188421964645386 0.5813218355178833
vt 0.960974395275116 0.9995006322860718
vt 0.9611583948135376 0.16314303874969482
vt 0.9613017439842224 0.16314256191253662
vt 0.9602693319320679 0.15893471240997314
vt 0.8107263445854187 0.051051318645477295
vt 0.9580446481704712 0.005333662033081055
vt 0.9613750576972961 0.9994994401931763
vt 0.8081934452056885 0.5795077979564667
vt 0.8083838224411011 0.9995003938674927
vt 0.8107327222824097 0.005333662033081055
vt 0.953516960144043 0.000499725341796875
vt 0.953516960144043 0.04621756076812744
vt 0.8056046366691589 0.000499725341796875
vt 0.9478163123130798 0.3708704710006714
vt 0.9478163123130798 0.000499725341796875
vt 0.8168511390686035 0.000499725341796875
vt 0.8169367909431458 0.3708704710006714
vt 0.9478163123130798 0.9995006322860718
vt 0.8167988061904907 0.9995006322860718
vt 0.8147492408752441 0.5795077979564667
vt 0.8145360350608826 0.15951520204544067
vt 0.9536365270614624 0.3708721399307251
vt 0.9631493091583252 0.5777384340763092
vt 0.9641266465187073 0.15893471240997314
vt 0.8145055770874023 0.0004993677139282227
vt 0.9536064863204956 0.00503695011138916
vt 0.9536213278770447 0.18568551540374756
vt 0.9261313676834106 0.25
vt 0.8107274770736694 0.08073484897613525
vt 0.9612964391708374 0.0004996657371520996
vt 0.8760969042778015 0.0005000829696655273
vt 0.953516960144043 0.07707995176315308
vt 0.876723051071167 0.000499725341796875
vt 0.9611715078353882 0.000499725341796875
vt 0.8842995166778564 0.6851862668991089
vt 0.8149624466896057 0.9995003938674927
vt 0.9540629982948303 0.9995003938674927
vt 4.008500099182129 0.45827949047088623
vt 2.2798428535461426 0.46623361110687256
vt 2.2798428535461426 0.5374899804592133
vt -2.0197625160217285 0.7448105812072754
vt -0.41822147369384766 0.5014778077602386
vt -0.418942928314209 0.6034237444400787
vt 1.1818767786026 0.4620369076728821
vt -0.6185485124588013 0.7450264394283295
vt 4.008500099182129 0.409967839717865
vt 2.595188617706299 0.45789432525634766
vt 4.008500099182129 0.45375168323516846
vt 2.595188617706299 0.603888064622879
vt 0.9833698272705078 0.7438853979110718
vt 4.008500099182129 1.007523536682129
vt 2.4959349632263184 0.7432141005992889
vt 4.008500099182129 0.7425428032875061
vt 2.496295213699341 0.7464223802089691
vt 4.008500099182129 0.7468828558921814
vt 2.2798428535461426 0.6105353236198425
vt 0.9840903878211975 0.7459619045257568
vt 2.3947248458862305 1.007523536682129
vt 4.008500099182129 1.007523536682129
vt 4.008500099182129 0.7443665862083435
vt 0.7809494137763977 1.007523536682129
vt 2.395582675933838 0.7454907596111298
vt 0.782665491104126 0.7452422976493835
vt 4.008500099182129 0.745739221572876
vt -2.022930145263672 0.747112512588501
vt -0.5150725841522217 0.7464260458946228
vt 0.9927849769592285 0.7457395493984222
vt 0.9928605556488037 1.007523536682129
vt -0.5149592161178589 1.007523536682129
vt -2.0227789878845215 1.007523536682129
vt 2 0.4742198586463928
vt 1.5 0.5471731126308441
vt 1 0.5471731424331665
vt 2 0.5471730828285217
vt 2.9802322387695312e-8 0.5471732020378113
vt 0.5511857867240906 0.47418779134750366
vt 4.008500099182129 0.6007921695709229
vt -2.020277261734009 0.7450470328330994
vt -0.518093466758728 0.7455044686794281
vt -0.5184537172317505 0.7444662153720856
vt -0.6210100650787354 1.007523536682129
vt -2.0229694843292236 1.007523536682129
vt -2.018319606781006 0.5409187078475952
vt 2 0.4742198586463928
vt 1 0.5471731424331665
vt 2.9802322387695312e-8 0.5471732020378113
vt -2.0181784629821777 0.5209850072860718
vt 2 0.5471730828285217
vt 2 0
vt 1 0.2371099591255188
vt 2.9802322387695312e-8 0.4742199182510376
vt -1.3909065899042616e-8 0
vt 2.500680446624756 1.007523536682129
vt 4.008500099182129 0.26942962408065796
vt 0.9943149089813232 0.3320235013961792
vt -2.0198700428009033 0.39461731910705566
vt 2.5006425380706787 0.7450530529022217
vt 0.994053840637207 0.3326148986816406
vt 4.008500099182129 0.2703799605369568
vt -2.0203921794891357 0.3948497772216797
vt -2.0186984539031982 0.5212177038192749
vt 4.008500099182129 0.3761204481124878
vt 4.008500099182129 0.3749573826789856
vt -2.018839120864868 0.5411525964736938
vt 4.008500099182129 0.41091758012771606
vt 0.5 0.11855494976043701
vt -1.3909065899042616e-8 0
vt 1 0
vt 1 0.2371099591255188
vt 2.9802322387695312e-8 0.4742199182510376
vt 2 0
vt 1.5 0.3556649088859558
vt 1 0.4742199182510376
vt 1 0
vt 1 0.4742199182510376
vt 4.008500099182129 0.454700767993927
vt 0.9469274878501892 1.7089695930480957
vt 1.0464762449264526 1.7089694738388062
vt 1.044956922531128 0.9565099477767944
vt 0.9868376851081848 -0.9813990592956543
vt 1.4779387712478638 -0.9790819883346558
vt 0.986032247543335 -1.3123228549957275
vt 0.10141682624816895 1.7096865773200989
vt 0.10141730308532715 1.873979926109314
vt 0.49573659896850586 -0.9837161302566528
vt -0.911156177520752 0.8904982209205627
vt -0.7438874244689941 0.8904983997344971
vt -0.8274185657501221 0.4805457592010498
vt -0.743681013584137 0.07059323787689209
vt -1.0800820589065552 0.07059282064437866
vt 0.005440992768853903 -0.6551094055175781
vt 0.9383409023284912 0.14962267875671387
vt 0.9876431226730347 -0.650475263595581
vt 1.9698452949523926 -0.645841121673584
vt -0.7440928816795349 2.0389902591705322
vt 0.10141777992248535 2.038273334503174
vt -0.3213377892971039 1.956485092639923
vt -0.7440938949584961 1.710403561592102
vt 0.029941141605377197 0.9572268128395081
vt -1.0786314010620117 1.7104032039642334
vt -1.0793566703796387 0.8904979825019836
vt 1.9205429553985596 0.15425682067871094
vt 1.9720168113708496 0.1545696258544922
vt 1.8712407350540161 0.9543547630310059
vt 0.9884650111198425 0.9502982795238495
vt 1.9682343006134033 -1.3076887130737305
vt 1.9666234254837036 -1.969536304473877
vt 0.9469284415245056 2.0375564098358154
vt 0.9850200414657593 -1.9746479988098145
vt 0.0034166513942182064 -1.9797594547271729
vt -0.3568699359893799 0.5139100253582001
vt -0.7437841892242432 0.4805458188056946
vt 0.030147552490234375 0.13732171058654785
vt -0.3567667305469513 0.10395747423171997
vt 0.030148029327392578 0.0905686616897583
vt -0.35697314143180847 0.9238626062870026
vt -0.35707637667655945 1.333815187215805
vt 0.10568920522928238 0.9462417960166931
vt -0.7436801195144653 -0.02291274070739746
vt 0.8754518032073975 0.9565098881721497
vt 1.0434376001358032 0.2040504813194275
vt 0.8039761781692505 0.20405012369155884
vt 0.004428822081536055 -1.317434310913086
vt 0.41695865988731384 0.5806384682655334
vt 0.41706305742263794 -0.022912025451660156
vt 0.030148684978485107 -0.022912263870239258
vt 0.05556509643793106 0.14556622505187988
vt 0.00761436577886343 0.14530164003372192
vt 0.8039774298667908 -0.022911906242370605
vt 0.030044347047805786 0.547274261713028
vt 0.41706186532974243 0.17068588733673096
vt 1.974188208580017 0.9549803733825684
vt -0.3567657172679901 -0.02291250228881836
vt 0.009787739254534245 0.945712685585022
vt 0.431640625 1.48828125
vt -0.14453125 1.48828125
vt 0.4296875 1.41796875
vt 0.1416015625 0.96875
vt 0.431640625 0.58984375
vt 0.4306640625 1.00390625
vt 0.71875 1.453125
vt 0.7197265625 1.0390625
vt 1.0078125 1.48828125
vt 1.009765625 0.66015625
vt 1.0087890625 1.07421875
vt 1.13671875 0.66015625
vt 0.140625 1.3828125
vt 0.37890625 -0.50390625
vt 1.00390625 -0.50390625
vt 0.3828125 -0.3359375
vt -0.197265625 0.58984375
vt 1.01171875 -0.16796875
vt 1.26171875 -0.16796875
vt -0.24609375 -0.16796875
vt -0.24609375 -0.50390625
vt 0.3828125 -0.16796875
vt 1.26171875 1.48828125
vt 1.26171875 0.66015625
vt -0.1484375 1.34765625
vt -0.25 0.58984375
vt -0.25390625 1.34765625
vt 0.18203067779541016 0.5
vt -0.6359386444091797 0.5
vt -0.6359386444091797 0
vt 0.5 0.7441111207008362
vt 1 0.4864845275878906
vt 1 1
vt 0 0.48822224140167236
vt 0.5 1
vt 0.18203067779541016 0.75
vt -0.6359386444091797 1
vt -0.6359386444091797 0.5
vt 1 1
vt 0.18203067779541016 0.5
vt 1.9706072807312012 0
vt 1.9712234735488892 0.5
vt 1.0652132034301758 0.25
vt 0.15920290350914001 0
vt 0.15920290350914001 0.5
vt 0.5 0.24305635690689087
vt 1 0
vt 1 0.48611271381378174
vt 0 0
vt 0 0.4862523078918457
vt -0.976341724395752 0.24500000476837158
vt 0.1928412914276123 0
vt 0.1928412914276123 0.49000000953674316
vt -2.145524740219116 0
vt -2.145524740219116 0.49000000953674316
vt 1.0678236484527588 0.25
vt 1.9764444828033447 0
vt 1.9764444828033447 0.5
vt 0.15920290350914001 0.5
vt 0.15920290350914001 0
vt -0.1587696671485901 0.25
vt -0.9767389893531799 0.5
vt -0.9767389893531799 0
vt 0.6591996550559998 0.5
vt 0.6591996550559998 0
vt -0.976341724395752 0.24500000476837158
vt -2.145524740219116 0.49000000953674316
vt -2.145524740219116 0
vt 0.1928412914276123 0.49000000953674316
vt 0.1928412914276123 0
vt -0.6355412602424622 0.24500000476837158
vt 0.5336416363716125 0
vt 0.5336416363716125 0.49000000953674316
vt -1.8047242164611816 0
vt -1.8047242164611816 0.49000000953674316
vt -0.6355412602424622 0.24500000476837158
vt 0.5336416363716125 0
vt 0.5336416363716125 0.49000000953674316
vt -1.8047242164611816 0
vt -1.8047242164611816 0.49000000953674316
vt 0.18203067779541016 0.25
vt 1 0
vt 1 0.5
vt 0.7270233631134033 0.25
vt 1.6356440782546997 0
vt 1.6356440782546997 0.5
vt -0.18159741163253784 0
vt -0.18159741163253784 0.5
vt 0.18203067779541016 0.25
vt 1 0
vt 1 0.5
vt -0.6359386444091797 0
vt -0.6359386444091797 0.5
vt 1.0678236484527588 0.25
vt 0.15920290350914001 0.5
vt 0.15920290350914001 0
vt 1.9764444828033447 0.5
vt 1.9764444828033447 0
vt 0.18203067779541016 0.25
vt -0.6359386444091797 0.5
vt -0.6359386444091797 0
vt 1 0.5
vt 0.18203067779541016 0
vt 0 0.18461453914642334
vt 1 0.18461424112319946
vt 0 0.2729153633117676
vt 1 0.27508366107940674
vt 1 0.5
vt 0 0
vt 1 0
vt 0 0.5
vt 0.26135262846946716 0
vt 0.993719756603241 0
vt 0.993719756603241 0.2594202756881714
vt -0.47101452946662903 0
vt -0.47101452946662903 0.2594202756881714
vt 0 1
vt 1 0
vt 0.18203067779541016 0.75
vt -0.6359386444091797 1
vt -0.6359386444091797 0.5
vt 1 1
vt 1 0.5
vt -0.976341724395752 0.7450000047683716
vt 0.1928412914276123 0.49000000953674316
vt 0.1928412914276123 1
vt -2.145524740219116 0.49000000953674316
vt -2.145524740219116 1
vt 1.0678236484527588 0.75
vt 0.15920290350914001 1
vt 0.15920290350914001 0.5
vt 1.9764444828033447 1
vt 1.9764444828033447 0.5
vt 1.0678236484527588 0.75
vt 1.9764444828033447 0.5
vt 1.9764444828033447 1
vt 0 0.9999998807907104
vt 1 0.9999998807907104
vt 0.5 0.7441110014915466
vt 1 0.4882221221923828
vt 0 0.4882221221923828
vt 1.9764444828033447 1
vt 0.15920290350914001 1
vt 1.0678236484527588 0.75
vt 0.15920290350914001 0.5
vt 1.9764444828033447 0.5
vt 1 1
vt -0.6359386444091797 1
vt 0.18203067779541016 0.75
vt -0.6359386444091797 0.5
vt 1 0.5
vt -1.8047242164611816 0.49000000953674316
vt 0.5336416363716125 0.49000000953674316
vt -0.6355413198471069 0.7450000047683716
vt 0.5336416363716125 1
vt -1.8047242164611816 1
vt 0.5336416363716125 1
vt -1.8047242164611816 1
vt -0.6355412602424622 0.7450000047683716
vt -1.8047242164611816 0.49000000953674316
vt 0.5336416363716125 0.49000000953674316
vt -0.18159741163253784 0.5
vt 1.6356440782546997 0.5
vt 0.7270233035087585 0.75
vt 1.6356440782546997 1
vt -0.18159741163253784 1
vt 0.6591996550559998 1
vt -0.9767389893531799 1
vt -0.1587696671485901 0.75
vt -0.9767389893531799 0.5
vt 0.6591996550559998 0.5
vt 0.1928412914276123 1
vt -2.145524740219116 1
vt -0.976341724395752 0.7450000047683716
vt -2.145524740219116 0.49000000953674316
vt 0.1928412914276123 0.49000000953674316
vt 0.15920290350914001 1
vt 0.15920290350914001 0.5
vt 1 0.5
vt 0.8174960017204285 0.3937005400657654
vt 0.7461328506469727 0.014273583889007568
vt 0.010620508342981339 0.3519759178161621
vt 1.6232998371124268 0.43542516231536865
vt 0.7461328506469727 0.014269828796386719
vt 1.481645107269287 -0.32343626022338867
vt 0.8174960613250732 0.8013284802436829
vt 1.6243715286254883 0.43542516231536865
vt 0.8169602155685425 0.3937005400657654
vt 0.010620508342981339 0.3519759178161621
vt 0.8169601559638977 0.8013284802436829
vt 0.010620508342981339 1.167231798171997
vt 0.010620508342981339 1.167231798171997
vt 2.952669858932495 -0.998833417892456
vt 2.2885208129882812 -0.2817041873931885
vt 2.952669858932495 -0.17885804176330566
vt 1.4816452264785767 -0.323428750038147
vt 2.952669858932495 -0.9988484382629395
vt 2.952669858932495 -0.17885804176330566
vt 2.287984848022461 -0.2817115783691406
vt 2.287984848022461 0.1282835602760315
vt 2.2885208129882812 0.1282835602760315
vt 2.2171576023101807 -0.6611311435699463
vt 2.2171573638916016 -0.6611423492431641
g Stairs110
s 1
f 1/1/1 2/2/2 3/3/3
f 1/1/1 3/3/3 4/4/4
f 5/5/5 1/1/1 4/4/4
f 2/2/2 6/6/6 3/3/3
f 7/7/7 6/6/6 2/2/2
f 8/8/8 7/7/7 9/9/9
f 5/5/5 2/2/2 1/1/1
f 8/8/8 10/10/10 11/11/11
f 12/12/12 13/13/13 14/14/14
f 14/14/14 13/13/13 15/15/15
f 8/8/8 16/16/16 10/10/10
f 4/4/4 17/17/17 18/18/18
f 19/19/19 20/20/20 21/21/21
f 21/21/21 22/22/22 19/19/19
f 23/23/23 24/24/24 25/25/25
f 23/23/23 26/26/26 24/24/24
f 27/27/27 28/28/28 29/29/29
f 4/4/4 3/3/3 17/17/17
f 30/30/30 27/27/27 29/29/29
f 31/31/31 32/32/32 33/33/33
f 34/34/34 35/35/35 36/36/36
f 37/37/37 31/31/31 33/33/33
f 38/38/38 34/34/34 36/36/36
f 39/39/39 40/40/40 4/4/4
f 33/33/33 41/41/41 42/42/42
f 18/18/18 39/39/39 4/4/4
f 4/4/4 43/43/43 5/5/5
f 33/33/33 32/32/32 41/41/41
f 4/4/4 40/40/40 43/43/43
f 44/44/44 45/45/45 46/46/46
f 47/47/47 44/44/44 46/46/46
f 40/40/40 48/48/48 43/43/43
f 49/49/49 50/50/50 33/33/33
f 43/43/43 48/48/48 5/5/5
f 51/51/51 38/38/38 36/36/36
f 52/52/52 53/53/53 54/54/54
f 53/53/53 55/55/55 54/54/54
f 48/48/48 56/56/56 57/57/57
f 58/58/58 16/16/16 8/8/8
f 5/5/5 58/58/58 8/8/8
f 5/5/5 48/48/48 58/58/58
f 58/58/58 48/48/48 16/16/16
f 55/55/55 53/53/53 59/59/59
f 53/53/53 52/52/52 59/59/59
f 42/42/42 49/49/49 33/33/33
f 60/60/60 51/51/51 36/36/36
f 61/61/61 56/56/56 48/48/48
f 11/11/11 7/7/7 8/8/8
f 62/62/62 63/63/63 64/64/64
f 29/29/29 65/65/65 30/30/30
f 62/62/62 66/66/66 67/67/67
f 64/64/64 66/66/66 62/62/62
f 68/68/68 12/12/12 69/69/69
f 13/13/13 12/12/12 68/68/68
f 68/68/68 70/70/70 13/13/13
f 69/69/69 70/70/70 68/68/68
f 8/8/8 9/9/9 5/5/5
f 48/48/48 57/57/57 16/16/16
f 9/9/9 2/2/2 5/5/5
f 40/40/40 61/61/61 48/48/48
f 7/7/7 2/2/2 9/9/9
f 65/65/65 29/29/29 71/71/71
f 72/72/72 73/73/73 74/74/74
f 75/75/75 65/65/65 71/71/71
f 65/65/65 75/75/75 30/30/30
f 76/76/76 77/77/77 60/60/60
f 36/36/36 76/76/76 60/60/60
f 73/73/73 78/78/78 74/74/74
f 79/79/79 80/80/80 81/81/81
f 82/82/82 83/83/83 84/84/84
f 84/84/84 85/85/85 82/82/82
f 86/86/86 82/82/82 85/85/85
f 85/85/85 87/87/87 86/86/86
f 88/88/88 89/89/89 90/90/90
f 91/91/91 92/92/92 47/47/47
f 46/46/46 91/91/91 47/47/47
f 59/59/59 52/52/52 72/72/72
f 93/93/93 94/94/94 89/89/89
f 94/94/94 95/95/95 89/89/89
f 33/33/33 50/50/50 96/96/96
f 73/73/73 72/72/72 97/97/97
f 97/97/97 72/72/72 52/52/52
f 98/98/98 71/71/71 29/29/29
f 29/29/29 99/99/99 98/98/98
f 100/100/100 81/81/81 80/80/80
f 81/81/81 100/100/100 66/66/66
f 101/101/101 13/13/13 70/70/70
f 70/70/70 102/102/102 101/101/101
f 67/67/67 66/66/66 100/100/100
f 33/33/33 96/96/96 37/37/37
f 103/103/103 88/88/88 90/90/90
f 104/104/104 88/88/88 103/103/103
f 95/95/95 90/90/90 89/89/89
f 103/103/103 105/105/105 104/104/104
f 90/90/90 105/105/105 103/103/103
f 67/67/67 63/63/63 62/62/62
g Stairs111
s 1
f 106/106/106 107/107/107 108/108/108
f 109/109/109 110/110/110 111/111/111
f 111/111/111 110/110/110 112/112/112
f 112/112/112 113/113/113 111/111/111
f 111/111/111 113/113/113 109/109/109
f 112/112/112 114/114/114 115/115/115
f 115/115/115 114/114/114 116/116/116
f 117/117/117 115/115/115 116/116/116
f 117/117/117 112/112/112 115/115/115
f 118/118/118 119/119/119 120/120/120
f 120/120/120 119/119/119 121/121/121
f 122/122/122 123/123/123 124/124/124
f 125/125/125 122/122/122 124/124/124
f 126/126/126 127/127/127 128/128/128
f 129/129/129 126/126/126 128/128/128
f 117/117/117 130/130/130 131/131/131
f 117/117/117 132/132/132 130/130/130
f 133/133/133 129/129/129 134/134/134
f 134/134/134 129/129/129 135/135/135
f 136/136/136 118/118/118 137/137/137
f 137/137/137 118/118/118 138/138/138
f 139/139/139 140/140/140 141/141/141
f 139/139/139 142/142/142 140/140/140
f 139/139/139 141/141/141 143/143/143
f 112/112/112 117/117/117 131/131/131
f 132/132/132 117/117/117 116/116/116
f 125/125/125 124/124/124 144/144/144
f 145/145/145 124/124/124 123/123/123
f 146/146/146 147/147/147 144/144/144
f 147/147/147 125/125/125 144/144/144
f 118/118/118 148/148/148 138/138/138
f 148/148/148 146/146/146 138/138/138
f 112/112/112 131/131/131 113/113/113
f 149/149/149 133/133/133 150/150/150
f 129/129/129 133/133/133 149/149/149
f 109/109/109 151/151/151 110/110/110
f 152/152/152 153/153/153 154/154/154
f 110/110/110 155/155/155 112/112/112
f 151/151/151 155/155/155 110/110/110
f 152/152/152 156/156/156 153/153/153
f 106/106/106 108/108/108 145/145/145
f 145/145/145 108/108/108 124/124/124
f 108/108/108 144/144/144 124/124/124
f 157/157/157 152/152/152 158/158/158
f 159/159/159 160/160/160 158/158/158
f 161/161/161 118/118/118 136/136/136
f 119/119/119 118/118/118 161/161/161
f 162/162/162 112/112/112 163/163/163
f 163/163/163 112/112/112 164/164/164
f 165/165/165 129/129/129 128/128/128
f 135/135/135 129/129/129 165/165/165
f 166/166/166 144/144/144 167/167/167
f 168/168/168 144/144/144 166/166/166
f 144/144/144 168/168/168 169/169/169
f 144/144/144 170/170/170 167/167/167
f 112/112/112 171/171/171 114/114/114
f 112/112/112 155/155/155 164/164/164
f 146/146/146 144/144/144 172/172/172
f 144/144/144 173/173/173 170/170/170
f 112/112/112 162/162/162 171/171/171
f 172/172/172 144/144/144 169/169/169
f 174/174/174 175/175/175 176/176/176
f 177/177/177 174/174/174 176/176/176
f 178/178/178 174/174/174 177/177/177
f 178/178/178 175/175/175 174/174/174
f 177/177/177 176/176/176 179/179/179
f 180/180/180 139/139/139 181/181/181
f 177/177/177 180/180/180 181/181/181
f 179/179/179 180/180/180 177/177/177
f 179/179/179 139/139/139 180/180/180
f 143/143/143 181/181/181 139/139/139
f 143/143/143 178/178/178 181/181/181
f 177/177/177 181/181/181 178/178/178
f 158/158/158 182/182/182 157/157/157
f 158/158/158 160/160/160 182/182/182
f 154/154/154 183/183/183 152/152/152
f 154/154/154 159/159/159 183/183/183
f 158/158/158 183/183/183 159/159/159
f 158/158/158 152/152/152 183/183/183
f 184/184/184 173/173/173 107/107/107
f 107/107/107 173/173/173 144/144/144
f 107/107/107 144/144/144 108/108/108
g Stairs112
s 1
f 185/185/185 186/186/186 187/187/187
f 188/188/188 189/189/189 190/190/190
f 185/185/185 191/191/191 192/192/192
f 193/193/193 188/188/188 190/190/190
f 194/194/194 195/195/195 196/196/196
f 196/196/196 197/197/197 198/198/198
f 194/194/194 196/196/196 198/198/198
f 199/199/199 200/200/200 201/201/201
f 201/201/201 200/200/200 202/202/202
f 203/203/203 204/204/204 205/205/205
f 205/205/205 204/204/204 192/192/192
f 192/192/192 206/206/206 205/205/205
f 205/205/205 206/206/206 203/203/203
f 193/193/193 201/201/201 188/188/188
f 191/191/191 185/185/185 207/207/207
f 208/208/208 194/194/194 209/209/209
f 210/210/210 211/211/211 202/202/202
f 200/200/200 210/210/210 202/202/202
f 200/200/200 212/212/212 210/210/210
f 212/212/212 200/200/200 213/213/213
f 209/209/209 194/194/194 198/198/198
f 190/190/190 214/214/214 215/215/215
f 204/204/204 216/216/216 185/185/185
f 217/217/217 218/218/218 190/190/190
f 208/208/208 206/206/206 194/194/194
f 194/194/194 206/206/206 195/195/195
f 192/192/192 204/204/204 185/185/185
f 195/195/195 219/219/219 220/220/220
f 196/196/196 195/195/195 220/220/220
f 196/196/196 220/220/220 197/197/197
f 219/219/219 221/221/221 222/222/222
f 219/219/219 222/222/222 197/197/197
f 222/222/222 223/223/223 197/197/197
f 221/221/221 223/223/223 222/222/222
f 195/195/195 224/224/224 219/219/219
f 224/224/224 207/207/207 219/219/219
f 220/220/220 219/219/219 197/197/197
f 225/225/225 207/207/207 224/224/224
f 225/225/225 224/224/224 195/195/195
f 201/201/201 189/189/189 188/188/188
f 191/191/191 206/206/206 192/192/192
f 213/213/213 200/200/200 226/226/226
f 215/215/215 217/217/217 190/190/190
f 223/223/223 227/227/227 197/197/197
f 228/228/228 229/229/229 230/230/230
f 193/193/193 231/231/231 199/199/199
f 190/190/190 231/231/231 193/193/193
f 199/199/199 201/201/201 193/193/193
f 201/201/201 202/202/202 189/189/189
f 190/190/190 189/189/189 214/214/214
f 207/207/207 228/228/228 232/232/232
f 232/232/232 228/228/228 230/230/230
f 223/223/223 233/233/233 234/234/234
f 189/189/189 202/202/202 214/214/214
f 200/200/200 199/199/199 235/235/235
f 200/200/200 235/235/235 226/226/226
f 206/206/206 225/225/225 195/195/195
f 225/225/225 191/191/191 207/207/207
f 226/226/226 235/235/235 236/236/236
f 235/235/235 199/199/199 236/236/236
f 212/212/212 211/211/211 210/210/210
f 206/206/206 191/191/191 225/225/225
f 190/190/190 218/218/218 231/231/231
f 223/223/223 237/237/237 233/233/233
f 238/238/238 232/232/232 221/221/221
f 207/207/207 232/232/232 238/238/238
f 185/185/185 229/229/229 228/228/228
f 207/207/207 238/238/238 219/219/219
f 238/238/238 221/221/221 219/219/219
f 232/232/232 230/230/230 239/239/239
f 212/212/212 240/240/240 211/211/211
f 232/232/232 239/239/239 221/221/221
f 239/239/239 223/223/223 221/221/221
f 207/207/207 185/185/185 228/228/228
f 223/223/223 234/234/234 241/241/241
f 226/226/226 236/236/236 242/242/242
f 223/223/223 241/241/241 227/227/227
f 230/230/230 237/237/237 223/223/223
f 185/185/185 187/187/187 229/229/229
f 230/230/230 223/223/223 239/239/239
g Stairs113
s 1
f 243/243/243 244/244/244 245/245/245
f 246/246/246 247/247/247 248/248/248
f 246/246/246 248/248/248 245/245/245
f 249/249/249 250/250/250 251/251/251
f 245/245/245 250/250/250 249/249/249
f 249/249/249 243/243/243 245/245/245
f 251/251/251 243/243/243 249/249/249
f 250/250/250 252/252/252 253/253/253
f 250/250/250 253/253/253 251/251/251
f 254/254/254 251/251/251 253/253/253
f 254/254/254 253/253/253 252/252/252
f 255/255/255 246/246/246 245/245/245
f 256/256/256 257/257/257 258/258/258
f 245/245/245 244/244/244 255/255/255
f 259/259/259 247/247/247 246/246/246
f 248/248/248 247/247/247 250/250/250
f 245/245/245 248/248/248 250/250/250
f 260/260/260 261/261/261 254/254/254
f 258/258/258 262/262/262 263/263/263
f 264/264/264 260/260/260 247/247/247
f 265/265/265 251/251/251 254/254/254
f 262/262/262 247/247/247 259/259/259
f 254/254/254 266/266/266 265/265/265
f 254/254/254 261/261/261 266/266/266
f 247/247/247 252/252/252 250/250/250
f 258/258/258 257/257/257 260/260/260
f 267/267/267 246/246/246 255/255/255
f 263/263/263 256/256/256 258/258/258
f 254/254/254 252/252/252 260/260/260
f 255/255/255 244/244/244 267/267/267
f 247/247/247 260/260/260 252/252/252
f 259/259/259 268/268/268 262/262/262
f 264/264/264 262/262/262 258/258/258
f 260/260/260 264/264/264 258/258/258
f 259/259/259 269/269/269 268/268/268
f 262/262/262 264/264/264 247/247/247
f 259/259/259 246/246/246 267/267/267
f 267/267/267 269/269/269 259/259/259
g Stairs114
s 1
f 270/270/270 271/271/271 272/272/272
f 273/273/273 274/274/274 275/275/275
f 276/276/276 274/274/274 273/273/273
f 273/273/273 277/277/277 276/276/276
f 275/275/275 277/277/277 273/273/273
f 278/278/278 279/279/279 280/280/280
f 281/281/281 279/279/279 278/278/278
f 278/278/278 282/282/282 281/281/281
f 280/280/280 282/282/282 278/278/278
f 283/283/283 284/284/284 285/285/285
f 283/283/283 285/285/285 286/286/286
f 285/285/285 287/287/287 286/286/286
f 284/284/284 287/287/287 285/285/285
f 288/288/288 289/289/289 290/290/290
f 291/291/291 289/289/289 288/288/288
f 288/288/288 292/292/292 291/291/291
f 290/290/290 292/292/292 288/288/288
f 293/293/293 294/294/294 295/295/295
f 296/296/296 294/294/294 293/293/293
f 293/293/293 297/297/297 296/296/296
f 295/295/295 297/297/297 293/293/293
f 298/298/298 299/299/299 300/300/300
f 298/298/298 301/301/301 302/302/302
f 300/300/300 301/301/301 298/298/298
f 303/303/303 304/304/304 305/305/305
f 306/306/306 304/304/304 303/303/303
f 303/303/303 307/307/307 306/306/306
f 305/305/305 307/307/307 303/303/303
f 308/308/308 309/309/309 310/310/310
f 311/311/311 309/309/309 308/308/308
f 308/308/308 312/312/312 311/311/311
f 310/310/310 312/312/312 308/308/308
f 313/313/313 314/314/314 315/315/315
f 316/316/316 314/314/314 313/313/313
f 313/313/313 317/317/317 316/316/316
f 315/315/315 317/317/317 313/313/313
f 318/318/318 319/319/319 320/320/320
f 321/321/321 319/319/319 318/318/318
f 318/318/318 322/322/322 321/321/321
f 320/320/320 322/322/322 318/318/318
f 323/323/323 324/324/324 325/325/325
f 272/272/272 324/324/324 323/323/323
f 323/323/323 270/270/270 272/272/272
f 325/325/325 270/270/270 323/323/323
f 326/326/326 327/327/327 328/328/328
f 329/329/329 327/327/327 326/326/326
f 326/326/326 330/330/330 329/329/329
f 328/328/328 330/330/330 326/326/326
f 331/331/331 332/332/332 333/333/333
f 334/334/334 332/332/332 331/331/331
f 331/331/331 335/335/335 334/334/334
f 333/333/333 335/335/335 331/331/331
f 336/336/336 337/337/337 338/338/338
f 339/339/339 337/337/337 336/336/336
f 336/336/336 340/340/340 339/339/339
f 338/338/338 340/340/340 336/336/336
f 341/341/341 342/342/342 343/343/343
f 344/344/344 342/342/342 341/341/341
f 341/341/341 345/345/345 344/344/344
f 343/343/343 345/345/345 341/341/341
f 302/302/302 299/299/299 298/298/298
f 346/346/346 347/347/347 274/274/274
f 348/348/348 349/349/349 350/350/350
f 349/349/349 348/348/348 351/351/351
f 274/274/274 276/276/276 346/346/346
f 351/351/351 352/352/352 349/349/349
f 350/350/350 353/353/353 348/348/348
f 354/354/354 355/355/355 356/356/356
f 357/357/357 354/354/354 356/356/356
f 356/356/356 358/358/358 357/357/357
f 277/277/277 359/359/359 276/276/276
f 345/345/345 360/360/360 344/344/344
f 361/361/361 362/362/362 363/363/363
f 364/364/364 362/362/362 361/361/361
f 361/361/361 365/365/365 364/364/364
f 363/363/363 365/365/365 361/361/361
f 366/366/366 367/367/367 368/368/368
f 369/369/369 367/367/367 366/366/366
f 366/366/366 370/370/370 369/369/369
f 368/368/368 370/370/370 366/366/366
f 371/371/371 372/372/372 373/373/373
f 374/374/374 372/372/372 371/371/371
f 371/371/371 375/375/375 374/374/374
f 373/373/373 375/375/375 371/371/371
f 376/376/376 377/377/377 378/378/378
f 379/379/379 380/380/380 381/381/381
f 381/381/381 380/380/380 382/382/382
f 382/382/382 383/383/383 381/381/381
f 381/381/381 383/383/383 379/379/379
f 384/384/384 385/385/385 386/386/386
f 386/386/386 385/385/385 387/387/387
f 387/387/387 388/388/388 386/386/386
f 386/386/386 388/388/388 384/384/384
f 389/389/389 390/390/390 391/391/391
f 391/391/391 390/390/390 392/392/392
f 392/392/392 393/393/393 391/391/391
f 391/391/391 393/393/393 389/389/389
f 394/394/394 395/395/395 396/396/396
f 396/396/396 395/395/395 397/397/397
f 397/397/397 398/398/398 396/396/396
f 396/396/396 398/398/398 394/394/394
f 399/399/399 400/400/400 401/401/401
f 401/401/401 400/400/400 402/402/402
f 402/402/402 403/403/403 401/401/401
f 401/401/401 403/403/403 399/399/399
f 404/404/404 405/405/405 406/406/406
f 406/406/406 405/405/405 407/407/407
f 407/407/407 408/408/408 406/406/406
f 406/406/406 408/408/408 404/404/404
f 409/409/409 410/410/410 411/411/411
f 411/411/411 410/410/410 412/412/412
f 412/412/412 413/413/413 411/411/411
f 411/411/411 413/413/413 409/409/409
f 414/414/414 415/415/415 416/416/416
f 416/416/416 415/415/415 417/417/417
f 417/417/417 418/418/418 416/416/416
f 416/416/416 418/418/418 414/414/414
f 378/378/378 419/419/419 376/376/376
f 376/376/376 419/419/419 420/420/420
f 420/420/420 377/377/377 376/376/376
f 282/282/282 421/421/421 281/281/281
g Stairs115
s 1
f 422/422/422 423/423/423 424/424/424
f 425/425/425 426/426/426 427/427/427
f 422/422/422 424/424/424 428/428/428
f 429/429/429 422/422/422 428/428/428
f 430/430/430 431/431/431 426/426/426
f 425/425/425 430/430/430 426/426/426
f 430/430/430 425/425/425 432/432/432
f 431/431/431 430/430/430 432/432/432
f 431/431/431 432/432/432 433/433/433
f 428/428/428 424/424/424 434/434/434
f 435/435/435 436/436/436 437/437/437
f 429/429/429 436/436/436 438/438/438
f 439/439/439 440/440/440 441/441/441
f 425/425/425 427/427/427 441/441/441
f 441/441/441 442/442/442 425/425/425
f 441/441/441 440/440/440 442/442/442
f 436/436/436 443/443/443 437/437/437
f 436/436/436 429/429/429 443/443/443
f 436/436/436 444/444/444 438/438/438
f 436/436/436 435/435/435 444/444/444
f 441/441/441 445/445/445 439/439/439
f 441/441/441 427/427/427 445/445/445
f 429/429/429 438/438/438 423/423/423
f 429/429/429 423/423/423 422/422/422
