# Exported using wow.export v0.2.19
o 21138_Bnkentrance01.obj
v -77.26651763916016 -2.4343600273132324 52.60748291015625
v -76.39313507080078 -2.4343597888946533 51.47621154785156
v -77.7003173828125 -2.4343597888946533 51.24571990966797
v -75.08595275878906 -2.4343597888946533 51.70670700073242
v -75.5255355834961 -2.4343605041503906 54.199745178222656
v -76.39891815185547 -2.4343607425689697 55.331016540527344
v -75.96511840820312 -2.434360980987549 56.692779541015625
v -77.27230834960938 -2.434360980987549 56.46228790283203
v -78.5794906616211 -2.434360980987549 56.23179626464844
v -78.13990783691406 -2.4343605041503906 53.7387580871582
v -76.83271789550781 -2.4343605041503906 53.9692497253418
v -75.5255355834961 2.547170400619507 54.199745178222656
v -75.96511840820312 2.547170877456665 56.69278335571289
v -76.39891815185547 2.547170639038086 55.331016540527344
v -75.95933532714844 2.5471701622009277 52.837982177734375
v -76.83271789550781 2.5471701622009277 53.96925354003906
v -75.08595275878906 2.5471699237823486 51.70670700073242
v -77.70610046386719 2.547170400619507 55.10052490234375
v -77.92300415039062 2.547170400619507 54.419639587402344
v -78.5794906616211 2.547170639038086 56.23179626464844
v -77.26651763916016 2.5471701622009277 52.607486724853516
v -77.7003173828125 2.5471699237823486 51.24571990966797
v -76.39313507080078 2.5471699237823486 51.47621154785156
v -78.13990783691406 2.5471701622009277 53.7387580871582
v -77.27230834960938 2.547170639038086 56.46228790283203
v -76.61871337890625 1.589650273323059 56.577537536621094
v -77.27230834960938 2.547170639038086 56.46228790283203
v -75.96511840820312 2.547170877456665 56.69278335571289
v -77.27230834960938 0.6321296691894531 56.46228790283203
v -77.27230834960938 -1.2829115390777588 56.46228790283203
v -78.5794906616211 -1.2829115390777588 56.23179244995117
v -78.5794906616211 2.547170639038086 56.23179626464844
v -76.39313507080078 0.6321288347244263 51.47621154785156
v -76.39313507080078 2.5471699237823486 51.47621154785156
v -77.7003173828125 2.5471699237823486 51.24571990966797
v -75.96511840820312 0.6321296691894531 56.69278335571289
v -76.61871337890625 -0.32539093494415283 56.577537536621094
v -76.39313507080078 -1.8586361408233643 51.47621154785156
v -76.39313507080078 -1.2829123735427856 51.47621154785156
v -77.7003173828125 -1.2829123735427856 51.24571990966797
v -75.08595275878906 -1.2829123735427856 51.70670700073242
v -75.96511840820312 -1.2829115390777588 56.69278335571289
v -75.73954772949219 -0.3253917694091797 51.591461181640625
v -77.27230834960938 -1.8586362600326538 56.46228790283203
v -77.7003173828125 -2.4343597888946533 51.24571990966797
v -76.39313507080078 -2.4343597888946533 51.47621154785156
v -75.08595275878906 -2.4343597888946533 51.70670700073242
v -78.5794906616211 -2.434360980987549 56.23179626464844
v -75.96511840820312 -2.434360980987549 56.692779541015625
v -75.08595275878906 0.6321288347244263 51.70670700073242
v -77.27230834960938 -2.434360980987549 56.46228790283203
v -75.73954772949219 1.5896494388580322 51.591461181640625
v -75.08595275878906 2.5471699237823486 51.70670700073242
vn -0.5701500177383423 0.8033319711685181 0.17200785875320435
vn -0.4140397608280182 0.6719164848327637 0.6140841245651245
vn -0.6668544411659241 0.5743478536605835 0.4747943580150604
vn -0.12278705835342407 0.7071067094802856 0.6963644623756409
vn 5.531772444555827e-7 0.9999999403953552 5.057620455772849e-7
vn -0.1425153762102127 0.8752285242080688 -0.4622385799884796
vn 0.12278784066438675 0.7071072459220886 -0.6963637471199036
vn -0.17760099470615387 0.6706835031509399 -0.7201676368713379
vn -0.4616280198097229 0.5724719762802124 -0.6776248812675476
vn -0.6958774328231812 0.7071851491928101 -0.12507520616054535
vn -0.38594743609428406 0.9090325832366943 -0.15717585384845734
vn 0.6964424848556519 -0.7070356011390686 0.12275393307209015
vn 0.6689245700836182 -0.577195942401886 -0.468385249376297
vn 0.3790183663368225 -0.8859148621559143 -0.2673947215080261
vn 0.2671564519405365 -0.888727605342865 0.37254613637924194
vn 0.005822840146720409 -0.9999538660049438 -0.007644167635589838
vn 0.4683234691619873 -0.5773499608039856 0.668834924697876
vn -0.2568221688270569 -0.8859792351722717 -0.3861129581928253
vn -0.48168617486953735 -0.84322190284729 -0.23865321278572083
vn -0.46162793040275574 -0.572472095489502 -0.6776247620582581
vn -0.3734213411808014 -0.8893340826034546 0.26389649510383606
vn -0.6668543815612793 -0.5743478536605835 0.47479447722435
vn -0.12141460180282593 -0.7043383717536926 0.6994040012359619
vn -0.6958773136138916 -0.7071852087974548 -0.1250750571489334
vn 0.12667274475097656 -0.7025275230407715 -0.7002922892570496
vn 0.40190428495407104 -0.5315356850624084 -0.7456156015396118
vn 0.12667274475097656 -0.7025275230407715 -0.7002922892570496
vn 0.6689245700836182 -0.577195942401886 -0.468385249376297
vn 0.07450138032436371 -0.40601685643196106 -0.9108237624168396
vn -0.05282624810934067 0.19363093376159668 -0.979651153087616
vn -0.5630128979682922 -4.089042136001808e-7 -0.8264480829238892
vn -0.46162793040275574 -0.572472095489502 -0.6776247620582581
vn -0.3310767412185669 -0.16475608944892883 0.9291090965270996
vn -0.12141460180282593 -0.7043383717536926 0.6994040012359619
vn -0.6668543815612793 -0.5743478536605835 0.47479447722435
vn 0.6572448015213013 -0.14495156705379486 -0.7396069169044495
vn 0.3022562861442566 -0.04458644613623619 -0.9521834254264832
vn -0.5405052304267883 0.40771642327308655 0.7359492778778076
vn -0.3870091438293457 0.19392381608486176 0.901452898979187
vn -0.8146166205406189 0 0.5799997448921204
vn 0.16590671241283417 0.3250576853752136 0.9310276508331299
vn 0.4743310809135437 0.3250574469566345 -0.8181366920471191
vn -0.08812250196933746 0.08552507311105728 0.9924313426017761
vn 0.007282085716724396 0.5145127177238464 -0.8574519753456116
vn -0.6668544411659241 0.5743478536605835 0.4747943580150604
vn -0.4140397608280182 0.6719164848327637 0.6140841245651245
vn -0.12278705835342407 0.7071067094802856 0.6963644623756409
vn -0.4616280198097229 0.5724719762802124 -0.6776248812675476
vn 0.12278784066438675 0.7071072459220886 -0.6963637471199036
vn 0.3646290600299835 -0.14504684507846832 0.9197865128517151
vn -0.17760099470615387 0.6706835031509399 -0.7201676368713379
vn 0.07766354084014893 -0.41993415355682373 0.9042255282402039
vn 0.4683234691619873 -0.5773499608039856 0.668834924697876
vt 2.7101500034332275 1.2455055713653564
vt 2.4550857543945312 1.5061148405075073
vt 2.4550857543945312 0.9848964214324951
vt 2.4550857543945312 2.0273332595825195
vt 2.965214252471924 2.02733314037323
vt 3.22027850151062 1.766723871231079
vt 3.4753427505493164 2.0273330211639404
vt 3.4753427505493164 1.5061145424842834
vt 3.4753427505493164 0.9848961234092712
vt 2.965214252471924 0.9848962724208832
vt 2.965214252471924 1.5061147212982178
vt 0.5 0
vt 0.8937007784843445 0
vt 0.6968504190444946 0.25
vt 0.30314961075782776 0.25
vt 0.5 0.5
vt 0.10629922151565552 0
vt 0.6968504190444946 0.75
vt 0.5984252095222473 0.875
vt 0.8937007784843445 1
vt 0.30314961075782776 0.75
vt 0.10629922151565552 1
vt 0.10629922151565552 0.5
vt 0.5 1
vt 0.8937007784843445 0.5
vt 0.4811555743217468 0.6516811847686768
vt 0.7309057712554932 0.8086790442466736
vt 0.2314053326845169 0.8086791038513184
vt 0.7309057712554932 0.49468326568603516
vt 0.7309057712554932 0.1806875467300415
vt 1.2304061651229858 0.18068748712539673
vt 1.2304061651229858 0.8086789846420288
vt 0.7309058308601379 0.4946833848953247
vt 0.7309058308601379 0.8086791634559631
vt 1.2304062843322754 0.8086791038513184
vt 0.2314053326845169 0.49468332529067993
vt 0.48115554451942444 0.33768540620803833
vt 0.7309058308601379 0.09059375524520874
vt 0.7309058308601379 0.1806875467300415
vt 1.2304062843322754 0.1806875467300415
vt 0.2314053624868393 0.18068760633468628
vt 0.2314053326845169 0.1806875467300415
vt 0.4811555743217468 0.3376854658126831
vt 0.7309057712554932 0.09059351682662964
vt 1.2304062843322754 0.0004998445510864258
vt 0.7309058308601379 0.0004999041557312012
vt 0.2314053624868393 0.0004999637603759766
vt 1.2304061651229858 0.0004994869232177734
vt 0.2314053326845169 0.0004994869232177734
vt 0.2314053624868393 0.4946833848953247
vt 0.7309057712554932 0.0004994869232177734
vt 0.4811556041240692 0.6516813039779663
vt 0.2314053624868393 0.8086792230606079
g Bnkentrance010
s 1
f 1/1/1 2/2/2 3/3/3
f 1/1/1 4/4/4 2/2/2
f 5/5/5 4/4/4 6/6/6
f 7/7/7 5/5/5 6/6/6
f 6/6/6 8/8/8 7/7/7
f 6/6/6 9/9/9 8/8/8
f 10/10/10 9/9/9 11/11/11
f 3/3/3 10/10/10 1/1/1
f 11/11/11 9/9/9 6/6/6
f 6/6/6 4/4/4 11/11/11
f 11/11/11 4/4/4 1/1/1
f 1/1/1 10/10/10 11/11/11
g Bnkentrance011
s 1
f 12/12/12 13/13/13 14/14/14
f 15/15/15 14/14/14 16/16/16
f 17/17/17 12/12/12 14/14/14
f 18/18/18 19/19/19 16/16/16
f 16/16/16 14/14/14 18/18/18
f 18/18/18 14/14/14 20/20/20
f 21/21/21 22/22/22 23/23/23
f 21/21/21 23/23/23 17/17/17
f 20/20/20 24/24/24 19/19/19
f 19/19/19 24/24/24 21/21/21
f 19/19/19 21/21/21 16/16/16
f 14/14/14 13/13/13 25/25/25
f 14/14/14 25/25/25 20/20/20
f 24/24/24 22/22/22 21/21/21
f 15/15/15 21/21/21 17/17/17
f 16/16/16 21/21/21 15/15/15
f 20/20/20 19/19/19 18/18/18
f 17/17/17 14/14/14 15/15/15
g Bnkentrance012
s 1
f 26/26/26 27/27/27 28/28/28
f 29/29/29 30/30/30 31/31/31
f 29/29/29 32/32/32 27/27/27
f 33/33/33 34/34/34 35/35/35
f 36/36/36 37/37/37 29/29/29
f 38/38/38 39/39/39 40/40/40
f 38/38/38 41/41/41 39/39/39
f 33/33/33 40/40/40 39/39/39
f 36/36/36 42/42/42 37/37/37
f 37/37/37 42/42/42 30/30/30
f 29/29/29 37/37/37 30/30/30
f 28/28/28 36/36/36 26/26/26
f 26/26/26 36/36/36 29/29/29
f 43/43/43 39/39/39 41/41/41
f 44/44/44 31/31/31 30/30/30
f 44/44/44 30/30/30 42/42/42
f 29/29/29 27/27/27 26/26/26
f 40/40/40 45/45/45 38/38/38
f 38/38/38 46/46/46 47/47/47
f 47/47/47 41/41/41 38/38/38
f 38/38/38 45/45/45 46/46/46
f 48/48/48 31/31/31 44/44/44
f 33/33/33 39/39/39 43/43/43
f 42/42/42 49/49/49 44/44/44
f 43/43/43 50/50/50 33/33/33
f 31/31/31 32/32/32 29/29/29
f 41/41/41 50/50/50 43/43/43
f 44/44/44 51/51/51 48/48/48
f 44/44/44 49/49/49 51/51/51
f 33/33/33 52/52/52 34/34/34
f 50/50/50 53/53/53 52/52/52
f 35/35/35 40/40/40 33/33/33
f 52/52/52 53/53/53 34/34/34
f 50/50/50 52/52/52 33/33/33
