# Exported using wow.export v0.2.19
o 21138_BM03.obj
v -176.325927734375 4.23214864730835 79.62920379638672
v -175.9407501220703 3.96299409866333 79.7216796875
v -177.0431671142578 3.9629974365234375 84.3135757446289
v -175.65869140625 3.560175895690918 79.78939819335938
v -174.8383331298828 3.9629907608032227 75.12977600097656
v -175.9149627685547 2.351724624633789 84.58445739746094
v -175.0946044921875 2.7545394897460938 79.92483520507812
v -179.42945861816406 5.174800395965576 74.02754211425781
v -176.8109893798828 5.3099846839904785 64.94304656982422
v -179.0158233642578 5.309990882873535 74.12684631347656
v -181.2206573486328 5.30999755859375 83.3106460571289
v -176.79263305664062 5.174800395965576 74.66058349609375
v -179.4110870361328 5.309996604919434 83.7450942993164
v -177.20626831054688 5.309990406036377 74.56128692626953
v -175.00143432617188 5.30998420715332 65.37747955322266
v -180.94549560546875 5.039613246917725 78.5201416015625
v -180.5318603515625 5.174803733825684 78.61944580078125
v -172.8897705078125 2.754532814025879 70.74102020263672
v -171.50531005859375 2.3517115116119385 66.21682739257812
v -172.4026336669922 2.452418327331543 69.64382934570312
v -173.29995727539062 2.5531253814697266 73.07083129882812
v -180.30712890625 2.351710557937622 64.10370635986328
v -179.17892456054688 3.962984800338745 64.37455749511719
v -180.56338500976562 3.560169219970703 68.89874267578125
v -172.60772705078125 2.351714611053467 70.80873107910156
v -183.5885772705078 3.9629974365234375 82.7421646118164
v -184.71676635742188 2.3517229557037354 82.47130584716797
v -182.76821899414062 3.560175657272339 78.08255004882812
v -180.42236328125 3.7615785598754883 68.93260192871094
v -181.66580200195312 3.5601725578308105 73.49064636230469
v -180.97357177734375 3.761580228805542 71.22855377197266
v -181.8708953857422 3.6608779430389404 74.65554809570312
v -181.38375854492188 3.962991237640381 73.55836486816406
v -179.84307861328125 5.039609909057617 73.92823791503906
v -175.69021606445312 5.174797058105469 70.06867980957031
v -175.27658081054688 5.039606094360352 70.16798400878906
v -176.37899780273438 5.039609909057617 74.7598876953125
v -183.33230590820312 2.7545385360717773 77.9471206665039
v -183.61434936523438 2.351719856262207 77.87940979003906
v -182.51194763183594 2.3517167568206787 73.28750610351562
v -183.73797607421875 1.8765630722045898 77.8497314453125
v -181.1274871826172 2.7545323371887207 68.76332092285156
v -181.4095458984375 2.3517136573791504 68.69560241699219
v -181.5331573486328 1.8765568733215332 68.66592407226562
v -174.27423095703125 3.1573543548583984 75.26521301269531
v -174.19728088378906 2.65383243560791 76.49783325195312
v -173.71014404296875 2.351717948913574 75.40064239501953
v -174.44168090820312 0.9262509942054749 80.08157348632812
v -173.21563720703125 0.4510902762413025 75.51934814453125
v -174.31805419921875 0.4510938823223114 80.11125183105469
v -175.42047119140625 0.4510974884033203 84.70316314697266
v -172.48410034179688 1.8765580654144287 70.83840942382812
v -181.33065795898438 4.770458698272705 78.42767333984375
v -182.0478973388672 5.039616584777832 83.11204528808594
v -177.09625244140625 4.770458221435547 79.44425964355469
v -178.58383178710938 5.039616584777832 83.94369506835938
v -177.48141479492188 5.039613246917725 79.35179138183594
v -174.89141845703125 4.770451545715332 70.26045989990234
v -174.17417907714844 5.039602756500244 65.57608795166016
v -172.6334991455078 3.962984323501587 65.94596862792969
v -173.453857421875 3.560169219970703 70.6055908203125
v -180.28134155273438 3.9629878997802734 68.96646118164062
v -179.8961639404297 4.232142925262451 69.05892944335938
v -185.2112579345703 0.45109620690345764 82.35259246826172
v -183.9852294921875 0.9262497425079346 77.79037475585938
v -172.23684692382812 0.926243782043457 70.89776611328125
v -172.11322021484375 0.45108669996261597 70.92744445800781
v -182.75918579101562 1.4014031887054443 73.2281494140625
v -183.00643920898438 0.45108985900878906 73.16879272460938
v -171.0108184814453 0.45108309388160706 66.33554077148438
v -178.74066162109375 5.03960657119751 69.33633422851562
v -178.5338592529297 5.10720157623291 69.385986328125
v -180.80162048339844 0.4510835111141205 63.9849853515625
v -181.7803955078125 0.9262433648109436 68.6065673828125
v -181.90402221679688 0.45108669996261597 68.57688903808594
v -177.6382598876953 5.039603233337402 64.74443817138672
v -184.10885620117188 0.45109301805496216 77.76069641113281
v -174.68893432617188 1.8765645027160645 80.02222442626953
v -182.10098266601562 4.232149124145508 78.24273681640625
v -182.48617553710938 3.962994337081909 78.1502685546875
v -179.12582397460938 4.77045202255249 69.24386596679688
v -174.81256103515625 2.3517212867736816 79.9925537109375
v -173.462890625 1.4014045000076294 75.45999145507812
v -181.94784545898438 3.1573538780212402 73.42293548583984
v -174.12109375 4.232141971588135 70.44540405273438
v -173.7359161376953 3.9629874229431152 70.53787231445312
v -180.6134033203125 4.501300811767578 73.74330139160156
v -180.0762481689453 3.8622825145721436 67.80155944824219
v -177.688232421875 5.107208251953125 79.30213928222656
v -175.60867309570312 4.501299858093262 74.94483184814453
v -173.94308471679688 -1.5084139108657837 75.34471130371094
v -175.01141357421875 -0.6822829246520996 79.9448013305664
v -173.87490844726562 0.1438404768705368 75.36107635498047
v -175.07958984375 -2.3345372676849365 79.92843627929688
v -176.07972717285156 0.1438480019569397 84.54489135742188
v -172.80657958984375 -0.6822904944419861 70.760986328125
v -171.8064422607422 -3.160670757293701 66.14453125
v -172.874755859375 -2.3345422744750977 70.74462127685547
v -185.2112579345703 0.45109620690345764 82.35259246826172
v -183.77920532226562 0.29746878147125244 77.83982849121094
v -184.21963500976562 0.374281644821167 78.9482421875
v -183.34732055664062 -2.334536075592041 77.94352722167969
v -184.41563415527344 -3.160660743713379 82.54361724853516
v -183.313232421875 -3.16066312789917 77.95171356201172
v -182.2108154296875 -3.16066575050354 73.35980987548828
v -184.39044189453125 -3.9006195068359375 82.54967498779297
v -181.21066284179688 -0.6822883486747742 68.74334716796875
v -180.14234924316406 0.14383465051651 64.14326477050781
v -181.2447509765625 0.14383798837661743 68.73516845703125
v -182.34716796875 0.14384132623672485 73.32706451416016
v -172.77249145507812 0.14383670687675476 70.7691650390625
v -171.6700897216797 0.1438329517841339 66.17726135253906
v -171.0108184814453 0.45108309388160706 66.33554077148438
v -182.6768035888672 0.297465443611145 73.2479248046875
v -183.00643920898438 0.45108985900878906 73.16879272460938
v -184.10885620117188 0.45109301805496216 77.76069641113281
v -180.80162048339844 0.4510835111141205 63.9849853515625
v -181.90402221679688 0.45108669996261597 68.57688903808594
v -173.54527282714844 0.29746556282043457 75.44021606445312
v -173.21563720703125 0.4510902762413025 75.51934814453125
v -172.11322021484375 0.45108669996261597 70.92744445800781
v -181.14248657226562 -2.334541082382202 68.75971984863281
v -181.1083984375 -3.16066837310791 68.76790618896484
v -180.00599670410156 -3.160670757293701 64.1760025024414
v -182.19821166992188 -3.5306451320648193 73.36283874511719
v -183.41549682617188 -0.6822817325592041 77.9271469116211
v -183.4495849609375 0.14384466409683228 77.91896057128906
v -184.552001953125 0.1438480019569397 82.5108642578125
v -174.97732543945312 0.14384424686431885 79.95298767089844
v -174.01126098632812 -3.16066575050354 75.32835388183594
v -175.11367797851562 -3.16066312789917 79.92025756835938
v -176.21609497070312 -3.160660743713379 84.51216888427734
v -174.01016235351562 -3.5777249336242676 75.32861328125
v -173.44302368164062 -2.7476038932800293 73.03648376464844
v -174.2613067626953 -2.5410704612731934 76.48246002197266
v -182.18565368652344 -3.939995288848877 73.36585998535156
v -179.98086547851562 -3.9793710708618164 64.18203735351562
v -175.42047119140625 0.4510974884033203 84.70316314697266
v -174.31805419921875 0.4510938823223114 80.11125183105469
v -172.90884399414062 -3.16066837310791 70.73644256591797
v -171.8042449951172 -3.9947891235351562 66.14505767822266
v -172.62472534179688 -2.9541373252868652 69.59050750732422
v -172.44287109375 0.2974618077278137 70.84831237792969
v -181.57440185546875 0.29746225476264954 68.6560287475586
v -183.30062866210938 -3.530642509460449 77.95474243164062
v -181.40957641601562 0.22065004706382751 68.69559478759766
v -172.27804565429688 0.3742743134498596 70.88787841796875
v -183.94403076171875 0.37428081035614014 77.80026245117188
v -183.22799682617188 0.29746711254119873 75.54388427734375
v -173.99853515625 -4.035254001617432 75.33140563964844
v -176.19284057617188 -4.075718879699707 84.51774597167969
v -172.90774536132812 -3.5777273178100586 70.73670959472656
v -174.64767456054688 0.2974691390991211 80.03211975097656
v -175.11312866210938 -3.3691928386688232 79.92039489746094
v -174.8125 0.22065678238868713 79.9925537109375
v -182.2363739013672 0.22065255045890808 72.1395263671875
v -181.10211181640625 -3.3456578254699707 68.76942443847656
v -183.29432678222656 -3.715632438659668 77.95625305175781
v -182.27899169921875 -1.5084114074707031 73.34342956542969
v -178.1110382080078 4.926822662353516 74.34407043457031
v -176.5855712890625 4.92681884765625 69.8537368774414
v -177.68797302246094 4.926822185516357 74.44563293457031
v -177.235595703125 5.118406295776367 74.55424499511719
v -177.26490783691406 4.926822185516357 74.54720306396484
v -176.16250610351562 4.92681884765625 69.95530700683594
v -179.4697265625 4.926828861236572 83.73100280761719
v -181.16200256347656 4.926827430725098 83.32472229003906
v -178.79037475585938 4.926825523376465 79.03753662109375
v -178.33799743652344 5.118409156799316 79.14614868164062
v -179.4110870361328 5.309996604919434 83.7450942993164
v -178.3673095703125 4.926825523376465 79.13909912109375
v -177.85780334472656 4.926823139190674 75.61900329589844
v -177.88409423828125 5.118403434753418 69.5419921875
v -178.95718383789062 4.926821708679199 74.14093017578125
v -178.9864959716797 5.118406295776367 74.13388061523438
v -179.6365203857422 4.926825046539307 78.83439636230469
v -178.95718383789062 4.926821708679199 74.14093017578125
v -177.43170166015625 4.926819801330566 69.65060424804688
v -177.85476684570312 4.92681884765625 69.54902648925781
v -176.75234985351562 4.926816463470459 64.9571304321289
v -176.8109893798828 5.3099846839904785 64.94304656982422
v -177.85476684570312 4.92681884765625 69.54902648925781
v -175.06008911132812 4.926815509796143 65.3634033203125
v -177.20626831054688 5.309990406036377 74.56128692626953
v -180.07424926757812 5.022616863250732 78.72930145263672
v -180.05960083007812 4.926824569702148 78.73282623291016
v -181.16200256347656 4.926827430725098 83.32472229003906
v -180.05960083007812 4.926824569702148 78.73282623291016
v -176.92523193359375 4.926820755004883 72.20046997070312
v -177.26490783691406 4.926822185516357 74.54720306396484
v -175.99266052246094 4.926817893981934 68.78193664550781
v -175.06008911132812 4.926815509796143 65.3634033203125
v -176.16250610351562 4.92681884765625 69.95530700683594
v -175.00143432617188 5.30998420715332 65.37747955322266
v -181.2206573486328 5.30999755859375 83.3106460571289
v -179.0158233642578 5.309990882873535 74.12684631347656
v -179.4697265625 4.926828861236572 83.73100280761719
v -178.3673095703125 4.926825523376465 79.13909912109375
v -176.75234985351562 4.926816463470459 64.9571304321289
v -183.2705841064453 -4.270317077636719 82.81851959228516
v -176.9365692138672 -4.595455646514893 84.33920288085938
v -180.3441162109375 -4.361445426940918 81.09281921386719
v -180.58465576171875 -4.290004730224609 78.60678100585938
v -182.16818237304688 -4.290004730224609 78.22660827636719
v -181.06576538085938 -4.309692859649658 73.63470458984375
v -178.37985229492188 -4.329380989074707 69.42296600341797
v -179.96336364746094 -4.329380989074707 69.04280090332031
v -175.21282958984375 -4.329380989074707 70.18329620361328
v -173.62933349609375 -4.410665512084961 70.56346893310547
v -172.52691650390625 -4.349068641662598 65.9715576171875
v -177.89874267578125 -4.309692859649658 74.39503479003906
v -174.73175048828125 -4.472262382507324 75.15538024902344
v -179.12142944335938 -4.335569381713867 77.74392700195312
v -178.8609619140625 -4.349068641662598 64.45089721679688
v -175.45338439941406 -4.339224815368652 67.697265625
v -177.41766357421875 -4.452574253082275 79.36711883544922
v -175.83416748046875 -4.5338592529296875 79.7472915649414
v -175.7799072265625 -4.452517509460449 79.76031494140625
v -175.83416748046875 -4.5338592529296875 79.7472915649414
v -176.9365692138672 -4.595455646514893 84.33920288085938
v -174.62326049804688 -4.309579849243164 75.18142700195312
v -176.89654541015625 -4.120050430297852 84.34880065917969
v -174.60325622558594 -4.0718770027160645 75.18621826171875
v -174.953125 -4.406320571899414 76.31637573242188
v -171.8042449951172 -3.9947891235351562 66.1450424194336
v -172.30996704101562 -4.023703575134277 66.02364349365234
v -179.0779571533203 -4.023703098297119 64.3988037109375
v -179.9752960205078 -3.9793701171875 64.15911865234375
v -184.39044189453125 -3.9006195068359375 82.54967498779297
v -183.48756408691406 -3.9449522495269775 82.76642608642578
v -176.19284057617188 -4.075718879699707 84.51774597167969
v -183.2705841064453 -4.270317077636719 82.81851959228516
v -182.16818237304688 -4.290004730224609 78.22660827636719
v -174.0720672607422 -4.278781414031982 72.88546752929688
v -174.73175048828125 -4.472262382507324 75.15538024902344
v -180.84442138671875 -4.233273506164551 72.47370910644531
v -179.96336364746094 -4.329380989074707 69.04280090332031
v -178.8609619140625 -4.349068641662598 64.45089721679688
v -181.7254638671875 -4.137166500091553 75.90461730957031
v -181.06576538085938 -4.309692859649658 73.63470458984375
v -181.17425537109375 -4.147010326385498 73.60865783691406
v -173.46661376953125 -4.166641712188721 70.6025390625
v -182.27667236328125 -4.127322673797607 78.2005615234375
v -173.52085876464844 -4.247982978820801 70.58950805664062
v -173.62933349609375 -4.410665512084961 70.56346893310547
v -172.52691650390625 -4.349068641662598 65.9715576171875
vn -0.6204743981361389 -0.7700376510620117 -0.14850440621376038
vn -0.6700307130813599 -0.724532961845398 -0.16158853471279144
vn -0.6781362295150757 -0.7166767120361328 -0.16280585527420044
vn -0.7300357222557068 -0.6603543758392334 -0.17601150274276733
vn -0.6618387699127197 -0.7322958111763 -0.16035039722919464
vn -0.8786060810089111 -0.42843663692474365 -0.21093465387821198
vn -0.8322569131851196 -0.5168427228927612 -0.2005542516708374
vn -0.04061051458120346 -0.9991042613983154 -0.01189290639013052
vn -0.5115991830825806 -0.8507016897201538 -0.12071824818849564
vn -0.5113604068756104 -0.8507035374641418 -0.12171368300914764
vn -0.5111210346221924 -0.8507043123245239 -0.12270896136760712
vn 0.04885176196694374 -0.9987189173698425 0.013194385915994644
vn 0.5111365914344788 -0.8506943583488464 0.12271322309970856
vn 0.5108398795127869 -0.8506968021392822 0.12392627447843552
vn 0.5105422735214233 -0.8506978154182434 0.12513911724090576
vn 0.4287850856781006 -0.8976290225982666 0.10200784355401993
vn -0.044896140694618225 -0.9989214539527893 -0.011847508139908314
vn -0.8192294836044312 -0.5372128486633301 -0.2006622701883316
vn -0.8561463356018066 -0.47124338150024414 -0.21199804544448853
vn -0.8503947257995605 -0.482771098613739 -0.20919114351272583
vn -0.8444952964782715 -0.49421489238739014 -0.20634789764881134
vn 0.8816367387771606 -0.4283858835697174 0.19799548387527466
vn 0.6975518465042114 -0.6997848153114319 0.1540215015411377
vn 0.7472233772277832 -0.6426815986633301 0.1691674292087555
vn -0.8619510531425476 -0.460641086101532 -0.21177856624126434
vn 0.6781362891197205 -0.7166765332221985 0.16280633211135864
vn 0.8786062598228455 -0.4284361004829407 0.21093493700027466
vn 0.7382200956344604 -0.651800274848938 0.17374560236930847
vn 0.7206053137779236 -0.6739504933357239 0.1628449410200119
vn 0.7427389025688171 -0.6472558975219727 0.17146047949790955
vn 0.7182762026786804 -0.6761599183082581 0.1639726310968399
vn 0.7283470630645752 -0.6640703678131104 0.1688820719718933
vn 0.6879076957702637 -0.7082961797714233 0.15842856466770172
vn 0.4326257109642029 -0.8957856893539429 0.1019950658082962
vn 0.048734914511442184 -0.9987180829048157 0.013680760748684406
vn -0.4252413809299469 -0.899456262588501 -0.10073874145746231
vn -0.4251391589641571 -0.899456799030304 -0.10116493701934814
vn 0.8388546705245972 -0.507105827331543 0.19790582358837128
vn 0.8793784379959106 -0.4284306466579437 0.20770347118377686
vn 0.8801409602165222 -0.4284205138683319 0.2044697403907776
vn 0.9470494389533997 -0.21989917755126953 0.23396971821784973
vn 0.8403757810592651 -0.5070804953575134 0.19141030311584473
vn 0.8808937668800354 -0.42840561270713806 0.20123374462127686
vn 0.9486624002456665 -0.21988733112812042 0.22735287249088287
vn -0.7775256037712097 -0.6000433564186096 -0.1881539672613144
vn -0.8384489417076111 -0.5055727362632751 -0.20346875488758087
vn -0.8676297664642334 -0.4499714970588684 -0.21152815222740173
vn -0.9508323669433594 0.20726068317890167 -0.23013213276863098
vn -0.8812676072120667 0.42752256989479065 -0.20147453248500824
vn -0.8801201581954956 0.4276096522808075 -0.20624881982803345
vn -0.8789514899253845 0.4276863932609558 -0.2110181301832199
vn -0.9391126036643982 -0.25470489263534546 -0.23063571751117706
vn 0.4991229474544525 -0.8586769700050354 0.11640488356351852
vn 0.42493656277656555 -0.8994559645652771 0.10201874375343323
vn -0.49346858263015747 -0.8617202043533325 -0.11801289767026901
vn -0.424934446811676 -0.8994571566581726 -0.10201727598905563
vn -0.42503684759140015 -0.8994570970535278 -0.10159112513065338
vn -0.49367374181747437 -0.8617193698883057 -0.11715779453516006
vn -0.42534348368644714 -0.8994555473327637 -0.10031251609325409
vn -0.6452001333236694 -0.7475373148918152 -0.15781226754188538
vn -0.7149633169174194 -0.6772006750106812 -0.173858642578125
vn 0.6927458047866821 -0.7040567994117737 0.15622863173484802
vn 0.6359350085258484 -0.7584719657897949 0.14250247180461884
vn 0.8789513111114502 0.42768701910972595 0.21101748943328857
vn 0.9472770094871521 0.21885816752910614 0.2340245544910431
vn -0.9531940221786499 0.20707647502422333 -0.22031883895397186
vn -0.8823937177658081 0.42742517590522766 -0.19669537246227264
vn 0.9693686366081238 -0.0006525457720272243 0.24560950696468353
vn 0.876325249671936 0.4274992346763611 0.2220326066017151
vn -0.8834986090660095 0.42731744050979614 -0.1919114589691162
vn 0.436458557844162 -0.8939262628555298 0.10198044776916504
vn 0.20654675364494324 -0.9773288369178772 0.046547774225473404
vn 0.8735867738723755 0.42725658416748047 0.23301924765110016
vn 0.9444770216941833 0.21862585842609406 0.2452874779701233
vn 0.8749700784683228 0.42738479375839233 0.2275295853614807
vn 0.4402834177017212 -0.8920503854751587 0.10196395963430405
vn 0.8776524066925049 0.4275999963283539 0.2165285348892212
vn -0.9455448389053345 -0.23145537078380585 -0.22885243594646454
vn 0.6255943179130554 -0.7662180066108704 0.14677110314369202
vn 0.6830378174781799 -0.7125028371810913 0.16062115132808685
vn 0.5064772963523865 -0.854374349117279 0.11629760265350342
vn -0.8731817007064819 -0.4392361640930176 -0.21124684810638428
vn -0.9712545871734619 -0.024381866678595543 -0.2367914915084839
vn 0.7924434542655945 -0.5817495584487915 0.1833055466413498
vn -0.6030157208442688 -0.7842974066734314 -0.14577290415763855
vn -0.6535615921020508 -0.7399643063545227 -0.15909160673618317
vn 0.5696290731430054 -0.8115665316581726 0.1299327164888382
vn 0.708010196685791 -0.6880658864974976 0.15901866555213928
vn -0.19414614140987396 -0.9799003601074219 -0.04585327208042145
vn -0.5588559508323669 -0.8184881806373596 -0.1332559734582901
vn -0.9268901348114014 0.31259968876838684 -0.20774021744728088
vn -0.8747205138206482 0.4402755796909332 -0.2025376409292221
vn -0.8091053366661072 0.5594112873077393 -0.1800207793712616
vn -0.9582976698875427 0.1792028844356537 -0.22260260581970215
vn -0.8058875203132629 0.5595642328262329 -0.19347670674324036
vn -0.8778699040412903 0.4400564730167389 -0.18893034756183624
vn -0.973095715045929 0.042395468801259995 -0.22646702826023102
vn -0.9590869545936584 0.17919671535491943 -0.21918191015720367
vn 0.8789513111114502 0.42768701910972595 0.21101748943328857
vn 0.8435823321342468 0.49498677253723145 0.20822349190711975
vn 0.8615711331367493 0.46165260672569275 0.21112096309661865
vn 0.9568595886230469 0.17930015921592712 0.2286292463541031
vn 0.9714953899383545 0.042401351034641266 0.233235701918602
vn 0.9717313051223755 0.04240034148097038 0.23225097358226776
vn 0.9719663262367249 0.042399294674396515 0.23126603662967682
vn 0.9719153642654419 0.03160182386636734 0.23319923877716064
vn 0.870678186416626 0.44020339846611023 0.21940919756889343
vn 0.8006758093833923 0.5592100620269775 0.21494732797145844
vn 0.8020154237747192 0.559324324131012 0.20958901941776276
vn 0.8033306002616882 0.5594215393066406 0.20422428846359253
vn -0.8106563091278076 0.5592947006225586 -0.1732797473669052
vn -0.8121683597564697 0.559151291847229 -0.16653041541576385
vn -0.8834986090660095 0.42731744050979614 -0.1919114589691162
vn 0.8422852158546448 0.49490079283714294 0.2136092334985733
vn 0.876325249671936 0.4274992346763611 0.2220326066017151
vn 0.8776524066925049 0.4275999963283539 0.2165285348892212
vn 0.8735867738723755 0.42725658416748047 0.23301924765110016
vn 0.8749700784683228 0.42738479375839233 0.2275295853614807
vn -0.8471868634223938 0.49489763379096985 -0.193262979388237
vn -0.8812676072120667 0.42752256989479065 -0.20147453248500824
vn -0.8823937177658081 0.42742517590522766 -0.19669537246227264
vn 0.9573329091072083 0.17929798364639282 0.2266402244567871
vn 0.9722002744674683 0.042398203164339066 0.2302808314561844
vn 0.9724330902099609 0.04239705577492714 0.22929537296295166
vn 0.9721903204917908 0.037000056356191635 0.23125113546848297
vn 0.8732622861862183 0.44035887718200684 0.20855912566184998
vn 0.8046212196350098 0.5595016479492188 0.19885334372520447
vn 0.8058872222900391 0.5595647096633911 0.19347631931304932
vn -0.8075157999992371 0.5595011711120605 -0.18675321340560913
vn -0.9723015427589417 0.04239842668175697 -0.22985246777534485
vn -0.9719000458717346 0.04239971563220024 -0.2315441370010376
vn -0.971495509147644 0.042400870472192764 -0.23323510587215424
vn -0.8932393193244934 0.3889501094818115 -0.2254803478717804
vn -0.9679924249649048 0.11106257885694504 -0.2250685840845108
vn -0.9637165665626526 0.1452188640832901 -0.22396841645240784
vn 0.902211606502533 0.3803662955760956 0.20331180095672607
vn 0.7175765037536621 0.6806764602661133 0.14752480387687683
vn -0.8789514899253845 0.4276863932609558 -0.2110181301832199
vn -0.8801201581954956 0.4276096522808075 -0.20624881982803345
vn -0.9727001190185547 0.042397014796733856 -0.22816011309623718
vn -0.7021843791007996 0.6863824725151062 -0.18925178050994873
vn -0.9711199402809143 0.07677454501390457 -0.2259017527103424
vn -0.8487588763237 0.49479666352272034 -0.1865060031414032
vn 0.8409343361854553 0.49478667974472046 0.21912416815757751
vn 0.9719554781913757 0.0370011143386364 0.2322361171245575
vn 0.8220838308334351 0.5274425148963928 0.2144356518983841
vn -0.865980327129364 0.4614472985267639 -0.1927291303873062
vn 0.8612503409385681 0.46163269877433777 0.21246929466724396
vn 0.8429366946220398 0.4949461817741394 0.21091711521148682
vn -0.9057806134223938 0.357138991355896 -0.22806429862976074
vn -0.9722786545753479 -0.026160800829529762 -0.2323571890592575
vn -0.8936887979507446 0.3889572024345398 -0.22367985546588898
vn -0.8460326194763184 0.49497970938682556 -0.19805032014846802
vn -0.9474427103996277 0.2191627025604248 -0.23306617140769958
vn -0.8271462321281433 0.5276194214820862 -0.19351232051849365
vn 0.8230751156806946 0.5275192260742188 0.21040619909763336
vn 0.972315788269043 0.03969871997833252 0.23027420043945312
vn 0.9720568656921387 0.03430107980966568 0.2322261482477188
vn 0.9240656495094299 0.312796413898468 0.2196841537952423
vn -0.00025274005020037293 -0.9999993443489075 0.0010904266964644194
vn 0.3366447389125824 -0.9381073117256165 0.08139437437057495
vn 0.33664363622665405 -0.9381059408187866 0.0814143568277359
vn 0.5731995105743408 -0.8077842593193054 0.13757510483264923
vn 0.6318695545196533 -0.76009202003479 0.15166065096855164
vn 0.6318710446357727 -0.7600945234298706 0.15164202451705933
vn 0.6318666338920593 -0.7600870132446289 0.15169793367385864
vn -0.6318539977073669 -0.7600982189178467 -0.15169447660446167
vn 0.3366425335407257 -0.9381045699119568 0.08143433183431625
vn 0.573198139667511 -0.8077820539474487 0.1375938504934311
vn 0.5111365914344788 -0.8506943583488464 0.12271322309970856
vn 0.6318681240081787 -0.7600895166397095 0.15167929232120514
vn 0.41590994596481323 -0.9038581252098083 0.1002962738275528
vn -0.5735222697257996 -0.8077889084815979 -0.13619567453861237
vn -0.6320526599884033 -0.7600976824760437 -0.15086743235588074
vn -0.5734227895736694 -0.8077895045280457 -0.1366104632616043
vn -0.33690518140792847 -0.9381105303764343 -0.08027012646198273
vn -0.6320526599884033 -0.7600976824760437 -0.15086743235588074
vn -0.33711671829223633 -0.9381096363067627 -0.07938846200704575
vn -0.6321517825126648 -0.7600972652435303 -0.15045388042926788
vn -0.6322508454322815 -0.760096549987793 -0.15004028379917145
vn -0.5115991830825806 -0.8507016897201538 -0.12071824818849564
vn -0.6321517825126648 -0.7600972652435303 -0.15045388042926788
vn 0.6318725347518921 -0.7600970268249512 0.15162338316440582
vn 0.5108398795127869 -0.8506968021392822 0.12392627447843552
vn -0.6030845642089844 -0.7845243215560913 -0.14425919950008392
vn -0.6319534182548523 -0.7600980997085571 -0.1512809693813324
vn -0.6318539977073669 -0.7600982189178467 -0.15169447660446167
vn -0.6319534182548523 -0.7600980997085571 -0.1512809693813324
vn 0.4919283092021942 -0.8625508546829224 0.11837470531463623
vn 0.6318695545196533 -0.76009202003479 0.15166065096855164
vn 0.5641037821769714 -0.8145053386688232 0.13552840054035187
vn 0.6318725347518921 -0.7600970268249512 0.15162338316440582
vn 0.6318710446357727 -0.7600945234298706 0.15164202451705933
vn 0.5105422735214233 -0.8506978154182434 0.12513911724090576
vn -0.5111210346221924 -0.8507043123245239 -0.12270896136760712
vn -0.5113604068756104 -0.8507035374641418 -0.12171368300914764
vn 0.6318666338920593 -0.7600870132446289 0.15169793367385864
vn 0.6318681240081787 -0.7600895166397095 0.15167929232120514
vn -0.6322508454322815 -0.760096549987793 -0.15004028379917145
vn 0.45375362038612366 0.8714674115180969 0.18615102767944336
vn -0.5696268081665039 0.8141122460365295 -0.11290077865123749
vn 0.08476070314645767 0.9933007955551147 0.0785440132021904
vn 0.23559245467185974 0.9652317762374878 0.11324294656515121
vn 0.4554694592952728 0.8755832314491272 0.1609392613172531
vn 0.45688676834106445 0.87912517786026 0.13562199473381042
vn 0.2375987470149994 0.9694607853889465 0.06076634302735329
vn 0.45800453424453735 0.8820908069610596 0.11021583527326584
vn -0.2299814373254776 0.9719805121421814 -0.04860537871718407
vn -0.47983741760253906 0.8685333132743835 -0.12412101775407791
vn -0.44866743683815 0.884548544883728 -0.12755930423736572
vn 0.002894810400903225 0.9994395971298218 0.033347584307193756
vn -0.5104123950004578 0.8514411449432373 -0.12052883207798004
vn 0.043875955045223236 0.9974659085273743 0.056007321923971176
vn 0.4588221609592438 0.8844782710075378 0.08473743498325348
vn -0.11304140836000443 0.9929460883140564 -0.03577210381627083
vn -0.29801246523857117 0.9536449313163757 -0.04183254763484001
vn -0.5403546690940857 0.8332933187484741 -0.11678721010684967
vn -0.5799701809883118 0.8052011132240295 -0.123635433614254
vn -0.5403546690940857 0.8332933187484741 -0.11678721010684967
vn -0.5696268081665039 0.8141122460365295 -0.11290077865123749
vn -0.5901386737823486 0.7960471510887146 -0.1343328058719635
vn -0.7655576467514038 0.6281198263168335 -0.13923725485801697
vn -0.6917945146560669 0.7067044377326965 -0.14828737080097198
vn -0.5582593679428101 0.8199490308761597 -0.1266099065542221
vn -0.060469623655080795 0.9981195330619812 -0.010040849447250366
vn -0.6099385619163513 0.7770217061042786 -0.15560278296470642
vn 0.47917085886001587 0.8731170892715454 0.08978799730539322
vn 0.047344308346509933 0.9988535046577454 0.007082715630531311
vn 0.6937652826309204 0.7013852596282959 0.16354940831661224
vn 0.4514085352420807 0.8713506460189819 0.1922977864742279
vn -0.717804491519928 0.6755532026290894 -0.16847708821296692
vn 0.45375362038612366 0.8714674115180969 0.18615102767944336
vn 0.4554694592952728 0.8755832314491272 0.1609392613172531
vn -0.5758318305015564 0.8061167597770691 -0.13635726273059845
vn -0.5104123950004578 0.8514411449432373 -0.12052883207798004
vn 0.4566502571105957 0.8799738883972168 0.1308298110961914
vn 0.45800453424453735 0.8820908069610596 0.11021583527326584
vn 0.4588221609592438 0.8844782710075378 0.08473743498325348
vn 0.45509904623031616 0.8774775266647339 0.15138737857341766
vn 0.45688676834106445 0.87912517786026 0.13562199473381042
vn 0.45578792691230774 0.8792118430137634 0.13872233033180237
vn -0.6001291275024414 0.7866530418395996 -0.14498965442180634
vn 0.45433521270751953 0.8755994439125061 0.1640276163816452
vn -0.561346709728241 0.8159338235855103 -0.13835448026657104
vn -0.47983741760253906 0.8685333132743835 -0.12412101775407791
vn -0.44866743683815 0.884548544883728 -0.12755930423736572
vt 2.051915168762207 0.7778923660516739
vt 2.051915168762207 0.7225536406040192
vt 2.5595076084136963 0.7225540280342102
vt 2.051915168762207 0.6397334933280945
vt 1.5443227291107178 0.7225532531738281
vt 2.559507131576538 0.3912734389305115
vt 2.051914930343628 0.4740931987762451
vt 1.5443223714828491 0.9717036485671997
vt 0.5291376113891602 0.9994983673095703
vt 1.5443224906921387 0.9994990229606628
vt 2.559507369995117 0.9994996786117554
vt 1.5443224906921387 0.9717034101486206
vt 2.559507369995117 0.999499499797821
vt 1.5443224906921387 0.9994987547397614
vt 0.5291376113891602 0.9994980096817017
vt 2.051914691925049 0.94390869140625
vt 2.051914691925049 0.9717040061950684
vt 1.0367300510406494 0.4740924835205078
vt 0.529137372970581 0.39127200841903687
vt 0.9098317623138428 0.41197729110717773
vt 1.2905261516571045 0.4326826333999634
vt 0.5291385650634766 0.3912721872329712
vt 0.5291377305984497 0.7225528359413147
vt 1.036730408668518 0.6397330462932587
vt 1.0367298126220703 0.3912723660469055
vt 2.5595076084136963 0.7225543260574341
vt 2.5595078468322754 0.3912736177444458
vt 2.051915407180786 0.6397337913513184
vt 1.0367302894592285 0.6811431348323822
vt 1.5443229675292969 0.6397334337234497
vt 1.2905266284942627 0.6811433136463165
vt 1.6712210178375244 0.6604385375976562
vt 1.5443227291107178 0.7225535809993744
vt 1.54432213306427 0.9439083337783813
vt 1.0367300510406494 0.971703052520752
vt 1.0367300510406494 0.9439077377319336
vt 1.5443224906921387 0.9439080953598022
vt 2.051915407180786 0.4740934371948242
vt 2.0519156455993652 0.39127326011657715
vt 1.544323205947876 0.3912729024887085
vt 2.051915168762207 0.29358023405075073
vt 1.0367307662963867 0.4740927219390869
vt 1.0367308855056763 0.39127254486083984
vt 1.0367305278778076 0.2935795187950134
vt 1.5443226099014282 0.5569129586219788
vt 1.6712205410003662 0.45338791608810425
vt 1.5443222522735596 0.39127272367477417
vt 2.051914691925049 0.09819382429122925
vt 1.54432213306427 0.0005003213882446289
vt 2.051914691925049 0.0005006790161132812
vt 2.559507131576538 0.000501096248626709
vt 1.0367298126220703 0.2935792803764343
vt 2.051914691925049 0.8885699957609177
vt 2.559507131576538 0.9439090490341187
vt 2.051914930343628 0.8885697573423386
vt 2.559507369995117 0.9439088106155396
vt 2.051914930343628 0.9439084529876709
vt 1.0367300510406494 0.8885690420866013
vt 0.5291376113891602 0.9439073801040649
vt 0.5291379690170288 0.722552478313446
vt 1.0367302894592285 0.6397327184677124
vt 1.0367302894592285 0.7225531935691833
vt 1.0367300510406494 0.7778918892145157
vt 2.559507369995117 0.0005013942718505859
vt 2.051914930343628 0.09819412231445312
vt 1.0367295742034912 0.09819304943084717
vt 1.0367295742034912 0.0004999041557312012
vt 1.5443226099014282 0.19588685035705566
vt 1.5443223714828491 0.0005006790161132812
vt 0.5291370153427124 0.0004994869232177734
vt 1.0367296934127808 0.9439079761505127
vt 1.0367298126220703 0.9578056335449219
vt 0.529137372970581 0.000500023365020752
vt 1.0367300510406494 0.09819340705871582
vt 1.0367298126220703 0.0005003213882446289
vt 0.5291372537612915 0.943907618522644
vt 2.051914930343628 0.0005010366439819336
vt 2.051914691925049 0.29357999563217163
vt 2.051914930343628 0.7778926342725754
vt 2.051915168762207 0.7225539684295654
vt 1.0367298126220703 0.8885692805051804
vt 2.051914691925049 0.3912730813026428
vt 1.5443222522735596 0.1958865523338318
vt 1.5443230867385864 0.5569132566452026
vt 1.0367302894592285 0.7778915911912918
vt 1.0367302894592285 0.7225528657436371
vt 1.5443223714828491 0.8332309424877167
vt 0.9098321795463562 0.7018480896949768
vt 2.051914930343628 0.9578061103820801
vt 1.5443226099014282 0.8332307040691376
vt 0.5513124465942383 0.10911422967910767
vt 0.8010624647140503 0.17296481132507324
vt 0.5513123273849487 0.23681461811065674
vt 0.8010625243186951 0.045264363288879395
vt 1.0508124828338623 0.23681533336639404
vt 0.3015623092651367 0.17296409606933594
vt 0.051812201738357544 -0.018585920333862305
vt 0.3015623092651367 0.04526412487030029
vt 1.0508126020431519 0.342415452003479
vt 0.8010625243186951 0.28961533308029175
vt 0.8635000586509705 0.3160153031349182
vt 0.8010625243186951 0.045265138149261475
vt 1.0508126020431519 -0.0185849666595459
vt 0.8010624647140503 -0.01858508586883545
vt 0.5513123869895935 -0.018585205078125
vt 1.0508129596710205 -0.09701216220855713
vt 0.3015623390674591 0.1729649305343628
vt 0.05181223154067993 0.23681455850601196
vt 0.3015623390674591 0.23681485652923584
vt 0.5513124465942383 0.2368152141571045
vt 0.30156224966049194 0.23681426048278809
vt 0.051812201738357544 0.23681390285491943
vt 0.05181184411048889 0.342415452003479
vt 0.5513124465942383 0.28961503505706787
vt 0.5513123273849487 0.342415452003479
vt 0.8010624647140503 0.342415452003479
vt 0.05181199312210083 0.342415452003479
vt 0.3015621602535248 0.342415452003479
vt 0.5513121485710144 0.2896153926849365
vt 0.5513121485710144 0.342415452003479
vt 0.30156201124191284 0.342415452003479
vt 0.3015623092651367 0.04526489973068237
vt 0.3015623092651367 -0.01858532428741455
vt 0.051812201738357544 -0.0185854434967041
vt 0.5513125658035278 -0.05779886245727539
vt 0.8010625243186951 0.17296558618545532
vt 0.8010625243186951 0.23681557178497314
vt 1.0508126020431519 0.2368159294128418
vt 0.8010624051094055 0.2368149757385254
vt 0.5513124465942383 -0.018585681915283203
vt 0.8010625243186951 -0.018585562705993652
vt 1.0508126020431519 -0.0185854434967041
vt 0.5513123869895935 -0.05760931968688965
vt 0.4264373481273651 0.013339221477508545
vt 0.6137499213218689 0.029301762580871582
vt 0.5513125658035278 -0.09682250022888184
vt 0.05181223154067993 -0.09663271903991699
vt 1.0508124828338623 0.342415452003479
vt 0.8010623455047607 0.342415452003479
vt 0.3015623092651367 -0.018585801124572754
vt 0.051812171936035156 -0.0966331958770752
vt 0.23912477493286133 -0.002623319625854492
vt 0.3015620708465576 0.28961503505706787
vt 0.30156227946281433 0.28961503505706787
vt 0.8010627031326294 -0.05779862403869629
vt 0.3015623390674591 0.2632148265838623
vt 0.30156201124191284 0.31601542234420776
vt 0.8010625243186951 0.31601524353027344
vt 0.6761875152587891 0.2896151542663574
vt 0.5513125061988831 -0.09682297706604004
vt 1.050812840461731 -0.09701263904571533
vt 0.3015623092651367 -0.0576094388961792
vt 0.8010623455047607 0.2896153926849365
vt 0.8010624647140503 -0.038097381591796875
vt 0.8010623455047607 0.2632153630256653
vt 0.4888749122619629 0.26321500539779663
vt 0.3015623688697815 -0.038192152976989746
vt 0.8010627627372742 -0.07740545272827148
vt 0.5513124465942383 0.10911524295806885
vt -0.00679837167263031 1.130791962146759
vt 0.049702078104019165 0.7609892785549164
vt 0.049702197313308716 1.1307919323444366
vt -0.08264751732349396 1.1333690881729126
vt -0.09461527317762375 1.133368968963623
vt -0.09462021291255951 0.7635663151741028
vt 0.10620301216840744 1.8703973293304443
vt -0.11979927867650986 1.8703973293304443
vt 0.049702320247888565 1.5005946159362793
vt -0.0826425850391388 1.5031717419624329
vt -0.07066988945007324 1.8729745149612427
vt -0.09461033344268799 1.5031716227531433
vt 0.06382737308740616 1.223242610692978
vt -0.08265157043933868 0.7635663151741028
vt -0.0946173295378685 1.133368968963623
vt -0.08264760673046112 1.133368968963623
vt -0.06329882144927979 1.5005946159362793
vt -0.11979951709508896 1.130791962146759
vt -0.06329905986785889 0.7609892785549164
vt -0.11979963630437851 0.7609892785549164
vt -0.11979975551366806 0.39118659496307373
vt -0.07068580389022827 0.3937636613845825
vt -0.09462128579616547 0.7635663151741028
vt -0.09462515264749527 0.3937636613845825
vt -0.07067900896072388 1.1333692073822021
vt -0.08862851560115814 1.5031716227531433
vt -0.09461337327957153 1.5031716227531433
vt -0.09460941702127457 1.8729742765426636
vt -0.11979939788579941 1.5005946159362793
vt 0.07795242220163345 0.9458906054496765
vt 0.10620276629924774 1.130791962146759
vt 0.09207747876644135 0.6685386002063751
vt 0.10620252788066864 0.39118659496307373
vt 0.10620264708995819 0.7609892785549164
vt -0.07068812847137451 0.3937638998031616
vt -0.07066839933395386 1.8729742765426636
vt -0.07067710161209106 1.133368968963623
vt -0.09460539370775223 1.8729742765426636
vt 0.10620288550853729 1.5005946159362793
vt -0.09462524205446243 0.3937636613845825
vt 4.822784423828125 18.461259841918945
vt 4.658957004547119 17.912384033203125
vt 5.008645057678223 18.207677841186523
vt 5.276419639587402 18.228534698486328
vt 5.31737756729126 18.365753173828125
vt 5.8119707107543945 18.270246505737305
vt 6.265605926513672 18.037521362304688
vt 6.306563377380371 18.174739837646484
vt 6.183690071105957 17.763080596923828
vt 6.142733573913574 17.62586212158203
vt 6.637325763702393 17.53035545349121
vt 5.73005485534668 17.995807647705078
vt 5.648141384124756 17.721370697021484
vt 5.369349956512451 18.101741790771484
vt 6.801156520843506 18.079233169555664
vt 6.451465606689453 17.783939361572266
vt 5.19450569152832 17.9540958404541
vt 5.1535491943359375 17.816877365112305
vt 0.9625000357627869 3.7509989738464355
vt 1 3.7509989738464355
vt 1 5
vt 0.9250000715255737 2.50199818611145
vt 0.8500000834465027 5
vt 0.8500000834465027 2.50199818611145
vt 0.9625000357627869 2.8142483234405518
vt 0.7900000214576721 0.0039958953857421875
vt 0.8500000834465027 0.003996372222900391
vt 0.8500000834465027 -0.08796119689941406
vt 0.7900000214576721 -0.08796119689941406
vt 0.7900000214576721 5
vt 0.8500000834465027 5
vt 0.7900000214576721 5
vt 1 5
vt 1 3.7280097007751465
vt 0.9250000715255737 1.877497673034668
vt 1 2.50199818611145
vt 0.9625000357627869 2.1380218267440796
vt 1 1.1840291023254395
vt 1 -0.08796119689941406
vt 0.9250000715255737 3.0920145511627197
vt 1 2.456019401550293
vt 0.9250000715255737 2.456019401550293
vt 0.8875000476837158 1.2529972791671753
vt 0.9250000715255737 3.7280097007751465
vt 0.9250000715255737 1.2529972791671753
vt 1 1.2529972791671753
vt 1 0.003996372222900391
g BM030
s 1
f 1/1/1 2/2/2 3/3/3
f 4/4/4 2/2/2 5/5/5
f 6/6/6 3/3/3 7/7/7
f 8/8/8 9/9/9 10/10/10
f 8/8/8 10/10/10 11/11/11
f 12/12/12 13/13/13 14/14/14
f 12/12/12 14/14/14 15/15/15
f 11/11/11 16/16/16 17/17/17
f 11/11/11 17/17/17 8/8/8
f 18/18/18 19/19/19 20/20/20
f 18/18/18 20/20/20 21/21/21
f 22/22/22 23/23/23 24/24/24
f 21/21/21 20/20/20 25/25/25
f 20/20/20 19/19/19 25/25/25
f 26/26/26 27/27/27 28/28/28
f 24/24/24 23/23/23 29/29/29
f 24/24/24 29/29/29 30/30/30
f 30/30/30 29/29/29 31/31/31
f 28/28/28 32/32/32 33/33/33
f 32/32/32 31/31/31 33/33/33
f 30/30/30 31/31/31 32/32/32
f 30/30/30 32/32/32 28/28/28
f 17/17/17 34/34/34 8/8/8
f 35/35/35 36/36/36 37/37/37
f 15/15/15 36/36/36 35/35/35
f 15/15/15 35/35/35 12/12/12
f 38/38/38 27/27/27 39/39/39
f 38/38/38 39/39/39 40/40/40
f 41/41/41 40/40/40 39/39/39
f 41/41/41 39/39/39 27/27/27
f 42/42/42 40/40/40 43/43/43
f 42/42/42 43/43/43 22/22/22
f 44/44/44 22/22/22 43/43/43
f 44/44/44 43/43/43 40/40/40
f 45/45/45 21/21/21 46/46/46
f 45/45/45 46/46/46 7/7/7
f 7/7/7 46/46/46 47/47/47
f 46/46/46 21/21/21 47/47/47
f 48/48/48 49/49/49 50/50/50
f 48/48/48 50/50/50 51/51/51
f 35/35/35 37/37/37 12/12/12
f 52/52/52 47/47/47 25/25/25
f 52/52/52 25/25/25 19/19/19
f 21/21/21 25/25/25 47/47/47
f 53/53/53 34/34/34 16/16/16
f 53/53/53 16/16/16 54/54/54
f 11/11/11 54/54/54 16/16/16
f 55/55/55 56/56/56 57/57/57
f 55/55/55 57/57/57 37/37/37
f 12/12/12 37/37/37 57/57/57
f 58/58/58 37/37/37 36/36/36
f 58/58/58 36/36/36 59/59/59
f 60/60/60 19/19/19 61/61/61
f 1/1/1 5/5/5 2/2/2
f 45/45/45 5/5/5 61/61/61
f 31/31/31 62/62/62 33/33/33
f 63/63/63 62/62/62 23/23/23
f 63/63/63 33/33/33 62/62/62
f 17/17/17 16/16/16 34/34/34
f 27/27/27 64/64/64 65/65/65
f 66/66/66 67/67/67 49/49/49
f 68/68/68 65/65/65 69/69/69
f 66/66/66 70/70/70 67/67/67
f 8/8/8 71/71/71 72/72/72
f 73/73/73 22/22/22 74/74/74
f 74/74/74 75/75/75 73/73/73
f 68/68/68 69/69/69 74/74/74
f 74/74/74 69/69/69 75/75/75
f 72/72/72 71/71/71 76/76/76
f 65/65/65 77/77/77 69/69/69
f 65/65/65 64/64/64 77/77/77
f 51/51/51 6/6/6 78/78/78
f 4/4/4 3/3/3 2/2/2
f 79/79/79 80/80/80 33/33/33
f 15/15/15 59/59/59 36/36/36
f 81/81/81 76/76/76 71/71/71
f 28/28/28 80/80/80 26/26/26
f 28/28/28 33/33/33 80/80/80
f 78/78/78 82/82/82 47/47/47
f 78/78/78 6/6/6 82/82/82
f 19/19/19 70/70/70 66/66/66
f 7/7/7 82/82/82 6/6/6
f 83/83/83 66/66/66 49/49/49
f 7/7/7 47/47/47 82/82/82
f 84/84/84 30/30/30 28/28/28
f 84/84/84 24/24/24 30/30/30
f 85/85/85 86/86/86 5/5/5
f 85/85/85 60/60/60 86/86/86
f 54/54/54 26/26/26 79/79/79
f 61/61/61 86/86/86 60/60/60
f 87/87/87 79/79/79 33/33/33
f 61/61/61 5/5/5 86/86/86
f 29/29/29 88/88/88 31/31/31
f 29/29/29 23/23/23 88/88/88
f 88/88/88 23/23/23 62/62/62
f 31/31/31 88/88/88 62/62/62
f 56/56/56 13/13/13 89/89/89
f 23/23/23 76/76/76 63/63/63
f 89/89/89 13/13/13 12/12/12
f 87/87/87 33/33/33 63/63/63
f 12/12/12 57/57/57 89/89/89
f 89/89/89 57/57/57 56/56/56
f 90/90/90 37/37/37 58/58/58
f 59/59/59 85/85/85 58/58/58
f 58/58/58 85/85/85 90/90/90
f 3/3/3 56/56/56 1/1/1
f 90/90/90 55/55/55 37/37/37
f 90/90/90 5/5/5 1/1/1
f 59/59/59 60/60/60 85/85/85
f 1/1/1 55/55/55 90/90/90
f 90/90/90 85/85/85 5/5/5
f 1/1/1 56/56/56 55/55/55
f 87/87/87 81/81/81 34/34/34
f 63/63/63 81/81/81 87/87/87
f 63/63/63 76/76/76 81/81/81
f 87/87/87 34/34/34 53/53/53
f 54/54/54 79/79/79 53/53/53
f 53/53/53 79/79/79 87/87/87
f 83/83/83 47/47/47 52/52/52
f 19/19/19 66/66/66 52/52/52
f 52/52/52 66/66/66 83/83/83
f 83/83/83 49/49/49 48/48/48
f 51/51/51 78/78/78 48/48/48
f 48/48/48 78/78/78 83/83/83
f 68/68/68 44/44/44 40/40/40
f 74/74/74 44/44/44 68/68/68
f 74/74/74 22/22/22 44/44/44
f 68/68/68 40/40/40 41/41/41
f 27/27/27 65/65/65 41/41/41
f 41/41/41 65/65/65 68/68/68
f 45/45/45 18/18/18 21/21/21
f 61/61/61 18/18/18 45/45/45
f 61/61/61 19/19/19 18/18/18
f 45/45/45 4/4/4 5/5/5
f 7/7/7 4/4/4 45/45/45
f 7/7/7 3/3/3 4/4/4
f 84/84/84 40/40/40 42/42/42
f 22/22/22 24/24/24 42/42/42
f 42/42/42 24/24/24 84/84/84
f 84/84/84 38/38/38 40/40/40
f 28/28/28 38/38/38 84/84/84
f 28/28/28 27/27/27 38/38/38
f 76/76/76 9/9/9 72/72/72
f 72/72/72 9/9/9 8/8/8
f 8/8/8 34/34/34 71/71/71
f 81/81/81 71/71/71 34/34/34
f 79/79/79 26/26/26 80/80/80
f 83/83/83 78/78/78 47/47/47
g BM031
s 1
f 91/91/91 92/92/92 93/93/93
f 94/94/94 95/95/95 92/92/92
f 94/94/94 92/92/92 91/91/91
f 96/96/96 97/97/97 98/98/98
f 96/96/96 98/98/98 91/91/91
f 99/99/99 100/100/100 101/101/101
f 102/102/102 103/103/103 104/104/104
f 102/102/102 104/104/104 105/105/105
f 104/104/104 103/103/103 106/106/106
f 107/107/107 108/108/108 109/109/109
f 107/107/107 109/109/109 110/110/110
f 96/96/96 93/93/93 111/111/111
f 96/96/96 111/111/111 112/112/112
f 113/113/113 112/112/112 111/111/111
f 114/114/114 115/115/115 116/116/116
f 108/108/108 117/117/117 118/118/118
f 119/119/119 120/120/120 121/121/121
f 122/122/122 105/105/105 123/123/123
f 122/122/122 123/123/123 124/124/124
f 123/123/123 105/105/105 125/125/125
f 126/126/126 110/110/110 127/127/127
f 126/126/126 127/127/127 128/128/128
f 99/99/99 128/128/128 127/127/127
f 92/92/92 95/95/95 129/129/129
f 92/92/92 129/129/129 93/93/93
f 119/119/119 93/93/93 129/129/129
f 94/94/94 130/130/130 131/131/131
f 94/94/94 131/131/131 132/132/132
f 131/131/131 130/130/130 133/133/133
f 91/91/91 134/134/134 135/135/135
f 91/91/91 135/135/135 94/94/94
f 94/94/94 135/135/135 130/130/130
f 135/135/135 134/134/134 130/130/130
f 136/136/136 137/137/137 125/125/125
f 95/95/95 138/138/138 139/139/139
f 134/134/134 140/140/140 130/130/130
f 140/140/140 97/97/97 141/141/141
f 98/98/98 97/97/97 142/142/142
f 98/98/98 142/142/142 134/134/134
f 134/134/134 142/142/142 140/140/140
f 142/142/142 97/97/97 140/140/140
f 143/143/143 111/111/111 93/93/93
f 113/113/113 111/111/111 143/143/143
f 143/143/143 93/93/93 119/119/119
f 144/144/144 118/118/118 115/115/115
f 108/108/108 118/118/118 144/144/144
f 144/144/144 115/115/115 114/114/114
f 145/145/145 104/104/104 106/106/106
f 105/105/105 104/104/104 145/145/145
f 125/125/125 105/105/105 145/145/145
f 146/146/146 109/109/109 108/108/108
f 114/114/114 109/109/109 146/146/146
f 146/146/146 144/144/144 114/114/114
f 108/108/108 144/144/144 146/146/146
f 147/147/147 121/121/121 113/113/113
f 119/119/119 121/121/121 147/147/147
f 147/147/147 143/143/143 119/119/119
f 113/113/113 143/143/143 147/147/147
f 148/148/148 116/116/116 99/99/99
f 114/114/114 116/116/116 148/148/148
f 148/148/148 149/149/149 114/114/114
f 141/141/141 150/150/150 133/133/133
f 150/150/150 151/151/151 133/133/133
f 152/152/152 140/140/140 141/141/141
f 130/130/130 140/140/140 152/152/152
f 133/133/133 130/130/130 152/152/152
f 133/133/133 152/152/152 141/141/141
f 153/153/153 139/139/139 120/120/120
f 95/95/95 139/139/139 153/153/153
f 153/153/153 120/120/120 119/119/119
f 100/100/100 127/127/127 110/110/110
f 99/99/99 127/127/127 100/100/100
f 100/100/100 110/110/110 149/149/149
f 154/154/154 131/131/131 133/133/133
f 132/132/132 131/131/131 154/154/154
f 154/154/154 151/151/151 132/132/132
f 133/133/133 151/151/151 154/154/154
f 155/155/155 129/129/129 95/95/95
f 119/119/119 129/129/129 155/155/155
f 155/155/155 153/153/153 119/119/119
f 95/95/95 153/153/153 155/155/155
f 156/156/156 110/110/110 109/109/109
f 149/149/149 110/110/110 156/156/156
f 149/149/149 156/156/156 114/114/114
f 156/156/156 109/109/109 114/114/114
f 157/157/157 123/123/123 125/125/125
f 124/124/124 123/123/123 157/157/157
f 157/157/157 137/137/137 124/124/124
f 125/125/125 137/137/137 157/157/157
f 158/158/158 145/145/145 106/106/106
f 125/125/125 145/145/145 158/158/158
f 158/158/158 136/136/136 125/125/125
f 106/106/106 136/136/136 158/158/158
f 99/99/99 101/101/101 148/148/148
f 101/101/101 149/149/149 148/148/148
f 101/101/101 100/100/100 149/149/149
f 91/91/91 98/98/98 134/134/134
f 128/128/128 103/103/103 102/102/102
f 159/159/159 102/102/102 105/105/105
f 124/124/124 108/108/108 107/107/107
f 159/159/159 107/107/107 110/110/110
f 132/132/132 95/95/95 94/94/94
f 112/112/112 97/97/97 96/96/96
f 91/91/91 93/93/93 96/96/96
f 159/159/159 105/105/105 122/122/122
f 122/122/122 107/107/107 159/159/159
f 124/124/124 107/107/107 122/122/122
f 126/126/126 102/102/102 159/159/159
f 128/128/128 102/102/102 126/126/126
f 159/159/159 110/110/110 126/126/126
g BM032
s 1
f 160/160/160 161/161/161 162/162/162
f 163/163/163 164/164/164 165/165/165
f 166/166/166 167/167/167 168/168/168
f 169/169/169 164/164/164 163/163/163
f 170/170/170 169/169/169 163/163/163
f 170/170/170 171/171/171 169/169/169
f 162/162/162 172/172/172 168/168/168
f 169/169/169 171/171/171 164/164/164
f 173/173/173 174/174/174 175/175/175
f 168/168/168 167/167/167 176/176/176
f 168/168/168 176/176/176 160/160/160
f 160/160/160 176/176/176 177/177/177
f 178/178/178 179/179/179 180/180/180
f 181/181/181 173/173/173 175/175/175
f 181/181/181 182/182/182 173/173/173
f 173/173/173 182/182/182 174/174/174
f 183/183/183 184/184/184 163/163/163
f 163/163/163 184/184/184 170/170/170
f 185/185/185 186/186/186 187/187/187
f 178/178/178 177/177/177 179/179/179
f 176/176/176 167/167/167 188/188/188
f 161/161/161 189/189/189 162/162/162
f 163/163/163 165/165/165 183/183/183
f 175/175/175 174/174/174 186/186/186
f 172/172/172 189/189/189 190/190/190
f 160/160/160 162/162/162 168/168/168
f 180/180/180 161/161/161 178/178/178
f 175/175/175 186/186/186 185/185/185
f 160/160/160 177/177/177 178/178/178
f 191/191/191 192/192/192 193/193/193
f 183/183/183 194/194/194 184/184/184
f 161/161/161 192/192/192 191/191/191
f 185/185/185 195/195/195 175/175/175
f 161/161/161 191/191/191 189/189/189
f 175/175/175 196/196/196 181/181/181
f 187/187/187 195/195/195 185/185/185
f 170/170/170 197/197/197 171/171/171
f 168/168/168 198/198/198 166/166/166
f 168/168/168 190/190/190 198/198/198
f 180/180/180 192/192/192 161/161/161
f 175/175/175 195/195/195 196/196/196
f 181/181/181 199/199/199 182/182/182
f 189/189/189 191/191/191 190/190/190
f 191/191/191 193/193/193 190/190/190
f 168/168/168 172/172/172 190/190/190
f 162/162/162 189/189/189 172/172/172
f 178/178/178 161/161/161 160/160/160
f 176/176/176 188/188/188 177/177/177
g BM033
s 1
f 200/200/200 201/201/201 202/202/202
f 203/203/203 204/204/204 200/200/200
f 203/203/203 205/205/205 204/204/204
f 206/206/206 207/207/207 205/205/205
f 208/208/208 209/209/209 210/210/210
f 208/208/208 206/206/206 211/211/211
f 211/211/211 212/212/212 208/208/208
f 203/203/203 213/213/213 211/211/211
f 211/211/211 205/205/205 203/203/203
f 206/206/206 214/214/214 207/207/207
f 200/200/200 202/202/202 203/203/203
f 215/215/215 214/214/214 206/206/206
f 210/210/210 214/214/214 215/215/215
f 211/211/211 216/216/216 212/212/212
f 210/210/210 215/215/215 208/208/208
f 216/216/216 201/201/201 217/217/217
f 215/215/215 206/206/206 208/208/208
f 216/216/216 217/217/217 212/212/212
f 211/211/211 206/206/206 205/205/205
f 203/203/203 202/202/202 213/213/213
f 202/202/202 216/216/216 213/213/213
f 213/213/213 216/216/216 211/211/211
f 208/208/208 212/212/212 209/209/209
f 202/202/202 201/201/201 216/216/216
g BM034
s 1
f 218/218/218 219/219/219 220/220/220
f 221/221/221 222/222/222 223/223/223
f 224/224/224 219/219/219 221/221/221
f 225/225/225 226/226/226 223/223/223
f 225/225/225 223/223/223 222/222/222
f 227/227/227 228/228/228 229/229/229
f 229/229/229 230/230/230 227/227/227
f 222/222/222 231/231/231 225/225/225
f 221/221/221 219/219/219 218/218/218
f 230/230/230 232/232/232 233/233/233
f 234/234/234 235/235/235 224/224/224
f 224/224/224 235/235/235 219/219/219
f 236/236/236 237/237/237 238/238/238
f 239/239/239 236/236/236 238/238/238
f 239/239/239 240/240/240 236/236/236
f 236/236/236 240/240/240 237/237/237
f 238/238/238 227/227/227 241/241/241
f 241/241/241 227/227/227 230/230/230
f 230/230/230 239/239/239 241/241/241
f 242/242/242 234/234/234 221/221/221
f 226/226/226 234/234/234 242/242/242
f 242/242/242 223/223/223 226/226/226
f 243/243/243 240/240/240 239/239/239
f 221/221/221 223/223/223 242/242/242
f 230/230/230 243/243/243 239/239/239
f 241/241/241 239/239/239 238/238/238
f 234/234/234 224/224/224 221/221/221
f 230/230/230 233/233/233 243/243/243
f 220/220/220 222/222/222 218/218/218
f 243/243/243 233/233/233 240/240/240
f 244/244/244 235/235/235 234/234/234
f 218/218/218 222/222/222 221/221/221
f 226/226/226 244/244/244 234/234/234
f 226/226/226 245/245/245 244/244/244
f 244/244/244 245/245/245 235/235/235
f 226/226/226 246/246/246 245/245/245
