# Exported using wow.export v0.2.19
o 21138_Garrison_Hall.obj
v -43.661529541015625 2.2608225345611572 -256.9183044433594
v -42.45088577270508 2.2608225345611572 -256.9183044433594
v -42.45088577270508 -0.6918780207633972 -256.9183044433594
v -50.13579177856445 -0.691878616809845 -256.91827392578125
v -50.13579177856445 2.260822057723999 -256.91827392578125
v -48.92516326904297 2.2608225345611572 -256.9183044433594
v -46.898658752441406 0.7844719886779785 -256.91827392578125
v -48.92516326904297 5.459522724151611 -256.9183044433594
v -43.661529541015625 5.459522724151611 -256.9183044433594
v -46.293338775634766 -0.6918783187866211 -256.91827392578125
v -50.13579177856445 -0.6918779015541077 -260.9438781738281
v -50.13579177856445 -0.691878616809845 -256.91827392578125
v -48.2764778137207 -0.6918790936470032 -260.94390869140625
v -46.293338775634766 -0.6918781399726868 -258.93109130859375
v -47.22298812866211 -0.6918788552284241 -258.93109130859375
v -44.310184478759766 -0.6918790936470032 -260.94390869140625
v -42.45088577270508 -0.6918780207633972 -256.9183044433594
v -46.293338775634766 -0.6918783187866211 -256.91827392578125
v -42.45088577270508 -0.6918776631355286 -260.94390869140625
v -43.661529541015625 2.2608225345611572 -260.94390869140625
v -44.310184478759766 -0.6918790936470032 -260.94390869140625
v -42.45088577270508 2.2608225345611572 -260.94390869140625
v -42.45088577270508 -0.6918776631355286 -260.94390869140625
v -50.13579177856445 2.260822296142578 -260.9438781738281
v -48.2764778137207 -0.6918790936470032 -260.94390869140625
v -48.92516326904297 2.2608225345611572 -260.94390869140625
v -50.13579177856445 -0.6918779015541077 -260.9438781738281
v -48.92516326904297 5.459536075592041 -260.94390869140625
v -48.2764778137207 4.1937255859375 -260.94390869140625
v -43.661529541015625 5.459536075592041 -260.94390869140625
v -44.310184478759766 4.193725109100342 -260.94390869140625
v -44.15371322631836 5.459524631500244 -257.4104919433594
v -48.432979583740234 5.459524631500244 -257.4104919433594
v -44.25843811035156 5.930765628814697 -257.51519775390625
v -48.32826232910156 5.930765628814697 -257.51519775390625
v -48.432979583740234 5.459534645080566 -260.45172119140625
v -44.15371322631836 5.459534645080566 -260.45172119140625
v -48.3282585144043 5.930775165557861 -260.3470153808594
v -44.2584342956543 5.930775165557861 -260.3470153808594
v -50.13579177856445 2.260822057723999 -256.91827392578125
v -50.13579177856445 3.031087636947632 -257.07147216796875
v -48.92516326904297 2.2608225345611572 -256.9183044433594
v -48.92516326904297 3.03108811378479 -257.0715026855469
v -50.13579177856445 3.684087038040161 -257.5078125
v -43.661529541015625 2.2608225345611572 -256.9183044433594
v -42.45088577270508 3.03108811378479 -257.0715026855469
v -42.45088577270508 2.2608225345611572 -256.9183044433594
v -43.661529541015625 3.03108811378479 -257.0715026855469
v -42.45088577270508 3.6840875148773193 -257.5078430175781
v -43.661529541015625 3.6840875148773193 -257.5078430175781
v -42.45088577270508 4.120408058166504 -258.16082763671875
v -43.661529541015625 4.120408058166504 -258.16082763671875
v -42.45088577270508 4.273622989654541 -258.93109130859375
v -43.661529541015625 4.273622989654541 -258.93109130859375
v -42.45088577270508 4.120408058166504 -259.70135498046875
v -43.661529541015625 4.120408058166504 -259.70135498046875
v -42.45088577270508 3.684087038040161 -260.3543701171875
v -43.661529541015625 3.684087038040161 -260.3543701171875
v -42.45088577270508 3.031087636947632 -260.7906799316406
v -43.661529541015625 3.031087636947632 -260.7906799316406
v -42.45088577270508 2.2608225345611572 -260.94390869140625
v -48.432979583740234 5.459524631500244 -257.4104919433594
v -48.432979583740234 5.459534645080566 -260.45172119140625
v -48.32826232910156 5.930765628814697 -257.51519775390625
v -50.13579177856445 4.120408058166504 -258.1607971191406
v -48.92516326904297 4.120408058166504 -258.16082763671875
v -48.92516326904297 3.6840875148773193 -257.5078430175781
v -43.661529541015625 2.2608225345611572 -260.94390869140625
v -48.92516326904297 5.459522724151611 -256.9183044433594
v -43.661529541015625 5.459522724151611 -256.9183044433594
v -48.92516326904297 5.459536075592041 -260.94390869140625
v -48.92516326904297 5.459522724151611 -256.9183044433594
v -43.661529541015625 5.459536075592041 -260.94390869140625
v -48.92516326904297 5.459536075592041 -260.94390869140625
v -48.92516326904297 5.459522724151611 -256.9183044433594
v -48.92516326904297 4.273622989654541 -258.93109130859375
v -48.92516326904297 5.459536075592041 -260.94390869140625
v -48.92516326904297 3.6840875148773193 -257.5078430175781
v -48.92516326904297 3.03108811378479 -257.0715026855469
v -48.92516326904297 4.120408058166504 -258.16082763671875
v -48.92516326904297 2.2608225345611572 -256.9183044433594
v -48.92516326904297 3.684087038040161 -260.3543701171875
v -48.92516326904297 4.120408058166504 -259.70135498046875
v -48.92516326904297 3.031087636947632 -260.7906799316406
v -48.92516326904297 2.2608225345611572 -260.94390869140625
v -50.13579177856445 2.260822296142578 -260.9438781738281
v -48.92516326904297 2.2608225345611572 -260.94390869140625
v -48.92516326904297 3.031087636947632 -260.7906799316406
v -50.13579177856445 3.031087636947632 -260.7906799316406
v -48.92516326904297 3.684087038040161 -260.3543701171875
v -50.13579177856445 3.6840875148773193 -260.3543395996094
v -48.92516326904297 4.120408058166504 -259.70135498046875
v -50.13579177856445 4.120408058166504 -259.7013244628906
v -48.92516326904297 4.273622989654541 -258.93109130859375
v -50.13579177856445 4.273622989654541 -258.9310607910156
v -43.661529541015625 2.2608225345611572 -260.94390869140625
v -43.661529541015625 3.031087636947632 -260.7906799316406
v -43.661529541015625 5.459536075592041 -260.94390869140625
v -43.661529541015625 4.273622989654541 -258.93109130859375
v -43.661529541015625 4.120408058166504 -259.70135498046875
v -43.661529541015625 3.684087038040161 -260.3543701171875
v -43.661529541015625 4.120408058166504 -258.16082763671875
v -43.661529541015625 5.459522724151611 -256.9183044433594
v -43.661529541015625 2.2608225345611572 -256.9183044433594
v -43.661529541015625 3.03108811378479 -257.0715026855469
v -43.661529541015625 3.6840875148773193 -257.5078430175781
v -44.15371322631836 5.459524631500244 -257.4104919433594
v -43.661529541015625 5.459536075592041 -260.94390869140625
v -43.661529541015625 5.459522724151611 -256.9183044433594
v -44.15371322631836 5.459534645080566 -260.45172119140625
v -44.25843811035156 5.930765628814697 -257.51519775390625
v -44.2584342956543 5.930775165557861 -260.3470153808594
v -48.3282585144043 5.930775165557861 -260.3470153808594
v -44.25843811035156 5.930765628814697 -257.51519775390625
v -48.3282585144043 5.930775165557861 -260.3470153808594
v -44.2584342956543 5.930775165557861 -260.3470153808594
v -48.32826232910156 5.930765628814697 -257.51519775390625
v -43.17799758911133 3.3480618000030518 -256.9183044433594
v -42.89509963989258 3.3480618000030518 -260.94390869140625
v -42.89509963989258 3.3480618000030518 -256.9183044433594
v -43.17799758911133 3.3480618000030518 -260.94390869140625
v -43.17799758911133 3.6309618949890137 -260.94390869140625
v -42.89509963989258 3.6309618949890137 -256.9183044433594
v -42.89509963989258 3.6309618949890137 -260.94390869140625
v -43.17799758911133 3.6309618949890137 -256.9183044433594
v -43.18032455444336 4.273622989654541 -257.5166015625
v -43.01484680175781 2.804753541946411 -257.5166015625
v -42.93210220336914 4.273622989654541 -257.373291015625
v -42.93210220336914 4.273622989654541 -257.373291015625
v -42.93210220336914 4.273622989654541 -257.659912109375
v -42.93210220336914 4.273622989654541 -257.659912109375
v -43.18032455444336 4.273622989654541 -257.5166015625
v -43.18032455444336 4.273622989654541 -258.2238464355469
v -43.01484680175781 2.804753541946411 -258.2238464355469
v -42.93210220336914 4.273622989654541 -258.0805358886719
v -42.93210220336914 4.273622989654541 -258.0805358886719
v -42.93210220336914 4.273622989654541 -258.3671569824219
v -42.93210220336914 4.273622989654541 -258.3671569824219
v -43.18032455444336 4.273622989654541 -258.2238464355469
v -43.18032455444336 4.273622989654541 -258.93109130859375
v -43.01484298706055 2.804753541946411 -258.93109130859375
v -42.93210220336914 4.273622989654541 -258.78778076171875
v -42.93210220336914 4.273622989654541 -258.78778076171875
v -42.93210220336914 4.273622989654541 -259.07440185546875
v -42.93210220336914 4.273622989654541 -259.07440185546875
v -43.18032455444336 4.273622989654541 -258.93109130859375
v -43.180320739746094 4.273622989654541 -259.6383361816406
v -43.01484298706055 2.804753541946411 -259.6383361816406
v -42.93210220336914 4.273622989654541 -259.4950256347656
v -42.93210220336914 4.273622989654541 -259.4950256347656
v -42.93210220336914 4.273622989654541 -259.7816467285156
v -42.93210220336914 4.273622989654541 -259.7816467285156
v -43.180320739746094 4.273622989654541 -259.6383361816406
v -42.93210220336914 4.273622989654541 -260.2023010253906
v -43.01484298706055 2.804753541946411 -260.3456115722656
v -42.93210220336914 4.273622989654541 -260.4889221191406
v -42.93210220336914 4.273622989654541 -260.4889221191406
v -43.180320739746094 4.273622989654541 -260.3456115722656
v -43.180320739746094 4.273622989654541 -260.3456115722656
v -42.93210220336914 4.273622989654541 -260.2023010253906
v -49.69159698486328 3.6309618949890137 -260.94390869140625
v -49.69159698486328 3.3480618000030518 -260.94390869140625
v -49.69159698486328 3.6309618949890137 -256.9183044433594
v -49.69159698486328 3.3480618000030518 -256.9183044433594
v -49.40869903564453 3.3480618000030518 -256.9183044433594
v -49.40869903564453 3.3480618000030518 -260.94390869140625
v -49.40869903564453 3.6309618949890137 -256.9183044433594
v -49.40869903564453 3.6309618949890137 -260.94390869140625
v -49.69159698486328 3.3480618000030518 -256.9183044433594
v -49.69159698486328 3.3480618000030518 -260.94390869140625
v -49.40869903564453 3.3480618000030518 -256.9183044433594
v -49.40869903564453 3.3480618000030518 -260.94390869140625
v -49.69159698486328 3.6309618949890137 -260.94390869140625
v -49.69159698486328 3.6309618949890137 -256.9183044433594
v -49.40869903564453 3.6309618949890137 -260.94390869140625
v -49.40869903564453 3.6309618949890137 -256.9183044433594
v -49.65459060668945 4.273622989654541 -257.373291015625
v -49.57185363769531 2.804753541946411 -257.5166015625
v -49.4063720703125 4.273622989654541 -257.5166015625
v -42.89509963989258 3.3480618000030518 -260.94390869140625
v -42.89509963989258 3.6309618949890137 -256.9183044433594
v -42.89509963989258 3.3480618000030518 -256.9183044433594
v -42.89509963989258 3.6309618949890137 -260.94390869140625
v -49.4063720703125 4.273622989654541 -260.3456115722656
v -49.57185363769531 2.804753541946411 -260.3456115722656
v -49.65459060668945 4.273622989654541 -260.4889221191406
v -49.65459060668945 4.273622989654541 -260.4889221191406
v -49.65459060668945 4.273622989654541 -260.2023010253906
v -49.65459060668945 4.273622989654541 -260.2023010253906
v -49.4063720703125 4.273622989654541 -260.3456115722656
v -49.4063720703125 4.273622989654541 -259.6383361816406
v -49.57185363769531 2.804753541946411 -259.6383361816406
v -49.65459060668945 4.273622989654541 -259.7816467285156
v -49.65459060668945 4.273622989654541 -259.7816467285156
v -49.65459060668945 4.273622989654541 -259.4950256347656
v -49.65459060668945 4.273622989654541 -259.4950256347656
v -49.4063720703125 4.273622989654541 -259.6383361816406
v -49.4063720703125 4.273622989654541 -258.93109130859375
v -49.57185363769531 2.804753541946411 -258.93109130859375
v -49.65459060668945 4.273622989654541 -259.07440185546875
v -49.65459060668945 4.273622989654541 -259.07440185546875
v -49.65459060668945 4.273622989654541 -258.78778076171875
v -49.65459060668945 4.273622989654541 -258.78778076171875
v -49.4063720703125 4.273622989654541 -258.93109130859375
v -49.4063720703125 4.273622989654541 -258.2238464355469
v -49.57185363769531 2.804753541946411 -258.2238464355469
v -49.65459060668945 4.273622989654541 -258.3671569824219
v -49.65459060668945 4.273622989654541 -258.3671569824219
v -49.65459060668945 4.273622989654541 -258.0805358886719
v -49.65459060668945 4.273622989654541 -258.0805358886719
v -49.4063720703125 4.273622989654541 -258.2238464355469
v -49.4063720703125 4.273622989654541 -257.5166015625
v -49.65459060668945 4.273622989654541 -257.659912109375
v -49.65459060668945 4.273622989654541 -257.659912109375
v -49.65459060668945 4.273622989654541 -257.373291015625
v -43.17799758911133 3.6309618949890137 -256.9183044433594
v -43.17799758911133 3.3480618000030518 -260.94390869140625
v -43.17799758911133 3.3480618000030518 -256.9183044433594
v -43.17799758911133 3.6309618949890137 -260.94390869140625
vn -0.4489421248435974 -0.0875823125243187 -0.8892583250999451
vn 0.7071071863174438 -0.06930706650018692 -0.7037016153335571
vn 0.4082483649253845 0.8164967894554138 -0.40824779868125916
vn -0.4082483649253845 0.8164967894554138 -0.40824779868125916
vn -0.7071071863174438 -0.06930706650018692 -0.7037016153335571
vn 0.4489421248435974 -0.0875823125243187 -0.8892583250999451
vn -0.4991082549095154 0.42441821098327637 -0.7554866671562195
vn 0.5773496627807617 -0.5773496031761169 -0.5773515105247498
vn -0.5773496031761169 -0.5773496031761169 -0.5773515701293945
vn 0 0.894427478313446 -0.4472130835056305
vn -0.40824824571609497 0.8164965510368347 0.4082484245300293
vn -0.4082483649253845 0.8164967894554138 -0.40824779868125916
vn 0.4082483649253845 0.8164965510368347 0.40824833512306213
vn -3.650023927548318e-8 1 3.650023927548318e-7
vn -0.4472135901451111 0.8944271802902222 2.285276252678159e-7
vn -0.40824833512306213 0.8164966106414795 0.4082482159137726
vn 0.4082483649253845 0.8164967894554138 -0.40824779868125916
vn 0 0.894427478313446 -0.4472130835056305
vn 0.40824830532073975 0.8164965510368347 0.4082483947277069
vn -0.4489421248435974 -0.08758236467838287 0.8892582654953003
vn -0.40824833512306213 0.8164966106414795 0.4082482159137726
vn 0.7071067690849304 -0.06930706650018692 0.7037020325660706
vn 0.40824830532073975 0.8164965510368347 0.4082483947277069
vn -0.7071067690849304 -0.06930706650018692 0.7037020325660706
vn 0.4082483649253845 0.8164965510368347 0.40824833512306213
vn 0.4489421248435974 -0.08758236467838287 0.8892582654953003
vn -0.40824824571609497 0.8164965510368347 0.4082484245300293
vn 0.577350914478302 -0.577350914478302 0.5773489475250244
vn 0.4999999403953552 -0.5000000596046448 0.7071067690849304
vn -0.577350914478302 -0.577350914478302 0.5773489475250244
vn -0.5000000596046448 -0.4999999403953552 0.7071067690849304
vn -0.4904400408267975 -0.7203694581985474 -0.4904451370239258
vn 0.49044185876846313 -0.7203675508499146 -0.4904461205005646
vn -0.4904400706291199 -0.7203694581985474 -0.490445077419281
vn 0.49044185876846313 -0.7203675508499146 -0.4904461205005646
vn 0.49044275283813477 -0.7203691005706787 0.4904428720474243
vn -0.4904410243034363 -0.7203710079193115 0.4904418885707855
vn 0.4904407560825348 -0.720370888710022 0.49044233560562134
vn -0.4904429018497467 -0.720369279384613 0.49044251441955566
vn -0.7071071863174438 -0.06930706650018692 -0.7037016153335571
vn -0.7071067690849304 -0.27060121297836304 -0.6532801985740662
vn 0.4489421248435974 -0.0875823125243187 -0.8892583250999451
vn 0.4541822075843811 -0.340939998626709 -0.8230907917022705
vn -0.7071067690849304 -0.5000026226043701 -0.4999973475933075
vn -0.4489421248435974 -0.0875823125243187 -0.8892583250999451
vn 0.7071067690849304 -0.27060115337371826 -0.6532801985740662
vn 0.7071071863174438 -0.06930706650018692 -0.7037016153335571
vn -0.4541822075843811 -0.3409399688243866 -0.8230907917022705
vn 0.7071067690849304 -0.5000026226043701 -0.4999973475933075
vn -0.45418092608451843 -0.629971444606781 -0.6299647688865662
vn 0.7071067690849304 -0.6532809734344482 -0.27059927582740784
vn -0.45418164134025574 -0.8230920433998108 -0.34093767404556274
vn 0.7071067690849304 -0.7071067690849304 0
vn -0.4541815519332886 -0.8909091353416443 0
vn 0.7071067690849304 -0.6532809138298035 0.2705993950366974
vn -0.4541816711425781 -0.823091983795166 0.34093785285949707
vn 0.7071067690849304 -0.5000025033950806 0.49999749660491943
vn -0.45418089628219604 -0.6299713253974915 0.6299649477005005
vn 0.7071067690849304 -0.27060121297836304 0.6532801985740662
vn -0.4541822075843811 -0.340939998626709 0.8230907917022705
vn 0.7071067690849304 -0.06930706650018692 0.7037020325660706
vn 0.49044185876846313 -0.7203675508499146 -0.4904461205005646
vn 0.49044275283813477 -0.7203691005706787 0.4904428720474243
vn 0.49044185876846313 -0.7203675508499146 -0.4904461205005646
vn -0.7071067690849304 -0.6532809734344482 -0.27059927582740784
vn 0.45418164134025574 -0.8230920433998108 -0.34093767404556274
vn 0.45418092608451843 -0.6299715042114258 -0.6299647688865662
vn -0.4489421248435974 -0.08758236467838287 0.8892582654953003
vn 0.5773496627807617 -0.5773496031761169 -0.5773515105247498
vn -0.5773496031761169 -0.5773496031761169 -0.5773515701293945
vn 0.577350914478302 -0.577350914478302 0.5773489475250244
vn 0.5773496627807617 -0.5773496031761169 -0.5773515105247498
vn -0.577350914478302 -0.577350914478302 0.5773489475250244
vn 0.577350914478302 -0.577350914478302 0.5773489475250244
vn 0.5773496627807617 -0.5773496031761169 -0.5773515105247498
vn 0.4541815519332886 -0.8909091353416443 0
vn 0.577350914478302 -0.577350914478302 0.5773489475250244
vn 0.45418092608451843 -0.6299715042114258 -0.6299647688865662
vn 0.4541822075843811 -0.340939998626709 -0.8230907917022705
vn 0.45418164134025574 -0.8230920433998108 -0.34093767404556274
vn 0.4489421248435974 -0.0875823125243187 -0.8892583250999451
vn 0.45418089628219604 -0.6299713253974915 0.6299649477005005
vn 0.4541816711425781 -0.823091983795166 0.34093785285949707
vn 0.4541822075843811 -0.340939998626709 0.8230907917022705
vn 0.4489421248435974 -0.08758236467838287 0.8892582654953003
vn -0.7071067690849304 -0.06930706650018692 0.7037020325660706
vn 0.4489421248435974 -0.08758236467838287 0.8892582654953003
vn 0.4541822075843811 -0.340939998626709 0.8230907917022705
vn -0.7071067690849304 -0.27060121297836304 0.6532801985740662
vn 0.45418089628219604 -0.6299713253974915 0.6299649477005005
vn -0.7071067690849304 -0.5000025033950806 0.49999749660491943
vn 0.4541816711425781 -0.823091983795166 0.34093785285949707
vn -0.7071067690849304 -0.6532809138298035 0.2705993950366974
vn 0.4541815519332886 -0.8909091353416443 0
vn -0.7071067690849304 -0.7071067690849304 0
vn -0.4489421248435974 -0.08758236467838287 0.8892582654953003
vn -0.4541822075843811 -0.340939998626709 0.8230907917022705
vn -0.577350914478302 -0.577350914478302 0.5773489475250244
vn -0.4541815519332886 -0.8909091353416443 0
vn -0.4541816711425781 -0.823091983795166 0.34093785285949707
vn -0.45418089628219604 -0.6299713253974915 0.6299649477005005
vn -0.45418164134025574 -0.8230920433998108 -0.34093767404556274
vn -0.5773496031761169 -0.5773496031761169 -0.5773515701293945
vn -0.4489421248435974 -0.0875823125243187 -0.8892583250999451
vn -0.4541822075843811 -0.3409399688243866 -0.8230907917022705
vn -0.45418092608451843 -0.629971444606781 -0.6299647688865662
vn -0.4904400408267975 -0.7203694581985474 -0.4904451370239258
vn -0.577350914478302 -0.577350914478302 0.5773489475250244
vn -0.5773496031761169 -0.5773496031761169 -0.5773515701293945
vn -0.4904410243034363 -0.7203710079193115 0.4904418885707855
vn -0.4904400706291199 -0.7203694581985474 -0.490445077419281
vn -0.4904429018497467 -0.720369279384613 0.49044251441955566
vn 0.4904407560825348 -0.720370888710022 0.49044233560562134
vn -0.4904400706291199 -0.7203694581985474 -0.490445077419281
vn 0.4904407560825348 -0.720370888710022 0.49044233560562134
vn -0.4904429018497467 -0.720369279384613 0.49044251441955566
vn 0.49044185876846313 -0.7203675508499146 -0.4904461205005646
vn -0.7071067690849304 -0.7071067690849304 -5.956088102720969e-7
vn 0.7071067690849304 -0.7071067690849304 0
vn 0.7071067690849304 -0.7071067690849304 0
vn -0.7071067690849304 -0.7071067690849304 -5.956088102720969e-7
vn -0.7071067690849304 0.7071067690849304 -5.956088102720969e-7
vn 0.7071067690849304 0.7071067690849304 0
vn 0.7071067690849304 0.7071067690849304 0
vn -0.7071067690849304 0.7071067690849304 -5.956088102720969e-7
vn -0.9937138557434082 -0.11194980144500732 0
vn 0.00003603386721806601 -1 0
vn 0.49685826897621155 -0.11195137351751328 0.8605805039405823
vn 0.49685826897621155 -0.11195137351751328 0.8605805039405823
vn 0.49685826897621155 -0.11195137351751328 -0.8605805039405823
vn 0.49685826897621155 -0.11195137351751328 -0.8605805039405823
vn -0.9937138557434082 -0.11194980144500732 0
vn -0.9937138557434082 -0.11194980144500732 0
vn 0.00003603386721806601 -1 0
vn 0.49685826897621155 -0.11195137351751328 0.8605805039405823
vn 0.49685826897621155 -0.11195137351751328 0.8605805039405823
vn 0.49685826897621155 -0.11195137351751328 -0.8605805039405823
vn 0.49685826897621155 -0.11195137351751328 -0.8605805039405823
vn -0.9937138557434082 -0.11194980144500732 0
vn -0.9937136173248291 -0.11195207387208939 0
vn 0.000037093683204147965 -1 0
vn 0.49685847759246826 -0.11195024102926254 0.8605805039405823
vn 0.49685847759246826 -0.11195024102926254 0.8605805039405823
vn 0.49685847759246826 -0.11195024102926254 -0.8605805039405823
vn 0.49685847759246826 -0.11195024102926254 -0.8605805039405823
vn -0.9937136173248291 -0.11195207387208939 0
vn -0.9937138557434082 -0.11194980144500732 0
vn -0.00002402273821644485 -1 0
vn 0.49685588479042053 -0.11195024102926254 0.8605819940567017
vn 0.49685588479042053 -0.11195024102926254 0.8605819940567017
vn 0.49685588479042053 -0.11195024847984314 -0.8605819940567017
vn 0.49685588479042053 -0.11195024847984314 -0.8605819940567017
vn -0.9937138557434082 -0.11194980144500732 0
vn 0.49685588479042053 -0.11195024102926254 0.8605819940567017
vn -0.00002402273821644485 -1 0
vn 0.49685588479042053 -0.11195024847984314 -0.8605819940567017
vn 0.49685588479042053 -0.11195024847984314 -0.8605819940567017
vn -0.9937138557434082 -0.11194980144500732 0
vn -0.9937138557434082 -0.11194980144500732 0
vn 0.49685588479042053 -0.11195024102926254 0.8605819940567017
vn -0.7071067690849304 0.7071067690849304 0
vn -0.7071067690849304 -0.7071067690849304 0
vn -0.7071067690849304 0.7071067690849304 0
vn -0.7071067690849304 -0.7071067690849304 0
vn 0.7071067690849304 -0.7071067690849304 0
vn 0.7071067690849304 -0.7071067690849304 0
vn 0.7071067690849304 0.7071067690849304 0
vn 0.7071067690849304 0.7071067690849304 0
vn -0.7071067690849304 -0.7071067690849304 0
vn -0.7071067690849304 -0.7071067690849304 0
vn 0.7071067690849304 -0.7071067690849304 0
vn 0.7071067690849304 -0.7071067690849304 0
vn -0.7071067690849304 0.7071067690849304 0
vn -0.7071067690849304 0.7071067690849304 0
vn 0.7071067690849304 0.7071067690849304 0
vn 0.7071067690849304 0.7071067690849304 0
vn -0.49685588479042053 -0.11195024847984314 0.8605819940567017
vn 0.00002402273821644485 -1 0
vn 0.9937138557434082 -0.11194980144500732 0
vn 0.7071067690849304 -0.7071067690849304 0
vn 0.7071067690849304 0.7071067690849304 0
vn 0.7071067690849304 -0.7071067690849304 0
vn 0.7071067690849304 0.7071067690849304 0
vn 0.9937138557434082 -0.11194980144500732 0
vn 0.00002402273821644485 -1 0
vn -0.49685588479042053 -0.11195024102926254 -0.8605819940567017
vn -0.49685588479042053 -0.11195024102926254 -0.8605819940567017
vn -0.49685588479042053 -0.11195024847984314 0.8605819940567017
vn -0.49685588479042053 -0.11195024847984314 0.8605819940567017
vn 0.9937138557434082 -0.11194980144500732 0
vn 0.9937138557434082 -0.11194980144500732 0
vn 0.00002402273821644485 -1 0
vn -0.49685588479042053 -0.11195024102926254 -0.8605819940567017
vn -0.49685588479042053 -0.11195024102926254 -0.8605819940567017
vn -0.49685588479042053 -0.11195024847984314 0.8605819940567017
vn -0.49685588479042053 -0.11195024847984314 0.8605819940567017
vn 0.9937138557434082 -0.11194980144500732 0
vn 0.9937138557434082 -0.11194980144500732 0
vn 0.00002402273821644485 -1 0
vn -0.49685588479042053 -0.11195024102926254 -0.8605819940567017
vn -0.49685588479042053 -0.11195024102926254 -0.8605819940567017
vn -0.49685588479042053 -0.11195024847984314 0.8605819940567017
vn -0.49685588479042053 -0.11195024847984314 0.8605819940567017
vn 0.9937138557434082 -0.11194980144500732 0
vn 0.9937138557434082 -0.11194980144500732 0
vn 0.00002402273821644485 -1 0
vn -0.49685588479042053 -0.11195024102926254 -0.8605819940567017
vn -0.49685588479042053 -0.11195024102926254 -0.8605819940567017
vn -0.49685588479042053 -0.11195024847984314 0.8605819940567017
vn -0.49685588479042053 -0.11195024847984314 0.8605819940567017
vn 0.9937138557434082 -0.11194980144500732 0
vn 0.9937138557434082 -0.11194980144500732 0
vn -0.49685588479042053 -0.11195024102926254 -0.8605819940567017
vn -0.49685588479042053 -0.11195024102926254 -0.8605819940567017
vn -0.49685588479042053 -0.11195024847984314 0.8605819940567017
vn -0.7071067690849304 0.7071067690849304 -5.956088102720969e-7
vn -0.7071067690849304 -0.7071067690849304 -5.956088102720969e-7
vn -0.7071067690849304 -0.7071067690849304 -5.956088102720969e-7
vn -0.7071067690849304 0.7071067690849304 -5.956088102720969e-7
vt 0.23681455850601196 0.9600470662117004
vt 0.0007492303848266602 0.9600470662117004
vt 0.0007492303848266602 0.000999152660369873
vt 1.4992506504058838 0.000999152660369873
vt 1.4992506504058838 0.9600470662117004
vt 1.2631852626800537 0.9600470662117004
vt 0.8680326342582703 0.48052310943603516
vt 1.2631852626800537 1.9989964962005615
vt 0.23681455850601196 1.9989964962005615
vt 0.7499999403953552 0.000999152660369873
vt 10.898677825927734 13.627954483032227
vt 10.056013107299805 13.627954483032227
vt 10.898676872253418 13.211261749267578
vt 10.477344512939453 12.766815185546875
vt 10.477344512939453 12.9751615524292
vt 10.898676872253418 12.322368621826172
vt 10.056013107299805 11.905675888061523
vt 10.056013107299805 12.766815185546875
vt 10.898676872253418 11.905675888061523
vt 1.6842471361160278 0.9600469470024109
vt 1.5155987739562988 0.0009989738464355469
vt 1.999000906944275 0.9600469470024109
vt 1.999000906944275 0.0009990930557250977
vt 0.0009990930557250977 0.9600469470024109
vt 0.48440128564834595 0.0009989738464355469
vt 0.31575286388397217 0.9600469470024109
vt 0.0009990930557250977 0.0009990930557250977
vt 0.31575286388397217 1.9990010261535645
vt 0.4844013452529907 1.5878610610961914
vt 1.6842471361160278 1.9990010261535645
vt 1.515599250793457 1.5878612995147705
vt 0.9994931221008301 0.09146654605865479
vt 0.9994962215423584 0.9036411643028259
vt 0.8956049680709839 0.10514497756958008
vt 0.8956078290939331 0.8775692582130432
vt 0.9994732737541199 0.09391283988952637
vt 0.9994738101959229 0.9060872197151184
vt 0.8964936137199402 0.11378800868988037
vt 0.8964940905570984 0.8862119913101196
vt 1.106796145439148 1.606112003326416
vt 1.106796145439148 1.3531461954116821
vt -0.10679610818624496 1.6000043153762817
vt -0.10679610818624496 1.3480002880096436
vt 1.106796145439148 1.1475603580474854
vt -0.10679610818624496 1.6000043153762817
vt 1.106796145439148 1.3531461954116821
vt 1.106796145439148 1.606112003326416
vt -0.10679610818624496 1.3480002880096436
vt 1.106796145439148 1.1475603580474854
vt -0.10679610818624496 1.1424144506454468
vt 1.106796145439148 0.8443197011947632
vt -0.10679610818624496 0.8391737937927246
vt 1.106796145439148 0.48959028720855713
vt -0.10679610818624496 0.48444437980651855
vt 1.106796145439148 0.1373763084411621
vt -0.10679610818624496 0.13223040103912354
vt 1.106796145439148 -0.15870094299316406
vt -0.10679610818624496 -0.16384673118591309
vt 1.106796145439148 -0.35356616973876953
vt -0.10679610818624496 -0.35871195793151855
vt 1.106796145439148 -0.5865159034729004
vt 0.9959364533424377 0.8773587942123413
vt 0.9959352016448975 0.12264108657836914
vt 1.1119930744171143 0.8513716459274292
vt 1.106796145439148 0.8443197011947632
vt -0.10679610818624496 0.8391737937927246
vt -0.10679610818624496 1.1424144506454468
vt -0.10679610818624496 -0.5926237106323242
vt 1.1084405183792114 0.999500572681427
vt 1.1084367036819458 0.0004993677139282227
vt 0.8964931964874268 0.0004994869232177734
vt 0.8964948654174805 0.9995004534721375
vt 1.109989047050476 0.9995005130767822
vt 1.1099883317947388 0.0004995465278625488
vt 1.1033570766448975 0.9502291679382324
vt 0.49999985098838806 0.6227558851242065
vt -0.10335678607225418 0.9995003938674927
vt 0.926637589931488 0.43029773235321045
vt 1.0574288368225098 0.23107492923736572
vt 0.7308945655822754 0.5678377151489258
vt 1.1033568382263184 0.0004993677139282227
vt 0.07336211949586868 0.46513473987579346
vt 0.2691052258014679 0.5866914391517639
vt -0.057429175823926926 0.2765917181968689
vt -0.10335693508386612 0.04976654052734375
vt 1.106796145439148 -0.5865159034729004
vt -0.10679610818624496 -0.5926237106323242
vt -0.10679610818624496 -0.35871195793151855
vt 1.106796145439148 -0.35356616973876953
vt -0.10679610818624496 -0.16384673118591309
vt 1.106796145439148 -0.15870094299316406
vt -0.10679610818624496 0.13223040103912354
vt 1.106796145439148 0.1373763084411621
vt -0.10679610818624496 0.48444437980651855
vt 1.106796145439148 0.48959028720855713
vt -0.10335693508386612 0.04976654052734375
vt -0.057429175823926926 0.2765917181968689
vt -0.10335678607225418 0.9995003938674927
vt 0.49999985098838806 0.6227558851242065
vt 0.2691052258014679 0.5866914391517639
vt 0.07336211949586868 0.46513473987579346
vt 0.7308945655822754 0.5678377151489258
vt 1.1033570766448975 0.9502291679382324
vt 1.1033568382263184 0.0004993677139282227
vt 1.0574288368225098 0.23107492923736572
vt 0.926637589931488 0.43029773235321045
vt 0.9959364533424377 0.8773587942123413
vt 0.8964931964874268 0.0004994869232177734
vt 0.8964948654174805 0.9995004534721375
vt 0.9959352016448975 0.12264108657836914
vt 1.1119930744171143 0.8513716459274292
vt 1.1119918823242188 0.1486290693283081
vt 1.1119918823242188 0.1486290693283081
vt 2.9985013008117676 1.9990003108978271
vt 0.0014987289905548096 0.0009998083114624023
vt 2.9985008239746094 0.0009990930557250977
vt 0.001499176025390625 1.9990010261535645
vt 2.000000238418579 0.5942028164863586
vt 0.000499725341796875 0.9882028102874756
vt 2.000000238418579 0.9882028102874756
vt 0.000499725341796875 0.5942028164863586
vt 0.0004994869232177734 0.9906183481216431
vt 2 0.5966183543205261
vt 0.0004994869232177734 0.5966183543205261
vt 2 0.9906183481216431
vt 0.7547661662101746 0.4106280207633972
vt -0.23595815896987915 0.36985504627227783
vt 0.7640418410301208 0.1393236517906189
vt 0.7547661662101746 0.4106280207633972
vt 0.7640418410301208 0.1393236517906189
vt 0.7547661662101746 0.4106280207633972
vt 0.7640418410301208 0.1393236517906189
vt 0.7547661662101746 0.4106280207633972
vt -0.23595815896987915 0.36985504627227783
vt 0.7640418410301208 0.1393236517906189
vt 0.7547661662101746 0.4106280207633972
vt 0.7640418410301208 0.1393236517906189
vt 0.7547661662101746 0.4106280207633972
vt 0.7640418410301208 0.1393236517906189
vt 0.7547661662101746 0.4106280207633972
vt -0.23595815896987915 0.36985504627227783
vt 0.7640418410301208 0.1393236517906189
vt 0.7547661662101746 0.4106280207633972
vt 0.7640418410301208 0.1393236517906189
vt 0.7547661662101746 0.4106280207633972
vt 0.7640418410301208 0.1393236517906189
vt 0.7547661662101746 0.4106280207633972
vt -0.23595815896987915 0.36985504627227783
vt 0.7640418410301208 0.1393236517906189
vt 0.7547661662101746 0.4106280207633972
vt 0.7640418410301208 0.1393236517906189
vt 0.7547661662101746 0.4106280207633972
vt 0.7640418410301208 0.1393236517906189
vt 0.7547661662101746 0.4106280207633972
vt -0.23595815896987915 0.36985504627227783
vt 0.7640418410301208 0.1393236517906189
vt 0.7547661662101746 0.4106280207633972
vt 0.7640418410301208 0.1393236517906189
vt 0.7547661662101746 0.4106280207633972
vt 0.7640418410301208 0.1393236517906189
vt 1.999000906944275 0.5776733756065369
vt 1.999000906944275 0.9995003938674927
vt 0.0009989738464355469 0.5776733756065369
vt 0.0009989738464355469 0.9995003938674927
vt 1.9990010261535645 0.542165994644165
vt 0.0009990930557250977 0.542165994644165
vt 1.9990010261535645 0.9995002746582031
vt 0.0009990930557250977 0.9995002746582031
vt 2.000000238418579 0.9882028102874756
vt 0.000499725341796875 0.9882028102874756
vt 2.000000238418579 0.5942028164863586
vt 0.000499725341796875 0.5942028164863586
vt 0.0004994869232177734 0.5966183543205261
vt 2 0.5966183543205261
vt 0.0004994869232177734 0.9906183481216431
vt 2 0.9906183481216431
vt 0.7640418410301208 0.1393236517906189
vt -0.23595815896987915 0.36985504627227783
vt 0.7547661662101746 0.4106280207633972
vt 1.999000906944275 0.9995003938674927
vt 0.0009989738464355469 0.5776733756065369
vt 0.0009989738464355469 0.9995003938674927
vt 1.999000906944275 0.5776733756065369
vt 0.7640418410301208 0.1393236517906189
vt -0.23595815896987915 0.36985504627227783
vt 0.7547661662101746 0.4106280207633972
vt 0.7640418410301208 0.1393236517906189
vt 0.7547661662101746 0.4106280207633972
vt 0.7640418410301208 0.1393236517906189
vt 0.7547661662101746 0.4106280207633972
vt 0.7640418410301208 0.1393236517906189
vt -0.23595815896987915 0.36985504627227783
vt 0.7547661662101746 0.4106280207633972
vt 0.7640418410301208 0.1393236517906189
vt 0.7547661662101746 0.4106280207633972
vt 0.7640418410301208 0.1393236517906189
vt 0.7547661662101746 0.4106280207633972
vt 0.7640418410301208 0.1393236517906189
vt -0.23595815896987915 0.36985504627227783
vt 0.7547661662101746 0.4106280207633972
vt 0.7640418410301208 0.1393236517906189
vt 0.7547661662101746 0.4106280207633972
vt 0.7640418410301208 0.1393236517906189
vt 0.7547661662101746 0.4106280207633972
vt 0.7640418410301208 0.1393236517906189
vt -0.23595815896987915 0.36985504627227783
vt 0.7547661662101746 0.4106280207633972
vt 0.7640418410301208 0.1393236517906189
vt 0.7547661662101746 0.4106280207633972
vt 0.7640418410301208 0.1393236517906189
vt 0.7547661662101746 0.4106280207633972
vt 0.7640418410301208 0.1393236517906189
vt 0.7547661662101746 0.4106280207633972
vt 0.7640418410301208 0.1393236517906189
vt 0.7547661662101746 0.4106280207633972
vt 1.9990010261535645 0.9995002746582031
vt 0.0009990930557250977 0.542165994644165
vt 1.9990010261535645 0.542165994644165
vt 0.0009990930557250977 0.9995002746582031
g Garrison_Hall0
s 1
f 1/1/1 2/2/2 3/3/3
f 4/4/4 5/5/5 6/6/6
f 6/6/6 1/1/1 7/7/7
f 8/8/8 9/9/9 6/6/6
f 3/3/3 10/10/10 1/1/1
f 10/10/10 4/4/4 7/7/7
f 6/6/6 7/7/7 4/4/4
f 10/10/10 7/7/7 1/1/1
f 1/1/1 6/6/6 9/9/9
g Garrison_Hall1
s 1
f 11/11/11 12/12/12 13/13/13
f 14/14/14 15/15/15 12/12/12
f 14/14/14 16/16/16 15/15/15
f 13/13/13 15/15/15 16/16/16
f 13/13/13 12/12/12 15/15/15
f 17/17/17 14/14/14 18/18/18
f 18/18/18 14/14/14 12/12/12
f 19/19/19 16/16/16 14/14/14
f 17/17/17 19/19/19 14/14/14
g Garrison_Hall2
s 1
f 20/20/20 21/21/21 22/22/22
f 23/23/23 22/22/22 21/21/21
f 24/24/24 25/25/25 26/26/26
f 25/25/25 24/24/24 27/27/27
f 28/28/28 29/29/29 30/30/30
f 30/30/30 31/31/31 20/20/20
f 20/20/20 31/31/31 21/21/21
f 30/30/30 29/29/29 31/31/31
f 26/26/26 29/29/29 28/28/28
f 25/25/25 29/29/29 26/26/26
g Garrison_Hall3
s 1
f 32/32/32 33/33/33 34/34/34
f 35/35/35 34/34/34 33/33/33
f 36/36/36 37/37/37 38/38/38
f 39/39/39 38/38/38 37/37/37
f 40/40/40 41/41/41 42/42/42
f 41/41/41 43/43/43 42/42/42
f 41/41/41 44/44/44 43/43/43
f 45/45/45 46/46/46 47/47/47
f 45/45/45 48/48/48 46/46/46
f 48/48/48 49/49/49 46/46/46
f 48/48/48 50/50/50 49/49/49
f 50/50/50 51/51/51 49/49/49
f 50/50/50 52/52/52 51/51/51
f 52/52/52 53/53/53 51/51/51
f 52/52/52 54/54/54 53/53/53
f 54/54/54 55/55/55 53/53/53
f 54/54/54 56/56/56 55/55/55
f 56/56/56 57/57/57 55/55/55
f 56/56/56 58/58/58 57/57/57
f 58/58/58 59/59/59 57/57/57
f 58/58/58 60/60/60 59/59/59
f 60/60/60 61/61/61 59/59/59
f 62/62/62 63/63/63 64/64/64
f 65/65/65 66/66/66 67/67/67
f 44/44/44 65/65/65 67/67/67
f 44/44/44 67/67/67 43/43/43
f 60/60/60 68/68/68 61/61/61
f 33/33/33 32/32/32 69/69/69
f 70/70/70 69/69/69 32/32/32
f 63/63/63 62/62/62 71/71/71
f 72/72/72 71/71/71 62/62/62
f 37/37/37 36/36/36 73/73/73
f 74/74/74 73/73/73 36/36/36
f 75/75/75 76/76/76 77/77/77
f 78/78/78 75/75/75 79/79/79
f 75/75/75 78/78/78 80/80/80
f 79/79/79 75/75/75 81/81/81
f 75/75/75 80/80/80 76/76/76
f 82/82/82 77/77/77 83/83/83
f 77/77/77 82/82/82 84/84/84
f 83/83/83 77/77/77 76/76/76
f 77/77/77 84/84/84 85/85/85
f 86/86/86 87/87/87 88/88/88
f 89/89/89 86/86/86 88/88/88
f 89/89/89 88/88/88 90/90/90
f 91/91/91 89/89/89 90/90/90
f 91/91/91 90/90/90 92/92/92
f 93/93/93 91/91/91 92/92/92
f 93/93/93 92/92/92 94/94/94
f 95/95/95 93/93/93 94/94/94
f 95/95/95 94/94/94 66/66/66
f 65/65/65 95/95/95 66/66/66
f 96/96/96 97/97/97 98/98/98
f 99/99/99 98/98/98 100/100/100
f 97/97/97 101/101/101 98/98/98
f 100/100/100 98/98/98 101/101/101
f 99/99/99 102/102/102 103/103/103
f 104/104/104 103/103/103 105/105/105
f 102/102/102 106/106/106 103/103/103
f 105/105/105 103/103/103 106/106/106
f 98/98/98 99/99/99 103/103/103
f 107/107/107 108/108/108 109/109/109
f 108/108/108 107/107/107 110/110/110
f 111/111/111 110/110/110 107/107/107
f 110/110/110 111/111/111 112/112/112
f 113/113/113 64/64/64 63/63/63
g Garrison_Hall4
s 1
f 114/114/114 115/115/115 116/116/116
f 117/117/117 115/115/115 114/114/114
g Garrison_Hall5
s 1
f 118/118/118 119/119/119 120/120/120
f 119/119/119 118/118/118 121/121/121
f 122/122/122 123/123/123 124/124/124
f 123/123/123 122/122/122 125/125/125
f 126/126/126 127/127/127 128/128/128
f 129/129/129 127/127/127 130/130/130
f 131/131/131 127/127/127 132/132/132
f 133/133/133 134/134/134 135/135/135
f 136/136/136 134/134/134 137/137/137
f 138/138/138 134/134/134 139/139/139
f 140/140/140 141/141/141 142/142/142
f 143/143/143 141/141/141 144/144/144
f 145/145/145 141/141/141 146/146/146
f 147/147/147 148/148/148 149/149/149
f 150/150/150 148/148/148 151/151/151
f 152/152/152 148/148/148 153/153/153
f 154/154/154 155/155/155 156/156/156
f 157/157/157 155/155/155 158/158/158
f 159/159/159 155/155/155 160/160/160
f 161/161/161 162/162/162 163/163/163
f 164/164/164 163/163/163 162/162/162
f 165/165/165 166/166/166 167/167/167
f 168/168/168 167/167/167 166/166/166
f 169/169/169 170/170/170 171/171/171
f 172/172/172 171/171/171 170/170/170
f 173/173/173 174/174/174 175/175/175
f 176/176/176 175/175/175 174/174/174
f 177/177/177 178/178/178 179/179/179
f 180/180/180 181/181/181 182/182/182
f 181/181/181 180/180/180 183/183/183
f 184/184/184 185/185/185 186/186/186
f 187/187/187 185/185/185 188/188/188
f 189/189/189 185/185/185 190/190/190
f 191/191/191 192/192/192 193/193/193
f 194/194/194 192/192/192 195/195/195
f 196/196/196 192/192/192 197/197/197
f 198/198/198 199/199/199 200/200/200
f 201/201/201 199/199/199 202/202/202
f 203/203/203 199/199/199 204/204/204
f 205/205/205 206/206/206 207/207/207
f 208/208/208 206/206/206 209/209/209
f 210/210/210 206/206/206 211/211/211
f 212/212/212 178/178/178 213/213/213
f 214/214/214 178/178/178 215/215/215
f 216/216/216 217/217/217 218/218/218
f 217/217/217 216/216/216 219/219/219
