# Exported using wow.export v0.2.19
o 21138_TreeFacades07.obj
v -141.03225708007812 12.386147499084473 -76.0217514038086
v -140.7077178955078 12.386147499084473 -76.42977142333984
v -140.29969787597656 12.386147499084473 -76.10521697998047
v -140.62423706054688 12.386147499084473 -75.69719696044922
v -141.03225708007812 12.837985038757324 -76.0217514038086
v -140.62423706054688 12.837985038757324 -75.69719696044922
v -140.29969787597656 12.837985038757324 -76.10521697998047
v -140.7077178955078 12.837985038757324 -76.42977142333984
v -141.03225708007812 12.386147499084473 -76.0217514038086
v -140.62423706054688 12.386147499084473 -75.69719696044922
v -140.62423706054688 12.837985038757324 -75.69719696044922
v -141.03225708007812 12.837985038757324 -76.0217514038086
v -140.62423706054688 12.386147499084473 -75.69719696044922
v -140.29969787597656 12.386147499084473 -76.10521697998047
v -140.29969787597656 12.837985038757324 -76.10521697998047
v -140.62423706054688 12.837985038757324 -75.69719696044922
v -140.29969787597656 12.386147499084473 -76.10521697998047
v -140.7077178955078 12.386147499084473 -76.42977142333984
v -140.7077178955078 12.837985038757324 -76.42977142333984
v -140.29969787597656 12.837985038757324 -76.10521697998047
v -140.7077178955078 12.386147499084473 -76.42977142333984
v -141.03225708007812 12.386147499084473 -76.0217514038086
v -141.03225708007812 12.837985038757324 -76.0217514038086
v -140.7077178955078 12.837985038757324 -76.42977142333984
vn 0 -1 0
vn 0 -1 0
vn 0 -1 0
vn 0 -1 0
vn 0 1 0
vn 0 1 0
vn 0 1 0
vn 0 1 0
vn -0.6225178241729736 0 0.7826056480407715
vn -0.6225178241729736 0 0.7826056480407715
vn -0.6225178241729736 0 0.7826056480407715
vn -0.6225178241729736 0 0.7826056480407715
vn 0.7826170325279236 0 0.6225034594535828
vn 0.7826170325279236 0 0.6225034594535828
vn 0.7826170325279236 0 0.6225034594535828
vn 0.7826170325279236 0 0.6225034594535828
vn 0.6225178241729736 0 -0.7826056480407715
vn 0.6225178241729736 0 -0.7826056480407715
vn 0.6225178241729736 0 -0.7826056480407715
vn 0.6225178241729736 0 -0.7826056480407715
vn -0.7826170325279236 0 -0.6225034594535828
vn -0.7826170325279236 0 -0.6225034594535828
vn -0.7826170325279236 0 -0.6225034594535828
vn -0.7826170325279236 0 -0.6225034594535828
vt 0.9995005130767822 0.000499725341796875
vt 0.9995002746582031 0.9995005130767822
vt 0.0004994869232177734 0.9995002746582031
vt 0.000499725341796875 0.0004994869232177734
vt 0.0004994869232177734 0.000499725341796875
vt 0.9995002746582031 0.0004994869232177734
vt 0.9995005130767822 0.9995002746582031
vt 0.000499725341796875 0.9995005130767822
vt 0.0004994869232177734 0.0004994869232177734
vt 0.9995002746582031 0.0004994869232177734
vt 0.9995002746582031 0.9995005130767822
vt 0.0004994869232177734 0.9995005130767822
vt 0.0004994869232177734 0.0004994869232177734
vt 0.9995002746582031 0.0004994869232177734
vt 0.9995002746582031 0.9995005130767822
vt 0.0004994869232177734 0.9995005130767822
vt 0.0004994869232177734 0.0004994869232177734
vt 0.9995002746582031 0.0004994869232177734
vt 0.9995002746582031 0.9995005130767822
vt 0.0004994869232177734 0.9995005130767822
vt 0.0004994869232177734 0.0004994869232177734
vt 0.9995002746582031 0.0004994869232177734
vt 0.9995002746582031 0.9995005130767822
vt 0.0004994869232177734 0.9995005130767822
g TreeFacades070
s 1
f 1/1/1 2/2/2 3/3/3
f 3/3/3 4/4/4 1/1/1
f 5/5/5 6/6/6 7/7/7
f 7/7/7 8/8/8 5/5/5
f 9/9/9 10/10/10 11/11/11
f 11/11/11 12/12/12 9/9/9
f 13/13/13 14/14/14 15/15/15
f 15/15/15 16/16/16 13/13/13
f 17/17/17 18/18/18 19/19/19
f 19/19/19 20/20/20 17/17/17
f 21/21/21 22/22/22 23/23/23
f 23/23/23 24/24/24 21/21/21
