# Exported using wow.export v0.2.19
o 20736_WP_entryC01.obj
v 116.87161254882812 -121.8448486328125 162.8614044189453
v 119.55477142333984 -121.84507751464844 165.5445556640625
v 120.3898696899414 -121.84512329101562 164.6656494140625
v 114.83619689941406 -121.84486389160156 162.86143493652344
v 112.15303039550781 -121.84498596191406 165.54458618164062
v 113.49394226074219 -121.84492492675781 165.22137451171875
v 112.15167999267578 -121.84498596191406 167.58132934570312
v 118.21316528320312 -121.84516906738281 167.90383911132812
v 119.5546875 -121.84513092041016 167.57994079589844
v 116.8715591430664 -121.84525299072266 170.2631378173828
v 117.19471740722656 -121.84510803222656 167.90460205078125
v 114.51164245605469 -121.84491729736328 165.22137451171875
v 115.85313415527344 -121.84498596191406 166.5630340576172
v 114.83466339111328 -121.84513092041016 170.26466369628906
v 117.70394897460938 -121.84503173828125 166.05380249023438
v 115.34390258789062 -121.84506225585938 168.41384887695312
v 111.2723159790039 -121.84491729736328 168.4169158935547
v 113.95547485351562 -121.84523010253906 171.1000518798828
v 117.70671844482422 -121.84491729736328 161.9824981689453
v 111.64322662353516 -121.84502410888672 166.05438232421875
v 111.64220428466797 -121.84503936767578 167.07119750976562
v 116.36174774169922 -121.8453140258789 170.77293395996094
v 120.06452178955078 -121.84513092041016 167.07017517089844
v 115.34495544433594 -121.84523010253906 170.77395629882812
v 120.06455993652344 -121.84512329101562 166.0543670654297
v 116.36180114746094 -121.8448486328125 162.35157775878906
v 115.34598541259766 -121.8448486328125 162.35162353515625
v 115.34495544433594 -121.84523010253906 170.77395629882812
v 116.1072998046875 -118.63739013671875 170.80813598632812
v 116.36174774169922 -121.8453140258789 170.77293395996094
v 116.36180114746094 -121.8448486328125 162.35157775878906
v 115.59994506835938 -118.636962890625 162.31692504882812
v 115.34598541259766 -121.8448486328125 162.35162353515625
v 114.59519958496094 -119.04224395751953 170.69140625
v 114.83466339111328 -121.84513092041016 170.26466369628906
v 113.95547485351562 -121.84523010253906 171.1000518798828
v 120.06455993652344 -121.84512329101562 166.0543670654297
v 120.09922790527344 -118.63723754882812 166.81622314453125
v 120.0992431640625 -118.6372299194336 166.30831909179688
v 111.60740661621094 -119.04212951660156 167.89453125
v 112.1339111328125 -116.23916625976562 167.18075561523438
v 111.06314086914062 -116.23927307128906 168.2077178955078
v 116.47086334228516 -116.23902893066406 162.8437957763672
v 117.49754333496094 -116.23927307128906 161.77333068847656
v 119.04830169677734 -114.42808532714844 163.32408142089844
v 120.13392639160156 -115.42933654785156 166.56227111816406
v 111.2723159790039 -121.84491729736328 168.4169158935547
v 112.15167999267578 -121.84498596191406 167.58132934570312
v 117.95973205566406 -114.42774963378906 164.4564208984375
v 115.0347900390625 -119.04219055175781 170.27371215820312
v 111.64220428466797 -121.84503936767578 167.07119750976562
v 111.60802459716797 -118.63714599609375 166.308837890625
v 111.60751342773438 -118.63715362548828 166.81724548339844
v 117.18457794189453 -119.04206085205078 162.31736755371094
v 111.57282257080078 -115.42926788330078 166.56329345703125
v 116.87161254882812 -121.8448486328125 162.8614044189453
v 117.70671844482422 -121.84491729736328 161.9824981689453
v 111.64322662353516 -121.84502410888672 166.05438232421875
v 111.167724609375 -119.04209899902344 168.31231689453125
v 116.10784912109375 -118.636962890625 162.31689453125
v 115.85389709472656 -115.4290771484375 162.28221130371094
v 114.2220458984375 -116.23946380615234 171.36660766601562
v 115.23491668701172 -116.2392578125 170.28277587890625
v 112.61389923095703 -114.42808532714844 169.7584686279297
v 115.59890747070312 -118.6373519897461 170.80865478515625
v 119.98112487792969 -119.04219055175781 165.30548095703125
v 120.65644073486328 -116.23946380615234 164.9322052001953
v 120.52315521240234 -119.04229736328125 164.79891967773438
v 117.60212707519531 -119.04209899902344 161.87791442871094
v 113.74636840820312 -114.42787170410156 168.6697998046875
v 119.57237243652344 -116.2392578125 165.9453125
v 115.85285186767578 -115.42947387695312 170.84335327148438
v 116.67123413085938 -119.04193878173828 162.85260009765625
v 119.55477142333984 -121.84507751464844 165.5445556640625
v 119.56356811523438 -119.04216766357422 165.74493408203125
v 120.06452178955078 -121.84513092041016 167.07017517089844
v 112.14279174804688 -119.04207611083984 167.38104248046875
v 114.08876037597656 -119.04234313964844 171.23333740234375
v 120.3898696899414 -121.84512329101562 164.6656494140625
v 120.13392639160156 -115.42933654785156 166.56227111816406
v 120.09922790527344 -118.63723754882812 166.81622314453125
v 119.84430694580078 -118.63723754882812 167.07110595703125
v 119.5546875 -121.84513092041016 167.57994079589844
v 119.57228088378906 -116.23929595947266 167.17921447753906
v 114.83619689941406 -121.84486389160156 162.86143493652344
v 115.59994506835938 -118.636962890625 162.31692504882812
v 115.34504699707031 -118.63697052001953 162.5718231201172
v 115.85389709472656 -115.4290771484375 162.28221130371094
v 115.23692321777344 -116.23902893066406 162.84384155273438
v 111.57282257080078 -115.42926788330078 166.56329345703125
v 111.60802459716797 -118.63714599609375 166.308837890625
v 111.86293029785156 -118.63713073730469 166.05393981933594
v 112.15303039550781 -121.84498596191406 165.54458618164062
v 112.13542938232422 -116.2392349243164 165.94532775878906
v 116.3622055053711 -118.63735961914062 170.55325317382812
v 116.47080993652344 -116.239501953125 170.28073120117188
v 116.67118835449219 -119.04237365722656 170.27194213867188
v 116.8715591430664 -121.84525299072266 170.2631378173828
v 116.1072998046875 -118.63739013671875 170.80813598632812
v 115.85285186767578 -115.42947387695312 170.84335327148438
v 119.56348419189453 -119.0422134399414 167.37957763671875
v 115.23491668701172 -116.2392578125 170.28277587890625
v 115.85285186767578 -115.42947387695312 170.84335327148438
v 115.59890747070312 -118.6373519897461 170.80865478515625
v 120.0992431640625 -118.6372299194336 166.30831909179688
v 120.13392639160156 -115.42933654785156 166.56227111816406
v 119.57237243652344 -116.2392578125 165.9453125
v 111.60751342773438 -118.63715362548828 166.81724548339844
v 111.57282257080078 -115.42926788330078 166.56329345703125
v 112.1339111328125 -116.23916625976562 167.18075561523438
v 111.64322662353516 -121.84502410888672 166.05438232421875
v 116.36174774169922 -121.8453140258789 170.77293395996094
v 116.47086334228516 -116.23902893066406 162.8437957763672
v 115.85389709472656 -115.4290771484375 162.28221130371094
v 116.10784912109375 -118.636962890625 162.31689453125
v 115.28993225097656 -119.04224395751953 170.5283660888672
v 114.83466339111328 -121.84513092041016 170.26466369628906
v 115.0347900390625 -119.04219055175781 170.27371215820312
v 119.56356811523438 -119.04216766357422 165.74493408203125
v 119.55477142333984 -121.84507751464844 165.5445556640625
v 119.81846618652344 -119.04219055175781 165.99984741210938
v 116.41633605957031 -119.04193878173828 162.59768676757812
v 116.67123413085938 -119.04193878173828 162.85260009765625
v 116.87161254882812 -121.8448486328125 162.8614044189453
v 113.74636840820312 -114.42787170410156 168.6697998046875
v 113.79816436767578 -112.93162536621094 168.61801147460938
v 120.06452178955078 -121.84513092041016 167.07017517089844
v 115.34598541259766 -121.8448486328125 162.35162353515625
v 112.14279174804688 -119.04207611083984 167.38104248046875
v 112.15167999267578 -121.84498596191406 167.58132934570312
v 111.8880615234375 -119.04209899902344 167.1259765625
v 117.9085464477539 -112.9317398071289 168.61700439453125
v 117.95966339111328 -114.42811584472656 168.6680908203125
v 117.95973205566406 -114.42774963378906 164.4564208984375
v 117.90860748291016 -112.93136596679688 164.50753784179688
v 115.03656005859375 -119.04194641113281 162.85263061523438
v 120.06455993652344 -121.84512329101562 166.0543670654297
v 115.34495544433594 -121.84523010253906 170.77395629882812
v 111.64220428466797 -121.84503936767578 167.07119750976562
v 113.74805450439453 -114.42784118652344 164.4564666748047
v 113.7991714477539 -112.93148040771484 164.50758361816406
v 112.14422607421875 -119.0421142578125 165.74496459960938
v 116.36180114746094 -121.8448486328125 162.35157775878906
v 112.95054626464844 -118.13641357421875 165.00051879882812
v 112.13542938232422 -116.2392349243164 165.94532775878906
v 112.14422607421875 -119.0421142578125 165.74496459960938
v 112.55178833007812 -119.9906997680664 165.27255249023438
v 112.15303039550781 -121.84498596191406 165.54458618164062
v 113.74805450439453 -114.42784118652344 164.4564666748047
v 114.29212951660156 -118.1363525390625 163.65895080566406
v 115.23692321777344 -116.23902893066406 162.84384155273438
v 115.03656005859375 -119.04194641113281 162.85263061523438
v 114.83619689941406 -121.84486389160156 162.86143493652344
v 113.89337158203125 -119.99063873291016 163.93096923828125
v 115.85336303710938 -113.33755493164062 168.70281982421875
v 115.8538818359375 -111.24564361572266 166.56228637695312
v 117.9085464477539 -112.9317398071289 168.61700439453125
v 113.79816436767578 -112.93162536621094 168.61801147460938
v 115.85285186767578 -115.42947387695312 170.84335327148438
v 111.57282257080078 -115.42926788330078 166.56329345703125
v 113.71334838867188 -113.33745574951172 166.5627899169922
v 113.7991714477539 -112.93148040771484 164.50758361816406
v 120.13392639160156 -115.42933654785156 166.56227111816406
v 117.99390411376953 -113.33749389648438 166.56228637695312
v 117.90860748291016 -112.93136596679688 164.50753784179688
v 115.85388946533203 -113.33735656738281 164.4222412109375
v 115.85389709472656 -115.4290771484375 162.28221130371094
vn 0.01025942899286747 0.5845099687576294 0.8113216757774353
vn -0.8186435699462891 0.5742053985595703 0.010528415441513062
vn -0.5210816264152527 0.6125239729881287 -0.5943806171417236
vn 0.5119110941886902 0.6898253560066223 0.5119453072547913
vn 0.5119089484214783 0.6898404359817505 0.5119271278381348
vn 0.6928562521934509 0.6671687364578247 0.27356216311454773
vn 0.8113880753517151 0.5844128131866455 0.010536178015172482
vn -0.48511019349098206 0.8100259304046631 -0.3294329345226288
vn -0.5763967633247375 0.8170401453971863 -0.014567299745976925
vn -0.014567367732524872 0.817071259021759 -0.5763526558876038
vn -0.4989679753780365 0.7087031006813049 -0.4987693428993225
vn 0.49847787618637085 0.7091631889343262 0.49860548973083496
vn 0.017611028626561165 0.999824583530426 -0.006367963273078203
vn 0.01014899555593729 0.574130117893219 -0.8187011480331421
vn -0.4535505473613739 0.8912274241447449 0.00235567893832922
vn 0.015619092620909214 0.8855807781219482 -0.46422260999679565
vn 0.474111407995224 0.7254807949066162 0.49889475107192993
vn -0.5944259762763977 0.6125297546386719 -0.5210230946540833
vn 0.5426647663116455 0.7252025604248047 0.4237878918647766
vn 0.819171667098999 0.4621952474117279 0.33960768580436707
vn 0.8196250796318054 0.46229973435401917 -0.33836910128593445
vn -0.3395864963531494 0.46221551299095154 -0.8191689848899841
vn -0.8193220496177673 0.46222957968711853 -0.33919790387153625
vn 0.33805832266807556 0.46224626898765564 -0.8197835087776184
vn -0.8193439841270447 0.4622301757335663 0.3391440808773041
vn -0.33913153409957886 0.46221497654914856 0.8193577527999878
vn 0.3391868472099304 0.4622133672237396 0.8193357586860657
vn 0.33805832266807556 0.46224626898765564 -0.8197835087776184
vn -0.19070439040660858 0.05258668586611748 -0.9802379608154297
vn -0.3395864963531494 0.46221551299095154 -0.8191689848899841
vn -0.33913153409957886 0.46221497654914856 0.8193577527999878
vn 0.19014385342597961 0.05252034589648247 0.9803504347801208
vn 0.3391868472099304 0.4622133672237396 0.8193357586860657
vn -0.5020262598991394 0.1459418088197708 -0.8524497151374817
vn 0.01014899555593729 0.574130117893219 -0.8187011480331421
vn -0.5944259762763977 0.6125297546386719 -0.5210230946540833
vn -0.8193439841270447 0.4622301757335663 0.3391440808773041
vn -0.9803450703620911 0.05253671482205391 -0.19016718864440918
vn -0.9803642630577087 0.05253741890192032 0.19006788730621338
vn 0.883789598941803 0.11653546243906021 0.4531395733356476
vn 0.898065447807312 -0.37383419275283813 0.23178958892822266
vn 0.5849562287330627 -0.4002924859523773 0.705402135848999
vn 0.23152802884578705 -0.3739832043647766 0.8980708718299866
vn 0.7053598165512085 -0.4002951681613922 0.5850054025650024
vn 0.07722245156764984 -0.9949569702148438 -0.0640101432800293
vn -0.9296264052391052 -0.3685033917427063 -0.00006284610572038218
vn 0.474111407995224 0.7254807949066162 0.49889475107192993
vn 0.8113880753517151 0.5844128131866455 0.010536178015172482
vn -0.36899688839912415 -0.8484078049659729 0.3795332908630371
vn -0.13234682381153107 0.11725199222564697 -0.9842439889907837
vn 0.8196250796318054 0.46229973435401917 -0.33836910128593445
vn 0.980256199836731 0.05253509804606438 0.19062522053718567
vn 0.9804913997650146 0.05259265378117561 -0.18939560651779175
vn 0.45298027992248535 0.11660623550415039 0.8838618993759155
vn 0.9296392202377319 -0.36847081780433655 0.00047430911217816174
vn 0.01025942899286747 0.5845099687576294 0.8113216757774353
vn 0.5426647663116455 0.7252025604248047 0.4237878918647766
vn 0.819171667098999 0.4621952474117279 0.33960768580436707
vn 0.6472059488296509 0.19872556626796722 0.7359568476676941
vn -0.190077006816864 0.052521273493766785 0.9803633093833923
vn 0.00003206451947335154 -0.3685164451599121 0.9296212196350098
vn -0.6909695863723755 -0.401396781206131 -0.6012001633644104
vn -0.24090270698070526 -0.3696950674057007 -0.8973803520202637
vn -0.06407739222049713 -0.9949473142623901 0.07729155570268631
vn 0.18911394476890564 0.052601929754018784 -0.9805452227592468
vn -0.8526071906089783 0.14578086137771606 -0.5018056631088257
vn -0.6012409925460815 -0.40139874815940857 -0.6909329295158386
vn -0.6527544260025024 0.12279262393712997 -0.7475517392158508
vn 0.762239396572113 0.198439359664917 0.6161273121833801
vn 0.37919536232948303 -0.8485397100448608 -0.36904096603393555
vn -0.8973767161369324 -0.3699924945831299 -0.240459144115448
vn -0.0006482640164904296 -0.3683958649635315 -0.9296687841415405
vn 0.13902248442173004 0.12104827165603638 0.982863187789917
vn -0.8186435699462891 0.5742053985595703 0.010528415441513062
vn -0.9843189716339111 0.11713767796754837 -0.13188956677913666
vn -0.8193220496177673 0.46222957968711853 -0.33919790387153625
vn 0.9828184843063354 0.12106825411319733 0.13932068645954132
vn -0.7476004958152771 0.12279730290174484 -0.6526976227760315
vn -0.5210816264152527 0.6125239729881287 -0.5943806171417236
vn -0.9296264052391052 -0.3685033917427063 -0.00006284610572038218
vn -0.9803450703620911 0.05253671482205391 -0.19016718864440918
vn -0.9583556652069092 0.28542572259902954 -0.009309872053563595
vn -0.5763967633247375 0.8170401453971863 -0.014567299745976925
vn -0.9480395913124084 -0.3154635727405548 -0.04127515107393265
vn 0.5119110941886902 0.6898253560066223 0.5119453072547913
vn 0.19014385342597961 0.05252034589648247 0.9803504347801208
vn 0.3275073170661926 0.2055521458387375 0.9222186803817749
vn 0.00003206451947335154 -0.3685164451599121 0.9296212196350098
vn 0.7062732577323914 -0.04827110096812248 0.7062917351722717
vn 0.9296392202377319 -0.36847081780433655 0.00047430911217816174
vn 0.980256199836731 0.05253509804606438 0.19062522053718567
vn 0.9221209287643433 0.20557181537151337 0.327769935131073
vn 0.5119089484214783 0.6898404359817505 0.5119271278381348
vn 0.7062926292419434 -0.04827258735895157 0.7062722444534302
vn -0.009682176634669304 0.285506010055542 -0.9583280086517334
vn -0.041270580142736435 -0.3154427111148834 -0.9480467438697815
vn -0.03477301076054573 0.31238850951194763 -0.9493178129196167
vn -0.014567367732524872 0.817071259021759 -0.5763526558876038
vn -0.19070439040660858 0.05258668586611748 -0.9802379608154297
vn -0.0006482640164904296 -0.3683958649635315 -0.9296687841415405
vn -0.9493296146392822 0.3123524785041809 -0.03477540612220764
vn -0.24090270698070526 -0.3696950674057007 -0.8973803520202637
vn -0.0006482640164904296 -0.3683958649635315 -0.9296687841415405
vn 0.18911394476890564 0.052601929754018784 -0.9805452227592468
vn -0.9803642630577087 0.05253741890192032 0.19006788730621338
vn -0.9296264052391052 -0.3685033917427063 -0.00006284610572038218
vn -0.8973767161369324 -0.3699924945831299 -0.240459144115448
vn 0.9804913997650146 0.05259265378117561 -0.18939560651779175
vn 0.9296392202377319 -0.36847081780433655 0.00047430911217816174
vn 0.898065447807312 -0.37383419275283813 0.23178958892822266
vn 0.819171667098999 0.4621952474117279 0.33960768580436707
vn -0.3395864963531494 0.46221551299095154 -0.8191689848899841
vn 0.23152802884578705 -0.3739832043647766 0.8980708718299866
vn 0.00003206451947335154 -0.3685164451599121 0.9296212196350098
vn -0.190077006816864 0.052521273493766785 0.9803633093833923
vn 0.05640716850757599 0.053733911365270615 -0.9969608783721924
vn 0.01014899555593729 0.574130117893219 -0.8187011480331421
vn -0.13234682381153107 0.11725199222564697 -0.9842439889907837
vn -0.9843189716339111 0.11713767796754837 -0.13188956677913666
vn -0.8186435699462891 0.5742053985595703 0.010528415441513062
vn -0.9969187378883362 0.053563442081213 0.05730743333697319
vn -0.062449194490909576 0.05120653659105301 0.9967336654663086
vn 0.13902248442173004 0.12104827165603638 0.982863187789917
vn 0.01025942899286747 0.5845099687576294 0.8113216757774353
vn 0.37919536232948303 -0.8485397100448608 -0.36904096603393555
vn 0.5502445697784424 -0.627763569355011 -0.5505849719047546
vn -0.8193220496177673 0.46222957968711853 -0.33919790387153625
vn 0.3391868472099304 0.4622133672237396 0.8193357586860657
vn 0.9828184843063354 0.12106825411319733 0.13932068645954132
vn 0.8113880753517151 0.5844128131866455 0.010536178015172482
vn 0.996764600276947 0.05133597552776337 -0.061847396194934845
vn -0.5506123304367065 -0.6274898052215576 -0.5505293607711792
vn -0.4878008961677551 -0.7239275574684143 -0.48783111572265625
vn -0.36899688839912415 -0.8484078049659729 0.3795332908630371
vn -0.5505706667900085 -0.6275230050086975 0.5505332350730896
vn 0.6626376509666443 0.348976731300354 0.6626663208007812
vn -0.8193439841270447 0.4622301757335663 0.3391440808773041
vn 0.33805832266807556 0.46224626898765564 -0.8197835087776184
vn 0.8196250796318054 0.46229973435401917 -0.33836910128593445
vn 0.7062926292419434 -0.04827258735895157 0.7062722444534302
vn 0.5505067110061646 -0.6275256276130676 0.5505942106246948
vn 0.6626502275466919 0.34898579120635986 0.6626490354537964
vn -0.33913153409957886 0.46221497654914856 0.8193577527999878
vn 0.6626502275466919 0.34898579120635986 0.6626490354537964
vn 0.7062926292419434 -0.04827258735895157 0.7062722444534302
vn 0.6626502275466919 0.34898579120635986 0.6626490354537964
vn 0.5995163321495056 0.530235767364502 0.5995250344276428
vn 0.5119089484214783 0.6898404359817505 0.5119271278381348
vn 0.7062926292419434 -0.04827258735895157 0.7062722444534302
vn 0.6626483798027039 0.3489759862422943 0.6626558899879456
vn 0.7062732577323914 -0.04827110096812248 0.7062917351722717
vn 0.6626376509666443 0.348976731300354 0.6626663208007812
vn 0.5119110941886902 0.6898253560066223 0.5119453072547913
vn 0.5995160937309265 0.5302269458770752 0.5995330214500427
vn -0.00044464715756475925 -0.8271732926368713 -0.5619465708732605
vn -0.0000873173848958686 -1 0.00003849817221635021
vn -0.5506123304367065 -0.6274898052215576 -0.5505293607711792
vn 0.5502445697784424 -0.627763569355011 -0.5505849719047546
vn -0.0006482640164904296 -0.3683958649635315 -0.9296687841415405
vn 0.9296392202377319 -0.36847081780433655 0.00047430911217816174
vn 0.5618931651115417 -0.8272097706794739 0.0003099804453086108
vn 0.5505067110061646 -0.6275256276130676 0.5505942106246948
vn -0.9296264052391052 -0.3685033917427063 -0.00006284610572038218
vn -0.5619509816169739 -0.8271705508232117 -0.000014716729310748633
vn -0.5505706667900085 -0.6275230050086975 0.5505332350730896
vn -0.00003339712930028327 -0.82718825340271 0.5619249939918518
vn 0.00003206451947335154 -0.3685164451599121 0.9296212196350098
vt 1.0027575492858887 0.20160174369812012
vt 0.6612462997436523 0.20160174369812012
vt 0.6640345454216003 0.10133594274520874
vt 1.1322872638702393 0.3311372399330139
vt 1.1322892904281616 0.6726464033126831
vt 1.0675220489501953 0.566743940114975
vt 1.002756953239441 0.802350640296936
vt 0.5964820384979248 0.43712562322616577
vt 0.5317196846008301 0.3311402201652527
vt 0.5317177772521973 0.6726495027542114
vt 0.6612465381622314 0.5019870698451996
vt 1.0027573108673096 0.5019761919975281
vt 0.8320021629333496 0.5019870698451996
vt 0.6612468361854553 0.802372395992279
vt 0.746624231338501 0.35179442167282104
vt 0.7466244697570801 0.6521797180175781
vt 1.005543828010559 0.8943970203399658
vt 0.6640350818634033 0.9025710225105286
vt 1.0055439472198486 0.10964012145996094
vt 1.1322895288467407 0.737533688545227
vt 1.0676445960998535 0.8023084402084351
vt 0.5317173004150391 0.7375359535217285
vt 0.5317167639732361 0.26625072956085205
vt 0.5963605642318726 0.8023093342781067
vt 0.5963597893714905 0.20160150527954102
vt 1.0676454305648804 0.20160067081451416
vt 1.1322890520095825 0.2662489414215088
vt 0.1653296947479248 -0.2703847885131836
vt 0.05751165747642517 0.3544144034385681
vt 0.012592324987053871 -0.27038848400115967
vt 0.1653296947479248 -0.2703847885131836
vt 0.05751165747642517 0.3544144034385681
vt 0.012592324987053871 -0.27038848400115967
vt 0.0822964683175087 0.5012369155883789
vt 0.012000000104308128 0.010563313961029053
vt 0.15259292721748352 0.01055842638015747
vt 0.1653296947479248 -0.2703847885131836
vt 0.05751165747642517 0.3544144630432129
vt 0.1338803470134735 0.3544163107872009
vt 0.0822964608669281 0.5012520849704742
vt 0.012000000104308128 0.9919419884681702
vt 0.15259292721748352 0.9919146299362183
vt 0.012000000104308128 0.9919419884681702
vt 0.15259292721748352 0.9919146299362183
vt 0.15259292721748352 1.4269764423370361
vt 0.10243099182844162 0.9792173504829407
vt 0.15259292721748352 0.010585010051727295
vt 0.012000000104308128 0.010589540004730225
vt 0.012000000104308128 1.4270037412643433
vt 0.012000000104308128 0.5012393593788147
vt 0.1653296947479248 -0.2703847885131836
vt 0.05751165747642517 0.3544144630432129
vt 0.1338803470134735 0.3544163107872009
vt 0.0822964683175087 0.5012520849704742
vt 0.10243099182844162 0.9792173504829407
vt 0.012000000104308128 0.010589540004730225
vt 0.15259292721748352 0.010585010051727295
vt 0.012592324987053871 -0.27038848400115967
vt 0.15259292721748352 0.5012498199939728
vt 0.1338803470134735 0.35441625118255615
vt 0.10243099182844162 0.9792173504829407
vt 0.15259292721748352 0.9918880462646484
vt 0.012000000104308128 0.9919154047966003
vt 0.15259292721748352 1.4269764423370361
vt 0.1338803470134735 0.35441625118255615
vt 0.0822964608669281 0.5012369155883789
vt 0.15259292721748352 0.9918880462646484
vt 0.15259292721748352 0.501223236322403
vt 0.15259292721748352 0.5012498199939728
vt 0.012000000104308128 1.4270037412643433
vt 0.012000000104308128 0.9919154047966003
vt 0.10243099182844162 0.9792173504829407
vt 0.012000000104308128 0.5012657642364502
vt 0.012000000104308128 0.010563313961029053
vt 0.012000000104308128 0.5012393593788147
vt 0.012592324987053871 -0.27038848400115967
vt 0.012000000104308128 0.5012657642364502
vt 0.15259292721748352 0.501223236322403
vt 0.15259292721748352 0.01055842638015747
vt 0.6758989095687866 0.7978299856185913
vt 0.6758989095687866 0.07828301191329956
vt 0.8369494676589966 0.08955955505371094
vt 0.9980000257492065 -0.6187108755111694
vt 0.9980000257492065 0.6912962794303894
vt 0.9980000257492065 -0.6187108755111694
vt 0.6758989095687866 0.07828301191329956
vt 0.8369494676589966 0.08955955505371094
vt 0.6758989095687866 0.7978299856185913
vt 0.9980000257492065 0.6912962794303894
vt 0.6758989095687866 0.7978299856185913
vt 0.6758989095687866 0.07828301191329956
vt 0.8369494676589966 0.08955955505371094
vt 0.9980000257492065 -0.6187108755111694
vt 0.9980000257492065 0.6912962794303894
vt 0.8369494676589966 0.08955955505371094
vt 0.9980000257492065 0.6912962794303894
vt 0.9980000257492065 0.03629273176193237
vt 0.9980000257492065 -0.6187108755111694
vt 0.6758989095687866 0.07828301191329956
vt 0.6758989095687866 0.7978299856185913
vt 0.9980000257492065 0.0362926721572876
vt 0.9980001449584961 0.6317625641822815
vt 0.6710001230239868 0.7389415502548218
vt 0.6710001230239868 0.01619488000869751
vt 0.6710001230239868 0.0162200927734375
vt 0.6710001230239868 0.7389693260192871
vt 0.9980001449584961 0.6317623257637024
vt 0.6710001230239868 0.0162200927734375
vt 0.6710001230239868 0.7389693260192871
vt 0.9980001449584961 0.6317623257637024
vt 0.6758989095687866 -0.6412639617919922
vt 0.6758989095687866 -0.6412639617919922
vt 0.9980001449584961 0.6317623257637024
vt 0.6710001230239868 0.7389693260192871
vt 0.6710001230239868 0.0162200927734375
vt 0.8345001339912415 -0.03739452362060547
vt 0.9980001449584961 -0.651015043258667
vt 0.9980001449584961 -0.009626269340515137
vt 0.9980001449584961 -0.009615182876586914
vt 0.9980001449584961 -0.6509925127029419
vt 0.8345001339912415 -0.037383437156677246
vt 0.8345001339912415 -0.037383317947387695
vt 0.9980001449584961 -0.009615063667297363
vt 0.9980001449584961 -0.6509925127029419
vt 0.9980001449584961 1.5964040756225586
vt 0.6710001230239868 1.6661224365234375
vt 0.6758989095687866 -0.6412639617919922
vt 0.6758989095687866 -0.6412639617919922
vt 0.9980001449584961 -0.009615182876586914
vt 0.9980001449584961 -0.6509925127029419
vt 0.8345001339912415 -0.037383437156677246
vt 0.6758989095687866 1.6758767366409302
vt 0.9980000257492065 1.5506731271743774
vt 0.9980001449584961 1.5964038372039795
vt 0.6710001230239868 1.6661486625671387
vt 0.9980000257492065 0.03629273176193237
vt 0.6710001230239868 -0.7065291404724121
vt 0.6710001230239868 -0.7065517902374268
vt 0.6710001230239868 -0.7065291404724121
vt 0.9980000257492065 1.5506731271743774
vt 0.6758989095687866 1.6758767366409302
vt 0.9980000257492065 0.0362926721572876
vt 0.6710001230239868 -0.7065291404724121
vt 0.3168981373310089 0.45230579376220703
vt 0.07669471204280853 0.7096802592277527
vt 0.10524514317512512 0.3558400869369507
vt 0.2253468632698059 0.22715288400650024
vt 0.1337955743074417 0.001999974250793457
vt 0.5000007152557373 0.9026116728782654
vt 0.683106005191803 0.45230579376220703
vt 0.9233056902885437 0.7097069621086121
vt 0.8947584629058838 0.35585343837738037
vt 0.8662112951278687 0.001999974250793457
vt 0.5915547013282776 0.22715288400650024
vt 0.3131245970726013 0.22320544719696045
vt 0.5000967383384705 0.49999845027923584
vt 0.5000923871994019 -0.03367125988006592
vt 0.14083556830883026 0.49999678134918213
vt 0.12615245580673218 -0.05358755588531494
vt 0.12615519762039185 1.0409246683120728
vt 0.31312596797943115 0.7704615592956543
vt 0.5000963807106018 1.0210087299346924
vt 0.8736661076545715 -0.05358719825744629
vt 0.686881422996521 0.22320562601089478
vt 0.8589882850646973 0.4999951124191284
vt 0.6868825554847717 0.7704607248306274
vt 0.873668372631073 1.040922999382019
g WP_entryC010
s 1
f 1/1/1 2/2/2 3/3/3
f 4/4/4 5/5/5 6/6/6
f 6/6/6 5/5/5 7/7/7
f 8/8/8 9/9/9 2/2/2
f 10/10/10 9/9/9 8/8/8
f 11/11/11 10/10/10 8/8/8
f 11/11/11 8/8/8 2/2/2
f 12/12/12 7/7/7 13/13/13
f 1/1/1 12/12/12 13/13/13
f 12/12/12 1/1/1 4/4/4
f 14/14/14 10/10/10 11/11/11
f 13/13/13 15/15/15 1/1/1
f 15/15/15 2/2/2 1/1/1
f 11/11/11 2/2/2 15/15/15
f 11/11/11 15/15/15 13/13/13
f 16/16/16 7/7/7 14/14/14
f 13/13/13 7/7/7 16/16/16
f 16/16/16 11/11/11 13/13/13
f 14/14/14 11/11/11 16/16/16
f 17/17/17 18/18/18 14/14/14
f 14/14/14 7/7/7 17/17/17
f 3/3/3 19/19/19 1/1/1
f 6/6/6 12/12/12 4/4/4
f 20/20/20 21/21/21 7/7/7
f 10/10/10 14/14/14 22/22/22
f 9/9/9 23/23/23 2/2/2
f 22/22/22 14/14/14 24/24/24
f 2/2/2 23/23/23 25/25/25
f 7/7/7 12/12/12 6/6/6
f 7/7/7 5/5/5 20/20/20
f 26/26/26 27/27/27 4/4/4
f 4/4/4 1/1/1 26/26/26
g WP_entryC011
s 1
f 28/28/28 29/29/29 30/30/30
f 31/31/31 32/32/32 33/33/33
f 34/34/34 35/35/35 36/36/36
f 37/37/37 38/38/38 39/39/39
f 40/40/40 41/41/41 42/42/42
f 43/43/43 44/44/44 45/45/45
f 39/39/39 38/38/38 46/46/46
f 40/40/40 47/47/47 48/48/48
f 45/45/45 49/49/49 43/43/43
f 50/50/50 35/35/35 34/34/34
f 51/51/51 52/52/52 53/53/53
f 44/44/44 43/43/43 54/54/54
f 53/53/53 52/52/52 55/55/55
f 56/56/56 57/57/57 54/54/54
f 51/51/51 58/58/58 52/52/52
f 42/42/42 59/59/59 40/40/40
f 60/60/60 61/61/61 32/32/32
f 59/59/59 47/47/47 40/40/40
f 31/31/31 60/60/60 32/32/32
f 34/34/34 62/62/62 63/63/63
f 64/64/64 42/42/42 41/41/41
f 28/28/28 65/65/65 29/29/29
f 66/66/66 67/67/67 68/68/68
f 54/54/54 57/57/57 69/69/69
f 62/62/62 64/64/64 70/70/70
f 70/70/70 63/63/63 62/62/62
f 41/41/41 70/70/70 64/64/64
f 71/71/71 67/67/67 66/66/66
f 65/65/65 72/72/72 29/29/29
f 67/67/67 71/71/71 49/49/49
f 63/63/63 50/50/50 34/34/34
f 54/54/54 73/73/73 56/56/56
f 54/54/54 43/43/43 73/73/73
f 66/66/66 74/74/74 75/75/75
f 49/49/49 45/45/45 67/67/67
f 37/37/37 76/76/76 38/38/38
f 77/77/77 41/41/41 40/40/40
f 48/48/48 77/77/77 40/40/40
f 78/78/78 62/62/62 34/34/34
f 36/36/36 78/78/78 34/34/34
f 66/66/66 68/68/68 79/79/79
f 54/54/54 69/69/69 44/44/44
f 79/79/79 74/74/74 66/66/66
f 66/66/66 75/75/75 71/71/71
g WP_entryC012
s 1
f 80/80/80 81/81/81 82/82/82
f 82/82/82 81/81/81 83/83/83
f 82/82/82 84/84/84 80/80/80
f 85/85/85 86/86/86 87/87/87
f 87/87/87 86/86/86 88/88/88
f 88/88/88 89/89/89 87/87/87
f 90/90/90 91/91/91 92/92/92
f 92/92/92 91/91/91 93/93/93
f 92/92/92 94/94/94 90/90/90
f 95/95/95 96/96/96 97/97/97
f 98/98/98 99/99/99 95/95/95
f 95/95/95 99/99/99 100/100/100
f 100/100/100 96/96/96 95/95/95
f 95/95/95 97/97/97 98/98/98
f 83/83/83 101/101/101 82/82/82
f 102/102/102 103/103/103 104/104/104
f 105/105/105 106/106/106 107/107/107
f 108/108/108 109/109/109 110/110/110
f 91/91/91 111/111/111 93/93/93
f 98/98/98 112/112/112 99/99/99
f 113/113/113 114/114/114 115/115/115
f 101/101/101 84/84/84 82/82/82
f 116/116/116 117/117/117 118/118/118
f 116/116/116 118/118/118 102/102/102
f 119/119/119 120/120/120 121/121/121
f 122/122/122 123/123/123 113/113/113
f 122/122/122 124/124/124 123/123/123
f 125/125/125 126/126/126 103/103/103
f 103/103/103 102/102/102 125/125/125
f 81/81/81 127/127/127 83/83/83
f 85/85/85 128/128/128 86/86/86
f 129/129/129 130/130/130 131/131/131
f 110/110/110 129/129/129 131/131/131
f 132/132/132 80/80/80 84/84/84
f 84/84/84 133/133/133 132/132/132
f 134/134/134 135/135/135 114/114/114
f 114/114/114 113/113/113 134/134/134
f 87/87/87 136/136/136 85/85/85
f 87/87/87 89/89/89 136/136/136
f 113/113/113 115/115/115 122/122/122
f 121/121/121 120/120/120 137/137/137
f 121/121/121 105/105/105 107/107/107
f 137/137/137 105/105/105 121/121/121
f 138/138/138 117/117/117 116/116/116
f 116/116/116 104/104/104 138/138/138
f 102/102/102 104/104/104 116/116/116
f 131/131/131 130/130/130 139/139/139
f 131/131/131 108/108/108 110/110/110
f 139/139/139 108/108/108 131/131/131
f 106/106/106 135/135/135 134/134/134
f 134/134/134 107/107/107 106/106/106
f 107/107/107 119/119/119 121/121/121
f 125/125/125 110/110/110 109/109/109
f 109/109/109 126/126/126 125/125/125
f 94/94/94 140/140/140 141/141/141
f 141/141/141 90/90/90 94/94/94
f 93/93/93 142/142/142 92/92/92
f 141/141/141 140/140/140 89/89/89
f 89/89/89 88/88/88 141/141/141
f 142/142/142 94/94/94 92/92/92
f 132/132/132 133/133/133 96/96/96
f 96/96/96 100/100/100 132/132/132
f 122/122/122 115/115/115 143/143/143
f 143/143/143 124/124/124 122/122/122
g WP_entryC013
s 1
f 144/144/144 145/145/145 146/146/146
f 147/147/147 146/146/146 148/148/148
f 149/149/149 150/150/150 151/151/151
f 150/150/150 152/152/152 151/151/151
f 150/150/150 153/153/153 152/152/152
f 150/150/150 149/149/149 144/144/144
f 154/154/154 147/147/147 148/148/148
f 153/153/153 150/150/150 154/154/154
f 154/154/154 150/150/150 144/144/144
f 144/144/144 146/146/146 147/147/147
f 149/149/149 145/145/145 144/144/144
f 153/153/153 154/154/154 148/148/148
f 154/154/154 144/144/144 147/147/147
g WP_entryC014
s 1
f 155/155/155 156/156/156 157/157/157
f 158/158/158 156/156/156 155/155/155
f 158/158/158 155/155/155 159/159/159
f 159/159/159 155/155/155 157/157/157
f 160/160/160 161/161/161 158/158/158
f 161/161/161 156/156/156 158/158/158
f 162/162/162 156/156/156 161/161/161
f 162/162/162 161/161/161 160/160/160
f 163/163/163 164/164/164 165/165/165
f 164/164/164 156/156/156 165/165/165
f 157/157/157 156/156/156 164/164/164
f 157/157/157 164/164/164 163/163/163
f 165/165/165 156/156/156 166/166/166
f 165/165/165 166/166/166 167/167/167
f 167/167/167 166/166/166 162/162/162
f 166/166/166 156/156/156 162/162/162
