# Exported using wow.export v0.2.19
o 20736_sewer09.obj
v 92.4996109008789 -12.32259464263916 63.24040603637695
v 92.75341033935547 -12.32259464263916 63.09386444091797
v 91.23500061035156 -12.32259464263916 60.54628372192383
v 87.5059814453125 -12.322583198547363 61.54547882080078
v 91.25695037841797 -12.322592735290527 58.3333625793457
v 87.4244384765625 -12.322583198547363 58.33328628540039
v 89.666259765625 -12.322583198547363 64.87622833251953
v 89.41006469726562 -12.322583198547363 65.0241470336914
v 91.23500061035156 -12.32259464263916 60.54628372192383
v 91.23499298095703 -9.539689064025879 60.54628372192383
v 91.25694274902344 -9.539687156677246 58.3333740234375
v 91.25695037841797 -12.322592735290527 58.3333625793457
v 87.5160903930664 -9.539682388305664 61.54276657104492
v 87.5059814453125 -12.322583198547363 61.54547882080078
v 87.4244384765625 -12.322583198547363 58.33328628540039
v 87.43485260009766 -9.539681434631348 58.33330535888672
v 89.41912078857422 -9.539682388305664 65.01891326904297
v 89.41006469726562 -12.322583198547363 65.0241470336914
v 92.75340270996094 -9.539689064025879 63.0938606262207
v 92.75341033935547 -12.32259464263916 63.09386444091797
v 90.01835632324219 -8.264946937561035 64.6729507446289
v 88.18444061279297 -8.264946937561035 61.36368179321289
v 89.38656616210938 -7.673000812530518 61.04157257080078
v 89.41912078857422 -9.539682388305664 65.01891326904297
v 91.09615325927734 -7.673000812530518 64.0506820678711
v 90.5828628540039 -8.264946937561035 60.72102737426758
v 92.1687240600586 -8.264946937561035 63.43143081665039
v 91.09615325927734 -7.673000812530518 64.0506820678711
v 87.43485260009766 -9.539681434631348 58.33330535888672
v 88.12283325195312 -8.264946937561035 58.33332061767578
v 87.5160903930664 -9.539682388305664 61.54276657104492
v 89.3592300415039 -7.672998905181885 58.33335494995117
v 91.23499298095703 -9.539689064025879 60.54628372192383
v 90.5879898071289 -8.264945983886719 58.33336639404297
v 89.38656616210938 -7.673000812530518 61.04157257080078
v 91.25694274902344 -9.539687156677246 58.3333740234375
v 92.75340270996094 -9.539689064025879 63.0938606262207
v 90.01039123535156 -9.687470436096191 65.4545669555664
v 89.67393493652344 -9.687470436096191 64.87179565429688
v 90.2333755493164 -8.57606029510498 64.5488052368164
v 90.56983947753906 -8.57606029510498 65.13156127929688
v 91.09505462646484 -8.121209144592285 64.05130767822266
v 91.4315185546875 -8.121209144592285 64.63407897949219
v 92.8360595703125 -12.32259464263916 63.82314682006836
v 92.4996109008789 -12.32259464263916 63.24040603637695
v 89.666259765625 -12.322583198547363 64.87622833251953
v 90.0027084350586 -12.322583198547363 65.458984375
v 89.666259765625 -12.322583198547363 64.87622833251953
v 91.95256805419922 -8.57606029510498 63.55622863769531
v 92.28902435302734 -8.57606029510498 64.13899230957031
v 91.09505462646484 -8.121209144592285 64.05130767822266
v 92.49960327148438 -9.687477111816406 63.24039840698242
v 92.8360595703125 -9.687477111816406 63.82316207885742
v 92.4996109008789 -12.32259464263916 63.24040603637695
v 92.8360595703125 -12.32259464263916 63.82314682006836
v 91.09615325927734 -7.673000812530518 64.0506820678711
v 91.09505462646484 -8.121209144592285 64.05130767822266
v 90.2333755493164 -8.57606029510498 64.5488052368164
v 90.01835632324219 -8.264946937561035 64.6729507446289
v 89.67393493652344 -9.687470436096191 64.87179565429688
v 89.41912078857422 -9.539682388305664 65.01891326904297
v 89.666259765625 -12.322583198547363 64.87622833251953
v 89.41006469726562 -12.322583198547363 65.0241470336914
v 92.1687240600586 -8.264946937561035 63.43143081665039
v 91.95256805419922 -8.57606029510498 63.55622863769531
v 92.75340270996094 -9.539689064025879 63.0938606262207
v 92.49960327148438 -9.687477111816406 63.24039840698242
v 92.75341033935547 -12.32259464263916 63.09386444091797
v 92.4996109008789 -12.32259464263916 63.24040603637695
vn 0 1 0
vn 0 1 0
vn 0 1 0
vn 0.0000028270246730244253 1 -0.0000013269931287140935
vn -0.7070719599723816 0.7071068286895752 -0.007009910885244608
vn 0.7082016468048096 0.7057825922966003 -0.01792754791676998
vn 0.000003047502104891464 1 -0.000001976568000827683
vn 0 1 0
vn -0.9654095768928528 -0.00000235602010434377 0.26073816418647766
vn -0.9366539716720581 -0.2423151582479477 0.2529084086418152
vn -0.9709018468856812 -0.23928402364253998 -0.0096294479444623
vn -0.7070719599723816 0.7071068286895752 -0.007009910885244608
vn 0.9352511763572693 -0.24869023263454437 -0.2519094944000244
vn 0.9655820727348328 -0.0037618931382894516 -0.26007142663002014
vn 0.7082016468048096 0.7057825922966003 -0.01792754791676998
vn 0.968834638595581 -0.24670539796352386 -0.022269219160079956
vn 0.8510639667510986 -0.24209676682949066 -0.4659176468849182
vn 0.8771863579750061 -0.0036552278324961662 -0.4801361858844757
vn -0.8336531519889832 -0.24111467599868774 0.49687638878822327
vn -0.8589970469474792 -8.673291631566826e-7 0.5119805335998535
vn 0.6055267453193665 -0.7216170430183411 -0.33556854724884033
vn 0.6624259948730469 -0.7275592684745789 -0.1784636676311493
vn 0.4147297441959381 -0.9030535817146301 -0.1117742508649826
vn 0.8510639667510986 -0.24209676682949066 -0.4659176468849182
vn 0.37346965074539185 -0.903049886226654 -0.21218223869800568
vn -0.6659468412399292 -0.7240276336669922 0.17971868813037872
vn -0.6022149324417114 -0.7163675427436829 0.35235595703125
vn -0.3850361108779907 -0.8966013789176941 0.21875359117984772
vn 0.968834638595581 -0.24670539796352386 -0.022269219160079956
vn 0.6897307634353638 -0.7239713072776794 -0.011702393181622028
vn 0.9352511763572693 -0.24869023263454437 -0.2519094944000244
vn -0.0012107457732781768 -0.9999949932098389 -0.002933076350018382
vn -0.9366539716720581 -0.2423151582479477 0.2529084086418152
vn -0.6948490142822266 -0.7191374897956848 -0.005116295535117388
vn -0.4163497984409332 -0.9022420048713684 0.11230389773845673
vn -0.9709018468856812 -0.23928402364253998 -0.0096294479444623
vn -0.8336531519889832 -0.24111467599868774 0.49687638878822327
vn 0.8358132839202881 -0.2618453800678253 -0.48254865407943726
vn 0.8358142971992493 -0.2618449628353119 -0.48254701495170593
vn 0.5817334055900574 -0.740799069404602 -0.33586156368255615
vn 0.5817283391952515 -0.7408010959625244 -0.3358658254146576
vn 0.3600590229034424 -0.9094735383987427 -0.20788316428661346
vn -0.0007942712982185185 -0.9999995827674866 0.000458578288089484
vn -0.6123694181442261 0.7071077227592468 0.3535567820072174
vn 0 1 0
vn 0.000003047502104891464 1 -0.000001976568000827683
vn 0.6134068369865417 0.7059149146080017 -0.3541414141654968
vn 0.8660261034965515 -0.0033645345829427242 -0.4999874532222748
vn -0.5854196548461914 -0.7369158267974854 0.33799245953559875
vn -0.5854213237762451 -0.7369150519371033 0.33799123764038086
vn -0.36150315403938293 -0.9087093472480774 0.20871694386005402
vn -0.8372710347175598 -0.2555398643016815 0.4834011197090149
vn -0.837268590927124 -0.2555418014526367 0.4834042191505432
vn -0.8660222887992859 -9.428553653378913e-7 0.5000054240226746
vn -0.6123694181442261 0.7071077227592468 0.3535567820072174
vn -0.49999719858169556 0.000006945413133507827 -0.8660269975662231
vn -0.49999719858169556 0.000006945413133507827 -0.8660269975662231
vn -0.49998995661735535 4.258544947788323e-7 -0.8660312294960022
vn -0.5000082850456238 0.000006351396677928278 -0.8660206198692322
vn -0.5000115036964417 -9.360995250062842e-7 -0.8660187721252441
vn -0.4999975860118866 7.079089527906035e-7 -0.8660268187522888
vn -0.4999975860118866 7.079089527906035e-7 -0.8660268187522888
vn -0.4999975860118866 7.079089527906035e-7 -0.8660268187522888
vn -0.5000036358833313 0.0000012036576890750439 -0.8660233020782471
vn -0.5000036358833313 0.0000012036576890750439 -0.8660233020782471
vn -0.500010073184967 -0.000003327478680148488 -0.866019606590271
vn -0.500010073184967 -0.000003327478680148488 -0.866019606590271
vn -0.500010073184967 -0.000003327478680148488 -0.866019606590271
vn -0.5000115633010864 -0.0000035140985801263014 -0.8660187125205994
vt 0.06108465790748596 1.22977614402771
vt 0.0004992485046386719 1.216119647026062
vt 0.17327558994293213 0.7023278474807739
vt 0.9995002746582031 0.7023276686668396
vt 0.04616003483533859 0.31850576400756836
vt 0.8384319543838501 0.13991808891296387
vt 0.7374169826507568 1.3822271823883057
vt 0.7985713481903076 1.396012306213379
vt 0.7604204416275024 0.1499999761581421
vt 0.760420560836792 1
vt 0.20150421559810638 1
vt 0.20150436460971832 0.1499999761581421
vt 0.7466112375259399 1
vt 0.7466206550598145 0.1589999794960022
vt 1.349954605102539 0.15900003910064697
vt 1.3494232892990112 1
vt 0.0012638121843338013 1
vt 0.0007490962743759155 0.1589999794960022
vt 1.4992496967315674 1
vt 1.4992507696151733 0.1499999761581421
vt 0 0.3768116235733032
vt 0.75 0.3768116235733032
vt 0.75 0.550000011920929
vt 0 0.10000002384185791
vt 0 0.550000011920929
vt 0.75 0.30000001192092896
vt 0 0.30000001192092896
vt 0 0.550000011920929
vt 1.3511236906051636 0.10000002384185791
vt 1.3441531658172607 0.3768116235733032
vt 0.75 0.10000002384185791
vt 1.3298239707946777 0.550000011920929
vt 0.75 0.10000002384185791
vt 1.3126842975616455 0.30000001192092896
vt 0.75 0.550000011920929
vt 1.3018015623092651 0.10000002384185791
vt 0 0.10000002384185791
vt 0.7400000095367432 0.5
vt 0.625 0.5
vt 0.625 0.75
vt 0.7400000095367432 0.75
vt 0.625 1
vt 0.7400000095367432 1
vt 0.7400000095367432 0.7496240139007568
vt 0.625 0.7496230602264404
vt 0.625 0.0003732442855834961
vt 0.7400000095367432 0
vt 0.625 0
vt 0.625 0.75
vt 0.7400000095367432 0.75
vt 0.625 1
vt 0.625 0.5
vt 0.7400000095367432 0.5
vt 0.625 0
vt 0.7400000095367432 0
vt 0.503000020980835 1
vt 0.625 1
vt 0.625 0.75
vt 0.503000020980835 0.75
vt 0.625 0.5
vt 0.503000020980835 0.5
vt 0.625 0
vt 0.503000020980835 0
vt 0.503000020980835 0.75
vt 0.625 0.75
vt 0.503000020980835 0.5
vt 0.625 0.5
vt 0.503000020980835 0
vt 0.625 0
g sewer090
s 1
f 1/1/1 2/2/2 3/3/3
f 1/1/1 3/3/3 4/4/4
f 3/3/3 5/5/5 6/6/6
f 6/6/6 4/4/4 3/3/3
f 7/7/7 4/4/4 8/8/8
f 7/7/7 1/1/1 4/4/4
g sewer091
s 1
f 9/9/9 10/10/10 11/11/11
f 11/11/11 12/12/12 9/9/9
f 13/13/13 14/14/14 15/15/15
f 15/15/15 16/16/16 13/13/13
f 13/13/13 17/17/17 18/18/18
f 19/19/19 10/10/10 9/9/9
f 9/9/9 20/20/20 19/19/19
f 18/18/18 14/14/14 13/13/13
g sewer092
s 1
f 21/21/21 22/22/22 23/23/23
f 22/22/22 21/21/21 24/24/24
f 23/23/23 25/25/25 21/21/21
f 26/26/26 27/27/27 28/28/28
f 29/29/29 30/30/30 22/22/22
f 22/22/22 31/31/31 29/29/29
f 30/30/30 32/32/32 23/23/23
f 27/27/27 26/26/26 33/33/33
f 32/32/32 34/34/34 26/26/26
f 26/26/26 35/35/35 32/32/32
f 34/34/34 36/36/36 33/33/33
f 33/33/33 26/26/26 34/34/34
f 33/33/33 37/37/37 27/27/27
f 28/28/28 35/35/35 26/26/26
f 24/24/24 31/31/31 22/22/22
f 23/23/23 22/22/22 30/30/30
g sewer093
s 1
f 38/38/38 39/39/39 40/40/40
f 40/40/40 41/41/41 38/38/38
f 41/41/41 40/40/40 42/42/42
f 42/42/42 43/43/43 41/41/41
f 44/44/44 45/45/45 46/46/46
f 46/46/46 47/47/47 44/44/44
f 47/47/47 48/48/48 39/39/39
f 49/49/49 50/50/50 43/43/43
f 43/43/43 51/51/51 49/49/49
f 52/52/52 53/53/53 50/50/50
f 50/50/50 49/49/49 52/52/52
f 54/54/54 55/55/55 53/53/53
f 53/53/53 52/52/52 54/54/54
f 56/56/56 57/57/57 58/58/58
f 58/58/58 59/59/59 56/56/56
f 59/59/59 58/58/58 60/60/60
f 60/60/60 61/61/61 59/59/59
f 61/61/61 60/60/60 62/62/62
f 62/62/62 63/63/63 61/61/61
f 64/64/64 65/65/65 57/57/57
f 57/57/57 56/56/56 64/64/64
f 66/66/66 67/67/67 65/65/65
f 65/65/65 64/64/64 66/66/66
f 68/68/68 69/69/69 67/67/67
f 67/67/67 66/66/66 68/68/68
f 39/39/39 38/38/38 47/47/47
