# Exported using wow.export v0.2.19
o 20736_tosewer05.obj
v 126.64207458496094 -3.6724870204925537 -62.34316635131836
v 128.5086669921875 -3.6724870204925537 -62.34316635131836
v 127.57537841796875 -3.0153865814208984 -60.63546371459961
v 130.37527465820312 -3.6724870204925537 -62.34316635131836
v 126.64208221435547 -2.3582863807678223 -58.92776107788086
v 128.50868225097656 -2.3582863807678223 -58.92776107788086
v 126.64208984375 -1.0440860986709595 -55.51235580444336
v 130.3752899169922 -1.0440919399261475 -55.51235580444336
v 128.50869750976562 -1.0440890789031982 -55.51235580444336
v 129.44198608398438 -1.7011891603469849 -57.22005844116211
v 130.37527465820312 -2.3582894802093506 -58.92776107788086
v 129.90863037109375 -2.686838150024414 -59.781612396240234
v 126.64208984375 -4.77353048324585 -55.51235580444336
v 128.50869750976562 -4.77353048324585 -55.51235580444336
v 129.44198608398438 -5.430628776550293 -57.22005844116211
v 130.3752899169922 -4.77353048324585 -55.51235580444336
v 129.90863037109375 -6.416276931762695 -59.781612396240234
v 128.50868225097656 -6.0877275466918945 -58.92776107788086
v 126.64207458496094 -6.0877275466918945 -58.92776107788086
v 127.57537841796875 -6.744826316833496 -60.63546371459961
v 126.6420669555664 -7.401925086975098 -62.34316635131836
v 130.37527465820312 -7.401925086975098 -62.34316635131836
v 130.37527465820312 -6.0877275466918945 -58.92776107788086
v 128.5086669921875 -7.401925086975098 -62.34316635131836
v 130.37527465820312 -5.537206172943115 -62.34316635131836
v 130.37527465820312 -7.401925086975098 -62.34316635131836
v 130.37527465820312 -5.812466621398926 -60.63546371459961
v 126.64208984375 -3.565908432006836 -57.22005844116211
v 126.64208984375 -4.77353048324585 -55.51235580444336
v 126.64208221435547 -4.223008632659912 -58.92776107788086
v 126.6420669555664 -7.401925086975098 -62.34316635131836
v 126.64207458496094 -4.880107402801514 -60.63546371459961
v 126.64207458496094 -6.0877275466918945 -58.92776107788086
v 126.64207458496094 -3.6724870204925537 -62.34316635131836
v 130.3752899169922 -4.77353048324585 -55.51235580444336
v 130.37527465820312 -2.6335501670837402 -57.22005844116211
v 130.37527465820312 -4.223008155822754 -58.92776107788086
v 130.37527465820312 -6.0877275466918945 -58.92776107788086
v 130.37527465820312 -3.6724870204925537 -62.34316635131836
v 130.37527465820312 -2.3582894802093506 -58.92776107788086
v 130.3752899169922 -1.0440919399261475 -55.51235580444336
v 126.64208984375 -1.0440860986709595 -55.51235580444336
v 126.64208984375 -2.9088082313537598 -55.51235580444336
v 126.64207458496094 -5.537206172943115 -62.34316635131836
v 130.3752899169922 -2.908811092376709 -55.51235580444336
v 130.37527465820312 -3.1530184745788574 -59.781612396240234
v 126.64208221435547 -2.3582866191864014 -58.92776107788086
vn 0.4533015787601471 -0.8763660788536072 0.16278868913650513
vn -6.519782118630246e-7 -0.9831816554069519 0.18263013660907745
vn 0.23306922614574432 -0.9561049938201904 0.17760053277015686
vn -0.4533027410507202 -0.8763654828071594 0.16278856992721558
vn 0.45330166816711426 -0.876366138458252 0.16278870403766632
vn -6.018260592099978e-7 -0.9831816554069519 0.18263013660907745
vn 0.45330166816711426 -0.8763660192489624 0.16278867423534393
vn -0.4533027410507202 -0.8763654828071594 0.16278856992721558
vn -6.018260592099978e-7 -0.9831816554069519 0.18263013660907745
vn -0.23307043313980103 -0.9561046957969666 0.17760047316551208
vn -0.453302800655365 -0.876365602016449 0.16278858482837677
vn -0.34557411074638367 -0.922609269618988 0.17137855291366577
vn 0.45330220460891724 0.8763657808303833 -0.16278859972953796
vn 0 0.9831816554069519 -0.18263009190559387
vn -0.23306967318058014 0.9561049342155457 -0.17760057747364044
vn -0.45330220460891724 0.8763657808303833 -0.16278859972953796
vn -0.34557345509529114 0.9226095080375671 -0.17137862741947174
vn 3.8450005490631156e-7 0.9831815958023071 -0.1826302707195282
vn 0.45330262184143066 0.8763656616210938 -0.1627887338399887
vn 0.23307043313980103 0.9561046957969666 -0.17760069668293
vn 0.45330289006233215 0.8763653635978699 -0.16278883814811707
vn -0.45330220460891724 0.8763657808303833 -0.16278859972953796
vn -0.45330220460891724 0.8763657808303833 -0.16278859972953796
vn 3.8450005490631156e-7 0.9831815958023071 -0.1826302707195282
vn -1 3.2872446809051326e-7 -3.287244609850859e-8
vn -0.45330220460891724 0.8763657808303833 -0.16278859972953796
vn -0.8524382710456848 0.5140349268913269 -0.09548410773277283
vn 1 -3.944698221403087e-7 1.1505369457154302e-7
vn 0.45330220460891724 0.8763657808303833 -0.16278859972953796
vn 1 -3.287248944161547e-7 9.861746264050453e-8
vn 0.45330289006233215 0.8763653635978699 -0.16278883814811707
vn 1 -4.602146361776249e-7 -4.930871000397019e-8
vn 0.45330262184143066 0.8763656616210938 -0.1627887338399887
vn 0.4533015787601471 -0.8763660788536072 0.16278868913650513
vn -0.45330220460891724 0.8763657808303833 -0.16278859972953796
vn -0.8524386286735535 -0.5140343308448792 0.09548405557870865
vn -1 3.2872446809051326e-7 -3.287244609850859e-8
vn -0.45330220460891724 0.8763657808303833 -0.16278859972953796
vn -0.4533027410507202 -0.8763654828071594 0.16278856992721558
vn -0.453302800655365 -0.876365602016449 0.16278858482837677
vn -0.4533027410507202 -0.8763654828071594 0.16278856992721558
vn 0.45330166816711426 -0.8763660192489624 0.16278867423534393
vn 1 -2.6297988142687245e-7 8.218121649861132e-8
vn 1 -7.889391326898476e-7 -1.6436231931038492e-7
vn -1 3.2872446809051326e-7 -3.287244609850859e-8
vn -0.6783756613731384 -0.7223585844039917 0.13418114185333252
vn 0.45330166816711426 -0.876366138458252 0.16278870403766632
vt 0 0.6000000238418579
vt 3.774895063202166e-8 0.800000011920929
vt 0.25 0.7000000178813934
vt 7.549790126404332e-8 1
vt 0.5 0.6000000238418579
vt 0.5 0.800000011920929
vt 1 0.6000000238418579
vt 1.0000001192092896 0.9999999403953552
vt 1 0.7999999821186066
vt 0.7500000596046448 0.8999999761581421
vt 0.5000000596046448 0.9999999701976776
vt 0.37500008940696716 0.949999988079071
vt 0.75 0
vt 0.375 0
vt 0.1875 0.375
vt 0 0
vt 0.09375 0.9375
vt 0.375 0.75
vt 0.75 0.75
vt 0.5625 1.125
vt 0.75 1.5
vt 0 1.5
vt 0 0.75
vt 0.375 1.5
vt 0.9994990825653076 0.29350101947784424
vt 0.9994990825653076 0.0004994869232177734
vt 0.7497488260269165 0.2502495050430298
vt 0.2502482533454895 0.6032490730285645
vt 0.0004980564117431641 0.41349661350250244
vt 0.4999984800815582 0.4999995231628418
vt 0.9994989037513733 0.0004994869232177734
vt 0.749748706817627 0.396750271320343
vt 0.4999984800815582 0.2069980502128601
vt 0.9994989037513733 0.5865024924278259
vt 0.0004981756210327148 0.41349661350250244
vt 0.25024840235710144 0.7497495412826538
vt 0.49999862909317017 0.4999995231628418
vt 0.49999862909317017 0.2069980502128601
vt 0.9994990825653076 0.5865024924278259
vt 0.49999862909317017 0.7930010259151459
vt 0.0004981756210327148 0.9994995594024658
vt 0.0004980564117431641 0.9995005130767822
vt 0.0004980564117431641 0.7064985632896423
vt 0.9994989037513733 0.29350101947784424
vt 0.0004981756210327148 0.7064980864524841
vt 0.6248737573623657 0.6681260168552399
vt 0.4999984800815582 0.7930015027523041
g tosewer050
s 1
f 1/1/1 2/2/2 3/3/3
f 2/2/2 4/4/4 3/3/3
f 5/5/5 6/6/6 7/7/7
f 3/3/3 6/6/6 5/5/5
f 1/1/1 3/3/3 5/5/5
f 3/3/3 4/4/4 6/6/6
f 8/8/8 9/9/9 10/10/10
f 9/9/9 7/7/7 10/10/10
f 8/8/8 10/10/10 11/11/11
f 11/11/11 12/12/12 4/4/4
f 11/11/11 10/10/10 12/12/12
f 10/10/10 6/6/6 12/12/12
f 12/12/12 6/6/6 4/4/4
f 10/10/10 7/7/7 6/6/6
g tosewer051
s 1
f 13/13/13 14/14/14 15/15/15
f 14/14/14 16/16/16 15/15/15
f 17/17/17 18/18/18 15/15/15
f 19/19/19 20/20/20 21/21/21
f 19/19/19 18/18/18 20/20/20
f 22/22/22 20/20/20 18/18/18
f 22/22/22 18/18/18 17/17/17
f 23/23/23 15/15/15 16/16/16
f 22/22/22 17/17/17 23/23/23
f 13/13/13 15/15/15 18/18/18
f 17/17/17 15/15/15 23/23/23
f 22/22/22 24/24/24 20/20/20
f 13/13/13 18/18/18 19/19/19
f 24/24/24 21/21/21 20/20/20
g tosewer052
s 1
f 25/25/25 26/26/26 27/27/27
f 28/28/28 29/29/29 30/30/30
f 31/31/31 32/32/32 33/33/33
f 33/33/33 32/32/32 30/30/30
f 32/32/32 34/34/34 30/30/30
f 35/35/35 36/36/36 37/37/37
f 35/35/35 37/37/37 38/38/38
f 39/39/39 27/27/27 37/37/37
f 38/38/38 37/37/37 27/27/27
f 38/38/38 27/27/27 26/26/26
f 40/40/40 36/36/36 41/41/41
f 42/42/42 43/43/43 28/28/28
f 43/43/43 29/29/29 28/28/28
f 31/31/31 44/44/44 32/32/32
f 44/44/44 34/34/34 32/32/32
f 35/35/35 45/45/45 36/36/36
f 45/45/45 41/41/41 36/36/36
f 46/46/46 37/37/37 36/36/36
f 39/39/39 37/37/37 46/46/46
f 39/39/39 46/46/46 40/40/40
f 46/46/46 36/36/36 40/40/40
f 39/39/39 25/25/25 27/27/27
f 47/47/47 28/28/28 30/30/30
f 47/47/47 30/30/30 34/34/34
f 33/33/33 30/30/30 29/29/29
f 42/42/42 28/28/28 47/47/47
