# Exported using wow.export v0.2.19
o 20736_tosewer06.obj
v 157.55206298828125 -1.0440939664840698 -43.83477783203125
v 159.4186553955078 -1.0440938472747803 -43.83477783203125
v 158.4853515625 -0.3869936466217041 -42.1270751953125
v 155.6854705810547 -1.0440940856933594 -43.83477783203125
v 157.55206298828125 0.27010655403137207 -40.41937255859375
v 157.55206298828125 1.5843039751052856 -37.00396728515625
v 155.68545532226562 1.5843069553375244 -37.00396728515625
v 156.61875915527344 0.9272067546844482 -38.711669921875
v 159.4186553955078 1.5843009948730469 -37.00396728515625
v 155.68545532226562 0.2701064348220825 -40.41937255859375
v 159.4186553955078 0.2701035737991333 -40.41937255859375
v 157.55206298828125 -2.145137310028076 -37.00396728515625
v 155.68545532226562 -2.145137310028076 -37.00396728515625
v 157.55206298828125 -2.145137310028076 -36.287906646728516
v 157.55206298828125 1.5843039751052856 -37.00396728515625
v 159.4186553955078 1.5843009948730469 -37.00396728515625
v 157.55206298828125 1.5843009948730469 -36.287906646728516
v 155.68545532226562 1.5843069553375244 -37.00396728515625
v 159.4186553955078 -0.28041815757751465 -37.00396728515625
v 159.4186553955078 -2.145137310028076 -37.00396728515625
v 159.4186553955078 -0.28041815757751465 -36.287906646728516
v 159.4186553955078 1.5843009948730469 -37.00396728515625
v 155.68545532226562 -2.145137310028076 -37.00396728515625
v 155.68545532226562 -0.2804151773452759 -37.00396728515625
v 155.68545532226562 -1.2127761840820312 -36.64593505859375
v 155.68545532226562 -0.2804151773452759 -36.287906646728516
v 155.6854705810547 -2.145137310028076 -35.57184600830078
v 159.4186553955078 -2.145137310028076 -37.00396728515625
v 158.4853515625 -2.145137310028076 -36.64593505859375
v 159.4186553955078 -2.145137310028076 -35.57184600830078
v 159.4186553955078 -2.145137310028076 -35.57184600830078
v 159.4186553955078 1.5843009948730469 -35.57184600830078
v 155.68545532226562 1.5843069553375244 -37.00396728515625
v 155.6854705810547 1.5843009948730469 -35.57184600830078
v 155.6854705810547 1.5843009948730469 -35.57184600830078
v 156.61875915527344 -2.8022360801696777 -38.711669921875
v 159.4186553955078 -2.145137310028076 -37.00396728515625
v 157.55206298828125 -3.4593348503112793 -40.41937255859375
v 155.68545532226562 -2.145137310028076 -37.00396728515625
v 155.68545532226562 -3.4593348503112793 -40.41937255859375
v 156.6187744140625 -4.116433620452881 -42.1270751953125
v 155.6854705810547 -4.773532390594482 -43.83477783203125
v 159.4186553955078 -3.4593348503112793 -40.41937255859375
v 157.55206298828125 -2.145137310028076 -37.00396728515625
v 159.4186553955078 -4.773532390594482 -43.83477783203125
v 157.55206298828125 -4.773532390594482 -43.83477783203125
v 158.4853515625 -4.116433620452881 -42.1270751953125
v 159.4186553955078 -1.075147271156311 -37.857818603515625
v 159.4186553955078 -0.005157351493835449 -38.711669921875
v 159.4186553955078 -1.869876503944397 -38.711669921875
v 159.4186553955078 -0.28041815757751465 -37.00396728515625
v 159.4186553955078 0.2701035737991333 -40.41937255859375
v 159.4186553955078 1.5843009948730469 -37.00396728515625
v 159.4186553955078 -1.5946156978607178 -40.41937255859375
v 155.68545532226562 1.5843069553375244 -37.00396728515625
v 155.68545532226562 -0.2804151773452759 -37.00396728515625
v 155.68545532226562 -0.9375154972076416 -38.711669921875
v 155.68545532226562 -2.2517144680023193 -42.1270751953125
v 155.6854705810547 -1.0440940856933594 -43.83477783203125
v 155.68545532226562 -1.5946156978607178 -40.41937255859375
v 155.68545532226562 -3.4593348503112793 -40.41937255859375
v 155.6854705810547 -4.773532390594482 -43.83477783203125
v 155.68545532226562 -2.145137310028076 -37.00396728515625
v 155.68545532226562 0.2701064348220825 -40.41937255859375
v 159.4186553955078 -3.4593348503112793 -40.41937255859375
v 159.4186553955078 -3.1840739250183105 -42.1270751953125
v 159.4186553955078 -1.0440938472747803 -43.83477783203125
v 159.4186553955078 -2.145137310028076 -37.00396728515625
v 159.4186553955078 -2.908812999725342 -43.83477783203125
v 159.4186553955078 -4.773532390594482 -43.83477783203125
v 155.6854705810547 -2.908813238143921 -43.83477783203125
vn -2.674782990652602e-7 -0.9831817746162415 0.18263030052185059
vn -0.4533027410507202 -0.8763655424118042 0.16278855502605438
vn -0.3455743193626404 -0.922609269618988 0.1713779717683792
vn 0.453302264213562 -0.8763657212257385 0.16278894245624542
vn -0.23307089507579803 -0.9561048746109009 0.17759937047958374
vn -0.0000011586068922042614 -0.983181893825531 0.1826290786266327
vn -0.000001562783722874883 -0.9831820726394653 0.1826280653476715
vn -0.11734694987535477 -0.9763891100883484 0.18136674165725708
vn -7.54429947846802e-7 -0.9831817150115967 0.18263010680675507
vn 0.23306910693645477 -0.9561051726341248 0.17759962379932404
vn -0.233070507645607 -0.9561047554016113 0.1776004582643509
vn 0 0.9831817150115967 -0.18263012170791626
vn 0 0.9831817150115967 -0.18263012170791626
vn -0.3376142680644989 0.9125455617904663 0.2308184802532196
vn -0.0000011586068922042614 -0.983181893825531 0.1826290786266327
vn -7.54429947846802e-7 -0.9831817150115967 0.18263010680675507
vn 0.28331664204597473 -0.8847612738609314 0.3700392246246338
vn -0.000001562783722874883 -0.9831820726394653 0.1826280653476715
vn -1 -0.0000018184196051151957 0.000004735408765554894
vn -1 0 0
vn -0.8749845027923584 -0.38610729575157166 0.29210159182548523
vn -1 -0.0000036368392102303915 0.000009470817531109788
vn 1 0 -0.00000947081844060449
vn 1 0 -0.000009470817531109788
vn 0.9716169238090515 0.16727761924266815 0.16726839542388916
vn 0.8880758285522461 0.3250589966773987 0.32505056262016296
vn 0.5773521065711975 0.5773521065711975 0.5773466229438782
vn 0 0.9831817150115967 -0.18263012170791626
vn -0.17527852952480316 0.9842009544372559 0.02501785382628441
vn -0.5773499011993408 0.5773509740829468 0.5773499011993408
vn -0.5773499011993408 0.5773509740829468 0.5773499011993408
vn -0.5311956405639648 -0.6756757497787476 0.5111687183380127
vn 1 0 -0.000009470817531109788
vn 0.5311975479125977 -0.6756771802902222 0.5111647844314575
vn 0.5311975479125977 -0.6756771802902222 0.5111647844314575
vn 0.1173456534743309 0.9763890504837036 -0.1813683658838272
vn 0 0.9831817150115967 -0.18263012170791626
vn 0.23306985199451447 0.9561048746109009 -0.17760050296783447
vn 0 0.9831817150115967 -0.18263012170791626
vn 0.23306985199451447 0.9561048746109009 -0.17760050296783447
vn 0.3455735445022583 0.9226095080375671 -0.17137859761714935
vn 0.45330220460891724 0.8763657808303833 -0.16278861463069916
vn -0.23306986689567566 0.9561048746109009 -0.17760050296783447
vn 0 0.9831817150115967 -0.18263012170791626
vn -0.4533022344112396 0.8763657808303833 -0.16278861463069916
vn -1.6717390138865085e-8 0.9831816554069519 -0.18263012170791626
vn -0.1173456609249115 0.9763889908790588 -0.1813683658838272
vn -0.9905564188957214 0.1348007619380951 -0.025036146864295006
vn -0.9624039530754089 0.2670555114746094 -0.049599431455135345
vn -0.9624031782150269 0.2670572102069855 -0.04960431158542633
vn -1 -0.0000018184196051151957 0.000004735408765554894
vn -0.8524370789527893 -0.5140357613563538 0.09548944979906082
vn -1 -0.0000036368392102303915 0.000009470817531109788
vn -0.8524397015571594 0.5140333771705627 -0.09547869116067886
vn 1 0 -0.000009470817531109788
vn 1 0 -0.000009470817531109788
vn 0.9624032378196716 -0.2670581638813019 0.04959946498274803
vn 0.9624029397964478 -0.26705825328826904 0.04960334300994873
vn 0.453302264213562 -0.8763657212257385 0.16278894245624542
vn 0.852438747882843 -0.5140349268913269 0.09547878056764603
vn 0.8524378538131714 0.5140344500541687 -0.09548960626125336
vn 0.45330220460891724 0.8763657808303833 -0.16278861463069916
vn 1 0 -0.00000947081844060449
vn 0.852438747882843 -0.5140349268913269 0.09547878056764603
vn -0.8524383306503296 0.5140346884727478 -0.09548410028219223
vn -0.6783761978149414 0.7223585247993469 -0.13417842984199524
vn -0.4533027410507202 -0.8763655424118042 0.16278855502605438
vn -1 0 0
vn -0.9999999403953552 2.629795403663593e-7 -6.574488509158982e-8
vn -0.4533022344112396 0.8763657808303833 -0.16278861463069916
vn 1 6.574492772415397e-8 3.615971024828468e-7
vt 3.774895063202166e-8 0.800000011920929
vt 7.549790126404332e-8 1
vt 0.2500000298023224 0.9000000059604645
vt 0 0.6000000238418579
vt 0.5 0.800000011920929
vt 1 0.7999999821186066
vt 1 0.6000000238418579
vt 0.75 0.7000000178813934
vt 1.0000001192092896 0.9999999403953552
vt 0.5 0.6000000238418579
vt 0.5000000596046448 0.9999999701976776
vt 0.75 0.3752502202987671
vt 0.75 0.0005004405975341797
vt 0.6875 0.3752502202987671
vt 0.75 0.3752497434616089
vt 0.75 0.75
vt 0.6875 0.3752506971359253
vt 0.75 0.0004995465278625488
vt 0.75 0.37499940395355225
vt 0.75 0.0007523298263549805
vt 0.6875 0.3753761649131775
vt 0.75 0.7492464184761047
vt 0.75 0.0007523894309997559
vt 0.75 0.375
vt 0.71875 0.18787622451782227
vt 0.6875 0.375
vt 0.625 0.0007523298263549805
vt 0.75 0.75
vt 0.71875 0.5626251101493835
vt 0.625 0.75
vt 0.625 0.0007523298263549805
vt 0.625 0.75
vt 0.75 0.749247670173645
vt 0.625 0.0005014538764953613
vt 0.625 0.7492464780807495
vt 0.5625 0.375
vt 0 0
vt 0.375 0.75
vt 0.75 0
vt 0.75 0.75
vt 0.5625 1.125
vt 0.75 1.5
vt 0 0.75
vt 0.375 0
vt 0 1.5
vt 0.375 1.5
vt 0.1875 1.125
vt 0.12562887370586395 0.5815531313419342
vt 0.2504674792289734 0.7501248717308044
vt 0.2504674792289734 0.4566155672073364
vt 0.0007902681827545166 0.706490695476532
vt 0.5001447200775146 0.793251246213913
vt 0.0007902681827545166 1
vt 0.5001447200775146 0.5002497434616089
vt 0.0007902681827545166 1
vt 0.0007902681827545166 0.706490695476532
vt 0.2504674196243286 0.6031163334846497
vt 0.7498217821121216 0.3966214656829834
vt 0.9994989037513733 0.5865024924278259
vt 0.5001446008682251 0.49974191188812256
vt 0.5001446008682251 0.20674043893814087
vt 0.9994989037513733 0.0004994869232177734
vt 0.0007902681827545166 0.41298139095306396
vt 0.5001446008682251 0.793251246213913
vt 0.5001446604728699 0.20674043893814087
vt 0.7498219013214111 0.25037461519241333
vt 0.9994990825653076 0.5865024924278259
vt 0.0007902681827545166 0.41298139095306396
vt 0.9994990825653076 0.29350101947784424
vt 0.9994990825653076 0.0004994869232177734
vt 0.9994989037513733 0.29350101947784424
g tosewer060
s 1
f 1/1/1 2/2/2 3/3/3
f 4/4/4 1/1/1 3/3/3
f 4/4/4 3/3/3 5/5/5
f 6/6/6 7/7/7 8/8/8
f 9/9/9 6/6/6 8/8/8
f 10/10/10 5/5/5 8/8/8
f 9/9/9 8/8/8 5/5/5
f 11/11/11 5/5/5 3/3/3
f 11/11/11 3/3/3 2/2/2
f 10/10/10 8/8/8 7/7/7
f 4/4/4 5/5/5 10/10/10
f 9/9/9 5/5/5 11/11/11
g tosewer061
s 1
f 12/12/12 13/13/13 14/14/14
f 15/15/15 16/16/16 17/17/17
f 18/18/18 15/15/15 17/17/17
f 19/19/19 20/20/20 21/21/21
f 22/22/22 19/19/19 21/21/21
f 23/23/23 24/24/24 25/25/25
f 25/25/25 24/24/24 26/26/26
f 25/25/25 26/26/26 27/27/27
f 28/28/28 29/29/29 30/30/30
f 31/31/31 32/32/32 21/21/21
f 29/29/29 14/14/14 30/30/30
f 29/29/29 12/12/12 14/14/14
f 28/28/28 12/12/12 29/29/29
f 24/24/24 33/33/33 26/26/26
f 23/23/23 25/25/25 27/27/27
f 32/32/32 17/17/17 16/16/16
f 18/18/18 17/17/17 34/34/34
f 27/27/27 30/30/30 14/14/14
f 27/27/27 14/14/14 13/13/13
f 35/35/35 27/27/27 26/26/26
f 35/35/35 26/26/26 33/33/33
f 22/22/22 21/21/21 32/32/32
f 31/31/31 21/21/21 20/20/20
f 32/32/32 34/34/34 17/17/17
g tosewer062
s 1
f 36/36/36 37/37/37 38/38/38
f 39/39/39 36/36/36 40/40/40
f 36/36/36 38/38/38 40/40/40
f 40/40/40 41/41/41 42/42/42
f 43/43/43 38/38/38 37/37/37
f 39/39/39 44/44/44 36/36/36
f 44/44/44 37/37/37 36/36/36
f 45/45/45 46/46/46 41/41/41
f 46/46/46 42/42/42 41/41/41
f 45/45/45 47/47/47 43/43/43
f 47/47/47 38/38/38 43/43/43
f 47/47/47 41/41/41 38/38/38
f 45/45/45 41/41/41 47/47/47
f 40/40/40 38/38/38 41/41/41
g tosewer063
s 1
f 48/48/48 49/49/49 50/50/50
f 48/48/48 51/51/51 49/49/49
f 52/52/52 49/49/49 53/53/53
f 52/52/52 54/54/54 49/49/49
f 55/55/55 56/56/56 57/57/57
f 58/58/58 59/59/59 60/60/60
f 61/61/61 58/58/58 60/60/60
f 62/62/62 58/58/58 61/61/61
f 56/56/56 63/63/63 57/57/57
f 57/57/57 63/63/63 60/60/60
f 64/64/64 57/57/57 60/60/60
f 55/55/55 57/57/57 64/64/64
f 61/61/61 60/60/60 63/63/63
f 64/64/64 60/60/60 59/59/59
f 65/65/65 54/54/54 66/66/66
f 51/51/51 53/53/53 49/49/49
f 67/67/67 66/66/66 54/54/54
f 68/68/68 51/51/51 48/48/48
f 68/68/68 48/48/48 50/50/50
f 68/68/68 50/50/50 65/65/65
f 50/50/50 54/54/54 65/65/65
f 67/67/67 69/69/69 66/66/66
f 69/69/69 70/70/70 66/66/66
f 65/65/65 66/66/66 70/70/70
f 50/50/50 49/49/49 54/54/54
f 67/67/67 54/54/54 52/52/52
f 71/71/71 59/59/59 58/58/58
f 62/62/62 71/71/71 58/58/58
