# Exported using wow.export v0.2.19
o 20736_CourtyardCorridor.obj
v 157.52560424804688 7.852884769439697 78.28538513183594
v 161.98257446289062 7.852884769439697 78.28538513183594
v 161.9825897216797 7.852884769439697 71.29994201660156
v 153.0686798095703 7.852884769439697 71.29994201660156
v 157.52561950683594 7.852884769439697 64.10687255859375
v 153.06866455078125 7.852884769439697 64.10687255859375
v 161.9825897216797 7.852884769439697 64.10687255859375
v 153.0686492919922 7.852884769439697 78.28538513183594
v 160.38587951660156 22.823673248291016 66.36372375488281
v 161.2635040283203 20.32318115234375 64.9034194946289
v 159.40963745117188 22.771331787109375 65.89739990234375
v 155.05181884765625 7.814424514770508 68.1421127319336
v 155.4185333251953 7.772674560546875 74.37173461914062
v 154.3490753173828 7.612438678741455 74.43366241455078
v 153.9823760986328 7.6541876792907715 68.20404815673828
v 153.18939208984375 12.02775764465332 68.28858947753906
v 154.25885009765625 12.187994003295898 68.2266616821289
v 154.03094482421875 12.225785255432129 64.10687255859375
v 152.95806884765625 12.066116333007812 64.10687255859375
v 154.603515625 12.130825996398926 74.45745086669922
v 153.5340576171875 11.970589637756348 74.51937866210938
v 155.4185333251953 7.772674560546875 74.37173461914062
v 155.296875 9.310373306274414 76.97476959228516
v 154.2274169921875 9.15013599395752 77.03670501708984
v 154.3490753173828 7.612438678741455 74.43366241455078
v 154.8748016357422 12.10564136505127 78.22309112548828
v 153.80535888671875 11.945404052734375 78.28501892089844
v 154.8748016357422 12.10564136505127 78.22309112548828
v 153.80535888671875 11.945404052734375 78.28501892089844
v 153.5340576171875 11.970589637756348 74.51937866210938
v 153.18939208984375 12.02775764465332 68.28858947753906
v 153.9823760986328 7.6541876792907715 68.20404815673828
v 154.3490753173828 7.612438678741455 74.43366241455078
v 154.2274169921875 9.15013599395752 77.03670501708984
v 153.80535888671875 11.945404052734375 78.28501892089844
v 153.5340576171875 11.970589637756348 74.51937866210938
v 154.3490753173828 7.612438678741455 74.43366241455078
v 153.74119567871094 7.681637287139893 64.10687255859375
v 152.95806884765625 12.066116333007812 64.10687255859375
v 159.6281280517578 13.89339828491211 68.72250366210938
v 161.65977478027344 14.096592903137207 64.7734146118164
v 159.2152557373047 20.119354248046875 68.83131408691406
v 161.2635040283203 20.32318115234375 64.9034194946289
v 159.02281188964844 23.88878059387207 68.92450714111328
v 159.2152557373047 20.119354248046875 68.83131408691406
v 160.38587951660156 22.823673248291016 66.36372375488281
v 161.2635040283203 20.32318115234375 64.9034194946289
v 162.0560760498047 7.870001316070557 64.64340209960938
v 160.041015625 7.667439937591553 68.61366271972656
v 161.2635040283203 20.32318115234375 64.9034194946289
v 161.65977478027344 14.096592903137207 64.7734146118164
v 160.28724670410156 20.270837783813477 64.43709564208984
v 160.6835479736328 14.044251441955566 64.30709075927734
v 161.079833984375 7.817659378051758 64.17707824707031
v 159.0647735595703 7.615097999572754 68.1473388671875
v 160.041015625 7.667439937591553 68.61366271972656
v 159.6281280517578 13.89339828491211 68.72250366210938
v 159.0647735595703 7.615097999572754 68.1473388671875
v 158.65188598632812 13.841054916381836 68.25617980957031
v 159.2152557373047 20.119354248046875 68.83131408691406
v 158.239013671875 20.067007064819336 68.364990234375
v 154.25885009765625 12.187994003295898 68.2266616821289
v 155.05181884765625 7.814424514770508 68.1421127319336
v 154.8142852783203 7.841458797454834 64.10687255859375
v 154.03094482421875 12.225785255432129 64.10687255859375
v 155.296875 9.310373306274414 76.97476959228516
v 155.4185333251953 7.772674560546875 74.37173461914062
v 154.603515625 12.130825996398926 74.45745086669922
v 154.8748016357422 12.10564136505127 78.22309112548828
v 154.603515625 12.130825996398926 74.45745086669922
v 155.4185333251953 7.772674560546875 74.37173461914062
v 154.8142852783203 7.841458797454834 64.10687255859375
v 158.04656982421875 23.836435317993164 68.45818328857422
v 159.02281188964844 23.88878059387207 68.92450714111328
v 159.0647735595703 7.615097999572754 68.1473388671875
v 158.65188598632812 13.841054916381836 68.25617980957031
v 161.079833984375 7.817659378051758 64.17707824707031
v 160.6835479736328 14.044251441955566 64.30709075927734
v 160.28724670410156 20.270837783813477 64.43709564208984
v 158.239013671875 20.067007064819336 68.364990234375
v 159.40963745117188 22.771331787109375 65.89739990234375
v 158.04656982421875 23.836435317993164 68.45818328857422
v 160.28724670410156 20.270837783813477 64.43709564208984
v 158.239013671875 20.067007064819336 68.364990234375
v 161.079833984375 7.817659378051758 64.17707824707031
v 162.0560760498047 7.870001316070557 64.64340209960938
v 158.04656982421875 23.836435317993164 68.45818328857422
v 159.02281188964844 23.88878059387207 68.92450714111328
v 153.74119567871094 7.681637287139893 64.10687255859375
v 160.28724670410156 20.270837783813477 64.43709564208984
v 160.3746337890625 22.91196060180664 64.10687255859375
v 160.3745880126953 22.911956787109375 71.29991912841797
v 157.52561950683594 24.10910987854004 71.29991912841797
v 157.525634765625 24.109115600585938 64.10687255859375
v 161.95864868164062 20.33392333984375 64.10687255859375
v 161.9585723876953 20.33391761779785 71.29994201660156
v 161.95863342285156 20.333919525146484 78.28538513183594
v 160.37461853027344 22.91196060180664 78.28538513183594
v 161.98257446289062 7.852884769439697 78.28538513183594
v 161.9825897216797 7.852884769439697 71.29994201660156
v 161.97061157226562 14.093400955200195 78.28538513183594
v 154.67662048339844 22.91196060180664 78.28538513183594
v 154.67665100097656 22.911956787109375 71.29991912841797
v 157.52561950683594 24.109115600585938 78.28538513183594
v 153.09263610839844 20.333938598632812 78.28538513183594
v 153.09266662597656 20.33391761779785 71.29994201660156
v 153.0686492919922 7.852884769439697 78.28538513183594
v 153.0686798095703 7.852884769439697 71.29994201660156
v 153.0806427001953 14.093416213989258 78.28538513183594
v 153.06866455078125 7.852884769439697 64.10687255859375
v 153.08065795898438 14.093414306640625 64.10687255859375
v 153.0926513671875 20.33393669128418 64.10687255859375
v 154.6766357421875 22.91196060180664 64.10687255859375
v 161.9706268310547 14.093402862548828 64.10687255859375
v 161.9825897216797 7.852884769439697 64.10687255859375
v 161.16526794433594 6.095579624176025 69.4822769165039
v 162.3213348388672 6.545841217041016 69.31351470947266
v 162.044921875 7.558205604553223 70.40662384033203
v 160.7111053466797 7.40238094329834 70.8819351196289
v 159.62985229492188 7.269082069396973 69.9870376586914
v 159.7620391845703 6.42390775680542 68.79174041748047
v 160.9511260986328 6.375065326690674 67.77674865722656
v 162.1757049560547 6.420142650604248 68.0306167602539
v 161.9468994140625 8.882716178894043 69.93861389160156
v 161.9553985595703 8.179657936096191 69.07275390625
v 160.88951110839844 8.750051498413086 70.20865631103516
v 159.920166015625 8.412506103515625 69.48307037353516
v 159.9492950439453 7.993689060211182 68.46473693847656
v 160.86631774902344 8.119863510131836 67.62788391113281
v 161.88536071777344 8.175071716308594 67.95801544189453
v 160.95947265625 8.866744041442871 68.95340728759766
vn 0 1 0
vn -0.7077841758728027 0.7064287066459656 0.000006870931429148186
vn 0 1 0
vn 0 1 0
vn 0 1 0
vn 0.707597553730011 0.7066156268119812 0.000163103875820525
vn -0.7077841758728027 0.7064287066459656 -1.255942265743215e-7
vn 0.707786500453949 0.7064263820648193 0.0000013798075997328851
vn 0.6241354942321777 0.7233705520629883 -0.29527947306632996
vn 0.7707727551460266 0.3024335503578186 -0.5607524514198303
vn -0.20412172377109528 0.6694435477256775 -0.7142686247825623
vn 0.8116158843040466 -0.5819016695022583 -0.05167331546545029
vn 0.6013816595077515 -0.7732726335525513 0.20097136497497559
vn -0.30743810534477234 -0.9175081253051758 0.2523106634616852
vn -0.581227719783783 -0.8132324814796448 0.028762521222233772
vn -0.8106441497802734 0.5833836197853088 0.05019574984908104
vn 0.5813084244728088 0.8132209181785583 -0.02742728218436241
vn 0.5836882591247559 0.8115977644920349 -0.02484116330742836
vn -0.8100972771644592 0.5841449499130249 0.05017085373401642
vn 0.5787744522094727 0.8148611783981323 -0.03195935860276222
vn -0.8128317594528198 0.579605221748352 0.05798517167568207
vn 0.6013816595077515 -0.7732726335525513 0.20097136497497559
vn 0.5877121090888977 -0.49595677852630615 0.6392349600791931
vn -0.3275570273399353 -0.6537999510765076 0.6820938587188721
vn -0.30743810534477234 -0.9175081253051758 0.2523106634616852
vn 0.6318740248680115 0.5191948413848877 0.5754753947257996
vn -0.6841080784797668 0.2815764844417572 0.6728379130363464
vn 0.6318740248680115 0.5191948413848877 0.5754753947257996
vn -0.6841080784797668 0.2815764844417572 0.6728379130363464
vn -0.8128317594528198 0.579605221748352 0.05798517167568207
vn -0.8106441497802734 0.5833836197853088 0.05019574984908104
vn -0.581227719783783 -0.8132324814796448 0.028762521222233772
vn -0.30743810534477234 -0.9175081253051758 0.2523106634616852
vn -0.3275570273399353 -0.6537999510765076 0.6820938587188721
vn -0.6841080784797668 0.2815764844417572 0.6728379130363464
vn -0.8128317594528198 0.579605221748352 0.05798517167568207
vn -0.30743810534477234 -0.9175081253051758 0.2523106634616852
vn -0.5827224254608154 -0.8121585845947266 0.02886236645281315
vn -0.8100972771644592 0.5841449499130249 0.05017085373401642
vn 0.32167646288871765 0.004784966353327036 0.9468375444412231
vn 0.9455094337463379 0.06683109700679779 -0.31866204738616943
vn 0.3169264495372772 -0.00298342970199883 0.9484454393386841
vn 0.7707727551460266 0.3024335503578186 -0.5607524514198303
vn 0.3793374300003052 0.6192736625671387 0.6874614357948303
vn 0.3169264495372772 -0.00298342970199883 0.9484454393386841
vn 0.6241354942321777 0.7233705520629883 -0.29527947306632996
vn 0.7707727551460266 0.3024335503578186 -0.5607524514198303
vn 0.8057836294174194 -0.5256471037864685 -0.2727779448032379
vn 0.30000820755958557 -0.5679556131362915 0.7664342522621155
vn 0.7707727551460266 0.3024335503578186 -0.5607524514198303
vn 0.9455094337463379 0.06683109700679779 -0.31866204738616943
vn -0.056339241564273834 0.25703853368759155 -0.96475750207901
vn -0.31934189796447754 -0.0005378952482715249 -0.9476394057273865
vn -0.22784200310707092 -0.5736014246940613 -0.7868096232414246
vn -0.7303277254104614 -0.635841429233551 0.24965398013591766
vn 0.30000820755958557 -0.5679556131362915 0.7664342522621155
vn 0.32167646288871765 0.004784966353327036 0.9468375444412231
vn -0.7303277254104614 -0.635841429233551 0.24965398013591766
vn -0.9445358514785767 -0.06825040280818939 0.32123813033103943
vn 0.3169264495372772 -0.00298342970199883 0.9484454393386841
vn -0.9467625617980957 -0.06059784069657326 0.3161780834197998
vn 0.5813084244728088 0.8132209181785583 -0.02742728218436241
vn 0.8116158843040466 -0.5819016695022583 -0.05167331546545029
vn 0.8105599284172058 -0.5833764672279358 -0.05161907896399498
vn 0.5836882591247559 0.8115977644920349 -0.02484116330742836
vn 0.5877121090888977 -0.49595677852630615 0.6392349600791931
vn 0.6013816595077515 -0.7732726335525513 0.20097136497497559
vn 0.5787744522094727 0.8148611783981323 -0.03195935860276222
vn 0.6318740248680115 0.5191948413848877 0.5754753947257996
vn 0.5787744522094727 0.8148611783981323 -0.03195935860276222
vn 0.6013816595077515 -0.7732726335525513 0.20097136497497559
vn 0.8105599284172058 -0.5833764672279358 -0.05161907896399498
vn -0.8127841949462891 0.5776912569999695 0.07519733905792236
vn 0.3793374300003052 0.6192736625671387 0.6874614357948303
vn -0.7303277254104614 -0.635841429233551 0.24965398013591766
vn -0.9445358514785767 -0.06825040280818939 0.32123813033103943
vn -0.22784200310707092 -0.5736014246940613 -0.7868096232414246
vn -0.31934189796447754 -0.0005378952482715249 -0.9476394057273865
vn -0.056339241564273834 0.25703853368759155 -0.96475750207901
vn -0.9467625617980957 -0.06059784069657326 0.3161780834197998
vn -0.20412172377109528 0.6694435477256775 -0.7142686247825623
vn -0.8127841949462891 0.5776912569999695 0.07519733905792236
vn -0.056339241564273834 0.25703853368759155 -0.96475750207901
vn -0.9467625617980957 -0.06059784069657326 0.3161780834197998
vn -0.22784200310707092 -0.5736014246940613 -0.7868096232414246
vn 0.8057836294174194 -0.5256471037864685 -0.2727779448032379
vn -0.8127841949462891 0.5776912569999695 0.07519733905792236
vn 0.3793374300003052 0.6192736625671387 0.6874614357948303
vn -0.5827224254608154 -0.8121585845947266 0.02886236645281315
vn -0.056339241564273834 0.25703853368759155 -0.96475750207901
vn -0.6509367227554321 -0.7591319680213928 -0.0000013122015616318095
vn -0.6509412527084351 -0.7591280937194824 0.000004574741069518495
vn -0.0000011799186268035555 -1 0.0000015455686934728874
vn 0 -1 7.16351223672973e-7
vn -0.9620339870452881 -0.27292966842651367 2.859850098957395e-7
vn -0.9620345234870911 -0.272927850484848 0.000007543890660599573
vn -0.9620345234870911 -0.272927850484848 0.000007543890660599573
vn -0.6509384512901306 -0.7591304779052734 0.0000028989650218136376
vn -0.7077841758728027 0.7064287066459656 0.000006870931429148186
vn -0.999998152256012 -0.001923487987369299 -0.0000019416572740738047
vn -0.999998152256012 -0.0019191403407603502 0.000007767084753140807
vn 0.6509392261505127 -0.7591298222541809 0.000002341236267966451
vn 0.6509412527084351 -0.7591280937194824 0.0000035636041957332054
vn 0 -1 9.681584742793348e-7
vn 0.9620342254638672 -0.2729288935661316 0.000004530791102297371
vn 0.9620342254638672 -0.2729288935661316 0.000004530791102297371
vn 0.707786500453949 0.7064263820648193 0.0000013798075997328851
vn 0.999998152256012 -0.0019224013667553663 0.0000038832740756333806
vn 0.999998152256012 -0.0019213126506656408 0.000003888910214300267
vn 0.707597553730011 0.7066156268119812 0.000163103875820525
vn 0.999998152256012 -0.0019234840292483568 0.000007136772637750255
vn 0.9620338678359985 -0.2729301154613495 0.0000026317720767110586
vn 0.6509391665458679 -0.7591298818588257 2.700103891584149e-7
vn -0.999998152256012 -0.001919139758683741 1.9790258320995235e-9
vn -0.7077841758728027 0.7064287066459656 -1.255942265743215e-7
vn -0.03674920275807381 -0.9577827453613281 0.28513461351394653
vn 0.878682553768158 -0.4110566973686218 0.24279482662677765
vn 0.5553176403045654 0.0712091401219368 0.8285840749740601
vn -0.14612852036952972 -0.19367332756519318 0.970122218132019
vn -0.898986279964447 -0.20644758641719818 0.3862681984901428
vn -0.774811863899231 -0.6018922328948975 -0.19337093830108643
vn -0.06055889278650284 -0.5785700082778931 -0.8133814334869385
vn 0.6114606261253357 -0.6599599719047546 -0.43654176592826843
vn 0.7364314794540405 0.6634811162948608 0.13214196264743805
vn 0.8359429240226746 0.5047962665557861 -0.21536050736904144
vn -0.15931332111358643 0.752946138381958 0.6385071277618408
vn -0.7295814156532288 0.6792322397232056 0.07971525192260742
vn -0.8730229735374451 0.27759355306625366 -0.4009646773338318
vn -0.23388268053531647 0.4875700771808624 -0.8411743640899658
vn 0.5779943466186523 0.4687100648880005 -0.6680070161819458
vn 0.04888352006673813 0.9662028551101685 -0.2531055212020874
vt -7.501682281494141 -2.7792747020721436
vt -7.501682281494141 -3.314110279083252
vt -8.228872299194336 -3.3141117095947266
vt -8.228872299194336 -2.244441270828247
vt -7.501682281494141 -2.7792747020721436
vt -7.501682281494141 -2.244439125061035
vt -7.501682281494141 -3.314110279083252
vt -7.501682281494141 -2.244439125061035
vt 0.2826623320579529 1.001198649406433
vt 0.7048078179359436 1.002510905265808
vt 0.2826623320579529 1.131150722503662
vt -0.6226770281791687 0
vt -0.6226770281791687 0.9994997978210449
vt -0.5006770491600037 0.9994997978210449
vt -0.5006770491600037 0
vt -0.3799999952316284 -1.00026535987854
vt -0.49640703201293945 -1.00026535987854
vt -0.49640703201293945 -1.6614649295806885
vt -0.3799999952316284 -1.6714046001434326
vt -0.4946728050708771 0.0005006790161132812
vt -0.380798876285553 0.0005006790161132812
vt 0.7048078179359436 1.002510905265808
vt 0.2826623320579529 1.001198649406433
vt 0.2826623320579529 1.131150722503662
vt 0.7065189480781555 1.132388710975647
vt -0.491710901260376 0.9994997978210449
vt -0.380798876285553 0.9994997978210449
vt -0.21412590146064758 0.9994997978210449
vt -0.21412590146064758 1.1311750411987305
vt 0.5 0.9995005130767822
vt 0.5 0
vt 0 0
vt 0 0.9994997978210449
vt -0.1754310131072998 0.6827058792114258
vt -0.49678823351860046 0.9994997978210449
vt -0.49975013732910156 0.0005006790161132812
vt -0.000249713659286499 0.0004990100860595703
vt 0 -0.6576939821243286
vt 0.5 -0.6711392402648926
vt 0.5 0
vt 0 0
vt 0.5 0.9995005130767822
vt 0 0.9994997978210449
vt -0.49678823351860046 0.9994997978210449
vt -0.49975013732910156 0.0005006790161132812
vt -0.1754310131072998 0.6827058792114258
vt -0.000249713659286499 0.0004990100860595703
vt 0 -1
vt 0.5 -1
vt -0.6226770281791687 0.9994997978210449
vt -0.6226770281791687 0
vt -0.5006770491600037 0.9994997978210449
vt -0.5006770491600037 0
vt 0 -0.8709925413131714
vt 0.5 -0.8709925413131714
vt -0.49640703201293945 -2.00026535987854
vt -0.49640703201293945 -1.00026535987854
vt -0.3799999952316284 -2.00026535987854
vt -0.3799999952316284 -1.00026535987854
vt -0.4946728050708771 0.0005006790161132812
vt -0.380798876285553 0.0005006790161132812
vt 0.5 0
vt 0 0
vt 0 -0.6477522850036621
vt 0.5 -0.6611995697021484
vt -0.1754310131072998 0.6827058792114258
vt -0.000249713659286499 0.0004990100860595703
vt -0.49975013732910156 0.0005006790161132812
vt -0.49678823351860046 0.9994997978210449
vt 0.5 0.9995005130767822
vt 0 0.9994997978210449
vt -0.6226770281791687 -0.5645530223846436
vt -0.380798876285553 0.9994997978210449
vt -0.491710901260376 0.9994997978210449
vt 0.5 -1
vt 0.5 0
vt 0 -1
vt 0 0
vt -0.000249713659286499 0.0004990100860595703
vt -0.49975013732910156 0.0005006790161132812
vt -0.1754310131072998 0.6827058792114258
vt -0.49678823351860046 0.9994997978210449
vt 0 0.9994997978210449
vt 0.5 0.9995005130767822
vt -0.5006770491600037 -0.8709925413131714
vt -0.6226770281791687 -0.8715572357177734
vt -0.21412590146064758 1.1311750411987305
vt -0.21412590146064758 0.9994997978210449
vt -0.5006770491600037 -0.572846531867981
vt 0.7065189480781555 1.132388710975647
vt 0 -0.375
vt 0 -0.003000020980834961
vt -0.23199999332427979 -0.003000020980834961
vt -0.23199999332427979 -0.375
vt 0.23249733448028564 -0.375
vt 0.2324983775615692 -0.003000020980834961
vt 0.23249733448028564 -0.375
vt 0 -0.375
vt 0.9995004534721375 -0.375
vt 0.9995004534721375 -0.003000020980834961
vt 0.6159988641738892 -0.375
vt 0 -0.375
vt 0 -0.003000020980834961
vt -0.23199999332427979 -0.375
vt 0.23249733448028564 -0.375
vt 0.2324983775615692 -0.003000020980834961
vt 0.9995004534721375 -0.375
vt 0.9995004534721375 -0.003000020980834961
vt 0.6159988641738892 -0.375
vt 0.9995004534721375 -0.375
vt 0.6159988641738892 -0.375
vt 0.23249733448028564 -0.375
vt 0 -0.375
vt 0.6159988641738892 -0.375
vt 0.9995004534721375 -0.375
vt 0.7475684285163879 0.7813461422920227
vt 0.7354017496109009 0.9917283654212952
vt 0.9227491617202759 0.9470492601394653
vt 0.9874593019485474 0.7119733691215515
vt 0.8588778972625732 0.5197891592979431
vt 0.6627304553985596 0.5393484234809875
vt 0.5155200362205505 0.7476784586906433
vt 0.5504607558250427 0.9641010165214539
vt 0.8386387825012207 0.8686245679855347
vt 0.7519882917404175 0.8677495121955872
vt 0.8601342439651489 0.7570321559906006
vt 0.7934678792953491 0.6536587476730347
vt 0.6993562579154968 0.6552994847297668
vt 0.6300005912780762 0.7516453862190247
vt 0.6577818989753723 0.859515905380249
vt 0.7562170028686523 0.7636610269546509
g CourtyardCorridor0
s 1
f 1/1/1 2/2/2 3/3/3
f 4/4/4 5/5/5 6/6/6
f 4/4/4 3/3/3 5/5/5
f 3/3/3 7/7/7 5/5/5
f 4/4/4 8/8/8 1/1/1
f 4/4/4 1/1/1 3/3/3
g CourtyardCorridor1
s 1
f 9/9/9 10/10/10 11/11/11
f 12/12/12 13/13/13 14/14/14
f 14/14/14 15/15/15 12/12/12
f 16/16/16 17/17/17 18/18/18
f 18/18/18 19/19/19 16/16/16
f 20/20/20 17/17/17 16/16/16
f 16/16/16 21/21/21 20/20/20
f 22/22/22 23/23/23 24/24/24
f 24/24/24 25/25/25 22/22/22
f 26/26/26 20/20/20 21/21/21
f 21/21/21 27/27/27 26/26/26
f 23/23/23 28/28/28 29/29/29
f 29/29/29 24/24/24 23/23/23
f 30/30/30 31/31/31 32/32/32
f 32/32/32 33/33/33 30/30/30
f 34/34/34 35/35/35 36/36/36
f 36/36/36 37/37/37 34/34/34
f 38/38/38 32/32/32 31/31/31
f 31/31/31 39/39/39 38/38/38
f 40/40/40 41/41/41 42/42/42
f 43/43/43 42/42/42 41/41/41
f 44/44/44 45/45/45 46/46/46
f 47/47/47 46/46/46 45/45/45
f 41/41/41 40/40/40 48/48/48
f 49/49/49 48/48/48 40/40/40
f 50/50/50 51/51/51 52/52/52
f 53/53/53 52/52/52 51/51/51
f 48/48/48 49/49/49 54/54/54
f 55/55/55 54/54/54 49/49/49
f 56/56/56 57/57/57 58/58/58
f 59/59/59 58/58/58 57/57/57
f 57/57/57 60/60/60 59/59/59
f 61/61/61 59/59/59 60/60/60
f 62/62/62 63/63/63 64/64/64
f 64/64/64 65/65/65 62/62/62
f 66/66/66 67/67/67 68/68/68
f 68/68/68 69/69/69 66/66/66
f 70/70/70 71/71/71 63/63/63
f 63/63/63 62/62/62 70/70/70
f 72/72/72 12/12/12 15/15/15
f 73/73/73 61/61/61 74/74/74
f 75/75/75 76/76/76 77/77/77
f 78/78/78 77/77/77 76/76/76
f 79/79/79 80/80/80 81/81/81
f 82/82/82 81/81/81 80/80/80
f 83/83/83 78/78/78 84/84/84
f 76/76/76 84/84/84 78/78/78
f 85/85/85 53/53/53 86/86/86
f 51/51/51 86/86/86 53/53/53
f 11/11/11 87/87/87 9/9/9
f 88/88/88 9/9/9 87/87/87
f 15/15/15 89/89/89 72/72/72
f 60/60/60 74/74/74 61/61/61
f 90/90/90 11/11/11 10/10/10
g CourtyardCorridor2
s 1
f 91/91/91 92/92/92 93/93/93
f 93/93/93 94/94/94 91/91/91
f 95/95/95 96/96/96 92/92/92
f 97/97/97 98/98/98 92/92/92
f 92/92/92 96/96/96 97/97/97
f 99/99/99 96/96/96 100/100/100
f 99/99/99 101/101/101 96/96/96
f 101/101/101 97/97/97 96/96/96
f 102/102/102 103/103/103 93/93/93
f 93/93/93 104/104/104 102/102/102
f 103/103/103 102/102/102 105/105/105
f 105/105/105 106/106/106 103/103/103
f 106/106/106 107/107/107 108/108/108
f 106/106/106 109/109/109 107/107/107
f 93/93/93 92/92/92 98/98/98
f 98/98/98 104/104/104 93/93/93
f 108/108/108 110/110/110 111/111/111
f 106/106/106 108/108/108 111/111/111
f 106/106/106 111/111/111 112/112/112
f 112/112/112 113/113/113 103/103/103
f 103/103/103 106/106/106 112/112/112
f 113/113/113 94/94/94 93/93/93
f 93/93/93 103/103/103 113/113/113
f 96/96/96 95/95/95 114/114/114
f 100/100/100 96/96/96 114/114/114
f 115/115/115 100/100/100 114/114/114
f 92/92/92 91/91/91 95/95/95
f 106/106/106 105/105/105 109/109/109
g CourtyardCorridor3
s 1
f 116/116/116 117/117/117 118/118/118
f 116/116/116 119/119/119 120/120/120
f 116/116/116 120/120/120 121/121/121
f 116/116/116 121/121/121 122/122/122
f 116/116/116 122/122/122 123/123/123
f 116/116/116 123/123/123 117/117/117
f 124/124/124 118/118/118 117/117/117
f 117/117/117 125/125/125 124/124/124
f 126/126/126 119/119/119 118/118/118
f 118/118/118 124/124/124 126/126/126
f 127/127/127 120/120/120 119/119/119
f 119/119/119 126/126/126 127/127/127
f 128/128/128 121/121/121 120/120/120
f 120/120/120 127/127/127 128/128/128
f 129/129/129 122/122/122 121/121/121
f 121/121/121 128/128/128 129/129/129
f 130/130/130 123/123/123 122/122/122
f 122/122/122 129/129/129 130/130/130
f 125/125/125 117/117/117 123/123/123
f 123/123/123 130/130/130 125/125/125
f 131/131/131 124/124/124 125/125/125
f 131/131/131 126/126/126 124/124/124
f 131/131/131 127/127/127 126/126/126
f 131/131/131 128/128/128 127/127/127
f 131/131/131 129/129/129 128/128/128
f 131/131/131 130/130/130 129/129/129
f 131/131/131 125/125/125 130/130/130
f 116/116/116 118/118/118 119/119/119
