# Exported using wow.export v0.2.19
o 20736_sewer12.obj
v 98.51799774169922 -11.568586349487305 69.20260620117188
v 96.88217163085938 -11.568574905395508 72.03594970703125
v 100.25528717041016 -10.874130249023438 74.20755767822266
v 101.25447082519531 -10.87414264678955 70.47853088378906
v 104.21993255615234 -10.179685592651367 74.00208282470703
v 104.21993255615234 -10.179685592651367 74.29791259765625
v 104.2199478149414 -10.17969799041748 70.73040771484375
v 96.7342529296875 -11.568574905395508 72.29215240478516
v 98.66453552246094 -11.568586349487305 68.94878387451172
v 104.21994018554688 -10.17969799041748 70.43733978271484
v 104.21993255615234 -7.396791458129883 70.43734741210938
v 101.25447082519531 -8.091236114501953 70.4785385131836
v 101.25447082519531 -10.87414264678955 70.47853088378906
v 104.21994018554688 -10.17969799041748 70.43733978271484
v 96.7342529296875 -11.568574905395508 72.29215240478516
v 96.73948669433594 -8.785673141479492 72.28308868408203
v 100.25798797607422 -8.091229438781738 74.19744873046875
v 100.25528717041016 -10.874130249023438 74.20755767822266
v 98.66453552246094 -8.785679817199707 68.94879913330078
v 98.66453552246094 -11.568586349487305 68.94878387451172
v 104.21993255615234 -7.39678430557251 74.28744506835938
v 104.21993255615234 -10.179685592651367 74.29791259765625
v 104.21993255615234 -6.122049808502197 71.11248779296875
v 101.0797348022461 -6.816494464874268 71.13066101074219
v 101.25447082519531 -8.091236114501953 70.4785385131836
v 104.21993255615234 -7.396791458129883 70.43734741210938
v 104.21994018554688 -5.530102252960205 72.35099029541016
v 100.75918579101562 -6.224546909332275 72.32696533203125
v 104.21993255615234 -7.39678430557251 74.28744506835938
v 100.25798797607422 -8.091229438781738 74.19744873046875
v 100.43707275390625 -6.816494464874268 73.52909088134766
v 104.21994018554688 -6.122049808502197 73.59551239013672
v 100.75918579101562 -6.224546909332275 72.32696533203125
v 104.21994018554688 -5.530102252960205 72.35099029541016
v 97.08544921875 -7.510939121246338 71.683837890625
v 98.32696533203125 -7.510939121246338 69.53348541259766
v 98.66453552246094 -8.785679817199707 68.94879913330078
v 97.70772552490234 -6.9189910888671875 70.6060562133789
v 96.73948669433594 -8.785673141479492 72.28308868408203
v 97.70772552490234 -6.9189910888671875 70.6060562133789
v 97.70772552490234 -6.9189910888671875 70.6060562133789
v 97.08544921875 -7.510939121246338 71.683837890625
v 97.20958709716797 -7.822051048278809 71.46883392333984
v 97.93528747558594 -8.93346881866455 68.86617279052734
v 97.9352798461914 -11.568587303161621 68.86616516113281
v 98.51799774169922 -11.568586349487305 69.20260620117188
v 98.51800537109375 -8.93346881866455 69.20260620117188
v 98.20217895507812 -7.822051048278809 69.74962615966797
v 97.61944580078125 -7.822051048278809 69.41320037841797
v 97.70709228515625 -7.367199420928955 70.60714721679688
v 97.1243667602539 -7.367199420928955 70.27070617675781
v 104.21993255615234 -7.544572830200195 73.99320983886719
v 104.89287567138672 -7.544572830200195 73.99320220947266
v 104.89287567138672 -10.179685592651367 74.0020751953125
v 104.21993255615234 -10.179685592651367 74.00208282470703
v 104.21993255615234 -6.433162212371826 71.36206817626953
v 104.89287567138672 -6.433162212371826 71.36207580566406
v 104.89287567138672 -5.978310585021973 72.35224914550781
v 104.21993255615234 -5.978311061859131 72.35224914550781
v 104.21993255615234 -7.54457950592041 70.73041534423828
v 104.89287567138672 -7.54457950592041 70.73040771484375
v 104.2199478149414 -10.17969799041748 70.73040771484375
v 104.89287567138672 -10.17969799041748 70.73040771484375
v 104.21994018554688 -5.530102252960205 72.35099029541016
v 104.21993255615234 -5.978311061859131 72.35224914550781
v 104.21994018554688 -6.433162212371826 73.34722137451172
v 104.21994018554688 -6.122049808502197 73.59551239013672
v 104.21993255615234 -7.544572830200195 73.99320983886719
v 104.21993255615234 -7.39678430557251 74.28744506835938
v 104.21993255615234 -10.179685592651367 74.00208282470703
v 104.21993255615234 -10.179685592651367 74.29791259765625
v 104.21993255615234 -6.122049808502197 71.11248779296875
v 104.21993255615234 -6.433162212371826 71.36206817626953
v 104.21993255615234 -7.396791458129883 70.43734741210938
v 104.21993255615234 -7.54457950592041 70.73041534423828
v 97.70709228515625 -7.367199420928955 70.60714721679688
v 104.21994018554688 -10.17969799041748 70.43733978271484
v 104.2199478149414 -10.17969799041748 70.73040771484375
v 104.89287567138672 -10.17969799041748 70.73040771484375
v 104.2199478149414 -10.17969799041748 70.73040771484375
v 104.21993255615234 -10.179685592651367 74.00208282470703
v 104.21993255615234 -5.978311061859131 72.35224914550781
v 104.89287567138672 -6.433162212371826 73.34722137451172
v 104.21994018554688 -6.433162212371826 73.34722137451172
v 98.66453552246094 -11.568586349487305 68.94878387451172
v 98.66453552246094 -8.785679817199707 68.94879913330078
v 98.51800537109375 -8.93346881866455 69.20260620117188
v 98.51799774169922 -11.568586349487305 69.20260620117188
v 98.32696533203125 -7.510939121246338 69.53348541259766
v 98.20217895507812 -7.822051048278809 69.74962615966797
v 96.73948669433594 -8.785673141479492 72.28308868408203
v 96.7342529296875 -11.568574905395508 72.29215240478516
v 96.88217163085938 -11.568574905395508 72.03594970703125
v 96.88661193847656 -8.93346118927002 72.02825927734375
v 97.9352798461914 -11.568587303161621 68.86616516113281
v 96.29940032958984 -11.568575859069824 71.6994857788086
v 96.88217163085938 -11.568574905395508 72.03594970703125
v 98.51799774169922 -11.568586349487305 69.20260620117188
v 96.62686157226562 -7.822051048278809 71.13236999511719
v 97.70709228515625 -7.367199420928955 70.60714721679688
v 97.20958709716797 -7.822051048278809 71.46883392333984
v 96.30384063720703 -8.93346118927002 71.69181060791016
v 96.88661193847656 -8.93346118927002 72.02825927734375
v 96.88217163085938 -11.568574905395508 72.03594970703125
vn -0.09804122149944305 0.9935712218284607 -0.05660495534539223
vn -0.0742143988609314 0.9963213205337524 -0.04284953698515892
vn -0.1603669375181198 0.986132025718689 -0.04273253679275513
vn -0.21178054809570312 0.9756923317909241 -0.05633378401398659
vn -0.08659149706363678 0.9962438941001892 -0.0000018205804508397705
vn -0.17253249883651733 0.9850038290023804 0
vn -0.11476251482963562 0.9933929443359375 8.298123361782928e-7
vn -0.14788459241390228 0.985312283039093 -0.0853806659579277
vn -0.19482369720935822 0.974367618560791 -0.11247897148132324
vn -0.22800855338573456 0.9736591577529907 0.0000052761438382731285
vn 0.06957799196243286 -0.23967699706554413 0.9683562517166138
vn -0.19878573715686798 -0.2413877546787262 0.9498506188392639
vn -0.25689876079559326 -0.0000023550419427920133 0.9664382934570312
vn 0.013889762572944164 -0.0000024037042294366984 0.9999035596847534
vn 0.47841307520866394 -0.003653652500361204 -0.8781273365020752
vn 0.4999948740005493 -0.23731447756290436 -0.8328787088394165
vn 0.29041117429733276 -0.24813199043273926 -0.9241709113121033
vn 0.2581789195537567 -0.0037589059211313725 -0.9660897850990295
vn -0.44508734345436096 -0.2402971386909485 0.8626439571380615
vn -0.5085633993148804 -0.000004196473128104117 0.8610245585441589
vn 0.0650922879576683 -0.24604161083698273 -0.9670711159706116
vn 0.023424629122018814 -0.003652756568044424 -0.9997189044952393
vn 0.15912139415740967 -0.7013434767723083 0.6948364973068237
vn -0.03247065469622612 -0.7145786285400391 0.6988011598587036
vn -0.19878573715686798 -0.2413877546787262 0.9498506188392639
vn 0.06957799196243286 -0.23967699706554413 0.9683562517166138
vn 0.17015312612056732 -0.8643262982368469 0.4732736647129059
vn 0.06534206867218018 -0.8872931003570557 0.4565538167953491
vn 0.0650922879576683 -0.24604161083698273 -0.9670711159706116
vn 0.29041117429733276 -0.24813199043273926 -0.9241709113121033
vn 0.3014723062515259 -0.7202659845352173 -0.6247650980949402
vn 0.14516623318195343 -0.7265228629112244 -0.6716333031654358
vn 0.26909875869750977 -0.8906638622283936 -0.36647480726242065
vn 0.18114332854747772 -0.8881136775016785 -0.42242303490638733
vn 0.44924628734588623 -0.70290207862854 -0.5514584183692932
vn -0.21023494005203247 -0.7106953859329224 0.6713519096374512
vn -0.44508734345436096 -0.2402971386909485 0.8626439571380615
vn -0.04023953527212143 -0.8997965455055237 0.4344501495361328
vn 0.4999948740005493 -0.23731447756290436 -0.8328787088394165
vn 0.3605824112892151 -0.8895830512046814 -0.2803966999053955
vn 0.8660258054733276 -0.000008218487892008852 0.49999934434890747
vn 0.8660316467285156 0.000004316338618082227 0.49998918175697327
vn 0.866023063659668 0.00000913462008611532 0.5000041127204895
vn -0.48339277505874634 -0.2555413246154785 0.8372753858566284
vn -0.353548139333725 0.7071080803871155 0.6123740077018738
vn -0.5000054240226746 0.000001286803239963774 0.8660222887992859
vn -0.48339951038360596 -0.255536824464798 0.8372728824615479
vn -0.3379870355129242 -0.7369142174720764 0.5854247808456421
vn -0.33798810839653015 -0.7369154095649719 0.585422694683075
vn -0.20870912075042725 -0.9087090492248535 0.36150839924812317
vn -0.0004596034123096615 -0.9999995827674866 0.0007960755028761923
vn -0.000009726371899887454 -0.2618478834629059 -0.9651091694831848
vn -0.000009726371899887454 -0.2618478834629059 -0.9651091694831848
vn -0.000007138221462810179 0.705914318561554 -0.7082971930503845
vn -0.000010077946171804797 -0.0033662281930446625 -0.9999943375587463
vn -0.000004302007710066391 -0.7369155287742615 0.675984799861908
vn -0.000006812588708271505 -0.7369145154953003 0.6759859323501587
vn 6.298749326560937e-7 -0.9999995827674866 0.0009145505027845502
vn 5.723741764995793e-7 -0.9087103605270386 0.4174272418022156
vn 6.806887427046604e-7 -0.25553905963897705 0.966798722743988
vn 0.000009743389455252327 -0.2555435299873352 0.9667975306510925
vn 0.000010078003469971009 -0.0000025735266717674676 1
vn 0 0.7071080803871155 0.7071055173873901
vn -1 0.000015125702702789567 -0.00000175369018506899
vn -1 0.000015125702702789567 -0.00000175369018506899
vn -1 0.0000035305743040225934 -0.000004423861355462577
vn -1 0.0000041803368731052615 -0.0000020997315459680976
vn -1 0 0
vn -1 0 0
vn -1 0 0
vn -1 0 0
vn -1 0 0
vn -1 0 0
vn -1 -0.000002436903741909191 -0.0000012288700190765667
vn -1 -0.000002436903741909191 -0.0000012288700190765667
vn 0.8660258054733276 -0.000008218487892008852 0.49999934434890747
vn -1 -0.000002436903741909191 -0.0000012288700190765667
vn -1 -0.0000051472165978339035 0.0000231401136261411
vn 0 0.7071080803871155 0.7071055173873901
vn -0.11476251482963562 0.9933929443359375 8.298123361782928e-7
vn -0.08659149706363678 0.9962438941001892 -0.0000018205804508397705
vn 0 -0.9094725251197815 -0.41576409339904785
vn 0 -0.7407981753349304 -0.67172771692276
vn -0.0000045713359213550575 -0.7407996654510498 -0.6717260479927063
vn 0.8660293817520142 -0.000002436873501210357 0.49999311566352844
vn 0.8660293817520142 -0.000002436873501210357 0.49999311566352844
vn 0.8660293817520142 -0.000002436873501210357 0.49999311566352844
vn 0.8660302758216858 -0.000002228797029601992 0.4999915361404419
vn 0.8660231828689575 -0.0000015603507108608028 0.5000038146972656
vn 0.8660231828689575 -0.0000015603507108608028 0.5000038146972656
vn 0.866026759147644 -0.0000014033038269190001 0.499997615814209
vn 0.866026759147644 -0.0000014033038269190001 0.499997615814209
vn 0.866026759147644 -0.0000014033038269190001 0.499997615814209
vn 0.8660303950309753 -6.681738682345895e-7 0.49999138712882996
vn -0.353548139333725 0.7071080803871155 0.6123740077018738
vn 0.35414162278175354 0.7059128880500793 -0.6134090423583984
vn -0.0742143988609314 0.9963213205337524 -0.04284953698515892
vn -0.09804122149944305 0.9935712218284607 -0.05660495534539223
vn 0.33584854006767273 -0.7408034801483154 -0.5817353129386902
vn 0.2078808844089508 -0.9094756245613098 -0.3600550889968872
vn 0.33586251735687256 -0.7407972812652588 -0.5817350745201111
vn 0.4825679361820221 -0.2618415951728821 -0.8358033299446106
vn 0.48255905508995056 -0.2618428170681 -0.8358080387115479
vn 0.5000101327896118 -0.003370275953784585 -0.8660129904747009
vt 0.06108725070953369 0.16698598861694336
vt 0.7374194860458374 0.014534294605255127
vt 0.9995002746582031 0.7023276686668396
vt 0.17327558994293213 0.7023278474807739
vt 0.7374169826507568 1.3822271823883057
vt 0.7985713481903076 1.396012306213379
vt 0.06108465790748596 1.22977614402771
vt 0.7985752820968628 0.0007488727569580078
vt 0.0005018413066864014 0.1806420087814331
vt 0.0004992485046386719 1.216119647026062
vt 1.4992496967315674 1
vt 0.760420560836792 1
vt 0.7604204416275024 0.1499999761581421
vt 1.4992507696151733 0.1499999761581421
vt 1.4992507696151733 0.1589999794960022
vt 1.4987177848815918 1
vt 0.7466112375259399 1
vt 0.7466206550598145 0.1589999794960022
vt 0.0007502585649490356 1
vt 0.0007492303848266602 0.1499999761581421
vt 0.0012638121843338013 1
vt 0.0007490962743759155 0.1589999794960022
vt 0 0.30000001192092896
vt 0.75 0.30000001192092896
vt 0.75 0.10000002384185791
vt 0 0.10000002384185791
vt 0 0.550000011920929
vt 0.75 0.550000011920929
vt 0 0.10000002384185791
vt 0.75 0.10000002384185791
vt 0.75 0.3768116235733032
vt 0 0.3768116235733032
vt 0.75 0.550000011920929
vt 0 0.550000011920929
vt 1.5 0.3768116235733032
vt 1.5 0.30000001192092896
vt 1.5 0.10000002384185791
vt 1.5 0.550000011920929
vt 1.5 0.10000002384185791
vt 1.5 0.550000011920929
vt 0.503000020980835 1
vt 0.5030001401901245 0.75
vt 0.6250001192092896 0.75
vt 0.7400000095367432 0.5
vt 0.7400000095367432 0
vt 0.625 0
vt 0.625 0.5
vt 0.625 0.75
vt 0.7400000095367432 0.75
vt 0.625 1
vt 0.7400000095367432 1
vt 0.625 0.5
vt 0.7400000095367432 0.5
vt 0.7400000095367432 0
vt 0.625 0
vt 0.625 0.75
vt 0.7400000095367432 0.75
vt 0.7400000095367432 1
vt 0.625 1
vt 0.625 0.5
vt 0.7400000095367432 0.5
vt 0.625 0
vt 0.7400000095367432 0
vt 0.503000020980835 1
vt 0.625 1
vt 0.625 0.75
vt 0.503000020980835 0.75
vt 0.625 0.5
vt 0.503000020980835 0.5
vt 0.625 0
vt 0.503000020980835 0
vt 0.503000020980835 0.75
vt 0.625 0.75
vt 0.503000020980835 0.5
vt 0.625 0.5
vt 0.625 1
vt 0.503000020980835 0
vt 0.625 0
vt 0.7400000095367432 0.7496240139007568
vt 0.625 0.7496230602264404
vt 0.625 0.0003732442855834961
vt 0.625 1
vt 0.7400000095367432 0.75
vt 0.625 0.75
vt 0.503000020980835 0
vt 0.503000020980835 0.5
vt 0.625 0.5
vt 0.625 0
vt 0.503000020980835 0.75
vt 0.625 0.75
vt 0.5030001401901245 0.5
vt 0.5030001401901245 0
vt 0.6250001192092896 0
vt 0.6250001192092896 0.5
vt 0.7400000095367432 0.75
vt 0.7400000095367432 0
vt 0.6250001192092896 0
vt 0.6250001192092896 0.75
vt 0.7400000095367432 0.75
vt 0.6250001192092896 1
vt 0.6250001192092896 0.75
vt 0.7400000095367432 0.5
vt 0.6250001192092896 0.5
vt 0.6250001192092896 0
g sewer120
s 1
f 1/1/1 2/2/2 3/3/3
f 4/4/4 1/1/1 3/3/3
f 5/5/5 3/3/3 6/6/6
f 4/4/4 3/3/3 7/7/7
f 7/7/7 3/3/3 5/5/5
f 2/2/2 8/8/8 3/3/3
f 1/1/1 4/4/4 9/9/9
f 7/7/7 10/10/10 4/4/4
g sewer121
s 1
f 11/11/11 12/12/12 13/13/13
f 13/13/13 14/14/14 11/11/11
f 15/15/15 16/16/16 17/17/17
f 17/17/17 18/18/18 15/15/15
f 13/13/13 12/12/12 19/19/19
f 19/19/19 20/20/20 13/13/13
f 17/17/17 21/21/21 22/22/22
f 22/22/22 18/18/18 17/17/17
g sewer122
s 1
f 23/23/23 24/24/24 25/25/25
f 25/25/25 26/26/26 23/23/23
f 27/27/27 28/28/28 24/24/24
f 24/24/24 23/23/23 27/27/27
f 29/29/29 30/30/30 31/31/31
f 31/31/31 32/32/32 29/29/29
f 32/32/32 31/31/31 33/33/33
f 33/33/33 34/34/34 32/32/32
f 33/33/33 31/31/31 35/35/35
f 25/25/25 24/24/24 36/36/36
f 36/36/36 37/37/37 25/25/25
f 24/24/24 28/28/28 38/38/38
f 38/38/38 36/36/36 24/24/24
f 31/31/31 30/30/30 39/39/39
f 39/39/39 35/35/35 31/31/31
f 35/35/35 40/40/40 33/33/33
g sewer123
s 1
f 41/41/41 42/42/42 43/43/43
f 44/44/44 45/45/45 46/46/46
f 47/47/47 48/48/48 49/49/49
f 49/49/49 44/44/44 47/47/47
f 48/48/48 50/50/50 51/51/51
f 52/52/52 53/53/53 54/54/54
f 54/54/54 55/55/55 52/52/52
f 56/56/56 57/57/57 58/58/58
f 58/58/58 59/59/59 56/56/56
f 60/60/60 61/61/61 57/57/57
f 57/57/57 56/56/56 60/60/60
f 62/62/62 63/63/63 61/61/61
f 61/61/61 60/60/60 62/62/62
f 64/64/64 65/65/65 66/66/66
f 66/66/66 67/67/67 64/64/64
f 67/67/67 66/66/66 68/68/68
f 68/68/68 69/69/69 67/67/67
f 69/69/69 68/68/68 70/70/70
f 70/70/70 71/71/71 69/69/69
f 72/72/72 73/73/73 65/65/65
f 65/65/65 64/64/64 72/72/72
f 74/74/74 75/75/75 73/73/73
f 73/73/73 72/72/72 74/74/74
f 46/46/46 47/47/47 44/44/44
f 43/43/43 76/76/76 41/41/41
f 77/77/77 78/78/78 75/75/75
f 79/79/79 80/80/80 81/81/81
f 82/82/82 58/58/58 83/83/83
f 83/83/83 84/84/84 82/82/82
f 84/84/84 83/83/83 53/53/53
f 81/81/81 54/54/54 79/79/79
f 53/53/53 52/52/52 84/84/84
f 85/85/85 86/86/86 87/87/87
f 87/87/87 88/88/88 85/85/85
f 86/86/86 89/89/89 90/90/90
f 90/90/90 87/87/87 86/86/86
f 89/89/89 41/41/41 76/76/76
f 76/76/76 90/90/90 89/89/89
f 91/91/91 92/92/92 93/93/93
f 93/93/93 94/94/94 91/91/91
f 95/95/95 96/96/96 97/97/97
f 97/97/97 98/98/98 95/95/95
f 42/42/42 91/91/91 94/94/94
f 94/94/94 43/43/43 42/42/42
f 99/99/99 51/51/51 100/100/100
f 100/100/100 101/101/101 99/99/99
f 102/102/102 99/99/99 101/101/101
f 101/101/101 103/103/103 102/102/102
f 96/96/96 102/102/102 103/103/103
f 103/103/103 104/104/104 96/96/96
f 51/51/51 49/49/49 48/48/48
f 75/75/75 74/74/74 77/77/77
