# Exported using wow.export v0.2.19
o 20736_entry02.obj
v 212.50051879882812 -0.27015283703804016 7.16228723526001
v 215.0172119140625 -0.2701529264450073 6.450952529907227
v 212.50045776367188 -0.27015262842178345 5.739621162414551
v 217.53392028808594 -0.2701532542705536 5.73961877822876
v 217.5339813232422 -0.2701532542705536 7.162283897399902
v 215.01718139648438 -0.2701529264450073 5.739620208740234
v 210.69895935058594 -0.27015283703804016 7.94251012802124
v 210.69895935058594 -0.2701532542705536 10.459238052368164
v 211.21408081054688 -0.27015388011932373 10.459238052368164
v 211.7292022705078 -0.27015453577041626 12.975966453552246
v 210.69895935058594 -0.270153671503067 12.975966453552246
v 211.7292022705078 -0.27015411853790283 7.94251012802124
v 212.1148681640625 -0.2701537013053894 10.069127082824707
v 215.01724243164062 -0.2701537013053894 10.069127082824707
v 211.7292022705078 -0.27015432715415955 10.459238052368164
v 214.631591796875 -0.27015453577041626 12.975966453552246
v 217.5339813232422 -0.27015453577041626 12.975966453552246
v 215.01724243164062 -0.2701530456542969 7.162285804748535
v 217.5339813232422 -0.27015388011932373 10.069125175476074
v 213.37322998046875 -0.27015411853790283 11.522546768188477
v 211.7203369140625 7.1615729331970215 13.756192207336426
v 210.69895935058594 7.1615729331970215 13.75615119934082
v 211.2096405029297 7.16157341003418 10.459218978881836
v 218.3141632080078 7.16157341003418 12.107709884643555
v 218.31195068359375 5.685532569885254 12.107709884643555
v 218.31304931640625 6.423552513122559 12.931947708129883
v 214.19302368164062 7.16157341003418 12.931951522827148
v 213.36878967285156 7.16157341003418 12.107715606689453
v 215.01724243164062 7.16157341003418 12.10771369934082
v 215.01724243164062 7.1615729331970215 13.75618839263916
v 213.36878967285156 7.1615729331970215 13.756190299987793
v 216.66571044921875 7.16157341003418 12.107711791992188
v 215.8414764404297 7.16157341003418 11.283474922180176
v 215.01724243164062 7.16157341003418 10.459238052368164
v 216.66571044921875 7.16157341003418 10.459236145019531
v 217.48992919921875 7.16157341003418 9.634997367858887
v 216.66571044921875 7.161573886871338 8.810760498046875
v 218.3141632080078 7.161573886871338 8.810758590698242
v 218.3141632080078 7.16157341003418 10.459234237670898
v 214.19300842285156 7.16157341003418 9.635000228881836
v 213.36878967285156 7.16157341003418 10.45923900604248
v 213.3687744140625 7.161573886871338 8.810762405395508
v 215.01724243164062 7.161573886871338 8.810762405395508
v 215.01724243164062 7.1615729331970215 13.75618839263916
v 216.66571044921875 7.1615729331970215 13.756186485290527
v 215.84259033203125 6.423552513122559 13.756186485290527
v 216.6679229736328 5.685532569885254 13.756184577941895
v 215.01947021484375 5.685532569885254 13.756186485290527
v 215.7352752685547 4.2094926834106445 13.756184577941895
v 215.8448028564453 4.947512626647949 13.756184577941895
v 215.0216827392578 4.2094926834106445 13.756184577941895
v 217.02471923828125 5.685532569885254 13.756184577941895
v 217.4910430908203 6.423552513122559 13.756184577941895
v 218.3141632080078 7.1615729331970215 13.756184577941895
v 214.0890350341797 2.733452320098877 13.756184577941895
v 214.1985626220703 3.4714725017547607 13.756184577941895
v 213.3754425048828 2.733452320098877 13.756184577941895
v 213.37322998046875 4.2094926834106445 13.756186485290527
v 214.19635009765625 4.947512626647949 13.756186485290527
v 213.37100219726562 5.685532569885254 13.75618839263916
v 213.36878967285156 7.1615729331970215 13.756190299987793
v 214.19412231445312 6.423552513122559 13.75618839263916
v 217.48992919921875 7.16157341003418 12.931947708129883
v 218.3141632080078 7.16157341003418 12.107709884643555
v 218.3141632080078 7.1615729331970215 13.756184577941895
v 216.66571044921875 7.1615729331970215 13.756186485290527
v 218.3074951171875 2.7334518432617188 12.107709884643555
v 218.3074951171875 2.733452081680298 10.459236145019531
v 218.30528259277344 1.2574114799499512 10.459236145019531
v 218.30972290039062 4.2094926834106445 10.459236145019531
v 218.3074951171875 2.733452320098877 8.810761451721191
v 218.30972290039062 4.209493160247803 7.162285804748535
v 218.30972290039062 4.2094926834106445 8.810760498046875
v 218.31195068359375 5.68553352355957 8.810760498046875
v 218.30972290039062 4.209492206573486 13.756184577941895
v 218.30972290039062 4.2094926834106445 12.107709884643555
v 218.30972290039062 4.209491729736328 13.756184577941895
v 218.31195068359375 5.685532569885254 13.756184577941895
v 218.31195068359375 5.685532569885254 13.756184577941895
v 211.7203369140625 7.1615729331970215 13.756192207336426
v 218.3141632080078 7.161574363708496 7.162283897399902
v 218.3141632080078 7.161573886871338 8.810758590698242
v 218.3141632080078 7.161574363708496 7.162283897399902
v 211.7203369140625 7.16157341003418 10.459239959716797
v 215.01724243164062 7.161574363708496 7.162285804748535
v 214.44583129882812 2.733452320098877 13.756184577941895
v 213.15638732910156 1.2574117183685303 13.756184577941895
v 215.7308349609375 1.2574114799499512 13.756184577941895
v 215.73306274414062 2.733452081680298 13.756184577941895
v 217.02027893066406 2.7334518432617188 13.756184577941895
v 211.72476196289062 4.2094926834106445 13.75618839263916
v 218.30528259277344 1.2574111223220825 13.756184577941895
v 218.30528259277344 1.2574117183685303 7.16228723526001
v 217.66943359375 6.423552513122559 13.756184577941895
v 211.72032165527344 7.161574363708496 7.16228723526001
v 210.69895935058594 7.161573886871338 7.162324905395508
v 210.69895935058594 7.16157341003418 10.459238052368164
v 211.7292022705078 1.2574119567871094 13.756184577941895
v 218.30528259277344 1.2574111223220825 13.756184577941895
v 218.3096923828125 4.209493160247803 6.450950622558594
v 215.01722717285156 7.161574840545654 6.450950622558594
v 218.3141632080078 7.1615729331970215 13.756184577941895
v 218.31304931640625 6.423552989959717 11.283472061157227
v 218.31195068359375 5.685533046722412 10.459235191345215
v 218.3141632080078 7.16157341003418 10.459234237670898
v 218.3108367919922 4.947512626647949 11.283473014831543
v 218.3108367919922 4.947513103485107 9.634998321533203
v 218.31304931640625 6.423553466796875 9.634997367858887
v 218.30860900878906 3.4714722633361816 11.283473014831543
v 211.7202911376953 7.1615753173828125 5.739617347717285
v 215.0172119140625 7.1615753173828125 5.739615440368652
v 218.3141326904297 7.1615753173828125 5.739614009857178
v 218.3096923828125 4.209493637084961 5.739615440368652
v 218.3141326904297 7.1615753173828125 5.739614009857178
v 218.30523681640625 1.2574119567871094 5.739617347717285
v 210.69895935058594 1.2574125528335571 7.17120885848999
v 210.69895935058594 0.690100371837616 7.766345500946045
v 211.7292022705078 1.2574125528335571 7.16228723526001
v 211.72032165527344 7.161574363708496 7.16228723526001
v 211.72474670410156 4.209494113922119 6.450952529907227
v 211.7202911376953 7.1615753173828125 5.739617347717285
v 217.71009826660156 0.6900997161865234 5.739618301391602
v 217.53392028808594 -0.2701532542705536 5.73961877822876
v 217.71014404296875 0.6900995373725891 7.162283897399902
v 211.7247314453125 4.209494113922119 5.739619255065918
v 211.72032165527344 7.161574363708496 7.16228723526001
v 210.69895935058594 7.161573886871338 7.162324905395508
v 211.21408081054688 4.209493160247803 7.16230583190918
v 217.71014404296875 0.69009929895401 13.152127265930176
v 218.30528259277344 1.2574111223220825 13.756184577941895
v 218.00772094726562 0.9737553596496582 10.459234237670898
v 211.7292022705078 1.2574125528335571 7.16228723526001
v 218.30528259277344 1.2574117183685303 7.16228723526001
v 210.69895935058594 1.2574125528335571 7.17120885848999
v 211.7292022705078 1.2574125528335571 7.16228723526001
v 217.5339813232422 -0.27015453577041626 12.975966453552246
v 217.6220703125 0.20997300744056702 10.157205581665039
v 210.69895935058594 1.2574121952056885 13.74726676940918
v 211.21408081054688 4.2094926834106445 13.756168365478516
v 211.7292022705078 1.2574119567871094 13.756184577941895
v 215.32347106933594 -0.07773272693157196 13.011266708374023
v 215.4871368408203 0.20997226238250732 13.064046859741211
v 217.5339813232422 -0.27015453577041626 12.975966453552246
v 213.44029235839844 0.6900990605354309 13.152127265930176
v 215.57522583007812 0.6900991797447205 13.152127265930176
v 217.5339813232422 -0.2701532542705536 7.162283897399902
v 215.43325805664062 0.9737554788589478 13.454155921936035
v 217.71014404296875 0.69009929895401 13.152127265930176
v 213.15638732910156 1.2574117183685303 13.756184577941895
v 215.7308349609375 1.2574114799499512 13.756184577941895
v 211.7291717529297 1.2574130296707153 5.739620685577393
v 217.71014404296875 0.6900994181632996 10.157205581665039
v 210.69895935058594 4.2094926834106445 13.751708984375
v 210.69895935058594 7.1615729331970215 13.75615119934082
v 210.69895935058594 4.209493160247803 7.166767120361328
v 211.72476196289062 4.209493637084961 7.16228723526001
v 211.72476196289062 4.209493637084961 7.16228723526001
v 212.6215362548828 0.6900990605354309 13.152127265930176
v 213.1129608154297 0.11468908935785294 13.0465669631958
v 211.7292022705078 0.6900990605354309 13.152127265930176
v 211.7292022705078 1.2574119567871094 13.756184577941895
v 212.3242950439453 0.6901007890701294 5.739620685577393
v 211.7291717529297 1.2574130296707153 5.739620685577393
v 212.3243408203125 0.690100371837616 7.16228723526001
v 211.7203369140625 7.1615729331970215 13.756192207336426
v 217.5339813232422 -0.27015388011932373 10.069125175476074
v 211.7292022705078 -0.27015453577041626 12.975966453552246
v 214.631591796875 -0.27015453577041626 12.975966453552246
v 210.69895935058594 1.2574121952056885 13.74726676940918
v 210.69895935058594 0.6900999546051025 13.152127265930176
v 211.72476196289062 4.2094926834106445 13.75618839263916
v 210.69895935058594 -0.270153671503067 12.975966453552246
v 218.30528259277344 1.2574114799499512 10.459236145019531
v 211.7292022705078 0.6900995373725891 7.766345500946045
v 218.30528259277344 1.2574111223220825 13.756184577941895
v 212.50051879882812 -0.27015283703804016 7.16228723526001
v 212.50045776367188 -0.27015262842178345 5.739621162414551
v 218.30523681640625 1.2574119567871094 5.739617347717285
v 210.69895935058594 -0.27015283703804016 7.94251012802124
v 211.7292022705078 -0.27015411853790283 7.94251012802124
v 212.1784210205078 -0.427360475063324 12.935956001281738
v 212.24990844726562 -0.06999906152486801 12.920546531677246
v 212.37109375 -0.1275426298379898 12.639022827148438
v 215.5666046142578 -0.10341755300760269 11.577153205871582
v 215.73104858398438 0.33772435784339905 11.474005699157715
v 215.36671447753906 0.46532386541366577 11.008688926696777
v 215.82568359375 0.35784855484962463 10.734742164611816
v 215.38845825195312 -0.05810515955090523 10.243817329406738
v 215.0481719970703 0.24153760075569153 10.576371192932129
v 212.7813262939453 -0.05269087851047516 12.469991683959961
v 212.903564453125 -0.3512834906578064 12.380176544189453
v 212.5118408203125 -0.32090407609939575 12.326077461242676
v 215.61289978027344 -0.48659881949424744 11.083066940307617
v 215.8509979248047 -0.569255530834198 10.561782836914062
v 216.13778686523438 -0.5045693516731262 10.93838882446289
v 216.43502807617188 -0.18796607851982117 10.802586555480957
v 216.32545471191406 0.16993533074855804 11.312250137329102
v 216.0071563720703 -0.25275495648384094 11.415666580200195
v 215.34423828125 -0.07341835647821426 11.18527603149414
v 215.04359436035156 -0.28226521611213684 10.841723442077637
v 215.29299926757812 -0.5478702187538147 10.526474952697754
v 212.48411560058594 -0.03226812556385994 12.400626182556152
v 212.9317626953125 -0.06437119096517563 12.780138969421387
v 213.06182861328125 -0.31166762113571167 12.737504005432129
v 216.08175659179688 -0.15230992436408997 10.310790061950684
v 212.7958984375 -0.09581446647644043 13.042134284973145
v 212.87628173828125 -0.420562207698822 13.04684829711914
v 212.4632110595703 -0.045001640915870667 13.12897777557373
v 212.45263671875 -0.4004252552986145 13.150639533996582
v 212.61004638671875 -0.5473119616508484 12.717991828918457
v 212.3022003173828 -0.47090455889701843 12.599225997924805
v 213.15638732910156 1.2574117183685303 13.756184577941895
v 213.44029235839844 0.6900990605354309 13.152127265930176
v 213.08279418945312 0.350049763917923 13.752180099487305
v 213.1129608154297 0.11468908935785294 13.0465669631958
v 212.6215362548828 0.6900990605354309 13.152127265930176
v 212.6082305908203 0.03350596874952316 12.763886451721191
vn 8.420792596552928e-8 1 5.958568749520055e-7
vn 0.34039825201034546 0.940281331539154 -8.412872887220146e-8
vn 0.6401401162147522 0.7682582139968872 -4.5613779775521834e-7
vn -0.6401347517967224 0.7682626843452454 -3.495053135793569e-7
vn 1.6841525507516053e-7 1 2.9792843747600273e-7
vn 0.000003491275492706336 0.9999999403953552 -5.243293799139792e-7
vn -9.023176517075626e-7 0.7682592868804932 0.6401388049125671
vn -9.98665314000391e-7 1 -0.0000010085931307912688
vn 1.0139799400121774e-7 0.940281331539154 -0.34039828181266785
vn 0 1 2.916261792051955e-7
vn -6.321487262539449e-7 0.7682579755783081 -0.6401403546333313
vn 8.228340107052645e-7 1 8.420759201044348e-8
vn 4.210396298276464e-8 1 4.437415270786005e-7
vn 4.210396298276464e-8 1 4.437415270786005e-7
vn 4.1141700535263226e-7 1 1.8791688205510582e-7
vn 0 1 2.916261792051955e-7
vn 0 1 2.916261792051955e-7
vn 1.263115905203449e-7 1 4.468926704248588e-7
vn 8.420762753758027e-8 1 2.947772941297444e-7
vn 2.105198149138232e-8 1 3.676838673527527e-7
vn -1.3222200569672216e-13 -1 -2.5711943862916087e-7
vn -0.000028757367545040324 -0.7071062922477722 -0.7071072459220886
vn -0.00001556337701913435 -0.9238794445991516 -0.38268372416496277
vn -0.9999988675117493 0.0015047003980726004 2.901659468257378e-10
vn -0.9999988675117493 0.0015047003980726004 4.5827577843660094e-10
vn -0.9999988675117493 0.0015047003980726004 4.225818583947216e-10
vn -1.4874992242727009e-13 -1 -2.2497954432765255e-7
vn -9.916650427254162e-14 -1 -1.9283957897187065e-7
vn -1.3222216832704803e-13 -1 -1.9283960739358008e-7
vn -1.9833334735826214e-13 -1 -2.5711949547257973e-7
vn -1.6527767652749215e-13 -1 -2.571194670508703e-7
vn -1.6527783915781802e-13 -1 -1.9283965002614423e-7
vn -1.1569442777935313e-13 -1 -1.6069968467036233e-7
vn -6.611100284836108e-14 -1 -1.2855971931458043e-7
vn -9.916667367913107e-14 -1 -1.2855974773628986e-7
vn -8.263891957890901e-14 -1 -9.641982501307211e-8
vn -3.305550142418054e-14 -1 -6.427985965729022e-8
vn -6.611117225495053e-14 -1 -6.4279895184427e-8
vn -1.3222234450990106e-13 -1 -1.28559790368854e-7
vn -4.958325213627081e-14 -1 -9.641978948593533e-8
vn -6.611100284836108e-14 -1 -1.2855971931458043e-7
vn -3.305550142418054e-14 -1 -6.427985965729022e-8
vn -3.305550142418054e-14 -1 -6.427985965729022e-8
vn 0.000019405279090278782 0.0000011777824511227664 -1
vn 0.000009188394869852345 0.0000011624325679804315 -1
vn 0.000014296836525318213 0.00000117010745270818 -1
vn 0.000009188394869852345 0.0000011624325679804315 -1
vn 0.000019405279090278782 0.0000011777824511227664 -1
vn -5.142445616002078e-7 5.735413424190483e-7 -1
vn 0.000014296836525318213 0.00000117010745270818 -1
vn 0.000019405279090278782 0.0000011777824511227664 -1
vn -7.713668424003117e-7 8.603120136285725e-7 -1
vn 0.000004079952759639127 0.000001154757683252683 -1
vn -0.0000010284891232004156 0.0000011470826848380966 -1
vn 0.000009702639545139391 5.888912255613832e-7 -1
vn 0.000024513719836249948 0.0000011854574495373527 -1
vn 0.000029622162401210517 0.000001193132447951939 -1
vn 0.000029622162401210517 0.000001193132447951939 -1
vn 0.000024513719836249948 0.0000011854574495373527 -1
vn 0.000029622162401210517 0.000001193132447951939 -1
vn 0.000029622162401210517 0.000001193132447951939 -1
vn 0.000024513719836249948 0.0000011854574495373527 -1
vn -2.1486126408881007e-13 -1 -2.2497961538192612e-7
vn -1.98333509988588e-13 -1 -1.9283967844785366e-7
vn -2.644446890198021e-13 -1 -2.57119580737708e-7
vn -2.313890181890321e-13 -1 -2.571195523159986e-7
vn -0.9999988675117493 0.001504700630903244 3.373733514777655e-10
vn -0.9999988675117493 0.0015047003980726004 4.692124466743053e-10
vn -0.9999988675117493 0.0015047005144879222 4.0876124707267536e-10
vn -0.9999988675117493 0.0015047003980726004 5.296636462759352e-10
vn -0.9999988675117493 0.0015047003980726004 6.010515418708451e-10
vn -0.9999988675117493 0.0015047003980726004 3.362197187328775e-10
vn -0.9999988675117493 0.0015047003980726004 4.3294168250440634e-10
vn -0.9999988675117493 0.0015047003980726004 2.648318231379676e-10
vn -0.9999988675117493 0.001504700630903244 2.6598551139400683e-10
vn -0.9999988675117493 0.0015047005144879222 3.97824578834971e-10
vn -5.142445616002078e-7 5.735413424190483e-7 -1
vn -7.713668424003117e-7 8.603120136285725e-7 -1
vn -0.9999988675117493 0.0015047005144879222 3.2643671099563676e-10
vn 0.000039839047531131655 0.0000012084823310942738 -1
vn -0.9999988675117493 0.0015047005144879222 0
vn -0.9999988675117493 0.0015047003980726004 9.672197764931667e-11
vn 0 -1 0
vn -6.611100284836108e-14 -1 -1.2855971931458043e-7
vn 0 -1 0
vn -2.571222808001039e-7 2.8677067120952415e-7 -1
vn 0 0 -1
vn 0 0 -1
vn -2.571222808001039e-7 2.8677067120952415e-7 -1
vn -2.571222808001039e-7 2.8677067120952415e-7 -1
vn 0.000039839047531131655 0.0000012084823310942738 -1
vn -0.9999988675117493 0.0015047007473185658 1.4508308443517137e-10
vn -0.9999988675117493 0.0015047002816572785 6.72439437465755e-10
vn -8.999279543786542e-7 0.000001003697320811625 -1
vn 0 -1 0
vn -0.00002641015817061998 -0.7071068286895752 0.7071067690849304
vn -0.00003900934098055586 -0.9999999403953552 -3.3717486758177984e-7
vn 0.000039839047531131655 0.0000012084823310942738 -1
vn 0 0 -1
vn -0.9793731570243835 0.20205996930599213 -6.06947381243117e-8
vn -0.3830314874649048 -0.9237353205680847 -5.792615831445858e-10
vn -0.9999988675117493 0.0015047003980726004 3.868879105972667e-10
vn -0.9999988675117493 0.0015047003980726004 3.2585986686761714e-10
vn -0.9999988675117493 0.0015047003980726004 3.6155378690949647e-10
vn -0.9999988675117493 0.0015047003980726004 1.9344395529863334e-10
vn -0.9999988675117493 0.0015047003980726004 4.939696984784803e-10
vn -0.9999988675117493 0.0015047003980726004 3.972477347069514e-10
vn -0.9999988675117493 0.0015047003980726004 2.2913788921830047e-10
vn -0.9999988675117493 0.0015047005144879222 4.3351849887685034e-10
vn 0.7076385617256165 -0.706574559211731 0
vn -5.905006332795892e-7 -1 -7.572939497713094e-10
vn -0.7076393961906433 -0.7065737843513489 -1.0701687314096375e-9
vn -0.9820771217346191 -0.1884796917438507 -7.244778288395537e-8
vn -0.7076393961906433 -0.7065737843513489 -1.0701687314096375e-9
vn -0.9189380407333374 0.3944019675254822 -1.1892236528865396e-7
vn -0.007957277819514275 0.39439359307289124 0.9189071655273438
vn -3.9946996821527136e-7 0.4786336421966553 0.8780146837234497
vn 0.4649297297000885 0.7565690279006958 0.45983007550239563
vn 0.9999988675117493 0.0015047005144879222 0
vn 0.9243108630180359 -0.38164055347442627 4.853057955500617e-10
vn 0.7076385617256165 -0.706574559211731 0
vn -0.879784345626831 0.4753729999065399 -1.4302315776149044e-7
vn -0.6401347517967224 0.7682626843452454 -3.495053135793569e-7
vn -0.879784882068634 0.4753720164299011 2.1244022718747146e-7
vn 0.98207688331604 -0.18848077952861786 -7.68814842899701e-8
vn 0.0000365196137863677 5.495114407949586e-8 1
vn -0.00002641015817061998 -0.7071068286895752 0.7071067690849304
vn 0.000005471198164741509 -0.3826834261417389 0.9238795638084412
vn -0.8797848224639893 0.47537216544151306 1.6819221571040543e-8
vn -0.6899775266647339 0.7238308191299438 6.979168176712847e-8
vn -0.7946517467498779 0.6070654988288879 1.428726221774923e-7
vn 0.9999988675117493 0.0015047008637338877 8.965883591116608e-10
vn -0.6899775266647339 0.7238308191299438 3.2347463729820447e-7
vn -0.007957277819514275 0.39439359307289124 0.9189071655273438
vn 0.0000365196137863677 5.495114407949586e-8 1
vn -0.983585774898529 0.18044131994247437 3.9466033996404803e-8
vn -0.9432832598686218 0.33198878169059753 3.572823459307983e-8
vn -0.00795433297753334 0.3943949043750763 -0.9189066290855408
vn 0.00000599736267758999 -0.38268256187438965 -0.9238799214363098
vn 0.000039839047531131655 0.0000012084823310942738 -1
vn -0.02819954603910446 0.45986872911453247 -0.8875390291213989
vn -0.27602455019950867 0.33686140179634094 -0.9001860618591309
vn -8.955908903374166e-9 0.1804405003786087 -0.9835858941078186
vn -0.5223453640937805 0.4570317566394806 -0.7199147939682007
vn -0.2714923322200775 0.4863171875476837 -0.8305345177650452
vn -0.9835857152938843 0.18044151365756989 5.375865796963808e-8
vn -0.025712745264172554 0.4309313893318176 -0.9020183086395264
vn -2.3756218325843292e-8 0.4786319136619568 -0.8780156373977661
vn -0.05133514851331711 0.38171714544296265 -0.9228525161743164
vn -0.02626517042517662 0.5682538747787476 -0.8224339485168457
vn 0.9189384579658508 0.3944009244441986 -1.2733590892821667e-7
vn -0.8797849416732788 0.4753721356391907 1.146297421428244e-7
vn -0.004821201786398888 -0.18885476887226105 -0.9819931983947754
vn -0.000028757367545040324 -0.7071062922477722 -0.7071072459220886
vn -0.004821561276912689 -0.1888558268547058 0.9819930195808411
vn 0.0000365196137863677 5.495114407949586e-8 1
vn 0.9999988675117493 0.001504700630903244 4.482941795558304e-10
vn 0.45957812666893005 0.4603930711746216 -0.7594907283782959
vn -0.05391469597816467 0.6987823843955994 -0.7132996320724487
vn 3.9383451166941086e-7 0.478631854057312 -0.8780156970024109
vn 5.997881658004189e-7 0.7289297580718994 -0.6845884919166565
vn 0.8797876238822937 0.4753669500350952 -1.5280079423973802e-7
vn 0.9189384579658508 0.3944009244441986 -1.2733590892821667e-7
vn 0.8199949860572815 0.4531387984752655 0.349676251411438
vn 0.000039839047531131655 0.0000012084823310942738 -1
vn -0.9835858345031738 0.18044142425060272 4.66123530884488e-8
vn 1.4847259421912895e-7 0.1804405301809311 -0.9835858941078186
vn 6.97583431019666e-8 0.1804405152797699 -0.9835858941078186
vn -0.00795433297753334 0.3943949043750763 -0.9189066290855408
vn -3.938345400911203e-7 0.478631854057312 -0.8780156970024109
vn 0.000039839047531131655 0.0000012084823310942738 -1
vn -6.321487262539449e-7 0.7682579755783081 -0.6401403546333313
vn -0.6899775266647339 0.7238308191299438 1.966331524272391e-7
vn 0.3559909462928772 0.45593056082725525 0.8157191872596741
vn 9.000788026014561e-8 0.7289303541183472 -0.684587836265564
vn 0.9113300442695618 0.1671912968158722 0.3761976361274719
vn 0.6401401162147522 0.7682582139968872 -4.5613779775521834e-7
vn -0.9189380407333374 0.3944019675254822 -1.1892236528865396e-7
vn -9.023176517075626e-7 0.7682592868804932 0.6401388049125671
vn 0.3822985887527466 0.16673792898654938 0.9088708758354187
vn -0.7368239760398865 -0.6247270703315735 0.2584696412086487
vn -0.7698974013328552 0.59661465883255 0.22651472687721252
vn -0.7701754570007324 0.5669980645179749 -0.29213523864746094
vn -0.5259543657302856 -0.18766292929649353 0.8295508623123169
vn 0.08639432489871979 0.4911893308162689 0.8667578101158142
vn -0.4466661512851715 0.8539626598358154 0.2669029235839844
vn 0.22891433537006378 0.8545745611190796 -0.46615511178970337
vn -0.38822445273399353 0.1388869732618332 -0.9110390543937683
vn -0.6281554698944092 0.6458969712257385 -0.4338637590408325
vn 0.3801950216293335 0.7006752490997314 -0.6037432551383972
vn 0.5563591122627258 -0.372014582157135 -0.7430139183998108
vn -0.13998904824256897 -0.06273195892572403 -0.9881638288497925
vn -0.2985113859176636 -0.8223409056663513 0.48440316319465637
vn 0.34760013222694397 -0.826327919960022 -0.443121075630188
vn 0.42892834544181824 -0.8762503862380981 0.2195579707622528
vn 0.8820671439170837 -0.39744213223457336 -0.2529768943786621
vn 0.7646609544754028 0.4686289131641388 0.44235798716545105
vn 0.34400808811187744 -0.4740283787250519 0.8105279207229614
vn -0.7925594449043274 -0.1627846658229828 0.5876654386520386
vn -0.9071564674377441 -0.397344172000885 0.13850902020931244
vn -0.43732190132141113 -0.8456904292106628 -0.30587130784988403
vn -0.5325145721435547 0.6403018236160278 -0.553571879863739
vn 0.6317813396453857 0.772249698638916 0.0669533982872963
vn 0.9783571362495422 0.051179587841033936 0.20049430429935455
vn 0.5042338371276855 0.062128737568855286 -0.8613293766975403
vn 0.6058638691902161 0.4522900879383087 0.6544942259788513
vn 0.5498299598693848 -0.5403454899787903 0.6369565725326538
vn -0.15227369964122772 0.6932259798049927 0.7044504880905151
vn -0.31926634907722473 -0.44363948702812195 0.8374084830284119
vn 0.02719060331583023 -0.9993498921394348 0.023675154894590378
vn -0.6907419562339783 -0.5337805151939392 -0.48780515789985657
vn -0.05133514851331711 0.38171714544296265 -0.9228525161743164
vn -0.5223453640937805 0.4570317566394806 -0.7199147939682007
vn -0.10600548982620239 0.6147294044494629 -0.7815821170806885
vn -0.05391469597816467 0.6987823843955994 -0.7132996320724487
vn 0.45957812666893005 0.4603930711746216 -0.7594907283782959
vn -0.1044677197933197 0.9937897324562073 -0.03832085803151131
vt -0.6770830154418945 -9.376260757446289
vt -0.5917224287986755 -9.678268432617188
vt -0.5063620805740356 -9.376261711120605
vt -0.506361722946167 -9.980276107788086
vt -0.6770827770233154 -9.980276107788086
vt -0.5063619017601013 -9.678268432617188
vt -0.7707096338272095 -9.160076141357422
vt -1.0727170705795288 -9.160076141357422
vt -1.0727171897888184 -9.22188949584961
vt -1.3747245073318481 -9.283703804016113
vt -1.3747245073318481 -9.160076141357422
vt -0.770709753036499 -9.283703804016113
vt -1.0259037017822266 -9.32998275756836
vt -1.0259038209915161 -9.678268432617188
vt -1.0727171897888184 -9.283703804016113
vt -1.3747246265411377 -9.631990432739258
vt -1.3747246265411377 -9.980276107788086
vt -0.677082896232605 -9.678268432617188
vt -1.0259037017822266 -9.980276107788086
vt -1.2003141641616821 -9.480985641479492
vt 0.0014985501766204834 1.3863428831100464
vt 0.0015030205249786377 1.4947574138641357
vt 0.3603333532810211 1.4405503273010254
vt 0.2738834321498871 0.9995002448558807
vt 0.27388328313827515 0.749750018119812
vt 0.13727380335330963 0.8746250867843628
vt 0.0912068709731102 1.1238751411437988
vt 0.18091492354869843 1.211364358663559
vt 0.18091505765914917 1.0363858789205551
vt 0.0014988183975219727 1.0363859236240387
vt 0.001498684287071228 1.2113644033670425
vt 0.18091519176959991 0.8614073991775513
vt 0.27062323689460754 0.9488966166973114
vt 0.36033129692077637 1.0363858342170715
vt 0.3603314161300659 0.8614073544740677
vt 0.4500395953655243 0.773918092250824
vt 0.5397476553916931 0.8614073097705841
vt 0.5397477746009827 0.6864288449287415
vt 0.36033153533935547 0.6864288747310638
vt 0.4500393867492676 1.1238751858472824
vt 0.3603312373161316 1.2113644480705261
vt 0.5397474765777588 1.2113645374774933
vt 0.5397475957870483 1.0363859236240387
vt 0.5 0.9995005130767822
vt 0.7497502565383911 0.9995005130767822
vt 0.6250431537628174 0.8746253997087479
vt 0.7500863671302795 0.7497502863407135
vt 0.5003361701965332 0.7497502863407135
vt 0.6087846159934998 0.5000000298023224
vt 0.6253793239593506 0.6248751878738403
vt 0.5006722807884216 0.5000000596046448
vt 0.8041425347328186 0.7497502565383911
vt 0.8747934103012085 0.8746253997087479
vt 0.9995004534721375 0.9995005130767822
vt 0.35937049984931946 0.25024980306625366
vt 0.3759652376174927 0.3751249313354492
vt 0.2512581944465637 0.25024986267089844
vt 0.2509220242500305 0.5000000596046448
vt 0.37562909722328186 0.6248751878738403
vt 0.2505859136581421 0.7497502863407135
vt 0.2502497732639313 0.9995005130767822
vt 0.37529295682907104 0.8746253997087479
vt 0.09120713919401169 0.7739181816577911
vt 0.18091531097888947 0.6864289045333862
vt 0.001499086618423462 0.686428964138031
vt 0.0014989525079727173 0.8614074438810349
vt 0.27388328313827515 0.2502496838569641
vt 0.5471022725105286 0.2502497434616089
vt 0.5471022725105286 0.0004995465278625488
vt 0.5471022725105286 0.49999988079071045
vt 0.8203212022781372 0.2502497434616089
vt 1.0935404300689697 0.5000000596046448
vt 0.8203213214874268 0.5
vt 0.8203215599060059 0.7497501969337463
vt 0.000664317631162703 0.4999998211860657
vt 0.27388328313827515 0.49999988079071045
vt 0.9988272190093994 0.5
vt 0.9991638660430908 0.7497502565383911
vt 0.000664317631162703 0.7497499883174896
vt 0.0004995465278625488 0.9995005130767822
vt 1.0935407876968384 0.9995005130767822
vt 0.8203216791152954 0.9995004236698151
vt 0.7191640138626099 0.6864287853240967
vt 0.36033114790916443 1.3863430619239807
vt 0.7191638946533203 1.0363860130310059
vt 0.4134266972541809 0.25024980306625366
vt 0.21806873381137848 0.0004995465278625488
vt 0.6081113815307617 0.0004994869232177734
vt 0.6084480285644531 0.2502497434616089
vt 0.8034693002700806 0.2502497434616089
vt 0.0011718124151229858 0.5000000596046448
vt 0.000664317631162703 0.0004994869232177734
vt 1.0935401916503906 0.0004996061325073242
vt 0.901821494102478 0.8746253848075867
vt 0.719163715839386 1.386343240737915
vt 0.719159722328186 1.4947571754455566
vt 0.36033138632774353 1.4947572946548462
vt 0.0018440783023834229 0.0004996061325073242
vt 0.9981540441513062 0.0004994869232177734
vt 1.2114379405975342 0.5000001192092896
vt 0.7965841293334961 1.0363860130310059
vt 0.000664317631162703 0.9995001554489136
vt 0.4104928970336914 0.87462517619133
vt 0.5471023917198181 0.7497501075267792
vt 0.5471025109291077 0.9995003342628479
vt 0.41049277782440186 0.6248749494552612
vt 0.6837118864059448 0.6248750388622284
vt 0.6837120056152344 0.8746252655982971
vt 0.41049277782440186 0.37512481212615967
vt 0.8740044236183167 1.386343240737915
vt 0.8740044832229614 1.0363860130310059
vt 1.3293356895446777 0.9995005130767822
vt 1.3293354511260986 0.5000001192092896
vt 0.874004602432251 0.6864287853240967
vt 1.32933509349823 0.000499725341796875
vt 0.5 0.5
vt 0.625 0.5
vt 0.5 0.2739194631576538
vt 0.625 0.9995004534721375
vt 0.6875 0.5000000298023224
vt 0.75 0.9995004534721375
vt 0.625 0.2497539520263672
vt 0.75 0.2497539520263672
vt 0.625 0.5600103735923767
vt 0.75 0.5000000894069672
vt 0.625 0.9995004534721375
vt 0.5099999904632568 0.9995002746582031
vt 0.5674999952316284 0.4999999403953552
vt 0.625 1.8662726879119873
vt 0.5 1.998005747795105
vt 0.5625 1.2790080904960632
vt 0.625 0.0004996061325073242
vt 0.5 0.560011088848114
vt 0.5099999904632568 0.0004996061325073242
vt 0.625 0.0004996061325073242
vt 0.75 1.8278557062149048
vt 0.6875 1.2131415605545044
vt 0.7400000095367432 0.0004994869232177734
vt 0.6825000047683716 0.5
vt 0.625 0.0004994869232177734
vt 0.7249516844749451 0.7598414421081543
vt 0.6875 0.7867113649845123
vt 0.75 1.1227473020553589
vt 0.625 0.45067542791366577
vt 0.625 0.8011721670627594
vt 0.75 0.5600104331970215
vt 0.5625 0.7778671979904175
vt 0.625 1.151668906211853
vt 0.5 0.40406548976898193
vt 0.5 0.8267205357551575
vt 0.75 0.000499725341796875
vt 0.625 1.2131415605545044
vt 0.7400000095367432 0.5
vt 0.7400000095367432 0.9995004534721375
vt 0.5099999904632568 0.4999999403953552
vt 0.625 0.5000000298023224
vt 0.625 0.5000000298023224
vt 0.625 0.3162592649459839
vt 0.6999033689498901 0.3969355821609497
vt 0.625 0.16976094245910645
vt 0.5 0.1697617769241333
vt 0.625 0
vt 0.5 0
vt 0.625 0.19968414306640625
vt 0.625 0.9995005130767822
vt 0.75 1.1939330697059631
vt 0.75 0.16976088285446167
vt 0.75 0.6462540924549103
vt 0.5 0.0006244182586669922
vt 0.625 0.0006244182586669922
vt 0.625 0.5
vt 0.75 0.0006243586540222168
vt 0.5 1.279008388519287
vt 0.625 0.3492683172225952
vt 0.5 1.249375581741333
vt 0.75 0.17770999670028687
vt 0.75 0
vt 0.5 0.2497546672821045
vt 0.75 0.5
vt 0.75 0.3712424039840698
vt 0.5504607558250427 0.9592701196670532
vt 0.6577818989753723 0.8546850681304932
vt 0.7519882917404175 0.8629186153411865
vt 0.8386870622634888 0.8575859069824219
vt 0.922797441482544 0.9360105991363525
vt 0.7354500889778137 0.9806897640228271
vt 0.7476167678833008 0.7703075408935547
vt 0.5155683755874634 0.7366398572921753
vt 0.5505090951919556 0.9530624151229858
vt 0.8601342439651489 0.7522011995315552
vt 0.9874593019485474 0.7071424722671509
vt 0.9227491617202759 0.9422183036804199
vt 0.75626540184021 0.7526224255561829
vt 0.6994045972824097 0.644260823726654
vt 0.7935161590576172 0.6426200866699219
vt 0.8589262962341309 0.5087505578994751
vt 0.9875075817108154 0.7009347677230835
vt 0.860182523727417 0.7459934949874878
vt 0.7520365715026855 0.8567109107971191
vt 0.6578302383422852 0.848477303981781
vt 0.6300488710403442 0.7406067848205566
vt 0.8386387825012207 0.863793671131134
vt 0.7934678792953491 0.648827850818634
vt 0.8588778972625732 0.5149582624435425
vt 0.6627787947654724 0.5283098220825195
vt 0.6993562579154968 0.6504685878753662
vt 0.6627304553985596 0.5345175266265869
vt 0.6300005912780762 0.746814489364624
vt 0.5155200362205505 0.7428475618362427
vt 0.7475684285163879 0.7765152454376221
vt 0.7354017496109009 0.9868974685668945
vt 0.6545338034629822 0.971936821937561
vt 0.5646262764930725 0.7095974087715149
vt 0.692308247089386 0.7445287704467773
vt 0.7405557036399841 0.5556864738464355
vt 0.980876624584198 0.7360150814056396
vt 0.7562170028686523 0.758830189704895
g entry020
s 1
f 1/1/1 2/2/2 3/3/3
f 4/4/4 2/2/2 5/5/5
f 6/6/6 3/3/3 2/2/2
f 7/7/7 8/8/8 9/9/9
f 10/10/10 9/9/9 11/11/11
f 7/7/7 9/9/9 12/12/12
f 12/12/12 13/13/13 1/1/1
f 13/13/13 14/14/14 1/1/1
f 8/8/8 11/11/11 9/9/9
f 10/10/10 15/15/15 9/9/9
f 15/15/15 12/12/12 9/9/9
f 12/12/12 15/15/15 13/13/13
f 15/15/15 10/10/10 13/13/13
f 4/4/4 6/6/6 2/2/2
f 16/16/16 17/17/17 14/14/14
f 5/5/5 18/18/18 14/14/14
f 18/18/18 1/1/1 14/14/14
f 1/1/1 18/18/18 2/2/2
f 18/18/18 5/5/5 2/2/2
f 19/19/19 14/14/14 17/17/17
f 5/5/5 14/14/14 19/19/19
f 10/10/10 20/20/20 13/13/13
f 20/20/20 14/14/14 13/13/13
f 20/20/20 16/16/16 14/14/14
f 10/10/10 16/16/16 20/20/20
g entry021
s 1
f 21/21/21 22/22/22 23/23/23
f 24/24/24 25/25/25 26/26/26
f 27/27/27 28/28/28 29/29/29
f 30/30/30 27/27/27 29/29/29
f 30/30/30 31/31/31 27/27/27
f 27/27/27 31/31/31 28/28/28
f 32/32/32 29/29/29 33/33/33
f 33/33/33 29/29/29 34/34/34
f 33/33/33 34/34/34 35/35/35
f 32/32/32 33/33/33 35/35/35
f 36/36/36 37/37/37 38/38/38
f 39/39/39 36/36/36 38/38/38
f 39/39/39 35/35/35 36/36/36
f 36/36/36 35/35/35 37/37/37
f 40/40/40 34/34/34 41/41/41
f 42/42/42 40/40/40 41/41/41
f 42/42/42 43/43/43 40/40/40
f 40/40/40 43/43/43 34/34/34
f 44/44/44 45/45/45 46/46/46
f 46/46/46 45/45/45 47/47/47
f 46/46/46 47/47/47 48/48/48
f 44/44/44 46/46/46 48/48/48
f 49/49/49 50/50/50 47/47/47
f 49/49/49 51/51/51 50/50/50
f 48/48/48 50/50/50 51/51/51
f 48/48/48 47/47/47 50/50/50
f 52/52/52 47/47/47 53/53/53
f 45/45/45 53/53/53 47/47/47
f 45/45/45 54/54/54 53/53/53
f 55/55/55 56/56/56 51/51/51
f 55/55/55 57/57/57 56/56/56
f 58/58/58 56/56/56 57/57/57
f 58/58/58 51/51/51 56/56/56
f 59/59/59 51/51/51 58/58/58
f 60/60/60 59/59/59 58/58/58
f 60/60/60 48/48/48 59/59/59
f 59/59/59 48/48/48 51/51/51
f 61/61/61 62/62/62 60/60/60
f 61/61/61 44/44/44 62/62/62
f 62/62/62 44/44/44 48/48/48
f 60/60/60 62/62/62 48/48/48
f 63/63/63 32/32/32 64/64/64
f 65/65/65 63/63/63 64/64/64
f 65/65/65 66/66/66 63/63/63
f 63/63/63 66/66/66 32/32/32
f 67/67/67 68/68/68 69/69/69
f 68/68/68 70/70/70 71/71/71
f 69/69/69 68/68/68 71/71/71
f 72/72/72 71/71/71 73/73/73
f 73/73/73 71/71/71 70/70/70
f 74/74/74 72/72/72 73/73/73
f 67/67/67 75/75/75 76/76/76
f 75/75/75 25/25/25 76/76/76
f 77/77/77 52/52/52 78/78/78
f 75/75/75 79/79/79 25/25/25
f 64/64/64 32/32/32 39/39/39
f 32/32/32 30/30/30 29/29/29
f 29/29/29 28/28/28 34/34/34
f 80/80/80 61/61/61 60/60/60
f 31/31/31 21/21/21 28/28/28
f 81/81/81 74/74/74 82/82/82
f 38/38/38 37/37/37 83/83/83
f 32/32/32 35/35/35 39/39/39
f 35/35/35 34/34/34 37/37/37
f 41/41/41 34/34/34 28/28/28
f 84/84/84 41/41/41 28/28/28
f 42/42/42 41/41/41 84/84/84
f 85/85/85 37/37/37 43/43/43
f 43/43/43 37/37/37 34/34/34
f 42/42/42 85/85/85 43/43/43
f 55/55/55 51/51/51 86/86/86
f 87/87/87 55/55/55 86/86/86
f 87/87/87 57/57/57 55/55/55
f 88/88/88 86/86/86 89/89/89
f 89/89/89 86/86/86 49/49/49
f 90/90/90 89/89/89 49/49/49
f 90/90/90 88/88/88 89/89/89
f 66/66/66 30/30/30 32/32/32
f 60/60/60 58/58/58 91/91/91
f 91/91/91 58/58/58 57/57/57
f 49/49/49 47/47/47 52/52/52
f 77/77/77 49/49/49 52/52/52
f 80/80/80 60/60/60 91/91/91
f 92/92/92 67/67/67 69/69/69
f 92/92/92 75/75/75 67/67/67
f 69/69/69 71/71/71 93/93/93
f 72/72/72 93/93/93 71/71/71
f 81/81/81 72/72/72 74/74/74
f 84/84/84 28/28/28 21/21/21
f 85/85/85 83/83/83 37/37/37
f 52/52/52 53/53/53 94/94/94
f 95/95/95 85/85/85 42/42/42
f 96/96/96 23/23/23 97/97/97
f 97/97/97 23/23/23 22/22/22
f 91/91/91 57/57/57 98/98/98
f 87/87/87 98/98/98 57/57/57
f 86/86/86 51/51/51 49/49/49
f 88/88/88 87/87/87 86/86/86
f 90/90/90 49/49/49 77/77/77
f 99/99/99 90/90/90 77/77/77
f 99/99/99 88/88/88 90/90/90
f 72/72/72 81/81/81 100/100/100
f 93/93/93 72/72/72 100/100/100
f 21/21/21 23/23/23 84/84/84
f 84/84/84 23/23/23 95/95/95
f 85/85/85 95/95/95 101/101/101
f 83/83/83 85/85/85 101/101/101
f 96/96/96 95/95/95 23/23/23
f 24/24/24 26/26/26 102/102/102
f 79/79/79 102/102/102 26/26/26
f 79/79/79 26/26/26 25/25/25
f 103/103/103 104/104/104 25/25/25
f 105/105/105 104/104/104 103/103/103
f 105/105/105 103/103/103 24/24/24
f 103/103/103 25/25/25 24/24/24
f 104/104/104 70/70/70 106/106/106
f 104/104/104 106/106/106 25/25/25
f 76/76/76 25/25/25 106/106/106
f 76/76/76 106/106/106 70/70/70
f 74/74/74 107/107/107 104/104/104
f 107/107/107 70/70/70 104/104/104
f 107/107/107 73/73/73 70/70/70
f 74/74/74 73/73/73 107/107/107
f 108/108/108 104/104/104 105/105/105
f 74/74/74 104/104/104 108/108/108
f 82/82/82 74/74/74 108/108/108
f 82/82/82 108/108/108 105/105/105
f 109/109/109 76/76/76 70/70/70
f 67/67/67 76/76/76 109/109/109
f 67/67/67 109/109/109 68/68/68
f 109/109/109 70/70/70 68/68/68
f 78/78/78 52/52/52 94/94/94
f 78/78/78 94/94/94 54/54/54
f 94/94/94 53/53/53 54/54/54
f 95/95/95 42/42/42 84/84/84
f 110/110/110 111/111/111 95/95/95
f 112/112/112 113/113/113 81/81/81
f 83/83/83 101/101/101 114/114/114
f 111/111/111 114/114/114 101/101/101
f 111/111/111 101/101/101 95/95/95
f 93/93/93 100/100/100 115/115/115
f 113/113/113 115/115/115 100/100/100
f 113/113/113 100/100/100 81/81/81
g entry022
s 1
f 116/116/116 117/117/117 118/118/118
f 119/119/119 120/120/120 121/121/121
f 122/122/122 123/123/123 124/124/124
f 125/125/125 121/121/121 120/120/120
f 126/126/126 127/127/127 128/128/128
f 129/129/129 130/130/130 131/131/131
f 125/125/125 120/120/120 132/132/132
f 133/133/133 124/124/124 131/131/131
f 134/134/134 135/135/135 128/128/128
f 136/136/136 129/129/129 137/137/137
f 138/138/138 139/139/139 140/140/140
f 141/141/141 142/142/142 143/143/143
f 141/141/141 144/144/144 142/142/142
f 145/145/145 142/142/142 144/144/144
f 145/145/145 143/143/143 142/142/142
f 124/124/124 146/146/146 137/137/137
f 145/145/145 147/147/147 148/148/148
f 145/145/145 149/149/149 147/147/147
f 150/150/150 147/147/147 149/149/149
f 150/150/150 148/148/148 147/147/147
f 151/151/151 125/125/125 132/132/132
f 129/129/129 131/131/131 152/152/152
f 152/152/152 131/131/131 124/124/124
f 124/124/124 137/137/137 152/152/152
f 152/152/152 137/137/137 129/129/129
f 153/153/153 154/154/154 139/139/139
f 138/138/138 153/153/153 139/139/139
f 134/134/134 128/128/128 155/155/155
f 155/155/155 128/128/128 127/127/127
f 126/126/126 128/128/128 156/156/156
f 156/156/156 128/128/128 135/135/135
f 157/157/157 132/132/132 120/120/120
f 119/119/119 157/157/157 120/120/120
f 158/158/158 159/159/159 160/160/160
f 160/160/160 161/161/161 158/158/158
f 162/162/162 163/163/163 164/164/164
f 165/165/165 139/139/139 154/154/154
f 136/136/136 137/137/137 166/166/166
f 166/166/166 137/137/137 146/146/146
f 167/167/167 160/160/160 159/159/159
f 167/167/167 141/141/141 168/168/168
f 168/168/168 141/141/141 143/143/143
f 169/169/169 161/161/161 170/170/170
f 160/160/160 170/170/170 161/161/161
f 171/171/171 140/140/140 139/139/139
f 165/165/165 171/171/171 139/139/139
f 167/167/167 172/172/172 160/160/160
f 170/170/170 160/160/160 172/172/172
f 133/133/133 131/131/131 173/173/173
f 173/173/173 131/131/131 130/130/130
f 164/164/164 118/118/118 174/174/174
f 146/146/146 124/124/124 123/123/123
f 175/175/175 148/148/148 150/150/150
f 149/149/149 158/158/158 161/161/161
f 164/164/164 176/176/176 162/162/162
f 177/177/177 162/162/162 176/176/176
f 144/144/144 149/149/149 145/145/145
f 118/118/118 164/164/164 163/163/163
f 148/148/148 143/143/143 145/145/145
f 124/124/124 133/133/133 122/122/122
f 159/159/159 144/144/144 141/141/141
f 167/167/167 159/159/159 141/141/141
f 178/178/178 122/122/122 133/133/133
f 117/117/117 179/179/179 174/174/174
f 180/180/180 174/174/174 179/179/179
f 174/174/174 180/180/180 164/164/164
f 176/176/176 164/164/164 180/180/180
f 174/174/174 118/118/118 117/117/117
g entry023
s 1
f 181/181/181 182/182/182 183/183/183
f 184/184/184 185/185/185 186/186/186
f 187/187/187 188/188/188 189/189/189
f 190/190/190 191/191/191 192/192/192
f 193/193/193 194/194/194 195/195/195
f 195/195/195 196/196/196 197/197/197
f 193/193/193 195/195/195 198/198/198
f 193/193/193 198/198/198 184/184/184
f 193/193/193 184/184/184 199/199/199
f 189/189/189 200/200/200 199/199/199
f 193/193/193 200/200/200 201/201/201
f 192/192/192 202/202/202 190/190/190
f 199/199/199 186/186/186 189/189/189
f 188/188/188 201/201/201 200/200/200
f 203/203/203 204/204/204 191/191/191
f 200/200/200 189/189/189 188/188/188
f 187/187/187 205/205/205 188/188/188
f 191/191/191 190/190/190 203/203/203
f 206/206/206 207/207/207 204/204/204
f 205/205/205 194/194/194 201/201/201
f 204/204/204 203/203/203 206/206/206
f 187/187/187 196/196/196 205/205/205
f 193/193/193 199/199/199 200/200/200
f 187/187/187 197/197/197 196/196/196
f 187/187/187 185/185/185 197/197/197
f 208/208/208 209/209/209 207/207/207
f 210/210/210 211/211/211 192/192/192
f 210/210/210 209/209/209 181/181/181
f 210/210/210 192/192/192 191/191/191
f 201/201/201 188/188/188 205/205/205
f 207/207/207 206/206/206 208/208/208
f 182/182/182 181/181/181 209/209/209
f 209/209/209 208/208/208 182/182/182
f 210/210/210 181/181/181 211/211/211
f 210/210/210 191/191/191 204/204/204
f 210/210/210 204/204/204 207/207/207
f 187/187/187 186/186/186 185/185/185
f 183/183/183 211/211/211 181/181/181
f 211/211/211 183/183/183 202/202/202
f 193/193/193 201/201/201 194/194/194
f 187/187/187 189/189/189 186/186/186
f 196/196/196 195/195/195 194/194/194
f 212/212/212 213/213/213 214/214/214
f 213/213/213 215/215/215 214/214/214
f 215/215/215 216/216/216 214/214/214
f 216/216/216 212/212/212 214/214/214
f 217/217/217 183/183/183 182/182/182
f 217/217/217 182/182/182 208/208/208
f 217/217/217 208/208/208 206/206/206
f 186/186/186 199/199/199 184/184/184
f 217/217/217 206/206/206 203/203/203
f 217/217/217 203/203/203 190/190/190
f 217/217/217 190/190/190 202/202/202
f 217/217/217 202/202/202 183/183/183
f 198/198/198 197/197/197 185/185/185
f 202/202/202 192/192/192 211/211/211
f 210/210/210 207/207/207 209/209/209
f 197/197/197 198/198/198 195/195/195
f 194/194/194 205/205/205 196/196/196
f 185/185/185 184/184/184 198/198/198
