# Exported using wow.export v0.2.19
o 20736_Canal11e.obj
v -4.691995620727539 -116.30656433105469 -169.92477416992188
v -6.187111854553223 -115.73492431640625 -170.71217346191406
v -4.498620986938477 -115.16328430175781 -170.64645385742188
v -1.2252265214920044 -119.51787567138672 -176.49563598632812
v -2.8170347213745117 -119.51787567138672 -176.9221954345703
v -2.0388171672821045 -120.09886169433594 -176.64291381835938
v -2.852407932281494 -120.67984008789062 -176.79017639160156
v -8.892053604125977 -120.09886169433594 -170.16806030273438
v -8.078459739685059 -120.67984008789062 -170.02081298828125
v -9.670262336730957 -120.67984008789062 -170.4473876953125
v -9.705648422241211 -119.51787567138672 -170.31532287597656
v -8.113845825195312 -119.51787567138672 -169.88876342773438
v -7.300251007080078 -120.09886169433594 -169.74151611328125
v -6.522042274475098 -119.51787567138672 -169.4622039794922
v -6.486656188964844 -120.67984008789062 -169.59426879882812
v -8.856668472290039 -121.26081848144531 -170.3001251220703
v -9.634876251220703 -121.841796875 -170.57943725585938
v -8.043073654174805 -121.841796875 -170.1528778076172
v -7.264864921569824 -121.26081848144531 -169.87356567382812
v -6.451270580291748 -121.841796875 -169.726318359375
v -8.821281433105469 -122.42277526855469 -170.43218994140625
v -8.00768756866455 -123.00375366210938 -170.28494262695312
v -9.599491119384766 -123.00375366210938 -170.71148681640625
v -7.22947883605957 -122.42277526855469 -170.00563049316406
v -6.415875434875488 -123.0037612915039 -169.85841369628906
v -1.2605998516082764 -120.67984008789062 -176.36361694335938
v -2.074190616607666 -121.26081848144531 -176.51089477539062
v -1.2959730625152588 -121.84180450439453 -176.23159790039062
v -2.8877811431884766 -121.84180450439453 -176.6581573486328
v -2.1095638275146484 -122.42279052734375 -176.37887573242188
v -2.923154354095459 -123.00376892089844 -176.52615356445312
v -1.3313462734222412 -123.00376892089844 -176.09957885742188
v -6.84963321685791 -121.26081848144531 -177.7904815673828
v -6.03602409362793 -120.67984008789062 -177.64328002929688
v -7.6278510093688965 -120.67984008789062 -178.06976318359375
v -7.663242816925049 -121.84180450439453 -177.93768310546875
v -6.071415901184082 -121.84180450439453 -177.51119995117188
v -6.106807708740234 -123.00376892089844 -177.37911987304688
v -6.8850250244140625 -122.42279052734375 -177.6584014892578
v -7.698634624481201 -123.00376892089844 -177.80560302734375
v -4.081249237060547 -121.26081848144531 -169.02047729492188
v -4.894853115081787 -120.67984008789062 -169.16769409179688
v -3.3030405044555664 -120.67984008789062 -168.74118041992188
v -3.2676453590393066 -121.84180450439453 -168.87326049804688
v -4.859457969665527 -121.841796875 -169.29978942871094
v -7.1940836906433105 -123.5847396850586 -170.13772583007812
v -6.38047981262207 -124.16572570800781 -169.99050903320312
v -7.972292423248291 -124.16572570800781 -170.41702270507812
v -4.010458946228027 -123.58474731445312 -169.28466796875
v -4.824062824249268 -123.00376892089844 -169.431884765625
v -3.232250213623047 -123.00376892089844 -169.00535583496094
v -3.196855068206787 -124.16573333740234 -169.137451171875
v -4.788667678833008 -124.16572570800781 -169.56398010253906
v -6.920416831970215 -123.58474731445312 -177.52630615234375
v -7.7340264320373535 -124.16573333740234 -177.6735076904297
v -6.142199516296387 -124.16573333740234 -177.2470245361328
v -2.144937038421631 -123.58474731445312 -176.24685668945312
v -1.3667196035385132 -124.16573333740234 -175.9675750732422
v -2.9585464000701904 -124.16573333740234 -176.39405822753906
v -4.045854091644287 -122.42279052734375 -169.15257263183594
v -5.637666702270508 -122.42278289794922 -169.5791015625
v -8.785896301269531 -123.58473205566406 -170.56423950195312
v -9.564105033874512 -124.16571807861328 -170.8435516357422
v -4.116644382476807 -120.09886169433594 -168.88839721679688
v -3.3384358882904053 -119.51787567138672 -168.6090850830078
v -4.930239200592041 -119.51787567138672 -169.03564453125
v -5.708447456359863 -120.09886169433594 -169.31494140625
v -6.814241409301758 -120.09886169433594 -177.92257690429688
v -7.592459201812744 -119.51787567138672 -178.2018585205078
v -6.0006513595581055 -119.51787567138672 -177.77529907226562
v -9.564094543457031 -116.87820434570312 -170.84361267089844
v -7.972290515899658 -116.87820434570312 -170.41705322265625
v -8.785886764526367 -117.20816040039062 -170.56430053710938
v -8.007678985595703 -117.53812408447266 -170.28497314453125
v -9.634871482849121 -118.19804382324219 -170.5794677734375
v -8.078455924987793 -118.85795593261719 -170.02084350585938
v -8.856663703918457 -118.52799987792969 -170.30014038085938
v -4.116642951965332 -119.18791198730469 -168.88839721679688
v -4.89484977722168 -118.85795593261719 -169.167724609375
v -3.2676572799682617 -118.19804382324219 -168.87322998046875
v -4.824070930480957 -117.53812408447266 -169.43185424804688
v -4.045864105224609 -117.86808013916016 -169.15255737304688
v -3.1968789100646973 -116.87820434570312 -169.1373748779297
v -6.8142499923706055 -119.18791198730469 -177.92254638671875
v -6.036040306091309 -118.85795593261719 -177.64321899414062
v -7.663237571716309 -118.19804382324219 -177.93771362304688
v -6.380486488342285 -116.87820434570312 -169.99049377441406
v -4.78868293762207 -116.87820434570312 -169.56393432617188
v -5.602278709411621 -117.20816040039062 -169.711181640625
v -6.451263427734375 -118.19804382324219 -169.72634887695312
v -6.88502836227417 -117.86808013916016 -177.65838623046875
v -7.734016418457031 -116.87820434570312 -177.67355346679688
v -6.106819152832031 -117.53812408447266 -177.3790740966797
v -7.300249099731445 -119.18791198730469 -169.74151611328125
v -8.384906768798828 -113.71066284179688 -175.24440002441406
v -7.655041694641113 -113.49042510986328 -174.78466796875
v -8.649059295654297 -112.82969665527344 -174.25857543945312
v -6.66102409362793 -114.15115356445312 -175.31076049804688
v -6.92517614364624 -113.27018737792969 -174.32493591308594
v -3.944437265396118 -116.5923843383789 -169.53106689453125
v -3.0035042762756348 -115.73492431640625 -169.8590545654297
v -3.7510626316070557 -115.44911193847656 -170.25274658203125
v -2.8101296424865723 -114.5916519165039 -170.5807342529297
v -9.177355766296387 -114.59163665771484 -172.2869415283203
v -8.623164176940918 -116.02074432373047 -171.1715850830078
v -7.682233810424805 -115.16328430175781 -171.4995574951172
v -7.875603199005127 -116.30656433105469 -170.77789306640625
v -7.9273858070373535 -115.73492431640625 -176.95188903808594
v -7.179824352264404 -115.4490966796875 -176.55819702148438
v -8.120755195617676 -114.59163665771484 -176.230224609375
v -6.238893508911133 -116.30656433105469 -176.88616943359375
v -6.432263374328613 -115.16328430175781 -176.1645050048828
v -2.852424144744873 -118.85795593261719 -176.7901153564453
v -4.408843040466309 -119.51787567138672 -177.3487548828125
v -4.479589462280273 -121.84180450439453 -177.084716796875
v -4.550373077392578 -124.16573333740234 -176.82054138183594
v -5.673056602478027 -118.52799987792969 -169.44703674316406
v -7.229471206665039 -117.86808776855469 -170.0056610107422
v -2.95859432220459 -116.87820434570312 -176.39389038085938
v -1.3667871952056885 -116.87821197509766 -175.9673309326172
v -3.05527925491333 -116.30656433105469 -176.03305053710938
v -4.55040168762207 -116.87820434570312 -176.8204345703125
v -2.9232044219970703 -117.53813171386719 -176.52597045898438
v -4.4019365310668945 -114.59164428710938 -171.00729370117188
v -5.993742942810059 -114.59164428710938 -171.433837890625
v -4.269861221313477 -114.15116882324219 -171.50018310546875
v -6.528947830200195 -114.59164428710938 -175.8036651611328
v -4.937140941619873 -114.59164428710938 -175.37710571289062
v -6.142209053039551 -116.87820434570312 -177.2469940185547
v -7.585549354553223 -114.59164428710938 -171.86038208007812
v -7.453474521636963 -114.15115356445312 -172.35330200195312
v -3.3453338146209717 -114.59164428710938 -174.9505615234375
v -1.7535266876220703 -114.5916519165039 -174.5240020751953
v -3.477409839630127 -114.15116882324219 -174.4576416015625
v -3.2486488819122314 -115.16328430175781 -175.3114013671875
v -4.479621410369873 -118.19804382324219 -177.0845947265625
v -7.189326286315918 -113.27018737792969 -173.339111328125
v -5.729593276977539 -113.71067810058594 -172.41964721679688
v -5.465444564819336 -112.82970428466797 -173.40545654296875
v -4.005711555480957 -113.27019500732422 -172.48599243164062
v -2.281830310821533 -112.8297119140625 -172.55235290527344
v -5.201292991638184 -113.71067810058594 -174.39129638671875
v -3.7415616512298584 -113.27019500732422 -173.47183227539062
v -5.465444564819336 -112.82970428466797 -173.40545654296875
v -4.743771076202393 -115.73492431640625 -176.09878540039062
v -8.649059295654297 -112.82969665527344 -174.25857543945312
v -7.972292423248291 -124.16572570800781 -170.41702270507812
v -6.947626113891602 -124.16572570800781 -171.05751037597656
v -7.514772891998291 -124.16572570800781 -172.12451171875
v -2.848933696746826 -124.16573333740234 -173.61952209472656
v -3.8736140727996826 -124.16573333740234 -172.97900390625
v -2.281787395477295 -124.16573333740234 -172.55252075195312
v -1.8242535591125488 -124.16573333740234 -174.26004028320312
v -3.4160802364349365 -124.16573333740234 -174.6865234375
v -7.057253360748291 -124.16572570800781 -173.83200073242188
v -6.032587051391602 -124.16573333740234 -174.4724884033203
v -6.599733352661133 -124.16573333740234 -175.53948974609375
v -5.46544075012207 -124.16573333740234 -173.40548706054688
v -5.007906913757324 -124.16573333740234 -175.11300659179688
v -4.440760612487793 -124.16573333740234 -174.04600524902344
v -4.788667678833008 -124.16572570800781 -169.56398010253906
v -3.7640016078948975 -124.16573333740234 -170.2044677734375
v -4.331148147583008 -124.16573333740234 -171.27146911621094
v -3.196855068206787 -124.16573333740234 -169.137451171875
v -2.739321231842041 -124.16573333740234 -170.84498596191406
v -5.92296028137207 -124.16572570800781 -171.697998046875
v -4.898294448852539 -124.16573333740234 -172.33847045898438
v -3.3064677715301514 -124.16573333740234 -171.9119873046875
v -8.191546440124512 -124.16572570800781 -175.9660186767578
v -7.166879653930664 -124.16573333740234 -176.60650634765625
v -7.7340264320373535 -124.16573333740234 -177.6735076904297
v -6.142199516296387 -124.16573333740234 -177.2470245361328
v -2.39139986038208 -124.16573333740234 -175.32705688476562
v -1.3667196035385132 -124.16573333740234 -175.9675750732422
v -2.9585461616516113 -124.16573333740234 -176.39405822753906
v -4.550373077392578 -124.16573333740234 -176.82054138183594
v -8.649065971374512 -124.16572570800781 -174.25852966308594
v -7.624399662017822 -124.16572570800781 -174.89901733398438
v -9.106585502624512 -124.16572570800781 -172.55104064941406
v -8.08191967010498 -124.16572570800781 -173.1915283203125
v -9.564105033874512 -124.16571807861328 -170.8435516357422
v -8.53943920135498 -124.16572570800781 -171.48403930664062
v -6.490106582641602 -124.16572570800781 -172.76499938964844
v -5.355813980102539 -124.16572570800781 -170.6309814453125
v -6.38047981262207 -124.16572570800781 -169.99050903320312
vn 0.30637308955192566 -0.45853298902511597 -0.8341959714889526
vn 0.20869815349578857 -0.5308077335357666 -0.8213942050933838
vn 0.27601179480552673 -0.59637850522995 -0.7537572979927063
vn -0.07455585896968842 -0.04296809062361717 0.9962906837463379
vn -0.1677270382642746 -0.04354182630777359 0.9848714470863342
vn -0.10757122188806534 0.06591825932264328 0.9920095801353455
vn -0.13919197022914886 0.17395001649856567 0.974867582321167
vn 0.09686975181102753 0.0637689083814621 -0.9932520985603333
vn 0.11973422020673752 0.1700182557106018 -0.9781398177146912
vn 0.015005165711045265 0.16292761266231537 -0.9865239262580872
vn 0.07283898442983627 -0.04324819892644882 -0.9964056015014648
vn 0.16597828269004822 -0.04415279999375343 -0.9851404428482056
vn 0.19025424122810364 0.06319252401590347 -0.979698896408081
vn 0.2576565444469452 -0.04466874524950981 -0.9652035236358643
vn 0.2143757939338684 0.169258713722229 -0.9619742631912231
vn 0.03842419385910034 0.2680228352546692 -0.9626460075378418
vn -0.043518152087926865 0.36161676049232483 -0.9313106536865234
vn 0.058993861079216 0.3703323304653168 -0.9270241856575012
vn 0.14115704596042633 0.2742205560207367 -0.9512506127357483
vn 0.16088035702705383 0.37512123584747314 -0.9129083156585693
vn -0.019580457359552383 0.46151453256607056 -0.8869165182113647
vn 0.004602452740073204 0.5556325316429138 -0.8314152359962463
vn -0.10004177689552307 0.5436892509460449 -0.8333028554916382
vn 0.08340766280889511 0.4691242575645447 -0.8791847229003906
vn 0.1553095281124115 0.5730633735656738 -0.8046597838401794
vn -0.034209948033094406 0.16749528050422668 0.9852791428565979
vn -0.06625782698392868 0.27423977851867676 0.9593761563301086
vn 0.007711119018495083 0.3702465295791626 0.9289014935493469
vn -0.09496763348579407 0.3780783414840698 0.9208897948265076
vn -0.024161001667380333 0.47130540013313293 0.8816391229629517
vn -0.05570785328745842 0.5660192370414734 0.8225076198577881
vn 0.04927713796496391 0.5559502243995667 0.8297536373138428
vn -0.41909554600715637 0.27112847566604614 0.8665149211883545
vn -0.3257102370262146 0.1747235357761383 0.9291849136352539
vn -0.4802391231060028 0.16305352747440338 0.8618491888046265
vn -0.5032849907875061 0.36158427596092224 0.7848318219184875
vn -0.3548007309436798 0.37687328457832336 0.8556185364723206
vn -0.35290154814720154 0.5644440650939941 0.7462327480316162
vn -0.43162858486175537 0.46683791279792786 0.7718542814254761
vn -0.5032415986061096 0.5435265302658081 0.6718086004257202
vn 0.39328157901763916 0.2731277346611023 -0.8779127597808838
vn 0.30691850185394287 0.17073410749435425 -0.9362963438034058
vn 0.46304255723953247 0.166433647274971 -0.8705695867538452
vn 0.47124746441841125 0.36968961358070374 -0.8007842302322388
vn 0.32045742869377136 0.3775821328163147 -0.8687570691108704
vn 0.07400112599134445 0.6556859016418457 -0.751398503780365
vn 0.14182880520820618 0.7418195009231567 -0.655430018901825
vn -0.005127630662173033 0.7295280694961548 -0.6839316487312317
vn 0.3671503961086273 0.64886474609375 -0.666464626789093
vn 0.30403244495391846 0.5684100985527039 -0.7645091414451599
vn 0.4576570391654968 0.5558473467826843 -0.6939623355865479
vn 0.4228997826576233 0.7162969708442688 -0.5550445318222046
vn 0.2855856418609619 0.7373756766319275 -0.6121420860290527
vn -0.4208605885505676 0.6391012072563171 0.6437593102455139
vn -0.4801108241081238 0.7005333304405212 0.5279646515846252
vn -0.34644046425819397 0.7292611002922058 0.5900484919548035
vn 0.016558390110731125 0.6459211111068726 0.7632246613502502
vn 0.08857424557209015 0.7160557508468628 0.6924006938934326
vn -0.058855798095464706 0.7371108531951904 0.6732039451599121
vn 0.3910156488418579 0.47313451766967773 -0.7894622087478638
vn 0.2348126918077469 0.4765477180480957 -0.8472102880477905
vn -0.07427628338336945 0.6332641243934631 -0.7703632116317749
vn -0.15196838974952698 0.7007788419723511 -0.6970040798187256
vn 0.37315091490745544 0.06361524015665054 -0.9255871772766113
vn 0.4334218502044678 -0.04451994225382805 -0.9000908136367798
vn 0.3470667600631714 -0.044791486114263535 -0.9367702007293701
vn 0.2840563654899597 0.0634276419878006 -0.9567073583602905
vn -0.3833339214324951 0.06638482958078384 0.9212210178375244
vn -0.43516120314598083 -0.04295768961310387 0.8993271589279175
vn -0.34882763028144836 -0.04353659972548485 0.9361751079559326
vn 0.06661760807037354 -0.3792931139469147 -0.9228752851486206
vn 0.1521679013967514 -0.3836343586444855 -0.9108620882034302
vn 0.11167524009943008 -0.34071576595306396 -0.9335102438926697
vn 0.15632733702659607 -0.3009011447429657 -0.9407551884651184
vn 0.07078351080417633 -0.214467853307724 -0.9741628170013428
vn 0.15955404937267303 -0.13172753155231476 -0.9783610105514526
vn 0.11569413542747498 -0.17374306917190552 -0.9779714941978455
vn 0.38830000162124634 -0.08868177980184555 -0.9172560572624207
vn 0.3415159285068512 -0.1324639767408371 -0.9304945468902588
vn 0.42270851135253906 -0.21515309810638428 -0.8803560137748718
vn 0.3241618275642395 -0.301137775182724 -0.8967915773391724
vn 0.37394917011260986 -0.25832468271255493 -0.8907470703125
vn 0.399474561214447 -0.3794134259223938 -0.8345450758934021
vn -0.38905689120292664 -0.08730251342058182 0.9170675873756409
vn -0.3412381112575531 -0.1312626153230667 0.9307666420936584
vn -0.4205315411090851 -0.21383194625377655 0.8817194104194641
vn 0.23657967150211334 -0.3851052522659302 -0.8920336961746216
vn 0.31922128796577454 -0.38369470834732056 -0.8665310144424438
vn 0.2808888852596283 -0.34375566244125366 -0.8960655927658081
vn 0.2437683343887329 -0.21814221143722534 -0.9449820518493652
vn -0.37069037556648254 -0.25714433193206787 0.8924490809440613
vn -0.3934027850627899 -0.3783506751060486 0.8379051685333252
vn -0.3197915554046631 -0.3000902533531189 0.8987097144126892
vn 0.20905986428260803 -0.08839033544063568 -0.9738999009132385
vn -0.28621533513069153 -0.8942984938621521 0.34396395087242126
vn -0.22145706415176392 -0.939100444316864 0.26276805996894836
vn -0.18099653720855713 -0.9821858406066895 -0.05050975829362869
vn -0.23940952122211456 -0.8005682826042175 0.5493391156196594
vn -0.15728816390037537 -0.9717814326286316 0.17578712105751038
vn 0.3535842001438141 -0.4197571873664856 -0.8359317779541016
vn 0.3744540512561798 -0.523540735244751 -0.7653034329414368
vn 0.32562777400016785 -0.560770571231842 -0.7612509727478027
vn 0.33962541818618774 -0.653954803943634 -0.6760160326957703
vn 0.04346103593707085 -0.65044105052948 -0.7583123445510864
vn 0.09752178937196732 -0.4907364249229431 -0.8658332228660583
vn 0.12680435180664062 -0.5940195918083191 -0.79439377784729
vn 0.13858677446842194 -0.45812103152275085 -0.8780197501182556
vn -0.3722436726093292 -0.5210927724838257 0.7680475115776062
vn -0.32579517364501953 -0.5578193068504333 0.7633445858955383
vn -0.34151679277420044 -0.6504411697387695 0.6784486770629883
vn -0.3048500418663025 -0.45625385642051697 0.8360017538070679
vn -0.2786220908164978 -0.5930325388908386 0.7554351091384888
vn -0.15914392471313477 -0.1311112940311432 0.9785105586051941
vn -0.2594202756881714 -0.04373189061880112 0.9647738933563232
vn -0.1966332197189331 0.3818766176700592 0.9030535817146301
vn -0.20495879650115967 0.7415459752082825 0.6388281583786011
vn 0.2932698428630829 -0.17567913234233856 -0.9397497773170471
vn 0.20041172206401825 -0.2599937319755554 -0.9445836544036865
vn -0.15412534773349762 -0.381682425737381 0.911352813243866
vn -0.07145293802022934 -0.37744513154029846 0.9232711791992188
vn -0.14269450306892395 -0.4556291103363037 0.8786583542823792
vn -0.235719695687294 -0.38324999809265137 0.8930597305297852
vn -0.15746645629405975 -0.29941707849502563 0.9410386681556702
vn 0.26753199100494385 -0.6589584350585938 -0.7029938101768494
vn 0.1938466876745224 -0.6600411534309387 -0.7257886528968811
vn 0.23421454429626465 -0.8009752631187439 -0.5509830117225647
vn -0.2691347897052765 -0.6569865345954895 0.7042266726493835
vn -0.19515231251716614 -0.6596251130104065 0.7258170247077942
vn -0.31566524505615234 -0.38213682174682617 0.8685199618339539
vn 0.11900791525840759 -0.6571963429450989 -0.7442647814750671
vn 0.08257421106100082 -0.8002525568008423 -0.593950629234314
vn -0.1200093999505043 -0.6583412289619446 0.7430912852287292
vn -0.04415283724665642 -0.653142511844635 0.755946695804596
vn -0.08704417198896408 -0.8028784990310669 0.5897537469863892
vn -0.12888510525226593 -0.5940750241279602 0.7940173149108887
vn -0.24130654335021973 -0.2172563225030899 0.9458174705505371
vn -0.032653868198394775 -0.9723487496376038 -0.23123909533023834
vn 0.11747709661722183 -0.9092607498168945 -0.3993045687675476
vn -0.006688357796519995 -0.9999635815620422 -0.005289366468787193
vn 0.14639003574848175 -0.971907377243042 -0.18429869413375854
vn 0.16783882677555084 -0.984998345375061 0.0401042215526104
vn -0.12541960179805756 -0.9109606742858887 0.39296409487724304
vn 0.021806538105010986 -0.9746595621109009 0.22262831032276154
vn -0.006688357796519995 -0.9999635815620422 -0.005289366468787193
vn -0.21205556392669678 -0.527808666229248 0.8224661350250244
vn -0.18099653720855713 -0.9821858406066895 -0.05050975829362869
vn -0.005127630662173033 0.7295280694961548 -0.6839316487312317
vn 0.01946605183184147 0.8466716408729553 -0.53175950050354
vn -0.10369988530874252 0.9165893197059631 -0.3861481249332428
vn 0.18454089760780334 0.9548895955085754 0.23265978693962097
vn 0.15026122331619263 0.9879856109619141 0.036138951778411865
vn 0.3349263668060303 0.9379414916038513 0.08994434773921967
vn 0.2254985272884369 0.8806928396224976 0.4165700376033783
vn 0.026170212775468826 0.9305188655853271 0.36530786752700806
vn -0.22892817854881287 0.9712401032447815 -0.06545756012201309
vn -0.16404882073402405 0.9777737855911255 0.13056181371212006
vn -0.2814995348453522 0.919240415096283 0.27523645758628845
vn -0.04033936560153961 0.9990035891532898 -0.019093956798315048
vn -0.13161176443099976 0.9338709115982056 0.33251091837882996
vn -0.007227728143334389 0.984255313873291 0.176604762673378
vn 0.2855856418609619 0.7373756766319275 -0.6121420860290527
vn 0.32103291153907776 0.8380176424980164 -0.44120779633522034
vn 0.2069181352853775 0.9277666211128235 -0.31053829193115234
vn 0.4228997826576233 0.7162969708442688 -0.5550445318222046
vn 0.403514564037323 0.880821168422699 -0.24764874577522278
vn 0.05428137257695198 0.931074857711792 -0.3607674539089203
vn 0.08490908890962601 0.9821197986602783 -0.16802126169204712
vn 0.2771184742450714 0.9541892409324646 -0.11281955987215042
vn -0.471965491771698 0.8531273007392883 0.2223115712404251
vn -0.38821062445640564 0.8256365060806274 0.40941035747528076
vn -0.4801108241081238 0.7005333304405212 0.5279646515846252
vn -0.34644046425819397 0.7292611002922058 0.5900484919548035
vn 0.058531504124403 0.8399228453636169 0.5395404100418091
vn 0.08857424557209015 0.7160557508468628 0.6924006938934326
vn -0.058855798095464706 0.7371108531951904 0.6732039451599121
vn -0.20495879650115967 0.7415459752082825 0.6388281583786011
vn -0.408706396818161 0.9060971736907959 -0.10930195450782776
vn -0.3524131178855896 0.9320014715194702 0.08472470939159393
vn -0.2977205514907837 0.8532575964927673 -0.4281517267227173
vn -0.2618199586868286 0.9313228726387024 -0.25315597653388977
vn -0.15196838974952698 0.7007788419723511 -0.6970040798187256
vn -0.13022512197494507 0.8238095641136169 -0.5517055988311768
vn -0.0733666643500328 0.975710928440094 -0.20641082525253296
vn 0.17791736125946045 0.8517590165138245 -0.4928000867366791
vn 0.14182880520820618 0.7418195009231567 -0.655430018901825
vt 0.23274824023246765 1.1321807354688644
vt 0.13525374233722687 0.9947355687618256
vt 0.037759266793727875 1.1294872611761093
vt 0.7149107456207275 1.242166519165039
vt 0.7149107456207275 1.1201522946357727
vt 0.8124315142631531 1.1813927292823792
vt 0.9099522829055786 1.1206189393997192
vt 0.7921702861785889 0.7949818074703217
vt 0.8695709705352783 0.8627595901489258
vt 0.8695709705352783 0.726660966873169
vt 0.7147696614265442 0.7272040247917175
vt 0.714769721031189 0.8633026331663132
vt 0.7921703457832336 0.9310804158449173
vt 0.714769721031189 0.9994012415409088
vt 0.8695710301399231 0.9988581985235214
vt 0.9469716548919678 0.7944387644529343
vt 1.0243723392486572 0.7261179387569427
vt 1.0243723392486572 0.8622165471315384
vt 0.9469716548919678 0.9305373728275299
vt 1.0243723392486572 0.998315155506134
vt 1.1017730236053467 0.7938957214355469
vt 1.1791737079620361 0.861673504114151
vt 1.1791737079620361 0.7255749106407166
vt 1.1017730236053467 0.9299943298101425
vt 1.1791737079620361 0.9977964162826538
vt 0.9099522829055786 1.2426331639289856
vt 1.0074729919433594 1.1818593740463257
vt 1.1049938201904297 1.2430998086929321
vt 1.1049938201904297 1.1210855841636658
vt 1.2025146484375 1.1823260188102722
vt 1.3000353574752808 1.1215522289276123
vt 1.3000353574752808 1.2435664534568787
vt 1.007473111152649 0.8157929629087448
vt 0.9099522829055786 0.8765904903411865
vt 0.9099523425102234 0.7545525282621384
vt 1.1049939393997192 0.7549954354763031
vt 1.1049938201904297 0.8770333975553513
vt 1.3000354766845703 0.877476304769516
vt 1.2025146484375 0.8162358701229095
vt 1.3000354766845703 0.7554383426904678
vt 0.9469717144966125 1.2027588933706284
vt 0.8695710897445679 1.134956806898117
vt 0.8695710897445679 1.2710797190666199
vt 1.0243723392486572 1.2705609798431396
vt 1.0243723392486572 1.1344380676746368
vt 1.2565743923187256 0.9294755905866623
vt 1.3339749574661255 0.9972776770591736
vt 1.3339749574661255 0.8611547648906708
vt 1.2565743923187256 1.201721414923668
vt 1.1791737079620361 1.1339193284511566
vt 1.1791737079620361 1.2700422406196594
vt 1.3339749574661255 1.2695235013961792
vt 1.3339749574661255 1.1334005892276764
vt 1.3975563049316406 0.8166787773370743
vt 1.495077133178711 0.7558812499046326
vt 1.495077133178711 0.8779192119836807
vt 1.3975560665130615 1.1827926635742188
vt 1.4950768947601318 1.2440330982208252
vt 1.4950768947601318 1.121995136141777
vt 1.1017730236053467 1.2022401541471481
vt 1.1017730236053467 1.0661172419786453
vt 1.2565743923187256 0.7933526784181595
vt 1.3339749574661255 0.725031852722168
vt 0.7921704053878784 1.2032776325941086
vt 0.7147697806358337 1.2715984582901
vt 0.714769721031189 1.1354998499155045
vt 0.7921704053878784 1.067179024219513
vt 0.8124315142631531 0.8153500556945801
vt 0.7149107456207275 0.7541096210479736
vt 0.7149107456207275 0.87612384557724
vt 0.33024269342422485 0.7252321839332581
vt 0.33024269342422485 0.8613306134939194
vt 0.37830859422683716 0.7935278713703156
vt 0.4263744652271271 0.8618235737085342
vt 0.5225061774253845 0.7262181043624878
vt 0.6186379194259644 0.862809494137764
vt 0.5705720782279968 0.7945137917995453
vt 0.6667039394378662 1.2033025920391083
vt 0.6186380386352539 1.1350067108869553
vt 0.5225062370300293 1.2706121802330017
vt 0.42637449502944946 1.1340204328298569
vt 0.47444039583206177 1.2023163139820099
vt 0.33024275302886963 1.2696259021759033
vt 0.6680248975753784 0.8153631687164307
vt 0.6211390495300293 0.8766167312860489
vt 0.5273674130439758 0.7550953924655914
vt 0.33024272322654724 0.9974290430545807
vt 0.33024275302886963 1.133527472615242
vt 0.37830859422683716 1.0657247379422188
vt 0.5225062370300293 0.9984149634838104
vt 0.4804815649986267 0.8163489401340485
vt 0.3398240804672241 0.7560811638832092
vt 0.4335957467556 0.8776025027036667
vt 0.6667038202285767 0.9311053678393364
vt -0.19495607912540436 0.7651459872722626
vt -0.22876127064228058 0.8270727545022964
vt -0.3301768898963928 0.7688250541687012
vt -0.12734565138816833 0.8853204548358917
vt -0.262566477060318 0.8889995217323303
vt 0.28149551153182983 1.2009033262729645
vt 0.13525377213954926 1.2669324278831482
vt 0.08650651574134827 1.1982098519802094
vt -0.05973520874977112 1.264238953590393
vt -0.05973520874977112 0.719845175743103
vt 0.18400098383426666 0.7912612855434418
vt 0.037759266793727875 0.8572903722524643
vt 0.23274821043014526 0.8599838763475418
vt 0.1400444060564041 0.7587740421295166
vt 0.09009948372840881 0.8204542696475983
vt -0.059735264629125595 0.761466920375824
vt 0.23993423581123352 0.8794416040182114
vt 0.04015457257628441 0.8821344822645187
vt 0.6211390495300293 1.1206451803445816
vt 0.7149107456207275 0.9981380701065063
vt 1.1049938201904297 0.9990713596343994
vt 1.4950770139694214 0.9999571740627289
vt 0.5705721378326416 1.0667108371853828
vt 0.474440336227417 0.9301192685961723
vt 0.3398240804672241 1.1221231669187546
vt 0.3398240804672241 1.244137167930603
vt 0.23993423581123352 1.1234696060419083
vt 0.3398240804672241 1.0001091659069061
vt 0.4335957467556 1.1216305047273636
vt -0.05973520874977112 1.1281405091285706
vt -0.05973520874977112 0.992042064666748
vt -0.12734562158584595 1.1263010799884796
vt -0.0597352534532547 0.8834809213876724
vt -0.059735238552093506 1.0054949223995209
vt 0.3398240804672241 0.8780951648950577
vt -0.05973520874977112 0.8559436202049255
vt -0.12734562158584595 0.8541041910648346
vt -0.05973522365093231 1.1275089234113693
vt -0.05973520874977112 1.2495229244232178
vt -0.12734562158584595 1.1293484568595886
vt 0.0401545986533165 1.1261624842882156
vt 0.5273674130439758 0.9991238415241241
vt -0.262566477060318 0.8504253327846527
vt -0.19495604932308197 0.9883632063865662
vt -0.3301768898963928 0.9846843481063843
vt -0.262566477060318 1.1226222217082977
vt -0.3301768898963928 1.2568812370300293
vt -0.19495604932308197 1.0091739892959595
vt -0.262566477060318 1.1330276131629944
vt -0.3301768898963928 1.0128531455993652
vt 0.1400444060564041 1.0028020441532135
vt -0.3301768898963928 0.7124874591827393
vt 0.49974745512008667 0.32787126302719116
vt 0.43720313906669617 0.44390833377838135
vt 0.37465882301330566 0.3278716206550598
vt 0.18702542781829834 0.9080565869808197
vt 0.24956996738910675 0.7920194864273071
vt 0.24956974387168884 1.0240932703018188
vt 0.12448087334632874 1.0240936875343323
vt 0.12448109686374664 0.7920199036598206
vt 0.24957019090652466 0.32787197828292847
vt 0.18702587485313416 0.44390904903411865
vt 0.12448157370090485 0.3278723359107971
vt 0.24957019090652466 0.5599457025527954
vt 0.12448133528232574 0.5599461197853088
vt 0.18702563643455505 0.675982803106308
vt 0.49974745512008667 0.792018711566925
vt 0.43720313906669617 0.9080557525157928
vt 0.37465882301330566 0.7920190691947937
vt 0.49974745512008667 1.024092435836792
vt 0.37465858459472656 1.0240928530693054
vt 0.37465882301330566 0.5599453449249268
vt 0.31211450695991516 0.6759823858737946
vt 0.31211429834365845 0.9080561697483063
vt 0.12448157370090485 0.09579861164093018
vt 0.06193726509809494 0.21183562278747559
vt -0.0006070416420698166 0.09579896926879883
vt -0.0006072800606489182 0.32787275314331055
vt 0.061936549842357635 0.9080570042133331
vt -0.0006079953163862228 1.0240941047668457
vt -0.0006077568978071213 0.792020320892334
vt -0.0006075184792280197 0.5599465370178223
vt 0.24957019090652466 0.09579825401306152
vt 0.18702587485313416 0.21183526515960693
vt 0.37465882301330566 0.09579789638519287
vt 0.31211450695991516 0.21183490753173828
vt 0.49974745512008667 0.09579753875732422
vt 0.43720313906669617 0.21183454990386963
vt 0.31211450695991516 0.44390869140625
vt 0.43720313906669617 0.6759820282459259
vt 0.49974745512008667 0.5599449872970581
g Canal11e0
s 1
f 1/1/1 2/2/2 3/3/3
f 4/4/4 5/5/5 6/6/6
f 6/6/6 5/5/5 7/7/7
f 8/8/8 9/9/9 10/10/10
f 11/11/11 8/8/8 10/10/10
f 11/11/11 12/12/12 8/8/8
f 8/8/8 12/12/12 9/9/9
f 12/12/12 13/13/13 9/9/9
f 12/12/12 14/14/14 13/13/13
f 13/13/13 14/14/14 15/15/15
f 9/9/9 13/13/13 15/15/15
f 10/10/10 16/16/16 17/17/17
f 10/10/10 9/9/9 16/16/16
f 9/9/9 18/18/18 16/16/16
f 16/16/16 18/18/18 17/17/17
f 9/9/9 15/15/15 19/19/19
f 19/19/19 15/15/15 20/20/20
f 19/19/19 20/20/20 18/18/18
f 9/9/9 19/19/19 18/18/18
f 21/21/21 22/22/22 23/23/23
f 17/17/17 21/21/21 23/23/23
f 17/17/17 18/18/18 21/21/21
f 21/21/21 18/18/18 22/22/22
f 18/18/18 24/24/24 22/22/22
f 18/18/18 20/20/20 24/24/24
f 25/25/25 24/24/24 20/20/20
f 25/25/25 22/22/22 24/24/24
f 26/26/26 27/27/27 28/28/28
f 26/26/26 7/7/7 27/27/27
f 7/7/7 29/29/29 27/27/27
f 27/27/27 29/29/29 28/28/28
f 30/30/30 31/31/31 32/32/32
f 28/28/28 30/30/30 32/32/32
f 28/28/28 29/29/29 30/30/30
f 30/30/30 29/29/29 31/31/31
f 33/33/33 34/34/34 35/35/35
f 36/36/36 33/33/33 35/35/35
f 36/36/36 37/37/37 33/33/33
f 33/33/33 37/37/37 34/34/34
f 38/38/38 37/37/37 39/39/39
f 39/39/39 37/37/37 36/36/36
f 40/40/40 39/39/39 36/36/36
f 40/40/40 38/38/38 39/39/39
f 41/41/41 42/42/42 43/43/43
f 44/44/44 41/41/41 43/43/43
f 44/44/44 45/45/45 41/41/41
f 41/41/41 45/45/45 42/42/42
f 46/46/46 22/22/22 25/25/25
f 47/47/47 46/46/46 25/25/25
f 47/47/47 48/48/48 46/46/46
f 46/46/46 48/48/48 22/22/22
f 49/49/49 50/50/50 51/51/51
f 52/52/52 49/49/49 51/51/51
f 52/52/52 53/53/53 49/49/49
f 49/49/49 53/53/53 50/50/50
f 54/54/54 38/38/38 40/40/40
f 55/55/55 54/54/54 40/40/40
f 55/55/55 56/56/56 54/54/54
f 54/54/54 56/56/56 38/38/38
f 32/32/32 57/57/57 58/58/58
f 32/32/32 31/31/31 57/57/57
f 59/59/59 57/57/57 31/31/31
f 59/59/59 58/58/58 57/57/57
f 51/51/51 60/60/60 44/44/44
f 51/51/51 50/50/50 60/60/60
f 50/50/50 45/45/45 60/60/60
f 60/60/60 45/45/45 44/44/44
f 50/50/50 25/25/25 61/61/61
f 61/61/61 25/25/25 20/20/20
f 61/61/61 20/20/20 45/45/45
f 50/50/50 61/61/61 45/45/45
f 23/23/23 62/62/62 63/63/63
f 23/23/23 22/22/22 62/62/62
f 48/48/48 62/62/62 22/22/22
f 48/48/48 63/63/63 62/62/62
f 43/43/43 64/64/64 65/65/65
f 43/43/43 42/42/42 64/64/64
f 66/66/66 64/64/64 42/42/42
f 66/66/66 65/65/65 64/64/64
f 67/67/67 42/42/42 15/15/15
f 14/14/14 67/67/67 15/15/15
f 14/14/14 66/66/66 67/67/67
f 67/67/67 66/66/66 42/42/42
f 35/35/35 68/68/68 69/69/69
f 35/35/35 34/34/34 68/68/68
f 70/70/70 68/68/68 34/34/34
f 70/70/70 69/69/69 68/68/68
f 71/71/71 72/72/72 73/73/73
f 73/73/73 72/72/72 74/74/74
f 73/73/73 74/74/74 75/75/75
f 71/71/71 73/73/73 75/75/75
f 74/74/74 76/76/76 77/77/77
f 77/77/77 76/76/76 11/11/11
f 75/75/75 77/77/77 11/11/11
f 75/75/75 74/74/74 77/77/77
f 65/65/65 66/66/66 78/78/78
f 78/78/78 66/66/66 79/79/79
f 78/78/78 79/79/79 80/80/80
f 65/65/65 78/78/78 80/80/80
f 79/79/79 81/81/81 82/82/82
f 82/82/82 81/81/81 83/83/83
f 80/80/80 82/82/82 83/83/83
f 80/80/80 79/79/79 82/82/82
f 69/69/69 70/70/70 84/84/84
f 84/84/84 70/70/70 85/85/85
f 84/84/84 85/85/85 86/86/86
f 69/69/69 84/84/84 86/86/86
f 87/87/87 88/88/88 89/89/89
f 89/89/89 88/88/88 81/81/81
f 89/89/89 81/81/81 90/90/90
f 87/87/87 89/89/89 90/90/90
f 86/86/86 91/91/91 92/92/92
f 86/86/86 85/85/85 91/91/91
f 85/85/85 93/93/93 91/91/91
f 91/91/91 93/93/93 92/92/92
f 14/14/14 12/12/12 94/94/94
f 94/94/94 12/12/12 76/76/76
f 94/94/94 76/76/76 90/90/90
f 14/14/14 94/94/94 90/90/90
f 95/95/95 96/96/96 97/97/97
f 95/95/95 98/98/98 96/96/96
f 98/98/98 99/99/99 96/96/96
f 96/96/96 99/99/99 97/97/97
f 83/83/83 88/88/88 100/100/100
f 100/100/100 88/88/88 1/1/1
f 100/100/100 1/1/1 101/101/101
f 83/83/83 100/100/100 101/101/101
f 1/1/1 3/3/3 102/102/102
f 102/102/102 3/3/3 103/103/103
f 101/101/101 102/102/102 103/103/103
f 101/101/101 1/1/1 102/102/102
f 104/104/104 105/105/105 71/71/71
f 104/104/104 106/106/106 105/105/105
f 106/106/106 107/107/107 105/105/105
f 105/105/105 107/107/107 71/71/71
f 108/108/108 109/109/109 110/110/110
f 108/108/108 111/111/111 109/109/109
f 111/111/111 112/112/112 109/109/109
f 109/109/109 112/112/112 110/110/110
f 5/5/5 4/4/4 113/113/113
f 114/114/114 5/5/5 113/113/113
f 5/5/5 114/114/114 7/7/7
f 12/12/12 11/11/11 76/76/76
f 15/15/15 42/42/42 20/20/20
f 50/50/50 47/47/47 25/25/25
f 7/7/7 115/115/115 29/29/29
f 29/29/29 115/115/115 31/31/31
f 37/37/37 115/115/115 34/34/34
f 38/38/38 115/115/115 37/37/37
f 45/45/45 20/20/20 42/42/42
f 53/53/53 47/47/47 50/50/50
f 56/56/56 116/116/116 38/38/38
f 116/116/116 59/59/59 31/31/31
f 117/117/117 90/90/90 81/81/81
f 79/79/79 117/117/117 81/81/81
f 79/79/79 14/14/14 117/117/117
f 117/117/117 14/14/14 90/90/90
f 72/72/72 71/71/71 107/107/107
f 87/87/87 72/72/72 107/107/107
f 72/72/72 87/87/87 74/74/74
f 118/118/118 90/90/90 76/76/76
f 74/74/74 118/118/118 76/76/76
f 74/74/74 87/87/87 118/118/118
f 118/118/118 87/87/87 90/90/90
f 66/66/66 14/14/14 79/79/79
f 114/114/114 70/70/70 34/34/34
f 70/70/70 114/114/114 85/85/85
f 119/119/119 120/120/120 121/121/121
f 122/122/122 119/119/119 121/121/121
f 119/119/119 122/122/122 123/123/123
f 120/120/120 119/119/119 123/123/123
f 124/124/124 103/103/103 3/3/3
f 125/125/125 124/124/124 3/3/3
f 124/124/124 125/125/125 126/126/126
f 103/103/103 124/124/124 126/126/126
f 127/127/127 110/110/110 112/112/112
f 128/128/128 127/127/127 112/112/112
f 127/127/127 128/128/128 98/98/98
f 110/110/110 127/127/127 98/98/98
f 129/129/129 92/92/92 93/93/93
f 122/122/122 129/129/129 93/93/93
f 129/129/129 122/122/122 111/111/111
f 92/92/92 129/129/129 111/111/111
f 130/130/130 104/104/104 131/131/131
f 125/125/125 130/130/130 131/131/131
f 130/130/130 125/125/125 106/106/106
f 104/104/104 130/130/130 106/106/106
f 88/88/88 83/83/83 81/81/81
f 88/88/88 87/87/87 1/1/1
f 132/132/132 133/133/133 134/134/134
f 128/128/128 132/132/132 134/134/134
f 132/132/132 128/128/128 135/135/135
f 133/133/133 132/132/132 135/135/135
f 85/85/85 136/136/136 93/93/93
f 122/122/122 93/93/93 136/136/136
f 123/123/123 113/113/113 4/4/4
f 123/123/123 136/136/136 113/113/113
f 114/114/114 113/113/113 136/136/136
f 137/137/137 131/131/131 104/104/104
f 137/137/137 138/138/138 131/131/131
f 125/125/125 131/131/131 138/138/138
f 139/139/139 140/140/140 138/138/138
f 139/139/139 141/141/141 140/140/140
f 126/126/126 140/140/140 141/141/141
f 126/126/126 138/138/138 140/140/140
f 110/110/110 98/98/98 95/95/95
f 128/128/128 134/134/134 142/142/142
f 143/143/143 134/134/134 133/133/133
f 6/6/6 7/7/7 26/26/26
f 98/98/98 142/142/142 99/99/99
f 144/144/144 99/99/99 142/142/142
f 144/144/144 97/97/97 99/99/99
f 125/125/125 3/3/3 2/2/2
f 4/4/4 6/6/6 26/26/26
f 143/143/143 142/142/142 134/134/134
f 133/133/133 135/135/135 120/120/120
f 135/135/135 128/128/128 145/145/145
f 111/111/111 122/122/122 145/145/145
f 1/1/1 87/87/87 2/2/2
f 106/106/106 125/125/125 2/2/2
f 141/141/141 143/143/143 133/133/133
f 143/143/143 144/144/144 142/142/142
f 141/141/141 144/144/144 143/143/143
f 98/98/98 128/128/128 142/142/142
f 103/103/103 126/126/126 141/141/141
f 126/126/126 125/125/125 138/138/138
f 146/146/146 137/137/137 104/104/104
f 137/137/137 139/139/139 138/138/138
f 146/146/146 139/139/139 137/137/137
f 120/120/120 123/123/123 4/4/4
f 123/123/123 122/122/122 136/136/136
f 85/85/85 114/114/114 136/136/136
f 38/38/38 116/116/116 115/115/115
f 116/116/116 31/31/31 115/115/115
f 7/7/7 114/114/114 115/115/115
f 114/114/114 34/34/34 115/115/115
f 128/128/128 112/112/112 145/145/145
f 111/111/111 145/145/145 112/112/112
f 135/135/135 145/145/145 121/121/121
f 135/135/135 121/121/121 120/120/120
f 122/122/122 121/121/121 145/145/145
f 92/92/92 111/111/111 108/108/108
f 87/87/87 107/107/107 2/2/2
f 106/106/106 2/2/2 107/107/107
g Canal11e1
s 1
f 147/147/147 148/148/148 149/149/149
f 150/150/150 151/151/151 152/152/152
f 153/153/153 150/150/150 152/152/152
f 153/153/153 154/154/154 150/150/150
f 155/155/155 156/156/156 157/157/157
f 155/155/155 158/158/158 156/156/156
f 159/159/159 156/156/156 158/158/158
f 159/159/159 157/157/157 156/156/156
f 160/160/160 158/158/158 151/151/151
f 154/154/154 160/160/160 151/151/151
f 154/154/154 159/159/159 160/160/160
f 160/160/160 159/159/159 158/158/158
f 161/161/161 162/162/162 163/163/163
f 161/161/161 164/164/164 162/162/162
f 165/165/165 162/162/162 164/164/164
f 165/165/165 163/163/163 162/162/162
f 166/166/166 167/167/167 158/158/158
f 166/166/166 163/163/163 167/167/167
f 151/151/151 167/167/167 163/163/163
f 151/151/151 158/158/158 167/167/167
f 168/168/168 163/163/163 165/165/165
f 152/152/152 168/168/168 165/165/165
f 152/152/152 151/151/151 168/168/168
f 168/168/168 151/151/151 163/163/163
f 169/169/169 170/170/170 171/171/171
f 169/169/169 157/157/157 170/170/170
f 172/172/172 170/170/170 157/157/157
f 172/172/172 171/171/171 170/170/170
f 173/173/173 154/154/154 153/153/153
f 174/174/174 173/173/173 153/153/153
f 174/174/174 175/175/175 173/173/173
f 173/173/173 175/175/175 154/154/154
f 175/175/175 176/176/176 154/154/154
f 176/176/176 157/157/157 159/159/159
f 154/154/154 176/176/176 159/159/159
f 154/154/154 151/151/151 150/150/150
f 177/177/177 178/178/178 169/169/169
f 176/176/176 172/172/172 157/157/157
f 178/178/178 157/157/157 169/169/169
f 178/178/178 155/155/155 157/157/157
f 177/177/177 155/155/155 178/178/178
f 179/179/179 149/149/149 180/180/180
f 179/179/179 180/180/180 177/177/177
f 180/180/180 155/155/155 177/177/177
f 149/149/149 155/155/155 180/180/180
f 181/181/181 182/182/182 179/179/179
f 182/182/182 149/149/149 179/179/179
f 182/182/182 147/147/147 149/149/149
f 181/181/181 147/147/147 182/182/182
f 149/149/149 183/183/183 155/155/155
f 183/183/183 158/158/158 155/155/155
f 183/183/183 166/166/166 158/158/158
f 149/149/149 166/166/166 183/183/183
f 184/184/184 161/161/161 163/163/163
f 185/185/185 161/161/161 184/184/184
f 185/185/185 184/184/184 166/166/166
f 184/184/184 163/163/163 166/166/166
f 149/149/149 148/148/148 166/166/166
f 148/148/148 185/185/185 166/166/166
f 147/147/147 185/185/185 148/148/148
