# Exported using wow.export v0.2.19
o 20736_sewer10.obj
v 93.1724853515625 -12.322595596313477 64.40591430664062
v 90.33914184570312 -12.322583198547363 66.04175567626953
v 92.180419921875 -11.87138557434082 69.55865478515625
v 94.9102554321289 -11.8713960647583 66.82881927490234
v 95.71664428710938 -11.568575859069824 71.363037109375
v 95.5687255859375 -11.568575859069824 71.61923217773438
v 97.35247802734375 -11.568587303161621 68.52969360351562
v 90.08293914794922 -12.322583198547363 66.1896743774414
v 93.4262924194336 -12.32259464263916 64.2593765258789
v 97.4990234375 -11.568586349487305 68.27587890625
v 97.49900817871094 -8.785679817199707 68.27589416503906
v 94.9102554321289 -9.088489532470703 66.82881927490234
v 94.9102554321289 -11.8713960647583 66.82881927490234
v 97.4990234375 -11.568586349487305 68.27587890625
v 90.08293914794922 -12.322583198547363 66.1896743774414
v 90.09201049804688 -9.539681434631348 66.18444061279297
v 92.18782043457031 -9.088482856750488 69.55125427246094
v 92.180419921875 -11.87138557434082 69.55865478515625
v 93.4262924194336 -9.539688110351562 64.25938415527344
v 93.4262924194336 -12.32259464263916 64.2593765258789
v 95.57396697998047 -8.785673141479492 71.61016082763672
v 95.5687255859375 -11.568575859069824 71.61923217773438
v 97.16143798828125 -7.510939121246338 68.8605728149414
v 94.43285369873047 -7.813747882843018 67.30622100830078
v 94.9102554321289 -9.088489532470703 66.82881927490234
v 97.49900817871094 -8.785679817199707 68.27589416503906
v 96.54220581054688 -6.918990612030029 69.93313598632812
v 93.5571060180664 -7.221800327301025 68.18196868896484
v 95.57396697998047 -8.785673141479492 71.61016082763672
v 92.18782043457031 -9.088482856750488 69.55125427246094
v 92.67709350585938 -7.813747882843018 69.0619888305664
v 95.91993713378906 -7.510939121246338 71.01094055175781
v 93.5571060180664 -7.221800327301025 68.18196868896484
v 96.54220581054688 -6.918990612030029 69.93313598632812
v 90.69124603271484 -8.264946937561035 65.83846282958984
v 92.84160614013672 -8.264946937561035 64.59696197509766
v 93.4262924194336 -9.539688110351562 64.25938415527344
v 91.76903533935547 -7.672998905181885 65.21621704101562
v 90.09201049804688 -9.539681434631348 66.18444061279297
v 91.76903533935547 -7.672998905181885 65.21621704101562
v 91.76903533935547 -7.672998905181885 65.21621704101562
v 90.69124603271484 -8.264946937561035 65.83846282958984
v 90.90626525878906 -8.576059341430664 65.71432495117188
v 92.8360595703125 -9.687477111816406 63.82316207885742
v 92.8360595703125 -12.32259464263916 63.82314682006836
v 93.1724853515625 -12.322595596313477 64.40591430664062
v 93.17249298095703 -9.68747615814209 64.40592193603516
v 92.62545776367188 -8.576059341430664 64.72174835205078
v 92.28902435302734 -8.57606029510498 64.13899230957031
v 91.7679443359375 -8.121207237243652 65.21683502197266
v 91.4315185546875 -8.121209144592285 64.63407897949219
v 95.72108459472656 -8.93346118927002 71.3553466796875
v 96.30384063720703 -8.93346118927002 71.69181060791016
v 96.29940032958984 -11.568575859069824 71.6994857788086
v 95.71664428710938 -11.568575859069824 71.363037109375
v 97.03665161132812 -7.822051048278809 69.07672882080078
v 97.61944580078125 -7.822051048278809 69.41320037841797
v 97.1243667602539 -7.367199420928955 70.27070617675781
v 96.54156494140625 -7.367199420928955 69.93423461914062
v 97.35247802734375 -8.93346881866455 68.52969360351562
v 97.93528747558594 -8.93346881866455 68.86617279052734
v 97.35247802734375 -11.568587303161621 68.52969360351562
v 97.9352798461914 -11.568587303161621 68.86616516113281
v 96.54220581054688 -6.918990612030029 69.93313598632812
v 96.54156494140625 -7.367199420928955 69.93423461914062
v 96.04407501220703 -7.822051048278809 70.7959213256836
v 95.91993713378906 -7.510939121246338 71.01094055175781
v 95.72108459472656 -8.93346118927002 71.3553466796875
v 95.57396697998047 -8.785673141479492 71.61016082763672
v 95.71664428710938 -11.568575859069824 71.363037109375
v 95.5687255859375 -11.568575859069824 71.61923217773438
v 97.16143798828125 -7.510939121246338 68.8605728149414
v 97.03665161132812 -7.822051048278809 69.07672882080078
v 97.49900817871094 -8.785679817199707 68.27589416503906
v 97.35247802734375 -8.93346881866455 68.52969360351562
v 91.7679443359375 -8.121207237243652 65.21683502197266
v 97.4990234375 -11.568586349487305 68.27587890625
v 97.35247802734375 -11.568587303161621 68.52969360351562
v 97.9352798461914 -11.568587303161621 68.86616516113281
v 97.35247802734375 -11.568587303161621 68.52969360351562
v 95.71664428710938 -11.568575859069824 71.363037109375
v 96.54156494140625 -7.367199420928955 69.93423461914062
v 96.62686157226562 -7.822051048278809 71.13236999511719
v 96.04407501220703 -7.822051048278809 70.7959213256836
v 93.4262924194336 -12.32259464263916 64.2593765258789
v 93.4262924194336 -9.539688110351562 64.25938415527344
v 93.17249298095703 -9.68747615814209 64.40592193603516
v 93.1724853515625 -12.322595596313477 64.40591430664062
v 92.84160614013672 -8.264946937561035 64.59696197509766
v 92.62545776367188 -8.576059341430664 64.72174835205078
v 90.09201049804688 -9.539681434631348 66.18444061279297
v 90.08293914794922 -12.322583198547363 66.1896743774414
v 90.33914184570312 -12.322583198547363 66.04175567626953
v 90.34681701660156 -9.687469482421875 66.03732299804688
v 92.8360595703125 -12.32259464263916 63.82314682006836
v 90.0027084350586 -12.322583198547363 65.458984375
v 90.33914184570312 -12.322583198547363 66.04175567626953
v 93.1724853515625 -12.322595596313477 64.40591430664062
v 90.56983947753906 -8.57606029510498 65.13156127929688
v 91.7679443359375 -8.121207237243652 65.21683502197266
v 90.90626525878906 -8.576059341430664 65.71432495117188
v 90.01039123535156 -9.687470436096191 65.4545669555664
v 90.34681701660156 -9.687469482421875 66.03732299804688
v 90.33914184570312 -12.322583198547363 66.04175567626953
vn -0.03769141063094139 0.9971547722816467 -0.06528220325708389
vn -0.028300445526838303 0.9983966946601868 -0.049021750688552856
vn -0.056513283401727676 0.9935919046401978 -0.09788449853658676
vn -0.07517148554325104 0.9886351823806763 -0.13019110262393951
vn -0.06595244258642197 0.9970959424972534 -0.0380784273147583
vn -0.06595244258642197 0.9970959424972534 -0.0380784273147583
vn -0.04404322803020477 0.9987059235572815 -0.02543008327484131
vn -0.056513283401727676 0.9935919046401978 -0.09788449853658676
vn -0.07517148554325104 0.9886351823806763 -0.13019110262393951
vn -0.08797427266836166 0.9948270320892334 -0.05079120770096779
vn -0.4519684314727783 -0.24075132608413696 0.8589314818382263
vn -0.6606184244155884 -0.24221991002559662 0.7105721831321716
vn -0.7021291851997375 0 0.7120496034622192
vn -0.487922340631485 -0.000006619091891479911 0.8728870153427124
vn 0.8491326570510864 -0.003661783179268241 -0.5281669497489929
vn 0.838310718536377 -0.2395724058151245 -0.48973485827445984
vn 0.6976156234741211 -0.24831509590148926 -0.6720654964447021
vn 0.7036355137825012 -0.003759869607165456 -0.7105511426925659
vn -0.8216001391410828 -0.24066495895385742 0.5167722702026367
vn -0.8659534454345703 -0.0000024375144676014315 0.5001246333122253
vn 0.5196733474731445 -0.24396249651908875 -0.8187929391860962
vn 0.5198371410369873 -0.00365329347550869 -0.8542575836181641
vn -0.28606531023979187 -0.71229487657547 0.6409388780593872
vn -0.42513731122016907 -0.720762312412262 0.5475033521652222
vn -0.6606184244155884 -0.24221991002559662 0.7105721831321716
vn -0.4519684314727783 -0.24075132608413696 0.8589314818382263
vn -0.16473281383514404 -0.8857389688491821 0.4339695870876312
vn -0.23067432641983032 -0.8974669575691223 0.37595537304878235
vn 0.5196733474731445 -0.24396249651908875 -0.8187929391860962
vn 0.6976156234741211 -0.24831509590148926 -0.6720654964447021
vn 0.5321279764175415 -0.7254733443260193 -0.4364953637123108
vn 0.40295320749282837 -0.7256522178649902 -0.5577253699302673
vn 0.36502838134765625 -0.8995200991630554 -0.24003730714321136
vn 0.2848169207572937 -0.9000342488288879 -0.3298751711845398
vn 0.6384874582290649 -0.7113601565361023 -0.2937694787979126
vn -0.5444887280464172 -0.7148077487945557 0.4388415217399597
vn -0.8216001391410828 -0.24066495895385742 0.5167722702026367
vn -0.2948046922683716 -0.9021484851837158 0.3149893879890442
vn 0.838310718536377 -0.2395724058151245 -0.48973485827445984
vn 0.4242144227027893 -0.8976834416389465 -0.11919143050909042
vn 0.4999989867210388 -0.000012539446288428735 0.866025984287262
vn 0.5000193119049072 -0.000004045218247483717 0.8660142421722412
vn 0.4999946653842926 0.000003925239525415236 0.8660284876823425
vn -0.837268590927124 -0.2555418014526367 0.4834042191505432
vn -0.6123694181442261 0.7071077227592468 0.3535567820072174
vn -0.8660266399383545 9.420036235496809e-7 0.4999978244304657
vn -0.8372710943222046 -0.2555408775806427 0.4834004044532776
vn -0.5854164958000183 -0.7369166016578674 0.33799615502357483
vn -0.5854213237762451 -0.7369150519371033 0.33799123764038086
vn -0.3615036904811859 -0.9087086915969849 0.20871904492378235
vn -0.0007942712982185185 -0.9999995827674866 0.000458578288089484
vn 0.4825551509857178 -0.2618449926376343 -0.835809588432312
vn 0.4825679361820221 -0.2618415951728821 -0.8358033299446106
vn 0.35414162278175354 0.7059128880500793 -0.6134090423583984
vn 0.49998629093170166 -0.0033702796790748835 -0.866026759147644
vn -0.33798810839653015 -0.7369154095649719 0.585422694683075
vn -0.33798810839653015 -0.7369154095649719 0.585422694683075
vn -0.0004596034123096615 -0.9999995827674866 0.0007960755028761923
vn -0.2087143510580063 -0.9087072014808655 0.36151012778282166
vn -0.48339277505874634 -0.2555413246154785 0.8372753858566284
vn -0.48339277505874634 -0.2555413246154785 0.8372753858566284
vn -0.4999934732913971 0 0.8660292029380798
vn -0.353548139333725 0.7071080803871155 0.6123740077018738
vn -0.866027295589447 0.000006159504209790612 -0.49999675154685974
vn -0.866027295589447 0.000006159504209790612 -0.49999675154685974
vn -0.8660270571708679 0.000006159501481306506 -0.4999971091747284
vn -0.8660273551940918 0.000006339148058032151 -0.4999965727329254
vn -0.8660287857055664 6.594437991225277e-7 -0.4999941289424896
vn -0.8660210371017456 0.0000022524809537571855 -0.5000075697898865
vn -0.8660210371017456 0.0000022524809537571855 -0.5000075697898865
vn -0.8660210371017456 0.0000022524809537571855 -0.5000075697898865
vn -0.8660334944725037 -0.000014666775314253755 -0.4999859929084778
vn -0.8660334944725037 -0.000014666775314253755 -0.4999859929084778
vn -0.866022527217865 -0.0000017864952042145887 -0.5000050067901611
vn -0.866022527217865 -0.0000017864952042145887 -0.5000050067901611
vn 0.4999989867210388 -0.000012539446288428735 0.866025984287262
vn -0.866022527217865 -0.0000017864952042145887 -0.5000050067901611
vn -0.8660144805908203 0 -0.5000188946723938
vn -0.353548139333725 0.7071080803871155 0.6123740077018738
vn -0.04404322803020477 0.9987059235572815 -0.02543008327484131
vn -0.06595244258642197 0.9970959424972534 -0.0380784273147583
vn 0.2078721523284912 -0.9094745516777039 -0.3600628077983856
vn 0.33584854006767273 -0.7408034801483154 -0.5817353129386902
vn 0.3358658254146576 -0.7407979369163513 -0.5817323327064514
vn 0.5000060796737671 -0.000004220829396217596 0.8660219311714172
vn 0.5000060796737671 -0.000004220829396217596 0.8660219311714172
vn 0.5000060796737671 -0.000004220829396217596 0.8660219311714172
vn 0.5000115633010864 -0.0000035155851492163492 0.8660187125205994
vn 0.49999135732650757 -0.000008693165909789968 0.8660303950309753
vn 0.49999135732650757 -0.000008693165909789968 0.8660303950309753
vn 0.49999764561653137 -0.0000019255201095802477 0.866026759147644
vn 0.49999764561653137 -0.0000019255201095802477 0.866026759147644
vn 0.49999764561653137 -0.0000019255201095802477 0.866026759147644
vn 0.5000214576721191 8.962047104432713e-7 0.8660129904747009
vn -0.6123694181442261 0.7071077227592468 0.3535567820072174
vn 0.6134068369865417 0.7059149146080017 -0.3541414141654968
vn -0.028300445526838303 0.9983966946601868 -0.049021750688552856
vn -0.03769141063094139 0.9971547722816467 -0.06528220325708389
vn 0.5817283391952515 -0.7408010959625244 -0.3358658254146576
vn 0.36006271839141846 -0.9094730615615845 -0.2078787088394165
vn 0.5817325711250305 -0.7408015131950378 -0.3358575701713562
vn 0.8358132839202881 -0.2618453800678253 -0.48254865407943726
vn 0.835815966129303 -0.261849045753479 -0.4825419485569
vn 0.8660311102867126 -0.0033645303919911385 -0.4999787509441376
vt 0.06108725070953369 0.16698598861694336
vt 0.7374194860458374 0.014534294605255127
vt 0.9995002746582031 0.7023276686668396
vt 0.17327558994293213 0.7023278474807739
vt 0.7374169826507568 1.3822271823883057
vt 0.7985713481903076 1.396012306213379
vt 0.06108465790748596 1.22977614402771
vt 0.7985752820968628 0.0007488727569580078
vt 0.0005018413066864014 0.1806420087814331
vt 0.0004992485046386719 1.216119647026062
vt 1.4992496967315674 1
vt 0.760420560836792 1
vt 0.7604204416275024 0.1499999761581421
vt 1.4992507696151733 0.1499999761581421
vt 1.4992507696151733 0.1589999794960022
vt 1.4987177848815918 1
vt 0.7466112375259399 1
vt 0.7466206550598145 0.1589999794960022
vt 0.0007502585649490356 1
vt 0.0007492303848266602 0.1499999761581421
vt 0.0012638121843338013 1
vt 0.0007490962743759155 0.1589999794960022
vt 0 0.30000001192092896
vt 0.75 0.30000001192092896
vt 0.75 0.10000002384185791
vt 0 0.10000002384185791
vt 0 0.550000011920929
vt 0.75 0.550000011920929
vt 0 0.10000002384185791
vt 0.75 0.10000002384185791
vt 0.75 0.3768116235733032
vt 0 0.3768116235733032
vt 0.75 0.550000011920929
vt 0 0.550000011920929
vt 1.5 0.3768116235733032
vt 1.5 0.30000001192092896
vt 1.5 0.10000002384185791
vt 1.5 0.550000011920929
vt 1.5 0.10000002384185791
vt 1.5 0.550000011920929
vt 0.503000020980835 1
vt 0.5030001401901245 0.75
vt 0.6250001192092896 0.75
vt 0.7400000095367432 0.5
vt 0.7400000095367432 0
vt 0.625 0
vt 0.625 0.5
vt 0.625 0.75
vt 0.7400000095367432 0.75
vt 0.625 1
vt 0.7400000095367432 1
vt 0.625 0.5
vt 0.7400000095367432 0.5
vt 0.7400000095367432 0
vt 0.625 0
vt 0.625 0.75
vt 0.7400000095367432 0.75
vt 0.7400000095367432 1
vt 0.625 1
vt 0.625 0.5
vt 0.7400000095367432 0.5
vt 0.625 0
vt 0.7400000095367432 0
vt 0.503000020980835 1
vt 0.625 1
vt 0.625 0.75
vt 0.503000020980835 0.75
vt 0.625 0.5
vt 0.503000020980835 0.5
vt 0.625 0
vt 0.503000020980835 0
vt 0.503000020980835 0.75
vt 0.625 0.75
vt 0.503000020980835 0.5
vt 0.625 0.5
vt 0.625 1
vt 0.503000020980835 0
vt 0.625 0
vt 0.7400000095367432 0.7496240139007568
vt 0.625 0.7496230602264404
vt 0.625 0.0003732442855834961
vt 0.625 1
vt 0.7400000095367432 0.75
vt 0.625 0.75
vt 0.503000020980835 0
vt 0.503000020980835 0.5
vt 0.625 0.5
vt 0.625 0
vt 0.503000020980835 0.75
vt 0.625 0.75
vt 0.5030001401901245 0.5
vt 0.5030001401901245 0
vt 0.6250001192092896 0
vt 0.6250001192092896 0.5
vt 0.7400000095367432 0.75
vt 0.7400000095367432 0
vt 0.6250001192092896 0
vt 0.6250001192092896 0.75
vt 0.7400000095367432 0.75
vt 0.6250001192092896 1
vt 0.6250001192092896 0.75
vt 0.7400000095367432 0.5
vt 0.6250001192092896 0.5
vt 0.6250001192092896 0
g sewer100
s 1
f 1/1/1 2/2/2 3/3/3
f 4/4/4 1/1/1 3/3/3
f 5/5/5 3/3/3 6/6/6
f 4/4/4 3/3/3 7/7/7
f 7/7/7 3/3/3 5/5/5
f 2/2/2 8/8/8 3/3/3
f 1/1/1 4/4/4 9/9/9
f 7/7/7 10/10/10 4/4/4
g sewer101
s 1
f 11/11/11 12/12/12 13/13/13
f 13/13/13 14/14/14 11/11/11
f 15/15/15 16/16/16 17/17/17
f 17/17/17 18/18/18 15/15/15
f 13/13/13 12/12/12 19/19/19
f 19/19/19 20/20/20 13/13/13
f 17/17/17 21/21/21 22/22/22
f 22/22/22 18/18/18 17/17/17
g sewer102
s 1
f 23/23/23 24/24/24 25/25/25
f 25/25/25 26/26/26 23/23/23
f 27/27/27 28/28/28 24/24/24
f 24/24/24 23/23/23 27/27/27
f 29/29/29 30/30/30 31/31/31
f 31/31/31 32/32/32 29/29/29
f 32/32/32 31/31/31 33/33/33
f 33/33/33 34/34/34 32/32/32
f 33/33/33 31/31/31 35/35/35
f 25/25/25 24/24/24 36/36/36
f 36/36/36 37/37/37 25/25/25
f 24/24/24 28/28/28 38/38/38
f 38/38/38 36/36/36 24/24/24
f 31/31/31 30/30/30 39/39/39
f 39/39/39 35/35/35 31/31/31
f 35/35/35 40/40/40 33/33/33
g sewer103
s 1
f 41/41/41 42/42/42 43/43/43
f 44/44/44 45/45/45 46/46/46
f 47/47/47 48/48/48 49/49/49
f 49/49/49 44/44/44 47/47/47
f 48/48/48 50/50/50 51/51/51
f 52/52/52 53/53/53 54/54/54
f 54/54/54 55/55/55 52/52/52
f 56/56/56 57/57/57 58/58/58
f 58/58/58 59/59/59 56/56/56
f 60/60/60 61/61/61 57/57/57
f 57/57/57 56/56/56 60/60/60
f 62/62/62 63/63/63 61/61/61
f 61/61/61 60/60/60 62/62/62
f 64/64/64 65/65/65 66/66/66
f 66/66/66 67/67/67 64/64/64
f 67/67/67 66/66/66 68/68/68
f 68/68/68 69/69/69 67/67/67
f 69/69/69 68/68/68 70/70/70
f 70/70/70 71/71/71 69/69/69
f 72/72/72 73/73/73 65/65/65
f 65/65/65 64/64/64 72/72/72
f 74/74/74 75/75/75 73/73/73
f 73/73/73 72/72/72 74/74/74
f 46/46/46 47/47/47 44/44/44
f 43/43/43 76/76/76 41/41/41
f 77/77/77 78/78/78 75/75/75
f 79/79/79 80/80/80 81/81/81
f 82/82/82 58/58/58 83/83/83
f 83/83/83 84/84/84 82/82/82
f 84/84/84 83/83/83 53/53/53
f 81/81/81 54/54/54 79/79/79
f 53/53/53 52/52/52 84/84/84
f 85/85/85 86/86/86 87/87/87
f 87/87/87 88/88/88 85/85/85
f 86/86/86 89/89/89 90/90/90
f 90/90/90 87/87/87 86/86/86
f 89/89/89 41/41/41 76/76/76
f 76/76/76 90/90/90 89/89/89
f 91/91/91 92/92/92 93/93/93
f 93/93/93 94/94/94 91/91/91
f 95/95/95 96/96/96 97/97/97
f 97/97/97 98/98/98 95/95/95
f 42/42/42 91/91/91 94/94/94
f 94/94/94 43/43/43 42/42/42
f 99/99/99 51/51/51 100/100/100
f 100/100/100 101/101/101 99/99/99
f 102/102/102 99/99/99 101/101/101
f 101/101/101 103/103/103 102/102/102
f 96/96/96 102/102/102 103/103/103
f 103/103/103 104/104/104 96/96/96
f 51/51/51 49/49/49 48/48/48
f 75/75/75 74/74/74 77/77/77
