# Exported using wow.export v0.2.19
o 20736_throne_hall07.obj
v 10.496267318725586 5.303990364074707 16.859073638916016
v 8.771222114562988 4.245300769805908 18.59444808959961
v 9.533221244812012 6.361558437347412 17.813129425048828
v 10.819021224975586 4.246698379516602 16.54562759399414
v 12.2213134765625 6.362679481506348 15.123701095581055
v 10.851303100585938 0.3125879764556885 16.54855728149414
v 12.954586029052734 0.5775400996208191 14.441865921020508
v 12.962641716003418 0.0504286028444767 14.43852424621582
v 8.748021125793457 0.047635819762945175 18.65524673461914
v 8.746959686279297 0.5747451782226562 18.65159034729004
v 10.836084365844727 2.274123191833496 16.546220779418945
v 10.850347518920898 3.2604103088378906 16.52311897277832
v 12.83829402923584 2.2755215167999268 14.543011665344238
v 8.833874702453613 2.2727248668670654 18.549428939819336
v 10.792627334594727 1.4251333475112915 16.597301483154297
v 10.850772857666016 0.5761426687240601 16.546728134155273
v 10.855331420898438 0.04903221130371094 16.546886444091797
v 12.866819381713867 4.248095512390137 14.496809005737305
v 8.585843086242676 0.738976776599884 18.811315536499023
v 13.112858772277832 0.7417662143707275 14.28204345703125
v 8.583474159240723 1.909121036529541 18.803205490112305
v 13.094983100891113 1.9119123220443726 14.28945255279541
v 8.5252685546875 2.2688732147216797 18.85822296142578
v 13.146967887878418 2.2716634273529053 14.234220504760742
v 10.784764289855957 8.207157135009766 16.544445037841797
v 10.633389472961426 4.5773468017578125 12.461438179016113
v 9.945855140686035 7.167586326599121 13.148975372314453
v 8.840856552124023 8.311175346374512 12.113642692565918
v 7.826870441436768 10.34264087677002 13.246696472167969
v 8.869004249572754 9.39920425415039 14.223285675048828
v 10.633389472961426 4.5773468017578125 12.461438179016113
v 10.714131355285645 2.2718708515167236 12.380696296691895
v 12.33598518371582 2.27187180519104 13.066540718078613
v 12.06011962890625 4.353945255279541 13.34240436553955
v 9.945855140686035 7.167586326599121 13.148975372314453
v 11.417532920837402 6.498796463012695 14.106243133544922
v 8.869004249572754 9.39920425415039 14.223285675048828
v 9.957222938537598 8.596436500549316 15.466459274291992
v 12.06011962890625 4.353945255279541 13.34240436553955
v 12.33598518371582 2.27187180519104 13.066540718078613
v 13.146967887878418 2.2716634273529053 14.234220504760742
v 12.866819381713867 4.248095512390137 14.496809005737305
v 11.417532920837402 6.498796463012695 14.106243133544922
v 12.2213134765625 6.362679481506348 15.123701095581055
v 9.957222938537598 8.596436500549316 15.466459274291992
v 10.784764289855957 8.207157135009766 16.544445037841797
v 6.862459659576416 2.269087791442871 16.23502540588379
v 5.593907356262207 2.268690824508667 15.116714477539062
v 5.694827556610107 5.00084114074707 15.150141716003418
v 6.943201541900635 4.574563503265381 16.154281616210938
v 6.500561714172363 8.310124397277832 14.495095252990723
v 7.630735874176025 7.164801597595215 15.466748237609863
v 8.869004249572754 9.39920425415039 14.223285675048828
v 7.4903998374938965 2.2690885066986084 17.914783477783203
v 6.862459659576416 2.269087791442871 16.23502540588379
v 6.943201541900635 4.574563503265381 16.154281616210938
v 7.76626443862915 4.351162433624268 17.638916015625
v 7.630735874176025 7.164801597595215 15.466748237609863
v 8.532071113586426 6.496139049530029 16.99424171447754
v 8.869004249572754 9.39920425415039 14.223285675048828
v 9.957222938537598 8.596436500549316 15.466459274291992
v 8.5252685546875 2.2688732147216797 18.85822296142578
v 7.4903998374938965 2.2690885066986084 17.914783477783203
v 7.76626443862915 4.351162433624268 17.638916015625
v 8.771222114562988 4.245300769805908 18.59444808959961
v 8.532071113586426 6.496139049530029 16.99424171447754
v 9.533221244812012 6.361558437347412 17.813129425048828
v 9.957222938537598 8.596436500549316 15.466459274291992
v 10.784764289855957 8.207157135009766 16.544445037841797
v 9.395328521728516 5.005593776702881 11.38471794128418
v 9.407316207885742 2.2718639373779297 11.23631763458252
v 10.714131355285645 2.2718708515167236 12.380696296691895
v 10.54476261138916 0.050235748291015625 12.550065994262695
v 9.577096939086914 0.04884529113769531 14.672907829284668
v 12.122364044189453 0.050237443298101425 13.280160903930664
v 8.748021125793457 0.047635819762945175 18.65524673461914
v 10.333332061767578 0.04894193261861801 16.069843292236328
v 7.70402193069458 0.047455258667469025 17.701162338256836
v 9.913192749023438 0.048846349120140076 15.49066162109375
v 8.788296699523926 0.04884444177150726 14.307860374450684
v 7.031830787658691 0.0474531389772892 16.065654754638672
v 12.962641716003418 0.0504286028444767 14.43852424621582
v 8.185064315795898 0.05063552409410477 13.660380363464355
v 10.855331420898438 0.04903221130371094 16.546886444091797
v 9.184843063354492 0.050126150250434875 11.352015495300293
v 7.505104064941406 0.05058072507381439 13.061355590820312
v 5.8253655433654785 0.05103530362248421 14.770694732666016
v 12.01206111907959 2.2757270336151123 13.390464782714844
v 12.33598518371582 2.27187180519104 13.066540718078613
v 10.714131355285645 2.2718708515167236 12.380696296691895
v 10.457305908203125 2.275726079940796 12.63752269744873
v 9.407316207885742 2.2718639373779297 11.23631763458252
v 9.153249740600586 2.2756130695343018 11.495043754577637
v 7.707691669464111 0.5746595859527588 17.69748878479004
v 8.746959686279297 0.5747451782226562 18.65159034729004
v 8.748021125793457 0.047635819762945175 18.65524673461914
v 7.814325332641602 2.2729439735412598 17.590858459472656
v 7.548227310180664 1.909271240234375 17.856956481933594
v 6.908308982849121 1.909271240234375 16.189176559448242
v 7.119285583496094 2.2729427814483643 15.978199005126953
v 8.5252685546875 2.2688732147216797 18.85822296142578
v 8.833874702453613 2.2727248668670654 18.549428939819336
v 7.814325332641602 2.2729439735412598 17.590858459472656
v 7.4903998374938965 2.2690885066986084 17.914783477783203
v 7.119285583496094 2.2729427814483643 15.978199005126953
v 6.862459659576416 2.269087791442871 16.23502540588379
v 5.915812969207764 2.2750799655914307 14.789459228515625
v 5.593907356262207 2.268690824508667 15.116714477539062
v 7.70402193069458 0.047455258667469025 17.701162338256836
v 7.707691669464111 0.5746595859527588 17.69748878479004
v 7.0347394943237305 0.5746574401855469 16.062746047973633
v 6.901854038238525 0.7389162182807922 16.19563102722168
v 7.540085792541504 0.738917887210846 17.865095138549805
v 8.585843086242676 0.738976776599884 18.811315536499023
v 8.746959686279297 0.5747451782226562 18.65159034729004
v 7.540085792541504 0.738917887210846 17.865095138549805
v 10.457305908203125 2.275726079940796 12.63752269744873
v 10.668282508850098 1.9120543003082275 12.426546096801758
v 12.278157234191895 1.9120545387268066 13.12436580657959
v 6.901854038238525 0.7389162182807922 16.19563102722168
v 5.829060077667236 0.5778133869171143 14.793177604675293
v 7.0347394943237305 0.5746574401855469 16.062746047973633
v 7.031830787658691 0.0474531389772892 16.065654754638672
v 9.194984436035156 0.5773375630378723 11.367961883544922
v 9.184843063354492 0.050126150250434875 11.352015495300293
v 10.54476261138916 0.050235748291015625 12.550065994262695
v 10.541851997375488 0.577440083026886 12.552976608276367
v 10.674736976623535 0.7416983842849731 12.420089721679688
v 9.330547332763672 0.7416543960571289 11.238199234008789
v 5.641668796539307 1.9094444513320923 15.050216674804688
v 5.915812969207764 2.2750799655914307 14.789459228515625
v 10.674736976623535 0.7416983842849731 12.420089721679688
v 9.353057861328125 1.9120231866836548 11.273602485656738
v 5.633462429046631 0.7400405406951904 15.000303268432617
v 5.8253655433654785 0.05103530362248421 14.770694732666016
v 9.153249740600586 2.2756130695343018 11.495043754577637
v 12.962641716003418 0.0504286028444767 14.43852424621582
v 12.954586029052734 0.5775400996208191 14.441865921020508
v 12.118693351745605 0.5774417519569397 13.283832550048828
v 12.122364044189453 0.050237443298101425 13.280160903930664
v 12.954586029052734 0.5775400996208191 14.441865921020508
v 13.112858772277832 0.7417662143707275 14.28204345703125
v 12.286298751831055 0.7417000532150269 13.116225242614746
v 12.118693351745605 0.5774417519569397 13.283832550048828
v 13.112858772277832 0.7417662143707275 14.28204345703125
v 13.094983100891113 1.9119123220443726 14.28945255279541
v 12.286298751831055 0.7417000532150269 13.116225242614746
v 12.83829402923584 2.2755215167999268 14.543011665344238
v 12.01206111907959 2.2757270336151123 13.390464782714844
v 8.583474159240723 1.909121036529541 18.803205490112305
v 8.833874702453613 2.2727248668670654 18.549428939819336
v 8.585843086242676 0.738976776599884 18.811315536499023
v 12.83829402923584 2.2755215167999268 14.543011665344238
v 13.146967887878418 2.2716634273529053 14.234220504760742
v 10.541851997375488 0.577440083026886 12.552976608276367
vn -0.7072667479515076 -0.006329236552119255 -0.7069184184074402
vn -0.7072666883468628 -0.006329849362373352 -0.706918478012085
vn -0.7072668075561523 -0.006328623741865158 -0.7069183588027954
vn -0.7072667479515076 -0.006329850293695927 -0.7069185376167297
vn -0.7072668075561523 -0.006328623741865158 -0.7069183588027954
vn -0.7072670459747314 -0.0063291313126683235 -0.7069181203842163
vn -0.7072674632072449 -0.006329678930342197 -0.7069177627563477
vn -0.7072667479515076 -0.006327590439468622 -0.706918478012085
vn -0.7072666883468628 -0.006328584160655737 -0.7069185376167297
vn -0.7072666883468628 -0.006329598370939493 -0.7069185376167297
vn -0.7072667479515076 -0.006329793483018875 -0.7069185376167297
vn -0.7072667479515076 -0.006329850293695927 -0.7069185376167297
vn -0.7072666883468628 -0.006329736206680536 -0.706918478012085
vn -0.7072666883468628 -0.006329849362373352 -0.706918478012085
vn -0.7072667479515076 -0.006329668220132589 -0.7069185376167297
vn -0.7072670459747314 -0.006329638883471489 -0.7069181203842163
vn -0.7072667479515076 -0.006328088231384754 -0.7069185376167297
vn -0.7072666883468628 -0.006329849362373352 -0.706918478012085
vn -0.7072635889053345 -0.006330608390271664 -0.7069215774536133
vn -0.7072656154632568 -0.006329027935862541 -0.7069196105003357
vn -0.7072635889053345 -0.006330608390271664 -0.7069215774536133
vn -0.7072656154632568 -0.006329027935862541 -0.7069196105003357
vn -0.7072686553001404 -0.006329835392534733 -0.7069165110588074
vn -0.707266092300415 -0.006329762749373913 -0.7069190740585327
vn -0.7072668075561523 -0.006329049356281757 -0.7069183588027954
vn -0.6180781126022339 -0.21027284860610962 0.7574726343154907
vn -0.6924841403961182 -0.4548359811306 0.5599910616874695
vn -0.8405252695083618 -0.37039801478385925 0.3953765034675598
vn -0.4652373194694519 -0.795340359210968 -0.38857173919677734
vn -0.7182338833808899 -0.5894756317138672 0.36967363953590393
vn -0.6180781126022339 -0.21027284860610962 0.7574726343154907
vn -0.5304241180419922 -0.04528479650616646 0.8465220332145691
vn -0.5952126979827881 -0.13990026712417603 0.7912962436676025
vn -0.6660175323486328 -0.3134990334510803 0.6768596768379211
vn -0.6924841403961182 -0.4548359811306 0.5599910616874695
vn -0.6827598810195923 -0.5558063983917236 0.47425535321235657
vn -0.7182338833808899 -0.5894756317138672 0.36967363953590393
vn -0.6706980466842651 -0.6830053329467773 0.2892538905143738
vn -0.6660175323486328 -0.3134990334510803 0.6768596768379211
vn -0.5952126979827881 -0.13990026712417603 0.7912962436676025
vn -0.8077360987663269 -0.18134558200836182 0.560960054397583
vn -0.7947236895561218 -0.2995874583721161 0.5278841257095337
vn -0.6827598810195923 -0.5558063983917236 0.47425535321235657
vn -0.6873612999916077 -0.6046361327171326 0.40242964029312134
vn -0.6706980466842651 -0.6830053329467773 0.2892538905143738
vn -0.6602479815483093 -0.707769513130188 0.2512666583061218
vn 0.8232450485229492 -0.03109617717564106 -0.5668339133262634
vn 0.48369407653808594 0.44637155532836914 -0.7528561949729919
vn 0.5453513264656067 -0.13187777996063232 -0.8277682065963745
vn 0.7216328382492065 -0.2155943363904953 -0.6578488349914551
vn 0.35264116525650024 -0.45507946610450745 -0.8176471590995789
vn 0.48253315687179565 -0.49912381172180176 -0.7197480201721191
vn 0.349295973777771 -0.6302242279052734 -0.693404495716095
vn 0.8329403400421143 -0.1386832445859909 -0.535702645778656
vn 0.8232450485229492 -0.03109617717564106 -0.5668339133262634
vn 0.7216328382492065 -0.2155943363904953 -0.6578488349914551
vn 0.7304061651229858 -0.3140909969806671 -0.6065094470977783
vn 0.48253315687179565 -0.49912381172180176 -0.7197480201721191
vn 0.5111908912658691 -0.5591320991516113 -0.6527290344238281
vn 0.349295973777771 -0.6302242279052734 -0.693404495716095
vn 0.3346824049949646 -0.6922077536582947 -0.6394029259681702
vn 0.6621865630149841 -0.1839819699525833 -0.7264018058776855
vn 0.8329403400421143 -0.1386832445859909 -0.535702645778656
vn 0.7304061651229858 -0.3140909969806671 -0.6065094470977783
vn 0.6044415235519409 -0.3544789254665375 -0.7134389877319336
vn 0.5111908912658691 -0.5591320991516113 -0.6527290344238281
vn 0.46527954936027527 -0.5843438506126404 -0.6648737788200378
vn 0.3346824049949646 -0.6922077536582947 -0.6394029259681702
vn 0.4308515787124634 -0.691085934638977 -0.580316424369812
vn -0.8422024846076965 -0.14506207406520844 0.5192802548408508
vn -0.7648255228996277 0.4423465132713318 0.46837106347084045
vn -0.5304241180419922 -0.04528479650616646 0.8465220332145691
vn -0.00025120656937360764 0.9999998211860657 0.0005404890980571508
vn -0.0003558723838068545 0.9999998807907104 0.0003547695523593575
vn -0.0004605382273439318 0.9999998807907104 0.0001690500066615641
vn -0.0004067180270794779 0.9999998807907104 0.0002557957486715168
vn -0.0004605382273439318 0.9999998807907104 0.0001690500066615641
vn -0.0004605382273439318 0.9999998807907104 0.0001690500066615641
vn -0.0004605382273439318 0.9999998807907104 0.0001690500066615641
vn -0.00025120656937360764 0.9999998211860657 0.0005404890980571508
vn -0.00025120656937360764 0.9999998211860657 0.0005404890980571508
vn -0.0004605382273439318 0.9999998807907104 0.0001690500066615641
vn 0.4226842224597931 0.8560214638710022 -0.29759910702705383
vn -0.00043362812721170485 0.9999998807907104 0.00021242287766654044
vn -0.5033227205276489 0.43998995423316956 0.7436901926994324
vn 0.22943954169750214 0.9423865675926208 0.24344398081302643
vn 0.7236789464950562 0.4650883078575134 -0.5098839402198792
vn 0.004896980710327625 0.9999368786811829 -0.01011293102055788
vn 0.003536582924425602 0.9999587535858154 -0.00836439523845911
vn 0.007078584749251604 0.9999434947967529 -0.007931426167488098
vn 0.006446319166570902 0.9999514222145081 -0.007457228377461433
vn -0.7648255228996277 0.4423465132713318 0.46837106347084045
vn -0.5525290966033936 -0.1639399528503418 0.8172118663787842
vn 0.8193575739860535 -0.009695971384644508 -0.5732008218765259
vn 0.6762737035751343 -0.0037490776740014553 -0.7366409301757812
vn 0.6745724081993103 -0.009837059304118156 -0.7381431460380554
vn 0.6345086097717285 -0.6798247694969177 -0.3677459955215454
vn 0.7600076198577881 -0.39338913559913635 -0.5173330307006836
vn 0.7247133255004883 -0.47965413331985474 -0.4946943521499634
vn 0.6438910365104675 -0.6275047063827515 -0.43776950240135193
vn -0.005934974178671837 0.9999610185623169 0.006541115697473288
vn -0.005934974178671837 0.9999610185623169 0.006541115697473288
vn -0.005934974178671837 0.9999610185623169 0.006541115697473288
vn -0.0055669695138931274 0.9999644160270691 0.006334690377116203
vn -0.008317495696246624 0.9999589920043945 0.0035840985365211964
vn -0.01092590857297182 0.9999319911003113 0.004083903506398201
vn 0.7747185230255127 -0.26029887795448303 -0.5762427449226379
vn 0.48369407653808594 0.44637155532836914 -0.7528561949729919
vn 0.8195269107818604 -0.008729848079383373 -0.5729742050170898
vn 0.5341153144836426 0.7895297408103943 -0.30226409435272217
vn 0.4888690710067749 0.7924736738204956 -0.36468133330345154
vn 0.5563431978225708 0.7660635113716125 -0.32191452383995056
vn 0.47954583168029785 0.8167429566383362 -0.32088422775268555
vn 0.3937802314758301 0.8096238970756531 -0.4352542459964752
vn 0.38539981842041016 0.8216878175735474 -0.4198762774467468
vn 0.8251708149909973 -0.00871204398572445 -0.5648160576820374
vn -0.38187265396118164 -0.650818943977356 0.656207263469696
vn -0.5028228759765625 -0.33560147881507874 0.7965807318687439
vn -0.5309621095657349 -0.4481567442417145 0.7191903591156006
vn 0.830906093120575 0.009805199690163136 -0.5563262104988098
vn 0.7091671228408813 0.5078859925270081 -0.48901310563087463
vn 0.8392333388328552 -0.007631073240190744 -0.5437179207801819
vn 0.8418657183647156 0.008730039931833744 -0.5396164059638977
vn -0.5134143233299255 0.40244582295417786 0.7579202651977539
vn -0.5033227205276489 0.43998995423316956 0.7436901926994324
vn -0.5461767315864563 -0.008745339699089527 0.8376243114471436
vn -0.36302894353866577 0.7450664043426514 0.5595409274101257
vn -0.3212296664714813 0.766002893447876 0.5568222999572754
vn -0.5210168957710266 0.4022645652294159 0.7528111338615417
vn 0.7476646304130554 -0.3826037645339966 -0.54278165102005
vn 0.7747185230255127 -0.26029887795448303 -0.5762427449226379
vn -0.5349676609039307 -0.008740599267184734 0.8448273539543152
vn -0.5339112877845764 -0.3412184417247772 0.7736334800720215
vn 0.7130023837089539 0.4881577491760254 -0.5033185482025146
vn 0.7236789464950562 0.4650883078575134 -0.5098839402198792
vn -0.5525290966033936 -0.1639399528503418 0.8172118663787842
vn -0.809417188167572 -0.009724372997879982 0.5871535539627075
vn -0.8107280135154724 -0.016100220382213593 0.5852015614509583
vn -0.6354421973228455 -0.009800962172448635 0.7720862627029419
vn -0.6352221965789795 -0.008811485022306442 0.7722791433334351
vn -0.46589672565460205 0.8184701800346375 0.33622437715530396
vn -0.48580989241600037 0.8033574223518372 0.3443916141986847
vn -0.35583359003067017 0.8201866745948792 0.44796907901763916
vn -0.33409515023231506 0.7942181825637817 0.5075410604476929
vn -0.8157309293746948 -0.009697317145764828 0.5783502459526062
vn -0.7524321675300598 -0.39448729157447815 0.5274709463119507
vn -0.6294705271720886 -0.00880036037415266 0.7769744992256165
vn -0.5805208683013916 -0.6999349594116211 0.4160367250442505
vn -0.4498118758201599 -0.7178909182548523 0.5313208699226379
vn 0.620623767375946 -0.39205580949783325 -0.6790570020675659
vn 0.48909154534339905 -0.7000073194503784 -0.5203644633293152
vn 0.6709040999412537 -0.00982400681823492 -0.7414790391921997
vn 0.007035683840513229 0.9999634027481079 -0.004865358583629131
vn 0.007479629945009947 0.9999594688415527 -0.0050163837149739265
vn -0.5459136366844177 -0.007639541290700436 0.8378066420555115
vt 0.4322129189968109 0.7728657424449921
vt 0.05735921859741211 0.617322564125061
vt 0.22602447867393494 0.9282442927360535
vt 0.5000002980232239 0.6175278425216675
vt 0.8070666193962097 0.9284089207649231
vt 0.4996219277381897 0.03952622413635254
vt 0.9547486901283264 0.07845312356948853
vt 0.9555046558380127 0.0010096430778503418
vt 0.04449516534805298 0.0005993843078613281
vt 0.04525139927864075 0.07804262638092041
vt 0.5000000596046448 0.32771605253219604
vt 0.5049272775650024 0.4726219177246094
vt 0.9327870011329651 0.32792145013809204
vt 0.06721311807632446 0.32751065492630005
vt 0.4890191853046417 0.2029820680618286
vt 0.5000000596046448 0.07824790477752686
vt 0.49999991059303284 0.0008045434951782227
vt 0.9426413774490356 0.6177331209182739
vt 0.010732501745223999 0.10217159986495972
vt 0.9892674684524536 0.10258132219314575
vt 0.012408614158630371 0.2740898132324219
vt 0.9875910878181458 0.274499773979187
vt 0.0004995465278625488 0.3269447684288025
vt 0.9995005130767822 0.32735466957092285
vt 0.5000002384185791 1.199400544166565
vt 0.75 0.33000004291534424
vt 0.75 0.6660000085830688
vt 0.5 0.6660000085830688
vt 0.5 1
vt 0.75 1
vt 0.5 0.8469082117080688
vt 0.5 0.5169082283973694
vt 0.75 0.5169082283973694
vt 0.75 0.8469082117080688
vt 0.5 1.182908296585083
vt 0.75 1.182908296585083
vt 0.5 1.5169081687927246
vt 0.75 1.5169081687927246
vt 0.5 0.11019325256347656
vt 0.5 -0.21980679035186768
vt 0.75 -0.21980679035186768
vt 0.75 0.11019325256347656
vt 0.5 0.44619321823120117
vt 0.75 0.44619321823120117
vt 0.5 0.7801932096481323
vt 0.75 0.7801932096481323
vt 0.75 0
vt 0.5 0
vt 0.5 0.33000004291534424
vt 0.75 0.33000004291534424
vt 0.5 0.6600000262260437
vt 0.75 0.6600000262260437
vt 0.75 1
vt 0.75 0.3454105854034424
vt 0.5 0.3454105854034424
vt 0.5 0.6754106283187866
vt 0.75 0.6754106283187866
vt 0.5 1.0054106712341309
vt 0.75 1.0054106712341309
vt 0.5 1.3454105854034424
vt 0.75 1.3454105854034424
vt 0.75 -0.10386478900909424
vt 0.5 -0.10386478900909424
vt 0.5 0.22613525390625
vt 0.75 0.22613525390625
vt 0.5 0.5561352968215942
vt 0.75 0.5561352968215942
vt 0.5 0.8961352705955505
vt 0.75 0.8961352705955505
vt 0.5 0.33000004291534424
vt 0.5 0
vt 0.75 0
vt 0.09628251194953918 0.37331944704055786
vt 0.4455641806125641 0.5412108302116394
vt 0.0004994869232177734 0.7087162733078003
vt 0.9893386960029602 0.9995005130767822
vt 0.5179747343063354 0.8541489541530609
vt 0.9995005130767822 0.7091023325920105
vt 0.5 0.7089093029499054
vt 0.493455708026886 0.3735123872756958
vt 0.8906288743019104 0.3737053871154785
vt 0.03644886612892151 0.9991955757141113
vt 0.4884583652019501 0.19121098518371582
vt 0.512893795967102 0.9993480443954468
vt 0.11458387970924377 0.0004994869232177734
vt 0.49760904908180237 0.004801034927368164
vt 0.8806341886520386 0.009102582931518555
vt 0.24787448346614838 0.8700000047683716
vt 0.24787448346614838 1
vt 0.7590339183807373 1
vt 0.7590339183807373 0.8700000047683716
vt 1.1666667461395264 1
vt 1.1666667461395264 0.8700000047683716
vt 0.25 0.5899999737739563
vt 0 0.5899999737739563
vt 0 0.5
vt 0.25 0.8700000047683716
vt 0.25 0.8199999928474426
vt 0.75 0.8199999928474426
vt 0.75 0.8700000047683716
vt -0.16683591902256012 1
vt -0.16683591902256012 0.8700000047683716
vt 0.24079690873622894 0.8700000047683716
vt 0.24079690873622894 1
vt 0.7519564032554626 0.8700000047683716
vt 0.7519564032554626 1
vt 1.130265474319458 0.8700000047683716
vt 1.130265474319458 1
vt 0.25 0.5
vt 0.25 0.5899999737739563
vt 0.75 0.5899999737739563
vt 0.75 0.6299999952316284
vt 0.25 0.6299999952316284
vt 0 0.6299999952316284
vt 0 0.5899999737739563
vt 0.25 0.6299999952316284
vt 0.75 0.8700000047683716
vt 0.75 0.8199999928474426
vt 0.25 0.8199999928474426
vt 0.75 0.6299999952316284
vt 1.100000023841858 0.5899999737739563
vt 0.75 0.5899999737739563
vt 0.75 0.5
vt 1.100000023841858 0.5899999737739563
vt 1.100000023841858 0.5
vt 0.75 0.5
vt 0.75 0.5899999737739563
vt 0.75 0.6299999952316284
vt 1.100000023841858 0.6299999952316284
vt 1.100000023841858 0.8199999928474426
vt 1.100000023841858 0.8700000047683716
vt 0.75 0.6299999952316284
vt 1.100000023841858 0.8199999928474426
vt 1.100000023841858 0.6299999952316284
vt 1.100000023841858 0.5
vt 1.100000023841858 0.8700000047683716
vt 0 0.5
vt 0 0.5899999737739563
vt 0.25 0.5899999737739563
vt 0.25 0.5
vt 0 0.5899999737739563
vt 0 0.6299999952316284
vt 0.25 0.6299999952316284
vt 0.25 0.5899999737739563
vt 0 0.6299999952316284
vt 0 0.8199999928474426
vt 0.25 0.6299999952316284
vt 0 0.8700000047683716
vt 0.25 0.8700000047683716
vt 0 0.8199999928474426
vt 0 0.8700000047683716
vt 0 0.6299999952316284
vt -0.1304347813129425 0.8700000047683716
vt -0.1304347813129425 1
vt 0.75 0.5899999737739563
g throne_hall070
s 1
f 1/1/1 2/2/2 3/3/3
f 2/2/2 1/1/1 4/4/4
f 1/1/1 5/5/5 4/4/4
f 6/6/6 7/7/7 8/8/8
f 6/6/6 9/9/9 10/10/10
f 11/11/11 12/12/12 13/13/13
f 14/14/14 12/12/12 11/11/11
f 11/11/11 15/15/15 14/14/14
f 13/13/13 15/15/15 11/11/11
f 16/16/16 15/15/15 7/7/7
f 10/10/10 15/15/15 16/16/16
f 16/16/16 6/6/6 10/10/10
f 7/7/7 6/6/6 16/16/16
f 17/17/17 6/6/6 8/8/8
f 5/5/5 1/1/1 3/3/3
f 15/15/15 10/10/10 14/14/14
f 15/15/15 13/13/13 7/7/7
f 12/12/12 14/14/14 4/4/4
f 18/18/18 12/12/12 4/4/4
f 12/12/12 18/18/18 13/13/13
f 4/4/4 14/14/14 2/2/2
f 4/4/4 5/5/5 18/18/18
f 14/14/14 10/10/10 19/19/19
f 7/7/7 13/13/13 20/20/20
f 14/14/14 19/19/19 21/21/21
f 20/20/20 13/13/13 22/22/22
f 23/23/23 2/2/2 14/14/14
f 13/13/13 18/18/18 24/24/24
f 3/3/3 25/25/25 5/5/5
f 9/9/9 6/6/6 17/17/17
g throne_hall071
s 1
f 26/26/26 27/27/27 28/28/28
f 29/29/29 28/28/28 27/27/27
f 27/27/27 30/30/30 29/29/29
f 31/31/31 32/32/32 33/33/33
f 33/33/33 34/34/34 31/31/31
f 35/35/35 31/31/31 34/34/34
f 34/34/34 36/36/36 35/35/35
f 37/37/37 35/35/35 36/36/36
f 36/36/36 38/38/38 37/37/37
f 39/39/39 40/40/40 41/41/41
f 41/41/41 42/42/42 39/39/39
f 43/43/43 39/39/39 42/42/42
f 42/42/42 44/44/44 43/43/43
f 45/45/45 43/43/43 44/44/44
f 44/44/44 46/46/46 45/45/45
f 47/47/47 48/48/48 49/49/49
f 49/49/49 50/50/50 47/47/47
f 50/50/50 49/49/49 51/51/51
f 51/51/51 52/52/52 50/50/50
f 52/52/52 51/51/51 29/29/29
f 29/29/29 53/53/53 52/52/52
f 54/54/54 55/55/55 56/56/56
f 56/56/56 57/57/57 54/54/54
f 57/57/57 56/56/56 58/58/58
f 58/58/58 59/59/59 57/57/57
f 59/59/59 58/58/58 60/60/60
f 60/60/60 61/61/61 59/59/59
f 62/62/62 63/63/63 64/64/64
f 64/64/64 65/65/65 62/62/62
f 65/65/65 64/64/64 66/66/66
f 66/66/66 67/67/67 65/65/65
f 67/67/67 66/66/66 68/68/68
f 68/68/68 69/69/69 67/67/67
f 70/70/70 71/71/71 72/72/72
f 72/72/72 26/26/26 70/70/70
f 28/28/28 70/70/70 26/26/26
g throne_hall072
s 1
f 73/73/73 74/74/74 75/75/75
f 76/76/76 77/77/77 78/78/78
f 79/79/79 78/78/78 77/77/77
f 73/73/73 80/80/80 74/74/74
f 80/80/80 81/81/81 74/74/74
f 78/78/78 79/79/79 81/81/81
f 75/75/75 79/79/79 82/82/82
f 79/79/79 77/77/77 82/82/82
f 80/80/80 73/73/73 83/83/83
f 76/76/76 84/84/84 77/77/77
f 81/81/81 80/80/80 83/83/83
f 84/84/84 82/82/82 77/77/77
f 85/85/85 86/86/86 73/73/73
f 79/79/79 74/74/74 81/81/81
f 81/81/81 83/83/83 87/87/87
f 86/86/86 87/87/87 83/83/83
f 86/86/86 83/83/83 73/73/73
f 79/79/79 75/75/75 74/74/74
g throne_hall073
s 1
f 88/88/88 89/89/89 90/90/90
f 91/91/91 90/90/90 92/92/92
f 92/92/92 93/93/93 91/91/91
f 94/94/94 95/95/95 96/96/96
f 97/97/97 98/98/98 99/99/99
f 99/99/99 100/100/100 97/97/97
f 101/101/101 102/102/102 103/103/103
f 103/103/103 104/104/104 101/101/101
f 104/104/104 103/103/103 105/105/105
f 105/105/105 106/106/106 104/104/104
f 106/106/106 105/105/105 107/107/107
f 107/107/107 108/108/108 106/106/106
f 96/96/96 109/109/109 94/94/94
f 110/110/110 111/111/111 112/112/112
f 113/113/113 114/114/114 115/115/115
f 99/99/99 98/98/98 116/116/116
f 115/115/115 110/110/110 113/113/113
f 117/117/117 118/118/118 119/119/119
f 116/116/116 120/120/120 99/99/99
f 121/121/121 122/122/122 123/123/123
f 90/90/90 91/91/91 88/88/88
f 124/124/124 125/125/125 126/126/126
f 127/127/127 128/128/128 129/129/129
f 129/129/129 124/124/124 127/127/127
f 112/112/112 113/113/113 110/110/110
f 109/109/109 123/123/123 122/122/122
f 122/122/122 94/94/94 109/109/109
f 99/99/99 130/130/130 131/131/131
f 132/132/132 118/118/118 133/133/133
f 131/131/131 100/100/100 99/99/99
f 120/120/120 134/134/134 130/130/130
f 130/130/130 99/99/99 120/120/120
f 123/123/123 135/135/135 121/121/121
f 133/133/133 129/129/129 132/132/132
f 118/118/118 117/117/117 136/136/136
f 136/136/136 133/133/133 118/118/118
f 137/137/137 138/138/138 139/139/139
f 139/139/139 140/140/140 137/137/137
f 141/141/141 142/142/142 143/143/143
f 143/143/143 144/144/144 141/141/141
f 145/145/145 146/146/146 119/119/119
f 119/119/119 147/147/147 145/145/145
f 146/146/146 148/148/148 149/149/149
f 149/149/149 119/119/119 146/146/146
f 111/111/111 121/121/121 134/134/134
f 134/134/134 112/112/112 111/111/111
f 150/150/150 98/98/98 97/97/97
f 97/97/97 151/151/151 150/150/150
f 152/152/152 116/116/116 98/98/98
f 98/98/98 150/150/150 152/152/152
f 153/153/153 154/154/154 89/89/89
f 89/89/89 88/88/88 153/153/153
f 140/140/140 139/139/139 155/155/155
f 155/155/155 126/126/126 140/140/140
f 144/144/144 143/143/143 128/128/128
f 128/128/128 127/127/127 144/144/144
f 147/147/147 119/119/119 118/118/118
f 118/118/118 132/132/132 147/147/147
f 119/119/119 149/149/149 117/117/117
f 126/126/126 155/155/155 124/124/124
