# Exported using wow.export v0.2.19
o 20736_Canal10a.obj
v 118.58382415771484 -118.19802856445312 -42.297645568847656
v 118.43592834472656 -117.8680648803711 -43.11372756958008
v 118.84796905517578 -116.87818908691406 -42.36842346191406
v 124.82218933105469 -116.87818908691406 -47.392059326171875
v 125.25006103515625 -116.87818908691406 -45.79528045654297
v 124.88922119140625 -116.30654907226562 -45.6985969543457
v 119.86344909667969 -114.59162139892578 -44.35194396972656
v 119.43559265136719 -114.59162139892578 -45.9487190246582
v 120.35635375976562 -114.15113830566406 -44.48401641845703
v 120.29131317138672 -114.59162139892578 -42.755165100097656
v 119.50261688232422 -115.16326904296875 -44.25525665283203
v 118.64689636230469 -115.16326904296875 -47.448814392089844
v 118.31957244873047 -116.0207290649414 -46.505401611328125
v 117.92522430419922 -116.30654907226562 -47.25544738769531
v 118.71392059326172 -115.73490905761719 -45.75535202026367
v 117.99224853515625 -116.87818908691406 -45.561981201171875
v 116.74031066894531 -120.67982482910156 -48.649375915527344
v 117.02027130126953 -121.26080322265625 -47.86867904663086
v 116.87237548828125 -121.84178161621094 -48.68476486206055
v 117.16816711425781 -120.67982482910156 -47.05259323120117
v 117.3160629272461 -120.09884643554688 -46.23651123046875
v 117.59602355957031 -120.67982482910156 -45.455814361572266
v 117.56439208984375 -116.87818908691406 -47.15876007080078
v 122.95098876953125 -114.59162139892578 -48.60210037231445
v 123.37886047363281 -114.59162139892578 -47.00532150268555
v 122.45808410644531 -114.15113830566406 -48.47002410888672
v 122.52312469482422 -114.59162139892578 -50.19887924194336
v 123.31182861328125 -115.16326904296875 -48.69878387451172
v 117.46395874023438 -119.51786041259766 -45.42042541503906
v 117.03610229492188 -119.51786041259766 -47.01720428466797
v 116.88819885253906 -120.09884643554688 -47.833290100097656
v 116.60823822021484 -119.51786041259766 -48.613983154296875
v 126.20621490478516 -119.51786041259766 -44.340057373046875
v 125.92626953125 -120.09884643554688 -45.12076187133789
v 126.07420349121094 -120.67982482910156 -44.304683685302734
v 125.64633178710938 -120.67982482910156 -45.901466369628906
v 125.77835083007812 -119.51786041259766 -45.93684005737305
v 125.38212585449219 -117.5381088256836 -45.83066940307617
v 125.64627075195312 -118.85794067382812 -45.90144729614258
v 125.08633422851562 -118.19802856445312 -47.46283721923828
v 125.35047912597656 -119.51786041259766 -47.53362274169922
v 124.79054260253906 -118.85794067382812 -49.095008850097656
v 124.52639770507812 -117.5381088256836 -49.02423095703125
v 120.42140197753906 -113.71065521240234 -46.212867736816406
v 121.34217071533203 -113.27017211914062 -44.748165130615234
v 117.16816711425781 -118.85794067382812 -47.05259323120117
v 123.24876403808594 -113.71065521240234 -43.54761505126953
v 123.3138198852539 -114.15113830566406 -45.276466369628906
v 124.2345962524414 -114.59162139892578 -43.811763763427734
v 120.4864501953125 -113.27017211914062 -47.94171905517578
v 119.5006332397461 -114.15113830566406 -47.67757034301758
v 120.5514907836914 -112.8296890258789 -49.67057418823242
v 121.40721130371094 -112.8296890258789 -46.477020263671875
v 122.32798767089844 -113.27017211914062 -45.01231384277344
v 122.3930435180664 -113.71065521240234 -46.74116897583008
v 122.262939453125 -112.8296890258789 -43.28346252441406
v 121.4722671508789 -113.27017211914062 -48.20587158203125
v 123.96646118164062 -116.87818908691406 -50.58562088012695
v 124.42784118652344 -116.59236907958984 -48.14210891723633
v 124.03349304199219 -116.30654907226562 -48.89215850830078
v 124.10052490234375 -115.73490905761719 -47.198692321777344
v 118.57986450195312 -114.59162139892578 -49.14227294921875
v 119.04124450683594 -114.87744140625 -46.69876480102539
v 118.78094482421875 -116.30654907226562 -44.0618896484375
v 124.95626068115234 -115.73490905761719 -44.00513458251953
v 125.67792510986328 -116.87818908691406 -44.19850158691406
v 124.16755676269531 -115.16326904296875 -45.505226135253906
v 124.3943862915039 -124.16570281982422 -48.98886489868164
v 124.82231140136719 -124.16570281982422 -47.39209747314453
v 124.52645874023438 -123.00373840332031 -49.024253845214844
v 124.79060363769531 -120.67982482910156 -49.09503173828125
v 125.08645629882812 -121.84178161621094 -47.46287536621094
v 124.56190490722656 -115.44908142089844 -44.75518035888672
v 118.42010498046875 -116.87818908691406 -43.96520233154297
v 118.28804016113281 -117.5381088256836 -43.929813385009766
v 118.25254821777344 -115.44908142089844 -48.19886016845703
v 117.85820007324219 -115.73490905761719 -48.94890594482422
v 117.53087615966797 -116.59236907958984 -48.0054931640625
v 125.38230895996094 -123.00373840332031 -45.830718994140625
v 117.13652801513672 -116.87818908691406 -48.75553894042969
v 122.78837585449219 -113.49041748046875 -44.279964447021484
v 124.39432525634766 -116.87818908691406 -48.98883819580078
v 124.23060607910156 -118.19802856445312 -50.656402587890625
v 124.37850189208984 -117.8680648803711 -49.84031677246094
v 124.4947509765625 -119.51786041259766 -50.7271842956543
v 124.64264678955078 -119.18789672851562 -49.911094665527344
v 124.92261505126953 -119.51786041259766 -49.130401611328125
v 117.3160629272461 -119.18789672851562 -46.23651123046875
v 117.72810363769531 -118.19802856445312 -45.49120330810547
v 117.43231201171875 -117.5381088256836 -47.12337112426758
v 117.58020782470703 -117.86807250976562 -46.307289123535156
v 117.7122802734375 -117.20814514160156 -46.342674255371094
v 117.02027893066406 -118.52798461914062 -47.868675231933594
v 116.87238311767578 -118.19802856445312 -48.68476104736328
v 118.02389526367188 -118.85794067382812 -43.859031677246094
v 118.00807189941406 -117.86807250976562 -44.71051025390625
v 124.65853118896484 -121.84178161621094 -49.05964279174805
v 117.15234375 -122.42276000976562 -47.90406799316406
v 117.00444030761719 -123.00373840332031 -48.72015380859375
v 117.43230438232422 -123.00373840332031 -47.123374938964844
v 125.51432800292969 -121.84178161621094 -45.866092681884766
v 125.250244140625 -124.16570281982422 -45.79533386230469
v 117.44813537597656 -121.26080322265625 -46.27189636230469
v 117.30023193359375 -121.84178161621094 -47.087982177734375
v 117.72809600830078 -121.84178161621094 -45.49120330810547
v 117.89181518554688 -119.51786041259766 -43.823646545410156
v 117.74392700195312 -119.18789672851562 -44.63972854614258
v 119.00772857666016 -114.59162139892578 -47.545494079589844
v 120.97935485839844 -112.8296890258789 -48.07379913330078
v 123.80673217773438 -114.59162139892578 -45.40854263305664
v 117.87599182128906 -121.26080322265625 -44.67511749267578
v 118.02388763427734 -120.67982482910156 -43.859031677246094
v 118.1559829711914 -121.84178161621094 -43.894432067871094
v 118.30387878417969 -121.26080322265625 -43.078346252441406
v 118.45177459716797 -120.67982482910156 -42.26226043701172
v 118.58386993408203 -121.84178161621094 -42.29765701293945
v 118.28807830810547 -123.00373840332031 -43.92982482910156
v 118.43597412109375 -122.42276000976562 -43.113739013671875
v 118.7159652709961 -123.00373840332031 -42.33305358886719
v 117.5802001953125 -122.42276000976562 -46.307289123535156
v 117.86019134521484 -123.00373840332031 -45.5265998840332
v 118.00808715820312 -122.42276000976562 -44.710514068603516
v 125.79426574707031 -121.26080322265625 -45.08538818359375
v 125.94219207763672 -121.84178161621094 -44.269309997558594
v 125.66224670410156 -122.42276000976562 -45.05001449584961
v 125.8101806640625 -123.00373840332031 -44.23394012451172
v 124.51060485839844 -121.26080322265625 -49.8757209777832
v 124.36267852783203 -120.67982482910156 -50.691795349121094
v 124.23060607910156 -121.84178161621094 -50.656410217285156
v 124.37853240966797 -122.42276000976562 -49.84033203125
v 124.0985336303711 -123.00373840332031 -50.62102127075195
v 125.53024291992188 -123.584716796875 -45.01464080810547
v 125.67816925048828 -124.16570281982422 -44.19856643676758
v 118.56806945800781 -123.584716796875 -43.149139404296875
v 118.84806060791016 -124.16570281982422 -42.36845016479492
v 118.42017364501953 -124.16570281982422 -43.96522521972656
v 118.14018249511719 -123.584716796875 -44.74591064453125
v 118.17178344726562 -119.18789672851562 -43.042945861816406
v 118.3196792602539 -119.51786041259766 -42.226863861083984
v 117.284423828125 -117.20814514160156 -47.939453125
v 124.2464599609375 -123.584716796875 -49.8049430847168
v 123.96646118164062 -124.16570281982422 -50.58563232421875
v 117.71229553222656 -123.584716796875 -46.34268569946289
v 117.56439971923828 -124.16570281982422 -47.15877151489258
v 117.9922866821289 -124.16570281982422 -45.56199645996094
v 117.13651275634766 -124.16570281982422 -48.75554656982422
v 117.28440856933594 -123.584716796875 -47.93946075439453
v 124.6426773071289 -120.09884643554688 -49.911109924316406
v 117.74392700195312 -120.09884643554688 -44.63972854614258
v 118.17178344726562 -120.09884643554688 -43.042945861816406
v 118.843994140625 -124.16570281982422 -49.21306610107422
v 119.48480987548828 -124.16570281982422 -48.52906036376953
v 120.55148315429688 -124.16570281982422 -49.670589447021484
v 120.55558776855469 -124.16570281982422 -42.82598114013672
v 119.48785400390625 -124.16570281982422 -43.395599365234375
v 118.84806060791016 -124.16570281982422 -42.36845016479492
v 120.12765502929688 -124.16570281982422 -44.42274475097656
v 121.19538879394531 -124.16570281982422 -43.853126525878906
v 122.26311492919922 -124.16570281982422 -43.28350830078125
v 121.83518981933594 -124.16570281982422 -44.88027572631836
v 119.69976806640625 -124.16570281982422 -46.0195198059082
v 119.27391052246094 -124.16570281982422 -44.19398498535156
v 122.47498321533203 -124.16570281982422 -45.90742492675781
v 121.40725708007812 -124.16570281982422 -46.47704315185547
v 123.54270935058594 -124.16570281982422 -45.337806701660156
v 123.11478424072266 -124.16570281982422 -46.9345703125
v 120.12562561035156 -124.16570281982422 -47.845054626464844
v 120.9793701171875 -124.16570281982422 -48.073814392089844
v 122.04705810546875 -124.16570281982422 -47.504188537597656
v 122.68685913085938 -124.16570281982422 -48.53133773803711
v 122.25897216796875 -124.16570281982422 -50.12811279296875
v 123.32666015625 -124.16570281982422 -49.55848693847656
v 123.96646118164062 -124.16570281982422 -50.58563232421875
v 119.05895233154297 -124.16570281982422 -46.703529357910156
v 117.9922866821289 -124.16570281982422 -45.56199645996094
v 124.3943862915039 -124.16570281982422 -48.98886489868164
v 118.41813659667969 -124.16570281982422 -47.387535095214844
v 124.61044311523438 -124.16570281982422 -44.7681884765625
v 125.250244140625 -124.16570281982422 -45.79533386230469
v 125.67816925048828 -124.16570281982422 -44.19856643676758
v 123.97064208984375 -124.16570281982422 -43.74103546142578
v 122.90290832519531 -124.16570281982422 -44.3106575012207
v 117.77732849121094 -124.16570281982422 -48.07154083251953
v 117.56439971923828 -124.16570281982422 -47.15877151489258
v 124.82231140136719 -124.16570281982422 -47.39209747314453
v 121.61917114257812 -124.16570281982422 -49.1009635925293
v 120.7674560546875 -124.16570281982422 -45.449893951416016
v 118.63310241699219 -124.16570281982422 -44.87799072265625
v 118.42017364501953 -124.16570281982422 -43.96522521972656
v 117.13651275634766 -124.16570281982422 -48.75554656982422
v 120.76644134521484 -124.16570281982422 -47.161048889160156
vn 0.9738337993621826 -0.21512319147586823 -0.0732787549495697
vn 0.9583209156990051 -0.2589132487773895 -0.12076869606971741
vn 0.9220707416534424 -0.3805399537086487 -0.07053311914205551
vn -0.891722559928894 -0.38460734486579895 0.23855432868003845
vn -0.8659554719924927 -0.3839891850948334 0.3204267919063568
vn -0.8306072354316711 -0.45867040753364563 0.3157739043235779
vn 0.7440819144248962 -0.6572414636611938 -0.11989884078502655
vn 0.7255336046218872 -0.6600372195243835 -0.19481247663497925
vn 0.5943225026130676 -0.8009830117225647 -0.0721588134765625
vn 0.7581926584243774 -0.6505259871482849 -0.04427013918757439
vn 0.7930256128311157 -0.5935249924659729 -0.1372527927160263
vn 0.7510838508605957 -0.5948938131332397 -0.286312073469162
vn 0.8256786465644836 -0.4936978220939636 -0.27297860383987427
vn 0.8311858177185059 -0.45703229308128357 -0.31662553548812866
vn 0.8174634575843811 -0.528744101524353 -0.22843635082244873
vn 0.8911422491073608 -0.3856033980846405 -0.23911385238170624
vn 0.8698337078094482 0.1662939488887787 -0.46447357535362244
vn 0.8634762763977051 0.27339354157447815 -0.42386865615844727
vn 0.7999932169914246 0.3694247007369995 -0.47279614210128784
vn 0.9134494662284851 0.17308492958545685 -0.3683093786239624
vn 0.946542501449585 0.06471238285303116 -0.3160214126110077
vn 0.9450960159301758 0.17265640199184418 -0.277458518743515
vn 0.8657652735710144 -0.3838798999786377 -0.3210712671279907
vn -0.7433146238327026 -0.6582856774330139 0.11892538517713547
vn -0.7260807156562805 -0.6596264243125916 0.19416463375091553
vn -0.5931209325790405 -0.8019706606864929 0.0710662379860878
vn -0.7561187148094177 -0.6530218124389648 0.04297739267349243
vn -0.7915041446685791 -0.5958152413368225 0.13610771298408508
vn 0.9648944735527039 -0.04466798156499863 -0.2588118314743042
vn 0.9363173842430115 -0.044792111963033676 -0.34828630089759827
vn 0.9124094247817993 0.06470349431037903 -0.40413182973861694
vn 0.8994799256324768 -0.04452107846736908 -0.43468809127807617
vn -0.8997622132301331 -0.043270207941532135 0.4342299997806549
vn -0.9091012477874756 0.06402916461229324 0.4116249680519104
vn -0.8624471426010132 0.16305197775363922 0.4791649878025055
vn -0.9074299335479736 0.170553058385849 0.3840346038341522
vn -0.9365570545196533 -0.04377368465065956 0.3477712869644165
vn -0.8937814831733704 -0.30097880959510803 0.3325151205062866
vn -0.9275240302085876 -0.13118797540664673 0.3499840795993805
vn -0.9408187866210938 -0.21705953776836395 0.26027926802635193
vn -0.9650827050209045 -0.04389066994190216 0.2582419514656067
vn -0.9769977927207947 -0.13113829493522644 0.16816076636314392
vn -0.9394388794898987 -0.2995454668998718 0.16651469469070435
vn 0.4005766808986664 -0.9111759066581726 -0.09642016887664795
vn 0.22853414714336395 -0.9728562831878662 0.03637142851948738
vn 0.9270827174186707 -0.1329955756664276 -0.350470632314682
vn -0.34715506434440613 -0.8955898880958557 0.27821236848831177
vn -0.5541579723358154 -0.8017043471336365 0.22400671243667603
vn -0.6787593960762024 -0.6505295634269714 0.34073007106781006
vn 0.1848718225955963 -0.9732649922370911 -0.13630028069019318
vn 0.5521750450134277 -0.8029921054840088 -0.22429080307483673
vn -0.04044158756732941 -0.9847694635391235 -0.16909629106521606
vn 0.0022269899491220713 -0.9999971389770508 -0.0009085526107810438
vn -0.18279710412025452 -0.9738312363624573 0.13504764437675476
vn -0.40073835849761963 -0.9111876487731934 0.09563424438238144
vn 0.04482800140976906 -0.9848852157592773 0.16730675101280212
vn -0.22647882997989655 -0.9732857346534729 -0.03771159425377846
vn -0.9234060049057007 -0.37735921144485474 0.07015290856361389
vn -0.8854084014892578 -0.42201942205429077 0.19481199979782104
vn -0.8764910101890564 -0.45747947692871094 0.14992043375968933
vn -0.8164434432983398 -0.530745267868042 0.2274417132139206
vn 0.6755922436714172 -0.6538262963294983 -0.34071436524391174
vn 0.7397686243057251 -0.6283127069473267 -0.2407604306936264
vn 0.8761245608329773 -0.4579651951789856 -0.1505773812532425
vn -0.7659617066383362 -0.5221328139305115 0.37507328391075134
vn -0.8338086605072021 -0.3805420696735382 0.39993855357170105
vn -0.751950740814209 -0.5940736532211304 0.28573864698410034
vn -0.6734700798988342 0.7370091080665588 0.057057615369558334
vn -0.6391652226448059 0.7417309880256653 0.20323151350021362
vn -0.8143040537834167 0.5685036182403564 0.11709987372159958
vn -0.964449405670166 0.17204897105693817 0.200590118765831
vn -0.8712698817253113 0.3761388063430786 0.31529074907302856
vn -0.7604551911354065 -0.5588416457176208 0.33076250553131104
vn 0.9099569320678711 -0.3844873309135437 -0.15539564192295074
vn 0.9384675025939941 -0.3023328185081482 -0.16695420444011688
vn 0.7594428658485413 -0.559892475605011 -0.33131101727485657
vn 0.7648143768310547 -0.5234299302101135 -0.3756062686443329
vn 0.8339669108390808 -0.4188677966594696 -0.3592340052127838
vn -0.7227723002433777 0.556347131729126 0.4099732041358948
vn 0.8340127468109131 -0.37932953238487244 -0.4006642699241638
vn -0.26827487349510193 -0.9410346150398254 0.2061130851507187
vn -0.9109197854995728 -0.38239189982414246 0.15492430329322815
vn -0.9742741584777832 -0.21330885589122772 0.0727262869477272
vn -0.9590054154396057 -0.2566043436527252 0.1202608197927475
vn -0.9963948130607605 -0.042964477092027664 0.07315375655889511
vn -0.9888217449188232 -0.08723890036344528 0.1209171712398529
vn -0.9850875735282898 -0.043620139360427856 0.16643260419368744
vn 0.9480805993080139 -0.08902823179960251 -0.30531495809555054
vn 0.9401469826698303 -0.21938444674015045 -0.26075705885887146
vn 0.8934030532836914 -0.301490843296051 -0.33306798338890076
vn 0.9184014201164246 -0.2608996629714966 -0.2974392771720886
vn 0.8940521478652954 -0.3442322611808777 -0.2866614758968353
vn 0.9051267504692078 -0.174682155251503 -0.38759729266166687
vn 0.8797687888145447 -0.21510937809944153 -0.42395156621932983
vn 0.9767166972160339 -0.13246282935142517 -0.16875424981117249
vn 0.941153883934021 -0.2613714635372162 -0.21427606046199799
vn -0.9126297831535339 0.3782513439655304 0.15502521395683289
vn 0.7749753594398499 0.47083014249801636 -0.4215828776359558
vn 0.6931858658790588 0.5554847121238708 -0.45927128195762634
vn 0.7394706606864929 0.5658644437789917 -0.36466488242149353
vn -0.8328039050102234 0.3709816336631775 0.4108652174472809
vn -0.5904369354248047 0.7297149300575256 0.3448193073272705
vn 0.9025864005088806 0.2792109251022339 -0.3276875615119934
vn 0.8444913029670715 0.37757977843284607 -0.37982606887817383
vn 0.8799618482589722 0.3816985487937927 -0.28279566764831543
vn 0.9849587082862854 -0.044149767607450485 -0.16705399751663208
vn 0.9727479815483093 -0.08874261379241943 -0.21421077847480774
vn 0.7026582360267639 -0.6588965654373169 -0.26856428384780884
vn -0.01918017864227295 -0.9961684942245483 -0.08532664179801941
vn -0.7045193910598755 -0.6570358276367188 0.26824668049812317
vn 0.9306997656822205 0.28021857142448425 -0.2351071685552597
vn 0.9673407673835754 0.17449426651000977 -0.18385760486125946
vn 0.9182571768760681 0.3768787086009979 -0.1215161383152008
vn 0.9599205255508423 0.2710879445075989 -0.07116203755140305
vn 0.9865050911903381 0.16297440230846405 -0.01572013832628727
vn 0.9312996864318848 0.3616943955421448 0.043105192482471466
vn 0.8225015997886658 0.5646683573722839 -0.06812382489442825
vn 0.8841592669487 0.4670153856277466 -0.012612862512469292
vn 0.833256721496582 0.5437772870063782 0.09994778037071228
vn 0.8158953189849854 0.47739699482917786 -0.3262007236480713
vn 0.787513792514801 0.576368510723114 -0.2182232290506363
vn 0.8601881861686707 0.47816216945648193 -0.1773058921098709
vn -0.853459894657135 0.26841869950294495 0.446718692779541
vn -0.7854763269424438 0.3618769645690918 0.5020678043365479
vn -0.7589044570922852 0.46202221512794495 0.45891109108924866
vn -0.6723889708518982 0.5440626740455627 0.5018852949142456
vn -0.9568865895271301 0.27393582463264465 0.09657750278711319
vn -0.9853560328483582 0.16736769676208496 0.03258237615227699
vn -0.9289834499359131 0.3699997067451477 -0.009488038718700409
vn -0.8792133927345276 0.47332677245140076 0.05427318438887596
vn -0.8298706412315369 0.5556089282035828 -0.05112193152308464
vn -0.6306034326553345 0.6338402032852173 0.4478682577610016
vn -0.5283849239349365 0.7012321949005127 0.4786258935928345
vn 0.7676869034767151 0.6394156217575073 0.04247685894370079
vn 0.6968858242034912 0.7008476853370667 0.15219300985336304
vn 0.683811604976654 0.7296426296234131 0.004848581738770008
vn 0.7449257373809814 0.6586354970932007 -0.10623065382242203
vn 0.9886726140975952 -0.0880436822772026 -0.12155234813690186
vn 0.9963334798812866 -0.04324205219745636 -0.07382237911224365
vn 0.8652401566505432 -0.3410140872001648 -0.36751696467399597
vn -0.761044442653656 0.6485596299171448 0.013482727110385895
vn -0.6925775408744812 0.7156559824943542 -0.09040383249521255
vn 0.7050836086273193 0.6611273288726807 -0.25645220279693604
vn 0.6117236018180847 0.7372432351112366 -0.2868218719959259
vn 0.655207633972168 0.7418670058250427 -0.1426059603691101
vn 0.5543469786643982 0.7158762812614441 -0.42452389001846313
vn 0.6518455147743225 0.6457609534263611 -0.3976055979728699
vn -0.9882969856262207 0.06506066024303436 0.13797129690647125
vn 0.9726632237434387 0.06535293161869049 -0.22283430397510529
vn 0.9893296360969543 0.06612690538167953 -0.12982319295406342
vn 0.24697083234786987 0.8800988793373108 -0.4055013358592987
vn 0.1930834800004959 0.9285207986831665 -0.31712454557418823
vn -0.09048908203840256 0.9371157884597778 -0.33708420395851135
vn 0.42789211869239807 0.8535049557685852 0.2973848283290863
vn 0.5482048392295837 0.8259326219558716 0.13155512511730194
vn 0.6968858242034912 0.7008476853370667 0.15219300985336304
vn 0.37859439849853516 0.9194849729537964 0.10589470714330673
vn 0.24892812967300415 0.9323232769966125 0.262312650680542
vn 0.10894510895013809 0.9065217971801758 0.4078591465950012
vn 0.05709054321050644 0.9714795351028442 0.23014837503433228
vn 0.3452562093734741 0.9325859546661377 -0.10526908934116364
vn 0.5377035140991211 0.8427862524986267 0.024210862815380096
vn -0.14272987842559814 0.9758078455924988 0.1656116247177124
vn 0.003038587747141719 0.9990453720092773 0.04357926920056343
vn -0.2832629680633545 0.9167774319648743 0.2815692722797394
vn -0.34022456407546997 0.9310329556465149 0.13200372457504272
vn 0.1314496248960495 0.964691162109375 -0.22823657095432281
vn -0.044612303376197815 0.9877200722694397 -0.1497296392917633
vn -0.18856869637966156 0.9820159077644348 0.009303348138928413
vn -0.37297677993774414 0.9274948835372925 -0.025327757000923157
vn -0.41692644357681274 0.8799815773963928 -0.22760650515556335
vn -0.5431454181671143 0.8375638127326965 -0.05899190157651901
vn -0.6925775408744812 0.7156559824943542 -0.09040383249521255
vn 0.4056263864040375 0.8941688537597656 -0.18955005705356598
vn 0.655207633972168 0.7418670058250427 -0.1426059603691101
vn -0.6734700798988342 0.7370091080665588 0.057057615369558334
vn 0.46103835105895996 0.8448217511177063 -0.27151402831077576
vn -0.4134058952331543 0.8241192698478699 0.38719886541366577
vn -0.5904369354248047 0.7297149300575256 0.3448193073272705
vn -0.5283849239349365 0.7012321949005127 0.4786258935928345
vn -0.22272039949893951 0.8537091612815857 0.47071903944015503
vn -0.08907090127468109 0.9316480159759521 0.3522760570049286
vn 0.5108147263526917 0.7851477265357971 -0.35015904903411865
vn 0.6117236018180847 0.7372432351112366 -0.2868218719959259
vn -0.6391652226448059 0.7417309880256653 0.20323151350021362
vn -0.23703931272029877 0.953653872013092 -0.18535536527633667
vn 0.19452989101409912 0.9779329895973206 0.07619141042232513
vn 0.6003570556640625 0.7975093722343445 -0.05958476662635803
vn 0.683811604976654 0.7296426296234131 0.004848581738770008
vn 0.5543469786643982 0.7158762812614441 -0.42452389001846313
vn 0.06802713125944138 0.9933016300201416 -0.09340377151966095
vt 0.14602971076965332 -0.25615739822387695
vt 0.12643316388130188 -0.19228875637054443
vt 0.06764350831508636 -0.25615739822387695
vt 0.06764347851276398 -0.0006829500198364258
vt 0.06764349341392517 -0.12842011451721191
vt 0.018449846655130386 -0.12842011451721191
vt -0.12913110852241516 -0.12842011451721191
vt -0.12913112342357635 -0.0006829500198364258
vt -0.1787503957748413 -0.12842011451721191
vt -0.12913110852241516 -0.25615739822387695
vt -0.07993747293949127 -0.12842011451721191
vt -0.07993748784065247 0.1270543336868286
vt -0.006147010251879692 0.0631856918334961
vt 0.0184498094022274 0.1270543336868286
vt -0.030743829905986786 -0.0006829500198364258
vt 0.06764347851276398 -0.0006829500198364258
vt 0.35387712717056274 0.2547915577888489
vt 0.4186077117919922 0.19092297554016113
vt 0.483338326215744 0.2547915577888489
vt 0.35387712717056274 0.1270543336868286
vt 0.2891465127468109 0.0631856918334961
vt 0.35387712717056274 -0.0006829500198364258
vt 0.06764346361160278 0.1270543336868286
vt -0.12913113832473755 0.1270543336868286
vt -0.12913112342357635 -0.0006829500198364258
vt -0.1787503957748413 0.1270543336868286
vt -0.12913113832473755 0.2547915577888489
vt -0.07993747293949127 0.1270543336868286
vt 0.22441591322422028 -0.0006829500198364258
vt 0.22441591322422028 0.1270543336868286
vt 0.2891465127468109 0.19092297554016113
vt 0.22441591322422028 0.2547915577888489
vt 0.22441591322422028 -0.25615739822387695
vt 0.2891465127468109 -0.19228875637054443
vt 0.35387712717056274 -0.25615739822387695
vt 0.35387712717056274 -0.12842011451721191
vt 0.22441591322422028 -0.12842011451721191
vt 0.10683659464120865 -0.12842011451721191
vt 0.1852228045463562 -0.12842011451721191
vt 0.14602968096733093 -0.0006829500198364258
vt 0.22441591322422028 -0.0006829500198364258
vt 0.1852228045463562 0.1270543336868286
vt 0.10683656483888626 0.1270543336868286
vt -0.22836966812610626 -0.0006829500198364258
vt -0.2779889404773712 -0.12842011451721191
vt 0.1852228045463562 0.1270543336868286
vt -0.22836965322494507 -0.25615739822387695
vt -0.1787503957748413 -0.12842011451721191
vt -0.12913110852241516 -0.25615739822387695
vt -0.2779889404773712 0.1270543336868286
vt -0.1787503957748413 0.1270543336868286
vt -0.32760822772979736 0.2547915577888489
vt -0.32760822772979736 -0.0006829500198364258
vt -0.2779889404773712 -0.12842011451721191
vt -0.22836966812610626 -0.0006829500198364258
vt -0.327608197927475 -0.25615739822387695
vt -0.2779889404773712 0.1270543336868286
vt 0.06764344871044159 0.2547915577888489
vt 0.04304664582014084 0.0631856918334961
vt 0.018449816852808 0.1270543336868286
vt -0.030743815004825592 -0.0006829500198364258
vt -0.12913113832473755 0.2547915577888489
vt -0.10453430563211441 0.0631856918334961
vt 0.01844983920454979 -0.12842011451721191
vt -0.030743800103664398 -0.25615739822387695
vt 0.06764350831508636 -0.25615739822387695
vt -0.07993745803833008 -0.12842011451721191
vt 0.7422608137130737 0.1270543336868286
vt 0.7422608137130737 -0.0006829500198364258
vt 0.6127996444702148 0.1270543336868286
vt 0.35387712717056274 0.1270543336868286
vt 0.4833383560180664 -0.0006829500198364258
vt -0.05534063279628754 -0.19228875637054443
vt 0.06764349341392517 -0.12842011451721191
vt 0.10683660954236984 -0.12842011451721191
vt -0.05534066632390022 0.19092297554016113
vt -0.03074384480714798 0.2547915577888489
vt 0.043046630918979645 0.19092297554016113
vt 0.6127995252609253 -0.12842011451721191
vt 0.06764344871044159 0.2547915577888489
vt -0.25317931175231934 -0.19228875637054443
vt 0.06764346361160278 0.1270543336868286
vt 0.14602968096733093 0.2547915577888489
vt 0.1264331340789795 0.19092297554016113
vt 0.22441591322422028 0.2547915577888489
vt 0.20481935143470764 0.19092297554016113
vt 0.22441591322422028 0.1270543336868286
vt 0.20481935143470764 0.0631856918334961
vt 0.14602971076965332 -0.0006829500198364258
vt 0.10683657974004745 0.1270543336868286
vt 0.12643314898014069 0.0631856918334961
vt 0.08724002540111542 0.0631856918334961
vt 0.16562624275684357 0.19092297554016113
vt 0.14602968096733093 0.2547915577888489
vt 0.1852228045463562 -0.12842011451721191
vt 0.12643316388130188 -0.06455159187316895
vt 0.4833383858203888 0.1270543336868286
vt 0.5480689406394958 0.19092297554016113
vt 0.6127995252609253 0.2547915577888489
vt 0.6127995252609253 0.1270543336868286
vt 0.4833383560180664 -0.12842011451721191
vt 0.7422608137130737 -0.12842011451721191
vt 0.4186077117919922 0.0631856918334961
vt 0.483338326215744 0.1270543336868286
vt 0.483338326215744 -0.0006829500198364258
vt 0.22441591322422028 -0.12842011451721191
vt 0.20481935143470764 -0.06455159187316895
vt -0.12913113832473755 0.1270543336868286
vt -0.32760822772979736 0.1270543336868286
vt -0.12913110852241516 -0.12842011451721191
vt 0.4186077117919922 -0.06455159187316895
vt 0.35387712717056274 -0.12842011451721191
vt 0.4833383560180664 -0.12842011451721191
vt 0.4186077415943146 -0.19228875637054443
vt 0.35387712717056274 -0.25615739822387695
vt 0.4833383560180664 -0.25615739822387695
vt 0.6127995252609253 -0.12842011451721191
vt 0.5480689406394958 -0.19228875637054443
vt 0.6127995252609253 -0.25615739822387695
vt 0.5480689406394958 0.0631856918334961
vt 0.6127995252609253 -0.0006829500198364258
vt 0.5480689406394958 -0.06455159187316895
vt 0.4186077117919922 -0.19228875637054443
vt 0.483338326215744 -0.25615739822387695
vt 0.5480689406394958 -0.19228875637054443
vt 0.6127995252609253 -0.25615739822387695
vt 0.41860777139663696 0.19092297554016113
vt 0.3538771867752075 0.2547915577888489
vt 0.4833384156227112 0.2547915577888489
vt 0.5480690002441406 0.19092297554016113
vt 0.6127996444702148 0.2547915577888489
vt 0.6775301694869995 -0.19228875637054443
vt 0.742260754108429 -0.25615739822387695
vt 0.6775301694869995 -0.19228875637054443
vt 0.742260754108429 -0.25615739822387695
vt 0.742260754108429 -0.12842011451721191
vt 0.6775301694869995 -0.06455159187316895
vt 0.20481935143470764 -0.19228875637054443
vt 0.22441591322422028 -0.25615739822387695
vt 0.08724001049995422 0.19092297554016113
vt 0.6775302886962891 0.19092297554016113
vt 0.7422608733177185 0.2547915577888489
vt 0.6775301694869995 0.0631856918334961
vt 0.742260754108429 0.1270543336868286
vt 0.742260754108429 -0.0006829500198364258
vt 0.742260754108429 0.2547915577888489
vt 0.6775301694869995 0.19092297554016113
vt 0.2891465127468109 0.19092297554016113
vt 0.2891465127468109 -0.06455159187316895
vt 0.2891465127468109 -0.19228875637054443
vt 0.37465882301330566 0.09579789638519287
vt 0.3433866500854492 0.2118348479270935
vt 0.24957019090652466 0.09579825401306152
vt 0.37465858459472656 1.0240928530693054
vt 0.43720313906669617 0.9080557525157928
vt 0.49974745512008667 1.024092435836792
vt 0.37465882301330566 0.7920190691947937
vt 0.31211429834365845 0.9080561697483063
vt 0.24956974387168884 1.0240932703018188
vt 0.24956996738910675 0.7920194864273071
vt 0.37465882301330566 0.5599453449249268
vt 0.43720313906669617 0.7920188903808594
vt 0.18702563643455505 0.675982803106308
vt 0.24957019090652466 0.5599457025527954
vt 0.12448109686374664 0.7920199036598206
vt 0.12448133528232574 0.5599461197853088
vt 0.31211450695991516 0.32787179946899414
vt 0.24957019090652466 0.32787197828292847
vt 0.18702587485313416 0.44390904903411865
vt 0.12448157370090485 0.3278723359107971
vt 0.12448157370090485 0.09579861164093018
vt 0.06193726509809494 0.21183562278747559
vt -0.0006070416420698166 0.09579896926879883
vt 0.4059309959411621 0.4439083933830261
vt 0.49974745512008667 0.5599449872970581
vt -0.0006072800606489182 0.32787275314331055
vt 0.43720313906669617 0.3278714418411255
vt 0.061936549842357635 0.9080570042133331
vt -0.0006077568978071213 0.792020320892334
vt -0.0006079953163862228 1.0240941047668457
vt 0.12448087334632874 1.0240936875343323
vt 0.18702542781829834 0.9080565869808197
vt 0.4684752821922302 0.21183449029922485
vt 0.49974745512008667 0.32787126302719116
vt -0.0006075184792280197 0.5599465370178223
vt 0.18702587485313416 0.21183526515960693
vt 0.31211450695991516 0.6759823858737946
vt 0.4684752821922302 0.6759819388389587
vt 0.49974745512008667 0.792018711566925
vt 0.49974745512008667 0.09579753875732422
vt 0.2808423638343811 0.4439087510108948
g Canal10a0
s 1
f 1/1/1 2/2/2 3/3/3
f 4/4/4 5/5/5 6/6/6
f 7/7/7 8/8/8 9/9/9
f 10/10/10 7/7/7 9/9/9
f 7/7/7 10/10/10 11/11/11
f 8/8/8 7/7/7 11/11/11
f 12/12/12 13/13/13 14/14/14
f 12/12/12 15/15/15 13/13/13
f 16/16/16 13/13/13 15/15/15
f 16/16/16 14/14/14 13/13/13
f 17/17/17 18/18/18 19/19/19
f 20/20/20 21/21/21 22/22/22
f 16/16/16 23/23/23 14/14/14
f 24/24/24 25/25/25 26/26/26
f 27/27/27 24/24/24 26/26/26
f 24/24/24 27/27/27 28/28/28
f 25/25/25 24/24/24 28/28/28
f 21/21/21 29/29/29 22/22/22
f 30/30/30 29/29/29 21/21/21
f 30/30/30 21/21/21 20/20/20
f 31/31/31 30/30/30 20/20/20
f 32/32/32 30/30/30 31/31/31
f 32/32/32 31/31/31 17/17/17
f 31/31/31 20/20/20 17/17/17
f 33/33/33 34/34/34 35/35/35
f 34/34/34 36/36/36 35/35/35
f 34/34/34 37/37/37 36/36/36
f 38/38/38 39/39/39 33/33/33
f 38/38/38 40/40/40 39/39/39
f 41/41/41 39/39/39 40/40/40
f 42/42/42 40/40/40 43/43/43
f 4/4/4 43/43/43 40/40/40
f 9/9/9 44/44/44 45/45/45
f 10/10/10 9/9/9 45/45/45
f 9/9/9 8/8/8 44/44/44
f 30/30/30 32/32/32 46/46/46
f 47/47/47 48/48/48 49/49/49
f 50/50/50 44/44/44 51/51/51
f 52/52/52 50/50/50 51/51/51
f 50/50/50 53/53/53 44/44/44
f 54/54/54 55/55/55 48/48/48
f 56/56/56 53/53/53 54/54/54
f 54/54/54 53/53/53 55/55/55
f 26/26/26 55/55/55 57/57/57
f 27/27/27 26/26/26 57/57/57
f 26/26/26 25/25/25 55/55/55
f 37/37/37 41/41/41 36/36/36
f 41/41/41 37/37/37 39/39/39
f 58/58/58 59/59/59 60/60/60
f 60/60/60 59/59/59 61/61/61
f 60/60/60 61/61/61 28/28/28
f 58/58/58 60/60/60 28/28/28
f 37/37/37 33/33/33 39/39/39
f 59/59/59 4/4/4 6/6/6
f 59/59/59 6/6/6 61/61/61
f 62/62/62 63/63/63 12/12/12
f 12/12/12 63/63/63 15/15/15
f 63/63/63 8/8/8 11/11/11
f 63/63/63 11/11/11 15/15/15
f 64/64/64 15/15/15 11/11/11
f 3/3/3 64/64/64 11/11/11
f 64/64/64 16/16/16 15/15/15
f 65/65/65 6/6/6 66/66/66
f 67/67/67 61/61/61 6/6/6
f 67/67/67 25/25/25 61/61/61
f 68/68/68 69/69/69 70/70/70
f 41/41/41 71/71/71 72/72/72
f 36/36/36 41/41/41 72/72/72
f 49/49/49 73/73/73 65/65/65
f 73/73/73 6/6/6 65/65/65
f 73/73/73 67/67/67 6/6/6
f 49/49/49 67/67/67 73/73/73
f 3/3/3 74/74/74 64/64/64
f 74/74/74 16/16/16 64/64/64
f 16/16/16 74/74/74 75/75/75
f 74/74/74 3/3/3 75/75/75
f 76/76/76 12/12/12 14/14/14
f 62/62/62 12/12/12 76/76/76
f 62/62/62 76/76/76 77/77/77
f 76/76/76 14/14/14 77/77/77
f 77/77/77 14/14/14 78/78/78
f 69/69/69 79/79/79 72/72/72
f 77/77/77 78/78/78 80/80/80
f 23/23/23 80/80/80 78/78/78
f 23/23/23 78/78/78 14/14/14
f 81/81/81 54/54/54 48/48/48
f 70/70/70 69/69/69 72/72/72
f 56/56/56 54/54/54 81/81/81
f 56/56/56 81/81/81 47/47/47
f 81/81/81 48/48/48 47/47/47
f 4/4/4 82/82/82 43/43/43
f 82/82/82 58/58/58 43/43/43
f 58/58/58 82/82/82 59/59/59
f 82/82/82 4/4/4 59/59/59
f 83/83/83 42/42/42 84/84/84
f 83/83/83 84/84/84 58/58/58
f 84/84/84 43/43/43 58/58/58
f 42/42/42 43/43/43 84/84/84
f 85/85/85 86/86/86 83/83/83
f 86/86/86 42/42/42 83/83/83
f 86/86/86 87/87/87 42/42/42
f 85/85/85 87/87/87 86/86/86
f 29/29/29 88/88/88 89/89/89
f 88/88/88 46/46/46 89/89/89
f 88/88/88 30/30/30 46/46/46
f 29/29/29 30/30/30 88/88/88
f 90/90/90 91/91/91 46/46/46
f 91/91/91 89/89/89 46/46/46
f 42/42/42 41/41/41 40/40/40
f 91/91/91 92/92/92 89/89/89
f 90/90/90 92/92/92 91/91/91
f 93/93/93 46/46/46 32/32/32
f 38/38/38 4/4/4 40/40/40
f 90/90/90 46/46/46 93/93/93
f 66/66/66 38/38/38 33/33/33
f 94/94/94 90/90/90 93/93/93
f 94/94/94 93/93/93 32/32/32
f 95/95/95 89/89/89 96/96/96
f 95/95/95 96/96/96 75/75/75
f 8/8/8 51/51/51 44/44/44
f 16/16/16 75/75/75 96/96/96
f 52/52/52 51/51/51 62/62/62
f 16/16/16 96/96/96 89/89/89
f 53/53/53 45/45/45 44/44/44
f 53/53/53 56/56/56 45/45/45
f 10/10/10 45/45/45 56/56/56
f 2/2/2 75/75/75 3/3/3
f 95/95/95 75/75/75 2/2/2
f 1/1/1 95/95/95 2/2/2
f 5/5/5 66/66/66 6/6/6
f 27/27/27 57/57/57 52/52/52
f 70/70/70 72/72/72 97/97/97
f 19/19/19 98/98/98 99/99/99
f 97/97/97 72/72/72 71/71/71
f 98/98/98 100/100/100 99/99/99
f 101/101/101 72/72/72 79/79/79
f 36/36/36 72/72/72 101/101/101
f 69/69/69 102/102/102 79/79/79
f 20/20/20 103/103/103 104/104/104
f 23/23/23 92/92/92 90/90/90
f 23/23/23 16/16/16 92/92/92
f 92/92/92 16/16/16 89/89/89
f 103/103/103 105/105/105 104/104/104
f 106/106/106 107/107/107 95/95/95
f 106/106/106 29/29/29 107/107/107
f 107/107/107 29/29/29 89/89/89
f 95/95/95 107/107/107 89/89/89
f 103/103/103 22/22/22 105/105/105
f 20/20/20 22/22/22 103/103/103
f 18/18/18 104/104/104 19/19/19
f 33/33/33 37/37/37 34/34/34
f 20/20/20 104/104/104 18/18/18
f 41/41/41 87/87/87 71/71/71
f 87/87/87 41/41/41 42/42/42
f 17/17/17 20/20/20 18/18/18
f 108/108/108 8/8/8 63/63/63
f 62/62/62 108/108/108 63/63/63
f 108/108/108 62/62/62 51/51/51
f 8/8/8 108/108/108 51/51/51
f 109/109/109 53/53/53 50/50/50
f 52/52/52 109/109/109 50/50/50
f 109/109/109 52/52/52 57/57/57
f 53/53/53 109/109/109 57/57/57
f 110/110/110 25/25/25 67/67/67
f 49/49/49 110/110/110 67/67/67
f 110/110/110 49/49/49 48/48/48
f 25/25/25 110/110/110 48/48/48
f 5/5/5 4/4/4 38/38/38
f 19/19/19 104/104/104 98/98/98
f 98/98/98 104/104/104 100/100/100
f 22/22/22 111/111/111 105/105/105
f 22/22/22 112/112/112 111/111/111
f 113/113/113 111/111/111 112/112/112
f 113/113/113 105/105/105 111/111/111
f 114/114/114 112/112/112 115/115/115
f 116/116/116 114/114/114 115/115/115
f 116/116/116 113/113/113 114/114/114
f 114/114/114 113/113/113 112/112/112
f 117/117/117 113/113/113 118/118/118
f 118/118/118 113/113/113 116/116/116
f 119/119/119 118/118/118 116/116/116
f 119/119/119 117/117/117 118/118/118
f 104/104/104 120/120/120 100/100/100
f 104/104/104 105/105/105 120/120/120
f 121/121/121 120/120/120 105/105/105
f 121/121/121 100/100/100 120/120/120
f 122/122/122 105/105/105 113/113/113
f 117/117/117 122/122/122 113/113/113
f 117/117/117 121/121/121 122/122/122
f 122/122/122 121/121/121 105/105/105
f 35/35/35 123/123/123 124/124/124
f 35/35/35 36/36/36 123/123/123
f 36/36/36 101/101/101 123/123/123
f 123/123/123 101/101/101 124/124/124
f 125/125/125 79/79/79 126/126/126
f 124/124/124 125/125/125 126/126/126
f 124/124/124 101/101/101 125/125/125
f 125/125/125 101/101/101 79/79/79
f 127/127/127 71/71/71 128/128/128
f 129/129/129 127/127/127 128/128/128
f 129/129/129 97/97/97 127/127/127
f 127/127/127 97/97/97 71/71/71
f 70/70/70 97/97/97 130/130/130
f 130/130/130 97/97/97 129/129/129
f 131/131/131 130/130/130 129/129/129
f 131/131/131 70/70/70 130/130/130
f 126/126/126 132/132/132 133/133/133
f 126/126/126 79/79/79 132/132/132
f 102/102/102 132/132/132 79/79/79
f 102/102/102 133/133/133 132/132/132
f 134/134/134 117/117/117 119/119/119
f 135/135/135 134/134/134 119/119/119
f 135/135/135 136/136/136 134/134/134
f 134/134/134 136/136/136 117/117/117
f 136/136/136 137/137/137 117/117/117
f 138/138/138 95/95/95 1/1/1
f 66/66/66 5/5/5 38/38/38
f 138/138/138 106/106/106 95/95/95
f 25/25/25 48/48/48 55/55/55
f 139/139/139 106/106/106 138/138/138
f 80/80/80 140/140/140 94/94/94
f 140/140/140 90/90/90 94/94/94
f 140/140/140 23/23/23 90/90/90
f 80/80/80 23/23/23 140/140/140
f 141/141/141 68/68/68 70/70/70
f 142/142/142 68/68/68 141/141/141
f 142/142/142 141/141/141 131/131/131
f 141/141/141 70/70/70 131/131/131
f 143/143/143 144/144/144 100/100/100
f 145/145/145 144/144/144 143/143/143
f 145/145/145 143/143/143 121/121/121
f 143/143/143 100/100/100 121/121/121
f 3/3/3 11/11/11 10/10/10
f 144/144/144 146/146/146 147/147/147
f 144/144/144 147/147/147 100/100/100
f 99/99/99 100/100/100 147/147/147
f 99/99/99 147/147/147 146/146/146
f 87/87/87 85/85/85 148/148/148
f 25/25/25 28/28/28 61/61/61
f 87/87/87 148/148/148 71/71/71
f 58/58/58 28/28/28 27/27/27
f 128/128/128 71/71/71 148/148/148
f 128/128/128 148/148/148 85/85/85
f 149/149/149 106/106/106 112/112/112
f 29/29/29 106/106/106 149/149/149
f 29/29/29 149/149/149 22/22/22
f 149/149/149 112/112/112 22/22/22
f 106/106/106 139/139/139 150/150/150
f 106/106/106 150/150/150 112/112/112
f 115/115/115 112/112/112 150/150/150
f 115/115/115 150/150/150 139/139/139
f 117/117/117 137/137/137 121/121/121
f 137/137/137 145/145/145 121/121/121
f 136/136/136 145/145/145 137/137/137
f 53/53/53 57/57/57 55/55/55
f 139/139/139 138/138/138 1/1/1
g Canal10a1
s 1
f 151/151/151 152/152/152 153/153/153
f 154/154/154 155/155/155 156/156/156
f 154/154/154 157/157/157 155/155/155
f 158/158/158 157/157/157 154/154/154
f 159/159/159 158/158/158 154/154/154
f 159/159/159 160/160/160 158/158/158
f 161/161/161 162/162/162 157/157/157
f 158/158/158 160/160/160 157/157/157
f 163/163/163 164/164/164 160/160/160
f 165/165/165 163/163/163 160/160/160
f 165/165/165 166/166/166 163/163/163
f 153/153/153 167/167/167 168/168/168
f 163/163/163 166/166/166 164/164/164
f 168/168/168 169/169/169 170/170/170
f 168/168/168 164/164/164 169/169/169
f 166/166/166 169/169/169 164/164/164
f 166/166/166 170/170/170 169/169/169
f 171/171/171 172/172/172 173/173/173
f 174/174/174 161/161/161 167/167/167
f 174/174/174 175/175/175 161/161/161
f 171/171/171 170/170/170 172/172/172
f 176/176/176 172/172/172 170/170/170
f 177/177/177 175/175/175 174/174/174
f 152/152/152 167/167/167 153/153/153
f 176/176/176 173/173/173 172/172/172
f 178/178/178 179/179/179 165/165/165
f 180/180/180 179/179/179 178/178/178
f 180/180/180 178/178/178 181/181/181
f 178/178/178 165/165/165 181/181/181
f 177/177/177 167/167/167 152/152/152
f 151/151/151 177/177/177 152/152/152
f 162/162/162 156/156/156 155/155/155
f 162/162/162 155/155/155 157/157/157
f 182/182/182 160/160/160 159/159/159
f 183/183/183 184/184/184 177/177/177
f 165/165/165 160/160/160 182/182/182
f 165/165/165 185/185/185 166/166/166
f 185/185/185 170/170/170 166/166/166
f 181/181/181 165/165/165 182/182/182
f 177/177/177 174/174/174 167/167/167
f 181/181/181 182/182/182 159/159/159
f 186/186/186 168/168/168 170/170/170
f 185/185/185 176/176/176 170/170/170
f 153/153/153 168/168/168 186/186/186
f 153/153/153 186/186/186 171/171/171
f 160/160/160 187/187/187 157/157/157
f 186/186/186 170/170/170 171/171/171
f 175/175/175 188/188/188 161/161/161
f 188/188/188 162/162/162 161/161/161
f 188/188/188 189/189/189 162/162/162
f 160/160/160 164/164/164 187/187/187
f 175/175/175 189/189/189 188/188/188
f 190/190/190 183/183/183 151/151/151
f 183/183/183 177/177/177 151/151/151
f 184/184/184 175/175/175 177/177/177
f 179/179/179 185/185/185 165/165/165
f 189/189/189 156/156/156 162/162/162
f 191/191/191 161/161/161 164/164/164
f 167/167/167 161/161/161 191/191/191
f 168/168/168 167/167/167 191/191/191
f 161/161/161 157/157/157 187/187/187
f 161/161/161 187/187/187 164/164/164
f 190/190/190 184/184/184 183/183/183
f 168/168/168 191/191/191 164/164/164
