# Exported using wow.export v0.2.19
o 20736_EleHall03.obj
v -27.420352935791016 -105.63634490966797 71.3634262084961
v -25.62350845336914 -105.6363525390625 69.04301452636719
v -26.009750366210938 -105.6363525390625 68.2147216796875
v -21.52749252319336 -105.63648986816406 59.38652038574219
v -22.365318298339844 -105.63638305664062 59.77720642089844
v -20.512588500976562 -105.63643646240234 62.66047668457031
v -24.408599853515625 -105.63633728027344 60.97997283935547
v -26.04140853881836 -105.63633728027344 61.741363525390625
v -24.599149703979492 -105.6363525390625 65.06600952148438
v -26.647869110107422 -105.6363525390625 73.02001953125
v -28.48630142211914 -105.6363525390625 69.0774917602539
v -29.552248001098633 -105.6363525390625 66.79155731201172
v -27.674219131469727 -105.63633728027344 62.50275421142578
v -22.460594177246094 -105.63638305664062 61.82022476196289
v -22.555870056152344 -105.63639831542969 63.863243103027344
v -20.70313835144043 -105.63644409179688 66.74651336669922
v -22.65114402770996 -105.63639831542969 65.90626525878906
v -23.16332244873047 -105.63639831542969 67.89476013183594
v -24.18768310546875 -105.63639831542969 71.87176513671875
v -23.67550277709961 -105.63639831542969 69.88327026367188
v -21.727497100830078 -105.63644409179688 70.72351837158203
v -27.48366928100586 -105.6363296508789 58.416717529296875
v -21.10858154296875 -105.63654327392578 59.19117736816406
v -19.674762725830078 -105.63654327392578 62.26979064941406
v -31.68414306640625 -105.6363525390625 62.21968460083008
v -28.141647338867188 -105.6363525390625 63.642845153808594
v -30.74928855895996 -105.6363296508789 59.93950271606445
v -32.390533447265625 -105.6363525390625 60.70482635498047
v -22.54239845275879 -105.63654327392578 56.11256790161133
v -27.075698852539062 -105.6363525390625 65.92878723144531
v -18.240943908691406 -105.63654327392578 65.34840393066406
v -18.65985870361328 -105.63648986816406 65.54374694824219
v -16.807126998901367 -105.63654327392578 68.42701721191406
v -19.267311096191406 -105.63648986816406 69.57527160644531
v -18.7551326751709 -105.63648986816406 67.58676147460938
v -24.218050003051758 -105.6363296508789 56.89393615722656
v -30.618194580078125 -105.6363525390625 64.50562286376953
v -18.24103546142578 -97.65322875976562 65.34844970703125
v -17.52408218383789 -97.11187744140625 66.88773345947266
v -18.24103546142578 -95.48822021484375 65.34844970703125
v -32.390533447265625 -98.73609924316406 60.70482635498047
v -32.00152587890625 -101.76885223388672 61.53905487060547
v -32.390533447265625 -102.18622589111328 60.70482635498047
v -32.390533447265625 -105.6363525390625 60.70482635498047
v -32.390533447265625 -105.6363525390625 60.70482635498047
v -31.235437393188477 -101.76239013671875 60.16619873046875
v -32.390533447265625 -102.18622589111328 60.70482635498047
v -32.390533447265625 -98.73609924316406 60.70482635498047
v -20.497404098510742 -99.59838104248047 70.14939880371094
v -19.267311096191406 -100.4609375 69.57527160644531
v -21.727497100830078 -100.46107482910156 70.72351837158203
v -19.267311096191406 -98.73568725585938 69.57527160644531
v -22.54276466369629 -98.73628997802734 56.112735748291016
v -23.74092674255371 -101.76873779296875 56.671443939208984
v -22.54258155822754 -102.18641662597656 56.11265182495117
v -22.54239845275879 -105.63654327392578 56.11256790161133
v -21.727497100830078 -98.73582458496094 70.72351837158203
v -21.727497100830078 -102.18632507324219 70.72351837158203
v -22.957590103149414 -103.048828125 71.29763793945312
v -24.18768310546875 -102.186279296875 71.87176513671875
v -31.67445182800293 -98.90830993652344 62.240478515625
v -23.390113830566406 -96.65414428710938 56.50786209106445
v -24.237234115600586 -98.90202331542969 56.90288162231445
v -31.68414306640625 -103.83390808105469 62.21968460083008
v -22.542991638183594 -94.4062728881836 56.11284255981445
v -25.585779190063477 -96.72136688232422 57.53171920776367
v -24.18768310546875 -103.91133880615234 71.87176513671875
v -21.727497100830078 -103.91138458251953 70.72351837158203
v -22.957590103149414 -100.46114349365234 71.29763793945312
v -22.957590103149414 -99.59851837158203 71.29763793945312
v -32.390533447265625 -96.57109069824219 60.70482635498047
v -32.032493591308594 -96.65719604492188 61.472652435302734
v -32.39053726196289 -94.40608215332031 60.70482635498047
v -18.24103546142578 -103.91148376464844 65.34844970703125
v -18.24103546142578 -100.46098327636719 65.34844970703125
v -19.674945831298828 -102.18641662597656 62.269874572753906
v -30.79730987548828 -96.72534942626953 64.12151336669922
v -19.674762725830078 -105.63654327392578 62.26979064941406
v -27.432886123657227 -98.90848541259766 71.33654022216797
v -27.04037857055664 -96.65728759765625 72.17828369140625
v -26.647869110107422 -98.73609924316406 73.02001953125
v -28.313257217407227 -96.72782897949219 69.4485855102539
v -21.727497100830078 -94.40580749511719 70.72351837158203
v -23.196544647216797 -94.40563201904297 67.57313537597656
v -20.001834869384766 -94.40557861328125 68.00007629394531
v -18.241092681884766 -94.40571594238281 65.34847259521484
v -16.807126998901367 -94.40552520751953 68.42701721191406
v -16.807126998901367 -98.73554229736328 68.42701721191406
v -16.807126998901367 -102.18604278564453 68.42701721191406
v -19.675060272216797 -94.40589904785156 62.269927978515625
v -21.435802459716797 -94.40576171875 64.9215316772461
v -24.630512237548828 -94.40582275390625 64.49459838867188
v -26.064476013183594 -94.406005859375 61.416053771972656
v -22.869768142700195 -94.40595245361328 61.84299087524414
v -32.390533447265625 -96.57109069824219 60.70482635498047
v -29.390825271606445 -96.71888732910156 59.30604553222656
v -32.39053726196289 -94.40608215332031 60.70482635498047
v -21.109025955200195 -94.40608215332031 59.191383361816406
v -30.988250732421875 -94.40591430664062 63.71204376220703
v -29.585962295532227 -94.4057388305664 66.7192611694336
v -16.807126998901367 -105.63654327392578 68.42701721191406
v -19.267311096191406 -105.63648986816406 69.57527160644531
v -19.267311096191406 -103.91143798828125 69.57527160644531
v -21.727497100830078 -105.63644409179688 70.72351837158203
v -28.11691665649414 -94.40591430664062 69.86964416503906
v -21.108856201171875 -97.65359497070312 59.191307067871094
v -19.674945831298828 -98.73591613769531 62.269874572753906
v -19.674945831298828 -96.57090759277344 62.269874572753906
v -21.10891342163086 -96.57109069824219 59.19132995605469
v -22.54276466369629 -98.73628997802734 56.112735748291016
v -16.807126998901367 -94.40552520751953 68.42701721191406
v -22.957590103149414 -101.32376861572266 71.29763793945312
v -24.18768310546875 -100.46121215820312 71.87176513671875
v -24.18768310546875 -98.7359619140625 71.87176513671875
v -27.108884811401367 -101.77519989013672 72.03136444091797
v -26.647869110107422 -105.6363525390625 73.02001953125
v -27.420352935791016 -105.63634490966797 71.3634262084961
v -27.42034912109375 -103.83390808105469 71.36343383789062
v -26.647869110107422 -102.18622589111328 73.02001953125
v -24.303733825683594 -94.40614318847656 58.76445007324219
v -25.004878997802734 -94.40621948242188 57.260841369628906
v -22.542991638183594 -94.4062728881836 56.11284255981445
v -27.466764450073242 -94.40617370605469 58.408836364746094
v -25.004878997802734 -94.40621948242188 57.260841369628906
v -27.466764450073242 -94.40617370605469 58.408836364746094
v -25.015602111816406 -94.91459655761719 57.26584243774414
v -20.497404098510742 -101.3236312866211 70.14939880371094
v -26.647869110107422 -98.73609924316406 73.02001953125
v -26.647869110107422 -96.57109069824219 73.02001953125
v -24.18768310546875 -97.65345764160156 71.87176513671875
v -26.647869110107422 -96.57109069824219 73.02001953125
v -26.647869110107422 -94.40608215332031 73.02001953125
v -21.109025955200195 -94.40608215332031 59.191383361816406
v -22.542991638183594 -94.4062728881836 56.11284255981445
v -22.542877197265625 -96.57128143310547 56.112789154052734
v -22.542877197265625 -96.57128143310547 56.112789154052734
v -19.267311096191406 -102.18618774414062 69.57527160644531
v -29.555227279663086 -95.42937469482422 66.78517150878906
v -16.807126998901367 -96.5705337524414 68.42701721191406
v -18.037220001220703 -97.11186218261719 69.00114440917969
v -19.267311096191406 -95.48817443847656 69.57527160644531
v -29.939376831054688 -94.91449737548828 59.56183624267578
v -30.415027618408203 -95.23849487304688 59.783634185791016
v -27.48821449279785 -95.42291259765625 58.41884231567383
v -29.939376831054688 -94.91449737548828 59.56183624267578
v -19.267311096191406 -97.65318298339844 69.57527160644531
v -31.593923568725586 -95.56571960449219 62.413169860839844
v -27.48056411743164 -95.56695556640625 71.23429870605469
v -26.536996841430664 -96.0721435546875 57.97528076171875
v -24.539993286132812 -95.23921203613281 57.04405975341797
v -28.43951988220215 -96.0708999633789 58.86244201660156
v -19.675060272216797 -94.40589904785156 62.269927978515625
v -24.18768310546875 -105.63639831542969 71.87176513671875
v -26.647869110107422 -105.6363525390625 73.02001953125
v -18.24103546142578 -98.73573303222656 65.34844970703125
v -21.727497100830078 -96.57081604003906 70.72351837158203
v -24.18768310546875 -95.48844909667969 71.87176513671875
v -21.727497100830078 -94.40580749511719 70.72351837158203
v -17.52408218383789 -103.04876708984375 66.88773345947266
v -21.108856201171875 -100.46134948730469 59.191307067871094
v -21.108856201171875 -98.73609924316406 59.191307067871094
v -22.54258155822754 -102.18641662597656 56.11265182495117
v -21.1087646484375 -102.18641662597656 59.191261291503906
v -21.108673095703125 -103.91148376464844 59.19122314453125
v -22.54239845275879 -105.63654327392578 56.11256790161133
v -21.10858154296875 -105.63654327392578 59.19117736816406
v -25.65673065185547 -94.40577697753906 68.72138977050781
v -26.391254425048828 -94.40568542480469 67.14619445800781
v -28.11691665649414 -94.40591430664062 69.86964416503906
v -24.92220687866211 -94.40585327148438 70.29657745361328
v -24.18768310546875 -94.40594482421875 71.87176513671875
v -26.647869110107422 -94.40608215332031 73.02001953125
v -26.647869110107422 -94.40608215332031 73.02001953125
v -24.18768310546875 -94.40594482421875 71.87176513671875
v -26.647869110107422 -102.18622589111328 73.02001953125
v -30.74928855895996 -103.82744598388672 59.93950653076172
v -30.74928855895996 -105.6363296508789 59.93950271606445
v -24.218050003051758 -103.82744598388672 56.89393615722656
v -30.734418869018555 -98.90185546875 59.93257141113281
v -24.218050003051758 -105.6363296508789 56.89393615722656
v -27.108238220214844 -94.40577697753906 65.60693359375
v -29.585962295532227 -94.4057388305664 66.7192611694336
v -27.825218200683594 -94.40586853027344 64.06765747070312
v -23.586750030517578 -94.40604400634766 60.30371856689453
v -30.988250732421875 -94.40591430664062 63.71204376220703
v -28.526363372802734 -94.40596008300781 62.564048767089844
v -29.227506637573242 -94.40604400634766 61.06044006347656
v -32.39053726196289 -94.40608215332031 60.70482635498047
v -29.92864990234375 -94.4061279296875 59.55683135986328
v -29.92864990234375 -94.4061279296875 59.55683135986328
v -32.39053726196289 -94.40608215332031 60.70482635498047
v -21.825895309448242 -96.57118225097656 57.652061462402344
v -19.267311096191406 -94.40567016601562 69.57527160644531
v -19.267311096191406 -94.40567016601562 69.57527160644531
v -25.417776107788086 -96.02976989746094 72.44589233398438
v -18.240943908691406 -105.63654327392578 65.34840393066406
v -20.71881866455078 -94.40567016601562 66.46080017089844
v -22.152786254882812 -94.4058609008789 63.38226318359375
v -31.68414306640625 -105.6363525390625 62.21968460083008
v -18.241092681884766 -94.40571594238281 65.34847259521484
v -30.18803596496582 -105.6363525390625 66.29937744140625
v -31.72187042236328 -105.63634490966797 63.88766860961914
v -30.206899642944336 -105.63634490966797 67.13336944580078
v -30.4156436920166 -105.63634490966797 71.26476287841797
v -31.930313110351562 -105.63634490966797 68.01970672607422
v -32.578372955322266 -105.63633728027344 67.49637603759766
v -33.44498062133789 -105.63634490966797 64.77465057373047
v -32.74987030029297 -103.54838562011719 63.97453308105469
v -32.40232467651367 -102.5061264038086 63.574485778808594
v -33.77786636352539 -101.46041870117188 64.0614013671875
v -31.888324737548828 -103.55010986328125 63.53105163574219
v -32.054779052734375 -101.4638671875 63.1744384765625
v -29.73546600341797 -102.50440216064453 71.5772705078125
v -28.36025047302246 -101.46385955810547 71.0896987915039
v -29.38762092590332 -103.54838562011719 71.17787170410156
v -30.24947738647461 -103.54838562011719 71.62071990966797
v -30.08331298828125 -101.46041870117188 71.97667694091797
v -28.69192886352539 -105.63634490966797 70.37907409667969
v -27.420352935791016 -105.63634490966797 71.3634262084961
v -28.48630142211914 -105.6363525390625 69.0774917602539
v -29.552248001098633 -105.6363525390625 66.79155731201172
v -30.93608856201172 -105.6363525390625 64.25952911376953
v -31.68414306640625 -105.6363525390625 62.21968460083008
v -33.65973663330078 -105.63633728027344 65.6121826171875
v -34.74110412597656 -105.63633728027344 63.72799301147461
v -33.67517852783203 -105.63633728027344 66.01388549804688
v -32.79560852050781 -100.16059112548828 63.87654495239258
v -32.91632080078125 -101.46214294433594 63.617919921875
v -29.221782684326172 -101.46214294433594 71.53318786621094
v -29.341949462890625 -100.16171264648438 71.2757568359375
v -29.439983367919922 -105.6363525390625 68.33922576904297
v -30.618194580078125 -105.6363525390625 64.50562286376953
v -29.278390884399414 -97.14910125732422 69.12258911132812
v -31.00148582458496 -97.1456527709961 70.00961303710938
v -30.604503631591797 -96.63371276855469 68.5708236694336
v -32.85972213745117 -97.1456527709961 66.0284652709961
v -33.53643798828125 -98.85731506347656 64.57865142822266
v -31.813350677490234 -98.86076354980469 63.69167709350586
v -31.13663101196289 -97.14910125732422 65.14149475097656
v -31.93061637878418 -96.11831665039062 68.01905822753906
v -30.207502365112305 -96.12176513671875 67.13207244873047
v -32.609249114990234 -105.63633728027344 68.29977416992188
v -31.543323516845703 -105.63633728027344 70.58566284179688
v -30.47739601135254 -105.63633728027344 72.8715591430664
v -33.44498062133789 -105.63634490966797 64.77465057373047
v -31.72187042236328 -105.63634490966797 63.88766860961914
v -28.69192886352539 -105.63634490966797 70.37907409667969
v -30.4156436920166 -105.63634490966797 71.26476287841797
v -33.61142349243164 -103.54838562011719 64.41802978515625
v -28.52608871459961 -103.55010223388672 70.73439025878906
v -30.32364845275879 -98.85955810546875 71.46182250976562
v -28.59943962097168 -98.86524963378906 70.57722473144531
v -29.80046272277832 -98.00544738769531 70.29341888427734
v -32.04541015625 -105.63633728027344 68.63932800292969
v -35.05864334106445 -101.76234436035156 63.04702377319336
v -33.77786636352539 -101.46041870117188 64.0614013671875
v -34.29753875732422 -100.30982971191406 63.812835693359375
v -32.85972213745117 -97.1456527709961 66.0284652709961
v -33.85433578491211 -96.7188949584961 65.62967681884766
v -33.79560089111328 -98.02375793457031 64.8885498046875
v -27.432886123657227 -98.90848541259766 71.33654022216797
v -28.59943962097168 -98.86524963378906 70.57722473144531
v -29.278390884399414 -97.14910125732422 69.12258911132812
v -33.53643798828125 -98.85731506347656 64.57865142822266
v -28.313257217407227 -96.72782897949219 69.4485855102539
v -34.73147964477539 -98.90185546875 63.74863052368164
v -27.108884811401367 -101.77519989013672 72.03136444091797
v -28.36025047302246 -101.46385955810547 71.0896987915039
v -32.89247512817383 -96.41860961914062 66.82437133789062
v -31.93061637878418 -96.11831665039062 68.01905822753906
v -30.207502365112305 -96.12176513671875 67.13207244873047
v -29.555227279663086 -95.42937469482422 66.78517150878906
v -30.79730987548828 -96.72534942626953 64.12151336669922
v -31.13663101196289 -97.14910125732422 65.14149475097656
v -31.813350677490234 -98.86076354980469 63.69167709350586
v -31.67445182800293 -98.90830993652344 62.240478515625
v -32.00152587890625 -101.76885223388672 61.53905487060547
v -28.69192886352539 -105.63634490966797 70.37907409667969
v -27.42034912109375 -103.83390808105469 71.36343383789062
v -27.420352935791016 -105.63634490966797 71.3634262084961
v -32.054779052734375 -101.4638671875 63.1744384765625
v -31.68414306640625 -103.83390808105469 62.21968460083008
v -31.72187042236328 -105.63634490966797 63.88766860961914
v -31.68414306640625 -105.6363525390625 62.21968460083008
v -30.477394104003906 -103.82745361328125 72.8715591430664
v -30.4156436920166 -105.63634490966797 71.26476287841797
v -30.47739601135254 -105.63633728027344 72.8715591430664
v -30.16592025756836 -101.76874542236328 73.53952026367188
v -30.08331298828125 -101.46041870117188 71.97667694091797
v -33.44498062133789 -105.63634490966797 64.77465057373047
v -34.741180419921875 -103.82746124267578 63.72783279418945
v -34.74110412597656 -105.63633728027344 63.72799301147461
v -30.24947738647461 -103.54838562011719 71.62071990966797
v -31.37028694152832 -96.72137451171875 70.95674133300781
v -32.612613677978516 -95.42327880859375 68.29255676269531
v -28.52608871459961 -103.55010223388672 70.73439025878906
v -30.32364845275879 -98.85955810546875 71.46182250976562
v -33.916988372802734 -99.58357238769531 64.19573974609375
v -30.489919662475586 -98.90203094482422 72.84469604492188
v -31.00148582458496 -97.1456527709961 70.00961303710938
v -31.888324737548828 -103.55010986328125 63.53105163574219
v -33.61142349243164 -103.54838562011719 64.41802978515625
v -30.206899642944336 -105.63634490966797 67.13336944580078
v -31.72187042236328 -105.63634490966797 63.88766860961914
v -31.06845474243164 -105.63634490966797 67.57685852050781
v -28.69192886352539 -105.63634490966797 70.37907409667969
v -33.44498062133789 -105.63634490966797 64.77465057373047
v -31.930313110351562 -105.63634490966797 68.01970672607422
v -30.4156436920166 -105.63634490966797 71.26476287841797
vn 0.0000056552994465164375 1 0.0000014566386425940436
vn 0.000022735352104064077 1 0.000003788379899560823
vn 0.00001459665236325236 1 0.0000016920905636652606
vn 0.033658139407634735 0.9632953405380249 0.2663254737854004
vn 0.09108447283506393 0.6855797171592712 0.7222769856452942
vn 0.06474844366312027 0.8558590412139893 0.5131403803825378
vn 0.06470512598752975 0.8558493256568909 0.5131618976593018
vn 0.21275539696216583 0.8607468008995056 0.46243923902511597
vn 0.000023538004825240932 1 0.0000019275425984233152
vn 0.00002193269756389782 1 0.000005649217200698331
vn 0.0000033929677556443494 1 0.000001488144334871322
vn 0.0000011306362921459367 1 0.0000015196499134617625
vn 0.3479076623916626 0.855492353439331 0.38352710008621216
vn 0.06472678482532501 0.8558541536331177 0.5131511688232422
vn 0.03362012654542923 0.963290274143219 0.26634833216667175
vn 0.00005998254709993489 1 -0.000021490975996130146
vn 0.00004176027505309321 1 -0.00000978171647147974
vn 0.00004135894778301008 1 -0.000008851297934597824
vn 0.00004055629688082263 1 -0.000006990460860833991
vn 0.00004095762415090576 1 -0.000007920879397715908
vn 0.00005917989255976863 1 -0.000019630138922366314
vn 0.36623600125312805 0.48178017139434814 0.7960897088050842
vn 0.00009642708755563945 1 -0.00004490949504543096
vn 0.00009642708755563945 1 -0.00004490949504543096
vn -0.000003394026862224564 1 0.0000015826611843294813
vn 0.000010071988981508184 1 0.0000017551019482198171
vn 0.5952473878860474 0.46374964714050293 0.6562139987945557
vn -0.000003394026862224564 1 0.0000015826611843294813
vn 0.00009642708755563945 1 -0.00004490949504543096
vn 0.000012334320672380272 1 0.0000017235962559425388
vn 0.00009642708755563945 1 -0.00004490949504543096
vn 0.033658139407634735 0.9632953405380249 0.2663254737854004
vn 0.00009642708755563945 1 -0.00004490949504543096
vn 0.00007780348823871464 1 -0.00003226981789339334
vn 0.00007820481550879776 1 -0.00003320023461128585
vn 0.11073246598243713 0.4649604558944702 0.878379225730896
vn -0.0000011316952850393136 1 0.000001551155492052203
vn -0.9883394837379456 0 -0.1522660255432129
vn -0.9686679840087891 0 -0.24835918843746185
vn -0.9883394837379456 0 -0.1522660255432129
vn 0.9063088297843933 7.06092691871163e-7 -0.42261597514152527
vn 0.9063078165054321 -9.800675826454608e-8 -0.42261824011802673
vn 0.9063084125518799 3.0404299877773155e-7 -0.4226171672344208
vn 0.9063078165054321 -9.800675826454608e-8 -0.42261824011802673
vn 0.4226178824901581 0 0.9063079357147217
vn 0.6840052008628845 0.004966238513588905 0.7294602394104004
vn 0.42261803150177 -8.007260134945682e-7 0.9063078761100769
vn 0.42261821031570435 -0.0000016014520269891364 0.9063078165054321
vn -0.8000081181526184 0 -0.599989116191864
vn -0.8549394607543945 0 -0.5187276601791382
vn -0.7373801469802856 0 -0.6754781007766724
vn -0.8549394607543945 0 -0.5187276601791382
vn 0.4226211905479431 1.7237563554317603e-7 0.9063064455986023
vn 0.10592351853847504 0.0049494230188429356 0.994361937046051
vn 0.42262002825737 3.3741164884304453e-7 0.9063069820404053
vn 0.4226188659667969 5.024476763537677e-7 0.9063075184822083
vn -0.7373800873756409 0 -0.6754780411720276
vn -0.7373800873756409 0 -0.6754780411720276
vn -0.667657732963562 0 -0.7444683313369751
vn -0.5915119647979736 0 -0.806296169757843
vn 0.9063088297843933 7.06092691871163e-7 -0.42261597514152527
vn 0.25454479455947876 -0.07591046392917633 0.9640769362449646
vn 0.07696443796157837 -0.14898662269115448 0.9858394861221313
vn 0.9063078165054321 -9.800675826454608e-8 -0.42261824011802673
vn 0.4226183295249939 8.184823059309565e-7 0.9063077569007874
vn 0.12691007554531097 -0.29204002022743225 0.9479485750198364
vn -0.5915119647979736 0 -0.806296169757843
vn -0.7373801469802856 0 -0.6754781007766724
vn -0.6676577925682068 0 -0.7444683909416199
vn -0.667657732963562 0 -0.7444683313369751
vn 0.9063089489936829 7.060927487145818e-7 -0.42261603474617004
vn 0.9063089489936829 7.060927487145818e-7 -0.42261603474617004
vn 0.9063088297843933 7.06092691871163e-7 -0.42261597514152527
vn -0.9883394837379456 0 -0.1522660255432129
vn -0.9883394837379456 0 -0.1522660255432129
vn -0.9990587830543518 0 0.043376483023166656
vn 0.9063077569007874 1.4686231963878527e-7 -0.4226182699203491
vn -0.9990594387054443 -0.00003141552224406041 0.04336174950003624
vn 0.906308114528656 0 -0.4226175546646118
vn 0.906308114528656 0 -0.4226175546646118
vn 0.906308114528656 0 -0.4226175546646118
vn 0.9063078761100769 6.068336801945406e-7 -0.4226180613040924
vn 0.000017628626665100455 -1 -0.000004836425432586111
vn 0.000007615947197336936 -1 0.00005492997297551483
vn 0.000008546163371647708 -1 0.00005554766539717093
vn 0.000008546163371647708 -1 0.00005554766539717093
vn 0.00000947638000070583 -1 0.000056165354180848226
vn -0.9396770596504211 0 -0.34206292033195496
vn -0.9396770596504211 0 -0.34206292033195496
vn 0.000007615947197336936 -1 0.00005492997297551483
vn 0.000007615947197336936 -1 0.00005492997297551483
vn 0.000006685731023026165 -1 0.00005431228055385873
vn 0.000005755514393968042 -1 0.000053694588132202625
vn 0.000006685731023026165 -1 0.00005431228055385873
vn 0.42261770367622375 -6.352499895001529e-7 0.9063080549240112
vn 0.6380216479301453 -0.29380232095718384 0.711764395236969
vn 0.42261719703674316 3.3095207641054003e-7 0.9063082933425903
vn 0.000006685731023026165 -1 0.00005431228055385873
vn 0.9063082933425903 4.2647749864954676e-7 -0.4226171374320984
vn 0.9063077569007874 1.4686231963878527e-7 -0.4226182699203491
vn -0.9396770596504211 0 -0.34206292033195496
vn -0.8549394607543945 0 -0.5187276601791382
vn -0.8549394607543945 0 -0.5187276601791382
vn -0.7373800873756409 0 -0.6754780411720276
vn 0.9063079357147217 7.343115981939263e-8 -0.42261791229248047
vn -0.9714232087135315 0 0.23735372722148895
vn -0.9990587830543518 0 0.043376483023166656
vn -0.9990587830543518 0 0.043376483023166656
vn -0.9714222550392151 -0.000015945504856063053 0.2373582273721695
vn -0.9064939618110657 0 0.42221876978874207
vn -0.9396770596504211 0 -0.34206292033195496
vn -0.667657732963562 0 -0.7444683313369751
vn -0.5915119647979736 0 -0.806296169757843
vn -0.5915119647979736 0 -0.806296169757843
vn 0.9063083529472351 0 -0.4226170778274536
vn 0.9063083529472351 0 -0.4226170778274536
vn 0.9063078761100769 -1.4294678862825094e-7 -0.4226180911064148
vn 0.9063078761100769 -1.4294678862825094e-7 -0.4226180911064148
vn 0.9063082337379456 0 -0.4226173162460327
vn 0.000005755514393968042 -1 0.000053694588132202625
vn 0.000005755514393968042 -1 0.000053694588132202625
vn 0.000005755514393968042 -1 0.000053694588132202625
vn 0.000005755514393968042 -1 0.000053694588132202625
vn 0.4226183295249939 8.184823059309565e-7 0.9063077569007874
vn 0.4226183295249939 8.184823059309565e-7 0.9063077569007874
vn 0.4127527177333832 -0.20146112143993378 0.8882840275764465
vn -0.8000081181526184 0 -0.599989116191864
vn -0.4229351878166199 0 -0.9061599373817444
vn -0.4229351878166199 0 -0.9061599373817444
vn -0.5915119647979736 0 -0.806296169757843
vn 0.906308114528656 0 -0.4226175546646118
vn 0.906308114528656 0 -0.4226175546646118
vn -0.9714200496673584 -0.00004541134330793284 0.2373671680688858
vn -0.9064862132072449 -0.00005780033825431019 0.4222354590892792
vn -0.9064900875091553 -0.000028900169127155095 0.4222271144390106
vn 0.4226197600364685 4.954289920533483e-7 0.9063071012496948
vn -0.8549394607543945 0 -0.5187276601791382
vn 0.9063079357147217 -2.4475463078488247e-7 -0.42261800169944763
vn -0.9396770596504211 0 -0.34206292033195496
vn -0.9016455411911011 0 -0.4324757158756256
vn -0.8549394607543945 0 -0.5187276601791382
vn 0.4127521216869354 -0.20146137475967407 0.8882842659950256
vn 0.4789988398551941 -0.17731615900993347 0.8597203493118286
vn 0.38596048951148987 -0.3946613371372223 0.8338326811790466
vn 0.4127527177333832 -0.20146112143993378 0.8882840275764465
vn -0.8549394607543945 0 -0.5187276601791382
vn 0.9063082933425903 4.2647749864954676e-7 -0.4226171374320984
vn 0.9063079953193665 3.034168400972703e-7 -0.4226177930831909
vn 0.2593916952610016 -0.3473091721534729 0.9011616706848145
vn 0.34746238589286804 -0.17694254219532013 0.9208480715751648
vn 0.5177578926086426 -0.34810909628868103 0.7815029621124268
vn -0.9990583658218384 -0.00003127887612208724 0.04338567703962326
vn -0.5915119647979736 0 -0.806296169757843
vn -0.4229351878166199 0 -0.9061599373817444
vn -0.9883394837379456 0 -0.1522660255432129
vn -0.7373800873756409 0 -0.6754780411720276
vn -0.5915119647979736 0 -0.806296169757843
vn -0.7373800873756409 0 -0.6754780411720276
vn -0.9686679840087891 0 -0.24835918843746185
vn -0.9714232087135315 0 0.23735372722148895
vn -0.9714232087135315 0 0.23735372722148895
vn -0.9065002202987671 -0.00002902671076299157 0.42220538854599
vn -0.97142493724823 -0.00001479737511544954 0.23734654486179352
vn -0.971426784992218 -0.0000295947083941428 0.23733939230442047
vn -0.9065064191818237 -0.00005805342152598314 0.4221920371055603
vn -0.9714285731315613 -0.00004560990782920271 0.23733225464820862
vn 0.0000116920709842816 -1 0.00002442908225930296
vn 0.000006685731023026165 -1 0.00005431228055385873
vn 0.000015768195225973614 -1 -0.0000060718084569089115
vn 0.000016698411855031736 -1 -0.0000054541160352528095
vn 0.00002170475090679247 -1 -0.00003533731432980858
vn 0.000025780875148484483 -1 -0.00006583820504602045
vn -0.4229351878166199 0 -0.9061599373817444
vn -0.5915119647979736 0 -0.806296169757843
vn -0.4229351878166199 0 -0.9061599373817444
vn 0.6835651993751526 0.040468912571668625 0.728766679763794
vn 0.5952473878860474 0.46374964714050293 0.6562139987945557
vn 0.10678538680076599 0.04159446805715561 0.993411660194397
vn 0.6944259405136108 -0.14003144204616547 0.7058072090148926
vn 0.11073246598243713 0.4649604558944702 0.878379225730896
vn 0.000006220622708497103 -1 0.000054003434343030676
vn 0.000005755514393968042 -1 0.000053694588132202625
vn 0.000005755514393968042 -1 0.000053694588132202625
vn 0.000006220622708497103 -1 0.000054003434343030676
vn 0.000005755514393968042 -1 0.000053694588132202625
vn 0.000005755514393968042 -1 0.000053694588132202625
vn 0.000005755514393968042 -1 0.000053694588132202625
vn 0.000005755514393968042 -1 0.000053694588132202625
vn 0.000005755514393968042 -1 0.000053694588132202625
vn 0.4226183295249939 8.184823059309565e-7 0.9063077569007874
vn 0.4226183295249939 8.184823059309565e-7 0.9063077569007874
vn -0.9434950351715088 -0.00002281541128468234 0.33138689398765564
vn -0.8549394607543945 0 -0.5187276601791382
vn 0.000013552503332903143 -1 0.000025664463464636356
vn -0.5096753835678101 0 -0.8603668212890625
vn -0.9883384108543396 -0.000016015155779314227 -0.15227332711219788
vn 0.000008081055057118647 -1 0.00005523881918634288
vn 0.000007150839337555226 -1 0.00005462112676468678
vn 0.9063077569007874 0 -0.4226183593273163
vn -0.9883401989936829 -0.00001594553395989351 -0.15226148068904877
vn 0.000008308067663165275 1 -0.000003877888502756832
vn 0.000008308067663165275 1 -0.000003877888502756832
vn 0.000008308067663165275 1 -0.000003877888502756832
vn -0.000008397514648095239 1 0.000003919640221283771
vn -0.000008397514648095239 1 0.000003919640221283771
vn -0.07101623713970184 0.9358651638031006 0.34512752294540405
vn -0.000008397514648095239 1 0.000003919640221283771
vn 0.4587768316268921 0.08848041296005249 0.8841353058815002
vn 0.7116817831993103 0.06151890754699707 0.6998032331466675
vn -0.2080155611038208 0.028876492753624916 0.9776991605758667
vn 0.90632563829422 0.06815967708826065 0.4170467257499695
vn 0.8943678140640259 0.028487572446465492 0.44642433524131775
vn -0.6852312684059143 0.06282218545675278 -0.7256112098693848
vn 0.1914699822664261 0.02973644994199276 -0.9810479283332825
vn -0.40460607409477234 0.08942516148090363 -0.9101083278656006
vn -0.900248110294342 0.06882447749376297 -0.42990291118621826
vn -0.8880844116210938 0.029089046642184258 -0.4587590992450714
vn 0.000008308067663165275 1 -0.000003877888502756832
vn 8.984687269730784e-7 1 -0.0000011606376801864826
vn 0.00000275086858891882 1 -0.0000018399503005639417
vn 0.000004603268280334305 1 -0.0000025192630346282385
vn 0.000008308067663165275 1 -0.000003877888502756832
vn 0.000008308067663165275 1 -0.000003877888502756832
vn -0.10364092141389847 0.8576408624649048 0.5036969780921936
vn -0.13291512429714203 0.7516909837722778 0.645983099937439
vn -0.2457035630941391 0.8802552223205566 0.4059317409992218
vn 0.500228226184845 -0.2464529275894165 0.8300799131393433
vn 0.4338705837726593 0.036262109875679016 0.900245189666748
vn -0.43523305654525757 0.03675318509340286 -0.8995673656463623
vn -0.3445644974708557 -0.2411692887544632 -0.9072555899620056
vn 0.000008308067663165275 1 -0.000003877888502756832
vn 0.00000645566797174979 1 -0.0000031985757686925353
vn 0.11360322684049606 -0.7522140145301819 -0.6490519046783447
vn -0.5891854763031006 -0.7441331148147583 -0.31484341621398926
vn -0.13830526173114777 -0.9511041641235352 -0.2761748731136322
vn -0.13473616540431976 -0.7443917989730835 0.6540084481239319
vn -0.08306261152029037 -0.42820218205451965 0.8998574614524841
vn 0.7617421746253967 -0.42149221897125244 0.49202960729599
vn 0.6007990837097168 -0.7384858131408691 0.3060705065727234
vn -0.3567366302013397 -0.9197771549224854 0.1635509580373764
vn 0.3513191044330597 -0.9213108420372009 -0.16661697626113892
vn -0.3371465504169464 0.9323474764823914 0.13061511516571045
vn -0.3993000388145447 0.9034424424171448 -0.15604861080646515
vn -0.42676448822021484 0.7960512042045593 -0.4291556775569916
vn -0.27442023158073425 0.10954111814498901 0.9553503394126892
vn 0.9159453511238098 0.10765594244003296 0.386593222618103
vn 0.2573471963405609 0.11031513661146164 -0.9600015878677368
vn -0.9101075530052185 0.10838375240564346 -0.3999464511871338
vn -0.2415628731250763 0.06930778920650482 0.9679070115089417
vn 0.22472554445266724 0.07012470066547394 -0.9718955755233765
vn -0.7544304132461548 -0.42376652359962463 -0.5012550950050354
vn 0.06640325486660004 -0.4312635362148285 -0.8997790813446045
vn -0.29548612236976624 -0.6643558144569397 -0.6865269541740417
vn -0.1267075538635254 0.9696008563041687 0.20933093130588531
vn -0.7786266803741455 0.004165908321738243 0.6274735927581787
vn -0.2080155611038208 0.028876492753624916 0.9776991605758667
vn -0.4776079058647156 -0.23503029346466064 0.8465527892112732
vn -0.13473616540431976 -0.7443917989730835 0.6540084481239319
vn -0.7519121766090393 -0.3083052337169647 0.5827314853668213
vn -0.49378344416618347 -0.49594250321388245 0.7142961621284485
vn 0.5054228901863098 -0.3092270791530609 -0.8055596351623535
vn 0.06640325486660004 -0.4312635362148285 -0.8997790813446045
vn 0.11360322684049606 -0.7522140145301819 -0.6490519046783447
vn -0.08306261152029037 -0.42820218205451965 0.8998574614524841
vn 0.4754747748374939 -0.5722771883010864 -0.6681486368179321
vn -0.7569001317024231 -0.15114320814609528 0.6358128190040588
vn 0.5846904516220093 0.007719381712377071 -0.8112197518348694
vn 0.1914699822664261 0.02973644994199276 -0.9810479283332825
vn -0.6108257174491882 -0.676629364490509 0.41117486357688904
vn -0.3567366302013397 -0.9197771549224854 0.1635509580373764
vn 0.3513191044330597 -0.9213108420372009 -0.16661697626113892
vn 0.6185631155967712 -0.7292683720588684 -0.29248476028442383
vn 0.8164165616035461 -0.5750802755355835 0.05240901932120323
vn 0.6007990837097168 -0.7384858131408691 0.3060705065727234
vn 0.7617421746253967 -0.42149221897125244 0.49202960729599
vn 0.9514169096946716 -0.29100847244262695 0.10059773176908493
vn 0.9986222386360168 0.008168850094079971 0.051835570484399796
vn 0.2573471963405609 0.11031513661146164 -0.9600015878677368
vn 0.5831111669540405 0.08728647977113724 -0.8076895475387573
vn 0.612135112285614 0.000001819834551497479 -0.790753185749054
vn 0.8943678140640259 0.028487572446465492 0.44642433524131775
vn 0.9949745535850525 0.08506212383508682 0.05282073840498924
vn 0.9159453511238098 0.10765594244003296 0.386593222618103
vn 0.9997442960739136 0 0.02261226624250412
vn -0.8388757109642029 0.4600139558315277 -0.2909892201423645
vn -0.9101075530052185 0.10838375240564346 -0.3999464511871338
vn -0.42676448822021484 0.7960512042045593 -0.4291556775569916
vn -0.9835232496261597 0.004083999432623386 0.1807355135679245
vn -0.8880844116210938 0.029089046642184258 -0.4587590992450714
vn -0.27442023158073425 0.10954111814498901 0.9553503394126892
vn -0.4449772834777832 0.40186092257499695 0.8003143072128296
vn -0.13291512429714203 0.7516909837722778 0.645983099937439
vn -0.900248110294342 0.06882447749376297 -0.42990291118621826
vn -0.9313362836837769 -0.3081316351890564 0.1940816044807434
vn -0.833381712436676 -0.39520949125289917 0.3863734006881714
vn 0.22472554445266724 0.07012470066547394 -0.9718955755233765
vn -0.7544304132461548 -0.42376652359962463 -0.5012550950050354
vn -0.28745993971824646 -0.340044230222702 0.8953976035118103
vn -0.9744777083396912 -0.1625324934720993 0.15484294295310974
vn -0.5891854763031006 -0.7441331148147583 -0.31484341621398926
vn 0.90632563829422 0.06815967708826065 0.4170467257499695
vn -0.2415628731250763 0.06930778920650482 0.9679070115089417
vn 0 1 0
vn 0 1 0
vn 0 1 0
vn 0 1 0
vn 0 1 0
vn 0 1 0
vn 0 1 0
vt -0.12372183799743652 -0.2968519926071167
vt 0.04930776357650757 -0.470611572265625
vt 0.13156819343566895 -0.451662540435791
vt 0.8368251323699951 -0.926659345626831
vt 0.8183286190032959 -0.8556216955184937
vt 0.5214551091194153 -0.9601349830627441
vt 0.7510302066802979 -0.6787906885147095
vt 0.7152449488639832 -0.5402885675430298
vt 0.3868582546710968 -0.6064729690551758
vt -0.2882426977157593 -0.3347501754760742
vt 0.10354219377040863 -0.24549198150634766
vt 0.3308062255382538 -0.19413185119628906
vt 0.6794597506523132 -0.40178632736206055
vt 0.6362426280975342 -0.819462776184082
vt 0.45415669679641724 -0.78330397605896
vt 0.15728318691253662 -0.8878172636032104
vt 0.2720707058906555 -0.7471451759338379
vt 0.1032954752445221 -0.6792144775390625
vt -0.23425500094890594 -0.5433530807495117
vt -0.06547977030277252 -0.6112837791442871
vt -0.1802673041820526 -0.7519558668136597
vt 1.043631672859192 -0.4741041660308838
vt 0.8460733294487 -0.9621782302856445
vt 0.5399515628814697 -1.031172752380371
vt 0.7853342890739441 -0.09141170978546143
vt 0.5860962867736816 -0.34894227981567383
vt 0.9720612168312073 -0.19709980487823486
vt 0.9359351992607117 -0.05884194374084473
vt 1.1521950960159302 -0.8931838274002075
vt 0.3588322401046753 -0.4003024101257324
vt 0.2338298261165619 -1.1001672744750977
vt 0.22458159923553467 -1.064648151397705
vt -0.07229190319776535 -1.1691615581512451
vt -0.12627960741519928 -0.9605586528778076
vt 0.042495645582675934 -1.028489351272583
vt 1.1152021884918213 -0.7511084079742432
vt 0.5580702424049377 -0.14277172088623047
vt 1.1097640991210938 0.7095282077789307
vt 0.9604214429855347 0.7562790364027023
vt 1.1039440631866455 0.8964983522891998
vt 1.1509225368499756 0.6159937977790833
vt 0.9426783919334412 0.36176276206970215
vt 1.1509225368499756 0.3082466125488281
vt 1.1509225368499756 0.0004994869232177734
vt 0.81819748878479 0.0004994869232177734
vt 0.8053493499755859 0.3598874807357788
vt 0.8437345623970032 0.30753886699676514
vt 0.8692716360092163 0.6145782470703125
vt 0.5146405696868896 0.5402775406837463
vt 0.6208317279815674 0.46452832221984863
vt 0.41660699248313904 0.46451181173324585
vt 0.6126741170883179 0.6160432398319244
vt 0.14551478624343872 0.6145786046981812
vt 0.17874321341514587 0.36044955253601074
vt 0.14551477134227753 0.30753910541534424
vt 0.14551475644111633 0.0004995465278625488
vt 0.4084494113922119 0.616026759147644
vt 0.42476457357406616 0.31299686431884766
vt 0.3185734152793884 0.23724764585494995
vt 0.21238228678703308 0.31299686431884766
vt 0.9060747623443604 0.6150749921798706
vt 0.18307316303253174 0.8056798279285431
vt 0.22063153982162476 0.613594114780426
vt 0.9235004186630249 0.1664750576019287
vt 0.14551478624343872 0.9977655410766602
vt 0.3329685926437378 0.8067771196365356
vt 0.21238228678703308 0.16149842739105225
vt 0.42476457357406616 0.16149842739105225
vt 0.31449463963508606 0.46450352668762207
vt 0.3104158639907837 0.5402610301971436
vt 1.1509225368499756 0.8077141344547272
vt 1.028498649597168 0.8072547316551208
vt 1.1509225368499756 0.9994344711303711
vt 1.1371469497680664 0.1614983081817627
vt 1.1208317279815674 0.4645282030105591
vt 1.424764633178711 0.31299668550491333
vt 0.8079898953437805 0.8083860278129578
vt 1.424764633178711 0.009999990463256836
vt 0.43191084265708923 0.615060031414032
vt 0.3113518953323364 0.8072474002838135
vt 0.1519216001033783 0.6159939765930176
vt 0.5302990078926086 0.8081663846969604
vt -0.15381716191768646 1.1163799166679382
vt 0.18900084495544434 1.1163809895515442
vt 0.01680801808834076 1.3081245720386505
vt 0.19672167301177979 1.5009890794754028
vt -0.15538480877876282 1.4998681545257568
vt 0.8168988227844238 0.6160597205162048
vt 0.8332139849662781 0.3130298852920532
vt 0.5488281846046448 1.5021100640296936
vt 0.36891451478004456 1.309245526790619
vt 0.5411073565483093 1.1175019443035126
vt 0.8932138681411743 1.118622899055481
vt 0.7210210561752319 1.3103664815425873
vt 0.8606904149055481 0.8061717450618744
vt 0.6766539812088013 0.8065575957298279
vt 0.8521091938018799 0.9977652430534363
vt 0.9009346961975098 1.5032310485839844
vt 0.9050795435905457 0.9994674623012543
vt 0.6592365503311157 0.9995004534721375
vt 0.8495291471481323 0.009999990463256836
vt 0.6371468305587769 0.009999990463256836
vt 0.6371468305587769 0.16149842739105225
vt 0.42476457357406616 0.009999990463256836
vt 0.4250147342681885 0.9994676113128662
vt 1.7013146877288818 0.7094950377941132
vt 1.408449411392212 0.6160265505313873
vt 1.4026293754577637 0.8029966950416565
vt 1.7013146877288818 0.8029966950416565
vt 2 0.6159933805465698
vt 0.8052586317062378 0.9900000095367432
vt 0.3185734152793884 0.38874608278274536
vt 0.21238228678703308 0.46449530124664307
vt 0.20422470569610596 0.6160102784633636
vt 0.39573177695274353 0.36120057106018066
vt 0.23440369963645935 0.0004994869232177734
vt 0.43292009830474854 0.0004994869232177734
vt 0.4157150387763977 0.1673768162727356
vt 0.19316264986991882 0.3082467317581177
vt 1.0731275081634521 1.3114874362945557
vt 1.25304114818573 1.3114874958992004
vt 1.25304114818573 1.5043519735336304
vt 1.25304114818573 1.1186229884624481
vt 0.31212347745895386 0.9981992989778519
vt 0.4787321984767914 0.9986330568790436
vt 0.3275781571865082 0.9596153199672699
vt 0.5227981805801392 0.38876259326934814
vt 0 0.6159937977790833
vt 0 0.8029969036579132
vt 0.20131465792655945 0.7094953656196594
vt 0.17135727405548096 0.8077143728733063
vt 0.19079294800758362 0.999434769153595
vt 1.7013146877288818 0.9900000095367432
vt 2 0.9900000095367432
vt 2 0.8029966950416565
vt 0.14551478624343872 0.8061720728874207
vt 0.6289892792701721 0.31301337480545044
vt 0.669224739074707 0.9231503009796143
vt 0.8110787272453308 0.803029865026474
vt 0.7104213833808899 0.7562790960073471
vt 0.603943943977356 0.8964984565973282
vt 0.6808753609657288 0.959615170955658
vt 0.7226284742355347 0.930888295173645
vt 0.5096415281295776 0.9214650988578796
vt 0.6607955694198608 0.9604828357696533
vt 0.6097640991210938 0.7095283269882202
vt 0.9794561862945557 0.9039102494716644
vt 0.3605459928512573 0.9038005769252777
vt 0.4213050603866577 0.8641211092472076
vt 0.2834099233150482 0.9309433251619339
vt 0.5931477546691895 0.8640113472938538
vt 1.4026293754577637 0.9900000095367432
vt 0.21238228678703308 0.009999990463256836
vt 0 0.009999990463256836
vt 1.1126741170883179 0.6160431504249573
vt 0.4026293158531189 0.8029969036579132
vt 0.20131465792655945 0.8964984565973282
vt 0.4026293158531189 0.9900000095367432
vt 0.9851804375648499 0.23726409673690796
vt 1.7123823165893555 0.46449506282806396
vt 1.704224705696106 0.6160099506378174
vt 2 0.31299668550491333
vt 1.7123823165893555 0.31299668550491333
vt 1.7123823165893555 0.1614983081817627
vt 2 0.009999990463256836
vt 1.7123823165893555 0.009999990463256836
vt 0.1897846758365631 0.9246368706226349
vt 0.3611936867237091 0.9246374070644379
vt 0.19056850671768188 0.7328927516937256
vt 0.018375664949417114 0.9246363341808319
vt -0.15303334593772888 0.9246357977390289
vt -0.1522495150566101 0.7328916788101196
vt 0 0.9900000095367432
vt 0.20131465792655945 0.9900000095367432
vt 0 0.31299686431884766
vt 0.7827968001365662 0.15670400857925415
vt 0.7654587030410767 0.0004994869232177734
vt 0.20176564157009125 0.15657305717468262
vt 0.7638548612594604 0.6135792136192322
vt 0.21939000487327576 0.0004995465278625488
vt 0.5372469425201416 0.9251978844404221
vt 0.5333865284919739 0.7328938245773315
vt 0.7133002281188965 0.9257583618164062
vt 0.897074282169342 1.3109269738197327
vt 0.8932138681411743 0.7328939139842987
vt 0.8932138681411743 0.9257584065198898
vt 1.0731275081634521 0.9257584512233734
vt 1.25304114818573 0.7328940033912659
vt 1.25304114818573 0.925758495926857
vt 0.6453409194946289 0.9990668147802353
vt 0.811949610710144 0.999500572681427
vt 1.850657343864441 0.8029966950416565
vt 0.603943943977356 0.9900000095367432
vt -0.15460097789764404 1.3081240355968475
vt 0.10065732896327972 0.8497476875782013
vt 1.1371469497680664 0.009999990463256836
vt 0.19286125898361206 1.3086850345134735
vt 0.544967770576477 1.309805989265442
vt 0.9072009921073914 0.0004994869232177734
vt 1.1039440631866455 0.9900000095367432
vt -0.17887157201766968 1.1052370965480804
vt -0.32805436849594116 1.3444205522537231
vt -0.32516148686408997 1.025750607252121
vt -0.32226860523223877 0.7070806622505188
vt -0.32516148686408997 1.025750607252121
vt -0.17887157201766968 1.1052370965480804
vt -0.32805436849594116 1.3444205522537231
vt 1.826988697052002 1.1731679737567902
vt 1.8891581296920776 1.0394373387098312
vt 1.7026640176773071 0.9066764712333679
vt 1.9513205289840698 1.1726830899715424
vt 1.9513275623321533 0.9057067036628723
vt 1.7648262977600098 1.039922222495079
vt 1.9513275623321533 0.9057067036628723
vt 1.826988697052002 1.1731679737567902
vt 1.7026569843292236 1.1736527979373932
vt 1.7026640176773071 0.9066764712333679
vt -0.32226860523223877 0.7070806622505188
vt -0.027326639741659164 0.5574594736099243
vt -0.029363613575696945 0.7939429879188538
vt -0.031400587409734726 1.0304265022277832
vt -0.10717305541038513 1.3043153285980225
vt -0.03547453507781029 1.503393530845642
vt -0.10717305541038513 1.3043153285980225
vt -0.03547453507781029 1.503393530845642
vt -0.03343756124377251 1.2669100165367126
vt 1.8269939422607422 0.7375543713569641
vt 1.826995849609375 0.9061915874481201
vt 1.826995849609375 0.9061915874481201
vt 1.8269939422607422 0.7375543713569641
vt -0.2505700886249542 0.9061588793992996
vt -0.03343756124377251 1.2669100165367126
vt 1.9513237476348877 0.38704025745391846
vt 1.7026604413986206 0.38801002502441406
vt 1.8269858360290527 0.26300036907196045
vt 1.7026604413986206 0.38801002502441406
vt 1.7026604413986206 0.5694020390510559
vt 1.9513239860534668 0.5684322714805603
vt 1.9513237476348877 0.38704025745391846
vt 1.7026479244232178 0.13896042108535767
vt 1.9513113498687744 0.13799065351486206
vt -0.031400587409734726 1.0304265022277832
vt -0.029363613575696945 0.7939429879188538
vt -0.027326639741659164 0.5574594736099243
vt 1.7026499509811401 1.4406291246414185
vt 1.9513134956359863 1.4396594762802124
vt 1.9513134956359863 1.4396594762802124
vt 1.7026499509811401 1.4406291246414185
vt 1.7026569843292236 1.1736527979373932
vt 1.9513205289840698 1.1726830899715424
vt 1.7026604413986206 0.5694020390510559
vt 1.9513239860534668 0.5684322714805603
vt 1.8269922733306885 0.47822117805480957
vt -0.1778530776500702 0.9869953393936157
vt 0.5002730488777161 0.33117830753326416
vt 0.2920289933681488 0.33117830753326416
vt 0.39615100622177124 0.4403635859489441
vt 0.2920289933681488 0.8090291023254395
vt 0.5002730488777161 0.8090291023254395
vt 0.39615100622177124 0.6792889833450317
vt 0.5002730488777161 0.549548864364624
vt 0.2920289933681488 0.549548864364624
vt 0.2920289933681488 0.8090291023254395
vt 0.2920289933681488 0.549548864364624
vt 0.5002730488777161 0.8090291023254395
vt 0.5002730488777161 0.549548864364624
vt 0.5002730488777161 0.33117830753326416
vt 0.2920289933681488 0.33117830753326416
vt 0.39615100622177124 0.9012705087661743
vt 0.2920289933681488 0.9935119152069092
vt 0.2920289933681488 0.9935119152069092
vt 0.4725477695465088 0.9935119152069092
vt 0.5002730488777161 0.8090291023254395
vt 0.2920289933681488 0.8090291023254395
vt 0.2920289933681488 0.549548864364624
vt 0.5002730488777161 0.549548864364624
vt 0.5002730488777161 0.33117830753326416
vt 0.2920289933681488 0.0014636516571044922
vt 0.5002730488777161 0.03308570384979248
vt 0.5002730488777161 0.0014636516571044922
vt 0.2920289933681488 0.33117830753326416
vt 0.5002730488777161 0.034652113914489746
vt 0.2920289933681488 0.0014636516571044922
vt 0.5002730488777161 0.0014636516571044922
vt 0.5002730488777161 0.03308570384979248
vt 0.2920289933681488 0.0014636516571044922
vt 0.5002730488777161 0.0014636516571044922
vt 0.5002730488777161 0.33117830753326416
vt 0.2920289933681488 0.33117830753326416
vt 0.2920289933681488 0.0014636516571044922
vt 0.5002730488777161 0.034652113914489746
vt 0.5002730488777161 0.0014636516571044922
vt 0.2920289933681488 0.16632097959518433
vt 0.5002730488777161 0.8090291023254395
vt 0.4725477695465088 0.9935119152069092
vt 0.2920289933681488 0.16632097959518433
vt 0.2920289933681488 0.549548864364624
vt 0.34408998489379883 0.49495625495910645
vt 0.5002730488777161 0.549548864364624
vt 0.2920289933681488 0.8090291023254395
vt 0.2920289933681488 0.16632097959518433
vt 0.2920289933681488 0.16632097959518433
vt 0.2479589432477951 0.4686506986618042
vt 0 0.46849483251571655
vt 0.2479589432477951 0.23440325260162354
vt 0.4959178864955902 0.46880656480789185
vt 0 0
vt 0.2479589432477951 0
vt 0.4959178864955902 0
g EleHall030
s 1
f 1/1/1 2/2/2 3/3/3
f 4/4/4 5/5/5 6/6/6
f 7/7/7 8/8/8 9/9/9
f 1/1/1 10/10/10 2/2/2
f 11/11/11 3/3/3 12/12/12
f 1/1/1 3/3/3 11/11/11
f 8/8/8 13/13/13 9/9/9
f 14/14/14 7/7/7 15/15/15
f 6/6/6 14/14/14 15/15/15
f 6/6/6 5/5/5 14/14/14
f 14/14/14 5/5/5 7/7/7
f 16/16/16 15/15/15 17/17/17
f 17/17/17 15/15/15 9/9/9
f 9/9/9 18/18/18 17/17/17
f 17/17/17 18/18/18 16/16/16
f 2/2/2 19/19/19 20/20/20
f 20/20/20 19/19/19 21/21/21
f 18/18/18 20/20/20 21/21/21
f 18/18/18 2/2/2 20/20/20
f 22/22/22 13/13/13 8/8/8
f 23/23/23 6/6/6 24/24/24
f 25/25/25 26/26/26 13/13/13
f 26/26/26 9/9/9 13/13/13
f 27/27/27 28/28/28 25/25/25
f 3/3/3 2/2/2 9/9/9
f 29/29/29 5/5/5 4/4/4
f 9/9/9 2/2/2 18/18/18
f 12/12/12 30/30/30 26/26/26
f 30/30/30 9/9/9 26/26/26
f 31/31/31 32/32/32 33/33/33
f 16/16/16 21/21/21 34/34/34
f 2/2/2 10/10/10 19/19/19
f 16/16/16 6/6/6 15/15/15
f 33/33/33 32/32/32 35/35/35
f 32/32/32 6/6/6 16/16/16
f 24/24/24 6/6/6 32/32/32
f 5/5/5 36/36/36 7/7/7
f 25/25/25 13/13/13 27/27/27
f 7/7/7 22/22/22 8/8/8
f 35/35/35 32/32/32 16/16/16
f 22/22/22 27/27/27 13/13/13
f 16/16/16 34/34/34 35/35/35
f 35/35/35 34/34/34 33/33/33
f 36/36/36 22/22/22 7/7/7
f 29/29/29 36/36/36 5/5/5
f 15/15/15 7/7/7 9/9/9
f 4/4/4 6/6/6 23/23/23
f 29/29/29 4/4/4 23/23/23
f 12/12/12 26/26/26 37/37/37
f 37/37/37 26/26/26 25/25/25
f 3/3/3 30/30/30 12/12/12
f 3/3/3 9/9/9 30/30/30
f 24/24/24 32/32/32 31/31/31
f 18/18/18 21/21/21 16/16/16
g EleHall031
s 1
f 38/38/38 39/39/39 40/40/40
f 41/41/41 42/42/42 43/43/43
f 43/43/43 42/42/42 44/44/44
f 45/45/45 46/46/46 47/47/47
f 47/47/47 46/46/46 48/48/48
f 49/49/49 50/50/50 51/51/51
f 49/49/49 52/52/52 50/50/50
f 53/53/53 54/54/54 55/55/55
f 55/55/55 54/54/54 56/56/56
f 57/57/57 52/52/52 49/49/49
f 58/58/58 59/59/59 60/60/60
f 41/41/41 61/61/61 42/42/42
f 62/62/62 63/63/63 53/53/53
f 64/64/64 44/44/44 42/42/42
f 65/65/65 66/66/66 62/62/62
f 62/62/62 66/66/66 63/63/63
f 59/59/59 67/67/67 60/60/60
f 68/68/68 67/67/67 59/59/59
f 68/68/68 59/59/59 58/58/58
f 69/69/69 70/70/70 51/51/51
f 61/61/61 71/71/71 72/72/72
f 72/72/72 71/71/71 73/73/73
f 74/74/74 75/75/75 76/76/76
f 72/72/72 77/77/77 61/61/61
f 76/76/76 78/78/78 74/74/74
f 79/79/79 80/80/80 81/81/81
f 80/80/80 79/79/79 82/82/82
f 83/83/83 84/84/84 85/85/85
f 86/86/86 87/87/87 85/85/85
f 50/50/50 88/88/88 89/89/89
f 90/90/90 86/86/86 91/91/91
f 91/91/91 84/84/84 92/92/92
f 93/93/93 94/94/94 92/92/92
f 61/61/61 41/41/41 71/71/71
f 95/95/95 48/48/48 96/96/96
f 97/97/97 95/95/95 96/96/96
f 98/98/98 90/90/90 94/94/94
f 99/99/99 100/100/100 77/77/77
f 101/101/101 102/102/102 103/103/103
f 102/102/102 104/104/104 103/103/103
f 105/105/105 82/82/82 100/100/100
f 106/106/106 107/107/107 108/108/108
f 106/106/106 109/109/109 110/110/110
f 108/108/108 109/109/109 106/106/106
f 107/107/107 38/38/38 108/108/108
f 108/108/108 38/38/38 40/40/40
f 40/40/40 39/39/39 111/111/111
f 38/38/38 88/88/88 39/39/39
f 57/57/57 49/49/49 51/51/51
f 58/58/58 60/60/60 112/112/112
f 112/112/112 60/60/60 113/113/113
f 112/112/112 51/51/51 58/58/58
f 114/114/114 70/70/70 113/113/113
f 81/81/81 115/115/115 79/79/79
f 116/116/116 117/117/117 118/118/118
f 114/114/114 57/57/57 70/70/70
f 115/115/115 81/81/81 119/119/119
f 115/115/115 119/119/119 116/116/116
f 120/120/120 121/121/121 122/122/122
f 120/120/120 123/123/123 121/121/121
f 124/124/124 125/125/125 126/126/126
f 65/65/65 124/124/124 126/126/126
f 70/70/70 57/57/57 51/51/51
f 51/51/51 127/127/127 58/58/58
f 128/128/128 129/129/129 130/130/130
f 80/80/80 131/131/131 81/81/81
f 80/80/80 132/132/132 131/131/131
f 133/133/133 134/134/134 135/135/135
f 65/65/65 62/62/62 136/136/136
f 136/136/136 62/62/62 53/53/53
f 51/51/51 50/50/50 127/127/127
f 127/127/127 50/50/50 137/137/137
f 58/58/58 127/127/127 137/137/137
f 100/100/100 138/138/138 77/77/77
f 138/138/138 100/100/100 82/82/82
f 139/139/139 140/140/140 141/141/141
f 142/142/142 97/97/97 143/143/143
f 144/144/144 142/142/142 143/143/143
f 125/125/125 145/145/145 144/144/144
f 139/139/139 88/88/88 140/140/140
f 140/140/140 88/88/88 146/146/146
f 141/141/141 140/140/140 146/146/146
f 147/147/147 77/77/77 72/72/72
f 73/73/73 147/147/147 72/72/72
f 73/73/73 99/99/99 147/147/147
f 147/147/147 99/99/99 77/77/77
f 132/132/132 80/80/80 148/148/148
f 148/148/148 80/80/80 82/82/82
f 148/148/148 82/82/82 105/105/105
f 132/132/132 148/148/148 105/105/105
f 69/69/69 51/51/51 112/112/112
f 149/149/149 126/126/126 144/144/144
f 126/126/126 125/125/125 144/144/144
f 66/66/66 65/65/65 150/150/150
f 66/66/66 150/150/150 149/149/149
f 149/149/149 150/150/150 126/126/126
f 150/150/150 65/65/65 126/126/126
f 151/151/151 143/143/143 96/96/96
f 143/143/143 97/97/97 96/96/96
f 152/152/152 133/133/133 109/109/109
f 144/144/144 143/143/143 151/151/151
f 108/108/108 152/152/152 109/109/109
f 153/153/153 154/154/154 67/67/67
f 107/107/107 155/155/155 38/38/38
f 89/89/89 88/88/88 75/75/75
f 113/113/113 69/69/69 112/112/112
f 156/156/156 157/157/157 158/158/158
f 130/130/130 157/157/157 156/156/156
f 156/156/156 146/146/146 57/57/57
f 141/141/141 146/146/146 156/156/156
f 111/111/111 139/139/139 141/141/141
f 39/39/39 88/88/88 139/139/139
f 39/39/39 139/139/139 111/111/111
f 75/75/75 88/88/88 155/155/155
f 75/75/75 155/155/155 107/107/107
f 104/104/104 153/153/153 67/67/67
f 155/155/155 88/88/88 38/38/38
f 159/159/159 89/89/89 75/75/75
f 101/101/101 89/89/89 159/159/159
f 101/101/101 159/159/159 74/74/74
f 159/159/159 75/75/75 74/74/74
f 160/160/160 107/107/107 161/161/161
f 160/160/160 161/161/161 110/110/110
f 110/110/110 161/161/161 106/106/106
f 161/161/161 107/107/107 106/106/106
f 160/160/160 162/162/162 163/163/163
f 160/160/160 163/163/163 76/76/76
f 163/163/163 164/164/164 76/76/76
f 162/162/162 164/164/164 163/163/163
f 164/164/164 165/165/165 166/166/166
f 164/164/164 166/166/166 78/78/78
f 167/167/167 168/168/168 84/84/84
f 169/169/169 168/168/168 167/167/167
f 170/170/170 169/169/169 167/167/167
f 170/170/170 167/167/167 84/84/84
f 171/171/171 170/170/170 83/83/83
f 172/172/172 170/170/170 171/171/171
f 157/157/157 173/173/173 174/174/174
f 157/157/157 174/174/174 158/158/158
f 58/58/58 137/137/137 103/103/103
f 137/137/137 89/89/89 103/103/103
f 137/137/137 50/50/50 89/89/89
f 128/128/128 114/114/114 113/113/113
f 130/130/130 57/57/57 114/114/114
f 130/130/130 114/114/114 128/128/128
f 60/60/60 67/67/67 175/175/175
f 176/176/176 45/45/45 177/177/177
f 178/178/178 56/56/56 54/54/54
f 46/46/46 45/45/45 176/176/176
f 179/179/179 48/48/48 46/46/46
f 60/60/60 175/175/175 113/113/113
f 180/180/180 56/56/56 178/178/178
f 54/54/54 53/53/53 63/63/63
f 103/103/103 104/104/104 68/68/68
f 103/103/103 68/68/68 58/58/58
f 104/104/104 67/67/67 68/68/68
f 181/181/181 168/168/168 182/182/182
f 92/92/92 168/168/168 181/181/181
f 183/183/183 92/92/92 181/181/181
f 183/183/183 181/181/181 182/182/182
f 96/96/96 48/48/48 179/179/179
f 120/120/120 98/98/98 184/184/184
f 120/120/120 184/184/184 93/93/93
f 184/184/184 94/94/94 93/93/93
f 98/98/98 94/94/94 184/184/184
f 183/183/183 185/185/185 186/186/186
f 183/183/183 186/186/186 93/93/93
f 186/186/186 187/187/187 93/93/93
f 185/185/185 187/187/187 186/186/186
f 187/187/187 188/188/188 189/189/189
f 187/187/187 189/189/189 123/123/123
f 125/125/125 190/190/190 145/145/145
f 190/190/190 191/191/191 145/145/145
f 109/109/109 133/133/133 192/192/192
f 109/109/109 192/192/192 110/110/110
f 192/192/192 135/135/135 110/110/110
f 133/133/133 135/135/135 192/192/192
f 141/141/141 158/158/158 193/193/193
f 141/141/141 193/193/193 111/111/111
f 194/194/194 85/85/85 87/87/87
f 83/83/83 85/85/85 194/194/194
f 129/129/129 173/173/173 195/195/195
f 129/129/129 195/195/195 130/130/130
f 130/130/130 195/195/195 157/157/157
f 195/195/195 173/173/173 157/157/157
f 74/74/74 78/78/78 196/196/196
f 74/74/74 196/196/196 101/101/101
f 52/52/52 88/88/88 50/50/50
f 146/146/146 88/88/88 52/52/52
f 146/146/146 52/52/52 57/57/57
f 197/197/197 85/85/85 84/84/84
f 86/86/86 85/85/85 197/197/197
f 91/91/91 86/86/86 197/197/197
f 91/91/91 197/197/197 84/84/84
f 198/198/198 91/91/91 92/92/92
f 90/90/90 91/91/91 198/198/198
f 94/94/94 90/90/90 198/198/198
f 94/94/94 198/198/198 92/92/92
f 199/199/199 44/44/44 64/64/64
f 116/116/116 118/118/118 115/115/115
f 122/122/122 98/98/98 120/120/120
f 93/93/93 123/123/123 120/120/120
f 93/93/93 187/187/187 123/123/123
f 185/185/185 188/188/188 187/187/187
f 93/93/93 92/92/92 183/183/183
f 182/182/182 185/185/185 183/183/183
f 113/113/113 175/175/175 128/128/128
f 67/67/67 154/154/154 175/175/175
f 103/103/103 89/89/89 101/101/101
f 170/170/170 84/84/84 83/83/83
f 172/172/172 169/169/169 170/170/170
f 92/92/92 84/84/84 168/168/168
f 169/169/169 182/182/182 168/168/168
f 76/76/76 164/164/164 78/78/78
f 162/162/162 165/165/165 164/164/164
f 76/76/76 107/107/107 160/160/160
f 76/76/76 75/75/75 107/107/107
f 110/110/110 162/162/162 160/160/160
f 156/156/156 158/158/158 141/141/141
f 156/156/156 57/57/57 130/130/130
f 111/111/111 200/200/200 40/40/40
f 40/40/40 200/200/200 108/108/108
f 200/200/200 152/152/152 108/108/108
f 113/113/113 70/70/70 69/69/69
g EleHall032
s 1
f 201/201/201 202/202/202 203/203/203
f 204/204/204 205/205/205 206/206/206
f 205/205/205 207/207/207 206/206/206
f 208/208/208 209/209/209 210/210/210
f 211/211/211 212/212/212 209/209/209
f 211/211/211 209/209/209 208/208/208
f 213/213/213 214/214/214 215/215/215
f 213/213/213 216/216/216 217/217/217
f 215/215/215 216/216/216 213/213/213
f 218/218/218 219/219/219 220/220/220
f 218/218/218 220/220/220 221/221/221
f 222/222/222 202/202/202 201/201/201
f 223/223/223 202/202/202 222/222/222
f 201/201/201 221/221/221 222/222/222
f 224/224/224 207/207/207 225/225/225
f 206/206/206 207/207/207 224/224/224
f 224/224/224 226/226/226 206/206/206
f 225/225/225 226/226/226 224/224/224
f 227/227/227 210/210/210 228/228/228
f 227/227/227 228/228/228 212/212/212
f 209/209/209 212/212/212 228/228/228
f 209/209/209 228/228/228 210/210/210
f 214/214/214 229/229/229 230/230/230
f 229/229/229 217/217/217 230/230/230
f 217/217/217 229/229/229 213/213/213
f 229/229/229 214/214/214 213/213/213
f 231/231/231 221/221/221 201/201/201
f 218/218/218 221/221/221 231/231/231
f 231/231/231 203/203/203 218/218/218
f 201/201/201 203/203/203 231/231/231
f 222/222/222 221/221/221 232/232/232
f 222/222/222 232/232/232 223/223/223
f 233/233/233 234/234/234 235/235/235
f 236/236/236 237/237/237 238/238/238
f 238/238/238 239/239/239 236/236/236
f 240/240/240 236/236/236 239/239/239
f 239/239/239 241/241/241 240/240/240
f 242/242/242 243/243/243 204/204/204
f 243/243/243 244/244/244 204/204/204
f 208/208/208 245/245/245 246/246/246
f 247/247/247 248/248/248 215/215/215
f 246/246/246 211/211/211 208/208/208
f 210/210/210 249/249/249 208/208/208
f 249/249/249 245/245/245 208/208/208
f 215/215/215 214/214/214 250/250/250
f 215/215/215 250/250/250 247/247/247
f 215/215/215 248/248/248 216/216/216
f 237/237/237 210/210/210 227/227/227
f 227/227/227 238/238/238 237/237/237
f 212/212/212 238/238/238 227/227/227
f 230/230/230 217/217/217 251/251/251
f 230/230/230 252/252/252 214/214/214
f 251/251/251 252/252/252 230/230/230
f 235/235/235 234/234/234 240/240/240
f 235/235/235 241/241/241 233/233/233
f 240/240/240 241/241/241 235/235/235
f 253/253/253 233/233/233 252/252/252
f 234/234/234 233/233/233 253/253/253
f 253/253/253 251/251/251 234/234/234
f 252/252/252 251/251/251 253/253/253
f 254/254/254 242/242/242 204/204/204
f 226/226/226 242/242/242 254/254/254
f 206/206/206 226/226/226 254/254/254
f 206/206/206 254/254/254 204/204/204
g EleHall033
s 1
f 255/255/255 256/256/256 257/257/257
f 258/258/258 259/259/259 260/260/260
f 261/261/261 262/262/262 263/263/263
f 260/260/260 264/264/264 258/258/258
f 263/263/263 265/265/265 261/261/261
f 266/266/266 264/264/264 260/260/260
f 267/267/267 268/268/268 262/262/262
f 262/262/262 261/261/261 267/267/267
f 269/269/269 258/258/258 270/270/270
f 271/271/271 272/272/272 265/265/265
f 273/273/273 272/272/272 271/271/271
f 271/271/271 274/274/274 273/273/273
f 274/274/274 275/275/275 276/276/276
f 257/257/257 266/266/266 255/255/255
f 276/276/276 273/273/273 274/274/274
f 277/277/277 276/276/276 275/275/275
f 278/278/278 279/279/279 280/280/280
f 268/268/268 267/267/267 279/279/279
f 275/275/275 281/281/281 277/277/277
f 282/282/282 283/283/283 284/284/284
f 285/285/285 286/286/286 287/287/287
f 288/288/288 289/289/289 285/285/285
f 282/282/282 277/277/277 281/281/281
f 290/290/290 291/291/291 292/292/292
f 265/265/265 263/263/263 271/271/271
f 260/260/260 259/259/259 266/266/266
f 255/255/255 291/291/291 256/256/256
f 286/286/286 285/285/285 293/293/293
f 293/293/293 285/285/285 289/289/289
f 294/294/294 295/295/295 270/270/270
f 259/259/259 258/258/258 269/269/269
f 279/279/279 296/296/296 268/268/268
f 279/279/279 278/278/278 296/296/296
f 269/269/269 295/295/295 259/259/259
f 297/297/297 289/289/289 288/288/288
f 257/257/257 256/256/256 298/298/298
f 298/298/298 256/256/256 264/264/264
f 264/264/264 266/266/266 298/298/298
f 298/298/298 266/266/266 257/257/257
f 299/299/299 294/294/294 300/300/300
f 300/300/300 297/297/297 299/299/299
f 301/301/301 282/282/282 281/281/281
f 283/283/283 282/282/282 301/301/301
f 270/270/270 295/295/295 269/269/269
f 291/291/291 290/290/290 302/302/302
f 291/291/291 302/302/302 256/256/256
f 270/270/270 300/300/300 294/294/294
f 288/288/288 299/299/299 297/297/297
g EleHall034
s 1
f 303/303/303 304/304/304 305/305/305
f 306/306/306 303/303/303 305/305/305
f 307/307/307 308/308/308 305/305/305
f 305/305/305 309/309/309 306/306/306
f 305/305/305 304/304/304 307/307/307
f 308/308/308 309/309/309 305/305/305
