# Exported using wow.export v0.2.19
o 20736_LabE.obj
v -222.83172607421875 -137.03204345703125 -204.86624145507812
v -221.18890380859375 -136.11581420898438 -205.48855590820312
v -221.38211059570312 -135.65771484375 -206.81431579589844
v -222.9774932861328 -134.2833709716797 -211.80722045898438
v -225.24969482421875 -136.11581420898438 -209.54898071289062
v -222.4696044921875 -134.2833709716797 -211.29940795898438
v -224.28134155273438 -138.4063720703125 -202.91818237304688
v -223.96725463867188 -137.94827270507812 -203.73663330078125
v -225.73097229003906 -139.7807159423828 -200.97010803222656
v -224.47454833984375 -137.94827270507812 -204.2439422607422
v -227.7625274658203 -139.7807159423828 -203.00131225585938
v -221.9617156982422 -134.2833709716797 -210.79161071777344
v -224.23391723632812 -136.11581420898438 -208.53338623046875
v -223.2181396484375 -136.11581420898438 -207.5177764892578
v -219.9324951171875 -134.2833709716797 -208.76239013671875
v -216.6468505859375 -132.450927734375 -210.0070037841797
v -218.6760711669922 -132.450927734375 -212.03622436523438
v -223.45993041992188 -137.94827270507812 -203.22933959960938
v -225.99822998046875 -137.94827270507812 -205.76734924316406
v -220.70529174804688 -132.450927734375 -214.06544494628906
v -218.91787719726562 -134.2833709716797 -207.74777221679688
v -227.01400756835938 -137.94827270507812 -206.78294372558594
v -222.20352172851562 -136.11581420898438 -206.503173828125
v -227.52188110351562 -137.94827270507812 -207.29074096679688
v -229.79408264160156 -139.7807159423828 -205.03250122070312
v -220.3188934326172 -133.36715698242188 -211.41390991210938
v -227.38827514648438 -138.864501953125 -204.89212036132812
v -225.49032592773438 -137.94827270507812 -205.25955200195312
v -221.96145629882812 -132.64813232421875 -203.9959716796875
v -221.88858032226562 -131.8849334716797 -203.923095703125
v -220.78895568847656 -131.35031127929688 -205.088623046875
v -218.7266845703125 -131.41531372070312 -207.55657958984375
v -218.8548583984375 -132.1573486328125 -207.68475341796875
v -221.06289672851562 -133.6187744140625 -205.36251831054688
v -217.47645568847656 -126.03680419921875 -208.571533203125
v -216.09896850585938 -126.15900421142578 -209.4591827392578
v -217.3155059814453 -126.72908020019531 -208.41058349609375
v -218.91786193847656 -132.96713256835938 -207.74777221679688
v -218.9189453125 -132.52838134765625 -207.74884033203125
v -216.64682006835938 -130.69593811035156 -210.0070037841797
v -221.19105529785156 -134.36083984375 -205.49069213867188
v -224.33526611328125 -127.52310180664062 -210.89971923828125
v -227.42007446289062 -128.88722229003906 -207.18878173828125
v -226.4457244873047 -128.66326904296875 -208.4796905517578
v -227.64971923828125 -135.45504760742188 -207.4185028076172
v -225.24969482421875 -134.36465454101562 -209.54896545410156
v -226.51361083984375 -134.538818359375 -208.54762268066406
v -230.0497283935547 -136.54544067382812 -205.2880401611328
v -227.52191162109375 -136.1970977783203 -207.2907257080078
v -227.0137939453125 -129.1213836669922 -207.91513061523438
v -225.37750244140625 -133.62258911132812 -209.67674255371094
v -220.7052764892578 -130.6997528076172 -214.06544494628906
v -228.55618286132812 -129.80343627929688 -206.05966186523438
v -223.3609161376953 -127.29916381835938 -212.19061279296875
v -222.38656616210938 -127.07521057128906 -213.48150634765625
v -221.25045776367188 -126.15898895263672 -214.6106414794922
v -222.06304931640625 -125.69065856933594 -213.15798950195312
v -221.739501953125 -124.30609893798828 -212.83444213867188
v -222.87562561035156 -125.22232055664062 -211.705322265625
v -223.23309326171875 -131.048095703125 -212.06277465820312
v -223.10528564453125 -131.7901611328125 -211.93499755859375
v -225.50531005859375 -132.88055419921875 -209.80453491210938
v -225.47137451171875 -128.4393310546875 -209.7705841064453
v -223.19915771484375 -126.60688018798828 -212.02883911132812
v -222.79286193847656 -126.84104919433594 -212.75518798828125
v -228.87973022460938 -131.18800354003906 -206.3831787109375
v -228.06715393066406 -131.65634155273438 -207.83583068847656
v -227.74362182617188 -130.27178955078125 -207.51231384277344
v -223.13394165039062 -133.9459686279297 -202.90333557128906
v -222.98818969726562 -132.4195556640625 -202.75758361816406
v -229.20327758789062 -132.57257080078125 -206.70669555664062
v -220.93472290039062 -132.87673950195312 -205.23434448242188
v -229.6923065185547 -130.71966552734375 -204.93052673339844
v -221.35813903808594 -125.05540466308594 -207.9228515625
v -223.21859741210938 -125.32174682617188 -207.51797485351562
v -221.84104919433594 -124.62214660644531 -208.40567016601562
v -223.2068328857422 -134.7091827392578 -202.9761962890625
v -225.47894287109375 -136.5416259765625 -200.71804809570312
v -220.4635009765625 -123.92254638671875 -209.2933807373047
v -222.08250427246094 -124.405517578125 -208.6470947265625
v -223.8717803955078 -126.67122650146484 -205.90603637695312
v -225.00787353515625 -127.58744812011719 -204.77691650390625
v -225.49078369140625 -127.1541976928711 -205.25973510742188
v -222.2248077392578 -126.3829345703125 -213.31973266601562
v -222.25277709960938 -126.1882553100586 -206.55233764648438
v -224.3546905517578 -126.23797607421875 -206.38885498046875
v -226.9310302734375 -130.7401123046875 -208.9649658203125
v -227.76296997070312 -128.9866485595703 -203.0015106201172
v -226.6268768310547 -128.07041931152344 -204.130615234375
v -225.65013122558594 -131.35223388671875 -209.9492950439453
v -225.794921875 -129.8238983154297 -210.09410095214844
v -225.24969482421875 -135.240234375 -209.54896545410156
v -225.24969482421875 -136.11581420898438 -209.54898071289062
v -222.9774932861328 -134.2833709716797 -211.80722045898438
v -222.9774932861328 -133.4077911376953 -211.8072052001953
v -225.97308349609375 -127.58745574951172 -205.74203491210938
v -220.70529174804688 -132.450927734375 -214.06544494628906
v -222.97747802734375 -132.53219604492188 -211.8072052001953
v -227.52191162109375 -137.0726776123047 -207.29074096679688
v -229.7941131591797 -138.029541015625 -205.03248596191406
v -227.52188110351562 -137.94827270507812 -207.29074096679688
v -218.91787719726562 -133.84463500976562 -207.74777221679688
v -216.6468505859375 -132.450927734375 -210.0070037841797
v -220.0533905029297 -134.980224609375 -206.6181640625
v -221.18890380859375 -135.2383270263672 -205.48855590820312
v -221.80545043945312 -125.621826171875 -207.2375946044922
v -219.49777221679688 -124.7890625 -208.32766723632812
v -220.91082763671875 -124.48897552490234 -208.60812377929688
v -223.46209716796875 -136.63201904296875 -203.23147583007812
v -223.45993041992188 -137.509521484375 -203.22933959960938
v -225.73529052734375 -138.02572631835938 -200.97439575195312
v -224.04205322265625 -128.45396423339844 -203.81130981445312
v -222.2172393798828 -127.18794250488281 -205.3842315673828
v -221.2870635986328 -127.05476379394531 -205.5866241455078
v -220.39242553710938 -125.92192077636719 -206.9571533203125
v -224.1831817626953 -126.18826293945312 -208.4825439453125
v -225.14785766601562 -127.05477142333984 -209.44705200195312
v -224.01174926757812 -126.1385498046875 -210.57618713378906
v -228.71795654296875 -130.4957275390625 -206.22142028808594
v -219.01492309570312 -125.22232055664062 -207.8448028564453
v -217.79837036132812 -124.65223693847656 -208.8934326171875
v -216.74278259277344 -123.3898696899414 -210.1029815673828
v -220.87527465820312 -125.48866271972656 -207.44000244140625
v -223.11187744140625 -128.32080078125 -204.01370239257812
v -228.14990234375 -130.03761291503906 -206.78598022460938
v -227.9947509765625 -132.42051696777344 -207.763427734375
v -230.33938598632812 -133.48880004882812 -205.5775604248047
v -224.93670654296875 -129.58682250976562 -202.4407958984375
v -222.42312622070312 -127.97098541259766 -204.45753479003906
v -218.56759643554688 -124.65589904785156 -208.53005981445312
v -222.96133422851562 -125.24717712402344 -210.6584930419922
v -216.42086791992188 -124.7744369506836 -209.7810821533203
v -220.6033935546875 -123.38987731933594 -213.9635772705078
v -222.39328002929688 -124.78907012939453 -211.22305297851562
v -223.52940368652344 -125.70529174804688 -210.09393310546875
v -224.83697509765625 -126.67123413085938 -206.8711395263672
v -227.10919189453125 -128.50367736816406 -204.61288452148438
v -227.59152221679688 -128.9369354248047 -205.09515380859375
v -226.45541381835938 -128.0207061767578 -206.22427368164062
v -221.2572021484375 -123.87284851074219 -212.3521728515625
v -220.77490234375 -123.43959045410156 -211.86988830566406
v -221.91099548339844 -124.3558120727539 -210.74078369140625
v -227.50579833984375 -128.91207885742188 -206.1419677734375
v -225.18743896484375 -133.48880004882812 -200.42654418945312
v -225.8313446044922 -130.71966552734375 -201.0702667236328
v -224.13186645507812 -132.2264404296875 -201.6361083984375
v -221.9967498779297 -124.38066101074219 -209.69393920898438
v -220.9464111328125 -123.48929595947266 -209.7761993408203
v -221.75665283203125 -136.244873046875 -204.9237518310547
v -223.5592041015625 -128.88720703125 -203.3284454345703
v -221.18890380859375 -136.11581420898438 -205.48855590820312
v -223.45993041992188 -137.94827270507812 -203.22933959960938
v -225.73097229003906 -139.7807159423828 -200.97010803222656
v -222.9774932861328 -133.8455810546875 -211.8072052001953
v -226.858642578125 -131.50428771972656 -208.89256286621094
v -216.39048767089844 -129.2118377685547 -209.7506561279297
v -217.27146911621094 -127.45683288574219 -208.36654663085938
v -226.82244873046875 -131.88638305664062 -208.85635375976562
v -223.30551147460938 -130.283935546875 -212.13516235351562
v -222.09698486328125 -130.13186645507812 -213.19189453125
v -220.96087646484375 -129.2156524658203 -214.32102966308594
v -224.47781372070312 -130.81808471679688 -211.042236328125
v -227.92234802246094 -133.18467712402344 -207.6910400390625
v -227.77752685546875 -134.71299743652344 -207.54629516601562
v -224.51400756835938 -130.43600463867188 -211.07843017578125
v -222.13319396972656 -129.74978637695312 -213.22808837890625
v -223.37789916992188 -129.519775390625 -212.2075653076172
v -221.22946166992188 -130.47280883789062 -204.39654541015625
v -220.64320373535156 -129.8238983154297 -204.94287109375
v -219.6893310546875 -130.81568908691406 -206.25413513183594
v -218.66259765625 -131.04428100585938 -207.49249267578125
v -218.5897216796875 -130.28106689453125 -207.41964721679688
v -219.616455078125 -130.052490234375 -206.18125915527344
v -221.81570434570312 -131.12173461914062 -203.8502197265625
v -218.85394287109375 -125.91459655761719 -207.68386840820312
v -217.55859375 -130.31356811523438 -208.65362548828125
v -223.3990936279297 -135.82225036621094 -203.16845703125
v -223.2709197998047 -135.0802001953125 -203.040283203125
v -220.96511840820312 -128.4393310546875 -205.2647705078125
v -219.90953063964844 -127.17696380615234 -206.4743194580078
v -219.58761596679688 -128.56153869628906 -206.1524200439453
v -218.53204345703125 -127.29916381835938 -207.36196899414062
v -227.52191162109375 -136.6348876953125 -207.2907257080078
v -223.46316528320312 -136.1932830810547 -203.2325439453125
v -224.4538116455078 -130.84185791015625 -201.9579620361328
v -224.61477661132812 -130.1495819091797 -202.118896484375
v -223.07627868652344 -130.9640655517578 -202.8456573486328
v -218.91787719726562 -134.2833709716797 -207.74777221679688
v -225.63314819335938 -129.13162231445312 -209.93234252929688
v -224.6588134765625 -128.9076690673828 -211.22323608398438
v -223.52268981933594 -127.99143981933594 -212.3523712158203
v -225.9025115966797 -128.72030639648438 -203.40640258789062
v -226.6074981689453 -129.35556030273438 -208.64144897460938
v -223.39822387695312 -129.57949829101562 -203.16751098632812
v -218.6031494140625 -123.65620422363281 -209.69818115234375
v -219.56886291503906 -122.7896957397461 -210.66390991210938
v -222.07077026367188 -133.79296875 -204.1052703857422
v -225.3096160888672 -127.7470474243164 -209.60882568359375
v -226.28396606445312 -127.97099304199219 -208.3179168701172
v -219.7986602783203 -131.96051025390625 -206.36341857910156
v -226.64141845703125 -133.79678344726562 -208.6754150390625
v -218.4439697265625 -128.75465393066406 -207.27389526367188
v -217.4901123046875 -129.7464599609375 -208.58514404296875
v -222.24179077148438 -128.60354614257812 -213.33670043945312
v -223.50157165527344 -132.30526733398438 -202.1383819580078
v -222.03433227539062 -133.41134643554688 -204.06884765625
v -218.67422485351562 -121.65684509277344 -212.034423828125
v -219.5435791015625 -129.28927612304688 -206.10838317871094
v -224.74554443359375 -133.53550720214844 -210.1774139404297
v -227.713623046875 -135.08401489257812 -207.48239135742188
v -224.24139404296875 -132.7063751220703 -210.80587768554688
v -217.68675231933594 -131.05563354492188 -208.78179931640625
v -222.18167114257812 -129.00941467285156 -204.2161407470703
v -222.02069091796875 -129.70169067382812 -204.05520629882812
v -221.8597412109375 -130.39398193359375 -203.89425659179688
v -219.542724609375 -125.85350036621094 -207.24002075195312
v -220.07049560546875 -126.48468017578125 -206.63525390625
v -219.7485809326172 -127.86924743652344 -206.31336975097656
v -229.79408264160156 -139.7807159423828 -205.03250122070312
v -219.38174438476562 -126.5457763671875 -207.0791015625
v -226.0394287109375 -128.89743041992188 -209.20602416992188
v -224.49703979492188 -128.21539306640625 -211.0614776611328
v -224.1735076904297 -126.83082580566406 -210.73794555664062
v -226.76927185058594 -130.0478515625 -208.80320739746094
v -223.44369506835938 -125.68043518066406 -211.1407470703125
v -225.4552001953125 -128.15386962890625 -204.09165954589844
v -224.4893798828125 -129.0203857421875 -203.1260528564453
v -223.1474151611328 -127.32110595703125 -205.18182373046875
v -223.6303253173828 -126.88784790039062 -205.6646270751953
v -223.5947265625 -127.88753509521484 -204.49656677246094
v -218.12026977539062 -124.08946228027344 -209.21533203125
v -221.76992797851562 -126.62151336669922 -206.06948852539062
v -225.8016357421875 -127.53773498535156 -207.83566284179688
v -225.31930541992188 -127.10448455810547 -207.35340881347656
v -226.36968994140625 -127.995849609375 -207.27108764648438
v -222.56478881835938 -124.83877563476562 -209.12937927246094
v -223.04708862304688 -125.27203369140625 -209.61166381835938
v -222.1693878173828 -129.36770629882812 -213.26429748535156
v -224.58641052246094 -129.67184448242188 -211.1508331298828
v -218.37109375 -127.991455078125 -207.20101928710938
v -220.1298370361328 -129.93820190429688 -205.5620574951172
v -220.71607971191406 -130.5871124267578 -205.0157470703125
v -222.2621612548828 -128.66326904296875 -204.29660034179688
v -222.54849243164062 -130.3328857421875 -203.450439453125
v -220.8041534423828 -129.13162231445312 -205.10382080078125
v -222.91531372070312 -131.65634155273438 -202.68470764160156
v -217.417236328125 -128.98324584960938 -208.51226806640625
v -219.81031799316406 -122.57307434082031 -210.90530395507812
vn -0.5266804099082947 0.8032281994819641 -0.27826663851737976
vn -0.6098716855049133 0.6736389994621277 -0.41745302081108093
vn -0.46448951959609985 0.8574941158294678 -0.22125373780727386
vn 0.42330044507980347 0.6736840605735779 0.6057775616645813
vn 0.4093143045902252 0.6733680367469788 0.6156598925590515
vn 0.29429659247398376 0.8013589382171631 0.5207815170288086
vn -0.583571195602417 0.7408792972564697 -0.3324792683124542
vn -0.5334285497665405 0.8019994497299194 -0.26879510283470154
vn -0.6345896124839783 0.6710749864578247 -0.38334622979164124
vn -0.42349034547805786 0.8972869515419006 -0.12462768703699112
vn -0.18246185779571533 0.966414213180542 0.18097269535064697
vn 0.15983004868030548 0.8987714052200317 0.40824541449546814
vn 0.13898301124572754 0.8950206637382507 0.4238182306289673
vn -0.143501877784729 0.9775371551513672 0.15436404943466187
vn -0.39762452244758606 0.9031311869621277 -0.1620144098997116
vn -0.5840675830841064 0.6750034093856812 -0.45081642270088196
vn -0.10766243189573288 0.9884997010231018 0.10619363188743591
vn -0.6223692297935486 0.6725066900253296 -0.40048879384994507
vn -0.022209109738469124 0.9508258700370789 0.30892878770828247
vn 0.4371623992919922 0.6738024353981018 0.5957174301147461
vn -0.5971025228500366 0.6744713187217712 -0.43423140048980713
vn 0.2650966942310333 0.79899001121521 0.5397579669952393
vn -0.4106653034687042 0.9004455804824829 -0.14335870742797852
vn 0.39520812034606934 0.6728545427322388 0.6253617405891418
vn 0.38098597526550293 0.6721435785293579 0.6348800659179688
vn 0.024167925119400024 0.963916540145874 0.26510533690452576
vn 0.043294984847307205 0.9249506592750549 0.3776134252548218
vn -0.1630297601222992 0.9722613096237183 0.16771763563156128
vn -0.7205556035041809 0.08258802443742752 -0.6884613633155823
vn -0.7043045163154602 0.013512724079191685 -0.7097694873809814
vn -0.7154632806777954 0.048013921827077866 -0.6969985961914062
vn -0.7287778854370117 0.1685226708650589 -0.6636889576911926
vn -0.7259786128997803 0.1353474110364914 -0.6742672324180603
vn -0.7347539663314819 0.1514018028974533 -0.6612216234207153
vn -0.6094375252723694 -0.2941001057624817 -0.7362682819366455
vn -0.6859185695648193 -0.090455561876297 -0.7220342755317688
vn -0.6620466113090515 -0.15922904014587402 -0.732352614402771
vn -0.7241582870483398 0.2715132236480713 -0.6339364051818848
vn -0.7242444753646851 0.1186922937631607 -0.6792512536048889
vn -0.7168365120887756 0.1192246526479721 -0.6869722604751587
vn -0.731569230556488 0.11814630031585693 -0.6714521050453186
vn 0.7077982425689697 -0.3622678816318512 0.6064517498016357
vn 0.6679198145866394 -0.6006336212158203 0.439456969499588
vn 0.6958058476448059 -0.4866785705089569 0.5282029509544373
vn 0.6622732281684875 0.151772141456604 0.7337297797203064
vn 0.6681804656982422 0.11874987930059433 0.7344613075256348
vn 0.6666873693466187 0.15187779068946838 0.7296993136405945
vn 0.6556203961372375 0.18462350964546204 0.7321721315383911
vn 0.6593117117881775 0.11853309720754623 0.74246746301651
vn 0.6962103247642517 -0.4866270422935486 0.5277171730995178
vn 0.6710774302482605 0.15198038518428802 0.7256425023078918
vn 0.6856304407119751 0.11913252621889114 0.7181353569030762
vn 0.6686833500862122 -0.6005064845085144 0.43846839666366577
vn 0.7053033113479614 -0.22990675270557404 0.6705893278121948
vn 0.6932400465011597 -0.09250456839799881 0.7147454619407654
vn 0.6865966320037842 -0.0926399901509285 0.7211123108863831
vn 0.7060446739196777 -0.36245059967041016 0.6083835363388062
vn 0.6640861630439758 -0.6012549996376038 0.44438958168029785
vn 0.6648550033569336 -0.6011326313018799 0.4434044659137726
vn 0.6728909015655518 0.18489030003547668 0.7162635326385498
vn 0.6767975091934204 0.152061328291893 0.7202932834625244
vn 0.6671748161315918 0.18481269478797913 0.7216107249259949
vn 0.7086734771728516 -0.36217430233955383 0.605484664440155
vn 0.7069219946861267 -0.36236000061035156 0.6074180603027344
vn 0.7048420310020447 -0.22994790971279144 0.6710602045059204
vn 0.7273669838905334 -0.36085906624794006 0.5837105512619019
vn 0.7255654335021973 -0.09171024709939957 0.6820145845413208
vn 0.7212145328521729 -0.361285001039505 0.5910351276397705
vn -0.7247152924537659 0.11705523729324341 -0.6790330410003662
vn -0.692104697227478 -0.0210084468126297 -0.7214913964271545
vn 0.731848418712616 -0.0915280357003212 0.6752930283546448
vn -0.7263988852500916 0.18554192781448364 -0.6617543697357178
vn 0.6694458723068237 -0.6003783941268921 0.43747907876968384
vn -0.06044204533100128 -0.9114162921905518 -0.4070221185684204
vn 0.18196776509284973 -0.9664410352706909 -0.18132682144641876
vn 0.1021120697259903 -0.9601503610610962 -0.26016226410865784
vn -0.7283108234405518 0.1855171024799347 -0.6596565842628479
vn -0.7302168011665344 0.18549078702926636 -0.657553493976593
vn 0.0209665484726429 -0.9417315721511841 -0.3357114791870117
vn 0.1819669008255005 -0.9664415121078491 -0.18132583796977997
vn 0.020969264209270477 -0.9417303800582886 -0.33571451902389526
vn 0.020970158278942108 -0.9417299628257751 -0.33571556210517883
vn 0.1819695383310318 -0.9664404392242432 -0.18132884800434113
vn 0.7043803930282593 -0.22998833656311035 0.6715307831764221
vn -0.14108715951442719 -0.8695885539054871 -0.47319144010543823
vn 0.18196865916252136 -0.966440737247467 -0.18132783472537994
vn 0.7192211151123047 -0.09188470989465714 0.6886785626411438
vn 0.18197128176689148 -0.9664396643638611 -0.1813308596611023
vn 0.18197040259838104 -0.966439962387085 -0.18132983148097992
vn 0.7156615257263184 0.04729458689689636 0.6968441605567932
vn 0.7128158211708069 -0.09205137938261032 0.6952841281890869
vn 0.5714213848114014 0.4162016212940216 0.7072863578796387
vn 0.4093143045902252 0.6733680367469788 0.6156598925590515
vn 0.42330044507980347 0.6736840605735779 0.6057775616645813
vn 0.5810116529464722 0.4165966212749481 0.6991941928863525
vn 0.33413878083229065 -0.9423558712005615 -0.017795011401176453
vn 0.4371623992919922 0.6738024353981018 0.5957174301147461
vn 0.6769537925720215 0.11894969642162323 0.7263501882553101
vn 0.5572810769081116 0.416341096162796 0.7183994650840759
vn 0.6503487825393677 0.11829938739538193 0.7503677010536194
vn 0.39520812034606934 0.6728545427322388 0.6253617405891418
vn -0.656272292137146 0.5525447130203247 -0.5138102173805237
vn -0.5840675830841064 0.6750034093856812 -0.45081642270088196
vn -0.6353402733802795 0.6150368452072144 -0.46698233485221863
vn -0.7126098275184631 0.41672664880752563 -0.5643811821937561
vn -0.10092407464981079 -0.8919118046760559 -0.44080328941345215
vn -0.2918865382671356 -0.7529542446136475 -0.5897985696792603
vn -0.019768984988331795 -0.9280403256416321 -0.3719545304775238
vn -0.7385091185569763 0.2702444791793823 -0.6177152991294861
vn -0.6824920177459717 0.5510809421539307 -0.4801192581653595
vn -0.7459660768508911 0.11701370030641556 -0.6556236743927002
vn -0.2960347831249237 -0.7536472678184509 -0.5868383049964905
vn -0.33069971203804016 -0.7181456685066223 -0.6122943758964539
vn -0.43209585547447205 -0.5992394089698792 -0.6739476323127747
vn -0.364336222410202 -0.6804107427597046 -0.6358462572097778
vn 0.4694392681121826 -0.8707029819488525 0.14663910865783691
vn 0.6663894653320312 -0.6008849740028381 0.44143208861351013
vn 0.6656227707862854 -0.6010092496871948 0.44241863489151
vn 0.702696681022644 -0.48592573404312134 0.5197052359580994
vn -0.4301036298274994 -0.5989797711372375 -0.6754510402679443
vn -0.4672479033470154 -0.5426317453384399 -0.6980188488960266
vn -0.42810872197151184 -0.5987163782119751 -0.6769502758979797
vn -0.21785105764865875 -0.8163837790489197 -0.5348442792892456
vn -0.40086129307746887 -0.6411157250404358 -0.6544315814971924
vn 0.699678897857666 -0.4862382411956787 0.5234708786010742
vn 0.7287373542785645 -0.02207844704389572 0.6844372749328613
vn 0.7380692958831787 -0.09133805334568024 0.66851407289505
vn -0.368380069732666 -0.6809983253479004 -0.6328803300857544
vn -0.4330909252166748 -0.5993677973747253 -0.6731942892074585
vn -0.39683952927589417 -0.6405596137046814 -0.6574205160140991
vn 0.5814208984375 -0.755013644695282 0.303157240152359
vn -0.5812663435935974 -0.35958942770957947 -0.7299485802650452
vn 0.6633162498474121 -0.6013764142990112 0.4453739821910858
vn 0.5810429453849792 -0.7550979256629944 0.30367106199264526
vn 0.5817983746528625 -0.7549289464950562 0.30264315009117126
vn 0.33413785696029663 -0.942356288433075 -0.01779397949576378
vn 0.33493515849113464 -0.9420509934425354 -0.01893508993089199
vn 0.4718223214149475 -0.8699705600738525 0.14330032467842102
vn 0.47102996706962585 -0.8702157139778137 0.14441435039043427
vn 0.5810419321060181 -0.7550984025001526 0.303672194480896
vn 0.46943625807762146 -0.8707041144371033 0.14664244651794434
vn 0.46943727135658264 -0.8707037568092346 0.146641343832016
vn 0.5845757722854614 -0.7542755007743835 0.29889726638793945
vn -0.6646560430526733 -0.08990666270256042 -0.7417203783988953
vn -0.43607208132743835 -0.5997473001480103 -0.6709280014038086
vn -0.6457265615463257 -0.158726766705513 -0.7468888759613037
vn 0.33413541316986084 -0.9423571228981018 -0.01779128797352314
vn 0.18196600675582886 -0.9664417505264282 -0.1813248097896576
vn -0.6594510078430176 0.5835322141647339 -0.47393524646759033
vn -0.43408530950546265 -0.5994952321052551 -0.6724398732185364
vn -0.6098716855049133 0.6736389994621277 -0.41745302081108093
vn -0.6223692297935486 0.6725066900253296 -0.40048879384994507
vn -0.6345896124839783 0.6710749864578247 -0.38334622979164124
vn 0.5105088949203491 0.551720917224884 0.659533679485321
vn 0.7223892211914062 -0.022262554615736008 0.6911282539367676
vn -0.7225576043128967 0.1855870932340622 -0.6659339070320129
vn -0.6946631669998169 -0.055901892483234406 -0.7171597480773926
vn 0.7226636409759521 0.012616174295544624 0.691084623336792
vn 0.6989089846611023 0.11642464250326157 0.7056710124015808
vn 0.6757335662841797 0.1849248707294464 0.7135735154151917
vn 0.6785657405853271 0.18495656549930573 0.71087247133255
vn 0.7077398896217346 0.08191223442554474 0.7017083168029785
vn 0.7101273536682129 0.04723656177520752 0.7024869918823242
vn 0.6614179015159607 0.18472377955913544 0.7269137501716614
vn 0.7091554403305054 0.04710589721798897 0.7034768462181091
vn 0.6891800761222839 0.15078745782375336 0.7087270021438599
vn 0.7025879621505737 0.046913132071495056 0.7100486755371094
vn -0.6798856854438782 -0.0729285180568695 -0.7296826839447021
vn -0.675358235836029 -0.0901905819773674 -0.7319542169570923
vn -0.7185848355293274 0.08260488510131836 -0.6905158162117004
vn -0.7244811654090881 0.1855652630329132 -0.6638467907905579
vn -0.7208095192909241 0.11709275096654892 -0.6831713318824768
vn -0.709445059299469 0.013377681374549866 -0.7046338319778442
vn -0.6841868758201599 -0.05564042553305626 -0.7271811962127686
vn -0.5039941072463989 -0.483768105506897 -0.7155125737190247
vn -0.7256981730461121 0.17706231772899628 -0.6648393273353577
vn -0.7404839992523193 0.13423022627830505 -0.6585329174995422
vn -0.732594907283783 0.16847148537635803 -0.6594861745834351
vn -0.5695685148239136 -0.35892266035079956 -0.7394365072250366
vn -0.5381593108177185 -0.42242705821990967 -0.7293421030044556
vn -0.6566076278686523 -0.15905582904815674 -0.7372703552246094
vn -0.6345956921577454 -0.22714170813560486 -0.7387117743492126
vn 0.6184161901473999 0.27054521441459656 0.7378121018409729
vn -0.7388100624084473 0.11758675426244736 -0.6635760068893433
vn -0.5421362519264221 -0.4228779077529907 -0.7261283993721008
vn -0.4732133150100708 -0.5433658957481384 -0.6934136748313904
vn -0.6234902143478394 -0.2267340123653412 -0.748232364654541
vn -0.5971025228500366 0.6744713187217712 -0.43423140048980713
vn 0.7181961536407471 -0.22937153279781342 0.6569496393203735
vn 0.7063502669334412 -0.09221027046442032 0.7018309831619263
vn 0.6998247504234314 -0.09236133098602295 0.7083181738853455
vn -0.06043831631541252 -0.9114147424697876 -0.40702635049819946
vn 0.7149832248687744 -0.3617234528064728 0.5982936024665833
vn -0.5079583525657654 -0.484233021736145 -0.7123880982398987
vn -0.21565689146518707 -0.815951406955719 -0.5363911986351013
vn 0.10211028903722763 -0.9601510763168335 -0.2601602375507355
vn -0.7273556590080261 0.1855297088623047 -0.6607061624526978
vn 0.6949962973594666 -0.4867805540561676 0.5291737914085388
vn 0.6671552062034607 -0.600759744644165 0.4404448866844177
vn -0.7254408001899719 0.18555378913879395 -0.6628012657165527
vn 0.6643014550209045 0.1847696453332901 0.7242677807807922
vn -0.7025086879730225 -0.021275872364640236 -0.711357057094574
vn -0.7221341729164124 0.15143442153930664 -0.6749738454818726
vn 0.6959583759307861 0.04675193876028061 0.7165586352348328
vn -0.6745703816413879 -0.07278962433338165 -0.7346130609512329
vn -0.7260102033615112 0.1513930708169937 -0.6708123683929443
vn 0.1819642335176468 -0.9664424657821655 -0.18132278323173523
vn -0.6894431710243225 -0.05577262490987778 -0.7221894860267639
vn 0.6719214916229248 0.1354340761899948 0.7281340956687927
vn 0.6634606719017029 0.16833028197288513 0.7290301322937012
vn 0.6739426255226135 0.1520225554704666 0.7229734659194946
vn -0.7230887413024902 0.14392970502376556 -0.6755937337875366
vn -0.5401309728622437 -0.42264795303344727 -0.7277549505233765
vn -0.5980607867240906 -0.2935800552368164 -0.745743989944458
vn -0.6511843204498291 -0.15889549255371094 -0.7420992255210876
vn -0.44995424151420593 -0.5712941288948059 -0.6864140629768372
vn -0.46923309564590454 -0.5428783893585205 -0.6964936256408691
vn -0.6037139296531677 -0.2938263416290283 -0.741077184677124
vn 0.38098597526550293 0.6721435785293579 0.6348800659179688
vn -0.5214105844497681 -0.45338791608810425 -0.7228902578353882
vn 0.7118380665779114 -0.36194729804992676 0.6018975377082825
vn 0.7118517756462097 -0.2296106219291687 0.6637365221977234
vn 0.6941662430763245 -0.48689037561416626 0.5301611423492432
vn 0.7246114015579224 -0.2290695756673813 0.6499733924865723
vn 0.6652390360832214 -0.6010710597038269 0.44291168451309204
vn -0.019765309989452362 -0.9280387163162231 -0.3719587028026581
vn -0.3327332139015198 -0.7184580564498901 -0.6108245253562927
vn -0.2199501395225525 -0.8167765736579895 -0.5333836674690247
vn -0.060440223664045334 -0.9114155173301697 -0.40702417492866516
vn -0.25840073823928833 -0.7864546179771423 -0.5609974265098572
vn -0.3622662127017975 -0.6800941824913025 -0.6373657584190369
vn -0.29398414492607117 -0.753311038017273 -0.588299036026001
vn 0.5834012627601624 -0.754551887512207 0.3004903495311737
vn 0.47023507952690125 -0.8704601526260376 0.14552687108516693
vn 0.5837772488594055 -0.7544659972190857 0.2999753952026367
vn 0.33413591980934143 -0.9423570036888123 -0.01779179461300373
vn 0.4694383144378662 -0.8707034587860107 0.14664024114608765
vn 0.6922779679298401 0.11622043699026108 0.7122106552124023
vn 0.7094452381134033 -0.022624719887971878 0.7043973207473755
vn -0.6806562542915344 -0.09032544493675232 -0.727013349533081
vn -0.6935009956359863 -0.038466643542051315 -0.7194280624389648
vn -0.6973313093185425 -0.021146999672055244 -0.7164369821548462
vn -0.5069682002067566 -0.4841185510158539 -0.7131707072257996
vn -0.6111668348312378 -0.26032373309135437 -0.7474668025970459
vn -0.6290345788002014 -0.2269313633441925 -0.7435169816017151
vn -0.6700247526168823 -0.09005099534988403 -0.7368566989898682
vn -0.716598629951477 0.08262436091899872 -0.692574679851532
vn 0.18196512758731842 -0.9664422273635864 -0.1813238114118576
vt 3.1695752143859863 4.639370441436768
vt 3.313727378845215 4.574425458908081
vt 3.385803699493408 4.6710920333862305
vt 3.602032423019409 5.090367317199707
vt 3.313727855682373 5.091255187988281
vt 3.602032423019409 5.025729179382324
vt 2.9533467292785645 4.607648849487305
vt 3.025423049926758 4.639745712280273
vt 2.7371184825897217 4.575927257537842
vt 3.025423049926758 4.704315185546875
vt 2.7371184825897217 4.834479570388794
vt 3.602032423019409 4.961091041564941
vt 3.313727855682373 4.961979389190674
vt 3.313727855682373 4.832703113555908
vt 3.60203218460083 4.702813386917114
vt 3.890336513519287 4.57292366027832
vt 3.890336751937866 4.8312013149261475
vt 3.025423049926758 4.575176239013672
vt 3.025423049926758 4.898229598999023
vt 3.8903369903564453 5.089478969573975
vt 3.602031946182251 4.57367467880249
vt 3.025423049926758 5.027505874633789
vt 3.313727617263794 4.703564167022705
vt 3.025423049926758 5.092143535614014
vt 2.7371184825897217 5.093031883239746
vt 3.7461845874786377 4.896146297454834
vt 2.8812708854675293 4.930992603302002
vt 3.025423049926758 4.833591461181641
vt 0.6060064435005188 0.30867648124694824
vt 0.6060064435005188 0.3504980802536011
vt 0.5017203092575073 0.3302408456802368
vt 0.29314810037612915 0.21772193908691406
vt 0.29314807057380676 0.15735584497451782
vt 0.5017203092575073 0.18623167276382446
vt 0.18886196613311768 0.485604465007782
vt 0.08457585424184799 0.41649824380874634
vt 0.18886196613311768 0.4390980005264282
vt 0.29314810037612915 0.09686005115509033
vt 0.29314807057380676 0.1271728277206421
vt 0.08457585424184799 0.12848001718521118
vt 0.5017203092575073 0.12586557865142822
vt 0.39743420481681824 0.5075506567955017
vt 0.7102925777435303 0.5986026525497437
vt 0.6060064435005188 0.5527498722076416
vt 0.7102925777435303 0.18458324670791626
vt 0.5017203688621521 0.12552428245544434
vt 0.6060065031051636 0.1852368712425232
vt 0.9188648462295532 0.24364221096038818
vt 0.7102925777435303 0.12421709299087524
vt 0.6581495404243469 0.5524230599403381
vt 0.5017203092575073 0.18589043617248535
vt 0.08457585424184799 0.1281387209892273
vt 0.8145787119865417 0.5979490578174591
vt 0.29314807057380676 0.46169787645339966
vt 0.18886196613311768 0.41584503650665283
vt 0.08457585424184799 0.41649866104125977
vt 0.18886196613311768 0.5088578760623932
vt 0.18886196613311768 0.6018706858158112
vt 0.29314807057380676 0.6012170910835266
vt 0.29314807057380676 0.24756371974945068
vt 0.29314810037612915 0.18719762563705444
vt 0.5017203092575073 0.2462565302848816
vt 0.5017203092575073 0.5068970620632172
vt 0.29314810037612915 0.5082042813301086
vt 0.2410050332546234 0.4620246887207031
vt 0.8145787119865417 0.5049362778663635
vt 0.7102925777435303 0.4125770926475525
vt 0.7102925777435303 0.5055898725986481
vt 0.7102925777435303 0.28711217641830444
vt 0.7102925777435303 0.3707553744316101
vt 0.8145787119865417 0.41192352771759033
vt 0.5017203688621521 0.24659782648086548
vt 0.9188648462295532 0.5972954630851746
vt 0.3974342346191406 0.7497619986534119
vt 0.5017203688621521 0.841241717338562
vt 0.3974342346191406 0.8107484728097916
vt 0.7102925777435303 0.2452906370162964
vt 0.9188648462295532 0.24398350715637207
vt 0.29314810037612915 0.7802552282810211
vt 0.3974342346191406 0.841241717338562
vt 0.6060065031051636 0.7802552282810211
vt 0.7102925777435303 0.7802552282810211
vt 0.7102925777435303 0.841241717338562
vt 0.18886198103427887 0.4623514413833618
vt 0.5017203688621521 0.7192687392234802
vt 0.6060065031051636 0.841241717338562
vt 0.6060065031051636 0.41323065757751465
vt 0.9188648462295532 0.841241717338562
vt 0.8145787119865417 0.841241717338562
vt 0.5017203092575073 0.3300703763961792
vt 0.5017203688621521 0.4138842821121216
vt 0.5017203688621521 0.062454938888549805
vt 0.5017203092575073 0.001999974250793457
vt 0.29314810037612915 0.001999974250793457
vt 0.29314810037612915 0.0637621283531189
vt 0.7102925777435303 0.7815623581409454
vt 0.08457585424184799 0.001999974250793457
vt 0.29314810037612915 0.1268315315246582
vt 0.7102925777435303 0.062454938888549805
vt 0.9188648462295532 0.12290990352630615
vt 0.7102925777435303 0.001999974250793457
vt 0.29314810037612915 0.03361999988555908
vt 0.08457585424184799 0.001999974250793457
vt 0.3974342346191406 0.01780998706817627
vt 0.5017203688621521 0.06524002552032471
vt 0.44957730174064636 0.734515368938446
vt 0.29314810037612915 0.660896509885788
vt 0.3452911674976349 0.7650086134672165
vt 0.7102925777435303 0.09424561262130737
vt 0.7102925777435303 0.03361999988555908
vt 0.9188648462295532 0.12325119972229004
vt 0.7102925777435303 0.6582822501659393
vt 0.5538634061813354 0.6443427801132202
vt 0.5017203092575073 0.5999100208282471
vt 0.3974342346191406 0.6304032802581787
vt 0.5017203688621521 0.7218829989433289
vt 0.5017203092575073 0.5999098718166351
vt 0.39743417501449585 0.6005634665489197
vt 0.8145787119865417 0.5514426827430725
vt 0.29314807057380676 0.6012171506881714
vt 0.18886198103427887 0.5786174833774567
vt 0.08457585424184799 0.6025242805480957
vt 0.3974342346191406 0.6900826096534729
vt 0.6581494808197021 0.6138495206832886
vt 0.7624356746673584 0.5517694652080536
vt 0.7102925777435303 0.3706701397895813
vt 0.9188648462295532 0.4112699031829834
vt 0.8145787119865417 0.6277890205383301
vt 0.6060064435005188 0.5992564558982849
vt 0.2410050332546234 0.6164637804031372
vt 0.3452911674976349 0.6618768572807312
vt 0.08457585424184799 0.509511262178421
vt 0.08457585424184799 0.6025242805480957
vt 0.29314810037612915 0.6622036397457123
vt 0.3974342346191406 0.6615500450134277
vt 0.6060065031051636 0.7815623581409454
vt 0.8145787119865417 0.7809087634086609
vt 0.8145787119865417 0.7199221849441528
vt 0.7102925777435303 0.7205758094787598
vt 0.18886198103427887 0.6622036397457123
vt 0.18886198103427887 0.7218829989433289
vt 0.29314810037612915 0.7218829989433289
vt 0.7624356746673584 0.6592624187469482
vt 0.9188648462295532 0.4112699031829834
vt 0.9188648462295532 0.5972957611083984
vt 0.8145787119865417 0.4351767301559448
vt 0.3452911674976349 0.7815623581409454
vt 0.29314810037612915 0.841241717338562
vt 0.5538634061813354 0.025714993476867676
vt 0.7102925777435303 0.5986028909683228
vt 0.5017203688621521 0.001999974250793457
vt 0.7102925777435303 0.001999974250793457
vt 0.9188648462295532 0.001999974250793457
vt 0.29314810037612915 0.03222745656967163
vt 0.6060064435005188 0.37132370471954346
vt 0.08457585424184799 0.2492121458053589
vt 0.18886198103427887 0.39493393898010254
vt 0.6060064435005188 0.35037028789520264
vt 0.29314807057380676 0.2894706130027771
vt 0.18886196613311768 0.24821728467941284
vt 0.08457585424184799 0.248870849609375
vt 0.39743417501449585 0.30977046489715576
vt 0.7102925777435303 0.3287632465362549
vt 0.7102925777435303 0.2449493408203125
vt 0.39743420481681824 0.33072400093078613
vt 0.18886196613311768 0.26917076110839844
vt 0.29314810037612915 0.3313775658607483
vt 0.5538634061813354 0.40310192108154297
vt 0.5017203092575073 0.4138840436935425
vt 0.39743417501449585 0.30998367071151733
vt 0.29314810037612915 0.24790501594543457
vt 0.29314807057380676 0.28972649574279785
vt 0.39743420481681824 0.3518052101135254
vt 0.6060065031051636 0.3923197388648987
vt 0.29314810037612915 0.5547106862068176
vt 0.18886198103427887 0.23346704244613647
vt 0.7102925777435303 0.15474140644073486
vt 0.7102925777435303 0.21510756015777588
vt 0.5017203688621521 0.5068970918655396
vt 0.3974342346191406 0.5308038890361786
vt 0.3974342346191406 0.4377908706665039
vt 0.29314810037612915 0.46169769763946533
vt 0.7102925777435303 0.09268242120742798
vt 0.7102925777435303 0.12455838918685913
vt 0.8145787119865417 0.52818962931633
vt 0.8145787119865417 0.5746960937976837
vt 0.7102925777435303 0.4590834975242615
vt 0.29314810037612915 0.001999974250793457
vt 0.5017203688621521 0.46039068698883057
vt 0.3974342346191406 0.4145379066467285
vt 0.29314810037612915 0.4151914715766907
vt 0.8145787119865417 0.7497619986534119
vt 0.6060065031051636 0.5062434673309326
vt 0.7102925777435303 0.552096426486969
vt 0.18886198103427887 0.6913897395133972
vt 0.18886198103427887 0.8107484728097916
vt 0.6060065031051636 0.24594426155090332
vt 0.5017203092575073 0.5534034669399261
vt 0.6060064435005188 0.5992562770843506
vt 0.3974342346191406 0.24725139141082764
vt 0.6060064435005188 0.24560296535491943
vt 0.29314810037612915 0.37336957454681396
vt 0.18886196613311768 0.26946932077407837
vt 0.18886198103427887 0.33203113079071045
vt 0.7624356746673584 0.40179479122161865
vt 0.6060065031051636 0.26685500144958496
vt 0.08457585424184799 0.841241717338562
vt 0.3974342346191406 0.3936268091201782
vt 0.44957730174064636 0.15603423118591309
vt 0.7102925777435303 0.21476632356643677
vt 0.3974342346191406 0.18654406070709229
vt 0.18886196613311768 0.17310094833374023
vt 0.6060065031051636 0.5294967591762543
vt 0.6060065031051636 0.4829902648925781
vt 0.6060065031051636 0.43648380041122437
vt 0.3452911376953125 0.5892637372016907
vt 0.39743420481681824 0.5773103535175323
vt 0.3974342346191406 0.48429739475250244
vt 0.9188648462295532 0.001999974250793457
vt 0.3452911674976349 0.5427572727203369
vt 0.5538634061813354 0.5065702497959137
vt 0.3974342346191406 0.4610442519187927
vt 0.39743420481681824 0.5540570616722107
vt 0.6060065031051636 0.45973706245422363
vt 0.3452911376953125 0.6008902788162231
vt 0.7624356746673584 0.7650086134672165
vt 0.7624356746673584 0.6430356502532959
vt 0.6060065031051636 0.6887754797935486
vt 0.6060065031051636 0.7497619986534119
vt 0.6581495404243469 0.6735288500785828
vt 0.18886196613311768 0.631710410118103
vt 0.5017203688621521 0.6595893800258636
vt 0.6060064435005188 0.6602428555488586
vt 0.6060065031051636 0.7212294042110443
vt 0.6581494808197021 0.6599160432815552
vt 0.3974342346191406 0.7815623581409454
vt 0.3974342346191406 0.7218829989433289
vt 0.18886198103427887 0.29012417793273926
vt 0.3974342346191406 0.3726309537887573
vt 0.29314810037612915 0.4151911735534668
vt 0.44957730174064636 0.3828446865081787
vt 0.5017203688621521 0.37206244468688965
vt 0.6060065031051636 0.5527499914169312
vt 0.6581495404243469 0.4710369110107422
vt 0.5017203688621521 0.460390567779541
vt 0.7102925777435303 0.41257697343826294
vt 0.18886196613311768 0.3112908601760864
vt 0.18886196613311768 0.841241717338562
g LabE0
s 1
f 1/1/1 2/2/2 3/3/3
f 4/4/4 5/5/5 6/6/6
f 7/7/7 1/1/1 8/8/8
f 9/9/9 7/7/7 8/8/8
f 10/10/10 11/11/11 9/9/9
f 12/12/12 13/13/13 14/14/14
f 15/15/15 16/16/16 17/17/17
f 9/9/9 18/18/18 7/7/7
f 7/7/7 18/18/18 1/1/1
f 14/14/14 15/15/15 12/12/12
f 13/13/13 19/19/19 14/14/14
f 20/20/20 4/4/4 6/6/6
f 21/21/21 16/16/16 15/15/15
f 13/13/13 22/22/22 19/19/19
f 6/6/6 5/5/5 13/13/13
f 3/3/3 15/15/15 23/23/23
f 20/20/20 6/6/6 12/12/12
f 6/6/6 13/13/13 12/12/12
f 1/1/1 3/3/3 23/23/23
f 24/24/24 25/25/25 22/22/22
f 15/15/15 17/17/17 26/26/26
f 5/5/5 24/24/24 22/22/22
f 9/9/9 8/8/8 10/10/10
f 12/12/12 15/15/15 26/26/26
f 18/18/18 2/2/2 1/1/1
f 3/3/3 2/2/2 15/15/15
f 23/23/23 15/15/15 14/14/14
f 10/10/10 23/23/23 14/14/14
f 19/19/19 27/27/27 11/11/11
f 19/19/19 22/22/22 27/27/27
f 22/22/22 25/25/25 27/27/27
f 27/27/27 25/25/25 11/11/11
f 19/19/19 28/28/28 14/14/14
f 19/19/19 11/11/11 28/28/28
f 28/28/28 11/11/11 10/10/10
f 14/14/14 28/28/28 10/10/10
f 2/2/2 21/21/21 15/15/15
f 8/8/8 1/1/1 23/23/23
f 5/5/5 22/22/22 13/13/13
f 8/8/8 23/23/23 10/10/10
f 12/12/12 26/26/26 20/20/20
f 26/26/26 17/17/17 20/20/20
g LabE1
s 1
f 29/29/29 30/30/30 31/31/31
f 32/32/32 33/33/33 34/34/34
f 35/35/35 36/36/36 37/37/37
f 38/38/38 39/39/39 40/40/40
f 38/38/38 41/41/41 39/39/39
f 34/34/34 39/39/39 41/41/41
f 42/42/42 43/43/43 44/44/44
f 45/45/45 46/46/46 47/47/47
f 48/48/48 45/45/45 47/47/47
f 48/48/48 49/49/49 45/45/45
f 45/45/45 49/49/49 46/46/46
f 42/42/42 44/44/44 50/50/50
f 51/51/51 47/47/47 52/52/52
f 44/44/44 53/53/53 50/50/50
f 54/54/54 55/55/55 56/56/56
f 57/57/57 58/58/58 59/59/59
f 56/56/56 58/58/58 57/57/57
f 52/52/52 60/60/60 61/61/61
f 61/61/61 60/60/60 62/62/62
f 63/63/63 55/55/55 54/54/54
f 57/57/57 59/59/59 64/64/64
f 54/54/54 65/65/65 63/63/63
f 66/66/66 67/67/67 68/68/68
f 69/69/69 70/70/70 29/29/29
f 66/66/66 71/71/71 67/67/67
f 31/31/31 72/72/72 29/29/29
f 73/73/73 71/71/71 66/66/66
f 74/74/74 75/75/75 76/76/76
f 56/56/56 65/65/65 54/54/54
f 69/69/69 77/77/77 78/78/78
f 79/79/79 76/76/76 80/80/80
f 76/76/76 75/75/75 80/80/80
f 81/81/81 82/82/82 83/83/83
f 84/84/84 57/57/57 64/64/64
f 85/85/85 81/81/81 86/86/86
f 81/81/81 83/83/83 86/86/86
f 68/68/68 67/67/67 87/87/87
f 82/82/82 88/88/88 89/89/89
f 90/90/90 91/91/91 87/87/87
f 82/82/82 89/89/89 83/83/83
f 92/92/92 93/93/93 94/94/94
f 95/95/95 46/46/46 92/92/92
f 96/96/96 83/83/83 89/89/89
f 97/97/97 98/98/98 95/95/95
f 95/95/95 98/98/98 46/46/46
f 99/99/99 93/93/93 92/92/92
f 96/96/96 89/89/89 88/88/88
f 100/100/100 101/101/101 99/99/99
f 99/99/99 101/101/101 93/93/93
f 102/102/102 103/103/103 104/104/104
f 105/105/105 102/102/102 104/104/104
f 38/38/38 102/102/102 105/105/105
f 38/38/38 103/103/103 102/102/102
f 106/106/106 75/75/75 74/74/74
f 85/85/85 75/75/75 106/106/106
f 56/56/56 57/57/57 84/84/84
f 74/74/74 107/107/107 106/106/106
f 108/108/108 107/107/107 74/74/74
f 105/105/105 109/109/109 41/41/41
f 110/110/110 109/109/109 105/105/105
f 110/110/110 111/111/111 109/109/109
f 79/79/79 107/107/107 108/108/108
f 108/108/108 76/76/76 79/79/79
f 74/74/74 76/76/76 108/108/108
f 112/112/112 113/113/113 114/114/114
f 113/113/113 115/115/115 114/114/114
f 56/56/56 84/84/84 65/65/65
f 84/84/84 64/64/64 65/65/65
f 116/116/116 117/117/117 118/118/118
f 119/119/119 66/66/66 68/68/68
f 116/116/116 75/75/75 86/86/86
f 85/85/85 86/86/86 75/75/75
f 115/115/115 120/120/120 114/114/114
f 73/73/73 66/66/66 119/119/119
f 121/121/121 120/120/120 122/122/122
f 85/85/85 123/123/123 115/115/115
f 123/123/123 107/107/107 115/115/115
f 106/106/106 107/107/107 123/123/123
f 106/106/106 123/123/123 85/85/85
f 112/112/112 114/114/114 124/124/124
f 73/73/73 119/119/119 125/125/125
f 126/126/126 71/71/71 127/127/127
f 126/126/126 67/67/67 71/71/71
f 128/128/128 124/124/124 129/129/129
f 73/73/73 127/127/127 71/71/71
f 124/124/124 114/114/114 129/129/129
f 119/119/119 68/68/68 125/125/125
f 107/107/107 130/130/130 115/115/115
f 115/115/115 130/130/130 120/120/120
f 130/130/130 122/122/122 120/120/120
f 131/131/131 59/59/59 58/58/58
f 122/122/122 132/132/132 121/121/121
f 56/56/56 133/133/133 58/58/58
f 116/116/116 131/131/131 134/134/134
f 131/131/131 58/58/58 134/134/134
f 116/116/116 118/118/118 135/135/135
f 116/116/116 135/135/135 131/131/131
f 135/135/135 59/59/59 131/131/131
f 116/116/116 136/136/136 96/96/96
f 136/136/136 83/83/83 96/96/96
f 136/136/136 86/86/86 83/83/83
f 116/116/116 86/86/86 136/136/136
f 137/137/137 138/138/138 139/139/139
f 88/88/88 138/138/138 137/137/137
f 88/88/88 137/137/137 96/96/96
f 137/137/137 139/139/139 96/96/96
f 140/140/140 141/141/141 142/142/142
f 133/133/133 141/141/141 140/140/140
f 133/133/133 140/140/140 134/134/134
f 140/140/140 142/142/142 134/134/134
f 138/138/138 143/143/143 139/139/139
f 143/143/143 43/43/43 139/139/139
f 143/143/143 53/53/53 43/43/43
f 138/138/138 53/53/53 143/143/143
f 144/144/144 145/145/145 146/146/146
f 147/147/147 148/148/148 80/80/80
f 142/142/142 148/148/148 147/147/147
f 147/147/147 80/80/80 75/75/75
f 105/105/105 104/104/104 149/149/149
f 128/128/128 150/150/150 145/145/145
f 105/105/105 149/149/149 110/110/110
f 110/110/110 149/149/149 151/151/151
f 149/149/149 104/104/104 151/151/151
f 110/110/110 151/151/151 152/152/152
f 110/110/110 152/152/152 153/153/153
f 69/69/69 144/144/144 70/70/70
f 154/154/154 94/94/94 97/97/97
f 92/92/92 94/94/94 154/154/154
f 154/154/154 95/95/95 92/92/92
f 97/97/97 95/95/95 154/154/154
f 155/155/155 87/87/87 67/67/67
f 36/36/36 156/156/156 157/157/157
f 90/90/90 87/87/87 155/155/155
f 90/90/90 155/155/155 158/158/158
f 155/155/155 67/67/67 158/158/158
f 159/159/159 60/60/60 160/160/160
f 52/52/52 161/161/161 160/160/160
f 52/52/52 160/160/160 60/60/60
f 162/162/162 60/60/60 159/159/159
f 90/90/90 60/60/60 162/162/162
f 163/163/163 62/62/62 126/126/126
f 127/127/127 163/163/163 126/126/126
f 127/127/127 164/164/164 163/163/163
f 162/162/162 165/165/165 90/90/90
f 159/159/159 165/165/165 162/162/162
f 166/166/166 167/167/167 159/159/159
f 166/166/166 160/160/160 161/161/161
f 159/159/159 160/160/160 166/166/166
f 157/157/157 168/168/168 169/169/169
f 31/31/31 170/170/170 171/171/171
f 170/170/170 172/172/172 171/171/171
f 161/161/161 56/56/56 55/55/55
f 173/173/173 172/172/172 170/170/170
f 173/173/173 170/170/170 31/31/31
f 31/31/31 30/30/30 174/174/174
f 30/30/30 70/70/70 174/174/174
f 88/88/88 73/73/73 138/138/138
f 29/29/29 70/70/70 30/30/30
f 141/141/141 148/148/148 142/142/142
f 34/34/34 33/33/33 39/39/39
f 33/33/33 40/40/40 39/39/39
f 175/175/175 35/35/35 37/37/37
f 156/156/156 40/40/40 176/176/176
f 176/176/176 171/171/171 156/156/156
f 32/32/32 171/171/171 176/176/176
f 177/177/177 78/78/78 178/178/178
f 177/177/177 178/178/178 34/34/34
f 34/34/34 178/178/178 77/77/77
f 178/178/178 78/78/78 77/77/77
f 121/121/121 35/35/35 175/175/175
f 179/179/179 114/114/114 180/180/180
f 132/132/132 36/36/36 121/121/121
f 121/121/121 36/36/36 35/35/35
f 37/37/37 36/36/36 181/181/181
f 79/79/79 80/80/80 148/148/148
f 182/182/182 37/37/37 181/181/181
f 175/175/175 37/37/37 182/182/182
f 183/183/183 49/49/49 100/100/100
f 92/92/92 49/49/49 183/183/183
f 183/183/183 99/99/99 92/92/92
f 100/100/100 99/99/99 183/183/183
f 177/177/177 41/41/41 184/184/184
f 177/177/177 184/184/184 111/111/111
f 109/109/109 111/111/111 184/184/184
f 109/109/109 184/184/184 41/41/41
f 44/44/44 43/43/43 53/53/53
f 185/185/185 145/145/145 186/186/186
f 187/187/187 185/185/185 186/186/186
f 146/146/146 185/185/185 187/187/187
f 104/104/104 103/103/103 188/188/188
f 104/104/104 188/188/188 151/151/151
f 146/146/146 145/145/145 185/185/185
f 189/189/189 190/190/190 191/191/191
f 128/128/128 88/88/88 192/192/192
f 193/193/193 189/189/189 191/191/191
f 193/193/193 91/91/91 189/189/189
f 189/189/189 91/91/91 190/190/190
f 186/186/186 145/145/145 150/150/150
f 194/194/194 186/186/186 150/150/150
f 79/79/79 195/195/195 107/107/107
f 187/187/187 186/186/186 194/194/194
f 196/196/196 122/122/122 195/195/195
f 69/69/69 197/197/197 77/77/77
f 198/198/198 117/117/117 199/199/199
f 31/31/31 171/171/171 200/200/200
f 61/61/61 201/201/201 164/164/164
f 61/61/61 62/62/62 201/201/201
f 163/163/163 201/201/201 62/62/62
f 163/163/163 164/164/164 201/201/201
f 31/31/31 200/200/200 72/72/72
f 158/158/158 67/67/67 126/126/126
f 126/126/126 62/62/62 158/158/158
f 158/158/158 62/62/62 90/90/90
f 32/32/32 72/72/72 200/200/200
f 159/159/159 167/167/167 165/165/165
f 32/32/32 200/200/200 171/171/171
f 165/165/165 91/91/91 90/90/90
f 42/42/42 117/117/117 198/198/198
f 202/202/202 203/203/203 172/172/172
f 172/172/172 203/203/203 171/171/171
f 167/167/167 191/191/191 190/190/190
f 204/204/204 191/191/191 167/167/167
f 203/203/203 156/156/156 171/171/171
f 161/161/161 55/55/55 204/204/204
f 204/204/204 55/55/55 191/191/191
f 42/42/42 198/198/198 43/43/43
f 70/70/70 144/144/144 205/205/205
f 70/70/70 205/205/205 174/174/174
f 174/174/174 205/205/205 168/168/168
f 205/205/205 144/144/144 168/168/168
f 196/196/196 195/195/195 79/79/79
f 34/34/34 77/77/77 197/197/197
f 34/34/34 197/197/197 72/72/72
f 29/29/29 72/72/72 206/206/206
f 79/79/79 148/148/148 196/196/196
f 29/29/29 206/206/206 69/69/69
f 207/207/207 122/122/122 196/196/196
f 69/69/69 206/206/206 197/197/197
f 206/206/206 72/72/72 197/197/197
f 202/202/202 208/208/208 157/157/157
f 208/208/208 168/168/168 157/157/157
f 174/174/174 168/168/168 208/208/208
f 209/209/209 46/46/46 98/98/98
f 47/47/47 46/46/46 209/209/209
f 47/47/47 209/209/209 52/52/52
f 209/209/209 98/98/98 52/52/52
f 210/210/210 164/164/164 48/48/48
f 145/145/145 88/88/88 128/128/128
f 51/51/51 164/164/164 210/210/210
f 210/210/210 47/47/47 51/51/51
f 48/48/48 47/47/47 210/210/210
f 52/52/52 211/211/211 51/51/51
f 211/211/211 164/164/164 51/51/51
f 211/211/211 61/61/61 164/164/164
f 52/52/52 61/61/61 211/211/211
f 176/176/176 40/40/40 212/212/212
f 176/176/176 212/212/212 32/32/32
f 32/32/32 212/212/212 33/33/33
f 34/34/34 41/41/41 177/177/177
f 212/212/212 40/40/40 33/33/33
f 111/111/111 78/78/78 177/177/177
f 34/34/34 72/72/72 32/32/32
f 213/213/213 194/194/194 150/150/150
f 214/214/214 194/194/194 213/213/213
f 214/214/214 213/213/213 179/179/179
f 187/187/187 181/181/181 215/215/215
f 92/92/92 46/46/46 49/49/49
f 187/187/187 215/215/215 146/146/146
f 48/48/48 100/100/100 49/49/49
f 215/215/215 36/36/36 146/146/146
f 90/90/90 62/62/62 60/60/60
f 181/181/181 36/36/36 215/215/215
f 175/175/175 216/216/216 121/121/121
f 121/121/121 216/216/216 120/120/120
f 216/216/216 114/114/114 120/120/120
f 180/180/180 114/114/114 217/217/217
f 175/175/175 217/217/217 216/216/216
f 217/217/217 114/114/114 216/216/216
f 179/179/179 218/218/218 181/181/181
f 218/218/218 182/182/182 181/181/181
f 180/180/180 182/182/182 218/218/218
f 100/100/100 219/219/219 101/101/101
f 180/180/180 218/218/218 179/179/179
f 220/220/220 182/182/182 180/180/180
f 175/175/175 182/182/182 220/220/220
f 97/97/97 52/52/52 98/98/98
f 105/105/105 41/41/41 38/38/38
f 220/220/220 217/217/217 175/175/175
f 40/40/40 103/103/103 38/38/38
f 180/180/180 217/217/217 220/220/220
f 153/153/153 111/111/111 110/110/110
f 73/73/73 221/221/221 63/63/63
f 221/221/221 55/55/55 63/63/63
f 222/222/222 191/191/191 55/55/55
f 193/193/193 191/191/191 222/222/222
f 221/221/221 193/193/193 222/222/222
f 221/221/221 222/222/222 55/55/55
f 65/65/65 64/64/64 42/42/42
f 65/65/65 42/42/42 63/63/63
f 64/64/64 223/223/223 42/42/42
f 223/223/223 117/117/117 42/42/42
f 223/223/223 118/118/118 117/117/117
f 64/64/64 118/118/118 223/223/223
f 125/125/125 68/68/68 193/193/193
f 73/73/73 125/125/125 221/221/221
f 125/125/125 193/193/193 221/221/221
f 68/68/68 224/224/224 193/193/193
f 224/224/224 91/91/91 193/193/193
f 224/224/224 87/87/87 91/91/91
f 68/68/68 87/87/87 224/224/224
f 64/64/64 59/59/59 225/225/225
f 64/64/64 225/225/225 118/118/118
f 135/135/135 118/118/118 225/225/225
f 135/135/135 225/225/225 59/59/59
f 112/112/112 192/192/192 226/226/226
f 78/78/78 144/144/144 69/69/69
f 112/112/112 226/226/226 82/82/82
f 226/226/226 88/88/88 82/82/82
f 192/192/192 88/88/88 226/226/226
f 227/227/227 192/192/192 112/112/112
f 128/128/128 192/192/192 227/227/227
f 227/227/227 124/124/124 128/128/128
f 112/112/112 124/124/124 227/227/227
f 228/228/228 82/82/82 229/229/229
f 228/228/228 229/229/229 85/85/85
f 85/85/85 229/229/229 81/81/81
f 229/229/229 82/82/82 81/81/81
f 230/230/230 82/82/82 228/228/228
f 127/127/127 48/48/48 164/164/164
f 112/112/112 82/82/82 230/230/230
f 230/230/230 113/113/113 112/112/112
f 228/228/228 113/113/113 230/230/230
f 195/195/195 122/122/122 231/231/231
f 195/195/195 231/231/231 107/107/107
f 107/107/107 231/231/231 130/130/130
f 231/231/231 122/122/122 130/130/130
f 85/85/85 115/115/115 232/232/232
f 85/85/85 232/232/232 228/228/228
f 228/228/228 232/232/232 113/113/113
f 232/232/232 115/115/115 113/113/113
f 139/139/139 233/233/233 234/234/234
f 233/233/233 117/117/117 234/234/234
f 233/233/233 199/199/199 117/117/117
f 235/235/235 43/43/43 199/199/199
f 139/139/139 43/43/43 235/235/235
f 139/139/139 235/235/235 233/233/233
f 235/235/235 199/199/199 233/233/233
f 142/142/142 236/236/236 237/237/237
f 236/236/236 75/75/75 237/237/237
f 236/236/236 147/147/147 75/75/75
f 142/142/142 147/147/147 236/236/236
f 238/238/238 204/204/204 167/167/167
f 161/161/161 204/204/204 238/238/238
f 161/161/161 238/238/238 166/166/166
f 238/238/238 167/167/167 166/166/166
f 239/239/239 190/190/190 91/91/91
f 167/167/167 190/190/190 239/239/239
f 167/167/167 239/239/239 165/165/165
f 239/239/239 91/91/91 165/165/165
f 157/157/157 169/169/169 240/240/240
f 157/157/157 240/240/240 36/36/36
f 146/146/146 36/36/36 240/240/240
f 146/146/146 240/240/240 169/169/169
f 173/173/173 241/241/241 202/202/202
f 202/202/202 241/241/241 208/208/208
f 241/241/241 174/174/174 208/208/208
f 31/31/31 174/174/174 242/242/242
f 31/31/31 242/242/242 173/173/173
f 173/173/173 242/242/242 241/241/241
f 242/242/242 174/174/174 241/241/241
f 179/179/179 243/243/243 129/129/129
f 243/243/243 150/150/150 129/129/129
f 243/243/243 213/213/213 150/150/150
f 179/179/179 213/213/213 243/243/243
f 244/244/244 194/194/194 214/214/214
f 187/187/187 194/194/194 244/244/244
f 244/244/244 181/181/181 187/187/187
f 179/179/179 181/181/181 245/245/245
f 179/179/179 245/245/245 214/214/214
f 214/214/214 245/245/245 244/244/244
f 245/245/245 181/181/181 244/244/244
f 146/146/146 169/169/169 246/246/246
f 146/146/146 246/246/246 144/144/144
f 168/168/168 144/144/144 246/246/246
f 168/168/168 246/246/246 169/169/169
f 234/234/234 117/117/117 116/116/116
f 63/63/63 50/50/50 73/73/73
f 96/96/96 139/139/139 234/234/234
f 96/96/96 234/234/234 116/116/116
f 128/128/128 129/129/129 150/150/150
f 63/63/63 42/42/42 50/50/50
f 179/179/179 129/129/129 114/114/114
f 247/247/247 156/156/156 203/203/203
f 202/202/202 247/247/247 203/203/203
f 134/134/134 58/58/58 133/133/133
f 157/157/157 247/247/247 202/202/202
f 237/237/237 75/75/75 116/116/116
f 157/157/157 156/156/156 247/247/247
f 134/134/134 142/142/142 237/237/237
f 134/134/134 237/237/237 116/116/116
f 141/141/141 207/207/207 248/248/248
f 141/141/141 248/248/248 148/148/148
f 196/196/196 148/148/148 248/248/248
f 196/196/196 248/248/248 207/207/207
f 138/138/138 73/73/73 53/53/53
f 50/50/50 53/53/53 73/73/73
f 198/198/198 199/199/199 43/43/43
f 202/202/202 172/172/172 173/173/173
f 133/133/133 207/207/207 141/141/141
