# Exported using wow.export v0.2.19
o 20736_Canal12a.obj
v -220.77511596679688 -120.09886169433594 47.683135986328125
v -221.0550994873047 -120.67984008789062 46.90244674682617
v -220.627197265625 -120.67984008789062 48.49921417236328
v -221.31924438476562 -117.53812408447266 46.97322463989258
v -221.3350830078125 -118.52799987792969 46.12175369262695
v -221.0550994873047 -118.85795593261719 46.902442932128906
v -221.61508178710938 -118.19804382324219 45.341064453125
v -221.35092163085938 -119.51787567138672 45.270286560058594
v -220.9230194091797 -119.51787567138672 46.86705780029297
v -221.91091918945312 -118.85795593261719 43.70890808105469
v -221.89508056640625 -117.86808776855469 44.56037521362305
v -222.17506408691406 -117.53812408447266 43.779685974121094
v -221.8792266845703 -116.87820434570312 45.41184616088867
v -222.30712890625 -116.87820434570312 43.81507873535156
v -222.27359008789062 -116.5923843383789 44.66180419921875
v -222.73504638671875 -116.87820434570312 42.21830749511719
v -228.28125 -116.87820434570312 48.83869171142578
v -228.70916748046875 -116.87820434570312 47.241920471191406
v -228.31480407714844 -116.5923843383789 47.991966247558594
v -227.8533477783203 -116.87820434570312 50.43545913696289
v -228.413330078125 -117.53812408447266 48.87407684326172
v -229.66537475585938 -119.51787567138672 45.786705017089844
v -229.2374725341797 -119.51787567138672 47.38347625732422
v -229.53335571289062 -120.67984008789062 45.75132751464844
v -229.53330993652344 -118.85795593261719 45.751319885253906
v -222.8946533203125 -114.59163665771484 47.39535903930664
v -223.32257080078125 -114.59163665771484 45.79859161376953
v -222.92819213867188 -114.87745666503906 46.54863357543945
v -222.4667510986328 -114.59163665771484 48.99212646484375
v -223.3875732421875 -114.15115356445312 47.52743148803711
v -227.69375610351562 -114.59163665771484 45.25841522216797
v -227.26583862304688 -114.59163665771484 46.855186462402344
v -228.05459594726562 -115.16328430175781 45.3551025390625
v -228.1216583251953 -114.59163665771484 43.66164779663086
v -227.20083618164062 -114.15115356445312 45.1263427734375
v -221.02340698242188 -116.87820434570312 48.605384826660156
v -221.45132446289062 -116.87820434570312 47.00861358642578
v -228.8095703125 -119.51787567138672 48.98024368286133
v -228.67752075195312 -120.67984008789062 48.944862365722656
v -221.81214904785156 -116.30656433105469 47.10530090332031
v -222.66796875 -116.30656433105469 43.911766052246094
v -228.38165283203125 -119.51787567138672 50.57701110839844
v -228.677490234375 -118.85795593261719 48.944854736328125
v -229.1370849609375 -116.87820434570312 45.6451530456543
v -229.2691650390625 -117.53812408447266 45.6805419921875
v -229.56500244140625 -116.87820434570312 44.04838562011719
v -228.77626037597656 -116.30656433105469 45.54846954345703
v -223.75048828125 -114.59163665771484 44.20182418823242
v -224.24337768554688 -114.15115356445312 44.33389663696289
v -224.1783905029297 -114.59163665771484 42.60505676269531
v -223.3896484375 -115.16328430175781 44.105140686035156
v -223.06234741210938 -116.02074432373047 43.16172409057617
v -223.45672607421875 -115.73492431640625 42.41168212890625
v -223.78402709960938 -114.87745666503906 43.355098724365234
v -221.74508666992188 -115.73492431640625 48.79875564575195
v -221.41778564453125 -116.5923843383789 47.855342864990234
v -228.97332763671875 -118.19804382324219 47.31269836425781
v -222.1394500732422 -115.4490966796875 48.04871368408203
v -222.5338134765625 -115.16328430175781 47.298675537109375
v -224.43836975097656 -112.82970428466797 49.520423889160156
v -224.83377075195312 -113.04994201660156 47.059234619140625
v -224.37338256835938 -113.27018737792969 47.79158020019531
v -224.30838012695312 -113.71066284179688 46.06273651123047
v -225.294189453125 -112.82969665527344 46.32688522338867
v -225.22918701171875 -113.27017211914062 44.59804153442383
v -228.44895935058594 -115.4490966796875 44.60505676269531
v -226.15000915527344 -112.8296890258789 43.13334655761719
v -225.75460815429688 -113.04994201660156 45.59453582763672
v -226.2150115966797 -113.27017974853516 44.86219024658203
v -226.28001403808594 -113.7106704711914 46.591033935546875
v -225.35919189453125 -113.27018737792969 48.055728912353516
v -228.84332275390625 -115.73492431640625 43.855018615722656
v -222.24005126953125 -116.30656433105469 45.5085334777832
v -222.60089111328125 -115.73492431640625 45.605220794677734
v -227.13583374023438 -113.71066284179688 43.397499084472656
v -227.92044067382812 -116.30656433105469 48.74200439453125
v -227.98751831054688 -115.73492431640625 47.048553466796875
v -227.1987762451172 -115.16328430175781 48.54863739013672
v -226.6754150390625 -113.49041748046875 44.129844665527344
v -221.5992431640625 -117.20816040039062 46.192535400390625
v -222.47088623046875 -118.19804382324219 42.14752960205078
v -222.45504760742188 -117.20816040039062 42.99899673461914
v -221.03924560546875 -117.86808013916016 47.75391387939453
v -220.75926208496094 -118.19804382324219 48.53460693359375
v -228.97340393066406 -121.841796875 47.312713623046875
v -229.54916381835938 -117.86808013916016 44.89985275268555
v -229.8291473388672 -118.19804382324219 44.119163513183594
v -221.63092041015625 -119.18791198730469 44.48959732055664
v -221.61508178710938 -121.841796875 45.341068267822266
v -221.77883911132812 -119.51787567138672 43.67351531982422
v -222.19090270996094 -118.52799987792969 42.92821502685547
v -222.2067413330078 -119.51787567138672 42.07674789428711
v -229.81329345703125 -119.18791198730469 44.97062683105469
v -230.09329223632812 -119.51787567138672 44.189937591552734
v -220.77511596679688 -119.18791198730469 47.683135986328125
v -220.4951171875 -119.51787567138672 48.46382522583008
v -228.70925903320312 -124.16571807861328 47.24193572998047
v -229.269287109375 -123.00375366210938 45.680564880371094
v -229.81332397460938 -120.09886169433594 44.97063446044922
v -229.9612579345703 -120.67984008789062 44.15455627441406
v -228.4133758544922 -123.00375366210938 48.87408447265625
v -221.1871795654297 -121.841796875 46.937835693359375
v -222.6029815673828 -123.00375366210938 42.18292236328125
v -222.322998046875 -122.42277526855469 42.96360778808594
v -222.4709014892578 -121.841796875 42.14752960205078
v -222.04299926757812 -121.841796875 43.744300842285156
v -222.17507934570312 -123.00375366210938 43.77968978881836
v -222.19091796875 -121.26081848144531 42.928218841552734
v -221.91091918945312 -120.67984008789062 43.70890808105469
v -228.54544067382812 -121.841796875 48.90947341918945
v -222.3388214111328 -120.67984008789062 42.11213684082031
v -222.30715942382812 -124.16571807861328 43.81507873535156
v -221.87924194335938 -124.16571807861328 45.41184997558594
v -221.0392608642578 -122.42277526855469 47.7539176940918
v -221.31924438476562 -123.00375366210938 46.973228454589844
v -229.40130615234375 -121.841796875 45.715946197509766
v -220.75927734375 -121.841796875 48.53460693359375
v -220.891357421875 -123.00375366210938 48.56999969482422
v -220.90719604492188 -121.26081848144531 47.718528747558594
v -221.74716186523438 -123.00375366210938 45.37645721435547
v -229.13720703125 -124.16571807861328 45.645179748535156
v -228.28131103515625 -124.16571807861328 48.83869552612305
v -221.4671630859375 -122.42277526855469 46.15715026855469
v -221.89508056640625 -122.42277526855469 44.56037902832031
v -229.68128967285156 -121.26081848144531 44.93525314331055
v -229.8292236328125 -121.841796875 44.119178771972656
v -229.54925537109375 -122.42277526855469 44.899871826171875
v -229.6971893310547 -123.00375366210938 44.08380126953125
v -228.3975067138672 -121.26081848144531 49.725547790527344
v -228.24957275390625 -120.67984008789062 50.541622161865234
v -228.11749267578125 -121.841796875 50.50623321533203
v -228.26544189453125 -122.42277526855469 49.69015884399414
v -227.98541259765625 -123.00375366210938 50.47084426879883
v -222.058837890625 -120.09886169433594 42.89282989501953
v -221.17132568359375 -123.58473205566406 47.789306640625
v -221.02342224121094 -124.16571807861328 48.60538864135742
v -221.45132446289062 -124.16571807861328 47.00862121582031
v -222.455078125 -123.58473205566406 42.999000549316406
v -222.7350616455078 -124.16571807861328 42.21831130981445
v -229.41722106933594 -123.58473205566406 44.86449432373047
v -229.56515502929688 -124.16571807861328 44.04841995239258
v -228.5295867919922 -120.09886169433594 49.76093673706055
v -221.63092041015625 -120.09886169433594 44.48959732055664
v -221.5992431640625 -123.58473205566406 46.19253921508789
v -226.4100341796875 -114.59163665771484 50.04872512817383
v -228.13336181640625 -123.58473205566406 49.65476989746094
v -227.8533477783203 -124.16571807861328 50.435455322265625
v -223.1588134765625 -124.16571807861328 47.46613311767578
v -223.58673095703125 -124.16571807861328 45.86936569213867
v -224.22650146484375 -124.16571807861328 46.896507263183594
v -227.4296875 -124.16571807861328 45.187652587890625
v -227.00173950195312 -124.16571807861328 46.78440856933594
v -226.3619384765625 -124.16571807861328 45.757266998291016
v -225.29420471191406 -124.16571807861328 46.326881408691406
v -225.93399047851562 -124.16571807861328 47.354026794433594
v -224.86630249023438 -124.16571807861328 47.92365264892578
v -226.5737762451172 -124.16571807861328 48.381168365478516
v -225.08236694335938 -124.16571807861328 43.702980041503906
v -225.72216796875 -124.16571807861328 44.730125427246094
v -224.01463317871094 -124.16571807861328 44.27259826660156
v -226.15011596679688 -124.16571807861328 43.133365631103516
v -224.44259643554688 -124.16571807861328 42.675838470458984
v -224.6544189453125 -124.16571807861328 45.299739837646484
v -228.28131103515625 -124.16571807861328 48.83869552612305
v -227.8533477783203 -124.16571807861328 50.435455322265625
v -227.21356201171875 -124.16571807861328 49.40830993652344
v -226.1458740234375 -124.16571807861328 49.97793960571289
v -223.37484741210938 -124.16571807861328 43.245452880859375
v -222.7350616455078 -124.16571807861328 42.21831130981445
v -222.30715942382812 -124.16571807861328 43.81507873535156
v -226.78990173339844 -124.16571807861328 44.16050720214844
v -227.85763549804688 -124.16571807861328 43.59089279174805
v -228.49742126464844 -124.16571807861328 44.61803436279297
v -229.13720703125 -124.16571807861328 45.645179748535156
v -229.56515502929688 -124.16571807861328 44.04841995239258
v -228.70925903320312 -124.16571807861328 47.24193572998047
v -222.09112548828125 -124.16571807861328 48.03575897216797
v -222.73089599609375 -124.16571807861328 49.062904357910156
v -221.02342224121094 -124.16571807861328 48.60538864135742
v -221.45132446289062 -124.16571807861328 47.00862121582031
v -222.94692993164062 -124.16571807861328 44.84222412109375
v -221.87924194335938 -124.16571807861328 45.41184997558594
v -225.50607299804688 -124.16571807861328 48.95079803466797
v -224.43838500976562 -124.16571807861328 49.520423889160156
v -222.51902770996094 -124.16571807861328 46.43899154663086
v -223.79859924316406 -124.16571807861328 48.49327850341797
vn -0.9124098420143127 0.06470514833927155 0.4041305184364319
vn -0.9134501814842224 0.17308641970157623 0.3683067262172699
vn -0.8698339462280273 0.16629564762115479 0.4644724428653717
vn -0.8934032320976257 -0.301490843296051 0.33306756615638733
vn -0.935450553894043 -0.17653562128543854 0.30621472001075745
vn -0.927082896232605 -0.13299445807933807 0.3504706621170044
vn -0.9401471018791199 -0.21938398480415344 0.2607570290565491
vn -0.9648951888084412 -0.04466678947210312 0.25880905985832214
vn -0.9363179802894592 -0.04479062184691429 0.3482849895954132
vn -0.9767172932624817 -0.13246235251426697 0.16875141859054565
vn -0.941153883934021 -0.26137134432792664 0.2142760008573532
vn -0.9384673833847046 -0.3023330271244049 0.16695408523082733
vn -0.8911421298980713 -0.38560405373573303 0.23911333084106445
vn -0.909956693649292 -0.38448813557624817 0.1553952842950821
vn -0.8849268555641174 -0.42275136709213257 0.19541195034980774
vn -0.9220703840255737 -0.38054078817367554 0.0705329105257988
vn 0.9109201431274414 -0.3823910057544708 -0.15492425858974457
vn 0.8917228579521179 -0.38460659980773926 -0.23855429887771606
vn 0.8854086399078369 -0.42201870679855347 -0.19481204450130463
vn 0.9234064221382141 -0.37735816836357117 -0.07015285640954971
vn 0.9394391179084778 -0.29954466223716736 -0.16651462018489838
vn 0.9365570545196533 -0.043774064630270004 -0.34777122735977173
vn 0.9650827050209045 -0.04389137029647827 -0.2582419514656067
vn 0.9074296355247498 0.17055247724056244 -0.38403570652008057
vn 0.9275240898132324 -0.13118773698806763 -0.3499840199947357
vn -0.7026568651199341 -0.658896803855896 0.2685673236846924
vn -0.7255322933197021 -0.6600376963615417 0.19481581449508667
vn -0.73976731300354 -0.6283130645751953 0.24076317250728607
vn -0.6755908727645874 -0.6538262963294983 0.3407171070575714
vn -0.5521740913391113 -0.8029922246932983 0.2242930382490158
vn 0.70451819896698 -0.6570357084274292 -0.2682502269744873
vn 0.7260800004005432 -0.6596264243125916 -0.19416722655296326
vn 0.7519500255584717 -0.5940734148025513 -0.28574109077453613
vn 0.6787575483322144 -0.650529146194458 -0.3407345116138458
vn 0.5541565418243408 -0.8017044067382812 -0.224010169506073
vn -0.8340129256248474 -0.37932997941970825 0.40066343545913696
vn -0.8657653331756592 -0.38388046622276306 0.3210705518722534
vn 0.9850874543190002 -0.04362114518880844 -0.16643260419368744
vn 0.9644493460655212 0.17204776406288147 -0.20059137046337128
vn -0.8311854600906372 -0.457032710313797 0.31662580370903015
vn -0.8761241436004639 -0.4579659402370453 0.15057805180549622
vn 0.9963947534561157 -0.04296578839421272 -0.07315383106470108
vn 0.9769977927207947 -0.13113868236541748 -0.16816075146198273
vn 0.8659557104110718 -0.383988618850708 -0.3204267621040344
vn 0.8937816023826599 -0.30097833275794983 -0.33251509070396423
vn 0.8338088393211365 -0.3805416524410248 -0.39993855357170105
vn 0.8306073546409607 -0.45867010951042175 -0.3157740533351898
vn -0.7440807223320007 -0.6572422385215759 0.11990243941545486
vn -0.5943215489387512 -0.8009834885597229 0.07216159254312515
vn -0.7581915259361267 -0.6505270004272461 0.044273991137742996
vn -0.7930246591567993 -0.5935258269309998 0.1372555047273636
vn -0.8647624254226685 -0.49113091826438904 0.1047683134675026
vn -0.8508814573287964 -0.5221308469772339 0.05813800171017647
vn -0.7768820524215698 -0.6230481863021851 0.09091383218765259
vn -0.7648137807846069 -0.5234301686286926 0.3756072223186493
vn -0.8339667916297913 -0.4188682436943054 0.35923370718955994
vn 0.9408188462257385 -0.21705900132656097 -0.26027917861938477
vn -0.7594420313835144 -0.5598927140235901 0.33131250739097595
vn -0.7510827779769897 -0.5948940515518188 0.2863142490386963
vn 0.04044106975197792 -0.9847694039344788 0.1690969169139862
vn -0.09542463719844818 -0.9931566119194031 0.06733568012714386
vn -0.18487173318862915 -0.9732648134231567 0.13630138337612152
vn -0.40057605504989624 -0.9111759066581726 0.09642176330089569
vn -0.0022273927461355925 -0.999997079372406 0.0009089309023693204
vn -0.22853399813175201 -0.9728564023971558 -0.03637055307626724
vn 0.7604544162750244 -0.558841347694397 -0.33076485991477966
vn -0.044828277081251144 -0.9848852157592773 -0.16730663180351257
vn 0.09216850996017456 -0.9935697913169861 -0.06575651466846466
vn 0.1827964037656784 -0.973831295967102 -0.13504868745803833
vn 0.40073728561401367 -0.9111878275871277 -0.09563641995191574
vn 0.22647804021835327 -0.9732859134674072 0.037710800766944885
vn 0.7659608721733093 -0.522132396697998 -0.3750755190849304
vn -0.8568301200866699 -0.45920106768608093 0.23447085916996002
vn -0.817462682723999 -0.528744637966156 0.22843784093856812
vn 0.3471538722515106 -0.8955895900726318 -0.2782147228717804
vn 0.8764911890029907 -0.4574788510799408 -0.14992055296897888
vn 0.8164434432983398 -0.5307450294494629 -0.22744198143482208
vn 0.7915040850639343 -0.5958151817321777 -0.1361081451177597
vn 0.2682739198207855 -0.9410343766212463 -0.20611479878425598
vn -0.8940522074699402 -0.34423261880874634 0.2866609990596771
vn -0.9738339781761169 -0.21512334048748016 0.07327575236558914
vn -0.9320979118347168 -0.34210821986198425 0.11897695809602737
vn -0.8885658979415894 -0.2584947645664215 0.37898683547973633
vn -0.8797690868377686 -0.2151087522506714 0.42395126819610596
vn 0.8712695240974426 0.37613776326179504 -0.3152930736541748
vn 0.8888658285140991 -0.25824686884880066 -0.3784523010253906
vn 0.880005419254303 -0.21513786911964417 -0.423445463180542
vn -0.9727486371994019 -0.08874177187681198 0.2142079770565033
vn -0.8799630999565125 0.3816995918750763 0.2827903926372528
vn -0.9849595427513123 -0.04414888098835945 0.16704976558685303
vn -0.9771165251731873 -0.17452259361743927 0.12159444391727448
vn -0.9963338971138 -0.0432414636015892 0.07381666451692581
vn 0.9154297709465027 -0.08739957213401794 -0.39287373423576355
vn 0.8997622132301331 -0.04327026754617691 -0.43422994017601013
vn -0.9150770902633667 -0.0889313817024231 0.3933512270450592
vn -0.8994799852371216 -0.04451928660273552 0.43468812108039856
vn 0.6391645073890686 0.7417317628860474 -0.20323093235492706
vn 0.7227713465690613 0.5563461184501648 -0.4099762737751007
vn 0.9091010093688965 0.06402882933616638 -0.4116254448890686
vn 0.862446665763855 0.16305163502693176 -0.4791659712791443
vn 0.8143040537834167 0.5685040950775146 -0.11709855496883392
vn -0.8444923758506775 0.3775811195373535 0.37982240319252014
vn -0.8332565426826477 0.5437764525413513 -0.0999535396695137
vn -0.884159505367279 0.4670151174068451 0.012607061304152012
vn -0.93129962682724 0.36169397830963135 -0.04311120882630348
vn -0.9182578921318054 0.3768790662288666 0.12151042371988297
vn -0.8225021362304688 0.5646682381629944 0.06811833381652832
vn -0.9599208235740662 0.2710881233215332 0.07115612924098969
vn -0.9673416018486023 0.17449510097503662 0.1838519424200058
vn 0.9126299619674683 0.37825095653533936 -0.15502505004405975
vn -0.9865051507949829 0.16297446191310883 0.01571413315832615
vn -0.6838120222091675 0.7296421527862549 -0.004853586200624704
vn -0.65520840883255 0.7418670654296875 0.14260131120681763
vn -0.7749764323234558 0.4708315432071686 0.4215795695781708
vn -0.7394720911979675 0.5658655762672424 0.3646602928638458
vn 0.8328032493591309 0.37098079919815063 -0.4108673632144928
vn -0.7999938130378723 0.3694262206554413 0.4727940261363983
vn -0.6931868195533752 0.5554859638214111 0.4592682719230652
vn -0.8634769320487976 0.2733950912952423 0.42386624217033386
vn -0.7875148057937622 0.576369047164917 0.218218132853508
vn 0.5904359221458435 0.7297149896621704 -0.34482085704803467
vn 0.6734692454338074 0.7370100617408752 -0.057054754346609116
vn -0.8158966898918152 0.4773981273174286 0.32619574666023254
vn -0.860188901424408 0.478162556886673 0.17730040848255157
vn 0.8534592986106873 0.2684181034564972 -0.4467202425003052
vn 0.7854753732681274 0.36187633872032166 -0.5020697116851807
vn 0.7589035034179688 0.4620213806629181 -0.45891356468200684
vn 0.6723875999450684 0.5440618395805359 -0.5018880367279053
vn 0.9568867683410645 0.2739352583885193 -0.0965767502784729
vn 0.9853562116622925 0.16736704111099243 -0.03258099406957626
vn 0.9289834499359131 0.3699996769428253 0.00949082151055336
vn 0.8792133927345276 0.47332698106765747 -0.054271116852760315
vn 0.8298701047897339 0.5556093454360962 0.05112598463892937
vn -0.9893303513526917 0.06612762808799744 0.12981747090816498
vn -0.6518469452857971 0.6457620859146118 0.397601455450058
vn -0.5543484091758728 0.71587735414505 0.42452022433280945
vn -0.6117247939109802 0.7372438907623291 0.28681766986846924
vn -0.7676871418952942 0.6394150257110596 -0.04248228669166565
vn -0.6968857645988464 0.7008465528488159 -0.15219825506210327
vn 0.6306020617485046 0.6338391304016113 -0.4478715658187866
vn 0.528383195400238 0.7012311220169067 -0.47862938046455383
vn 0.9882969856262207 0.06505939364433289 -0.13797199726104736
vn -0.9726641178131104 0.06535395979881287 0.22283007204532623
vn -0.7050847411155701 0.6611279845237732 0.25644758343696594
vn 0.7561185956001282 -0.6530218124389648 -0.04297793284058571
vn 0.7610438466072083 0.6485602259635925 -0.013479477725923061
vn 0.6925761699676514 0.7156566381454468 0.09040895104408264
vn -0.30243030190467834 0.9304912686347961 0.20669277012348175
vn -0.3531690239906311 0.9340497851371765 0.05312813073396683
vn -0.1558229625225067 0.9842743277549744 0.08320564031600952
vn 0.28326162695884705 0.9167771935462952 -0.28157132863998413
vn 0.34022364020347595 0.931033194065094 -0.13200345635414124
vn 0.1427287459373474 0.9758078455924988 -0.16561274230480194
vn -0.003039513248950243 0.9990453124046326 -0.04357936978340149
vn 0.1885676383972168 0.9820160865783691 -0.009302012622356415
vn 0.04461083188652992 0.9877200126647949 0.14972984790802002
vn 0.372975617647171 0.9274953007698059 0.025330478325486183
vn -0.24892893433570862 0.9323219060897827 -0.26231685280799866
vn -0.05709153413772583 0.9714787602424622 -0.2301511913537979
vn -0.37859493494033813 0.9194844365119934 -0.10589761286973953
vn -0.1089460700750351 0.9065194129943848 -0.40786436200141907
vn -0.42789244651794434 0.8535028100013733 -0.29739031195640564
vn -0.1945306360721588 0.9779326915740967 -0.0761929377913475
vn 0.6734692454338074 0.7370100617408752 -0.057054754346609116
vn 0.6925761699676514 0.7156566381454468 0.09040895104408264
vn 0.5431439876556396 0.8375643491744995 0.058995891362428665
vn 0.4169245660305023 0.8799817562103271 0.22760945558547974
vn -0.5482050776481628 0.8259317874908447 -0.13155926764011383
vn -0.6968857645988464 0.7008465528488159 -0.15219825506210327
vn -0.6838120222091675 0.7296421527862549 -0.004853586200624704
vn 0.08906971663236618 0.9316467046737671 -0.35227978229522705
vn 0.22271889448165894 0.8537070155143738 -0.4707234799861908
vn 0.41340431571006775 0.8241186738014221 -0.387201726436615
vn 0.5904359221458435 0.7297149896621704 -0.34482085704803467
vn 0.528383195400238 0.7012311220169067 -0.47862938046455383
vn 0.6391645073890686 0.7417317628860474 -0.20323093235492706
vn -0.4370507001876831 0.8398277759552002 0.3219875693321228
vn -0.24697259068489075 0.8800992369651794 0.40549951791763306
vn -0.5543484091758728 0.71587735414505 0.42452022433280945
vn -0.6117247939109802 0.7372438907623291 0.28681766986846924
vn -0.5282360911369324 0.8488904237747192 0.01875426061451435
vn -0.65520840883255 0.7418670654296875 0.14260131120681763
vn 0.23703768849372864 0.9536539912223816 0.1853569895029068
vn 0.09048712998628616 0.9371157288551331 0.33708471059799194
vn -0.48895660042762756 0.8538821339607239 0.17834454774856567
vn -0.10831813514232635 0.9544808268547058 0.27790918946266174
vt 0.2891465127468109 0.19092297554016113
vt 0.35387712717056274 0.1270543336868286
vt 0.35387712717056274 0.2547915577888489
vt 0.10683657974004745 0.1270543336868286
vt 0.16562625765800476 0.0631856918334961
vt 0.1852228045463562 0.1270543336868286
vt 0.14602971076965332 -0.0006829500198364258
vt 0.22441591322422028 -0.0006829500198364258
vt 0.22441591322422028 0.1270543336868286
vt 0.1852228045463562 -0.12842011451721191
vt 0.12643316388130188 -0.06455159187316895
vt 0.10683660954236984 -0.12842011451721191
vt 0.06764347851276398 -0.0006829500198364258
vt 0.06764349341392517 -0.12842011451721191
vt 0.04304666072130203 -0.06455159187316895
vt 0.06764350831508636 -0.25615739822387695
vt 0.06764346361160278 0.1270543336868286
vt 0.06764347851276398 -0.0006829500198364258
vt 0.04304664582014084 0.0631856918334961
vt 0.06764344871044159 0.2547915577888489
vt 0.10683656483888626 0.1270543336868286
vt 0.22441591322422028 -0.12842011451721191
vt 0.22441591322422028 -0.0006829500198364258
vt 0.35387712717056274 -0.12842011451721191
vt 0.1852228045463562 -0.12842011451721191
vt -0.12913113832473755 0.1270543336868286
vt -0.12913112342357635 -0.0006829500198364258
vt -0.10453430563211441 0.0631856918334961
vt -0.12913113832473755 0.2547915577888489
vt -0.1787503957748413 0.1270543336868286
vt -0.12913110852241516 -0.12842011451721191
vt -0.12913112342357635 -0.0006829500198364258
vt -0.07993745803833008 -0.12842011451721191
vt -0.12913110852241516 -0.25615739822387695
vt -0.1787503957748413 -0.12842011451721191
vt 0.06764344871044159 0.2547915577888489
vt 0.06764346361160278 0.1270543336868286
vt 0.22441591322422028 0.1270543336868286
vt 0.35387712717056274 0.1270543336868286
vt 0.0184498094022274 0.1270543336868286
vt 0.01844983920454979 -0.12842011451721191
vt 0.22441591322422028 0.2547915577888489
vt 0.1852228045463562 0.1270543336868286
vt 0.06764349341392517 -0.12842011451721191
vt 0.10683659464120865 -0.12842011451721191
vt 0.06764350831508636 -0.25615739822387695
vt 0.018449846655130386 -0.12842011451721191
vt -0.12913110852241516 -0.12842011451721191
vt -0.1787503957748413 -0.12842011451721191
vt -0.12913110852241516 -0.25615739822387695
vt -0.07993747293949127 -0.12842011451721191
vt -0.006146982312202454 -0.19228875637054443
vt -0.030743800103664398 -0.25615739822387695
vt -0.10453429073095322 -0.19228875637054443
vt -0.03074384480714798 0.2547915577888489
vt 0.043046630918979645 0.19092297554016113
vt 0.14602968096733093 -0.0006829500198364258
vt -0.055340662598609924 0.19092297554016113
vt -0.07993748784065247 0.1270543336868286
vt -0.32760822772979736 0.2547915577888489
vt -0.3027985692024231 0.0631856918334961
vt -0.2779889404773712 0.1270543336868286
vt -0.22836966812610626 -0.0006829500198364258
vt -0.32760822772979736 -0.0006829500198364258
vt -0.2779889404773712 -0.12842011451721191
vt -0.05534062907099724 -0.19228875637054443
vt -0.327608197927475 -0.25615739822387695
vt -0.3027985692024231 -0.06455159187316895
vt -0.2779889404773712 -0.12842011451721191
vt -0.22836966812610626 -0.0006829500198364258
vt -0.2779889404773712 0.1270543336868286
vt -0.030743800103664398 -0.25615739822387695
vt 0.018449824303388596 -0.000682830810546875
vt -0.030743829905986786 -0.0006829500198364258
vt -0.22836965322494507 -0.25615739822387695
vt 0.018449816852808 0.1270543336868286
vt -0.030743815004825592 -0.0006829500198364258
vt -0.07993747293949127 0.1270543336868286
vt -0.25317931175231934 -0.19228875637054443
vt 0.08724002540111542 0.0631856918334961
vt 0.14602971076965332 -0.25615739822387695
vt 0.0872400552034378 -0.19228875637054443
vt 0.1264331340789795 0.19092297554016113
vt 0.14602968096733093 0.2547915577888489
vt 0.4833383560180664 -0.0006829500198364258
vt 0.12643316388130188 -0.19228875637054443
vt 0.14602971076965332 -0.25615739822387695
vt 0.20481935143470764 -0.06455159187316895
vt 0.483338326215744 -0.0006829500198364258
vt 0.22441591322422028 -0.12842011451721191
vt 0.16562625765800476 -0.19228875637054443
vt 0.22441591322422028 -0.25615739822387695
vt 0.20481935143470764 -0.19228875637054443
vt 0.22441591322422028 -0.25615739822387695
vt 0.20481935143470764 0.19092297554016113
vt 0.22441591322422028 0.2547915577888489
vt 0.7422608137130737 -0.0006829500198364258
vt 0.6127995252609253 -0.12842011451721191
vt 0.2891465127468109 -0.19228875637054443
vt 0.35387712717056274 -0.25615739822387695
vt 0.6127996444702148 0.1270543336868286
vt 0.483338326215744 0.1270543336868286
vt 0.6127995252609253 -0.25615739822387695
vt 0.5480689406394958 -0.19228875637054443
vt 0.4833383560180664 -0.25615739822387695
vt 0.4833383560180664 -0.12842011451721191
vt 0.6127995252609253 -0.12842011451721191
vt 0.4186077415943146 -0.19228875637054443
vt 0.35387712717056274 -0.12842011451721191
vt 0.4833383858203888 0.1270543336868286
vt 0.35387712717056274 -0.25615739822387695
vt 0.742260754108429 -0.12842011451721191
vt 0.742260754108429 -0.0006829500198364258
vt 0.5480689406394958 0.19092297554016113
vt 0.6127995252609253 0.1270543336868286
vt 0.4833383560180664 -0.12842011451721191
vt 0.483338326215744 0.2547915577888489
vt 0.6127995252609253 0.2547915577888489
vt 0.4186077117919922 0.19092297554016113
vt 0.6127995252609253 -0.0006829500198364258
vt 0.7422608137130737 -0.12842011451721191
vt 0.7422608137130737 0.1270543336868286
vt 0.5480689406394958 0.0631856918334961
vt 0.5480689406394958 -0.06455159187316895
vt 0.4186077117919922 -0.19228875637054443
vt 0.483338326215744 -0.25615739822387695
vt 0.5480689406394958 -0.19228875637054443
vt 0.6127995252609253 -0.25615739822387695
vt 0.41860777139663696 0.19092297554016113
vt 0.3538771867752075 0.2547915577888489
vt 0.4833384156227112 0.2547915577888489
vt 0.5480690002441406 0.19092297554016113
vt 0.6127996444702148 0.2547915577888489
vt 0.2891465127468109 -0.19228875637054443
vt 0.6775301694869995 0.19092297554016113
vt 0.742260754108429 0.2547915577888489
vt 0.742260754108429 0.1270543336868286
vt 0.6775301694869995 -0.19228875637054443
vt 0.742260754108429 -0.25615739822387695
vt 0.6775301694869995 -0.19228875637054443
vt 0.742260754108429 -0.25615739822387695
vt 0.2891465127468109 0.19092297554016113
vt 0.2891465127468109 -0.06455159187316895
vt 0.6775301694869995 0.0631856918334961
vt -0.12913113832473755 0.2547915577888489
vt 0.6775302886962891 0.19092297554016113
vt 0.7422608733177185 0.2547915577888489
vt 0.37465882301330566 0.3278716206550598
vt 0.37465882301330566 0.5599453449249268
vt 0.31211450695991516 0.44390869140625
vt 0.12448109686374664 0.7920199036598206
vt 0.12448133528232574 0.5599461197853088
vt 0.18702563643455505 0.675982803106308
vt 0.24957019090652466 0.5599457025527954
vt 0.18702587485313416 0.44390904903411865
vt 0.24957019090652466 0.32787197828292847
vt 0.12448157370090485 0.3278723359107971
vt 0.31211429834365845 0.9080561697483063
vt 0.24956996738910675 0.7920194864273071
vt 0.37465882301330566 0.7920190691947937
vt 0.24956974387168884 1.0240932703018188
vt 0.37465858459472656 1.0240928530693054
vt 0.31211450695991516 0.6759823858737946
vt -0.0006072800606489182 0.32787275314331055
vt -0.0006070416420698166 0.09579896926879883
vt 0.06193726509809494 0.21183562278747559
vt 0.12448157370090485 0.09579861164093018
vt 0.43720313906669617 0.9080557525157928
vt 0.49974745512008667 1.024092435836792
vt 0.49974745512008667 0.792018711566925
vt 0.18702542781829834 0.9080565869808197
vt 0.12448087334632874 1.0240936875343323
vt 0.061936549842357635 0.9080570042133331
vt -0.0006077568978071213 0.792020320892334
vt -0.0006079953163862228 1.0240941047668457
vt -0.0006075184792280197 0.5599465370178223
vt 0.43720313906669617 0.21183454990386963
vt 0.37465882301330566 0.09579789638519287
vt 0.49974745512008667 0.09579753875732422
vt 0.49974745512008667 0.32787126302719116
vt 0.43720313906669617 0.6759820282459259
vt 0.49974745512008667 0.5599449872970581
vt 0.18702587485313416 0.21183526515960693
vt 0.24957019090652466 0.09579825401306152
vt 0.43720313906669617 0.44390833377838135
vt 0.31211450695991516 0.21183490753173828
g Canal12a0
s 1
f 1/1/1 2/2/2 3/3/3
f 4/4/4 5/5/5 6/6/6
f 4/4/4 7/7/7 5/5/5
f 8/8/8 5/5/5 7/7/7
f 8/8/8 6/6/6 5/5/5
f 9/9/9 8/8/8 2/2/2
f 8/8/8 9/9/9 6/6/6
f 10/10/10 11/11/11 12/12/12
f 10/10/10 7/7/7 11/11/11
f 13/13/13 11/11/11 7/7/7
f 13/13/13 12/12/12 11/11/11
f 14/14/14 13/13/13 15/15/15
f 16/16/16 14/14/14 15/15/15
f 13/13/13 14/14/14 12/12/12
f 17/17/17 18/18/18 19/19/19
f 20/20/20 17/17/17 19/19/19
f 17/17/17 20/20/20 21/21/21
f 18/18/18 17/17/17 21/21/21
f 22/22/22 23/23/23 24/24/24
f 23/23/23 22/22/22 25/25/25
f 26/26/26 27/27/27 28/28/28
f 29/29/29 26/26/26 28/28/28
f 26/26/26 29/29/29 30/30/30
f 27/27/27 26/26/26 30/30/30
f 31/31/31 32/32/32 33/33/33
f 34/34/34 31/31/31 33/33/33
f 31/31/31 34/34/34 35/35/35
f 32/32/32 31/31/31 35/35/35
f 36/36/36 37/37/37 4/4/4
f 23/23/23 38/38/38 39/39/39
f 13/13/13 37/37/37 40/40/40
f 16/16/16 15/15/15 41/41/41
f 42/42/42 38/38/38 43/43/43
f 15/15/15 13/13/13 40/40/40
f 44/44/44 18/18/18 45/45/45
f 46/46/46 44/44/44 45/45/45
f 44/44/44 46/46/46 47/47/47
f 18/18/18 44/44/44 47/47/47
f 48/48/48 27/27/27 49/49/49
f 50/50/50 48/48/48 49/49/49
f 38/38/38 23/23/23 43/43/43
f 27/27/27 48/48/48 51/51/51
f 52/52/52 41/41/41 51/51/51
f 16/16/16 41/41/41 52/52/52
f 16/16/16 52/52/52 53/53/53
f 52/52/52 51/51/51 53/53/53
f 53/53/53 51/51/51 54/54/54
f 53/53/53 54/54/54 50/50/50
f 48/48/48 50/50/50 54/54/54
f 48/48/48 54/54/54 51/51/51
f 55/55/55 40/40/40 56/56/56
f 43/43/43 23/23/23 57/57/57
f 43/43/43 57/57/57 21/21/21
f 42/42/42 43/43/43 21/21/21
f 55/55/55 56/56/56 36/36/36
f 37/37/37 36/36/36 56/56/56
f 37/37/37 56/56/56 40/40/40
f 29/29/29 58/58/58 55/55/55
f 45/45/45 57/57/57 25/25/25
f 58/58/58 40/40/40 55/55/55
f 58/58/58 59/59/59 40/40/40
f 45/45/45 18/18/18 57/57/57
f 60/60/60 61/61/61 62/62/62
f 62/62/62 61/61/61 63/63/63
f 62/62/62 63/63/63 30/30/30
f 60/60/60 62/62/62 30/30/30
f 60/60/60 64/64/64 61/61/61
f 61/61/61 64/64/64 65/65/65
f 61/61/61 65/65/65 63/63/63
f 29/29/29 59/59/59 58/58/58
f 49/49/49 63/63/63 65/65/65
f 50/50/50 49/49/49 65/65/65
f 66/66/66 33/33/33 47/47/47
f 49/49/49 27/27/27 63/63/63
f 67/67/67 68/68/68 69/69/69
f 69/69/69 68/68/68 70/70/70
f 69/69/69 70/70/70 35/35/35
f 34/34/34 33/33/33 66/66/66
f 67/67/67 64/64/64 68/68/68
f 68/68/68 64/64/64 71/71/71
f 68/68/68 71/71/71 70/70/70
f 34/34/34 66/66/66 72/72/72
f 64/64/64 67/67/67 65/65/65
f 66/66/66 47/47/47 72/72/72
f 64/64/64 60/60/60 71/71/71
f 41/41/41 73/73/73 74/74/74
f 73/73/73 40/40/40 74/74/74
f 75/75/75 35/35/35 34/34/34
f 20/20/20 19/19/19 76/76/76
f 76/76/76 19/19/19 77/77/77
f 76/76/76 77/77/77 78/78/78
f 20/20/20 76/76/76 78/78/78
f 15/15/15 40/40/40 73/73/73
f 19/19/19 18/18/18 47/47/47
f 19/19/19 47/47/47 77/77/77
f 15/15/15 73/73/73 41/41/41
f 67/67/67 79/79/79 75/75/75
f 79/79/79 35/35/35 75/75/75
f 29/29/29 28/28/28 59/59/59
f 59/59/59 28/28/28 74/74/74
f 59/59/59 74/74/74 40/40/40
f 79/79/79 69/69/69 35/35/35
f 67/67/67 69/69/69 79/79/79
f 28/28/28 27/27/27 51/51/51
f 28/28/28 51/51/51 74/74/74
f 4/4/4 80/80/80 7/7/7
f 80/80/80 13/13/13 7/7/7
f 37/37/37 13/13/13 80/80/80
f 37/37/37 80/80/80 4/4/4
f 81/81/81 12/12/12 82/82/82
f 41/41/41 74/74/74 51/51/51
f 81/81/81 82/82/82 16/16/16
f 14/14/14 16/16/16 82/82/82
f 72/72/72 47/47/47 46/46/46
f 33/33/33 77/77/77 47/47/47
f 14/14/14 82/82/82 12/12/12
f 36/36/36 83/83/83 84/84/84
f 33/33/33 32/32/32 77/77/77
f 83/83/83 6/6/6 84/84/84
f 83/83/83 4/4/4 6/6/6
f 23/23/23 39/39/39 85/85/85
f 36/36/36 4/4/4 83/83/83
f 86/86/86 45/45/45 25/25/25
f 46/46/46 45/45/45 86/86/86
f 46/46/46 86/86/86 87/87/87
f 24/24/24 23/23/23 85/85/85
f 86/86/86 25/25/25 87/87/87
f 10/10/10 88/88/88 7/7/7
f 88/88/88 8/8/8 7/7/7
f 2/2/2 8/8/8 89/89/89
f 90/90/90 8/8/8 88/88/88
f 90/90/90 88/88/88 10/10/10
f 91/91/91 10/10/10 12/12/12
f 92/92/92 10/10/10 91/91/91
f 92/92/92 91/91/91 81/81/81
f 91/91/91 12/12/12 81/81/81
f 87/87/87 25/25/25 93/93/93
f 87/87/87 93/93/93 94/94/94
f 22/22/22 94/94/94 93/93/93
f 22/22/22 93/93/93 25/25/25
f 84/84/84 6/6/6 95/95/95
f 84/84/84 95/95/95 96/96/96
f 9/9/9 96/96/96 95/95/95
f 9/9/9 95/95/95 6/6/6
f 97/97/97 98/98/98 85/85/85
f 99/99/99 22/22/22 24/24/24
f 94/94/94 22/22/22 99/99/99
f 99/99/99 24/24/24 100/100/100
f 101/101/101 97/97/97 85/85/85
f 1/1/1 9/9/9 2/2/2
f 96/96/96 9/9/9 1/1/1
f 96/96/96 1/1/1 3/3/3
f 2/2/2 89/89/89 102/102/102
f 94/94/94 99/99/99 100/100/100
f 103/103/103 104/104/104 105/105/105
f 104/104/104 106/106/106 105/105/105
f 92/92/92 90/90/90 10/10/10
f 107/107/107 106/106/106 104/104/104
f 108/108/108 106/106/106 109/109/109
f 105/105/105 106/106/106 108/108/108
f 101/101/101 85/85/85 110/110/110
f 105/105/105 108/108/108 111/111/111
f 108/108/108 109/109/109 111/111/111
f 112/112/112 113/113/113 107/107/107
f 110/110/110 85/85/85 39/39/39
f 114/114/114 102/102/102 115/115/115
f 116/116/116 85/85/85 98/98/98
f 24/24/24 85/85/85 116/116/116
f 117/117/117 102/102/102 114/114/114
f 117/117/117 114/114/114 118/118/118
f 3/3/3 119/119/119 117/117/117
f 107/107/107 113/113/113 120/120/120
f 114/114/114 115/115/115 118/118/118
f 119/119/119 102/102/102 117/117/117
f 2/2/2 102/102/102 119/119/119
f 3/3/3 2/2/2 119/119/119
f 97/97/97 121/121/121 98/98/98
f 122/122/122 97/97/97 101/101/101
f 106/106/106 89/89/89 109/109/109
f 103/103/103 107/107/107 104/104/104
f 102/102/102 123/123/123 115/115/115
f 102/102/102 89/89/89 123/123/123
f 120/120/120 123/123/123 89/89/89
f 120/120/120 115/115/115 123/123/123
f 124/124/124 89/89/89 106/106/106
f 107/107/107 124/124/124 106/106/106
f 107/107/107 120/120/120 124/124/124
f 124/124/124 120/120/120 89/89/89
f 100/100/100 125/125/125 126/126/126
f 100/100/100 24/24/24 125/125/125
f 24/24/24 116/116/116 125/125/125
f 125/125/125 116/116/116 126/126/126
f 127/127/127 98/98/98 128/128/128
f 126/126/126 127/127/127 128/128/128
f 126/126/126 116/116/116 127/127/127
f 127/127/127 116/116/116 98/98/98
f 129/129/129 39/39/39 130/130/130
f 131/131/131 129/129/129 130/130/130
f 131/131/131 110/110/110 129/129/129
f 129/129/129 110/110/110 39/39/39
f 101/101/101 110/110/110 132/132/132
f 132/132/132 110/110/110 131/131/131
f 133/133/133 132/132/132 131/131/131
f 133/133/133 101/101/101 132/132/132
f 111/111/111 134/134/134 92/92/92
f 111/111/111 109/109/109 134/134/134
f 90/90/90 134/134/134 109/109/109
f 90/90/90 92/92/92 134/134/134
f 118/118/118 135/135/135 136/136/136
f 118/118/118 115/115/115 135/135/135
f 137/137/137 135/135/135 115/115/115
f 137/137/137 136/136/136 135/135/135
f 138/138/138 107/107/107 103/103/103
f 139/139/139 138/138/138 103/103/103
f 139/139/139 112/112/112 138/138/138
f 138/138/138 112/112/112 107/107/107
f 128/128/128 140/140/140 141/141/141
f 128/128/128 98/98/98 140/140/140
f 121/121/121 140/140/140 98/98/98
f 121/121/121 141/141/141 140/140/140
f 38/38/38 142/142/142 39/39/39
f 38/38/38 42/42/42 142/142/142
f 130/130/130 142/142/142 42/42/42
f 130/130/130 39/39/39 142/142/142
f 143/143/143 109/109/109 89/89/89
f 8/8/8 143/143/143 89/89/89
f 8/8/8 90/90/90 143/143/143
f 143/143/143 90/90/90 109/109/109
f 144/144/144 115/115/115 120/120/120
f 113/113/113 144/144/144 120/120/120
f 113/113/113 137/137/137 144/144/144
f 145/145/145 32/32/32 70/70/70
f 144/144/144 137/137/137 115/115/115
f 42/42/42 21/21/21 20/20/20
f 23/23/23 25/25/25 57/57/57
f 27/27/27 30/30/30 63/63/63
f 60/60/60 30/30/30 29/29/29
f 50/50/50 65/65/65 67/67/67
f 32/32/32 35/35/35 70/70/70
f 145/145/145 71/71/71 60/60/60
f 145/145/145 70/70/70 71/71/71
f 32/32/32 78/78/78 77/77/77
f 32/32/32 145/145/145 78/78/78
f 20/20/20 78/78/78 145/145/145
f 146/146/146 122/122/122 101/101/101
f 147/147/147 122/122/122 146/146/146
f 147/147/147 146/146/146 133/133/133
f 146/146/146 101/101/101 133/133/133
f 18/18/18 21/21/21 57/57/57
g Canal12a1
s 1
f 148/148/148 149/149/149 150/150/150
f 151/151/151 152/152/152 153/153/153
f 153/153/153 152/152/152 154/154/154
f 152/152/152 155/155/155 154/154/154
f 156/156/156 154/154/154 155/155/155
f 156/156/156 155/155/155 157/157/157
f 158/158/158 159/159/159 160/160/160
f 161/161/161 159/159/159 158/158/158
f 161/161/161 158/158/158 162/162/162
f 158/158/158 160/160/160 162/162/162
f 159/159/159 154/154/154 163/163/163
f 159/159/159 163/163/163 160/160/160
f 149/149/149 160/160/160 163/163/163
f 149/149/149 163/163/163 154/154/154
f 164/164/164 165/165/165 166/166/166
f 164/164/164 166/166/166 157/157/157
f 167/167/167 157/157/157 166/166/166
f 167/167/167 166/166/166 165/165/165
f 162/162/162 160/160/160 168/168/168
f 162/162/162 168/168/168 169/169/169
f 170/170/170 169/169/169 168/168/168
f 170/170/170 168/168/168 160/160/160
f 171/171/171 159/159/159 161/161/161
f 151/151/151 159/159/159 171/171/171
f 172/172/172 151/151/151 171/171/171
f 172/172/172 171/171/171 161/161/161
f 173/173/173 174/174/174 151/151/151
f 175/175/175 174/174/174 173/173/173
f 175/175/175 173/173/173 172/172/172
f 173/173/173 151/151/151 172/172/172
f 148/148/148 150/150/150 156/156/156
f 150/150/150 154/154/154 156/156/156
f 152/152/152 157/157/157 155/155/155
f 150/150/150 149/149/149 154/154/154
f 151/151/151 153/153/153 159/159/159
f 153/153/153 154/154/154 159/159/159
f 176/176/176 157/157/157 152/152/152
f 174/174/174 176/176/176 151/151/151
f 151/151/151 176/176/176 152/152/152
f 177/177/177 148/148/148 178/178/178
f 179/179/179 177/177/177 178/178/178
f 179/179/179 180/180/180 177/177/177
f 177/177/177 180/180/180 148/148/148
f 181/181/181 160/160/160 149/149/149
f 182/182/182 181/181/181 149/149/149
f 182/182/182 170/170/170 181/181/181
f 181/181/181 170/170/170 160/160/160
f 183/183/183 157/157/157 167/167/167
f 176/176/176 164/164/164 157/157/157
f 184/184/184 183/183/183 167/167/167
f 184/184/184 156/156/156 183/183/183
f 183/183/183 156/156/156 157/157/157
f 180/180/180 185/185/185 148/148/148
f 180/180/180 182/182/182 185/185/185
f 185/185/185 182/182/182 149/149/149
f 148/148/148 185/185/185 149/149/149
f 178/178/178 186/186/186 184/184/184
f 178/178/178 148/148/148 186/186/186
f 148/148/148 156/156/156 186/186/186
f 186/186/186 156/156/156 184/184/184
