# Exported using wow.export v0.2.19
o 20736_tosewer03.obj
v 128.5086669921875 -3.67248797416687 62.35914611816406
v 126.64207458496094 -3.67248797416687 62.35914611816406
v 127.57537841796875 -3.0153892040252686 60.65144348144531
v 126.64208221435547 -2.358290433883667 58.94374084472656
v 128.50868225097656 -2.358290433883667 58.94374084472656
v 130.37527465820312 -3.67248797416687 62.35914611816406
v 126.64208984375 -1.0440930128097534 55.52833557128906
v 129.44198608398438 -1.7011919021606445 57.23603820800781
v 130.3752899169922 -1.0440932512283325 55.52833557128906
v 130.37527465820312 -2.358290672302246 58.94374084472656
v 128.50869750976562 -1.044093132019043 55.52833557128906
v 128.5086669921875 -6.744827747344971 60.65144348144531
v 128.5086669921875 -7.401926517486572 62.35914611816406
v 128.97532653808594 -6.744827747344971 60.65144348144531
v 129.44198608398438 -6.087728977203369 58.94374084472656
v 130.37527465820312 -7.401926517486572 62.35914611816406
v 130.37527465820312 -6.087728977203369 58.94374084472656
v 130.3752899169922 -4.773531436920166 55.52833557128906
v 128.50868225097656 -4.773531436920166 55.52833557128906
v 127.57537841796875 -5.430630207061768 57.23603820800781
v 126.64207458496094 -4.773531436920166 55.52833557128906
v 126.64207458496094 -6.087728977203369 58.94374084472656
v 128.50868225097656 -6.087728977203369 58.94374084472656
v 127.57537841796875 -6.744827747344971 60.65144348144531
v 126.64207458496094 -7.401926517486572 62.35914611816406
v 130.37527465820312 -4.223010063171387 58.94374084472656
v 130.3752899169922 -4.773531436920166 55.52833557128906
v 130.37527465820312 -6.087728977203369 58.94374084472656
v 130.37527465820312 -2.633551597595215 57.23603820800781
v 130.37527465820312 -2.358290672302246 58.94374084472656
v 130.3752899169922 -1.0440932512283325 55.52833557128906
v 130.37527465820312 -5.812468528747559 60.65144348144531
v 130.37527465820312 -3.67248797416687 62.35914611816406
v 130.37527465820312 -7.401926517486572 62.35914611816406
v 126.64207458496094 -4.773531436920166 55.52833557128906
v 126.64208221435547 -2.9088122844696045 55.52833557128906
v 126.64207458496094 -3.565911054611206 57.23603820800781
v 126.64208984375 -1.0440930128097534 55.52833557128906
v 126.64207458496094 -4.2230095863342285 58.94374084472656
v 126.64207458496094 -3.67248797416687 62.35914611816406
v 126.64207458496094 -4.88010835647583 60.65144348144531
v 126.64207458496094 -3.619199514389038 59.79759216308594
v 126.64208221435547 -2.358290672302246 58.94374084472656
v 126.64207458496094 -5.537207126617432 62.35914611816406
v 126.64207458496094 -7.401926517486572 62.35914611816406
v 126.64207458496094 -4.826819896697998 58.08988952636719
v 126.64207458496094 -6.087728977203369 58.94374084472656
v 130.3752899169922 -2.9088125228881836 55.52833557128906
v 130.37527465820312 -5.537207126617432 62.35914611816406
vn -3.3434787383157527e-7 -0.9831817150115967 -0.18263030052185059
vn 0.45330220460891724 -0.8763657212257385 -0.16278894245624542
vn 0.23306936025619507 -0.9561049342155457 -0.17760057747364044
vn 0.4533016085624695 -0.8763660788536072 -0.16278868913650513
vn -0.0000010197605888606631 -0.9831816554069519 -0.18262994289398193
vn -0.453302800655365 -0.8763654828071594 -0.16278856992721558
vn 0.45330098271369934 -0.8763664364814758 -0.16278842091560364
vn -0.23307064175605774 -0.9561046957969666 -0.17760036885738373
vn -0.4533027410507202 -0.8763654828071594 -0.16278856992721558
vn -0.4533027708530426 -0.8763654828071594 -0.16278856992721558
vn -9.863258583209245e-7 -0.9831816554069519 -0.18262994289398193
vn 0 0.9831817746162415 0.18263016641139984
vn 0 0.9831816554069519 0.18263015151023865
vn -0.1173456609249115 0.9763889908790588 0.1813683956861496
vn -0.23306986689567566 0.9561048150062561 0.17760053277015686
vn -0.4533022344112396 0.8763657808303833 0.16278864443302155
vn -0.4533022344112396 0.8763657808303833 0.16278864443302155
vn -0.4533022344112396 0.8763657808303833 0.16278864443302155
vn 3.677826612147328e-7 0.9831815958023071 0.18263031542301178
vn 0.2330702245235443 0.9561047554016113 0.1776006668806076
vn 0.45330289006233215 0.8763653635978699 0.16278888285160065
vn 0.4533025622367859 0.8763655424118042 0.1627887636423111
vn 0 0.9831816554069519 0.18263015151023865
vn 0.23306986689567566 0.9561048150062561 0.17760053277015686
vn 0.4533022344112396 0.8763657808303833 0.16278864443302155
vn -0.9999999403953552 3.287244112470944e-7 8.21811028117736e-8
vn -0.4533022344112396 0.8763657808303833 0.16278864443302155
vn -0.4533022344112396 0.8763657808303833 0.16278864443302155
vn -0.8524385690689087 -0.5140343308448792 -0.09548401832580566
vn -0.4533027708530426 -0.8763654828071594 -0.16278856992721558
vn -0.4533027410507202 -0.8763654828071594 -0.16278856992721558
vn -0.8524382710456848 0.5140349268913269 0.0954841673374176
vn -0.453302800655365 -0.8763654828071594 -0.16278856992721558
vn -0.4533022344112396 0.8763657808303833 0.16278864443302155
vn 0.45330289006233215 0.8763653635978699 0.16278888285160065
vn 1 -0.0000011834094948426355 5.095235451335611e-7
vn 0.9999999403953552 -7.889390190030099e-7 2.1367098668179096e-7
vn 0.45330098271369934 -0.8763664364814758 -0.16278842091560364
vn 1 -3.944692821278295e-7 -6.574487798616246e-8
vn 0.45330220460891724 -0.8763657212257385 -0.16278894245624542
vn 1 -1.9723472632904304e-7 -1.9723472632904304e-7
vn 0.8524380922317505 -0.5140349864959717 -0.09548414498567581
vn 0.4533016085624695 -0.8763660788536072 -0.16278868913650513
vn 1 6.574493482958133e-8 -3.2872466704247927e-7
vn 0.4533022344112396 0.8763657808303833 0.16278864443302155
vn 0.8524386286735535 0.5140342712402344 0.09548413008451462
vn 0.4533025622367859 0.8763655424118042 0.1627887636423111
vn -0.9999999403953552 3.287244112470944e-7 8.21811028117736e-8
vn -0.9999999403953552 3.287244112470944e-7 8.21811028117736e-8
vt 3.774895063202166e-8 0.800000011920929
vt 0 0.6000000238418579
vt 0.2500000298023224 0.7000000178813934
vt 0.5 0.6000000238418579
vt 0.5000000596046448 0.800000011920929
vt 7.549790126404332e-8 1
vt 1 0.6000000238418579
vt 0.7500001192092896 0.8999999761581421
vt 1.0000001192092896 0.9999999403953552
vt 0.5000001192092896 0.9999999701976776
vt 1 0.7999999821186066
vt 0.375 1.125
vt 0.375 1.5
vt 0.28125 1.125
vt 0.1875 0.75
vt 0 1.5
vt 0 0.75
vt 0 0
vt 0.375 0
vt 0.5625 0.375
vt 0.75 0
vt 0.75 0.75
vt 0.375 0.75
vt 0.5625 1.125
vt 0.75 1.5
vt 0.49999862909317017 0.4999995231628418
vt 0.0004981756210327148 0.41349661350250244
vt 0.49999862909317017 0.2069980502128601
vt 0.25024840235710144 0.7497495412826538
vt 0.49999862909317017 0.7930010259151459
vt 0.0004981756210327148 0.9994995594024658
vt 0.7497488260269165 0.2502495050430298
vt 0.9994990825653076 0.5865024924278259
vt 0.9994990825653076 0.0004994869232177734
vt 0.0004980564117431641 0.41349661350250244
vt 0.0004980564117431641 0.7064985632896423
vt 0.2502482533454895 0.6032490730285645
vt 0.0004980564117431641 0.9995005130767822
vt 0.4999984800815582 0.4999995231628418
vt 0.9994989037513733 0.5865024924278259
vt 0.749748706817627 0.396750271320343
vt 0.6248735785484314 0.5948757827281952
vt 0.4999984800815582 0.7930015027523041
vt 0.9994989037513733 0.29350101947784424
vt 0.9994989037513733 0.0004994869232177734
vt 0.37512338161468506 0.4051234722137451
vt 0.4999984800815582 0.2069980502128601
vt 0.0004981756210327148 0.7064980864524841
vt 0.9994990825653076 0.29350101947784424
g tosewer030
s 1
f 1/1/1 2/2/2 3/3/3
f 3/3/3 2/2/2 4/4/4
f 5/5/5 3/3/3 4/4/4
f 6/6/6 3/3/3 5/5/5
f 5/5/5 4/4/4 7/7/7
f 8/8/8 9/9/9 10/10/10
f 5/5/5 8/8/8 10/10/10
f 7/7/7 8/8/8 5/5/5
f 5/5/5 10/10/10 6/6/6
f 6/6/6 1/1/1 3/3/3
f 11/11/11 9/9/9 8/8/8
f 7/7/7 11/11/11 8/8/8
g tosewer031
s 1
f 12/12/12 13/13/13 14/14/14
f 15/15/15 16/16/16 17/17/17
f 15/15/15 17/17/17 18/18/18
f 18/18/18 19/19/19 20/20/20
f 20/20/20 21/21/21 22/22/22
f 23/23/23 20/20/20 22/22/22
f 18/18/18 20/20/20 23/23/23
f 19/19/19 21/21/21 20/20/20
f 24/24/24 13/13/13 12/12/12
f 24/24/24 12/12/12 23/23/23
f 23/23/23 12/12/12 14/14/14
f 25/25/25 13/13/13 24/24/24
f 23/23/23 15/15/15 18/18/18
f 24/24/24 22/22/22 25/25/25
f 23/23/23 22/22/22 24/24/24
f 23/23/23 14/14/14 15/15/15
f 13/13/13 16/16/16 14/14/14
f 14/14/14 16/16/16 15/15/15
g tosewer032
s 1
f 26/26/26 27/27/27 28/28/28
f 29/29/29 27/27/27 26/26/26
f 29/29/29 30/30/30 31/31/31
f 26/26/26 30/30/30 29/29/29
f 32/32/32 33/33/33 26/26/26
f 32/32/32 28/28/28 34/34/34
f 26/26/26 28/28/28 32/32/32
f 35/35/35 36/36/36 37/37/37
f 36/36/36 38/38/38 37/37/37
f 35/35/35 37/37/37 39/39/39
f 40/40/40 41/41/41 39/39/39
f 42/42/42 43/43/43 40/40/40
f 37/37/37 43/43/43 42/42/42
f 39/39/39 37/37/37 42/42/42
f 39/39/39 42/42/42 40/40/40
f 40/40/40 44/44/44 41/41/41
f 44/44/44 45/45/45 41/41/41
f 46/46/46 47/47/47 35/35/35
f 41/41/41 47/47/47 46/46/46
f 39/39/39 41/41/41 46/46/46
f 39/39/39 46/46/46 35/35/35
f 31/31/31 48/48/48 29/29/29
f 48/48/48 27/27/27 29/29/29
f 34/34/34 49/49/49 32/32/32
f 49/49/49 33/33/33 32/32/32
f 41/41/41 45/45/45 47/47/47
f 26/26/26 33/33/33 30/30/30
f 37/37/37 38/38/38 43/43/43
