# Exported using wow.export v0.2.19
o 20736_DistRt11.obj
v -140.95181274414062 -108.00126647949219 22.43126678466797
v -139.79917907714844 -108.0031967163086 22.411184310913086
v -140.94708251953125 -108.0031967163086 21.36625099182129
v -146.21246337890625 -106.81453704833984 23.95895767211914
v -142.65977478027344 -108.00299835205078 25.482187271118164
v -142.65977478027344 -108.00299835205078 22.454275131225586
v -137.64627075195312 -108.0031967163086 26.849292755126953
v -137.43408203125 -108.0031967163086 24.800535202026367
v -137.64854431152344 -108.0031967163086 24.630237579345703
v -149.76513671875 -105.6260757446289 22.435733795166016
v -149.76513671875 -105.6260757446289 25.463642120361328
v -146.21246337890625 -106.81453704833984 22.445003509521484
v -137.21734619140625 -108.0031967163086 27.18988800048828
v -136.92491149902344 -108.0031967163086 27.18988800048828
v -137.0693817138672 -108.0031967163086 24.278791427612305
v -138.72271728515625 -108.0031967163086 24.630237579345703
v -137.65081787109375 -108.0031967163086 22.411182403564453
v -146.21246337890625 -106.81453704833984 25.472915649414062
v -139.79705810546875 -108.0031967163086 26.84933090209961
v -136.92141723632812 -108.0031967163086 21.367694854736328
v -139.79812622070312 -108.0031967163086 24.63025665283203
v -140.95181274414062 -108.00126647949219 25.459178924560547
v -136.92315673828125 -108.0031967163086 24.278791427612305
v -140.24525451660156 -108.0031967163086 27.189889907836914
v -140.94708251953125 -108.0031967163086 27.188446044921875
v -142.65977478027344 -108.00299835205078 22.454275131225586
v -142.6597900390625 -107.08008575439453 22.454275131225586
v -146.21246337890625 -106.35307312011719 22.445003509521484
v -149.76513671875 -104.70315551757812 22.435733795166016
v -149.76513671875 -105.6260757446289 22.435733795166016
v -142.6597900390625 -107.08008575439453 25.482187271118164
v -146.21246337890625 -105.89161682128906 25.472915649414062
v -149.76512145996094 -104.70315551757812 25.756071090698242
v -149.76512145996094 -104.70315551757812 25.463642120361328
v -146.21246337890625 -105.89161682128906 22.445003509521484
v -146.21246337890625 -106.81453704833984 22.445003509521484
v -149.76513671875 -104.70315551757812 22.143306732177734
v -149.76513671875 -104.70315551757812 22.435733795166016
v -146.21246337890625 -105.89161682128906 22.445003509521484
v -142.65977478027344 -108.00299835205078 25.482187271118164
v -146.21246337890625 -106.81453704833984 25.472915649414062
v -146.2124481201172 -106.35307312011719 25.472915649414062
v -149.76513671875 -105.6260757446289 25.463642120361328
v -142.6597900390625 -107.08008575439453 22.454275131225586
v -142.6597900390625 -107.08008575439453 25.482187271118164
v -146.21246337890625 -105.89161682128906 25.472915649414062
v -146.21246337890625 -105.89161682128906 25.765342712402344
v -142.6597900390625 -107.08008575439453 25.774614334106445
v -149.76512145996094 -104.70315551757812 25.463642120361328
v -146.21246337890625 -105.89161682128906 22.152576446533203
v -142.6597900390625 -107.08008575439453 22.161848068237305
v -140.94708251953125 -102.36294555664062 27.188446044921875
v -139.615478515625 -103.44203186035156 27.18988800048828
v -140.2383575439453 -104.53351593017578 27.189889907836914
v -136.6986083984375 -103.98641967773438 22.513835906982422
v -136.62318420410156 -104.52757263183594 20.87481689453125
v -136.6278076171875 -104.52766418457031 22.453584671020508
v -136.6324462890625 -104.52776336669922 24.032352447509766
v -137.91653442382812 -102.90391540527344 21.047439575195312
v -137.77496337890625 -103.98641967773438 20.92693519592285
v -136.90635681152344 -102.3625717163086 21.11582374572754
v -138.92672729492188 -103.44525909423828 20.979053497314453
v -140.95181274414062 -108.00126647949219 25.459178924560547
v -140.95181274414062 -107.07835388183594 25.459177017211914
v -140.94708251953125 -108.0031967163086 27.188446044921875
v -140.94708251953125 -108.0031967163086 21.36625099182129
v -140.95181274414062 -106.04899597167969 22.2100830078125
v -140.95179748535156 -107.07835388183594 22.431264877319336
v -138.92672729492188 -102.36276245117188 21.10251808166504
v -140.95181274414062 -106.04582214355469 25.684566497802734
v -136.99615478515625 -105.96695709228516 27.18988609313965
v -136.92491149902344 -108.0031967163086 27.18988800048828
v -137.21734619140625 -108.0031967163086 27.18988800048828
v -138.73341369628906 -102.7940444946289 27.189889907836914
v -136.9248809814453 -102.36294555664062 27.18988800048828
v -137.8514404296875 -103.44327545166016 27.18988800048828
v -137.2262420654297 -104.53359985351562 27.18988800048828
v -136.64170837402344 -104.5279541015625 27.18988800048828
v -140.95181274414062 -102.87608337402344 23.94734001159668
v -140.95181274414062 -103.52531433105469 23.065359115600586
v -140.94708251953125 -102.3625717163086 24.065006256103516
v -140.95181274414062 -103.52407836914062 24.82939910888672
v -140.94708251953125 -104.52794647216797 27.188446044921875
v -140.95181274414062 -104.61556243896484 25.452295303344727
v -140.24525451660156 -108.0031967163086 27.189889907836914
v -140.94708251953125 -108.0031967163086 27.188446044921875
v -140.47064208984375 -105.96378326416016 27.189889907836914
v -140.94708251953125 -104.52794647216797 27.188446044921875
v -140.95181274414062 -108.00126647949219 22.43126678466797
v -140.94708251953125 -104.52794647216797 20.842283248901367
v -140.95181274414062 -104.61563873291016 22.440170288085938
v -136.8514862060547 -107.13438415527344 22.8232421875
v -136.70236206054688 -105.39657592773438 22.576805114746094
v -136.8118896484375 -106.69989013671875 21.97224998474121
v -136.92141723632812 -108.0031967163086 21.367694854736328
v -136.77230834960938 -106.265380859375 21.12125587463379
v -138.92672729492188 -102.36276245117188 21.10251808166504
v -137.91653442382812 -102.3625717163086 21.853118896484375
v -138.92672729492188 -102.3625717163086 22.590415954589844
v -136.90635681152344 -102.3625717163086 21.11582374572754
v -136.91098022460938 -102.3626708984375 22.63433837890625
v -137.92117309570312 -102.3626708984375 23.37163543701172
v -136.91561889648438 -102.36276245117188 24.152854919433594
v -138.9342498779297 -106.26557159423828 21.10498809814453
v -140.94708251953125 -108.0031967163086 21.36625099182129
v -140.94708251953125 -104.52794647216797 20.842283248901367
v -138.9313507080078 -102.3626708984375 24.108930587768555
v -138.93597412109375 -102.36276245117188 25.6274471282959
v -137.92579650878906 -102.36276245117188 24.890151977539062
v -136.92025756835938 -102.36285400390625 25.671371459960938
v -136.77403259277344 -103.44526672363281 24.152854919433594
v -136.91098022460938 -102.3626708984375 22.63433837890625
v -136.84019470214844 -102.90391540527344 22.63433837890625
v -136.7647705078125 -103.445068359375 20.995319366455078
v -136.64170837402344 -104.5279541015625 27.18988800048828
v -136.77865600585938 -103.44535827636719 25.671371459960938
v -136.70787048339844 -103.98661041259766 25.671371459960938
v -136.67202758789062 -104.96226501464844 24.883346557617188
v -136.71163940429688 -105.39676666259766 25.73434066772461
v -136.78155517578125 -106.26557922363281 24.278791427612305
v -136.78330993652344 -106.26557922363281 27.18988800048828
v -140.94708251953125 -102.36276245117188 25.626726150512695
v -140.94708251953125 -102.36276245117188 25.626726150512695
v -140.94708251953125 -102.36294555664062 27.188446044921875
v -140.94708251953125 -102.36294555664062 21.08921241760254
v -140.94708251953125 -102.36276245117188 22.577110290527344
v -140.94944763183594 -103.4892578125 26.320369720458984
v -140.94708251953125 -102.36294555664062 27.188446044921875
v -140.94944763183594 -103.48928833007812 21.764690399169922
v -136.92315673828125 -108.0031967163086 24.278791427612305
v -139.93690490722656 -102.3625717163086 23.32771110534668
v -136.9248809814453 -102.36294555664062 27.18988800048828
v -138.93597412109375 -102.36294555664062 27.189167022705078
v -138.93597412109375 -102.36294555664062 27.189167022705078
v -136.9248809814453 -102.36294555664062 27.18988800048828
v -136.91561889648438 -102.36276245117188 24.152854919433594
v -136.9248809814453 -102.36294555664062 27.18988800048828
v -136.92025756835938 -102.36285400390625 25.671371459960938
v -140.94708251953125 -102.36294555664062 21.08921241760254
v -138.78512573242188 -104.52775573730469 20.858551025390625
v -139.93690490722656 -103.98660278320312 20.910667419433594
v -140.94708251953125 -102.3625717163086 24.065006256103516
v -139.9415283203125 -102.3626708984375 24.84622573852539
v -140.94708251953125 -102.36276245117188 22.577110290527344
v -140.94708251953125 -102.36294555664062 21.08921241760254
v -139.93690490722656 -102.36276245117188 21.839813232421875
v -136.92491149902344 -108.0031967163086 27.18988800048828
v -140.94944763183594 -102.94351196289062 26.008922576904297
v -136.78330993652344 -106.26557922363281 27.18988800048828
v -146.21246337890625 -103.50521850585938 25.909990310668945
v -146.21246337890625 -103.22743225097656 25.909988403320312
v -142.6591339111328 -104.41590118408203 25.91925811767578
v -142.65977478027344 -108.00299835205078 25.482187271118164
v -142.29371643066406 -107.92819213867188 25.033166885375977
v -142.29371643066406 -107.92826080322266 22.883188247680664
v -142.6591339111328 -104.9714584350586 25.91925811767578
v -146.21246337890625 -103.921875 26.09664535522461
v -147.98880004882812 -103.32764434814453 26.092010498046875
v -146.21246337890625 -103.2274398803711 22.0079345703125
v -142.65914916992188 -104.41590118408203 22.0172061920166
v -142.6597900390625 -104.27701568603516 21.830549240112305
v -144.43612670898438 -104.51611328125 21.825912475585938
v -142.6597900390625 -105.11034393310547 21.830549240112305
v -142.6591339111328 -104.9714584350586 22.0172061920166
v -149.76512145996094 -102.7334213256836 21.812007904052734
v -147.98880004882812 -103.32765197753906 21.81664276123047
v -144.435791015625 -104.37722778320312 22.012569427490234
v -142.6591339111328 -104.9714584350586 22.0172061920166
v -142.65914916992188 -104.41590118408203 22.0172061920166
v -146.21246337890625 -103.78298950195312 22.0079345703125
v -147.98880004882812 -102.49430847167969 21.81664276123047
v -149.76512145996094 -101.90007781982422 21.812007904052734
v -149.76577758789062 -102.03897857666016 21.99866485595703
v -146.21246337890625 -103.08854675292969 21.821277618408203
v -146.21246337890625 -103.92188262939453 21.821277618408203
v -144.43612670898438 -104.51611328125 26.101280212402344
v -151.09947204589844 -102.22205352783203 22.822021484375
v -150.13119506835938 -102.21920776367188 22.7997989654541
v -150.13119506835938 -101.36225128173828 23.28077507019043
v -149.76512145996094 -102.73341369628906 26.087377548217773
v -144.435791015625 -104.37722778320312 25.914623260498047
v -146.21246337890625 -103.78298950195312 25.909990310668945
v -150.13119506835938 -100.84857940673828 23.9400577545166
v -151.09947204589844 -100.85031127929688 23.96306800842285
v -151.09947204589844 -101.36398315429688 23.30379867553711
v -142.6597900390625 -105.11034393310547 26.105913162231445
v -151.09947204589844 -105.55298614501953 25.03762435913086
v -151.09947204589844 -103.52135467529297 25.27385139465332
v -150.13121032714844 -103.5196304321289 25.25084114074707
v -150.13119506835938 -105.55125427246094 25.01461410522461
v -149.76577758789062 -102.03897094726562 25.90071678161621
v -146.21246337890625 -103.08854675292969 26.096641540527344
v -142.6597900390625 -104.27701568603516 26.105913162231445
v -149.76512145996094 -101.90007781982422 26.087369918823242
v -151.09947204589844 -105.55305480957031 22.88764762878418
v -151.46554565429688 -105.62779235839844 22.45872688293457
v -151.4655303955078 -105.62779235839844 25.48663330078125
v -151.09947204589844 -105.55298614501953 25.03762435913086
v -151.09947204589844 -102.21981048583984 25.1025390625
v -150.13121032714844 -102.21807861328125 25.07952880859375
v -151.09947204589844 -101.36398315429688 24.62235450744629
v -150.13121032714844 -101.36225128173828 24.59934425354004
v -149.76513671875 -105.6260757446289 25.463642120361328
v -149.76513671875 -105.6260757446289 22.435733795166016
v -150.13119506835938 -105.5512924194336 22.86506462097168
v -141.325439453125 -105.89483642578125 22.624813079833984
v -142.293701171875 -105.89656066894531 22.647830963134766
v -142.29371643066406 -107.92826080322266 22.883188247680664
v -141.325439453125 -107.9264907836914 22.860605239868164
v -141.325439453125 -104.59440612792969 22.795339584350586
v -142.29371643066406 -104.59725189208984 22.817562103271484
v -141.325439453125 -103.73745727539062 23.276315689086914
v -142.29371643066406 -103.73917388916016 23.299341201782227
v -142.65977478027344 -108.00299835205078 22.454275131225586
v -147.98912048339844 -102.63320922851562 22.003299713134766
v -141.325439453125 -103.22378540039062 23.935598373413086
v -144.435791015625 -104.37722778320312 25.914623260498047
v -146.21246337890625 -103.78298950195312 25.909990310668945
v -142.6591339111328 -104.9714584350586 25.91925811767578
v -142.29371643066406 -107.92819213867188 25.033166885375977
v -142.29371643066406 -105.89656066894531 25.269392013549805
v -141.32545471191406 -105.89483642578125 25.246381759643555
v -141.325439453125 -107.92646026611328 25.010156631469727
v -142.29371643066406 -104.59500885009766 25.098079681396484
v -141.325439453125 -104.5932846069336 25.075069427490234
v -142.29371643066406 -103.73917388916016 24.617897033691406
v -141.325439453125 -103.73745727539062 24.594886779785156
v -142.29371643066406 -103.22550964355469 23.958608627319336
v -140.95181274414062 -108.00126647949219 25.459178924560547
v -140.95181274414062 -108.00126647949219 22.43126678466797
v -141.325439453125 -107.9264907836914 22.860605239868164
v -141.325439453125 -107.92646026611328 25.010156631469727
v -147.98912048339844 -102.6332015991211 25.905353546142578
v -146.21246337890625 -103.22743225097656 25.909988403320312
v -149.76577758789062 -102.59452819824219 25.90072250366211
v -147.98912048339844 -102.6332015991211 25.905353546142578
v -149.76577758789062 -102.03897094726562 25.90071678161621
v -150.13121032714844 -103.5196304321289 22.6292724609375
v -151.09945678710938 -103.52135467529297 22.65229034423828
v -151.09947204589844 -105.55305480957031 22.88764762878418
v -150.13119506835938 -105.5512924194336 22.86506462097168
v -150.13119506835938 -105.55125427246094 25.01461410522461
v -144.435791015625 -104.37722778320312 22.012569427490234
v -142.6591339111328 -104.41590118408203 25.91925811767578
v -146.21246337890625 -103.78298950195312 22.0079345703125
v -146.21246337890625 -103.50521850585938 22.0079345703125
v -149.76577758789062 -102.59452819824219 21.99866485595703
v -149.76577758789062 -102.59452819824219 25.90072250366211
v -146.21246337890625 -103.2274398803711 22.0079345703125
v -147.98912048339844 -102.63320922851562 22.003299713134766
v -149.76577758789062 -102.03897857666016 21.99866485595703
v -149.76577758789062 -102.59452819824219 21.99866485595703
v -138.72164916992188 -103.2857437133789 26.84932518005371
v -138.73341369628906 -102.7940444946289 27.189889907836914
v -137.8514404296875 -103.44327545166016 27.18988800048828
v -139.615478515625 -103.44203186035156 27.18988800048828
v -139.38473510742188 -103.80337524414062 26.849334716796875
v -139.8622283935547 -104.65923309326172 26.849342346191406
v -140.2383575439453 -104.53351593017578 27.189889907836914
v -140.47064208984375 -105.96378326416016 27.189889907836914
v -140.0354461669922 -105.95828247070312 26.849342346191406
v -137.4087677001953 -105.96145629882812 26.849292755126953
v -136.99615478515625 -105.96695709228516 27.18988609313965
v -137.21734619140625 -108.0031967163086 27.18988800048828
v -137.64627075195312 -108.0031967163086 26.849292755126953
v -140.24525451660156 -108.0031967163086 27.189889907836914
v -139.79705810546875 -108.0031967163086 26.84933090209961
v -151.4655303955078 -101.15059661865234 24.856853485107422
v -151.4655303955078 -100.50260925292969 23.97479248046875
v -151.09947204589844 -100.85031127929688 23.96306800842285
v -149.76513671875 -103.6738052368164 22.214536666870117
v -149.76513671875 -102.24044799804688 22.444625854492188
v -150.13119506835938 -102.21920776367188 22.7997989654541
v -150.13121032714844 -103.5196304321289 22.6292724609375
v -149.76513671875 -103.6706314086914 25.689023971557617
v -149.76512145996094 -104.70315551757812 25.463642120361328
v -150.13121032714844 -103.5196304321289 25.25084114074707
v -150.13119506835938 -105.55125427246094 25.01461410522461
v -149.76513671875 -104.70315551757812 22.435733795166016
v -150.13119506835938 -105.5512924194336 22.86506462097168
v -149.76513671875 -101.15011596679688 23.06981658935547
v -150.13119506835938 -101.36225128173828 23.28077507019043
v -149.76513671875 -105.6260757446289 22.435733795166016
v -149.76513671875 -105.6260757446289 25.463642120361328
v -151.09947204589844 -101.36398315429688 24.62235450744629
v -151.09947204589844 -102.21981048583984 25.1025390625
v -151.4655303955078 -102.24208068847656 25.47974967956543
v -137.5779571533203 -104.66156005859375 26.84929847717285
v -137.2262420654297 -104.53359985351562 27.18988800048828
v -138.0591278076172 -103.80461120605469 26.84930992126465
v -150.13121032714844 -102.21807861328125 25.07952880859375
v -149.76513671875 -102.2403564453125 25.456750869750977
v -150.13121032714844 -101.36225128173828 24.59934425354004
v -149.76513671875 -101.14887237548828 24.83385467529297
v -150.13119506835938 -100.84857940673828 23.9400577545166
v -149.76513671875 -100.50089263916016 23.951793670654297
v -151.09947204589844 -102.22205352783203 22.822021484375
v -151.46554565429688 -102.2421646118164 22.467626571655273
v -151.46554565429688 -103.67552185058594 22.237537384033203
v -151.09945678710938 -103.52135467529297 22.65229034423828
v -142.293701171875 -105.89656066894531 22.647830963134766
v -142.65977478027344 -106.05072784423828 22.233089447021484
v -142.6597900390625 -107.08008575439453 22.454275131225586
v -142.29371643066406 -107.92819213867188 25.033166885375977
v -142.6597900390625 -107.08008575439453 25.482187271118164
v -142.29371643066406 -105.89656066894531 25.269392013549805
v -142.65977478027344 -106.04755401611328 25.707576751708984
v -142.65977478027344 -108.00299835205078 25.482187271118164
v -142.29371643066406 -107.92826080322266 22.883188247680664
v -142.65977478027344 -108.00299835205078 22.454275131225586
v -142.29371643066406 -104.59500885009766 25.098079681396484
v -142.65977478027344 -104.6172866821289 25.475305557250977
v -142.65977478027344 -103.52580261230469 24.852407455444336
v -142.29371643066406 -103.73917388916016 24.617897033691406
v -142.29371643066406 -103.22550964355469 23.958608627319336
v -142.65977478027344 -102.87781524658203 23.970346450805664
v -142.65977478027344 -103.52704620361328 23.088369369506836
v -142.29371643066406 -103.73917388916016 23.299341201782227
v -142.65977478027344 -104.61737060546875 22.463178634643555
v -142.29371643066406 -104.59725189208984 22.817562103271484
v -151.09947204589844 -101.36398315429688 23.30379867553711
v -151.4655303955078 -101.1518325805664 23.09281349182129
v -151.46554565429688 -104.70487213134766 22.458724975585938
v -151.09947204589844 -105.55298614501953 25.03762435913086
v -151.4655303955078 -104.70487976074219 25.48663330078125
v -151.09947204589844 -103.52135467529297 25.27385139465332
v -151.4655303955078 -103.67234802246094 25.712024688720703
v -151.4655303955078 -105.62779235839844 25.48663330078125
v -151.09947204589844 -105.55305480957031 22.88764762878418
v -151.46554565429688 -105.62779235839844 22.45872688293457
v -140.95181274414062 -106.04899597167969 22.2100830078125
v -141.325439453125 -105.89483642578125 22.624813079833984
v -140.95179748535156 -107.07835388183594 22.431264877319336
v -140.95181274414062 -107.07835388183594 25.459177017211914
v -141.325439453125 -107.92646026611328 25.010156631469727
v -141.32545471191406 -105.89483642578125 25.246381759643555
v -140.95181274414062 -106.04582214355469 25.684566497802734
v -140.95181274414062 -108.00126647949219 25.459178924560547
v -141.325439453125 -107.9264907836914 22.860605239868164
v -140.95181274414062 -108.00126647949219 22.43126678466797
v -141.325439453125 -104.5932846069336 25.075069427490234
v -140.95181274414062 -104.61556243896484 25.452295303344727
v -141.325439453125 -103.73745727539062 24.594886779785156
v -140.95181274414062 -103.52407836914062 24.82939910888672
v -141.325439453125 -103.22378540039062 23.935598373413086
v -140.95181274414062 -102.87608337402344 23.94734001159668
v -140.95181274414062 -103.52531433105469 23.065359115600586
v -141.325439453125 -103.73745727539062 23.276315689086914
v -141.325439453125 -104.59440612792969 22.795339584350586
v -140.95181274414062 -104.61563873291016 22.440170288085938
v -150.13119506835938 -105.55125427246094 25.01461410522461
v -150.13119506835938 -105.5512924194336 22.86506462097168
v -151.09947204589844 -105.55305480957031 22.88764762878418
v -151.09947204589844 -105.55298614501953 25.03762435913086
v -141.325439453125 -107.92646026611328 25.010156631469727
v -141.325439453125 -107.9264907836914 22.860605239868164
v -142.29371643066406 -107.92826080322266 22.883188247680664
v -142.29371643066406 -107.92819213867188 25.033166885375977
v -149.76512145996094 -101.90007781982422 21.812007904052734
v -149.76513671875 -100.06978607177734 22.09520149230957
v -149.76577758789062 -102.03897857666016 21.99866485595703
v -149.76513671875 -101.15011596679688 23.06981658935547
v -149.76513671875 -100.06979370117188 25.756114959716797
v -149.76512145996094 -101.90007781982422 26.087369918823242
v -149.76577758789062 -102.03897094726562 25.90071678161621
v -149.76512145996094 -102.73341369628906 26.087377548217773
v -149.76512145996094 -104.70315551757812 25.756071090698242
v -149.76513671875 -103.6706314086914 25.689023971557617
v -149.76512145996094 -104.70315551757812 25.463642120361328
v -149.76513671875 -102.2403564453125 25.456750869750977
v -149.76577758789062 -102.59452819824219 25.90072250366211
v -149.76513671875 -103.6738052368164 22.214536666870117
v -149.76513671875 -104.70315551757812 22.435733795166016
v -149.76513671875 -104.70315551757812 22.143306732177734
v -149.76513671875 -102.24044799804688 22.444625854492188
v -149.76577758789062 -102.59452819824219 21.99866485595703
v -149.76512145996094 -102.7334213256836 21.812007904052734
v -149.76513671875 -100.50089263916016 23.951793670654297
v -149.76513671875 -99.4448013305664 23.925657272338867
v -149.76513671875 -101.14887237548828 24.83385467529297
v -142.65977478027344 -102.44672393798828 22.11373519897461
v -142.6597900390625 -104.27701568603516 21.830549240112305
v -142.65914916992188 -104.41590118408203 22.0172061920166
v -142.6591339111328 -104.9714584350586 22.0172061920166
v -142.6597900390625 -105.11034393310547 21.830549240112305
v -142.65977478027344 -106.05072784423828 22.233089447021484
v -142.65977478027344 -104.61737060546875 22.463178634643555
v -142.6597900390625 -104.27701568603516 26.105913162231445
v -142.65977478027344 -102.44672393798828 25.7746524810791
v -142.6591339111328 -104.41590118408203 25.91925811767578
v -142.6597900390625 -107.08008575439453 25.774614334106445
v -142.6597900390625 -105.11034393310547 26.105913162231445
v -142.65977478027344 -106.04755401611328 25.707576751708984
v -142.6591339111328 -104.9714584350586 25.91925811767578
v -142.6597900390625 -107.08008575439453 25.482187271118164
v -142.65977478027344 -104.6172866821289 25.475305557250977
v -142.6597900390625 -107.08008575439453 22.454275131225586
v -142.6597900390625 -107.08008575439453 22.161848068237305
v -142.65977478027344 -103.52704620361328 23.088369369506836
v -142.65977478027344 -102.87781524658203 23.970346450805664
v -142.65977478027344 -101.82173919677734 23.94419288635254
v -142.65977478027344 -103.52580261230469 24.852407455444336
v -149.76513671875 -100.06978607177734 22.09520149230957
v -149.76512145996094 -101.90007781982422 21.812007904052734
v -147.98880004882812 -101.12159729003906 22.029037475585938
v -146.21246337890625 -101.25825500488281 22.104469299316406
v -146.21246337890625 -102.17340087890625 21.962875366210938
v -142.6597900390625 -104.27701568603516 21.830549240112305
v -142.65977478027344 -102.44672393798828 22.11373519897461
v -144.43612670898438 -103.22520446777344 21.896713256835938
v -146.21246337890625 -103.08854675292969 21.821277618408203
v -147.98880004882812 -100.19528198242188 23.472675323486328
v -147.98880004882812 -100.50777435302734 22.557449340820312
v -145.32427978515625 -101.00851440429688 23.70843505859375
v -146.21246337890625 -100.63327026367188 23.934925079345703
v -144.43612670898438 -101.69624328613281 22.566715240478516
v -142.65977478027344 -101.82173919677734 23.94419288635254
v -144.43612670898438 -101.38375091552734 23.481945037841797
v -146.21246337890625 -100.94576263427734 23.019695281982422
v -144.43612670898438 -101.38375091552734 24.397174835205078
v -144.43612670898438 -101.69624328613281 25.31240463256836
v -144.43612670898438 -101.38375854492188 24.397174835205078
v -142.65977478027344 -101.82173919677734 23.94419288635254
v -144.43612670898438 -101.69624328613281 25.31240463256836
v -147.98880004882812 -100.50778198242188 25.30313491821289
v -149.76513671875 -100.06979370117188 25.756114959716797
v -147.98880004882812 -100.19528198242188 24.38790512084961
v -147.98880004882812 -100.50778198242188 25.30313491821289
v -149.76513671875 -100.06979370117188 25.756114959716797
v -147.98880004882812 -100.19528198242188 24.38790512084961
v -146.21246337890625 -101.25825500488281 25.765384674072266
v -144.43612670898438 -101.69624328613281 25.31240463256836
v -142.65977478027344 -102.44672393798828 25.7746524810791
v -146.21246337890625 -101.25825500488281 25.765384674072266
v -144.43612670898438 -101.85249328613281 25.77001953125
v -146.21246337890625 -102.17340087890625 25.931015014648438
v -142.65977478027344 -102.44672393798828 25.7746524810791
v -144.43612670898438 -101.85249328613281 25.77001953125
v -146.21246337890625 -101.25825500488281 25.765384674072266
v -144.43612670898438 -102.31005859375 25.852832794189453
v -144.43612670898438 -103.22520446777344 26.018463134765625
v -142.65977478027344 -102.44672393798828 25.7746524810791
v -142.6597900390625 -104.27701568603516 26.105913162231445
v -146.21246337890625 -103.08854675292969 26.096641540527344
v -147.10061645507812 -102.56263732910156 26.05291748046875
v -149.76512145996094 -101.90007781982422 26.087369918823242
v -147.98880004882812 -102.0367431640625 26.009193420410156
v -147.98880004882812 -101.12159729003906 25.843564987182617
v -147.98880004882812 -100.03903198242188 23.93029022216797
v -146.21246337890625 -100.63327026367188 23.934925079345703
v -146.21246337890625 -101.25825500488281 22.104469299316406
v -144.43612670898438 -101.85249328613281 22.109102249145508
v -142.65977478027344 -102.44672393798828 22.11373519897461
v -147.98880004882812 -102.49430847167969 21.81664276123047
v -144.43612670898438 -102.31005859375 22.038305282592773
v -144.43612670898438 -101.85249328613281 22.109102249145508
v -147.98880004882812 -102.0367431640625 21.887441635131836
v -145.3242950439453 -101.32099914550781 22.79320526123047
v -147.98880004882812 -100.03903198242188 23.93029022216797
v -149.76513671875 -99.4448013305664 23.925657272338867
v -147.98880004882812 -100.03903198242188 23.93029022216797
v -147.98880004882812 -100.19528198242188 24.38790512084961
v -149.76513671875 -99.4448013305664 23.925657272338867
v -146.21246337890625 -100.63327026367188 23.934925079345703
v -146.21246337890625 -100.94577026367188 24.850154876708984
v -147.1006317138672 -100.57052612304688 24.619029998779297
v -147.1006317138672 -100.57052612304688 24.619029998779297
v -146.21246337890625 -100.94576263427734 24.850154876708984
v -145.3242950439453 -101.32099914550781 25.081279754638672
v -145.3242950439453 -101.32100677490234 25.081279754638672
v -147.1006317138672 -100.88301086425781 22.33095932006836
v -147.1006317138672 -100.57052612304688 23.246185302734375
v -144.43612670898438 -101.22750854492188 23.939559936523438
v -144.43612670898438 -101.22750854492188 23.939559936523438
v -145.32427978515625 -101.00851440429688 24.16604995727539
v -145.3242950439453 -101.00851440429688 24.16604995727539
v -147.98880004882812 -100.66402435302734 25.76074981689453
v -147.1006317138672 -100.88301849365234 25.534259796142578
v -147.1006317138672 -100.88301849365234 25.534259796142578
v -147.98880004882812 -104.31251525878906 21.98229217529297
v -148.87696838378906 -104.0154037475586 21.9799747467041
v -149.76513671875 -104.70315551757812 22.143306732177734
v -149.76512145996094 -104.70315551757812 25.756071090698242
v -146.21246337890625 -103.921875 26.09664535522461
v -146.21246337890625 -104.90675354003906 25.930992126464844
v -142.6597900390625 -105.11034393310547 26.105913162231445
v -142.6597900390625 -107.08008575439453 25.774614334106445
v -146.21246337890625 -105.89161682128906 25.765342712402344
v -146.21246337890625 -104.90675354003906 21.986927032470703
v -146.21246337890625 -105.89161682128906 22.152576446533203
v -142.6597900390625 -105.11034393310547 21.830549240112305
v -142.6597900390625 -107.08008575439453 22.161848068237305
v -146.21246337890625 -103.92188262939453 21.821277618408203
v -147.98880004882812 -103.32765197753906 21.81664276123047
v -144.43612670898438 -104.51611328125 26.101280212402344
v -149.76512145996094 -102.7334213256836 21.812007904052734
v -148.876953125 -104.01539611816406 25.924041748046875
v -149.76512145996094 -102.73341369628906 26.087377548217773
v -147.98880004882812 -103.32764434814453 26.092010498046875
v -144.43612670898438 -104.51611328125 21.825912475585938
vn 0.0016395755810663104 0.9999970197677612 -0.0018011321080848575
vn 0 1 0
vn 0 1 0
vn 0.31724533438682556 0.9483435153961182 0
vn 0.31724533438682556 0.9483435153961182 0
vn 0.31724533438682556 0.9483435153961182 0
vn -0.2835375964641571 0.8035594820976257 -0.5233532190322876
vn 0 1 0
vn -0.14928989112377167 0.9496208429336548 -0.27555903792381287
vn 0.31724533438682556 0.9483435153961182 0
vn 0.31724533438682556 0.9483435153961182 0
vn 0.31724533438682556 0.9483435153961182 0
vn 0 1 0
vn 0 1 0
vn 0 1 0
vn -0.14928989112377167 0.9496208429336548 -0.27555903792381287
vn 0 1 0
vn 0.31724533438682556 0.9483435153961182 0
vn 0.2944077253341675 0.8008120059967041 -0.521559476852417
vn 0 1 0
vn 0.1551315039396286 0.9488971829414368 -0.27482399344444275
vn -0.0000022896845166542334 0.9999994039535522 0.0011137714609503746
vn 0 1 0
vn -0.0000022896845166542334 0.9999994039535522 0.0011137714609503746
vn -0.0000022896845166542334 0.9999994039535522 0.0011137714609503746
vn -0.002609464805573225 -3.8349387665448376e-8 0.9999966025352478
vn -0.002609464805573225 -3.8349387665448376e-8 0.9999966025352478
vn -0.002609464805573225 -3.8349387665448376e-8 0.9999966025352478
vn -0.002609464805573225 -3.8349387665448376e-8 0.9999966025352478
vn -0.0026094471104443073 0 0.9999966025352478
vn 0.31724727153778076 0.9483428597450256 0
vn 0.31724727153778076 0.9483428597450256 0
vn 0.31724727153778076 0.9483428597450256 0
vn 0.31724727153778076 0.9483428597450256 0
vn -0.002609464805573225 -3.8349387665448376e-8 0.9999966025352478
vn -0.002609455958008766 -1.9174693832724188e-8 0.9999966025352478
vn 0.317246675491333 0.94834303855896 0
vn 0.317246675491333 0.94834303855896 0
vn 0.317246675491333 0.94834303855896 0
vn 0.0026101854164153337 3.949966398408833e-8 -0.9999966025352478
vn 0.0026101674884557724 8.98118912573409e-10 -0.9999966025352478
vn 0.0026101854164153337 3.949966398408833e-8 -0.9999966025352478
vn 0.002610149560496211 -3.770342615894151e-8 -0.9999966025352478
vn 0.317246675491333 0.94834303855896 0
vn 0.0026101854164153337 3.949966398408833e-8 -0.9999966025352478
vn 0.0026101854164153337 3.949966398408833e-8 -0.9999966025352478
vn 0.31724727153778076 0.9483428597450256 0
vn 0.31724727153778076 0.9483428597450256 0
vn 0.0026101854164153337 3.949966398408833e-8 -0.9999966025352478
vn 0.317246675491333 0.94834303855896 0
vn 0.317246675491333 0.94834303855896 0
vn 0.00035828896216116846 -0.0015070127556100488 -0.9999988079071045
vn 0.0007391527760773897 -0.0004233699874021113 -0.9999996423721313
vn 0.0007391527760773897 -0.0004233699874021113 -0.9999996423721313
vn -0.833355188369751 -0.05591783672571182 0.549902081489563
vn -0.7115274667739868 -0.005278758704662323 0.7026384472846985
vn -0.8344212174415588 -0.010286112315952778 0.5510311126708984
vn -0.9255130290985107 -0.014901436865329742 0.3784225881099701
vn -0.5524924993515015 -0.12999281287193298 0.8233188390731812
vn -0.5588878393173218 -0.04594244435429573 0.8279696106910706
vn -0.6994305849075317 -0.1700640171766281 0.6941722631454468
vn -0.3835235834121704 -0.08473809063434601 0.9196352958679199
vn 0.9999962449073792 -5.028591765210422e-9 -0.0027373440098017454
vn 0.9999968409538269 0.0005350637366063893 -0.002451182808727026
vn 0.9999968409538269 0.0005350637366063893 -0.002451182808727026
vn 0.9999911785125732 0.0006268841680139303 0.004157843068242073
vn 0.9999911785125732 0.0006268841680139303 0.004157843068242073
vn 0.9999901056289673 -0.000014688001101603732 0.004444632213562727
vn -0.38134804368019104 -0.1530776172876358 0.9116693139076233
vn 0.9999968409538269 0.0005350637366063893 -0.002451182808727026
vn 0.000007148518761823652 -5.825447715324117e-7 -1
vn 0.000007148518761823652 -5.825447715324117e-7 -1
vn 0 -8.326256306645519e-7 -1
vn -0.0000011783654372266028 0.000001010636196951964 -1
vn 0 0 -1
vn 0 0 -1
vn 0 0 -1
vn 0 0 -1
vn 0.9999520778656006 -0.007889545522630215 -0.005795929580926895
vn 0.9999917149543762 -0.004071468021720648 5.103270268591587e-7
vn 0.9999917149543762 -0.004075699020177126 -4.867087568527495e-7
vn 0.9999917149543762 -0.004075699020177126 -4.867087568527495e-7
vn 0.9999963045120239 0 -0.0027264882810413837
vn 0.9999963045120239 0 -0.0027264882810413837
vn 0.002055789576843381 0.00022719282424077392 -0.9999978542327881
vn 0.0030282833613455296 0 -0.9999954104423523
vn 0.0030282833613455296 0 -0.9999954104423523
vn 0.002035803161561489 0 -0.9999979138374329
vn 0.9999901056289673 -0.000014688001101603732 0.004444632213562727
vn 0.9999955892562866 -0.000335775752319023 0.0029439814388751984
vn 0.9999955892562866 -0.000335775752319023 0.0029439814388751984
vn -0.830708920955658 0.11861976981163025 0.5439227819442749
vn -0.8348211050033569 0.03504623845219612 0.5494047403335571
vn -0.7745450139045715 0.09745702147483826 0.6249656677246094
vn -0.7040157318115234 0.15857769548892975 0.6922535300254822
vn -0.7101736068725586 0.07690960168838501 0.6998129487037659
vn 0.000023281945686903782 -1 0.000031898915040073916
vn -0.00003367870522197336 -1 -0.00007601264223922044
vn -0.00002243820927105844 -1 -0.0000904808402992785
vn -0.000044919204810867086 -1 -0.00006154443690320477
vn -0.00003367870522197336 -1 -0.00007601264223922044
vn -0.00002243820927105844 -1 -0.0000904808402992785
vn -0.00002243820927105844 -1 -0.0000904808402992785
vn -0.3857054114341736 0.09359443932771683 0.9178624153137207
vn -0.0003543971397448331 0.14908647537231445 0.9888240694999695
vn -0.007053894456475973 0.0139689352363348 0.9998775720596313
vn -0.000011197710591659416 -1 -0.00010494903835933656
vn 4.278776088995073e-8 -1 -0.00011941724369535223
vn -0.000011197710591659416 -1 -0.00010494903835933656
vn -0.000011197710591659416 -1 -0.00010494903835933656
vn -0.9212364554405212 -0.10427911579608917 0.374765545129776
vn -0.821872353553772 -0.1691708117723465 0.5439733266830444
vn -0.8265640139579773 -0.13991902768611908 0.5451740026473999
vn -0.7079052925109863 -0.08797290176153183 0.7008073329925537
vn -0.9997475743293762 -0.022274022921919823 -0.0029344637878239155
vn -0.9774121046066284 -0.09410324692726135 0.18923577666282654
vn -0.9797300100326538 -0.0645439550280571 0.18963930010795593
vn -0.9583640098571777 0.0066721029579639435 0.28547167778015137
vn -0.9815655946731567 0.026364969089627266 0.18929843604564667
vn -0.924464762210846 0.07395859807729721 0.3740256726741791
vn -0.9995627999305725 0.02951379306614399 -0.0017691307002678514
vn 0.9999970197677612 -0.002037855563685298 -0.001363491523079574
vn 4.278776088995073e-8 -1 -0.00011941724369535223
vn 4.278776088995073e-8 -1 -0.00011941724369535223
vn 0.9999955892562866 -0.000335775752319023 0.0029439814388751984
vn 0.999996542930603 -0.0022057436872273684 0.0014717516023665667
vn 0.9999963045120239 0 -0.0027264882810413837
vn 0.9999963045120239 0 -0.0027264882810413837
vn 0.9999957084655762 -0.00033577578142285347 0.0029439819045364857
vn -0.9185242056846619 0.12951180338859558 0.3735503852367401
vn -0.000011197710591659416 -1 -0.00010494903835933656
vn 4.278776088995073e-8 -1 -0.00011941724369535223
vn 4.278776088995073e-8 -1 -0.00011941724369535223
vn 0.00035828896216116846 -0.0015070127556100488 -0.9999988079071045
vn 0.00035828896216116846 -0.0015070127556100488 -0.9999988079071045
vn -0.9134508967399597 -0.1619248390197754 0.37334689497947693
vn -0.9915497899055481 -0.1296912431716919 -0.0030324633698910475
vn -0.9707269072532654 -0.14859814941883087 0.18870027363300323
vn -0.00653235474601388 -0.11331786960363388 0.9935373067855835
vn -0.3888489007949829 0.004702550824731588 0.9212895631790161
vn -0.19926154613494873 -0.036104414612054825 0.9792810678482056
vn 4.278776088995073e-8 -1 -0.00011941724369535223
vn 4.278776088995073e-8 -1 -0.00011941724369535223
vn 0.00004576294304570183 -1 0.0000029625116440001875
vn 0.00009148309618467465 -1 0.0001253422669833526
vn 0.000034522443456808105 -1 0.000017430713342037052
vn -0.9966958165168762 0.08122241497039795 -0.0005990503123030066
vn 0.9999970197677612 -0.002037855563685298 -0.001363491523079574
vn 0.000003574259380911826 -2.9127238576620584e-7 -1
vn 0.002604895969852805 -0.000012206840438011568 -0.9999966025352478
vn 0.002604895969852805 -0.000012206840438011568 -0.9999966025352478
vn 0.002604895969852805 -0.000012206840438011568 -0.9999966025352478
vn -0.20025920867919922 0.9797429442405701 -0.000030903858714737
vn -0.20025920867919922 0.9797429442405701 -0.000030903858714737
vn -0.20025920867919922 0.9797429442405701 -0.000030903858714737
vn -0.25789952278137207 -0.7755717635154724 -0.5761738419532776
vn -0.25778433680534363 -0.7751606106758118 -0.5767784714698792
vn -0.25784197449684143 -0.7753663063049316 -0.5764762163162231
vn 0.2578931152820587 0.7755531072616577 0.5762017965316772
vn 0.2578931152820587 0.7755531072616577 0.5762017965316772
vn 0.2578931152820587 0.7755531072616577 0.5762017965316772
vn -0.26053231954574585 -0.7743455171585083 0.5766384601593018
vn -0.2604762315750122 -0.7741398215293884 0.5769399404525757
vn -0.2607003450393677 -0.7749620079994202 0.5757336020469666
vn -0.2607003450393677 -0.7749620079994202 0.5757336020469666
vn -0.26064440608024597 -0.7747567296028137 0.5760353207588196
vn -0.0026089963503181934 -4.696845579132969e-8 0.9999966025352478
vn -0.002609000774100423 -6.262460772177292e-8 0.9999966025352478
vn -0.002608983777463436 0 0.9999966025352478
vn -0.0026089921593666077 -3.131230386088646e-8 0.9999966025352478
vn 0.257721483707428 0.774940550327301 0.5771020650863647
vn 0.25766420364379883 0.7747361660003662 0.5774019956588745
vn 0.2578931152820587 0.7755531072616577 0.5762017965316772
vn 0.25777873396873474 0.7751449346542358 0.5768020749092102
vn -0.2605883777141571 -0.7745512127876282 0.5763369202613831
vn -0.25772663950920105 -0.7749547958374023 -0.5770806074142456
vn -0.3477310240268707 -0.3033350110054016 0.8871701955795288
vn 0.3692307472229004 -0.3007751703262329 0.8793196082115173
vn 0.345635324716568 -0.6128765344619751 0.7105762362480164
vn -0.25789952278137207 -0.7755717635154724 -0.5761738419532776
vn -0.25789952278137207 -0.7755717635154724 -0.5761738419532776
vn -0.25789952278137207 -0.7755717635154724 -0.5761738419532776
vn 0.4047549366950989 -0.9144176840782166 0.00370348384603858
vn -0.4032331109046936 -0.9150897860527039 0.003709327196702361
vn -0.32769155502319336 -0.6170967221260071 0.7154088616371155
vn -0.25766894221305847 -0.7747489213943481 -0.5773827433586121
vn -0.5344346165657043 0.07153481245040894 -0.8421772122383118
vn -0.4961516857147217 0.02517082914710045 -0.8678709268569946
vn 0.48036256432533264 0.025430019944906235 -0.876701295375824
vn 0.5220457911491394 0.07218506187200546 -0.8498573303222656
vn 0.26070520281791687 0.7749745845794678 -0.5757144689559937
vn 0.26059117913246155 0.7745562195777893 -0.5763287544250488
vn 0.26070520281791687 0.7749745845794678 -0.5757144689559937
vn 0.2604770362377167 0.7741374373435974 -0.5769427418708801
vn -0.20027662813663483 0.9797393679618835 -0.00003090374593739398
vn -0.4032035171985626 0.8641911745071411 0.3009992837905884
vn -0.32326263189315796 0.7311071753501892 -0.6008191108703613
vn -0.20027662813663483 0.9797393679618835 -0.00003090374593739398
vn -0.38276103138923645 -0.2993989586830139 -0.8739875555038452
vn 0.36246031522750854 -0.302040696144104 -0.8816994428634644
vn -0.36199507117271423 -0.6079409122467041 -0.7066593766212463
vn 0.3462994396686554 -0.6118193864822388 -0.7111636400222778
vn 0.20025843381881714 0.9797431230545044 -0.00001545511622680351
vn 0.20015312731266022 0.9797646403312683 0
vn 0.20025843381881714 0.9797431230545044 -0.00001545511622680351
vn 0.47571584582328796 0.025706643238663673 0.8792232871055603
vn -0.4652402400970459 0.02569279633462429 0.884811520576477
vn -0.5069099068641663 0.07245582342147827 0.8589484691619873
vn 0.5133159756660461 0.07204624265432358 0.8551701903343201
vn 0.3644677996635437 -0.301370769739151 0.8811009526252747
vn -0.3477303981781006 -0.303335040807724 0.8871704339981079
vn 0.3408849239349365 -0.6140241622924805 0.7118790745735168
vn -0.3276902139186859 -0.6170980930328369 0.7154083251953125
vn -0.2000485509634018 0.9797859787940979 0
vn 0.2578931152820587 0.7755531072616577 0.5762017965316772
vn 0.3993430733680725 -0.9167937636375427 0.0037803028244525194
vn 0.002607242437079549 -0.000003051710109502892 -0.9999966025352478
vn 0.0026064603589475155 -0.000006103420219005784 -0.9999966025352478
vn 0.002608024515211582 0 -0.9999966025352478
vn -0.5344287753105164 0.07153116166591644 -0.8421812057495117
vn -0.49614861607551575 0.025173304602503777 -0.8678725957870483
vn 0.4748310148715973 0.025698713958263397 -0.8797016739845276
vn 0.5160272121429443 0.07233965396881104 -0.8535121083259583
vn -0.3827610909938812 -0.299398273229599 -0.8739877939224243
vn 0.35766372084617615 -0.30263400077819824 -0.8834530711174011
vn -0.3619954586029053 -0.6079409122467041 -0.7066591382026672
vn 0.34149232506752014 -0.6129610538482666 -0.7125038504600525
vn -0.40322935581207275 -0.9150914549827576 0.003709198208525777
vn 0.19634279608726501 0.9805353283882141 -0.00001546761268400587
vn 0.19623935222625732 0.9805560111999512 0
vn 0.19634279608726501 0.9805353283882141 -0.00001546761268400587
vn 0.19634279608726501 0.9805353283882141 -0.00001546761268400587
vn 0.26070523262023926 0.7749746441841125 -0.5757144689559937
vn 0.26070523262023926 0.7749747037887573 -0.5757145285606384
vn 0.002604895969852805 -0.000012206840438011568 -0.9999966025352478
vn 0.002604895969852805 -0.000012206840438011568 -0.9999966025352478
vn 0.002604895969852805 -0.000012206840438011568 -0.9999966025352478
vn 0.48122501373291016 0.025444271042943 0.8762277364730835
vn -0.46523919701576233 0.025693150237202644 0.88481205701828
vn -0.5069066882133484 0.07245636731386185 0.8589503169059753
vn 0.5193061828613281 0.07190167903900146 0.8515580892562866
vn 0.20025843381881714 0.9797431230545044 -0.00001545511622680351
vn -0.2607003450393677 -0.7749620676040649 0.5757336616516113
vn 0.26070520281791687 0.7749745845794678 -0.5757144689559937
vn -0.26070037484169006 -0.7749621272087097 0.5757336616516113
vn -0.002608983777463436 0 0.9999966025352478
vn -0.002608983777463436 0 0.9999966025352478
vn -0.25789952278137207 -0.7755717635154724 -0.5761738419532776
vn -0.002608983777463436 0 0.9999966025352478
vn -0.002608983777463436 0 0.9999966025352478
vn -0.002608983777463436 0 0.9999966025352478
vn -0.2607003450393677 -0.7749620079994202 0.5757336020469666
vn 0.01887054741382599 -0.7121644020080566 -0.7017590403556824
vn 0.004594363737851381 0.5694370865821838 -0.8220220804214478
vn 0.4986911714076996 0.4252203702926636 -0.7553110122680664
vn -0.48563048243522644 0.4295780062675476 -0.7613315582275391
vn 0.46471765637397766 -0.38999366760253906 -0.7949481010437012
vn 0.5110065937042236 -0.1462833136320114 -0.8470380306243896
vn -0.6152429580688477 0.21428535878658295 -0.758655309677124
vn -0.6336418390274048 0.01873789168894291 -0.7733995914459229
vn 0.5020755529403687 -0.0007364622433669865 -0.8648234605789185
vn -0.4893937110900879 0.001141170272603631 -0.8720622062683105
vn 0.6555457711219788 0.019481873139739037 -0.7549040913581848
vn 0.6344773173332214 -0.06892243772745132 -0.7698624730110168
vn -0.2835375964641571 0.8035594820976257 -0.5233532190322876
vn -0.6143074035644531 -0.06788936257362366 -0.7861408591270447
vn 0.2944077253341675 0.8008120059967041 -0.521559476852417
vn -0.9057703018188477 -0.2830474376678467 -0.3153795897960663
vn -0.9188541769981384 -0.3945866823196411 0.002886691363528371
vn -0.4032331109046936 -0.9150897860527039 0.003709327196702361
vn 0.7348087430000305 0.009984495118260384 0.6782008409500122
vn 0.6604655385017395 -0.255452036857605 0.7060661911964417
vn 0.3692307472229004 -0.3007751703262329 0.8793196082115173
vn 0.48122501373291016 0.025444271042943 0.8762277364730835
vn 0.7531138062477112 0.010003290139138699 -0.6578142046928406
vn 0.7516103386878967 0.07240740209817886 -0.6556211113929749
vn 0.48036256432533264 0.025430019944906235 -0.876701295375824
vn 0.5220457911491394 0.07218506187200546 -0.8498573303222656
vn 0.7348468899726868 0.0737910270690918 0.6742069125175476
vn 0.5193061828613281 0.07190167903900146 0.8515580892562866
vn 0.631766140460968 -0.5074211359024048 0.5859994292259216
vn 0.345635324716568 -0.6128765344619751 0.7105762362480164
vn 0.7609500885009766 0 0.6488104462623596
vn 0.775075376033783 -0.000011384478057152592 -0.6318687796592712
vn -0.36199507117271423 -0.6079409122467041 -0.7066593766212463
vn -0.38276103138923645 -0.2993989586830139 -0.8739875555038452
vn -0.919185221195221 -0.13205468654632568 -0.3710256814956665
vn -0.504719078540802 -0.14073066413402557 -0.8517355918884277
vn 0.6384888887405396 0.22652269899845123 -0.7355402112007141
vn -0.46275976300239563 -0.383333683013916 -0.7993176579475403
vn 0.36246031522750854 -0.302040696144104 -0.8816994428634644
vn 0.6888489127159119 -0.24328723549842834 -0.6828605532646179
vn 0.3462994396686554 -0.6118193864822388 -0.7111636400222778
vn 0.6398423910140991 -0.5131009221076965 -0.5721269249916077
vn 0.4047549366950989 -0.9144176840782166 0.00370348384603858
vn 0.6885790824890137 -0.7251418828964233 0.005304134916514158
vn -0.3477310240268707 -0.3033350110054016 0.8871701955795288
vn -0.9113436937332153 -0.1399049013853073 0.38714244961738586
vn -0.9312520623207092 0.005339992232620716 0.3643365204334259
vn -0.46523919701576233 0.025693150237202644 0.88481205701828
vn -0.4652402400970459 0.02569279633462429 0.884811520576477
vn -0.734517514705658 0.00993769709020853 0.6785169243812561
vn -0.7346572875976562 0.07374469190835953 0.6744185090065002
vn -0.5344287753105164 0.07153116166591644 -0.8421812057495117
vn -0.7516138553619385 0.07240564376115799 -0.6556172966957092
vn -0.49614861607551575 0.025173304602503777 -0.8678725957870483
vn -0.753127932548523 0.01000437792390585 -0.6577980518341064
vn -0.7750717997550964 -0.000011390660802135244 -0.6318731307983398
vn -0.5069099068641663 0.07245582342147827 0.8589484691619873
vn -0.760637640953064 -0.000011176058251294307 0.6491766571998596
vn -0.3827610909938812 -0.299398273229599 -0.8739877939224243
vn -0.6888666152954102 -0.2432803213596344 -0.6828451156616211
vn -0.6398516893386841 -0.5130953788757324 -0.5721214413642883
vn -0.3619954586029053 -0.6079409122467041 -0.7066591382026672
vn -0.40322935581207275 -0.9150914549827576 0.003709198208525777
vn -0.6885860562324524 -0.7251352071762085 0.005304896738380194
vn -0.6317719221115112 -0.5074182152748108 0.5859957337379456
vn -0.3276902139186859 -0.6170980930328369 0.7154083251953125
vn -0.6601448655128479 -0.25549551844596863 0.7063503265380859
vn -0.3477303981781006 -0.303335040807724 0.8871704339981079
vn -0.32769155502319336 -0.6170967221260071 0.7154088616371155
vn -0.9032777547836304 -0.28104647994041443 0.32419469952583313
vn -0.817423939704895 0.474158376455307 0.32709619402885437
vn -0.5344346165657043 0.07153481245040894 -0.8421772122383118
vn -0.6427640318870544 0.417351096868515 -0.6423958539962769
vn -0.4961516857147217 0.02517082914710045 -0.8678709268569946
vn -0.9365383982658386 0.005484947003424168 -0.3505220413208008
vn -0.32326263189315796 0.7311071753501892 -0.6008191108703613
vn -0.5069066882133484 0.07245636731386185 0.8589503169059753
vn -0.4032035171985626 0.8641911745071411 0.3009992837905884
vn 0.7278975248336792 0.010243597440421581 0.6856094002723694
vn 0.47571584582328796 0.025706643238663673 0.8792232871055603
vn 0.7279525995254517 0.0745905339717865 0.6815580129623413
vn 0.7449276447296143 0.07323750853538513 -0.6631131172180176
vn 0.5160272121429443 0.07233965396881104 -0.8535121083259583
vn 0.4748310148715973 0.025698713958263397 -0.8797016739845276
vn 0.746444046497345 0.01025649718940258 -0.6653691530227661
vn 0.7686893939971924 -0.0000011793154044426046 -0.6396222710609436
vn 0.5133159756660461 0.07204624265432358 0.8551701903343201
vn 0.7543514370918274 -0.0000098801901913248 0.6564708352088928
vn 0.35766372084617615 -0.30263400077819824 -0.8834530711174011
vn 0.6814454793930054 -0.24553337693214417 -0.6894530057907104
vn 0.34149232506752014 -0.6129610538482666 -0.7125038504600525
vn 0.6321077942848206 -0.5173124074935913 -0.5769121646881104
vn 0.3993430733680725 -0.9167937636375427 0.0037803028244525194
vn 0.6811402440071106 -0.7321342825889587 0.005227692890912294
vn 0.6239818930625916 -0.5115485787391663 0.5907322764396667
vn 0.3408849239349365 -0.6140241622924805 0.7118790745735168
vn 0.3644677996635437 -0.301370769739151 0.8811009526252747
vn 0.6528527140617371 -0.2575872242450714 0.7123427391052246
vn -0.001821373589336872 0.9999983310699463 -0.00001577463626745157
vn -0.001821373589336872 0.9999983310699463 -0.00001577463626745157
vn -0.001821373589336872 0.9999983310699463 -0.00001577463626745157
vn -0.001786735956557095 0.9999983906745911 -0.00003154300429741852
vn -0.001821373589336872 0.9999983310699463 -0.00001577463626745157
vn -0.001821373589336872 0.9999983310699463 -0.00001577463626745157
vn -0.001821373589336872 0.9999983310699463 -0.00001577463626745157
vn -0.001786735956557095 0.9999983906745911 -0.00003154300429741852
vn 0.9999949932098389 -0.00047730313963256776 0.0031327365431934595
vn 1 0 0
vn 0.9999998807907104 -0.0003070409584324807 -0.0003403451119083911
vn 0.9999998807907104 -0.0003070409584324807 -0.0003403451119083911
vn 0.9999998807907104 -0.0002981146681122482 0.00034880556631833315
vn 0.9999951124191284 -0.00054981152061373 -0.0030788294970989227
vn 0.9999991655349731 0.0006509293452836573 0.001140603912062943
vn 0.9999958276748657 0.001115315710194409 -0.0026580817066133022
vn 1 0.000013136116649548057 0
vn 0.9999986290931702 0.00026788373361341655 0.0016495537711307406
vn 1 0.000013136116649548057 0
vn 0.9999991655349731 0.0006509293452836573 0.001140603912062943
vn 0.9999989867210388 1.7527456819266263e-8 0.0014358668122440577
vn 1 -0.000002007192961173132 0.00002900623803725466
vn 1 0 0
vn 1 -0.000002007192961173132 0.00002900623803725466
vn 0.9999991655349731 0.0006510001257993281 -0.0011353451991453767
vn 0.9999989867210388 0 -0.0014294444117695093
vn 1 -0.000002007192961173132 0.00002900623803725466
vn 1 0 0
vn 1 0 0
vn 0.9999991655349731 0.0006509293452836573 0.001140603912062943
vn -1 0 0
vn -0.9999951720237732 -0.0004672147042583674 0.003067596582695842
vn -0.9999998807907104 -0.00030051160138100386 -0.0003330990730319172
vn -0.9999989867210388 -0.00002441403739794623 -0.0014100226107984781
vn -1 0.000009335213690064847 0.00005550259811570868
vn -1 0.000009335213690064847 0.00005550259811570868
vn -0.9999991655349731 0.0006371387280523777 -0.001111163874156773
vn -0.9999951124191284 -0.0005498184473253787 -0.0030788162257522345
vn -0.9999998807907104 -0.000298113445751369 0.0003488105139695108
vn -0.9999991655349731 0.0006509508239105344 0.0011406345292925835
vn -1 0.000013136030247551389 0
vn -0.9999958276748657 0.0011152643710374832 -0.0026580551639199257
vn -0.9999986290931702 0.0002678966848179698 0.0016496333992108703
vn -0.9999989867210388 0 0.0014359131455421448
vn -1 0.000013136030247551389 0
vn -0.9999991655349731 0.0006509508239105344 0.0011406345292925835
vn -1 0.000013176532775105443 0
vn -1 0.000009335213690064847 0.00005550259811570868
vn -0.9999998807907104 -0.00030051160138100386 -0.0003330990730319172
vn -1 0 0
vn -1 0 0
vn -0.9999991655349731 0.0006509508239105344 0.0011406345292925835
vn -0.20860324800014496 -0.6176610589027405 0.7582740187644958
vn -0.0536528043448925 -0.1526859998703003 0.9868173003196716
vn -0.17403057217597961 -0.5136744976043701 0.8401498794555664
vn -0.20860272645950317 -0.617660403251648 0.7582747340202332
vn -0.1362014263868332 -0.4000760614871979 0.9063048362731934
vn -0.0536528043448925 -0.1526859998703003 0.9868173003196716
vn -0.2086021900177002 -0.6176596879959106 0.7582754492759705
vn -0.09582364559173584 -0.2789912521839142 0.9555007815361023
vn -0.0536528043448925 -0.1526859998703003 0.9868173003196716
vn -0.3104359805583954 -0.9263196587562561 0.21345111727714539
vn -0.2548319399356842 -0.7570751309394836 0.6015796065330505
vn -0.3156663477420807 -0.9427831768989563 0.10730680823326111
vn -0.31724613904953003 -0.9483432173728943 -0.0000792776481830515
vn -0.254831463098526 -0.7570745348930359 0.6015804409980774
vn -0.3172459602355957 -0.9483432769775391 -0.00007853368151700124
vn -0.3104356825351715 -0.9263195991516113 0.2134518325328827
vn -0.289306104183197 -0.8615679144859314 0.41713640093803406
vn -0.30964386463165283 -0.9272589683532715 -0.21050284802913666
vn -0.25380274653434753 -0.7633244395256042 -0.5940706133842468
vn -0.3010872006416321 -0.902442216873169 -0.30813074111938477
vn -0.3010872006416321 -0.902442216873169 -0.30813074111938477
vn -0.3010872006416321 -0.902442216873169 -0.30813074111938477
vn -0.25380250811576843 -0.7633241415023804 -0.594071090221405
vn -0.20806387066841125 -0.6278148293495178 -0.7500386238098145
vn -0.30964401364326477 -0.9272588491439819 -0.21050359308719635
vn -0.3010872006416321 -0.902442216873169 -0.30813074111938477
vn -0.3010872006416321 -0.902442216873169 -0.30813074111938477
vn -0.3010872006416321 -0.902442216873169 -0.30813074111938477
vn -0.3010872006416321 -0.902442216873169 -0.30813074111938477
vn -0.3010872006416321 -0.902442216873169 -0.30813074111938477
vn -0.3010872006416321 -0.902442216873169 -0.30813074111938477
vn -0.20806413888931274 -0.6278152465820312 -0.7500382661819458
vn -0.20806428790092468 -0.6278154253959656 -0.7500380277633667
vn -0.13737407326698303 -0.4176574945449829 -0.8981595635414124
vn -0.20806442201137543 -0.6278156042098999 -0.7500378489494324
vn -0.20806428790092468 -0.6278154253959656 -0.7500380277633667
vn -0.20806413888931274 -0.6278152465820312 -0.7500382661819458
vn -0.17427514493465424 -0.5274454951286316 -0.8315224051475525
vn -0.09802042692899704 -0.30041247606277466 -0.9487594366073608
vn -0.20806442201137543 -0.6278156042098999 -0.7500378489494324
vn -0.056916579604148865 -0.17780344188213348 -0.9824186563491821
vn -0.056916579604148865 -0.17780344188213348 -0.9824186563491821
vn -0.07764197885990143 -0.2396434098482132 -0.9677513241767883
vn -0.056916579604148865 -0.17780344188213348 -0.9824186563491821
vn -0.09802042692899704 -0.30041247606277466 -0.9487594366073608
vn -0.17427484691143036 -0.5274450778961182 -0.8315227031707764
vn -0.31724628806114197 -0.9483432769775391 -0.00007964963879203424
vn -0.31724613904953003 -0.9483432173728943 -0.0000792776481830515
vn -0.20860272645950317 -0.617660403251648 0.7582747340202332
vn -0.20860245823860168 -0.6176600456237793 0.7582750916481018
vn -0.2086021900177002 -0.6176596879959106 0.7582754492759705
vn -0.0536528043448925 -0.1526859998703003 0.9868173003196716
vn -0.17403002083301544 -0.513673722743988 0.8401505351066589
vn -0.20860245823860168 -0.6176600456237793 0.7582750916481018
vn -0.09582364559173584 -0.2789912521839142 0.9555007815361023
vn -0.27365121245384216 -0.8140284419059753 0.5123209357261658
vn -0.31724628806114197 -0.9483432769775391 -0.00007964963879203424
vn -0.31724634766578674 -0.9483431577682495 -0.00008002161484910175
vn -0.3010872006416321 -0.902442216873169 -0.30813074111938477
vn -0.3010872006416321 -0.902442216873169 -0.30813074111938477
vn -0.3010872006416321 -0.902442216873169 -0.30813074111938477
vn -0.3010872006416321 -0.902442216873169 -0.30813074111938477
vn -0.3010872006416321 -0.902442216873169 -0.30813074111938477
vn -0.3010872006416321 -0.902442216873169 -0.30813074111938477
vn -0.3005971610546112 -0.901012659072876 -0.3127577304840088
vn -0.28817570209503174 -0.8646513223648071 -0.4115006923675537
vn -0.27251899242401123 -0.8185828328132629 -0.5056239366531372
vn -0.3010872006416321 -0.902442216873169 -0.30813074111938477
vn -0.23306502401828766 -0.6913655996322632 0.6838817000389099
vn -0.3016151487827301 -0.8991431593894958 0.3171275854110718
vn -0.3010872006416321 -0.902442216873169 -0.30813074111938477
vn -0.31724604964256287 -0.9483432769775391 -0.00007890566485002637
vn -0.3152143657207489 -0.9430949687957764 -0.10588543117046356
vn -0.3010872006416321 -0.902442216873169 -0.30813074111938477
vn -0.208064004778862 -0.6278150081634521 -0.7500384449958801
vn -0.23223695158958435 -0.6994962096214294 -0.6758484244346619
vn -0.3010872006416321 -0.902442216873169 -0.30813074111938477
vn 0.05283896625041962 0.16563281416893005 0.9847710132598877
vn 0.05283896625041962 0.16563284397125244 0.9847709536552429
vn 0.05283896252512932 0.16563275456428528 0.9847709536552429
vn 0.05796224623918533 0.16558559238910675 -0.9844906330108643
vn 0.0579623244702816 0.16558724641799927 -0.9844903349876404
vn 0.05796224623918533 0.16558559238910675 -0.9844906330108643
vn 0.05796224623918533 0.16558559238910675 -0.9844906330108643
vn 0.05796224623918533 0.16558559238910675 -0.9844906330108643
vn 0.05796224623918533 0.16558559238910675 -0.9844906330108643
vn 0.05283896252512932 0.16563275456428528 0.9847709536552429
vn 0.05283896252512932 0.16563275456428528 0.9847709536552429
vn 0.05283896252512932 0.16563275456428528 0.9847709536552429
vn 0.05283896252512932 0.16563275456428528 0.9847709536552429
vn 0.052838973701000214 0.16563287377357483 0.9847710132598877
vn 0.052838973701000214 0.1656329184770584 0.9847709536552429
vn 0.05796228349208832 0.1655864119529724 -0.9844905138015747
vn 0.052838973701000214 0.165632963180542 0.9847708940505981
vn 0.05796230956912041 0.16558682918548584 -0.9844904541969299
vn 0.05796240270137787 0.1655888855457306 -0.9844900369644165
vn 0.05796237289905548 0.16558808088302612 -0.9844902753829956
vn 0.05283896625041962 0.16563281416893005 0.9847710132598877
vt 0.9232937097549438 0.13115417957305908
vt 0.6890771389007568 0.1275644302368164
vt 0.9223303198814392 -0.05918598175048828
vt 0.7725132703781128 11.877933502197266
vt 0.11785103380680084 12.133309364318848
vt 0.11785103380680084 11.62147331237793
vt 0.2515987455844879 0.9207525253295898
vt 0.20848199725151062 0.5545898377895355
vt 0.2520606517791748 0.5241585373878479
vt 1.4271759986877441 11.6227445602417
vt 1.427175521850586 12.134392738342285
vt 0.7725135087966919 11.622108459472656
vt 0.16444145143032074 0.9816151261329651
vt 0.1050189882516861 0.9816153645515442
vt 0.1343737542629242 0.4613437056541443
vt 0.4703379273414612 0.5241584777832031
vt 0.2525225281715393 0.12756454944610596
vt 0.7725132703781128 12.133851051330566
vt 0.6886430978775024 0.9207522869110107
vt 0.10430606454610825 -0.05892765522003174
vt 0.6888601183891296 0.5241583585739136
vt 0.9232937097549438 0.6723023056983948
vt 0.10466252267360687 0.46134382486343384
vt 0.7797204256057739 0.9816151261329651
vt 0.9223308563232422 0.9813570380210876
vt -0.19021499156951904 0
vt 0 0
vt -0.09510749578475952 1
vt 0 2
vt -0.19021499156951904 2
vt 0 0
vt 0 1
vt 0.057545896619558334 2
vt 0 2
vt 0 1
vt -0.19021499156951904 1
vt 0.057545896619558334 2
vt 0 2
vt 0 1
vt -0.19021499156951904 0
vt -0.19021499156951904 1
vt -0.09510749578475952 1
vt -0.19021499156951904 2
vt 0 0
vt 0 0
vt 0 1
vt 0.057545896619558334 1
vt 0.057545896619558334 0
vt 0 2
vt 0.057545896619558334 1
vt 0.057545896619558334 0
vt 0.14551478624343872 0.9977655410766602
vt 0.3329685926437378 0.8067771196365356
vt 0.22063153982162476 0.613594114780426
vt 1.1097640991210938 0.7095282077789307
vt 0.8168988227844238 0.6160597205162048
vt 1.1126741170883179 0.6160431504249573
vt 1.408449411392212 0.6160265505313873
vt 0.603943943977356 0.8964984565973282
vt 0.6097640991210938 0.7095283269882202
vt 0.8052586317062378 0.9900000095367432
vt 0.4026293158531189 0.8029969036579132
vt 0.9072009921073914 0.0004994869232177734
vt 0.9238855838775635 0.17039746046066284
vt 1.1509225368499756 0.0004994869232177734
vt 0.23440369963645935 0.0004994869232177734
vt 0.39573177695274353 0.36120057106018066
vt 0.41519057750701904 0.17246359586715698
vt 0.4026293158531189 0.9900000095367432
vt 0.9426783919334412 0.36176276206970215
vt 0.8053493499755859 0.3598874807357788
vt 0.81819748878479 0.0004994869232177734
vt 0.7654587030410767 0.0004994869232177734
vt 0.5096415281295776 0.9214650988578796
vt 0.8521091938018799 0.9977652430534363
vt 0.6766539812088013 0.8065575957298279
vt 0.7638548612594604 0.6135792136192322
vt 0.8692716360092163 0.6145782470703125
vt 0.669224739074707 0.9231503009796143
vt 0.5302990078926086 0.8081663846969604
vt 0.6592365503311157 0.9995004534721375
vt 0.8079898953437805 0.8083860278129578
vt 1.1509225368499756 0.6159937977790833
vt 0.9060747623443604 0.6150749921798706
vt 0.21939000487327576 0.0004995465278625488
vt 0.14551475644111633 0.0004995465278625488
vt 0.17874321341514587 0.36044955253601074
vt 0.14551478624343872 0.6145786046981812
vt 0.43292009830474854 0.0004994869232177734
vt 0.1519216001033783 0.6159939765930176
vt 0.43191084265708923 0.615060031414032
vt 1.1371469497680664 0.1614983081817627
vt 1.1208317279815674 0.4645282030105591
vt 0.9851804375648499 0.23726409673690796
vt 0.8495291471481323 0.009999990463256836
vt 0.8332139849662781 0.3130298852920532
vt -0.15381716191768646 1.1163799166679382
vt 0.016808032989501953 1.3081245720386505
vt 0.18900087475776672 1.1163809895515442
vt -0.15538480877876282 1.4998681545257568
vt 0.1967216432094574 1.5009890794754028
vt 0.36891448497772217 1.309245526790619
vt 0.548828125 1.5021100640296936
vt 0.42476457357406616 0.31299686431884766
vt 0 0.009999990463256836
vt 0 0.6159937977790833
vt 0.5411072969436646 1.1175019443035126
vt 0.8932138681411743 1.118622899055481
vt 0.7210209965705872 1.3103664815425873
vt 0.900934636592865 1.5032310485839844
vt 1.4026293754577637 0.8029966950416565
vt 1.1039440631866455 0.9900000095367432
vt 1.1039440631866455 0.8964983522891998
vt 0.8110787272453308 0.803029865026474
vt 2 0.6159933805465698
vt 1.7013146877288818 0.8029966950416565
vt 1.7013146877288818 0.7094950377941132
vt 1.5604158639907837 0.5402607917785645
vt 1.7123823165893555 0.46449506282806396
vt 1.424764633178711 0.31299668550491333
vt 2 0.31299668550491333
vt 0.9050795435905457 0.9994674623012543
vt 0.8932138681411743 0.7328939139842987
vt 1.25304114818573 0.7328940033912659
vt 0.19079294800758362 0.999434769153595
vt 0.4250147342681885 0.9994676113128662
vt 1.028498649597168 0.8072547316551208
vt 1.1509225368499756 0.9994344711303711
vt 0.3113518953323364 0.8072474002838135
vt 1.424764633178711 0.009999990463256836
vt 0.3611937165260315 0.9246374070644379
vt 1.25304114818573 1.5043519735336304
vt 1.25304114818573 1.1186229884624481
vt 0.4787321984767914 0.9986330568790436
vt 0.811949610710144 0.999500572681427
vt 1.4026293754577637 0.9900000095367432
vt 2 0.9900000095367432
vt 1.7013146877288818 0.9900000095367432
vt 0 0.9900000095367432
vt 0.4084494113922119 0.616026759147644
vt 0.20131465792655945 0.7094953656196594
vt 0.5333865284919739 0.7328938245773315
vt 0.7133002281188965 0.9257583618164062
vt 0.19056850671768188 0.7328927516937256
vt -0.1522495150566101 0.7328916788101196
vt 0.018375679850578308 0.9246363341808319
vt 2 0.009999990463256836
vt 0.9794561862945557 0.9039102494716644
vt 0.8437345623970032 0.30753886699676514
vt -0.16426867246627808 0.796703964471817
vt -0.2751096785068512 0.796703964471817
vt -0.2751733362674713 1.2961515188217163
vt -0.03547453507781029 1.503393530845642
vt -0.32805436849594116 1.3444205522537231
vt -0.32226860523223877 0.7070806622505188
vt -0.05349143594503403 1.2961515188217163
vt 0.001992817735299468 0.7968097925186157
vt 0.002024671994149685 0.5470860004425049
vt -0.2751096785068512 0.796703964471817
vt -0.2751733362674713 1.2961515188217163
vt -0.33059385418891907 1.2962572574615479
vt 0.001960963476449251 1.0465335845947266
vt 0.0019291092175990343 1.2962573766708374
vt -0.05349143594503403 1.2961515188217163
vt 0.0020565262529999018 0.29736220836639404
vt 0.002024671994149685 0.5470860004425049
vt -0.05345958098769188 1.0464277416467667
vt -0.05349143594503403 1.2961515188217163
vt -0.2751733362674713 1.2961515188217163
vt -0.05342772603034973 0.796703964471817
vt -0.3304983377456665 0.5470859706401825
vt -0.33046650886535645 0.29736220836639404
vt -0.2750460207462311 0.2972564101219177
vt -0.33053016662597656 0.796809732913971
vt 0.001992817735299468 0.7968097925186157
vt 0.001960963476449251 1.0465335845947266
vt 1.9513239860534668 0.5684322714805603
vt 1.7026604413986206 0.5694020390510559
vt 1.7026604413986206 0.38801002502441406
vt 0.0020565262529999018 0.29736220836639404
vt -0.05345958098769188 1.0464277416467667
vt -0.05342772603034973 0.796703964471817
vt 1.7026479244232178 0.13896042108535767
vt 1.9513113498687744 0.13799065351486206
vt 1.9513237476348877 0.38704025745391846
vt 0.0019291092175990343 1.2962573766708374
vt 1.9513134956359863 1.4396594762802124
vt 1.9513275623321533 0.9057067036628723
vt 1.7026640176773071 0.9066764712333679
vt 1.7026499509811401 1.4406291246414185
vt -0.2750460207462311 0.2972564101219177
vt -0.33053016662597656 0.796809732913971
vt -0.33059385418891907 1.2962572574615479
vt -0.33046650886535645 0.29736220836639404
vt -0.32226860523223877 0.7070806622505188
vt -0.027326639741659164 0.5574594736099243
vt -0.03547453507781029 1.503393530845642
vt -0.32805436849594116 1.3444205522537231
vt 1.9513239860534668 0.5684322714805603
vt 1.7026604413986206 0.5694020390510559
vt 1.9513237476348877 0.38704025745391846
vt 1.7026604413986206 0.38801002502441406
vt -0.03547453507781029 1.503393530845642
vt -0.027326639741659164 0.5574594736099243
vt -0.32226860523223877 0.7070806622505188
vt 1.7026640176773071 0.9066764712333679
vt 1.9513275623321533 0.9057067036628723
vt 1.9513134956359863 1.4396594762802124
vt 1.7026499509811401 1.4406291246414185
vt 1.7026604413986206 0.5694020390510559
vt 1.9513239860534668 0.5684322714805603
vt 1.7026604413986206 0.38801002502441406
vt 1.9513237476348877 0.38704025745391846
vt -0.027326639741659164 0.5574594736099243
vt -0.27507784962654114 0.5469802021980286
vt 1.7026479244232178 0.13896042108535767
vt -0.05345958098769188 1.0464277416467667
vt -0.05342772603034973 0.796703964471817
vt -0.05349143594503403 1.2961515188217163
vt 1.9513134956359863 1.4396594762802124
vt 1.9513275623321533 0.9057067036628723
vt 1.7026640176773071 0.9066764712333679
vt 1.7026499509811401 1.4406291246414185
vt 1.9513239860534668 0.5684322714805603
vt 1.7026604413986206 0.5694020390510559
vt 1.9513237476348877 0.38704025745391846
vt 1.7026604413986206 0.38801002502441406
vt 1.9513113498687744 0.13799065351486206
vt -0.03547453507781029 1.503393530845642
vt -0.027326639741659164 0.5574594736099243
vt -0.32226860523223877 0.7070806622505188
vt -0.32805436849594116 1.3444205522537231
vt -0.27507784962654114 0.5469802021980286
vt -0.2751096785068512 0.796703964471817
vt -0.053364016115665436 0.2972564101219177
vt -0.27507784962654114 0.5469802021980286
vt -0.2750460207462311 0.2972564101219177
vt 1.7026640176773071 0.9066764712333679
vt 1.9513275623321533 0.9057067036628723
vt 1.9513134956359863 1.4396594762802124
vt 1.7026499509811401 1.4406291246414185
vt -0.32805436849594116 1.3444205522537231
vt -0.05345958098769188 1.0464277416467667
vt -0.2751733362674713 1.2961515188217163
vt -0.05342772603034973 0.796703964471817
vt -0.16426867246627808 0.796703964471817
vt -0.053364016115665436 0.2972564101219177
vt -0.053364016115665436 0.2972564101219177
vt -0.2751096785068512 0.796703964471817
vt -0.27507784962654114 0.5469802021980286
vt -0.2750460207462311 0.2972564101219177
vt -0.053364016115665436 0.2972564101219177
vt 0.9994606375694275 1.1150785684585571
vt 0.8399999737739563 1.1150785684585571
vt 0.8399999737739563 0.8576288819313049
vt 0.8399999737739563 0.8576288819313049
vt 0.9994646310806274 0.8576288819313049
vt 0.9994795322418213 0.5416849255561829
vt 0.8399999737739563 0.5416849255561829
vt 0.8399999737739563 0.17479562759399414
vt 0.9994794726371765 0.17479562759399414
vt 0.9995001554489136 0.17479562759399414
vt 0.8399999737739563 0.17479562759399414
vt 0.8399999737739563 -0.3233914375305176
vt 0.9994556903839111 -0.3233914375305176
vt 0.8399999737739563 -0.3233914375305176
vt 0.9994422197341919 -0.3233914375305176
vt 0.5002730488777161 0.8090291023254395
vt 0.4725477695465088 0.9935119152069092
vt 0.2920289933681488 0.9935119152069092
vt 0.5002730488777161 0.33117830753326416
vt 0.5002730488777161 0.549548864364624
vt 0.2920289933681488 0.549548864364624
vt 0.2920289933681488 0.33117830753326416
vt 0.5002730488777161 0.33117830753326416
vt 0.5002730488777161 0.034652113914489746
vt 0.2920289933681488 0.33117830753326416
vt 0.2920289933681488 0.0014636516571044922
vt 0.5002730488777161 0.03308570384979248
vt 0.2920289933681488 0.0014636516571044922
vt 0.5002730488777161 0.8090291023254395
vt 0.2920289933681488 0.8090291023254395
vt 0.5002730488777161 0.0014636516571044922
vt 0.5002730488777161 0.0014636516571044922
vt 0.2920289933681488 0.8090291023254395
vt 0.2920289933681488 0.549548864364624
vt 0.5002730488777161 0.549548864364624
vt 0.9994966983795166 0.5416849255561829
vt 0.8399999737739563 0.5416849255561829
vt 0.9995007514953613 0.8576288819313049
vt 0.2920289933681488 0.549548864364624
vt 0.5002730488777161 0.549548864364624
vt 0.2920289933681488 0.8090291023254395
vt 0.5002730488777161 0.8090291023254395
vt 0.2920289933681488 0.9935119152069092
vt 0.4725477695465088 0.9935119152069092
vt 0.2920289933681488 0.549548864364624
vt 0.5002730488777161 0.549548864364624
vt 0.5002730488777161 0.33117830753326416
vt 0.2920289933681488 0.33117830753326416
vt 0.2920289933681488 0.33117830753326416
vt 0.5002730488777161 0.33117830753326416
vt 0.5002730488777161 0.03308570384979248
vt 0.2920289933681488 0.0014636516571044922
vt 0.5002730488777161 0.034652113914489746
vt 0.2920289933681488 0.33117830753326416
vt 0.5002730488777161 0.33117830753326416
vt 0.5002730488777161 0.0014636516571044922
vt 0.2920289933681488 0.0014636516571044922
vt 0.5002730488777161 0.0014636516571044922
vt 0.2920289933681488 0.549548864364624
vt 0.5002730488777161 0.549548864364624
vt 0.5002730488777161 0.8090291023254395
vt 0.2920289933681488 0.8090291023254395
vt 0.2920289933681488 0.9935119152069092
vt 0.4725477695465088 0.9935119152069092
vt 0.5002730488777161 0.8090291023254395
vt 0.2920289933681488 0.8090291023254395
vt 0.5002730488777161 0.549548864364624
vt 0.2920289933681488 0.549548864364624
vt 0.2920289933681488 0.8090291023254395
vt 0.5002730488777161 0.8090291023254395
vt 0.5002730488777161 0.03308570384979248
vt 0.2920289933681488 0.0014636516571044922
vt 0.5002730488777161 0.034652113914489746
vt 0.2920289933681488 0.33117830753326416
vt 0.5002730488777161 0.33117830753326416
vt 0.5002730488777161 0.0014636516571044922
vt 0.2920289933681488 0.0014636516571044922
vt 0.5002730488777161 0.0014636516571044922
vt 0.5002730488777161 0.33117830753326416
vt 0.2920289933681488 0.33117830753326416
vt 0.5002730488777161 0.03308570384979248
vt 0.5002730488777161 0.034652113914489746
vt 0.2920289933681488 0.0014636516571044922
vt 0.2920289933681488 0.33117830753326416
vt 0.5002730488777161 0.33117830753326416
vt 0.5002730488777161 0.0014636516571044922
vt 0.2920289933681488 0.0014636516571044922
vt 0.5002730488777161 0.0014636516571044922
vt 0.2920289933681488 0.549548864364624
vt 0.5002730488777161 0.549548864364624
vt 0.2920289933681488 0.8090291023254395
vt 0.5002730488777161 0.8090291023254395
vt 0.2920289933681488 0.9935119152069092
vt 0.4725477695465088 0.9935119152069092
vt 0.5002730488777161 0.8090291023254395
vt 0.2920289933681488 0.8090291023254395
vt 0.2920289933681488 0.549548864364624
vt 0.5002730488777161 0.549548864364624
vt 0 -0.007663726806640625
vt 0.4959178864955902 -0.05256938934326172
vt 0.4959178864955902 0.6729128956794739
vt 0 0.6851615309715271
vt 0 -0.007663726806640625
vt 0.4959178864955902 -0.05256938934326172
vt 0.4959178864955902 0.6729128956794739
vt 0 0.6851615309715271
vt -0.018752895295619965 0.8045076131820679
vt 0.026088668033480644 1.499889612197876
vt 0.0265331007540226 0.7517392635345459
vt 0.2864152789115906 1.0894438028335571
vt 0.9853495955467224 1.499890685081482
vt 1.0185272693634033 0.8045095801353455
vt 0.9732402563095093 0.7517425417900085
vt 1.0185273885726929 0.4879034161567688
vt 1.0257995128631592 -0.26045823097229004
vt 0.9513862133026123 0.13182836771011353
vt 0.9406619071960449 -0.26045918464660645
vt 0.8583648204803467 0.6752288937568665
vt 0.9732404351234436 0.5406707525253296
vt 0.049405939877033234 0.13062256574630737
vt 0.05911025032401085 -0.26045989990234375
vt -0.026027396321296692 -0.26045918464660645
vt 0.14189712703227997 0.6751962304115295
vt 0.026532305404543877 0.540666401386261
vt -0.018753092736005783 0.4879000782966614
vt 0.5003989934921265 1.336104393005371
vt 0.49937617778778076 1.7373422384262085
vt 0.7144036889076233 1.089915156364441
vt 0.026088668033480644 1.499889612197876
vt -0.018752895295619965 0.8045076131820679
vt 0.0265331007540226 0.7517392635345459
vt 0.026532305404543877 0.540666401386261
vt -0.018753092736005783 0.4879000782966614
vt 0.049405939877033234 0.13062256574630737
vt 0.14189712703227997 0.6751962304115295
vt 1.0185272693634033 0.8045095801353455
vt 0.9853495955467224 1.499890685081482
vt 0.9732402563095093 0.7517425417900085
vt 1.0257995128631592 -0.26045823097229004
vt 1.0185273885726929 0.4879034161567688
vt 0.9513862133026123 0.13182836771011353
vt 0.9732404351234436 0.5406707525253296
vt 0.9406619071960449 -0.26045918464660645
vt 0.8583648204803467 0.6752288937568665
vt 0.05911025032401085 -0.26045989990234375
vt -0.026027396321296692 -0.26045918464660645
vt 0.2864152789115906 1.0894438028335571
vt 0.5003989934921265 1.336104393005371
vt 0.49937617778778076 1.7373422384262085
vt 0.7144036889076233 1.089915156364441
vt 1 1.105989694595337
vt 1 0.5645447969436646
vt 0.75 0.9706284701824188
vt 0.5 1.1060624718666077
vt 0.5 0.8352672457695007
vt 0 0.5645447969436646
vt 0 1.1061352491378784
vt 0.25 0.6999060213565826
vt 0.5 0.5645447969436646
vt 0.7488241195678711 1.4699017107486725
vt 0.7488241195678711 1.2268795669078827
vt 0.37441205978393555 1.5309678316116333
vt 0.5 1.5920339822769165
vt 0.24647250771522522 1.2256371676921844
vt 0 1.5920339822769165
vt 0.24882416427135468 1.4699017107486725
vt 0.49764832854270935 1.3477694392204285
vt 0.24882417917251587 1.4699017107486725
vt 0.2464725226163864 1.2256371676921844
vt 1.2419564723968506 1.4742488265037537
vt 0.9919565320014954 1.5983140468597412
vt 1.2419564723968506 1.2261183857917786
vt 0.7488241791725159 1.2268795669078827
vt 1 1.105989694595337
vt 0.7488241791725159 1.4699017107486725
vt 1.7419564723968506 1.2261183857917786
vt 1.9919564723968506 1.102053165435791
vt 1.7419564723968506 1.4742488265037537
vt 1.4919564723968506 1.102053165435791
vt 1.2419564723968506 1.2261183857917786
vt 0.9919565320014954 1.102053165435791
vt 0.5 1.1060624718666077
vt 0.25 1.106098860502243
vt 0.5 0.8352672457695007
vt -0.004703303799033165 1.1035048961639404
vt 0.2464725226163864 1.1041260957717896
vt 0.49764832854270935 1.1047472953796387
vt 0.25 0.9707012474536896
vt 0.25 0.6999060213565826
vt 0 1.1061352491378784
vt 0 0.5645447969436646
vt 0.5 0.5645447969436646
vt 0.625 0.6322253942489624
vt 1 0.5645447969436646
vt 0.75 0.6999060213565826
vt 0.75 0.9706284701824188
vt 0.75 1.5920339822769165
vt 0.5 1.5920339822769165
vt 0.49764835834503174 1.1047472953796387
vt 0.2464725375175476 1.1041260957717896
vt -0.004703303799033165 1.1035048961639404
vt 0.75 0.5645447969436646
vt 0.25 0.9707012474536896
vt 0.25 1.106098860502243
vt 0.75 0.6999060213565826
vt 0.3720604181289673 1.2867032885551453
vt 0.75 1.5920339822769165
vt 1 1.5920339822769165
vt 1.7419564723968506 1.5983140468597412
vt 1.7419564723968506 1.4742488265037537
vt 1.9919564723968506 1.5983140468597412
vt 1.4919564723968506 1.5983140468597412
vt 1.4919564723968506 1.3501836061477661
vt 1.6169564723968506 1.4122162163257599
vt 0.6232362985610962 1.4088355898857117
vt 0.49764835834503174 1.3477694392204285
vt 0.3720604479312897 1.2867032885551453
vt 1.3669564723968506 1.2881509959697723
vt 0.6232362389564514 1.1658134311437607
vt 0.6232362389564514 1.4088355898857117
vt 1.2419564723968506 1.5983140468597412
vt 0.25 1.5920339822769165
vt 0.37441208958625793 1.5309678316116333
vt 1.3669564723968506 1.5362814664840698
vt 0.7488241195678711 1.1053684949874878
vt 0.6232362389564514 1.1658134311437607
vt 1.6169564723968506 1.1640857756137848
vt 1.510615348815918 0.2863893508911133
vt 1.764715313911438 0.28646212816238403
vt 2.018815279006958 -0.00483095645904541
vt 2.018815279006958 -0.00483095645904541
vt 1.002415418624878 0.5776096880435944
vt 1.002415418624878 0.28624385595321655
vt -0.013984506949782372 0.5773186683654785
vt -0.013984506949782372 -0.00483095645904541
vt 1.0024152994155884 -0.00483095645904541
vt 1.0024152994155884 0.28624385595321655
vt 1.002415418624878 -0.00483095645904541
vt -0.013984506949782372 0.5773186683654785
vt -0.013984506949782372 -0.00483095645904541
vt 1.0024152994155884 0.5776096880435944
vt 1.510615348815918 0.5777552127838135
vt 0.4942154288291931 0.5774641633033752
vt 2.018815279006958 0.5779007077217102
vt 1.764715313911438 0.28646212816238403
vt 2.018815279006958 0.5779007077217102
vt 1.510615348815918 0.5777552127838135
vt 0.4942154288291931 0.5774641633033752
g DistRt110
s 1
f 1/1/1 2/2/2 3/3/3
f 4/4/4 5/5/5 6/6/6
f 7/7/7 8/8/8 9/9/9
f 4/4/4 10/10/10 11/11/11
f 6/6/6 12/12/12 4/4/4
f 7/7/7 13/13/13 8/8/8
f 14/14/14 15/15/15 13/13/13
f 16/16/16 17/17/17 2/2/2
f 18/18/18 5/5/5 4/4/4
f 11/11/11 18/18/18 4/4/4
f 15/15/15 8/8/8 13/13/13
f 16/16/16 19/19/19 7/7/7
f 20/20/20 17/17/17 15/15/15
f 15/15/15 17/17/17 8/8/8
f 7/7/7 9/9/9 16/16/16
f 9/9/9 17/17/17 16/16/16
f 9/9/9 8/8/8 17/17/17
f 21/21/21 19/19/19 16/16/16
f 1/1/1 22/22/22 2/2/2
f 12/12/12 10/10/10 4/4/4
f 14/14/14 23/23/23 15/15/15
f 23/23/23 20/20/20 15/15/15
f 22/22/22 19/19/19 21/21/21
f 22/22/22 21/21/21 2/2/2
f 2/2/2 21/21/21 16/16/16
f 24/24/24 22/22/22 25/25/25
f 22/22/22 24/24/24 19/19/19
f 17/17/17 20/20/20 3/3/3
f 3/3/3 2/2/2 17/17/17
g DistRt111
s 1
f 26/26/26 27/27/27 28/28/28
f 29/29/29 30/30/30 28/28/28
f 31/31/31 32/32/32 33/33/33
f 32/32/32 34/34/34 33/33/33
f 28/28/28 27/27/27 35/35/35
f 28/28/28 30/30/30 36/36/36
f 28/28/28 36/36/36 26/26/26
f 28/28/28 35/35/35 29/29/29
f 37/37/37 38/38/38 39/39/39
f 40/40/40 41/41/41 42/42/42
f 41/41/41 43/43/43 42/42/42
f 37/37/37 39/39/39 44/44/44
f 42/42/42 45/45/45 40/40/40
f 46/46/46 45/45/45 42/42/42
f 33/33/33 47/47/47 31/31/31
f 47/47/47 48/48/48 31/31/31
f 49/49/49 46/46/46 42/42/42
f 44/44/44 50/50/50 37/37/37
f 44/44/44 51/51/51 50/50/50
f 42/42/42 43/43/43 49/49/49
g DistRt112
s 1
f 52/52/52 53/53/53 54/54/54
f 55/55/55 56/56/56 57/57/57
f 55/55/55 57/57/57 58/58/58
f 59/59/59 60/60/60 61/61/61
f 62/62/62 60/60/60 59/59/59
f 63/63/63 64/64/64 65/65/65
f 66/66/66 67/67/67 68/68/68
f 59/59/59 69/69/69 62/62/62
f 61/61/61 69/69/69 59/59/59
f 64/64/64 70/70/70 65/65/65
f 71/71/71 72/72/72 73/73/73
f 74/74/74 75/75/75 76/76/76
f 77/77/77 78/78/78 71/71/71
f 75/75/75 78/78/78 76/76/76
f 79/79/79 80/80/80 81/81/81
f 81/81/81 82/82/82 79/79/79
f 76/76/76 78/78/78 77/77/77
f 83/83/83 70/70/70 84/84/84
f 85/85/85 86/86/86 87/87/87
f 87/87/87 88/88/88 54/54/54
f 66/66/66 68/68/68 89/89/89
f 90/90/90 91/91/91 67/67/67
f 92/92/92 93/93/93 94/94/94
f 92/92/92 94/94/94 95/95/95
f 94/94/94 96/96/96 95/95/95
f 93/93/93 96/96/96 94/94/94
f 67/67/67 66/66/66 90/90/90
f 88/88/88 87/87/87 86/86/86
f 52/52/52 54/54/54 88/88/88
f 53/53/53 52/52/52 74/74/74
f 83/83/83 65/65/65 70/70/70
f 57/57/57 56/56/56 93/93/93
f 58/58/58 57/57/57 93/93/93
f 97/97/97 98/98/98 99/99/99
f 97/97/97 100/100/100 98/98/98
f 101/101/101 98/98/98 100/100/100
f 101/101/101 99/99/99 98/98/98
f 102/102/102 99/99/99 101/101/101
f 103/103/103 102/102/102 101/101/101
f 104/104/104 105/105/105 95/95/95
f 106/106/106 105/105/105 104/104/104
f 103/103/103 107/107/107 102/102/102
f 102/102/102 107/107/107 99/99/99
f 108/108/108 107/107/107 109/109/109
f 109/109/109 107/107/107 103/103/103
f 110/110/110 109/109/109 103/103/103
f 110/110/110 108/108/108 109/109/109
f 111/111/111 112/112/112 113/113/113
f 113/113/113 112/112/112 61/61/61
f 61/61/61 55/55/55 113/113/113
f 113/113/113 55/55/55 111/111/111
f 60/60/60 114/114/114 61/61/61
f 60/60/60 56/56/56 114/114/114
f 114/114/114 56/56/56 55/55/55
f 61/61/61 114/114/114 55/55/55
f 115/115/115 116/116/116 117/117/117
f 117/117/117 116/116/116 111/111/111
f 111/111/111 58/58/58 117/117/117
f 117/117/117 58/58/58 115/115/115
f 115/115/115 118/118/118 119/119/119
f 119/119/119 118/118/118 120/120/120
f 120/120/120 121/121/121 119/119/119
f 119/119/119 121/121/121 115/115/115
f 115/115/115 58/58/58 118/118/118
f 122/122/122 82/82/82 81/81/81
f 118/118/118 58/58/58 93/93/93
f 123/123/123 108/108/108 124/124/124
f 118/118/118 93/93/93 120/120/120
f 125/125/125 126/126/126 80/80/80
f 126/126/126 81/81/81 80/80/80
f 96/96/96 56/56/56 104/104/104
f 95/95/95 96/96/96 104/104/104
f 93/93/93 56/56/56 96/96/96
f 127/127/127 84/84/84 82/82/82
f 84/84/84 127/127/127 83/83/83
f 127/127/127 128/128/128 83/83/83
f 129/129/129 80/80/80 91/91/91
f 125/125/125 80/80/80 129/129/129
f 129/129/129 90/90/90 125/125/125
f 91/91/91 90/90/90 129/129/129
f 95/95/95 130/130/130 92/92/92
f 107/107/107 131/131/131 99/99/99
f 108/108/108 132/132/132 133/133/133
f 108/108/108 133/133/133 124/124/124
f 52/52/52 134/134/134 74/74/74
f 134/134/134 135/135/135 74/74/74
f 116/116/116 136/136/136 111/111/111
f 132/132/132 108/108/108 110/110/110
f 115/115/115 137/137/137 116/116/116
f 116/116/116 137/137/137 138/138/138
f 116/116/116 138/138/138 136/136/136
f 111/111/111 55/55/55 58/58/58
f 111/111/111 136/136/136 112/112/112
f 69/69/69 139/139/139 62/62/62
f 140/140/140 56/56/56 60/60/60
f 140/140/140 60/60/60 62/62/62
f 141/141/141 139/139/139 106/106/106
f 62/62/62 139/139/139 141/141/141
f 141/141/141 140/140/140 62/62/62
f 106/106/106 140/140/140 141/141/141
f 142/142/142 143/143/143 123/123/123
f 143/143/143 108/108/108 123/123/123
f 108/108/108 143/143/143 107/107/107
f 143/143/143 142/142/142 107/107/107
f 144/144/144 99/99/99 131/131/131
f 144/144/144 131/131/131 142/142/142
f 107/107/107 142/142/142 131/131/131
f 145/145/145 146/146/146 144/144/144
f 146/146/146 99/99/99 144/144/144
f 146/146/146 97/97/97 99/99/99
f 145/145/145 97/97/97 146/146/146
f 104/104/104 140/140/140 106/106/106
f 104/104/104 56/56/56 140/140/140
f 130/130/130 147/147/147 120/120/120
f 128/128/128 148/148/148 122/122/122
f 72/72/72 71/71/71 149/149/149
f 149/149/149 71/71/71 78/78/78
f 148/148/148 82/82/82 122/122/122
f 120/120/120 147/147/147 121/121/121
f 148/148/148 127/127/127 82/82/82
f 128/128/128 127/127/127 148/148/148
f 120/120/120 93/93/93 92/92/92
f 92/92/92 130/130/130 120/120/120
g DistRt113
s 1
f 150/150/150 151/151/151 152/152/152
f 153/153/153 154/154/154 155/155/155
f 156/156/156 157/157/157 158/158/158
f 159/159/159 160/160/160 161/161/161
f 162/162/162 163/163/163 164/164/164
f 165/165/165 166/166/166 164/164/164
f 167/167/167 168/168/168 169/169/169
f 170/170/170 167/167/167 169/169/169
f 171/171/171 172/172/172 173/173/173
f 174/174/174 171/171/171 173/173/173
f 175/175/175 162/162/162 164/164/164
f 161/161/161 174/174/174 173/173/173
f 156/156/156 176/176/176 157/157/157
f 177/177/177 178/178/178 179/179/179
f 180/180/180 181/181/181 156/156/156
f 180/180/180 182/182/182 181/181/181
f 183/183/183 184/184/184 185/185/185
f 185/185/185 179/179/179 183/183/183
f 156/156/156 186/186/186 176/176/176
f 187/187/187 188/188/188 189/189/189
f 189/189/189 190/190/190 187/187/187
f 191/191/191 192/192/192 193/193/193
f 191/191/191 194/194/194 192/192/192
f 195/195/195 196/196/196 197/197/197
f 197/197/197 198/198/198 195/195/195
f 188/188/188 199/199/199 200/200/200
f 200/200/200 189/189/189 188/188/188
f 199/199/199 201/201/201 202/202/202
f 202/202/202 200/200/200 199/199/199
f 201/201/201 184/184/184 183/183/183
f 183/183/183 202/202/202 201/201/201
f 203/203/203 204/204/204 205/205/205
f 166/166/166 175/175/175 164/164/164
f 206/206/206 207/207/207 208/208/208
f 208/208/208 209/209/209 206/206/206
f 210/210/210 211/211/211 207/207/207
f 207/207/207 206/206/206 210/210/210
f 212/212/212 213/213/213 211/211/211
f 155/155/155 214/214/214 153/153/153
f 156/156/156 158/158/158 180/180/180
f 211/211/211 210/210/210 212/212/212
f 173/173/173 215/215/215 161/161/161
f 213/213/213 212/212/212 216/216/216
f 152/152/152 217/217/217 218/218/218
f 152/152/152 219/219/219 217/217/217
f 220/220/220 221/221/221 222/222/222
f 222/222/222 223/223/223 220/220/220
f 221/221/221 224/224/224 225/225/225
f 225/225/225 222/222/222 221/221/221
f 224/224/224 226/226/226 227/227/227
f 227/227/227 225/225/225 224/224/224
f 226/226/226 228/228/228 216/216/216
f 216/216/216 227/227/227 226/226/226
f 229/229/229 230/230/230 231/231/231
f 231/231/231 232/232/232 229/229/229
f 193/193/193 233/233/233 191/191/191
f 193/193/193 234/234/234 233/233/233
f 235/235/235 236/236/236 151/151/151
f 235/235/235 237/237/237 236/236/236
f 152/152/152 218/218/218 150/150/150
f 150/150/150 218/218/218 235/235/235
f 238/238/238 239/239/239 240/240/240
f 240/240/240 241/241/241 238/238/238
f 178/178/178 177/177/177 239/239/239
f 239/239/239 238/238/238 178/178/178
f 205/205/205 242/242/242 203/203/203
f 179/179/179 185/185/185 177/177/177
f 235/235/235 151/151/151 150/150/150
f 164/164/164 243/243/243 165/165/165
f 193/193/193 244/244/244 234/234/234
f 243/243/243 245/245/245 165/165/165
f 246/246/246 170/170/170 169/169/169
f 247/247/247 170/170/170 246/246/246
f 180/180/180 248/248/248 182/182/182
f 246/246/246 249/249/249 247/247/247
f 169/169/169 249/249/249 246/246/246
f 249/249/249 250/250/250 247/247/247
f 250/250/250 251/251/251 247/247/247
f 245/245/245 252/252/252 165/165/165
f 215/215/215 159/159/159 161/161/161
f 216/216/216 228/228/228 213/213/213
g DistRt114
s 1
f 253/253/253 254/254/254 255/255/255
f 256/256/256 254/254/254 253/253/253
f 253/253/253 257/257/257 256/256/256
f 257/257/257 258/258/258 259/259/259
f 259/259/259 256/256/256 257/257/257
f 260/260/260 259/259/259 258/258/258
f 258/258/258 261/261/261 260/260/260
f 262/262/262 263/263/263 264/264/264
f 264/264/264 265/265/265 262/262/262
f 266/266/266 260/260/260 261/261/261
f 261/261/261 267/267/267 266/266/266
f 268/268/268 269/269/269 270/270/270
f 271/271/271 272/272/272 273/273/273
f 273/273/273 274/274/274 271/271/271
f 275/275/275 276/276/276 277/277/277
f 276/276/276 278/278/278 277/277/277
f 271/271/271 274/274/274 279/279/279
f 280/280/280 279/279/279 274/274/274
f 272/272/272 281/281/281 282/282/282
f 279/279/279 280/280/280 283/283/283
f 278/278/278 276/276/276 284/284/284
f 270/270/270 285/285/285 268/268/268
f 285/285/285 286/286/286 287/287/287
f 288/288/288 289/289/289 263/263/263
f 263/263/263 262/262/262 288/288/288
f 290/290/290 255/255/255 289/289/289
f 289/289/289 288/288/288 290/290/290
f 291/291/291 292/292/292 275/275/275
f 293/293/293 294/294/294 292/292/292
f 292/292/292 291/291/291 293/293/293
f 294/294/294 293/293/293 295/295/295
f 295/295/295 296/296/296 294/294/294
f 281/281/281 296/296/296 295/295/295
f 295/295/295 282/282/282 281/281/281
f 282/282/282 273/273/273 272/272/272
f 297/297/297 298/298/298 299/299/299
f 299/299/299 300/300/300 297/297/297
f 301/301/301 302/302/302 303/303/303
f 304/304/304 305/305/305 306/306/306
f 305/305/305 307/307/307 306/306/306
f 305/305/305 304/304/304 308/308/308
f 309/309/309 303/303/303 310/310/310
f 303/303/303 309/309/309 301/301/301
f 311/311/311 306/306/306 307/307/307
f 307/307/307 312/312/312 311/311/311
f 312/312/312 313/313/313 314/314/314
f 314/314/314 311/311/311 312/312/312
f 315/315/315 314/314/314 313/313/313
f 313/313/313 316/316/316 315/315/315
f 315/315/315 316/316/316 317/317/317
f 317/317/317 318/318/318 315/315/315
f 319/319/319 320/320/320 318/318/318
f 318/318/318 317/317/317 319/319/319
f 302/302/302 301/301/301 320/320/320
f 320/320/320 319/319/319 302/302/302
f 321/321/321 322/322/322 298/298/298
f 298/298/298 297/297/297 321/321/321
f 322/322/322 321/321/321 270/270/270
f 270/270/270 269/269/269 322/322/322
f 300/300/300 299/299/299 323/323/323
f 324/324/324 325/325/325 326/326/326
f 325/325/325 327/327/327 326/326/326
f 325/325/325 324/324/324 328/328/328
f 329/329/329 323/323/323 330/330/330
f 323/323/323 329/329/329 300/300/300
f 286/286/286 326/326/326 327/327/327
f 327/327/327 287/287/287 286/286/286
f 331/331/331 332/332/332 333/333/333
f 334/334/334 335/335/335 336/336/336
f 337/337/337 334/334/334 336/336/336
f 335/335/335 334/334/334 338/338/338
f 333/333/333 339/339/339 340/340/340
f 339/339/339 333/333/333 332/332/332
f 337/337/337 336/336/336 341/341/341
f 341/341/341 342/342/342 337/337/337
f 343/343/343 344/344/344 342/342/342
f 342/342/342 341/341/341 343/343/343
f 344/344/344 343/343/343 345/345/345
f 345/345/345 346/346/346 344/344/344
f 347/347/347 346/346/346 345/345/345
f 345/345/345 348/348/348 347/347/347
f 348/348/348 349/349/349 350/350/350
f 350/350/350 347/347/347 348/348/348
f 349/349/349 332/332/332 331/331/331
f 331/331/331 350/350/350 349/349/349
f 287/287/287 268/268/268 285/285/285
f 255/255/255 290/290/290 253/253/253
f 275/275/275 277/277/277 291/291/291
g DistRt115
s 1
f 351/351/351 352/352/352 353/353/353
f 353/353/353 354/354/354 351/351/351
f 355/355/355 356/356/356 357/357/357
f 357/357/357 358/358/358 355/355/355
g DistRt116
s 1
f 359/359/359 360/360/360 361/361/361
f 361/361/361 360/360/360 362/362/362
f 363/363/363 364/364/364 365/365/365
f 366/366/366 367/367/367 368/368/368
f 369/369/369 368/368/368 367/367/367
f 368/368/368 370/370/370 371/371/371
f 365/365/365 371/371/371 370/370/370
f 372/372/372 373/373/373 374/374/374
f 375/375/375 376/376/376 361/361/361
f 374/374/374 377/377/377 372/372/372
f 361/361/361 362/362/362 375/375/375
f 378/378/378 362/362/362 360/360/360
f 378/378/378 360/360/360 379/379/379
f 378/378/378 379/379/379 363/363/363
f 380/380/380 378/378/378 363/363/363
f 380/380/380 363/363/363 365/365/365
f 370/370/370 380/380/380 365/365/365
f 381/381/381 382/382/382 383/383/383
f 384/384/384 385/385/385 386/386/386
f 387/387/387 384/384/384 386/386/386
f 388/388/388 389/389/389 390/390/390
f 391/391/391 392/392/392 393/393/393
f 392/392/392 394/394/394 393/393/393
f 393/393/393 395/395/395 391/391/391
f 396/396/396 393/393/393 394/394/394
f 394/394/394 390/390/390 396/396/396
f 397/397/397 386/386/386 398/398/398
f 384/384/384 387/387/387 383/383/383
f 385/385/385 398/398/398 386/386/386
f 399/399/399 383/383/383 387/387/387
f 399/399/399 400/400/400 381/381/381
f 381/381/381 383/383/383 399/399/399
f 381/381/381 400/400/400 401/401/401
f 401/401/401 400/400/400 389/389/389
f 400/400/400 402/402/402 389/389/389
f 389/389/389 402/402/402 390/390/390
f 402/402/402 396/396/396 390/390/390
f 371/371/371 366/366/366 368/368/368
f 376/376/376 375/375/375 372/372/372
f 377/377/377 376/376/376 372/372/372
g DistRt117
s 1
f 403/403/403 404/404/404 405/405/405
f 405/405/405 406/406/406 403/403/403
f 407/407/407 406/406/406 405/405/405
f 408/408/408 409/409/409 410/410/410
f 410/410/410 411/411/411 408/408/408
f 407/407/407 411/411/411 410/410/410
f 412/412/412 403/403/403 413/413/413
f 412/412/412 414/414/414 415/415/415
f 416/416/416 417/417/417 418/418/418
f 419/419/419 418/418/418 414/414/414
f 418/418/418 417/417/417 414/414/414
f 420/420/420 417/417/417 421/421/421
f 422/422/422 423/423/423 424/424/424
f 425/425/425 426/426/426 427/427/427
f 428/428/428 429/429/429 430/430/430
f 431/431/431 432/432/432 433/433/433
f 434/434/434 435/435/435 436/436/436
f 437/437/437 438/438/438 421/421/421
f 438/438/438 439/439/439 421/421/421
f 436/436/436 440/440/440 441/441/441
f 440/440/440 442/442/442 441/441/441
f 435/435/435 442/442/442 440/440/440
f 435/435/435 440/440/440 436/436/436
f 443/443/443 444/444/444 441/441/441
f 441/441/441 445/445/445 436/436/436
f 444/444/444 446/446/446 445/445/445
f 444/444/444 445/445/445 441/441/441
f 436/436/436 447/447/447 448/448/448
f 447/447/447 446/446/446 448/448/448
f 445/445/445 446/446/446 447/447/447
f 445/445/445 447/447/447 436/436/436
f 449/449/449 450/450/450 427/427/427
f 416/416/416 451/451/451 452/452/452
f 416/416/416 452/452/452 453/453/453
f 407/407/407 454/454/454 411/411/411
f 410/410/410 409/409/409 455/455/455
f 410/410/410 455/455/455 407/407/407
f 407/407/407 455/455/455 456/456/456
f 455/455/455 409/409/409 456/456/456
f 405/405/405 404/404/404 457/457/457
f 405/405/405 457/457/457 407/407/407
f 407/407/407 457/457/457 454/454/454
f 457/457/457 404/404/404 454/454/454
f 458/458/458 451/451/451 416/416/416
f 419/419/419 451/451/451 458/458/458
f 458/458/458 418/418/418 419/419/419
f 416/416/416 418/418/418 458/458/458
f 412/412/412 415/415/415 459/459/459
f 412/412/412 459/459/459 460/460/460
f 461/461/461 462/462/462 463/463/463
f 464/464/464 462/462/462 461/461/461
f 464/464/464 465/465/465 466/466/466
f 464/464/464 466/466/466 462/462/462
f 467/467/467 420/420/420 468/468/468
f 427/427/427 420/420/420 467/467/467
f 467/467/467 425/425/425 427/427/427
f 468/468/468 425/425/425 467/467/467
f 466/466/466 428/428/428 430/430/430
f 465/465/465 428/428/428 466/466/466
f 469/469/469 439/439/439 468/468/468
f 421/421/421 439/439/439 469/469/469
f 469/469/469 420/420/420 421/421/421
f 468/468/468 420/420/420 469/469/469
f 470/470/470 422/422/422 424/424/424
f 465/465/465 422/422/422 470/470/470
f 428/428/428 465/465/465 470/470/470
f 428/428/428 470/470/470 432/432/432
f 419/419/419 413/413/413 471/471/471
f 419/419/419 471/471/471 451/451/451
f 471/471/471 403/403/403 451/451/451
f 413/413/413 403/403/403 471/471/471
f 472/472/472 413/413/413 419/419/419
f 412/412/412 413/413/413 472/472/472
f 472/472/472 414/414/414 412/412/412
f 419/419/419 414/414/414 472/472/472
f 423/423/423 422/422/422 473/473/473
f 414/414/414 417/417/417 474/474/474
f 414/414/414 474/474/474 415/415/415
f 427/427/427 475/475/475 420/420/420
f 475/475/475 417/417/417 420/420/420
f 450/450/450 417/417/417 475/475/475
f 450/450/450 475/475/475 427/427/427
f 476/476/476 465/465/465 464/464/464
f 422/422/422 465/465/465 476/476/476
f 473/473/473 422/422/422 476/476/476
f 473/473/473 476/476/476 464/464/464
f 477/477/477 426/426/426 425/425/425
f 426/426/426 477/477/477 448/448/448
f 477/477/477 434/434/434 448/448/448
f 439/439/439 478/478/478 468/468/468
f 478/478/478 425/425/425 468/468/468
f 478/478/478 477/477/477 425/425/425
f 439/439/439 477/477/477 478/478/478
f 479/479/479 428/428/428 432/432/432
f 429/429/429 428/428/428 479/479/479
f 429/429/429 479/479/479 431/431/431
f 479/479/479 432/432/432 431/431/431
f 460/460/460 449/449/449 427/427/427
f 407/407/407 456/456/456 406/406/406
f 460/460/460 403/403/403 412/412/412
f 453/453/453 417/417/417 416/416/416
f 427/427/427 426/426/426 460/460/460
f 421/421/421 417/417/417 437/437/437
f 424/424/424 423/423/423 433/433/433
f 430/430/430 429/429/429 463/463/463
f 441/441/441 442/442/442 443/443/443
f 448/448/448 446/446/446 426/426/426
f 448/448/448 434/434/434 436/436/436
g DistRt118
s 1
f 480/480/480 481/481/481 482/482/482
f 483/483/483 484/484/484 485/485/485
f 486/486/486 487/487/487 488/488/488
f 486/486/486 488/488/488 485/485/485
f 485/485/485 488/488/488 483/483/483
f 489/489/489 490/490/490 491/491/491
f 490/490/490 492/492/492 491/491/491
f 482/482/482 490/490/490 489/489/489
f 493/493/493 494/494/494 480/480/480
f 489/489/489 493/493/493 480/480/480
f 489/489/489 480/480/480 482/482/482
f 485/485/485 484/484/484 495/495/495
f 485/485/485 495/495/495 486/486/486
f 481/481/481 496/496/496 482/482/482
f 497/497/497 498/498/498 499/499/499
f 483/483/483 498/498/498 497/497/497
f 483/483/483 497/497/497 484/484/484
f 497/497/497 499/499/499 484/484/484
f 491/491/491 500/500/500 489/489/489
f 500/500/500 493/493/493 489/489/489
f 494/494/494 496/496/496 481/481/481
f 480/480/480 494/494/494 481/481/481
