# Exported using wow.export v0.2.19
o 20736_DistRt16.obj
v -66.47599029541016 -104.58460235595703 -103.3199691772461
v -64.47732543945312 -104.0638656616211 -102.55835723876953
v -64.47732543945312 -104.0638656616211 -104.07231140136719
v -62.47865295410156 -103.54312896728516 -104.82465362548828
v -66.47599029541016 -104.58460235595703 -104.83392333984375
v -65.47665405273438 -104.32423400878906 -104.45311737060547
v -70.47332763671875 -105.6260757446289 -101.8152847290039
v -66.47599029541016 -104.58460235595703 -101.80601501464844
v -67.47532653808594 -104.844970703125 -102.18682098388672
v -68.47465515136719 -105.10533905029297 -102.567626953125
v -68.47465515136719 -105.10533905029297 -104.08158111572266
v -70.47332763671875 -105.6260757446289 -104.84319305419922
v -62.47865295410156 -103.54312896728516 -101.79674530029297
v -65.47665405273438 -104.2088623046875 -101.80369567871094
v -62.47865295410156 -103.54312896728516 -101.79674530029297
v -66.47599029541016 -104.58460235595703 -101.80601501464844
v -70.47332000732422 -104.70315551757812 -101.8152847290039
v -70.47332000732422 -104.70315551757812 -101.52285766601562
v -66.47598266601562 -103.66168212890625 -101.51358795166016
v -68.47465515136719 -104.87460327148438 -101.81065368652344
v -66.47599029541016 -104.58460235595703 -104.83392333984375
v -62.47865295410156 -103.54312896728516 -104.82465362548828
v -65.47665405273438 -104.20886993408203 -104.83160400390625
v -68.47465515136719 -104.8746109008789 -104.83856201171875
v -64.4773178100586 -103.14094543457031 -101.50895690917969
v -62.47865295410156 -102.62020874023438 -101.50431823730469
v -62.47865676879883 -102.6202163696289 -104.82466125488281
v -66.47598266601562 -103.66168212890625 -104.83392333984375
v -64.47732543945312 -103.3716812133789 -104.82929229736328
v -66.47599029541016 -104.1231460571289 -104.83392333984375
v -66.47598266601562 -103.66168212890625 -104.83392333984375
v -62.47865676879883 -102.6202163696289 -104.82466125488281
v -62.47865676879883 -102.62020874023438 -105.1170883178711
v -70.47331237792969 -104.70315551757812 -104.84319305419922
v -70.47332763671875 -105.6260757446289 -104.84319305419922
v -70.47332763671875 -105.6260757446289 -101.8152847290039
v -70.47331237792969 -104.70315551757812 -104.84319305419922
v -66.47598266601562 -103.66168212890625 -105.12635803222656
v -70.47331237792969 -104.70315551757812 -105.1356201171875
v -62.47865295410156 -102.62020874023438 -101.79674530029297
v -66.47598266601562 -103.66168212890625 -101.80601501464844
v -66.47599029541016 -104.12313842773438 -101.80601501464844
v -70.47332000732422 -104.70315551757812 -101.8152847290039
v -67.47532653808594 -104.03741455078125 -101.80833435058594
v -64.47732543945312 -103.37167358398438 -101.80137634277344
v -66.47598266601562 -103.66168212890625 -101.80601501464844
v -62.47865295410156 -102.62020874023438 -101.79674530029297
v -70.83939361572266 -105.5512924194336 -104.41385650634766
v -70.83939361572266 -105.55125427246094 -102.2643051147461
v -70.47332763671875 -105.6260757446289 -101.8152847290039
v -70.47330474853516 -101.90008544921875 -105.46691131591797
v -70.47395324707031 -102.03897857666016 -105.28025817871094
v -66.47598266601562 -100.99750518798828 -105.27099609375
v -66.47599029541016 -101.55304718017578 -101.36894226074219
v -62.47800827026367 -100.5115737915039 -101.35967254638672
v -62.47865295410156 -100.65046691894531 -101.17301177978516
v -64.4773178100586 -100.3378677368164 -101.17764282226562
v -62.47865295410156 -99.81713104248047 -101.17301177978516
v -62.47800827026367 -99.95602416992188 -101.35967254638672
v -62.47801971435547 -99.9560317993164 -105.26172637939453
v -62.47866439819336 -99.817138671875 -105.44837951660156
v -66.47598266601562 -100.85860443115234 -101.18228149414062
v -65.47665405273438 -100.59823608398438 -101.17996215820312
v -62.11258316040039 -103.46837615966797 -104.39574432373047
v -62.47865295410156 -103.54312896728516 -104.82465362548828
v -62.47865295410156 -103.54312896728516 -101.79674530029297
v -62.11258316040039 -103.46830749511719 -102.24576568603516
v -70.47396087646484 -102.59453582763672 -105.28025817871094
v -70.47330474853516 -102.73341369628906 -105.46691131591797
v -66.47598266601562 -101.69194030761719 -105.45764923095703
v -70.83940124511719 -103.5196304321289 -104.64964294433594
v -71.80768585205078 -103.52135467529297 -104.62662506103516
v -71.80768585205078 -105.55305480957031 -104.39126586914062
v -70.83939361572266 -105.5512924194336 -104.41385650634766
v -70.83939361572266 -102.21920776367188 -104.47911834716797
v -71.80768585205078 -102.2220458984375 -104.4568862915039
v -70.83939361572266 -101.36225128173828 -103.9981460571289
v -71.80768585205078 -101.36397552490234 -103.97511291503906
v -70.83939361572266 -100.84857940673828 -103.33885955810547
v -71.80768585205078 -100.85031127929688 -103.31584167480469
v -70.47331237792969 -101.90007781982422 -101.1915512084961
v -68.47464752197266 -101.37934112548828 -101.18692016601562
v -67.47531127929688 -101.95230865478516 -101.18460083007812
v -68.47464752197266 -102.21267700195312 -101.18692016601562
v -70.47396850585938 -102.59452056884766 -101.37821197509766
v -64.47732543945312 -101.17120361328125 -105.45301818847656
v -66.47598266601562 -101.69194030761719 -101.18228149414062
v -63.47798538208008 -100.91083526611328 -101.17532348632812
v -64.4773178100586 -101.17120361328125 -101.17764282226562
v -62.47866439819336 -100.65047454833984 -105.4483871459961
v -62.47801971435547 -100.51158142089844 -105.26172637939453
v -66.47599029541016 -101.55305480957031 -105.27099609375
v -65.47665405273438 -101.43157196044922 -101.17996215820312
v -70.83940124511719 -101.36225128173828 -102.67957305908203
v -71.80768585205078 -101.36397552490234 -102.65655517578125
v -70.83940124511719 -102.21807861328125 -102.19938659667969
v -71.80768585205078 -102.21981048583984 -102.1763687133789
v -70.83940124511719 -103.5196304321289 -102.028076171875
v -71.80768585205078 -103.52135467529297 -102.00505828857422
v -70.83939361572266 -105.55125427246094 -102.2643051147461
v -71.80768585205078 -105.552978515625 -102.24128723144531
v -66.47599029541016 -100.99749755859375 -101.36894226074219
v -70.47396850585938 -102.0389633178711 -101.37821197509766
v -66.47599029541016 -101.2752685546875 -101.36894226074219
v -66.47599029541016 -101.55304718017578 -101.36894226074219
v -70.47396850585938 -102.0389633178711 -101.37821197509766
v -62.47800827026367 -100.5115737915039 -101.35967254638672
v -66.47599029541016 -100.99749755859375 -101.36894226074219
v -68.4749755859375 -102.07378387451172 -101.37358093261719
v -70.47396850585938 -102.59452056884766 -101.37821197509766
v -68.4749755859375 -102.07378387451172 -101.37358093261719
v -62.47801971435547 -100.51158142089844 -105.26172637939453
v -62.47801971435547 -99.9560317993164 -105.26172637939453
v -64.47700500488281 -100.47676849365234 -105.266357421875
v -66.47598266601562 -100.99750518798828 -105.27099609375
v -64.47700500488281 -100.47676849365234 -105.266357421875
v -66.47598266601562 -101.27528381347656 -105.27099609375
v -70.47395324707031 -102.03897857666016 -105.28025817871094
v -66.47599029541016 -101.55305480957031 -105.27099609375
v -70.47396087646484 -102.59453582763672 -105.28025817871094
v -68.4749755859375 -102.07379150390625 -105.27562713623047
v -68.4749755859375 -102.07379150390625 -105.27562713623047
v -64.47699737548828 -100.47676086425781 -101.36430358886719
v -62.47800827026367 -99.95602416992188 -101.35967254638672
v -64.47699737548828 -100.47676086425781 -101.36430358886719
v -70.47331237792969 -102.73340606689453 -101.1915512084961
v -70.47332763671875 -105.6260757446289 -104.84319305419922
v -62.11258316040039 -100.13737487792969 -104.46138000488281
v -62.47865295410156 -100.1574935913086 -104.81576538085938
v -62.47865295410156 -101.59085083007812 -105.04584503173828
v -62.11257553100586 -101.43668365478516 -104.631103515625
v -62.11258316040039 -99.27930450439453 -103.9795913696289
v -62.47864532470703 -99.06716918945312 -104.19056701660156
v -62.11258316040039 -98.76563262939453 -103.32032775878906
v -62.47865295410156 -98.41793823242188 -103.30858612060547
v -62.47865295410156 -99.06592559814453 -102.42652893066406
v -62.11257553100586 -99.27930450439453 -102.66104888916016
v -62.11257553100586 -100.1351318359375 -102.18085479736328
v -62.47864532470703 -100.15740966796875 -101.80362701416016
v -62.47864532470703 -101.58767700195312 -101.57135772705078
v -62.11256790161133 -101.43668365478516 -102.00955200195312
v -62.47865676879883 -102.6202163696289 -104.82466125488281
v -62.11258316040039 -103.46837615966797 -104.39574432373047
v -70.47332763671875 -103.67379760742188 -105.06437683105469
v -70.83940124511719 -103.5196304321289 -104.64964294433594
v -70.47331237792969 -104.70315551757812 -104.84319305419922
v -70.47332000732422 -104.70315551757812 -101.8152847290039
v -70.83939361572266 -105.55125427246094 -102.2643051147461
v -70.83940124511719 -103.5196304321289 -102.028076171875
v -70.47332763671875 -103.67062377929688 -101.58988952636719
v -70.47332763671875 -105.6260757446289 -101.8152847290039
v -70.83939361572266 -105.5512924194336 -104.41385650634766
v -70.47332763671875 -105.6260757446289 -104.84319305419922
v -70.83940124511719 -102.21807861328125 -102.19938659667969
v -70.47332763671875 -102.2403564453125 -101.8221664428711
v -70.83940124511719 -101.36225128173828 -102.67957305908203
v -70.47332763671875 -101.14887237548828 -102.44506072998047
v -70.83939361572266 -100.84857940673828 -103.33885955810547
v -70.47332763671875 -100.50088500976562 -103.3271255493164
v -70.47332763671875 -101.15011596679688 -104.20909881591797
v -70.83939361572266 -101.36225128173828 -103.9981460571289
v -70.83939361572266 -102.21920776367188 -104.47911834716797
v -70.47332763671875 -102.24044036865234 -104.83428955078125
v -62.11258316040039 -103.46830749511719 -102.24576568603516
v -62.47865295410156 -102.62020874023438 -101.79674530029297
v -62.47865295410156 -103.54312896728516 -101.79674530029297
v -62.47865295410156 -103.54312896728516 -104.82465362548828
v -62.11258316040039 -103.46830749511719 -102.24576568603516
v -59.07029342651367 -102.8497314453125 -102.24577331542969
v -59.07024383544922 -102.8498764038086 -104.39573669433594
v -62.11258316040039 -103.46837615966797 -104.39574432373047
v -70.83939361572266 -105.55125427246094 -102.2643051147461
v -70.83939361572266 -105.5512924194336 -104.41385650634766
v -71.80768585205078 -105.55305480957031 -104.39126586914062
v -71.80768585205078 -105.552978515625 -102.24128723144531
v -62.47865295410156 -97.36185455322266 -103.28665924072266
v -62.47865295410156 -98.41793823242188 -103.30858612060547
v -62.47865295410156 -97.98684692382812 -101.45620727539062
v -70.47332763671875 -100.50088500976562 -103.3271255493164
v -70.47332763671875 -101.15011596679688 -104.20909881591797
v -70.47332763671875 -100.06979370117188 -105.13565826416016
v -70.47330474853516 -102.73341369628906 -105.46691131591797
v -70.47396087646484 -102.59453582763672 -105.28025817871094
v -70.47332763671875 -103.67379760742188 -105.06437683105469
v -70.47332763671875 -102.24044036865234 -104.83428955078125
v -70.47332763671875 -100.06979370117188 -101.47473907470703
v -70.47331237792969 -101.90007781982422 -101.1915512084961
v -70.47396850585938 -102.0389633178711 -101.37821197509766
v -62.47864532470703 -101.58767700195312 -101.57135772705078
v -62.47865295410156 -102.62020874023438 -101.79674530029297
v -62.47865295410156 -102.62020874023438 -101.50431823730469
v -70.47331237792969 -102.73340606689453 -101.1915512084961
v -70.47332000732422 -104.70315551757812 -101.52285766601562
v -70.47332763671875 -103.67062377929688 -101.58988952636719
v -62.47864532470703 -100.15740966796875 -101.80362701416016
v -62.47800827026367 -100.5115737915039 -101.35967254638672
v -62.47800827026367 -99.95602416992188 -101.35967254638672
v -62.47865676879883 -102.6202163696289 -104.82466125488281
v -62.47865295410156 -101.59085083007812 -105.04584503173828
v -62.47865676879883 -102.62020874023438 -105.1170883178711
v -62.47801971435547 -100.51158142089844 -105.26172637939453
v -62.47865295410156 -100.1574935913086 -104.81576538085938
v -62.47801971435547 -99.9560317993164 -105.26172637939453
v -70.47330474853516 -101.90008544921875 -105.46691131591797
v -70.47395324707031 -102.03897857666016 -105.28025817871094
v -62.47864532470703 -99.06716918945312 -104.19056701660156
v -62.47865295410156 -97.98684692382812 -105.11711883544922
v -70.47332763671875 -99.4448013305664 -103.3051986694336
v -70.47332763671875 -101.14887237548828 -102.44506072998047
v -70.47332763671875 -102.2403564453125 -101.8221664428711
v -62.47866439819336 -100.65047454833984 -105.4483871459961
v -70.47331237792969 -104.70315551757812 -105.1356201171875
v -62.47865295410156 -99.06592559814453 -102.42652893066406
v -70.47331237792969 -104.70315551757812 -104.84319305419922
v -70.47396850585938 -102.59452056884766 -101.37821197509766
v -70.47332000732422 -104.70315551757812 -101.8152847290039
v -62.47865295410156 -100.65046691894531 -101.17301177978516
v -62.47865295410156 -99.81713104248047 -101.17301177978516
v -62.47866439819336 -99.817138671875 -105.44837951660156
v -62.11257553100586 -99.27930450439453 -102.66104888916016
v -59.0703125 -98.73001861572266 -102.66105651855469
v -59.0703125 -99.58585357666016 -102.18087005615234
v -60.5914421081543 -98.74783325195312 -103.64996337890625
v -59.07028579711914 -98.73001861572266 -103.97960662841797
v -59.0703010559082 -98.21635437011719 -103.3203353881836
v -62.11257553100586 -100.1351318359375 -102.18085479736328
v -59.0703125 -100.88740539550781 -102.00955963134766
v -59.07025909423828 -100.88740539550781 -104.63111114501953
v -62.11257553100586 -101.43668365478516 -104.631103515625
v -62.11258316040039 -103.46837615966797 -104.39574432373047
v -62.11258316040039 -100.13737487792969 -104.46138000488281
v -59.07026672363281 -99.58585357666016 -104.45980834960938
v -62.11258316040039 -99.27930450439453 -103.9795913696289
v -59.07029342651367 -102.8497314453125 -102.24577331542969
v -62.11258316040039 -103.46830749511719 -102.24576568603516
v -62.11256790161133 -101.43668365478516 -102.00955200195312
v -62.11258316040039 -98.76563262939453 -103.32032775878906
v -60.59144592285156 -98.7478256225586 -102.99069213867188
v -59.07024383544922 -102.8498764038086 -104.39573669433594
v -62.47865295410156 -97.36185455322266 -103.28665924072266
v -62.47865295410156 -97.98684692382812 -101.45620727539062
v -63.477989196777344 -98.0128402709961 -102.14494323730469
v -64.47732543945312 -98.03883361816406 -102.83367919921875
v -64.47732543945312 -98.35133361816406 -101.91845703125
v -67.47532653808594 -98.7418212890625 -103.06944274902344
v -70.47332763671875 -99.4448013305664 -103.3051986694336
v -66.47599029541016 -98.40332794189453 -103.29592895507812
v -68.47465515136719 -99.39280700683594 -101.92771911621094
v -68.47465515136719 -99.08030700683594 -102.84294891357422
v -66.47599029541016 -98.7158203125 -102.38069915771484
v -63.477989196777344 -98.0128402709961 -104.43301391601562
v -62.47865295410156 -97.98684692382812 -105.11711883544922
v -63.477989196777344 -98.0128402709961 -104.43301391601562
v -62.47865295410156 -97.98684692382812 -105.11711883544922
v -62.47865295410156 -97.36185455322266 -103.28665924072266
v -67.47532653808594 -98.7418212890625 -103.52705383300781
v -70.47332763671875 -99.4448013305664 -103.3051986694336
v -67.47532653808594 -98.7418212890625 -103.52705383300781
v -66.47599029541016 -98.40332794189453 -103.29592895507812
v -64.47732543945312 -98.35133361816406 -104.66413879394531
v -64.47732543945312 -98.35133361816406 -104.66413879394531
v -68.47465515136719 -99.08030700683594 -103.7581787109375
v -68.47465515136719 -99.39280700683594 -104.67340850830078
v -68.47465515136719 -99.08030700683594 -103.7581787109375
v -68.47465515136719 -99.39280700683594 -104.67340850830078
v -66.47599029541016 -98.7158203125 -104.2111587524414
v -70.47332763671875 -100.06979370117188 -105.13565826416016
v -68.47465515136719 -99.54905700683594 -105.13102722167969
v -68.47465515136719 -100.00662994384766 -105.21383666992188
v -70.47332763671875 -100.06979370117188 -105.13565826416016
v -68.47463989257812 -100.9217758178711 -105.37946319580078
v -68.47465515136719 -99.54905700683594 -105.13102722167969
v -66.47598266601562 -99.94346618652344 -105.2920150756836
v -63.47798538208008 -98.47599792480469 -105.16084289550781
v -62.47866439819336 -99.817138671875 -105.44837951660156
v -66.47599029541016 -99.0283203125 -105.12638854980469
v -64.4773178100586 -98.96515655517578 -105.2045669555664
v -65.47665405273438 -100.36946105957031 -105.41392517089844
v -64.47732543945312 -99.88030242919922 -105.37019348144531
v -68.47465515136719 -99.54905700683594 -101.47010803222656
v -70.47332763671875 -100.06979370117188 -101.47473907470703
v -66.47598266601562 -99.94346618652344 -101.32388305664062
v -64.4773178100586 -99.88029479980469 -101.24844360351562
v -64.4773178100586 -100.3378677368164 -101.17764282226562
v -62.47865295410156 -99.81713104248047 -101.17301177978516
v -63.47798538208008 -98.47599792480469 -101.42312622070312
v -64.4773178100586 -98.96515655517578 -101.39004516601562
v -66.47599029541016 -99.0283203125 -101.46546936035156
v -68.47464752197266 -100.92176818847656 -101.25772094726562
v -70.47332763671875 -100.06979370117188 -101.47473907470703
v -68.47465515136719 -100.00662994384766 -101.39930725097656
v -68.47465515136719 -99.54905700683594 -101.47010803222656
v -67.47532653808594 -99.05431365966797 -102.15420532226562
v -66.47599029541016 -99.0283203125 -101.46546936035156
v -67.47532653808594 -99.05431365966797 -104.4422836303711
v -66.47599029541016 -99.0283203125 -105.12638854980469
v -66.47599029541016 -98.7158203125 -104.2111587524414
v -67.47532653808594 -99.05431365966797 -104.4422836303711
v -68.47465515136719 -99.39280700683594 -104.67340850830078
v -65.47665405273438 -99.45431518554688 -105.248291015625
v -65.47665405273438 -99.45431518554688 -101.35696411132812
v -66.47598266601562 -100.85860443115234 -101.18228149414062
v -68.47464752197266 -101.37934112548828 -101.18692016601562
v -70.47331237792969 -101.90007781982422 -101.1915512084961
v -67.47531127929688 -100.4326171875 -101.29080200195312
v -64.47732543945312 -98.50758361816406 -101.4608383178711
v -65.47665405273438 -98.68982696533203 -101.69196319580078
v -63.477989196777344 -97.70034790039062 -103.06016540527344
v -65.97632598876953 -98.39032745361328 -102.9515609741211
v -63.47798538208008 -99.39114379882812 -101.28152465820312
v -65.47665405273438 -98.37732696533203 -102.60719299316406
v -64.47732543945312 -97.8825912475586 -103.29129028320312
v -64.47732543945312 -98.03883361816406 -103.74890899658203
v -65.47665405273438 -98.22108459472656 -103.52241516113281
v -63.477989196777344 -97.70034790039062 -103.51778411865234
v -64.47732543945312 -98.03883361816406 -103.74890899658203
v -63.477989196777344 -97.70034790039062 -103.51778411865234
v -64.97698974609375 -98.36433410644531 -104.32208251953125
v -64.97698974609375 -98.36433410644531 -104.32208251953125
v -64.47732543945312 -98.03883361816406 -103.74890899658203
v -63.477989196777344 -97.70034790039062 -103.51778411865234
v -65.97632598876953 -98.39032745361328 -103.63798522949219
v -65.97632598876953 -98.39032745361328 -103.63798522949219
v -68.47465515136719 -99.08030700683594 -103.7581787109375
v -67.47532653808594 -98.7418212890625 -103.52705383300781
v -66.47599029541016 -98.5595703125 -103.7535400390625
v -64.47732543945312 -98.50758361816406 -105.12174987792969
v -65.47665405273438 -98.68982696533203 -104.895263671875
v -65.47665405273438 -98.68982696533203 -104.895263671875
v -66.47599029541016 -99.0283203125 -105.12638854980469
v -68.47465515136719 -99.54905700683594 -105.13102722167969
v -70.47332763671875 -100.06979370117188 -105.13565826416016
v -67.47532653808594 -99.28868865966797 -105.12870788574219
v -67.47532653808594 -99.28868865966797 -105.12870788574219
v -67.47531127929688 -100.4326171875 -105.33573913574219
v -63.477989196777344 -99.39114379882812 -105.32647705078125
v -70.47330474853516 -101.90008544921875 -105.46691131591797
v -67.9749755859375 -101.13477325439453 -105.44041442871094
v -67.47532653808594 -99.28868865966797 -101.46778869628906
v -67.47532653808594 -99.28868865966797 -101.46778869628906
v -65.47665405273438 -100.59823608398438 -101.17996215820312
v -62.47865676879883 -102.62020874023438 -105.1170883178711
v -64.47732543945312 -101.17120361328125 -105.45301818847656
v -64.4773178100586 -102.15607452392578 -105.28736877441406
v -64.4773178100586 -103.14094543457031 -101.50895690917969
v -66.47598266601562 -103.66168212890625 -101.51358795166016
v -66.47598266601562 -102.67680358886719 -101.34793090820312
v -66.47598266601562 -102.67681121826172 -105.29199981689453
v -66.47598266601562 -101.69194030761719 -105.45764923095703
v -70.47330474853516 -102.73341369628906 -105.46691131591797
v -70.47331237792969 -104.70315551757812 -105.1356201171875
v -66.47598266601562 -103.66168212890625 -105.12635803222656
v -70.47331237792969 -102.73340606689453 -101.1915512084961
v -68.47464752197266 -102.21267700195312 -101.18692016601562
v -66.47598266601562 -101.69194030761719 -101.18228149414062
v -64.4773178100586 -102.15607452392578 -101.34329986572266
v -62.47866439819336 -100.65047454833984 -105.4483871459961
v -63.47798538208008 -101.89570617675781 -101.34098052978516
v -62.47865295410156 -100.65046691894531 -101.17301177978516
v -62.47865295410156 -102.62020874023438 -101.50431823730469
v -67.47531127929688 -101.95230865478516 -101.18460083007812
v -64.4773178100586 -101.17120361328125 -101.17764282226562
v -63.47798538208008 -100.91083526611328 -101.17532348632812
v -64.4773178100586 -102.64850616455078 -101.4261245727539
v -65.47665405273438 -101.43157196044922 -101.17996215820312
v -70.47332000732422 -104.70315551757812 -101.52285766601562
vn -0.2521248757839203 0.9676948189735413 0
vn -0.2521248459815979 0.9676947593688965 0
vn -0.2521248459815979 0.9676947593688965 0
vn -0.2521248459815979 0.9676946997642517 0
vn -0.2521248757839203 0.9676948189735413 0
vn -0.2521248459815979 0.9676947593688965 0
vn -0.2521248459815979 0.9676946997642517 0
vn -0.2521248757839203 0.9676948189735413 0
vn -0.2521248459815979 0.9676947593688965 0
vn -0.2521248459815979 0.9676947593688965 0
vn -0.2521248459815979 0.9676947593688965 0
vn -0.2521248459815979 0.9676946997642517 0
vn -0.2521248459815979 0.9676946997642517 0
vn 0.002318332437425852 -8.517655913919953e-9 -0.9999973177909851
vn 0.0023183294106274843 0 -0.9999973177909851
vn 0.002318332437425852 -8.517655913919953e-9 -0.9999973177909851
vn -0.2521250545978546 0.9676946401596069 0
vn -0.2521250545978546 0.9676946401596069 0
vn -0.252125084400177 0.9676947593688965 0
vn 0.002318335697054863 -1.7035311827839905e-8 -0.9999973177909851
vn -0.002319715917110443 0.0000036828789689025143 0.9999973177909851
vn -0.0023210872896015644 0.000007330652351811295 0.9999973177909851
vn -0.002319715917110443 0.0000036828789689025143 0.9999973177909851
vn -0.002318344544619322 3.510546520146818e-8 0.9999973177909851
vn -0.252125084400177 0.9676946997642517 0
vn -0.2521250545978546 0.9676946401596069 0
vn -0.002318344544619322 3.510546520146818e-8 0.9999973177909851
vn -0.002318344544619322 3.510546520146818e-8 0.9999973177909851
vn -0.002318344544619322 3.510546520146818e-8 0.9999973177909851
vn -0.002318344544619322 3.510546520146818e-8 0.9999973177909851
vn -0.2521251142024994 0.9676947593688965 0.000011228452422074042
vn -0.25212472677230835 0.9676947593688965 0.00002245690302515868
vn -0.25212547183036804 0.9676945805549622 0
vn -0.002318344544619322 3.510546520146818e-8 0.9999973177909851
vn -0.002318344544619322 3.510546520146818e-8 0.9999973177909851
vn 0.002318335697054863 -1.7035311827839905e-8 -0.9999973177909851
vn -0.25212547183036804 0.9676945805549622 0
vn -0.25212547183036804 0.9676945805549622 0
vn -0.25212547183036804 0.9676945805549622 0
vn -0.2521250545978546 0.9676946401596069 0
vn -0.252125084400177 0.9676947593688965 0
vn 0.002318335697054863 -1.7035311827839905e-8 -0.9999973177909851
vn 0.002318335697054863 -1.7035311827839905e-8 -0.9999973177909851
vn 0.002318335697054863 -1.7035311827839905e-8 -0.9999973177909851
vn 0.002318335697054863 -1.7035311827839905e-8 -0.9999973177909851
vn 0.002318335697054863 -1.7035311827839905e-8 -0.9999973177909851
vn 0.002318335697054863 -1.7035311827839905e-8 -0.9999973177909851
vn 0.20025843381881714 0.9797431230545044 -0.00001545511622680351
vn 0.20025843381881714 0.9797431230545044 -0.00001545511622680351
vn 0.20025843381881714 0.9797431230545044 -0.00001545511622680351
vn -0.20595280826091766 0.7854092717170715 0.5837085843086243
vn -0.20595280826091766 0.7854092717170715 0.5837085843086243
vn -0.20595280826091766 0.7854092717170715 0.5837085843086243
vn 0.20595312118530273 -0.7854158282279968 -0.5836997032165527
vn 0.20595312118530273 -0.7854158282279968 -0.5836997032165527
vn 0.20595312118530273 -0.7854158282279968 -0.5836997032165527
vn -0.2032564878463745 0.785364031791687 -0.584713876247406
vn -0.203220933675766 0.7851974368095398 -0.584949791431427
vn -0.20336294174194336 0.7858631014823914 -0.5840057730674744
vn -0.20595280826091766 0.7854092717170715 0.5837085843086243
vn -0.20581607520580292 0.7847480773925781 0.5846453309059143
vn -0.20329198241233826 0.7855304479598999 -0.5844779014587402
vn -0.203274205327034 0.7854471206665039 -0.5845958590507507
vn -0.2002730518579483 0.9797401428222656 -0.0000309031929646153
vn -0.20006242394447327 0.9797831773757935 0
vn -0.2002730518579483 0.9797401428222656 -0.0000309031929646153
vn -0.2002730518579483 0.9797401428222656 -0.0000309031929646153
vn 0.2033603936433792 -0.7858464121818542 0.5840290784835815
vn 0.20322401821613312 -0.7852071523666382 0.5849356651306152
vn 0.20329225063323975 -0.7855269312858582 0.5844824910163879
vn 0.4812241792678833 0.025445207953453064 0.8762282133102417
vn -0.38473910093307495 0.020110270008444786 0.9228062629699707
vn -0.3122257590293884 0.7453828454017639 0.5889987349510193
vn 0.5193085074424744 0.07189760357141495 0.8515570163726807
vn 0.369226336479187 -0.30077579617500305 0.8793212175369263
vn -0.34607642889022827 -0.30349454283714294 0.8877624273300171
vn 0.34562793374061584 -0.6128798127174377 0.7105769515037537
vn -0.3262459337711334 -0.6174179315567017 0.7157923579216003
vn 0.4047512710094452 -0.9144192934036255 0.003703623078763485
vn -0.3819652497768402 -0.9241700172424316 0.0035142942797392607
vn -0.20336294174194336 0.7858631014823914 -0.5840057730674744
vn -0.2033274918794632 0.7856968641281128 -0.5842419266700745
vn 0.2058677077293396 -0.7850027084350586 -0.5842852592468262
vn 0.20585063099861145 -0.7849200963973999 -0.5844023823738098
vn 0.20595312118530273 -0.7854158282279968 -0.5836997032165527
vn 0.20332631468772888 -0.7856866717338562 0.5842558145523071
vn 0.20588479936122894 -0.7850853800773621 -0.5841681957244873
vn 0.20593604445457458 -0.7853332161903381 -0.5838168263435364
vn 0.20591896772384644 -0.7852506041526794 -0.58393394947052
vn 0.2033603936433792 -0.7858464121818542 0.5840290784835815
vn 0.2033603936433792 -0.7858464121818542 0.5840290784835815
vn 0.2033603936433792 -0.7858464121818542 0.5840290784835815
vn 0.2059018909931183 -0.7851679921150208 -0.5840510725975037
vn 0.34629908204078674 -0.6118195056915283 -0.7111637592315674
vn -0.36052781343460083 -0.6083102822303772 -0.7070913910865784
vn 0.3624616265296936 -0.30204087495803833 -0.8816988468170166
vn -0.38108372688293457 -0.2995806336402893 -0.8746579885482788
vn 0.4803639054298401 0.025429140776395798 -0.8767005801200867
vn -0.4191208779811859 0.019667288288474083 -0.9077174067497253
vn 0.5220452547073364 0.07218676060438156 -0.8498575091362
vn -0.3335968554019928 0.7426844835281372 -0.58063143491745
vn -0.20336294174194336 0.7858631014823914 -0.5840057730674744
vn -0.20336294174194336 0.7858631014823914 -0.5840057730674744
vn 0.0023179573472589254 0 -0.9999973177909851
vn 0.0023179573472589254 0 -0.9999973177909851
vn 0.0023179573472589254 0 -0.9999973177909851
vn 0.0023179573472589254 0 -0.9999973177909851
vn 0.0023179573472589254 0 -0.9999973177909851
vn 0.0023179573472589254 0 -0.9999973177909851
vn 0.0023179573472589254 0 -0.9999973177909851
vn 0.20595312118530273 -0.7854158282279968 -0.5836997032165527
vn -0.0023179654963314533 0 0.9999973177909851
vn -0.0023179654963314533 0 0.9999973177909851
vn -0.0023179654963314533 0 0.9999973177909851
vn -0.0023179654963314533 0 0.9999973177909851
vn -0.20595280826091766 0.7854092717170715 0.5837085843086243
vn -0.0023179654963314533 0 0.9999973177909851
vn -0.0023179654963314533 0 0.9999973177909851
vn -0.002317968290299177 1.414759864815096e-8 0.9999973177909851
vn -0.0023179708514362574 2.829519729630192e-8 0.9999973177909851
vn -0.002317969687283039 2.122139797222644e-8 0.9999973177909851
vn 0.2033603936433792 -0.7858464121818542 0.5840290784835815
vn 0.0023179573472589254 0 -0.9999973177909851
vn 0.0023179573472589254 0 -0.9999973177909851
vn -0.20336294174194336 0.7858631014823914 -0.5840057730674744
vn 0.20581640303134918 -0.7847545742988586 -0.5846365094184875
vn 0.20015311241149902 0.9797646403312683 0
vn -0.6664562821388245 -0.24941346049308777 0.7025873064994812
vn -0.6601445078849792 -0.2554934620857239 0.7063513994216919
vn -0.7345144152641296 0.009936163201928139 0.6785203218460083
vn -0.7264809012413025 0.04425681754946709 0.6857600212097168
vn -0.6317774653434753 -0.5074133276939392 0.5859940052032471
vn -0.6317774653434753 -0.5074133276939392 0.5859940052032471
vn -0.7072652578353882 -0.7069184184074402 0.006497247610241175
vn -0.6885794401168823 -0.7251415252685547 0.005302790552377701
vn -0.6398468613624573 -0.5130988359451294 -0.5721237659454346
vn -0.6599878072738647 -0.49020734429359436 -0.5693090558052063
vn -0.6888567209243774 -0.2432873398065567 -0.6828526258468628
vn -0.6888567209243774 -0.2432873398065567 -0.6828526258468628
vn -0.7531203627586365 0.01000197697430849 -0.6578067541122437
vn -0.7451226115226746 0.04363701120018959 -0.6654983758926392
vn -0.7346545457839966 0.07374536991119385 0.674421489238739
vn -0.7163898348808289 0.04295547679066658 0.696376621723175
vn 0.7348048686981201 0.009985045529901981 0.6782050728797913
vn 0.4812241792678833 0.025445207953453064 0.8762282133102417
vn 0.7348484992980957 0.07378802448511124 0.674205482006073
vn 0.7516100406646729 0.07240839302539825 -0.6556214094161987
vn 0.5220452547073364 0.07218676060438156 -0.8498575091362
vn 0.4803639054298401 0.025429140776395798 -0.8767005801200867
vn 0.7531149983406067 0.01000203937292099 -0.6578128933906555
vn 0.7750722765922546 -0.000005681270977220265 -0.6318725347518921
vn 0.5193085074424744 0.07189760357141495 0.8515570163726807
vn 0.7609567642211914 -0.000011183139577042311 0.6488025784492493
vn 0.3624616265296936 -0.30204087495803833 -0.8816988468170166
vn 0.6888505220413208 -0.24328698217868805 -0.682858943939209
vn 0.34629908204078674 -0.6118195056915283 -0.7111637592315674
vn 0.639846682548523 -0.5130966901779175 -0.5721258521080017
vn 0.4047512710094452 -0.9144192934036255 0.003703623078763485
vn 0.6885860562324524 -0.7251352071762085 0.0053048632107675076
vn 0.6317576169967651 -0.5074284076690674 0.5860023498535156
vn 0.34562793374061584 -0.6128798127174377 0.7105769515037537
vn 0.369226336479187 -0.30077579617500305 0.8793212175369263
vn 0.6604576706886292 -0.25545534491539 0.7060724496841431
vn -0.7340973615646362 0.04196782037615776 -0.6777461171150208
vn -0.7516105771064758 0.07240897417068481 -0.6556206941604614
vn -0.7750670313835144 0 -0.6318790316581726
vn -0.7606275677680969 -8.144506296048348e-7 0.6491884589195251
vn -0.19922974705696106 0.9799528121948242 -0.00003090491736656986
vn 0.225920632481575 0.6289559602737427 -0.7438912987709045
vn 0.20860382914543152 0.6086861491203308 0.7654969692230225
vn -0.19922974705696106 0.9799528121948242 -0.00003090491736656986
vn -0.001821373589336872 0.9999983310699463 -0.00001577463626745157
vn -0.001821373589336872 0.9999983310699463 -0.00001577463626745157
vn -0.3122257590293884 0.7453828454017639 0.5889987349510193
vn -0.3335968554019928 0.7426844835281372 -0.58063143491745
vn -1 0 0
vn -1 0 0
vn -0.9999998807907104 -0.0003102583286818117 0.00034503338974900544
vn 1 0 0
vn 0.9999998807907104 -0.0002918506506830454 -0.00034028521622531116
vn 1 0 0
vn 1 0.000007327709226956358 0.00008450866880593821
vn 0.9999989867210388 -0.000012206870451336727 -0.0014045184943825006
vn 1 0.000007327709226956358 0.00008450866880593821
vn 0.9999991655349731 0.0006371470517478883 -0.0011111784260720015
vn 0.9999998807907104 -0.0003069934609811753 0.0003414025704842061
vn 0.9999949932098389 -0.0004772964457515627 -0.0031327195465564728
vn 0.9999991655349731 0.0006509347003884614 0.001140613341704011
vn -0.9999986290931702 0.0002678949967958033 0.001649615354835987
vn -1 0.0000065680151237756945 0
vn -1 0.0000065680151237756945 0
vn 0.9999958276748657 0.0011152573861181736 -0.0026580123230814934
vn 1 0.0000065680151237756945 0
vn 0.9999986290931702 0.00026789424009621143 0.001649610698223114
vn -0.9999991655349731 0.000646003638394177 0.001142860040999949
vn -0.9999989867210388 0 0.001435902202501893
vn -0.9999991655349731 0.000646003638394177 0.001142860040999949
vn -1 0.000006588255928363651 1.5278886489333843e-10
vn -1 0.0000036639009977079695 0.000042253672290826216
vn -1 0.0000036639009977079695 0.000042253672290826216
vn -0.9999989867210388 0 -0.00141423218883574
vn -0.9999991655349731 0.0006490260711871088 -0.0011210357770323753
vn -0.9999998807907104 -0.00029551799525506794 -0.00033724194508977234
vn 0.9999951124191284 -0.0005432882462628186 0.0030837112572044134
vn 0.9999998807907104 -0.0002918506506830454 -0.00034028521622531116
vn -0.9999998807907104 -0.00029551799525506794 -0.00033724194508977234
vn -1 0 0
vn 1 0 0
vn 0.9999991655349731 0.0006509347003884614 0.001140613341704011
vn 0.9999991655349731 0.0006509347003884614 0.001140613341704011
vn -1 0.0000036639009977079695 0.000042253672290826216
vn 1 0.000007327709226956358 0.00008450866880593821
vn -0.9999991655349731 0.000646003638394177 0.001142860040999949
vn 1 0.000013176533684600145 0
vn 0.9999989867210388 0 0.001435902202501893
vn 1 0.0000065680151237756945 0
vn -0.9999959468841553 0.0011090291664004326 -0.002626315224915743
vn -0.9999951124191284 -0.00047889843699522316 -0.00309517839923501
vn -0.999995231628418 -0.000544023874681443 0.003046831116080284
vn 0.11681071668863297 -0.646986186504364 -0.7535012364387512
vn 0.39943215250968933 -0.594942569732666 -0.6974935531616211
vn 0.33943232893943787 -0.29793980717658997 -0.8921981453895569
vn 0.341066837310791 -0.8416869044303894 0.41861268877983093
vn 0.3994455337524414 -0.5950005054473877 0.6974364519119263
vn 0.4970051646232605 -0.8677476048469543 1.9251567096034705e-7
vn 0.05682573467493057 -0.3147602379322052 -0.947468638420105
vn 0.315681129693985 -0.0006275452324189246 -0.9488651156425476
vn 0.3158668577671051 -0.008931971155107021 0.9487614631652832
vn 0.0011050114408135414 -0.007278522476553917 0.9999728798866272
vn -0.020769909024238586 0.11504890024662018 0.9931426644325256
vn 0.056562475860118866 -0.314441978931427 0.9475900530815125
vn 0.33898821473121643 -0.2953920066356659 0.8932136297225952
vn 0.11683588474988937 -0.6470932364463806 0.7534053921699524
vn 0.225920632481575 0.6289559602737427 -0.7438912987709045
vn -0.023478945717215538 0.11546126008033752 -0.9930344820022583
vn 0.00003541649493854493 -0.007556295022368431 -0.9999714493751526
vn 0.1776772439479828 -0.9840888381004333 0.00000424366453444236
vn 0.31706976890563965 -0.8675359487533569 -0.3832077085971832
vn 0.20860382914543152 0.6086861491203308 0.7654969692230225
vn 0.25212472677230835 -0.9676947593688965 0.00005753233199357055
vn 0.16512009501457214 -0.6269822716712952 -0.7613334655761719
vn 0.21725912392139435 -0.8292932510375977 -0.5148505568504333
vn 0.24671585857868195 -0.9450244903564453 -0.21461625397205353
vn 0.2021750807762146 -0.7706016302108765 -0.6043991446495056
vn 0.25088685750961304 -0.9619829058647156 -0.1079101487994194
vn 0.25212472677230835 -0.9676947593688965 0.00005753233199357055
vn 0.25212472677230835 -0.9676947593688965 0.00005753233199357055
vn 0.2021750509738922 -0.7706016302108765 -0.6043992042541504
vn 0.24671585857868195 -0.9450244903564453 -0.21461625397205353
vn 0.22980307042598724 -0.8782894611358643 -0.4192828834056854
vn 0.216044083237648 -0.8337322473526001 0.5081490278244019
vn 0.1642279475927353 -0.6370335817337036 0.7531383633613586
vn 0.23870988190174103 -0.9189980626106262 0.31378352642059326
vn 0.23870988190174103 -0.9189980626106262 0.31378352642059326
vn 0.23870988190174103 -0.9189980626106262 0.31378352642059326
vn 0.2504611611366272 -0.9622564315795898 0.1064508780837059
vn 0.23870988190174103 -0.9189980626106262 0.31378352642059326
vn 0.23870988190174103 -0.9189980626106262 0.31378352642059326
vn 0.23870988190174103 -0.9189980626106262 0.31378352642059326
vn 0.20098796486854553 -0.7767343521118164 0.5968982577323914
vn 0.23870988190174103 -0.9189980626106262 0.31378352642059326
vn 0.24595439434051514 -0.9458946585655212 0.21163581311702728
vn 0.20098789036273956 -0.7767342329025269 0.5968984961509705
vn 0.23870988190174103 -0.9189980626106262 0.31378352642059326
vn 0.23870988190174103 -0.9189980626106262 0.31378352642059326
vn 0.22864755988121033 -0.8812656998634338 0.41363149881362915
vn 0.16422772407531738 -0.637033224105835 0.7531387209892273
vn 0.16422778367996216 -0.6370333433151245 0.7531386613845825
vn 0.13732068240642548 -0.5344785451889038 0.8339517712593079
vn 0.16422772407531738 -0.637033224105835 0.7531387209892273
vn 0.07670661062002182 -0.30286386609077454 0.949941873550415
vn 0.16422778367996216 -0.6370333433151245 0.7531386613845825
vn 0.10797317326068878 -0.4224250316619873 0.8999437689781189
vn 0.1511104553937912 -0.5870618224143982 0.7953137755393982
vn 0.04407678544521332 -0.1779201179742813 0.9830573201179504
vn 0.16422784328460693 -0.6370334029197693 0.753138542175293
vn 0.13732081651687622 -0.5344787836074829 0.8339517116546631
vn 0.06052631139755249 -0.2409278303384781 0.9686538577079773
vn 0.07670661062002182 -0.30286386609077454 0.949941873550415
vn 0.16512002050876617 -0.6269821524620056 -0.7613334655761719
vn 0.16512002050876617 -0.6269821524620056 -0.7613335847854614
vn 0.10759509354829788 -0.40488699078559875 -0.908014178276062
vn 0.0755469799041748 -0.28144896030426025 -0.9565977454185486
vn 0.042091842740774155 -0.15276910364627838 -0.9873651266098022
vn 0.042091842740774155 -0.15276910364627838 -0.9873651266098022
vn 0.1517333686351776 -0.5752240419387817 -0.8037999868392944
vn 0.13763931393623352 -0.520784318447113 -0.8425195813179016
vn 0.16512006521224976 -0.6269822120666504 -0.7613335251808167
vn 0.0755469799041748 -0.28144896030426025 -0.9565977454185486
vn 0.16512002050876617 -0.6269821524620056 -0.7613335847854614
vn 0.13763926923274994 -0.5207841992378235 -0.8425195217132568
vn 0.16512002050876617 -0.6269821524620056 -0.7613334655761719
vn 0.21725906431674957 -0.8292933106422424 -0.5148506760597229
vn 0.16512006521224976 -0.6269822120666504 -0.7613335251808167
vn 0.21604397892951965 -0.8337321877479553 0.5081492066383362
vn 0.16422784328460693 -0.6370334029197693 0.753138542175293
vn 0.23870988190174103 -0.9189980626106262 0.31378352642059326
vn 0.23870988190174103 -0.9189980626106262 0.31378352642059326
vn 0.23870988190174103 -0.9189980626106262 0.31378352642059326
vn 0.12292037159204483 -0.4795183539390564 0.8688801527023315
vn 0.12290365248918533 -0.46391692757606506 -0.877311646938324
vn 0.042091842740774155 -0.15276910364627838 -0.9873651266098022
vn 0.042091842740774155 -0.15276910364627838 -0.9873651266098022
vn 0.042091842740774155 -0.15276910364627838 -0.9873651266098022
vn 0.09178496897220612 -0.3439697027206421 -0.93448406457901
vn 0.16512008011341095 -0.6269822120666504 -0.7613334655761719
vn 0.18472741544246674 -0.7029008269309998 -0.6868816018104553
vn 0.25088685750961304 -0.9619829058647156 -0.1079101487994194
vn 0.24916571378707886 -0.9549001455307007 -0.16149936616420746
vn 0.09178495407104492 -0.3439696729183197 -0.9344839453697205
vn 0.23966039717197418 -0.91701740026474 -0.3188132047653198
vn 0.25212472677230835 -0.9676947593688965 0.00005753233199357055
vn 0.24595439434051514 -0.9458946585655212 0.21163581311702728
vn 0.23870988190174103 -0.9189980626106262 0.31378352642059326
vn 0.2504611611366272 -0.9622564315795898 0.1064508780837059
vn 0.23870988190174103 -0.9189980626106262 0.31378352642059326
vn 0.23870988190174103 -0.9189980626106262 0.31378352642059326
vn 0.22266198694705963 -0.8587182760238647 0.4615456163883209
vn 0.23870988190174103 -0.9189980626106262 0.31378352642059326
vn 0.23870988190174103 -0.9189980626106262 0.31378352642059326
vn 0.23870988190174103 -0.9189980626106262 0.31378352642059326
vn 0.24856071174144745 -0.9554321765899658 0.15926949679851532
vn 0.23870988190174103 -0.9189980626106262 0.31378352642059326
vn 0.23870988190174103 -0.9189980626106262 0.31378352642059326
vn 0.23870988190174103 -0.9189980626106262 0.31378352642059326
vn 0.23870988190174103 -0.9189980626106262 0.31378352642059326
vn 0.1642279177904129 -0.6370335221290588 0.753138542175293
vn 0.18365028500556946 -0.7109190225601196 0.6788716912269592
vn 0.23870988190174103 -0.9189980626106262 0.31378352642059326
vn 0.23870988190174103 -0.9189980626106262 0.31378352642059326
vn 0.23870988190174103 -0.9189980626106262 0.31378352642059326
vn 0.23870988190174103 -0.9189980626106262 0.31378352642059326
vn 0.16422781348228455 -0.6370333433151245 0.7531386017799377
vn 0.16422781348228455 -0.6370333433151245 0.7531386017799377
vn 0.09254571050405502 -0.3634527623653412 0.9270045161247253
vn 0.09254571050405502 -0.3634527623653412 0.9270044565200806
vn 0.04407678544521332 -0.1779201179742813 0.9830573201179504
vn 0.05233065411448479 -0.20954051613807678 0.9763986468315125
vn 0.16512003540992737 -0.6269822120666504 -0.7613334655761719
vn 0.16512003540992737 -0.6269822120666504 -0.7613334655761719
vn 0.042091842740774155 -0.15276910364627838 -0.9873651266098022
vn -0.04545314237475395 0.16569001972675323 0.9851298332214355
vn -0.045453161001205444 0.16569256782531738 0.9851294755935669
vn -0.04545314610004425 0.16569086909294128 0.985129714012146
vn -0.04089493677020073 0.1657285839319229 -0.9853231310844421
vn -0.04089493677020073 0.1657285839319229 -0.9853231310844421
vn -0.04089493677020073 0.1657285839319229 -0.9853231310844421
vn -0.04545314237475395 0.16569001972675323 0.9851298332214355
vn -0.04545315355062485 0.16569171845912933 0.9851295948028564
vn -0.04545314237475395 0.16569001972675323 0.9851298332214355
vn -0.04545314237475395 0.16569001972675323 0.9851298332214355
vn -0.04545314237475395 0.16569001972675323 0.9851298332214355
vn -0.04089493677020073 0.1657285839319229 -0.9853231310844421
vn -0.040894944220781326 0.16572870314121246 -0.9853231906890869
vn -0.04089494049549103 0.16572879254817963 -0.9853230714797974
vn -0.040894944220781326 0.16572870314121246 -0.9853231906890869
vn -0.04545316472649574 0.16569341719150543 0.9851292967796326
vn -0.040894944220781326 0.16572876274585724 -0.9853231906890869
vn -0.04089494049549103 0.16572900116443634 -0.9853230714797974
vn -0.04089493677020073 0.1657285839319229 -0.9853231310844421
vn -0.04089494049549103 0.16572874784469604 -0.9853231310844421
vn -0.04089494049549103 0.16572889685630798 -0.9853230714797974
vn -0.04089494049549103 0.16572895646095276 -0.9853230714797974
vn -0.04089493677020073 0.1657285839319229 -0.9853231310844421
vn -0.04089494049549103 0.1657288372516632 -0.9853230714797974
vn -0.04089493677020073 0.1657285839319229 -0.9853231310844421
vt 0.7725132703781128 11.877933502197266
vt 1.0998446941375732 11.75033950805664
vt 1.0998444557189941 12.006162643432617
vt 1.427175521850586 12.134392738342285
vt 0.7725132703781128 12.133851051330566
vt 0.9361788034439087 12.07000732421875
vt 0.11785103380680084 11.62147331237793
vt 0.7725135087966919 11.622108459472656
vt 0.6088478565216064 11.685906410217285
vt 0.4451821446418762 11.749703407287598
vt 0.4451821446418762 12.005620956420898
vt 0.11785103380680084 12.133309364318848
vt 1.4271759986877441 11.6227445602417
vt -0.16643811762332916 1.25
vt -0.19021499156951904 2
vt -0.19021499156951904 1
vt 0 0
vt 0.057545896619558334 0
vt 0.057545896619558334 1
vt -0.14266124367713928 0.5
vt -0.19021499156951904 1
vt -0.19021499156951904 2
vt -0.16643811762332916 1.25
vt -0.14266124367713928 0.5
vt 0.057545896619558334 1.5
vt 0.057545896619558334 2
vt 0 2
vt 0 1
vt -0.04755374789237976 1.5
vt -0.09510749578475952 1
vt 0 1
vt 0 2
vt 0.057545896619558334 2
vt 0 0
vt -0.19021499156951904 0
vt -0.19021499156951904 0
vt 0 0
vt 0.057545896619558334 1
vt 0.057545896619558334 0
vt 0 2
vt 0 1
vt -0.09510749578475952 1
vt 0 0
vt -0.02377687394618988 0.75
vt -0.04755374789237976 1.5
vt 0 1
vt 0 2
vt -0.32226860523223877 0.7070806622505188
vt -0.32805436849594116 1.3444205522537231
vt -0.03547453507781029 1.503393530845642
vt -0.33059385418891907 1.2962572574615479
vt -0.2751733362674713 1.2961515188217163
vt -0.2751096785068512 0.796703964471817
vt -0.05342772603034973 0.796703964471817
vt -0.053364016115665436 0.2972564101219177
vt 0.0020565262529999018 0.29736220836639404
vt -0.3304983377456665 0.5470859706401825
vt -0.33046650886535645 0.29736220836639404
vt -0.2750460207462311 0.2972564101219177
vt -0.2750460207462311 0.2972564101219177
vt -0.33046650886535645 0.29736220836639404
vt -0.33053016662597656 0.796809732913971
vt -0.33051425218582153 0.6719478368759155
vt -0.32226860523223877 0.7070806622505188
vt -0.027326639741659164 0.5574594736099243
vt -0.03547453507781029 1.503393530845642
vt -0.32805436849594116 1.3444205522537231
vt -0.05349143594503403 1.2961515188217163
vt 0.0019291092175990343 1.2962573766708374
vt 0.001992817735299468 0.7968097925186157
vt 1.7026640176773071 0.9066764712333679
vt 1.9513275623321533 0.9057067036628723
vt 1.9513134956359863 1.4396594762802124
vt 1.7026499509811401 1.4406291246414185
vt 1.7026604413986206 0.5694020390510559
vt 1.9513239860534668 0.5684322714805603
vt 1.7026604413986206 0.38801002502441406
vt 1.9513237476348877 0.38704025745391846
vt 1.7026479244232178 0.13896042108535767
vt 1.9513113498687744 0.13799065351486206
vt -0.33059385418891907 1.2962572574615479
vt -0.3305619955062866 1.0465334951877594
vt 0.0019768904894590378 0.9216716885566711
vt 0.001960963476449251 1.0465335845947266
vt -0.05349143594503403 1.2961515188217163
vt 0.002024671994149685 0.5470860004425049
vt 0.001992817735299468 0.7968097925186157
vt 0.0020405990071594715 0.42222410440444946
vt 0.002024671994149685 0.5470860004425049
vt 0.0020565262529999018 0.29736220836639404
vt -0.053364016115665436 0.2972564101219177
vt -0.05342772603034973 0.796703964471817
vt 0.0020087449811398983 0.6719478964805603
vt 1.7026604413986206 0.38801002502441406
vt 1.9513237476348877 0.38704025745391846
vt 1.7026604413986206 0.5694020390510559
vt 1.9513239860534668 0.5684322714805603
vt 1.7026640176773071 0.9066764712333679
vt 1.9513275623321533 0.9057067036628723
vt 1.7026499509811401 1.4406291246414185
vt 1.9513134956359863 1.4396594762802124
vt -0.2751096785068512 0.796703964471817
vt -0.2751733362674713 1.2961515188217163
vt -0.16426867246627808 0.796703964471817
vt -0.05342772603034973 0.796703964471817
vt -0.2751733362674713 1.2961515188217163
vt -0.053364016115665436 0.2972564101219177
vt -0.2751096785068512 0.796703964471817
vt -0.05345958098769188 1.0464277416467667
vt -0.05349143594503403 1.2961515188217163
vt -0.05345958098769188 1.0464277416467667
vt -0.053364016115665436 0.2972564101219177
vt -0.2750460207462311 0.2972564101219177
vt -0.27507784962654114 0.5469802021980286
vt -0.2751096785068512 0.796703964471817
vt -0.27507784962654114 0.5469802021980286
vt -0.16426867246627808 0.796703964471817
vt -0.2751733362674713 1.2961515188217163
vt -0.05342772603034973 0.796703964471817
vt -0.05349143594503403 1.2961515188217163
vt -0.05345958098769188 1.0464277416467667
vt -0.05345958098769188 1.0464277416467667
vt -0.27507784962654114 0.5469802021980286
vt -0.2750460207462311 0.2972564101219177
vt -0.27507784962654114 0.5469802021980286
vt 0.0019291092175990343 1.2962573766708374
vt -0.027326639741659164 0.5574594736099243
vt 0.2920289933681488 0.549548864364624
vt 0.5002730488777161 0.549548864364624
vt 0.5002730488777161 0.33117830753326416
vt 0.2920289933681488 0.33117830753326416
vt 0.2920289933681488 0.8090291023254395
vt 0.5002730488777161 0.8090291023254395
vt 0.2920289933681488 0.9935119152069092
vt 0.4725477695465088 0.9935119152069092
vt 0.5002730488777161 0.8090291023254395
vt 0.2920289933681488 0.8090291023254395
vt 0.2920289933681488 0.549548864364624
vt 0.5002730488777161 0.549548864364624
vt 0.5002730488777161 0.33117830753326416
vt 0.2920289933681488 0.33117830753326416
vt 0.5002730488777161 0.03308570384979248
vt 0.2920289933681488 0.0014636516571044922
vt 0.5002730488777161 0.33117830753326416
vt 0.2920289933681488 0.33117830753326416
vt 0.5002730488777161 0.03308570384979248
vt 0.5002730488777161 0.034652113914489746
vt 0.2920289933681488 0.0014636516571044922
vt 0.2920289933681488 0.33117830753326416
vt 0.5002730488777161 0.33117830753326416
vt 0.5002730488777161 0.0014636516571044922
vt 0.2920289933681488 0.0014636516571044922
vt 0.5002730488777161 0.0014636516571044922
vt 0.2920289933681488 0.549548864364624
vt 0.5002730488777161 0.549548864364624
vt 0.2920289933681488 0.8090291023254395
vt 0.5002730488777161 0.8090291023254395
vt 0.2920289933681488 0.9935119152069092
vt 0.4725477695465088 0.9935119152069092
vt 0.5002730488777161 0.8090291023254395
vt 0.2920289933681488 0.8090291023254395
vt 0.2920289933681488 0.549548864364624
vt 0.5002730488777161 0.549548864364624
vt 0.2920289933681488 0.0014636516571044922
vt 0.5002730488777161 0.034652113914489746
vt 0.5002730488777161 0.0014636516571044922
vt 0.5002730488777161 0.0014636516571044922
vt 0.00013297796249389648 1.2933297157287598
vt 0.00013515353202819824 -0.018764972686767578
vt 0.4964033365249634 -0.04702413082122803
vt 0.49640506505966187 1.293330430984497
vt 0 -0.007663726806640625
vt 0.4959178864955902 -0.05256938934326172
vt 0.4959178864955902 0.6729128956794739
vt 0 0.6851615309715271
vt 0.49937617778778076 1.7373422384262085
vt 0.5003989934921265 1.336104393005371
vt 0.9853495955467224 1.499890685081482
vt 0.5003989934921265 1.336104393005371
vt 0.2864152789115906 1.0894438028335571
vt 0.026088668033480644 1.499889612197876
vt -0.018753092736005783 0.4879000782966614
vt 0.026532305404543877 0.540666401386261
vt 0.049405939877033234 0.13062256574630737
vt 0.14189712703227997 0.6751962304115295
vt 0.9853495955467224 1.499890685081482
vt 1.0185272693634033 0.8045095801353455
vt 0.9732402563095093 0.7517425417900085
vt 0.9513862133026123 0.13182836771011353
vt 0.9406619071960449 -0.26045918464660645
vt 1.0257995128631592 -0.26045823097229004
vt 1.0185273885726929 0.4879034161567688
vt 1.0257995128631592 -0.26045823097229004
vt 0.9513862133026123 0.13182836771011353
vt 0.8583648204803467 0.6752288937568665
vt 0.9732404351234436 0.5406707525253296
vt 0.9732402563095093 0.7517425417900085
vt 0.05911025032401085 -0.26045989990234375
vt 0.049405939877033234 0.13062256574630737
vt -0.026027396321296692 -0.26045918464660645
vt 0.026532305404543877 0.540666401386261
vt 0.14189712703227997 0.6751962304115295
vt 0.0265331007540226 0.7517392635345459
vt -0.018752895295619965 0.8045076131820679
vt 0.0265331007540226 0.7517392635345459
vt 0.2864152789115906 1.0894438028335571
vt 0.026088668033480644 1.499889612197876
vt 0.49937617778778076 1.7373422384262085
vt 0.7144036889076233 1.089915156364441
vt 0.8583648204803467 0.6752288937568665
vt -0.018753092736005783 0.4879000782966614
vt -0.026027396321296692 -0.26045918464660645
vt 0.7144036889076233 1.089915156364441
vt 0.05911025032401085 -0.26045989990234375
vt 0.9732404351234436 0.5406707525253296
vt 0.9406619071960449 -0.26045918464660645
vt 1.0185273885726929 0.4879034161567688
vt 1.0185272693634033 0.8045095801353455
vt -0.018752895295619965 0.8045076131820679
vt 0.9905796647071838 0.800000011920929
vt 0.07222222536802292 0.800000011920929
vt 0.07222222536802292 0.550000011920929
vt 0.5314009189605713 0.8950000107288361
vt 0.07222222536802292 0.800000011920929
vt 0.07222222536802292 0.9900000095367432
vt 0.9905796647071838 0.550000011920929
vt 0.07222222536802292 0.33000004291534424
vt 0.07222222536802292 0.33000004291534424
vt 0.9905796647071838 0.33000004291534424
vt 0.9905796647071838 0.009999990463256836
vt 0.9905796647071838 0.550000011920929
vt 0.07222222536802292 0.550000011920929
vt 0.9905796647071838 0.800000011920929
vt 0.07222222536802292 0.009999990463256836
vt 0.9905796647071838 0.009999990463256836
vt 0.9905796647071838 0.33000004291534424
vt 0.9905796647071838 0.9900000095367432
vt 0.5314009189605713 0.8950000107288361
vt 0.07222222536802292 0.009999990463256836
vt 1 1.5920339822769165
vt 1 1.105989694595337
vt 0.8744120597839355 1.2879456877708435
vt 0.7488241195678711 1.4699017107486725
vt 0.7488241195678711 1.2268795669078827
vt 0.37441205978393555 1.5309678316116333
vt 0 1.5920339822769165
vt 0.5 1.5920339822769165
vt 0.24647250771522522 1.2256371676921844
vt 0.24882416427135468 1.4699017107486725
vt 0.49764832854270935 1.3477694392204285
vt 0.8744120597839355 1.2879456877708435
vt 1 1.105989694595337
vt 1.8669564723968506 1.2881509959697723
vt 1.9919564723968506 1.102053165435791
vt 1.9919564723968506 1.5983140468597412
vt 0.37441208958625793 1.5309678316116333
vt 0.9919565320014954 1.5983140468597412
vt 1.3669564723968506 1.5362814664840698
vt 1.4919564723968506 1.5983140468597412
vt 0.7488241791725159 1.2268795669078827
vt 1.7419564723968506 1.2261183857917786
vt 0.24882417917251587 1.4699017107486725
vt 0.2464725226163864 1.2256371676921844
vt 1.2419564723968506 1.4742488265037537
vt 1.2419564723968506 1.2261183857917786
vt 0.49764835834503174 1.3477694392204285
vt -0.004703303799033165 1.1035048961639404
vt 0.2464725226163864 1.1041260957717896
vt 0.25 0.9707012474536896
vt 0 1.1061352491378784
vt 0.25 0.6999060213565826
vt 0.25 1.106098860502243
vt 0.5 0.8352672457695007
vt 0.875 1.0383090823888779
vt 1 0.5645447969436646
vt 0.5 1.1060624718666077
vt 0.75 0.9706284701824188
vt 0.625 0.6322253942489624
vt 0.75 0.6999060213565826
vt 0.2464725375175476 1.1041260957717896
vt -0.004703303799033165 1.1035048961639404
vt 0.5 0.8352672457695007
vt 0.75 0.6999060213565826
vt 0.75 0.5645447969436646
vt 1 0.5645447969436646
vt 0.875 1.0383090823888779
vt 0.75 0.9706284701824188
vt 0.5 1.1060624718666077
vt 0.25 0.6999060213565826
vt 0 1.1061352491378784
vt 0.25 0.9707012474536896
vt 0.25 1.106098860502243
vt 0.3720604181289673 1.2867032885551453
vt 0.49764835834503174 1.1047472953796387
vt 0.3720604479312897 1.2867032885551453
vt 0.49764832854270935 1.1047472953796387
vt 1.4919564723968506 1.3501836061477661
vt 1.3669564723968506 1.2881509959697723
vt 1.2419564723968506 1.2261183857917786
vt 0.625 0.9029478579759598
vt 0.625 0.9029478579759598
vt 0.5 0.5645447969436646
vt 0.25 0.5645447969436646
vt 0 0.5645447969436646
vt 0.375 0.7675866335630417
vt 0.7488241791725159 1.1053684949874878
vt 0.6232362389564514 1.1658134311437607
vt 0.8744120597839355 1.5309678316116333
vt 0.5616180896759033 1.5004347562789917
vt 0.875 0.7675866335630417
vt 0.6232362389564514 1.4088355898857117
vt 0.75 1.5920339822769165
vt 0.7488241791725159 1.4699017107486725
vt 1.6169564723968506 1.5362814664840698
vt 0.8744120597839355 1.5309678316116333
vt 1.7419564723968506 1.4742488265037537
vt 1.8669564723968506 1.5362814664840698
vt 0.6860302090644836 1.317857563495636
vt 1.6794564723968506 1.3191673159599304
vt 1.7419564723968506 1.4742488265037537
vt 1.8669564723968506 1.5362814664840698
vt 0.5616181492805481 1.5004347562789917
vt 1.5544564723968506 1.5052651166915894
vt 1.2419564723968506 1.4742488265037537
vt 1.3669564723968506 1.5362814664840698
vt 1.4919564723968506 1.4742488265037537
vt 0.7488241195678711 1.1053684949874878
vt 0.6232362389564514 1.1658134311437607
vt 1.6169564723968506 1.1640857756137848
vt 1.4919564723968506 1.102053165435791
vt 1.2419564723968506 1.102053165435791
vt 0.9919565320014954 1.102053165435791
vt 0.375 1.1060806661844254
vt 0.3720604181289673 1.1044366955757141
vt 0.375 0.7675866335630417
vt 0.875 0.7675866335630417
vt 0 0.5645447969436646
vt 0.3125 0.5983850955963135
vt 0.375 1.1060806661844254
vt 0.3720604479312897 1.1044366955757141
vt 0.625 0.5645447969436646
vt 2.018815279006958 -0.00483095645904541
vt 1.510615348815918 0.5777552127838135
vt 1.510615348815918 0.2863893508911133
vt 1.510615348815918 -0.00483095645904541
vt 1.002415418624878 -0.00483095645904541
vt 1.0024152994155884 0.28624385595321655
vt 1.002415418624878 0.28624385595321655
vt 1.002415418624878 0.5776096880435944
vt -0.013984506949782372 0.5773186683654785
vt -0.013984506949782372 -0.00483095645904541
vt 1.0024152994155884 -0.00483095645904541
vt -0.013984506949782372 0.5773186683654785
vt 0.4942154288291931 0.5774641633033752
vt 1.0024152994155884 0.5776096880435944
vt 1.510615348815918 0.2863893508911133
vt 2.018815279006958 0.5779007077217102
vt 1.764715313911438 0.28646212816238403
vt 2.018815279006958 0.5779007077217102
vt 2.018815279006958 -0.00483095645904541
vt 0.7483153343200684 0.577536940574646
vt 1.510615348815918 0.5777552127838135
vt 1.764715313911438 0.5778279602527618
vt 1.510615348815918 0.14070641994476318
vt 1.2565152645111084 0.5776824355125427
vt -0.013984506949782372 -0.00483095645904541
g DistRt160
s 1
f 1/1/1 2/2/2 3/3/3
f 4/4/4 5/5/5 6/6/6
f 7/7/7 8/8/8 9/9/9
f 10/10/10 11/11/11 7/7/7
f 11/11/11 12/12/12 7/7/7
f 5/5/5 12/12/12 11/11/11
f 8/8/8 13/13/13 2/2/2
f 3/3/3 2/2/2 4/4/4
f 1/1/1 11/11/11 10/10/10
f 3/3/3 11/11/11 1/1/1
f 6/6/6 5/5/5 11/11/11
f 2/2/2 13/13/13 4/4/4
f 6/6/6 11/11/11 3/3/3
f 4/4/4 6/6/6 3/3/3
f 10/10/10 9/9/9 1/1/1
f 9/9/9 8/8/8 2/2/2
f 9/9/9 2/2/2 1/1/1
f 7/7/7 9/9/9 10/10/10
g DistRt161
s 1
f 14/14/14 15/15/15 16/16/16
f 17/17/17 18/18/18 19/19/19
f 20/20/20 14/14/14 16/16/16
f 21/21/21 22/22/22 23/23/23
f 21/21/21 23/23/23 24/24/24
f 17/17/17 25/25/25 26/26/26
f 27/27/27 28/28/28 29/29/29
f 29/29/29 28/28/28 30/30/30
f 30/30/30 22/22/22 29/29/29
f 29/29/29 22/22/22 27/27/27
f 31/31/31 32/32/32 33/33/33
f 24/24/24 34/34/34 35/35/35
f 28/28/28 34/34/34 30/30/30
f 20/20/20 16/16/16 36/36/36
f 17/17/17 19/19/19 25/25/25
f 30/30/30 34/34/34 24/24/24
f 37/37/37 31/31/31 33/33/33
f 24/24/24 23/23/23 30/30/30
f 38/38/38 39/39/39 37/37/37
f 33/33/33 38/38/38 37/37/37
f 26/26/26 40/40/40 41/41/41
f 23/23/23 22/22/22 30/30/30
f 42/42/42 15/15/15 14/14/14
f 26/26/26 41/41/41 17/17/17
f 42/42/42 43/43/43 44/44/44
f 42/42/42 44/44/44 45/45/45
f 45/45/45 44/44/44 46/46/46
f 44/44/44 43/43/43 46/46/46
f 47/47/47 15/15/15 45/45/45
f 45/45/45 15/15/15 42/42/42
f 36/36/36 43/43/43 20/20/20
f 20/20/20 43/43/43 42/42/42
f 35/35/35 21/21/21 24/24/24
f 42/42/42 14/14/14 20/20/20
f 45/45/45 46/46/46 47/47/47
g DistRt162
s 1
f 48/48/48 49/49/49 50/50/50
f 51/51/51 52/52/52 53/53/53
f 54/54/54 55/55/55 56/56/56
f 57/57/57 58/58/58 59/59/59
f 60/60/60 61/61/61 51/51/51
f 62/62/62 63/63/63 59/59/59
f 64/64/64 65/65/65 66/66/66
f 66/66/66 67/67/67 64/64/64
f 63/63/63 57/57/57 59/59/59
f 68/68/68 69/69/69 70/70/70
f 71/71/71 72/72/72 73/73/73
f 73/73/73 74/74/74 71/71/71
f 75/75/75 76/76/76 72/72/72
f 72/72/72 71/71/71 75/75/75
f 77/77/77 78/78/78 76/76/76
f 76/76/76 75/75/75 77/77/77
f 79/79/79 80/80/80 78/78/78
f 81/81/81 82/82/82 59/59/59
f 82/82/82 62/62/62 59/59/59
f 83/83/83 84/84/84 85/85/85
f 68/68/68 70/70/70 86/86/86
f 87/87/87 83/83/83 85/85/85
f 88/88/88 89/89/89 85/85/85
f 90/90/90 91/91/91 92/92/92
f 56/56/56 88/88/88 85/85/85
f 93/93/93 87/87/87 85/85/85
f 89/89/89 93/93/93 85/85/85
f 79/79/79 94/94/94 95/95/95
f 95/95/95 80/80/80 79/79/79
f 94/94/94 96/96/96 97/97/97
f 97/97/97 95/95/95 94/94/94
f 96/96/96 98/98/98 99/99/99
f 99/99/99 97/97/97 96/96/96
f 98/98/98 100/100/100 101/101/101
f 101/101/101 99/99/99 98/98/98
f 102/102/102 103/103/103 81/81/81
f 104/104/104 105/105/105 106/106/106
f 107/107/107 105/105/105 104/104/104
f 104/104/104 108/108/108 107/107/107
f 106/106/106 108/108/108 104/104/104
f 105/105/105 109/109/109 106/106/106
f 109/109/109 110/110/110 106/106/106
f 85/85/85 111/111/111 56/56/56
f 111/111/111 54/54/54 56/56/56
f 112/112/112 113/113/113 114/114/114
f 112/112/112 114/114/114 115/115/115
f 51/51/51 53/53/53 116/116/116
f 51/51/51 116/116/116 60/60/60
f 117/117/117 115/115/115 118/118/118
f 112/112/112 115/115/115 117/117/117
f 117/117/117 119/119/119 112/112/112
f 118/118/118 119/119/119 117/117/117
f 118/118/118 120/120/120 121/121/121
f 118/118/118 121/121/121 119/119/119
f 90/90/90 92/92/92 122/122/122
f 90/90/90 122/122/122 68/68/68
f 108/108/108 123/123/123 107/107/107
f 123/123/123 124/124/124 107/107/107
f 59/59/59 125/125/125 81/81/81
f 125/125/125 102/102/102 81/81/81
f 78/78/78 77/77/77 79/79/79
f 84/84/84 126/126/126 85/85/85
f 68/68/68 86/86/86 90/90/90
f 50/50/50 127/127/127 48/48/48
g DistRt163
s 1
f 128/128/128 129/129/129 130/130/130
f 130/130/130 131/131/131 128/128/128
f 132/132/132 133/133/133 129/129/129
f 129/129/129 128/128/128 132/132/132
f 133/133/133 132/132/132 134/134/134
f 134/134/134 135/135/135 133/133/133
f 136/136/136 135/135/135 134/134/134
f 134/134/134 137/137/137 136/136/136
f 137/137/137 138/138/138 139/139/139
f 139/139/139 136/136/136 137/137/137
f 140/140/140 139/139/139 138/138/138
f 138/138/138 141/141/141 140/140/140
f 142/142/142 143/143/143 131/131/131
f 131/131/131 130/130/130 142/142/142
f 144/144/144 145/145/145 146/146/146
f 147/147/147 148/148/148 149/149/149
f 150/150/150 147/147/147 149/149/149
f 148/148/148 147/147/147 151/151/151
f 146/146/146 152/152/152 153/153/153
f 152/152/152 146/146/146 145/145/145
f 150/150/150 149/149/149 154/154/154
f 154/154/154 155/155/155 150/150/150
f 156/156/156 157/157/157 155/155/155
f 155/155/155 154/154/154 156/156/156
f 157/157/157 156/156/156 158/158/158
f 158/158/158 159/159/159 157/157/157
f 160/160/160 159/159/159 158/158/158
f 158/158/158 161/161/161 160/160/160
f 161/161/161 162/162/162 163/163/163
f 163/163/163 160/160/160 161/161/161
f 162/162/162 145/145/145 144/144/144
f 144/144/144 163/163/163 162/162/162
f 164/164/164 165/165/165 141/141/141
f 165/165/165 140/140/140 141/141/141
f 165/165/165 164/164/164 166/166/166
f 143/143/143 142/142/142 167/167/167
g DistRt164
s 1
f 168/168/168 169/169/169 170/170/170
f 170/170/170 171/171/171 168/168/168
f 172/172/172 173/173/173 174/174/174
f 174/174/174 175/175/175 172/172/172
g DistRt165
s 1
f 176/176/176 177/177/177 178/178/178
f 179/179/179 180/180/180 181/181/181
f 182/182/182 183/183/183 184/184/184
f 183/183/183 185/185/185 184/184/184
f 186/186/186 187/187/187 188/188/188
f 189/189/189 190/190/190 191/191/191
f 192/192/192 193/193/193 194/194/194
f 195/195/195 189/189/189 196/196/196
f 196/196/196 197/197/197 195/195/195
f 198/198/198 199/199/199 200/200/200
f 201/201/201 202/202/202 203/203/203
f 204/204/204 181/181/181 205/205/205
f 206/206/206 203/203/203 202/202/202
f 206/206/206 177/177/177 207/207/207
f 207/207/207 203/203/203 206/206/206
f 207/207/207 177/177/177 176/176/176
f 205/205/205 181/181/181 180/180/180
f 179/179/179 181/181/181 208/208/208
f 179/179/179 208/208/208 186/186/186
f 209/209/209 179/179/179 186/186/186
f 209/209/209 186/186/186 188/188/188
f 210/210/210 209/209/209 188/188/188
f 211/211/211 200/200/200 199/199/199
f 205/205/205 180/180/180 185/185/185
f 212/212/212 182/182/182 184/184/184
f 185/185/185 183/183/183 205/205/205
f 213/213/213 195/195/195 197/197/197
f 184/184/184 214/214/214 212/212/212
f 188/188/188 215/215/215 210/210/210
f 194/194/194 210/210/210 215/215/215
f 216/216/216 194/194/194 193/193/193
f 217/217/217 196/196/196 189/189/189
f 191/191/191 217/217/217 189/189/189
f 218/218/218 178/178/178 197/197/197
f 202/202/202 201/201/201 199/199/199
f 201/201/201 211/211/211 199/199/199
f 207/207/207 219/219/219 203/203/203
f 215/215/215 192/192/192 194/194/194
f 178/178/178 213/213/213 197/197/197
f 177/177/177 213/213/213 178/178/178
g DistRt166
s 1
f 220/220/220 221/221/221 222/222/222
f 223/223/223 224/224/224 225/225/225
f 222/222/222 226/226/226 220/220/220
f 226/226/226 222/222/222 227/227/227
f 228/228/228 229/229/229 230/230/230
f 231/231/231 232/232/232 224/224/224
f 233/233/233 224/224/224 223/223/223
f 232/232/232 231/231/231 229/229/229
f 229/229/229 228/228/228 232/232/232
f 234/234/234 235/235/235 236/236/236
f 236/236/236 227/227/227 234/234/234
f 224/224/224 233/233/233 231/231/231
f 237/237/237 225/225/225 238/238/238
f 238/238/238 225/225/225 221/221/221
f 221/221/221 220/220/220 238/238/238
f 238/238/238 220/220/220 237/237/237
f 225/225/225 237/237/237 223/223/223
f 223/223/223 237/237/237 233/233/233
f 230/230/230 239/239/239 228/228/228
f 227/227/227 236/236/236 226/226/226
g DistRt167
s 1
f 240/240/240 241/241/241 242/242/242
f 243/243/243 242/242/242 244/244/244
f 242/242/242 241/241/241 244/244/244
f 245/245/245 246/246/246 247/247/247
f 248/248/248 246/246/246 249/249/249
f 250/250/250 249/249/249 245/245/245
f 249/249/249 246/246/246 245/245/245
f 251/251/251 252/252/252 240/240/240
f 253/253/253 254/254/254 255/255/255
f 247/247/247 246/246/246 256/256/256
f 257/257/257 258/258/258 259/259/259
f 260/260/260 252/252/252 251/251/251
f 261/261/261 254/254/254 253/253/253
f 262/262/262 246/246/246 263/263/263
f 264/264/264 257/257/257 265/265/265
f 256/256/256 246/246/246 262/262/262
f 256/256/256 262/262/262 266/266/266
f 267/267/267 268/268/268 263/263/263
f 269/269/269 270/270/270 271/271/271
f 272/272/272 270/270/270 269/269/269
f 272/272/272 269/269/269 273/273/273
f 274/274/274 275/275/275 252/252/252
f 274/274/274 276/276/276 277/277/277
f 278/278/278 275/275/275 279/279/279
f 278/278/278 279/279/279 273/273/273
f 248/248/248 280/280/280 281/281/281
f 282/282/282 283/283/283 284/284/284
f 283/283/283 285/285/285 284/284/284
f 241/241/241 285/285/285 286/286/286
f 287/287/287 288/288/288 286/286/286
f 289/289/289 290/290/290 291/291/291
f 282/282/282 291/291/291 292/292/292
f 291/291/291 290/290/290 292/292/292
f 293/293/293 294/294/294 248/248/248
f 250/250/250 294/294/294 293/293/293
f 293/293/293 249/249/249 250/250/250
f 248/248/248 249/249/249 293/293/293
f 295/295/295 296/296/296 266/266/266
f 263/263/263 296/296/296 295/295/295
f 261/261/261 297/297/297 298/298/298
f 261/261/261 298/298/298 299/299/299
f 295/295/295 262/262/262 263/263/263
f 266/266/266 262/262/262 295/295/295
f 298/298/298 264/264/264 265/265/265
f 297/297/297 264/264/264 298/298/298
f 300/300/300 276/276/276 273/273/273
f 277/277/277 276/276/276 300/300/300
f 300/300/300 279/279/279 277/277/277
f 273/273/273 279/279/279 300/300/300
f 301/301/301 288/288/288 287/287/287
f 282/282/282 288/288/288 301/301/301
f 301/301/301 283/283/283 282/282/282
f 287/287/287 283/283/283 301/301/301
f 289/289/289 302/302/302 303/303/303
f 289/289/289 303/303/303 304/304/304
f 305/305/305 302/302/302 289/289/289
f 282/282/282 302/302/302 305/305/305
f 305/305/305 291/291/291 282/282/282
f 289/289/289 291/291/291 305/305/305
f 244/244/244 241/241/241 306/306/306
f 286/286/286 288/288/288 306/306/306
f 286/286/286 306/306/306 241/241/241
f 250/250/250 244/244/244 307/307/307
f 250/250/250 307/307/307 294/294/294
f 307/307/307 306/306/306 294/294/294
f 244/244/244 306/306/306 307/307/307
f 308/308/308 242/242/242 243/243/243
f 240/240/240 242/242/242 308/308/308
f 243/243/243 247/247/247 308/308/308
f 250/250/250 245/245/245 309/309/309
f 243/243/243 309/309/309 247/247/247
f 309/309/309 245/245/245 247/247/247
f 286/286/286 310/310/310 287/287/287
f 243/243/243 244/244/244 311/311/311
f 311/311/311 309/309/309 243/243/243
f 250/250/250 309/309/309 311/311/311
f 312/312/312 247/247/247 313/313/313
f 259/259/259 314/314/314 255/255/255
f 308/308/308 247/247/247 312/312/312
f 308/308/308 312/312/312 240/240/240
f 315/315/315 251/251/251 240/240/240
f 313/313/313 251/251/251 315/315/315
f 315/315/315 312/312/312 313/313/313
f 240/240/240 312/312/312 315/315/315
f 314/314/314 316/316/316 317/317/317
f 314/314/314 317/317/317 255/255/255
f 266/266/266 318/318/318 313/313/313
f 318/318/318 251/251/251 313/313/313
f 297/297/297 319/319/319 320/320/320
f 319/319/319 253/253/253 320/320/320
f 318/318/318 260/260/260 251/251/251
f 266/266/266 260/260/260 318/318/318
f 319/319/319 261/261/261 253/253/253
f 297/297/297 261/261/261 319/319/319
f 321/321/321 253/253/253 255/255/255
f 320/320/320 253/253/253 321/321/321
f 313/313/313 322/322/322 266/266/266
f 322/322/322 256/256/256 266/266/266
f 247/247/247 256/256/256 322/322/322
f 247/247/247 322/322/322 313/313/313
f 258/258/258 323/323/323 259/259/259
f 323/323/323 316/316/316 259/259/259
f 257/257/257 324/324/324 325/325/325
f 326/326/326 297/297/297 316/316/316
f 324/324/324 297/297/297 326/326/326
f 325/325/325 324/324/324 326/326/326
f 325/325/325 326/326/326 316/316/316
f 327/327/327 252/252/252 260/260/260
f 252/252/252 327/327/327 274/274/274
f 327/327/327 276/276/276 274/274/274
f 296/296/296 328/328/328 266/266/266
f 328/328/328 260/260/260 266/266/266
f 328/328/328 327/327/327 260/260/260
f 296/296/296 327/327/327 328/328/328
f 329/329/329 261/261/261 299/299/299
f 254/254/254 261/261/261 329/329/329
f 254/254/254 329/329/329 330/330/330
f 329/329/329 299/299/299 330/330/330
f 331/331/331 299/299/299 332/332/332
f 330/330/330 299/299/299 331/331/331
f 276/276/276 333/333/333 273/273/273
f 333/333/333 272/272/272 273/273/273
f 268/268/268 334/334/334 263/263/263
f 334/334/334 296/296/296 263/263/263
f 335/335/335 269/269/269 271/271/271
f 273/273/273 269/269/269 335/335/335
f 335/335/335 278/278/278 273/273/273
f 271/271/271 278/278/278 335/335/335
f 277/277/277 336/336/336 274/274/274
f 336/336/336 275/275/275 274/274/274
f 279/279/279 275/275/275 336/336/336
f 279/279/279 336/336/336 277/277/277
f 337/337/337 338/338/338 271/271/271
f 338/338/338 278/278/278 271/271/271
f 338/338/338 275/275/275 278/278/278
f 337/337/337 275/275/275 338/338/338
f 282/282/282 292/292/292 339/339/339
f 282/282/282 339/339/339 288/288/288
f 248/248/248 294/294/294 340/340/340
f 248/248/248 340/340/340 280/280/280
f 282/282/282 284/284/284 341/341/341
f 282/282/282 341/341/341 302/302/302
f 287/287/287 310/310/310 283/283/283
f 310/310/310 285/285/285 283/283/283
f 286/286/286 285/285/285 310/310/310
f 311/311/311 244/244/244 250/250/250
f 281/281/281 246/246/246 248/248/248
f 263/263/263 246/246/246 267/267/267
f 265/265/265 257/257/257 332/332/332
f 271/271/271 270/270/270 337/337/337
f 304/304/304 290/290/290 289/289/289
g DistRt168
s 1
f 342/342/342 343/343/343 344/344/344
f 345/345/345 346/346/346 347/347/347
f 342/342/342 344/344/344 348/348/348
f 344/344/344 349/349/349 348/348/348
f 344/344/344 343/343/343 349/349/349
f 350/350/350 351/351/351 352/352/352
f 353/353/353 354/354/354 347/347/347
f 347/347/347 346/346/346 353/353/353
f 347/347/347 355/355/355 356/356/356
f 342/342/342 357/357/357 343/343/343
f 358/358/358 359/359/359 360/360/360
f 361/361/361 355/355/355 347/347/347
f 348/348/348 352/352/352 342/342/342
f 354/354/354 361/361/361 347/347/347
f 350/350/350 352/352/352 348/348/348
f 356/356/356 362/362/362 358/358/358
f 363/363/363 359/359/359 358/358/358
f 364/364/364 345/345/345 347/347/347
f 360/360/360 345/345/345 364/364/364
f 364/364/364 356/356/356 360/360/360
f 347/347/347 356/356/356 364/364/364
f 355/355/355 365/365/365 356/356/356
f 365/365/365 362/362/362 356/356/356
f 356/356/356 358/358/358 360/360/360
f 348/348/348 349/349/349 350/350/350
f 346/346/346 366/366/366 353/353/353
f 362/362/362 363/363/363 358/358/358
