# Exported using wow.export v0.2.19
o 20736_throne_hall11.obj
v 0.8174715042114258 5.304171562194824 -22.427108764648438
v 3.1828715801239014 4.245481967926025 -21.80086326599121
v 2.1252288818359375 6.361739158630371 -22.070112228393555
v 0.3846421241760254 4.246879577636719 -22.54990005493164
v -1.547928810119629 6.362860679626465 -23.053356170654297
v 0.3710362911224365 0.31276893615722656 -22.57931900024414
v -2.505052089691162 0.5777210593223572 -23.347469329833984
v -2.5119738578796387 0.050609588623046875 -23.3527774810791
v 3.2471249103546143 0.04781680554151535 -21.811166763305664
v 3.244487762451172 0.5749261975288391 -21.808420181274414
v 0.37662243843078613 2.274304151535034 -22.564971923828125
v 0.3494851589202881 3.2605912685394287 -22.565773010253906
v -2.3593125343322754 2.275702476501465 -23.297330856323242
v 3.1125574111938477 2.2729058265686035 -21.832611083984375
v 0.44258761405944824 1.4253144264221191 -22.552875518798828
v 0.3697178363800049 0.5763236284255981 -22.577945709228516
v 0.36757564544677734 0.04921319708228111 -22.581972122192383
v -2.4135870933532715 4.248276710510254 -23.298934936523438
v 3.4633724689483643 0.7391577959060669 -21.74875259399414
v -2.722600221633911 0.7419471740722656 -23.404626846313477
v 3.4575352668762207 1.909301996231079 -21.742647171020508
v -2.707244873046875 1.9120932817459106 -23.392850875854492
v 3.53428316116333 2.2690541744232178 -21.71974754333496
v -2.78106951713562 2.2718443870544434 -23.410255432128906
v 0.40074628591537476 8.207338333129883 -22.51963996887207
v -3.0595548152923584 4.57752799987793 -20.347042083740234
v -2.120363712310791 7.16776704788208 -20.095388412475586
v -2.465766429901123 8.31153392791748 -18.615814208984375
v -0.9775225520133972 10.342997550964355 -18.3042049407959
v -0.6515581011772156 9.399385452270508 -19.699962615966797
v -3.0595548152923584 4.57752799987793 -20.347042083740234
v -3.1698501110076904 2.272052049636841 -20.376596450805664
v -3.3868191242218018 2.272052764892578 -22.12408447265625
v -3.009981155395508 4.354126453399658 -22.023109436035156
v -2.120363712310791 7.16776704788208 -20.095388412475586
v -2.027184247970581 6.498977184295654 -21.84853172302246
v -0.6515581011772156 9.399385452270508 -19.699962615966797
v -0.11904697865247726 8.596617698669434 -21.263973236083984
v -3.009981155395508 4.354126453399658 -22.023109436035156
v -3.3868191242218018 2.272052764892578 -22.12408447265625
v -2.78106951713562 2.2718443870544434 -23.410255432128906
v -2.4135870933532715 4.248276710510254 -23.298934936523438
v -2.027184247970581 6.498977184295654 -21.84853172302246
v -1.547928810119629 6.362860679626465 -23.053356170654297
v -0.11904697865247726 8.596617698669434 -21.263973236083984
v 0.40074628591537476 8.207338333129883 -22.51963996887207
v 2.093932628631592 2.269268751144409 -18.968114852905273
v 1.758446216583252 2.269049644470215 -17.305418014526367
v 1.7369390726089478 5.001199722290039 -17.409530639648438
v 1.9836355447769165 4.57474422454834 -18.99766731262207
v 0.7667773365974426 8.3104829788208 -17.77979278564453
v 1.0444469451904297 7.16498327255249 -19.24932289123535
v -0.6515581011772156 9.399385452270508 -19.699962615966797
v 3.234675168991089 2.2692694664001465 -20.351804733276367
v 2.093932628631592 2.269268751144409 -18.968114852905273
v 1.9836355447769165 4.57474422454834 -18.99766731262207
v 2.857835531234741 4.351343631744385 -20.452777862548828
v 1.0444469451904297 7.16498327255249 -19.24932289123535
v 1.9166276454925537 6.4963202476501465 -20.793649673461914
v -0.6515581011772156 9.399385452270508 -19.699962615966797
v -0.11904697865247726 8.596617698669434 -21.263973236083984
v 3.53428316116333 2.2690541744232178 -21.71974754333496
v 3.234675168991089 2.2692694664001465 -20.351804733276367
v 2.857835531234741 4.351343631744385 -20.452777862548828
v 3.1828715801239014 4.245481967926025 -21.80086326599121
v 1.9166276454925537 6.4963202476501465 -20.793649673461914
v 2.1252288818359375 6.361739158630371 -22.070112228393555
v -0.11904697865247726 8.596617698669434 -21.263973236083984
v 0.40074628591537476 8.207338333129883 -22.51963996887207
v -3.374270439147949 5.005950927734375 -18.73153305053711
v -3.508782386779785 2.2722249031066895 -18.66771697998047
v -3.1698501110076904 2.272052049636841 -20.376596450805664
v -2.9384877681732178 0.0504167340695858 -20.31460189819336
v -0.6162197589874268 0.04902627691626549 -20.538002014160156
v -3.0950076580047607 0.0504184290766716 -22.0458927154541
v 3.2471249103546143 0.04781680554151535 -21.811166763305664
v 0.21544456481933594 0.04912291467189789 -21.891387939453125
v 2.9428627490997314 0.0476362444460392 -20.429996490478516
v -0.07607245445251465 0.04902733862400055 -21.237945556640625
v -0.5379598140716553 0.04902543127536774 -19.67235565185547
v 1.8625681400299072 0.047634124755859375 -19.030109405517578
v -2.5119738578796387 0.050609588623046875 -23.3527774810791
v -0.797717809677124 0.05090562254190445 -18.82373046875
v 0.36757540702819824 0.04921319708228111 -22.581972122192383
v -3.297349452972412 0.050486721098423004 -18.53289794921875
v -0.9771485328674316 0.0509406179189682 -17.932876586914062
v 1.3430523872375488 0.0513945110142231 -17.332857131958008
v -2.9443297386169434 2.2759079933166504 -22.005517959594727
v -3.3868191242218018 2.272052764892578 -22.12408447265625
v -3.1698501110076904 2.272052049636841 -20.376596450805664
v -2.8190200328826904 2.275907039642334 -20.282590866088867
v -3.508782386779785 2.2722249031066895 -18.66771697998047
v -3.157688617706299 2.275975465774536 -18.577051162719727
v 2.9378483295440674 0.5748405456542969 -20.431339263916016
v 3.244487762451172 0.5749261975288391 -21.808420181274414
v 3.2471249103546143 0.04781680554151535 -21.811166763305664
v 2.792184591293335 2.273124933242798 -20.470369338989258
v 3.1556811332702637 1.909452199935913 -20.372970581054688
v 2.0313010215759277 1.909452199935913 -18.98489761352539
v 1.743100881576538 2.2731239795684814 -19.062118530273438
v 3.53428316116333 2.2690541744232178 -21.71974754333496
v 3.1125574111938477 2.2729058265686035 -21.832611083984375
v 2.792184591293335 2.273124933242798 -20.470369338989258
v 3.234675168991089 2.2692694664001465 -20.351804733276367
v 1.743100881576538 2.2731239795684814 -19.062118530273438
v 2.093932628631592 2.269268751144409 -18.968114852905273
v 1.314077377319336 2.275439500808716 -17.420570373535156
v 1.758446216583252 2.269049644470215 -17.305418014526367
v 2.9428627490997314 0.0476362444460392 -20.429996490478516
v 2.9378483295440674 0.5748405456542969 -20.431339263916016
v 1.8585935831069946 0.5748384594917297 -19.031173706054688
v 2.0401182174682617 0.7390971779823303 -18.982534408569336
v 3.166801929473877 0.739098846912384 -20.369991302490234
v 3.4633724689483643 0.7391577959060669 -21.74875259399414
v 3.244487762451172 0.5749261975288391 -21.808420181274414
v 3.166801929473877 0.739098846912384 -20.369991302490234
v -2.8190200328826904 2.275907039642334 -20.282590866088867
v -3.1072194576263428 1.9122352600097656 -20.359813690185547
v -3.3078267574310303 1.9122354984283447 -22.102916717529297
v 2.0401182174682617 0.7390971779823303 -18.982534408569336
v 1.3606739044189453 0.5781715512275696 -17.347299575805664
v 1.8585935831069946 0.5748384594917297 -19.031173706054688
v 1.8625681400299072 0.047634124755859375 -19.030109405517578
v -3.2886106967926025 0.5776981115341187 -18.54965591430664
v -3.297349452972412 0.050486721098423004 -18.53289794921875
v -2.9384877681732178 0.0504167340695858 -20.31460189819336
v -2.93451189994812 0.5776210427284241 -20.31353759765625
v -3.116037368774414 0.7418793439865112 -20.3621768951416
v -3.4687693119049072 0.7420175671577454 -18.6021728515625
v 1.676970362663269 1.9098023176193237 -17.31353187561035
v 1.314077377319336 2.275439500808716 -17.420570373535156
v -3.116037368774414 0.7418793439865112 -20.3621768951416
v -3.44936466217041 1.9123834371566772 -18.63936996459961
v 1.6378519535064697 0.7403970956802368 -17.281469345092773
v 1.3430523872375488 0.0513945110142231 -17.332857131958008
v -3.157688617706299 2.275975465774536 -18.577051162719727
v -2.5119738578796387 0.050609588623046875 -23.3527774810791
v -2.505052089691162 0.5777210593223572 -23.347469329833984
v -3.0899930000305176 0.5776227116584778 -22.0445499420166
v -3.0950076580047607 0.0504184290766716 -22.0458927154541
v -2.505052089691162 0.5777210593223572 -23.347469329833984
v -2.722600221633911 0.7419471740722656 -23.404626846313477
v -3.3189473152160645 0.7418810725212097 -22.10589599609375
v -3.0899930000305176 0.5776227116584778 -22.0445499420166
v -2.722600221633911 0.7419471740722656 -23.404626846313477
v -2.707244873046875 1.9120932817459106 -23.392850875854492
v -3.3189473152160645 0.7418810725212097 -22.10589599609375
v -2.3593125343322754 2.275702476501465 -23.297330856323242
v -2.9443297386169434 2.2759079933166504 -22.005517959594727
v 3.4575352668762207 1.909301996231079 -21.742647171020508
v 3.1125574111938477 2.2729058265686035 -21.832611083984375
v 3.4633724689483643 0.7391577959060669 -21.74875259399414
v -2.3593125343322754 2.275702476501465 -23.297330856323242
v -2.78106951713562 2.2718443870544434 -23.410255432128906
v -2.93451189994812 0.5776210427284241 -20.31353759765625
vn -0.2585762143135071 -0.006329593248665333 0.9659701585769653
vn -0.2585761547088623 -0.006330046337097883 0.9659701585769653
vn -0.25857627391815186 -0.006329140160232782 0.9659700989723206
vn -0.2585761547088623 -0.006330046337097883 0.9659701585769653
vn -0.25857627391815186 -0.006329140160232782 0.9659700989723206
vn -0.25857484340667725 -0.006328525021672249 0.965970516204834
vn -0.2585737109184265 -0.006329906173050404 0.9659708142280579
vn -0.2585762143135071 -0.006329268682748079 0.9659700989723206
vn -0.25857600569725037 -0.006327143870294094 0.9659702181816101
vn -0.2585758864879608 -0.00632936367765069 0.9659702181816101
vn -0.25857603549957275 -0.0063296216540038586 0.9659701585769653
vn -0.2585761547088623 -0.006330046337097883 0.9659701585769653
vn -0.2585759162902832 -0.006329196970909834 0.9659702181816101
vn -0.2585761547088623 -0.006330046337097883 0.9659701585769653
vn -0.2585759162902832 -0.006329280324280262 0.9659702181816101
vn -0.25857478380203247 -0.0063296351581811905 0.965970516204834
vn -0.25857609510421753 -0.00632820650935173 0.9659701585769653
vn -0.2585761547088623 -0.006330046337097883 0.9659701585769653
vn -0.2585793137550354 -0.006329870317131281 0.9659692645072937
vn -0.2585800290107727 -0.006328291725367308 0.9659690856933594
vn -0.2585793137550354 -0.006329870317131281 0.9659692645072937
vn -0.2585800290107727 -0.006328291725367308 0.9659690856933594
vn -0.2585752010345459 -0.006330078933387995 0.9659703969955444
vn -0.2585762143135071 -0.006329216528683901 0.9659700989723206
vn -0.25857633352279663 -0.006328808609396219 0.9659700989723206
vn 0.9650152921676636 -0.210270956158638 0.1566256731748581
vn 0.8310917019844055 -0.45480412244796753 0.3200621008872986
vn 0.7625128626823425 -0.37033942341804504 0.5304930210113525
vn -0.11448787152767181 -0.8016833066940308 0.5866825580596924
vn 0.6791038513183594 -0.5894275307655334 0.437485009431839
vn 0.9650152921676636 -0.210270956158638 0.1566256731748581
vn 0.9983192086219788 -0.04534023627638817 0.036098115146160126
vn 0.98288893699646 -0.13990047574043274 0.11982142180204391
vn 0.9191863536834717 -0.31349921226501465 0.23835836350917816
vn 0.8310917019844055 -0.45480412244796753 0.3200621008872986
vn 0.7520971894264221 -0.5558063387870789 0.35415974259376526
vn 0.6791038513183594 -0.5894275307655334 0.437485009431839
vn 0.5858502984046936 -0.6830053329467773 0.43621450662612915
vn 0.9191863536834717 -0.31349921226501465 0.23835836350917816
vn 0.98288893699646 -0.13990047574043274 0.11982142180204391
vn 0.8896734118461609 -0.18134601414203644 0.41904041171073914
vn 0.8545231223106384 -0.2995873987674713 0.42430832982063293
vn 0.7520971894264221 -0.5558063387870789 0.35415974259376526
vn 0.6921951174736023 -0.6046361327171326 0.3940572142601013
vn 0.5858502984046936 -0.6830053329467773 0.43621450662612915
vn 0.5477275252342224 -0.707769513130188 0.44615790247917175
vn -0.9025335311889648 -0.03106863424181938 -0.4294973313808441
vn -0.8935407400131226 0.4460196793079376 -0.051491815596818924
vn -0.9894737005233765 -0.13122978806495667 -0.06099575385451317
vn -0.9306241273880005 -0.2155873030424118 -0.2957378029823303
vn -0.9066347479820251 -0.4080047607421875 0.10745008289813995
vn -0.864669680595398 -0.4990479648113251 -0.05742373317480087
vn -0.7751784324645996 -0.6301658749580383 0.04460194334387779
vn -0.8804022669792175 -0.13868315517902374 -0.4534962475299835
vn -0.9025335311889648 -0.03106863424181938 -0.4294973313808441
vn -0.9306241273880005 -0.2155873030424118 -0.2957378029823303
vn -0.8904556632041931 -0.3140909969806671 -0.3292955160140991
vn -0.864669680595398 -0.4990479648113251 -0.05742373317480087
vn -0.820875346660614 -0.5591322183609009 -0.11633936315774918
vn -0.7751784324645996 -0.6301658749580383 0.04460194334387779
vn -0.721080482006073 -0.6922076344490051 0.029858039692044258
vn -0.9601756930351257 -0.1839817762374878 -0.21026967465877533
vn -0.8804022669792175 -0.13868315517902374 -0.4534962475299835
vn -0.8904556632041931 -0.3140909969806671 -0.3292955160140991
vn -0.9200769662857056 -0.3544790744781494 -0.16674204170703888
vn -0.820875346660614 -0.5591322183609009 -0.11633936315774918
vn -0.8084373474121094 -0.5843439102172852 -0.07050691545009613
vn -0.721080482006073 -0.6922076344490051 0.029858039692044258
vn -0.717994749546051 -0.691085696220398 -0.08297049254179001
vn 0.8708072900772095 -0.1450904905796051 0.4697269797325134
vn 0.7871142625808716 0.4431554675102234 0.429027259349823
vn 0.9983192086219788 -0.04534023627638817 0.036098115146160126
vn 0.0005936804809607565 0.9999998211860657 -0.00005269328903523274
vn 0.00048517558025196195 0.9999998807907104 0.00013080968346912414
vn 0.0003766707086469978 0.9999998807907104 0.00031431266688741744
vn 0.00042488460894674063 0.9999998807907104 0.00022433036065194756
vn 0.0003766707086469978 0.9999998807907104 0.00031431266688741744
vn 0.0003766707086469978 0.9999998807907104 0.00031431266688741744
vn 0.0003766707086469978 0.9999998807907104 0.00031431266688741744
vn 0.0005936804809607565 0.9999998211860657 -0.00005269328903523274
vn 0.0005936804809607565 0.9999998211860657 -0.00005269328903523274
vn 0.0003766707086469978 0.9999998807907104 0.00031431266688741744
vn -0.469522625207901 0.8556598424911499 -0.2177034467458725
vn 0.00040077767334878445 0.9999998807907104 0.0002693215210456401
vn 0.8958132266998291 0.4399911165237427 0.0626613199710846
vn 0.09581398963928223 0.9416446685791016 -0.3226843476295471
vn -0.8038458228111267 0.4638499319553375 -0.3723910450935364
vn -0.011206558905541897 0.9999368786811829 0.000815553474240005
vn -0.009012063033878803 0.9999587535858154 0.0011194274993613362
vn -0.010407941415905952 0.9999434947967529 -0.002165209036320448
vn -0.010151475667953491 0.9999463558197021 -0.002055657794699073
vn 0.7871142625808716 0.4431554675102234 0.429027259349823
vn 0.9841925501823425 -0.16377617418766022 0.0673975721001625
vn -0.9060850739479065 -0.00969578418880701 -0.42298436164855957
vn -0.9760867953300476 -0.0037510416004806757 -0.21734881401062012
vn -0.9765368700027466 -0.009836493991315365 -0.21512538194656372
vn -0.6357319355010986 -0.6798242926597595 -0.36562806367874146
vn -0.8280273079872131 -0.393388956785202 -0.39951956272125244
vn -0.7907798290252686 -0.4796547591686249 -0.3802611827850342
vn -0.7010528445243835 -0.6275004744529724 -0.3387743830680847
vn 0.00863226130604744 0.9999610185623169 0.001869283034466207
vn 0.00863226130604744 0.9999610185623169 0.001869283034466207
vn 0.00863226130604744 0.9999610185623169 0.001869283034466207
vn 0.008269487880170345 0.9999644160270691 0.0016537941992282867
vn 0.007262674625962973 0.9999589920043945 0.005411120131611824
vn 0.008999715559184551 0.9999319911003113 0.007420159410685301
vn 0.010622157715260983 0.9999426603317261 0.0013655120274052024
vn -0.8935407400131226 0.4460196793079376 -0.051491815596818924
vn -0.9059735536575317 -0.008730025961995125 -0.4232442378997803
vn -0.5288265943527222 0.7895292639732361 -0.31142565608024597
vn -0.5602709650993347 0.7924791574478149 -0.24098388850688934
vn -0.5569718480110168 0.7660679817199707 -0.320814847946167
vn -0.517667829990387 0.8167422413825989 -0.2548570930957794
vn -0.5738313794136047 0.8096239566802979 -0.12339624017477036
vn -0.5563243627548218 0.8216872811317444 -0.12382756918668747
vn -0.9017305970191956 -0.00871229451149702 -0.43221065402030945
vn 0.7592208385467529 -0.6508275866508484 0.002671957015991211
vn 0.9412655830383301 -0.33560505509376526 0.03726093843579292
vn 0.8883180022239685 -0.4481571614742279 0.1002313643693924
vn -0.8972598314285278 0.009804727509617805 -0.44139397144317627
vn -0.7876976728439331 0.48801878094673157 -0.375992089509964
vn -0.8904669880867004 -0.007631918415427208 -0.4549838900566101
vn -0.8882566094398499 0.008514732122421265 -0.45926862955093384
vn 0.9132081866264343 0.40236204862594604 0.06446406245231628
vn 0.8958132266998291 0.4399911165237427 0.0626613199710846
vn 0.998488187789917 -0.008741764351725578 0.05426672473549843
vn 0.666092574596405 0.7450644373893738 0.03463587909936905
vn 0.642836332321167 0.7660035490989685 -0.00020947754092048854
vn 0.9126139283180237 0.4021783173084259 0.07340574264526367
vn -0.8180310726165771 -0.43769508600234985 -0.3731596767902374
vn -0.7158247828483582 -0.6773385405540466 -0.16972732543945312
vn 0.9991225600242615 -0.008737779222428799 0.04096028208732605
vn 0.9370543360710144 -0.34120500087738037 0.0742177665233612
vn -0.7852732539176941 0.4875833988189697 -0.3815866708755493
vn -0.8038458228111267 0.4638499319553375 -0.3723910450935364
vn 0.9841925501823425 -0.16377617418766022 0.0673975721001625
vn 0.9131984710693359 -0.009723742492496967 0.4073990285396576
vn 0.912163257598877 -0.0161008071154356 0.40951061248779297
vn 0.986367404460907 -0.00980045273900032 0.16426590085029602
vn 0.9864245057106018 -0.008811012841761112 0.1639789491891861
vn 0.5241279602050781 0.8184695243835449 0.2353667914867401
vn 0.5411550998687744 0.8033590316772461 0.24852660298347473
vn 0.5658701062202454 0.8201861381530762 0.08417664468288422
vn 0.6065917611122131 0.794217586517334 0.03556448593735695
vn 0.9087318181991577 -0.009696646593511105 0.4172677993774414
vn 0.833018958568573 -0.39448821544647217 0.3878897726535797
vn 0.9876149892807007 -0.008799766190350056 0.15664975345134735
vn 0.6505587697029114 -0.6999351978302002 0.29472702741622925
vn 0.6850426197052002 -0.7178916335105896 0.12388797849416733
vn -0.8983926177024841 -0.39205530285835266 -0.19794785976409912
vn -0.6951944828033447 -0.700007438659668 -0.16338354349136353
vn -0.977591872215271 -0.009824274107813835 -0.2102799266576767
vn -0.007731343619525433 0.9999634027481079 -0.0036603857297450304
vn -0.008084133267402649 0.9999594688415527 -0.003969364799559116
vn 0.9985144138336182 -0.007639369927346706 0.05394947901368141
vt 0.4322129189968109 0.7728657424449921
vt 0.05735921859741211 0.617322564125061
vt 0.22602447867393494 0.9282442927360535
vt 0.5000002980232239 0.6175278425216675
vt 0.8070666193962097 0.9284089207649231
vt 0.4996219277381897 0.03952622413635254
vt 0.9547486901283264 0.07845312356948853
vt 0.9555046558380127 0.0010096430778503418
vt 0.04449516534805298 0.0005993843078613281
vt 0.04525139927864075 0.07804262638092041
vt 0.5000000596046448 0.32771605253219604
vt 0.5049272775650024 0.4726219177246094
vt 0.9327870011329651 0.32792145013809204
vt 0.06721311807632446 0.32751065492630005
vt 0.4890191853046417 0.2029820680618286
vt 0.5000000596046448 0.07824790477752686
vt 0.49999991059303284 0.0008045434951782227
vt 0.9426413774490356 0.6177331209182739
vt 0.010732501745223999 0.10217159986495972
vt 0.9892674684524536 0.10258132219314575
vt 0.012408614158630371 0.2740898132324219
vt 0.9875910878181458 0.274499773979187
vt 0.0004995465278625488 0.3269447684288025
vt 0.9995005130767822 0.32735466957092285
vt 0.5000002384185791 1.199400544166565
vt 0.75 0.33000004291534424
vt 0.75 0.6660000085830688
vt 0.5 0.6660000085830688
vt 0.5 1
vt 0.75 1
vt 0.5 0.8469082117080688
vt 0.5 0.5169082283973694
vt 0.75 0.5169082283973694
vt 0.75 0.8469082117080688
vt 0.5 1.182908296585083
vt 0.75 1.182908296585083
vt 0.5 1.5169081687927246
vt 0.75 1.5169081687927246
vt 0.5 0.11019325256347656
vt 0.5 -0.21980679035186768
vt 0.75 -0.21980679035186768
vt 0.75 0.11019325256347656
vt 0.5 0.44619321823120117
vt 0.75 0.44619321823120117
vt 0.5 0.7801932096481323
vt 0.75 0.7801932096481323
vt 0.75 0
vt 0.5 0
vt 0.5 0.33000004291534424
vt 0.75 0.33000004291534424
vt 0.5 0.6600000262260437
vt 0.75 0.6600000262260437
vt 0.75 1
vt 0.75 0.3454105854034424
vt 0.5 0.3454105854034424
vt 0.5 0.6754106283187866
vt 0.75 0.6754106283187866
vt 0.5 1.0054106712341309
vt 0.75 1.0054106712341309
vt 0.5 1.3454105854034424
vt 0.75 1.3454105854034424
vt 0.75 -0.10386478900909424
vt 0.5 -0.10386478900909424
vt 0.5 0.22613525390625
vt 0.75 0.22613525390625
vt 0.5 0.5561352968215942
vt 0.75 0.5561352968215942
vt 0.5 0.8961352705955505
vt 0.75 0.8961352705955505
vt 0.5 0.33000004291534424
vt 0.5 0
vt 0.75 0
vt 0.09628251194953918 0.37331944704055786
vt 0.4455641806125641 0.5412108302116394
vt 0.0004994869232177734 0.7087162733078003
vt 0.9893386960029602 0.9995005130767822
vt 0.5179747343063354 0.8541489541530609
vt 0.9995005130767822 0.7091023325920105
vt 0.5 0.7089093029499054
vt 0.493455708026886 0.3735123872756958
vt 0.8906288743019104 0.3737053871154785
vt 0.03644886612892151 0.9991955757141113
vt 0.4884583652019501 0.19121098518371582
vt 0.512893795967102 0.9993480443954468
vt 0.11458387970924377 0.0004994869232177734
vt 0.49760904908180237 0.004801034927368164
vt 0.8806341886520386 0.009102582931518555
vt 0.24787448346614838 0.8700000047683716
vt 0.24787448346614838 1
vt 0.7590339183807373 1
vt 0.7590339183807373 0.8700000047683716
vt 1.1666667461395264 1
vt 1.1666667461395264 0.8700000047683716
vt 0.25 0.5899999737739563
vt 0 0.5899999737739563
vt 0 0.5
vt 0.25 0.8700000047683716
vt 0.25 0.8199999928474426
vt 0.75 0.8199999928474426
vt 0.75 0.8700000047683716
vt -0.16683591902256012 1
vt -0.16683591902256012 0.8700000047683716
vt 0.24079690873622894 0.8700000047683716
vt 0.24079690873622894 1
vt 0.7519564032554626 0.8700000047683716
vt 0.7519564032554626 1
vt 1.130265474319458 0.8700000047683716
vt 1.130265474319458 1
vt 0.25 0.5
vt 0.25 0.5899999737739563
vt 0.75 0.5899999737739563
vt 0.75 0.6299999952316284
vt 0.25 0.6299999952316284
vt 0 0.6299999952316284
vt 0 0.5899999737739563
vt 0.25 0.6299999952316284
vt 0.75 0.8700000047683716
vt 0.75 0.8199999928474426
vt 0.25 0.8199999928474426
vt 0.75 0.6299999952316284
vt 1.100000023841858 0.5899999737739563
vt 0.75 0.5899999737739563
vt 0.75 0.5
vt 1.100000023841858 0.5899999737739563
vt 1.100000023841858 0.5
vt 0.75 0.5
vt 0.75 0.5899999737739563
vt 0.75 0.6299999952316284
vt 1.100000023841858 0.6299999952316284
vt 1.100000023841858 0.8199999928474426
vt 1.100000023841858 0.8700000047683716
vt 0.75 0.6299999952316284
vt 1.100000023841858 0.8199999928474426
vt 1.100000023841858 0.6299999952316284
vt 1.100000023841858 0.5
vt 1.100000023841858 0.8700000047683716
vt 0 0.5
vt 0 0.5899999737739563
vt 0.25 0.5899999737739563
vt 0.25 0.5
vt 0 0.5899999737739563
vt 0 0.6299999952316284
vt 0.25 0.6299999952316284
vt 0.25 0.5899999737739563
vt 0 0.6299999952316284
vt 0 0.8199999928474426
vt 0.25 0.6299999952316284
vt 0 0.8700000047683716
vt 0.25 0.8700000047683716
vt 0 0.8199999928474426
vt 0 0.8700000047683716
vt 0 0.6299999952316284
vt -0.1304347813129425 0.8700000047683716
vt -0.1304347813129425 1
vt 0.75 0.5899999737739563
g throne_hall110
s 1
f 1/1/1 2/2/2 3/3/3
f 2/2/2 1/1/1 4/4/4
f 1/1/1 5/5/5 4/4/4
f 6/6/6 7/7/7 8/8/8
f 6/6/6 9/9/9 10/10/10
f 11/11/11 12/12/12 13/13/13
f 14/14/14 12/12/12 11/11/11
f 11/11/11 15/15/15 14/14/14
f 13/13/13 15/15/15 11/11/11
f 16/16/16 15/15/15 7/7/7
f 10/10/10 15/15/15 16/16/16
f 16/16/16 6/6/6 10/10/10
f 7/7/7 6/6/6 16/16/16
f 17/17/17 6/6/6 8/8/8
f 5/5/5 1/1/1 3/3/3
f 15/15/15 10/10/10 14/14/14
f 15/15/15 13/13/13 7/7/7
f 12/12/12 14/14/14 4/4/4
f 18/18/18 12/12/12 4/4/4
f 12/12/12 18/18/18 13/13/13
f 4/4/4 14/14/14 2/2/2
f 4/4/4 5/5/5 18/18/18
f 14/14/14 10/10/10 19/19/19
f 7/7/7 13/13/13 20/20/20
f 14/14/14 19/19/19 21/21/21
f 20/20/20 13/13/13 22/22/22
f 23/23/23 2/2/2 14/14/14
f 13/13/13 18/18/18 24/24/24
f 3/3/3 25/25/25 5/5/5
f 9/9/9 6/6/6 17/17/17
g throne_hall111
s 1
f 26/26/26 27/27/27 28/28/28
f 29/29/29 28/28/28 27/27/27
f 27/27/27 30/30/30 29/29/29
f 31/31/31 32/32/32 33/33/33
f 33/33/33 34/34/34 31/31/31
f 35/35/35 31/31/31 34/34/34
f 34/34/34 36/36/36 35/35/35
f 37/37/37 35/35/35 36/36/36
f 36/36/36 38/38/38 37/37/37
f 39/39/39 40/40/40 41/41/41
f 41/41/41 42/42/42 39/39/39
f 43/43/43 39/39/39 42/42/42
f 42/42/42 44/44/44 43/43/43
f 45/45/45 43/43/43 44/44/44
f 44/44/44 46/46/46 45/45/45
f 47/47/47 48/48/48 49/49/49
f 49/49/49 50/50/50 47/47/47
f 50/50/50 49/49/49 51/51/51
f 51/51/51 52/52/52 50/50/50
f 52/52/52 51/51/51 29/29/29
f 29/29/29 53/53/53 52/52/52
f 54/54/54 55/55/55 56/56/56
f 56/56/56 57/57/57 54/54/54
f 57/57/57 56/56/56 58/58/58
f 58/58/58 59/59/59 57/57/57
f 59/59/59 58/58/58 60/60/60
f 60/60/60 61/61/61 59/59/59
f 62/62/62 63/63/63 64/64/64
f 64/64/64 65/65/65 62/62/62
f 65/65/65 64/64/64 66/66/66
f 66/66/66 67/67/67 65/65/65
f 67/67/67 66/66/66 68/68/68
f 68/68/68 69/69/69 67/67/67
f 70/70/70 71/71/71 72/72/72
f 72/72/72 26/26/26 70/70/70
f 28/28/28 70/70/70 26/26/26
g throne_hall112
s 1
f 73/73/73 74/74/74 75/75/75
f 76/76/76 77/77/77 78/78/78
f 79/79/79 78/78/78 77/77/77
f 73/73/73 80/80/80 74/74/74
f 80/80/80 81/81/81 74/74/74
f 78/78/78 79/79/79 81/81/81
f 75/75/75 79/79/79 82/82/82
f 79/79/79 77/77/77 82/82/82
f 80/80/80 73/73/73 83/83/83
f 76/76/76 84/84/84 77/77/77
f 81/81/81 80/80/80 83/83/83
f 84/84/84 82/82/82 77/77/77
f 85/85/85 86/86/86 73/73/73
f 79/79/79 74/74/74 81/81/81
f 81/81/81 83/83/83 87/87/87
f 86/86/86 87/87/87 83/83/83
f 86/86/86 83/83/83 73/73/73
f 79/79/79 75/75/75 74/74/74
g throne_hall113
s 1
f 88/88/88 89/89/89 90/90/90
f 91/91/91 90/90/90 92/92/92
f 92/92/92 93/93/93 91/91/91
f 94/94/94 95/95/95 96/96/96
f 97/97/97 98/98/98 99/99/99
f 99/99/99 100/100/100 97/97/97
f 101/101/101 102/102/102 103/103/103
f 103/103/103 104/104/104 101/101/101
f 104/104/104 103/103/103 105/105/105
f 105/105/105 106/106/106 104/104/104
f 106/106/106 105/105/105 107/107/107
f 107/107/107 108/108/108 106/106/106
f 96/96/96 109/109/109 94/94/94
f 110/110/110 111/111/111 112/112/112
f 113/113/113 114/114/114 115/115/115
f 99/99/99 98/98/98 116/116/116
f 115/115/115 110/110/110 113/113/113
f 117/117/117 118/118/118 119/119/119
f 116/116/116 120/120/120 99/99/99
f 121/121/121 122/122/122 123/123/123
f 90/90/90 91/91/91 88/88/88
f 124/124/124 125/125/125 126/126/126
f 127/127/127 128/128/128 129/129/129
f 129/129/129 124/124/124 127/127/127
f 112/112/112 113/113/113 110/110/110
f 109/109/109 123/123/123 122/122/122
f 122/122/122 94/94/94 109/109/109
f 99/99/99 130/130/130 131/131/131
f 132/132/132 118/118/118 133/133/133
f 131/131/131 100/100/100 99/99/99
f 120/120/120 134/134/134 130/130/130
f 130/130/130 99/99/99 120/120/120
f 123/123/123 135/135/135 121/121/121
f 133/133/133 129/129/129 132/132/132
f 118/118/118 117/117/117 136/136/136
f 136/136/136 133/133/133 118/118/118
f 137/137/137 138/138/138 139/139/139
f 139/139/139 140/140/140 137/137/137
f 141/141/141 142/142/142 143/143/143
f 143/143/143 144/144/144 141/141/141
f 145/145/145 146/146/146 119/119/119
f 119/119/119 147/147/147 145/145/145
f 146/146/146 148/148/148 149/149/149
f 149/149/149 119/119/119 146/146/146
f 111/111/111 121/121/121 134/134/134
f 134/134/134 112/112/112 111/111/111
f 150/150/150 98/98/98 97/97/97
f 97/97/97 151/151/151 150/150/150
f 152/152/152 116/116/116 98/98/98
f 98/98/98 150/150/150 152/152/152
f 153/153/153 154/154/154 89/89/89
f 89/89/89 88/88/88 153/153/153
f 140/140/140 139/139/139 155/155/155
f 155/155/155 126/126/126 140/140/140
f 144/144/144 143/143/143 128/128/128
f 128/128/128 127/127/127 144/144/144
f 147/147/147 119/119/119 118/118/118
f 118/118/118 132/132/132 147/147/147
f 119/119/119 149/149/149 117/117/117
f 126/126/126 155/155/155 124/124/124
