# Exported using wow.export v0.2.19
o 20736_Canal12c.obj
v -180.28173828125 -116.87744140625 34.265846252441406
v -180.57754516601562 -117.53736114501953 32.63368225097656
v -180.017578125 -118.19728088378906 34.195064544677734
v -186.6837921142578 -116.87744140625 37.69268798828125
v -187.1116943359375 -116.87743377685547 36.095916748046875
v -186.3229522705078 -116.30579376220703 37.59600830078125
v -186.25588989257812 -116.87744140625 39.289459228515625
v -186.81585693359375 -117.537353515625 37.72808074951172
v -179.32554626464844 -119.51712036132812 35.7210578918457
v -179.75344848632812 -119.5171127319336 34.12428665161133
v -179.45762634277344 -120.67916870117188 35.756446838378906
v -178.89764404296875 -119.51712036132812 37.31782913208008
v -179.45761108398438 -118.8572006225586 35.756446838378906
v -186.81585693359375 -123.00328063964844 37.72807312011719
v -187.11166381835938 -124.16533660888672 36.09591293334961
v -187.24374389648438 -123.00328063964844 36.13130187988281
v -187.63998413085938 -119.5171127319336 36.23747634887695
v -188.06788635253906 -119.51710510253906 34.640708923339844
v -187.93582153320312 -118.85719299316406 34.605316162109375
v -180.70962524414062 -116.87744140625 32.66907501220703
v -181.07046508789062 -116.30580139160156 32.7657585144043
v -181.1375274658203 -116.87744140625 31.07229995727539
v -187.08001708984375 -118.85719299316406 37.798858642578125
v -187.09585571289062 -117.8673095703125 36.9473876953125
v -187.37583923339844 -118.19727325439453 36.16669845581055
v -187.67166137695312 -117.537353515625 34.53453826904297
v -187.65582275390625 -118.52723693847656 35.386009216308594
v -181.29718017578125 -114.59087371826172 36.249359130859375
v -181.72508239746094 -114.59087371826172 34.652587890625
v -181.33071899414062 -114.87669372558594 35.40262985229492
v -180.86927795410156 -114.59087371826172 37.84613037109375
v -181.79010009765625 -114.150390625 36.381431579589844
v -186.09625244140625 -114.59087371826172 34.1124153137207
v -185.66836547851562 -114.59087371826172 35.70918655395508
v -186.45709228515625 -115.16250610351562 34.20909881591797
v -186.52415466308594 -114.59087371826172 32.51564407348633
v -185.60333251953125 -114.150390625 33.98033905029297
v -185.24046325683594 -114.59087371826172 37.30595779418945
v -184.74754333496094 -114.150390625 37.17388153076172
v -184.81256103515625 -114.59087371826172 38.90272903442383
v -185.60128784179688 -115.16250610351562 37.40264129638672
v -182.15298461914062 -114.59087371826172 33.055816650390625
v -182.64590454101562 -114.150390625 33.187889099121094
v -182.5808868408203 -114.59087371826172 31.45904541015625
v -181.79214477539062 -115.16252136230469 32.959129333496094
v -180.93634033203125 -115.16252136230469 36.152671813964844
v -187.9674835205078 -116.87742614746094 32.90237808227539
v -187.53958129882812 -116.87742614746094 34.4991455078125
v -180.1813507080078 -119.51710510253906 32.52751541137695
v -180.3134307861328 -120.67916107177734 32.56290817260742
v -187.17874145507812 -116.3057861328125 34.4024658203125
v -179.8538360595703 -116.87744140625 35.86261749267578
v -179.7217559814453 -117.53736114501953 35.82722473144531
v -179.42593383789062 -116.87744140625 37.459388732910156
v -180.2146759033203 -116.30580139160156 35.95930480957031
v -180.6092529296875 -119.51710510253906 30.93074607849121
v -180.31341552734375 -118.85719299316406 32.562904357910156
v -180.54197692871094 -115.44833374023438 36.90271759033203
v -180.14761352539062 -115.73416137695312 37.65275955200195
v -181.36424255371094 -115.16252136230469 34.55590057373047
v -181.00341796875 -115.73416137695312 34.4592170715332
v -179.1617889404297 -118.19728088378906 37.38861083984375
v -186.8514404296875 -115.44833374023438 33.45905303955078
v -187.24581909179688 -115.73414611816406 32.70901107788086
v -182.8408966064453 -112.82894134521484 38.37442398071289
v -183.23629760742188 -113.04917907714844 35.913230895996094
v -182.77590942382812 -113.26942443847656 36.64558029174805
v -182.71090698242188 -113.70989990234375 34.9167366027832
v -183.69671630859375 -112.82893371582031 35.180885314941406
v -183.6317138671875 -113.26941680908203 33.45204162597656
v -187.5731201171875 -116.59160614013672 33.65242004394531
v -184.5525360107422 -112.82893371582031 31.987342834472656
v -184.15713500976562 -113.04917907714844 34.44853591918945
v -184.61752319335938 -113.26942443847656 33.7161865234375
v -184.68252563476562 -113.70990753173828 35.44503402709961
v -183.76171875 -113.26942443847656 36.90972900390625
v -179.4417724609375 -117.86732482910156 36.60791778564453
v -186.3900146484375 -115.73414611816406 35.90255355834961
v -187.95166015625 -117.8673095703125 33.75384521484375
v -188.23162841796875 -118.197265625 32.97315979003906
v -186.80001831054688 -118.52723693847656 38.57954788208008
v -186.7841796875 -119.51712036132812 39.43101501464844
v -186.52003479003906 -118.19728088378906 39.36023712158203
v -187.3916778564453 -117.2073974609375 35.31522750854492
v -180.01760864257812 -121.84121704101562 34.195068359375
v -187.36000061035156 -119.18714904785156 37.018165588378906
v -187.2120819091797 -119.51712036132812 37.83424377441406
v -180.59339904785156 -118.52723693847656 31.782215118408203
v -188.21580505371094 -119.18714904785156 33.82462692260742
v -180.57754516601562 -123.00328063964844 32.6336784362793
v -180.28172302246094 -124.16533660888672 34.265838623046875
v -188.49578857421875 -119.51710510253906 33.04393768310547
v -186.53587341308594 -117.2073974609375 38.50876998901367
v -188.21578979492188 -120.09813690185547 33.82462692260742
v -187.935791015625 -120.67916870117188 34.605316162109375
v -188.36370849609375 -120.67916107177734 33.008544921875
v -187.7878875732422 -120.09814453125 35.42139434814453
v -187.50790405273438 -120.67916870117188 36.202083587646484
v -179.72177124023438 -123.00328063964844 35.827232360839844
v -186.9479217529297 -121.84123229980469 37.763465881347656
v -187.3758087158203 -121.84123229980469 36.166690826416016
v -187.07998657226562 -120.6791763305664 37.798851013183594
v -187.0958251953125 -122.42225646972656 36.94738006591797
v -186.66793823242188 -122.42225646972656 38.54415512084961
v -186.52003479003906 -121.84123229980469 39.36023712158203
v -186.38796997070312 -123.00328063964844 39.32484817504883
v -180.44549560546875 -121.84121704101562 32.59829330444336
v -180.74131774902344 -120.67916107177734 30.96613121032715
v -180.46133422851562 -120.09812927246094 31.746826171875
v -180.70960998535156 -124.16533660888672 32.669063568115234
v -179.17764282226562 -120.09814453125 36.537139892578125
v -179.58970642089844 -121.84122467041016 35.791839599609375
v -179.8538360595703 -124.16533660888672 35.86261749267578
v -179.02972412109375 -120.6791763305664 37.35321807861328
v -186.68377685546875 -124.16533660888672 37.69268798828125
v -186.80001831054688 -121.26020812988281 38.57954406738281
v -186.652099609375 -120.6791763305664 39.395626068115234
v -187.52371215820312 -122.42225646972656 35.350608825683594
v -187.671630859375 -123.00328063964844 34.53453063964844
v -187.8037109375 -121.84122467041016 34.569923400878906
v -179.30972290039062 -121.26020050048828 36.57252883911133
v -179.16180419921875 -121.84123229980469 37.38861083984375
v -179.44178771972656 -122.42225646972656 36.6079216003418
v -179.29388427734375 -123.00328063964844 37.42400360107422
v -180.59341430664062 -121.26019287109375 31.782211303710938
v -180.87338256835938 -121.84121704101562 31.001516342163086
v -186.9320831298828 -120.09814453125 38.614933013916016
v -188.09951782226562 -123.00328063964844 32.93775939941406
v -187.8195343017578 -123.58430480957031 33.718448638916016
v -187.96743774414062 -124.16533660888672 32.902366638183594
v -187.53955078125 -124.16533660888672 34.49913787841797
v -187.3916473388672 -123.58430480957031 35.315223693847656
v -180.85751342773438 -123.58430480957031 31.852981567382812
v -181.00543212890625 -123.00328063964844 31.036901473999023
v -181.1374969482422 -124.16533660888672 31.07228660583496
v -179.5738525390625 -123.58430480957031 36.643310546875
v -179.4259490966797 -124.16533660888672 37.45939254760742
v -186.53587341308594 -123.58430480957031 38.508766174316406
v -186.25588989257812 -124.16533660888672 39.289459228515625
v -187.65579223632812 -121.26020050048828 35.38600158691406
v -180.7254638671875 -122.42224884033203 31.817596435546875
v -188.08370971679688 -121.26019287109375 33.78923416137695
v -188.2316131591797 -121.84121704101562 32.97315216064453
v -187.95162963867188 -122.42224884033203 33.753841400146484
v -180.49362182617188 -124.16533660888672 36.88976287841797
v -179.8538360595703 -124.16533660888672 35.86261749267578
v -181.56130981445312 -124.16533660888672 36.320133209228516
v -186.04397583007812 -124.16533660888672 36.66554260253906
v -184.97628784179688 -124.16533660888672 37.23516845703125
v -185.4041748046875 -124.16533660888672 35.63839340209961
v -187.11166381835938 -124.16533660888672 36.09591293334961
v -181.1334228515625 -124.16533660888672 37.916908264160156
v -182.20111083984375 -124.16533660888672 37.34728240966797
v -182.84091186523438 -124.16533660888672 38.374427795410156
v -183.268798828125 -124.16533660888672 36.77764892578125
v -184.33648681640625 -124.16533660888672 36.20802307128906
v -183.69668579101562 -124.16533660888672 35.18087387084961
v -183.90859985351562 -124.16533660888672 37.8047981262207
v -184.54840087890625 -124.16533660888672 38.83194351196289
v -186.47186279296875 -124.16533660888672 35.068763732910156
v -187.53955078125 -124.16533660888672 34.49913787841797
v -185.83206176757812 -124.16533660888672 34.04161834716797
v -184.76437377929688 -124.16533660888672 34.611244201660156
v -184.12457275390625 -124.16533660888672 33.58409881591797
v -180.28172302246094 -124.16533660888672 34.265838623046875
v -181.98919677734375 -124.16533660888672 34.723358154296875
v -182.41708374023438 -124.16533660888672 33.12657928466797
v -183.056884765625 -124.16533660888672 34.153724670410156
v -182.62899780273438 -124.16533660888672 35.75050354003906
v -185.6160888671875 -124.16533660888672 38.26231384277344
v -186.25588989257812 -124.16533660888672 39.289459228515625
v -186.68377685546875 -124.16533660888672 37.69268798828125
v -180.70960998535156 -124.16533660888672 32.669063568115234
v -186.89974975585938 -124.16533660888672 33.47199249267578
v -186.25994873046875 -124.16533660888672 32.444847106933594
v -187.96743774414062 -124.16533660888672 32.902366638183594
v -185.1922607421875 -124.16533660888672 33.01447296142578
v -184.55245971679688 -124.16533660888672 31.987327575683594
v -183.48477172851562 -124.16533660888672 32.55695343017578
v -182.844970703125 -124.16533660888672 31.529808044433594
v -181.77728271484375 -124.16533660888672 32.09943389892578
v -181.1374969482422 -124.16533660888672 31.07228660583496
v -179.4259490966797 -124.16533660888672 37.45939254760742
vn -0.8914786577224731 -0.3850083351135254 0.23881851136684418
vn -0.9388225078582764 -0.3014000952243805 0.16664469242095947
vn -0.9403906464576721 -0.2187459021806717 0.26041415333747864
vn 0.9111684560775757 -0.38160836696624756 -0.15539342164993286
vn 0.8922509551048279 -0.38301828503608704 -0.23913463950157166
vn 0.876798689365387 -0.45672962069511414 -0.15040604770183563
vn 0.9233684539794922 -0.37738510966300964 -0.07050661742687225
vn 0.9393901228904724 -0.2994900643825531 -0.16688869893550873
vn -0.9364252686500549 -0.04512610659003258 0.3479529619216919
vn -0.9649485945701599 -0.04532664641737938 0.2584953010082245
vn -0.9136604070663452 0.1727931648492813 0.367922842502594
vn -0.8996462821960449 -0.04452773183584213 0.4343430697917938
vn -0.9272635579109192 -0.132673442363739 0.35011419653892517
vn 0.8142572641372681 0.5684239268302917 -0.11781065911054611
vn 0.6391200423240662 0.7415366172790527 -0.20408093929290771
vn 0.7747657895088196 0.5731784701347351 -0.2668415307998657
vn 0.9649870991706848 -0.04372556507587433 -0.2586269974708557
vn 0.9364258646965027 -0.04353388026356697 -0.34815430641174316
vn 0.9274100065231323 -0.13096073269844055 -0.350371390581131
vn -0.9103837013244629 -0.383588969707489 0.1551160365343094
vn -0.8759830594062805 -0.45839741826057434 0.1500852406024933
vn -0.922583281993866 -0.37934425473213196 0.07027103006839752
vn 0.9769419431686401 -0.13106058537960052 -0.16854503750801086
vn 0.9419074058532715 -0.2587098777294159 -0.21419531106948853
vn 0.9407444000244141 -0.21691888570785522 -0.26066502928733826
vn 0.8941524624824524 -0.299271821975708 -0.3330579400062561
vn 0.9359055757522583 -0.1742802858352661 -0.3061162233352661
vn -0.7020429968833923 -0.6597768664360046 0.2680116891860962
vn -0.7241902947425842 -0.661750078201294 0.19399788975715637
vn -0.7388486862182617 -0.6296545267105103 0.24007873237133026
vn -0.6757026314735413 -0.6538630723953247 0.34042471647262573
vn -0.5532217025756836 -0.8022963404655457 0.2242012917995453
vn 0.7027291059494019 -0.6589469909667969 -0.2682548463344574
vn 0.724872350692749 -0.6609213352203369 -0.1942756175994873
vn 0.751305103302002 -0.5947317481040955 -0.2860676050186157
vn 0.6763925552368164 -0.6530405879020691 -0.3406333327293396
vn 0.5519804954528809 -0.8032215237617493 -0.22394821047782898
vn 0.7426902055740356 -0.6589519381523132 -0.11913713812828064
vn 0.5923556089401245 -0.8025181293487549 -0.0712713897228241
vn 0.7560763359069824 -0.6530503630638123 -0.04328775033354759
vn 0.7919270396232605 -0.5951423048973083 -0.1365913450717926
vn -0.7420125603675842 -0.659771203994751 0.1188255026936531
vn -0.5935834646224976 -0.8015861511230469 0.07154151052236557
vn -0.7554031014442444 -0.6538516879081726 0.04294342175126076
vn -0.7911759614944458 -0.5962260365486145 0.13621734082698822
vn -0.7505518794059753 -0.5958292484283447 0.2857607305049896
vn 0.8348695039749146 -0.37737712264060974 -0.4007236063480377
vn 0.8667551875114441 -0.3816043436527252 -0.3211127817630768
vn -0.9849645495414734 -0.045127563178539276 0.16675859689712524
vn -0.9675682187080383 0.1735624372959137 0.18354226648807526
vn 0.8315882086753845 -0.45637986063957214 -0.3165096938610077
vn -0.8660075068473816 -0.3835919499397278 0.3207620084285736
vn -0.8936257362365723 -0.30118876695632935 0.3327435553073883
vn -0.8341576457023621 -0.3793501853942871 0.4003428816795349
vn -0.8308168649673462 -0.45805642008781433 0.3161134123802185
vn -0.9962967038154602 -0.04453061893582344 0.07355167716741562
vn -0.9767300486564636 -0.1327783167362213 0.16842907667160034
vn -0.7592619061470032 -0.5603897571563721 0.33088478446006775
vn -0.7649452686309814 -0.5234600901603699 0.3752974271774292
vn -0.7731883525848389 -0.5978248715400696 0.21162524819374084
vn -0.8164257407188416 -0.5306702852249146 0.22767947614192963
vn -0.879927933216095 -0.2151235193014145 0.42361390590667725
vn 0.7600322961807251 -0.5591552257537842 -0.3312044143676758
vn 0.7657204270362854 -0.5220880508422852 -0.37562787532806396
vn 0.040348514914512634 -0.9848318099975586 0.16875508427619934
vn -0.09723852574825287 -0.992971658706665 0.06746777147054672
vn -0.1860981583595276 -0.9730345606803894 0.13627606630325317
vn -0.40277987718582153 -0.9101800918579102 0.09664632380008698
vn -0.0046243444085121155 -0.9999886155128479 0.0011835183249786496
vn -0.2319808006286621 -0.9720616936683655 -0.03579334542155266
vn 0.8346222043037415 -0.4175756275653839 -0.3592163622379303
vn -0.04945693537592888 -0.9848132133483887 -0.1664239466190338
vn 0.08935584127902985 -0.9938483238220215 -0.0654299184679985
vn 0.17961399257183075 -0.9744758009910583 -0.13466861844062805
vn 0.39905962347984314 -0.911917507648468 -0.0956965759396553
vn 0.22552812099456787 -0.9735147953033447 0.03749759495258331
vn -0.8887503147125244 -0.25834885239601135 0.3786538541316986
vn 0.8172101974487305 -0.5292925834655762 -0.22807225584983826
vn 0.889158308506012 -0.25648191571235657 -0.3789650499820709
vn 0.8802204132080078 -0.21331501007080078 -0.42392051219940186
vn 0.9774277806282043 -0.1729103922843933 -0.12139607220888138
vn 0.9963675141334534 -0.04295223951339722 -0.07353149354457855
vn 0.9742447733879089 -0.21331655979156494 -0.07309775054454803
vn 0.8949754238128662 -0.34182247519493103 -0.2866643965244293
vn -0.8803136348724365 0.3811570703983307 0.2824307680130005
vn 0.9728983640670776 -0.08756712824106216 -0.21401140093803406
vn 0.9850266575813293 -0.043531112372875214 -0.1668158322572708
vn -0.9771275520324707 -0.17467577755451202 0.1212858110666275
vn 0.9152906537055969 -0.08712945878505707 -0.3932574987411499
vn -0.822708010673523 0.5643436908721924 0.06831984966993332
vn -0.6552716493606567 0.7417922019958496 0.14270049333572388
vn 0.8995950818061829 -0.04295775294303894 -0.43460705876350403
vn 0.9332025051116943 -0.33910009264945984 -0.11893001198768616
vn 0.908881664276123 0.06416283547878265 -0.41208863258361816
vn 0.9071999192237854 0.17050911486148834 -0.38459712266921997
vn 0.8621575832366943 0.16307830810546875 -0.479676753282547
vn 0.9438058137893677 0.06391404569149017 -0.32426175475120544
vn 0.9404419660568237 0.17006871104240417 -0.2943561375141144
vn -0.7398108243942261 0.5656964182853699 0.36423566937446594
vn 0.9125708937644958 0.3781202733516693 -0.15568985044956207
vn 0.8711439371109009 0.3757699131965637 -0.31607773900032043
vn 0.9643579721450806 0.17186260223388672 -0.20118899643421173
vn 0.8512194156646729 0.4768693149089813 -0.2191372811794281
vn 0.8791717886924744 0.4733325242996216 -0.054892249405384064
vn 0.9289514422416687 0.3700927197933197 0.008971134200692177
vn 0.829822301864624 0.5557317137718201 0.05056984722614288
vn -0.91851806640625 0.376262366771698 0.121454156935215
vn -0.9866659641265869 0.1619976907968521 0.01571299135684967
vn -0.9894421696662903 0.06500931829214096 0.12953007221221924
vn -0.6838926672935486 0.7295692563056946 -0.004420951474457979
vn -0.9125857353210449 0.06455235183238983 0.40375763177871704
vn -0.8447813987731934 0.37734901905059814 0.3794102966785431
vn -0.6118327379226685 0.737240731716156 0.2865949869155884
vn -0.8700436353683472 0.16633541882038116 0.46406522393226624
vn 0.6734236478805542 0.7369958162307739 -0.05777269974350929
vn 0.9568414092063904 0.2738935947418213 -0.09714313596487045
vn 0.9853314161300659 0.16742253303527832 -0.033040422946214676
vn 0.8032910227775574 0.469539076089859 -0.36641043424606323
vn 0.7226415276527405 0.5558284521102905 -0.4109061360359192
vn 0.83258056640625 0.37067219614982605 -0.41159650683403015
vn -0.8637135624885559 0.27329403162002563 0.42344942688941956
vn -0.800225019454956 0.36951005458831787 0.47233691811561584
vn -0.7752515077590942 0.4707814157009125 0.4211292564868927
vn -0.6934176087379456 0.5556048154830933 0.4587758183479309
vn -0.9601477384567261 0.2702905237674713 0.07113030552864075
vn -0.931557834148407 0.3610592186450958 -0.042849935591220856
vn 0.9882339835166931 0.06497268378734589 -0.138463094830513
vn 0.6721384525299072 0.5435921549797058 -0.5027300119400024
vn 0.6304804086685181 0.6332634687423706 -0.4488561153411865
vn 0.528275728225708 0.7006105184555054 -0.47965580224990845
vn 0.5903700590133667 0.7293160557746887 -0.345776230096817
vn 0.6881657838821411 0.6556230187416077 -0.3107835352420807
vn -0.7678593993186951 0.6392402648925781 -0.04199781268835068
vn -0.8335123062133789 0.543478786945343 -0.09943782538175583
vn -0.6970486044883728 0.7008483409881592 -0.15144242346286774
vn -0.652134120464325 0.6457582712173462 0.3971363306045532
vn -0.5545583963394165 0.7160179018974304 0.42400869727134705
vn 0.7609972953796387 0.6486012935638428 -0.014126001857221127
vn 0.6925055980682373 0.7157964706420898 0.08984139561653137
vn 0.8945698738098145 0.2747976779937744 -0.3524642586708069
vn -0.8844075202941895 0.4665389060974121 0.012840576469898224
vn 0.8531816601753235 0.26827186346054077 -0.4473379850387573
vn 0.7851610779762268 0.36163172125816345 -0.5027371644973755
vn 0.7586629986763 0.4616274833679199 -0.45970696210861206
vn -0.4372372329235077 0.8398768901824951 0.32160595059394836
vn -0.6118327379226685 0.737240731716156 0.2865949869155884
vn -0.30260518193244934 0.9304837584495544 0.2064702808856964
vn 0.5162819027900696 0.8515366911888123 -0.0913139209151268
vn 0.3728412389755249 0.9275556802749634 0.025097036734223366
vn 0.34013989567756653 0.9310082197189331 -0.13239571452140808
vn 0.6391200423240662 0.7415366172790527 -0.20408093929290771
vn -0.24718262255191803 0.8803287148475647 0.4048731327056885
vn -0.10849590599536896 0.9545958042144775 0.277444452047348
vn 0.09031092375516891 0.9373766183853149 0.33640608191490173
vn 0.044433340430259705 0.9877718091011047 0.14944078028202057
vn 0.18841449916362762 0.98204505443573 -0.009351180866360664
vn -0.0032038334757089615 0.9990507960319519 -0.04344247281551361
vn 0.23687110841274261 0.9537871479988098 0.1848844736814499
vn 0.4168005883693695 0.8802107572555542 0.22694998979568481
vn 0.4708678722381592 0.8465637564659119 -0.248219832777977
vn 0.5903700590133667 0.7293160557746887 -0.345776230096817
vn 0.2831747233867645 0.9166383743286133 -0.282110333442688
vn 0.14260798692703247 0.9757893085479736 -0.16582593321800232
vn -0.05728213116526604 0.9714471101760864 -0.23023757338523865
vn -0.6552716493606567 0.7417922019958496 0.14270049333572388
vn -0.3532857596874237 0.9339984655380249 0.05325398966670036
vn -0.37876445055007935 0.9194703698158264 -0.10541265457868576
vn -0.19469989836215973 0.9779237508773804 -0.07587561011314392
vn -0.1559925079345703 0.9842513203620911 0.08316012471914291
vn 0.5430369973182678 0.8376624584197998 0.05858732387423515
vn 0.6925055980682373 0.7157964706420898 0.08984139561653137
vn 0.6734236478805542 0.7369958162307739 -0.05777269974350929
vn -0.6838926672935486 0.7295692563056946 -0.004420951474457979
vn 0.41332629323005676 0.8237735629081726 -0.3880186975002289
vn 0.22256647050380707 0.8533467650413513 -0.4714483916759491
vn 0.528275728225708 0.7006105184555054 -0.47965580224990845
vn 0.08892114460468292 0.9315007925033569 -0.35270261764526367
vn -0.10915055125951767 0.9063661098480225 -0.40815040469169617
vn -0.24913454055786133 0.9322912693023682 -0.26223069429397583
vn -0.4281128942966461 0.8534730672836304 -0.29715847969055176
vn -0.5483719110488892 0.8259215950965881 -0.1309261918067932
vn -0.6970486044883728 0.7008483409881592 -0.15144242346286774
vn -0.5545583963394165 0.7160179018974304 0.42400869727134705
vt 0.05379705876111984 0.9974773824214935
vt 0.1069364845752716 0.8739512711763382
vt 0.16007593274116516 0.9974773824214935
vt 0.053796976804733276 1.1210034936666489
vt 0.05379696935415268 0.9974773824214935
vt 0.0068299658596515656 1.1210034936666489
vt 0.05379698425531387 1.2445296049118042
vt 0.10693643987178802 1.1210034936666489
vt 0.26635482907295227 1.1210034936666489
vt 0.26635482907295227 0.9974773824214935
vt 0.3904685378074646 1.1210034936666489
vt 0.26635482907295227 1.2445296049118042
vt 0.21321538090705872 1.1210034936666489
vt 0.6386959552764893 1.1210034936666489
vt 0.762809693813324 0.9974773824214935
vt 0.6386959552764893 0.9974773824214935
vt 0.26635482907295227 0.9974773824214935
vt 0.26635482907295227 0.8739512711763382
vt 0.21321536600589752 0.8739512711763382
vt 0.053797051310539246 0.8739512711763382
vt 0.0068300217390060425 0.8739512711763382
vt 0.05379704385995865 0.7504251599311829
vt 0.21321536600589752 1.1210034936666489
vt 0.133506178855896 1.0592404380440712
vt 0.16007590293884277 0.9974773824214935
vt 0.10693642497062683 0.8739512711763382
vt 0.18664562702178955 0.9357143267989159
vt -0.1340709775686264 1.1210034936666489
vt -0.1340710073709488 0.9974773824214935
vt -0.11058749258518219 1.0592404454946518
vt -0.13407094776630402 1.2445296049118042
vt -0.18232575058937073 1.1210034936666489
vt -0.1340709924697876 0.8739512711763382
vt -0.13407102227210999 0.9974773824214935
vt -0.08710401505231857 0.8739512711763382
vt -0.1340709775686264 0.7504251599311829
vt -0.18232578039169312 0.8739512711763382
vt -0.13407105207443237 1.1210034936666489
vt -0.1823258399963379 1.1210034936666489
vt -0.13407106697559357 1.2445296049118042
vt -0.08710405975580215 1.1210034936666489
vt -0.13407103717327118 0.8739512711763382
vt -0.1823258101940155 0.8739512711763382
vt -0.13407106697559357 0.7504251599311829
vt -0.08710403740406036 0.8739512711763382
vt -0.08710397779941559 1.1210034936666489
vt 0.053796954452991486 0.7504251599311829
vt 0.05379696190357208 0.8739512711763382
vt 0.26635482907295227 0.8739512711763382
vt 0.3904685378074646 0.8739512711763382
vt 0.006829950958490372 0.8739512711763382
vt 0.05379706621170044 1.1210034936666489
vt 0.1069364994764328 1.1210034936666489
vt 0.053797073662281036 1.2445296049118042
vt 0.006830036640167236 1.1210034936666489
vt 0.26635482907295227 0.7504251599311829
vt 0.21321538090705872 0.8739512711763382
vt -0.06362045556306839 1.1827665567398071
vt -0.04013694077730179 1.2445296049118042
vt -0.08710400760173798 0.9974773824214935
vt -0.040137000381946564 0.9974773824214935
vt 0.16007594764232635 1.2445296049118042
vt -0.06362050771713257 0.8121882081031799
vt -0.04013701528310776 0.7504251599311829
vt -0.32709020376205444 1.2445296049118042
vt -0.3029627799987793 1.0592404305934906
vt -0.27883538603782654 1.1210034936666489
vt -0.23058056831359863 0.9974773824214935
vt -0.32709020376205444 0.9974773824214935
vt -0.27883538603782654 0.8739512711763382
vt 0.03031345270574093 0.8121882081031799
vt -0.32709020376205444 0.7504251599311829
vt -0.3029628098011017 0.9357143342494965
vt -0.2788354158401489 0.8739512711763382
vt -0.23058059811592102 0.9974773824214935
vt -0.2788354158401489 1.1210034936666489
vt 0.13350622355937958 1.1827665567398071
vt -0.04013705253601074 0.9974773824214935
vt 0.1335061639547348 0.8121882081031799
vt 0.16007588803768158 0.7504251599311829
vt 0.18664562702178955 1.1827665567398071
vt 0.26635482907295227 1.2445296049118042
vt 0.16007590293884277 1.2445296049118042
vt 0.08036670088768005 0.9357143267989159
vt 0.5145822763442993 0.9974773824214935
vt 0.2397851049900055 1.0592404380440712
vt 0.26635482907295227 1.1210034936666489
vt 0.18664565682411194 0.8121882081031799
vt 0.2397851049900055 0.8121882081031799
vt 0.6386959552764893 0.8739512711763382
vt 0.762809693813324 0.9974773824214935
vt 0.26635482907295227 0.7504251599311829
vt 0.08036671578884125 1.1827665567398071
vt 0.32841169834136963 0.8121882081031799
vt 0.3904685378074646 0.8739512711763382
vt 0.3904685378074646 0.7504251599311829
vt 0.32841169834136963 0.9357143267989159
vt 0.3904685378074646 0.9974773824214935
vt 0.638696014881134 1.1210034936666489
vt 0.5145822763442993 1.1210034936666489
vt 0.5145822167396545 0.9974773824214935
vt 0.3904685378074646 1.1210034936666489
vt 0.5766390562057495 1.0592404380440712
vt 0.5766391158103943 1.1827665567398071
vt 0.5145822763442993 1.2445296049118042
vt 0.638696014881134 1.2445296049118042
vt 0.5145822763442993 0.8739512711763382
vt 0.3904685378074646 0.7504251599311829
vt 0.32841169834136963 0.8121882081031799
vt 0.7628096342086792 0.8739512711763382
vt 0.32841169834136963 1.1827665567398071
vt 0.5145822763442993 1.1210034936666489
vt 0.7628097534179688 1.1210034936666489
vt 0.3904685378074646 1.2445296049118042
vt 0.7628097534179688 1.1210034936666489
vt 0.45252540707588196 1.1827665567398071
vt 0.3904685378074646 1.2445296049118042
vt 0.5766390562057495 0.9357143267989159
vt 0.6386959552764893 0.8739512711763382
vt 0.5145822167396545 0.8739512711763382
vt 0.45252540707588196 1.1827665567398071
vt 0.5145822763442993 1.2445296049118042
vt 0.5766391754150391 1.1827665567398071
vt 0.638696014881134 1.2445296049118042
vt 0.45252537727355957 0.8121882081031799
vt 0.5145822167396545 0.7504251599311829
vt 0.32841169834136963 1.1827665567398071
vt 0.6386959552764893 0.7504251599311829
vt 0.7007527947425842 0.8121882081031799
vt 0.7628096342086792 0.7504251599311829
vt 0.7628096342086792 0.8739512711763382
vt 0.700752854347229 0.9357143267989159
vt 0.7007527947425842 0.8121882081031799
vt 0.6386959552764893 0.7504251599311829
vt 0.7628096342086792 0.7504251599311829
vt 0.700752854347229 1.1827665567398071
vt 0.7628097534179688 1.2445296049118042
vt 0.700752854347229 1.1827665567398071
vt 0.7628097534179688 1.2445296049118042
vt 0.45252537727355957 0.9357143267989159
vt 0.5766390562057495 0.8121882081031799
vt 0.45252537727355957 0.8121882081031799
vt 0.5145822167396545 0.7504251599311829
vt 0.5766390562057495 0.8121882081031799
vt 0.43720313906669617 0.21183454990386963
vt 0.49974745512008667 0.32787126302719116
vt 0.37465882301330566 0.3278716206550598
vt 0.061937034130096436 0.4439094066619873
vt 0.12448158860206604 0.3278723359107971
vt 0.12448135018348694 0.5599461197853088
vt -0.0006075184792280197 0.5599465370178223
vt 0.37465882301330566 0.09579789638519287
vt 0.31211450695991516 0.21183490753173828
vt 0.24957019090652466 0.09579825401306152
vt 0.24957020580768585 0.32787197828292847
vt 0.18702590465545654 0.44390904903411865
vt 0.24957022070884705 0.5599457025527954
vt 0.18702588975429535 0.21183526515960693
vt 0.12448157370090485 0.09579861164093018
vt 0.061936795711517334 0.6759832203388214
vt -0.0006077568978071213 0.792020320892334
vt 0.12448111176490784 0.7920199036598206
vt 0.18702566623687744 0.675982803106308
vt 0.24956998229026794 0.7920194864273071
vt 0.49974745512008667 0.5599449872970581
vt 0.37465882301330566 0.5599453449249268
vt 0.37465882301330566 0.7920190691947937
vt 0.31211453676223755 0.6759823858737946
vt 0.31211453676223755 0.44390869140625
vt 0.06193727254867554 0.21183562278747559
vt -0.0006070416420698166 0.09579896926879883
vt -0.0006072800606489182 0.32787275314331055
vt 0.49974745512008667 0.792018711566925
vt 0.06193655729293823 0.9080570042133331
vt 0.12448087334632874 1.0240936875343323
vt -0.0006079953163862228 1.0240941047668457
vt 0.18702542781829834 0.9080565869808197
vt 0.24956974387168884 1.0240932703018188
vt 0.31211429834365845 0.9080561697483063
vt 0.37465858459472656 1.0240928530693054
vt 0.43720313906669617 0.9080557525157928
vt 0.49974745512008667 1.024092435836792
vt 0.49974745512008667 0.09579753875732422
g Canal12c0
s 1
f 1/1/1 2/2/2 3/3/3
f 4/4/4 5/5/5 6/6/6
f 7/7/7 4/4/4 6/6/6
f 5/5/5 4/4/4 8/8/8
f 9/9/9 10/10/10 11/11/11
f 9/9/9 12/12/12 13/13/13
f 10/10/10 9/9/9 13/13/13
f 14/14/14 15/15/15 16/16/16
f 17/17/17 18/18/18 19/19/19
f 20/20/20 1/1/1 21/21/21
f 22/22/22 20/20/20 21/21/21
f 20/20/20 22/22/22 2/2/2
f 1/1/1 20/20/20 2/2/2
f 23/23/23 24/24/24 8/8/8
f 23/23/23 25/25/25 24/24/24
f 5/5/5 24/24/24 25/25/25
f 5/5/5 8/8/8 24/24/24
f 26/26/26 27/27/27 19/19/19
f 26/26/26 25/25/25 27/27/27
f 17/17/17 27/27/27 25/25/25
f 17/17/17 19/19/19 27/27/27
f 28/28/28 29/29/29 30/30/30
f 31/31/31 28/28/28 30/30/30
f 28/28/28 31/31/31 32/32/32
f 29/29/29 28/28/28 32/32/32
f 33/33/33 34/34/34 35/35/35
f 36/36/36 33/33/33 35/35/35
f 33/33/33 36/36/36 37/37/37
f 34/34/34 33/33/33 37/37/37
f 38/38/38 34/34/34 39/39/39
f 40/40/40 38/38/38 39/39/39
f 38/38/38 40/40/40 41/41/41
f 34/34/34 38/38/38 41/41/41
f 42/42/42 29/29/29 43/43/43
f 44/44/44 42/42/42 43/43/43
f 42/42/42 44/44/44 45/45/45
f 29/29/29 42/42/42 45/45/45
f 31/31/31 30/30/30 46/46/46
f 30/30/30 29/29/29 45/45/45
f 47/47/47 48/48/48 26/26/26
f 10/10/10 49/49/49 50/50/50
f 5/5/5 48/48/48 51/51/51
f 52/52/52 1/1/1 53/53/53
f 54/54/54 52/52/52 53/53/53
f 52/52/52 54/54/54 55/55/55
f 1/1/1 52/52/52 55/55/55
f 56/56/56 49/49/49 57/57/57
f 49/49/49 10/10/10 57/57/57
f 57/57/57 3/3/3 2/2/2
f 31/31/31 58/58/58 59/59/59
f 57/57/57 10/10/10 3/3/3
f 58/58/58 55/55/55 59/59/59
f 58/58/58 46/46/46 55/55/55
f 31/31/31 46/46/46 58/58/58
f 46/46/46 60/60/60 61/61/61
f 60/60/60 45/45/45 61/61/61
f 62/62/62 13/13/13 12/12/12
f 30/30/30 45/45/45 60/60/60
f 30/30/30 60/60/60 46/46/46
f 63/63/63 35/35/35 51/51/51
f 36/36/36 35/35/35 63/63/63
f 53/53/53 3/3/3 13/13/13
f 36/36/36 63/63/63 64/64/64
f 63/63/63 51/51/51 64/64/64
f 53/53/53 1/1/1 3/3/3
f 65/65/65 66/66/66 67/67/67
f 67/67/67 66/66/66 68/68/68
f 67/67/67 68/68/68 32/32/32
f 65/65/65 67/67/67 32/32/32
f 65/65/65 69/69/69 66/66/66
f 66/66/66 69/69/69 70/70/70
f 66/66/66 70/70/70 68/68/68
f 64/64/64 51/51/51 71/71/71
f 43/43/43 68/68/68 70/70/70
f 44/44/44 43/43/43 70/70/70
f 64/64/64 71/71/71 47/47/47
f 43/43/43 29/29/29 68/68/68
f 72/72/72 73/73/73 74/74/74
f 74/74/74 73/73/73 75/75/75
f 74/74/74 75/75/75 37/37/37
f 72/72/72 74/74/74 37/37/37
f 72/72/72 69/69/69 73/73/73
f 73/73/73 69/69/69 76/76/76
f 73/73/73 76/76/76 75/75/75
f 48/48/48 47/47/47 71/71/71
f 69/69/69 72/72/72 70/70/70
f 48/48/48 71/71/71 51/51/51
f 69/69/69 65/65/65 76/76/76
f 77/77/77 53/53/53 13/13/13
f 39/39/39 75/75/75 76/76/76
f 40/40/40 39/39/39 76/76/76
f 54/54/54 53/53/53 77/77/77
f 39/39/39 34/34/34 75/75/75
f 54/54/54 77/77/77 62/62/62
f 77/77/77 13/13/13 62/62/62
f 35/35/35 78/78/78 51/51/51
f 79/79/79 26/26/26 19/19/19
f 47/47/47 26/26/26 79/79/79
f 35/35/35 34/34/34 78/78/78
f 6/6/6 78/78/78 41/41/41
f 7/7/7 6/6/6 41/41/41
f 47/47/47 79/79/79 80/80/80
f 6/6/6 5/5/5 78/78/78
f 79/79/79 19/19/19 80/80/80
f 59/59/59 55/55/55 54/54/54
f 81/81/81 23/23/23 8/8/8
f 82/82/82 23/23/23 81/81/81
f 46/46/46 61/61/61 55/55/55
f 82/82/82 81/81/81 83/83/83
f 21/21/21 61/61/61 45/45/45
f 22/22/22 21/21/21 45/45/45
f 81/81/81 8/8/8 83/83/83
f 21/21/21 1/1/1 61/61/61
f 26/26/26 84/84/84 25/25/25
f 84/84/84 5/5/5 25/25/25
f 48/48/48 5/5/5 84/84/84
f 11/11/11 10/10/10 85/85/85
f 10/10/10 50/50/50 85/85/85
f 48/48/48 84/84/84 26/26/26
f 23/23/23 86/86/86 25/25/25
f 86/86/86 17/17/17 25/25/25
f 87/87/87 17/17/17 86/86/86
f 87/87/87 86/86/86 23/23/23
f 88/88/88 57/57/57 2/2/2
f 56/56/56 57/57/57 88/88/88
f 56/56/56 88/88/88 22/22/22
f 88/88/88 2/2/2 22/22/22
f 80/80/80 19/19/19 89/89/89
f 90/90/90 91/91/91 85/85/85
f 80/80/80 89/89/89 92/92/92
f 18/18/18 92/92/92 89/89/89
f 18/18/18 89/89/89 19/19/19
f 83/83/83 8/8/8 93/93/93
f 83/83/83 93/93/93 7/7/7
f 4/4/4 7/7/7 93/93/93
f 4/4/4 93/93/93 8/8/8
f 94/94/94 18/18/18 95/95/95
f 92/92/92 18/18/18 94/94/94
f 92/92/92 94/94/94 96/96/96
f 94/94/94 95/95/95 96/96/96
f 18/18/18 17/17/17 97/97/97
f 18/18/18 97/97/97 95/95/95
f 95/95/95 97/97/97 98/98/98
f 91/91/91 99/99/99 85/85/85
f 100/100/100 101/101/101 102/102/102
f 97/97/97 17/17/17 98/98/98
f 14/14/14 103/103/103 100/100/100
f 17/17/17 87/87/87 102/102/102
f 103/103/103 101/101/101 100/100/100
f 82/82/82 87/87/87 23/23/23
f 103/103/103 16/16/16 101/101/101
f 14/14/14 16/16/16 103/103/103
f 104/104/104 100/100/100 105/105/105
f 14/14/14 100/100/100 104/104/104
f 106/106/106 14/14/14 104/104/104
f 90/90/90 85/85/85 107/107/107
f 106/106/106 104/104/104 105/105/105
f 108/108/108 50/50/50 109/109/109
f 110/110/110 91/91/91 90/90/90
f 107/107/107 85/85/85 50/50/50
f 12/12/12 9/9/9 111/111/111
f 112/112/112 85/85/85 99/99/99
f 11/11/11 85/85/85 112/112/112
f 108/108/108 109/109/109 56/56/56
f 91/91/91 113/113/113 99/99/99
f 49/49/49 56/56/56 109/109/109
f 49/49/49 109/109/109 50/50/50
f 12/12/12 111/111/111 114/114/114
f 115/115/115 15/15/15 14/14/14
f 111/111/111 11/11/11 114/114/114
f 98/98/98 102/102/102 101/101/101
f 17/17/17 102/102/102 98/98/98
f 111/111/111 9/9/9 11/11/11
f 116/116/116 102/102/102 117/117/117
f 105/105/105 116/116/116 117/117/117
f 105/105/105 100/100/100 116/116/116
f 116/116/116 100/100/100 102/102/102
f 16/16/16 118/118/118 101/101/101
f 16/16/16 119/119/119 118/118/118
f 120/120/120 118/118/118 119/119/119
f 120/120/120 101/101/101 118/118/118
f 114/114/114 121/121/121 122/122/122
f 114/114/114 11/11/11 121/121/121
f 11/11/11 112/112/112 121/121/121
f 121/121/121 112/112/112 122/122/122
f 123/123/123 99/99/99 124/124/124
f 122/122/122 123/123/123 124/124/124
f 122/122/122 112/112/112 123/123/123
f 123/123/123 112/112/112 99/99/99
f 125/125/125 50/50/50 108/108/108
f 126/126/126 125/125/125 108/108/108
f 126/126/126 107/107/107 125/125/125
f 125/125/125 107/107/107 50/50/50
f 117/117/117 127/127/127 82/82/82
f 117/117/117 102/102/102 127/127/127
f 87/87/87 127/127/127 102/102/102
f 87/87/87 82/82/82 127/127/127
f 128/128/128 129/129/129 130/130/130
f 128/128/128 119/119/119 129/129/129
f 131/131/131 129/129/129 119/119/119
f 131/131/131 130/130/130 129/129/129
f 132/132/132 119/119/119 16/16/16
f 15/15/15 132/132/132 16/16/16
f 15/15/15 131/131/131 132/132/132
f 132/132/132 131/131/131 119/119/119
f 133/133/133 90/90/90 134/134/134
f 135/135/135 133/133/133 134/134/134
f 135/135/135 110/110/110 133/133/133
f 133/133/133 110/110/110 90/90/90
f 124/124/124 136/136/136 137/137/137
f 124/124/124 99/99/99 136/136/136
f 113/113/113 136/136/136 99/99/99
f 113/113/113 137/137/137 136/136/136
f 138/138/138 14/14/14 106/106/106
f 139/139/139 138/138/138 106/106/106
f 139/139/139 115/115/115 138/138/138
f 138/138/138 115/115/115 14/14/14
f 140/140/140 101/101/101 120/120/120
f 95/95/95 140/140/140 120/120/120
f 95/95/95 98/98/98 140/140/140
f 140/140/140 98/98/98 101/101/101
f 90/90/90 107/107/107 141/141/141
f 141/141/141 107/107/107 126/126/126
f 134/134/134 141/141/141 126/126/126
f 134/134/134 90/90/90 141/141/141
f 29/29/29 32/32/32 68/68/68
f 65/65/65 32/32/32 31/31/31
f 44/44/44 70/70/70 72/72/72
f 34/34/34 37/37/37 75/75/75
f 72/72/72 37/37/37 36/36/36
f 40/40/40 76/76/76 65/65/65
f 34/34/34 41/41/41 78/78/78
f 7/7/7 41/41/41 40/40/40
f 5/5/5 51/51/51 78/78/78
f 96/96/96 95/95/95 142/142/142
f 1/1/1 55/55/55 61/61/61
f 96/96/96 142/142/142 143/143/143
f 142/142/142 120/120/120 143/143/143
f 95/95/95 120/120/120 142/142/142
f 143/143/143 144/144/144 128/128/128
f 144/144/144 119/119/119 128/128/128
f 22/22/22 45/45/45 44/44/44
f 144/144/144 120/120/120 119/119/119
f 143/143/143 120/120/120 144/144/144
f 10/10/10 13/13/13 3/3/3
g Canal12c1
s 1
f 145/145/145 146/146/146 147/147/147
f 148/148/148 149/149/149 150/150/150
f 151/151/151 148/148/148 150/150/150
f 152/152/152 153/153/153 154/154/154
f 152/152/152 147/147/147 153/153/153
f 147/147/147 155/155/155 153/153/153
f 153/153/153 155/155/155 154/154/154
f 150/150/150 156/156/156 157/157/157
f 150/150/150 149/149/149 156/156/156
f 155/155/155 156/156/156 149/149/149
f 155/155/155 157/157/157 156/156/156
f 158/158/158 149/149/149 159/159/159
f 154/154/154 158/158/158 159/159/159
f 154/154/154 155/155/155 158/158/158
f 158/158/158 155/155/155 149/149/149
f 160/160/160 151/151/151 150/150/150
f 161/161/161 151/151/151 160/160/160
f 161/161/161 160/160/160 162/162/162
f 163/163/163 150/150/150 157/157/157
f 162/162/162 150/150/150 163/163/163
f 162/162/162 163/163/163 164/164/164
f 147/147/147 165/165/165 166/166/166
f 163/163/163 157/157/157 164/164/164
f 166/166/166 167/167/167 168/168/168
f 166/166/166 168/168/168 157/157/157
f 164/164/164 157/157/157 168/168/168
f 164/164/164 168/168/168 167/167/167
f 147/147/147 169/169/169 155/155/155
f 169/169/169 157/157/157 155/155/155
f 169/169/169 166/166/166 157/157/157
f 147/147/147 166/166/166 169/169/169
f 159/159/159 149/149/149 170/170/170
f 159/159/159 170/170/170 171/171/171
f 162/162/162 160/160/160 150/150/150
f 172/172/172 170/170/170 149/149/149
f 148/148/148 172/172/172 149/149/149
f 151/151/151 172/172/172 148/148/148
f 172/172/172 171/171/171 170/170/170
f 165/165/165 173/173/173 167/167/167
f 174/174/174 162/162/162 175/175/175
f 176/176/176 174/174/174 175/175/175
f 176/176/176 161/161/161 174/174/174
f 174/174/174 161/161/161 162/162/162
f 175/175/175 177/177/177 178/178/178
f 175/175/175 162/162/162 177/177/177
f 162/162/162 164/164/164 177/177/177
f 177/177/177 164/164/164 178/178/178
f 179/179/179 167/167/167 180/180/180
f 178/178/178 179/179/179 180/180/180
f 178/178/178 164/164/164 179/179/179
f 146/146/146 165/165/165 147/147/147
f 179/179/179 164/164/164 167/167/167
f 180/180/180 181/181/181 182/182/182
f 180/180/180 167/167/167 181/181/181
f 173/173/173 181/181/181 167/167/167
f 173/173/173 182/182/182 181/181/181
f 145/145/145 147/147/147 152/152/152
f 183/183/183 145/145/145 152/152/152
f 165/165/165 167/167/167 166/166/166
f 183/183/183 146/146/146 145/145/145
