# Exported using wow.export v0.2.19
o 20736_throne_hall12.obj
v -11.270816802978516 5.304169654846191 -22.672657012939453
v -8.909196853637695 4.245480537414551 -23.313013076782227
v -9.95976734161377 6.361738204956055 -23.01736831665039
v -11.707052230834961 4.246877670288086 -22.56258201599121
v -13.63243579864502 6.36285924911499 -22.032302856445312
v -11.733545303344727 0.3127676546573639 -22.581256866455078
v -14.608386993408203 0.5777198076248169 -21.80845069885254
v -14.617034912109375 0.0506083182990551 -21.809585571289062
v -8.85870361328125 0.047815535217523575 -23.354063034057617
v -8.859614372253418 0.574924886226654 -23.350366592407227
v -11.721534729003906 2.2743029594421387 -22.571624755859375
v -11.74543571472168 3.260590076446533 -22.55875015258789
v -14.457104682922363 2.2757010459899902 -21.837900161743164
v -8.985963821411133 2.272904634475708 -23.30535125732422
v -11.65835952758789 1.4253129959106445 -22.594133377075195
v -11.734001159667969 0.5763223171234131 -22.579408645629883
v -11.737869262695312 0.04921192675828934 -22.581825256347656
v -14.504908561706543 4.248275279998779 -21.812150955200195
v -8.640219688415527 0.7391565442085266 -23.40813446044922
v -14.82536792755127 0.7419459223747253 -21.749177932739258
v -8.64222240447998 1.909300684928894 -23.399927139282227
v -14.806180953979492 1.9120919704437256 -21.74665641784668
v -8.564306259155273 2.2690529823303223 -23.41847038269043
v -14.87881851196289 2.271843194961548 -21.724817276000977
v -11.67797565460205 8.20733642578125 -22.5444278717041
v -13.588386535644531 4.577526569366455 -18.93275260925293
v -12.649195671081543 7.167766094207764 -19.184410095214844
v -12.208539009094238 8.311532020568848 -17.73036766052246
v -10.763876914978027 10.342995643615723 -18.20462989807129
v -11.179459571838379 9.399383544921875 -19.576364517211914
v -13.588386535644531 4.577526569366455 -18.93275260925293
v -13.698681831359863 2.272050619125366 -18.903200149536133
v -14.760327339172363 2.2720515727996826 -20.30808448791504
v -14.383487701416016 4.354125022888184 -20.409055709838867
v -12.649195671081543 7.167766094207764 -19.184410095214844
v -13.445072174072266 6.498976230621338 -20.749267578125
v -11.179459571838379 9.399383544921875 -19.576364517211914
v -11.500297546386719 8.5966157913208 -21.197093963623047
v -14.383487701416016 4.354125022888184 -20.409055709838867
v -14.760327339172363 2.2720515727996826 -20.30808448791504
v -14.87881851196289 2.271843194961548 -21.724817276000977
v -14.504908561706543 4.248275279998779 -21.812150955200195
v -13.445072174072266 6.498976230621338 -20.749267578125
v -13.63243579864502 6.36285924911499 -22.032302856445312
v -11.500297546386719 8.5966157913208 -21.197093963623047
v -11.67797565460205 8.20733642578125 -22.5444278717041
v -8.435871124267578 2.2692673206329346 -20.315311431884766
v -7.895061016082764 2.2690482139587402 -18.707626342773438
v -7.965743064880371 5.0011982917785645 -18.787036895751953
v -8.54616641998291 4.574743270874023 -20.285755157470703
v -8.991061210632324 8.310481071472168 -18.622617721557617
v -9.485356330871582 7.164981365203857 -20.034099578857422
v -11.179459571838379 9.399383544921875 -19.576364517211914
v -8.13980484008789 2.269268274307251 -22.083993911743164
v -8.435871124267578 2.2692673206329346 -20.315311431884766
v -8.54616641998291 4.574743270874023 -20.285755157470703
v -8.516642570495605 4.35134220123291 -21.983016967773438
v -9.485356330871582 7.164981365203857 -20.034099578857422
v -9.502187728881836 6.496318817138672 -21.8076171875
v -11.179459571838379 9.399383544921875 -19.576364517211914
v -11.500297546386719 8.5966157913208 -21.197093963623047
v -8.564306259155273 2.2690529823303223 -23.41847038269043
v -8.13980484008789 2.269268274307251 -22.083993911743164
v -8.516642570495605 4.35134220123291 -21.983016967773438
v -8.909196853637695 4.245480537414551 -23.313013076782227
v -9.502187728881836 6.496318817138672 -21.8076171875
v -9.95976734161377 6.361738204956055 -23.01736831665039
v -11.500297546386719 8.5966157913208 -21.197093963623047
v -11.67797565460205 8.20733642578125 -22.5444278717041
v -13.053186416625977 5.0059494972229 -17.37633514404297
v -13.137768745422363 2.2722232341766357 -17.253808975219727
v -13.698681831359863 2.272050619125366 -18.903200149536133
v -13.46731948852539 0.050415463745594025 -18.965192794799805
v -11.567874908447266 0.04902500659227371 -20.319795608520508
v -14.468514442443848 0.050417158752679825 -20.386274337768555
v -8.85870361328125 0.047815535217523575 -23.354063034057617
v -11.52432632446289 0.04912164807319641 -21.907695770263672
v -8.43161678314209 0.047634974122047424 -22.00580406188965
v -11.450065612792969 0.049026064574718475 -21.1960391998291
v -11.067277908325195 0.04902415722608566 -19.609254837036133
v -8.667235374450684 0.0476328544318676 -20.25331687927246
v -14.617034912109375 0.0506083182990551 -21.809585571289062
v -10.867919921875 0.05090440809726715 -18.744441986083984
v -11.737869262695312 0.04921192675828934 -22.581825256347656
v -12.887252807617188 0.05048521235585213 -17.242767333984375
v -10.577886581420898 0.05093928426504135 -17.883228302001953
v -8.268521308898926 0.051393356174230576 -18.523691177368164
v -14.317837715148926 2.275906801223755 -20.42664909362793
v -14.760327339172363 2.2720515727996826 -20.30808448791504
v -13.698681831359863 2.272050619125366 -18.903200149536133
v -13.347851753234863 2.2759058475494385 -18.997203826904297
v -13.137768745422363 2.2722232341766357 -17.253808975219727
v -12.78838062286377 2.2759737968444824 -17.350839614868164
v -8.436630249023438 0.5748392939567566 -22.004457473754883
v -8.859614372253418 0.574924886226654 -23.350366592407227
v -8.85870361328125 0.047815535217523575 -23.354063034057617
v -8.582294464111328 2.2731237411499023 -21.965429306030273
v -8.21879768371582 1.9094510078430176 -22.06282615661621
v -8.498501777648926 1.9094510078430176 -20.29852867126465
v -8.786702156066895 2.273122549057007 -20.22130584716797
v -8.564306259155273 2.2690529823303223 -23.41847038269043
v -8.985963821411133 2.272904634475708 -23.30535125732422
v -8.582294464111328 2.2731237411499023 -21.965429306030273
v -8.13980484008789 2.269268274307251 -22.083993911743164
v -8.786702156066895 2.273122549057007 -20.22130584716797
v -8.435871124267578 2.2692673206329346 -20.315311431884766
v -8.337472915649414 2.2754383087158203 -18.585168838500977
v -7.895061016082764 2.2690482139587402 -18.707626342773438
v -8.43161678314209 0.047634974122047424 -22.00580406188965
v -8.436630249023438 0.5748392939567566 -22.004457473754883
v -8.671209335327148 0.5748371481895447 -20.25225257873535
v -8.48968505859375 0.73909592628479 -20.30088996887207
v -8.207676887512207 0.7390975952148438 -22.065805435180664
v -8.640219688415527 0.7391565442085266 -23.40813446044922
v -8.859614372253418 0.574924886226654 -23.350366592407227
v -8.207676887512207 0.7390975952148438 -22.065805435180664
v -13.347851753234863 2.2759058475494385 -18.997203826904297
v -13.636051177978516 1.9122339487075806 -18.919981002807617
v -14.681333541870117 1.9122341871261597 -20.329248428344727
v -8.48968505859375 0.73909592628479 -20.30088996887207
v -8.260482788085938 0.5781703591346741 -18.545011520385742
v -8.671209335327148 0.5748371481895447 -20.25225257873535
v -8.667235374450684 0.0476328544318676 -20.25331687927246
v -12.888063430786133 0.5776966214179993 -17.26165008544922
v -12.887252807617188 0.05048521235585213 -17.242767333984375
v -13.46731948852539 0.050415463745594025 -18.965192794799805
v -13.463343620300293 0.5776197910308838 -18.966257095336914
v -13.644868850708008 0.741878092288971 -18.917617797851562
v -13.070343971252441 0.7420160174369812 -17.217052459716797
v -7.9696784019470215 1.9098012447357178 -18.673913955688477
v -8.337472915649414 2.2754383087158203 -18.585168838500977
v -13.644868850708008 0.741878092288971 -18.917617797851562
v -13.072137832641602 1.912381887435913 -17.258968353271484
v -7.987523555755615 0.7403959631919861 -18.6265869140625
v -8.268521308898926 0.051393356174230576 -18.523691177368164
v -12.78838062286377 2.2759737968444824 -17.350839614868164
v -14.617034912109375 0.0506083182990551 -21.809585571289062
v -14.608386993408203 0.5777198076248169 -21.80845069885254
v -14.463499069213867 0.5776214599609375 -20.387617111206055
v -14.468514442443848 0.050417158752679825 -20.386274337768555
v -14.608386993408203 0.5777198076248169 -21.80845069885254
v -14.82536792755127 0.7419459223747253 -21.749177932739258
v -14.69245433807373 0.7418797612190247 -20.326271057128906
v -14.463499069213867 0.5776214599609375 -20.387617111206055
v -14.82536792755127 0.7419459223747253 -21.749177932739258
v -14.806180953979492 1.9120919704437256 -21.74665641784668
v -14.69245433807373 0.7418797612190247 -20.326271057128906
v -14.457104682922363 2.2757010459899902 -21.837900161743164
v -14.317837715148926 2.275906801223755 -20.42664909362793
v -8.64222240447998 1.909300684928894 -23.399927139282227
v -8.985963821411133 2.272904634475708 -23.30535125732422
v -8.640219688415527 0.7391565442085266 -23.40813446044922
v -14.457104682922363 2.2757010459899902 -21.837900161743164
v -14.87881851196289 2.271843194961548 -21.724817276000977
v -13.463343620300293 0.5776197910308838 -18.966257095336914
vn 0.259051650762558 -0.006329613737761974 0.9658428430557251
vn 0.2590516209602356 -0.006330177653580904 0.9658427238464355
vn 0.2590515911579132 -0.006329047493636608 0.9658427238464355
vn 0.259051650762558 -0.006330178584903479 0.9658428430557251
vn 0.2590515911579132 -0.006329047493636608 0.9658427238464355
vn 0.2590519189834595 -0.006328546442091465 0.9658426642417908
vn 0.25905224680900574 -0.006328989285975695 0.965842604637146
vn 0.2590515911579132 -0.006328548304736614 0.9658427238464355
vn 0.2590516209602356 -0.006328104063868523 0.9658427238464355
vn 0.2590516209602356 -0.00632896926254034 0.9658427238464355
vn 0.259051650762558 -0.006330192554742098 0.9658428430557251
vn 0.259051650762558 -0.006330178584903479 0.9658428430557251
vn 0.2590516209602356 -0.0063302055932581425 0.9658427238464355
vn 0.2590516209602356 -0.006330177653580904 0.9658427238464355
vn 0.259051650762558 -0.00632958859205246 0.9658428430557251
vn 0.2590519189834595 -0.006328979507088661 0.9658426642417908
vn 0.259051650762558 -0.006328327115625143 0.9658428430557251
vn 0.2590516209602356 -0.006330177653580904 0.9658427238464355
vn 0.2590475380420685 -0.006329880096018314 0.9658438563346863
vn 0.25905078649520874 -0.0063286167569458485 0.9658429622650146
vn 0.2590475380420685 -0.006329880096018314 0.9658438563346863
vn 0.25905078649520874 -0.0063286167569458485 0.9658429622650146
vn 0.2590537667274475 -0.006330233532935381 0.9658421874046326
vn 0.2590530812740326 -0.006330152042210102 0.9658423662185669
vn 0.2590515613555908 -0.006328701972961426 0.9658427834510803
vn 0.9140406250953674 -0.21027088165283203 -0.34686580300331116
vn 0.8797775506973267 -0.45480427145957947 -0.13836365938186646
vn 0.9256020188331604 -0.3703394830226898 0.07816345244646072
vn 0.19419161975383759 -0.8016833662986755 0.565325915813446
vn 0.80686354637146 -0.5894277691841125 0.03932131826877594
vn 0.9140406250953674 -0.21027088165283203 -0.34686580300331116
vn 0.8826189041137695 -0.045340102165937424 -0.4678976237773895
vn 0.911117434501648 -0.13990040123462677 -0.3876762390136719
vn 0.9152178764343262 -0.31349924206733704 -0.25316882133483887
vn 0.8797775506973267 -0.45480427145957947 -0.13836365938186646
vn 0.828415036201477 -0.5558064579963684 -0.06933712959289551
vn 0.80686354637146 -0.5894277691841125 0.03932131826877594
vn 0.7254685163497925 -0.6830053329467773 0.08484786748886108
vn 0.9152178764343262 -0.31349924206733704 -0.25316882133483887
vn 0.911117434501648 -0.13990040123462677 -0.3876762390136719
vn 0.9799998998641968 -0.181346133351326 -0.08193767070770264
vn 0.9521928429603577 -0.29958757758140564 -0.059799857437610626
vn 0.828415036201477 -0.5558064579963684 -0.06933712959289551
vn 0.7964870929718018 -0.6046362519264221 -0.004833355080336332
vn 0.7254685163497925 -0.6830053329467773 0.08484786748886108
vn 0.6974249482154846 -0.7077693939208984 0.11252060532569885
vn -0.9963656663894653 -0.03106839209794998 0.07931116968393326
vn -0.7957901954650879 0.4467032849788666 0.40886932611465454
vn -0.8860037326812744 -0.13179518282413483 0.44455307722091675
vn -0.9538130760192871 -0.21558727324008942 0.20919550955295563
vn -0.7314437627792358 -0.408005028963089 0.5463716387748718
vn -0.7775378227233887 -0.499048113822937 0.3826041519641876
vn -0.6490233540534973 -0.6301659941673279 0.4262153208255768
vn -0.9891989231109619 -0.13868272304534912 0.04746164754033089
vn -0.9963656663894653 -0.03106839209794998 0.07931116968393326
vn -0.9538130760192871 -0.21558727324008942 0.20919550955295563
vn -0.9358050227165222 -0.31409087777137756 0.1600494682788849
vn -0.7775378227233887 -0.499048113822937 0.3826041519641876
vn -0.7690684795379639 -0.5591322779655457 0.3096849024295807
vn -0.6490233540534973 -0.6301659941673279 0.4262153208255768
vn -0.6095448136329651 -0.6922078132629395 0.386398047208786
vn -0.9366716742515564 -0.18398144841194153 0.29798823595046997
vn -0.9891989231109619 -0.13868272304534912 0.04746164754033089
vn -0.9358050227165222 -0.31409087777137756 0.1600494682788849
vn -0.880180835723877 -0.35447925329208374 0.31563615798950195
vn -0.7690684795379639 -0.5591322779655457 0.3096849024295807
vn -0.7353804707527161 -0.5843439698219299 0.3431583344936371
vn -0.6095448136329651 -0.6922078132629395 0.386398047208786
vn -0.6632868647575378 -0.6910857558250427 0.28714290261268616
vn 0.9890047311782837 -0.14509031176567078 -0.028608111664652824
vn 0.8961746096611023 0.44315528869628906 -0.022009484469890594
vn 0.8826189041137695 -0.045340102165937424 -0.4678976237773895
vn 0.0004877957981079817 0.9999998211860657 -0.00034247394069097936
vn 0.00048557925038039684 0.9999998807907104 -0.0001293032692046836
vn 0.00048336273175664246 0.9999998807907104 0.00008386739500565454
vn 0.0004801259783562273 0.9999998807907104 -0.00001816645817598328
vn 0.00048336273175664246 0.9999998807907104 0.00008386739500565454
vn 0.00048336273175664246 0.9999998807907104 0.00008386739500565454
vn 0.00048336273175664246 0.9999998807907104 0.00008386739500565454
vn 0.0004877957981079817 0.9999998211860657 -0.00034247394069097936
vn 0.0004877957981079817 0.9999998211860657 -0.00034247394069097936
vn 0.00048336273175664246 0.9999998807907104 0.00008386739500565454
vn -0.5151766538619995 0.8556172251701355 0.05012108385562897
vn 0.00048174435505643487 0.9999998807907104 0.00003285046841483563
vn 0.8071273565292358 0.43999233841896057 -0.39363962411880493
vn -0.07798514515161514 0.9437941908836365 -0.32120224833488464
vn -0.8817991018295288 0.4637022614479065 0.08608447760343552
vn -0.009297392331063747 0.9999368786811829 0.006309573072940111
vn -0.007244960870593786 0.9999587535858154 0.005475485231727362
vn -0.010096147656440735 0.9999434947967529 0.003328841645270586
vn -0.009819271042943 0.9999463558197021 0.0032954830676317215
vn 0.8961746096611023 0.44315528869628906 -0.022009484469890594
vn 0.8860347867012024 -0.1637764722108841 -0.4337276220321655
vn -0.9961848855018616 -0.009694485925137997 0.08672735840082169
vn -0.9539902806282043 -0.0037509766407310963 0.29981398582458496
vn -0.9532684683799744 -0.009835930541157722 0.3019644320011139
vn -0.7333739399909973 -0.6798244118690491 0.001222884631715715
vn -0.9168522953987122 -0.3933892846107483 0.068019799888134
vn -0.8749660849571228 -0.4796546697616577 0.06607399880886078
vn -0.7765166163444519 -0.6275006532669067 0.05713919922709465
vn 0.008410399779677391 0.9999610185623169 -0.002697282237932086
vn 0.008410399779677391 0.9999610185623169 -0.002697282237932086
vn 0.008410399779677391 0.9999610185623169 -0.002697282237932086
vn 0.007988501340150833 0.9999644160270691 -0.0027025146409869194
vn 0.00899522565305233 0.9999589920043945 0.001054828753694892
vn 0.011504079215228558 0.9999319911003113 0.0019261902198195457
vn 0.009881824254989624 0.9999426603317261 -0.004128510132431984
vn -0.7957901954650879 0.4467032849788666 0.40886932611465454
vn -0.996218204498291 -0.008729499764740467 0.08644676953554153
vn -0.6136896014213562 0.7895296812057495 -0.005289369262754917
vn -0.605701208114624 0.7924788594245911 0.07143744081258774
vn -0.642759382724762 0.7660678625106812 0.0006522659678012133
vn -0.5757409930229187 0.8167429566383362 0.03812104091048241
vn -0.5586501359939575 0.8096242547035217 0.18005156517028809
vn -0.5437037348747253 0.8216879963874817 0.17092415690422058
vn -0.9970269203186035 -0.008712486363947392 0.07655991613864899
vn 0.6588402986526489 -0.6508278846740723 -0.3772962987422943
vn 0.8337904214859009 -0.3356051445007324 -0.4383637011051178
vn 0.819421648979187 -0.4481571316719055 -0.35735610127449036
vn -0.9977468252182007 0.009804553352296352 0.06637155264616013
vn -0.8683534860610962 0.4902322292327881 0.07506375759840012
vn -0.9986589550971985 -0.00763129536062479 0.051206111907958984
vn -0.9988871216773987 0.00851486437022686 0.046390365809202194
vn 0.8230926394462585 0.40236395597457886 -0.40077638626098633
vn 0.8071273565292358 0.43999233841896057 -0.39363962411880493
vn 0.8918495774269104 -0.008741362951695919 -0.45224761962890625
vn 0.5941712260246277 0.7450643181800842 -0.3030507266521454
vn 0.5566079616546631 0.766003429889679 -0.3215996026992798
vn 0.8270490169525146 0.40217962861061096 -0.39273586869239807
vn -0.895941436290741 -0.43504753708839417 0.08956866711378098
vn -0.7047863602638245 -0.6773383021354675 0.21092410385608673
vn 0.8857457041740417 -0.008737847208976746 -0.4640885293483734
vn 0.8486219048500061 -0.3412049412727356 -0.40425243973731995
vn -0.8703616857528687 0.4877818822860718 0.0673750787973404
vn -0.8817991018295288 0.4637022614479065 0.08608447760343552
vn 0.8860347867012024 -0.1637764722108841 -0.4337276220321655
vn 0.9945525527000427 -0.00972505658864975 -0.10378151386976242
vn 0.9947118163108826 -0.01610201597213745 -0.10143526643514633
vn 0.9363521933555603 -0.009800889529287815 -0.3509252369403839
vn 0.93625807762146 -0.008811107836663723 -0.35120242834091187
vn 0.5715903043746948 0.8184703588485718 -0.058230362832546234
vn 0.5929164886474609 0.8033596873283386 -0.055347174406051636
vn 0.5321458578109741 0.8201863169670105 -0.2100360244512558
vn 0.5431060194969177 0.7942176461219788 -0.27249619364738464
vn 0.9956187605857849 -0.00969670619815588 -0.09300149232149124
vn 0.9153604507446289 -0.39448830485343933 -0.0805867612361908
vn 0.9336246252059937 -0.008799921721220016 -0.35814470052719116
vn 0.7107650637626648 -0.6999340057373047 -0.07003869861364365
vn 0.655208170413971 -0.7178918123245239 -0.2352309226989746
vn -0.8770050406455994 -0.39205485582351685 0.27776816487312317
vn -0.6837481260299683 -0.7000072598457336 0.2061028629541397
vn -0.9517591595649719 -0.009825009852647781 0.3066886365413666
vn -0.00852573849260807 0.9999634027481079 0.0006956885335966945
vn -0.008985745720565319 0.9999594688415527 0.000604501401539892
vn 0.8917136192321777 -0.00763853220269084 -0.45253562927246094
vt 0.4322129189968109 0.7728657424449921
vt 0.05735921859741211 0.617322564125061
vt 0.22602447867393494 0.9282442927360535
vt 0.5000002980232239 0.6175278425216675
vt 0.8070666193962097 0.9284089207649231
vt 0.4996219277381897 0.03952622413635254
vt 0.9547486901283264 0.07845312356948853
vt 0.9555046558380127 0.0010096430778503418
vt 0.04449516534805298 0.0005993843078613281
vt 0.04525139927864075 0.07804262638092041
vt 0.5000000596046448 0.32771605253219604
vt 0.5049272775650024 0.4726219177246094
vt 0.9327870011329651 0.32792145013809204
vt 0.06721311807632446 0.32751065492630005
vt 0.4890191853046417 0.2029820680618286
vt 0.5000000596046448 0.07824790477752686
vt 0.49999991059303284 0.0008045434951782227
vt 0.9426413774490356 0.6177331209182739
vt 0.010732501745223999 0.10217159986495972
vt 0.9892674684524536 0.10258132219314575
vt 0.012408614158630371 0.2740898132324219
vt 0.9875910878181458 0.274499773979187
vt 0.0004995465278625488 0.3269447684288025
vt 0.9995005130767822 0.32735466957092285
vt 0.5000002384185791 1.199400544166565
vt 0.75 0.33000004291534424
vt 0.75 0.6660000085830688
vt 0.5 0.6660000085830688
vt 0.5 1
vt 0.75 1
vt 0.5 0.8469082117080688
vt 0.5 0.5169082283973694
vt 0.75 0.5169082283973694
vt 0.75 0.8469082117080688
vt 0.5 1.182908296585083
vt 0.75 1.182908296585083
vt 0.5 1.5169081687927246
vt 0.75 1.5169081687927246
vt 0.5 0.11019325256347656
vt 0.5 -0.21980679035186768
vt 0.75 -0.21980679035186768
vt 0.75 0.11019325256347656
vt 0.5 0.44619321823120117
vt 0.75 0.44619321823120117
vt 0.5 0.7801932096481323
vt 0.75 0.7801932096481323
vt 0.75 0
vt 0.5 0
vt 0.5 0.33000004291534424
vt 0.75 0.33000004291534424
vt 0.5 0.6600000262260437
vt 0.75 0.6600000262260437
vt 0.75 1
vt 0.75 0.3454105854034424
vt 0.5 0.3454105854034424
vt 0.5 0.6754106283187866
vt 0.75 0.6754106283187866
vt 0.5 1.0054106712341309
vt 0.75 1.0054106712341309
vt 0.5 1.3454105854034424
vt 0.75 1.3454105854034424
vt 0.75 -0.10386478900909424
vt 0.5 -0.10386478900909424
vt 0.5 0.22613525390625
vt 0.75 0.22613525390625
vt 0.5 0.5561352968215942
vt 0.75 0.5561352968215942
vt 0.5 0.8961352705955505
vt 0.75 0.8961352705955505
vt 0.5 0.33000004291534424
vt 0.5 0
vt 0.75 0
vt 0.09628251194953918 0.37331944704055786
vt 0.4455641806125641 0.5412108302116394
vt 0.0004994869232177734 0.7087162733078003
vt 0.9893386960029602 0.9995005130767822
vt 0.5179747343063354 0.8541489541530609
vt 0.9995005130767822 0.7091023325920105
vt 0.5 0.7089093029499054
vt 0.493455708026886 0.3735123872756958
vt 0.8906288743019104 0.3737053871154785
vt 0.03644886612892151 0.9991955757141113
vt 0.4884583652019501 0.19121098518371582
vt 0.512893795967102 0.9993480443954468
vt 0.11458387970924377 0.0004994869232177734
vt 0.49760904908180237 0.004801034927368164
vt 0.8806341886520386 0.009102582931518555
vt 0.24787448346614838 0.8700000047683716
vt 0.24787448346614838 1
vt 0.7590339183807373 1
vt 0.7590339183807373 0.8700000047683716
vt 1.1666667461395264 1
vt 1.1666667461395264 0.8700000047683716
vt 0.25 0.5899999737739563
vt 0 0.5899999737739563
vt 0 0.5
vt 0.25 0.8700000047683716
vt 0.25 0.8199999928474426
vt 0.75 0.8199999928474426
vt 0.75 0.8700000047683716
vt -0.16683591902256012 1
vt -0.16683591902256012 0.8700000047683716
vt 0.24079690873622894 0.8700000047683716
vt 0.24079690873622894 1
vt 0.7519564032554626 0.8700000047683716
vt 0.7519564032554626 1
vt 1.130265474319458 0.8700000047683716
vt 1.130265474319458 1
vt 0.25 0.5
vt 0.25 0.5899999737739563
vt 0.75 0.5899999737739563
vt 0.75 0.6299999952316284
vt 0.25 0.6299999952316284
vt 0 0.6299999952316284
vt 0 0.5899999737739563
vt 0.25 0.6299999952316284
vt 0.75 0.8700000047683716
vt 0.75 0.8199999928474426
vt 0.25 0.8199999928474426
vt 0.75 0.6299999952316284
vt 1.100000023841858 0.5899999737739563
vt 0.75 0.5899999737739563
vt 0.75 0.5
vt 1.100000023841858 0.5899999737739563
vt 1.100000023841858 0.5
vt 0.75 0.5
vt 0.75 0.5899999737739563
vt 0.75 0.6299999952316284
vt 1.100000023841858 0.6299999952316284
vt 1.100000023841858 0.8199999928474426
vt 1.100000023841858 0.8700000047683716
vt 0.75 0.6299999952316284
vt 1.100000023841858 0.8199999928474426
vt 1.100000023841858 0.6299999952316284
vt 1.100000023841858 0.5
vt 1.100000023841858 0.8700000047683716
vt 0 0.5
vt 0 0.5899999737739563
vt 0.25 0.5899999737739563
vt 0.25 0.5
vt 0 0.5899999737739563
vt 0 0.6299999952316284
vt 0.25 0.6299999952316284
vt 0.25 0.5899999737739563
vt 0 0.6299999952316284
vt 0 0.8199999928474426
vt 0.25 0.6299999952316284
vt 0 0.8700000047683716
vt 0.25 0.8700000047683716
vt 0 0.8199999928474426
vt 0 0.8700000047683716
vt 0 0.6299999952316284
vt -0.1304347813129425 0.8700000047683716
vt -0.1304347813129425 1
vt 0.75 0.5899999737739563
g throne_hall120
s 1
f 1/1/1 2/2/2 3/3/3
f 2/2/2 1/1/1 4/4/4
f 1/1/1 5/5/5 4/4/4
f 6/6/6 7/7/7 8/8/8
f 6/6/6 9/9/9 10/10/10
f 11/11/11 12/12/12 13/13/13
f 14/14/14 12/12/12 11/11/11
f 11/11/11 15/15/15 14/14/14
f 13/13/13 15/15/15 11/11/11
f 16/16/16 15/15/15 7/7/7
f 10/10/10 15/15/15 16/16/16
f 16/16/16 6/6/6 10/10/10
f 7/7/7 6/6/6 16/16/16
f 17/17/17 6/6/6 8/8/8
f 5/5/5 1/1/1 3/3/3
f 15/15/15 10/10/10 14/14/14
f 15/15/15 13/13/13 7/7/7
f 12/12/12 14/14/14 4/4/4
f 18/18/18 12/12/12 4/4/4
f 12/12/12 18/18/18 13/13/13
f 4/4/4 14/14/14 2/2/2
f 4/4/4 5/5/5 18/18/18
f 14/14/14 10/10/10 19/19/19
f 7/7/7 13/13/13 20/20/20
f 14/14/14 19/19/19 21/21/21
f 20/20/20 13/13/13 22/22/22
f 23/23/23 2/2/2 14/14/14
f 13/13/13 18/18/18 24/24/24
f 3/3/3 25/25/25 5/5/5
f 9/9/9 6/6/6 17/17/17
g throne_hall121
s 1
f 26/26/26 27/27/27 28/28/28
f 29/29/29 28/28/28 27/27/27
f 27/27/27 30/30/30 29/29/29
f 31/31/31 32/32/32 33/33/33
f 33/33/33 34/34/34 31/31/31
f 35/35/35 31/31/31 34/34/34
f 34/34/34 36/36/36 35/35/35
f 37/37/37 35/35/35 36/36/36
f 36/36/36 38/38/38 37/37/37
f 39/39/39 40/40/40 41/41/41
f 41/41/41 42/42/42 39/39/39
f 43/43/43 39/39/39 42/42/42
f 42/42/42 44/44/44 43/43/43
f 45/45/45 43/43/43 44/44/44
f 44/44/44 46/46/46 45/45/45
f 47/47/47 48/48/48 49/49/49
f 49/49/49 50/50/50 47/47/47
f 50/50/50 49/49/49 51/51/51
f 51/51/51 52/52/52 50/50/50
f 52/52/52 51/51/51 29/29/29
f 29/29/29 53/53/53 52/52/52
f 54/54/54 55/55/55 56/56/56
f 56/56/56 57/57/57 54/54/54
f 57/57/57 56/56/56 58/58/58
f 58/58/58 59/59/59 57/57/57
f 59/59/59 58/58/58 60/60/60
f 60/60/60 61/61/61 59/59/59
f 62/62/62 63/63/63 64/64/64
f 64/64/64 65/65/65 62/62/62
f 65/65/65 64/64/64 66/66/66
f 66/66/66 67/67/67 65/65/65
f 67/67/67 66/66/66 68/68/68
f 68/68/68 69/69/69 67/67/67
f 70/70/70 71/71/71 72/72/72
f 72/72/72 26/26/26 70/70/70
f 28/28/28 70/70/70 26/26/26
g throne_hall122
s 1
f 73/73/73 74/74/74 75/75/75
f 76/76/76 77/77/77 78/78/78
f 79/79/79 78/78/78 77/77/77
f 73/73/73 80/80/80 74/74/74
f 80/80/80 81/81/81 74/74/74
f 78/78/78 79/79/79 81/81/81
f 75/75/75 79/79/79 82/82/82
f 79/79/79 77/77/77 82/82/82
f 80/80/80 73/73/73 83/83/83
f 76/76/76 84/84/84 77/77/77
f 81/81/81 80/80/80 83/83/83
f 84/84/84 82/82/82 77/77/77
f 85/85/85 86/86/86 73/73/73
f 79/79/79 74/74/74 81/81/81
f 81/81/81 83/83/83 87/87/87
f 86/86/86 87/87/87 83/83/83
f 86/86/86 83/83/83 73/73/73
f 79/79/79 75/75/75 74/74/74
g throne_hall123
s 1
f 88/88/88 89/89/89 90/90/90
f 91/91/91 90/90/90 92/92/92
f 92/92/92 93/93/93 91/91/91
f 94/94/94 95/95/95 96/96/96
f 97/97/97 98/98/98 99/99/99
f 99/99/99 100/100/100 97/97/97
f 101/101/101 102/102/102 103/103/103
f 103/103/103 104/104/104 101/101/101
f 104/104/104 103/103/103 105/105/105
f 105/105/105 106/106/106 104/104/104
f 106/106/106 105/105/105 107/107/107
f 107/107/107 108/108/108 106/106/106
f 96/96/96 109/109/109 94/94/94
f 110/110/110 111/111/111 112/112/112
f 113/113/113 114/114/114 115/115/115
f 99/99/99 98/98/98 116/116/116
f 115/115/115 110/110/110 113/113/113
f 117/117/117 118/118/118 119/119/119
f 116/116/116 120/120/120 99/99/99
f 121/121/121 122/122/122 123/123/123
f 90/90/90 91/91/91 88/88/88
f 124/124/124 125/125/125 126/126/126
f 127/127/127 128/128/128 129/129/129
f 129/129/129 124/124/124 127/127/127
f 112/112/112 113/113/113 110/110/110
f 109/109/109 123/123/123 122/122/122
f 122/122/122 94/94/94 109/109/109
f 99/99/99 130/130/130 131/131/131
f 132/132/132 118/118/118 133/133/133
f 131/131/131 100/100/100 99/99/99
f 120/120/120 134/134/134 130/130/130
f 130/130/130 99/99/99 120/120/120
f 123/123/123 135/135/135 121/121/121
f 133/133/133 129/129/129 132/132/132
f 118/118/118 117/117/117 136/136/136
f 136/136/136 133/133/133 118/118/118
f 137/137/137 138/138/138 139/139/139
f 139/139/139 140/140/140 137/137/137
f 141/141/141 142/142/142 143/143/143
f 143/143/143 144/144/144 141/141/141
f 145/145/145 146/146/146 119/119/119
f 119/119/119 147/147/147 145/145/145
f 146/146/146 148/148/148 149/149/149
f 149/149/149 119/119/119 146/146/146
f 111/111/111 121/121/121 134/134/134
f 134/134/134 112/112/112 111/111/111
f 150/150/150 98/98/98 97/97/97
f 97/97/97 151/151/151 150/150/150
f 152/152/152 116/116/116 98/98/98
f 98/98/98 150/150/150 152/152/152
f 153/153/153 154/154/154 89/89/89
f 89/89/89 88/88/88 153/153/153
f 140/140/140 139/139/139 155/155/155
f 155/155/155 126/126/126 140/140/140
f 144/144/144 143/143/143 128/128/128
f 128/128/128 127/127/127 144/144/144
f 147/147/147 119/119/119 118/118/118
f 118/118/118 132/132/132 147/147/147
f 119/119/119 149/149/149 117/117/117
f 126/126/126 155/155/155 124/124/124
