# Exported using wow.export v0.2.19
o 20736_Canal10c.obj
v 80.8606185913086 -114.15037536621094 -37.323997497558594
v 81.78138732910156 -114.59085845947266 -35.859291076660156
v 80.79556274414062 -113.70989227294922 -35.59513854980469
v 83.32515716552734 -119.51710510253906 -37.98436737060547
v 83.0451889038086 -120.09812927246094 -38.76506805419922
v 83.19308471679688 -120.67916107177734 -37.94898223876953
v 82.89729309082031 -119.51710510253906 -39.58115005493164
v 84.06462097167969 -122.4222412109375 -33.9039421081543
v 83.78465270996094 -123.00326538085938 -34.68463897705078
v 84.21251678466797 -123.00326538085938 -33.087860107421875
v 84.34458923339844 -121.84121704101562 -33.12324523925781
v 83.91673278808594 -121.84121704101562 -34.720027923583984
v 83.62094116210938 -120.67916107177734 -36.352195739746094
v 83.34097290039062 -121.26019287109375 -37.132896423339844
v 83.4888687133789 -121.84121704101562 -36.316810607910156
v 83.06100463867188 -121.84121704101562 -37.91358947753906
v 82.91311645507812 -121.26019287109375 -38.72967529296875
v 82.76522064208984 -120.67916107177734 -39.54576110839844
v 82.63314819335938 -121.84121704101562 -39.510372161865234
v 82.9289321899414 -123.00326538085938 -37.878204345703125
v 82.78103637695312 -122.4222412109375 -38.69429016113281
v 82.50106811523438 -123.00326538085938 -39.47498321533203
v 83.63676452636719 -122.4222412109375 -35.50072479248047
v 83.35679626464844 -123.00326538085938 -36.28142166137695
v 83.20890045166016 -122.4222412109375 -37.09750747680664
v 82.79685974121094 -124.16532135009766 -37.842811584472656
v 83.07682800292969 -123.58428955078125 -37.06211853027344
v 83.22471618652344 -124.16532135009766 -36.24603271484375
v 75.1428451538086 -120.67916107177734 -37.50335693359375
v 75.42280578613281 -121.26019287109375 -36.72265625
v 75.27491760253906 -121.84121704101562 -37.53874206542969
v 75.5707015991211 -120.67916107177734 -35.90657043457031
v 75.70277404785156 -121.84121704101562 -35.94195556640625
v 75.55488586425781 -122.4222412109375 -36.7580451965332
v 75.83484649658203 -123.00326538085938 -35.97734832763672
v 75.40699005126953 -123.00326538085938 -37.57413101196289
v 76.70639038085938 -121.26019287109375 -31.93230628967285
v 76.4264144897461 -120.67916107177734 -32.7130012512207
v 76.85427856445312 -120.67916107177734 -31.11621856689453
v 76.98635864257812 -121.84121704101562 -31.151611328125
v 76.5584945678711 -121.84121704101562 -32.748390197753906
v 76.6905746459961 -123.00326538085938 -32.783782958984375
v 76.83847045898438 -122.4222412109375 -31.967697143554688
v 77.11843872070312 -123.00326538085938 -31.18700408935547
v 83.93254852294922 -123.58428955078125 -33.868553161621094
v 84.0804443359375 -124.16532135009766 -33.05247116088867
v 83.65258026123047 -124.16532135009766 -34.649253845214844
v 83.50468444824219 -123.58428955078125 -35.465335845947266
v 82.64896392822266 -123.58428955078125 -38.658897399902344
v 82.3689956665039 -124.16532135009766 -39.43959426879883
v 76.97055053710938 -123.58428955078125 -32.003089904785156
v 77.25051879882812 -124.16532135009766 -31.222394943237305
v 76.8226547241211 -124.16532135009766 -32.819175720214844
v 75.68695068359375 -123.58428955078125 -36.793434143066406
v 75.5390625 -124.16532135009766 -37.609519958496094
v 75.96692657470703 -124.16532135009766 -36.01274108886719
v 84.0488052368164 -120.67916107177734 -34.75541687011719
v 84.19670104980469 -121.26019287109375 -33.9393310546875
v 84.47666931152344 -120.67916107177734 -33.15863037109375
v 83.75302124023438 -119.51710510253906 -36.3875846862793
v 83.47305297851562 -120.09812927246094 -37.16828155517578
v 75.29074096679688 -120.09812927246094 -36.68727111816406
v 75.01077270507812 -119.51710510253906 -37.46796798706055
v 75.43862915039062 -119.51710510253906 -35.871185302734375
v 76.57431030273438 -120.09812927246094 -31.896915435791016
v 76.72219848632812 -119.51710510253906 -31.080827713012695
v 76.29434204101562 -119.51710510253906 -32.6776123046875
v 83.90090942382812 -120.09812927246094 -35.571502685546875
v 84.18087768554688 -119.51710510253906 -34.790802001953125
v 84.32877349853516 -120.09812927246094 -33.97471618652344
v 84.6087417602539 -119.51710510253906 -33.19401931762695
v 75.53904724121094 -116.87742614746094 -37.60951614379883
v 75.8348388671875 -117.53734588623047 -35.97734832763672
v 75.55487060546875 -117.8673095703125 -36.75804138183594
v 75.5707015991211 -118.85718536376953 -35.90657043457031
v 75.27490997314453 -118.197265625 -37.53874206542969
v 75.29074096679688 -119.18714904785156 -36.68727111816406
v 76.4264144897461 -118.85718536376953 -32.7130012512207
v 76.69055938720703 -117.53734588623047 -32.783782958984375
v 76.83845520019531 -117.8673095703125 -31.967693328857422
v 77.25048828125 -116.87742614746094 -31.22238540649414
v 76.98634338378906 -118.197265625 -31.151607513427734
v 82.79685974121094 -116.87742614746094 -37.842811584472656
v 82.64896392822266 -117.20738220214844 -38.658897399902344
v 82.9289321899414 -117.53734588623047 -37.87820053100586
v 82.3689956665039 -116.87742614746094 -39.43959426879883
v 82.63314819335938 -118.197265625 -39.510372161865234
v 84.32877349853516 -119.18714904785156 -33.97471618652344
v 84.0488052368164 -118.85718536376953 -34.75541305541992
v 84.34458923339844 -118.197265625 -33.12324142456055
v 84.06462097167969 -117.8673095703125 -33.90393829345703
v 84.08042907714844 -116.87742614746094 -33.05246353149414
v 83.78465270996094 -117.53734588623047 -34.684635162353516
v 82.91311645507812 -118.5272216796875 -38.72967529296875
v 83.19308471679688 -118.85718536376953 -37.948978424072266
v 83.47305297851562 -119.18714904785156 -37.16828155517578
v 83.4888687133789 -118.197265625 -36.31680679321289
v 78.4285888671875 -113.48965454101562 -37.528053283691406
v 77.90316772460938 -114.15037536621094 -36.531551361083984
v 77.96820831298828 -113.70989227294922 -38.260406494140625
v 78.95401763916016 -112.82892608642578 -38.52455520629883
v 78.88897705078125 -113.2694091796875 -36.79570007324219
v 82.83036804199219 -116.59160614013672 -36.99607849121094
v 82.43601989746094 -116.3057861328125 -37.746124267578125
v 83.22471618652344 -116.87742614746094 -36.246028900146484
v 82.5030517578125 -115.73414611816406 -36.05265808105469
v 82.04167938232422 -116.01996612548828 -38.496177673339844
v 81.71436309814453 -115.16250610351562 -37.552757263183594
v 81.6473388671875 -115.73414611816406 -39.24622344970703
v 83.65257263183594 -116.87742614746094 -34.64924621582031
v 83.29174041748047 -116.3057861328125 -34.55255889892578
v 75.96690368652344 -116.87742614746094 -36.012733459472656
v 76.39476776123047 -116.87742614746094 -34.415950775146484
v 76.32774353027344 -116.3057861328125 -36.10942077636719
v 76.8226318359375 -116.87742614746094 -32.81916809082031
v 77.18346405029297 -116.3057861328125 -32.915855407714844
v 81.35353088378906 -114.59085845947266 -37.45607376098633
v 81.32002258300781 -114.87667846679688 -38.30280685424805
v 80.92567443847656 -114.59085845947266 -39.0528564453125
v 76.13063049316406 -121.84121704101562 -34.34517288208008
v 76.39479064941406 -124.16532135009766 -34.415958404541016
v 75.86648559570312 -119.51710510253906 -34.27439880371094
v 83.20890045166016 -117.8673095703125 -37.097503662109375
v 83.76883697509766 -118.5272216796875 -35.536109924316406
v 77.41026306152344 -114.59085845947266 -36.399478912353516
v 77.83811950683594 -114.59085845947266 -34.802696228027344
v 77.44377136230469 -114.87667846679688 -35.55274200439453
v 76.9823989868164 -114.59085845947266 -37.99626159667969
v 79.38188171386719 -112.82892608642578 -36.927772521972656
v 79.80973815917969 -112.82892608642578 -35.330989837646484
v 79.87478637695312 -113.2694091796875 -37.059844970703125
v 78.26597595214844 -114.59085845947266 -33.205909729003906
v 78.75888061523438 -114.15037536621094 -33.337982177734375
v 78.69383239746094 -114.59085845947266 -31.609127044677734
v 77.90513610839844 -115.16250610351562 -33.109222412109375
v 77.47727966308594 -115.16250610351562 -34.70600891113281
v 77.04942321777344 -115.16250610351562 -36.302791595458984
v 77.11643981933594 -115.73414611816406 -34.60932159423828
v 82.20924377441406 -114.59085845947266 -34.262508392333984
v 82.63710021972656 -114.59085845947266 -32.66572570800781
v 81.7163314819336 -114.15037536621094 -34.13043212890625
v 82.57007598876953 -115.16250610351562 -34.35919189453125
v 76.13063049316406 -118.197265625 -34.345176696777344
v 78.82392883300781 -113.70989227294922 -35.06684112548828
v 79.74468994140625 -113.2694091796875 -33.602134704589844
v 80.73051452636719 -113.2694091796875 -33.86627960205078
v 80.66545867919922 -112.82892608642578 -32.13742446899414
v 76.39479064941406 -124.16532135009766 -34.415958404541016
v 76.8226547241211 -124.16532135009766 -32.819175720214844
v 78.53013610839844 -124.16532135009766 -33.276695251464844
v 77.89032745361328 -124.16532135009766 -32.24954605102539
v 77.25051879882812 -124.16532135009766 -31.222394943237305
v 81.5172348022461 -124.16532135009766 -35.78851318359375
v 80.4495620727539 -124.16532135009766 -36.3581428527832
v 79.80975341796875 -124.16532135009766 -35.33099365234375
v 81.08937072753906 -124.16532135009766 -37.385292053222656
v 79.38188934326172 -124.16532135009766 -36.92777633666992
v 77.67440795898438 -124.16532135009766 -36.47025680541992
v 78.31421661376953 -124.16532135009766 -37.497406005859375
v 78.95402526855469 -124.16532135009766 -38.524559020996094
v 77.24654388427734 -124.16532135009766 -38.067039489746094
v 76.60673522949219 -124.16532135009766 -37.039886474609375
v 75.5390625 -124.16532135009766 -37.609519958496094
v 75.96692657470703 -124.16532135009766 -36.01274108886719
v 80.23761749267578 -124.16532135009766 -33.734214782714844
v 79.1699447631836 -124.16532135009766 -34.3038444519043
v 78.1022720336914 -124.16532135009766 -34.87347412109375
v 78.74208068847656 -124.16532135009766 -35.90062713623047
v 77.03459930419922 -124.16532135009766 -35.44310760498047
v 80.66151428222656 -124.16532135009766 -38.982078552246094
v 81.72918701171875 -124.16532135009766 -38.412445068359375
v 82.3689956665039 -124.16532135009766 -39.43959426879883
v 82.79685974121094 -124.16532135009766 -37.842811584472656
v 80.02169799804688 -124.16532135009766 -37.954925537109375
v 78.95800018310547 -124.16532135009766 -31.679912567138672
v 79.59780883789062 -124.16532135009766 -32.707061767578125
v 80.66548156738281 -124.16532135009766 -32.13743209838867
v 81.94509887695312 -124.16532135009766 -34.191734313964844
v 80.87742614746094 -124.16532135009766 -34.7613639831543
v 81.30529022216797 -124.16532135009766 -33.164581298828125
v 82.37296295166016 -124.16532135009766 -32.59495162963867
v 82.15704345703125 -124.16532135009766 -36.8156623840332
v 83.22471618652344 -124.16532135009766 -36.24603271484375
v 82.58490753173828 -124.16532135009766 -35.2188835144043
v 83.65258026123047 -124.16532135009766 -34.649253845214844
v 84.0804443359375 -124.16532135009766 -33.05247116088867
v 83.01277160644531 -124.16532135009766 -33.622100830078125
vn -0.5923548936843872 -0.8025184869766235 0.071271613240242
vn -0.7248716354370117 -0.660922110080719 0.1942758560180664
vn -0.3990590572357178 -0.9119176268577576 0.09569712728261948
vn -0.9850265979766846 -0.04353167489171028 0.1668158918619156
vn -0.9882339835166931 0.064971923828125 0.13846412301063538
vn -0.9643579125404358 0.17186209559440613 0.20118990540504456
vn -0.9963673949241638 -0.0429532565176487 0.0735325962305069
vn -0.7586630582809448 0.46162816882133484 0.4597063362598419
vn -0.722641110420227 0.5558289289474487 0.4109064042568207
vn -0.6721383333206177 0.5435929894447327 0.5027291178703308
vn -0.7851616144180298 0.36163264513015747 0.5027356147766113
vn -0.8325806856155396 0.37067267298698425 0.41159602999687195
vn -0.9404420256614685 0.1700686663389206 0.29435598850250244
vn -0.9251194596290588 0.27601444721221924 0.2607106864452362
vn -0.8711437582969666 0.3757699131965637 0.3160783350467682
vn -0.912571132183075 0.3781195878982544 0.1556904911994934
vn -0.9568415880203247 0.2738926112651825 0.09714392572641373
vn -0.985331654548645 0.167421355843544 0.0330413393676281
vn -0.9289520978927612 0.37009140849113464 -0.00897043664008379
vn -0.8142576813697815 0.5684231519699097 0.11781102418899536
vn -0.8791723847389221 0.4733315110206604 0.054892782121896744
vn -0.8298231959342957 0.5557302832603455 -0.050569403916597366
vn -0.8032906651496887 0.4695393145084381 0.36641085147857666
vn -0.7747657895088196 0.5731782913208008 0.2668417990207672
vn -0.8512195348739624 0.4768689274787903 0.2191377580165863
vn -0.673424482345581 0.7369950413703918 0.057772766798734665
vn -0.7329535484313965 0.6606261730194092 0.1623334437608719
vn -0.63912034034729 0.7415363788604736 0.20408090949058533
vn 0.870041012763977 0.16633430123329163 -0.46407073736190796
vn 0.8637107014656067 0.2732927203178406 -0.4234558939933777
vn 0.8002219200134277 0.36950811743736267 -0.4723438322544098
vn 0.9136580228805542 0.17279255390167236 -0.3679288923740387
vn 0.8447787165641785 0.37734758853912354 -0.3794178366661072
vn 0.7752485275268555 0.4707793891429901 -0.42113715410232544
vn 0.7398079633712769 0.5656943321228027 -0.3642444312572479
vn 0.6934144496917725 0.5556022524833679 -0.458783894777298
vn 0.9601470232009888 0.2702910304069519 -0.07113655656576157
vn 0.9675668478012085 0.17356279492378235 -0.1835492104291916
vn 0.9866657257080078 0.16199885308742523 -0.015718549489974976
vn 0.9315578937530518 0.36105990409851074 0.04284451901912689
vn 0.9185172319412231 0.3762623965740204 -0.12146101891994476
vn 0.8227077722549438 0.5643434524536133 -0.06832635402679443
vn 0.8844073414802551 0.46653908491134644 -0.012846584431827068
vn 0.8335128426551819 0.5434790253639221 0.0994328036904335
vn -0.6304798126220703 0.6332640647888184 0.4488561153411865
vn -0.5282748937606812 0.7006112933158875 0.47965556383132935
vn -0.5903697609901428 0.7293163537979126 0.3457760810852051
vn -0.6881656646728516 0.6556230783462524 0.31078362464904785
vn -0.7609982490539551 0.6486002206802368 0.014126269146800041
vn -0.6925069689750671 0.7157951593399048 -0.08984123170375824
vn 0.7678598761558533 0.6392400860786438 0.041992321610450745
vn 0.6970497369766235 0.7008482217788696 0.15143805742263794
vn 0.6838932037353516 0.7295688390731812 0.004415142349898815
vn 0.652131199836731 0.6457557678222656 -0.3971453309059143
vn 0.554555356502533 0.7160149216651917 -0.42401769757270813
vn 0.6118311285972595 0.7372389435768127 -0.28660324215888977
vn -0.907200276851654 0.1705094575881958 0.38459596037864685
vn -0.8531821966171265 0.2682725191116333 0.44733667373657227
vn -0.8621586561203003 0.163079172372818 0.47967466711997986
vn -0.9649873375892639 -0.04372567683458328 0.2586260735988617
vn -0.9707314968109131 0.06447061151266098 0.23135198652744293
vn 0.9125835299491882 0.0645519345998764 -0.40376266837120056
vn 0.8996443152427673 -0.044527944177389145 -0.434347003698349
vn 0.9364237189292908 -0.045125849545001984 -0.3479573428630829
vn 0.9894412159919739 0.06501030921936035 -0.12953631579875946
vn 0.9962964057922363 -0.044528987258672714 -0.07355712354183197
vn 0.9849637150764465 -0.04512637108564377 -0.16676367819309235
vn -0.9438061118125916 0.06391416490077972 0.3242607116699219
vn -0.9364265203475952 -0.043533556163311005 0.34815242886543274
vn -0.9088825583457947 0.06416339427232742 0.4120866656303406
vn -0.8995964527130127 -0.04295699670910835 0.43460434675216675
vn 0.8341584205627441 -0.37934911251068115 -0.4003423750400543
vn 0.8936259746551514 -0.30118879675865173 -0.3327430188655853
vn 0.8887501358985901 -0.25834861397743225 -0.37865450978279114
vn 0.9272627830505371 -0.1326741725206375 -0.3501160740852356
vn 0.8799272179603577 -0.21512305736541748 -0.42361560463905334
vn 0.9152432084083557 -0.0887746512889862 -0.3929999768733978
vn 0.9767296314239502 -0.13277804851531982 -0.16843156516551971
vn 0.9388225078582764 -0.3014014661312103 -0.16664178669452667
vn 0.958486795425415 -0.2584429085254669 -0.12045839428901672
vn 0.9225830435752869 -0.3793458044528961 -0.07026568055152893
vn 0.9738555550575256 -0.2151218056678772 -0.07299189269542694
vn -0.9111694693565369 -0.381607323884964 0.1553899049758911
vn -0.9332036375999451 -0.33909812569618225 0.118926502764225
vn -0.9393913149833679 -0.29948824644088745 0.16688527166843414
vn -0.9233695864677429 -0.3773829936981201 0.07050304859876633
vn -0.974245011806488 -0.2133159339427948 0.07309646904468536
vn -0.9152920246124268 -0.08712850511074066 0.3932546377182007
vn -0.9274111986160278 -0.13095957040786743 0.35036835074424744
vn -0.8802217245101929 -0.21331574022769928 0.42391759157180786
vn -0.8891595005989075 -0.25648239254951477 0.3789619207382202
vn -0.8348701596260071 -0.3773791491985321 0.4007202982902527
vn -0.8941536545753479 -0.29927217960357666 0.33305472135543823
vn -0.9774280190467834 -0.1729099303483963 0.12139485776424408
vn -0.976942241191864 -0.13106030225753784 0.16854389011859894
vn -0.9728986024856567 -0.087567038834095 0.21401037275791168
vn -0.9407456517219543 -0.21691738069057465 0.260661780834198
vn 0.2698858678340912 -0.9404268860816956 -0.20678241550922394
vn 0.5532224774360657 -0.8022958040237427 -0.22420163452625275
vn 0.3472215235233307 -0.8955472111701965 -0.2782667875289917
vn -0.04034848511219025 -0.9848319292068481 -0.16875459253787994
vn 0.1860988587141037 -0.9730344414710999 -0.13627609610557556
vn -0.8860270380973816 -0.420586496591568 0.19509786367416382
vn -0.8767993450164795 -0.45672935247421265 0.15040336549282074
vn -0.8922518491744995 -0.38301825523376465 0.2391311526298523
vn -0.817209780216217 -0.5292938351631165 0.22807039320468903
vn -0.8651493787765503 -0.4905162453651428 0.10445236414670944
vn -0.7919263243675232 -0.5951433181762695 0.13659034669399261
vn -0.8509352803230286 -0.5220967531204224 0.05765506625175476
vn -0.866756021976471 -0.3816053569316864 0.3211093842983246
vn -0.8315883278846741 -0.4563814699649811 0.3165070712566376
vn 0.8660082817077637 -0.3835916519165039 -0.3207603394985199
vn 0.8914793133735657 -0.38500872254371643 -0.23881563544273376
vn 0.8308176398277283 -0.4580557644367218 -0.31611204147338867
vn 0.910383939743042 -0.3835899531841278 -0.1551119089126587
vn 0.8759833574295044 -0.45839810371398926 -0.15008142590522766
vn -0.7426894307136536 -0.6589526534080505 0.11913719773292542
vn -0.7752951979637146 -0.6251408457756042 0.09008938819169998
vn -0.7560755610466003 -0.6530512571334839 0.043287649750709534
vn 0.8803113698959351 0.38115617632865906 -0.28243881464004517
vn 0.6552711725234985 0.7417911887168884 -0.14270761609077454
vn 0.9649472832679749 -0.04532591253519058 -0.25850000977516174
vn -0.9419087171554565 -0.25870826840400696 0.2141919881105423
vn -0.9359068274497986 -0.17427895963191986 0.306113064289093
vn 0.7020434737205505 -0.6597766876220703 -0.26801079511642456
vn 0.7241908311843872 -0.6617501974105835 -0.19399601221084595
vn 0.7388492226600647 -0.6296543478965759 -0.24007725715637207
vn 0.6757030487060547 -0.6538626551628113 -0.34042486548423767
vn -0.017929628491401672 -0.99619460105896 -0.08529316633939743
vn 0.004625449888408184 -0.9999886155128479 -0.001183722517453134
vn -0.225527822971344 -0.9735149145126343 -0.03749706223607063
vn 0.7420128583908081 -0.6597713232040405 -0.11882255226373672
vn 0.5935841202735901 -0.8015859127044678 -0.0715397372841835
vn 0.7554031610488892 -0.6538518667221069 -0.04293941333889961
vn 0.791176438331604 -0.5962260365486145 -0.13621419668197632
vn 0.7731889486312866 -0.59782475233078 -0.2116231620311737
vn 0.7505525946617126 -0.5958290100097656 -0.28575971722602844
vn 0.8164265751838684 -0.5306700468063354 -0.22767727077007294
vn -0.7027283906936646 -0.6589475870132446 0.26825523376464844
vn -0.6763917803764343 -0.6530411243438721 0.3406338691711426
vn -0.5519797801971436 -0.8032218217849731 0.22394876182079315
vn -0.751304566860199 -0.5947326421737671 0.2860669791698456
vn 0.9403905868530273 -0.2187470644712448 -0.2604137361049652
vn 0.4027811288833618 -0.9101795554161072 -0.09664686024188995
vn 0.2319824993610382 -0.9720612168312073 0.035792604088783264
vn -0.1796126365661621 -0.974476158618927 0.1346684843301773
vn 0.04945908486843109 -0.9848132729530334 0.16642305254936218
vn 0.6552711725234985 0.7417911887168884 -0.14270761609077454
vn 0.6838932037353516 0.7295688390731812 0.004415142349898815
vn 0.3787650167942047 0.919470489025116 0.10540873557329178
vn 0.5483728647232056 0.8259217143058777 0.13092198967933655
vn 0.6970497369766235 0.7008482217788696 0.15143805742263794
vn -0.3401401937007904 0.9310083389282227 0.13239417970180511
vn -0.188415065407753 0.98204505443573 0.009348939172923565
vn 0.003203669097274542 0.9990509748458862 0.04343956336379051
vn -0.37284213304519653 0.92755526304245 -0.02509852685034275
vn -0.04443493112921715 0.9877710938453674 -0.1494453251361847
vn 0.3026036322116852 0.930482804775238 -0.2064768522977829
vn 0.10849364101886749 0.9545941948890686 -0.2774508595466614
vn -0.0903138518333435 0.9373742341995239 -0.3364119827747345
vn 0.24717944860458374 0.8803259134292603 -0.4048810601234436
vn 0.4372349679470062 0.8398749828338623 -0.3216139078140259
vn 0.554555356502533 0.7160149216651917 -0.42401769757270813
vn 0.6118311285972595 0.7372389435768127 -0.28660324215888977
vn 0.057282738387584686 0.971447765827179 0.230234757065773
vn 0.19470010697841644 0.9779239892959595 0.07587213814258575
vn 0.353285551071167 0.9339982867240906 -0.053259387612342834
vn 0.15599164366722107 0.9842510223388672 -0.08316496759653091
vn 0.4890711307525635 0.8538286685943604 -0.1782863885164261
vn -0.41680294275283813 0.8802089095115662 -0.22695305943489075
vn -0.5430381894111633 0.837661623954773 -0.05858800560235977
vn -0.6925069689750671 0.7157951593399048 -0.08984123170375824
vn -0.673424482345581 0.7369950413703918 0.057772766798734665
vn -0.2368730902671814 0.95378577709198 -0.18488827347755432
vn 0.42811426520347595 0.8534736633300781 0.2971547842025757
vn 0.24913553893566132 0.9322919845581055 0.2622273862361908
vn 0.10915190726518631 0.9063671231269836 0.40814775228500366
vn -0.2831743359565735 0.9166389107704163 0.2821086049079895
vn -0.1426078826189041 0.9757896661758423 0.1658235639333725
vn -0.08892028778791428 0.9315018057823181 0.35270044207572937
vn -0.22256533801555634 0.8533478379249573 0.4714469015598297
vn -0.5162824988365173 0.8515363931655884 0.09131314605474472
vn -0.63912034034729 0.7415363788604736 0.20408090949058533
vn -0.47086796164512634 0.8465641140937805 0.24821899831295013
vn -0.5903697609901428 0.7293163537979126 0.3457760810852051
vn -0.5282748937606812 0.7006112933158875 0.47965556383132935
vn -0.413325697183609 0.8237743377685547 0.3880177438259125
vt -0.1823258399963379 1.1210034936666489
vt -0.13407102227210999 0.9974773824214935
vt -0.23058059811592102 0.9974773824214935
vt 0.26635482907295227 1.1210034936666489
vt 0.32841169834136963 1.1827665567398071
vt 0.3904685378074646 1.1210034936666489
vt 0.26635482907295227 1.2445296049118042
vt 0.5766390562057495 0.8121882081031799
vt 0.6386959552764893 0.8739512711763382
vt 0.6386959552764893 0.7504251599311829
vt 0.5145822167396545 0.7504251599311829
vt 0.5145822167396545 0.8739512711763382
vt 0.3904685378074646 0.9974773824214935
vt 0.45252537727355957 1.0592404380440712
vt 0.5145822167396545 0.9974773824214935
vt 0.5145822763442993 1.1210034936666489
vt 0.45252540707588196 1.1827665567398071
vt 0.3904685378074646 1.2445296049118042
vt 0.5145822763442993 1.2445296049118042
vt 0.6386959552764893 1.1210034936666489
vt 0.5766391158103943 1.1827665567398071
vt 0.638696014881134 1.2445296049118042
vt 0.5766390562057495 0.9357143267989159
vt 0.6386959552764893 0.9974773824214935
vt 0.5766390562057495 1.0592404380440712
vt 0.7628097534179688 1.1210034936666489
vt 0.700752854347229 1.0592404380440712
vt 0.762809693813324 0.9974773824214935
vt 0.3904685378074646 1.2445296049118042
vt 0.45252540707588196 1.1827665567398071
vt 0.5145822763442993 1.2445296049118042
vt 0.3904685378074646 1.1210034936666489
vt 0.5145822763442993 1.1210034936666489
vt 0.5766391754150391 1.1827665567398071
vt 0.638696014881134 1.1210034936666489
vt 0.638696014881134 1.2445296049118042
vt 0.45252537727355957 0.8121882081031799
vt 0.3904685378074646 0.8739512711763382
vt 0.3904685378074646 0.7504251599311829
vt 0.5145822167396545 0.7504251599311829
vt 0.5145822763442993 0.8739512711763382
vt 0.6386959552764893 0.8739512711763382
vt 0.5766390562057495 0.8121882081031799
vt 0.6386959552764893 0.7504251599311829
vt 0.7007527947425842 0.8121882081031799
vt 0.7628096342086792 0.7504251599311829
vt 0.7628096342086792 0.8739512711763382
vt 0.700752854347229 0.9357143267989159
vt 0.700752854347229 1.1827665567398071
vt 0.7628097534179688 1.2445296049118042
vt 0.7007527947425842 0.8121882081031799
vt 0.7628096342086792 0.7504251599311829
vt 0.7628096342086792 0.8739512711763382
vt 0.700752854347229 1.1827665567398071
vt 0.7628097534179688 1.2445296049118042
vt 0.7628097534179688 1.1210034936666489
vt 0.3904685378074646 0.8739512711763382
vt 0.45252537727355957 0.8121882081031799
vt 0.3904685378074646 0.7504251599311829
vt 0.26635482907295227 0.9974773824214935
vt 0.32841169834136963 1.0592404380440712
vt 0.32841169834136963 1.1827665567398071
vt 0.26635482907295227 1.2445296049118042
vt 0.26635482907295227 1.1210034936666489
vt 0.32841169834136963 0.8121882081031799
vt 0.26635482907295227 0.7504251599311829
vt 0.26635482907295227 0.8739512711763382
vt 0.32841169834136963 0.9357143267989159
vt 0.26635482907295227 0.8739512711763382
vt 0.32841169834136963 0.8121882081031799
vt 0.26635482907295227 0.7504251599311829
vt 0.053797073662281036 1.2445296049118042
vt 0.1069364994764328 1.1210034936666489
vt 0.13350623846054077 1.1827665567398071
vt 0.21321538090705872 1.1210034936666489
vt 0.16007594764232635 1.2445296049118042
vt 0.2397851049900055 1.1827665567398071
vt 0.21321538090705872 0.8739512711763382
vt 0.1069364845752716 0.8739512711763382
vt 0.13350620865821838 0.8121882081031799
vt 0.05379704385995865 0.7504251599311829
vt 0.16007593274116516 0.7504251599311829
vt 0.053796976804733276 1.1210034936666489
vt 0.08036671578884125 1.1827665567398071
vt 0.10693643987178802 1.1210034936666489
vt 0.05379698425531387 1.2445296049118042
vt 0.16007590293884277 1.2445296049118042
vt 0.2397851049900055 0.8121882081031799
vt 0.21321536600589752 0.8739512711763382
vt 0.16007588803768158 0.7504251599311829
vt 0.1335061639547348 0.8121882081031799
vt 0.053796954452991486 0.7504251599311829
vt 0.10693642497062683 0.8739512711763382
vt 0.18664562702178955 1.1827665567398071
vt 0.21321536600589752 1.1210034936666489
vt 0.2397851049900055 1.0592404380440712
vt 0.16007590293884277 0.9974773824214935
vt -0.2547079920768738 1.1827665567398071
vt -0.18232575058937073 1.1210034936666489
vt -0.23058056831359863 1.2445296049118042
vt -0.32709020376205444 1.2445296049118042
vt -0.27883538603782654 1.1210034936666489
vt 0.030313467606902122 1.0592404380440712
vt 0.0068299658596515656 1.1210034936666489
vt 0.05379696935415268 0.9974773824214935
vt -0.04013705253601074 0.9974773824214935
vt -0.01665353775024414 1.1827665567398071
vt -0.08710405975580215 1.1210034936666489
vt -0.04013703763484955 1.2445296049118042
vt 0.05379696190357208 0.8739512711763382
vt 0.006829950958490372 0.8739512711763382
vt 0.05379706621170044 1.1210034936666489
vt 0.05379705876111984 0.9974773824214935
vt 0.006830036640167236 1.1210034936666489
vt 0.053797051310539246 0.8739512711763382
vt 0.0068300217390060425 0.8739512711763382
vt -0.13407105207443237 1.1210034936666489
vt -0.11058756709098816 1.1827665567398071
vt -0.13407106697559357 1.2445296049118042
vt 0.5145822763442993 0.9974773824214935
vt 0.762809693813324 0.9974773824214935
vt 0.26635482907295227 0.9974773824214935
vt 0.133506178855896 1.0592404380440712
vt 0.18664562702178955 0.9357143267989159
vt -0.1340709775686264 1.1210034936666489
vt -0.1340710073709488 0.9974773824214935
vt -0.11058749258518219 1.0592404454946518
vt -0.13407094776630402 1.2445296049118042
vt -0.32709020376205444 1.1210034936666489
vt -0.32709020376205444 0.9974773824214935
vt -0.2788354158401489 1.1210034936666489
vt -0.13407103717327118 0.8739512711763382
vt -0.1823258101940155 0.8739512711763382
vt -0.13407106697559357 0.7504251599311829
vt -0.08710403740406036 0.8739512711763382
vt -0.08710400760173798 0.9974773824214935
vt -0.08710397779941559 1.1210034936666489
vt -0.040137000381946564 0.9974773824214935
vt -0.1340709924697876 0.8739512711763382
vt -0.1340709775686264 0.7504251599311829
vt -0.18232578039169312 0.8739512711763382
vt -0.08710401505231857 0.8739512711763382
vt 0.16007593274116516 0.9974773824214935
vt -0.23058056831359863 0.9974773824214935
vt -0.27883538603782654 0.8739512711763382
vt -0.2788354158401489 0.8739512711763382
vt -0.32709020376205444 0.7504251599311829
vt 0.49974745512008667 0.5599449872970581
vt 0.49974745512008667 0.792018711566925
vt 0.37465882301330566 0.7920190691947937
vt 0.43720313906669617 0.9080557525157928
vt 0.49974745512008667 1.024092435836792
vt 0.12448135018348694 0.5599461197853088
vt 0.18702590465545654 0.44390904903411865
vt 0.24957022070884705 0.5599457025527954
vt 0.12448158860206604 0.3278723359107971
vt 0.24957020580768585 0.32787197828292847
vt 0.37465882301330566 0.3278716206550598
vt 0.31211450695991516 0.21183490753173828
vt 0.24957019090652466 0.09579825401306152
vt 0.37465882301330566 0.09579789638519287
vt 0.43720313906669617 0.21183454990386963
vt 0.49974745512008667 0.09579753875732422
vt 0.49974745512008667 0.32787126302719116
vt 0.24956998229026794 0.7920194864273071
vt 0.31211453676223755 0.6759823858737946
vt 0.37465882301330566 0.5599453449249268
vt 0.31211453676223755 0.44390869140625
vt 0.43720313906669617 0.44390833377838135
vt 0.12448157370090485 0.09579861164093018
vt 0.06193727254867554 0.21183562278747559
vt -0.0006070416420698166 0.09579896926879883
vt -0.0006072800606489182 0.32787275314331055
vt 0.18702588975429535 0.21183526515960693
vt 0.37465858459472656 1.0240928530693054
vt 0.31211429834365845 0.9080561697483063
vt 0.24956974387168884 1.0240932703018188
vt 0.12448111176490784 0.7920199036598206
vt 0.18702566623687744 0.675982803106308
vt 0.18702542781829834 0.9080565869808197
vt 0.12448087334632874 1.0240936875343323
vt 0.061937034130096436 0.4439094066619873
vt -0.0006075184792280197 0.5599465370178223
vt 0.061936795711517334 0.6759832203388214
vt -0.0006077568978071213 0.792020320892334
vt -0.0006079953163862228 1.0240941047668457
vt 0.06193655729293823 0.9080570042133331
g Canal10c0
s 1
f 1/1/1 2/2/2 3/3/3
f 4/4/4 5/5/5 6/6/6
f 4/4/4 7/7/7 5/5/5
f 8/8/8 9/9/9 10/10/10
f 11/11/11 8/8/8 10/10/10
f 11/11/11 12/12/12 8/8/8
f 8/8/8 12/12/12 9/9/9
f 13/13/13 14/14/14 15/15/15
f 13/13/13 6/6/6 14/14/14
f 16/16/16 14/14/14 6/6/6
f 16/16/16 15/15/15 14/14/14
f 17/17/17 6/6/6 18/18/18
f 19/19/19 17/17/17 18/18/18
f 19/19/19 16/16/16 17/17/17
f 17/17/17 16/16/16 6/6/6
f 20/20/20 16/16/16 21/21/21
f 21/21/21 16/16/16 19/19/19
f 22/22/22 21/21/21 19/19/19
f 22/22/22 20/20/20 21/21/21
f 12/12/12 23/23/23 9/9/9
f 12/12/12 15/15/15 23/23/23
f 24/24/24 23/23/23 15/15/15
f 24/24/24 9/9/9 23/23/23
f 25/25/25 15/15/15 16/16/16
f 20/20/20 25/25/25 16/16/16
f 20/20/20 24/24/24 25/25/25
f 25/25/25 24/24/24 15/15/15
f 26/26/26 27/27/27 20/20/20
f 26/26/26 28/28/28 27/27/27
f 27/27/27 28/28/28 24/24/24
f 20/20/20 27/27/27 24/24/24
f 29/29/29 30/30/30 31/31/31
f 29/29/29 32/32/32 30/30/30
f 32/32/32 33/33/33 30/30/30
f 30/30/30 33/33/33 31/31/31
f 34/34/34 35/35/35 36/36/36
f 31/31/31 34/34/34 36/36/36
f 31/31/31 33/33/33 34/34/34
f 34/34/34 33/33/33 35/35/35
f 37/37/37 38/38/38 39/39/39
f 40/40/40 37/37/37 39/39/39
f 40/40/40 41/41/41 37/37/37
f 37/37/37 41/41/41 38/38/38
f 42/42/42 41/41/41 43/43/43
f 43/43/43 41/41/41 40/40/40
f 44/44/44 43/43/43 40/40/40
f 44/44/44 42/42/42 43/43/43
f 10/10/10 45/45/45 46/46/46
f 10/10/10 9/9/9 45/45/45
f 47/47/47 45/45/45 9/9/9
f 47/47/47 46/46/46 45/45/45
f 48/48/48 9/9/9 24/24/24
f 28/28/28 48/48/48 24/24/24
f 28/28/28 47/47/47 48/48/48
f 48/48/48 47/47/47 9/9/9
f 49/49/49 20/20/20 22/22/22
f 50/50/50 49/49/49 22/22/22
f 50/50/50 26/26/26 49/49/49
f 49/49/49 26/26/26 20/20/20
f 51/51/51 42/42/42 44/44/44
f 52/52/52 51/51/51 44/44/44
f 52/52/52 53/53/53 51/51/51
f 51/51/51 53/53/53 42/42/42
f 36/36/36 54/54/54 55/55/55
f 36/36/36 35/35/35 54/54/54
f 56/56/56 54/54/54 35/35/35
f 56/56/56 55/55/55 54/54/54
f 57/57/57 12/12/12 58/58/58
f 58/58/58 12/12/12 11/11/11
f 59/59/59 58/58/58 11/11/11
f 59/59/59 57/57/57 58/58/58
f 60/60/60 4/4/4 61/61/61
f 61/61/61 4/4/4 6/6/6
f 61/61/61 6/6/6 13/13/13
f 60/60/60 61/61/61 13/13/13
f 62/62/62 32/32/32 29/29/29
f 63/63/63 62/62/62 29/29/29
f 63/63/63 64/64/64 62/62/62
f 62/62/62 64/64/64 32/32/32
f 39/39/39 65/65/65 66/66/66
f 39/39/39 38/38/38 65/65/65
f 67/67/67 65/65/65 38/38/38
f 67/67/67 66/66/66 65/65/65
f 68/68/68 60/60/60 13/13/13
f 57/57/57 68/68/68 13/13/13
f 69/69/69 68/68/68 57/57/57
f 69/69/69 60/60/60 68/68/68
f 70/70/70 57/57/57 59/59/59
f 71/71/71 70/70/70 59/59/59
f 71/71/71 69/69/69 70/70/70
f 70/70/70 69/69/69 57/57/57
f 72/72/72 73/73/73 74/74/74
f 74/74/74 73/73/73 75/75/75
f 74/74/74 75/75/75 76/76/76
f 72/72/72 74/74/74 76/76/76
f 64/64/64 77/77/77 75/75/75
f 64/64/64 63/63/63 77/77/77
f 76/76/76 77/77/77 63/63/63
f 76/76/76 75/75/75 77/77/77
f 78/78/78 79/79/79 80/80/80
f 80/80/80 79/79/79 81/81/81
f 82/82/82 80/80/80 81/81/81
f 82/82/82 78/78/78 80/80/80
f 83/83/83 84/84/84 85/85/85
f 83/83/83 86/86/86 84/84/84
f 87/87/87 84/84/84 86/86/86
f 87/87/87 85/85/85 84/84/84
f 69/69/69 88/88/88 89/89/89
f 69/69/69 71/71/71 88/88/88
f 90/90/90 88/88/88 71/71/71
f 90/90/90 89/89/89 88/88/88
f 91/91/91 89/89/89 90/90/90
f 92/92/92 91/91/91 90/90/90
f 92/92/92 93/93/93 91/91/91
f 91/91/91 93/93/93 89/89/89
f 94/94/94 85/85/85 87/87/87
f 7/7/7 94/94/94 87/87/87
f 7/7/7 95/95/95 94/94/94
f 94/94/94 95/95/95 85/85/85
f 4/4/4 96/96/96 95/95/95
f 4/4/4 60/60/60 96/96/96
f 96/96/96 60/60/60 97/97/97
f 95/95/95 96/96/96 97/97/97
f 98/98/98 99/99/99 100/100/100
f 101/101/101 98/98/98 100/100/100
f 101/101/101 102/102/102 98/98/98
f 98/98/98 102/102/102 99/99/99
f 83/83/83 103/103/103 104/104/104
f 83/83/83 105/105/105 103/103/103
f 103/103/103 105/105/105 106/106/106
f 104/104/104 103/103/103 106/106/106
f 107/107/107 108/108/108 109/109/109
f 86/86/86 107/107/107 109/109/109
f 86/86/86 104/104/104 107/107/107
f 107/107/107 104/104/104 108/108/108
f 110/110/110 105/105/105 93/93/93
f 92/92/92 110/110/110 93/93/93
f 110/110/110 92/92/92 111/111/111
f 105/105/105 110/110/110 111/111/111
f 112/112/112 113/113/113 73/73/73
f 72/72/72 112/112/112 73/73/73
f 112/112/112 72/72/72 114/114/114
f 113/113/113 112/112/112 114/114/114
f 115/115/115 81/81/81 79/79/79
f 113/113/113 115/115/115 79/79/79
f 115/115/115 113/113/113 116/116/116
f 81/81/81 115/115/115 116/116/116
f 117/117/117 118/118/118 108/108/108
f 117/117/117 119/119/119 118/118/118
f 109/109/109 118/118/118 119/119/119
f 109/109/109 108/108/108 118/118/118
f 7/7/7 4/4/4 95/95/95
f 57/57/57 13/13/13 15/15/15
f 57/57/57 15/15/15 12/12/12
f 32/32/32 120/120/120 33/33/33
f 33/33/33 120/120/120 35/35/35
f 41/41/41 120/120/120 38/38/38
f 42/42/42 120/120/120 41/41/41
f 53/53/53 121/121/121 42/42/42
f 121/121/121 56/56/56 35/35/35
f 64/64/64 122/122/122 32/32/32
f 122/122/122 64/64/64 75/75/75
f 122/122/122 67/67/67 38/38/38
f 67/67/67 122/122/122 78/78/78
f 66/66/66 67/67/67 78/78/78
f 95/95/95 123/123/123 85/85/85
f 95/95/95 97/97/97 123/123/123
f 105/105/105 123/123/123 97/97/97
f 105/105/105 85/85/85 123/123/123
f 86/86/86 83/83/83 104/104/104
f 105/105/105 83/83/83 85/85/85
f 93/93/93 124/124/124 89/89/89
f 93/93/93 97/97/97 124/124/124
f 60/60/60 124/124/124 97/97/97
f 60/60/60 89/89/89 124/124/124
f 60/60/60 69/69/69 89/89/89
f 125/125/125 126/126/126 127/127/127
f 128/128/128 125/125/125 127/127/127
f 125/125/125 128/128/128 99/99/99
f 126/126/126 125/125/125 99/99/99
f 129/129/129 130/130/130 102/102/102
f 101/101/101 129/129/129 102/102/102
f 129/129/129 101/101/101 131/131/131
f 130/130/130 129/129/129 131/131/131
f 132/132/132 126/126/126 133/133/133
f 134/134/134 132/132/132 133/133/133
f 132/132/132 134/134/134 135/135/135
f 126/126/126 132/132/132 135/135/135
f 127/127/127 135/135/135 136/136/136
f 128/128/128 127/127/127 136/136/136
f 127/127/127 126/126/126 135/135/135
f 128/128/128 136/136/136 137/137/137
f 136/136/136 135/135/135 138/138/138
f 137/137/137 136/136/136 138/138/138
f 117/117/117 2/2/2 1/1/1
f 119/119/119 117/117/117 1/1/1
f 2/2/2 117/117/117 108/108/108
f 139/139/139 140/140/140 141/141/141
f 2/2/2 139/139/139 141/141/141
f 139/139/139 2/2/2 142/142/142
f 140/140/140 139/139/139 142/142/142
f 73/73/73 143/143/143 75/75/75
f 73/73/73 113/113/113 143/143/143
f 113/113/113 79/79/79 143/143/143
f 78/78/78 143/143/143 79/79/79
f 66/66/66 78/78/78 82/82/82
f 93/93/93 105/105/105 97/97/97
f 100/100/100 99/99/99 128/128/128
f 133/133/133 144/144/144 145/145/145
f 134/134/134 133/133/133 145/145/145
f 18/18/18 5/5/5 7/7/7
f 102/102/102 144/144/144 99/99/99
f 102/102/102 130/130/130 144/144/144
f 146/146/146 3/3/3 141/141/141
f 147/147/147 146/146/146 141/141/141
f 147/147/147 130/130/130 146/146/146
f 146/146/146 130/130/130 3/3/3
f 18/18/18 6/6/6 5/5/5
f 133/133/133 126/126/126 144/144/144
f 140/140/140 142/142/142 92/92/92
f 142/142/142 2/2/2 106/106/106
f 2/2/2 108/108/108 106/106/106
f 81/81/81 135/135/135 134/134/134
f 128/128/128 137/137/137 72/72/72
f 147/147/147 141/141/141 140/140/140
f 2/2/2 141/141/141 3/3/3
f 119/119/119 131/131/131 101/101/101
f 130/130/130 131/131/131 3/3/3
f 134/134/134 145/145/145 147/147/147
f 130/130/130 147/147/147 145/145/145
f 130/130/130 145/145/145 144/144/144
f 126/126/126 99/99/99 144/144/144
f 78/78/78 122/122/122 143/143/143
f 122/122/122 75/75/75 143/143/143
f 42/42/42 121/121/121 120/120/120
f 121/121/121 35/35/35 120/120/120
f 122/122/122 38/38/38 120/120/120
f 32/32/32 122/122/122 120/120/120
f 116/116/116 113/113/113 138/138/138
f 81/81/81 116/116/116 135/135/135
f 116/116/116 138/138/138 135/135/135
f 113/113/113 114/114/114 138/138/138
f 137/137/137 138/138/138 114/114/114
f 137/137/137 114/114/114 72/72/72
f 142/142/142 106/106/106 111/111/111
f 142/142/142 111/111/111 92/92/92
f 105/105/105 111/111/111 106/106/106
f 104/104/104 106/106/106 108/108/108
f 119/119/119 1/1/1 131/131/131
f 1/1/1 3/3/3 131/131/131
g Canal10c1
s 1
f 148/148/148 149/149/149 150/150/150
f 149/149/149 151/151/151 150/150/150
f 149/149/149 152/152/152 151/151/151
f 153/153/153 154/154/154 155/155/155
f 153/153/153 156/156/156 154/154/154
f 157/157/157 154/154/154 156/156/156
f 157/157/157 155/155/155 154/154/154
f 158/158/158 157/157/157 159/159/159
f 159/159/159 157/157/157 160/160/160
f 161/161/161 159/159/159 160/160/160
f 161/161/161 158/158/158 159/159/159
f 162/162/162 158/158/158 161/161/161
f 163/163/163 162/162/162 161/161/161
f 163/163/163 164/164/164 162/162/162
f 162/162/162 164/164/164 158/158/158
f 165/165/165 166/166/166 150/150/150
f 165/165/165 155/155/155 166/166/166
f 167/167/167 166/166/166 155/155/155
f 167/167/167 150/150/150 166/166/166
f 168/168/168 155/155/155 157/157/157
f 158/158/158 168/168/168 157/157/157
f 158/158/158 167/167/167 168/168/168
f 168/168/168 167/167/167 155/155/155
f 164/164/164 169/169/169 158/158/158
f 164/164/164 148/148/148 169/169/169
f 169/169/169 148/148/148 167/167/167
f 158/158/158 169/169/169 167/167/167
f 170/170/170 171/171/171 172/172/172
f 173/173/173 171/171/171 156/156/156
f 173/173/173 172/172/172 171/171/171
f 160/160/160 157/157/157 174/174/174
f 174/174/174 157/157/157 156/156/156
f 174/174/174 156/156/156 170/170/170
f 160/160/160 174/174/174 170/170/170
f 148/148/148 150/150/150 167/167/167
f 175/175/175 150/150/150 151/151/151
f 175/175/175 151/151/151 152/152/152
f 170/170/170 156/156/156 171/171/171
f 176/176/176 165/165/165 150/150/150
f 177/177/177 165/165/165 176/176/176
f 177/177/177 176/176/176 175/175/175
f 176/176/176 150/150/150 175/175/175
f 178/178/178 179/179/179 165/165/165
f 179/179/179 155/155/155 165/165/165
f 179/179/179 153/153/153 155/155/155
f 178/178/178 153/153/153 179/179/179
f 180/180/180 165/165/165 177/177/177
f 178/178/178 165/165/165 180/180/180
f 181/181/181 178/178/178 180/180/180
f 181/181/181 180/180/180 177/177/177
f 182/182/182 173/173/173 156/156/156
f 183/183/183 173/173/173 182/182/182
f 183/183/183 182/182/182 153/153/153
f 182/182/182 156/156/156 153/153/153
f 178/178/178 184/184/184 153/153/153
f 184/184/184 183/183/183 153/153/153
f 185/185/185 183/183/183 184/184/184
f 186/186/186 187/187/187 181/181/181
f 186/186/186 185/185/185 187/187/187
f 187/187/187 185/185/185 178/178/178
f 185/185/185 184/184/184 178/178/178
f 187/187/187 178/178/178 181/181/181
