# Exported using wow.export v0.2.19
o 20736_DistRt01.5.obj
v -28.13492202758789 -105.62669372558594 -101.98834228515625
v -29.40966796875 -105.62779235839844 -99.59709930419922
v -26.381757736206055 -105.62779235839844 -99.59709930419922
v -29.286741256713867 -105.62669372558594 -103.08589935302734
v -31.713308334350586 -105.62779235839844 -101.7922134399414
v -31.71330451965332 -105.62779235839844 -104.82012939453125
v -26.86017417907715 -105.6255874633789 -104.37958526611328
v -29.286739349365234 -105.62669372558594 -104.599853515625
v -26.6209659576416 -105.62669372558594 -101.98834228515625
v -26.86017417907715 -104.70267486572266 -104.37958526611328
v -26.6209659576416 -105.16523742675781 -101.98834228515625
v -26.6209659576416 -104.70378112792969 -101.98834228515625
v -31.71329689025879 -104.70487213134766 -105.11255645751953
v -31.71329689025879 -104.70487213134766 -104.82012939453125
v -29.159767150878906 -104.70377349853516 -104.8735122680664
v -26.381757736206055 -104.70487976074219 -99.59710693359375
v -26.089332580566406 -104.70487213134766 -99.59710693359375
v -26.6209659576416 -104.70378112792969 -101.98834228515625
v -26.86017417907715 -105.6255874633789 -104.37958526611328
v -29.286739349365234 -105.16523742675781 -104.599853515625
v -29.286739349365234 -105.62669372558594 -104.599853515625
v -31.71330451965332 -105.62779235839844 -104.82012939453125
v -29.70209503173828 -104.70487213134766 -99.59711456298828
v -29.40966796875 -104.70487213134766 -99.59710693359375
v -31.713300704956055 -104.70487213134766 -101.49979400634766
v -31.713300704956055 -104.70487213134766 -101.7922134399414
v -29.40966796875 -105.62779235839844 -99.59709930419922
v -31.713300704956055 -104.70487213134766 -101.7922134399414
v -31.713308334350586 -105.62779235839844 -101.7922134399414
v -26.606239318847656 -104.70267486572266 -104.63446807861328
v -26.381757736206055 -105.62779235839844 -99.59709930419922
v -26.86017417907715 -104.70267486572266 -104.37958526611328
v -26.6209659576416 -105.62669372558594 -101.98834228515625
v -26.86017417907715 -104.70267486572266 -104.37958526611328
v -29.28673553466797 -104.70377349853516 -104.599853515625
v -31.71329689025879 -104.70487213134766 -104.82012939453125
v -29.28673553466797 -104.70377349853516 -104.599853515625
v -26.86017417907715 -105.6255874633789 -104.37958526611328
v -26.34778594970703 -104.70377349853516 -102.11578369140625
v -26.86017417907715 -104.70267486572266 -104.37958526611328
v -26.606239318847656 -104.70267486572266 -104.63446807861328
v -29.01591682434082 -101.90070343017578 -105.18354797363281
v -31.71329116821289 -101.90180969238281 -105.44385528564453
v -26.48006820678711 -102.03848266601562 -104.76110076904297
v -25.944684982299805 -102.59624481201172 -99.59646606445312
v -26.48006820678711 -102.59403228759766 -104.76110076904297
v -25.758026123046875 -102.73513793945312 -99.59710693359375
v -30.03338623046875 -102.73514556884766 -99.59712982177734
v -31.71329689025879 -102.73513793945312 -101.16848754882812
v -29.846736907958984 -102.59625244140625 -99.59647369384766
v -31.71394920349121 -102.59624481201172 -101.35514068603516
v -31.71329689025879 -101.90180206298828 -101.16848754882812
v -30.03338623046875 -101.90180969238281 -99.59712982177734
v -31.713945388793945 -102.04068756103516 -101.35514068603516
v -29.846736907958984 -102.04069519042969 -99.59648132324219
v -29.846736907958984 -102.59625244140625 -99.59647369384766
v -31.71394920349121 -102.59624481201172 -101.35514068603516
v -29.846736907958984 -102.04069519042969 -99.59648132324219
v -31.713945388793945 -102.04068756103516 -101.35514068603516
v -31.71393585205078 -102.04068756103516 -105.25719451904297
v -25.758026123046875 -101.90180969238281 -99.59710693359375
v -26.038284301757812 -101.90070343017578 -102.26016998291016
v -25.944684982299805 -102.04068756103516 -99.59646606445312
v -32.079376220703125 -105.552978515625 -102.24124145507812
v -31.713308334350586 -105.62779235839844 -101.7922134399414
v -32.07939910888672 -105.55305480957031 -104.3912124633789
v -31.71330451965332 -105.62779235839844 -104.82012939453125
v -26.48006820678711 -102.59403228759766 -104.76110076904297
v -31.713937759399414 -102.59624481201172 -105.25719451904297
v -26.31854248046875 -102.7329330444336 -104.92323303222656
v -26.31854248046875 -101.89959716796875 -104.92323303222656
v -26.038284301757812 -102.73403930664062 -102.26016998291016
v -26.31854248046875 -101.89959716796875 -104.92323303222656
v -26.48006820678711 -102.59403228759766 -104.76110076904297
v -26.21237564086914 -102.31736755371094 -102.17878723144531
v -26.48006820678711 -102.03848266601562 -104.76110076904297
v -25.944684982299805 -102.59624481201172 -99.59646606445312
v -25.944684982299805 -102.04068756103516 -99.59646606445312
v -26.48006820678711 -102.03848266601562 -104.76110076904297
v -29.097002029418945 -102.3173599243164 -105.00914764404297
v -26.48006820678711 -102.59403228759766 -104.76110076904297
v -31.71393585205078 -102.04068756103516 -105.25719451904297
v -31.713937759399414 -102.59624481201172 -105.25719451904297
v -31.71329116821289 -102.73513793945312 -105.44385528564453
v -29.01591682434082 -102.73403930664062 -105.18354797363281
v -26.31854248046875 -102.7329330444336 -104.92323303222656
v -26.48006820678711 -102.03848266601562 -104.76110076904297
v -31.713308334350586 -103.67552185058594 -105.04131317138672
v -32.07939147949219 -103.52134704589844 -104.62657165527344
v -31.71329689025879 -104.70487213134766 -104.82012939453125
v -31.713300704956055 -104.70487213134766 -101.7922134399414
v -32.079376220703125 -105.552978515625 -102.24124145507812
v -32.07936477661133 -103.52135467529297 -102.00501251220703
v -31.713308334350586 -103.67234802246094 -101.56682586669922
v -31.713308334350586 -105.62779235839844 -101.7922134399414
v -32.07939910888672 -105.55305480957031 -104.3912124633789
v -31.71330451965332 -105.62779235839844 -104.82012939453125
v -32.07936096191406 -102.21980285644531 -102.17632293701172
v -31.713308334350586 -102.24208068847656 -101.79910278320312
v -31.713308334350586 -101.15059661865234 -102.4219970703125
v -32.07936096191406 -101.36397552490234 -102.65650939941406
v -32.07936477661133 -100.85030364990234 -103.3157958984375
v -31.713308334350586 -100.50260925292969 -103.3040542602539
v -31.713308334350586 -101.1518325805664 -104.18603515625
v -32.07937240600586 -101.36397552490234 -103.97506713867188
v -32.079383850097656 -102.2220458984375 -104.45684051513672
v -31.713308334350586 -102.2421646118164 -104.81122589111328
v -31.713308334350586 -100.50260925292969 -103.3040542602539
v -31.71331024169922 -99.75901794433594 -102.36689758300781
v -31.71331214904785 -100.0715103149414 -101.45167541503906
v -31.71394920349121 -102.59624481201172 -101.35514068603516
v -31.71329689025879 -102.73513793945312 -101.16848754882812
v -31.713308334350586 -103.67234802246094 -101.56682586669922
v -31.713300704956055 -104.70487213134766 -101.49979400634766
v -31.71329689025879 -101.90180206298828 -101.16848754882812
v -31.713945388793945 -102.04068756103516 -101.35514068603516
v -31.713937759399414 -102.59624481201172 -105.25719451904297
v -31.713308334350586 -102.2421646118164 -104.81122589111328
v -31.713308334350586 -103.67552185058594 -105.04131317138672
v -31.71329116821289 -102.73513793945312 -105.44385528564453
v -31.71329116821289 -101.90180969238281 -105.44385528564453
v -31.71330451965332 -100.07151794433594 -105.11258697509766
v -31.71393585205078 -102.04068756103516 -105.25719451904297
v -31.713306427001953 -99.75901794433594 -104.19735717773438
v -31.713308334350586 -99.44651794433594 -103.2821273803711
v -27.893598556518555 -100.50260925292969 -99.5971450805664
v -29.70212745666504 -100.0715103149414 -99.59710693359375
v -28.78689956665039 -99.75901794433594 -99.59710693359375
v -26.388641357421875 -102.24208068847656 -99.59712982177734
v -27.011539459228516 -101.15059661865234 -99.5971450805664
v -25.944684982299805 -102.04068756103516 -99.59646606445312
v -26.041215896606445 -100.0715103149414 -99.59709930419922
v -25.944684982299805 -102.59624481201172 -99.59646606445312
v -25.758026123046875 -102.73513793945312 -99.59710693359375
v -26.156368255615234 -103.67234802246094 -99.59712219238281
v -29.846736907958984 -102.04069519042969 -99.59648132324219
v -28.775577545166016 -101.1518325805664 -99.5971450805664
v -29.400766372680664 -102.2421646118164 -99.59712982177734
v -29.70209503173828 -104.70487213134766 -99.59711456298828
v -30.03338623046875 -102.73514556884766 -99.59712982177734
v -29.630855560302734 -103.67552185058594 -99.59712982177734
v -29.846736907958984 -102.59625244140625 -99.59647369384766
v -29.40966796875 -104.70487213134766 -99.59710693359375
v -26.381757736206055 -104.70487976074219 -99.59710693359375
v -26.089332580566406 -104.70487213134766 -99.59710693359375
v -25.758026123046875 -101.90180969238281 -99.59710693359375
v -31.713308334350586 -102.24208068847656 -101.79910278320312
v -31.71329689025879 -104.70487213134766 -104.82012939453125
v -31.71329689025879 -104.70487213134766 -105.11255645751953
v -31.713308334350586 -101.1518325805664 -104.18603515625
v -31.713308334350586 -101.15059661865234 -102.4219970703125
v -26.956443786621094 -99.75901794433594 -99.59710693359375
v -27.871671676635742 -99.44651794433594 -99.59710693359375
v -30.03338623046875 -101.90180969238281 -99.59712982177734
v -31.713300704956055 -104.70487213134766 -101.7922134399414
v -28.153980255126953 -99.4443130493164 -103.08096313476562
v -27.218063354492188 -99.7579116821289 -102.13675689697266
v -28.01282501220703 -99.44541931152344 -101.33903503417969
v -29.933643341064453 -99.44541931152344 -103.18154907226562
v -29.933643341064453 -99.75791931152344 -104.09677124023438
v -28.153980255126953 -99.4443130493164 -103.08096313476562
v -31.713308334350586 -99.44651794433594 -103.2821273803711
v -26.31854248046875 -101.89959716796875 -104.92323303222656
v -26.564455032348633 -100.06930541992188 -104.67640686035156
v -27.728708267211914 -101.44258117675781 -104.99168395996094
v -25.758026123046875 -101.90180969238281 -99.59710693359375
v -26.041215896606445 -100.0715103149414 -99.59709930419922
v -25.968952178955078 -101.44367980957031 -100.92863464355469
v -31.71330451965332 -100.07151794433594 -105.11258697509766
v -31.71329116821289 -101.90180969238281 -105.44385528564453
v -30.426082611083984 -101.44367980957031 -105.25199890136719
v -29.138874053955078 -100.98555755615234 -105.06013488769531
v -29.138879776000977 -100.0704116821289 -104.89450073242188
v -27.851667404174805 -100.06985473632812 -104.78545379638672
v -26.564455032348633 -100.06930541992188 -104.67640686035156
v -26.31854248046875 -101.89959716796875 -104.92323303222656
v -26.249210357666016 -101.44257354736328 -103.5916976928711
v -26.17987823486328 -100.98554992675781 -102.26016235351562
v -26.891258239746094 -99.91360473632812 -103.40658569335938
v -26.30283546447754 -100.07040405273438 -102.13674926757812
v -26.564455032348633 -100.06930541992188 -104.67640686035156
v -30.707719802856445 -100.0715103149414 -100.5243911743164
v -30.873348236083984 -100.98666381835938 -100.52439880371094
v -31.71331214904785 -100.0715103149414 -101.45167541503906
v -29.70212745666504 -100.0715103149414 -99.59710693359375
v -30.707719802856445 -100.0715103149414 -100.5243911743164
v -30.707717895507812 -99.75901794433594 -101.43962097167969
v -29.70212745666504 -100.0715103149414 -99.59710693359375
v -26.956443786621094 -99.75901794433594 -99.59710693359375
v -27.871671676635742 -99.44651794433594 -99.59710693359375
v -27.54486846923828 -99.60221862792969 -100.86692810058594
v -26.629638671875 -99.91471099853516 -100.86692810058594
v -30.426090240478516 -100.52853393554688 -105.08636474609375
v -29.138879776000977 -100.0704116821289 -104.89450073242188
v -28.64643096923828 -99.75736236572266 -103.98773193359375
v -30.42609214782715 -100.07096862792969 -105.0035400390625
v -31.71330451965332 -100.07151794433594 -105.11258697509766
v -30.42609214782715 -100.07096862792969 -105.0035400390625
v -30.752899169921875 -99.44651794433594 -102.36087036132812
v -31.713308334350586 -99.44651794433594 -103.2821273803711
v -29.792490005493164 -99.44651794433594 -101.43962097167969
v -29.792490005493164 -99.44651794433594 -101.43962097167969
v -30.752899169921875 -99.44651794433594 -102.36087036132812
v -29.933643341064453 -99.44541931152344 -103.18154907226562
v -31.713308334350586 -99.44651794433594 -103.2821273803711
v -27.871671676635742 -99.44651794433594 -99.59710693359375
v -28.78689956665039 -99.75901794433594 -99.59710693359375
v -28.832080841064453 -99.44651794433594 -100.51836395263672
v -27.871671676635742 -99.44651794433594 -99.59710693359375
v -28.832080841064453 -99.44651794433594 -100.51836395263672
v -28.01282501220703 -99.44541931152344 -101.33903503417969
v -29.289695739746094 -99.60276794433594 -100.51836395263672
v -28.973236083984375 -99.44541931152344 -102.26029205322266
v -28.153980255126953 -99.4443130493164 -103.08096313476562
v -27.851665496826172 -100.52743530273438 -104.86827087402344
v -29.01591682434082 -101.90070343017578 -105.18354797363281
v -26.110546112060547 -100.52853393554688 -100.92863464355469
v -26.30283546447754 -100.07040405273438 -102.13674926757812
v -26.038284301757812 -101.90070343017578 -102.26016998291016
v -27.35921859741211 -99.75680541992188 -103.8786849975586
v -27.35921859741211 -99.75680541992188 -103.8786849975586
v -26.37216567993164 -100.52742767333984 -103.4682846069336
v -30.03338623046875 -101.90180969238281 -99.59712982177734
v -31.71329689025879 -101.90180206298828 -101.16848754882812
v -31.71331024169922 -99.75901794433594 -102.36689758300781
v -31.713306427001953 -99.75901794433594 -104.19735717773438
v -26.606239318847656 -104.70267486572266 -104.63446807861328
v -26.34778594970703 -104.70377349853516 -102.11578369140625
v -26.203937530517578 -103.71890258789062 -102.26016998291016
v -26.31854248046875 -102.7329330444336 -104.92323303222656
v -29.159767150878906 -104.70377349853516 -104.8735122680664
v -26.606239318847656 -104.70267486572266 -104.63446807861328
v -29.159765243530273 -103.71890258789062 -105.0391616821289
v -31.71329689025879 -104.70487213134766 -105.11255645751953
v -29.01591682434082 -102.73403930664062 -105.18354797363281
v -31.71329116821289 -102.73513793945312 -105.44385528564453
v -25.758026123046875 -102.73513793945312 -99.59710693359375
v -26.089332580566406 -104.70487213134766 -99.59710693359375
v -26.31854248046875 -102.7329330444336 -104.92323303222656
v -26.038284301757812 -102.73403930664062 -102.26016998291016
v -29.70209503173828 -104.70487213134766 -99.59711456298828
v -31.713300704956055 -104.70487213134766 -101.49979400634766
v -30.03338623046875 -102.73514556884766 -99.59712982177734
v -31.71329689025879 -102.73513793945312 -101.16848754882812
vn 0.1557430475950241 0.9655066132545471 -0.20866519212722778
vn 0.30099907517433167 0.8641951084136963 -0.40319526195526123
vn -0.6008206605911255 0.7311054468154907 -0.323263555765152
vn -0.00029121601255610585 0.9999999403953552 0.00030561431776732206
vn -0.00029121601255610585 0.9999999403953552 0.00030561431776732206
vn -0.000454149441793561 0.9999998807907104 -5.085842857965872e-10
vn -0.00029121601255610585 0.9999999403953552 0.00030561431776732206
vn -0.00037268278538249433 1 0.00015280692605301738
vn -0.3230494558811188 0.9303303956985474 -0.17356400191783905
vn -0.9950337409973145 0 0.09953829646110535
vn -0.9225214719772339 0.23513349890708923 -0.3060497045516968
vn -0.9225214719772339 0.23513349890708923 -0.3060497045516968
vn -0.0004315687401685864 0.9999998807907104 0
vn -0.0004315687401685864 0.9999998807907104 0
vn -0.0004315687983762473 1 0
vn -0.6423980593681335 0.4173508286476135 -0.6427620649337769
vn 0.0003981631889473647 0.9999998211860657 0.00039668267709203064
vn -0.38138145208358765 0.8419802784919739 -0.381598562002182
vn -0.090403713285923 0 0.9959052205085754
vn -0.09040383994579315 6.642945322710148e-7 0.9959052801132202
vn -0.09040378034114838 3.321472661355074e-7 0.9959052801132202
vn -0.09040383249521255 6.642944754275959e-7 0.9959051609039307
vn 0 1 0
vn 0.32709571719169617 0.47415730357170105 -0.8174247741699219
vn 0 1 0
vn 0 1 0
vn 0.30099907517433167 0.8641951084136963 -0.40319526195526123
vn 0.6898472905158997 -0.000005319677256920841 -0.7239549160003662
vn 0.6898473501205444 -0.0000050690528041741345 -0.7239548563957214
vn -0.0004315687401685864 0.9999998807907104 0
vn -0.6008206605911255 0.7311054468154907 -0.323263555765152
vn 0.0003981631889473647 0.9999998211860657 0.00039668267709203064
vn -0.9018401503562927 0.4131581485271454 -0.12643034756183624
vn -0.0004164841666352004 0.9999998211860657 -0.0004149355227127671
vn -0.0004240264534018934 0.9999998807907104 -0.00020746776135638356
vn -0.09040383249521255 6.642944754275959e-7 0.9959051609039307
vn -0.09040383994579315 6.642945322710148e-7 0.9959052801132202
vn -0.9950337409973145 0 0.09953829646110535
vn 0.0003981632471550256 0.9999999403953552 0.00039668273529969156
vn -0.09040383249521255 6.642944754275959e-7 0.9959051609039307
vn 0.0003981631889473647 0.9999998211860657 0.00039668267709203064
vn -0.05822340026497841 0.7939385175704956 0.6052038073539734
vn -0.05681581050157547 0.8010866641998291 0.5958456993103027
vn -0.05681581050157547 0.8010866641998291 0.5958456993103027
vn -0.5956918597221375 -0.800862193107605 0.061408549547195435
vn -0.5956918597221375 -0.800862193107605 0.061408549547195435
vn -0.5956918597221375 -0.800862193107605 0.061408549547195435
vn 0.5040807127952576 -0.674893856048584 -0.5389071702957153
vn 0.49088364839553833 -0.6981410980224609 -0.5211834907531738
vn 0.49088364839553833 -0.6981410980224609 -0.5211834907531738
vn 0.49088364839553833 -0.6981410980224609 -0.5211834907531738
vn 0.4883055090904236 0.6993110775947571 -0.5220361948013306
vn 0.5050749182701111 0.6762685775756836 -0.5362463593482971
vn 0.5050749182701111 0.6762685775756836 -0.5362463593482971
vn 0.5050749182701111 0.6762685775756836 -0.5362463593482971
vn 0.6856316924095154 -0.000008886091563908849 -0.7279486060142517
vn 0.6856309771537781 -0.000004184759291092632 -0.727949321269989
vn 0.6856309771537781 -0.000004184759291092632 -0.727949321269989
vn 0.6856309771537781 -0.000004184759291092632 -0.727949321269989
vn -0.05681581050157547 0.8010866641998291 0.5958456993103027
vn -0.5956098437309265 0.8007984757423401 0.06301382184028625
vn -0.6043347120285034 0.7942000031471252 0.06345140188932419
vn -0.6129871010780334 0.7875062227249146 0.06388135999441147
vn 0.3335975706577301 0.7426837682723999 -0.5806319713592529
vn 0.2002788484096527 0.9797389507293701 -0.00003431022560107522
vn 0.3122246563434601 0.7453832626342773 0.5889987945556641
vn 0.2000434845685959 0.9797869920730591 2.2402088006856502e-7
vn -0.05801202729344368 -0.7859684228897095 0.6155389547348022
vn -0.05801202729344368 -0.7859684228897095 0.6155389547348022
vn -0.05801202729344368 -0.7859684228897095 0.6155389547348022
vn -0.6129871010780334 0.7875062227249146 0.06388135999441147
vn -0.6043028831481934 -0.7942764759063721 0.06279250979423523
vn -0.05962280556559563 0.786678671836853 0.6144767999649048
vn -0.7039917707443237 0 0.7102081179618835
vn -0.9019449949264526 0 0.4318510890007019
vn -0.7039917707443237 0 0.7102081179618835
vn -0.9946698546409607 0 0.10311074554920197
vn -0.9946698546409607 0 0.10311074554920197
vn -0.7039917707443237 0 0.7102081179618835
vn -0.4239051640033722 0 0.905706524848938
vn -0.7039917707443237 0 0.7102081179618835
vn -0.09436239302158356 0 0.9955379366874695
vn -0.09436232596635818 5.75941953684378e-7 0.9955379366874695
vn -0.057175617665052414 -0.8010573983192444 0.5958506464958191
vn -0.057598259299993515 -0.7935740351676941 0.6057414412498474
vn -0.612841784954071 -0.7875959277153015 0.06416897475719452
vn -0.6129871010780334 0.7875062227249146 0.06388135999441147
vn 0.7345173954963684 0.00993630662560463 0.6785171031951904
vn 0.3847402036190033 0.0201105996966362 0.9228057861328125
vn 0.7346553206443787 0.07374466955661774 0.6744207143783569
vn 0.751612663269043 0.07240639626979828 -0.6556185483932495
vn 0.3335975706577301 0.7426837682723999 -0.5806319713592529
vn 0.419121652841568 0.019668204709887505 -0.9077170491218567
vn 0.7531245350837708 0.010002462193369865 -0.6578019261360168
vn 0.7750694751739502 -0.0000057032707445614506 -0.6318760514259338
vn 0.3122246563434601 0.7453832626342773 0.5889987945556641
vn 0.7606292366981506 -0.0000055891637202876154 0.6491864919662476
vn 0.3810868561267853 -0.2995792031288147 -0.874657154083252
vn 0.6888633370399475 -0.24328134953975677 -0.6828480958938599
vn 0.6398493051528931 -0.5130977630615234 -0.5721219778060913
vn 0.36052778363227844 -0.6083117723464966 -0.7070901393890381
vn 0.3819699287414551 -0.924168050289154 0.0035143874119967222
vn 0.6885793805122375 -0.7251415848731995 0.005304743070155382
vn 0.6317808628082275 -0.5074095726013184 0.5859935283660889
vn 0.32624590396881104 -0.6174187064170837 0.7157917022705078
vn 0.34607750177383423 -0.3034946024417877 0.8877620100975037
vn 0.6601468324661255 -0.2554931938648224 0.7063493728637695
vn 1 0.0000018923113884738996 0.0000013901392321713502
vn 1 -0.00015261766384355724 0.00017236941494047642
vn 0.9999998807907104 -0.00030519708525389433 0.0003428993804845959
vn 0.9999989867210388 -0.000006103509349486558 0.001438670908100903
vn 0.9999958276748657 0.0011180060682818294 -0.002655967138707638
vn 0.9999985694885254 0.00026931852335110307 0.0016583888791501522
vn 1 0.000006568058324774029 0
vn 0.9999950528144836 -0.0004747735511045903 -0.0031164134852588177
vn 0.9999991655349731 0.0006509392405860126 0.0011406212579458952
vn 0.9999989867210388 -0.000006103509349486558 -0.0014093647478148341
vn 0.9999991655349731 0.0006405977183021605 -0.0011172032682225108
vn 1 0.000005997728749207454 0.00005612953827949241
vn 1 0.000005997728749207454 0.00005612953827949241
vn 0.999995231628418 -0.00054402113892138 0.0030467421747744083
vn 1 -3.874474430176633e-8 0.0000018656780866876943
vn 0.9999998807907104 -0.00029527253354899585 -0.0003406131872907281
vn 1 -3.847208773777311e-8 0.0000018525488485465758
vn 1 -3.8199431173779885e-8 0.0000018394196104054572
vn 0.0028881721664220095 -0.3945891857147217 -0.9188531041145325
vn 0 0 -1
vn 0.000001839417677729216 -3.819053162601449e-8 -1
vn -0.37102559208869934 -0.1320534199476242 -0.9191854596138
vn -0.3153773844242096 -0.2830468416213989 -0.9057712554931641
vn 0.001152755576185882 0.000657864089589566 -0.9999991059303284
vn 0.0003480292216408998 -0.0003066675562877208 -0.9999998807907104
vn 0.0014511777553707361 0 -0.999998927116394
vn -0.002622229279950261 0.001114520477131009 -0.9999959468841553
vn -0.35051876306533813 0.0054865023121237755 -0.9365396499633789
vn -0.0003402857400942594 -0.0002918500395026058 -0.9999998807907104
vn 0.32419300079345703 -0.28104203939437866 -0.903279721736908
vn 0.387144535779953 -0.13990527391433716 -0.9113427400588989
vn 0.00005675779902958311 0.0000026602783691487275 -1
vn 0.00005675779902958311 0.0000026602783691487275 -1
vn 0.36432603001594543 0.005335967056453228 -0.9312561750411987
vn -0.0014045187272131443 -0.000012207019608467817 -0.9999989867210388
vn 0.32709571719169617 0.47415730357170105 -0.8174247741699219
vn -0.6423980593681335 0.4173508286476135 -0.6427620649337769
vn 0 0 -1
vn -0.0030976675916463137 -0.00047557655489072204 -0.9999951124191284
vn 0.9999991655349731 0.0006509392405860126 0.0011406212579458952
vn 1 0.000009882463928079233 0
vn 1 0.000005997728749207454 0.00005612953827949241
vn 0.9999998807907104 -0.00029527253354899585 -0.0003406131872907281
vn 0.9999991655349731 0.0006509392405860126 0.0011406212579458952
vn 0.0001758540456648916 -0.00015337197692133486 -1
vn 0.000003678835355458432 -7.638106325202898e-8 -1
vn 0.003049309831112623 -0.0005407672724686563 -0.999995231628418
vn 1 0.000006568058324774029 0
vn -0.18995937705039978 -0.9635828733444214 0.18821142613887787
vn -0.2686750888824463 -0.9454063177108765 0.18444675207138062
vn -0.10138728469610214 -0.9946903586387634 0.017659049481153488
vn -0.02388274483382702 -0.9947511553764343 0.09949727356433868
vn -0.1348574459552765 -0.8531367778778076 0.5039553642272949
vn -0.18995937705039978 -0.9635828733444214 0.18821142613887787
vn 0.1430637687444687 -0.9896875619888306 0.007159136235713959
vn -0.690833330154419 -0.19076138734817505 0.6973947286605835
vn -0.4790708124637604 -0.7292150259017944 0.4886067509651184
vn -0.520035982131958 -0.3479843735694885 0.7800445556640625
vn -0.9829457998275757 -0.15208514034748077 0.10338116437196732
vn -0.7629939317703247 -0.6414859294891357 0.07959947735071182
vn -0.9115002155303955 -0.3103695809841156 0.26988527178764343
vn -0.06425651907920837 -0.6446408033370972 0.7617803812026978
vn -0.0949770137667656 -0.14556415379047394 0.984779417514801
vn -0.2114812582731247 -0.32269755005836487 0.9225736260414124
vn -0.31766119599342346 -0.484077125787735 0.8153286576271057
vn -0.28071707487106323 -0.7098203301429749 0.6460286378860474
vn -0.38299447298049927 -0.7253900766372681 0.5719479322433472
vn -0.4790708124637604 -0.7292150259017944 0.4886067509651184
vn -0.690833330154419 -0.19076138734817505 0.6973947286605835
vn -0.7536559104919434 -0.32705754041671753 0.5701195001602173
vn -0.7872951626777649 -0.4506892263889313 0.4207678735256195
vn -0.38275641202926636 -0.8572057485580444 0.3445228636264801
vn -0.6418785452842712 -0.7083556056022644 0.293639600276947
vn -0.4790708124637604 -0.7292150259017944 0.4886067509651184
vn 0.5505899786949158 -0.5864301919937134 -0.5940961837768555
vn 0.6366375684738159 -0.360108882188797 -0.6819194555282593
vn 0.5530236959457397 -0.5844927430152893 -0.5937449336051941
vn 0.5481508374214172 -0.5883619785308838 -0.5944415926933289
vn 0.5505899786949158 -0.5864301919937134 -0.5940961837768555
vn 0.3797585368156433 -0.8669922947883606 -0.32265743613243103
vn 0.5481508374214172 -0.5883619785308838 -0.5944415926933289
vn -0.4277530312538147 -0.9029660820960999 -0.040983591228723526
vn -0.00897254515439272 -0.9880982041358948 -0.15356262028217316
vn -0.14212235808372498 -0.9897228479385376 0.01580897718667984
vn -0.5398310422897339 -0.8303571343421936 0.13816480338573456
vn -0.19321481883525848 -0.5710262060165405 0.7978704571723938
vn -0.28071707487106323 -0.7098203301429749 0.6460286378860474
vn -0.24410749971866608 -0.8678791522979736 0.4326629638671875
vn -0.17389455437660217 -0.6827578544616699 0.7096494436264038
vn -0.06425651907920837 -0.6446408033370972 0.7617803812026978
vn -0.17389455437660217 -0.6827578544616699 0.7096494436264038
vn 0.10542359203100204 -0.9938696622848511 -0.03329845890402794
vn 0.1430637687444687 -0.9896875619888306 0.007159136235713959
vn 0.06745964288711548 -0.9949995875358582 -0.07365378737449646
vn 0.0006580003537237644 -0.9999996423721313 -0.0006859661662019789
vn 0.0006580003537237644 -0.9999995827674866 -0.000685966107994318
vn 0.0006580003537237644 -0.9999996423721313 -0.0006859661662019789
vn 0.0006580002955161035 -0.9999995231628418 -0.000685966107994318
vn -0.00897254515439272 -0.9880982041358948 -0.15356262028217316
vn 0.29522639513015747 -0.8631886839866638 -0.409568727016449
vn 0.02928852289915085 -0.9930738210678101 -0.11378292739391327
vn 0.0006580002955161035 -0.9999995231628418 -0.000685966107994318
vn 0.0006580003537237644 -0.9999995827674866 -0.000685966107994318
vn 0.0006580003537237644 -0.9999996423721313 -0.0006859661662019789
vn 0.185617133975029 -0.9509921669960022 -0.24730584025382996
vn 0.0006580003537237644 -0.9999995827674866 -0.000685966107994318
vn 0.0006580002955161035 -0.9999995231628418 -0.000685966107994318
vn -0.4083332121372223 -0.6218245029449463 0.6682800650596619
vn -0.4164597988128662 -0.17824409902095795 0.8915101885795593
vn -0.7904486060142517 -0.5568692088127136 0.25512316823005676
vn -0.6418785452842712 -0.7083556056022644 0.293639600276947
vn -0.8870609998703003 -0.18170006573200226 0.42439115047454834
vn -0.3445110321044922 -0.8716909289360046 0.3485213816165924
vn -0.3445110321044922 -0.8716909289360046 0.3485213816165924
vn -0.6476902961730957 -0.6034688949584961 0.46510493755340576
vn 0.6787974238395691 -0.11227685213088989 -0.7256913781166077
vn 0.6787974238395691 -0.11227685213088989 -0.7256913781166077
vn 0.3827972114086151 -0.8656840920448303 -0.3225792944431305
vn 0.04359045997262001 -0.9039919972419739 0.4253216087818146
vn -0.9822342991828918 0.15824922919273376 0.1008608266711235
vn -0.9822344183921814 0.15824924409389496 0.1008608415722847
vn -0.9822344183921814 0.15824924409389496 0.1008608415722847
vn -0.9822342991828918 0.15824922919273376 0.1008608266711235
vn -0.09199634939432144 0.1651613861322403 0.9819666147232056
vn -0.09199634939432144 0.1651613861322403 0.9819666147232056
vn -0.09199634939432144 0.1651613861322403 0.9819666147232056
vn -0.09199634939432144 0.1651613861322403 0.9819666147232056
vn -0.09345757216215134 0.1615583747625351 0.9824280142784119
vn -0.09199634939432144 0.1651613861322403 0.9819666147232056
vn -0.9808729290962219 0.16498051583766937 0.10329442471265793
vn -0.9822342991828918 0.15824922919273376 0.1008608266711235
vn -0.09491734206676483 0.15795285999774933 0.9828741550445557
vn -0.9815601706504822 0.16161593794822693 0.10207830369472504
vn 0.6826897859573364 0.1148175299167633 -0.7216311693191528
vn 0.6826897859573364 0.1148175299167633 -0.7216311693191528
vn 0.6826897859573364 0.1148175299167633 -0.7216311693191528
vn 0.6780213117599487 0.1219186782836914 -0.724860668182373
vt 0.5421321392059326 0.3289989233016968
vt 0.9995014667510986 0.5678554773330688
vt 0.9995013475418091 0.0004991292953491211
vt 0.3322042226791382 0.5448211431503296
vt 0.5796457529067993 0.9994999170303345
vt 0.0005004405975341797 0.9995000958442688
vt 0.08476272225379944 0.09014236927032471
vt 0.04263158142566681 0.5448212325572968
vt 0.5421320199966431 0.045320749282836914
vt 0 0
vt -0.09510749578475952 1
vt 0 1
vt 0.057545896619558334 0
vt 0 0
vt 0.057545896619558334 1
vt 0 2
vt 0.057545896619558334 2
vt 0 1
vt -0.19021499156951904 2
vt -0.09510749578475952 1
vt -0.19021499156951904 1
vt -0.19021499156951904 0
vt 0.057545896619558334 0.061299681663513184
vt 0 0
vt 0.057545896619558334 0.9370094537734985
vt 0 0.9983091354370117
vt -0.19021499156951904 0
vt 0 0.9983091354370117
vt -0.19021499156951904 0.9983091354370117
vt 0.057545896619558334 2
vt -0.19021499156951904 2
vt 0 0
vt -0.19021499156951904 1
vt 0 2
vt 0 1
vt 0 0
vt 0 1
vt -0.19021499156951904 0
vt 0.057545896619558334 1
vt 0 2
vt 0.057545896619558334 0
vt -0.33053016662597656 0.796809732913971
vt -0.33059385418891907 1.2962572574615479
vt -0.2750460207462311 0.2972564101219177
vt -0.053364016115665436 0.2972564101219177
vt -0.05349143594503403 1.2961515188217163
vt 0.0020565262529999018 0.29736220836639404
vt 0.0019291092175990343 0.9631559252738953
vt 0.0020565262529999018 0.29736220836639404
vt -0.05349143594503403 0.9630500674247742
vt -0.053364016115665436 0.2972564101219177
vt -0.33046650886535645 0.29736220836639404
vt -0.33059385418891907 0.9631558060646057
vt -0.2750460207462311 0.2972564101219177
vt -0.2751733362674713 0.9630500674247742
vt -0.05349143594503403 0.9630500674247742
vt -0.053364016115665436 0.2972564101219177
vt -0.2751733362674713 0.9630500674247742
vt -0.2750460207462311 0.2972564101219177
vt -0.2751733362674713 1.2961515188217163
vt -0.33046650886535645 0.29736220836639404
vt -0.33053016662597656 0.796809732913971
vt -0.2750460207462311 0.2972564101219177
vt -0.32805436849594116 1.3444205522537231
vt -0.03547453507781029 1.503393530845642
vt -0.32226860523223877 0.7070806622505188
vt -0.027326639741659164 0.5574594736099243
vt -0.053364016115665436 0.2972564101219177
vt -0.05349143594503403 1.2961515188217163
vt 0.0020565262529999018 0.29736220836639404
vt -0.33059385418891907 1.2962572574615479
vt 0.001992817735299468 0.7968097925186157
vt -0.33046650886535645 0.29736220836639404
vt -0.05349143594503403 1.2961515188217163
vt -0.16426867246627808 0.796703964471817
vt -0.2751733362674713 1.2961515188217163
vt -0.053364016115665436 0.2972564101219177
vt -0.2750460207462311 0.2972564101219177
vt -0.2750460207462311 0.2972564101219177
vt -0.16426867246627808 0.796703964471817
vt -0.053364016115665436 0.2972564101219177
vt -0.2751733362674713 1.2961515188217163
vt -0.05349143594503403 1.2961515188217163
vt 0.0019291092175990343 1.2962573766708374
vt 0.001992817735299468 0.7968097925186157
vt 0.0019291092175990343 1.2962573766708374
vt -0.2751733362674713 1.2961515188217163
vt 0.5002730488777161 0.33117830753326416
vt 0.2920289933681488 0.33117830753326416
vt 0.5002730488777161 0.03308570384979248
vt 0.5002730488777161 0.034652113914489746
vt 0.2920289933681488 0.0014636516571044922
vt 0.2920289933681488 0.33117830753326416
vt 0.5002730488777161 0.33117830753326416
vt 0.5002730488777161 0.0014636516571044922
vt 0.2920289933681488 0.0014636516571044922
vt 0.5002730488777161 0.0014636516571044922
vt 0.2920289933681488 0.549548864364624
vt 0.5002730488777161 0.549548864364624
vt 0.5002730488777161 0.8090291023254395
vt 0.2920289933681488 0.8090291023254395
vt 0.2920289933681488 0.9935119152069092
vt 0.4725477695465088 0.9935119152069092
vt 0.5002730488777161 0.8090291023254395
vt 0.2920289933681488 0.8090291023254395
vt 0.2920289933681488 0.549548864364624
vt 0.5002730488777161 0.549548864364624
vt 0.5003989934921265 1.336104393005371
vt 0.7423628568649292 1.6186164617538452
vt 0.9853495955467224 1.499890685081482
vt 0.9732404351234436 0.5406707525253296
vt 1.0185273885726929 0.4879034161567688
vt 0.9513862133026123 0.13182836771011353
vt 1.0257995128631592 -0.26045823097229004
vt 1.0185272693634033 0.8045095801353455
vt 0.9732402563095093 0.7517425417900085
vt 0.026532305404543877 0.540666401386261
vt 0.14189712703227997 0.6751962304115295
vt 0.049405939877033234 0.13062256574630737
vt -0.018753092736005783 0.4879000782966614
vt -0.018752895295619965 0.8045076131820679
vt 0.026088668033480644 1.499889612197876
vt 0.0265331007540226 0.7517392635345459
vt 0.2627324163913727 1.6186159253120422
vt 0.49937617778778076 1.7373422384262085
vt 0.5003989934921265 1.336104393005371
vt 0.026088668033480644 1.499889612197876
vt 0.2627324163913727 1.6186159253120422
vt 0.8583648204803467 0.6752288937568665
vt 0.7144036889076233 1.089915156364441
vt 0.9732402563095093 0.7517425417900085
vt 0.9853495955467224 1.499890685081482
vt 0.9732404351234436 0.5406707525253296
vt 1.0185273885726929 0.4879034161567688
vt 0.9513862133026123 0.13182836771011353
vt 0.0265331007540226 0.7517392635345459
vt 0.2864152789115906 1.0894438028335571
vt 0.14189712703227997 0.6751962304115295
vt -0.026027396321296692 -0.26045918464660645
vt -0.018753092736005783 0.4879000782966614
vt 0.049405939877033234 0.13062256574630737
vt 0.026532305404543877 0.540666401386261
vt 0.05911025032401085 -0.26045989990234375
vt 0.9406619071960449 -0.26045918464660645
vt 1.0257995128631592 -0.26045823097229004
vt 1.0185272693634033 0.8045095801353455
vt 0.8583648204803467 0.6752288937568665
vt 0.05911025032401085 -0.26045989990234375
vt -0.026027396321296692 -0.26045918464660645
vt 0.2864152789115906 1.0894438028335571
vt 0.7144036889076233 1.089915156364441
vt 0.7423628568649292 1.6186164617538452
vt 0.49937617778778076 1.7373422384262085
vt -0.018752895295619965 0.8045076131820679
vt 0.9406619071960449 -0.26045918464660645
vt 0 1.5920339822769165
vt 0.49764835834503174 1.3477694392204285
vt 0.5 1.5920339822769165
vt 0.5 1.5920339822769165
vt 0.49764832854270935 1.3477694392204285
vt 1 1.5920339822769165
vt 0 1.5920339822769165
vt 1 0.5645447969436646
vt 1 1.105989694595337
vt 0.75 0.6999060213565826
vt 1 0.5645447969436646
vt 1 1.105989694595337
vt 0.75 0.6999060213565826
vt 0 1.1061352491378784
vt 0 0.5645447969436646
vt 0.25 0.6999060213565826
vt 0.5 0.8352672457695007
vt 0.5 1.1060624718666077
vt 0.7488241195678711 1.1053684949874878
vt 0 1.1061352491378784
vt 0 0.5645447969436646
vt 0.25 0.6999060213565826
vt 0.5 0.8352672457695007
vt 0.2464725226163864 1.2256371676921844
vt 0.49764832854270935 1.1047472953796387
vt -0.004703303799033165 1.1035048961639404
vt 0.5 1.1060624718666077
vt 0.5 0.8352672457695007
vt 1 1.105989694595337
vt 0 1.1061352491378784
vt 0.49764832854270935 1.1047472953796387
vt 0.6276483535766602 1.3477694392204285
vt -0.004703303799033165 1.1035048961639404
vt 1 1.3490118384361267
vt 1 1.5920339822769165
vt 0.7488241791725159 1.4699017107486725
vt 0.7488241791725159 1.2268795669078827
vt 0.25 0.9707012474536896
vt 0.49764832854270935 1.1047472953796387
vt 0.7488241195678711 1.3483906388282776
vt 0.2464725226163864 1.1041260957717896
vt -0.004703303799033165 1.1035048961639404
vt 0.25 1.106098860502243
vt 0.8799999952316284 1.5920339822769165
vt 1.2599999904632568 1.5920339822769165
vt 0.5 1.5920339822769165
vt 0.5131922364234924 0.5766074657440186
vt 0.13173598051071167 0.5766074955463409
vt 0.1291724145412445 0.24865317344665527
vt -0.2497202455997467 0.5766075253486633
vt -0.25999999046325684 1.5920339822769165
vt -0.13235165178775787 1.3477694392204285
vt 0.12000000476837158 1.5920339822769165
vt 1.2761046886444092 0.5766074061393738
vt 0.8946484327316284 0.5766074359416962
vt 0.8920848369598389 0.24865317344665527
vt 0.18382418155670166 1.4699017107486725
vt 0.5106286406517029 0.24865317344665527
vt 0.5080650448799133 -0.07930111885070801
vt 0.75 0.9706284701824188
vt 0.5 0.5645447969436646
vt 0.75 0.9706284701824188
vt 0.5 1.1060624718666077
vt 0.5 0.5645447969436646
vt 1 1.3490118384361267
vt -0.0023516518995165825 1.3477694392204285
vt 0.25 0.9707012474536896
vt 0 0.5645447969436646
vt 1 0.5645447969436646
vt 1.1299999952316284 1.3490118384361267
vt -0.0023516518995165825 1.3477694392204285
vt -0.013984506949782372 -0.00483095645904541
vt 1.0024152994155884 -0.00483095645904541
vt 1.0024152994155884 0.28624385595321655
vt -0.013984506949782372 0.5773186683654785
vt 1.0024152994155884 -0.00483095645904541
vt 2.018815279006958 -0.00483095645904541
vt 1.0024152994155884 0.28624385595321655
vt -0.013984506949782372 -0.00483095645904541
vt 1.002415418624878 0.5776096880435944
vt -0.013984506949782372 0.5773186683654785
vt 2.018815279006958 0.5779007077217102
vt 2.018815279006958 -0.00483095645904541
vt 2.018815279006958 0.5779007077217102
vt 1.002415418624878 0.5776096880435944
vt -0.013984506949782372 -0.00483095645904541
vt 1 -0.00483095645904541
vt -0.013984506949782372 0.5773186683654785
vt 1 0.5779007077217102
g DistRt01.50
s 1
f 1/1/1 2/2/2 3/3/3
f 2/2/2 1/1/1 4/4/4
f 2/2/2 4/4/4 5/5/5
f 6/6/6 5/5/5 4/4/4
f 1/1/1 7/7/7 4/4/4
f 8/8/8 4/4/4 7/7/7
f 6/6/6 4/4/4 8/8/8
f 9/9/9 1/1/1 3/3/3
f 7/7/7 1/1/1 9/9/9
g DistRt01.51
s 1
f 10/10/10 11/11/11 12/12/12
f 13/13/13 14/14/14 15/15/15
f 16/16/16 17/17/17 18/18/18
f 19/19/19 20/20/20 21/21/21
f 21/21/21 20/20/20 22/22/22
f 23/23/23 24/24/24 25/25/25
f 26/26/26 25/25/25 24/24/24
f 24/24/24 27/27/27 28/28/28
f 29/29/29 28/28/28 27/27/27
f 15/15/15 14/14/14 30/30/30
f 31/31/31 16/16/16 11/11/11
f 18/18/18 17/17/17 32/32/32
f 31/31/31 11/11/11 33/33/33
f 34/34/34 30/30/30 35/35/35
f 35/35/35 30/30/30 14/14/14
f 36/36/36 20/20/20 37/37/37
f 10/10/10 38/38/38 11/11/11
f 39/39/39 32/32/32 17/17/17
f 19/19/19 40/40/40 20/20/20
f 41/41/41 32/32/32 39/39/39
f 36/36/36 22/22/22 20/20/20
f 33/33/33 11/11/11 38/38/38
f 37/37/37 20/20/20 40/40/40
f 12/12/12 11/11/11 16/16/16
g DistRt01.52
s 1
f 42/42/42 43/43/43 44/44/44
f 45/45/45 46/46/46 47/47/47
f 48/48/48 49/49/49 50/50/50
f 51/51/51 50/50/50 49/49/49
f 52/52/52 53/53/53 54/54/54
f 55/55/55 54/54/54 53/53/53
f 56/56/56 57/57/57 58/58/58
f 59/59/59 58/58/58 57/57/57
f 60/60/60 44/44/44 43/43/43
f 61/61/61 62/62/62 63/63/63
f 64/64/64 65/65/65 66/66/66
f 67/67/67 66/66/66 65/65/65
f 68/68/68 69/69/69 70/70/70
f 62/62/62 71/71/71 63/63/63
f 72/72/72 47/47/47 46/46/46
f 73/73/73 42/42/42 44/44/44
f 74/74/74 75/75/75 76/76/76
f 74/74/74 77/77/77 75/75/75
f 78/78/78 75/75/75 77/77/77
f 78/78/78 76/76/76 75/75/75
f 79/79/79 80/80/80 81/81/81
f 79/79/79 82/82/82 80/80/80
f 83/83/83 80/80/80 82/82/82
f 83/83/83 81/81/81 80/80/80
f 84/84/84 85/85/85 69/69/69
f 85/85/85 70/70/70 69/69/69
f 86/86/86 72/72/72 46/46/46
f 87/87/87 63/63/63 71/71/71
g DistRt01.53
s 1
f 88/88/88 89/89/89 90/90/90
f 91/91/91 92/92/92 93/93/93
f 94/94/94 91/91/91 93/93/93
f 92/92/92 91/91/91 95/95/95
f 90/90/90 96/96/96 97/97/97
f 96/96/96 90/90/90 89/89/89
f 93/93/93 98/98/98 94/94/94
f 99/99/99 94/94/94 98/98/98
f 100/100/100 99/99/99 101/101/101
f 98/98/98 101/101/101 99/99/99
f 101/101/101 102/102/102 100/100/100
f 103/103/103 100/100/100 102/102/102
f 103/103/103 102/102/102 104/104/104
f 105/105/105 104/104/104 102/102/102
f 106/106/106 107/107/107 105/105/105
f 104/104/104 105/105/105 107/107/107
f 89/89/89 88/88/88 106/106/106
f 107/107/107 106/106/106 88/88/88
g DistRt01.54
s 1
f 108/108/108 109/109/109 110/110/110
f 111/111/111 112/112/112 113/113/113
f 112/112/112 114/114/114 113/113/113
f 110/110/110 115/115/115 116/116/116
f 117/117/117 118/118/118 119/119/119
f 120/120/120 117/117/117 119/119/119
f 121/121/121 122/122/122 123/123/123
f 108/108/108 124/124/124 125/125/125
f 126/126/126 127/127/127 128/128/128
f 129/129/129 130/130/130 131/131/131
f 130/130/130 132/132/132 131/131/131
f 130/130/130 126/126/126 132/132/132
f 133/133/133 134/134/134 135/135/135
f 135/135/135 129/129/129 133/133/133
f 136/136/136 127/127/127 137/137/137
f 126/126/126 137/137/137 127/127/127
f 136/136/136 137/137/137 138/138/138
f 139/139/139 140/140/140 141/141/141
f 138/138/138 142/142/142 136/136/136
f 141/141/141 143/143/143 139/139/139
f 131/131/131 133/133/133 129/129/129
f 144/144/144 135/135/135 145/145/145
f 134/134/134 145/145/145 135/135/135
f 132/132/132 146/146/146 131/131/131
f 113/113/113 147/147/147 111/111/111
f 116/116/116 111/111/111 147/147/147
f 119/119/119 148/148/148 149/149/149
f 118/118/118 117/117/117 123/123/123
f 149/149/149 120/120/120 119/119/119
f 123/123/123 150/150/150 118/118/118
f 108/108/108 150/150/150 122/122/122
f 123/123/123 122/122/122 150/150/150
f 151/151/151 108/108/108 110/110/110
f 151/151/151 110/110/110 116/116/116
f 126/126/126 152/152/152 132/132/132
f 126/126/126 153/153/153 152/152/152
f 108/108/108 122/122/122 124/124/124
f 126/126/126 128/128/128 153/153/153
f 147/147/147 151/151/151 116/116/116
f 154/154/154 127/127/127 136/136/136
f 140/140/140 142/142/142 141/141/141
f 142/142/142 138/138/138 141/141/141
f 155/155/155 113/113/113 114/114/114
f 108/108/108 125/125/125 109/109/109
g DistRt01.55
s 1
f 156/156/156 157/157/157 158/158/158
f 159/159/159 160/160/160 161/161/161
f 162/162/162 160/160/160 159/159/159
f 163/163/163 164/164/164 165/165/165
f 166/166/166 167/167/167 168/168/168
f 169/169/169 170/170/170 171/171/171
f 165/165/165 172/172/172 171/171/171
f 165/165/165 171/171/171 170/170/170
f 173/173/173 172/172/172 174/174/174
f 175/175/175 176/176/176 177/177/177
f 168/168/168 178/178/178 177/177/177
f 168/168/168 177/177/177 176/176/176
f 156/156/156 179/179/179 157/157/157
f 180/180/180 157/157/157 179/179/179
f 180/180/180 179/179/179 181/181/181
f 182/182/182 183/183/183 184/184/184
f 185/185/185 183/183/183 182/182/182
f 186/186/186 187/187/187 188/188/188
f 184/184/184 187/187/187 186/186/186
f 189/189/189 190/190/190 191/191/191
f 189/189/189 191/191/191 157/157/157
f 158/158/158 157/157/157 191/191/191
f 158/158/158 191/191/191 190/190/190
f 192/192/192 189/189/189 157/157/157
f 167/167/167 189/189/189 192/192/192
f 167/167/167 192/192/192 180/180/180
f 192/192/192 157/157/157 180/180/180
f 193/193/193 172/172/172 173/173/173
f 193/193/193 171/171/171 172/172/172
f 169/169/169 171/171/171 193/193/193
f 194/194/194 195/195/195 160/160/160
f 195/195/195 161/161/161 160/160/160
f 174/174/174 161/161/161 195/195/195
f 174/174/174 195/195/195 194/194/194
f 196/196/196 160/160/160 197/197/197
f 194/194/194 160/160/160 196/196/196
f 198/198/198 193/193/193 173/173/173
f 169/169/169 193/193/193 198/198/198
f 199/199/199 187/187/187 200/200/200
f 201/201/201 187/187/187 199/199/199
f 202/202/202 203/203/203 204/204/204
f 203/203/203 205/205/205 204/204/204
f 206/206/206 207/207/207 208/208/208
f 209/209/209 210/210/210 211/211/211
f 210/210/210 202/202/202 211/211/211
f 212/212/212 188/188/188 201/201/201
f 207/207/207 188/188/188 212/212/212
f 208/208/208 207/207/207 212/212/212
f 208/208/208 212/212/212 201/201/201
f 211/211/211 202/202/202 213/213/213
f 211/211/211 213/213/213 214/214/214
f 213/213/213 204/204/204 214/214/214
f 202/202/202 204/204/204 213/213/213
f 165/165/165 164/164/164 215/215/215
f 165/165/165 215/215/215 172/172/172
f 174/174/174 172/172/172 215/215/215
f 174/174/174 215/215/215 164/164/164
f 216/216/216 165/165/165 170/170/170
f 163/163/163 165/165/165 216/216/216
f 168/168/168 167/167/167 217/217/217
f 168/168/168 217/217/217 178/178/178
f 218/218/218 178/178/178 217/217/217
f 218/218/218 217/217/217 167/167/167
f 219/219/219 168/168/168 176/176/176
f 166/166/166 168/168/168 219/219/219
f 164/164/164 220/220/220 174/174/174
f 220/220/220 161/161/161 174/174/174
f 156/156/156 221/221/221 179/179/179
f 221/221/221 181/181/181 179/179/179
f 175/175/175 222/222/222 218/218/218
f 222/222/222 178/178/178 218/218/218
f 222/222/222 177/177/177 178/178/178
f 175/175/175 177/177/177 222/222/222
f 185/185/185 223/223/223 183/183/183
f 224/224/224 184/184/184 183/183/183
f 224/224/224 183/183/183 223/223/223
f 201/201/201 188/188/188 187/187/187
f 184/184/184 225/225/225 187/187/187
f 225/225/225 200/200/200 187/187/187
f 162/162/162 226/226/226 160/160/160
f 226/226/226 197/197/197 160/160/160
g DistRt01.56
s 1
f 227/227/227 228/228/228 229/229/229
f 227/227/227 229/229/229 230/230/230
f 231/231/231 232/232/232 233/233/233
f 234/234/234 231/231/231 233/233/233
f 235/235/235 236/236/236 233/233/233
f 237/237/237 229/229/229 238/238/238
f 239/239/239 233/233/233 232/232/232
f 237/237/237 240/240/240 229/229/229
f 234/234/234 233/233/233 236/236/236
f 240/240/240 230/230/230 229/229/229
f 241/241/241 242/242/242 243/243/243
f 244/244/244 243/243/243 242/242/242
f 239/239/239 235/235/235 233/233/233
f 228/228/228 238/238/238 229/229/229
