# Exported using wow.export v0.2.19
o 20736_Canal11c.obj
v -88.55784606933594 -120.09814453125 -127.3087158203125
v -87.779296875 -120.6791763305664 -127.58809661865234
v -89.37178802490234 -120.6791763305664 -127.16139221191406
v -86.67211151123047 -119.51712036132812 -136.1959686279297
v -85.07962036132812 -119.51712036132812 -136.6226806640625
v -86.63672637939453 -118.8572006225586 -136.06390380859375
v -84.70046997070312 -124.16535186767578 -128.83773803710938
v -86.29296112060547 -124.16535186767578 -128.41102600097656
v -84.66508483886719 -123.0032958984375 -128.70565795898438
v -88.26460266113281 -119.51712036132812 -135.76925659179688
v -89.85710144042969 -119.51712036132812 -135.34255981445312
v -89.82170867919922 -120.6791763305664 -135.21047973632812
v -91.44959259033203 -119.51712036132812 -134.9158477783203
v -89.82171630859375 -118.8572006225586 -135.21047973632812
v -85.49259948730469 -115.44833374023438 -134.97894287109375
v -86.2405014038086 -115.16252136230469 -134.58517456054688
v -86.43386840820312 -116.30580139160156 -135.30682373046875
v -84.55132293701172 -114.59087371826172 -134.6510772705078
v -84.74468994140625 -115.73416137695312 -135.3727264404297
v -87.88545227050781 -124.16535186767578 -127.98431396484375
v -87.85006713867188 -123.0032958984375 -127.85223388671875
v -85.68595886230469 -116.59162139892578 -135.70059204101562
v -84.93805694580078 -116.87744140625 -136.09437561035156
v -87.74391174316406 -119.51712036132812 -127.4560317993164
v -86.15141296386719 -119.51712036132812 -127.88273620605469
v -86.53054809570312 -116.87744140625 -135.66766357421875
v -89.3364028930664 -119.51712036132812 -127.02932739257812
v -87.779296875 -118.8572006225586 -127.58810424804688
v -84.55891418457031 -119.51712036132812 -128.3094482421875
v -84.59429931640625 -120.6791763305664 -128.44149780273438
v -84.59431457519531 -118.8572006225586 -128.44151306152344
v -82.96642303466797 -119.51712036132812 -128.73614501953125
v -88.123046875 -116.87744140625 -135.240966796875
v -89.71554565429688 -116.87744140625 -134.8142547607422
v -88.9369888305664 -117.2073974609375 -135.09364318847656
v -89.75093078613281 -117.53736114501953 -134.94631958007812
v -88.19383239746094 -118.19728088378906 -135.50511169433594
v -88.87095642089844 -116.59162139892578 -134.84718322753906
v -91.30803680419922 -116.87744140625 -134.38754272460938
v -87.65241241455078 -116.44871520996094 -135.07699584960938
v -87.92967987060547 -115.73416137695312 -134.519287109375
v -86.56594848632812 -117.53736114501953 -135.79974365234375
v -87.37989044189453 -117.86732482910156 -135.65243530273438
v -86.14381408691406 -114.59087371826172 -134.224365234375
v -87.73631286621094 -114.59087371826172 -133.79763793945312
v -86.0117416381836 -114.150390625 -133.7314453125
v -89.32881164550781 -114.59087371826172 -133.3709259033203
v -89.19673156738281 -114.150390625 -132.87802124023438
v -90.92130279541016 -114.59087371826172 -132.9442138671875
v -89.42549133300781 -115.16252136230469 -133.73175048828125
v -90.36676025390625 -116.01998138427734 -134.0596466064453
v -89.61885833740234 -116.30580139160156 -134.4534149169922
v -88.272216796875 -114.59087371826172 -129.4276580810547
v -89.86471557617188 -114.59087371826172 -129.00094604492188
v -88.404296875 -114.150390625 -129.92056274414062
v -86.67971801757812 -114.59087371826172 -129.8543701171875
v -88.17552947998047 -115.16252136230469 -129.0668182373047
v -85.08721923828125 -114.59087371826172 -130.2810821533203
v -85.21929931640625 -114.150390625 -130.77398681640625
v -83.4947280883789 -114.59087371826172 -130.70779418945312
v -84.99053955078125 -115.16252136230469 -129.9202423095703
v -91.11466979980469 -115.73416137695312 -133.66587829589844
v -90.17340087890625 -114.87669372558594 -133.33798217773438
v -83.10798645019531 -116.87744140625 -129.2644500732422
v -84.70047760009766 -116.87744140625 -128.83773803710938
v -84.79716491699219 -116.30580139160156 -129.19857788085938
v -86.29296875 -116.87744140625 -128.41102600097656
v -84.66509246826172 -117.53736114501953 -128.70565795898438
v -86.22219848632812 -118.19728088378906 -128.14688110351562
v -87.8500747680664 -117.53736114501953 -127.85223388671875
v -87.88545989990234 -116.87744140625 -127.98431396484375
v -87.98214721679688 -116.30580139160156 -128.3451385498047
v -89.47795104980469 -116.87744140625 -127.5575942993164
v -89.39865112304688 -113.48966979980469 -130.44656372070312
v -88.66844177246094 -113.2694320678711 -130.9063720703125
v -90.39299774169922 -112.82894897460938 -130.97256469726562
v -90.12886047363281 -113.70991516113281 -129.98675537109375
v -89.04315948486328 -119.18716430664062 -135.4898681640625
v -87.938232421875 -113.0491943359375 -131.36618041992188
v -86.94387817382812 -113.70991516113281 -130.84017944335938
v -84.02303314208984 -112.82894897460938 -132.67942810058594
v -86.4778060913086 -113.0491943359375 -132.2858123779297
v -85.74759674072266 -113.2694320678711 -132.74563598632812
v -87.47216033935547 -113.70991516113281 -132.81182861328125
v -87.20801544189453 -112.82894897460938 -131.82598876953125
v -85.48345947265625 -113.2694320678711 -131.75979614257812
v -90.60026550292969 -118.52723693847656 -134.93109130859375
v -88.93257904052734 -113.2694320678711 -131.89219665527344
v -91.37881469726562 -118.19728088378906 -134.65170288085938
v -89.00777435302734 -118.52723693847656 -135.3577880859375
v -86.48634338378906 -115.73416137695312 -129.1326904296875
v -87.415283203125 -118.52723693847656 -135.78451538085938
v -85.82278442382812 -118.52723693847656 -136.21121215820312
v -85.00883483886719 -118.19728088378906 -136.3585205078125
v -88.62862396240234 -117.86732482910156 -127.57284545898438
v -89.40718078613281 -118.19728088378906 -127.29345703125
v -83.85115051269531 -117.86732482910156 -128.8529815673828
v -83.03720092773438 -118.19728088378906 -129.00030517578125
v -85.75199890136719 -117.2073974609375 -135.94705200195312
v -90.52947998046875 -117.2073974609375 -134.66693115234375
v -86.22218322753906 -121.84123229980469 -128.14686584472656
v -83.81575775146484 -118.52723693847656 -128.72091674804688
v -88.5932388305664 -118.52723693847656 -127.44078063964844
v -83.78036499023438 -120.09814453125 -128.5888214111328
v -83.00181579589844 -120.6791763305664 -128.86822509765625
v -85.04422760009766 -120.6791763305664 -136.4906005859375
v -85.8227767944336 -121.26020812988281 -136.21121215820312
v -85.00883483886719 -121.84123229980469 -136.35853576660156
v -89.78631591796875 -121.84123229980469 -135.07839965820312
v -88.1938247680664 -121.84123229980469 -135.505126953125
v -86.63671875 -120.6791763305664 -136.06390380859375
v -87.4506607055664 -120.09814453125 -135.9165802001953
v -88.22921752929688 -120.6791763305664 -135.63719177246094
v -87.81468200683594 -121.84123229980469 -127.72016143798828
v -85.85816955566406 -120.09814453125 -136.34329223632812
v -84.62969207763672 -121.84123229980469 -128.57357788085938
v -89.75092315673828 -123.0032958984375 -134.94631958007812
v -88.12303924560547 -124.16535186767578 -135.240966796875
v -88.15843200683594 -123.0032958984375 -135.373046875
v -90.63565063476562 -120.09814453125 -135.06317138671875
v -91.41419982910156 -120.6791763305664 -134.7837677001953
v -89.71553039550781 -124.16535186767578 -134.81423950195312
v -86.60133361816406 -121.84123229980469 -135.93182373046875
v -87.41526794433594 -121.26020812988281 -135.78451538085938
v -87.3798828125 -122.4222640991211 -135.65243530273438
v -86.5659408569336 -123.0032958984375 -135.7997589111328
v -90.60025787353516 -121.26020812988281 -134.93109130859375
v -91.3788070678711 -121.84123229980469 -134.6516876220703
v -91.34341430664062 -123.0032958984375 -134.5196075439453
v -90.56486511230469 -122.4222640991211 -134.79901123046875
v -88.59323120117188 -121.26020812988281 -127.44078063964844
v -89.40717315673828 -121.84123229980469 -127.29345703125
v -88.62861633300781 -122.4222640991211 -127.57284545898438
v -89.44255828857422 -123.0032958984375 -127.42552185058594
v -83.81575012207031 -121.26020812988281 -128.7209014892578
v -83.03720092773438 -121.84123229980469 -129.00030517578125
v -84.97344970703125 -123.0032958984375 -136.22647094726562
v -85.75199890136719 -123.58432006835938 -135.94708251953125
v -84.93805694580078 -124.16535186767578 -136.09439086914062
v -86.53054809570312 -124.16535186767578 -135.6676788330078
v -87.34449005126953 -123.58432006835938 -135.52035522460938
v -90.52947235107422 -123.58432006835938 -134.66693115234375
v -91.30802154541016 -124.16535186767578 -134.3875274658203
v -83.88653564453125 -123.58432006835938 -128.98504638671875
v -83.07258605957031 -123.0032958984375 -129.13238525390625
v -83.10797882080078 -124.16535186767578 -129.2644500732422
v -88.66400146484375 -123.58432006835938 -127.70491027832031
v -89.47794342041016 -124.16535186767578 -127.5575942993164
v -85.78738403320312 -122.4222640991211 -136.0791473388672
v -88.97237396240234 -122.4222640991211 -135.22572326660156
v -83.85114288330078 -122.4222640991211 -128.8529815673828
v -90.85050201416016 -124.16535186767578 -132.6800537109375
v -90.28302001953125 -124.16535186767578 -133.74713134765625
v -91.30802154541016 -124.16535186767578 -134.3875274658203
v -87.77548217773438 -124.16535186767578 -130.75888061523438
v -87.20800018310547 -124.16535186767578 -131.82598876953125
v -88.80049133300781 -124.16535186767578 -131.39927673339844
v -86.75048065185547 -124.16535186767578 -130.11849975585938
v -85.15798950195312 -124.16535186767578 -130.54522705078125
v -86.18299865722656 -124.16535186767578 -131.18560791015625
v -85.61550903320312 -124.16535186767578 -132.25270080566406
v -88.91046142578125 -124.16535186767578 -128.62469482421875
v -87.88545227050781 -124.16535186767578 -127.98431396484375
v -88.34297180175781 -124.16535186767578 -129.69178771972656
v -89.47794342041016 -124.16535186767578 -127.5575942993164
v -89.93546295166016 -124.16535186767578 -129.26507568359375
v -89.36798095703125 -124.16535186767578 -130.33218383789062
v -90.39298248291016 -124.16535186767578 -130.97256469726562
v -84.70046997070312 -124.16535186767578 -128.83773803710938
v -83.10797882080078 -124.16535186767578 -129.2644500732422
v -84.13298034667969 -124.16535186767578 -129.90484619140625
v -83.56549835205078 -124.16535186767578 -130.971923828125
v -86.29296112060547 -124.16535186767578 -128.41102600097656
v -84.02301788330078 -124.16535186767578 -132.67941284179688
v -84.59049987792969 -124.16535186767578 -131.61231994628906
v -89.82550048828125 -124.16535186767578 -132.03965759277344
v -89.25801086425781 -124.16535186767578 -133.10675048828125
v -88.69052124023438 -124.16535186767578 -134.17385864257812
v -89.71553039550781 -124.16535186767578 -134.81423950195312
v -88.12303924560547 -124.16535186767578 -135.240966796875
v -87.66551971435547 -124.16535186767578 -133.53347778320312
v -86.07302856445312 -124.16535186767578 -133.96018981933594
v -85.04801940917969 -124.16535186767578 -133.31979370117188
v -84.48053741455078 -124.16535186767578 -134.38690185546875
v -85.50553894042969 -124.16535186767578 -135.02728271484375
v -84.93805694580078 -124.16535186767578 -136.09439086914062
v -86.53054809570312 -124.16535186767578 -135.6676788330078
v -86.64051818847656 -124.16535186767578 -132.89309692382812
v -87.09803771972656 -124.16535186767578 -134.6005859375
v -88.23300170898438 -124.16535186767578 -132.46636962890625
vn -0.40376341342926025 0.0645490512251854 -0.9125834703445435
vn -0.3679274022579193 0.17279061675071716 -0.9136590361595154
vn -0.4640703499317169 0.16633200645446777 -0.87004154920578
vn 0.34815514087677 -0.04353375360369682 0.9364255666732788
vn 0.4346092641353607 -0.04295804724097252 0.8995940089225769
vn 0.3503732979297638 -0.1309613287448883 0.9274091124534607
vn 0.004418131895363331 0.72956782579422 -0.6838940978050232
vn -0.14270202815532684 0.7417905926704407 -0.6552730202674866
vn -0.06832290440797806 0.5643424987792969 -0.8227086663246155
vn 0.25862637162208557 -0.04372499883174896 0.9649873375892639
vn 0.16681362688541412 -0.04353010281920433 0.9850270748138428
vn 0.20118620991706848 0.1718638688325882 0.9643583297729492
vn 0.0735277384519577 -0.04295078665018082 0.996367871761322
vn 0.16854403913021088 -0.13106036186218262 0.9769423007965088
vn 0.33120667934417725 -0.559154212474823 0.760032057762146
vn 0.28606897592544556 -0.5947308540344238 0.7513052821159363
vn 0.31651318073272705 -0.456378310918808 0.8315877914428711
vn 0.340634286403656 -0.6530400514602661 0.6763926148414612
vn 0.3756310045719147 -0.5220868587493896 0.7657197117805481
vn -0.28659528493881226 0.7372393012046814 -0.6118342876434326
vn -0.3642359972000122 0.5656951665878296 -0.7398114800453186
vn 0.3592206537723541 -0.41757380962371826 0.8346211314201355
vn 0.4007287621498108 -0.37737512588500977 0.8348679542541504
vn -0.34795933961868286 -0.045129258185625076 -0.9364227652549744
vn -0.25850120186805725 -0.045328885316848755 -0.9649469256401062
vn 0.32111695408821106 -0.38160333037376404 0.8667541742324829
vn -0.43434977531433105 -0.04453175514936447 -0.899642825126648
vn -0.35011816024780273 -0.13267728686332703 -0.9272615909576416
vn -0.16676393151283264 -0.045128870755434036 -0.984963595867157
vn -0.18354558944702148 0.17356161773204803 -0.9675676822662354
vn -0.16843193769454956 -0.1327802538871765 -0.9767292737960815
vn -0.07355639338493347 -0.044530972838401794 -0.9962963461875916
vn 0.2391376793384552 -0.3830181062221527 0.8922501802444458
vn 0.15539531409740448 -0.3816089928150177 0.9111678004264832
vn 0.20338064432144165 -0.34187138080596924 0.9174749851226807
vn 0.16688983142375946 -0.29949119687080383 0.9393895268440247
vn 0.2606666088104248 -0.21691977977752686 0.9407437443733215
vn 0.19535483419895172 -0.4208562672138214 0.8858422636985779
vn 0.07050729542970657 -0.3773864507675171 0.9233678579330444
vn 0.25654029846191406 -0.4396563470363617 0.8607493042945862
vn 0.22807392477989197 -0.5292913317680359 0.8172104358673096
vn 0.3330613672733307 -0.2992713153362274 0.8941514492034912
vn 0.2973920702934265 -0.25855469703674316 0.9190796613693237
vn 0.2682550549507141 -0.6589465141296387 0.7027295231819153
vn 0.19427503645420074 -0.6609206795692444 0.7248730659484863
vn 0.22394870221614838 -0.8032215237617493 0.5519802570343018
vn 0.11913575232028961 -0.6589511036872864 0.742691159248352
vn 0.07127023488283157 -0.8025179505348206 0.5923559665679932
vn 0.04328553378582001 -0.6530492901802063 0.7560773491859436
vn 0.1365910917520523 -0.5951412320137024 0.7919278144836426
vn 0.10445484519004822 -0.490516722202301 0.8651488423347473
vn 0.15040723979473114 -0.4567296504974365 0.8767985105514526
vn -0.26801130175590515 -0.6597789525985718 -0.7020412087440491
vn -0.3404254913330078 -0.6538651585578918 -0.6757002472877502
vn -0.2242017537355423 -0.8022974729537964 -0.5532199144363403
vn -0.19399628043174744 -0.6617519855499268 -0.7241889238357544
vn -0.28576040267944336 -0.5958303213119507 -0.7505512237548828
vn -0.11882266402244568 -0.6597728133201599 -0.742011547088623
vn -0.07153953611850739 -0.8015870451927185 -0.5935826301574707
vn -0.042939331382513046 -0.6538529396057129 -0.7554022073745728
vn -0.1362145096063614 -0.5962265729904175 -0.791175901889801
vn 0.05765610933303833 -0.5220972299575806 0.8509348630905151
vn 0.09008871018886566 -0.6251389384269714 0.7752968668937683
vn -0.07026562094688416 -0.3793465197086334 -0.922582745552063
vn -0.15511219203472137 -0.3835901618003845 -0.9103838801383972
vn -0.15008172392845154 -0.4583984613418579 -0.8759831190109253
vn -0.23881623148918152 -0.3850083351135254 -0.8914792537689209
vn -0.1666424721479416 -0.3014030158519745 -0.9388219118118286
vn -0.26041513681411743 -0.21874940395355225 -0.9403896927833557
vn -0.3327442705631256 -0.301189124584198 -0.8936253786087036
vn -0.32076123356819153 -0.3835906982421875 -0.8660083413124084
vn -0.31611302495002747 -0.4580550193786621 -0.8308177590370178
vn -0.40034356713294983 -0.379347562789917 -0.8341585397720337
vn -0.2067832052707672 -0.9404268860816956 -0.2698851525783539
vn -0.1362767517566681 -0.9730344414710999 -0.18609853088855743
vn -0.16875629127025604 -0.984831690788269 0.040346890687942505
vn -0.27826768159866333 -0.8955473303794861 -0.34722039103507996
vn 0.214010551571846 -0.08756672590970993 0.9728984832763672
vn -0.06746837496757507 -0.9929715394973755 -0.09723949432373047
vn -0.09664653241634369 -0.9101804494857788 -0.4027790427207947
vn 0.1664241999387741 -0.9848130941390991 -0.049458421766757965
vn 0.06542971730232239 -0.9938485026359558 0.08935454487800598
vn 0.1346687376499176 -0.9744760394096375 0.17961296439170837
vn 0.09569650888442993 -0.9119178056716919 0.3990590572357178
vn -0.0011840027291327715 -0.9999886155128479 -0.004625923931598663
vn 0.03579336032271385 -0.9720615744590759 -0.2319810837507248
vn 0.12139479070901871 -0.17291028797626495 0.9774280190467834
vn -0.03749825432896614 -0.9735150337219238 0.22552703320980072
vn 0.07309620827436447 -0.21331655979156494 0.9742448925971985
vn 0.21506738662719727 -0.17436467111110687 0.9609073996543884
vn -0.22767791152000427 -0.5306699872016907 -0.8164264559745789
vn 0.3061180114746094 -0.174281045794487 0.9359049201011658
vn 0.3875364065170288 -0.1727646291255951 0.9055207371711731
vn 0.42392411828041077 -0.21331410109996796 0.8802188634872437
vn -0.3786559998989105 -0.25834935903549194 -0.8887492418289185
vn -0.4236173927783966 -0.21512411534786224 -0.8799260854721069
vn -0.12045855075120926 -0.2584444284439087 -0.9584864377975464
vn -0.07299149036407471 -0.21512317657470703 -0.9738553166389465
vn 0.3675477206707001 -0.3389250636100769 0.8660475015640259
vn 0.11893092095851898 -0.33910131454467773 0.9332019090652466
vn -0.2824326157569885 0.38115596771240234 -0.8803135752677917
vn -0.1209523156285286 -0.17429843544960022 -0.977236270904541
vn -0.3875679671764374 -0.17421545088291168 -0.9052293300628662
vn -0.12953411042690277 0.0650087222456932 -0.9894416332244873
vn -0.015717875212430954 0.16199712455272675 -0.9866660833358765
vn 0.4796786606311798 0.16307806968688965 0.8621565103530884
vn 0.44733893871307373 0.2682719826698303 0.8531811237335205
vn 0.5027386546134949 0.3616315722465515 0.7851601839065552
vn 0.15568804740905762 0.37812182307243347 0.9125706553459167
vn 0.3160760700702667 0.3757708668708801 0.87114417552948
vn 0.3845975399017334 0.17050951719284058 0.9071997404098511
vn 0.3242616057395935 0.06391452997922897 0.9438057541847229
vn 0.29435494542121887 0.17006947100162506 0.9404422044754028
vn -0.37941285967826843 0.3773471415042877 -0.8447810411453247
vn 0.412090003490448 0.06416289508342743 0.9088811278343201
vn -0.12145750224590302 0.37626132369041443 -0.91851806640625
vn 0.1178099736571312 0.5684255957603455 0.8142561912536621
vn 0.2040814459323883 0.7415378093719482 0.6391185522079468
vn 0.26684093475341797 0.5731796026229858 0.774765133857727
vn 0.13845980167388916 0.06497405469417572 0.9882344603538513
vn 0.033037539571523666 0.16742435097694397 0.9853311777114868
vn 0.057773131877183914 0.7369975447654724 0.6734217405319214
vn 0.41159653663635254 0.37067270278930664 0.8325804471969604
vn 0.35246360301971436 0.27479836344718933 0.8945698738098145
vn 0.3664093017578125 0.4695398211479187 0.8032910227775574
vn 0.4109056293964386 0.5558289885520935 0.7226414084434509
vn 0.09714078903198242 0.2738952934741974 0.9568411707878113
vn -0.008973008953034878 0.37009480595588684 0.9289506077766418
vn -0.05057062953710556 0.555733859539032 0.8298206925392151
vn 0.0548909567296505 0.4733344614505768 0.879170835018158
vn -0.42345330119132996 0.27329137921333313 -0.8637124300003052
vn -0.4723401963710785 0.36950740218162537 -0.8002243041992188
vn -0.4211311936378479 0.47077956795692444 -0.7752516269683838
vn -0.4587770700454712 0.5556030869483948 -0.6934182643890381
vn -0.07113441824913025 0.27028965950012207 -0.9601476192474365
vn 0.04284511134028435 0.36105844378471375 -0.9315584301948547
vn 0.5027310848236084 0.5435920357704163 0.6721377372741699
vn 0.4488561749458313 0.6332637071609497 0.6304800510406494
vn 0.4796564280986786 0.7006105184555054 0.5282751321792603
vn 0.3457767963409424 0.7293166518211365 0.5903689861297607
vn 0.3107835054397583 0.6556238532066345 0.6881648898124695
vn 0.014125832356512547 0.6486032009124756 0.760995626449585
vn -0.08984104543924332 0.7157986760139465 0.6925033330917358
vn 0.04199422523379326 0.6392391324043274 -0.7678605914115906
vn 0.0994332879781723 0.5434778928756714 -0.8335135579109192
vn 0.1514383852481842 0.7008474469184875 -0.6970503926277161
vn -0.39713603258132935 0.6457571983337402 -0.6521353721618652
vn -0.424007773399353 0.7160170078277588 -0.5545602440834045
vn 0.4597075283527374 0.46162769198417664 0.7586625218391418
vn 0.2191360890865326 0.47687065601348877 0.8512189984321594
vn -0.01284454483538866 0.46653783321380615 -0.8844079375267029
vn -0.2269493043422699 0.8802122473716736 0.416797935962677
vn -0.05858777463436127 0.8376640677452087 0.5430343747138977
vn -0.08984104543924332 0.7157986760139465 0.6925033330917358
vn -0.08316187560558319 0.9842507839202881 -0.15599516034126282
vn 0.0434398353099823 0.9990508556365967 -0.003206689143553376
vn -0.14944159984588623 0.9877718687057495 0.04443047568202019
vn -0.05325622484087944 0.9339974522590637 -0.3532879948616028
vn 0.10540902614593506 0.9194696545600891 -0.37876686453819275
vn 0.07587241381406784 0.9779233932495117 -0.19470258057117462
vn 0.23023539781570435 0.9714474678039551 -0.05728445202112198
vn -0.3216058313846588 0.8398758769035339 -0.4372393786907196
vn -0.28659528493881226 0.7372393012046814 -0.6118342876434326
vn -0.20647108554840088 0.930482804775238 -0.30260756611824036
vn -0.424007773399353 0.7160170078277588 -0.5545602440834045
vn -0.4048720896244049 0.8803284764289856 -0.24718503654003143
vn -0.27744436264038086 0.9545955061912537 -0.10849850624799728
vn -0.3364051580429077 0.9373771548271179 0.09030820429325104
vn 0.004418131895363331 0.72956782579422 -0.6838940978050232
vn 0.1514383852481842 0.7008474469184875 -0.6970503926277161
vn 0.13092228770256042 0.825920820236206 -0.5483740568161011
vn 0.297155499458313 0.8534730672836304 -0.4281148612499237
vn -0.14270202815532684 0.7417905926704407 -0.6552730202674866
vn 0.40814870595932007 0.9063666462898254 -0.10915222764015198
vn 0.2622280418872833 0.9322914481163025 -0.24913668632507324
vn -0.18488459289073944 0.9537878036499023 0.236868217587471
vn -0.025098269805312157 0.9275567531585693 0.37283843755722046
vn 0.09131357818841934 0.8515380620956421 0.5162798166275024
vn 0.057773131877183914 0.7369975447654724 0.6734217405319214
vn 0.2040814459323883 0.7415378093719482 0.6391185522079468
vn 0.13239462673664093 0.9310091733932495 0.34013766050338745
vn 0.28210943937301636 0.9166391491889954 0.2831730544567108
vn 0.3527012765407562 0.9315015077590942 0.08891943842172623
vn 0.4714479148387909 0.8533472418785095 0.22256530821323395
vn 0.3880186080932617 0.8237740993499756 0.4133251905441284
vn 0.4796564280986786 0.7006105184555054 0.5282751321792603
vn 0.3457767963409424 0.7293166518211365 0.5903689861297607
vn 0.16582417488098145 0.9757899045944214 0.142605721950531
vn 0.24821963906288147 0.846564769744873 0.47086629271507263
vn 0.009349207393825054 0.9820456504821777 0.18841160833835602
vt 0.32841169834136963 1.1827665567398071
vt 0.3904685378074646 1.1210034936666489
vt 0.3904685378074646 1.2445296049118042
vt 0.26635482907295227 0.8739512711763382
vt 0.26635482907295227 0.7504251599311829
vt 0.21321536600589752 0.8739512711763382
vt 0.7628096342086792 0.8739512711763382
vt 0.762809693813324 0.9974773824214935
vt 0.6386959552764893 0.8739512711763382
vt 0.26635482907295227 0.9974773824214935
vt 0.26635482907295227 1.1210034936666489
vt 0.3904685378074646 1.1210034936666489
vt 0.26635482907295227 1.2445296049118042
vt 0.21321536600589752 1.1210034936666489
vt -0.06362050771713257 0.8121882081031799
vt -0.08710401505231857 0.8739512711763382
vt 0.006829950958490372 0.8739512711763382
vt -0.1340709775686264 0.7504251599311829
vt -0.04013701528310776 0.7504251599311829
vt 0.7628097534179688 1.1210034936666489
vt 0.638696014881134 1.1210034936666489
vt 0.03031345270574093 0.8121882081031799
vt 0.053796954452991486 0.7504251599311829
vt 0.26635482907295227 1.1210034936666489
vt 0.26635482907295227 0.9974773824214935
vt 0.05379696190357208 0.8739512711763382
vt 0.26635482907295227 1.2445296049118042
vt 0.21321538090705872 1.1210034936666489
vt 0.26635482907295227 0.8739512711763382
vt 0.3904685378074646 0.8739512711763382
vt 0.21321538090705872 0.8739512711763382
vt 0.26635482907295227 0.7504251599311829
vt 0.05379696935415268 0.9974773824214935
vt 0.053796976804733276 1.1210034936666489
vt 0.08036670088768005 1.0592404380440712
vt 0.10693643987178802 1.1210034936666489
vt 0.16007590293884277 0.9974773824214935
vt 0.030313467606902122 1.0592404305934906
vt 0.05379698425531387 1.2445296049118042
vt 0.018571708351373672 0.9665958508849144
vt -0.04013705253601074 0.9974773824214935
vt 0.10693642497062683 0.8739512711763382
vt 0.1335061639547348 0.9357143267989159
vt -0.1340709924697876 0.8739512711763382
vt -0.13407102227210999 0.9974773824214935
vt -0.18232578039169312 0.8739512711763382
vt -0.13407105207443237 1.1210034936666489
vt -0.1823258399963379 1.1210034936666489
vt -0.13407106697559357 1.2445296049118042
vt -0.08710405975580215 1.1210034936666489
vt -0.01665353775024414 1.1827665567398071
vt 0.0068299658596515656 1.1210034936666489
vt -0.1340709775686264 1.1210034936666489
vt -0.13407094776630402 1.2445296049118042
vt -0.18232575058937073 1.1210034936666489
vt -0.1340710073709488 0.9974773824214935
vt -0.08710397779941559 1.1210034936666489
vt -0.13407103717327118 0.8739512711763382
vt -0.1823258101940155 0.8739512711763382
vt -0.13407106697559357 0.7504251599311829
vt -0.08710403740406036 0.8739512711763382
vt -0.04013703763484955 1.2445296049118042
vt -0.11058756709098816 1.1827665567398071
vt 0.05379704385995865 0.7504251599311829
vt 0.053797051310539246 0.8739512711763382
vt 0.0068300217390060425 0.8739512711763382
vt 0.05379705876111984 0.9974773824214935
vt 0.1069364845752716 0.8739512711763382
vt 0.16007593274116516 0.9974773824214935
vt 0.1069364994764328 1.1210034936666489
vt 0.05379706621170044 1.1210034936666489
vt 0.006830036640167236 1.1210034936666489
vt 0.053797073662281036 1.2445296049118042
vt -0.2547079920768738 1.1827665567398071
vt -0.27883538603782654 1.1210034936666489
vt -0.32709020376205444 1.2445296049118042
vt -0.23058056831359863 1.2445296049118042
vt 0.2397851049900055 1.0592404380440712
vt -0.3029627799987793 1.0592404305934906
vt -0.23058056831359863 0.9974773824214935
vt -0.32709020376205444 0.7504251599311829
vt -0.3029628098011017 0.9357143342494965
vt -0.2788354158401489 0.8739512711763382
vt -0.23058059811592102 0.9974773824214935
vt -0.32709020376205444 0.9974773824214935
vt -0.27883538603782654 0.8739512711763382
vt 0.18664562702178955 1.1827665567398071
vt -0.2788354158401489 1.1210034936666489
vt 0.16007590293884277 1.2445296049118042
vt 0.18664562702178955 1.0592404380440712
vt -0.040137000381946564 0.9974773824214935
vt 0.18664562702178955 0.9357143267989159
vt 0.18664562702178955 0.8121882081031799
vt 0.16007588803768158 0.7504251599311829
vt 0.13350622355937958 1.1827665567398071
vt 0.16007594764232635 1.2445296049118042
vt 0.13350620865821838 0.8121882081031799
vt 0.16007593274116516 0.7504251599311829
vt 0.08036668598651886 0.8121882081031799
vt 0.08036671578884125 1.1827665567398071
vt 0.5145822763442993 0.9974773824214935
vt 0.18664565682411194 0.8121882081031799
vt 0.18664565682411194 1.1827665567398071
vt 0.32841169834136963 0.8121882081031799
vt 0.3904685378074646 0.7504251599311829
vt 0.3904685378074646 0.7504251599311829
vt 0.45252537727355957 0.8121882081031799
vt 0.5145822167396545 0.7504251599311829
vt 0.5145822763442993 1.1210034936666489
vt 0.5145822167396545 0.9974773824214935
vt 0.3904685378074646 0.8739512711763382
vt 0.32841169834136963 0.9357143267989159
vt 0.3904685378074646 0.9974773824214935
vt 0.5145822763442993 1.1210034936666489
vt 0.32841169834136963 0.8121882081031799
vt 0.5145822763442993 0.8739512711763382
vt 0.6386959552764893 1.1210034936666489
vt 0.762809693813324 0.9974773824214935
vt 0.6386959552764893 0.9974773824214935
vt 0.32841169834136963 1.1827665567398071
vt 0.3904685378074646 1.2445296049118042
vt 0.7628097534179688 1.1210034936666489
vt 0.5145822167396545 0.8739512711763382
vt 0.45252537727355957 0.9357143267989159
vt 0.5766390562057495 0.9357143267989159
vt 0.6386959552764893 0.8739512711763382
vt 0.45252540707588196 1.1827665567398071
vt 0.5145822763442993 1.2445296049118042
vt 0.638696014881134 1.2445296049118042
vt 0.5766391158103943 1.1827665567398071
vt 0.45252540707588196 1.1827665567398071
vt 0.5145822763442993 1.2445296049118042
vt 0.5766391754150391 1.1827665567398071
vt 0.638696014881134 1.2445296049118042
vt 0.45252537727355957 0.8121882081031799
vt 0.5145822167396545 0.7504251599311829
vt 0.6386959552764893 0.7504251599311829
vt 0.7007527947425842 0.8121882081031799
vt 0.7628096342086792 0.7504251599311829
vt 0.7628096342086792 0.8739512711763382
vt 0.700752854347229 0.9357143267989159
vt 0.700752854347229 1.1827665567398071
vt 0.7628097534179688 1.2445296049118042
vt 0.7007527947425842 0.8121882081031799
vt 0.6386959552764893 0.7504251599311829
vt 0.7628096342086792 0.7504251599311829
vt 0.700752854347229 1.1827665567398071
vt 0.7628097534179688 1.2445296049118042
vt 0.5766390562057495 0.8121882081031799
vt 0.5766390562057495 1.0592404380440712
vt 0.5766390562057495 0.8121882081031799
vt 0.12448157370090485 0.09579861164093018
vt 0.06193727254867554 0.21183562278747559
vt -0.0006070416420698166 0.09579896926879883
vt 0.31211453676223755 0.44390869140625
vt 0.24957022070884705 0.5599457025527954
vt 0.24957020580768585 0.32787197828292847
vt 0.37465882301330566 0.5599453449249268
vt 0.37465882301330566 0.7920190691947937
vt 0.31211453676223755 0.6759823858737946
vt 0.24956998229026794 0.7920194864273071
vt 0.43720313906669617 0.21183454990386963
vt 0.49974745512008667 0.32787126302719116
vt 0.37465882301330566 0.3278716206550598
vt 0.49974745512008667 0.09579753875732422
vt 0.37465882301330566 0.09579789638519287
vt 0.31211450695991516 0.21183490753173828
vt 0.24957019090652466 0.09579825401306152
vt 0.49974745512008667 0.792018711566925
vt 0.49974745512008667 1.024092435836792
vt 0.43720313906669617 0.9080557525157928
vt 0.37465858459472656 1.0240928530693054
vt 0.49974745512008667 0.5599449872970581
vt 0.24956974387168884 1.0240932703018188
vt 0.31211429834365845 0.9080561697483063
vt 0.18702588975429535 0.21183526515960693
vt 0.12448158860206604 0.3278723359107971
vt 0.061937034130096436 0.4439094066619873
vt -0.0006072800606489182 0.32787275314331055
vt -0.0006075184792280197 0.5599465370178223
vt 0.12448135018348694 0.5599461197853088
vt 0.12448111176490784 0.7920199036598206
vt 0.18702542781829834 0.9080565869808197
vt 0.12448087334632874 1.0240936875343323
vt 0.06193655729293823 0.9080570042133331
vt -0.0006079953163862228 1.0240941047668457
vt -0.0006077568978071213 0.792020320892334
vt 0.18702566623687744 0.675982803106308
vt 0.061936795711517334 0.6759832203388214
vt 0.18702590465545654 0.44390904903411865
g Canal11c0
s 1
f 1/1/1 2/2/2 3/3/3
f 4/4/4 5/5/5 6/6/6
f 7/7/7 8/8/8 9/9/9
f 10/10/10 11/11/11 12/12/12
f 13/13/13 11/11/11 14/14/14
f 15/15/15 16/16/16 17/17/17
f 18/18/18 16/16/16 15/15/15
f 18/18/18 15/15/15 19/19/19
f 8/8/8 20/20/20 21/21/21
f 15/15/15 17/17/17 19/19/19
f 19/19/19 17/17/17 22/22/22
f 19/19/19 22/22/22 23/23/23
f 24/24/24 25/25/25 2/2/2
f 26/26/26 23/23/23 22/22/22
f 24/24/24 27/27/27 28/28/28
f 25/25/25 24/24/24 28/28/28
f 26/26/26 22/22/22 17/17/17
f 25/25/25 29/29/29 30/30/30
f 29/29/29 25/25/25 31/31/31
f 32/32/32 29/29/29 31/31/31
f 33/33/33 34/34/34 35/35/35
f 35/35/35 34/34/34 36/36/36
f 35/35/35 36/36/36 37/37/37
f 33/33/33 35/35/35 37/37/37
f 34/34/34 33/33/33 38/38/38
f 39/39/39 34/34/34 38/38/38
f 38/38/38 40/40/40 41/41/41
f 40/40/40 17/17/17 41/41/41
f 40/40/40 33/33/33 17/17/17
f 42/42/42 43/43/43 6/6/6
f 42/42/42 33/33/33 43/43/43
f 43/43/43 33/33/33 37/37/37
f 44/44/44 45/45/45 16/16/16
f 18/18/18 44/44/44 16/16/16
f 44/44/44 18/18/18 46/46/46
f 45/45/45 44/44/44 46/46/46
f 47/47/47 45/45/45 48/48/48
f 49/49/49 47/47/47 48/48/48
f 38/38/38 33/33/33 40/40/40
f 45/45/45 47/47/47 50/50/50
f 26/26/26 33/33/33 42/42/42
f 51/51/51 52/52/52 50/50/50
f 39/39/39 52/52/52 51/51/51
f 33/33/33 26/26/26 17/17/17
f 53/53/53 54/54/54 55/55/55
f 56/56/56 53/53/53 55/55/55
f 53/53/53 56/56/56 57/57/57
f 54/54/54 53/53/53 57/57/57
f 58/58/58 56/56/56 59/59/59
f 60/60/60 58/58/58 59/59/59
f 58/58/58 60/60/60 61/61/61
f 56/56/56 58/58/58 61/61/61
f 39/39/39 51/51/51 62/62/62
f 51/51/51 50/50/50 62/62/62
f 62/62/62 50/50/50 63/63/63
f 62/62/62 63/63/63 49/49/49
f 47/47/47 49/49/49 63/63/63
f 47/47/47 63/63/63 50/50/50
f 64/64/64 65/65/65 66/66/66
f 65/65/65 67/67/67 66/66/66
f 67/67/67 65/65/65 68/68/68
f 31/31/31 69/69/69 68/68/68
f 67/67/67 68/68/68 69/69/69
f 65/65/65 64/64/64 68/68/68
f 70/70/70 69/69/69 28/28/28
f 67/67/67 71/71/71 72/72/72
f 71/71/71 73/73/73 72/72/72
f 70/70/70 67/67/67 69/69/69
f 73/73/73 71/71/71 70/70/70
f 71/71/71 67/67/67 70/70/70
f 74/74/74 75/75/75 55/55/55
f 76/76/76 75/75/75 74/74/74
f 76/76/76 74/74/74 77/77/77
f 74/74/74 55/55/55 77/77/77
f 78/78/78 10/10/10 37/37/37
f 11/11/11 10/10/10 78/78/78
f 77/77/77 55/55/55 54/54/54
f 76/76/76 79/79/79 75/75/75
f 75/75/75 79/79/79 80/80/80
f 75/75/75 80/80/80 55/55/55
f 11/11/11 78/78/78 14/14/14
f 81/81/81 82/82/82 83/83/83
f 83/83/83 82/82/82 84/84/84
f 83/83/83 84/84/84 46/46/46
f 81/81/81 83/83/83 46/46/46
f 76/76/76 85/85/85 79/79/79
f 79/79/79 85/85/85 86/86/86
f 79/79/79 86/86/86 80/80/80
f 87/87/87 14/14/14 36/36/36
f 59/59/59 80/80/80 86/86/86
f 60/60/60 59/59/59 86/86/86
f 13/13/13 14/14/14 87/87/87
f 59/59/59 56/56/56 80/80/80
f 81/81/81 85/85/85 82/82/82
f 82/82/82 85/85/85 88/88/88
f 82/82/82 88/88/88 84/84/84
f 13/13/13 87/87/87 89/89/89
f 85/85/85 81/81/81 86/86/86
f 87/87/87 36/36/36 89/89/89
f 85/85/85 76/76/76 88/88/88
f 14/14/14 90/90/90 36/36/36
f 90/90/90 37/37/37 36/36/36
f 48/48/48 45/45/45 84/84/84
f 48/48/48 84/84/84 88/88/88
f 49/49/49 48/48/48 88/88/88
f 57/57/57 72/72/72 73/73/73
f 57/57/57 91/91/91 72/72/72
f 67/67/67 72/72/72 91/91/91
f 90/90/90 78/78/78 37/37/37
f 66/66/66 91/91/91 61/61/61
f 64/64/64 66/66/66 61/61/61
f 14/14/14 78/78/78 90/90/90
f 66/66/66 67/67/67 91/91/91
f 10/10/10 6/6/6 92/92/92
f 10/10/10 92/92/92 37/37/37
f 39/39/39 38/38/38 52/52/52
f 52/52/52 38/38/38 41/41/41
f 52/52/52 41/41/41 50/50/50
f 43/43/43 37/37/37 92/92/92
f 43/43/43 92/92/92 6/6/6
f 93/93/93 6/6/6 5/5/5
f 42/42/42 6/6/6 93/93/93
f 94/94/94 42/42/42 93/93/93
f 94/94/94 93/93/93 5/5/5
f 95/95/95 70/70/70 28/28/28
f 16/16/16 41/41/41 17/17/17
f 73/73/73 70/70/70 95/95/95
f 73/73/73 95/95/95 96/96/96
f 16/16/16 45/45/45 41/41/41
f 97/97/97 68/68/68 64/64/64
f 31/31/31 68/68/68 97/97/97
f 98/98/98 97/97/97 64/64/64
f 23/23/23 99/99/99 94/94/94
f 99/99/99 42/42/42 94/94/94
f 99/99/99 26/26/26 42/42/42
f 23/23/23 26/26/26 99/99/99
f 89/89/89 36/36/36 100/100/100
f 89/89/89 100/100/100 39/39/39
f 2/2/2 25/25/25 101/101/101
f 25/25/25 30/30/30 101/101/101
f 34/34/34 39/39/39 100/100/100
f 34/34/34 100/100/100 36/36/36
f 32/32/32 31/31/31 102/102/102
f 32/32/32 102/102/102 98/98/98
f 98/98/98 102/102/102 97/97/97
f 102/102/102 31/31/31 97/97/97
f 96/96/96 103/103/103 27/27/27
f 103/103/103 28/28/28 27/27/27
f 95/95/95 28/28/28 103/103/103
f 95/95/95 103/103/103 96/96/96
f 29/29/29 32/32/32 104/104/104
f 29/29/29 104/104/104 30/30/30
f 8/8/8 21/21/21 101/101/101
f 105/105/105 104/104/104 32/32/32
f 1/1/1 24/24/24 2/2/2
f 27/27/27 24/24/24 1/1/1
f 27/27/27 1/1/1 3/3/3
f 9/9/9 8/8/8 101/101/101
f 10/10/10 4/4/4 6/6/6
f 105/105/105 30/30/30 104/104/104
f 106/106/106 107/107/107 108/108/108
f 109/109/109 110/110/110 12/12/12
f 111/111/111 112/112/112 113/113/113
f 112/112/112 10/10/10 113/113/113
f 4/4/4 10/10/10 112/112/112
f 4/4/4 112/112/112 111/111/111
f 2/2/2 101/101/101 114/114/114
f 114/114/114 101/101/101 21/21/21
f 115/115/115 4/4/4 111/111/111
f 116/116/116 101/101/101 30/30/30
f 5/5/5 4/4/4 115/115/115
f 117/117/117 118/118/118 119/119/119
f 9/9/9 101/101/101 116/116/116
f 5/5/5 115/115/115 106/106/106
f 115/115/115 111/111/111 106/106/106
f 11/11/11 13/13/13 120/120/120
f 11/11/11 120/120/120 12/12/12
f 121/121/121 12/12/12 120/120/120
f 121/121/121 120/120/120 13/13/13
f 113/113/113 12/12/12 110/110/110
f 122/122/122 118/118/118 117/117/117
f 10/10/10 12/12/12 113/113/113
f 106/106/106 111/111/111 107/107/107
f 111/111/111 123/123/123 107/107/107
f 107/107/107 123/123/123 108/108/108
f 111/111/111 113/113/113 124/124/124
f 124/124/124 113/113/113 110/110/110
f 124/124/124 110/110/110 123/123/123
f 111/111/111 124/124/124 123/123/123
f 119/119/119 125/125/125 110/110/110
f 119/119/119 126/126/126 125/125/125
f 123/123/123 125/125/125 126/126/126
f 123/123/123 110/110/110 125/125/125
f 127/127/127 12/12/12 121/121/121
f 128/128/128 127/127/127 121/121/121
f 128/128/128 109/109/109 127/127/127
f 127/127/127 109/109/109 12/12/12
f 129/129/129 130/130/130 128/128/128
f 129/129/129 117/117/117 130/130/130
f 117/117/117 109/109/109 130/130/130
f 130/130/130 109/109/109 128/128/128
f 3/3/3 131/131/131 132/132/132
f 3/3/3 2/2/2 131/131/131
f 2/2/2 114/114/114 131/131/131
f 131/131/131 114/114/114 132/132/132
f 133/133/133 21/21/21 134/134/134
f 132/132/132 133/133/133 134/134/134
f 132/132/132 114/114/114 133/133/133
f 133/133/133 114/114/114 21/21/21
f 135/135/135 30/30/30 105/105/105
f 136/136/136 135/135/135 105/105/105
f 136/136/136 116/116/116 135/135/135
f 135/135/135 116/116/116 30/30/30
f 137/137/137 138/138/138 139/139/139
f 137/137/137 126/126/126 138/138/138
f 140/140/140 138/138/138 126/126/126
f 140/140/140 139/139/139 138/138/138
f 141/141/141 126/126/126 119/119/119
f 118/118/118 141/141/141 119/119/119
f 118/118/118 140/140/140 141/141/141
f 141/141/141 140/140/140 126/126/126
f 142/142/142 117/117/117 129/129/129
f 143/143/143 142/142/142 129/129/129
f 143/143/143 122/122/122 142/142/142
f 142/142/142 122/122/122 117/117/117
f 144/144/144 9/9/9 145/145/145
f 146/146/146 144/144/144 145/145/145
f 146/146/146 7/7/7 144/144/144
f 144/144/144 7/7/7 9/9/9
f 134/134/134 147/147/147 148/148/148
f 134/134/134 21/21/21 147/147/147
f 20/20/20 147/147/147 21/21/21
f 20/20/20 148/148/148 147/147/147
f 149/149/149 126/126/126 137/137/137
f 108/108/108 149/149/149 137/137/137
f 108/108/108 123/123/123 149/149/149
f 149/149/149 123/123/123 126/126/126
f 117/117/117 119/119/119 150/150/150
f 150/150/150 119/119/119 110/110/110
f 31/31/31 25/25/25 69/69/69
f 56/56/56 55/55/55 80/80/80
f 45/45/45 46/46/46 84/84/84
f 81/81/81 46/46/46 18/18/18
f 60/60/60 86/86/86 81/81/81
f 49/49/49 88/88/88 76/76/76
f 57/57/57 56/56/56 91/91/91
f 54/54/54 57/57/57 73/73/73
f 56/56/56 61/61/61 91/91/91
f 64/64/64 61/61/61 60/60/60
f 45/45/45 50/50/50 41/41/41
f 151/151/151 116/116/116 136/136/136
f 9/9/9 116/116/116 151/151/151
f 145/145/145 9/9/9 151/151/151
f 145/145/145 151/151/151 136/136/136
f 117/117/117 150/150/150 109/109/109
f 150/150/150 110/110/110 109/109/109
f 25/25/25 28/28/28 69/69/69
g Canal11c1
s 1
f 152/152/152 153/153/153 154/154/154
f 155/155/155 156/156/156 157/157/157
f 158/158/158 159/159/159 160/160/160
f 158/158/158 160/160/160 156/156/156
f 161/161/161 156/156/156 160/160/160
f 161/161/161 160/160/160 159/159/159
f 162/162/162 163/163/163 164/164/164
f 165/165/165 163/163/163 162/162/162
f 165/165/165 162/162/162 166/166/166
f 162/162/162 164/164/164 166/166/166
f 166/166/166 164/164/164 167/167/167
f 166/166/166 167/167/167 168/168/168
f 167/167/167 157/157/157 168/168/168
f 164/164/164 157/157/157 167/167/167
f 169/169/169 170/170/170 171/171/171
f 169/169/169 171/171/171 159/159/159
f 172/172/172 159/159/159 171/171/171
f 173/173/173 159/159/159 158/158/158
f 172/172/172 171/171/171 170/170/170
f 174/174/174 175/175/175 172/172/172
f 175/175/175 159/159/159 172/172/172
f 175/175/175 161/161/161 159/159/159
f 174/174/174 161/161/161 175/175/175
f 168/168/168 176/176/176 152/152/152
f 176/176/176 177/177/177 152/152/152
f 176/176/176 157/157/157 177/177/177
f 168/168/168 157/157/157 176/176/176
f 178/178/178 179/179/179 177/177/177
f 180/180/180 179/179/179 178/178/178
f 180/180/180 178/178/178 181/181/181
f 178/178/178 177/177/177 181/181/181
f 179/179/179 154/154/154 153/153/153
f 164/164/164 158/158/158 155/155/155
f 152/152/152 177/177/177 153/153/153
f 164/164/164 155/155/155 157/157/157
f 155/155/155 158/158/158 156/156/156
f 179/179/179 153/153/153 177/177/177
f 164/164/164 173/173/173 158/158/158
f 173/173/173 169/169/169 159/159/159
f 182/182/182 161/161/161 183/183/183
f 183/183/183 161/161/161 174/174/174
f 184/184/184 183/183/183 174/174/174
f 184/184/184 182/182/182 183/183/183
f 185/185/185 182/182/182 184/184/184
f 186/186/186 185/185/185 184/184/184
f 186/186/186 187/187/187 185/185/185
f 185/185/185 187/187/187 182/182/182
f 188/188/188 156/156/156 161/161/161
f 163/163/163 173/173/173 164/164/164
f 182/182/182 188/188/188 161/161/161
f 182/182/182 181/181/181 188/188/188
f 188/188/188 181/181/181 156/156/156
f 187/187/187 189/189/189 182/182/182
f 187/187/187 180/180/180 189/189/189
f 189/189/189 180/180/180 181/181/181
f 182/182/182 189/189/189 181/181/181
f 181/181/181 190/190/190 156/156/156
f 157/157/157 156/156/156 190/190/190
f 157/157/157 190/190/190 177/177/177
f 181/181/181 177/177/177 190/190/190
