# Exported using wow.export v0.2.19
o 20736_WP_entryB.obj
v 159.39138793945312 -111.94525146484375 192.54617309570312
v 159.83673095703125 -111.256591796875 191.40753173828125
v 158.24485778808594 -112.77943420410156 193.4652557373047
v 156.3719482421875 -113.6500244140625 193.77835083007812
v 154.8491973876953 -114.44780731201172 194.2008056640625
v 156.161865234375 -114.04891967773438 194.5408935546875
v 156.92303466796875 -113.65000915527344 194.32943725585938
v 158.10433959960938 -112.45330810546875 192.5929412841797
v 158.3144073486328 -112.0544204711914 191.83041381835938
v 156.79208374023438 -112.85224914550781 192.25328063964844
v 157.21221923828125 -112.05447387695312 190.72821044921875
v 158.7345428466797 -111.25663757324219 190.30532836914062
v 157.63235473632812 -111.2566909790039 189.20314025878906
v 155.3443603515625 -112.92688751220703 191.0477752685547
v 155.244873046875 -112.85407257080078 190.70748901367188
v 154.2003631591797 -113.7619857788086 191.9700927734375
v 155.95179748535156 -114.44780731201172 195.3034210205078
v 156.58201599121094 -113.25113677978516 193.01580810546875
v 155.26934814453125 -113.6500244140625 192.67575073242188
v 158.34170532226562 -112.85407257080078 193.80430603027344
v 155.68948364257812 -112.85224914550781 191.15066528320312
v 161.30618286132812 -109.9286880493164 187.73597717285156
v 163.47207641601562 -109.9286880493164 188.7682647705078
v 161.87411499023438 -109.9286880493164 187.17031860351562
v 153.74659729003906 -114.44780731201172 193.09820556640625
v 155.05926513671875 -114.04891967773438 193.4382781982422
v 160.2761688232422 -109.9286880493164 185.5723876953125
v 159.1403045654297 -109.9286880493164 186.7036895751953
v 160.73825073242188 -109.9286880493164 188.3016357421875
v 157.4333953857422 -111.1110610961914 188.52256774902344
v 156.33914184570312 -111.9825668334961 189.61502075195312
v 162.336181640625 -109.9286880493164 189.89956665039062
v 156.14547729492188 -114.59708404541016 195.9815216064453
v 157.24359130859375 -113.72557830810547 194.89291381835938
v 160.83871459960938 -110.59271240234375 190.40582275390625
v 161.8406982421875 -109.92882537841797 189.40411376953125
v 159.736328125 -110.59275817871094 189.30343627929688
v 159.6359100341797 -109.9289321899414 187.19932556152344
v 151.67628479003906 -116.178955078125 195.1693878173828
v 153.813720703125 -115.31343078613281 195.2366943359375
v 153.880859375 -116.1790542602539 197.3751983642578
v 158.63412475585938 -110.59281158447266 188.20123291015625
v 157.89425659179688 -112.85220336914062 193.35546875
v 160.5379180908203 -111.1110610961914 191.62709045410156
v 154.71804809570312 -113.6500244140625 192.1244354248047
v 155.4794158935547 -113.25113677978516 191.9132080078125
v 153.05636596679688 -114.59708404541016 192.8924102783203
v 156.66091918945312 -112.05447387695312 190.17691040039062
v 158.52447509765625 -111.65553283691406 191.06787109375
v 158.68434143066406 -110.92472839355469 189.2532958984375
v 159.78652954101562 -110.92467498779297 190.35548400878906
v 153.69403076171875 -107.16038513183594 191.34335327148438
v 153.62144470214844 -107.94519805908203 191.27078247070312
v 154.64697265625 -107.88458251953125 190.10958862304688
v 158.83602905273438 -106.31494140625 194.2986602783203
v 158.69085693359375 -104.74531555175781 194.15347290039062
v 159.34878540039062 -105.49981689453125 193.7180633544922
v 160.00672912597656 -106.25431823730469 193.28262329101562
v 159.86154174804688 -104.6846923828125 193.13746643066406
v 153.54885864257812 -108.73001098632812 191.1981964111328
v 152.59591674804688 -108.00581359863281 192.43197631835938
v 159.40289306640625 -109.23221588134766 193.7721405029297
v 159.82455444335938 -110.53703308105469 193.1004638671875
v 158.81137084960938 -110.24505615234375 194.27398681640625
v 158.981201171875 -107.88456726074219 194.44381713867188
v 159.99440002441406 -108.21937561035156 193.27029418945312
v 154.6178741455078 -105.52994537353516 194.45391845703125
v 154.777587890625 -105.13763427734375 192.4269256591797
v 155.24679565429688 -104.91107177734375 192.8961181640625
v 159.0102996826172 -102.1482162475586 190.0994873046875
v 160.88706970214844 -103.05445098876953 191.9762725830078
v 157.75247192382812 -104.29220581054688 193.215087890625
v 155.87570190429688 -104.29219818115234 191.33831787109375
v 157.13351440429688 -103.05445098876953 188.22271728515625
v 154.9373016357422 -104.74531555175781 190.39993286132812
v 156.8140869140625 -103.83908081054688 192.27670288085938
v 156.8431854248047 -106.19371032714844 187.932373046875
v 155.89024353027344 -105.46951293945312 189.16615295410156
v 154.79214477539062 -106.31494903564453 190.2547607421875
v 154.30838012695312 -105.36418914794922 191.95773315429688
v 153.83920288085938 -105.59075164794922 191.488525390625
v 152.7410888671875 -106.43618774414062 192.57713317871094
v 155.74508666992188 -107.03914642333984 189.02098083496094
v 155.821533203125 -108.2193832397461 189.09742736816406
v 161.17742919921875 -106.1937026977539 192.2666015625
v 160.07931518554688 -107.03913879394531 193.35520935058594
v 156.7849884033203 -109.575439453125 196.6210479736328
v 156.6398162841797 -108.00581359863281 196.47586059570312
v 157.81051635742188 -107.9451904296875 195.45985412597656
v 157.66534423828125 -106.37556457519531 195.31466674804688
v 156.49464416503906 -106.43618774414062 196.3306884765625
v 157.59274291992188 -105.59075164794922 195.24208068847656
v 157.12356567382812 -105.36419677734375 194.77288818359375
v 155.45587158203125 -111.54986572265625 189.82513427734375
v 155.96670532226562 -110.53703308105469 189.24261474609375
v 154.79986572265625 -110.24505615234375 190.26248168945312
v 159.2330322265625 -111.54986572265625 193.60231018066406
v 156.4453125 -114.29640197753906 196.28135681152344
v 158.6415252685547 -112.56270599365234 194.10415649414062
v 158.49160766601562 -112.56270599365234 193.9542236328125
v 153.62530517578125 -109.91024780273438 191.27464294433594
v 157.79818725585938 -109.91024780273438 195.447509765625
v 157.88308715820312 -108.7300033569336 195.53244018554688
v 152.7565460205078 -114.29640197753906 192.5925750732422
v 154.94505310058594 -112.56270599365234 190.40765380859375
v 154.106201171875 -112.92313385009766 191.2088623046875
v 161.09249877929688 -107.35252380371094 192.1816864013672
v 161.00758361816406 -108.5113525390625 192.09677124023438
v 160.58590698242188 -107.20654296875 192.76844787597656
v 160.33114624023438 -110.68302154541016 192.51370239257812
v 160.83773803710938 -110.82901000976562 191.92694091796875
v 160.03538513183594 -111.18943786621094 192.76461791992188
v 156.14547729492188 -114.29640197753906 195.9815216064453
v 160.5379180908203 -110.82901000976562 191.62710571289062
v 160.5379180908203 -111.1110610961914 191.62709045410156
v 160.41607666015625 -109.5241928100586 192.59861755371094
v 157.83917236328125 -112.92314147949219 194.94183349609375
v 158.6415252685547 -112.56270599365234 194.10415649414062
v 156.4453125 -114.29640197753906 196.28135681152344
v 157.03683471679688 -113.2835693359375 195.77951049804688
v 157.6283416748047 -112.2707290649414 195.27767944335938
v 157.4333953857422 -111.1110610961914 188.52256774902344
v 157.4333953857422 -110.82901000976562 188.52256774902344
v 153.05636596679688 -114.29640197753906 192.8924102783203
v 158.43069458007812 -111.91029357910156 194.44000244140625
v 158.2198486328125 -111.25788879394531 194.7758331298828
v 152.99981689453125 -109.15272521972656 191.74249267578125
v 153.03802490234375 -109.74284362792969 191.78073120117188
v 152.4507598876953 -109.57544708251953 192.28680419921875
v 153.11447143554688 -110.92308807373047 191.85716247558594
v 156.61514282226562 -111.93592071533203 196.45120239257812
v 157.2066650390625 -110.92308044433594 195.94937133789062
v 157.12173461914062 -112.10332489013672 195.86444091796875
v 153.05636596679688 -114.59708404541016 192.8924102783203
v 155.244873046875 -112.85407257080078 190.70748901367188
v 156.5302276611328 -113.11616516113281 196.36627197265625
v 158.34170532226562 -112.85407257080078 193.80430603027344
v 157.29159545898438 -109.74284362792969 196.03427124023438
v 157.33404541015625 -109.15272521972656 196.07675170898438
v 157.7132568359375 -111.09048461914062 195.3625946044922
v 156.29470825195312 -111.18943786621094 189.02394104003906
v 157.13356018066406 -110.82901000976562 188.22274780273438
v 159.90948486328125 -109.37820434570312 193.1853790283203
v 153.1449737548828 -107.58309936523438 191.88766479492188
v 153.76661682128906 -106.37556457519531 191.41595458984375
v 155.55625915527344 -105.98306274414062 195.39230346679688
v 156.65435791015625 -105.13763427734375 194.30369567871094
v 156.1851806640625 -104.91107177734375 193.83450317382812
v 159.7396240234375 -111.69586181640625 193.0155487060547
v 159.7396240234375 -111.69586181640625 193.0155487060547
v 160.83773803710938 -110.82901000976562 191.92694091796875
v 155.81765747070312 -106.25433349609375 189.09356689453125
v 157.152587890625 -107.19068908691406 195.895263671875
v 158.1417999267578 -105.16802978515625 194.69778442382812
v 159.53025817871094 -107.46185302734375 193.89950561523438
v 157.13356018066406 -110.82901000976562 188.22274780273438
v 155.094970703125 -112.56270599365234 190.5575714111328
v 152.7565460205078 -114.29640197753906 192.5925750732422
v 156.33236694335938 -107.20654296875 188.514892578125
v 156.98837280273438 -108.51136016845703 188.0775604248047
v 156.4775390625 -109.52420043945312 188.66009521484375
v 154.94505310058594 -112.56270599365234 190.40765380859375
v 157.24359130859375 -113.72557830810547 194.89291381835938
v 156.14547729492188 -114.59708404541016 195.9815216064453
v 156.33914184570312 -111.9825668334961 189.61502075195312
v 153.7781982421875 -112.2707290649414 191.42752075195312
v 152.60365295410156 -111.93592834472656 192.439697265625
v 153.26736450195312 -113.2835693359375 192.01004028320312
v 154.28903198242188 -111.25788879394531 190.84500122070312
v 158.8962860107422 -109.06481170654297 194.35890197753906
v 156.55014038085938 -110.68302154541016 188.73268127441406
v 154.3616180419922 -112.41671752929688 190.91758728027344
v 153.67947387695312 -105.98306274414062 193.51553344726562
v 158.63412475585938 -110.59281158447266 188.20123291015625
v 159.6359100341797 -109.9289321899414 187.19932556152344
v 158.5135498046875 -109.16995239257812 188.08062744140625
v 158.39288330078125 -107.69697570800781 187.95999145507812
v 159.3947296142578 -107.08321380615234 186.9581298828125
v 158.48069763183594 -106.75334167480469 188.0478057861328
v 152.46861267089844 -112.474609375 193.88958740234375
v 151.43414306640625 -113.34017944335938 194.92449951171875
v 152.58969116210938 -113.89399719238281 194.0120391845703
v 153.50308227539062 -111.60904693603516 192.8546905517578
v 152.55615234375 -111.53056335449219 193.97714233398438
v 153.11715698242188 -110.6257553100586 193.50347900390625
v 153.6781768798828 -109.720947265625 193.02980041503906
v 151.60842895507812 -111.45533752441406 195.09719848632812
v 155.07302856445312 -111.5281982421875 196.49388122558594
v 155.161376953125 -112.47000885009766 196.5831298828125
v 153.94979858398438 -111.45195770263672 197.43992614746094
v 154.98422241210938 -110.58639526367188 196.40509033203125
v 156.0186309814453 -109.7208251953125 195.3702392578125
v 156.10743713378906 -110.66262817382812 195.45904541015625
v 156.1962432861328 -111.60443878173828 195.54783630371094
v 151.99514770507812 -112.43537139892578 194.45082092285156
v 162.08401489257812 -107.0844497680664 189.6474151611328
v 161.08148193359375 -107.69758605957031 190.6485595703125
v 160.99365234375 -106.75396728515625 190.5607452392578
v 160.90533447265625 -105.81124877929688 190.47244262695312
v 159.90328979492188 -106.42349243164062 191.4740753173828
v 160.4923858642578 -107.06053924560547 191.06130981445312
v 160.0789337158203 -108.31072998046875 191.64971923828125
v 157.9358673095703 -107.53203582763672 188.50482177734375
v 157.5650634765625 -106.42674255371094 189.13584899902344
v 157.3910369873047 -108.31072998046875 188.9618377685547
v 159.5703582763672 -105.19596099853516 187.13377380371094
v 158.56771850585938 -105.81135559082031 188.1348114013672
v 158.81387329101562 -105.19087219238281 188.3809814453125
v 152.24879455566406 -110.7119140625 194.70327758789062
v 152.1021728515625 -110.2127685546875 195.59011840820312
v 152.88916015625 -109.9684829711914 194.30935668945312
v 153.13604736328125 -109.34719848632812 194.55581665039062
v 154.16990661621094 -108.48162841796875 193.5215301513672
v 153.475830078125 -108.97085571289062 194.89559936523438
v 153.529541015625 -109.22505187988281 193.91543579101562
v 154.73977661132812 -109.96589660644531 196.15994262695312
v 154.4949951171875 -109.34540557861328 195.9151611328125
v 153.4609375 -110.21097564697266 196.9496612548828
v 155.01202392578125 -108.9126205444336 195.39791870117188
v 155.52906799316406 -108.4798355102539 194.88067626953125
v 154.46701049804688 -111.01918029785156 196.92251586914062
v 160.95980834960938 -109.11978149414062 190.52691650390625
v 160.3982696533203 -110.18818664550781 190.96722412109375
v 159.95782470703125 -109.78366088867188 191.52862548828125
v 159.83673095703125 -111.256591796875 191.40753173828125
v 160.83871459960938 -110.59271240234375 190.40582275390625
v 160.51937866210938 -108.71525573730469 191.08831787109375
v 157.95230102539062 -108.74034118652344 188.521240234375
v 157.51168823242188 -109.78370666503906 189.08248901367188
v 158.0729522705078 -110.21331787109375 188.64187622070312
v 157.63235473632812 -111.2566909790039 189.20314025878906
v 155.67880249023438 -112.03722381591797 196.06549072265625
v 156.0740203857422 -113.026123046875 195.42562866210938
v 153.04638671875 -112.75152587890625 193.43336486816406
v 153.62484741210938 -113.02842712402344 192.9764404296875
v 158.18946838378906 -105.80880737304688 188.7584228515625
v 158.0590362548828 -105.18253326416016 189.62982177734375
v 159.0608673095703 -104.56877136230469 188.62796020507812
v 159.3988494873047 -104.19636535644531 188.9659423828125
v 160.0626983642578 -103.95500183105469 187.62611389160156
v 159.43829345703125 -104.57293701171875 188.0035400390625
v 161.9073944091797 -105.19901275634766 189.47079467773438
v 160.6591796875 -105.1907730102539 190.22625732421875
v 159.4109649658203 -105.18253326416016 190.9817352294922
v 160.41371154785156 -104.5702896118164 189.9807891845703
v 160.15814208984375 -105.49688720703125 190.72708129882812
v 161.16055297851562 -104.88465118408203 189.72579956054688
v 161.4164581298828 -103.95804595947266 188.97984313964844
v 161.52191162109375 -108.10211181640625 190.087158203125
v 161.9623565673828 -108.50663757324219 189.5257568359375
v 154.16265869140625 -108.34989929199219 194.54833984375
v 154.84947204589844 -107.72893524169922 194.2010955810547
v 153.8155517578125 -108.59464263916016 195.23516845703125
v 152.78900146484375 -109.59181213378906 195.24285888671875
v 152.78163146972656 -109.4603500366211 196.26925659179688
v 153.6383056640625 -109.40287780761719 196.0922088623047
v 154.1553497314453 -108.9700927734375 195.57496643066406
v 154.67230224609375 -108.53723907470703 195.05792236328125
v 158.7349853515625 -104.4377212524414 190.30577087402344
v 159.73681640625 -103.82395935058594 189.30392456054688
v 160.07571411132812 -104.19788360595703 189.64280700683594
v 160.57662963867188 -103.89100646972656 189.14187622070312
v 160.73866271972656 -103.21018981933594 188.3020782470703
v 160.06875610351562 -103.70327758789062 188.63400268554688
v 158.95413208007812 -108.1265869140625 187.51937866210938
v 161.40025329589844 -109.52430725097656 189.96551513671875
v 161.8406982421875 -109.92882537841797 189.40411376953125
v 155.95179748535156 -114.44780731201172 195.3034210205078
v 153.880859375 -116.1790542602539 197.3751983642578
v 154.12649536132812 -113.33557891845703 197.61842346191406
v 151.67628479003906 -116.178955078125 195.1693878173828
v 153.74659729003906 -114.44780731201172 193.09820556640625
v 153.6781768798828 -109.720947265625 193.02980041503906
v 153.50308227539062 -111.60904693603516 192.8546905517578
v 152.8141632080078 -111.66200256347656 192.6501922607422
v 157.5650634765625 -106.42674255371094 189.13584899902344
v 157.44252014160156 -106.20189666748047 188.53170776367188
v 157.2064971923828 -108.28025817871094 188.29568481445312
v 158.0590362548828 -105.18253326416016 189.62982177734375
v 158.08352661132812 -104.62091827392578 189.17271423339844
v 162.94888305664062 -106.9171142578125 189.378662109375
v 163.56153869628906 -103.90553283691406 188.85775756835938
v 163.51681518554688 -106.9171142578125 188.81301879882812
v 154.84947204589844 -107.72893524169922 194.2010955810547
v 154.59547424316406 -107.061279296875 194.4315185546875
v 155.49929809570312 -108.0008544921875 195.3353271484375
v 158.7349853515625 -104.4377212524414 190.30577087402344
v 155.52906799316406 -108.4798355102539 194.88067626953125
v 158.98782348632812 -103.6795425415039 190.07701110839844
v 156.1381378173828 -109.58351135253906 195.9741973876953
v 156.0186309814453 -109.7208251953125 195.3702392578125
v 159.89163208007812 -104.61912536621094 190.98081970214844
v 156.3765411376953 -111.65739440917969 196.2126007080078
v 159.4109649658203 -105.18253326416016 190.9817352294922
v 159.90328979492188 -106.42349243164062 191.4740753173828
v 160.53048706054688 -106.20177459716797 191.61968994140625
v 160.0789337158203 -108.31072998046875 191.64971923828125
v 160.76889038085938 -108.27566528320312 191.85809326171875
v 162.42567443847656 -103.90553283691406 189.98904418945312
v 160.7382354736328 -101.92351531982422 188.30162048339844
v 161.8740997314453 -101.92351531982422 187.17034912109375
v 159.05081176757812 -103.90531158447266 186.6141815185547
v 160.1866455078125 -103.90531158447266 185.48289489746094
v 159.66348266601562 -106.91699981689453 186.09329223632812
v 159.09555053710938 -106.91699981689453 186.658935546875
v 159.1403045654297 -109.9286880493164 186.7036895751953
v 162.336181640625 -109.9286880493164 189.89956665039062
v 162.38092041015625 -106.9171142578125 189.94430541992188
v 160.5379180908203 -110.82901000976562 191.62710571289062
v 159.95782470703125 -109.78366088867188 191.52862548828125
v 159.83673095703125 -111.256591796875 191.40753173828125
v 153.62484741210938 -113.02842712402344 192.9764404296875
v 153.74659729003906 -114.44780731201172 193.09820556640625
v 153.05636596679688 -114.29640197753906 192.8924102783203
v 157.51168823242188 -109.78370666503906 189.08248901367188
v 157.4333953857422 -110.82901000976562 188.52256774902344
v 157.63235473632812 -111.2566909790039 189.20314025878906
v 157.3910369873047 -108.31072998046875 188.9618377685547
v 156.14547729492188 -114.29640197753906 195.9815216064453
v 155.95179748535156 -114.44780731201172 195.3034210205078
v 156.0740203857422 -113.026123046875 195.42562866210938
v 153.27972412109375 -112.95272827148438 192.87355041503906
v 157.4333953857422 -111.1110610961914 188.52256774902344
v 160.2761688232422 -109.9286880493164 185.5723876953125
v 160.23141479492188 -106.91699981689453 185.52764892578125
v 163.47207641601562 -109.9286880493164 188.7682647705078
v 153.6906280517578 -108.0026626586914 193.52667236328125
v 154.16990661621094 -108.48162841796875 193.5215301513672
v 153.04978942871094 -109.58363342285156 192.88583374023438
v 160.5379180908203 -111.1110610961914 191.62709045410156
v 156.17086791992188 -112.95042419433594 195.76467895507812
v 156.1962432861328 -111.60443878173828 195.54783630371094
v 160.65341186523438 -109.55233764648438 191.7425994873047
v 153.05636596679688 -114.59708404541016 192.8924102783203
v 156.10743713378906 -110.66262817382812 195.45904541015625
v 156.14547729492188 -114.59708404541016 195.9815216064453
v 156.98837280273438 -108.51136016845703 188.0775604248047
v 157.13356018066406 -110.82901000976562 188.22274780273438
v 157.2064971923828 -108.28025817871094 188.29568481445312
v 158.98782348632812 -103.6795425415039 190.07701110839844
v 159.89163208007812 -104.61912536621094 190.98081970214844
v 160.88706970214844 -103.05445098876953 191.9762725830078
v 153.6906280517578 -108.0026626586914 193.52667236328125
v 153.66827392578125 -106.74873352050781 193.50433349609375
v 154.59547424316406 -107.061279296875 194.4315185546875
v 153.67947387695312 -105.98306274414062 193.51553344726562
v 152.7410888671875 -106.43618774414062 192.57713317871094
v 156.1381378173828 -109.58351135253906 195.9741973876953
v 156.7849884033203 -109.575439453125 196.6210479736328
v 156.5807647705078 -110.61641693115234 196.4168243408203
v 160.83773803710938 -110.82901000976562 191.92694091796875
v 160.97315979003906 -107.23468017578125 192.06234741210938
v 160.76889038085938 -108.27566528320312 191.85809326171875
v 159.1403045654297 -109.9286880493164 186.7036895751953
v 159.09555053710938 -106.91699981689453 186.658935546875
v 159.3947296142578 -107.08321380615234 186.9581298828125
v 159.05081176757812 -103.90531158447266 186.6141815185547
v 160.65341186523438 -109.55233764648438 191.7425994873047
v 160.5379180908203 -110.82901000976562 191.62710571289062
v 157.44252014160156 -106.20189666748047 188.53170776367188
v 158.08352661132812 -104.62091827392578 189.17271423339844
v 156.8431854248047 -106.19371032714844 187.932373046875
v 161.17742919921875 -106.1937026977539 192.2666015625
v 160.53048706054688 -106.20177459716797 191.61968994140625
v 162.08401489257812 -107.0844497680664 189.6474151611328
v 162.42567443847656 -103.90553283691406 189.98904418945312
v 162.38092041015625 -106.9171142578125 189.94430541992188
v 162.336181640625 -109.9286880493164 189.89956665039062
v 155.54505920410156 -106.74873352050781 195.381103515625
v 155.99697875976562 -107.21852111816406 195.8330078125
v 155.49929809570312 -108.0008544921875 195.3353271484375
v 156.49464416503906 -106.43618774414062 196.3306884765625
v 161.9623565673828 -108.50663757324219 189.5257568359375
v 161.00758361816406 -108.5113525390625 192.09677124023438
v 156.61514282226562 -111.93592071533203 196.45120239257812
v 161.8406982421875 -109.92882537841797 189.40411376953125
v 156.6398162841797 -108.00581359863281 196.47586059570312
v 156.31639099121094 -108.00984954833984 196.15243530273438
v 161.09249877929688 -107.35252380371094 192.1816864013672
v 156.4453125 -114.29640197753906 196.28135681152344
v 156.3765411376953 -111.65739440917969 196.2126007080078
v 156.14547729492188 -114.29640197753906 195.9815216064453
v 157.4333953857422 -110.82901000976562 188.52256774902344
v 155.55625915527344 -105.98306274414062 195.39230346679688
v 161.9073944091797 -105.19901275634766 189.47079467773438
v 153.05636596679688 -114.29640197753906 192.8924102783203
v 152.7565460205078 -114.29640197753906 192.5925750732422
v 152.8141632080078 -111.66200256347656 192.6501922607422
v 154.6178741455078 -105.52994537353516 194.45391845703125
v 157.13351440429688 -103.05445098876953 188.22271728515625
v 152.4507598876953 -109.57544708251953 192.28680419921875
v 153.04978942871094 -109.58363342285156 192.88583374023438
v 152.60365295410156 -111.93592834472656 192.439697265625
v 161.4164581298828 -103.95804595947266 188.97984313964844
v 153.07069396972656 -108.78905487060547 192.90673828125
v 152.59591674804688 -108.00581359863281 192.43197631835938
v 160.7382354736328 -101.92351531982422 188.30162048339844
v 160.73866271972656 -103.21018981933594 188.3020782470703
v 160.0626983642578 -103.95500183105469 187.62611389160156
v 159.5703582763672 -105.19596099853516 187.13377380371094
v 159.6359100341797 -109.9289321899414 187.19932556152344
v 153.21585083007812 -107.21942138671875 193.05191040039062
v 156.5302276611328 -113.11616516113281 196.36627197265625
v 159.0102996826172 -102.1482162475586 190.0994873046875
vn -0.5767145752906799 0.8039082288742065 0.14536795020103455
vn -0.6117745041847229 0.693619966506958 0.3802936375141144
vn -0.4595922529697418 0.8841149210929871 -0.08435574173927307
vn -0.22589628398418427 0.9410331845283508 -0.25184810161590576
vn 0.21431146562099457 0.9541034698486328 -0.20918193459510803
vn -0.18273741006851196 0.9048851132392883 -0.38443470001220703
vn -0.29576316475868225 0.9060187935829163 -0.30274417996406555
vn -0.45494145154953003 0.8877848386764526 0.06975914537906647
vn -0.47214236855506897 0.8558787703514099 0.21107621490955353
vn -0.29735469818115234 0.954409122467041 0.026142138987779617
vn -0.34426239132881165 0.8889854550361633 0.30197396874427795
vn -0.4931516647338867 0.7306197881698608 0.4722248315811157
vn -0.3627465069293976 0.750163733959198 0.5528737306594849
vn -0.10600973665714264 0.8998478055000305 0.4231264293193817
vn -0.12302953004837036 0.8169937133789062 0.5633693337440491
vn 0.02830684930086136 0.9398141503334045 0.340511679649353
vn -0.1357869952917099 0.8499619364738464 -0.5090448260307312
vn -0.26436811685562134 0.9576560854911804 -0.11403602361679077
vn 0.12042003124952316 0.9886488914489746 0.08984565734863281
vn -0.46498903632164 0.8725621104240417 -0.14973483979701996
vn 0.0881355032324791 0.914201557636261 0.39555999636650085
vn 0.36404240131378174 0.899178683757782 -0.24279779195785522
vn -0.4606781005859375 0.7116685509681702 -0.5303806066513062
vn 0.046029068529605865 0.9977115988731384 -0.04952758550643921
vn 0.5165473222732544 0.845163106918335 0.13739797472953796
vn 0.1602880209684372 0.9850502014160156 -0.06311687082052231
vn 0.5265092253684998 0.7152661085128784 0.45954588055610657
vn 0.8107556700706482 0.585384726524353 -0.00007771090895403177
vn 0.49477696418762207 0.7144178748130798 -0.4947754740715027
vn -0.3834393322467804 0.5164217352867126 0.7656911015510559
vn -0.25978198647499084 0.683945894241333 0.6817120909690857
vn 0.00007593468035338446 0.5853905081748962 -0.8107514381408691
vn -0.11899939179420471 0.7813083529472351 -0.6126959919929504
vn -0.3053544759750366 0.8647719025611877 -0.39865803718566895
vn -0.5078171491622925 0.8381420969963074 -0.19909678399562836
vn -0.2172943502664566 0.6747416853904724 -0.705341637134552
vn 0.0618114247918129 0.9141326546669006 0.40067559480667114
vn 0.7043210864067078 0.6750566363334656 0.2196141630411148
vn 0.2393426150083542 0.6770342588424683 0.6959452033042908
vn -0.11681243032217026 0.9909307360649109 -0.06641584634780884
vn -0.6959790587425232 0.6769730448722839 -0.2394171804189682
vn 0.20617735385894775 0.8602752685546875 0.46628034114837646
vn -0.43465301394462585 0.897481381893158 -0.07485951483249664
vn -0.6517807841300964 0.6650776267051697 0.36449089646339417
vn 0.3124631643295288 0.9091322422027588 0.2754001319408417
vn 0.10560682415962219 0.9635514616966248 0.24579617381095886
vn 0.16187433898448944 0.9549096822738647 0.2488858550786972
vn -0.14190219342708588 0.86004239320755 0.4900926649570465
vn -0.4850957989692688 0.80301833152771 0.34618449211120605
vn -0.1549956053495407 0.8571903109550476 0.49112239480018616
vn -0.2940835654735565 0.8597187995910645 0.4176102578639984
vn 0.9008095264434814 -0.25685015320777893 0.35010042786598206
vn 0.889039158821106 -0.13658127188682556 0.43698400259017944
vn 0.7104710936546326 -0.01931309700012207 0.7034613490104675
vn -0.5897129774093628 -0.3362748622894287 -0.7342735528945923
vn -0.37794041633605957 -0.5875613689422607 -0.7154947519302368
vn -0.6416385173797607 -0.4075528383255005 -0.6497697234153748
vn -0.8099542260169983 -0.18401625752449036 -0.5568771958351135
vn -0.683992326259613 -0.47275105118751526 -0.5555727481842041
vn 0.8539479970932007 -0.018767215311527252 0.5200197100639343
vn 0.9639020562171936 -0.2379174381494522 0.11953308433294296
vn -0.7881307005882263 0.2889140248298645 -0.5434876084327698
vn -0.856377899646759 0.46472856402397156 -0.22504262626171112
vn -0.7043882012367249 0.3811802566051483 -0.598781168460846
vn -0.7001661062240601 -0.014238523319363594 -0.7138379812240601
vn -0.8572271466255188 0.1912788599729538 -0.47809427976608276
vn 0.531998872756958 -0.6588993072509766 -0.5318166017532349
vn 0.7038429975509644 -0.7052752375602722 -0.08480425179004669
vn 0.5864267349243164 -0.7821940183639526 -0.21041913330554962
vn -0.0338449701666832 -0.9988444447517395 0.034121327102184296
vn -0.737609326839447 -0.581122875213623 -0.3438439667224884
vn 0.029248246923089027 -0.8570691347122192 -0.5143706202507019
vn 0.569627046585083 -0.8104832172393799 0.1365358829498291
vn 0.338910311460495 -0.5802577137947083 0.7405678629875183
vn 0.7127466201782227 -0.5883792042732239 0.38184037804603577
vn 0.2765826880931854 -0.9204047322273254 -0.27632805705070496
vn 0.31778794527053833 -0.017289629206061363 0.9480041861534119
vn 0.576327383518219 -0.3387208878993988 0.743716835975647
vn 0.7775660157203674 -0.2921863794326782 0.5567929148674011
vn 0.7818012833595276 -0.6226934194564819 0.03224431350827217
vn 0.8324000239372253 -0.5316007137298584 0.1565595418214798
vn 0.8952069282531738 -0.43851804733276367 -0.07941309362649918
vn 0.5284605026245117 -0.018811499699950218 0.8487494587898254
vn 0.47555211186408997 0.1866093873977661 0.8596668243408203
vn -0.9466418027877808 -0.012774817645549774 -0.3220342695713043
vn -0.846384584903717 -0.01388363167643547 -0.5323913097381592
vn -0.3036710321903229 -0.012651446275413036 -0.9526929259300232
vn -0.11531390249729156 -0.23469890654087067 -0.9652042388916016
vn -0.4603763520717621 -0.17980781197547913 -0.869323194026947
vn -0.2704921066761017 -0.41255465149879456 -0.8698463439941406
vn 0.08283799141645432 -0.43681102991104126 -0.8957309722900391
vn -0.15274761617183685 -0.5302241444587708 -0.8339846730232239
vn 0.05846811830997467 -0.6749333739280701 -0.7355585098266602
vn 0.2774336338043213 0.5678260922431946 0.7749865055084229
vn 0.22499336302280426 0.4592103362083435 0.8593625426292419
vn 0.5979980826377869 0.3766493499279022 0.7074839472770691
vn -0.7714090943336487 0.5731480121612549 -0.27645862102508545
vn -0.25752657651901245 0.6644114851951599 -0.7015963196754456
vn -0.6689241528511047 0.6768527030944824 -0.3072635233402252
vn -0.7242922782897949 0.6772382259368896 -0.12941813468933105
vn 0.8209213018417358 0.1904817819595337 0.5383353233337402
vn -0.5343402624130249 0.1953454315662384 -0.8223872184753418
vn -0.515926718711853 -0.013820224441587925 -0.8565212488174438
vn 0.7038585543632507 0.6607741117477417 0.2606927454471588
vn 0.30928894877433777 0.6719112396240234 0.6729603409767151
vn 0.5211812257766724 0.6525307893753052 0.550067126750946
vn -0.9726439118385315 0.1175272986292839 -0.20037724077701569
vn -0.9670787453651428 0.24401505291461945 -0.0722169503569603
vn -0.910393476486206 0.0900890901684761 -0.4038163721561432
vn -0.8785274028778076 0.47729429602622986 -0.0194895938038826
vn -0.8629875183105469 0.46938377618789673 0.1868995577096939
vn -0.842187762260437 0.5372058749198914 -0.046148866415023804
vn 0.3694149851799011 0.48340922594070435 -0.7936297059059143
vn -0.7960125803947449 0.32068389654159546 0.5133476257324219
vn -0.6517807841300964 0.6650776267051697 0.36449089646339417
vn -0.9220778346061707 0.3541316092014313 -0.15608762204647064
vn -0.541778028011322 0.6630290150642395 -0.5165936946868896
vn -0.6689241528511047 0.6768527030944824 -0.3072635233402252
vn -0.25752657651901245 0.6644114851951599 -0.7015963196754456
vn -0.38202965259552 0.6093067526817322 -0.694837212562561
vn -0.49943333864212036 0.542879045009613 -0.6751657128334045
vn -0.3834393322467804 0.5164217352867126 0.7656911015510559
vn -0.5188422203063965 0.3211043179035187 0.7922719120979309
vn 0.7962638735771179 0.48289754986763 -0.36438143253326416
vn -0.6548519730567932 0.5750772356987 -0.4903621971607208
vn -0.6075559854507446 0.46636292338371277 -0.6429474949836731
vn 0.9087105393409729 -0.01810852810740471 0.417033851146698
vn 0.8987978100776672 0.08788909018039703 0.42946234345436096
vn 0.9511095881462097 -0.01720346137881279 0.3083740174770355
vn 0.8602713942527771 0.2757244110107422 0.428846150636673
vn -0.30098897218704224 0.34956058859825134 -0.8872503638267517
vn -0.4246886968612671 0.28038904070854187 -0.8608260154724121
vn -0.4064435660839081 0.45316869020462036 -0.7933736443519592
vn 0.16187433898448944 0.9549096822738647 0.2488858550786972
vn -0.12302953004837036 0.8169937133789062 0.5633693337440491
vn -0.2841109037399292 0.5157967805862427 -0.808229386806488
vn -0.46498903632164 0.8725621104240417 -0.14973483979701996
vn -0.4250771403312683 0.09267063438892365 -0.9004007577896118
vn -0.41260915994644165 -0.01332660298794508 -0.910810649394989
vn -0.5264273881912231 0.3759252429008484 -0.7625972032546997
vn 0.04709467664361 0.5317691564559937 0.8455789685249329
vn -0.18603885173797607 0.4641573429107666 0.8659951090812683
vn -0.8720676898956299 0.3338475525379181 -0.3578321635723114
vn 0.9391303062438965 -0.24918130040168762 0.23652294278144836
vn 0.8865692019462585 -0.3872731626033783 0.25301116704940796
vn 0.3233075439929962 -0.576171338558197 -0.7506656050682068
vn 0.18136414885520935 -0.7372972965240479 -0.6507685780525208
vn 0.29147669672966003 -0.7872993350028992 -0.5433242917060852
vn -0.7990965247154236 0.5979154109954834 -0.06278588622808456
vn -0.7990965247154236 0.5979154109954834 -0.06278588622808456
vn -0.8629875183105469 0.46938377618789673 0.1868995577096939
vn 0.5805372595787048 -0.16402219235897064 0.7975419759750366
vn -0.197933629155159 -0.32327738404273987 -0.9253724217414856
vn -0.2676299214363098 -0.5637075304985046 -0.7814140319824219
vn -0.7785782814025879 -0.01415750477463007 -0.6273878216743469
vn -0.18603885173797607 0.4641573429107666 0.8659951090812683
vn 0.1274595856666565 0.6764258146286011 0.7253978252410889
vn 0.7038585543632507 0.6607741117477417 0.2606927454471588
vn 0.40040460228919983 0.08545693755149841 0.9123449325561523
vn 0.07034609466791153 0.238600492477417 0.9685665965080261
vn 0.15507902204990387 0.34858599305152893 0.9243582487106323
vn 0.30928894877433777 0.6719112396240234 0.6729603409767151
vn -0.3053544759750366 0.8647719025611877 -0.39865803718566895
vn -0.11899939179420471 0.7813083529472351 -0.6126959919929504
vn -0.25978198647499084 0.683945894241333 0.6817120909690857
vn 0.6760320067405701 0.5387163758277893 0.502757728099823
vn 0.8875464200973511 0.3451418876647949 0.30518603324890137
vn 0.6964409947395325 0.6053917407989502 0.3853191137313843
vn 0.6430124044418335 0.4619918465614319 0.6108179092407227
vn -0.7176573276519775 0.18748894333839417 -0.6706830859184265
vn 0.019902266561985016 0.4717581868171692 0.8815032839775085
vn 0.508276641368866 0.6123161911964417 0.6055771708488464
vn 0.7506576180458069 -0.5772010684013367 -0.3214842975139618
vn 0.20617735385894775 0.8602752685546875 0.46628034114837646
vn 0.7043210864067078 0.6750566363334656 0.2196141630411148
vn 0.457364559173584 0.5802614092826843 0.6738800406455994
vn 0.4734441936016083 -0.007240157574415207 0.880794107913971
vn 0.9499607682228088 -0.0051611727103590965 0.3123265206813812
vn 0.5043475031852722 -0.19755259156227112 0.8405989408493042
vn 0.7938728332519531 -0.0046999165788292885 0.6080657243728638
vn 0.0022365404292941093 -0.0030078759882599115 0.9999929666519165
vn 0.8319649696350098 0.4654094874858856 0.3020399212837219
vn 0.9660518169403076 -0.0027246223762631416 -0.2583339512348175
vn 0.8251610398292542 -0.10556801408529282 0.5549455881118774
vn 0.9873148202896118 -0.12477105110883713 0.09819069504737854
vn 0.9171657562255859 -0.1146170124411583 -0.38166725635528564
vn 0.06444921344518661 -0.23874032497406006 0.968942403793335
vn -0.5537219047546387 -0.190974622964859 -0.8105064630508423
vn -0.6048679351806641 -0.005074181593954563 -0.7963096499443054
vn -0.96885085105896 -0.23944909870624542 -0.06318359822034836
vn -0.4852791726589203 -0.2951144278049469 -0.8230501413345337
vn 0.393473356962204 -0.11045712232589722 -0.9126762747764587
vn 0.33167970180511475 -0.056683916598558426 -0.9416877031326294
vn 0.2673811912536621 -0.0024826410226523876 -0.9635876417160034
vn 0.46885696053504944 -0.061526115983724594 0.8811286687850952
vn -0.3104766607284546 -0.005033174529671669 -0.9505676627159119
vn -0.877788245677948 -0.005435079801827669 -0.47901803255081177
vn -0.8635015487670898 -0.1135597676038742 -0.49139511585235596
vn -0.8053732514381409 -0.30092161893844604 -0.5107055306434631
vn -0.9602056741714478 -0.1620752513408661 0.22745710611343384
vn -0.9867487549781799 -0.08992990106344223 -0.13505345582962036
vn -0.9674059748649597 -0.0028792049270123243 0.2532140910625458
vn 0.1313922107219696 -0.1107180044054985 0.9851282835006714
vn -0.2387220412492752 -0.1581653207540512 0.9581208229064941
vn -0.2635745406150818 -0.005335405934602022 0.964624285697937
vn 0.9484612941741943 -0.26293426752090454 0.17688047885894775
vn 0.5057604312896729 -0.3000757098197937 0.8088022470474243
vn 0.47970789670944214 -0.5089820623397827 0.7147150039672852
vn 0.4974634349346161 -0.361512690782547 0.7885675430297852
vn 0.04421694949269295 -0.53202885389328 0.8455709218978882
vn 0.8135192394256592 -0.39928996562957764 0.42279288172721863
vn 0.7357075810432434 -0.6126806735992432 0.28871583938598633
vn 0.8424934148788452 -0.20640350878238678 -0.4975966215133667
vn 0.6882995367050171 -0.7100420594215393 0.14860694110393524
vn 0.9383090734481812 -0.34319040179252625 -0.042384352535009384
vn -0.36549967527389526 -0.5194584131240845 -0.7723813652992249
vn -0.2834160625934601 -0.6111369132995605 -0.7390446066856384
vn -0.8455947041511536 -0.5321104526519775 -0.04275570064783096
vn 0.12541167438030243 -0.4522143304347992 -0.8830481171607971
vn 0.5075100064277649 -0.19690977036952972 -0.8388445377349854
vn -0.8147105574607849 -0.29950180649757385 -0.4965333044528961
vn -0.8255534172058105 0.46818453073501587 -0.3150631785392761
vn -0.7772229313850403 0.628235936164856 0.03527282178401947
vn -0.8599453568458557 0.37614405155181885 0.3449777066707611
vn -0.6117745041847229 0.693619966506958 0.3802936375141144
vn -0.5078171491622925 0.8381420969963074 -0.19909678399562836
vn -0.9673969745635986 0.251056969165802 -0.03337087109684944
vn 0.11091311275959015 0.3290511667728424 0.9377759099006653
vn -0.347428560256958 0.4131661057472229 0.8417761921882629
vn 0.05221298336982727 0.7341671586036682 0.6769582629203796
vn -0.3627465069293976 0.750163733959198 0.5528737306594849
vn -0.188331738114357 -0.004217023495584726 -0.9820963144302368
vn 0.07721908390522003 0.49729835987091064 -0.8641363382339478
vn 0.9681808352470398 0.2491426318883896 0.023534420877695084
vn 0.8672650456428528 0.4927949905395508 -0.07074302434921265
vn 0.13262741267681122 -0.3671669363975525 0.9206510782241821
vn -0.2410699725151062 -0.39490824937820435 0.886528491973877
vn 0.4474177956581116 -0.6468046307563782 0.6176254153251648
vn 0.24338455498218536 -0.91834557056427 0.3120984435081482
vn 0.8630809187889099 -0.5042950510978699 -0.027890801429748535
vn 0.7390085458755493 -0.5576605796813965 0.3779961168766022
vn -0.17687225341796875 -0.26278531551361084 -0.9485041499137878
vn -0.7388100028038025 -0.45689740777015686 -0.4953833222389221
vn -0.8879213929176331 -0.3957079350948334 0.2345438450574875
vn -0.6169764995574951 -0.6449781656265259 -0.4509357810020447
vn -0.9144524931907654 -0.37621015310287476 -0.14913927018642426
vn -0.4297254681587219 -0.4913896918296814 -0.7575435042381287
vn 0.027503924444317818 -0.5037598609924316 -0.8634058237075806
vn -0.6445053815841675 0.2627602517604828 -0.7180319428443909
vn -0.2833595871925354 0.3595656454563141 -0.889055609703064
vn 0.7873231172561646 -0.5344782471656799 -0.3073357343673706
vn 0.6906874179840088 -0.2260901927947998 -0.6869018077850342
vn 0.28573480248451233 -0.9163002967834473 -0.28062328696250916
vn 0.4182252287864685 -0.7091518640518188 0.5676190257072449
vn -0.3493596911430359 -0.8684865832328796 0.35168009996414185
vn -0.3822918236255646 -0.8939153552055359 -0.2340264767408371
vn 0.133785218000412 -0.9012582898139954 -0.41211047768592834
vn 0.448965460062027 -0.6300612688064575 -0.6336030960083008
vn -0.59530109167099 -0.5497531294822693 0.585993230342865
vn -0.05842914432287216 -0.9970111846923828 0.050545431673526764
vn -0.46218299865722656 -0.8575523495674133 -0.2258119285106659
vn -0.01811620220541954 -0.8791617751121521 -0.4761790633201599
vn 0.5237239599227905 -0.6716098785400391 -0.5240738391876221
vn 0.4314402937889099 -0.8942292332649231 -0.1192200630903244
vn 0.7766028642654419 0.31735697388648987 0.5442173480987549
vn -0.5626717805862427 0.6166694760322571 -0.5505626201629639
vn -0.2172943502664566 0.6747416853904724 -0.705341637134552
vn -0.1357869952917099 0.8499619364738464 -0.5090448260307312
vn -0.6959790587425232 0.6769730448722839 -0.2394171804189682
vn -0.9999929070472717 -0.0036631713155657053 -0.0008969336631707847
vn 0.2393426150083542 0.6770342588424683 0.6959452033042908
vn 0.5165473222732544 0.845163106918335 0.13739797472953796
vn 0.9171657562255859 -0.1146170124411583 -0.38166725635528564
vn 0.9660518169403076 -0.0027246223762631416 -0.2583339512348175
vn 0.4250693619251251 0.0072834426537156105 -0.905131459236145
vn -0.2387220412492752 -0.1581653207540512 0.9581208229064941
vn -0.8994653224945068 0.1172768697142601 0.4209611415863037
vn -0.9104458689689636 0.007602990604937077 0.41355836391448975
vn -0.2410699725151062 -0.39490824937820435 0.886528491973877
vn -0.8471585512161255 0.22819450497627258 0.479843407869339
vn -0.4179951250553131 0.21425937116146088 -0.8828210234642029
vn -0.48064124584198 -0.36770498752593994 -0.7961011528968811
vn -0.5662029385566711 0.20689384639263153 -0.7978779077529907
vn 0.6906874179840088 -0.2260901927947998 -0.6869018077850342
vn 0.6750626564025879 0.3066510856151581 -0.6710108518600464
vn 0.856191873550415 0.23961666226387024 -0.45773282647132874
vn -0.59530109167099 -0.5497531294822693 0.585993230342865
vn 0.5075100064277649 -0.19690977036952972 -0.8388445377349854
vn -0.6817916035652161 0.27469807863235474 0.6780126690864563
vn 0.9070674777030945 0.12793980538845062 -0.4010736048221588
vn 0.393473356962204 -0.11045712232589722 -0.9126762747764587
vn -0.4910615384578705 0.2124514877796173 0.8448212146759033
vn 0.9123619198799133 0.00914670154452324 -0.409282386302948
vn -0.8879213929176331 -0.3957079350948334 0.2345438450574875
vn -0.9602056741714478 -0.1620752513408661 0.22745710611343384
vn -0.432678759098053 0.11544439941644669 0.8941262364387512
vn -0.9674059748649597 -0.0028792049270123243 0.2532140910625458
vn -0.4283408522605896 0.007257298566401005 0.9035881161689758
vn -0.21921102702617645 -0.36316540837287903 -0.9055702090263367
vn 0.3853178024291992 -0.8384653925895691 -0.38536471128463745
vn 0.2553206980228424 -0.9325239062309265 -0.25536343455314636
vn 0.9055671691894531 -0.3631925582885742 0.21917866170406342
vn 0.7962790131568909 -0.3678978681564331 0.48019886016845703
vn 0.9501969218254089 0.12859420478343964 0.28388285636901855
vn 0.9838708639144897 0.1273702085018158 0.12559817731380463
vn 0.8107556700706482 0.585384726524353 -0.00007771090895403177
vn 0.00007593468035338446 0.5853905081748962 -0.8107514381408691
vn -0.12561723589897156 0.12738855183124542 -0.9838660955429077
vn -0.7960125803947449 0.32068389654159546 0.5133476257324219
vn -0.8599453568458557 0.37614405155181885 0.3449777066707611
vn -0.6117745041847229 0.693619966506958 0.3802936375141144
vn 0.8672650456428528 0.4927949905395508 -0.07074302434921265
vn 0.5165473222732544 0.845163106918335 0.13739797472953796
vn 0.7962638735771179 0.48289754986763 -0.36438143253326416
vn -0.347428560256958 0.4131661057472229 0.8417761921882629
vn -0.5188422203063965 0.3211043179035187 0.7922719120979309
vn -0.3627465069293976 0.750163733959198 0.5528737306594849
vn -0.2635745406150818 -0.005335405934602022 0.964624285697937
vn 0.3694149851799011 0.48340922594070435 -0.7936297059059143
vn -0.1357869952917099 0.8499619364738464 -0.5090448260307312
vn 0.07721908390522003 0.49729835987091064 -0.8641363382339478
vn 0.9132153987884521 0.24882107973098755 -0.32268521189689636
vn -0.3834393322467804 0.5164217352867126 0.7656911015510559
vn 0.5265092253684998 0.7152661085128784 0.45954588055610657
vn 0.7971564531326294 0.20933572947978973 0.566321611404419
vn -0.4606781005859375 0.7116685509681702 -0.5303806066513062
vn 0.4660078287124634 0.24171240627765656 -0.8511238694190979
vn 0.8424934148788452 -0.20640350878238678 -0.4975966215133667
vn 0.42049694061279297 0.11874684691429138 -0.8994895815849304
vn -0.6517807841300964 0.6650776267051697 0.36449089646339417
vn 0.3299589157104492 0.24919435381889343 -0.9105104207992554
vn 0.2673811912536621 -0.0024826410226523876 -0.9635876417160034
vn -0.6440137028694153 0.17249810695648193 0.7453125715255737
vn 0.16187433898448944 0.9549096822738647 0.2488858550786972
vn 0.33167970180511475 -0.056683916598558426 -0.9416877031326294
vn -0.11899939179420471 0.7813083529472351 -0.6126959919929504
vn 0.07034609466791153 0.238600492477417 0.9685665965080261
vn -0.18603885173797607 0.4641573429107666 0.8659951090812683
vn -0.9104458689689636 0.007602990604937077 0.41355836391448975
vn -0.6817916035652161 0.27469807863235474 0.6780126690864563
vn -0.4910615384578705 0.2124514877796173 0.8448212146759033
vn -0.737609326839447 -0.581122875213623 -0.3438439667224884
vn 0.4660078287124634 0.24171240627765656 -0.8511238694190979
vn 0.8996838331222534 -0.07555299252271652 -0.4299543797969818
vn 0.6750626564025879 0.3066510856151581 -0.6710108518600464
vn 0.7506576180458069 -0.5772010684013367 -0.3214842975139618
vn 0.8952069282531738 -0.43851804733276367 -0.07941309362649918
vn 0.9070674777030945 0.12793980538845062 -0.4010736048221588
vn -0.3036710321903229 -0.012651446275413036 -0.9526929259300232
vn 0.4080219864845276 -0.002349325455725193 -0.9129689931869507
vn -0.8629875183105469 0.46938377618789673 0.1868995577096939
vn -0.9210017323493958 -0.0036957883276045322 0.38954100012779236
vn -0.4283408522605896 0.007257298566401005 0.9035881161689758
vn 0.8107556700706482 0.585384726524353 -0.00007771090895403177
vn 0.9838708639144897 0.1273702085018158 0.12559817731380463
vn 0.9499607682228088 -0.0051611727103590965 0.3123265206813812
vn 0.9055671691894531 -0.3631925582885742 0.21917866170406342
vn -0.6440137028694153 0.17249810695648193 0.7453125715255737
vn -0.7960125803947449 0.32068389654159546 0.5133476257324219
vn -0.8994653224945068 0.1172768697142601 0.4209611415863037
vn -0.8471585512161255 0.22819450497627258 0.479843407869339
vn 0.31778794527053833 -0.017289629206061363 0.9480041861534119
vn -0.9466418027877808 -0.012774817645549774 -0.3220342695713043
vn -0.432678759098053 0.11544439941644669 0.8941262364387512
vn -0.3104766607284546 -0.005033174529671669 -0.9505676627159119
vn -0.21921102702617645 -0.36316540837287903 -0.9055702090263367
vn -0.12561723589897156 0.12738855183124542 -0.9838660955429077
vn 0.00007593468035338446 0.5853905081748962 -0.8107514381408691
vn 0.43425503373146057 -0.07457786053419113 -0.8976975083351135
vn 0.5659963488578796 -0.11885808408260345 -0.8157946467399597
vn 0.856191873550415 0.23961666226387024 -0.45773282647132874
vn 0.08283799141645432 -0.43681102991104126 -0.8957309722900391
vn -0.2833595871925354 0.3595656454563141 -0.889055609703064
vn -0.9670787453651428 0.24401505291461945 -0.0722169503569603
vn -0.30098897218704224 0.34956058859825134 -0.8872503638267517
vn -0.2172943502664566 0.6747416853904724 -0.705341637134552
vn -0.11531390249729156 -0.23469890654087067 -0.9652042388916016
vn 0.5961753726005554 -0.1860191822052002 -0.7810068726539612
vn -0.9726439118385315 0.1175272986292839 -0.20037724077701569
vn -0.25752657651901245 0.6644114851951599 -0.7015963196754456
vn 0.9123619198799133 0.00914670154452324 -0.409282386302948
vn 0.3694149851799011 0.48340922594070435 -0.7936297059059143
vn -0.5188422203063965 0.3211043179035187 0.7922719120979309
vn 0.3233075439929962 -0.576171338558197 -0.7506656050682068
vn -0.17687225341796875 -0.26278531551361084 -0.9485041499137878
vn 0.7962638735771179 0.48289754986763 -0.36438143253326416
vn 0.7038585543632507 0.6607741117477417 0.2606927454471588
vn 0.4250693619251251 0.0072834426537156105 -0.905131459236145
vn 0.531998872756958 -0.6588993072509766 -0.5318166017532349
vn 0.338910311460495 -0.5802577137947083 0.7405678629875183
vn 0.9511095881462097 -0.01720346137881279 0.3083740174770355
vn 0.42049694061279297 0.11874684691429138 -0.8994895815849304
vn 0.8875464200973511 0.3451418876647949 0.30518603324890137
vn 0.027503924444317818 -0.5037598609924316 -0.8634058237075806
vn 0.9237960577011108 0.14635378122329712 -0.3538099527359009
vn 0.9639020562171936 -0.2379174381494522 0.11953308433294296
vn 0.3853178024291992 -0.8384653925895691 -0.38536471128463745
vn 0.5237239599227905 -0.6716098785400391 -0.5240738391876221
vn 0.8630809187889099 -0.5042950510978699 -0.027890801429748535
vn 0.9484612941741943 -0.26293426752090454 0.17688047885894775
vn 0.7043210864067078 0.6750566363334656 0.2196141630411148
vn 0.8197207450866699 -0.11851595342159271 -0.5603674650192261
vn -0.2841109037399292 0.5157967805862427 -0.808229386806488
vn -0.0338449701666832 -0.9988444447517395 0.034121327102184296
vt -3.592312812805176 -0.6152119636535645
vt -3.548192024230957 -0.7160166501998901
vt -3.577838182449341 -0.48375749588012695
vt -3.4785714149475098 -0.344640851020813
vt -3.408550262451172 -0.2208489179611206
vt -3.513730049133301 -0.2827446460723877
vt -3.5487146377563477 -0.3446406126022339
vt -3.5133817195892334 -0.5303287506103516
vt -3.4782233238220215 -0.5922248363494873
vt -3.408254384994507 -0.468433141708374
vt -3.337937355041504 -0.5922253131866455
vt -3.4079060554504395 -0.7160171270370483
vt -3.267620086669922 -0.7160176038742065
vt -3.2394046783447266 -0.4530186653137207
vt -3.2114179134368896 -0.46834325790405273
vt -3.225296974182129 -0.32151925563812256
vt -3.548888683319092 -0.22084856033325195
vt -3.4434127807617188 -0.4065370559692383
vt -3.33823299407959 -0.34464120864868164
vt -3.6055781841278076 -0.4683431386947632
vt -3.267915964126587 -0.4684333801269531
vt -3.407904624938965 -1.0431866645812988
vt -3.611288547515869 -1.1153252124786377
vt -3.4079036712646484 -1.1153254508972168
vt -3.268211841583252 -0.22084927558898926
vt -3.373391628265381 -0.2827451229095459
vt -3.204519033432007 -1.115325927734375
vt -3.2045199871063232 -0.9710477590560913
vt -3.407905101776123 -0.9710476398468018
vt -3.211646556854248 -0.7466665506362915
vt -3.2115321159362793 -0.6075048446655273
vt -3.6112899780273438 -0.9710476398468018
vt -3.6043686866760254 -0.19001984596252441
vt -3.604973316192627 -0.329181432723999
vt -3.5482096672058105 -0.8435311317443848
vt -3.548227310180664 -0.971045732498169
vt -3.407897472381592 -0.8435310125350952
vt -3.2676031589508057 -0.9710453748703003
vt -3.2682106494903564 0.04270666837692261
vt -3.4085490703582764 -0.08903074264526367
vt -3.548886299133301 0.042787909507751465
vt -3.267611503601074 -0.8435314893722534
vt -3.5485403537750244 -0.4684326648712158
vt -3.60678768157959 -0.746666431427002
vt -3.268064022064209 -0.3446413278579712
vt -3.303074359893799 -0.4065372943878174
vt -3.2111892700195312 -0.19001984596252441
vt -3.267767906188965 -0.5922255516052246
vt -3.4430646896362305 -0.654120922088623
vt -3.337758779525757 -0.7797743082046509
vt -3.4780447483062744 -0.7797738313674927
vt 0.34583327174186707 0.6479033529758453
vt 0.34583327174186707 0.5705051720142365
vt 0.5000000596046448 0.4932404160499573
vt 0.5 0.6492185294628143
vt 0.5 0.8040145039558411
vt 0.57708340883255 0.6882796883583069
vt 0.6541668176651001 0.5713630318641663
vt 0.6541668176651001 0.727340817451477
vt 0.34583327174186707 0.4931069612503052
vt 0.19166646897792816 0.6477699279785156
vt 0.57708340883255 0.3194936513900757
vt 0.6541668176651001 0.14717018604278564
vt 0.5 0.26148903369903564
vt 0.5 0.49324071407318115
vt 0.6541668176651001 0.3774982690811157
vt 0.19166645407676697 1.0192753076553345
vt 0.3458332419395447 0.9116449505090714
vt 0.3458332419395447 0.9658222049474716
vt 0.8083335757255554 1.0192753076553345
vt 0.8083335757255554 0.8054631352424622
vt 0.5 0.9109205901622772
vt 0.5 0.9123691022396088
vt 0.8083336353302002 0.8054628968238831
vt 0.5000000596046448 0.8040145933628082
vt 0.5 1.0192753076553345
vt 0.8083336353302002 0.4935072660446167
vt 0.6541668176651001 0.6487609148025513
vt 0.5000000596046448 0.648036777973175
vt 0.3458332419395447 0.8574676960706711
vt 0.34583327174186707 0.8032904416322708
vt 0.19166646897792816 0.8025662899017334
vt 0.6541668176651001 0.4933738708496094
vt 0.6541668176651001 0.37749814987182617
vt 0.8083335757255554 0.4935075044631958
vt 0.6541668176651001 0.4933741092681885
vt 0.1916664093732834 0.4929739236831665
vt 0.19166642427444458 0.6477698981761932
vt 0.3458332121372223 0.5710962414741516
vt 0.3458332121372223 0.725892186164856
vt 0.19166642427444458 0.80256587266922
vt 0.3458332121372223 0.8032901883125305
vt 0.3458332121372223 0.8567432314157486
vt 0.5770834684371948 0.0891655683517456
vt 0.6541668176651001 0.14717018604278564
vt 0.5000000596046448 0.26148903369903564
vt 0.57708340883255 0.0891655683517456
vt -0.14139015972614288 0.053645312786102295
vt -0.14615190029144287 1.0263232588768005
vt -0.0709969773888588 1.026323139667511
vt 0.34583327174186707 0.37723129987716675
vt 0.3458331823348999 0.3772314786911011
vt 0.3458331823348999 0.49310731887817383
vt 0.19166646897792816 0.029470860958099365
vt 0.5000000596046448 0.031161069869995117
vt 0.3843749761581421 0.0593181848526001
vt 0.8083335757255554 0.37834346294403076
vt 0.8083335757255554 0.2631794214248657
vt 0.7312501668930054 0.43550288677215576
vt 0.7312501668930054 0.09001076221466064
vt 0.8083335757255554 0.03285139799118042
vt 0.6927084922790527 0.061008453369140625
vt 0.008921929635107517 0.05364549160003662
vt -0.000603790394961834 1.9990010261535645
vt 0.14879629015922546 2.002628803253174
vt 0.7312501668930054 0.20517480373382568
vt 0.3843749165534973 0.05931806564331055
vt 0.5 0.031161010265350342
vt 0.19166642427444458 0.029470622539520264
vt 0.26874983310699463 0.08747518062591553
vt 0.3458332121372223 0.14547979831695557
vt 0.08093850314617157 1.999000906944275
vt 0.0038320557214319706 1.999000906944275
vt 0.002179001225158572 0.001000821590423584
vt 0.46145832538604736 0.11732268333435059
vt 0.42291659116744995 0.2034844160079956
vt 0.268749862909317 0.4930402636528015
vt 0.268749862909317 0.4351024627685547
vt 0.19166646897792816 0.49297356605529785
vt 0.268749862909317 0.3192267417907715
vt 0.19166642427444458 0.261222243309021
vt 0.26874980330467224 0.31922686100006104
vt 0.26874983310699463 0.20335102081298828
vt 0.0792844295501709 0.0009990334510803223
vt 0.08011146634817123 0.9999999403953552
vt 0.19166642427444458 0.14534640312194824
vt 0.15355968475341797 1.0283198356628418
vt 0.26874980330467224 0.4351027011871338
vt 0.26874980330467224 0.49304062128067017
vt 0.3458331823348999 0.2613556385040283
vt 0.6927085518836975 0.061008453369140625
vt 0.8083336353302002 0.03285127878189087
vt 0.6541668176651001 0.2623342275619507
vt 0.268749862909317 0.6478366255760193
vt 0.34583327174186707 0.7253015339374542
vt 0.19166643917560577 0.9109205901622772
vt 0.3458332419395447 0.9109205901622772
vt 0.3458332419395447 0.9650979489088058
vt 0.6541668176651001 0.03200620412826538
vt -0.14853276312351227 1.5126621723175049
vt -0.15091362595558167 1.999001145362854
vt 0.6541668176651001 0.5707720220088959
vt 0.26874983310699463 0.6868310570716858
vt 0.42291659116744995 0.8036523461341858
vt 0.57708340883255 0.4933074116706848
vt -0.13436934351921082 1.999000906944275
vt -0.06609798222780228 1
vt -0.13602802157402039 0.0009990930557250977
vt 0.7312502264976501 0.43550270795822144
vt 0.8083336353302002 0.26317930221557617
vt 0.7312502264976501 0.20517468452453613
vt -0.1351986825466156 1
vt 0.15594139695167542 0.5411653518676758
vt 0.15832309424877167 0.054010868072509766
vt 0.0805249810218811 1.499500423669815
vt 0.3458332419395447 0.14547991752624512
vt 0.19166646897792816 0.261222243309021
vt 0.268749862909317 0.08747541904449463
vt 0.4229166507720947 0.20348447561264038
vt 0.5 0.3773648738861084
vt 0.7312502264976501 0.09001076221466064
vt 0.4229166507720947 0.08832049369812012
vt 0.19166645407676697 0.9109207987785339
vt -0.32033389806747437 0.002392590045928955
vt -0.32084813714027405 0.38132166862487793
vt -0.023557186126708984 0.002392888069152832
vt 0.28367361426353455 0.002393186092376709
vt 0.2727052867412567 0.3813222646713257
vt 0.5104901790618896 0.002392888069152832
vt 0.28367361426353455 0.002393186092376709
vt 0.2946419417858124 -0.37653589248657227
vt -0.023557186126708984 0.002392888069152832
vt 0.2727052867412567 0.3813222646713257
vt 0.5104901790618896 0.002392888069152832
vt 0.6184142827987671 0.19185727834701538
vt 0.7263384461402893 0.38132166862487793
vt 0.7475971579551697 -0.37653589248657227
vt 0.5103610157966614 0.0023935437202453613
vt 0.28354430198669434 0.002393066883087158
vt 0.7482753992080688 -0.3765350580215454
vt 0.7369886636734009 0.0023935437202453613
vt 0.7257019877433777 0.38132214546203613
vt 0.4990743398666382 0.38132214546203613
vt 0.2724466621875763 0.38132214546203613
vt 0.4025660753250122 -0.1870715618133545
vt 0.2724466621875763 0.38132214546203613
vt 0.28354430198669434 0.002393066883087158
vt 0.5103610157966614 0.0023935437202453613
vt 0.7369886636734009 0.0023935437202453613
vt 0.7482753992080688 -0.3765350580215454
vt 0.5159098505973816 -0.18707096576690674
vt 0.2946419417858124 -0.3765360116958618
vt 0.4025660753250122 -0.1870715618133545
vt 0.7475971579551697 -0.37653589248657227
vt 0.2946419417858124 -0.37653589248657227
vt 0.7263384461402893 0.38132166862487793
vt 0.7369678020477295 0.002392888069152832
vt 0.8800216913223267 0.0023928284645080566
vt 0.8138093948364258 -0.1870715618133545
vt 1.034382700920105 -0.37653660774230957
vt 0.8800216913223267 0.0023928284645080566
vt 1.0234143733978271 0.0023924708366394043
vt 1.0124461650848389 0.3813215494155884
vt 1.1883583068847656 0.0023924708366394043
vt 0.9462339282035828 0.1918572187423706
vt 0.880042314529419 0.0023935437202453613
vt 1.0230979919433594 0.0023939013481140137
vt 1.034382700920105 -0.3765350580215454
vt 1.0174555778503418 0.1918584108352661
vt 1.0118131637573242 0.38132286071777344
vt 0.7426320314407349 -0.18707072734832764
vt -0.013092488050460815 0.002393066883087158
vt -0.16644532978534698 -0.1870722770690918
vt -0.012578129768371582 -0.37653684616088867
vt -0.31979817152023315 -0.376537561416626
vt -0.3203125596046448 0.002392292022705078
vt 0.14077472686767578 -0.18707144260406494
vt 0.1355423778295517 -0.1870715618133545
vt -0.012588858604431152 -0.37653613090515137
vt -0.17168842256069183 -0.1870718002319336
vt -0.3198196589946747 -0.37653648853302
vt 0.2779954671859741 0.19185757637023926
vt -0.024190157651901245 0.38132214546203613
vt 0.12457405030727386 0.19185757637023926
vt -0.024071425199508667 0.3813219666481018
vt 0.8138093948364258 -0.1870715618133545
vt 1.034382700920105 -0.37653660774230957
vt 1.0234143733978271 0.0023924708366394043
vt 1.1883583068847656 0.0023924708366394043
vt 1.0124461650848389 0.3813215494155884
vt 0.9462339282035828 0.1918572187423706
vt 0.7257019877433777 0.38132214546203613
vt 0.880042314529419 0.0023935437202453613
vt 1.034382700920105 -0.3765350580215454
vt 1.0230979919433594 0.0023939013481140137
vt 0.8856856822967529 -0.18707072734832764
vt 0.8744000196456909 0.19185805320739746
vt 1.0118131637573242 0.38132286071777344
vt 0.12967708706855774 0.19185757637023926
vt -0.024190157651901245 0.38132214546203613
vt 1.2653460502624512 0.1918569803237915
vt 1.3423337936401367 0.3813215494155884
vt 1.3533021211624146 0.0023924708366394043
vt 1.11137056350708 -0.1870720386505127
vt 1.3642704486846924 -0.37653660774230957
vt 1.1936842203140259 -0.1870713233947754
vt 1.1880418062210083 0.0023931264877319336
vt 1.1825575828552246 0.1918576955795288
vt 1.3642704486846924 -0.37653660774230957
vt 1.3533021211624146 0.0023924708366394043
vt 1.1880418062210083 0.0023931264877319336
vt 1.1825575828552246 0.1918576955795288
vt 1.3423337936401367 0.3813215494155884
vt 1.2653460502624512 0.1918569803237915
vt 0.12457405030727386 0.19185757637023926
vt -0.1669597178697586 0.19185757637023926
vt -0.3208269476890564 0.38132214546203613
vt -0.3208269476890564 0.38132214546203613
vt -0.31979817152023315 -0.376537561416626
vt 0.2946419417858124 -0.3765360116958618
vt -0.3198196589946747 -0.37653648853302
vt -0.32084813714027405 0.38132166862487793
vt 0.8343896865844727 0.6814522743225098
vt 0.8343884944915771 0.30600297451019287
vt 0.996999979019165 0.29547250270843506
vt 0.8343896865844727 0.6814522743225098
vt 0.996999979019165 0.7087569236755371
vt 0.996999979019165 0.29547250270843506
vt 0.8343898057937622 0.927891731262207
vt 0.996999979019165 1.0231353044509888
vt 0.9187569618225098 -0.1442396640777588
vt 0.8394632339477539 0.09348750114440918
vt 0.8394632339477539 -0.1442394256591797
vt 0.8343899250030518 1.0775648355484009
vt 0.996999979019165 1.2103294134140015
vt 0.996999979019165 1.023492693901062
vt 0.8343899250030518 1.0775648355484009
vt 0.8343867063522339 0.9282493591308594
vt 0.996999979019165 1.2103294134140015
vt 0.996999979019165 0.7087811231613159
vt 0.8343884944915771 0.6814767122268677
vt 0.996999979019165 1.023492693901062
vt 0.996999979019165 0.2963876724243164
vt 0.8343867063522339 0.9282493591308594
vt 0.8343884944915771 0.6814767122268677
vt 0.996999979019165 0.7087811231613159
vt 0.8343885540962219 0.30691850185394287
vt 0.996999979019165 0.2963876724243164
vt 0.9980506300926208 0.09348702430725098
vt 0.9980503916740417 0.4937918186187744
vt 0.8394632339477539 0.49379217624664307
vt 0.9980500340461731 0.09352433681488037
vt 0.8394632339477539 0.09352469444274902
vt 0.9187566041946411 -0.14422094821929932
vt 0.9980500340461731 -0.14422106742858887
vt 0.9980500340461731 -0.38196659088134766
vt 0.9980506300926208 -0.38196659088134766
vt 0.9980506300926208 -0.14423978328704834
vt 0.996999979019165 -0.22838068008422852
vt 0.8343902826309204 0.02421504259109497
vt 0.8343919515609741 -0.25848841667175293
vt 0.8343873620033264 0.02375727891921997
vt 0.8343862295150757 -0.25848841667175293
vt 0.996999979019165 -0.2283802032470703
vt 0.8343873620033264 0.02375727891921997
vt 0.996999979019165 -0.2283802032470703
vt 0.8343862295150757 -0.25848841667175293
vt 0.8343884944915771 0.30600297451019287
vt 0.996999979019165 -0.22838068008422852
vt 0.8343919515609741 -0.25848841667175293
vt 0.8343902826309204 0.02421504259109497
vt 0.9156942367553711 0.03881138563156128
vt 0.996999979019165 -0.28817200660705566
vt 0.8394632339477539 -0.38196611404418945
vt 0.8394632339477539 -0.14422070980072021
vt 0.8394632339477539 -0.381966233253479
vt 0.996999979019165 1.0231353044509888
vt 0.8343898057937622 0.927891731262207
vt 0.996999979019165 0.7087569236755371
vt 0.996999979019165 -0.2881718873977661
vt 0.9156942367553711 0.03926891088485718
vt 0.8343885540962219 0.30691850185394287
vt 0.996999979019165 0.034003496170043945
vt 0.996999979019165 -0.28817200660705566
vt 0.8343884944915771 0.4941976070404053
vt 0.996999979019165 -0.2881718873977661
vt 0.8409669399261475 0.2993757128715515
vt 0.8412427306175232 0.0004999637603759766
vt 0.7838745713233948 0.33431845903396606
vt 0.5048455595970154 0.8249944448471069
vt 0.3395119607448578 0.7974250912666321
vt 0.15743288397789001 0.9953440427780151
vt 0.6703704595565796 0.7971977591514587
vt 0.6744561195373535 0.9101695120334625
vt 0.5048455595970154 0.8249944448471069
vt 0.6724084615707397 0.9974225461483002
vt 0.8440666198730469 0.9953445792198181
vt 0.26416951417922974 0.597231388092041
vt 0.1630348414182663 0.5982519388198853
vt 0.19496452808380127 0.4665762186050415
vt 0.16645605862140656 0.0004996061325073242
vt 0.19496452808380127 0.4665762186050415
vt 0.22689419984817505 0.33490055799484253
vt 0.8509517908096313 0.001999974250793457
vt 0.8642717599868774 0.3868323564529419
vt 0.8178617358207703 0.37509286403656006
vt 0.8775916695594788 0.7716647386550903
vt 0.22409921884536743 0.1677001714706421
vt 0.22130422294139862 0.000499725341796875
vt 0.7470315098762512 0.5972159504890442
vt 0.6703704595565796 0.7971977591514587
vt 0.8406912088394165 0.598251461982727
vt 0.1630348414182663 0.5982519388198853
vt 0.26416951417922974 0.597231388092041
vt 0.20187906920909882 0.3749381899833679
vt 0.11692996323108673 0.7871236801147461
vt 0.11935343593358994 0.3945618271827698
vt 0.12177690863609314 0.001999974250793457
vt 0.3311392068862915 0.910169243812561
vt 0.2484724223613739 0.8963845670223236
vt 0.3395119607448578 0.7974250912666321
vt 0.15743288397789001 0.9953440427780151
vt 0.21020525693893433 0.1884690523147583
vt 0.16474545001983643 0.2993757724761963
vt 0.16474545001983643 0.2993757724761963
vt 0.21853145956993103 0.001999974250793457
vt 0.16023385524749756 0.7967979907989502
vt 0.21080119907855988 0.7962877154350281
vt 0.16389015316963196 0.44881385564804077
vt 0.16645605862140656 0.0004996061325073242
vt 0.22689419984817505 0.33490055799484253
vt 0.22130422294139862 0.000499725341796875
vt 0.7863927483558655 0.0004999637603759766
vt 0.32909154891967773 0.9974222779273987
vt 0.2367822229862213 0.6272571682929993
vt 0.7863927483558655 0.0004999637603759766
vt 0.8412427306175232 0.0004999637603759766
vt 0.7838745713233948 0.33431845903396606
vt 0.5007502436637878 0.9995005130767822
vt 0.8440666198730469 0.9953445792198181
vt 0.8406912088394165 0.598251461982727
vt 0.7470315098762512 0.5972159504890442
vt 0.8409669399261475 0.2993757128715515
vt 0.350319504737854 0.7246662974357605
vt 0.755530834197998 0.6977246105670929
vt 0.8423789143562317 0.7967980206012726
vt 0.5040658712387085 1.0189744234085083
vt 0.5070616006851196 0.827747642993927
vt 0.6633843183517456 0.7526876330375671
vt 0.7772429585456848 0.5722752213478088
vt 0.7620833516120911 0.001999974250793457
vt 0.7572185397148132 0.8962711691856384
vt 0.1656007468700409 0.1499376893043518
vt 0.5007502436637878 0.9995005130767822
g WP_entryB0
s 1
f 1/1/1 2/2/2 3/3/3
f 4/4/4 5/5/5 6/6/6
f 6/6/6 7/7/7 4/4/4
f 8/8/8 9/9/9 10/10/10
f 11/11/11 12/12/12 13/13/13
f 14/14/14 15/15/15 16/16/16
f 17/17/17 7/7/7 6/6/6
f 18/18/18 19/19/19 4/4/4
f 17/17/17 20/20/20 3/3/3
f 11/11/11 21/21/21 10/10/10
f 22/22/22 23/23/23 24/24/24
f 10/10/10 19/19/19 18/18/18
f 18/18/18 8/8/8 10/10/10
f 4/4/4 8/8/8 18/18/18
f 19/19/19 25/25/25 26/26/26
f 19/19/19 26/26/26 4/4/4
f 4/4/4 26/26/26 5/5/5
f 26/26/26 25/25/25 5/5/5
f 22/22/22 24/24/24 27/27/27
f 22/22/22 28/28/28 29/29/29
f 27/27/27 28/28/28 22/22/22
f 13/13/13 30/30/30 31/31/31
f 13/13/13 31/31/31 15/15/15
f 22/22/22 29/29/29 32/32/32
f 32/32/32 23/23/23 22/22/22
f 17/17/17 33/33/33 34/34/34
f 17/17/17 34/34/34 20/20/20
f 16/16/16 25/25/25 14/14/14
f 35/35/35 36/36/36 37/37/37
f 37/37/37 36/36/36 38/38/38
f 25/25/25 39/39/39 40/40/40
f 40/40/40 39/39/39 41/41/41
f 41/41/41 17/17/17 40/40/40
f 38/38/38 42/42/42 37/37/37
f 3/3/3 2/2/2 43/43/43
f 6/6/6 5/5/5 17/17/17
f 44/44/44 2/2/2 1/1/1
f 21/21/21 45/45/45 46/46/46
f 46/46/46 45/45/45 19/19/19
f 47/47/47 25/25/25 16/16/16
f 16/16/16 15/15/15 47/47/47
f 40/40/40 17/17/17 5/5/5
f 40/40/40 5/5/5 25/25/25
f 13/13/13 15/15/15 14/14/14
f 43/43/43 2/2/2 8/8/8
f 43/43/43 8/8/8 4/4/4
f 10/10/10 9/9/9 11/11/11
f 8/8/8 2/2/2 9/9/9
f 13/13/13 48/48/48 11/11/11
f 48/48/48 21/21/21 11/11/11
f 14/14/14 21/21/21 48/48/48
f 14/14/14 48/48/48 13/13/13
f 11/11/11 49/49/49 12/12/12
f 49/49/49 2/2/2 12/12/12
f 9/9/9 2/2/2 49/49/49
f 42/42/42 50/50/50 37/37/37
f 42/42/42 13/13/13 50/50/50
f 50/50/50 13/13/13 12/12/12
f 37/37/37 50/50/50 12/12/12
f 37/37/37 12/12/12 51/51/51
f 51/51/51 12/12/12 2/2/2
f 2/2/2 35/35/35 51/51/51
f 51/51/51 35/35/35 37/37/37
f 9/9/9 49/49/49 11/11/11
f 7/7/7 43/43/43 4/4/4
f 3/3/3 43/43/43 7/7/7
f 3/3/3 7/7/7 17/17/17
f 45/45/45 25/25/25 19/19/19
f 14/14/14 25/25/25 45/45/45
f 14/14/14 45/45/45 21/21/21
f 21/21/21 46/46/46 10/10/10
f 46/46/46 19/19/19 10/10/10
f 3/3/3 20/20/20 1/1/1
f 1/1/1 20/20/20 44/44/44
g WP_entryB1
s 1
f 52/52/52 53/53/53 54/54/54
f 55/55/55 56/56/56 57/57/57
f 57/57/57 58/58/58 55/55/55
f 59/59/59 58/58/58 57/57/57
f 53/53/53 60/60/60 54/54/54
f 61/61/61 60/60/60 53/53/53
f 57/57/57 56/56/56 59/59/59
f 62/62/62 63/63/63 64/64/64
f 62/62/62 65/65/65 66/66/66
f 67/67/67 68/68/68 69/69/69
f 70/70/70 71/71/71 72/72/72
f 69/69/69 68/68/68 73/73/73
f 74/74/74 70/70/70 73/73/73
f 73/73/73 75/75/75 74/74/74
f 73/73/73 76/76/76 69/69/69
f 69/69/69 76/76/76 67/67/67
f 77/77/77 74/74/74 78/78/78
f 78/78/78 74/74/74 75/75/75
f 78/78/78 75/75/75 79/79/79
f 80/80/80 81/81/81 75/75/75
f 80/80/80 82/82/82 81/81/81
f 79/79/79 75/75/75 81/81/81
f 83/83/83 54/54/54 84/84/84
f 79/79/79 54/54/54 83/83/83
f 58/58/58 85/85/85 86/86/86
f 55/55/55 58/58/58 86/86/86
f 59/59/59 85/85/85 58/58/58
f 87/87/87 88/88/88 89/89/89
f 90/90/90 91/91/91 92/92/92
f 55/55/55 90/90/90 92/92/92
f 89/89/89 90/90/90 55/55/55
f 93/93/93 92/92/92 91/91/91
f 94/94/94 95/95/95 96/96/96
f 96/96/96 95/95/95 84/84/84
f 64/64/64 63/63/63 97/97/97
f 98/98/98 99/99/99 100/100/100
f 60/60/60 101/101/101 96/96/96
f 64/64/64 102/102/102 103/103/103
f 89/89/89 65/65/65 103/103/103
f 104/104/104 105/105/105 106/106/106
f 106/106/106 105/105/105 94/94/94
f 107/107/107 108/108/108 109/109/109
f 85/85/85 107/107/107 109/109/109
f 110/110/110 111/111/111 112/112/112
f 63/63/63 110/110/110 112/112/112
f 113/113/113 114/114/114 115/115/115
f 116/116/116 110/110/110 63/63/63
f 116/116/116 111/111/111 110/110/110
f 117/117/117 118/118/118 119/119/119
f 120/120/120 117/117/117 119/119/119
f 121/121/121 117/117/117 120/120/120
f 122/122/122 123/123/123 124/124/124
f 121/121/121 118/118/118 117/117/117
f 125/125/125 97/97/97 118/118/118
f 121/121/121 125/125/125 118/118/118
f 126/126/126 125/125/125 121/121/121
f 126/126/126 97/97/97 125/125/125
f 127/127/127 128/128/128 101/101/101
f 127/127/127 129/129/129 128/128/128
f 128/128/128 129/129/129 130/130/130
f 101/101/101 128/128/128 130/130/130
f 131/131/131 132/132/132 133/133/133
f 133/133/133 132/132/132 121/121/121
f 120/120/120 133/133/133 121/121/121
f 124/124/124 134/134/134 135/135/135
f 120/120/120 131/131/131 133/133/133
f 136/136/136 131/131/131 120/120/120
f 119/119/119 136/136/136 120/120/120
f 115/115/115 137/137/137 113/113/113
f 138/138/138 87/87/87 139/139/139
f 102/102/102 138/138/138 139/139/139
f 132/132/132 138/138/138 102/102/102
f 132/132/132 87/87/87 138/138/138
f 140/140/140 102/102/102 126/126/126
f 121/121/121 140/140/140 126/126/126
f 121/121/121 132/132/132 140/140/140
f 140/140/140 132/132/132 102/102/102
f 105/105/105 141/141/141 94/94/94
f 105/105/105 142/142/142 141/141/141
f 94/94/94 141/141/141 95/95/95
f 66/66/66 116/116/116 143/143/143
f 66/66/66 143/143/143 62/62/62
f 55/55/55 65/65/65 89/89/89
f 71/71/71 85/85/85 59/59/59
f 52/52/52 144/144/144 53/53/53
f 144/144/144 61/61/61 53/53/53
f 145/145/145 52/52/52 79/79/79
f 82/82/82 52/52/52 145/145/145
f 145/145/145 81/81/81 82/82/82
f 79/79/79 81/81/81 145/145/145
f 93/93/93 146/146/146 147/147/147
f 93/93/93 147/147/147 72/72/72
f 147/147/147 148/148/148 72/72/72
f 146/146/146 148/148/148 147/147/147
f 143/143/143 63/63/63 62/62/62
f 143/143/143 116/116/116 63/63/63
f 112/112/112 111/111/111 149/149/149
f 97/97/97 112/112/112 149/149/149
f 63/63/63 112/112/112 97/97/97
f 150/150/150 151/151/151 100/100/100
f 99/99/99 150/150/150 100/100/100
f 97/97/97 149/149/149 118/118/118
f 61/61/61 127/127/127 60/60/60
f 61/61/61 129/129/129 127/127/127
f 60/60/60 127/127/127 101/101/101
f 89/89/89 139/139/139 87/87/87
f 89/89/89 103/103/103 139/139/139
f 102/102/102 139/139/139 103/103/103
f 77/77/77 78/78/78 152/152/152
f 152/152/152 78/78/78 79/79/79
f 79/79/79 83/83/83 152/152/152
f 152/152/152 83/83/83 77/77/77
f 88/88/88 153/153/153 89/89/89
f 88/88/88 91/91/91 153/153/153
f 153/153/153 91/91/91 90/90/90
f 89/89/89 153/153/153 90/90/90
f 93/93/93 154/154/154 92/92/92
f 93/93/93 56/56/56 154/154/154
f 55/55/55 154/154/154 56/56/56
f 55/55/55 92/92/92 154/154/154
f 66/66/66 155/155/155 86/86/86
f 66/66/66 65/65/65 155/155/155
f 55/55/55 155/155/155 65/65/65
f 55/55/55 86/86/86 155/155/155
f 100/100/100 113/113/113 98/98/98
f 114/114/114 113/113/113 100/100/100
f 100/100/100 151/151/151 114/114/114
f 123/123/123 156/156/156 157/157/157
f 157/157/157 124/124/124 123/123/123
f 158/158/158 124/124/124 157/157/157
f 77/77/77 83/83/83 159/159/159
f 159/159/159 83/83/83 84/84/84
f 84/84/84 160/160/160 159/159/159
f 159/159/159 160/160/160 77/77/77
f 161/161/161 142/142/142 160/160/160
f 84/84/84 161/161/161 160/160/160
f 95/95/95 161/161/161 84/84/84
f 157/157/157 162/162/162 158/158/158
f 157/157/157 156/156/156 162/162/162
f 163/163/163 164/164/164 113/113/113
f 137/137/137 163/163/163 113/113/113
f 124/124/124 165/165/165 122/122/122
f 124/124/124 135/135/135 165/165/165
f 66/66/66 86/86/86 109/109/109
f 109/109/109 86/86/86 85/85/85
f 109/109/109 108/108/108 66/66/66
f 108/108/108 116/116/116 66/66/66
f 108/108/108 111/111/111 116/116/116
f 166/166/166 167/167/167 168/168/168
f 168/168/168 167/167/167 104/104/104
f 166/166/166 94/94/94 169/169/169
f 169/169/169 94/94/94 96/96/96
f 96/96/96 101/101/101 169/169/169
f 169/169/169 101/101/101 166/166/166
f 101/101/101 130/130/130 166/166/166
f 130/130/130 129/129/129 167/167/167
f 166/166/166 130/130/130 167/167/167
f 64/64/64 97/97/97 126/126/126
f 126/126/126 102/102/102 64/64/64
f 131/131/131 87/87/87 132/132/132
f 170/170/170 65/65/65 62/62/62
f 64/64/64 170/170/170 62/62/62
f 64/64/64 103/103/103 170/170/170
f 141/141/141 171/171/171 95/95/95
f 170/170/170 103/103/103 65/65/65
f 141/141/141 142/142/142 171/171/171
f 171/171/171 142/142/142 161/161/161
f 95/95/95 171/171/171 161/161/161
f 106/106/106 172/172/172 168/168/168
f 106/106/106 94/94/94 172/172/172
f 172/172/172 94/94/94 166/166/166
f 168/168/168 172/172/172 166/166/166
f 104/104/104 106/106/106 168/168/168
f 84/84/84 54/54/54 96/96/96
f 68/68/68 80/80/80 75/75/75
f 68/68/68 173/173/173 80/80/80
f 173/173/173 82/82/82 80/80/80
f 67/67/67 173/173/173 68/68/68
f 68/68/68 75/75/75 73/73/73
f 148/148/148 67/67/67 76/76/76
f 72/72/72 148/148/148 76/76/76
f 146/146/146 67/67/67 148/148/148
f 72/72/72 56/56/56 93/93/93
f 91/91/91 146/146/146 93/93/93
f 52/52/52 54/54/54 79/79/79
f 54/54/54 60/60/60 96/96/96
f 72/72/72 71/71/71 56/56/56
f 73/73/73 70/70/70 76/76/76
f 72/72/72 76/76/76 70/70/70
f 59/59/59 56/56/56 71/71/71
f 82/82/82 144/144/144 52/52/52
f 82/82/82 61/61/61 144/144/144
g WP_entryB2
s 1
f 174/174/174 175/175/175 176/176/176
f 177/177/177 178/178/178 179/179/179
f 180/180/180 181/181/181 182/182/182
f 180/180/180 183/183/183 184/184/184
f 185/185/185 183/183/183 186/186/186
f 184/184/184 183/183/183 185/185/185
f 185/185/185 187/187/187 184/184/184
f 186/186/186 187/187/187 185/185/185
f 188/188/188 189/189/189 190/190/190
f 191/191/191 192/192/192 193/193/193
f 191/191/191 193/193/193 194/194/194
f 195/195/195 187/187/187 181/181/181
f 184/184/184 187/187/187 195/195/195
f 195/195/195 180/180/180 184/184/184
f 181/181/181 180/180/180 195/195/195
f 196/196/196 197/197/197 198/198/198
f 198/198/198 199/199/199 196/196/196
f 200/200/200 199/199/199 198/198/198
f 201/201/201 202/202/202 200/200/200
f 197/197/197 202/202/202 201/201/201
f 198/198/198 197/197/197 201/201/201
f 198/198/198 201/201/201 200/200/200
f 203/203/203 204/204/204 205/205/205
f 179/179/179 204/204/204 203/203/203
f 203/203/203 177/177/177 179/179/179
f 205/205/205 177/177/177 203/203/203
f 206/206/206 207/207/207 179/179/179
f 207/207/207 204/204/204 179/179/179
f 207/207/207 206/206/206 208/208/208
f 209/209/209 210/210/210 187/187/187
f 211/211/211 210/210/210 209/209/209
f 209/209/209 186/186/186 211/211/211
f 187/187/187 186/186/186 209/209/209
f 212/212/212 210/210/210 211/211/211
f 212/212/212 213/213/213 214/214/214
f 215/215/215 186/186/186 213/213/213
f 211/211/211 186/186/186 215/215/215
f 215/215/215 212/212/212 211/211/211
f 213/213/213 212/212/212 215/215/215
f 216/216/216 217/217/217 192/192/192
f 218/218/218 217/217/217 216/216/216
f 216/216/216 191/191/191 218/218/218
f 192/192/192 191/191/191 216/216/216
f 217/217/217 219/219/219 192/192/192
f 219/219/219 220/220/220 192/192/192
f 191/191/191 221/221/221 218/218/218
f 221/221/221 190/190/190 218/218/218
f 190/190/190 221/221/221 188/188/188
f 221/221/221 191/191/191 188/188/188
f 222/222/222 223/223/223 224/224/224
f 223/223/223 225/225/225 224/224/224
f 226/226/226 225/225/225 223/223/223
f 226/226/226 223/223/223 222/222/222
f 227/227/227 224/224/224 202/202/202
f 222/222/222 224/224/224 227/227/227
f 227/227/227 197/197/197 222/222/222
f 202/202/202 197/197/197 227/227/227
f 176/176/176 228/228/228 229/229/229
f 228/228/228 205/205/205 229/229/229
f 177/177/177 205/205/205 228/228/228
f 177/177/177 228/228/228 176/176/176
f 230/230/230 229/229/229 231/231/231
f 176/176/176 229/229/229 230/230/230
f 230/230/230 174/174/174 176/176/176
f 231/231/231 174/174/174 230/230/230
f 189/189/189 232/232/232 233/233/233
f 232/232/232 194/194/194 233/233/233
f 194/194/194 232/232/232 188/188/188
f 232/232/232 189/189/189 188/188/188
f 234/234/234 235/235/235 183/183/183
f 182/182/182 235/235/235 234/234/234
f 234/234/234 180/180/180 182/182/182
f 183/183/183 180/180/180 234/234/234
f 236/236/236 237/237/237 204/204/204
f 208/208/208 237/237/237 236/236/236
f 236/236/236 207/207/207 208/208/208
f 204/204/204 207/207/207 236/236/236
f 238/238/238 237/237/237 208/208/208
f 237/237/237 238/238/238 239/239/239
f 238/238/238 240/240/240 239/239/239
f 241/241/241 206/206/206 240/240/240
f 208/208/208 206/206/206 241/241/241
f 241/241/241 238/238/238 208/208/208
f 240/240/240 238/238/238 241/241/241
f 242/242/242 199/199/199 243/243/243
f 244/244/244 245/245/245 243/243/243
f 246/246/246 200/200/200 244/244/244
f 199/199/199 200/200/200 246/246/246
f 243/243/243 199/199/199 246/246/246
f 243/243/243 246/246/246 244/244/244
f 247/247/247 248/248/248 242/242/242
f 245/245/245 248/248/248 247/247/247
f 243/243/243 245/245/245 247/247/247
f 243/243/243 247/247/247 242/242/242
f 197/197/197 196/196/196 249/249/249
f 197/197/197 249/249/249 222/222/222
f 222/222/222 249/249/249 250/250/250
f 249/249/249 196/196/196 250/250/250
f 251/251/251 213/213/213 252/252/252
f 214/214/214 213/213/213 251/251/251
f 251/251/251 253/253/253 214/214/214
f 252/252/252 253/253/253 251/251/251
f 254/254/254 255/255/255 210/210/210
f 214/214/214 255/255/255 254/254/254
f 254/254/254 212/212/212 214/214/214
f 210/210/210 212/212/212 254/254/254
f 256/256/256 218/218/218 255/255/255
f 217/217/217 218/218/218 256/256/256
f 219/219/219 217/217/217 256/256/256
f 219/219/219 256/256/256 255/255/255
f 255/255/255 253/253/253 257/257/257
f 257/257/257 219/219/219 255/255/255
f 220/220/220 219/219/219 257/257/257
f 258/258/258 252/252/252 220/220/220
f 253/253/253 252/252/252 258/258/258
f 257/257/257 253/253/253 258/258/258
f 257/257/257 258/258/258 220/220/220
f 259/259/259 260/260/260 261/261/261
f 261/261/261 245/245/245 259/259/259
f 248/248/248 245/245/245 261/261/261
f 262/262/262 263/263/263 248/248/248
f 260/260/260 263/263/263 262/262/262
f 261/261/261 260/260/260 262/262/262
f 261/261/261 262/262/262 248/248/248
f 264/264/264 240/240/240 263/263/263
f 239/239/239 240/240/240 264/264/264
f 264/264/264 260/260/260 239/239/239
f 263/263/263 260/260/260 264/264/264
f 265/265/265 177/177/177 176/176/176
f 178/178/178 177/177/177 265/265/265
f 265/265/265 175/175/175 178/178/178
f 176/176/176 175/175/175 265/265/265
f 266/266/266 250/250/250 267/267/267
f 222/222/222 250/250/250 266/266/266
f 266/266/266 226/226/226 222/222/222
f 267/267/267 226/226/226 266/266/266
f 188/188/188 191/191/191 194/194/194
f 268/268/268 269/269/269 270/270/270
f 270/270/270 189/189/189 268/268/268
f 189/189/189 270/270/270 190/190/190
f 271/271/271 272/272/272 182/182/182
f 182/182/182 181/181/181 271/271/271
f 179/179/179 178/178/178 206/206/206
f 199/199/199 242/242/242 196/196/196
f 245/245/245 244/244/244 259/259/259
f 253/253/253 255/255/255 214/214/214
f 260/260/260 259/259/259 237/237/237
f 239/239/239 260/260/260 237/237/237
f 182/182/182 272/272/272 235/235/235
f 189/189/189 233/233/233 268/268/268
g WP_entryB3
s 1
f 273/273/273 274/274/274 275/275/275
f 276/276/276 277/277/277 278/278/278
f 279/279/279 280/280/280 277/277/277
f 277/277/277 276/276/276 279/279/279
f 281/281/281 282/282/282 283/283/283
f 284/284/284 285/285/285 286/286/286
f 280/280/280 279/279/279 287/287/287
f 286/286/286 288/288/288 284/284/284
f 287/287/287 289/289/289 280/280/280
f 290/290/290 291/291/291 288/288/288
f 288/288/288 286/286/286 290/290/290
f 292/292/292 289/289/289 287/287/287
f 291/291/291 290/290/290 293/293/293
f 287/287/287 294/294/294 292/292/292
f 294/294/294 295/295/295 296/296/296
f 296/296/296 292/292/292 294/294/294
f 295/295/295 297/297/297 298/298/298
f 298/298/298 296/296/296 295/295/295
f 282/282/282 299/299/299 300/300/300
f 300/300/300 301/301/301 282/282/282
f 301/301/301 300/300/300 302/302/302
f 302/302/302 303/303/303 301/301/301
f 304/304/304 302/302/302 305/305/305
f 304/304/304 305/305/305 306/306/306
f 281/281/281 307/307/307 308/308/308
f 281/281/281 308/308/308 299/299/299
f 309/309/309 297/297/297 310/310/310
f 309/309/309 310/310/310 311/311/311
f 312/312/312 313/313/313 314/314/314
f 315/315/315 316/316/316 317/317/317
f 318/318/318 316/316/316 315/315/315
f 319/319/319 320/320/320 321/321/321
f 322/322/322 275/275/275 274/274/274
f 314/314/314 275/275/275 322/322/322
f 322/322/322 312/312/312 314/314/314
f 274/274/274 312/312/312 322/322/322
f 323/323/323 317/317/317 316/316/316
f 316/316/316 318/318/318 278/278/278
f 306/306/306 324/324/324 325/325/325
f 281/281/281 283/283/283 326/326/326
f 327/327/327 285/285/285 284/284/284
f 284/284/284 328/328/328 327/327/327
f 328/328/328 273/273/273 329/329/329
f 329/329/329 327/327/327 328/328/328
f 275/275/275 329/329/329 273/273/273
f 278/278/278 318/318/318 276/276/276
f 311/311/311 330/330/330 309/309/309
f 299/299/299 282/282/282 281/281/281
f 326/326/326 307/307/307 281/281/281
f 306/306/306 325/325/325 304/304/304
f 304/304/304 325/325/325 303/303/303
f 303/303/303 302/302/302 304/304/304
f 331/331/331 293/293/293 319/319/319
f 332/332/332 293/293/293 331/331/331
f 331/331/331 321/321/321 332/332/332
f 319/319/319 321/321/321 331/331/331
f 297/297/297 309/309/309 333/333/333
f 334/334/334 314/314/314 313/313/313
f 297/297/297 333/333/333 298/298/298
f 293/293/293 335/335/335 291/291/291
f 320/320/320 319/319/319 336/336/336
f 293/293/293 332/332/332 335/335/335
g WP_entryB4
s 1
f 337/337/337 338/338/338 339/339/339
f 340/340/340 341/341/341 342/342/342
f 343/343/343 344/344/344 345/345/345
f 345/345/345 344/344/344 346/346/346
f 344/344/344 347/347/347 346/346/346
f 348/348/348 349/349/349 350/350/350
f 351/351/351 352/352/352 353/353/353
f 354/354/354 355/355/355 356/356/356
f 355/355/355 357/357/357 356/356/356
f 358/358/358 359/359/359 351/351/351
f 360/360/360 361/361/361 362/362/362
f 363/363/363 342/342/342 364/364/364
f 339/339/339 360/360/360 362/362/362
f 365/365/365 366/366/366 367/367/367
f 365/365/365 367/367/367 368/368/368
f 369/369/369 370/370/370 371/371/371
f 364/364/364 352/352/352 363/363/363
f 369/369/369 372/372/372 370/370/370
f 368/368/368 373/373/373 365/365/365
f 351/351/351 374/374/374 352/352/352
f 375/375/375 350/350/350 349/349/349
f 368/368/368 376/376/376 373/373/373
f 377/377/377 378/378/378 372/372/372
f 379/379/379 363/363/363 352/352/352
f 380/380/380 381/381/381 350/350/350
f 349/349/349 378/378/378 377/377/377
f 381/381/381 380/380/380 382/382/382
f 383/383/383 339/339/339 338/338/338
f 378/378/378 371/371/371 370/370/370
f 378/378/378 370/370/370 372/372/372
f 345/345/345 384/384/384 369/369/369
f 369/369/369 384/384/384 372/372/372
f 364/364/364 342/342/342 341/341/341
f 366/366/366 365/365/365 385/385/385
f 386/386/386 387/387/387 388/388/388
f 345/345/345 389/389/389 384/384/384
f 361/361/361 340/340/340 390/390/390
f 361/361/361 390/390/390 362/362/362
f 362/362/362 337/337/337 339/339/339
f 364/364/364 353/353/353 352/352/352
f 388/388/388 391/391/391 392/392/392
f 391/391/391 388/388/388 393/393/393
f 345/345/345 369/369/369 371/371/371
f 349/349/349 348/348/348 378/378/378
f 348/348/348 371/371/371 378/378/378
f 366/366/366 385/385/385 394/394/394
f 343/343/343 395/395/395 396/396/396
f 397/397/397 366/366/366 398/398/398
f 394/394/394 398/398/398 366/366/366
f 357/357/357 398/398/398 399/399/399
f 398/398/398 357/357/357 397/397/397
f 400/400/400 357/357/357 399/399/399
f 357/357/357 400/400/400 356/356/356
f 395/395/395 391/391/391 396/396/396
f 392/392/392 391/391/391 395/395/395
f 356/356/356 401/401/401 354/354/354
f 392/392/392 395/395/395 343/343/343
f 402/402/402 396/396/396 347/347/347
f 343/343/343 396/396/396 402/402/402
f 345/345/345 346/346/346 389/389/389
f 353/353/353 358/358/358 351/351/351
f 343/343/343 402/402/402 344/344/344
f 402/402/402 347/347/347 344/344/344
f 348/348/348 350/350/350 381/381/381
f 403/403/403 350/350/350 375/375/375
f 380/380/380 350/350/350 403/403/403
f 393/393/393 388/388/388 387/387/387
f 374/374/374 379/379/379 352/352/352
f 340/340/340 404/404/404 390/390/390
f 340/340/340 342/342/342 404/404/404
