# Exported using wow.export v0.2.19
o 20736_WP_entryC02.obj
v 122.65184020996094 -122.32206726074219 170.3592529296875
v 121.71943664550781 -122.08370971679688 169.07595825195312
v 120.27723693847656 -121.84525299072266 168.302490234375
v 128.2615966796875 -124.02791595458984 178.97012329101562
v 127.49079132080078 -123.77943420410156 177.62448120117188
v 127.04692077636719 -123.77946472167969 178.068359375
v 123.69788360595703 -122.91647338867188 174.40634155273438
v 124.51665496826172 -122.79878997802734 172.9258270263672
v 123.36701965332031 -122.79888916015625 174.07546997070312
v 119.90573120117188 -122.32220458984375 173.10537719726562
v 119.42068481445312 -122.08377075195312 171.37472534179688
v 118.74989318847656 -122.08381652832031 172.04550170898438
v 125.83223724365234 -123.531005859375 177.16659545898438
v 126.71998596191406 -123.53094482421875 176.27883911132812
v 128.3785400390625 -123.77937316894531 176.7367401123047
v 126.15916442871094 -123.77952575683594 178.95611572265625
v 127.60774230957031 -123.5308837890625 175.39111328125
v 125.94918060302734 -123.28245544433594 174.93319702148438
v 125.50531005859375 -123.28248596191406 175.3770751953125
v 117.59406280517578 -121.8454360961914 170.9856414794922
v 130.037109375 -124.02779388427734 177.19464111328125
v 128.82241821289062 -123.77934265136719 176.29287719726562
v 118.36753845214844 -122.08393859863281 172.42784118652344
v 117.08425903320312 -121.84559631347656 171.49542236328125
v 118.19210815429688 -122.08748626708984 172.603271484375
v 118.57440185546875 -121.84525299072266 169.28280639648438
v 119.6064453125 -121.84529876708984 168.97328186035156
v 125.21839904785156 -122.81290435791016 172.22409057617188
v 123.93511962890625 -122.56748962402344 171.2916717529297
v 123.00271606445312 -122.32913208007812 170.00839233398438
v 125.34184265136719 -123.1582260131836 174.48233032226562
v 122.21739196777344 -122.79898071289062 175.22511291503906
v 119.65082550048828 -122.3222885131836 173.36026000976562
v 120.58323669433594 -122.5677261352539 174.6435546875
v 121.51565551757812 -122.81316375732422 175.92684936523438
v 119.29995727539062 -122.32937622070312 173.7111358642578
v 125.17837524414062 -123.03396606445312 173.5875701904297
v 124.02873229980469 -123.0340576171875 174.73719787597656
v 122.87908172607422 -123.03414154052734 175.88682556152344
v 122.17733001708984 -123.05052185058594 176.5885772705078
v 123.42996215820312 -123.29080200195312 177.452392578125
v 124.68258666992188 -123.53108978271484 178.31622314453125
v 124.33171081542969 -123.53927612304688 178.66709899902344
v 126.74392700195312 -123.29058074951172 174.13845825195312
v 125.8801040649414 -123.05027770996094 172.8858184814453
v 121.247314453125 -122.32211303710938 171.7637939453125
v 121.73235321044922 -122.560546875 173.49444580078125
v 122.88198852539062 -122.56045532226562 172.34481811523438
v 127.95860290527344 -123.53903198242188 175.04022216796875
v 118.93565368652344 -121.84534454345703 169.64407348632812
v 120.76227569580078 -122.08367919921875 170.03314208984375
v 120.09148406982422 -122.08372497558594 170.7039337158203
v 128.99786376953125 -123.78341674804688 176.117431640625
v 126.39305877685547 -123.28242492675781 174.48934936523438
v 123.2545166015625 -123.2948989868164 177.62783813476562
v 120.40780639648438 -122.57127380371094 174.81900024414062
v 122.39694213867188 -122.322021484375 170.61416625976562
v 118.26486206054688 -121.84539031982422 170.31484985351562
v 121.06156158447266 -122.56059265136719 174.16525268554688
v 124.11055755615234 -122.57101440429688 171.11624145507812
v 121.97486877441406 -122.67976379394531 174.35977172851562
v 123.45680236816406 -122.56040954589844 171.76998901367188
v 121.33708953857422 -122.08363342285156 169.4583282470703
v 121.89486694335938 -122.08724212646484 168.90054321289062
v 120.78702545166016 -121.84535217285156 167.7926788330078
v 123.12450408935547 -122.67967224121094 173.21014404296875
v 126.91935729980469 -123.2946548461914 173.9630126953125
v 116.8715591430664 -121.84525299072266 170.2631378173828
v 119.5546875 -121.84513092041016 167.57994079589844
v 125.40890502929688 -123.78366088867188 179.70635986328125
v 124.35565948486328 -123.28257751464844 176.52670288085938
v 123.78083801269531 -123.2826156616211 177.10153198242188
v 125.58434295654297 -123.7795639038086 179.53091430664062
v 126.48609924316406 -124.02803802490234 180.74562072753906
v 124.19219970703125 -123.15830993652344 175.6319580078125
v 122.89616394042969 -117.14889526367188 175.78961181640625
v 122.7891616821289 -117.66798400878906 176.4109344482422
v 121.69330596923828 -117.29068756103516 175.31504821777344
v 123.00315856933594 -116.62979888916016 175.16827392578125
v 117.03244018554688 -119.04246520996094 170.6331787109375
v 117.304443359375 -117.64108276367188 171.00978088378906
v 117.58525848388672 -119.04256439208984 171.18600463867188
v 117.57645416259766 -116.23969268798828 171.38638305664062
v 116.47080993652344 -116.239501953125 170.28073120117188
v 117.31324768066406 -120.44395446777344 170.80941772460938
v 117.59406280517578 -121.8454360961914 170.9856414794922
v 116.67118835449219 -119.04237365722656 170.27194213867188
v 124.74952697753906 -118.72636413574219 172.69821166992188
v 125.22598266601562 -118.19708251953125 173.09793090820312
v 124.60658264160156 -117.2905044555664 172.40176391601562
v 124.8924789428711 -120.1622314453125 172.99465942382812
v 125.70244598388672 -117.66780853271484 173.49765014648438
v 125.44041442871094 -120.35089111328125 173.5426025390625
v 125.57142639160156 -119.00935363769531 173.52012634277344
v 125.17837524414062 -123.03396606445312 173.5875701904297
v 125.03543090820312 -121.59809875488281 173.29110717773438
v 124.51665496826172 -122.79878997802734 172.9258270263672
v 122.50328063964844 -120.23348236083984 175.81802368164062
v 121.95535278320312 -120.04483032226562 175.27008056640625
v 122.37225341796875 -118.85640716552734 175.84051513671875
v 121.82432556152344 -118.66775512695312 175.29257202148438
v 122.21739196777344 -122.79898071289062 175.22511291503906
v 122.08637237548828 -121.42190551757812 175.24758911132812
v 122.30674743652344 -118.1678695678711 175.85174560546875
v 119.83551025390625 -120.4437255859375 167.75616455078125
v 119.56348419189453 -119.0422134399414 167.37957763671875
v 119.5546875 -121.84513092041016 167.57994079589844
v 124.31301879882812 -115.96891021728516 175.02151489257812
v 122.83412170410156 -120.35105895996094 176.1488800048828
v 124.39258575439453 -116.61308288574219 173.64442443847656
v 123.6978759765625 -115.76364135742188 174.40635681152344
v 123.08272552490234 -115.55836486816406 173.79119873046875
v 122.38801574707031 -116.42453002929688 174.55313110351562
v 125.04751586914062 -117.14044189453125 173.571044921875
v 120.1163330078125 -119.04231262207031 167.93240356445312
v 120.27723693847656 -121.84525299072266 168.302490234375
v 120.47760772705078 -119.04237365722656 168.29368591308594
v 120.677978515625 -116.23948669433594 168.28488159179688
v 119.38068389892578 -115.33380126953125 168.53836059570312
v 117.95966339111328 -114.42811584472656 168.6680908203125
v 119.57228088378906 -116.23929595947266 167.17921447753906
v 119.1890869140625 -114.42830657958984 169.89752197265625
v 122.85659790039062 -121.69259643554688 176.01785278320312
v 122.87908172607422 -123.03414154052734 175.88682556152344
v 120.1207275390625 -117.64085388183594 167.8322296142578
v 124.56161499023438 -120.04464721679688 172.66378784179688
v 116.8715591430664 -121.84525299072266 170.2631378173828
v 122.26187896728516 -116.8753433227539 177.00819396972656
v 122.24073791503906 -118.41914367675781 176.90328979492188
v 122.41618347167969 -118.4150390625 176.72784423828125
v 121.65672302246094 -119.629638671875 175.53372192382812
v 121.20095825195312 -118.04850769042969 175.8634490966797
v 121.09605407714844 -116.46028900146484 175.84231567382812
v 121.30585479736328 -119.63672637939453 175.88458251953125
v 121.41075134277344 -121.22494506835938 175.9057159423828
v 121.51565551757812 -122.81316375732422 175.92684936523438
v 121.04049682617188 -117.03346252441406 167.86807250976562
v 121.1679458618164 -117.03347778320312 167.74061584472656
v 121.294921875 -115.42952728271484 167.7232666015625
v 121.04096984863281 -118.63743591308594 167.75796508789062
v 120.78607940673828 -118.63739013671875 168.01287841796875
v 120.91400146484375 -120.24139404296875 167.77532958984375
v 120.78702545166016 -121.84535217285156 167.7926788330078
v 125.98500061035156 -121.50648498535156 172.90695190429688
v 126.08990478515625 -119.96269226074219 172.9281005859375
v 125.79127502441406 -120.35903930664062 173.19174194335938
v 125.8801040649414 -123.05027770996094 172.8858184814453
v 125.02316284179688 -118.25587463378906 172.0587158203125
v 125.15498352050781 -118.04826354980469 171.90939331054688
v 125.17611694335938 -119.636474609375 172.01429748535156
v 125.13384246826172 -116.46004486083984 171.80450439453125
v 124.91249084472656 -120.05170440673828 172.31292724609375
v 125.19725799560547 -121.22468566894531 172.11920166015625
v 125.21839904785156 -122.81290435791016 172.22409057617188
v 119.1890869140625 -114.42830657958984 169.89752197265625
v 119.2402114868164 -112.93235778808594 169.94862365722656
v 118.12752532958984 -114.18107604980469 170.97598266601562
v 117.01483917236328 -115.42979431152344 172.0033416748047
v 119.95909118652344 -114.58592224121094 169.11676025390625
v 120.26756286621094 -114.18093872070312 168.8359375
v 119.2402114868164 -112.93235778808594 169.94862365722656
v 121.93705749511719 -121.21430969238281 175.37942504882812
v 122.08637237548828 -121.42190551757812 175.24758911132812
v 122.21739196777344 -122.79898071289062 175.22511291503906
v 121.95535278320312 -120.04483032226562 175.27008056640625
v 125.57142639160156 -119.00935363769531 173.52012634277344
v 125.44041442871094 -120.35089111328125 173.5426025390625
v 125.70244598388672 -117.66780853271484 173.49765014648438
v 126.29971313476562 -116.8750991821289 172.97039794921875
v 125.3346176147461 -115.7901611328125 174.02420043945312
v 124.31301879882812 -115.96891021728516 175.02151489257812
v 124.36952209472656 -114.70523071289062 175.07801818847656
v 124.36952209472656 -114.70523071289062 175.07801818847656
v 123.31570434570312 -115.790283203125 176.04310607910156
v 123.579345703125 -116.18660736083984 175.74447631835938
v 122.3597640991211 -115.7591552734375 174.52487182617188
v 122.06114196777344 -115.34395599365234 174.7884979248047
v 123.0262222290039 -114.22762298583984 173.73468017578125
v 117.33035278320312 -119.04264831542969 171.44090270996094
v 117.58525848388672 -119.04256439208984 171.18600463867188
v 117.57645416259766 -116.23969268798828 171.38638305664062
v 121.69330596923828 -117.29068756103516 175.31504821777344
v 121.82432556152344 -118.66775512695312 175.29257202148438
v 122.19847106933594 -121.50672912597656 176.6934814453125
v 122.17733001708984 -123.05052185058594 176.5885772705078
v 122.57048034667969 -119.95474243164062 176.447509765625
v 122.2196044921875 -119.96293640136719 176.7983856201172
v 122.72477722167969 -121.49444580078125 176.16717529296875
v 122.87908172607422 -123.03414154052734 175.88682556152344
v 122.83412170410156 -120.35105895996094 176.1488800048828
v 126.19480895996094 -118.41889953613281 172.94924926757812
v 126.04549407958984 -118.6170654296875 173.08106994628906
v 120.677978515625 -116.23948669433594 168.28488159179688
v 120.47760772705078 -119.04237365722656 168.29368591308594
v 124.56161499023438 -120.04464721679688 172.66378784179688
v 124.60658264160156 -117.2905044555664 172.40176391601562
v 124.51665496826172 -122.79878997802734 172.9258270263672
v 124.71456909179688 -121.42524719238281 172.619384765625
v 125.48482513427734 -121.69650268554688 173.3896484375
v 125.17837524414062 -123.03396606445312 173.5875701904297
v 122.85659790039062 -121.69259643554688 176.01785278320312
v 117.03219604492188 -117.03374481201172 171.87637329101562
v 117.04954528808594 -118.6376953125 171.7493896484375
v 123.08272552490234 -115.55836486816406 173.79119873046875
v 122.38801574707031 -116.42453002929688 174.55313110351562
v 120.53166198730469 -120.24131774902344 168.15768432617188
v 120.27723693847656 -121.84525299072266 168.302490234375
v 117.08425903320312 -121.84559631347656 171.49542236328125
v 117.59406280517578 -121.8454360961914 170.9856414794922
v 117.46220397949219 -120.44404602050781 171.21327209472656
v 122.7891616821289 -117.66798400878906 176.4109344482422
v 123.08272552490234 -115.55836486816406 173.79119873046875
v 123.0262222290039 -114.22762298583984 173.73468017578125
v 123.55313110351562 -114.78572845458984 173.25213623046875
v 124.08003234863281 -115.34383392333984 172.76959228515625
v 117.06690216064453 -120.24164581298828 171.62240600585938
v 119.1890869140625 -114.42830657958984 169.89752197265625
v 124.31301879882812 -115.96891021728516 175.02151489257812
v 124.10828399658203 -116.00920104980469 172.7978515625
v 124.59048461914062 -117.13320922851562 171.3030242919922
v 124.17411804199219 -116.2024154663086 170.78419494628906
v 124.04713439941406 -117.80636596679688 170.80154418945312
v 120.28555297851562 -119.37910461425781 174.92483520507812
v 121.30585479736328 -119.63672637939453 175.88458251953125
v 120.39044952392578 -120.96731567382812 174.9459686279297
v 119.26524353027344 -119.12147521972656 173.965087890625
v 121.41075134277344 -121.22494506835938 175.9057159423828
v 120.07575225830078 -116.20266723632812 174.882568359375
v 120.63835144042969 -117.12557983398438 175.37301635742188
v 120.18064880371094 -117.79087829589844 174.90370178222656
v 118.15739440917969 -118.87958526611328 172.85723876953125
v 118.17475128173828 -120.48353576660156 172.73025512695312
v 117.04954528808594 -118.6376953125 171.7493896484375
v 118.14004516601562 -117.275634765625 172.98422241210938
v 117.06690216064453 -120.24164581298828 171.62240600585938
v 121.09605407714844 -116.46028900146484 175.84231567382812
v 121.20095825195312 -118.04850769042969 175.8634490966797
v 122.25465393066406 -115.6871566772461 168.7435760498047
v 121.7113037109375 -116.36032104492188 168.24209594726562
v 122.12767791748047 -117.29110717773438 168.76092529296875
v 119.28260040283203 -120.72542572021484 173.83810424804688
v 125.33433532714844 -118.76624298095703 179.78094482421875
v 126.43638610839844 -120.68309020996094 180.79534912109375
v 125.35919189453125 -120.43871307373047 179.75608825683594
v 124.28199768066406 -120.1943359375 178.71682739257812
v 125.37162017822266 -121.27494812011719 179.74365234375
v 126.41152954101562 -119.0106201171875 180.82022094726562
v 123.22966003417969 -121.62242889404297 177.6527099609375
v 124.30685424804688 -121.86680603027344 178.69195556640625
v 123.24209594726562 -122.45866394042969 177.6402587890625
v 121.294921875 -115.42952728271484 167.7232666015625
v 121.1679458618164 -117.03347778320312 167.74061584472656
v 123.21438598632812 -115.94478607177734 169.76388549804688
v 122.67103576660156 -116.61795043945312 169.2624053955078
v 123.08740997314453 -117.54873657226562 169.78123474121094
v 122.54405212402344 -118.2219009399414 169.27975463867188
v 122.96043395996094 -119.15269470214844 169.798583984375
v 122.00070190429688 -118.89506530761719 168.7782745361328
v 121.58432006835938 -117.96427154541016 168.2594451904297
v 121.04096984863281 -118.63743591308594 167.75796508789062
v 121.45735168457031 -119.56822967529297 168.27679443359375
v 120.91400146484375 -120.24139404296875 167.77532958984375
v 121.87373352050781 -120.4990234375 168.79562377929688
v 126.45217895507812 -122.40057373046875 173.43499755859375
v 125.8801040649414 -123.05027770996094 172.8858184814453
v 126.91935729980469 -123.2946548461914 173.9630126953125
v 127.02426147460938 -121.75086212158203 173.98416137695312
v 129.14004516601562 -119.73091125488281 176.10128784179688
v 129.1649169921875 -118.05844116210938 176.07644653320312
v 128.19326782226562 -118.77897644042969 175.0576629638672
v 125.98500061035156 -121.50648498535156 172.90695190429688
v 121.33038330078125 -121.17218780517578 168.29415893554688
v 120.78702545166016 -121.84535217285156 167.7926788330078
v 130.0619659423828 -122.35531616210938 177.16978454589844
v 130.08682250976562 -120.68284606933594 177.14492797851562
v 129.10275268554688 -122.2396240234375 176.13858032226562
v 121.89486694335938 -122.08724212646484 168.90054321289062
v 122.41708374023438 -119.82585906982422 169.29710388183594
v 122.98157501220703 -120.74091339111328 169.9034881591797
v 122.43822479248047 -121.41407775878906 169.40200805664062
v 130.1116943359375 -119.0103759765625 177.12008666992188
v 123.00271606445312 -122.32913208007812 170.00839233398438
v 124.11055755615234 -122.57101440429688 171.11624145507812
v 123.54606628417969 -121.65596771240234 170.50985717773438
v 124.08941650390625 -120.98280334472656 171.01133728027344
v 124.6539077758789 -121.89785766601562 171.61770629882812
v 125.21839904785156 -122.81290435791016 172.22409057617188
v 125.19725799560547 -121.22468566894531 172.11920166015625
v 124.61162567138672 -118.72142028808594 171.40792846679688
v 125.17611694335938 -119.636474609375 172.01429748535156
v 125.15498352050781 -118.04826354980469 171.90939331054688
v 124.06827545166016 -119.39458465576172 170.90643310546875
v 128.1684112548828 -120.45144653320312 175.08251953125
v 128.06350708007812 -121.9952392578125 175.06137084960938
v 117.03219604492188 -117.03374481201172 171.87637329101562
v 123.5037841796875 -118.47953033447266 170.30006408691406
v 123.5249252319336 -120.0677490234375 170.40496826171875
v 124.63276672363281 -120.30963897705078 171.5128173828125
v 120.95304870605469 -121.89024353027344 175.4364013671875
v 121.51565551757812 -122.81316375732422 175.92684936523438
v 120.40780639648438 -122.57127380371094 174.81900024414062
v 122.7034912109375 -122.33647155761719 177.12063598632812
v 122.17733001708984 -123.05052185058594 176.5885772705078
v 122.19847106933594 -121.50672912597656 176.6934814453125
v 127.12915802001953 -120.20706939697266 174.00531005859375
v 122.2196044921875 -119.96293640136719 176.7983856201172
v 122.24073791503906 -118.41914367675781 176.90328979492188
v 122.74577331542969 -119.24888610839844 177.3304443359375
v 123.27194213867188 -118.53483581542969 177.86251831054688
v 123.25080108642578 -120.0786361694336 177.75759887695312
v 122.7246322631836 -120.79267883300781 177.22555541992188
v 123.29307556152344 -116.99104309082031 177.9674072265625
v 123.79811096191406 -117.82079315185547 178.3945770263672
v 124.32427215576172 -117.10675048828125 178.9266357421875
v 124.30313110351562 -118.65054321289062 178.8217315673828
v 119.16034698486328 -117.53325653076172 173.94395446777344
v 124.82929992675781 -117.93649291992188 179.35379028320312
v 125.35546875 -117.22245025634766 179.8858642578125
v 123.77696990966797 -119.36458587646484 178.2896728515625
v 119.05545043945312 -115.94503784179688 173.92282104492188
v 119.61804962158203 -116.86795806884766 174.41326904296875
v 118.59774780273438 -116.61033630371094 173.45352172851562
v 118.03514099121094 -115.68741607666016 172.96307373046875
v 123.6307601928711 -116.87557983398438 170.28271484375
v 125.13384246826172 -116.46004486083984 171.80450439453125
v 122.26187896728516 -116.8753433227539 177.00819396972656
v 122.76690673828125 -117.70509338378906 177.43536376953125
v 119.84519958496094 -121.64834594726562 174.32855224609375
v 119.29995727539062 -122.32937622070312 173.7111358642578
v 118.70264434814453 -118.19855499267578 173.4746551513672
v 117.62950134277344 -121.16456604003906 172.1128387451172
v 117.08425903320312 -121.84559631347656 171.49542236328125
v 118.19210815429688 -122.08748626708984 172.603271484375
v 118.73735046386719 -121.40645599365234 173.220703125
v 127.24649047851562 -117.82704162597656 174.0140380859375
v 128.2181396484375 -117.10650634765625 175.03280639648438
v 127.25892639160156 -116.99079895019531 174.00160217285156
v 126.29971313476562 -116.8750991821289 172.97039794921875
v 124.80816650390625 -119.48028564453125 179.24888610839844
v 125.86050415039062 -118.05220031738281 180.31301879882812
v 126.38666534423828 -117.33815002441406 180.84507751464844
v 123.2545166015625 -123.2948989868164 177.62783813476562
v 124.33171081542969 -123.53927612304688 178.66709899902344
v 123.78690338134766 -122.99897003173828 178.1536865234375
v 126.46124267578125 -122.35556030273438 180.77047729492188
v 126.48609924316406 -124.02803802490234 180.74562072753906
v 125.9412841796875 -123.48773193359375 180.23220825195312
v 125.39647674560547 -122.94741821289062 179.71878051757812
v 125.40890502929688 -123.78366088867188 179.70635986328125
v 130.1365509033203 -117.33790588378906 177.09523010253906
v 129.6383056640625 -118.53440856933594 176.5982666015625
v 128.6915283203125 -117.58247375488281 175.55462646484375
v 127.23406219482422 -118.66326904296875 174.02645874023438
v 127.70123291015625 -119.55735778808594 174.5544891357422
v 127.71987915039062 -118.30300903320312 174.53585815429688
v 129.56993103027344 -123.13371276855469 176.66661071777344
v 130.037109375 -124.02779388427734 177.19464111328125
v 128.99786376953125 -123.78341674804688 176.117431640625
v 128.53067016601562 -122.88932800292969 175.5894012451172
v 127.95860290527344 -123.53903198242188 175.04022216796875
v 126.19480895996094 -118.41889953613281 172.94924926757812
v 126.76689147949219 -117.76918029785156 173.49842834472656
v 117.57743835449219 -116.35271453857422 172.4937744140625
v 117.01483917236328 -115.42979431152344 172.0033416748047
v 126.08990478515625 -119.96269226074219 172.9281005859375
v 126.55708312988281 -120.85678100585938 173.4561309814453
v 124.85166931152344 -122.40711212158203 179.2053680419922
v 125.91642761230469 -121.81525421142578 180.25706481933594
v 126.6619873046875 -119.31298065185547 173.47727966308594
v 123.75582885742188 -120.90838623046875 178.1847686767578
v 127.4914321899414 -122.64494323730469 174.51219177246094
v 118.03514099121094 -115.68741607666016 172.96307373046875
v 117.01483917236328 -115.42979431152344 172.0033416748047
v 120.16813659667969 -114.69631958007812 172.89547729492188
v 123.0262222290039 -114.22762298583984 173.73468017578125
v 122.06114196777344 -115.34395599365234 174.7884979248047
v 130.1365509033203 -117.33790588378906 177.09523010253906
v 128.26161193847656 -115.13590240478516 178.9701690673828
v 127.25303649902344 -116.02156829833984 176.0866241455078
v 123.21438598632812 -115.94478607177734 169.76388549804688
v 124.17411804199219 -116.2024154663086 170.78419494628906
v 123.64720153808594 -115.6443099975586 171.26673889160156
v 125.13384246826172 -116.46004486083984 171.80450439453125
v 120.63209533691406 -115.57830810546875 174.368896484375
v 119.05545043945312 -115.94503784179688 173.92282104492188
v 119.70417785644531 -113.81433868408203 171.42205810546875
v 121.13321685791016 -113.57998657226562 171.84164428710938
v 125.26174926757812 -116.00562286376953 177.9891815185547
v 124.79301452636719 -116.55618286132812 178.45791625976562
v 123.76181030273438 -116.44048309326172 177.49868774414062
v 123.31570434570312 -115.790283203125 176.04310607910156
v 122.26187896728516 -116.8753433227539 177.00819396972656
v 126.77637481689453 -116.44833374023438 174.52850341796875
v 127.25892639160156 -116.99079895019531 174.00160217285156
v 128.2181396484375 -117.10650634765625 175.03280639648438
v 126.29971313476562 -116.8750991821289 172.97039794921875
v 123.52745056152344 -116.71575927734375 177.73306274414062
v 123.29307556152344 -116.99104309082031 177.9674072265625
v 119.2402114868164 -112.93235778808594 169.94862365722656
v 120.70039367675781 -113.88046264648438 170.33880615234375
v 120.26756286621094 -114.18093872070312 168.8359375
v 118.12752532958984 -114.18107604980469 170.97598266601562
v 126.31556701660156 -114.92056274414062 177.0240936279297
v 124.36952209472656 -114.70523071289062 175.07801818847656
v 125.35546875 -117.22245025634766 179.8858642578125
v 124.32427215576172 -117.10675048828125 178.9266357421875
v 122.16056823730469 -114.82857513427734 170.72897338867188
v 126.38666534423828 -117.33815002441406 180.84507751464844
v 121.294921875 -115.42952728271484 167.7232666015625
v 122.25465393066406 -115.6871566772461 168.7435760498047
v 121.72774505615234 -115.1290512084961 169.2261199951172
v 122.59339904785156 -114.5280990600586 172.23182678222656
v 124.08003234863281 -115.34383392333984 172.76959228515625
v 123.55313110351562 -114.78572845458984 173.25213623046875
v 127.32414245605469 -116.23703002929688 179.90762329101562
v 121.09605407714844 -116.46028900146484 175.84231567382812
v 124.81563568115234 -115.35542297363281 176.53359985351562
v 121.21406555175781 -114.5047607421875 169.78245544433594
v 125.3346176147461 -115.7901611328125 174.02420043945312
v 120.07575225830078 -116.20266723632812 174.882568359375
vn -0.23734383285045624 0.8018622398376465 0.5483474135398865
vn -0.0877506211400032 0.6929650902748108 0.7156110405921936
vn 0.04253944754600525 0.7946586608886719 0.6055642366409302
vn 0.04778370261192322 0.9977055191993713 0.0479620099067688
vn 0.0602722242474556 0.9586442708969116 0.2781516909599304
vn 0.23885048925876617 0.9582555294036865 0.15715260803699493
vn 0.13600531220436096 0.9620705842971802 0.2364797592163086
vn -0.48384392261505127 0.8663244247436523 0.12400426715612411
vn -0.19927190244197845 0.9594621062278748 -0.19930651783943176
vn 0.39076554775238037 0.8896169066429138 -0.23639799654483795
vn 0.3663583993911743 0.9285452365875244 0.05987732857465744
vn 0.5066621899604797 0.8564907908439636 -0.09857439249753952
vn 0.4179781973361969 0.8709065914154053 0.25848785042762756
vn 0.06946572661399841 0.8671749234199524 0.49313509464263916
vn -0.20422068238258362 0.822996973991394 0.5300660133361816
vn 0.5104848742485046 0.8532306551933289 -0.10678309947252274
vn -0.2036178708076477 0.6671964526176453 0.7165113687515259
vn 0.07486159354448318 0.7282978892326355 0.6811591982841492
vn 0.26599615812301636 0.7646587491035461 0.5869777798652649
vn 0.6055731773376465 0.7946510314941406 0.04255388304591179
vn -0.4619329869747162 0.7144442796707153 0.5255352258682251
vn -0.33724966645240784 0.7001085877418518 0.6293731331825256
vn 0.7096344828605652 0.6992691159248352 -0.08626402914524078
vn 0.8321489095687866 0.5502690672874451 0.06879071146249771
vn 0.7235366106033325 0.6600085496902466 -0.2021971344947815
vn 0.017349854111671448 0.9996853470802307 0.018118662759661674
vn 0.20212014019489288 0.8481754064559937 0.48963871598243713
vn -0.7983406186103821 0.5986869931221008 0.06500866264104843
vn -0.5608227849006653 0.7583969235420227 0.33213210105895996
vn -0.4491356313228607 0.7001739144325256 0.5550078749656677
vn 0.17420712113380432 0.6691417098045349 0.7224273681640625
vn 0.12399587780237198 0.8662859797477722 -0.483914852142334
vn 0.5436530709266663 0.8054370880126953 -0.23603487014770508
vn 0.32258138060569763 0.7596047520637512 -0.5647494196891785
vn 0.05021066218614578 0.5929750204086304 -0.8036538362503052
vn 0.5445430874824524 0.7055463790893555 -0.45351648330688477
vn 0.0761648565530777 0.5496055483818054 0.8319451212882996
vn 0.5373097062110901 0.650042712688446 0.5373478531837463
vn 0.8321412801742554 0.5492722988128662 0.0764254704117775
vn 0.8439944982528687 0.5325450897216797 0.06378845870494843
vn 0.7914871573448181 0.6072443723678589 -0.06929850578308105
vn 0.7183624505996704 0.666125476360321 -0.20058031380176544
vn 0.724588930606842 0.6572853326797485 -0.20723645389080048
vn -0.0711875706911087 0.6108250021934509 0.788558840751648
vn 0.06308694183826447 0.5386293530464172 0.840177595615387
vn 0.09950132668018341 0.9923792481422424 0.0726829320192337
vn 0.11660584062337875 0.9697267413139343 -0.21455322206020355
vn -0.20141752064228058 0.9740670323371887 0.10307534039020538
vn -0.21037274599075317 0.6609381437301636 0.7203500866889954
vn 0.35325852036476135 0.866264820098877 0.3532615303993225
vn 0.0741073414683342 0.9323563575744629 0.35386383533477783
vn 0.23101863265037537 0.9483644962310791 0.21733619272708893
vn -0.3406141996383667 0.6968181133270264 0.6312102675437927
vn -0.06458332389593124 0.6165810823440552 0.7846379280090332
vn 0.7946164608001709 0.6027469038963318 -0.07266820222139359
vn 0.31257978081703186 0.6824530959129333 -0.6607205867767334
vn -0.23636426031589508 0.8896284699440002 0.39075949788093567
vn 0.4896417260169983 0.8481714725494385 0.2021290510892868
vn 0.2617685794830322 0.8929188847541809 -0.3662964105606079
vn -0.6549666523933411 0.6819453239440918 0.3255293369293213
vn 0.1215735673904419 0.9277182817459106 -0.35292869806289673
vn -0.3662419021129608 0.8929411172866821 0.2617688477039337
vn -0.09856423735618591 0.8564974665641785 0.5066527724266052
vn -0.20047545433044434 0.6516345739364624 0.7315613627433777
vn 0.06730187684297562 0.5409560203552246 0.8383538126945496
vn -0.19590148329734802 0.9794332385063171 -0.04830292984843254
vn -0.07462027668952942 0.6077439785003662 0.7906193733215332
vn -0.014567367732524872 0.817071259021759 -0.5763526558876038
vn -0.5763967633247375 0.8170401453971863 -0.014567299745976925
vn 0.6357314586639404 0.6947427988052368 -0.3364192843437195
vn 0.6506209969520569 0.7391279339790344 0.17430464923381805
vn 0.7854636907577515 0.6157037019729614 -0.06289511919021606
vn 0.6325820684432983 0.699226438999176 -0.3330499231815338
vn 0.530353307723999 0.714146077632904 -0.4568595886230469
vn 0.5979785323143005 0.7154865264892578 0.3612489104270935
vn 0.6335132122039795 -0.6646454334259033 -0.3961154520511627
vn 0.8837923407554626 -0.37043267488479614 -0.2858158349990845
vn 0.15549378097057343 -0.3422872722148895 -0.9266396760940552
vn 0.2810060977935791 -0.8516064882278442 -0.4424952268600464
vn 0.482469379901886 0.4097151458263397 -0.7741813659667969
vn 0.8126790523529053 0.022469528019428253 -0.5822781920433044
vn 0.9568104147911072 0.26852455735206604 -0.11139287799596786
vn 0.9024783968925476 -0.3714231252670288 -0.21812283992767334
vn -0.041270580142736435 -0.3154427111148834 -0.9480467438697815
vn 0.6111428141593933 0.6764807105064392 -0.4109479784965515
vn 0.6055731773376465 0.7946510314941406 0.04255388304591179
vn -0.03477301076054573 0.31238850951194763 -0.9493178129196167
vn -0.8625322580337524 -0.10312968492507935 0.49538105726242065
vn -0.6178123354911804 -0.25547441840171814 0.7436670660972595
vn -0.9262516498565674 -0.34390929341316223 0.15422160923480988
vn -0.6449156999588013 0.15605081617832184 0.7481522560119629
vn -0.2836686670780182 -0.3708411157131195 0.8843126893043518
vn -0.11939404159784317 0.10285791009664536 0.9875045418739319
vn -0.20847521722316742 -0.13860835134983063 0.9681558609008789
vn 0.0761648565530777 0.5496055483818054 0.8319451212882996
vn -0.3122302293777466 0.3873879909515381 0.8674346208572388
vn -0.48384392261505127 0.8663244247436523 0.12400426715612411
vn 0.740142285823822 0.3641657829284668 -0.5653074979782104
vn 0.18261629343032837 0.34237655997276306 -0.9216449856758118
vn 0.6618708968162537 -0.017413143068552017 -0.7494155764579773
vn 0.17994572222232819 0.000047519879444735125 -0.9836764931678772
vn 0.12399587780237198 0.8662859797477722 -0.483914852142334
vn 0.16318222880363464 0.6432629227638245 -0.7480537295341492
vn 0.6267772912979126 -0.21823886036872864 -0.748012125492096
vn -0.6639286875724792 0.6453301906585693 0.37781956791877747
vn -0.9493296146392822 0.3123524785041809 -0.03477540612220764
vn -0.5763967633247375 0.8170401453971863 -0.014567299745976925
vn 0.26333028078079224 -0.9269851446151733 0.2671249508857727
vn 0.9873669743537903 0.10290627926588058 -0.12048551440238953
vn -0.5268175005912781 -0.7955260276794434 0.2993353009223938
vn -0.11726605892181396 -0.986669659614563 -0.11283504217863083
vn -0.4635286033153534 -0.7574716210365295 -0.45975857973098755
vn -0.17148928344249725 -0.61225825548172 -0.7718362808227539
vn -0.4383682608604431 -0.6308538317680359 0.6402005553245544
vn -0.6245748400688171 0.35028886795043945 0.6980000138282776
vn 0.04253944754600525 0.7946586608886719 0.6055642366409302
vn -0.1113927811384201 0.26851677894592285 0.9568125605583191
vn -0.21810609102249146 -0.37144818902015686 0.9024721384048462
vn -0.4274928867816925 -0.8687090873718262 0.2501886487007141
vn -0.4878008961677551 -0.7239275574684143 -0.48783111572265625
vn -0.9480395913124084 -0.3154635727405548 -0.04127515107393265
vn 0.37605440616607666 -0.846868634223938 0.376027375459671
vn 0.9411110877990723 0.3373287618160248 -0.02278934046626091
vn 0.8321412801742554 0.5492722988128662 0.0764254704117775
vn -0.8019312024116516 -0.04059383645653725 0.5960354804992676
vn -0.9220651388168335 0.34160861372947693 0.18193261325359344
vn -0.014567367732524872 0.817071259021759 -0.5763526558876038
vn 0.8822927474975586 -0.3887665569782257 -0.2653677761554718
vn 0.9675610661506653 -0.15831197798252106 -0.19688329100608826
vn 0.9689899682998657 -0.15327341854572296 -0.19381889700889587
vn 0.166463702917099 0.32883140444755554 -0.9296019077301025
vn 0.11837644129991531 -0.12482967227697372 -0.9850910902023315
vn 0.12748119235038757 -0.3695196807384491 -0.9204367399215698
vn 0.1016794815659523 0.12786643207073212 -0.9865654110908508
vn 0.0784611776471138 0.3723617196083069 -0.9247652292251587
vn 0.05021066218614578 0.5929750204086304 -0.8036538362503052
vn -0.23257015645503998 -0.06992795318365097 0.9700624942779541
vn -0.21116681396961212 -0.15789572894573212 0.9646126627922058
vn -0.28340744972229004 -0.39137518405914307 0.8755031228065491
vn -0.12463612109422684 0.0862688273191452 0.988444983959198
vn -0.15502119064331055 0.2595508098602295 0.9532060623168945
vn -0.029671071097254753 0.3245954215526581 0.9453874826431274
vn 0.06730187684297562 0.5409560203552246 0.8383538126945496
vn -0.025516800582408905 0.3169005513191223 0.9481155276298523
vn -0.11236843466758728 0.07341176271438599 0.9909511208534241
vn -0.12629073858261108 0.09606462717056274 0.9873309135437012
vn 0.06308694183826447 0.5386293530464172 0.840177595615387
vn -0.9826688766479492 -0.11891338229179382 0.14220237731933594
vn -0.9818030595779419 -0.12706319987773895 0.1411300003528595
vn -0.9839837551116943 0.12874087691307068 0.12329529225826263
vn -0.9150604009628296 -0.3745117783546448 0.14968420565128326
vn -0.9815323948860168 0.14500388503074646 0.12477245181798935
vn -0.9214591383934021 0.37607917189598083 0.09735287725925446
vn -0.7983406186103821 0.5986869931221008 0.06500866264104843
vn 0.37605440616607666 -0.846868634223938 0.376027375459671
vn 0.2485290914773941 -0.9291728734970093 0.2736256718635559
vn 0.6482166647911072 -0.761388897895813 -0.010099651291966438
vn 0.873921811580658 -0.3892469108104706 -0.2911142110824585
vn 0.017347093671560287 -0.7416098117828369 0.6706070899963379
vn -0.019920537248253822 -0.75422203540802 0.6563171148300171
vn 0.2485290914773941 -0.9291728734970093 0.2736256718635559
vn 0.1550203412771225 0.6378426551818848 -0.7544040083885193
vn 0.16318222880363464 0.6432629227638245 -0.7480537295341492
vn 0.12399587780237198 0.8662859797477722 -0.483914852142334
vn 0.18261629343032837 0.34237655997276306 -0.9216449856758118
vn -0.20847521722316742 -0.13860835134983063 0.9681558609008789
vn -0.11939404159784317 0.10285791009664536 0.9875045418739319
vn -0.2836686670780182 -0.3708411157131195 0.8843126893043518
vn -0.2574905455112457 -0.41162294149398804 0.8742225766181946
vn 0.03605690971016884 -0.7254980802536011 0.6872789859771729
vn 0.26333028078079224 -0.9269851446151733 0.2671249508857727
vn 0.32168498635292053 -0.8800280094146729 0.34938445687294006
vn 0.32168498635292053 -0.8800280094146729 0.34938445687294006
vn 0.6875427961349487 -0.7245570421218872 0.047978516668081284
vn 0.6935745477676392 -0.7194557785987854 0.03657437115907669
vn -0.1668269783258438 -0.6189587116241455 -0.7675016522407532
vn -0.1807149201631546 -0.6281419992446899 -0.7568221092224121
vn -0.4548209607601166 -0.7682715654373169 -0.45044052600860596
vn 0.99109947681427 0.10218571126461029 -0.08532265573740005
vn 0.9568104147911072 0.26852455735206604 -0.11139287799596786
vn 0.9024783968925476 -0.3714231252670288 -0.21812283992767334
vn 0.15549378097057343 -0.3422872722148895 -0.9266396760940552
vn 0.17994572222232819 0.000047519879444735125 -0.9836764931678772
vn 0.9477679133415222 0.31783533096313477 -0.026770520955324173
vn 0.8439944982528687 0.5325450897216797 0.06378845870494843
vn 0.9897059798240662 0.09265652298927307 -0.10907234251499176
vn 0.9898698925971985 0.08244401216506958 -0.11558753997087479
vn 0.9430303573608398 0.33227723836898804 -0.016898777335882187
vn 0.8321412801742554 0.5492722988128662 0.0764254704117775
vn 0.9873669743537903 0.10290627926588058 -0.12048551440238953
vn -0.19150428473949432 -0.17511779069900513 0.9657430648803711
vn -0.19918902218341827 -0.16378013789653778 0.9661779403686523
vn -0.21810609102249146 -0.37144818902015686 0.9024721384048462
vn -0.1113927811384201 0.26851677894592285 0.9568125605583191
vn -0.9220651388168335 0.34160861372947693 0.18193261325359344
vn -0.9262516498565674 -0.34390929341316223 0.15422160923480988
vn -0.48384392261505127 0.8663244247436523 0.12400426715612411
vn -0.8151045441627502 0.5625437498092651 0.13838016986846924
vn -0.02595709264278412 0.33435264229774475 0.9420905113220215
vn 0.0761648565530777 0.5496055483818054 0.8319451212882996
vn 0.9411110877990723 0.3373287618160248 -0.02278934046626091
vn 0.9639614224433899 -0.15333670377731323 -0.21740788221359253
vn 0.9873013496398926 0.09318336099386215 -0.12865838408470154
vn -0.4635286033153534 -0.7574716210365295 -0.45975857973098755
vn -0.17148928344249725 -0.61225825548172 -0.7718362808227539
vn -0.059667401015758514 0.5592191219329834 0.8268699645996094
vn 0.04253944754600525 0.7946586608886719 0.6055642366409302
vn 0.8321489095687866 0.5502690672874451 0.06879071146249771
vn 0.6055731773376465 0.7946510314941406 0.04255388304591179
vn 0.87163907289505 0.48959189653396606 -0.0233478881418705
vn 0.8837923407554626 -0.37043267488479614 -0.2858158349990845
vn -0.4635286033153534 -0.7574716210365295 -0.45975857973098755
vn -0.4548209607601166 -0.7682715654373169 -0.45044052600860596
vn -0.6210078001022339 -0.7172942161560059 -0.3159721791744232
vn -0.7572008371353149 -0.6316726207733154 -0.1662428230047226
vn 0.9423264265060425 0.33325573801994324 -0.03100655972957611
vn 0.37605440616607666 -0.846868634223938 0.376027375459671
vn 0.26333028078079224 -0.9269851446151733 0.2671249508857727
vn -0.7614259123802185 -0.6252200603485107 -0.17126110196113586
vn -0.9070048332214355 -0.26124823093414307 0.3302900195121765
vn -0.8251684904098511 -0.4187963604927063 0.3790864050388336
vn -0.8576697707176208 -0.13609477877616882 0.49586373567581177
vn 0.3870331645011902 0.14045323431491852 -0.911305844783783
vn 0.1016794815659523 0.12786643207073212 -0.9865654110908508
vn 0.3710101246833801 0.3952106833457947 -0.8403334021568298
vn 0.6386184096336365 0.1407855749130249 -0.756535530090332
vn 0.0784611776471138 0.3723617196083069 -0.9247652292251587
vn 0.36233243346214294 -0.41556596755981445 -0.8342781066894531
vn 0.27485325932502747 -0.2508181929588318 -0.9281949996948242
vn 0.41236668825149536 -0.12312018871307373 -0.902660071849823
vn 0.8713434934616089 0.1253858357667923 -0.47438254952430725
vn 0.8334991931915283 0.3916279077529907 -0.38975217938423157
vn 0.9873013496398926 0.09318336099386215 -0.12865838408470154
vn 0.8146690130233765 -0.1338237076997757 -0.5642744302749634
vn 0.9423264265060425 0.33325573801994324 -0.03100655972957611
vn 0.12748119235038757 -0.3695196807384491 -0.9204367399215698
vn 0.11837644129991531 -0.12482967227697372 -0.9850910902023315
vn -0.49912601709365845 -0.42750078439712524 0.7537350058555603
vn -0.3923772871494293 -0.26916104555130005 0.8795409202575684
vn -0.49082091450691223 -0.13972613215446472 0.8599833846092224
vn 0.6252875328063965 0.44727692008018494 -0.6394988894462585
vn 0.8035784363746643 -0.17908740043640137 -0.5676173567771912
vn 0.693411111831665 0.1836799681186676 -0.6967371702194214
vn 0.8212531208992004 0.13200534880161285 -0.5550836324691772
vn 0.9170010685920715 0.07517202198505402 -0.391737699508667
vn 0.7902973890304565 0.2967810034751892 -0.536051332950592
vn 0.6800258755683899 -0.12077309936285019 -0.7231726050376892
vn 0.9309782385826111 0.32127925753593445 -0.17337554693222046
vn 0.8492503762245178 0.3956368863582611 -0.3496357202529907
vn 0.8674405217170715 0.47550278902053833 -0.14643804728984833
vn -0.28340744972229004 -0.39137518405914307 0.8755031228065491
vn -0.21116681396961212 -0.15789572894573212 0.9646126627922058
vn -0.6835657954216003 -0.4368361830711365 0.5847324132919312
vn -0.6025418639183044 -0.29581645131111145 0.7412394285202026
vn -0.6956331729888916 -0.16221344470977783 0.6998438239097595
vn -0.5760972499847412 -0.006542773451656103 0.8173549771308899
vn -0.645918607711792 0.12681610882282257 0.752799391746521
vn -0.4021664559841156 0.11121288686990738 0.908786952495575
vn -0.3157920837402344 -0.027429036796092987 0.9484318494796753
vn -0.12463612109422684 0.0862688273191452 0.988444983959198
vn -0.22493790090084076 0.23033501207828522 0.9467569589614868
vn -0.029671071097254753 0.3245954215526581 0.9453874826431274
vn -0.31791719794273376 0.36690303683280945 0.874248743057251
vn -0.0707995817065239 0.4664604663848877 0.8817040920257568
vn 0.06308694183826447 0.5386293530464172 0.840177595615387
vn -0.07462027668952942 0.6077439785003662 0.7906193733215332
vn -0.2029261440038681 0.38269609212875366 0.9013128280639648
vn -0.6194727420806885 0.030620748177170753 0.7844207286834717
vn -0.6113454699516296 -0.27486735582351685 0.7420948147773743
vn -0.5169808268547058 -0.12340035289525986 0.8470556139945984
vn -0.025516800582408905 0.3169005513191223 0.9481155276298523
vn -0.12822556495666504 0.46449968218803406 0.8762410283088684
vn 0.06730187684297562 0.5409560203552246 0.8383538126945496
vn -0.6086021065711975 0.47099146246910095 0.6385692358016968
vn -0.6983316540718079 0.18347366154193878 0.6918599605560303
vn -0.4798654615879059 0.4759514033794403 0.7370206117630005
vn -0.20047545433044434 0.6516345739364624 0.7315613627433777
vn -0.4931398034095764 0.25260791182518005 0.8324676752090454
vn -0.5776727795600891 0.4362611174583435 0.6899060606956482
vn -0.3950628638267517 0.5495872497558594 0.7361243367195129
vn -0.7227269411087036 -0.12120947986841202 0.6804218888282776
vn -0.4491356313228607 0.7001739144325256 0.5550078749656677
vn -0.6549666523933411 0.6819453239440918 0.3255293369293213
vn -0.6412613391876221 0.566270649433136 0.5178044438362122
vn -0.7973312139511108 0.40052804350852966 0.4514867663383484
vn -0.8173407912254333 0.5118215084075928 0.26456114649772644
vn -0.7983406186103821 0.5986869931221008 0.06500866264104843
vn -0.9214591383934021 0.37607917189598083 0.09735287725925446
vn -0.9478589296340942 -0.003784892847761512 0.3186676502227783
vn -0.9839837551116943 0.12874087691307068 0.12329529225826263
vn -0.9818030595779419 -0.12706319987773895 0.1411300003528595
vn -0.8725375533103943 0.1368076354265213 0.46900081634521484
vn -0.4488869607448578 0.18894650042057037 0.8733841180801392
vn -0.3428756892681122 0.44201821088790894 0.828888475894928
vn 0.9639614224433899 -0.15333670377731323 -0.21740788221359253
vn -0.7693004012107849 -0.004747366067022085 0.6388697028160095
vn -0.7392666339874268 0.2701181173324585 0.6168637871742249
vn -0.9157756567001343 0.272097647190094 0.29549598693847656
vn 0.21448932588100433 0.5031928420066833 -0.8371327519416809
vn 0.05021066218614578 0.5929750204086304 -0.8036538362503052
vn 0.31257978081703186 0.6824530959129333 -0.6607205867767334
vn 0.8997672200202942 0.4328197240829468 -0.055551767349243164
vn 0.8439944982528687 0.5325450897216797 0.06378845870494843
vn 0.9477679133415222 0.31783533096313477 -0.026770520955324173
vn -0.28568682074546814 0.13354401290416718 0.9489727020263672
vn 0.9898698925971985 0.08244401216506958 -0.11558753997087479
vn 0.9675610661506653 -0.15831197798252106 -0.19688329100608826
vn 0.9722814559936523 -0.04013046994805336 -0.23034393787384033
vn 0.926980197429657 -0.16156111657619476 -0.3385348916053772
vn 0.9633145332336426 0.07962459325790405 -0.2562909424304962
vn 0.9681825637817383 0.20349231362342834 -0.14564868807792664
vn 0.8314463496208191 -0.4049534499645233 -0.38040733337402344
vn 0.8592524528503418 -0.29222601652145386 -0.4198681116104126
vn 0.7672290205955505 -0.4146280884742737 -0.48932942748069763
vn 0.8722786903381348 -0.17580752074718475 -0.45631301403045654
vn 0.6336512565612793 -0.15363065898418427 -0.7582108378410339
vn 0.7916557192802429 -0.2992208003997803 -0.5326801538467407
vn 0.6906734704971313 -0.41763484477996826 -0.5903823375701904
vn 0.9288631677627563 -0.04351652041077614 -0.36785802245140076
vn 0.5737413167953491 -0.434725821018219 -0.6941429376602173
vn 0.5036554336547852 -0.28492027521133423 -0.8155683279037476
vn 0.7090238332748413 -0.29034295678138733 -0.6426399350166321
vn 0.7480298280715942 -0.4257594048976898 -0.5090975761413574
vn -0.7833179235458374 -0.29118654131889343 0.5492024421691895
vn -0.9150604009628296 -0.3745117783546448 0.14968420565128326
vn 0.8822927474975586 -0.3887665569782257 -0.2653677761554718
vn 0.9113796949386597 -0.277214914560318 -0.3042021095752716
vn 0.47444024682044983 0.5704130530357361 -0.6704738736152649
vn 0.5445430874824524 0.7055463790893555 -0.45351648330688477
vn 0.7400267720222473 0.003545044455677271 -0.672568142414093
vn 0.8584709763526917 0.4854514002799988 -0.16542275249958038
vn 0.8321489095687866 0.5502690672874451 0.06879071146249771
vn 0.7235366106033325 0.6600085496902466 -0.2021971344947815
vn 0.7056319713592529 0.5618124604225159 -0.431799054145813
vn -0.3947659432888031 -0.27271369099617004 0.8773751854896545
vn -0.48388922214508057 -0.4266585409641266 0.7640770673751831
vn -0.37367311120033264 -0.4225139319896698 0.825742244720459
vn -0.2574905455112457 -0.41162294149398804 0.8742225766181946
vn 0.8721941709518433 -0.05267666280269623 -0.48631516098976135
vn 0.7130265831947327 -0.30060940980911255 -0.633424699306488
vn 0.603010892868042 -0.4139254689216614 -0.681941032409668
vn 0.7946164608001709 0.6027469038963318 -0.07266820222139359
vn 0.724588930606842 0.6572853326797485 -0.20723645389080048
vn 0.8017626404762268 0.570483922958374 -0.1781141757965088
vn 0.6419140696525574 0.47094616293907166 -0.6051082611083984
vn 0.530353307723999 0.714146077632904 -0.4568595886230469
vn 0.623978853225708 0.6466888785362244 -0.4386844336986542
vn 0.7090890407562256 0.5704065561294556 -0.4145226776599884
vn 0.6357314586639404 0.6947427988052368 -0.3364192843437195
vn -0.6795055270195007 -0.4145525395870209 0.6053251028060913
vn -0.6693505048751831 -0.19783619046211243 0.7161220908164978
vn -0.5503600239753723 -0.3525197505950928 0.7568577527999878
vn -0.37215498089790344 -0.1173170804977417 0.9207265973091125
vn -0.41585344076156616 0.03627992421388626 0.9087076783180237
vn -0.458063006401062 -0.19900833070278168 0.8663567900657654
vn -0.47701603174209595 0.6029292345046997 0.6394779682159424
vn -0.4619329869747162 0.7144442796707153 0.5255352258682251
vn -0.3406141996383667 0.6968181133270264 0.6312102675437927
vn -0.3498353660106659 0.5762128829956055 0.7386432886123657
vn -0.21037274599075317 0.6609381437301636 0.7203500866889954
vn -0.19150428473949432 -0.17511779069900513 0.9657430648803711
vn -0.318912148475647 -0.2679053544998169 0.9091323614120483
vn 0.8598453998565674 -0.26635220646858215 -0.43557146191596985
vn 0.873921811580658 -0.3892469108104706 -0.2911142110824585
vn -0.11236843466758728 0.07341176271438599 0.9909511208534241
vn -0.15989959239959717 0.2313121259212494 0.9596493244171143
vn 0.7845227718353271 0.4863402247428894 -0.3847041726112366
vn 0.7222715020179749 0.3883458971977234 -0.572286069393158
vn -0.24562516808509827 -0.02225743979215622 0.9691093564033508
vn 0.9367755651473999 0.2009686380624771 -0.2864665687084198
vn -0.20955681800842285 0.5291585922241211 0.822239100933075
vn 0.7480298280715942 -0.4257594048976898 -0.5090975761413574
vn 0.873921811580658 -0.3892469108104706 -0.2911142110824585
vn 0.2508770525455475 -0.8664980530738831 -0.43155747652053833
vn -0.4548209607601166 -0.7682715654373169 -0.45044052600860596
vn -0.1807149201631546 -0.6281419992446899 -0.7568221092224121
vn -0.6795055270195007 -0.4145525395870209 0.6053251028060913
vn -0.03381288796663284 -0.9988734722137451 -0.03329446166753769
vn -0.21714246273040771 -0.7856128811836243 0.5793629884719849
vn -0.6835657954216003 -0.4368361830711365 0.5847324132919312
vn -0.8251684904098511 -0.4187963604927063 0.3790864050388336
vn -0.7494566440582275 -0.6194801330566406 0.23357927799224854
vn -0.9150604009628296 -0.3745117783546448 0.14968420565128326
vn 0.20227617025375366 -0.660794198513031 -0.7227970361709595
vn 0.5737413167953491 -0.434725821018219 -0.6941429376602173
vn 0.26699021458625793 -0.9599933624267578 -0.08443277329206467
vn -0.12000332027673721 -0.9874308705329895 -0.10285606235265732
vn 0.5130854845046997 -0.8391217589378357 -0.1806044727563858
vn 0.6547286510467529 -0.6589155793190002 -0.37035202980041504
vn 0.7300062775611877 -0.6423822641372681 -0.23331491649150848
vn 0.6875427961349487 -0.7245570421218872 0.047978516668081284
vn 0.8822927474975586 -0.3887665569782257 -0.2653677761554718
vn -0.244397833943367 -0.6164801716804504 0.7484797239303589
vn -0.37367311120033264 -0.4225139319896698 0.825742244720459
vn -0.48388922214508057 -0.4266585409641266 0.7640770673751831
vn -0.2574905455112457 -0.41162294149398804 0.8742225766181946
vn 0.781896710395813 -0.5329654216766357 -0.3233964145183563
vn 0.8314463496208191 -0.4049534499645233 -0.38040733337402344
vn 0.2485290914773941 -0.9291728734970093 0.2736256718635559
vn -0.14336514472961426 -0.9403896927833557 0.3084051311016083
vn -0.019920537248253822 -0.75422203540802 0.6563171148300171
vn 0.6482166647911072 -0.761388897895813 -0.010099651291966438
vn 0.14939427375793457 -0.9750758409500122 0.16403824090957642
vn 0.32168498635292053 -0.8800280094146729 0.34938445687294006
vn 0.6906734704971313 -0.41763484477996826 -0.5903823375701904
vn 0.7672290205955505 -0.4146280884742737 -0.48932942748069763
vn -0.5130497217178345 -0.8059245347976685 0.2954075336456299
vn 0.603010892868042 -0.4139254689216614 -0.681941032409668
vn -0.28340744972229004 -0.39137518405914307 0.8755031228065491
vn -0.49912601709365845 -0.42750078439712524 0.7537350058555603
vn -0.4294894337654114 -0.6456437706947327 0.6314134001731873
vn -0.5219241976737976 -0.8488850593566895 -0.08360152691602707
vn -0.7572008371353149 -0.6316726207733154 -0.1662428230047226
vn -0.6210078001022339 -0.7172942161560059 -0.3159721791744232
vn 0.33826056122779846 -0.8395920395851135 -0.4250470697879791
vn 0.12748119235038757 -0.3695196807384491 -0.9204367399215698
vn 0.43510663509368896 -0.8960708975791931 0.08797303587198257
vn -0.2799724042415619 -0.8195541501045227 0.4999465346336365
vn 0.03605690971016884 -0.7254980802536011 0.6872789859771729
vn 0.36233243346214294 -0.41556596755981445 -0.8342781066894531
vt 0.15775635838508606 0.3109090328216553
vt 0.29875636100769043 0.28857970237731934
vt 0.4397560954093933 0.33113765716552734
vt -0.7471959590911865 0.501894623041153
vt -0.6125122904777527 0.4653130769729614
vt -0.6125122308731079 0.5218091309070587
vt -0.16635283827781677 0.5018928647041321
vt -0.12424361705780029 0.3555675745010376
vt -0.12424400448799133 0.5018924474716187
vt 0.15775632858276367 0.6604324579238892
vt 0.2987564504146576 0.5811625421047211
vt 0.2987566888332367 0.6665400266647339
vt -0.4778285622596741 0.5417236387729645
vt -0.47782862186431885 0.4287315011024475
vt -0.6125123500823975 0.35232090950012207
vt -0.6125122308731079 0.6348012685775757
vt -0.4778286814689636 0.31573939323425293
vt -0.343144953250885 0.3921499252319336
vt -0.3431449234485626 0.44864600896835327
vt 0.4397570490837097 0.6726475954055786
vt -0.7471960783004761 0.2759103775024414
vt -0.6125123500823975 0.29582488536834717
vt 0.29875731468200684 0.7152048647403717
vt 0.43975791335105896 0.7375340461730957
vt 0.2987571358680725 0.7375341653823853
vt 0.4857366681098938 0.5018925964832306
vt 0.4397563338279724 0.4165151119232178
vt -0.12424397468566895 0.26625072956085205
vt 0.016756191849708557 0.28857988119125366
vt 0.15775620937347412 0.2662506103515625
vt -0.2758030891418457 0.40210723876953125
vt -0.12424439191818237 0.6482173204421997
vt 0.1577567458152771 0.6928756833076477
vt 0.016755759716033936 0.7152051329612732
vt -0.12424522638320923 0.7375345826148987
vt 0.15775635838508606 0.7375343143939972
vt -0.20846128463745117 0.35556840896606445
vt -0.2084607481956482 0.5018934607505798
vt -0.20846021175384521 0.6482185125350952
vt -0.20845919847488403 0.737535834312439
vt -0.34314361214637756 0.7127922773361206
vt -0.4778280258178711 0.6880486905574799
vt -0.4778275191783905 0.7327073514461517
vt -0.3431447148323059 0.29099583625793457
vt -0.2084607481956482 0.26625221967697144
vt 0.15775585174560547 0.4896774888038635
vt 0.016755729913711548 0.5689474046230316
vt 0.016756117343902588 0.42262256145477295
vt -0.47782841324806213 0.2710813283920288
vt 0.4397565722465515 0.501892626285553
vt 0.2987559735774994 0.41040754318237305
vt 0.2987562119960785 0.49578505754470825
vt -0.6125122308731079 0.2734958529472351
vt -0.3431449830532074 0.3356539011001587
vt -0.3431433439254761 0.7351216077804565
vt 0.016755566000938416 0.7375344634056091
vt 0.1577562391757965 0.34335261583328247
vt 0.4397568106651306 0.5872701108455658
vt 0.01675596833229065 0.6543248891830444
vt 0.016756117343902588 0.2662506699562073
vt -0.05374433100223541 0.6085823774337769
vt 0.016756311058998108 0.3494601249694824
vt 0.2987561821937561 0.3372451066970825
vt 0.29875630140304565 0.26625049114227295
vt 0.4397563636302948 0.2662504315376282
vt -0.05374394357204437 0.4622575044631958
vt -0.34314459562301636 0.26866674423217773
vt 0.5317172408103943 0.6726475358009338
vt 0.5317185521125793 0.3311377763748169
vt -0.6125116944313049 0.7302930951118469
vt -0.34314438700675964 0.5949710607528687
vt -0.34314411878585815 0.6681336164474487
vt -0.612511932849884 0.707963764667511
vt -0.747195839881897 0.7278788685798645
vt -0.2758025527000427 0.5484322607517242
vt 0.04505598545074463 0.7884239852428436
vt 0.009999999776482582 0.7302884459495544
vt 0.15022395551204681 0.7302883267402649
vt 0.08011197298765182 0.8465595245361328
vt 0.07800000160932541 0.27706611156463623
vt 0.11599999666213989 0.5035614371299744
vt 0.15399999916553497 0.27705103158950806
vt 0.15399999916553497 0.7300567626953125
vt 0.0020000000949949026 0.7300869226455688
vt 0.11599999666213989 0.05055570602416992
vt 0.15399999916553497 -0.1759546995162964
vt 0.0020000000949949026 0.2770809531211853
vt 0.11516796797513962 0.47993624210357666
vt 0.06258398294448853 0.605125218629837
vt 0.15022395551204681 0.7303140759468079
vt 0.08011198043823242 0.22955840826034546
vt 0.009999999776482582 0.7303141951560974
vt 0.009999999776482582 0.22955846786499023
vt 0.009999999776482582 0.4799363613128662
vt 0.009999999776482582 -0.27119719982147217
vt 0.045055992901325226 -0.020819425582885742
vt 0.15022395551204681 -0.2711975574493408
vt 0.08011197298765182 0.22953253984451294
vt 0.15022395551204681 0.22953248023986816
vt 0.08011198043823242 0.4799104928970337
vt 0.15022395551204681 0.47991037368774414
vt 0.15022395551204681 -0.27122342586517334
vt 0.15022395551204681 -0.020845413208007812
vt 0.08011197298765182 0.6050994098186493
vt 0.03999999910593033 0.05059373378753662
vt 0.0020000000949949026 0.2771071195602417
vt 0.0020000000949949026 -0.17590463161468506
vt 0.009999999776482582 0.9628307223320007
vt 0.009999999776482582 0.2295326590538025
vt 0.08011198043823242 0.8465723991394043
vt 0.08011197298765182 0.962830662727356
vt 0.15022395551204681 0.9628306031227112
vt 0.15022395551204681 0.846559464931488
vt 0.045055992901325226 0.7884432971477509
vt 0.07800000160932541 0.2770920395851135
vt 0.15399999916553497 -0.1759253740310669
vt 0.15399999916553497 0.2770816683769226
vt 0.15399999916553497 0.7300887107849121
vt 0.07799999415874481 0.848025918006897
vt 0.0020000000949949026 0.9659631252288818
vt 0.0020000000949949026 0.7301188707351685
vt 0.15399999916553497 0.9659329652786255
vt 0.009999999776482582 -0.02084517478942871
vt 0.009999999776482582 -0.2712230682373047
vt 0.07799999415874481 0.5035979151725769
vt 0.15022395551204681 0.2295582890510559
vt 0.0020000000949949026 -0.17592501640319824
vt 0.6713920831680298 0.7016928195953369
vt 0.6713920831680298 0.3622731566429138
vt 0.753044068813324 0.362277626991272
vt 0.8346960544586182 0.022862136363983154
vt 0.6713920831680298 0.3622729778289795
vt 0.6713920831680298 0.7016926407814026
vt 0.6713920831680298 0.02285325527191162
vt 0.6713920831680298 -0.31656646728515625
vt 0.6713920831680298 -0.6559860706329346
vt 0.7521989941596985 0.3890482187271118
vt 0.6702653169631958 0.4016242027282715
vt 0.6702653169631958 0.7351731657981873
vt 0.6702653169631958 0.06807518005371094
vt 0.8341326713562012 0.04292327165603638
vt 0.6702653169631958 -0.2654738426208496
vt 0.6702653169631958 -0.5990228652954102
vt 0.6702653169631958 -0.26366209983825684
vt 0.6702653169631958 0.07165765762329102
vt 0.8341326713562012 0.01766204833984375
vt 0.6702653169631958 -0.5989819765090942
vt 0.7521989941596985 0.3799774646759033
vt 0.6702653169631958 0.4069748520851135
vt 0.6702653169631958 0.07165545225143433
vt 0.6702653169631958 0.7422942519187927
vt 0.8341326713562012 0.01766061782836914
vt 0.6702653169631958 -0.2636638879776001
vt 0.6702653169631958 -0.5989832878112793
vt 0.9979999661445618 1.5956732034683228
vt 0.6713920831680298 1.5956729650497437
vt 0.6713920831680298 1.1576128005981445
vt 0.6713920831680298 0.7195526361465454
vt 0.8341326713562012 1.1738685369491577
vt 0.6702653169631958 1.2196609675884247
vt 0.6702653169631958 1.704148769378662
vt 0.9163479804992676 -0.31655311584472656
vt 0.9979999661445618 -0.34088611602783203
vt 0.9979999661445618 -0.6559683084487915
vt 0.9979999661445618 -0.02580404281616211
vt 0.9980000257492065 0.3164266347885132
vt 0.9980000257492065 -0.0014529228210449219
vt 0.9980000257492065 0.6343061327934265
vt 0.6702653169631958 0.7422972917556763
vt 0.6702653169631958 1.2199352979660034
vt 0.9980000257492065 1.5565040111541748
vt 0.6702653169631958 1.6975733041763306
vt 0.6713920831680298 1.5956677198410034
vt 0.6713920831680298 1.1486802697181702
vt 0.8346960544586182 1.1000139713287354
vt 0.8346960544586182 1.1000164151191711
vt 0.6713920831680298 1.1486826837062836
vt 0.6713920831680298 1.5956727266311646
vt 0.8346960544586182 -0.013611793518066406
vt 0.9979999661445618 -0.013602733612060547
vt 0.9979999661445618 0.6287833452224731
vt 0.9979999661445618 0.6043601036071777
vt 0.9979999661445618 0.2892780303955078
vt 0.6713920831680298 -0.31656622886657715
vt 0.6713920831680298 -0.6559858322143555
vt 0.8346960544586182 0.022862374782562256
vt 0.6713920831680298 0.022853493690490723
vt 0.9163479804992676 -0.31655287742614746
vt 0.9979999661445618 -0.6559680700302124
vt 0.9979999661445618 -0.02580392360687256
vt 0.6702653169631958 0.40697747468948364
vt 0.7521989941596985 0.37997967004776
vt 0.9980000257492065 0.6435883641242981
vt 0.9980000257492065 -0.002869129180908203
vt 0.9980000257492065 -0.0014541149139404297
vt 0.9980000257492065 0.6343045234680176
vt 0.9980000257492065 -0.6372127532958984
vt 0.9160663485527039 -0.30977606773376465
vt 0.9160663485527039 -0.30977487564086914
vt 0.9980000257492065 -0.637211799621582
vt 0.9979999661445618 -0.3408859968185425
vt 0.6713920831680298 0.3756626844406128
vt 0.6713920831680298 0.03177279233932495
vt 0.9979999661445618 1.5956722497940063
vt 0.9979999661445618 1.100016176700592
vt 0.9160663485527039 -0.30320167541503906
vt 0.9980000257492065 -0.6493266820907593
vt 0.6713920831680298 -0.6560070514678955
vt 0.9979999661445618 -0.6559889316558838
vt 0.9163479804992676 -0.3348003625869751
vt 0.9979999661445618 0.6043602228164673
vt 0.9980000257492065 1.5565006732940674
vt 0.6702653169631958 1.6975666284561157
vt 0.6702653169631958 1.4587485194206238
vt 0.6702653169631958 1.2199304401874542
vt 0.6713920831680298 -0.3121170997619629
vt 0.9980000257492065 1.5617213249206543
vt 0.9979999661445618 1.5956693887710571
vt 0.8341326713562012 1.14939746260643
vt 0.23371145129203796 0.8529151380062103
vt 0.3228594958782196 0.9805123805999756
vt 0.3352164030075073 0.7311471104621887
vt 0.2944459021091461 0.49342578649520874
vt 0.10379169881343842 0.48758721351623535
vt 0.280239462852478 0.24989652633666992
vt 0.4851000905036926 0.49926435947418213
vt 0.08958528190851212 0.24405795335769653
vt 0.3228587210178375 0.9804843068122864
vt 0.22042842209339142 0.8558003902435303
vt 0.3086523115634918 0.7369550466537476
vt 0.7023175954818726 0.49925708770751953
vt 0.7146744728088379 0.24988198280334473
vt 0.9195350408554077 0.49924981594085693
vt 0.6899607181549072 0.7486321926116943
vt 0.931891918182373 0.24987471103668213
vt 0.13220453262329102 0.974645733833313
vt 0.11799811571836472 0.7311164736747742
vt 0.7041654586791992 0.9921708106994629
vt 0.8056703805923462 0.8704027831554413
vt 0.7165223360061646 0.742805540561676
vt 0.49745699763298035 0.24988925457000732
vt 0.31272363662719727 0.7490000128746033
vt 0.09856726974248886 0.5
vt 0.31272363662719727 0.5
vt 0.5268800258636475 0.5
vt 0.31272363662719727 0.375499963760376
vt 0.09856726974248886 0.7490000128746033
vt 0.7410364151000977 0.25099998712539673
vt 0.5268800258636475 0.25099998712539673
vt 0.7410364151000977 0.12650001049041748
vt 0.8948184251785278 0.9980000257492065
vt 0.9071753621101379 0.7486347556114197
vt 0.5135124921798706 0.9863415956497192
vt 0.6150174140930176 0.8645735681056976
vt 0.5258693695068359 0.7369763255119324
vt 0.6273742914199829 0.6152082979679108
vt 0.538226306438446 0.4876110553741455
vt 0.7288793325424194 0.49344027042388916
vt 0.8180273175239563 0.6210375130176544
vt 0.919532299041748 0.4992694854736328
vt 0.8303842544555664 0.37167227268218994
vt 0.9318891763687134 0.24990427494049072
vt 0.7412362098693848 0.24407505989074707
vt 0.8406757116317749 0.11859363317489624
vt 0.9551900029182434 0.001999974250793457
vt 0.7410342693328857 0.001999974250793457
vt 0.7261614799499512 0.23518729209899902
vt 0.29785001277923584 0.6086872816085815
vt 0.29785001277923584 0.8576872944831848
vt 0.49713289737701416 0.7173745632171631
vt 0.9403171539306641 0.23518729209899902
vt 0.8427411317825317 0.12230706214904785
vt 0.9442461133003235 0.0005390048027038574
vt 0.09856709092855453 0.25099998712539673
vt 0.09856709092855453 0.5
vt 0.29785001277923584 0.23518729209899902
vt 0.7270298600196838 0.0005462169647216797
vt 0.6397312879562378 0.3658430576324463
vt 0.5240199565887451 0.24408221244812012
vt 0.6255248785018921 0.1223142147064209
vt 0.09856709092855453 0.7490000128746033
vt 0.5098136067390442 0.0005533695220947266
vt 0.29259735345840454 0.0005605220794677734
vt 0.40830865502357483 0.12232136726379395
vt 0.30680370330810547 0.24408936500549316
vt 0.19109241664409637 0.12232851982116699
vt 0.07538112998008728 0.0005676746368408203
vt 0.08958747237920761 0.2440965175628662
vt 0.21950510144233704 0.6093862652778625
vt 0.10379381477832794 0.4876254200935364
vt 0.11800015717744827 0.7311542928218842
vt 0.3210100531578064 0.48761820793151855
vt 0.49713292717933655 0.4683745503425598
vt 0.5120057463645935 0.23518729209899902
vt 0.9071781635284424 0.7486249208450317
vt 0.4367213547229767 0.6093790829181671
vt 0.42251500487327576 0.36585021018981934
vt 0.2052987515926361 0.3658573627471924
vt 0.17780916392803192 0.12521260976791382
vt 0.07537886500358582 0.0005286931991577148
vt 0.29259639978408813 0.0005214214324951172
vt 0.8481146097183228 0.12650001049041748
vt 0.9551927447319031 0.001999974250793457
vt 0.9403200745582581 0.23517829179763794
vt 0.7112886309623718 0.4683745503425598
vt 0.925447404384613 0.4683566093444824
vt 0.910574734210968 0.7015349268913269
vt 0.8183692693710327 0.5928566157817841
vt 0.7112910747528076 0.7173566222190857
vt 0.7261637449264526 0.4841783046722412
vt 0.8332419395446777 0.3596782684326172
vt 0.6964183449745178 0.9505349397659302
vt 0.6042128801345825 0.8418566286563873
vt 0.49713465571403503 0.966356635093689
vt 0.5120073556900024 0.7331783175468445
vt 0.49930649995803833 0.742793619632721
vt 0.40492916107177734 0.8576783239841461
vt 0.29785096645355225 0.9821783304214478
vt 0.6190855503082275 0.6086783111095428
vt 0.513512909412384 0.9863228797912598
vt 0.4110826253890991 0.8616389632225037
vt 0.6017367839813232 0.867477536201477
vt 0.7041671276092529 0.9921614527702332
vt 0.42436444759368896 0.858744353055954
vt 0.1322064995765686 0.9746831655502319
vt 0.895702064037323 0.9347132444381714
vt 0.8034965991973877 0.8260349333286285
vt 0.39502668380737305 0.12520533800125122
vt 0.5098139047622681 0.0005141496658325195
vt 0.5875303745269775 0.6239482760429382
vt 0.8294616937637329 0.12519073486328125
vt 0.9442488551139832 0.0004995465278625488
vt 0.7270313501358032 0.0005068778991699219
vt 0.612244188785553 0.12519806623458862
vt 0.6964157819747925 0.8260618448257446
vt 0.49713292717933655 0.9663745760917664
vt 0.6964158415794373 0.9505618512630463
vt 0.8956987261772156 0.9347491264343262
vt 0.41980183124542236 0.6245000064373016
vt 0.20564545691013336 0.8735000193119049
vt 0.09856726974248886 0.9980000257492065
vt 0.7410364151000977 0.001999974250793457
vt 0.5268800258636475 0.001999974250793457
vt 0.6339582204818726 0.06424999237060547
vt 0.09856726974248886 0.25099998712539673
vt 0.09856726974248886 0.001999974250793457
vt 0.20564544200897217 0.06424999237060547
vt 0.31272363662719727 0.12650001049041748
vt 0.31272363662719727 0.001999974250793457
vt 0.09856709092855453 0.9980000257492065
vt 0.1982085406780243 0.803343653678894
vt 0.397491455078125 0.9120309352874756
vt 0.6964158415794373 0.701561838388443
vt 0.5967743992805481 0.5849682092666626
vt 0.5967743396759033 0.7717182040214539
vt 0.19820855557918549 0.11859363317489624
vt 0.09856709092855453 0.001999974250793457
vt 0.3127228021621704 0.001999974250793457
vt 0.41236427426338196 0.11859363317489624
vt 0.5268785357475281 0.001999974250793457
vt 0.9105715751647949 0.701561838388443
vt 0.7960572838783264 0.8181554824113846
vt 0.7923910021781921 0.8733161091804504
vt 0.894821286201477 0.9980000257492065
vt 0.9254443645477295 0.4683745503425598
vt 0.8258029222488403 0.35178089141845703
vt 0.41980183124542236 0.1887500286102295
vt 0.20564544200897217 0.31325000524520874
vt 0.8109301328659058 0.5849682092666626
vt 0.6339582204818726 0.375499963760376
vt 0.626520037651062 0.11859363317489624
vt 0.6692448854446411 0.008490681648254395
vt 0.8421159386634827 0.0014224052429199219
vt 0.48725244402885437 0.264776349067688
vt 0.16960108280181885 0.49985742568969727
vt 0.16011649370193481 0.26477646827697754
vt 0.1638031303882599 0.023875832557678223
vt 0.16380326449871063 0.5037124156951904
vt 0.4945097863674164 0.2637937068939209
vt 0.4963735342025757 0.014493346214294434
vt 0.32350364327430725 0.021561920642852783
vt 0.32824549078941345 0.13936865329742432
vt 0.15063373744487762 0.028630495071411133
vt 0.3189421594142914 0.14723587036132812
vt 0.49637389183044434 0.015558958053588867
vt 0.655562698841095 0.3823167681694031
vt 0.4967370331287384 0.4998573064804077
vt 0.5036361217498779 0.2637941241264343
vt 0.5036361813545227 0.1438349485397339
vt 0.6735525727272034 0.1438349485397339
vt 0.8343427181243896 0.2637937068939209
vt 0.8434690237045288 0.023875832557678223
vt 0.6689879298210144 0.14383476972579956
vt 0.6735503673553467 0.023875832557678223
vt 0.5036346316337585 0.023875832557678223
vt 0.8434661030769348 0.023875832557678223
vt 0.6735526323318481 0.08385539054870605
vt 0.6735526323318481 0.023875832557678223
vt 0.823872983455658 0.49985718727111816
vt 0.6648651361465454 0.37498199939727783
vt 0.8329931497573853 0.25010669231414795
vt 0.8329944610595703 0.25063979625701904
vt 0.49450987577438354 0.5037119686603546
vt 0.8252164721488953 0.5037115216255188
vt 0.33371978998184204 0.023875832557678223
vt 0.5036361813545227 0.023875832557678223
vt 0.5058572292327881 0.2501068115234375
vt 0.16380338370800018 0.023875832557678223
vt 0.8421133160591125 0.00035625696182250977
vt 0.6692434549331665 0.007424831390380859
vt 0.6739852428436279 0.12523150444030762
vt 0.33772915601730347 0.3749821186065674
vt 0.16011741757392883 0.2642439603805542
vt 0.16485925018787384 0.38205069303512573
vt 0.1638033241033554 0.2637941241264343
vt 0.1506318897008896 0.029695451259613037
vt 0.664426326751709 0.38375282287597656
vt 0.6694251894950867 0.2501067519187927
vt 0.834341287612915 0.2637937068939209
vt 0.32350289821624756 0.02262723445892334
g WP_entryC020
s 1
f 1/1/1 2/2/2 3/3/3
f 4/4/4 5/5/5 6/6/6
f 7/7/7 8/8/8 9/9/9
f 10/10/10 11/11/11 12/12/12
f 6/6/6 5/5/5 13/13/13
f 5/5/5 14/14/14 13/13/13
f 15/15/15 14/14/14 5/5/5
f 15/15/15 5/5/5 4/4/4
f 6/6/6 13/13/13 16/16/16
f 17/17/17 18/18/18 14/14/14
f 14/14/14 18/18/18 19/19/19
f 4/4/4 6/6/6 16/16/16
f 12/12/12 11/11/11 20/20/20
f 21/21/21 22/22/22 15/15/15
f 23/23/23 24/24/24 25/25/25
f 3/3/3 26/26/26 27/27/27
f 28/28/28 29/29/29 8/8/8
f 29/29/29 1/1/1 8/8/8
f 29/29/29 30/30/30 1/1/1
f 18/18/18 31/31/31 19/19/19
f 32/32/32 33/33/33 34/34/34
f 32/32/32 34/34/34 35/35/35
f 33/33/33 36/36/36 34/34/34
f 18/18/18 37/37/37 31/31/31
f 37/37/37 38/38/38 31/31/31
f 31/31/31 38/38/38 19/19/19
f 39/39/39 40/40/40 41/41/41
f 42/42/42 41/41/41 43/43/43
f 37/37/37 44/44/44 45/45/45
f 46/46/46 47/47/47 48/48/48
f 17/17/17 49/49/49 44/44/44
f 22/22/22 17/17/17 15/15/15
f 27/27/27 26/26/26 50/50/50
f 7/7/7 9/9/9 32/32/32
f 23/23/23 25/25/25 36/36/36
f 51/51/51 27/27/27 50/50/50
f 51/51/51 3/3/3 27/27/27
f 46/46/46 51/51/51 52/52/52
f 17/17/17 22/22/22 53/53/53
f 47/47/47 46/46/46 10/10/10
f 22/22/22 21/21/21 53/53/53
f 17/17/17 54/54/54 18/18/18
f 54/54/54 37/37/37 18/18/18
f 37/37/37 54/54/54 44/44/44
f 54/54/54 17/17/17 44/44/44
f 7/7/7 39/39/39 38/38/38
f 52/52/52 51/51/51 50/50/50
f 52/52/52 50/50/50 11/11/11
f 41/41/41 55/55/55 43/43/43
f 34/34/34 36/36/36 56/56/56
f 57/57/57 46/46/46 48/48/48
f 41/41/41 40/40/40 55/55/55
f 46/46/46 52/52/52 11/11/11
f 34/34/34 56/56/56 35/35/35
f 50/50/50 26/26/26 58/58/58
f 58/58/58 26/26/26 20/20/20
f 11/11/11 58/58/58 20/20/20
f 10/10/10 46/46/46 11/11/11
f 59/59/59 47/47/47 10/10/10
f 28/28/28 60/60/60 29/29/29
f 14/14/14 19/19/19 13/13/13
f 47/47/47 61/61/61 9/9/9
f 57/57/57 48/48/48 62/62/62
f 60/60/60 30/30/30 29/29/29
f 33/33/33 23/23/23 36/36/36
f 33/33/33 20/20/20 23/23/23
f 11/11/11 50/50/50 58/58/58
f 12/12/12 20/20/20 33/33/33
f 10/10/10 12/12/12 33/33/33
f 7/7/7 38/38/38 37/37/37
f 62/62/62 48/48/48 8/8/8
f 51/51/51 46/46/46 57/57/57
f 57/57/57 1/1/1 63/63/63
f 30/30/30 64/64/64 2/2/2
f 63/63/63 1/1/1 3/3/3
f 3/3/3 51/51/51 63/63/63
f 63/63/63 51/51/51 57/57/57
f 64/64/64 65/65/65 2/2/2
f 23/23/23 20/20/20 24/24/24
f 48/48/48 66/66/66 8/8/8
f 30/30/30 2/2/2 1/1/1
f 44/44/44 49/49/49 67/67/67
f 48/48/48 47/47/47 66/66/66
f 26/26/26 68/68/68 20/20/20
f 68/68/68 26/26/26 69/69/69
f 26/26/26 3/3/3 69/69/69
f 47/47/47 9/9/9 66/66/66
f 66/66/66 9/9/9 8/8/8
f 61/61/61 47/47/47 59/59/59
f 32/32/32 61/61/61 59/59/59
f 61/61/61 32/32/32 9/9/9
f 37/37/37 8/8/8 7/7/7
f 2/2/2 65/65/65 3/3/3
f 32/32/32 59/59/59 33/33/33
f 59/59/59 10/10/10 33/33/33
f 44/44/44 67/67/67 45/45/45
f 17/17/17 53/53/53 49/49/49
f 42/42/42 43/43/43 70/70/70
f 19/19/19 71/71/71 13/13/13
f 13/13/13 71/71/71 42/42/42
f 71/71/71 39/39/39 72/72/72
f 71/71/71 72/72/72 42/42/42
f 72/72/72 41/41/41 42/42/42
f 39/39/39 41/41/41 72/72/72
f 16/16/16 42/42/42 73/73/73
f 16/16/16 73/73/73 74/74/74
f 15/15/15 17/17/17 14/14/14
f 73/73/73 70/70/70 74/74/74
f 21/21/21 15/15/15 4/4/4
f 13/13/13 42/42/42 16/16/16
f 42/42/42 70/70/70 73/73/73
f 4/4/4 16/16/16 74/74/74
f 32/32/32 39/39/39 7/7/7
f 19/19/19 75/75/75 71/71/71
f 75/75/75 39/39/39 71/71/71
f 38/38/38 39/39/39 75/75/75
f 38/38/38 75/75/75 19/19/19
f 62/62/62 1/1/1 57/57/57
f 8/8/8 1/1/1 62/62/62
g WP_entryC021
s 1
f 76/76/76 77/77/77 78/78/78
f 79/79/79 76/76/76 78/78/78
f 80/80/80 81/81/81 82/82/82
f 81/81/81 83/83/83 82/82/82
f 84/84/84 83/83/83 81/81/81
f 84/84/84 81/81/81 80/80/80
f 85/85/85 82/82/82 86/86/86
f 80/80/80 82/82/82 85/85/85
f 85/85/85 87/87/87 80/80/80
f 86/86/86 87/87/87 85/85/85
f 88/88/88 89/89/89 90/90/90
f 91/91/91 92/92/92 89/89/89
f 91/91/91 89/89/89 88/88/88
f 93/93/93 94/94/94 91/91/91
f 94/94/94 92/92/92 91/91/91
f 95/95/95 93/93/93 96/96/96
f 96/96/96 93/93/93 91/91/91
f 91/91/91 97/97/97 96/96/96
f 98/98/98 99/99/99 100/100/100
f 98/98/98 100/100/100 77/77/77
f 99/99/99 101/101/101 100/100/100
f 102/102/102 103/103/103 98/98/98
f 103/103/103 99/99/99 98/98/98
f 96/96/96 97/97/97 95/95/95
f 104/104/104 78/78/78 77/77/77
f 101/101/101 78/78/78 104/104/104
f 100/100/100 101/101/101 104/104/104
f 100/100/100 104/104/104 77/77/77
f 89/89/89 92/92/92 90/90/90
f 105/105/105 106/106/106 107/107/107
f 108/108/108 76/76/76 79/79/79
f 80/80/80 87/87/87 84/84/84
f 88/88/88 97/97/97 91/91/91
f 98/98/98 109/109/109 102/102/102
f 77/77/77 109/109/109 98/98/98
f 110/110/110 108/108/108 111/111/111
f 110/110/110 111/111/111 112/112/112
f 79/79/79 112/112/112 111/111/111
f 79/79/79 111/111/111 108/108/108
f 78/78/78 113/113/113 79/79/79
f 113/113/113 112/112/112 79/79/79
f 114/114/114 90/90/90 92/92/92
f 110/110/110 90/90/90 114/114/114
f 114/114/114 108/108/108 110/110/110
f 92/92/92 108/108/108 114/114/114
f 115/115/115 116/116/116 117/117/117
f 115/115/115 117/117/117 118/118/118
f 105/105/105 116/116/116 115/115/115
f 107/107/107 116/116/116 105/105/105
f 119/119/119 120/120/120 121/121/121
f 122/122/122 120/120/120 119/119/119
f 119/119/119 118/118/118 122/122/122
f 121/121/121 118/118/118 119/119/119
f 123/123/123 124/124/124 102/102/102
f 112/112/112 90/90/90 110/110/110
f 109/109/109 123/123/123 102/102/102
f 120/120/120 122/122/122 83/83/83
f 83/83/83 84/84/84 120/120/120
f 125/125/125 121/121/121 106/106/106
f 118/118/118 121/121/121 125/125/125
f 118/118/118 125/125/125 115/115/115
f 125/125/125 106/106/106 115/115/115
f 126/126/126 97/97/97 88/88/88
f 90/90/90 126/126/126 88/88/88
f 86/86/86 127/127/127 87/87/87
f 115/115/115 106/106/106 105/105/105
f 108/108/108 77/77/77 76/76/76
g WP_entryC022
s 1
f 128/128/128 129/129/129 130/130/130
f 131/131/131 132/132/132 133/133/133
f 131/131/131 134/134/134 132/132/132
f 131/131/131 135/135/135 134/134/134
f 131/131/131 136/136/136 135/135/135
f 137/137/137 138/138/138 139/139/139
f 137/137/137 140/140/140 138/138/138
f 141/141/141 142/142/142 140/140/140
f 141/141/141 143/143/143 142/142/142
f 144/144/144 145/145/145 146/146/146
f 147/147/147 144/144/144 146/146/146
f 148/148/148 149/149/149 150/150/150
f 148/148/148 151/151/151 149/149/149
f 152/152/152 153/153/153 154/154/154
f 155/155/155 156/156/156 157/157/157
f 155/155/155 157/157/157 158/158/158
f 152/152/152 150/150/150 153/153/153
f 159/159/159 139/139/139 160/160/160
f 159/159/159 160/160/160 161/161/161
f 162/162/162 163/163/163 164/164/164
f 162/162/162 165/165/165 163/163/163
f 166/166/166 167/167/167 146/146/146
f 168/168/168 166/166/166 146/146/146
f 169/169/169 170/170/170 171/171/171
f 170/170/170 172/172/172 171/171/171
f 173/173/173 174/174/174 175/175/175
f 174/174/174 128/128/128 175/175/175
f 176/176/176 133/133/133 177/177/177
f 176/176/176 177/177/177 178/178/178
f 179/179/179 180/180/180 181/181/181
f 133/133/133 182/182/182 183/183/183
f 133/133/133 183/183/183 165/165/165
f 162/162/162 136/136/136 131/131/131
f 164/164/164 136/136/136 162/162/162
f 184/184/184 185/185/185 186/186/186
f 131/131/131 165/165/165 162/162/162
f 187/187/187 184/184/184 186/186/186
f 188/188/188 185/185/185 189/189/189
f 186/186/186 185/185/185 188/188/188
f 188/188/188 190/190/190 186/186/186
f 191/191/191 169/169/169 192/192/192
f 141/141/141 193/193/193 194/194/194
f 145/145/145 191/191/191 192/192/192
f 152/152/152 195/195/195 196/196/196
f 154/154/154 197/197/197 198/198/198
f 154/154/154 198/198/198 152/152/152
f 152/152/152 198/198/198 195/195/195
f 198/198/198 197/197/197 195/195/195
f 146/146/146 199/199/199 147/147/147
f 199/199/199 200/200/200 147/147/147
f 167/167/167 200/200/200 199/199/199
f 167/167/167 199/199/199 146/146/146
f 189/189/189 201/201/201 188/188/188
f 201/201/201 190/190/190 188/188/188
f 181/181/181 158/158/158 202/202/202
f 181/181/181 202/202/202 203/203/203
f 196/196/196 151/151/151 148/148/148
f 196/196/196 148/148/148 152/152/152
f 152/152/152 148/148/148 150/150/150
f 176/176/176 204/204/204 205/205/205
f 176/176/176 205/205/205 182/182/182
f 146/146/146 192/192/192 168/168/168
f 192/192/192 169/169/169 168/168/168
f 145/145/145 192/192/192 146/146/146
f 206/206/206 143/143/143 141/141/141
f 207/207/207 143/143/143 206/206/206
f 206/206/206 194/194/194 207/207/207
f 141/141/141 194/194/194 206/206/206
f 137/137/137 193/193/193 141/141/141
f 139/139/139 193/193/193 137/137/137
f 141/141/141 140/140/140 137/137/137
f 208/208/208 209/209/209 210/210/210
f 208/208/208 210/210/210 179/179/179
f 179/179/179 210/210/210 180/180/180
f 210/210/210 209/209/209 180/180/180
f 130/130/130 211/211/211 128/128/128
f 186/186/186 211/211/211 130/130/130
f 130/130/130 187/187/187 186/186/186
f 212/212/212 213/213/213 214/214/214
f 212/212/212 214/214/214 215/215/215
f 179/179/179 216/216/216 208/208/208
f 179/179/179 203/203/203 216/216/216
f 182/182/182 133/133/133 176/176/176
f 171/171/171 168/168/168 169/169/169
f 158/158/158 181/181/181 155/155/155
f 133/133/133 165/165/165 131/131/131
f 190/190/190 211/211/211 186/186/186
f 193/193/193 139/139/139 159/159/159
f 159/159/159 217/217/217 193/193/193
f 161/161/161 217/217/217 159/159/159
f 178/178/178 204/204/204 176/176/176
f 181/181/181 203/203/203 179/179/179
f 175/175/175 128/128/128 211/211/211
f 175/175/175 218/218/218 173/173/173
f 211/211/211 218/218/218 175/175/175
f 219/219/219 196/196/196 212/212/212
f 151/151/151 196/196/196 219/219/219
f 219/219/219 215/215/215 151/151/151
f 212/212/212 215/215/215 219/219/219
f 129/129/129 187/187/187 130/130/130
g WP_entryC023
s 1
f 220/220/220 221/221/221 222/222/222
f 223/223/223 224/224/224 225/225/225
f 226/226/226 223/223/223 225/225/225
f 225/225/225 224/224/224 227/227/227
f 228/228/228 229/229/229 230/230/230
f 231/231/231 232/232/232 233/233/233
f 226/226/226 232/232/232 231/231/231
f 231/231/231 233/233/233 234/234/234
f 232/232/232 235/235/235 233/233/233
f 228/228/228 236/236/236 229/229/229
f 229/229/229 236/236/236 237/237/237
f 230/230/230 229/229/229 237/237/237
f 238/238/238 239/239/239 240/240/240
f 241/241/241 232/232/232 226/226/226
f 225/225/225 241/241/241 226/226/226
f 242/242/242 243/243/243 244/244/244
f 245/245/245 244/244/244 246/246/246
f 244/244/244 243/243/243 246/246/246
f 247/247/247 243/243/243 242/242/242
f 248/248/248 249/249/249 250/250/250
f 238/238/238 251/251/251 239/239/239
f 239/239/239 251/251/251 252/252/252
f 240/240/240 239/239/239 252/252/252
f 253/253/253 238/238/238 254/254/254
f 254/254/254 238/238/238 240/240/240
f 254/254/254 240/240/240 255/255/255
f 253/253/253 254/254/254 255/255/255
f 255/255/255 256/256/256 257/257/257
f 255/255/255 240/240/240 256/256/256
f 256/256/256 240/240/240 258/258/258
f 257/257/257 256/256/256 258/258/258
f 240/240/240 252/252/252 259/259/259
f 259/259/259 252/252/252 260/260/260
f 258/258/258 259/259/259 260/260/260
f 258/258/258 240/240/240 259/259/259
f 261/261/261 260/260/260 262/262/262
f 263/263/263 261/261/261 262/262/262
f 258/258/258 261/261/261 263/263/263
f 258/258/258 260/260/260 261/261/261
f 264/264/264 265/265/265 266/266/266
f 267/267/267 264/264/264 266/266/266
f 268/268/268 269/269/269 270/270/270
f 271/271/271 264/264/264 267/267/267
f 271/271/271 265/265/265 264/264/264
f 263/263/263 262/262/262 272/272/272
f 272/272/272 262/262/262 273/273/273
f 274/274/274 275/275/275 276/276/276
f 273/273/273 277/277/277 272/272/272
f 272/272/272 277/277/277 263/263/263
f 257/257/257 258/258/258 278/278/278
f 278/278/278 258/258/258 263/263/263
f 263/263/263 279/279/279 278/278/278
f 278/278/278 279/279/279 257/257/257
f 277/277/277 280/280/280 263/263/263
f 275/275/275 281/281/281 268/268/268
f 277/277/277 282/282/282 280/280/280
f 280/280/280 282/282/282 279/279/279
f 263/263/263 280/280/280 279/279/279
f 282/282/282 283/283/283 284/284/284
f 284/284/284 283/283/283 285/285/285
f 284/284/284 285/285/285 279/279/279
f 282/282/282 284/284/284 279/279/279
f 283/283/283 286/286/286 285/285/285
f 283/283/283 287/287/287 286/286/286
f 286/286/286 287/287/287 288/288/288
f 285/285/285 286/286/286 288/288/288
f 289/289/289 290/290/290 291/291/291
f 222/222/222 289/289/289 291/291/291
f 292/292/292 289/289/289 222/222/222
f 293/293/293 294/294/294 276/276/276
f 293/293/293 267/267/267 294/294/294
f 234/234/234 233/233/233 295/295/295
f 292/292/292 290/290/290 289/289/289
f 222/222/222 255/255/255 296/296/296
f 296/296/296 255/255/255 257/257/257
f 257/257/257 292/292/292 296/296/296
f 296/296/296 292/292/292 222/222/222
f 279/279/279 297/297/297 257/257/257
f 279/279/279 285/285/285 297/297/297
f 297/297/297 285/285/285 292/292/292
f 257/257/257 297/297/297 292/292/292
f 285/285/285 288/288/288 298/298/298
f 298/298/298 288/288/288 290/290/290
f 292/292/292 298/298/298 290/290/290
f 292/292/292 285/285/285 298/298/298
f 225/225/225 227/227/227 299/299/299
f 299/299/299 227/227/227 300/300/300
f 300/300/300 301/301/301 299/299/299
f 299/299/299 301/301/301 225/225/225
f 248/248/248 250/250/250 302/302/302
f 302/302/302 250/250/250 303/303/303
f 303/303/303 304/304/304 302/302/302
f 305/305/305 267/267/267 293/293/293
f 302/302/302 304/304/304 248/248/248
f 306/306/306 307/307/307 308/308/308
f 308/308/308 307/307/307 309/309/309
f 308/308/308 309/309/309 310/310/310
f 306/306/306 308/308/308 310/310/310
f 304/304/304 311/311/311 248/248/248
f 304/304/304 306/306/306 311/311/311
f 311/311/311 306/306/306 310/310/310
f 248/248/248 311/311/311 310/310/310
f 309/309/309 312/312/312 313/313/313
f 313/313/313 312/312/312 314/314/314
f 315/315/315 313/313/313 314/314/314
f 316/316/316 230/230/230 226/226/226
f 315/315/315 309/309/309 313/313/313
f 317/317/317 314/314/314 318/318/318
f 242/242/242 317/317/317 318/318/318
f 315/315/315 317/317/317 242/242/242
f 315/315/315 314/314/314 317/317/317
f 319/319/319 309/309/309 315/315/315
f 245/245/245 319/319/319 315/315/315
f 310/310/310 319/319/319 245/245/245
f 310/310/310 309/309/309 319/319/319
f 320/320/320 228/228/228 321/321/321
f 321/321/321 228/228/228 230/230/230
f 320/320/320 321/321/321 316/316/316
f 322/322/322 320/320/320 316/316/316
f 234/234/234 322/322/322 316/316/316
f 323/323/323 322/322/322 234/234/234
f 323/323/323 320/320/320 322/322/322
f 324/324/324 253/253/253 255/255/255
f 222/222/222 324/324/324 255/255/255
f 221/221/221 324/324/324 222/222/222
f 221/221/221 253/253/253 324/324/324
f 222/222/222 291/291/291 220/220/220
f 220/220/220 291/291/291 325/325/325
f 325/325/325 221/221/221 220/220/220
f 223/223/223 230/230/230 224/224/224
f 226/226/226 230/230/230 223/223/223
f 230/230/230 237/237/237 224/224/224
f 321/321/321 230/230/230 316/316/316
f 307/307/307 326/326/326 327/327/327
f 307/307/307 327/327/327 309/309/309
f 309/309/309 327/327/327 312/312/312
f 327/327/327 326/326/326 312/312/312
f 225/225/225 328/328/328 241/241/241
f 328/328/328 329/329/329 241/241/241
f 301/301/301 329/329/329 328/328/328
f 301/301/301 328/328/328 225/225/225
f 330/330/330 231/231/231 234/234/234
f 226/226/226 231/231/231 330/330/330
f 330/330/330 316/316/316 226/226/226
f 234/234/234 316/316/316 330/330/330
f 232/232/232 331/331/331 235/235/235
f 331/331/331 332/332/332 235/235/235
f 333/333/333 332/332/332 331/331/331
f 333/333/333 331/331/331 232/232/232
f 329/329/329 334/334/334 241/241/241
f 334/334/334 232/232/232 241/241/241
f 334/334/334 333/333/333 232/232/232
f 329/329/329 333/333/333 334/334/334
f 335/335/335 336/336/336 337/337/337
f 335/335/335 337/337/337 338/338/338
f 339/339/339 244/244/244 245/245/245
f 242/242/242 244/244/244 339/339/339
f 339/339/339 315/315/315 242/242/242
f 245/245/245 315/315/315 339/339/339
f 340/340/340 247/247/247 242/242/242
f 341/341/341 247/247/247 340/340/340
f 340/340/340 318/318/318 341/341/341
f 242/242/242 318/318/318 340/340/340
f 250/250/250 342/342/342 303/303/303
f 249/249/249 343/343/343 344/344/344
f 249/249/249 344/344/344 250/250/250
f 250/250/250 344/344/344 342/342/342
f 344/344/344 343/343/343 342/342/342
f 345/345/345 346/346/346 347/347/347
f 345/345/345 347/347/347 348/348/348
f 348/348/348 347/347/347 349/349/349
f 347/347/347 346/346/346 349/349/349
f 281/281/281 350/350/350 351/351/351
f 281/281/281 351/351/351 268/268/268
f 268/268/268 351/351/351 269/269/269
f 351/351/351 350/350/350 269/269/269
f 270/270/270 269/269/269 352/352/352
f 270/270/270 352/352/352 336/336/336
f 352/352/352 350/350/350 336/336/336
f 269/269/269 350/350/350 352/352/352
f 353/353/353 305/305/305 354/354/354
f 355/355/355 336/336/336 335/335/335
f 270/270/270 336/336/336 355/355/355
f 354/354/354 305/305/305 293/293/293
f 293/293/293 270/270/270 354/354/354
f 354/354/354 270/270/270 353/353/353
f 353/353/353 270/270/270 355/355/355
f 353/353/353 355/355/355 335/335/335
f 356/356/356 274/274/274 276/276/276
f 276/276/276 275/275/275 293/293/293
f 357/357/357 274/274/274 356/356/356
f 356/356/356 358/358/358 357/357/357
f 276/276/276 358/358/358 356/356/356
f 293/293/293 275/275/275 268/268/268
f 293/293/293 268/268/268 270/270/270
f 276/276/276 359/359/359 358/358/358
f 359/359/359 360/360/360 358/358/358
f 338/338/338 361/361/361 362/362/362
f 362/362/362 361/361/361 353/353/353
f 363/363/363 295/295/295 364/364/364
f 234/234/234 295/295/295 363/363/363
f 363/363/363 323/323/323 234/234/234
f 365/365/365 271/271/271 366/366/366
f 364/364/364 323/323/323 363/363/363
f 249/249/249 367/367/367 343/343/343
f 366/366/366 271/271/271 267/267/267
f 367/367/367 348/348/348 343/343/343
f 246/246/246 348/348/348 367/367/367
f 246/246/246 367/367/367 249/249/249
f 348/348/348 349/349/349 343/343/343
f 366/366/366 267/267/267 305/305/305
f 243/243/243 368/368/368 246/246/246
f 368/368/368 348/348/348 246/246/246
f 365/365/365 366/366/366 305/305/305
f 368/368/368 345/345/345 348/348/348
f 243/243/243 345/345/345 368/368/368
f 361/361/361 369/369/369 353/353/353
f 370/370/370 249/249/249 248/248/248
f 245/245/245 249/249/249 370/370/370
f 370/370/370 310/310/310 245/245/245
f 248/248/248 310/310/310 370/370/370
f 361/361/361 365/365/365 369/369/369
f 369/369/369 365/365/365 305/305/305
f 245/245/245 246/246/246 249/249/249
f 353/353/353 369/369/369 305/305/305
f 267/267/267 266/266/266 371/371/371
f 371/371/371 266/266/266 360/360/360
f 294/294/294 371/371/371 360/360/360
f 294/294/294 267/267/267 371/371/371
f 294/294/294 359/359/359 276/276/276
f 294/294/294 360/360/360 359/359/359
f 353/353/353 335/335/335 362/362/362
f 362/362/362 335/335/335 338/338/338
g WP_entryC024
s 1
f 372/372/372 373/373/373 374/374/374
f 374/374/374 375/375/375 376/376/376
f 377/377/377 378/378/378 379/379/379
f 380/380/380 381/381/381 382/382/382
f 381/381/381 383/383/383 382/382/382
f 384/384/384 385/385/385 374/374/374
f 386/386/386 387/387/387 374/374/374
f 388/388/388 389/389/389 390/390/390
f 390/390/390 391/391/391 388/388/388
f 392/392/392 391/391/391 390/390/390
f 393/393/393 394/394/394 395/395/395
f 393/393/393 396/396/396 394/394/394
f 397/397/397 398/398/398 392/392/392
f 399/399/399 387/387/387 386/386/386
f 400/400/400 399/399/399 401/401/401
f 386/386/386 402/402/402 399/399/399
f 379/379/379 403/403/403 404/404/404
f 379/379/379 378/378/378 403/403/403
f 388/388/388 403/403/403 378/378/378
f 389/389/389 405/405/405 406/406/406
f 387/387/387 399/399/399 400/400/400
f 387/387/387 400/400/400 407/407/407
f 374/374/374 376/376/376 384/384/384
f 387/387/387 375/375/375 374/374/374
f 389/389/389 408/408/408 405/405/405
f 409/409/409 410/410/410 411/411/411
f 410/410/410 380/380/380 411/411/411
f 412/412/412 413/413/413 414/414/414
f 378/378/378 415/415/415 388/388/388
f 390/390/390 397/397/397 392/392/392
f 384/384/384 376/376/376 416/416/416
f 385/385/385 372/372/372 374/374/374
f 391/391/391 417/417/417 388/388/388
f 391/391/391 404/404/404 417/417/417
f 417/417/417 404/404/404 403/403/403
f 388/388/388 417/417/417 403/403/403
f 375/375/375 387/387/387 412/412/412
f 412/412/412 387/387/387 407/407/407
f 407/407/407 413/413/413 412/412/412
f 411/411/411 401/401/401 409/409/409
f 380/380/380 382/382/382 407/407/407
f 407/407/407 418/418/418 411/411/411
f 382/382/382 383/383/383 413/413/413
f 407/407/407 382/382/382 413/413/413
f 407/407/407 400/400/400 418/418/418
f 411/411/411 380/380/380 407/407/407
f 415/415/415 408/408/408 389/389/389
f 388/388/388 415/415/415 389/389/389
f 404/404/404 419/419/419 379/379/379
f 416/416/416 420/420/420 384/384/384
f 419/419/419 393/393/393 379/379/379
f 379/379/379 395/395/395 377/377/377
f 419/419/419 396/396/396 393/393/393
f 379/379/379 393/393/393 395/395/395
f 420/420/420 385/385/385 384/384/384
f 397/397/397 406/406/406 398/398/398
f 418/418/418 401/401/401 411/411/411
f 389/389/389 406/406/406 397/397/397
f 390/390/390 389/389/389 397/397/397
f 374/374/374 373/373/373 402/402/402
f 418/418/418 400/400/400 401/401/401
f 374/374/374 402/402/402 386/386/386
f 412/412/412 414/414/414 375/375/375
