# Exported using wow.export v0.2.19
o 20736_belltower02.obj
v 68.93519592285156 18.445486068725586 -7.009192943572998
v 68.87710571289062 18.499267578125 -7.6739501953125
v 68.10379028320312 18.499267578125 -7.6739501953125
v 61.470458984375 16.52351188659668 -0.053304195404052734
v 61.470458984375 16.52351188659668 -6.7091569900512695
v 61.96760940551758 20.262313842773438 -0.9214657545089722
v 61.470458984375 16.52351188659668 6.602548122406006
v 69.43668365478516 30.848459243774414 5.516196250915527
v 69.78520965576172 31.10740089416504 2.5642480850219727
v 69.9133071899414 31.82756996154785 2.4031617641448975
v 69.55367279052734 31.401784896850586 5.584136009216309
v 69.00040435791016 31.23994255065918 2.512950897216797
v 68.76012420654297 30.962717056274414 5.46489953994751
v 68.77562713623047 31.531999588012695 5.534798622131348
v 69.0711669921875 31.915674209594727 2.415829658508301
v 69.78520965576172 31.10740089416504 2.5642480850219727
v 69.00040435791016 31.23994255065918 2.512950897216797
v 69.0711669921875 31.915674209594727 2.415829658508301
v 69.9133071899414 31.82756996154785 2.4031617641448975
v 67.18435668945312 31.257734298706055 5.371950626373291
v 67.1132583618164 31.203407287597656 1.8573909997940063
v 67.23121643066406 31.800493240356445 1.6460312604904175
v 67.27144622802734 31.820573806762695 5.362027645111084
v 66.37974548339844 31.280019760131836 1.8584908246994019
v 66.49883270263672 31.329336166381836 5.373050212860107
v 66.4843978881836 31.902917861938477 5.374695301055908
v 66.38907623291016 31.88859748840332 1.6586990356445312
v 67.1132583618164 31.203407287597656 1.8573909997940063
v 66.37974548339844 31.280019760131836 1.8584908246994019
v 66.38907623291016 31.88859748840332 1.6586990356445312
v 67.23121643066406 31.800493240356445 1.6460312604904175
v 73.1202392578125 30.11941909790039 -5.222140312194824
v 72.70331573486328 29.112207412719727 0.059433408081531525
v 72.70331573486328 30.01793098449707 0.46166059374809265
v 73.14399719238281 30.867923736572266 -5.093177318572998
v 73.81202697753906 29.101016998291016 0.3916740417480469
v 74.06028747558594 30.11014175415039 -5.163164138793945
v 74.06028747558594 30.858673095703125 -5.037903308868408
v 73.81202697753906 30.006738662719727 0.23996904492378235
v 72.70331573486328 29.112207412719727 0.059433408081531525
v 73.81202697753906 29.101016998291016 0.3916740417480469
v 73.81202697753906 30.006738662719727 0.23996904492378235
v 72.70331573486328 30.01793098449707 0.46166059374809265
v 62.9349365234375 30.46946907043457 -0.31499984860420227
v 68.2194595336914 28.779836654663086 0.3939493000507355
v 68.72213745117188 29.40072250366211 0.4677967429161072
v 63.12451934814453 31.101179122924805 -0.22711896896362305
v 68.66954040527344 28.67062759399414 -0.6059732437133789
v 63.0731201171875 30.450090408325195 -1.2465521097183228
v 63.28142547607422 31.078500747680664 -1.241019368171692
v 68.6189956665039 29.45993423461914 -0.7048825621604919
v 68.2194595336914 28.779836654663086 0.3939493000507355
v 68.66954040527344 28.67062759399414 -0.6059732437133789
v 68.6189956665039 29.45993423461914 -0.7048825621604919
v 68.72213745117188 29.40072250366211 0.4677967429161072
v 62.55686569213867 31.198801040649414 5.378724098205566
v 70.387939453125 30.342763900756836 4.542242527008057
v 70.78108215332031 31.04150390625 4.513352394104004
v 62.65399169921875 31.853837966918945 5.4436798095703125
v 70.57559967041016 30.31336784362793 3.456761360168457
v 62.45045852661133 31.203718185424805 4.442821025848389
v 62.54463577270508 31.85875129699707 4.423314571380615
v 70.36952209472656 31.081905364990234 3.4095826148986816
v 70.387939453125 30.342763900756836 4.542242527008057
v 70.57559967041016 30.31336784362793 3.456761360168457
v 70.36952209472656 31.081905364990234 3.4095826148986816
v 70.78108215332031 31.04150390625 4.513352394104004
v 65.4425048828125 20.98975944519043 7.164194107055664
v 65.3841323852539 21.043540954589844 6.519117832183838
v 66.12646484375 21.043540954589844 6.519117832183838
v 66.07515716552734 20.98975944519043 7.164194107055664
v 65.20616149902344 18.499265670776367 7.567338943481445
v 65.1480712890625 18.445486068725586 6.90258264541626
v 65.3841323852539 21.043540954589844 6.519117832183838
v 65.4425048828125 20.98975944519043 7.164194107055664
v 66.07515716552734 20.98975944519043 7.164194107055664
v 66.12646484375 21.043540954589844 6.519117832183838
v 66.04371643066406 18.445486068725586 6.90258264541626
v 65.97947692871094 18.499265670776367 7.567338943481445
v 65.97947692871094 18.499265670776367 7.567338943481445
v 66.04371643066406 18.445486068725586 6.90258264541626
v 65.1480712890625 18.445486068725586 6.90258264541626
v 65.20616149902344 18.499265670776367 7.567338943481445
v 68.17456817626953 20.98975944519043 7.164192199707031
v 68.11619567871094 21.043540954589844 6.519117832183838
v 68.8585433959961 21.043540954589844 6.5191168785095215
v 68.80722045898438 20.98975944519043 7.164192199707031
v 68.09764099121094 18.499265670776367 7.567338943481445
v 68.03955078125 18.445486068725586 6.90258264541626
v 68.11619567871094 21.043540954589844 6.519117832183838
v 68.17456817626953 20.98975944519043 7.164192199707031
v 68.80722045898438 20.98975944519043 7.164192199707031
v 68.8585433959961 21.043540954589844 6.5191168785095215
v 68.93519592285156 18.445486068725586 6.90258264541626
v 68.87095642089844 18.499265670776367 7.5673394203186035
v 68.87095642089844 18.499265670776367 7.5673394203186035
v 68.93519592285156 18.445486068725586 6.90258264541626
v 68.03955078125 18.445486068725586 6.90258264541626
v 68.09764099121094 18.499265670776367 7.567338943481445
v 70.90664672851562 20.98975944519043 7.164194583892822
v 70.84827423095703 21.043540954589844 6.519117832183838
v 71.59061431884766 21.043540954589844 6.519117832183838
v 71.53929138183594 20.98975944519043 7.164194583892822
v 70.9891128540039 18.499265670776367 7.567341327667236
v 70.93102264404297 18.445486068725586 6.902583122253418
v 70.84827423095703 21.043540954589844 6.519117832183838
v 70.90664672851562 20.98975944519043 7.164194583892822
v 71.53929138183594 20.98975944519043 7.164194583892822
v 71.59061431884766 21.043540954589844 6.519117832183838
v 71.82666778564453 18.445486068725586 6.902583122253418
v 71.7624282836914 18.499265670776367 7.567341327667236
v 71.7624282836914 18.499265670776367 7.567341327667236
v 71.82666778564453 18.445486068725586 6.902583122253418
v 70.93102264404297 18.445486068725586 6.902583122253418
v 70.9891128540039 18.499265670776367 7.567341327667236
v 64.488037109375 35.99653625488281 4.390237808227539
v 64.49221801757812 35.816322326660156 4.752180576324463
v 63.2507209777832 23.159360885620117 6.245486259460449
v 63.2452278137207 23.15936279296875 5.7710700035095215
v 63.80720520019531 35.816322326660156 4.386049747467041
v 62.35283279418945 23.15936279296875 5.765580177307129
v 62.4912109375 16.52351188659668 6.60882568359375
v 62.49748992919922 16.52351188659668 7.151480674743652
v 61.470458984375 16.52351188659668 6.602548122406006
v 73.72403717041016 23.159360885620117 6.245484352111816
v 72.4825439453125 35.816322326660156 4.752179145812988
v 72.48673248291016 36.03065490722656 4.3902363777160645
v 73.72953033447266 23.15936279296875 5.7710700035095215
v 73.16755676269531 35.816322326660156 4.386049747467041
v 74.6219253540039 23.159360885620117 5.765580177307129
v 74.48353576660156 16.52351188659668 6.60882568359375
v 74.47725677490234 16.52351188659668 7.151479244232178
v 75.50428771972656 16.52351188659668 6.602547645568848
v 63.2507209777832 23.15936279296875 -6.352095127105713
v 64.49221801757812 35.816322326660156 -4.858789443969727
v 64.488037109375 35.99653625488281 -4.496846675872803
v 63.2452278137207 23.159366607666016 -5.877678394317627
v 63.80719757080078 35.816322326660156 -4.492659091949463
v 62.35283279418945 23.15936279296875 -5.872189521789551
v 62.4912109375 16.52351188659668 -6.7154340744018555
v 62.49748992919922 16.52351188659668 -7.258090496063232
v 61.470458984375 16.52351188659668 -6.7091569900512695
v 74.6219253540039 23.159360885620117 5.765580177307129
v 74.62191772460938 23.159360885620117 -5.872189044952393
v 75.00994110107422 20.241207122802734 0.2797424793243408
v 75.50428771972656 16.52351188659668 6.602547645568848
v 71.53224182128906 20.989761352539062 -7.270804405212402
v 71.59061431884766 21.043542861938477 -6.625728130340576
v 70.84827423095703 21.043542861938477 -6.625728130340576
v 70.89958953857422 20.989761352539062 -7.270804405212402
v 71.76858520507812 18.499267578125 -7.673949241638184
v 71.82667541503906 18.445486068725586 -7.009191989898682
v 71.59061431884766 21.043542861938477 -6.625728130340576
v 71.53224182128906 20.989761352539062 -7.270804405212402
v 70.89958953857422 20.989761352539062 -7.270804405212402
v 70.84827423095703 21.043542861938477 -6.625728130340576
v 70.9310302734375 18.445486068725586 -7.009191036224365
v 70.99526977539062 18.499267578125 -7.673949241638184
v 70.99526977539062 18.499267578125 -7.673949241638184
v 70.9310302734375 18.445486068725586 -7.009191036224365
v 71.82667541503906 18.445486068725586 -7.009191989898682
v 71.76858520507812 18.499267578125 -7.673949241638184
v 68.80017852783203 20.989761352539062 -7.270802974700928
v 68.85855102539062 21.043542861938477 -6.62572717666626
v 68.1162109375 21.043542861938477 -6.625726222991943
v 68.16751861572266 20.989761352539062 -7.270802974700928
v 68.87710571289062 18.499267578125 -7.6739501953125
v 68.93519592285156 18.445486068725586 -7.009192943572998
v 68.85855102539062 21.043542861938477 -6.62572717666626
v 68.80017852783203 20.989761352539062 -7.270802974700928
v 75.50428771972656 16.52351188659668 -0.053304195404052734
v 68.03955078125 18.445486068725586 -7.009191989898682
v 68.10379028320312 18.499267578125 -7.6739501953125
v 68.16751861572266 20.989761352539062 -7.270802974700928
v 68.03955078125 18.445486068725586 -7.009191989898682
v 75.50428771972656 16.52351188659668 -6.709156513214111
v 68.1162109375 21.043542861938477 -6.625726222991943
v 62.49748992919922 16.52351188659668 7.151480674743652
v 65.1480712890625 18.445486068725586 6.90258264541626
v 68.48737335205078 16.523509979248047 7.151479244232178
v 66.04371643066406 18.445486068725586 6.90258264541626
v 68.03955078125 18.445486068725586 6.90258264541626
v 70.93102264404297 18.445486068725586 6.902583122253418
v 71.82666778564453 18.445486068725586 6.902583122253418
v 74.47725677490234 16.52351188659668 7.151479244232178
v 68.93519592285156 18.445486068725586 6.90258264541626
v 71.59061431884766 21.043540954589844 6.519117832183838
v 73.72403717041016 23.159360885620117 6.245484352111816
v 63.2507209777832 23.159360885620117 6.245486259460449
v 65.3841323852539 21.043540954589844 6.519117832183838
v 66.12646484375 21.043540954589844 6.519117832183838
v 68.11619567871094 21.043540954589844 6.519117832183838
v 68.8585433959961 21.043540954589844 6.5191168785095215
v 70.84827423095703 21.043540954589844 6.519117832183838
v 62.35283279418945 23.15936279296875 -5.872189521789551
v 75.640869140625 31.48813247680664 -1.0203319787979126
v 75.94877624511719 30.05517578125 -2.1817142963409424
v 74.08495330810547 27.83243179321289 -3.1063616275787354
v 73.77704620361328 30.51205062866211 -0.9345768690109253
v 75.94877624511719 30.05517578125 -2.1817142963409424
v 75.6252670288086 31.56077003479004 -1.7097859382629395
v 73.76144409179688 30.64789581298828 -2.223855495452881
v 74.08495330810547 27.83243179321289 -3.1063616275787354
v 75.0313720703125 34.79834747314453 0.4826875925064087
v 75.38787078857422 32.665523529052734 0.27745571732521057
v 73.52405548095703 32.71378707885742 1.4922863245010376
v 73.16754913330078 35.816322326660156 1.8760700225830078
v 75.38787078857422 32.665523529052734 0.27745571732521057
v 75.640869140625 31.48813247680664 -1.0203319787979126
v 73.77704620361328 30.51205062866211 -0.9345768690109253
v 73.52405548095703 32.71378707885742 1.4922863245010376
v 75.6252670288086 31.56077003479004 -1.7097859382629395
v 75.0313720703125 35.039695739746094 -2.4029455184936523
v 73.16754913330078 35.816322326660156 -3.520063877105713
v 73.76144409179688 30.64789581298828 -2.223855495452881
v 74.08495330810547 27.83243179321289 -3.1063616275787354
v 73.77704620361328 30.51205062866211 -0.9345768690109253
v 73.76144409179688 30.64789581298828 -2.223855495452881
v 73.16754913330078 35.816322326660156 -4.4926581382751465
v 73.16755676269531 35.816322326660156 4.386049747467041
v 73.16754913330078 35.816322326660156 1.8760700225830078
v 73.52405548095703 32.71378707885742 1.4922863245010376
v 73.16754913330078 35.816322326660156 -3.520063877105713
v 68.48738098144531 35.171024322509766 4.828313827514648
v 69.41812133789062 36.05434799194336 4.810576438903809
v 66.99137115478516 35.2449951171875 -5.818149566650391
v 67.1521987915039 35.77981948852539 -5.720344066619873
v 67.0364761352539 35.84716796875 -4.904844284057617
v 66.64759826660156 35.0181884765625 -5.002649784088135
v 66.953369140625 36.03166580200195 -5.674289226531982
v 66.55570220947266 36.23752212524414 -4.858789443969727
v 67.75224304199219 36.03166580200195 -5.674289226531982
v 67.4388656616211 34.85007858276367 -5.890371322631836
v 67.7296371459961 34.40605926513672 -5.0748701095581055
v 68.48738098144531 36.23752212524414 -4.858789443969727
v 67.0364761352539 35.84716796875 -4.904844284057617
v 64.49221801757812 35.816322326660156 -4.858789443969727
v 66.64759826660156 35.0181884765625 -5.002649784088135
v 63.2507209777832 23.15936279296875 -6.352095127105713
v 66.55570220947266 36.23752212524414 -4.858789443969727
v 67.7296371459961 34.40605926513672 -5.0748701095581055
v 68.48737335205078 23.159360885620117 -6.352094650268555
v 68.48738098144531 36.23752212524414 -4.858789443969727
v 62.6846923828125 32.78623580932617 0.808131754398346
v 62.88163375854492 33.94052505493164 2.3714115619659424
v 63.58938980102539 33.92075729370117 2.9432098865509033
v 63.39244842529297 32.20686340332031 0.4217955768108368
v 62.88163375854492 33.94052505493164 2.3714115619659424
v 63.09944534301758 35.21717834472656 2.499440908432007
v 63.80720520019531 35.81632614135742 3.1497082710266113
v 63.58938980102539 33.92075729370117 2.9432098865509033
v 63.09944534301758 35.21717834472656 -0.22768905758857727
v 62.6846923828125 32.78623580932617 0.808131754398346
v 63.39244842529297 32.20686340332031 0.4217955768108368
v 63.80720520019531 35.816322326660156 -1.2488800287246704
v 63.39244842529297 32.20686340332031 0.4217955768108368
v 62.35283279418945 23.15936279296875 5.765580177307129
v 63.58938980102539 33.92075729370117 2.9432098865509033
v 63.80720520019531 35.81632614135742 3.1497082710266113
v 63.80720520019531 35.816322326660156 4.386049747467041
v 63.80719757080078 35.816322326660156 -4.492659091949463
v 63.80720520019531 35.816322326660156 -1.2488800287246704
v 72.48673248291016 36.03065872192383 -4.496845245361328
v 72.4825439453125 35.816322326660156 -4.858788967132568
v 73.72403717041016 23.15936279296875 -6.352093696594238
v 73.72952270507812 23.159366607666016 -5.877678394317627
v 73.16754913330078 35.816322326660156 -4.4926581382751465
v 74.62191772460938 23.159360885620117 -5.872189044952393
v 72.4825439453125 35.816322326660156 -4.858788967132568
v 73.72403717041016 23.15936279296875 -6.352093696594238
v 64.49221801757812 35.816322326660156 4.752180576324463
v 68.48737335205078 23.159360885620117 6.245485305786133
v 72.4825439453125 35.816322326660156 4.752179145812988
v 74.48353576660156 16.52351188659668 -6.7154340744018555
v 74.47725677490234 16.52351188659668 -7.258089065551758
v 75.50428771972656 16.52351188659668 -6.709156513214111
v 68.48737335205078 16.523509979248047 -7.258089542388916
v 68.93519592285156 18.445486068725586 -7.009192943572998
v 68.03955078125 18.445486068725586 -7.009191989898682
v 66.12647247314453 21.043542861938477 -6.625728607177734
v 68.1162109375 21.043542861938477 -6.625726222991943
v 66.06809997558594 20.989761352539062 -7.270804405212402
v 66.12647247314453 21.043542861938477 -6.625728607177734
v 65.3841323852539 21.043542861938477 -6.625728607177734
v 65.43545532226562 20.989761352539062 -7.270804405212402
v 65.98563385009766 18.499267578125 -7.673952102661133
v 66.0437240600586 18.445486068725586 -7.009194850921631
v 66.12647247314453 21.043542861938477 -6.625728607177734
v 66.06809997558594 20.989761352539062 -7.270804405212402
v 65.43545532226562 20.989761352539062 -7.270804405212402
v 65.3841323852539 21.043542861938477 -6.625728607177734
v 65.14807891845703 18.445486068725586 -7.009194374084473
v 65.21231842041016 18.499267578125 -7.673952102661133
v 65.21231842041016 18.499267578125 -7.673952102661133
v 65.14807891845703 18.445486068725586 -7.009194374084473
v 66.0437240600586 18.445486068725586 -7.009194850921631
v 65.98563385009766 18.499267578125 -7.673952102661133
v 68.85855102539062 21.043542861938477 -6.62572717666626
v 65.3841323852539 21.043542861938477 -6.625728607177734
v 71.59061431884766 21.043542861938477 -6.625728130340576
v 70.84827423095703 21.043542861938477 -6.625728130340576
v 70.9310302734375 18.445486068725586 -7.009191036224365
v 66.0437240600586 18.445486068725586 -7.009194850921631
v 65.14807891845703 18.445486068725586 -7.009194374084473
v 62.49748992919922 16.52351188659668 -7.258090496063232
v 74.47725677490234 16.52351188659668 -7.258089065551758
v 71.82667541503906 18.445486068725586 -7.009191989898682
v 65.20616149902344 18.499265670776367 7.567338943481445
v 65.4425048828125 20.98975944519043 7.164194107055664
v 66.07515716552734 20.98975944519043 7.164194107055664
v 65.97947692871094 18.499265670776367 7.567338943481445
v 71.76858520507812 18.499267578125 -7.673949241638184
v 71.53224182128906 20.989761352539062 -7.270804405212402
v 70.89958953857422 20.989761352539062 -7.270804405212402
v 70.99526977539062 18.499267578125 -7.673949241638184
v 65.98563385009766 18.499267578125 -7.673952102661133
v 66.06809997558594 20.989761352539062 -7.270804405212402
v 65.43545532226562 20.989761352539062 -7.270804405212402
v 68.09764099121094 18.499265670776367 7.567338943481445
v 68.17456817626953 20.98975944519043 7.164192199707031
v 68.80722045898438 20.98975944519043 7.164192199707031
v 68.87095642089844 18.499265670776367 7.5673394203186035
v 70.9891128540039 18.499265670776367 7.567341327667236
v 70.90664672851562 20.98975944519043 7.164194583892822
v 71.53929138183594 20.98975944519043 7.164194583892822
v 71.7624282836914 18.499265670776367 7.567341327667236
v 65.21231842041016 18.499267578125 -7.673952102661133
v 68.87710571289062 18.499267578125 -7.6739501953125
v 68.80017852783203 20.989761352539062 -7.270802974700928
v 68.16751861572266 20.989761352539062 -7.270802974700928
v 68.10379028320312 18.499267578125 -7.6739501953125
vn -0.5737873911857605 0.4763767421245575 0.6662080883979797
vn -0.5776516199111938 0.45946070551872253 0.6746958494186401
vn 0.5771582126617432 0.46205925941467285 0.6733421683311462
vn 0.9917887449264526 -0.12788599729537964 0.00042795183253474534
vn 0.7051452994346619 -0.09048205614089966 0.7032660245895386
vn 0.9912749528884888 -0.13181012868881226 2.1746488698681787e-7
vn 0.7056297063827515 -0.09143002331256866 -0.7026572823524475
vn 0.5626327395439148 -0.8265461325645447 -0.01630813628435135
vn 0.31767359375953674 -0.5728726387023926 -0.7555795311927795
vn 0.761709988117218 0.38373908400535583 -0.5220557451248169
vn 0.8172014951705933 0.5518513917922974 0.16625796258449554
vn -0.5783950686454773 -0.5391392707824707 -0.6121993064880371
vn -0.7682739496231079 -0.6284735202789307 -0.12155728787183762
vn -0.6163614392280579 0.785990297794342 0.048144303262233734
vn -0.39649173617362976 0.32272130250930786 -0.8594447374343872
vn 0.31767359375953674 -0.5728726387023926 -0.7555795311927795
vn -0.5783950686454773 -0.5391392707824707 -0.6121993064880371
vn -0.39649173617362976 0.32272130250930786 -0.8594447374343872
vn 0.761709988117218 0.38373908400535583 -0.5220557451248169
vn 0.6104047298431396 -0.7920722961425781 0.005247378721833229
vn 0.4200768768787384 -0.7707818746566772 -0.47898924350738525
vn 0.691345751285553 0.34215661883354187 -0.636372447013855
vn 0.7920783162117004 0.6103039979934692 -0.011872919276356697
vn -0.5865454077720642 -0.6612468957901001 -0.4676719903945923
vn -0.7338404059410095 -0.6784511208534241 0.03438529372215271
vn -0.6602987051010132 0.7508717775344849 0.014042744413018227
vn -0.6322081685066223 0.46458494663238525 -0.6200593709945679
vn 0.4200768768787384 -0.7707818746566772 -0.47898924350738525
vn -0.5865454077720642 -0.6612468957901001 -0.4676719903945923
vn -0.6322081685066223 0.46458494663238525 -0.6200593709945679
vn 0.691345751285553 0.34215661883354187 -0.636372447013855
vn -0.714576005935669 -0.6742491722106934 -0.18646502494812012
vn -0.46961110830307007 -0.5282064080238342 0.7074344158172607
vn -0.575244665145874 0.444240003824234 0.6868364810943604
vn -0.6930374503135681 0.7187997698783875 0.055009033530950546
vn 0.549350917339325 -0.5904621481895447 0.591242790222168
vn 0.7216881513595581 -0.6860272288322449 -0.09237315505743027
vn 0.7012199759483337 0.6990599632263184 0.14002038538455963
vn 0.39276522397994995 0.3163789212703705 0.8635044097900391
vn -0.46961110830307007 -0.5282064080238342 0.7074344158172607
vn 0.549350917339325 -0.5904621481895447 0.591242790222168
vn 0.39276522397994995 0.3163789212703705 0.8635044097900391
vn -0.575244665145874 0.444240003824234 0.6868364810943604
vn -0.30328160524368286 -0.7019211649894714 0.6444585919380188
vn 0.5437259078025818 -0.6379846930503845 0.5452867150306702
vn 0.6980223655700684 0.18770040571689606 0.6910378932952881
vn 0.10321937501430511 0.64812171459198 0.7545091509819031
vn 0.38015714287757874 -0.4834439754486084 -0.7885191440582275
vn -0.13571986556053162 -0.6846377849578857 -0.7161363363265991
vn 0.21024757623672485 0.37353718280792236 -0.9034743905067444
vn 0.9394181966781616 0.15030628442764282 -0.3080609142780304
vn 0.5437259078025818 -0.6379846930503845 0.5452867150306702
vn 0.38015714287757874 -0.4834439754486084 -0.7885191440582275
vn 0.9394181966781616 0.15030628442764282 -0.3080609142780304
vn 0.6980223655700684 0.18770040571689606 0.6910378932952881
vn 0.04292755573987961 -0.4916524589061737 0.8697327971458435
vn 0.766476035118103 -0.5297334790229797 0.363176167011261
vn 0.5516361594200134 0.1914977729320526 0.8118042349815369
vn 0.15023058652877808 0.6604140996932983 0.7357200980186462
vn 0.5184788107872009 -0.6070388555526733 -0.6022321581840515
vn -0.16106583178043365 -0.7055272459983826 -0.6901370286941528
vn -0.028822531923651695 0.6709029078483582 -0.7409848570823669
vn 0.7905446290969849 0.3141985237598419 -0.5256600379943848
vn 0.766476035118103 -0.5297334790229797 0.363176167011261
vn 0.5184788107872009 -0.6070388555526733 -0.6022321581840515
vn 0.7905446290969849 0.3141985237598419 -0.5256600379943848
vn 0.5516361594200134 0.1914977729320526 0.8118042349815369
vn 0.49778664112091064 -0.6372628808021545 -0.5883064866065979
vn 0.4936216473579407 -0.6348704695701599 -0.5943711996078491
vn -0.5271494388580322 -0.5935118198394775 -0.6081588864326477
vn -0.521458089351654 -0.5943251252174377 -0.6122574210166931
vn 0.5840657353401184 0.4293922781944275 -0.6888319849967957
vn 0.5828038454055786 0.45052605867385864 -0.676288366317749
vn 0.4936216473579407 -0.6348704695701599 -0.5943711996078491
vn 0.49778664112091064 -0.6372628808021545 -0.5883064866065979
vn -0.521458089351654 -0.5943251252174377 -0.6122574210166931
vn -0.5271494388580322 -0.5935118198394775 -0.6081588864326477
vn -0.5603321194648743 0.5016160607337952 -0.6590972542762756
vn -0.5662505626678467 0.4890631139278412 -0.6634587645530701
vn -0.5662505626678467 0.4890631139278412 -0.6634587645530701
vn -0.5603321194648743 0.5016160607337952 -0.6590972542762756
vn 0.5828038454055786 0.45052605867385864 -0.676288366317749
vn 0.5840657353401184 0.4293922781944275 -0.6888319849967957
vn 0.5108903050422668 -0.6175916790962219 -0.5979729294776917
vn 0.5127864480018616 -0.6127792596817017 -0.6012915968894958
vn -0.5157120227813721 -0.6133080720901489 -0.5982427000999451
vn -0.512042224407196 -0.6159973740577698 -0.5986317992210388
vn 0.5776525139808655 0.4594610333442688 -0.674694836139679
vn 0.57378751039505 0.4763772785663605 -0.6662076115608215
vn 0.5127864480018616 -0.6127792596817017 -0.6012915968894958
vn 0.5108903050422668 -0.6175916790962219 -0.5979729294776917
vn -0.512042224407196 -0.6159973740577698 -0.5986317992210388
vn -0.5157120227813721 -0.6133080720901489 -0.5982427000999451
vn -0.5712699294090271 0.4753552973270416 -0.6690949201583862
vn -0.5771585702896118 0.4620587229728699 -0.673342227935791
vn -0.5771585702896118 0.4620587229728699 -0.673342227935791
vn -0.5712699294090271 0.4753552973270416 -0.6690949201583862
vn 0.57378751039505 0.4763772785663605 -0.6662076115608215
vn 0.5776525139808655 0.4594610333442688 -0.674694836139679
vn 0.5227851867675781 -0.5972201228141785 -0.6082957983016968
vn 0.5246841907501221 -0.592129647731781 -0.6116281747817993
vn -0.502334475517273 -0.6296706795692444 -0.5926001071929932
vn -0.5012391209602356 -0.6370269060134888 -0.5856245160102844
vn 0.569223940372467 0.48903053998947144 -0.6609336137771606
vn 0.5632564425468445 0.5016480684280396 -0.6565755009651184
vn 0.5246841907501221 -0.592129647731781 -0.6116281747817993
vn 0.5227851867675781 -0.5972201228141785 -0.6082957983016968
vn -0.5012391209602356 -0.6370269060134888 -0.5856245160102844
vn -0.502334475517273 -0.6296706795692444 -0.5926001071929932
vn -0.5805747509002686 0.4484739601612091 -0.6795616149902344
vn -0.5864027142524719 0.43441241979599 -0.6836795210838318
vn -0.5864027142524719 0.43441241979599 -0.6836795210838318
vn -0.5805747509002686 0.4484739601612091 -0.6795616149902344
vn 0.5632564425468445 0.5016480684280396 -0.6565755009651184
vn 0.569223940372467 0.48903053998947144 -0.6609336137771606
vn 0.7086127400398254 -0.14292757213115692 -0.6909700632095337
vn 0.6766822338104248 -0.1513862907886505 -0.7205438017845154
vn 0.6868360042572021 -0.1819920837879181 -0.703658401966095
vn 0.6957381963729858 -0.16724514961242676 -0.6985538601875305
vn 0.7003515958786011 -0.15638470649719238 -0.6964563727378845
vn 0.6973991990089417 -0.1802225410938263 -0.6936528086662292
vn 0.7039742469787598 -0.08391673862934113 -0.7052505016326904
vn 0.7007037997245789 -0.08598010241985321 -0.708252489566803
vn 0.7056297063827515 -0.09143002331256866 -0.7026572823524475
vn -0.6908945441246033 -0.17421773076057434 -0.7016501426696777
vn -0.6830995082855225 -0.15130040049552917 -0.7144811153411865
vn -0.7106161713600159 -0.14252889156341553 -0.6889921426773071
vn -0.6957435011863708 -0.16724440455436707 -0.6985486745834351
vn -0.7003520131111145 -0.15638436377048492 -0.6964560151100159
vn -0.6996856927871704 -0.1680593341588974 -0.694403350353241
vn -0.7031830549240112 -0.08392007648944855 -0.7060390114784241
vn -0.7029060125350952 -0.0836142897605896 -0.7063510417938232
vn -0.7057209014892578 -0.09000904858112335 -0.7027491927146912
vn 0.6868362426757812 -0.18199236690998077 0.7036581039428711
vn 0.6844464540481567 -0.13444320857524872 0.716559886932373
vn 0.7086123824119568 -0.14292758703231812 0.6909704804420471
vn 0.6957378387451172 -0.16724510490894318 0.6985541582107544
vn 0.7003517150878906 -0.15638436377048492 0.6964563131332397
vn 0.6996854543685913 -0.1680593341588974 0.6944035291671753
vn 0.7039068341255188 -0.08391876518726349 0.705317497253418
vn 0.7028203010559082 -0.0850369855761528 0.706266462802887
vn 0.7051452994346619 -0.09048205614089966 0.7032660245895386
vn -0.6996856927871704 -0.1680593341588974 -0.694403350353241
vn -0.6973991990089417 -0.18022258579730988 0.6936527490615845
vn -0.9912749528884888 -0.13181021809577942 -6.47406039888665e-8
vn -0.7057209014892578 -0.09000904858112335 -0.7027491927146912
vn -0.49778667092323303 -0.6372629404067993 0.5883063673973083
vn -0.498839408159256 -0.6299375891685486 0.5952628254890442
vn 0.5271478891372681 -0.5935091972351074 0.6081627607345581
vn 0.5214581489562988 -0.5943251252174377 0.6122573018074036
vn -0.5840651988983154 0.4293917417526245 0.6888327598571777
vn -0.58280348777771 0.4505249857902527 0.6762893795967102
vn -0.498839408159256 -0.6299375891685486 0.5952628254890442
vn -0.49778667092323303 -0.6372629404067993 0.5883063673973083
vn 0.5214581489562988 -0.5943251252174377 0.6122573018074036
vn 0.5271478891372681 -0.5935091972351074 0.6081627607345581
vn 0.560332715511322 0.5016144514083862 0.6590980291366577
vn 0.566250205039978 0.4890625774860382 0.6634594798088074
vn 0.566250205039978 0.4890625774860382 0.6634594798088074
vn 0.560332715511322 0.5016144514083862 0.6590980291366577
vn -0.58280348777771 0.4505249857902527 0.6762893795967102
vn -0.5840651988983154 0.4293917417526245 0.6888327598571777
vn -0.5108903050422668 -0.6175918579101562 0.5979727506637573
vn -0.5127864480018616 -0.6127790808677673 0.601291835308075
vn 0.5157158970832825 -0.6133117079734802 0.5982356071472168
vn 0.5120431780815125 -0.6159963011741638 0.5986320376396179
vn -0.5776516199111938 0.45946070551872253 0.6746958494186401
vn -0.5737873911857605 0.4763767421245575 0.6662080883979797
vn -0.5127864480018616 -0.6127790808677673 0.601291835308075
vn -0.5108903050422668 -0.6175918579101562 0.5979727506637573
vn -0.9919283986091614 -0.12679892778396606 -0.0004060890933033079
vn 0.5712688565254211 0.47535574436187744 0.669095516204834
vn 0.5771582126617432 0.46205925941467285 0.6733421683311462
vn 0.5120431780815125 -0.6159963011741638 0.5986320376396179
vn 0.5712688565254211 0.47535574436187744 0.669095516204834
vn -0.7062355279922485 -0.09048236161470413 0.7021711468696594
vn 0.5157158970832825 -0.6133117079734802 0.5982356071472168
vn 0.7007037997245789 -0.08598010241985321 -0.708252489566803
vn 0.5828038454055786 0.45052605867385864 -0.676288366317749
vn -2.443521509576385e-7 -0.12842848896980286 -0.9917187690734863
vn -0.5603321194648743 0.5016160607337952 -0.6590972542762756
vn 0.57378751039505 0.4763772785663605 -0.6662076115608215
vn 0.5632564425468445 0.5016480684280396 -0.6565755009651184
vn -0.5805747509002686 0.4484739601612091 -0.6795616149902344
vn -0.7029060125350952 -0.0836142897605896 -0.7063510417938232
vn -0.5712699294090271 0.4753552973270416 -0.6690949201583862
vn -0.502334475517273 -0.6296706795692444 -0.5926001071929932
vn -0.6908945441246033 -0.17421773076057434 -0.7016501426696777
vn 0.6868360042572021 -0.1819920837879181 -0.703658401966095
vn 0.4936216473579407 -0.6348704695701599 -0.5943711996078491
vn -0.5271494388580322 -0.5935118198394775 -0.6081588864326477
vn 0.5127864480018616 -0.6127792596817017 -0.6012915968894958
vn -0.5157120227813721 -0.6133080720901489 -0.5982427000999451
vn 0.5246841907501221 -0.592129647731781 -0.6116281747817993
vn 0.6996854543685913 -0.1680593341588974 0.6944035291671753
vn -0.3528805673122406 0.6116130948066711 -0.708099365234375
vn -0.784752368927002 0.5138653516769409 0.34656330943107605
vn -0.98563152551651 0.10208070278167725 0.13457365334033966
vn -0.6959149241447449 0.44923895597457886 -0.5602560043334961
vn -0.784752368927002 0.5138653516769409 0.34656330943107605
vn -0.3237791657447815 -0.012630362063646317 0.946048378944397
vn -0.6088309288024902 -0.09788894653320312 0.7872373461723328
vn -0.98563152551651 0.10208070278167725 0.13457365334033966
vn -0.5869563221931458 0.03262249380350113 -0.8089610934257507
vn -0.5059284567832947 0.3463941514492035 -0.7899667620658875
vn -0.7858023047447205 0.22881925106048584 -0.5745924711227417
vn -0.8892260193824768 -0.0458756648004055 -0.4551621079444885
vn -0.5059284567832947 0.3463941514492035 -0.7899667620658875
vn -0.3528805673122406 0.6116130948066711 -0.708099365234375
vn -0.6959149241447449 0.44923895597457886 -0.5602560043334961
vn -0.7858023047447205 0.22881925106048584 -0.5745924711227417
vn -0.3237791657447815 -0.012630362063646317 0.946048378944397
vn -0.4838571846485138 0.09082729369401932 0.8704209327697754
vn -0.7124152779579163 0.06529926508665085 0.6987134218215942
vn -0.6088309288024902 -0.09788894653320312 0.7872373461723328
vn -0.98563152551651 0.10208070278167725 0.13457365334033966
vn -0.6959149241447449 0.44923895597457886 -0.5602560043334961
vn -0.6088309288024902 -0.09788894653320312 0.7872373461723328
vn -0.7003508806228638 -0.15638436377048492 0.6964571475982666
vn -0.7003520131111145 -0.15638436377048492 -0.6964560151100159
vn -0.8892260193824768 -0.0458756648004055 -0.4551621079444885
vn -0.7858023047447205 0.22881925106048584 -0.5745924711227417
vn -0.7124152779579163 0.06529926508665085 0.6987134218215942
vn -1.607647277523938e-7 -0.11717028170824051 -0.9931118488311768
vn 0.01857304386794567 -0.10444652289152145 -0.9943570494651794
vn 0.943766176700592 -0.042894233018159866 0.327819287776947
vn 0.9026873707771301 0.3988003432750702 0.1615976244211197
vn 0.8647510409355164 -0.022932717576622963 0.5016769170761108
vn 0.6769513487815857 0.31147798895835876 0.6668720245361328
vn 0.7831578850746155 0.5749907493591309 0.23674741387367249
vn 0.6278665661811829 0.5499683022499084 0.550743579864502
vn -0.8315050601959229 0.2023342251777649 0.5173588395118713
vn 0.11115983128547668 0.8163337707519531 0.5667827129364014
vn -0.413446307182312 0.39789295196533203 0.8189892172813416
vn -0.4269827604293823 0.06963156163692474 0.9015748500823975
vn 0.8647510409355164 -0.022932717576622963 0.5016769170761108
vn 0.6844464540481567 -0.13444320857524872 0.716559886932373
vn 0.6769513487815857 0.31147798895835876 0.6668720245361328
vn 0.6868362426757812 -0.18199236690998077 0.7036581039428711
vn 0.6278665661811829 0.5499683022499084 0.550743579864502
vn -0.413446307182312 0.39789295196533203 0.8189892172813416
vn -1.1901764196409204e-7 -0.1282595694065094 0.9917406439781189
vn -0.4269827604293823 0.06963156163692474 0.9015748500823975
vn 0.635303795337677 0.7565222978591919 -0.15512299537658691
vn 0.6410277485847473 0.22986075282096863 -0.73228919506073
vn 0.7227648496627808 0.40139392018318176 -0.5625779032707214
vn 0.8875874876976013 0.36210593581199646 0.28472402691841125
vn 0.6410277485847473 0.22986075282096863 -0.73228919506073
vn 0.6971918940544128 -0.04721356928348541 -0.7153280973434448
vn 0.8396244049072266 -0.05390046536922455 -0.5404864549636841
vn 0.7227648496627808 0.40139392018318176 -0.5625779032707214
vn 0.6748608946800232 0.21780702471733093 0.7050694227218628
vn 0.635303795337677 0.7565222978591919 -0.15512299537658691
vn 0.8875874876976013 0.36210593581199646 0.28472402691841125
vn 0.9374797344207764 0.05159062519669533 0.3441948890686035
vn 0.8875874876976013 0.36210593581199646 0.28472402691841125
vn 0.6973991990089417 -0.1802225410938263 -0.6936528086662292
vn 0.7227648496627808 0.40139392018318176 -0.5625779032707214
vn 0.8396244049072266 -0.05390046536922455 -0.5404864549636841
vn 0.7003515958786011 -0.15638470649719238 -0.6964563727378845
vn 0.7003517150878906 -0.15638436377048492 0.6964563131332397
vn 0.9374797344207764 0.05159062519669533 0.3441948890686035
vn -0.7106167674064636 -0.14252883195877075 0.6889915466308594
vn -0.6727742552757263 -0.1514321118593216 0.7241844534873962
vn -0.6908945441246033 -0.17421846091747284 0.7016499638557434
vn -0.6957431435585022 -0.1672450602054596 0.6985489130020142
vn -0.7003508806228638 -0.15638436377048492 0.6964571475982666
vn -0.6973991990089417 -0.18022258579730988 0.6936527490615845
vn -0.6727742552757263 -0.1514321118593216 0.7241844534873962
vn -0.6908945441246033 -0.17421846091747284 0.7016499638557434
vn 0.6766822338104248 -0.1513862907886505 -0.7205438017845154
vn -1.6054275420174235e-7 -0.12825913727283478 -0.9917407035827637
vn -0.6830995082855225 -0.15130040049552917 -0.7144811153411865
vn -0.7029439210891724 -0.08391837775707245 0.7062772512435913
vn -0.7007592916488647 -0.08503665030002594 0.7083114981651306
vn -0.7062355279922485 -0.09048236161470413 0.7021711468696594
vn -1.4035177287041734e-7 -0.1284276694059372 0.9917188882827759
vn -0.5737873911857605 0.4763767421245575 0.6662080883979797
vn 0.5712688565254211 0.47535574436187744 0.669095516204834
vn -0.5246843695640564 -0.5921295285224915 0.6116281151771545
vn 0.5157158970832825 -0.6133117079734802 0.5982356071472168
vn -0.5227851271629333 -0.597220242023468 0.608295738697052
vn -0.5246843695640564 -0.5921295285224915 0.6116281151771545
vn 0.49709776043891907 -0.6346400380134583 0.5917143225669861
vn 0.5012391209602356 -0.6370269656181335 0.5856243968009949
vn -0.5692234635353088 0.48902982473373413 0.660934567451477
vn -0.5632567405700684 0.5016466379165649 0.65657639503479
vn -0.5246843695640564 -0.5921295285224915 0.6116281151771545
vn -0.5227851271629333 -0.597220242023468 0.608295738697052
vn 0.5012391209602356 -0.6370269656181335 0.5856243968009949
vn 0.49709776043891907 -0.6346400380134583 0.5917143225669861
vn 0.5805742144584656 0.4484734535217285 0.6795624494552612
vn 0.5864022970199585 0.43441176414489746 0.6836802959442139
vn 0.5864022970199585 0.43441176414489746 0.6836802959442139
vn 0.5805742144584656 0.4484734535217285 0.6795624494552612
vn -0.5632567405700684 0.5016466379165649 0.65657639503479
vn -0.5692234635353088 0.48902982473373413 0.660934567451477
vn -0.5127864480018616 -0.6127790808677673 0.601291835308075
vn 0.49709776043891907 -0.6346400380134583 0.5917143225669861
vn -0.498839408159256 -0.6299375891685486 0.5952628254890442
vn 0.5271478891372681 -0.5935091972351074 0.6081627607345581
vn 0.560332715511322 0.5016144514083862 0.6590980291366577
vn -0.5632567405700684 0.5016466379165649 0.65657639503479
vn 0.5805742144584656 0.4484734535217285 0.6795624494552612
vn 0.7028203010559082 -0.0850369855761528 0.706266462802887
vn -0.7007592916488647 -0.08503665030002594 0.7083114981651306
vn -0.58280348777771 0.4505249857902527 0.6762893795967102
vn 0.5840657353401184 0.4293922781944275 -0.6888319849967957
vn 0.49778664112091064 -0.6372628808021545 -0.5883064866065979
vn -0.521458089351654 -0.5943251252174377 -0.6122574210166931
vn -0.5662505626678467 0.4890631139278412 -0.6634587645530701
vn -0.5840651988983154 0.4293917417526245 0.6888327598571777
vn -0.49778667092323303 -0.6372629404067993 0.5883063673973083
vn 0.5214581489562988 -0.5943251252174377 0.6122573018074036
vn 0.566250205039978 0.4890625774860382 0.6634594798088074
vn -0.5692234635353088 0.48902982473373413 0.660934567451477
vn -0.5227851271629333 -0.597220242023468 0.608295738697052
vn 0.5012391209602356 -0.6370269656181335 0.5856243968009949
vn 0.5776525139808655 0.4594610333442688 -0.674694836139679
vn 0.5108903050422668 -0.6175916790962219 -0.5979729294776917
vn -0.512042224407196 -0.6159973740577698 -0.5986317992210388
vn -0.5771585702896118 0.4620587229728699 -0.673342227935791
vn 0.569223940372467 0.48903053998947144 -0.6609336137771606
vn 0.5227851867675781 -0.5972201228141785 -0.6082957983016968
vn -0.5012391209602356 -0.6370269060134888 -0.5856245160102844
vn -0.5864027142524719 0.43441241979599 -0.6836795210838318
vn 0.5864022970199585 0.43441176414489746 0.6836802959442139
vn -0.5776516199111938 0.45946070551872253 0.6746958494186401
vn -0.5108903050422668 -0.6175918579101562 0.5979727506637573
vn 0.5120431780815125 -0.6159963011741638 0.5986320376396179
vn 0.5771582126617432 0.46205925941467285 0.6733421683311462
vt 0 0
vt 0.06038647145032883 0
vt 0.06038647145032883 0.19999998807907104
vt 0.5 0.0009989738464355469
vt 0.9300000071525574 0.0009989738464355469
vt 0.5545454621315002 0.3881969451904297
vt 0.07000000029802322 0.0009989738464355469
vt 0.6800000071525574 0.5
vt 0.6800000071525574 0
vt 0.6140000224113464 0
vt 0.6140000224113464 0.5
vt 0.6140000224113464 0
vt 0.6140000224113464 0.5
vt 0.6800000071525574 0.5
vt 0.6800000071525574 0
vt 0.3140096664428711 0.533816397190094
vt 0.38405799865722656 0.533816397190094
vt 0.38405799865722656 0.6400966048240662
vt 0.3140096664428711 0.6400966048240662
vt 0.6800000071525574 0.5
vt 0.6800000071525574 0
vt 0.6140000224113464 0
vt 0.6140000224113464 0.5
vt 0.6140000224113464 0
vt 0.6140000224113464 0.5
vt 0.6800000071525574 0.5
vt 0.6800000071525574 0
vt 0.3140096664428711 0.533816397190094
vt 0.38405799865722656 0.533816397190094
vt 0.38405799865722656 0.6400966048240662
vt 0.3140096664428711 0.6400966048240662
vt 0.6800000071525574 0.3999999761581421
vt 0.6800000071525574 0
vt 0.6140000224113464 0
vt 0.6140000224113464 0.3999999761581421
vt 0.6140000224113464 0
vt 0.6140000224113464 0.3999999761581421
vt 0.6800000071525574 0.3999999761581421
vt 0.6800000071525574 0
vt 0.3140096664428711 0.533816397190094
vt 0.38405799865722656 0.533816397190094
vt 0.38405799865722656 0.6400966048240662
vt 0.3140096664428711 0.6400966048240662
vt 0.6800000071525574 0.5
vt 0.6800000071525574 0
vt 0.6140000224113464 0
vt 0.6140000224113464 0.5
vt 0.6140000224113464 0
vt 0.6140000224113464 0.5
vt 0.6800000071525574 0.5
vt 0.6800000071525574 0
vt 0.3140096664428711 0.533816397190094
vt 0.38405799865722656 0.533816397190094
vt 0.38405799865722656 0.6400966048240662
vt 0.3140096664428711 0.6400966048240662
vt 0.6800000071525574 0.6000000238418579
vt 0.6800000071525574 0
vt 0.6140000224113464 0
vt 0.6140000224113464 0.6000000238418579
vt 0.6140000224113464 0
vt 0.6140000224113464 0.6000000238418579
vt 0.6800000071525574 0.6000000238418579
vt 0.6800000071525574 0
vt 0.3140096664428711 0.533816397190094
vt 0.38405799865722656 0.533816397190094
vt 0.38405799865722656 0.6400966048240662
vt 0.3140096664428711 0.6400966048240662
vt 0.06038647145032883 0
vt 0 0
vt 0 0.19999998807907104
vt 0.06038647145032883 0.19999998807907104
vt 0.06038647145032883 0.2246376872062683
vt 0 0.2246376872062683
vt 0 0.5246376991271973
vt 0.06038647145032883 0.5246376991271973
vt 0.06038647145032883 0.5246376991271973
vt 0 0.5246376991271973
vt 0 0.2246376872062683
vt 0.06038647145032883 0.2246376872062683
vt 0.06038647145032883 0.19999998807907104
vt 0 0.19999998807907104
vt 0 0
vt 0.06038647145032883 0
vt 0.06038647145032883 0
vt 0 0
vt 0 0.19999998807907104
vt 0.06038647145032883 0.19999998807907104
vt 0.06038647145032883 0.2246376872062683
vt 0 0.2246376872062683
vt 0 0.5246376991271973
vt 0.06038647145032883 0.5246376991271973
vt 0.06038647145032883 0.5246376991271973
vt 0 0.5246376991271973
vt 0 0.2246376872062683
vt 0.06038647145032883 0.2246376872062683
vt 0.06038647145032883 0.19999998807907104
vt 0 0.19999998807907104
vt 0 0
vt 0.06038647145032883 0
vt 0.06038647145032883 0
vt 0 0
vt 0 0.19999998807907104
vt 0.06038647145032883 0.19999998807907104
vt 0.06038647145032883 0.2246376872062683
vt 0 0.2246376872062683
vt 0 0.5246376991271973
vt 0.06038647145032883 0.5246376991271973
vt 0.06038647145032883 0.5246376991271973
vt 0 0.5246376991271973
vt 0 0.2246376872062683
vt 0.06038647145032883 0.2246376872062683
vt 0.06038647145032883 0.19999998807907104
vt 0 0.19999998807907104
vt 0 0
vt 0.06038647145032883 0
vt 0.3050000071525574 2
vt 0.38999998569488525 2
vt 0.38999998569488525 0.75
vt 0.3050000071525574 0.75
vt 0.38999998569488525 2
vt 0.38999998569488525 0.75
vt 0.3050000071525574 0
vt 0.38999998569488525 0
vt 0.38999998569488525 0
vt 0.38999998569488525 0.75
vt 0.38999998569488525 2
vt 0.3050000071525574 2
vt 0.3050000071525574 0.75
vt 0.38999998569488525 2
vt 0.38999998569488525 0.75
vt 0.3050000071525574 0
vt 0.38999998569488525 0
vt 0.38999998569488525 0
vt 0.38999998569488525 0.75
vt 0.38999998569488525 2
vt 0.3050000071525574 2
vt 0.3050000071525574 0.75
vt 0.38999998569488525 2
vt 0.38999998569488525 0.75
vt 0.3050000071525574 0
vt 0.38999998569488525 0
vt 0.38999998569488525 0
vt 0.06331127882003784 0.6882210969924927
vt 0.9366887211799622 0.6882210373878479
vt 0.4750058650970459 0.38601118326187134
vt 0.06571690738201141 0.0009990334510803223
vt 0.06038647145032883 0
vt 0 0
vt 0 0.19999998807907104
vt 0.06038647145032883 0.19999998807907104
vt 0.06038647145032883 0.2246376872062683
vt 0 0.2246376872062683
vt 0 0.5246376991271973
vt 0.06038647145032883 0.5246376991271973
vt 0.06038647145032883 0.5246376991271973
vt 0 0.5246376991271973
vt 0 0.2246376872062683
vt 0.06038647145032883 0.2246376872062683
vt 0.06038647145032883 0.19999998807907104
vt 0 0.19999998807907104
vt 0 0
vt 0.06038647145032883 0
vt 0.06038647145032883 0
vt 0 0
vt 0 0.19999998807907104
vt 0.06038647145032883 0.19999998807907104
vt 0.06038647145032883 0.2246376872062683
vt 0 0.2246376872062683
vt 0 0.5246376991271973
vt 0.06038647145032883 0.5246376991271973
vt 0.5024154186248779 0.0009990334510803223
vt 0 0.2246376872062683
vt 0.06038647145032883 0.2246376872062683
vt 0.06038647145032883 0.5246376991271973
vt 0 0.19999998807907104
vt 0.9391139149665833 0.0009990334510803223
vt 0 0.5246376991271973
vt 0.07731093466281891 0.0009992122650146484
vt 0.25153663754463196 0.19761693477630615
vt 0.4999997019767761 0.0009992122650146484
vt 0.31817755103111267 0.19761693477630615
vt 0.4666792154312134 0.19761687517166138
vt 0.6818217635154724 0.19761687517166138
vt 0.7484627366065979 0.19761687517166138
vt 0.9354905486106873 0.000999152660369873
vt 0.5333203673362732 0.19761687517166138
vt 0.7442318797111511 0.4633976221084595
vt 0.9359902739524841 0.6798455715179443
vt 0.07681159675121307 0.6798456907272339
vt 0.2557675242424011 0.4633975625038147
vt 0.31419119238853455 0.4633975625038147
vt 0.47078773379325867 0.4633976221084595
vt 0.529211699962616 0.4633976221084595
vt 0.6858080625534058 0.4633975625038147
vt 0.9300000071525574 0.6882209181785583
vt 0.5893719792366028 0.47826087474823
vt 0.4033816456794739 0.47826087474823
vt 0.4033816456794739 0.2222222089767456
vt 0.5893719792366028 0.2222222089767456
vt 0.8188405632972717 0.07971006631851196
vt 0.8188405632972717 0.4589371085166931
vt 0.5942029356956482 0.45893704891204834
vt 0.5942029356956482 0.07971006631851196
vt 0.5893719792366028 0.47826087474823
vt 0.4033816456794739 0.47826087474823
vt 0.4033816456794739 0.2222222089767456
vt 0.5893719792366028 0.2222222089767456
vt 0.5893719792366028 0.47826087474823
vt 0.4033816456794739 0.47826087474823
vt 0.4033816456794739 0.2222222089767456
vt 0.5893719792366028 0.2222222089767456
vt 0.8188405632972717 0.07971006631851196
vt 0.8188405632972717 0.4589371085166931
vt 0.5942029356956482 0.45893704891204834
vt 0.5942029356956482 0.07971006631851196
vt 0.7291222214698792 1.1721736192703247
vt 0.5661367177963257 1.4496804475784302
vt 0.6628929376602173 1.4637482166290283
vt 0.833159327507019 1.9990010261535645
vt 0.16684064269065857 1.9990010261535645
vt 0.35520660877227783 1.9990010261535645
vt 0.38400834798812866 1.6776961088180542
vt 0.760169267654419 1.9990010261535645
vt 0.5000002980232239 1.9086369276046753
vt 0.57761549949646 1.9990010261535645
vt 0.4288938045501709 0.5570216178894043
vt 0.45259517431259155 0.6403298377990723
vt 0.39845365285873413 0.6403160095214844
vt 0.3789885640144348 0.5331904292106628
vt 0.4357692003250122 0.6919293403625488
vt 0.3655945062637329 0.7220944762229919
vt 0.5407898426055908 0.6795236468315125
vt 0.4945873022079468 0.49546706676483154
vt 0.5379114747047424 0.43828725814819336
vt 0.5793532729148865 0.7243795394897461
vt 0.36168786883354187 1.9594395160675049
vt 0.14915871620178223 1.9563415050506592
vt 0.32997792959213257 1.875424861907959
vt 0.056597113609313965 0.6735941171646118
vt 0.32125866413116455 1.9990007877349854
vt 0.4207403063774109 1.8133876323699951
vt 0.4932854175567627 0.67359459400177
vt 0.48234209418296814 1.9990010261535645
vt 0.5893719792366028 0.47342997789382935
vt 0.4202898442745209 0.47342997789382935
vt 0.4202898442745209 0.3768116235733032
vt 0.5893719792366028 0.3768116235733032
vt 0.7753623723983765 0.3043478727340698
vt 0.7753624320030212 0.10386472940444946
vt 0.6570048928260803 0.10386466979980469
vt 0.6570048928260803 0.3043477535247803
vt 0.5893719792366028 0.47342997789382935
vt 0.4202898442745209 0.47342997789382935
vt 0.4202898442745209 0.3768116235733032
vt 0.5893719792366028 0.3768116235733032
vt 0.4779233932495117 1.6251981258392334
vt 0.07000000029802322 0.6882209777832031
vt 0.28023669123649597 1.802692174911499
vt 0.27812835574150085 1.9990010261535645
vt 0.07000000029802322 1.9990010261535645
vt 0.9300000071525574 1.9990007877349854
vt 0.626004159450531 1.9990007877349854
vt 0.3050000071525574 2
vt 0.38999998569488525 2
vt 0.38999998569488525 0.75
vt 0.3050000071525574 0.75
vt 0.38999998569488525 2
vt 0.38999998569488525 0.75
vt 0.8154770731925964 1.956342339515686
vt 0.9299741983413696 0.6735951900482178
vt 0.07681159675121307 1.9746507406234741
vt 0.49999991059303284 0.6798456311225891
vt 0.9359902739524841 1.9746506214141846
vt 0.3050000071525574 0
vt 0.38999998569488525 0
vt 0.38999998569488525 0
vt 0.49758484959602356 0.0009996891021728516
vt 0.5355055928230286 0.1957991123199463
vt 0.46081724762916565 0.19579899311065674
vt 0.29842960834503174 0.4591483473777771
vt 0.46435487270355225 0.4591485261917114
vt 0.06038647145032883 0
vt 0 0
vt 0 0.19999998807907104
vt 0.06038647145032883 0.19999998807907104
vt 0.06038647145032883 0.2246376872062683
vt 0 0.2246376872062683
vt 0 0.5246376991271973
vt 0.06038647145032883 0.5246376991271973
vt 0.06038647145032883 0.5246376991271973
vt 0 0.5246376991271973
vt 0 0.2246376872062683
vt 0.06038647145032883 0.2246376872062683
vt 0.06038647145032883 0.19999998807907104
vt 0 0.19999998807907104
vt 0 0
vt 0.06038647145032883 0
vt 0.526259183883667 0.459148645401001
vt 0.23652535676956177 0.45914822816848755
vt 0.7540885210037231 0.4591488838195801
vt 0.6921842098236084 0.4591488838195801
vt 0.6850310564041138 0.19579929113388062
vt 0.3064606487751007 0.1957988142967224
vt 0.24143418669700623 0.19579869508743286
vt 0.053639911115169525 0.0009990334510803223
vt 0.9415298104286194 0.0010002851486206055
vt 0.7452264428138733 0.19579941034317017
vt 0.982415497303009 0.5536397695541382
vt 0.982415497303009 0.9922541379928589
vt 0.8144927620887756 0.9922541379928589
vt 0.8144927620887756 0.5536398887634277
vt 0.982415497303009 0.5536397695541382
vt 0.982415497303009 0.9922541379928589
vt 0.8144927620887756 0.9922541379928589
vt 0.8144927620887756 0.5536398887634277
vt 0.982415497303009 0.5536397695541382
vt 0.982415497303009 0.9922541379928589
vt 0.8144927620887756 0.9922541379928589
vt 0.982415497303009 0.5536397695541382
vt 0.982415497303009 0.9922541379928589
vt 0.8144927620887756 0.9922541379928589
vt 0.8144927620887756 0.5536398887634277
vt 0.982415497303009 0.5536397695541382
vt 0.982415497303009 0.9922541379928589
vt 0.8144927620887756 0.9922541379928589
vt 0.8144927620887756 0.5536398887634277
vt 0.8144927620887756 0.5536398887634277
vt 0.982415497303009 0.5536397695541382
vt 0.982415497303009 0.9922541379928589
vt 0.8144927620887756 0.9922541379928589
vt 0.8144927620887756 0.5536398887634277
g belltower020
s 1
f 1/1/1 2/2/2 3/3/3
f 4/4/4 5/5/5 6/6/6
f 7/7/7 4/4/4 6/6/6
f 8/8/8 9/9/9 10/10/10
f 10/10/10 11/11/11 8/8/8
f 12/12/12 13/13/13 14/14/14
f 14/14/14 15/15/15 12/12/12
f 16/16/16 17/17/17 18/18/18
f 18/18/18 19/19/19 16/16/16
f 10/10/10 15/15/15 14/14/14
f 14/14/14 11/11/11 10/10/10
f 9/9/9 8/8/8 13/13/13
f 13/13/13 12/12/12 9/9/9
f 20/20/20 21/21/21 22/22/22
f 22/22/22 23/23/23 20/20/20
f 24/24/24 25/25/25 26/26/26
f 26/26/26 27/27/27 24/24/24
f 28/28/28 29/29/29 30/30/30
f 30/30/30 31/31/31 28/28/28
f 22/22/22 27/27/27 26/26/26
f 26/26/26 23/23/23 22/22/22
f 21/21/21 20/20/20 25/25/25
f 25/25/25 24/24/24 21/21/21
f 32/32/32 33/33/33 34/34/34
f 34/34/34 35/35/35 32/32/32
f 36/36/36 37/37/37 38/38/38
f 38/38/38 39/39/39 36/36/36
f 40/40/40 41/41/41 42/42/42
f 42/42/42 43/43/43 40/40/40
f 34/34/34 39/39/39 38/38/38
f 38/38/38 35/35/35 34/34/34
f 33/33/33 32/32/32 37/37/37
f 37/37/37 36/36/36 33/33/33
f 44/44/44 45/45/45 46/46/46
f 46/46/46 47/47/47 44/44/44
f 48/48/48 49/49/49 50/50/50
f 50/50/50 51/51/51 48/48/48
f 52/52/52 53/53/53 54/54/54
f 54/54/54 55/55/55 52/52/52
f 46/46/46 51/51/51 50/50/50
f 50/50/50 47/47/47 46/46/46
f 45/45/45 44/44/44 49/49/49
f 49/49/49 48/48/48 45/45/45
f 56/56/56 57/57/57 58/58/58
f 58/58/58 59/59/59 56/56/56
f 60/60/60 61/61/61 62/62/62
f 62/62/62 63/63/63 60/60/60
f 64/64/64 65/65/65 66/66/66
f 66/66/66 67/67/67 64/64/64
f 58/58/58 63/63/63 62/62/62
f 62/62/62 59/59/59 58/58/58
f 57/57/57 56/56/56 61/61/61
f 61/61/61 60/60/60 57/57/57
f 68/68/68 69/69/69 70/70/70
f 70/70/70 71/71/71 68/68/68
f 72/72/72 73/73/73 74/74/74
f 74/74/74 75/75/75 72/72/72
f 76/76/76 77/77/77 78/78/78
f 78/78/78 79/79/79 76/76/76
f 80/80/80 81/81/81 82/82/82
f 82/82/82 83/83/83 80/80/80
f 84/84/84 85/85/85 86/86/86
f 86/86/86 87/87/87 84/84/84
f 88/88/88 89/89/89 90/90/90
f 90/90/90 91/91/91 88/88/88
f 92/92/92 93/93/93 94/94/94
f 94/94/94 95/95/95 92/92/92
f 96/96/96 97/97/97 98/98/98
f 98/98/98 99/99/99 96/96/96
f 100/100/100 101/101/101 102/102/102
f 102/102/102 103/103/103 100/100/100
f 104/104/104 105/105/105 106/106/106
f 106/106/106 107/107/107 104/104/104
f 108/108/108 109/109/109 110/110/110
f 110/110/110 111/111/111 108/108/108
f 112/112/112 113/113/113 114/114/114
f 114/114/114 115/115/115 112/112/112
f 116/116/116 117/117/117 118/118/118
f 118/118/118 119/119/119 116/116/116
f 120/120/120 116/116/116 119/119/119
f 119/119/119 121/121/121 120/120/120
f 122/122/122 119/119/119 118/118/118
f 118/118/118 123/123/123 122/122/122
f 124/124/124 121/121/121 119/119/119
f 119/119/119 122/122/122 124/124/124
f 125/125/125 126/126/126 127/127/127
f 127/127/127 128/128/128 125/125/125
f 128/128/128 127/127/127 129/129/129
f 129/129/129 130/130/130 128/128/128
f 125/125/125 128/128/128 131/131/131
f 131/131/131 132/132/132 125/125/125
f 128/128/128 130/130/130 133/133/133
f 133/133/133 131/131/131 128/128/128
f 134/134/134 135/135/135 136/136/136
f 136/136/136 137/137/137 134/134/134
f 137/137/137 136/136/136 138/138/138
f 138/138/138 139/139/139 137/137/137
f 134/134/134 137/137/137 140/140/140
f 140/140/140 141/141/141 134/134/134
f 137/137/137 139/139/139 142/142/142
f 142/142/142 140/140/140 137/137/137
f 143/143/143 144/144/144 145/145/145
f 145/145/145 146/146/146 143/143/143
f 147/147/147 148/148/148 149/149/149
f 149/149/149 150/150/150 147/147/147
f 151/151/151 152/152/152 153/153/153
f 153/153/153 154/154/154 151/151/151
f 155/155/155 156/156/156 157/157/157
f 157/157/157 158/158/158 155/155/155
f 159/159/159 160/160/160 161/161/161
f 161/161/161 162/162/162 159/159/159
f 163/163/163 164/164/164 165/165/165
f 165/165/165 166/166/166 163/163/163
f 167/167/167 168/168/168 169/169/169
f 169/169/169 170/170/170 167/167/167
f 171/171/171 146/146/146 145/145/145
f 172/172/172 173/173/173 174/174/174
f 3/3/3 175/175/175 1/1/1
f 176/176/176 171/171/171 145/145/145
f 174/174/174 177/177/177 172/172/172
f 178/178/178 179/179/179 180/180/180
f 180/180/180 181/181/181 182/182/182
f 180/180/180 183/183/183 184/184/184
f 180/180/180 184/184/184 185/185/185
f 180/180/180 179/179/179 181/181/181
f 180/180/180 186/186/186 183/183/183
f 187/187/187 188/188/188 185/185/185
f 185/185/185 184/184/184 187/187/187
f 189/189/189 190/190/190 179/179/179
f 179/179/179 178/178/178 189/189/189
f 191/191/191 192/192/192 182/182/182
f 182/182/182 181/181/181 191/191/191
f 193/193/193 194/194/194 183/183/183
f 183/183/183 186/186/186 193/193/193
f 6/6/6 5/5/5 195/195/195
f 196/196/196 197/197/197 198/198/198
f 198/198/198 199/199/199 196/196/196
f 200/200/200 201/201/201 202/202/202
f 202/202/202 203/203/203 200/200/200
f 204/204/204 205/205/205 206/206/206
f 206/206/206 207/207/207 204/204/204
f 208/208/208 209/209/209 210/210/210
f 210/210/210 211/211/211 208/208/208
f 212/212/212 213/213/213 214/214/214
f 214/214/214 215/215/215 212/212/212
f 216/216/216 143/143/143 217/217/217
f 144/144/144 143/143/143 216/216/216
f 216/216/216 218/218/218 219/219/219
f 220/220/220 221/221/221 222/222/222
f 143/143/143 222/222/222 217/217/217
f 218/218/218 223/223/223 219/219/219
f 224/224/224 225/225/225 188/188/188
f 226/226/226 227/227/227 228/228/228
f 228/228/228 229/229/229 226/226/226
f 227/227/227 230/230/230 231/231/231
f 231/231/231 228/228/228 227/227/227
f 232/232/232 233/233/233 234/234/234
f 234/234/234 235/235/235 232/232/232
f 233/233/233 226/226/226 229/229/229
f 229/229/229 234/234/234 233/233/233
f 236/236/236 237/237/237 238/238/238
f 238/238/238 237/237/237 239/239/239
f 240/240/240 237/237/237 236/236/236
f 241/241/241 242/242/242 243/243/243
f 244/244/244 245/245/245 246/246/246
f 246/246/246 247/247/247 244/244/244
f 248/248/248 249/249/249 250/250/250
f 250/250/250 251/251/251 248/248/248
f 252/252/252 253/253/253 254/254/254
f 254/254/254 255/255/255 252/252/252
f 195/195/195 256/256/256 257/257/257
f 256/256/256 258/258/258 257/257/257
f 258/258/258 259/259/259 260/260/260
f 261/261/261 262/262/262 256/256/256
f 263/263/263 264/264/264 265/265/265
f 265/265/265 266/266/266 263/263/263
f 267/267/267 263/263/263 266/266/266
f 266/266/266 268/268/268 267/267/267
f 239/239/239 242/242/242 241/241/241
f 241/241/241 238/238/238 239/239/239
f 269/269/269 243/243/243 242/242/242
f 242/242/242 270/270/270 269/269/269
f 256/256/256 195/195/195 261/261/261
f 258/258/258 260/260/260 257/257/257
f 222/222/222 143/143/143 220/220/220
f 216/216/216 219/219/219 144/144/144
f 271/271/271 224/224/224 272/272/272
f 272/272/272 189/189/189 271/271/271
f 188/188/188 272/272/272 224/224/224
f 225/225/225 273/273/273 188/188/188
f 274/274/274 266/266/266 265/265/265
f 265/265/265 275/275/275 274/274/274
f 276/276/276 268/268/268 266/266/266
f 266/266/266 274/274/274 276/276/276
f 277/277/277 278/278/278 279/279/279
f 280/280/280 281/281/281 242/242/242
f 282/282/282 283/283/283 284/284/284
f 284/284/284 285/285/285 282/282/282
f 286/286/286 287/287/287 288/288/288
f 288/288/288 289/289/289 286/286/286
f 290/290/290 291/291/291 292/292/292
f 292/292/292 293/293/293 290/290/290
f 294/294/294 295/295/295 296/296/296
f 296/296/296 297/297/297 294/294/294
f 298/298/298 242/242/242 281/281/281
f 242/242/242 239/239/239 299/299/299
f 300/300/300 242/242/242 301/301/301
f 301/301/301 242/242/242 298/298/298
f 242/242/242 299/299/299 280/280/280
f 242/242/242 300/300/300 270/270/270
f 302/302/302 298/298/298 278/278/278
f 298/298/298 302/302/302 301/301/301
f 279/279/279 280/280/280 303/303/303
f 280/280/280 279/279/279 281/281/281
f 304/304/304 239/239/239 305/305/305
f 239/239/239 304/304/304 299/299/299
f 306/306/306 300/300/300 307/307/307
f 300/300/300 306/306/306 270/270/270
f 277/277/277 302/302/302 278/278/278
f 277/277/277 303/303/303 304/304/304
f 277/277/277 306/306/306 307/307/307
f 277/277/277 307/307/307 302/302/302
f 277/277/277 279/279/279 303/303/303
f 305/305/305 277/277/277 304/304/304
f 6/6/6 257/257/257 7/7/7
f 145/145/145 144/144/144 176/176/176
f 180/180/180 182/182/182 186/186/186
f 191/191/191 272/272/272 192/192/192
f 193/193/193 192/192/192 272/272/272
f 272/272/272 190/190/190 189/189/189
f 187/187/187 194/194/194 272/272/272
f 194/194/194 193/193/193 272/272/272
f 272/272/272 191/191/191 190/190/190
f 272/272/272 188/188/188 187/187/187
f 195/195/195 257/257/257 6/6/6
g belltower021
s 1
f 308/308/308 309/309/309 310/310/310
f 310/310/310 311/311/311 308/308/308
f 312/312/312 313/313/313 314/314/314
f 314/314/314 315/315/315 312/312/312
f 316/316/316 317/317/317 318/318/318
f 319/319/319 320/320/320 321/321/321
f 321/321/321 322/322/322 319/319/319
f 323/323/323 324/324/324 325/325/325
f 325/325/325 326/326/326 323/323/323
f 318/318/318 327/327/327 316/316/316
f 328/328/328 329/329/329 330/330/330
f 330/330/330 331/331/331 328/328/328
