# Exported using wow.export v0.2.19
o 20736_DistRt08.obj
v -35.412330627441406 -105.10533905029297 102.41736602783203
v -36.41166687011719 -104.844970703125 102.03656005859375
v -37.41099548339844 -104.58460235595703 103.16970825195312
v -35.412330627441406 -105.10533905029297 103.93132019042969
v -33.41366195678711 -105.6260757446289 101.66502380371094
v -37.41100311279297 -104.58460235595703 101.65576171875
v -41.40834045410156 -103.54312896728516 101.64649200439453
v -38.910003662109375 -104.19404602050781 101.84152221679688
v -39.409664154052734 -104.0638656616211 103.92205810546875
v -33.41366195678711 -105.6260757446289 104.69293975830078
v -39.40966796875 -104.0638656616211 102.40809631347656
v -41.40833282470703 -103.54312896728516 104.67440032958984
v -37.41099548339844 -104.58460235595703 104.68367004394531
v -38.41033172607422 -104.32423400878906 104.3028564453125
v -38.41033172607422 -104.20886993408203 104.68135070800781
v -41.40833282470703 -103.54312896728516 104.67440032958984
v -37.41099548339844 -104.1231460571289 104.68367004394531
v -35.412330627441406 -104.8746109008789 104.68830871582031
v -38.410335540771484 -104.2088623046875 101.6534423828125
v -41.40834045410156 -103.54312896728516 101.64649200439453
v -37.41100311279297 -104.58460235595703 101.65576171875
v -35.412330627441406 -104.87460327148438 101.66039276123047
v -41.408329010009766 -102.6202163696289 104.67440032958984
v -37.41100311279297 -103.66168212890625 104.68367004394531
v -39.40966033935547 -103.3716812133789 104.67903137207031
v -41.4083366394043 -102.62020874023438 101.64649200439453
v -39.40966796875 -103.37167358398438 101.651123046875
v -37.4109992980957 -104.12313842773438 101.65576171875
v -36.41166687011719 -104.03741455078125 101.65807342529297
v -33.41366958618164 -104.70315551757812 101.66502380371094
v -37.41100311279297 -103.66168212890625 101.65576171875
v -33.41366195678711 -105.6260757446289 101.66502380371094
v -37.41100311279297 -103.66168212890625 104.68367004394531
v -41.408329010009766 -102.6202163696289 104.67440032958984
v -41.408329010009766 -102.62020874023438 104.96683502197266
v -33.413673400878906 -104.70315551757812 104.69293975830078
v -33.413673400878906 -104.70315551757812 104.69293975830078
v -33.41366958618164 -104.70315551757812 101.66502380371094
v -33.41366958618164 -104.70315551757812 101.37259674072266
v -37.41100311279297 -103.66168212890625 101.36332702636719
v -37.41099548339844 -104.58460235595703 104.68367004394531
v -41.4083366394043 -102.62020874023438 101.35406494140625
v -41.4083366394043 -102.62020874023438 101.64649200439453
v -37.41100311279297 -103.66168212890625 101.65576171875
v -33.41366195678711 -105.6260757446289 104.69293975830078
v -39.40966796875 -103.14094543457031 101.35869598388672
v -37.41100311279297 -103.66168212890625 104.97610473632812
v -33.413673400878906 -104.70315551757812 104.98536682128906
v -33.4136848449707 -101.90008544921875 105.31665802001953
v -33.41304016113281 -102.03897857666016 105.1300048828125
v -37.41100311279297 -100.99750518798828 105.12074279785156
v -37.41100311279297 -101.55304718017578 101.21868896484375
v -41.40898513793945 -100.5115737915039 101.20941925048828
v -41.4083366394043 -100.65046691894531 101.02275848388672
v -39.40966796875 -101.17120361328125 101.02738952636719
v -38.410335540771484 -101.43157196044922 101.02970886230469
v -33.41302490234375 -102.59452056884766 101.22795104980469
v -37.41100311279297 -101.69194030761719 101.03202819824219
v -40.40900421142578 -100.91083526611328 101.02507019042969
v -36.41167068481445 -101.95230865478516 101.03434753417969
v -35.41233825683594 -102.21267700195312 101.03666687011719
v -33.413673400878906 -101.90007781982422 101.04129791259766
v -35.41233825683594 -101.37934112548828 101.03666687011719
v -41.40898513793945 -99.95602416992188 101.20941925048828
v -37.41100311279297 -100.85860443115234 101.03202819824219
v -33.41303634643555 -102.59453582763672 105.1300048828125
v -39.40966033935547 -101.17120361328125 105.30276489257812
v -41.408321380615234 -100.65047454833984 105.29813385009766
v -37.41100311279297 -101.69194030761719 105.3073959350586
v -41.40896987915039 -99.9560317993164 105.1114730834961
v -41.408321380615234 -99.817138671875 105.29812622070312
v -32.07936477661133 -103.52135467529297 101.85481262207031
v -32.0793571472168 -102.21981048583984 102.026123046875
v -33.04759216308594 -102.21807861328125 102.04913330078125
v -33.04758834838867 -103.5196304321289 101.87782287597656
v -33.04759979248047 -105.55125427246094 102.11405181884766
v -32.079376220703125 -105.552978515625 102.0910415649414
v -32.079368591308594 -101.36397552490234 103.82486724853516
v -33.0475959777832 -101.36225128173828 103.84788513183594
v -33.047603607177734 -100.84857940673828 103.18860626220703
v -32.07936096191406 -100.85031127929688 103.16559600830078
v -32.07938003540039 -102.2220458984375 104.306640625
v -33.0475959777832 -102.21920776367188 104.32886505126953
v -32.07938766479492 -103.52135467529297 104.47637176513672
v -33.04759216308594 -103.5196304321289 104.4993896484375
v -32.07939529418945 -105.55305480957031 104.24101257324219
v -33.04759979248047 -105.5512924194336 104.26359558105469
v -35.412017822265625 -102.07379150390625 105.12537384033203
v -39.409996032714844 -100.47676086425781 101.21405029296875
v -37.41100311279297 -100.99749755859375 101.21868896484375
v -41.7744026184082 -103.46837615966797 104.24549102783203
v -41.40833282470703 -103.54312896728516 104.67440032958984
v -41.40834045410156 -103.54312896728516 101.64649200439453
v -41.7744026184082 -103.46830749511719 102.09551239013672
v -38.410335540771484 -100.59823608398438 101.02970886230469
v -39.40966796875 -100.3378677368164 101.02738952636719
v -33.04759216308594 -101.36225128173828 102.5293197631836
v -32.07936096191406 -101.36397552490234 102.50630950927734
v -33.4136848449707 -102.73341369628906 105.31665802001953
v -33.413673400878906 -102.73340606689453 101.04129791259766
v -39.409996032714844 -100.47676086425781 101.21405029296875
v -41.40898513793945 -99.95602416992188 101.20941925048828
v -41.40898513793945 -100.5115737915039 101.20941925048828
v -37.41100311279297 -100.99749755859375 101.21868896484375
v -37.41100311279297 -101.55305480957031 105.12074279785156
v -33.41304016113281 -102.03897857666016 105.1300048828125
v -35.412017822265625 -102.07379150390625 105.12537384033203
v -37.41100311279297 -101.55305480957031 105.12074279785156
v -33.41303634643555 -102.59453582763672 105.1300048828125
v -37.41100311279297 -101.27528381347656 105.12074279785156
v -41.40896987915039 -100.51158142089844 105.1114730834961
v -37.41100311279297 -100.99750518798828 105.12074279785156
v -39.40998840332031 -100.47676849365234 105.11610412597656
v -39.40998840332031 -100.47676849365234 105.11610412597656
v -41.40896987915039 -99.9560317993164 105.1114730834961
v -35.41201400756836 -102.07378387451172 101.22332000732422
v -35.41201400756836 -102.07378387451172 101.22332000732422
v -33.41302490234375 -102.59452056884766 101.22795104980469
v -33.41302490234375 -102.0389633178711 101.22795104980469
v -37.41100311279297 -101.55304718017578 101.21868896484375
v -37.41100311279297 -101.2752685546875 101.21868896484375
v -33.41302490234375 -102.0389633178711 101.22795104980469
v -41.40896987915039 -100.51158142089844 105.1114730834961
v -33.41366195678711 -105.6260757446289 101.66502380371094
v -33.41366195678711 -105.6260757446289 104.69293975830078
v -33.04759979248047 -105.5512924194336 104.26359558105469
v -41.4083366394043 -99.81713104248047 101.02275848388672
v -33.04759979248047 -105.55125427246094 102.11405181884766
v -41.4083366394043 -102.62020874023438 101.64649200439453
v -41.40834426879883 -101.58767700195312 101.42110443115234
v -41.774417877197266 -101.43668365478516 101.85929107666016
v -33.0475959777832 -101.36225128173828 103.84788513183594
v -33.0475959777832 -102.21920776367188 104.32886505126953
v -33.413665771484375 -102.24044036865234 104.68403625488281
v -33.047603607177734 -100.84857940673828 103.18860626220703
v -33.413665771484375 -101.15011596679688 104.05884552001953
v -33.413665771484375 -100.50088500976562 103.17686462402344
v -33.413665771484375 -101.14887237548828 102.29480743408203
v -33.04759216308594 -101.36225128173828 102.5293197631836
v -33.413665771484375 -102.2403564453125 101.67191314697266
v -33.04759216308594 -102.21807861328125 102.04913330078125
v -33.413665771484375 -103.67062377929688 101.43963623046875
v -33.04758834838867 -103.5196304321289 101.87782287597656
v -33.04759979248047 -105.5512924194336 104.26359558105469
v -33.413673400878906 -104.70315551757812 104.69293975830078
v -33.04759216308594 -103.5196304321289 104.4993896484375
v -33.41366195678711 -105.6260757446289 104.69293975830078
v -33.04759979248047 -105.55125427246094 102.11405181884766
v -33.41366958618164 -104.70315551757812 101.66502380371094
v -33.41366195678711 -105.6260757446289 101.66502380371094
v -41.77440643310547 -100.13737487792969 104.31112670898438
v -41.40834045410156 -100.1574935913086 104.6655044555664
v -41.40834045410156 -101.59085083007812 104.89559173583984
v -41.77440643310547 -101.43668365478516 104.48085021972656
v -41.408329010009766 -102.6202163696289 104.67440032958984
v -41.7744026184082 -103.46830749511719 102.09551239013672
v -33.413665771484375 -103.67379760742188 104.91412353515625
v -41.40834045410156 -103.54312896728516 101.64649200439453
v -41.7744026184082 -99.27930450439453 103.82933807373047
v -41.40834426879883 -99.06716918945312 104.04031372070312
v -41.7744026184082 -98.76563262939453 103.17007446289062
v -41.7744026184082 -103.46837615966797 104.24549102783203
v -41.7744140625 -100.1351318359375 102.03060150146484
v -41.40834426879883 -100.15740966796875 101.65337371826172
v -41.40834045410156 -99.06592559814453 102.27627563476562
v -41.7744140625 -99.27930450439453 102.51078796386719
v -41.40834045410156 -98.41793823242188 103.15833282470703
v -41.40833282470703 -103.54312896728516 104.67440032958984
v -33.04759979248047 -105.55125427246094 102.11405181884766
v -33.04759979248047 -105.5512924194336 104.26359558105469
v -32.07939529418945 -105.55305480957031 104.24101257324219
v -32.079376220703125 -105.552978515625 102.0910415649414
v -44.816707611083984 -102.84986114501953 104.24560546875
v -41.7744026184082 -103.46837615966797 104.24549102783203
v -41.7744026184082 -103.46830749511719 102.09551239013672
v -44.81666564941406 -102.84971618652344 102.09562683105469
v -41.40834045410156 -100.1574935913086 104.6655044555664
v -41.40896987915039 -100.51158142089844 105.1114730834961
v -41.40834045410156 -101.59085083007812 104.89559173583984
v -41.408321380615234 -100.65047454833984 105.29813385009766
v -41.40834045410156 -97.98684692382812 104.96687316894531
v -41.408321380615234 -99.817138671875 105.29812622070312
v -41.40896987915039 -99.9560317993164 105.1114730834961
v -41.40834045410156 -99.06592559814453 102.27627563476562
v -41.40834426879883 -100.15740966796875 101.65337371826172
v -41.40898513793945 -99.95602416992188 101.20941925048828
v -41.40834045410156 -97.98684692382812 101.30594635009766
v -41.40834045410156 -98.41793823242188 103.15833282470703
v -41.40834045410156 -97.36185455322266 103.13640594482422
v -41.40834426879883 -99.06716918945312 104.04031372070312
v -41.408329010009766 -102.62020874023438 104.96683502197266
v -41.408329010009766 -102.6202163696289 104.67440032958984
v -41.40898513793945 -100.5115737915039 101.20941925048828
v -41.40834426879883 -101.58767700195312 101.42110443115234
v -41.4083366394043 -102.62020874023438 101.64649200439453
v -41.4083366394043 -102.62020874023438 101.35406494140625
v -33.41366958618164 -104.70315551757812 101.66502380371094
v -33.413665771484375 -103.67062377929688 101.43963623046875
v -33.41366958618164 -104.70315551757812 101.37259674072266
v -33.4136848449707 -101.90008544921875 105.31665802001953
v -33.413665771484375 -100.06979370117188 104.98539733886719
v -33.41304016113281 -102.03897857666016 105.1300048828125
v -33.4136848449707 -102.73341369628906 105.31665802001953
v -33.41303634643555 -102.59453582763672 105.1300048828125
v -33.413665771484375 -103.67379760742188 104.91412353515625
v -33.413665771484375 -102.24044036865234 104.68403625488281
v -33.41366195678711 -100.06979370117188 101.3244857788086
v -33.413673400878906 -101.90007781982422 101.04129791259766
v -33.41302490234375 -102.0389633178711 101.22795104980469
v -33.413673400878906 -102.73340606689453 101.04129791259766
v -33.41302490234375 -102.59452056884766 101.22795104980469
v -33.413665771484375 -102.2403564453125 101.67191314697266
v -33.413673400878906 -104.70315551757812 104.69293975830078
v -33.413673400878906 -104.70315551757812 104.98536682128906
v -33.413665771484375 -101.15011596679688 104.05884552001953
v -33.413665771484375 -100.50088500976562 103.17686462402344
v -33.41366195678711 -99.4448013305664 103.15494537353516
v -33.413665771484375 -101.14887237548828 102.29480743408203
v -41.4083366394043 -100.65046691894531 101.02275848388672
v -41.4083366394043 -99.81713104248047 101.02275848388672
v -44.81666946411133 -98.21634674072266 103.17019653320312
v -41.7744026184082 -98.76563262939453 103.17007446289062
v -43.295536041259766 -98.7478256225586 103.49977111816406
v -41.7744026184082 -99.27930450439453 103.82933807373047
v -41.77440643310547 -101.43668365478516 104.48085021972656
v -44.816707611083984 -100.88739013671875 104.4809799194336
v -44.81669998168945 -99.58584594726562 104.3096694946289
v -44.81668472290039 -98.73001098632812 103.82947540283203
v -41.77440643310547 -100.13737487792969 104.31112670898438
v -41.7744026184082 -103.46837615966797 104.24549102783203
v -44.816707611083984 -102.84986114501953 104.24560546875
v -44.816654205322266 -100.88739013671875 101.85941314697266
v -41.774417877197266 -101.43668365478516 101.85929107666016
v -41.7744140625 -100.1351318359375 102.03060150146484
v -44.816650390625 -99.58584594726562 102.03073120117188
v -41.7744140625 -99.27930450439453 102.51078796386719
v -44.81665802001953 -98.73001098632812 102.51091003417969
v -44.81666564941406 -102.84971618652344 102.09562683105469
v -41.7744026184082 -103.46830749511719 102.09551239013672
v -41.40834045410156 -97.36185455322266 103.13640594482422
v -41.40834045410156 -97.98684692382812 101.30594635009766
v -40.40900421142578 -98.0128402709961 101.99468994140625
v -39.409671783447266 -98.03883361816406 102.68342590332031
v -39.409671783447266 -98.35133361816406 101.76819610595703
v -36.41166687011719 -98.7418212890625 102.919189453125
v -37.41100311279297 -98.40332794189453 103.14567565917969
v -33.41366195678711 -99.4448013305664 103.15494537353516
v -35.412330627441406 -99.39280700683594 101.7774658203125
v -35.412330627441406 -99.08030700683594 102.69269561767578
v -37.41100311279297 -98.7158203125 102.2304458618164
v -40.40900421142578 -98.0128402709961 104.28276062011719
v -41.40834045410156 -97.98684692382812 104.96687316894531
v -40.40900421142578 -98.0128402709961 104.28276824951172
v -41.40834045410156 -97.98684692382812 104.96687316894531
v -41.40834045410156 -97.36185455322266 103.13640594482422
v -36.41166687011719 -98.7418212890625 103.37680053710938
v -33.41366195678711 -99.4448013305664 103.15494537353516
v -36.41166687011719 -98.7418212890625 103.37680053710938
v -37.41100311279297 -98.40332794189453 103.14567565917969
v -39.409671783447266 -98.35133361816406 104.51388549804688
v -39.409671783447266 -98.35133361816406 104.5138931274414
v -35.412330627441406 -99.08030700683594 103.60792541503906
v -35.41233444213867 -99.39280700683594 104.52314758300781
v -35.412330627441406 -99.08030700683594 103.60792541503906
v -35.41233444213867 -99.39280700683594 104.52315521240234
v -37.41100311279297 -98.7158203125 104.0609130859375
v -36.41166687011719 -98.7418212890625 103.37680053710938
v -37.41100311279297 -98.7158203125 104.06089782714844
v -33.413665771484375 -100.06979370117188 104.98539733886719
v -35.41233444213867 -99.54905700683594 104.98076629638672
v -35.41233825683594 -100.00662994384766 105.06358337402344
v -33.413665771484375 -100.06979370117188 104.98539733886719
v -35.41234588623047 -100.9217758178711 105.22921752929688
v -35.41233444213867 -99.54905700683594 104.98076629638672
v -37.4110107421875 -99.94346618652344 105.14176940917969
v -40.40900802612305 -98.47599792480469 105.0105972290039
v -41.408321380615234 -99.817138671875 105.29812622070312
v -37.41100311279297 -99.0283203125 104.97613525390625
v -39.40967559814453 -98.96515655517578 105.0543212890625
v -38.41033172607422 -100.36946105957031 105.263671875
v -39.40966796875 -99.88030242919922 105.2199478149414
v -35.412330627441406 -99.54905700683594 101.31985473632812
v -33.41366195678711 -100.06979370117188 101.3244857788086
v -37.411006927490234 -99.94346618652344 101.17362213134766
v -39.409671783447266 -99.88029479980469 101.09819030761719
v -39.40966796875 -100.3378677368164 101.02738952636719
v -41.4083366394043 -99.81713104248047 101.02275848388672
v -40.40900802612305 -98.47599792480469 101.27286529541016
v -37.41100311279297 -99.0283203125 101.31521606445312
v -39.40967559814453 -98.96515655517578 101.23978424072266
v -35.41233825683594 -100.92176818847656 101.10746002197266
v -33.41366195678711 -100.06979370117188 101.3244857788086
v -35.41233444213867 -100.00662994384766 101.24905395507812
v -35.412330627441406 -99.54905700683594 101.31985473632812
v -36.41166687011719 -99.05431365966797 102.00395202636719
v -37.41100311279297 -99.0283203125 101.31521606445312
v -36.41166687011719 -99.05431365966797 104.29202270507812
v -37.41100311279297 -99.0283203125 104.97613525390625
v -36.41166687011719 -99.05431365966797 104.29203796386719
v -35.41233444213867 -99.39280700683594 104.52315521240234
v -38.410343170166016 -99.45431518554688 105.0980453491211
v -38.41033935546875 -99.45431518554688 101.20670318603516
v -37.41100311279297 -100.85860443115234 101.03202819824219
v -35.41233825683594 -101.37934112548828 101.03666687011719
v -33.413673400878906 -101.90007781982422 101.04129791259766
v -36.41167449951172 -100.4326171875 101.14054107666016
v -38.41033935546875 -98.68982696533203 101.54170227050781
v -40.40900421142578 -99.39114379882812 101.13127136230469
v -38.41033935546875 -98.37732696533203 102.45693969726562
v -40.40900421142578 -97.70034790039062 102.909912109375
v -39.409671783447266 -98.03883361816406 103.59866333007812
v -39.409671783447266 -97.8825912475586 103.14103698730469
v -39.409671783447266 -97.8825912475586 103.14103698730469
v -38.910003662109375 -98.36433410644531 104.17182922363281
v -39.409671783447266 -98.03883361816406 103.59864807128906
v -38.910003662109375 -98.36433410644531 104.17184448242188
v -39.409671783447266 -98.03883361816406 103.59866333007812
v -37.910667419433594 -98.39032745361328 103.48773193359375
v -37.910667419433594 -98.39032745361328 103.48772430419922
v -39.409671783447266 -98.50758361816406 104.97150421142578
v -38.41033935546875 -98.68982696533203 104.74501037597656
v -40.40900421142578 -97.70034790039062 103.36752319335938
v -40.40900421142578 -97.70034790039062 103.36753845214844
v -40.40900421142578 -97.70034790039062 103.36753845214844
v -38.41033935546875 -98.68982696533203 104.74501037597656
v -37.41100311279297 -99.0283203125 104.97613525390625
v -35.41233444213867 -99.54905700683594 104.98076629638672
v -33.413665771484375 -100.06979370117188 104.98539733886719
v -36.41166687011719 -99.28868865966797 104.97845458984375
v -36.41166687011719 -99.28868865966797 104.97845458984375
v -36.411678314208984 -100.4326171875 105.18549346923828
v -33.4136848449707 -101.90008544921875 105.31665802001953
v -35.912010192871094 -101.13477325439453 105.2901611328125
v -40.40899658203125 -99.39114379882812 105.17622375488281
v -36.41166687011719 -99.28868865966797 101.31753540039062
v -36.41166687011719 -99.28868865966797 101.31753540039062
v -38.410335540771484 -100.59823608398438 101.02970886230469
v -33.4136848449707 -102.73341369628906 105.31665802001953
v -33.413673400878906 -104.70315551757812 104.98536682128906
v -37.41100311279297 -103.66168212890625 104.97610473632812
v -37.41100311279297 -102.67680358886719 101.19767761230469
v -37.41100311279297 -101.69194030761719 101.03202819824219
v -39.40966796875 -102.15607452392578 101.19304656982422
v -39.40966796875 -101.17120361328125 101.02738952636719
v -40.40900421142578 -100.91083526611328 101.02507019042969
v -40.40900421142578 -101.89570617675781 101.19072723388672
v -38.410335540771484 -101.43157196044922 101.02970886230469
v -39.40966796875 -102.64850616455078 101.27587127685547
v -41.4083366394043 -100.65046691894531 101.02275848388672
v -41.4083366394043 -102.62020874023438 101.35406494140625
v -39.40966796875 -103.14094543457031 101.35869598388672
v -37.41100311279297 -103.66168212890625 101.36332702636719
v -37.411006927490234 -102.67681121826172 105.1417465209961
v -41.408329010009766 -102.62020874023438 104.96683502197266
v -41.408321380615234 -100.65047454833984 105.29813385009766
v -39.40966033935547 -101.17120361328125 105.30276489257812
v -33.413673400878906 -102.73340606689453 101.04129791259766
v -37.41100311279297 -101.69194030761719 105.3073959350586
v -39.40966796875 -102.15607452392578 105.13711547851562
v -36.41167068481445 -101.95230865478516 101.03434753417969
v -35.41233825683594 -102.21267700195312 101.03666687011719
v -33.41366958618164 -104.70315551757812 101.37259674072266
vn 0.2521248459815979 0.9676947593688965 -5.422037929747603e-7
vn 0.2521248459815979 0.9676947593688965 -5.422037929747603e-7
vn 0.2521248757839203 0.9676948189735413 -5.422038498181792e-7
vn 0.25212496519088745 0.9676947593688965 -2.711019249090896e-7
vn 0.2521248459815979 0.9676946997642517 -5.422037929747603e-7
vn 0.2521248757839203 0.9676948189735413 -5.422038498181792e-7
vn 0.2521248459815979 0.9676946997642517 -5.422037929747603e-7
vn 0.2521248459815979 0.9676947593688965 -5.422037929747603e-7
vn 0.2521248459815979 0.9676947593688965 -5.422037929747603e-7
vn 0.2521250545978546 0.9676946401596069 0
vn 0.2521248459815979 0.9676947593688965 -5.422037929747603e-7
vn 0.2521248459815979 0.9676946997642517 -5.422037929747603e-7
vn 0.25212499499320984 0.9676947593688965 -2.711019249090896e-7
vn 0.2521249055862427 0.9676947593688965 -4.0665287315277965e-7
vn 0.0023191836662590504 7.978497862382028e-9 -0.9999973177909851
vn 0.002319177147001028 -9.574225856567864e-9 -0.9999973177909851
vn 0.002319189952686429 2.553122158133192e-8 -0.9999973177909851
vn 0.002319189952686429 2.553122158133192e-8 -0.9999973177909851
vn -0.0023183319717645645 -4.2588479409744195e-9 0.9999973177909851
vn -0.0023183270823210478 8.517624827675263e-9 0.9999973177909851
vn -0.0023183319717645645 -4.2588479409744195e-9 0.9999973177909851
vn -0.0023183368612080812 -1.7035320709624102e-8 0.9999973177909851
vn 0.002319189952686429 2.553122158133192e-8 -0.9999973177909851
vn 0.002319189952686429 2.553122158133192e-8 -0.9999973177909851
vn 0.002319189952686429 2.553122158133192e-8 -0.9999973177909851
vn -0.0023183368612080812 -1.7035320709624102e-8 0.9999973177909851
vn -0.0023183368612080812 -1.7035320709624102e-8 0.9999973177909851
vn -0.0023183368612080812 -1.7035320709624102e-8 0.9999973177909851
vn -0.0023183368612080812 -1.7035320709624102e-8 0.9999973177909851
vn -0.0023183368612080812 -1.7035320709624102e-8 0.9999973177909851
vn -0.0023183368612080812 -1.7035320709624102e-8 0.9999973177909851
vn -0.0023183368612080812 -1.7035320709624102e-8 0.9999973177909851
vn 0.2521251142024994 0.9676947593688965 -0.000011228191397094633
vn 0.25212472677230835 0.9676947593688965 -0.000022456380975199863
vn 0.25212547183036804 0.9676945805549622 0
vn 0.25212547183036804 0.9676945805549622 0
vn 0.002319189952686429 2.553122158133192e-8 -0.9999973177909851
vn 0.25212517380714417 0.9676946401596069 0
vn 0.25212517380714417 0.9676946401596069 0
vn 0.25212517380714417 0.9676946401596069 0
vn 0.0023191836662590504 7.978497862382028e-9 -0.9999973177909851
vn 0.25212517380714417 0.9676946401596069 0
vn 0.25212517380714417 0.9676946401596069 0
vn 0.25212517380714417 0.9676946401596069 0
vn 0.002319189952686429 2.553122158133192e-8 -0.9999973177909851
vn 0.25212517380714417 0.9676946401596069 0
vn 0.25212547183036804 0.9676945805549622 0
vn 0.25212547183036804 0.9676945805549622 0
vn 0.20595236122608185 0.785407543182373 -0.5837110280990601
vn 0.20595236122608185 0.785407543182373 -0.5837110280990601
vn 0.20595239102840424 0.7854076623916626 -0.5837110877037048
vn -0.20595362782478333 -0.7854177355766296 0.5836970806121826
vn -0.20595359802246094 -0.7854176163673401 0.5836970210075378
vn -0.20595359802246094 -0.7854176163673401 0.5836970210075378
vn -0.20591947436332703 -0.7852525115013123 0.5839313864707947
vn -0.2059023678302765 -0.7851698398590088 0.5840485095977783
vn -0.20595359802246094 -0.7854176163673401 0.5836970210075378
vn -0.20588527619838715 -0.7850871682167053 0.5841655731201172
vn -0.20593653619289398 -0.7853350639343262 0.5838142037391663
vn -0.2058682143688202 -0.7850046157836914 0.5842826962471008
vn -0.20585110783576965 -0.7849218845367432 0.5843997597694397
vn 0.2033625692129135 0.785861611366272 0.5840078592300415
vn 0.20332708954811096 0.7856953144073486 0.584243893623352
vn 0.2033625692129135 0.785861611366272 0.5840078592300415
vn 0.2032916098833084 0.7855289578437805 0.5844799876213074
vn -0.203360915184021 -0.785848081111908 -0.5840266346931458
vn -0.2033269703388214 -0.7856888771057129 -0.5842527747154236
vn -0.203360915184021 -0.785848081111908 -0.5840266346931458
vn -0.20329295098781586 -0.7855294942855835 -0.5844788551330566
vn 0.20595236122608185 0.785407543182373 -0.5837110280990601
vn 0.2058156430721283 0.7847464084625244 -0.5846477746963501
vn 0.419121652841568 0.01966821774840355 0.9077170491218567
vn 0.3810858130455017 -0.2995803654193878 0.8746572136878967
vn -0.3624616265296936 -0.30204087495803833 0.8816988468170166
vn -0.48036208748817444 0.02542821690440178 0.8767015933990479
vn -0.5220452547073364 0.07218676060438156 0.8498575091362
vn 0.3335952162742615 0.7426843643188477 0.5806325674057007
vn 0.32624807953834534 -0.6174169778823853 -0.715792179107666
vn -0.34562793374061584 -0.6128798127174377 -0.7105769515037537
vn -0.40475133061408997 -0.9144192934036255 -0.003703642636537552
vn 0.3819667100906372 -0.9241694211959839 -0.00351431081071496
vn 0.3460786044597626 -0.30349430441856384 -0.8877617120742798
vn -0.369223952293396 -0.3007766604423523 -0.8793219327926636
vn 0.3847402334213257 0.02011052332818508 -0.9228057861328125
vn -0.48122531175613403 0.025444256141781807 -0.8762275576591492
vn 0.3122243881225586 0.7453827857971191 -0.5889995098114014
vn -0.5193105936050415 0.07189804315567017 -0.8515557646751404
vn -0.203360915184021 -0.785848081111908 -0.5840266346931458
vn 0.2033625841140747 0.7858616709709167 0.5840078592300415
vn 0.2033625990152359 0.7858617305755615 0.5840079188346863
vn 0.20027483999729156 0.9797397255897522 0.00003090346945100464
vn 0.2000611573457718 0.9797834157943726 -4.475132016068528e-7
vn 0.20027483999729156 0.9797397255897522 0.00003090346945100464
vn 0.20027483999729156 0.9797397255897522 0.00003090346945100464
vn 0.20327386260032654 0.7854458093643188 0.5845980048179626
vn 0.20325607061386108 0.7853624820709229 0.5847159624099731
vn -0.3462991416454315 -0.6118195056915283 0.7111636996269226
vn 0.36052989959716797 -0.608309268951416 0.707091212272644
vn -0.20322491228580475 -0.7852105498313904 -0.5849308371543884
vn -0.2058168649673462 -0.7847564220428467 0.5846338272094727
vn -0.0023179573472589254 0 0.9999973177909851
vn -0.0023179573472589254 0 0.9999973177909851
vn -0.0023179573472589254 0 0.9999973177909851
vn -0.0023179573472589254 0 0.9999973177909851
vn -0.203360915184021 -0.785848081111908 -0.5840266346931458
vn 0.0023179654963314533 0 -0.9999973177909851
vn 0.002317967591807246 1.0610687439793764e-8 -0.9999973177909851
vn 0.0023179668933153152 7.073791330469703e-9 -0.9999973177909851
vn 0.002317968290299177 1.4147582660939406e-8 -0.9999973177909851
vn 0.0023179654963314533 0 -0.9999973177909851
vn 0.0023179654963314533 0 -0.9999973177909851
vn 0.0023179654963314533 0 -0.9999973177909851
vn 0.20595237612724304 0.7854076027870178 -0.5837110280990601
vn 0.0023179654963314533 0 -0.9999973177909851
vn 0.0023179654963314533 0 -0.9999973177909851
vn -0.20595361292362213 -0.7854176759719849 0.5836970806121826
vn -0.0023179573472589254 0 0.9999973177909851
vn -0.0023179573472589254 0 0.9999973177909851
vn -0.0023179573472589254 0 0.9999973177909851
vn -0.0023179573472589254 0 0.9999973177909851
vn -0.0023179573472589254 0 0.9999973177909851
vn 0.2033625692129135 0.785861611366272 0.5840078592300415
vn -0.203360915184021 -0.785848081111908 -0.5840266346931458
vn -0.20025843381881714 0.9797431230545044 0.00001545511622680351
vn -0.20015311241149902 0.9797646403312683 0
vn -0.20025843381881714 0.9797431230545044 0.00001545511622680351
vn 0.20322054624557495 0.7851959466934204 0.5849518775939941
vn -0.20025843381881714 0.9797431230545044 0.00001545511622680351
vn 0.7516115307807922 0.07240802049636841 0.6556196808815002
vn 0.7531188130378723 0.010001716203987598 0.6578085422515869
vn 0.7451227307319641 0.04363767057657242 0.6654982566833496
vn -0.34562793374061584 -0.6128798127174377 -0.7105769515037537
vn -0.369223952293396 -0.3007766604423523 -0.8793219327926636
vn -0.6604559421539307 -0.25545555353164673 -0.7060739398002625
vn -0.40475133061408997 -0.9144192934036255 -0.003703642636537552
vn -0.6317576169967651 -0.5074284076690674 -0.5860023498535156
vn -0.6885860562324524 -0.7251352071762085 -0.0053048632107675076
vn -0.639846682548523 -0.5130966901779175 0.5721258521080017
vn -0.3462991416454315 -0.6118195056915283 0.7111636996269226
vn -0.6888505220413208 -0.24328698217868805 0.682858943939209
vn -0.3624616265296936 -0.30204087495803833 0.8816988468170166
vn -0.7531132698059082 0.010001194663345814 0.6578148603439331
vn -0.48036208748817444 0.02542821690440178 0.8767015933990479
vn -0.5193105936050415 0.07189804315567017 -0.8515557646751404
vn -0.7348498106002808 0.07378680258989334 -0.6742041707038879
vn -0.48122531175613403 0.025444256141781807 -0.8762275576591492
vn -0.7609570026397705 -0.000008387357411265839 -0.6488023400306702
vn -0.5220452547073364 0.07218676060438156 0.8498575091362
vn -0.7516089677810669 0.07240781933069229 0.655622661113739
vn -0.7750722765922546 -0.000005681270977220265 0.6318725347518921
vn 0.6664560437202454 -0.2494146227836609 -0.7025871276855469
vn 0.6601446866989136 -0.2554941773414612 -0.7063509821891785
vn 0.7345181107521057 0.009938576258718967 -0.6785163283348083
vn 0.7264838218688965 0.04425988718867302 -0.6857567429542542
vn 0.7346539497375488 0.07374618947505951 -0.674422025680542
vn 0.7340987920761108 0.04196640104055405 0.6777446269989014
vn -0.7348029017448425 0.009982392191886902 -0.6782072186470032
vn 0.7750696539878845 -0.0000028476363240770297 0.6318758130073547
vn 0.6317774653434753 -0.5074139833450317 -0.5859934091567993
vn 0.6317774653434753 -0.5074139833450317 -0.5859934091567993
vn 0.7072668671607971 -0.7069168090820312 -0.00649817381054163
vn 0.7163853049278259 0.04295426607131958 -0.6963813900947571
vn 0.6888533234596252 -0.24328835308551788 0.6828556656837463
vn 0.6888533234596252 -0.24328835308551788 0.6828556656837463
vn 0.6398485898971558 -0.5130969882011414 0.5721234679222107
vn 0.6599860787391663 -0.49020910263061523 0.5693095922470093
vn 0.688582718372345 -0.7251383662223816 -0.0053038522601127625
vn 0.7606244087219238 -0.0000027826984023704426 -0.649192214012146
vn 0.0018213801085948944 0.9999983310699463 0.00001577463626745157
vn 0.0018213801085948944 0.9999983310699463 0.00001577463626745157
vn 0.3122243881225586 0.7453827857971191 -0.5889995098114014
vn 0.3335952162742615 0.7426843643188477 0.5806325674057007
vn -0.20860391855239868 0.6086857914924622 -0.7654972076416016
vn 0.19922997057437897 0.9799527525901794 0.00003090495374635793
vn 0.19922997057437897 0.9799527525901794 0.00003090495374635793
vn -0.22592319548130035 0.6289581060409546 0.7438887357711792
vn 0.9999991655349731 0.0006465559126809239 0.0011221516178920865
vn 0.9999989867210388 0 0.00141423218883574
vn 1 0.000005997706921334611 -0.00005612928725895472
vn 1 0.000005997706921334611 -0.00005612928725895472
vn 1 0 0
vn 0.9999951720237732 -0.0005452887853607535 -0.003064056159928441
vn 0.9999998807907104 -0.0002952704671770334 0.00034061295446008444
vn 0.9999991059303284 0.000651933834888041 -0.0011478078085929155
vn 0.9999991059303284 0.000651933834888041 -0.0011478078085929155
vn 0.9999991059303284 0.000651933834888041 -0.0011478078085929155
vn 0.9999998807907104 -0.0003102583286818117 -0.00034503338974900544
vn 1 0 0
vn 1 0 0
vn 0.9999998807907104 -0.0002952704671770334 0.00034061295446008444
vn 1 0.000005997706921334611 -0.00005612928725895472
vn 1 0.000009882383892545477 -2.2917798214727725e-10
vn 0.9999989867210388 0 -0.0014435399789363146
vn 0.9999985694885254 0.0002693199785426259 -0.0016583898104727268
vn 1 0.0000065680151237756945 0
vn 1 0.0000065680151237756945 0
vn -1 0.0000032840075618878473 0
vn -0.9999985694885254 0.00026931922184303403 -0.0016583851538598537
vn -1 0.0000032840075618878473 0
vn -0.9999951720237732 -0.0005436561186797917 -0.0030652713030576706
vn -1 0.000003194956889274181 -7.615666390847764e-7
vn -0.9999998807907104 -0.0002934367803391069 0.00034213459002785385
vn -1 0.000002660130803633365 -0.0000567569732083939
vn -0.9999989867210388 -0.000006103435225668363 0.0014093646313995123
vn -1 0.000002660130803633365 -0.0000567569732083939
vn -0.9999991655349731 0.0006406097672879696 0.0011172174708917737
vn -0.9999998807907104 -0.0003068310033995658 -0.0003447164490353316
vn -0.9999950528144836 -0.0004764373297803104 0.0031151932198554277
vn -0.9999991059303284 0.000654397124890238 -0.0011466804426163435
vn -0.9999958872795105 0.0011148889316245914 0.0026401206851005554
vn -0.9999989867210388 0 -0.0014435399789363146
vn -0.9999991059303284 0.000654397124890238 -0.0011466804426163435
vn -1 0.000006588266842300072 0
vn -1 0.000002660130803633365 -0.0000567569732083939
vn -0.9999998807907104 -0.0002934367803391069 0.00034213459002785385
vn -1 0.000001892303430395259 -0.0000013901479860578547
vn -1 0.0000031881681934464723 -0.0000010885710253205616
vn -0.9999991059303284 0.000654397124890238 -0.0011466804426163435
vn 0.9999958872795105 0.0011148951016366482 0.0026401164941489697
vn 0.9999950528144836 -0.00047975758207030594 0.003112704725936055
vn -0.4970030188560486 -0.8677487969398499 7.47536034850782e-7
vn -0.17767727375030518 -0.9840888381004333 -0.000003943228875868954
vn -0.3410656154155731 -0.8416876196861267 -0.4186122715473175
vn -0.11683579534292221 -0.6470931172370911 -0.7534055113792419
vn -0.0011039339005947113 -0.007278609089553356 -0.9999728798866272
vn -0.31586340069770813 -0.008929194882512093 -0.9487626552581787
vn -0.3389963209629059 -0.29539358615875244 -0.8932099938392639
vn -0.39943888783454895 -0.5950009822845459 -0.6974399089813232
vn -0.05656246095895767 -0.3144419193267822 -0.9475901126861572
vn 0.020772067829966545 0.115048848092556 -0.9931426048278809
vn -0.20860391855239868 0.6086857914924622 -0.7654972076416016
vn -0.3156730532646179 -0.0006301235407590866 0.9488677978515625
vn -0.0000354343319486361 -0.007556317839771509 0.9999714493751526
vn -0.05682573840022087 -0.3147602677345276 0.947468638420105
vn -0.33944177627563477 -0.297934889793396 0.8921962380409241
vn -0.11681075394153595 -0.6469859480857849 0.7535014152526855
vn -0.3994283080101013 -0.5949447751045227 0.6974939107894897
vn -0.22592319548130035 0.6289581060409546 0.7438887357711792
vn 0.02347891964018345 0.11546126008033752 0.9930344820022583
vn -0.2521247863769531 -0.9676947593688965 -0.000057532328355591744
vn -0.16512010991573334 -0.6269822120666504 0.7613334655761719
vn -0.21725915372371674 -0.8292932510375977 0.5148505568504333
vn -0.24671590328216553 -0.9450244903564453 0.21461623907089233
vn -0.202175110578537 -0.7706016302108765 0.6043991446495056
vn -0.2508868873119354 -0.9619829058647156 0.10791003704071045
vn -0.25212475657463074 -0.9676947593688965 -0.000057634337281342596
vn -0.25212472677230835 -0.9676947593688965 -0.000057736349845072255
vn -0.2021750807762146 -0.7706016302108765 0.6043991446495056
vn -0.24671587347984314 -0.9450244903564453 0.21461613476276398
vn -0.22980311512947083 -0.8782894611358643 0.41928285360336304
vn -0.21604414284229279 -0.8337322473526001 -0.5081489682197571
vn -0.16422800719738007 -0.6370335817337036 -0.7531383037567139
vn -0.2387099266052246 -0.9189980030059814 -0.31378382444381714
vn -0.2387099415063858 -0.9189979434013367 -0.3137839436531067
vn -0.23870988190174103 -0.9189980626106262 -0.31378352642059326
vn -0.2504611909389496 -0.9622564315795898 -0.10645098239183426
vn -0.2387099415063858 -0.9189979434013367 -0.3137839436531067
vn -0.2387099266052246 -0.9189980030059814 -0.31378382444381714
vn -0.23870991170406342 -0.9189980030059814 -0.31378373503685
vn -0.2009880393743515 -0.7767343521118164 -0.5968981981277466
vn -0.2387099415063858 -0.9189979434013367 -0.3137839436531067
vn -0.24595443904399872 -0.9458946585655212 -0.21163590252399445
vn -0.20098796486854553 -0.7767342925071716 -0.5968984365463257
vn -0.2387099415063858 -0.9189979434013367 -0.3137839436531067
vn -0.2387099415063858 -0.9189979434013367 -0.3137839436531067
vn -0.2387099415063858 -0.9189979434013367 -0.3137839436531067
vn -0.2504611909389496 -0.9622564315795898 -0.10645098239183426
vn -0.2286476343870163 -0.8812656998634338 -0.41363146901130676
vn -0.16422779858112335 -0.6370332837104797 -0.7531386613845825
vn -0.16422785818576813 -0.6370334029197693 -0.7531386613845825
vn -0.13732075691223145 -0.5344786643981934 -0.8339518308639526
vn -0.16422779858112335 -0.6370332837104797 -0.7531386613845825
vn -0.07670664042234421 -0.3028639554977417 -0.9499418139457703
vn -0.16422785818576813 -0.6370334029197693 -0.7531386613845825
vn -0.10797321796417236 -0.4224250912666321 -0.8999437093734741
vn -0.15111051499843597 -0.5870618224143982 -0.7953137755393982
vn -0.04407680779695511 -0.17792020738124847 -0.9830572605133057
vn -0.1642279028892517 -0.6370334625244141 -0.7531384825706482
vn -0.137320876121521 -0.5344788432121277 -0.8339516520500183
vn -0.06052633747458458 -0.24092791974544525 -0.9686538577079773
vn -0.07670664042234421 -0.3028639554977417 -0.9499418139457703
vn -0.16512005031108856 -0.6269822120666504 0.7613334655761719
vn -0.16512003540992737 -0.6269821524620056 0.7613335251808167
vn -0.10759510844945908 -0.40488702058792114 0.908014178276062
vn -0.075546994805336 -0.28144899010658264 0.9565977454185486
vn -0.04209186136722565 -0.15276917815208435 0.9873651266098022
vn -0.04209186136722565 -0.15276917815208435 0.9873651266098022
vn -0.1517333835363388 -0.575223982334137 0.8037999868392944
vn -0.16512006521224976 -0.6269822120666504 0.7613334655761719
vn -0.13763932883739471 -0.5207842588424683 0.8425195813179016
vn -0.075546994805336 -0.28144899010658264 0.9565977454185486
vn -0.16512003540992737 -0.6269821524620056 0.7613335251808167
vn -0.13763928413391113 -0.5207841992378235 0.8425195217132568
vn -0.16512005031108856 -0.6269822120666504 0.7613334655761719
vn -0.21725910902023315 -0.8292933106422424 0.5148506164550781
vn -0.16512006521224976 -0.6269822120666504 0.7613334655761719
vn -0.21604403853416443 -0.8337321877479553 -0.5081491470336914
vn -0.1642279028892517 -0.6370334625244141 -0.7531384825706482
vn -0.2387099415063858 -0.9189979434013367 -0.3137839436531067
vn -0.2387099415063858 -0.9189979434013367 -0.3137839436531067
vn -0.12292042374610901 -0.47951841354370117 -0.868880033493042
vn -0.12290366739034653 -0.4639168977737427 0.877311646938324
vn -0.04209186136722565 -0.15276917815208435 0.9873651266098022
vn -0.04209186136722565 -0.15276917815208435 0.9873651266098022
vn -0.04209186136722565 -0.15276917815208435 0.9873651266098022
vn -0.09178498387336731 -0.34396976232528687 0.93448406457901
vn -0.18472743034362793 -0.7029008269309998 0.6868816018104553
vn -0.09178496897220612 -0.3439697027206421 0.9344839453697205
vn -0.23966044187545776 -0.91701740026474 0.31881317496299744
vn -0.2508869171142578 -0.9619829058647156 0.1079101413488388
vn -0.23870991170406342 -0.9189980030059814 -0.31378373503685
vn -0.2387099266052246 -0.918998122215271 -0.3137836754322052
vn -0.2521247863769531 -0.9676947593688965 -0.00005758333281846717
vn -0.2226620465517044 -0.8587182760238647 -0.46154558658599854
vn -0.2459544688463211 -0.9458946585655212 -0.2116357982158661
vn -0.2387099266052246 -0.9189980030059814 -0.3137838840484619
vn -0.23870991170406342 -0.9189980030059814 -0.31378373503685
vn -0.2387099266052246 -0.9189980030059814 -0.31378376483917236
vn -0.24856077134609222 -0.9554321765899658 -0.1592695415019989
vn -0.16422796249389648 -0.6370335221290588 -0.7531384229660034
vn -0.18365035951137543 -0.7109190225601196 -0.6788715720176697
vn -0.250461220741272 -0.9622564315795898 -0.1064508706331253
vn -0.2387099266052246 -0.918998122215271 -0.3137836754322052
vn -0.2387099266052246 -0.918998122215271 -0.3137836754322052
vn -0.2387099415063858 -0.9189979434013367 -0.3137839436531067
vn -0.2387099415063858 -0.9189979434013367 -0.3137839436531067
vn -0.2387099415063858 -0.9189979434013367 -0.3137839436531067
vn -0.2387099415063858 -0.9189979434013367 -0.3137839436531067
vn -0.16422787308692932 -0.6370334625244141 -0.753138542175293
vn -0.16422787308692932 -0.6370334625244141 -0.753138542175293
vn -0.0925457701086998 -0.36345288157463074 -0.9270045161247253
vn -0.04407680779695511 -0.17792020738124847 -0.9830572605133057
vn -0.05233067646622658 -0.20954060554504395 -0.9763986468315125
vn -0.09254574775695801 -0.36345285177230835 -0.9270044565200806
vn -0.16512006521224976 -0.6269822120666504 0.7613334655761719
vn -0.16512006521224976 -0.6269822120666504 0.7613334655761719
vn -0.04209186136722565 -0.15276917815208435 0.9873651266098022
vn 0.04545314237475395 0.16569001972675323 -0.9851298332214355
vn 0.04545314237475395 0.16569001972675323 -0.9851298332214355
vn 0.04545314237475395 0.16569001972675323 -0.9851298332214355
vn 0.04089493304491043 0.16572850942611694 0.9853231310844421
vn 0.04089494049549103 0.16572876274585724 0.9853231906890869
vn 0.04089493677020073 0.1657286286354065 0.9853231906890869
vn 0.04089494049549103 0.1657288819551468 0.9853231310844421
vn 0.04089494049549103 0.16572894155979156 0.9853230714797974
vn 0.04089493677020073 0.16572868824005127 0.9853231310844421
vn 0.04089493677020073 0.16572880744934082 0.9853230714797974
vn 0.04089493304491043 0.16572850942611694 0.9853231310844421
vn 0.04089494049549103 0.16572900116443634 0.9853230714797974
vn 0.04089493304491043 0.16572850942611694 0.9853231310844421
vn 0.04089493304491043 0.16572850942611694 0.9853231310844421
vn 0.04089493304491043 0.16572850942611694 0.9853231310844421
vn 0.04545314237475395 0.16569001972675323 -0.9851298332214355
vn 0.04545314237475395 0.16569001972675323 -0.9851298332214355
vn 0.04545316472649574 0.16569341719150543 -0.9851292967796326
vn 0.045453161001205444 0.16569256782531738 -0.9851294755935669
vn 0.04089493304491043 0.16572850942611694 0.9853231310844421
vn 0.04545315355062485 0.16569171845912933 -0.9851295948028564
vn 0.04545314610004425 0.16569086909294128 -0.985129714012146
vn 0.04089494049549103 0.16572868824005127 0.9853231906890869
vn 0.04089493677020073 0.1657286286354065 0.9853231906890869
vn 0.04089493304491043 0.16572850942611694 0.9853231310844421
vt 0.4451821446418762 11.749703407287598
vt 0.6088478565216064 11.685906410217285
vt 0.7725132703781128 11.877933502197266
vt 0.4451821446418762 12.005620956420898
vt 0.11785103380680084 11.62147331237793
vt 0.7725135087966919 11.622108459472656
vt 1.4271759986877441 11.6227445602417
vt 1.0180119276046753 11.654325485229492
vt 1.0998444557189941 12.006162643432617
vt 0.11785103380680084 12.133309364318848
vt 1.0998446941375732 11.75033950805664
vt 1.427175521850586 12.134392738342285
vt 0.7725132703781128 12.133851051330566
vt 0.9361788034439087 12.07000732421875
vt -0.16643811762332916 1.25
vt -0.19021499156951904 2
vt -0.09510749578475952 1
vt -0.14266124367713928 0.5
vt -0.16643811762332916 1.25
vt -0.19021499156951904 2
vt -0.19021499156951904 1
vt -0.14266124367713928 0.5
vt 0 2
vt 0 1
vt -0.04755374789237976 1.5
vt 0 2
vt -0.04755374789237976 1.5
vt -0.09510749578475952 1
vt -0.02377687394618988 0.75
vt 0 0
vt 0 1
vt -0.19021499156951904 0
vt 0 1
vt 0 2
vt 0.057545896619558334 2
vt 0 0
vt 0 0
vt 0 0
vt 0.057545896619558334 0
vt 0.057545896619558334 1
vt -0.19021499156951904 1
vt 0.057545896619558334 2
vt 0 2
vt 0 1
vt -0.19021499156951904 0
vt 0.057545896619558334 1.5
vt 0.057545896619558334 1
vt 0.057545896619558334 0
vt -0.33059385418891907 1.2962572574615479
vt -0.2751733362674713 1.2961515188217163
vt -0.2751096785068512 0.796703964471817
vt -0.05342772603034973 0.796703964471817
vt -0.053364016115665436 0.2972564101219177
vt 0.0020565262529999018 0.29736220836639404
vt 0.002024671994149685 0.5470860004425049
vt 0.0020087449811398983 0.6719478964805603
vt -0.05349143594503403 1.2961515188217163
vt 0.001992817735299468 0.7968097925186157
vt 0.0020405990071594715 0.42222410440444946
vt 0.0019768904894590378 0.9216716885566711
vt 0.001960963476449251 1.0465335845947266
vt -0.33059385418891907 1.2962572574615479
vt -0.3305619955062866 1.0465334951877594
vt -0.2750460207462311 0.2972564101219177
vt -0.33053016662597656 0.796809732913971
vt -0.05349143594503403 1.2961515188217163
vt 0.002024671994149685 0.5470860004425049
vt 0.0020565262529999018 0.29736220836639404
vt 0.001992817735299468 0.7968097925186157
vt -0.2750460207462311 0.2972564101219177
vt -0.33046650886535645 0.29736220836639404
vt 1.9513275623321533 0.9057067036628723
vt 1.9513239860534668 0.5684322714805603
vt 1.7026604413986206 0.5694020390510559
vt 1.7026640176773071 0.9066764712333679
vt 1.7026499509811401 1.4406291246414185
vt 1.9513134956359863 1.4396594762802124
vt 1.9513237476348877 0.38704025745391846
vt 1.7026604413986206 0.38801002502441406
vt 1.7026479244232178 0.13896042108535767
vt 1.9513113498687744 0.13799065351486206
vt 1.9513239860534668 0.5684322714805603
vt 1.7026604413986206 0.5694020390510559
vt 1.9513275623321533 0.9057067036628723
vt 1.7026640176773071 0.9066764712333679
vt 1.9513134956359863 1.4396594762802124
vt 1.7026499509811401 1.4406291246414185
vt -0.05345958098769188 1.0464277416467667
vt -0.27507784962654114 0.5469802021980286
vt -0.2751096785068512 0.796703964471817
vt -0.32226860523223877 0.7070806622505188
vt -0.027326639741659164 0.5574594736099243
vt -0.03547453507781029 1.503393530845642
vt -0.32805436849594116 1.3444205522537231
vt -0.33051425218582153 0.6719478368759155
vt -0.3304983377456665 0.5470859706401825
vt 1.7026604413986206 0.38801002502441406
vt 1.9513237476348877 0.38704025745391846
vt 0.0019291092175990343 1.2962573766708374
vt 0.0019291092175990343 1.2962573766708374
vt -0.27507784962654114 0.5469802021980286
vt -0.2750460207462311 0.2972564101219177
vt -0.053364016115665436 0.2972564101219177
vt -0.2751096785068512 0.796703964471817
vt -0.05342772603034973 0.796703964471817
vt -0.2751733362674713 1.2961515188217163
vt -0.05345958098769188 1.0464277416467667
vt -0.05342772603034973 0.796703964471817
vt -0.05349143594503403 1.2961515188217163
vt -0.16426867246627808 0.796703964471817
vt -0.053364016115665436 0.2972564101219177
vt -0.2751096785068512 0.796703964471817
vt -0.27507784962654114 0.5469802021980286
vt -0.27507784962654114 0.5469802021980286
vt -0.2750460207462311 0.2972564101219177
vt -0.05345958098769188 1.0464277416467667
vt -0.05345958098769188 1.0464277416467667
vt -0.05349143594503403 1.2961515188217163
vt -0.2751733362674713 1.2961515188217163
vt -0.05342772603034973 0.796703964471817
vt -0.16426867246627808 0.796703964471817
vt -0.2751733362674713 1.2961515188217163
vt -0.053364016115665436 0.2972564101219177
vt -0.03547453507781029 1.503393530845642
vt -0.027326639741659164 0.5574594736099243
vt -0.32226860523223877 0.7070806622505188
vt -0.33046650886535645 0.29736220836639404
vt -0.32805436849594116 1.3444205522537231
vt 0.5002730488777161 0.034652113914489746
vt 0.5002730488777161 0.33117830753326416
vt 0.2920289933681488 0.33117830753326416
vt 0.2920289933681488 0.8090291023254395
vt 0.2920289933681488 0.549548864364624
vt 0.5002730488777161 0.549548864364624
vt 0.2920289933681488 0.9935119152069092
vt 0.5002730488777161 0.8090291023254395
vt 0.4725477695465088 0.9935119152069092
vt 0.5002730488777161 0.8090291023254395
vt 0.2920289933681488 0.8090291023254395
vt 0.5002730488777161 0.549548864364624
vt 0.2920289933681488 0.549548864364624
vt 0.5002730488777161 0.33117830753326416
vt 0.2920289933681488 0.33117830753326416
vt 0.2920289933681488 0.0014636516571044922
vt 0.5002730488777161 0.03308570384979248
vt 0.2920289933681488 0.33117830753326416
vt 0.5002730488777161 0.0014636516571044922
vt 0.2920289933681488 0.0014636516571044922
vt 0.5002730488777161 0.034652113914489746
vt 0.5002730488777161 0.0014636516571044922
vt 0.2920289933681488 0.549548864364624
vt 0.5002730488777161 0.549548864364624
vt 0.5002730488777161 0.33117830753326416
vt 0.2920289933681488 0.33117830753326416
vt 0.5002730488777161 0.03308570384979248
vt 0.2920289933681488 0.0014636516571044922
vt 0.5002730488777161 0.33117830753326416
vt 0.5002730488777161 0.0014636516571044922
vt 0.2920289933681488 0.8090291023254395
vt 0.5002730488777161 0.8090291023254395
vt 0.2920289933681488 0.9935119152069092
vt 0.2920289933681488 0.0014636516571044922
vt 0.2920289933681488 0.549548864364624
vt 0.5002730488777161 0.549548864364624
vt 0.5002730488777161 0.8090291023254395
vt 0.2920289933681488 0.8090291023254395
vt 0.4725477695465088 0.9935119152069092
vt 0.5002730488777161 0.0014636516571044922
vt 0 -0.007663726806640625
vt 0.4959178864955902 -0.05256938934326172
vt 0.4959178864955902 0.6729128956794739
vt 0 0.6851615309715271
vt 0.4964033365249634 -0.04702413082122803
vt 0.49640506505966187 1.293330430984497
vt 0.00013297796249389648 1.2933297157287598
vt 0.00013515353202819824 -0.018764972686767578
vt 0.14189712703227997 0.6751962304115295
vt 0.026532305404543877 0.540666401386261
vt 0.049405939877033234 0.13062256574630737
vt -0.018753092736005783 0.4879000782966614
vt 0.026088668033480644 1.499889612197876
vt -0.018752895295619965 0.8045076131820679
vt 0.0265331007540226 0.7517392635345459
vt 0.7144036889076233 1.089915156364441
vt 0.8583648204803467 0.6752288937568665
vt 0.9732402563095093 0.7517425417900085
vt 0.9853495955467224 1.499890685081482
vt 0.5003989934921265 1.336104393005371
vt 0.49937617778778076 1.7373422384262085
vt 0.2864152789115906 1.0894438028335571
vt -0.026027396321296692 -0.26045918464660645
vt 0.05911025032401085 -0.26045989990234375
vt 0.9732404351234436 0.5406707525253296
vt 0.9513862133026123 0.13182836771011353
vt 0.9406619071960449 -0.26045918464660645
vt 1.0257995128631592 -0.26045823097229004
vt 0.9406619071960449 -0.26045918464660645
vt 0.9513862133026123 0.13182836771011353
vt 1.0257995128631592 -0.26045823097229004
vt -0.018752895295619965 0.8045076131820679
vt 0.026088668033480644 1.499889612197876
vt 0.0265331007540226 0.7517392635345459
vt -0.018753092736005783 0.4879000782966614
vt 0.026532305404543877 0.540666401386261
vt 0.049405939877033234 0.13062256574630737
vt 0.14189712703227997 0.6751962304115295
vt 0.9853495955467224 1.499890685081482
vt 1.0185272693634033 0.8045095801353455
vt 0.9732402563095093 0.7517425417900085
vt 1.0185273885726929 0.4879034161567688
vt 0.9732404351234436 0.5406707525253296
vt 0.8583648204803467 0.6752288937568665
vt 0.05911025032401085 -0.26045989990234375
vt -0.026027396321296692 -0.26045918464660645
vt 0.2864152789115906 1.0894438028335571
vt 0.5003989934921265 1.336104393005371
vt 0.49937617778778076 1.7373422384262085
vt 0.7144036889076233 1.089915156364441
vt 1.0185273885726929 0.4879034161567688
vt 1.0185272693634033 0.8045095801353455
vt 0.07222222536802292 0.9900000095367432
vt 0.9905796647071838 0.9900000095367432
vt 0.5314009189605713 0.8950000107288361
vt 0.9905796647071838 0.800000011920929
vt 0.9905796647071838 0.33000004291534424
vt 0.07222222536802292 0.33000004291534424
vt 0.07222222536802292 0.550000011920929
vt 0.07222222536802292 0.800000011920929
vt 0.9905796647071838 0.550000011920929
vt 0.9905796647071838 0.009999990463256836
vt 0.07222222536802292 0.009999990463256836
vt 0.07222222536802292 0.33000004291534424
vt 0.9905796647071838 0.33000004291534424
vt 0.9905796647071838 0.550000011920929
vt 0.07222222536802292 0.550000011920929
vt 0.9905796647071838 0.800000011920929
vt 0.07222222536802292 0.800000011920929
vt 0.07222222536802292 0.009999990463256836
vt 0.9905796647071838 0.009999990463256836
vt 1 1.5920339822769165
vt 1 1.105989694595337
vt 0.8744120597839355 1.2879456877708435
vt 0.7488241195678711 1.4699017107486725
vt 0.7488241195678711 1.2268795669078827
vt 0.37441205978393555 1.5309678316116333
vt 0.5 1.5920339822769165
vt 0 1.5920339822769165
vt 0.24647250771522522 1.2256371676921844
vt 0.24882416427135468 1.4699017107486725
vt 0.49764832854270935 1.3477694392204285
vt 0.8744120597839355 1.2879456877708435
vt 1 1.105989694595337
vt 1.8669564723968506 1.2881509959697723
vt 1.9919564723968506 1.102053165435791
vt 1.9919564723968506 1.5983140468597412
vt 0.37441208958625793 1.5309678316116333
vt 0.9919565320014954 1.5983140468597412
vt 1.3669564723968506 1.5362814664840698
vt 1.4919564723968506 1.5983140468597412
vt 0.7488241791725159 1.2268795669078827
vt 1.7419564723968506 1.2261183857917786
vt 0.24882417917251587 1.4699017107486725
vt 0.2464725226163864 1.2256371676921844
vt 1.2419564723968506 1.4742488265037537
vt 1.2419564723968506 1.2261183857917786
vt 1.4919564723968506 1.3501836061477661
vt 0.37441208958625793 1.5309678316116333
vt 0.49764835834503174 1.3477694392204285
vt -0.004703303799033165 1.1035048961639404
vt 0.2464725226163864 1.1041260957717896
vt 0.25 0.9707012474536896
vt 0 1.1061352491378784
vt 0.25 0.6999060213565826
vt 0.25 1.106098860502243
vt 0.5 0.8352672457695007
vt 0.875 1.0383090823888779
vt 1 0.5645447969436646
vt 0.5 1.1060624718666077
vt 0.75 0.9706284701824188
vt 0.625 0.6322253942489624
vt 0.75 0.6999060213565826
vt 0.2464725375175476 1.1041260957717896
vt -0.004703303799033165 1.1035048961639404
vt 0.5 0.8352672457695007
vt 0.75 0.6999060213565826
vt 0.75 0.5645447969436646
vt 1 0.5645447969436646
vt 0.875 1.0383090823888779
vt 0.5 1.1060624718666077
vt 0.75 0.9706284701824188
vt 0.25 0.6999060213565826
vt 0 1.1061352491378784
vt 0.25 0.9707012474536896
vt 0.25 1.106098860502243
vt 0.3720604181289673 1.2867032885551453
vt 0.49764835834503174 1.1047472953796387
vt 0.3720604479312897 1.2867032885551453
vt 0.49764832854270935 1.1047472953796387
vt 1.3669564723968506 1.2881509959697723
vt 1.2419564723968506 1.2261183857917786
vt 0.625 0.9029478579759598
vt 0.625 0.9029478579759598
vt 0.5 0.5645447969436646
vt 0.25 0.5645447969436646
vt 0 0.5645447969436646
vt 0.375 0.7675866335630417
vt 0.6232362389564514 1.1658134311437607
vt 0.875 0.7675866335630417
vt 0.6232362389564514 1.4088355898857117
vt 0.8744120597839355 1.5309678316116333
vt 1.7419564723968506 1.4742488265037537
vt 1.7419564723968506 1.5983140468597412
vt 0.75 1.5920339822769165
vt 0.6860302090644836 1.317857563495636
vt 0.7488241791725159 1.4699017107486725
vt 1.6794564723968506 1.3191673159599304
vt 1.7419564723968506 1.4742488265037537
vt 1.5544564723968506 1.5052651166915894
vt 0.5616181492805481 1.5004347562789917
vt 0.7488241195678711 1.1053684949874878
vt 0.6232362389564514 1.1658134311437607
vt 0.8744120597839355 1.5309678316116333
vt 1.8669564723968506 1.5362814664840698
vt 1.8669564723968506 1.5362814664840698
vt 1.6169564723968506 1.1640857756137848
vt 1.4919564723968506 1.102053165435791
vt 1.2419564723968506 1.102053165435791
vt 0.9919565320014954 1.102053165435791
vt 0.375 1.1060806661844254
vt 0.3720604181289673 1.1044366955757141
vt 0.375 0.7675866335630417
vt 0 0.5645447969436646
vt 0.3125 0.5983850955963135
vt 0.875 0.7675866335630417
vt 0.375 1.1060806661844254
vt 0.3720604479312897 1.1044366955757141
vt 0.625 0.5645447969436646
vt -0.013984506949782372 0.5773186683654785
vt -0.013984506949782372 -0.00483095645904541
vt 1.0024152994155884 -0.00483095645904541
vt 1.0024152994155884 0.28624385595321655
vt 1.0024152994155884 0.5776096880435944
vt 1.510615348815918 0.2863893508911133
vt 1.510615348815918 0.5777552127838135
vt 1.764715313911438 0.5778279602527618
vt 1.764715313911438 0.28646212816238403
vt 1.2565152645111084 0.5776824355125427
vt 1.510615348815918 0.14070641994476318
vt 2.018815279006958 0.5779007077217102
vt 2.018815279006958 -0.00483095645904541
vt 1.510615348815918 -0.00483095645904541
vt 1.002415418624878 -0.00483095645904541
vt 1.002415418624878 0.28624385595321655
vt 2.018815279006958 -0.00483095645904541
vt 2.018815279006958 0.5779007077217102
vt 1.510615348815918 0.5777552127838135
vt -0.013984506949782372 0.5773186683654785
vt 1.002415418624878 0.5776096880435944
vt 1.510615348815918 0.2863893508911133
vt 0.7483153343200684 0.577536940574646
vt 0.4942154288291931 0.5774641633033752
vt -0.013984506949782372 -0.00483095645904541
g DistRt080
s 1
f 1/1/1 2/2/2 3/3/3
f 1/1/1 4/4/4 5/5/5
f 6/6/6 7/7/7 8/8/8
f 9/9/9 4/4/4 3/3/3
f 4/4/4 10/10/10 5/5/5
f 5/5/5 2/2/2 1/1/1
f 2/2/2 11/11/11 3/3/3
f 8/8/8 7/7/7 11/11/11
f 11/11/11 7/7/7 12/12/12
f 2/2/2 8/8/8 11/11/11
f 3/3/3 11/11/11 9/9/9
f 13/13/13 10/10/10 4/4/4
f 3/3/3 4/4/4 1/1/1
f 12/12/12 13/13/13 14/14/14
f 12/12/12 14/14/14 9/9/9
f 6/6/6 8/8/8 2/2/2
f 5/5/5 6/6/6 2/2/2
f 14/14/14 13/13/13 4/4/4
f 9/9/9 11/11/11 12/12/12
f 14/14/14 4/4/4 9/9/9
g DistRt081
s 1
f 15/15/15 16/16/16 17/17/17
f 18/18/18 15/15/15 17/17/17
f 19/19/19 20/20/20 21/21/21
f 22/22/22 19/19/19 21/21/21
f 23/23/23 24/24/24 25/25/25
f 25/25/25 24/24/24 17/17/17
f 17/17/17 16/16/16 25/25/25
f 25/25/25 16/16/16 23/23/23
f 26/26/26 20/20/20 27/27/27
f 27/27/27 20/20/20 28/28/28
f 29/29/29 30/30/30 31/31/31
f 32/32/32 30/30/30 22/22/22
f 22/22/22 30/30/30 28/28/28
f 33/33/33 34/34/34 35/35/35
f 36/36/36 33/33/33 35/35/35
f 24/24/24 37/37/37 17/17/17
f 28/28/28 19/19/19 22/22/22
f 38/38/38 39/39/39 40/40/40
f 41/41/41 15/15/15 18/18/18
f 27/27/27 31/31/31 26/26/26
f 42/42/42 43/43/43 44/44/44
f 42/42/42 44/44/44 38/38/38
f 28/28/28 30/30/30 29/29/29
f 28/28/28 29/29/29 27/27/27
f 27/27/27 29/29/29 31/31/31
f 45/45/45 41/41/41 18/18/18
f 17/17/17 37/37/37 18/18/18
f 18/18/18 37/37/37 45/45/45
f 28/28/28 20/20/20 19/19/19
f 22/22/22 21/21/21 32/32/32
f 38/38/38 40/40/40 46/46/46
f 38/38/38 46/46/46 42/42/42
f 35/35/35 47/47/47 36/36/36
f 47/47/47 48/48/48 36/36/36
f 41/41/41 16/16/16 15/15/15
g DistRt082
s 1
f 49/49/49 50/50/50 51/51/51
f 52/52/52 53/53/53 54/54/54
f 55/55/55 56/56/56 57/57/57
f 56/56/56 58/58/58 57/57/57
f 54/54/54 59/59/59 57/57/57
f 59/59/59 55/55/55 57/57/57
f 58/58/58 60/60/60 57/57/57
f 60/60/60 61/61/61 57/57/57
f 62/62/62 63/63/63 64/64/64
f 63/63/63 65/65/65 64/64/64
f 66/66/66 67/67/67 68/68/68
f 66/66/66 69/69/69 67/67/67
f 70/70/70 71/71/71 49/49/49
f 72/72/72 73/73/73 74/74/74
f 75/75/75 76/76/76 77/77/77
f 77/77/77 72/72/72 75/75/75
f 78/78/78 79/79/79 80/80/80
f 80/80/80 81/81/81 78/78/78
f 82/82/82 83/83/83 79/79/79
f 79/79/79 78/78/78 82/82/82
f 84/84/84 85/85/85 83/83/83
f 83/83/83 82/82/82 84/84/84
f 86/86/86 87/87/87 85/85/85
f 85/85/85 84/84/84 86/86/86
f 68/68/68 88/88/88 66/66/66
f 89/89/89 90/90/90 62/62/62
f 91/91/91 92/92/92 93/93/93
f 93/93/93 94/94/94 91/91/91
f 95/95/95 96/96/96 64/64/64
f 65/65/65 95/95/95 64/64/64
f 97/97/97 74/74/74 73/73/73
f 73/73/73 98/98/98 97/97/97
f 74/74/74 75/75/75 72/72/72
f 66/66/66 99/99/99 69/69/69
f 61/61/61 100/100/100 57/57/57
f 64/64/64 89/89/89 62/62/62
f 101/101/101 102/102/102 103/103/103
f 104/104/104 101/101/101 103/103/103
f 68/68/68 105/105/105 88/88/88
f 106/106/106 107/107/107 108/108/108
f 106/106/106 109/109/109 107/107/107
f 106/106/106 108/108/108 110/110/110
f 110/110/110 108/108/108 111/111/111
f 111/111/111 112/112/112 110/110/110
f 110/110/110 112/112/112 106/106/106
f 49/49/49 113/113/113 70/70/70
f 49/49/49 51/51/51 113/113/113
f 111/111/111 114/114/114 112/112/112
f 111/111/111 115/115/115 114/114/114
f 116/116/116 52/52/52 54/54/54
f 57/57/57 116/116/116 54/54/54
f 117/117/117 118/118/118 119/119/119
f 120/120/120 117/117/117 119/119/119
f 119/119/119 104/104/104 121/121/121
f 121/121/121 104/104/104 103/103/103
f 103/103/103 120/120/120 121/121/121
f 121/121/121 120/120/120 119/119/119
f 98/98/98 81/81/81 80/80/80
f 80/80/80 97/97/97 98/98/98
f 90/90/90 122/122/122 62/62/62
f 68/68/68 123/123/123 105/105/105
f 124/124/124 125/125/125 126/126/126
f 96/96/96 127/127/127 64/64/64
f 126/126/126 128/128/128 124/124/124
g DistRt083
s 1
f 129/129/129 130/130/130 131/131/131
f 132/132/132 133/133/133 134/134/134
f 135/135/135 132/132/132 136/136/136
f 136/136/136 137/137/137 135/135/135
f 135/135/135 137/137/137 138/138/138
f 138/138/138 139/139/139 135/135/135
f 140/140/140 141/141/141 139/139/139
f 139/139/139 138/138/138 140/140/140
f 141/141/141 140/140/140 142/142/142
f 142/142/142 143/143/143 141/141/141
f 144/144/144 145/145/145 146/146/146
f 145/145/145 144/144/144 147/147/147
f 148/148/148 149/149/149 150/150/150
f 151/151/151 152/152/152 153/153/153
f 142/142/142 149/149/149 143/143/143
f 154/154/154 153/153/153 155/155/155
f 156/156/156 129/129/129 131/131/131
f 134/134/134 136/136/136 132/132/132
f 157/157/157 134/134/134 133/133/133
f 133/133/133 146/146/146 157/157/157
f 129/129/129 156/156/156 158/158/158
f 153/153/153 154/154/154 151/151/151
f 159/159/159 160/160/160 152/152/152
f 152/152/152 151/151/151 159/159/159
f 160/160/160 159/159/159 161/161/161
f 157/157/157 146/146/146 145/145/145
f 155/155/155 162/162/162 154/154/154
f 163/163/163 131/131/131 130/130/130
f 130/130/130 164/164/164 163/163/163
f 164/164/164 165/165/165 166/166/166
f 166/166/166 163/163/163 164/164/164
f 161/161/161 166/166/166 165/165/165
f 165/165/165 167/167/167 161/161/161
f 161/161/161 167/167/167 160/160/160
f 149/149/149 148/148/148 143/143/143
f 162/162/162 155/155/155 168/168/168
g DistRt084
s 1
f 169/169/169 170/170/170 171/171/171
f 171/171/171 172/172/172 169/169/169
f 173/173/173 174/174/174 175/175/175
f 175/175/175 176/176/176 173/173/173
g DistRt085
s 1
f 177/177/177 178/178/178 179/179/179
f 178/178/178 180/180/180 179/179/179
f 181/181/181 182/182/182 183/183/183
f 184/184/184 185/185/185 186/186/186
f 187/187/187 184/184/184 186/186/186
f 188/188/188 184/184/184 187/187/187
f 189/189/189 188/188/188 187/187/187
f 181/181/181 188/188/188 189/189/189
f 181/181/181 183/183/183 190/190/190
f 190/190/190 188/188/188 181/181/181
f 190/190/190 183/183/183 177/177/177
f 180/180/180 191/191/191 179/179/179
f 178/178/178 177/177/177 183/183/183
f 192/192/192 179/179/179 191/191/191
f 193/193/193 186/186/186 185/185/185
f 185/185/185 194/194/194 193/193/193
f 194/194/194 195/195/195 196/196/196
f 197/197/197 198/198/198 199/199/199
f 200/200/200 201/201/201 202/202/202
f 203/203/203 204/204/204 205/205/205
f 204/204/204 206/206/206 205/205/205
f 207/207/207 208/208/208 209/209/209
f 210/210/210 199/199/199 198/198/198
f 211/211/211 210/210/210 198/198/198
f 198/198/198 212/212/212 211/211/211
f 209/209/209 211/211/211 212/212/212
f 205/205/205 213/213/213 214/214/214
f 206/206/206 204/204/204 202/202/202
f 214/214/214 203/203/203 205/205/205
f 202/202/202 215/215/215 206/206/206
f 216/216/216 215/215/215 201/201/201
f 202/202/202 201/201/201 215/215/215
f 216/216/216 201/201/201 217/217/217
f 216/216/216 217/217/217 207/207/207
f 218/218/218 216/216/216 207/207/207
f 218/218/218 207/207/207 209/209/209
f 212/212/212 218/218/218 209/209/209
f 196/196/196 219/219/219 194/194/194
f 219/219/219 193/193/193 194/194/194
f 220/220/220 187/187/187 186/186/186
g DistRt086
s 1
f 221/221/221 222/222/222 223/223/223
f 223/223/223 222/222/222 224/224/224
f 225/225/225 226/226/226 227/227/227
f 228/228/228 224/224/224 229/229/229
f 229/229/229 227/227/227 228/228/228
f 226/226/226 225/225/225 230/230/230
f 230/230/230 231/231/231 226/226/226
f 232/232/232 233/233/233 234/234/234
f 234/234/234 235/235/235 232/232/232
f 235/235/235 234/234/234 236/236/236
f 236/236/236 237/237/237 235/235/235
f 237/237/237 236/236/236 222/222/222
f 222/222/222 221/221/221 237/237/237
f 238/238/238 239/239/239 233/233/233
f 233/233/233 232/232/232 238/238/238
f 224/224/224 228/228/228 223/223/223
f 223/223/223 228/228/228 221/221/221
f 227/227/227 229/229/229 225/225/225
g DistRt087
s 1
f 240/240/240 241/241/241 242/242/242
f 243/243/243 242/242/242 244/244/244
f 242/242/242 241/241/241 244/244/244
f 243/243/243 245/245/245 246/246/246
f 245/245/245 247/247/247 246/246/246
f 248/248/248 247/247/247 249/249/249
f 250/250/250 249/249/249 245/245/245
f 249/249/249 247/247/247 245/245/245
f 251/251/251 252/252/252 240/240/240
f 253/253/253 254/254/254 255/255/255
f 246/246/246 247/247/247 256/256/256
f 257/257/257 258/258/258 259/259/259
f 260/260/260 252/252/252 251/251/251
f 261/261/261 254/254/254 253/253/253
f 262/262/262 247/247/247 263/263/263
f 264/264/264 257/257/257 265/265/265
f 257/257/257 264/264/264 258/258/258
f 264/264/264 266/266/266 258/258/258
f 267/267/267 247/247/247 262/262/262
f 267/267/267 262/262/262 268/268/268
f 269/269/269 270/270/270 263/263/263
f 271/271/271 272/272/272 273/273/273
f 274/274/274 272/272/272 271/271/271
f 274/274/274 271/271/271 275/275/275
f 276/276/276 277/277/277 252/252/252
f 276/276/276 278/278/278 279/279/279
f 280/280/280 277/277/277 281/281/281
f 280/280/280 281/281/281 275/275/275
f 248/248/248 282/282/282 283/283/283
f 284/284/284 285/285/285 286/286/286
f 285/285/285 287/287/287 286/286/286
f 241/241/241 287/287/287 288/288/288
f 288/288/288 289/289/289 241/241/241
f 290/290/290 289/289/289 288/288/288
f 291/291/291 292/292/292 293/293/293
f 284/284/284 293/293/293 294/294/294
f 293/293/293 292/292/292 294/294/294
f 295/295/295 296/296/296 248/248/248
f 250/250/250 296/296/296 295/295/295
f 295/295/295 249/249/249 250/250/250
f 248/248/248 249/249/249 295/295/295
f 297/297/297 298/298/298 268/268/268
f 263/263/263 298/298/298 297/297/297
f 261/261/261 266/266/266 299/299/299
f 261/261/261 299/299/299 300/300/300
f 297/297/297 262/262/262 263/263/263
f 268/268/268 262/262/262 297/297/297
f 299/299/299 264/264/264 265/265/265
f 266/266/266 264/264/264 299/299/299
f 301/301/301 278/278/278 275/275/275
f 279/279/279 278/278/278 301/301/301
f 301/301/301 281/281/281 279/279/279
f 275/275/275 281/281/281 301/301/301
f 302/302/302 289/289/289 290/290/290
f 284/284/284 289/289/289 302/302/302
f 302/302/302 285/285/285 284/284/284
f 290/290/290 285/285/285 302/302/302
f 291/291/291 303/303/303 304/304/304
f 291/291/291 304/304/304 305/305/305
f 306/306/306 303/303/303 291/291/291
f 284/284/284 303/303/303 306/306/306
f 306/306/306 293/293/293 284/284/284
f 291/291/291 293/293/293 306/306/306
f 250/250/250 244/244/244 307/307/307
f 250/250/250 307/307/307 296/296/296
f 307/307/307 241/241/241 296/296/296
f 288/288/288 308/308/308 290/290/290
f 309/309/309 244/244/244 250/250/250
f 243/243/243 244/244/244 309/309/309
f 309/309/309 245/245/245 243/243/243
f 250/250/250 245/245/245 309/309/309
f 310/310/310 242/242/242 243/243/243
f 240/240/240 242/242/242 310/310/310
f 243/243/243 246/246/246 310/310/310
f 259/259/259 311/311/311 312/312/312
f 310/310/310 246/246/246 313/313/313
f 310/310/310 313/313/313 240/240/240
f 268/268/268 314/314/314 315/315/315
f 314/314/314 251/251/251 315/315/315
f 266/266/266 316/316/316 317/317/317
f 316/316/316 253/253/253 317/317/317
f 314/314/314 260/260/260 251/251/251
f 268/268/268 260/260/260 314/314/314
f 316/316/316 261/261/261 253/253/253
f 266/266/266 261/261/261 316/316/316
f 318/318/318 266/266/266 311/311/311
f 258/258/258 266/266/266 318/318/318
f 246/246/246 256/256/256 319/319/319
f 246/246/246 319/319/319 315/315/315
f 258/258/258 318/318/318 259/259/259
f 318/318/318 311/311/311 259/259/259
f 315/315/315 319/319/319 268/268/268
f 319/319/319 267/267/267 268/268/268
f 320/320/320 252/252/252 260/260/260
f 252/252/252 320/320/320 276/276/276
f 320/320/320 278/278/278 276/276/276
f 298/298/298 321/321/321 268/268/268
f 321/321/321 260/260/260 268/268/268
f 321/321/321 320/320/320 260/260/260
f 298/298/298 320/320/320 321/321/321
f 322/322/322 251/251/251 240/240/240
f 315/315/315 251/251/251 322/322/322
f 322/322/322 246/246/246 315/315/315
f 240/240/240 246/246/246 322/322/322
f 312/312/312 311/311/311 323/323/323
f 312/312/312 323/323/323 255/255/255
f 324/324/324 253/253/253 255/255/255
f 317/317/317 253/253/253 324/324/324
f 325/325/325 261/261/261 300/300/300
f 254/254/254 261/261/261 325/325/325
f 254/254/254 325/325/325 326/326/326
f 325/325/325 300/300/300 326/326/326
f 327/327/327 300/300/300 328/328/328
f 326/326/326 300/300/300 327/327/327
f 278/278/278 329/329/329 275/275/275
f 329/329/329 274/274/274 275/275/275
f 270/270/270 330/330/330 263/263/263
f 330/330/330 298/298/298 263/263/263
f 331/331/331 271/271/271 273/273/273
f 275/275/275 271/271/271 331/331/331
f 331/331/331 280/280/280 275/275/275
f 273/273/273 280/280/280 331/331/331
f 332/332/332 333/333/333 273/273/273
f 333/333/333 280/280/280 273/273/273
f 333/333/333 277/277/277 280/280/280
f 332/332/332 277/277/277 333/333/333
f 279/279/279 334/334/334 276/276/276
f 334/334/334 277/277/277 276/276/276
f 281/281/281 277/277/277 334/334/334
f 281/281/281 334/334/334 279/279/279
f 284/284/284 294/294/294 335/335/335
f 284/284/284 335/335/335 289/289/289
f 248/248/248 296/296/296 336/336/336
f 248/248/248 336/336/336 282/282/282
f 284/284/284 286/286/286 337/337/337
f 284/284/284 337/337/337 303/303/303
f 290/290/290 308/308/308 285/285/285
f 308/308/308 287/287/287 285/285/285
f 288/288/288 287/287/287 308/308/308
f 244/244/244 241/241/241 307/307/307
f 283/283/283 247/247/247 248/248/248
f 263/263/263 247/247/247 269/269/269
f 265/265/265 257/257/257 328/328/328
f 273/273/273 272/272/272 332/332/332
f 305/305/305 292/292/292 291/291/291
g DistRt088
s 1
f 338/338/338 339/339/339 340/340/340
f 341/341/341 342/342/342 343/343/343
f 344/344/344 345/345/345 346/346/346
f 347/347/347 344/344/344 343/343/343
f 342/342/342 347/347/347 343/343/343
f 341/341/341 343/343/343 348/348/348
f 345/345/345 349/349/349 346/346/346
f 348/348/348 343/343/343 350/350/350
f 350/350/350 351/351/351 348/348/348
f 348/348/348 351/351/351 341/341/341
f 346/346/346 349/349/349 350/350/350
f 351/351/351 352/352/352 341/341/341
f 353/353/353 340/340/340 354/354/354
f 354/354/354 355/355/355 356/356/356
f 341/341/341 352/352/352 357/357/357
f 353/353/353 358/358/358 338/338/338
f 354/354/354 359/359/359 353/353/353
f 338/338/338 340/340/340 353/353/353
f 359/359/359 358/358/358 353/353/353
f 359/359/359 356/356/356 358/358/358
f 360/360/360 342/342/342 341/341/341
f 361/361/361 360/360/360 341/341/341
f 357/357/357 361/361/361 341/341/341
f 343/343/343 346/346/346 350/350/350
f 352/352/352 362/362/362 357/357/357
f 354/354/354 356/356/356 359/359/359
f 343/343/343 344/344/344 346/346/346
