# Exported using wow.export v0.2.19
o 20736_sewer22.obj
v 119.77098083496094 -7.401930332183838 -69.81917572021484
v 116.76316833496094 -8.09637451171875 -70.0824203491211
v 117.76748657226562 -7.749147415161133 -68.08628845214844
v 119.77098083496094 -7.401918411254883 -66.5475082397461
v 115.76398468017578 -8.09636402130127 -66.3533935546875
v 114.21559143066406 -8.79081916809082 -71.600830078125
v 114.06905364990234 -8.79081916809082 -71.34701538085938
v 116.26358032226562 -8.096368789672852 -68.21791076660156
v 114.91651916503906 -8.443592071533203 -68.85020446777344
v 112.4332275390625 -8.790806770324707 -68.51366424560547
v 119.77098083496094 -7.401918888092041 -66.25167083740234
v 119.77098083496094 -7.401924133300781 -68.18334197998047
v 113.25114440917969 -8.790813446044922 -69.93034362792969
v 112.28531646728516 -8.790807723999023 -68.25747680664062
v 119.77099609375 -7.401930332183838 -70.11225128173828
v 119.77098083496094 -6.010468006134033 -66.25690460205078
v 119.77098083496094 -7.401918888092041 -66.25167083740234
v 117.76882934570312 -6.357690334320068 -66.30758666992188
v 119.77098083496094 -4.619017124176025 -66.26213836669922
v 114.21559143066406 -8.79081916809082 -71.600830078125
v 115.48938751220703 -7.0521440505981445 -70.84161376953125
v 114.2155990600586 -7.39936637878418 -71.60082244873047
v 119.77098846435547 -6.010477066040039 -70.11224365234375
v 119.77098083496094 -4.619024276733398 -70.11224365234375
v 118.26707458496094 -6.357699394226074 -70.09733581542969
v 119.77099609375 -7.401930332183838 -70.11225128173828
v 116.76316833496094 -5.3134684562683105 -70.08241271972656
v 116.76316833496094 -8.09637451171875 -70.0824203491211
v 115.76398468017578 -8.09636402130127 -66.3533935546875
v 114.0260009765625 -7.0521345138549805 -67.31048583984375
v 115.76668548583984 -5.313461780548096 -66.3635025024414
v 112.28793334960938 -7.399356842041016 -68.26200103759766
v 112.28531646728516 -8.790807723999023 -68.25747680664062
v 112.2905502319336 -6.007906436920166 -68.26652526855469
v 114.21560668945312 -6.007913112640381 -71.60081481933594
v 115.9457778930664 -4.038727283477783 -67.0318603515625
v 116.26787567138672 -3.446779727935791 -68.2339859008789
v 119.77099609375 -3.344282627105713 -66.9540786743164
v 115.76668548583984 -5.313461780548096 -66.3635025024414
v 114.1181640625 -5.023316860198975 -67.6491928100586
v 112.2905502319336 -6.007906436920166 -68.26652526855469
v 119.77098083496094 -2.7523353099823 -68.1986083984375
v 113.25877380371094 -4.141224384307861 -69.94356536865234
v 112.63651275634766 -4.7331719398498535 -68.86576843261719
v 119.77098083496094 -4.619024276733398 -70.11224365234375
v 119.77098083496094 -3.344282627105713 -69.43710327148438
v 116.76316833496094 -5.3134684562683105 -70.08241271972656
v 116.58843231201172 -4.038727283477783 -69.4302749633789
v 116.26787567138672 -3.446779727935791 -68.2339859008789
v 119.77098083496094 -2.7523353099823 -68.1986083984375
v 119.77098083496094 -4.619017124176025 -66.26213836669922
v 113.8780288696289 -4.7331719398498535 -71.01612854003906
v 113.25877380371094 -4.141224384307861 -69.94356536865234
v 114.21560668945312 -6.007913112640381 -71.60081481933594
v 112.43766021728516 -6.155694007873535 -68.52134704589844
v 111.85490417480469 -6.155694484710693 -68.85782623291016
v 112.76065063476562 -5.044283866882324 -69.0807876586914
v 112.17789459228516 -5.044284343719482 -69.41724395751953
v 113.25814819335938 -4.589432716369629 -69.94246673583984
v 112.6753921508789 -4.589433193206787 -70.2789306640625
v 111.85047149658203 -8.790807723999023 -68.85015106201172
v 112.4332275390625 -8.790806770324707 -68.51366424560547
v 112.95976257324219 -8.790813446044922 -70.09857177734375
v 113.4863052368164 -8.790820121765137 -71.68348693847656
v 114.06905364990234 -8.79081916809082 -71.34701538085938
v 119.77098083496094 -7.401930332183838 -69.81917572021484
v 120.10743713378906 -7.401924133300781 -68.183349609375
v 120.44388580322266 -7.401930332183838 -69.81918334960938
v 120.44386291503906 -7.401918888092041 -66.5475082397461
v 119.77098083496094 -7.401918411254883 -66.5475082397461
v 119.77098083496094 -7.401924133300781 -68.18334197998047
v 113.25114440917969 -8.790813446044922 -69.93034362792969
v 119.77098083496094 -7.401918888092041 -66.25167083740234
v 119.77098083496094 -6.010468006134033 -66.25690460205078
v 119.77098083496094 -7.401918411254883 -66.5475082397461
v 119.77098083496094 -4.619017124176025 -66.26213836669922
v 112.28793334960938 -7.399356842041016 -68.26200103759766
v 112.4332275390625 -8.790806770324707 -68.51366424560547
v 112.2905502319336 -6.007906436920166 -68.26652526855469
v 112.28531646728516 -8.790807723999023 -68.25747680664062
v 119.77098083496094 -4.619024276733398 -70.11224365234375
v 119.77098846435547 -6.010477066040039 -70.11224365234375
v 119.77098083496094 -4.766811847686768 -69.81917572021484
v 119.77099609375 -7.401930332183838 -70.11225128173828
v 114.2155990600586 -7.39936637878418 -71.60082244873047
v 114.0690689086914 -6.15570068359375 -71.34701538085938
v 114.21559143066406 -8.79081916809082 -71.600830078125
v 112.4332275390625 -8.790806770324707 -68.51366424560547
v 111.85047149658203 -8.790807723999023 -68.85015106201172
v 119.77098083496094 -7.401930332183838 -69.81917572021484
v 119.77098083496094 -3.344282627105713 -69.43710327148438
v 119.77098083496094 -3.655395030975342 -69.1875228881836
v 119.77098083496094 -2.7523353099823 -68.1986083984375
v 119.77098083496094 -3.2005436420440674 -68.19734191894531
v 119.77098083496094 -4.766805171966553 -66.5563735961914
v 119.77099609375 -3.344282627105713 -66.9540786743164
v 119.77098083496094 -3.655395030975342 -67.20236206054688
v 119.77098083496094 -4.766811847686768 -69.81917572021484
v 119.77098083496094 -7.401930332183838 -69.81917572021484
v 120.44390106201172 -4.766811847686768 -69.81917572021484
v 120.44388580322266 -7.401930332183838 -69.81918334960938
v 119.77098083496094 -3.655395030975342 -69.1875228881836
v 120.44388580322266 -3.655395030975342 -69.18751525878906
v 119.77098083496094 -3.2005436420440674 -68.19734191894531
v 120.44388580322266 -3.2005436420440674 -68.19734191894531
v 119.77098083496094 -7.401918411254883 -66.5475082397461
v 119.77098083496094 -4.766805171966553 -66.5563735961914
v 120.44387817382812 -4.766805171966553 -66.5563735961914
v 119.77098083496094 -3.655395030975342 -67.20236206054688
v 120.44387817382812 -3.655395030975342 -67.2023696899414
v 119.77098083496094 -3.2005436420440674 -68.19734191894531
v 114.06905364990234 -8.79081916809082 -71.34701538085938
v 113.8780288696289 -4.7331719398498535 -71.01612854003906
v 113.75323486328125 -5.044283866882324 -70.79998016357422
v 114.21560668945312 -6.007913112640381 -71.60081481933594
v 113.25877380371094 -4.141224384307861 -69.94356536865234
v 113.25814819335938 -4.589432716369629 -69.94246673583984
v 112.43766021728516 -6.155694007873535 -68.52134704589844
v 112.63651275634766 -4.7331719398498535 -68.86576843261719
v 112.76065063476562 -5.044283866882324 -69.0807876586914
v 114.0690689086914 -6.15570068359375 -71.34701538085938
v 113.4863052368164 -6.155701160430908 -71.68347930908203
v 114.06905364990234 -8.79081916809082 -71.34701538085938
v 113.17047119140625 -5.044284343719482 -71.13643646240234
v 113.75323486328125 -5.044283866882324 -70.79998016357422
v 113.25814819335938 -4.589432716369629 -69.94246673583984
vn -0.11320846527814865 0.9935712814331055 -0.000007064673809509259
vn -0.21157561242580414 0.9756919741630554 -0.05710449814796448
vn -0.13679908215999603 0.9903632402420044 -0.02160150557756424
vn -0.08569647371768951 0.9963212609291077 -4.035435949845123e-7
vn -0.16024836897850037 0.9861320853233337 -0.04317363351583481
vn -0.19746190309524536 0.9736592173576355 -0.11400210857391357
vn -0.09938669204711914 0.9933930039405823 -0.05738174915313721
vn -0.18598029017448425 0.9812723994255066 -0.05015748739242554
vn -0.1298818141222 0.990252673625946 -0.05030258744955063
vn -0.07498963177204132 0.996243953704834 -0.04329659789800644
vn -0.17076244950294495 0.9853122234344482 0.0000028233737339178333
vn -0.09946197271347046 0.9950413703918457 -0.0000037344657357607502
vn -0.08719690144062042 0.994918167591095 -0.05034422129392624
vn -0.14941774308681488 0.9850039482116699 -0.08626480400562286
vn -0.22496134042739868 0.9743676781654358 -0.000010411021321488079
vn 0.046945247799158096 -0.12584131956100464 -0.9909390211105347
vn 0.02601199597120285 -0.0036574092227965593 -0.9996549487113953
vn 0.1622031033039093 -0.1280670315027237 -0.9784114956855774
vn 0.06715352088212967 -0.24608184397220612 -0.9669198989868164
vn -0.5119802355766296 -0.000001691296461103775 0.8589972257614136
vn -0.35894283652305603 -0.1217682883143425 0.9253823161125183
vn -0.48364177346229553 -0.12112127989530563 0.8668450117111206
vn 0.03773876652121544 -0.12084279954433441 0.99195396900177
vn 0.06497643887996674 -0.23981736600399017 0.9686411619186401
vn -0.09994542598724365 -0.12244006246328354 0.9874306917190552
vn 0.009918400086462498 -0.000002388447228440782 0.9999508261680603
vn -0.20237122476100922 -0.24151112139225006 0.9490618109703064
vn -0.2607365846633911 -0.0000023526147288066568 0.9654099941253662
vn 0.26068517565727234 -0.00376061350107193 -0.9654165506362915
vn 0.3915359675884247 -0.1274145245552063 -0.9112985730171204
vn 0.2928019165992737 -0.24806126952171326 -0.9234352111816406
vn 0.49515438079833984 -0.12123627960681915 -0.8603045344352722
vn 0.480696439743042 -0.0036523069720715284 -0.8768794536590576
vn 0.5025267601013184 -0.23708538711071014 -0.8314188718795776
vn -0.44779014587402344 -0.24035929143428802 0.8612266778945923
vn 0.30314427614212036 -0.7200925350189209 -0.6241557002067566
vn 0.27017319202423096 -0.8904913067817688 -0.3661033511161804
vn 0.14554083347320557 -0.7264553904533386 -0.6716252565383911
vn 0.2928019165992737 -0.24806126952171326 -0.9234352111816406
vn 0.4197574257850647 -0.49869304895401 -0.7583593726158142
vn 0.5025267601013184 -0.23708538711071014 -0.8314188718795776
vn 0.18034908175468445 -0.8882457613945007 -0.4224851727485657
vn 0.36338868737220764 -0.8890435099601746 -0.2784785330295563
vn 0.45208942890167236 -0.7023553252220154 -0.5498291850090027
vn 0.06497643887996674 -0.23981736600399017 0.9686411619186401
vn 0.15468649566173553 -0.7020792365074158 0.6950948238372803
vn -0.20237122476100922 -0.24151112139225006 0.9490618109703064
vn -0.03477387875318527 -0.7148141860961914 0.6984493136405945
vn 0.06408122181892395 -0.8875037431716919 0.4563229978084564
vn 0.16674795746803284 -0.8652395606040955 0.47281670570373535
vn 0.06715352088212967 -0.24608184397220612 -0.9669198989868164
vn -0.21069692075252533 -0.7106195688247681 0.6712872982025146
vn -0.039310161024332047 -0.8997318744659424 0.43466916680336
vn -0.44779014587402344 -0.24035929143428802 0.8612266778945923
vn 0.48255494236946106 -0.2618441879749298 -0.8358100056648254
vn 0.4717189073562622 -0.26019737124443054 -0.8424835801124573
vn 0.3358635902404785 -0.7407983541488647 -0.5817331075668335
vn 0.3173927366733551 -0.7373741865158081 -0.5962727069854736
vn 0.20788545906543732 -0.9094743132591248 -0.3600557744503021
vn -0.000016958252672338858 -1 -0.000005609016170637915
vn 0.3541504740715027 0.7059183120727539 -0.6133977174758911
vn -0.07498963177204132 0.996243953704834 -0.04329659789800644
vn -0.23250414431095123 0.9222414493560791 0.3088892698287964
vn -0.3541381359100342 0.7059167623519897 0.6134066581726074
vn -0.09938669204711914 0.9933930039405823 -0.05738174915313721
vn -0.11320846527814865 0.9935712814331055 -0.000007064673809509259
vn -0.04641011729836464 0.9225921034812927 0.38297492265701294
vn 0.000007126221134967636 0.7071071863174438 0.7071064114570618
vn 8.892760661183274e-7 0.7059144377708435 -0.7082971334457397
vn -0.08569647371768951 0.9963212609291077 -4.035435949845123e-7
vn -0.09946197271347046 0.9950413703918457 -0.0000037344657357607502
vn -0.08719690144062042 0.994918167591095 -0.05034422129392624
vn -1 0 0
vn -1 0 0
vn -1 0 0
vn -1 0 0
vn 0.8660211563110352 -0.000002578733756308793 0.5000075697898865
vn 0.8660210371017456 -0.0000025787335289351176 0.5000075101852417
vn 0.8660210371017456 -0.0000025787335289351176 0.5000075101852417
vn 0.8660210371017456 -0.0000025787335289351176 0.5000075101852417
vn -1 -0.000004873808848060435 -0.0000024577334443165455
vn -1 -0.000004873808848060435 -0.0000024577334443165455
vn -1 -0.000004873808848060435 -0.0000024577334443165455
vn -1 -0.000004873808848060435 -0.0000024577334443165455
vn 0.8660204410552979 -0.000006657772246398963 0.5000086426734924
vn 0.8660204410552979 -0.000006657772246398963 0.5000086426734924
vn 0.8660204410552979 -0.000006657772246398963 0.5000086426734924
vn 0.5000025629997253 -0.0033667604438960552 -0.8660174012184143
vn 0.3541504740715027 0.7059183120727539 -0.6133977174758911
vn -1 0 -0.00004627915768651292
vn -1 0 0
vn -1 0 0
vn -1 0 0
vn -1 0 0
vn -1 0 0
vn -1 0.00000836070285004098 -0.000004199368504487211
vn -1 0.000018371467376709916 0.00003160802589263767
vn -0.000004531357262749225 -0.25553789734840393 0.9667990207672119
vn 0 0 1
vn 0 -0.255540132522583 0.9667984247207642
vn 0.000007126221134967636 0.7071071863174438 0.7071064114570618
vn -0.0000046026816562516615 -0.7369155883789062 0.6759847402572632
vn -0.000006812586889282102 -0.7369146943092346 0.6759857535362244
vn 0 -0.9087103605270386 0.4174272119998932
vn 0 -0.9999995827674866 0.0009147143573500216
vn -4.240607420769038e-9 -0.0033662281930446625 -0.9999943375587463
vn -2.1949637662999066e-9 -0.26184573769569397 -0.9651097059249878
vn 0 -0.26184573769569397 -0.9651097655296326
vn -0.000002198310994572239 -0.740799069404602 -0.6717267036437988
vn -0.0000067696469159272965 -0.7408006191253662 -0.6717249751091003
vn -0.000004190048457530793 -0.9094735383987427 -0.4157617390155792
vn 0.8660302758216858 -0.000004457594059203984 0.4999915361404419
vn 0.8660255670547485 0.000005550300556933507 0.4999997019767761
vn 0.8660255670547485 0.000005550300556933507 0.4999997019767761
vn 0.8660204410552979 -0.000006657772246398963 0.5000086426734924
vn 0.8660256266593933 0.000006953140655241441 0.4999995827674866
vn 0.8660256266593933 0.000006953140655241441 0.4999995827674866
vn 0.8660348057746887 2.438524688841426e-7 0.4999837279319763
vn 0.8660343885421753 -0.0000013689332263311371 0.49998438358306885
vn 0.8660261034965515 0.0000032464301966683706 0.4999987483024597
vn -0.4833970367908478 -0.2555382251739502 0.8372738361358643
vn -0.4717419743537903 -0.26020219922065735 0.8424692153930664
vn -0.5000010132789612 0.0000025735839699336793 0.8660247921943665
vn -0.31743019819259644 -0.7373776435852051 0.5962485074996948
vn -0.33798858523368835 -0.7369162440299988 0.5854213833808899
vn -0.2087133526802063 -0.9087097644805908 0.3615042269229889
vt 0.06108725070953369 0.16698598861694336
vt 0.17327558994293213 0.7023278474807739
vt 0.5302937626838684 0.43465685844421387
vt 0.7374194860458374 0.014534294605255127
vt 0.9995002746582031 0.7023276686668396
vt 0.0004992485046386719 1.216119647026062
vt 0.06108465790748596 1.22977614402771
vt 0.5863879323005676 0.7023277580738068
vt 0.5302924513816833 0.9660519063472748
vt 0.7374169826507568 1.3822271823883057
vt 0.7985752820968628 0.0007488727569580078
vt 0.39925336837768555 0.09076011180877686
vt 0.3992508351802826 1.3060016632080078
vt 0.7985713481903076 1.396012306213379
vt 0.0005018413066864014 0.1806420087814331
vt 1.4989843368530273 0.5794999897480011
vt 1.4992507696151733 0.1589999794960022
vt 1.1229310035705566 0.5794999897480011
vt 1.4987177848815918 1
vt 1.4992507696151733 0.1499999761581421
vt 1.1298351287841797 0.574999988079071
vt 1.4992501735687256 0.574999988079071
vt 0.0007497444748878479 0.574999988079071
vt 0.0007502585649490356 1
vt 0.38058534264564514 0.574999988079071
vt 0.0007492303848266602 0.1499999761581421
vt 0.760420560836792 1
vt 0.7604204416275024 0.1499999761581421
vt 0.7466206550598145 0.1589999794960022
vt 0.3736801743507385 0.5794999897480011
vt 0.7466112375259399 1
vt 0.0010064542293548584 0.5794999897480011
vt 0.0007490962743759155 0.1589999794960022
vt 0.0012638121843338013 1
vt 1.4992496967315674 1
vt 0.75 0.3768116235733032
vt 0.75 0.550000011920929
vt 1.5 0.3768116235733032
vt 0.75 0.10000002384185791
vt 0.375 0.23840582370758057
vt 0 0.10000002384185791
vt 1.5 0.550000011920929
vt 0 0.550000011920929
vt 0 0.3768116235733032
vt 1.5 0.10000002384185791
vt 1.5 0.30000001192092896
vt 0.75 0.10000002384185791
vt 0.75 0.30000001192092896
vt 0.75 0.550000011920929
vt 1.5 0.550000011920929
vt 1.5 0.10000002384185791
vt 0 0.30000001192092896
vt 0 0.550000011920929
vt 0 0.10000002384185791
vt 0.625 0.5
vt 0.7400000095367432 0.5
vt 0.625 0.75
vt 0.7400000095367432 0.75
vt 0.625 1
vt 0.7400000095367432 1
vt 0.7400000095367432 0.7496230006217957
vt 0.625 0.7496240139007568
vt 0.6825000047683716 0.3748120069503784
vt 0.7400000095367432 0
vt 0.625 0.00037419795989990234
vt 0.6250001192092896 0.75
vt 0.6825000643730164 0.375
vt 0.7400000095367432 0.75
vt 0.7400000095367432 0
vt 0.6250001192092896 0
vt 0.6250001192092896 0.375
vt 0.625 0.37499910593032837
vt 0.5030001401901245 0
vt 0.5030001401901245 0.25
vt 0.6250001192092896 0
vt 0.5030001401901245 0.5
vt 0.503000020980835 0.25
vt 0.625 0
vt 0.503000020980835 0.5
vt 0.503000020980835 0
vt 0.503000020980835 0.5
vt 0.503000020980835 0.25
vt 0.625 0.5
vt 0.503000020980835 0
vt 0.503000020980835 0.25
vt 0.625 0.5
vt 0.503000020980835 0
vt 0.625 0
vt 0.7400000095367432 0
vt 0.625 0
vt 0.503000020980835 0.75
vt 0.625 0.75
vt 0.503000020980835 1
vt 0.625 1
vt 0.6250001192092896 0.5
vt 0.5030001401901245 0.75
vt 0.6250001192092896 0.75
vt 0.625 0.5
vt 0.625 0
vt 0.7400000095367432 0.5
vt 0.7400000095367432 0
vt 0.625 0.75
vt 0.7400000095367432 0.75
vt 0.625 1
vt 0.7400000095367432 1
vt 0.6250001192092896 0
vt 0.6250001192092896 0.5
vt 0.7400000095367432 0.5
vt 0.6250001192092896 0.75
vt 0.7400000095367432 0.75
vt 0.6250001192092896 1
vt 0.625 0
vt 0.503000020980835 0.75
vt 0.625 0.75
vt 0.503000020980835 0.5
vt 0.503000020980835 1
vt 0.625 1
vt 0.625 0.5
vt 0.503000020980835 0.75
vt 0.625 0.75
vt 0.625 0.5
vt 0.7400000095367432 0.5
vt 0.625 0
vt 0.7400000095367432 0.75
vt 0.625 0.75
vt 0.625 1
g sewer220
s 1
f 1/1/1 2/2/2 3/3/3
f 4/4/4 3/3/3 5/5/5
f 6/6/6 7/7/7 2/2/2
f 8/8/8 2/2/2 9/9/9
f 5/5/5 8/8/8 9/9/9
f 5/5/5 9/9/9 10/10/10
f 9/9/9 2/2/2 7/7/7
f 11/11/11 4/4/4 5/5/5
f 4/4/4 12/12/12 3/3/3
f 12/12/12 1/1/1 3/3/3
f 9/9/9 7/7/7 13/13/13
f 5/5/5 10/10/10 14/14/14
f 9/9/9 13/13/13 10/10/10
f 2/2/2 1/1/1 15/15/15
f 3/3/3 2/2/2 8/8/8
f 3/3/3 8/8/8 5/5/5
g sewer221
s 1
f 16/16/16 17/17/17 18/18/18
f 19/19/19 16/16/16 18/18/18
f 20/20/20 21/21/21 22/22/22
f 23/23/23 24/24/24 25/25/25
f 26/26/26 23/23/23 25/25/25
f 27/27/27 21/21/21 28/28/28
f 29/29/29 30/30/30 31/31/31
f 32/32/32 30/30/30 33/33/33
f 34/34/34 30/30/30 32/32/32
f 29/29/29 31/31/31 18/18/18
f 29/29/29 18/18/18 17/17/17
f 19/19/19 18/18/18 31/31/31
f 29/29/29 33/33/33 30/30/30
f 34/34/34 31/31/31 30/30/30
f 27/27/27 28/28/28 25/25/25
f 27/27/27 25/25/25 24/24/24
f 26/26/26 25/25/25 28/28/28
f 20/20/20 28/28/28 21/21/21
f 27/27/27 35/35/35 21/21/21
f 22/22/22 21/21/21 35/35/35
g sewer222
s 1
f 36/36/36 37/37/37 38/38/38
f 39/39/39 40/40/40 36/36/36
f 39/39/39 41/41/41 40/40/40
f 42/42/42 38/38/38 37/37/37
f 43/43/43 37/37/37 44/44/44
f 45/45/45 46/46/46 47/47/47
f 48/48/48 47/47/47 46/46/46
f 49/49/49 48/48/48 50/50/50
f 38/38/38 51/51/51 36/36/36
f 44/44/44 36/36/36 40/40/40
f 52/52/52 48/48/48 53/53/53
f 39/39/39 36/36/36 51/51/51
f 49/49/49 53/53/53 48/48/48
f 54/54/54 47/47/47 52/52/52
f 48/48/48 52/52/52 47/47/47
f 44/44/44 40/40/40 41/41/41
f 36/36/36 44/44/44 37/37/37
f 46/46/46 50/50/50 48/48/48
g sewer223
s 1
f 55/55/55 56/56/56 57/57/57
f 58/58/58 57/57/57 56/56/56
f 57/57/57 58/58/58 59/59/59
f 60/60/60 59/59/59 58/58/58
f 61/61/61 62/62/62 63/63/63
f 61/61/61 63/63/63 64/64/64
f 65/65/65 64/64/64 63/63/63
f 66/66/66 67/67/67 68/68/68
f 69/69/69 68/68/68 67/67/67
f 69/69/69 67/67/67 70/70/70
f 66/66/66 71/71/71 67/67/67
f 71/71/71 70/70/70 67/67/67
f 72/72/72 63/63/63 62/62/62
f 65/65/65 63/63/63 72/72/72
f 73/73/73 74/74/74 75/75/75
f 74/74/74 76/76/76 75/75/75
f 77/77/77 78/78/78 79/79/79
f 80/80/80 78/78/78 77/77/77
f 81/81/81 82/82/82 83/83/83
f 82/82/82 84/84/84 83/83/83
f 85/85/85 86/86/86 87/87/87
f 88/88/88 89/89/89 55/55/55
f 90/90/90 83/83/83 84/84/84
f 91/91/91 81/81/81 92/92/92
f 83/83/83 92/92/92 81/81/81
f 93/93/93 91/91/91 94/94/94
f 92/92/92 94/94/94 91/91/91
f 95/95/95 75/75/75 76/76/76
f 76/76/76 96/96/96 95/95/95
f 97/97/97 95/95/95 96/96/96
f 96/96/96 93/93/93 97/97/97
f 94/94/94 97/97/97 93/93/93
f 98/98/98 99/99/99 100/100/100
f 101/101/101 100/100/100 99/99/99
f 102/102/102 98/98/98 103/103/103
f 100/100/100 103/103/103 98/98/98
f 104/104/104 102/102/102 105/105/105
f 103/103/103 105/105/105 102/102/102
f 106/106/106 107/107/107 69/69/69
f 108/108/108 69/69/69 107/107/107
f 107/107/107 109/109/109 108/108/108
f 110/110/110 108/108/108 109/109/109
f 109/109/109 111/111/111 110/110/110
f 105/105/105 110/110/110 111/111/111
f 112/112/112 87/87/87 86/86/86
f 113/113/113 114/114/114 115/115/115
f 86/86/86 115/115/115 114/114/114
f 116/116/116 117/117/117 113/113/113
f 114/114/114 113/113/113 117/117/117
f 118/118/118 79/79/79 78/78/78
f 79/79/79 118/118/118 119/119/119
f 120/120/120 119/119/119 118/118/118
f 119/119/119 120/120/120 116/116/116
f 117/117/117 116/116/116 120/120/120
f 121/121/121 122/122/122 123/123/123
f 124/124/124 125/125/125 60/60/60
f 126/126/126 60/60/60 125/125/125
f 122/122/122 121/121/121 124/124/124
f 125/125/125 124/124/124 121/121/121
f 64/64/64 123/123/123 122/122/122
f 56/56/56 55/55/55 89/89/89
f 115/115/115 86/86/86 85/85/85
