# Exported using wow.export v0.2.19
o 20736_EleHall02.obj
v -41.759925842285156 -104.3863525390625 69.94012451171875
v -41.759925842285156 -104.3863525390625 68.67900085449219
v -42.929725646972656 -104.17802429199219 70.76528930664062
v -44.09952926635742 -103.96968841552734 70.32933044433594
v -44.09952926635742 -103.96968841552734 72.85157775878906
v -37.080711364746094 -105.21967315673828 65.37832641601562
v -39.420318603515625 -104.80300903320312 64.50640869140625
v -39.420318603515625 -104.80300903320312 67.0286636352539
v -39.420318603515625 -104.80300903320312 68.28978729248047
v -41.759925842285156 -104.3863525390625 71.20124816894531
v -39.420318603515625 -104.80300903320312 69.55091094970703
v -41.759925842285156 -104.3863525390625 66.15674591064453
v -44.09952926635742 -103.96968841552734 65.28482818603516
v -41.759925842285156 -104.3863525390625 72.46237182617188
v -44.09952926635742 -103.96968841552734 67.80708312988281
v -34.74110412597656 -105.63633728027344 63.72799301147461
v -37.080711364746094 -105.21967315673828 66.0088882446289
v -37.080711364746094 -105.21967315673828 66.63945007324219
v -37.18458557128906 -105.01133728027344 70.38107299804688
v -36.01478576660156 -105.21967315673828 68.92533874511719
v -44.09952926635742 -103.96968841552734 75.37383270263672
v -38.354393005371094 -104.80300903320312 71.83680725097656
v -34.948856353759766 -105.21967315673828 71.21123504638672
v -40.69399642944336 -104.3863525390625 74.74826049804688
v -39.524192810058594 -104.59468078613281 73.29253387451172
v -37.2884635925293 -104.80300903320312 74.12269592285156
v -37.080711364746094 -105.21967315673828 64.11720275878906
v -31.543323516845703 -105.63633728027344 70.58566284179688
v -32.609249114990234 -105.63633728027344 68.29977416992188
v -41.759925842285156 -104.3863525390625 70.5706787109375
v -41.759925842285156 -104.3863525390625 64.89561462402344
v -33.882930755615234 -105.21967315673828 73.49713134765625
v -30.47739601135254 -105.63633728027344 72.8715591430664
v -32.71312713623047 -105.42800903320312 72.04139709472656
v -34.84497833251953 -105.42800903320312 67.46961212158203
v -33.67517852783203 -105.63633728027344 66.01388549804688
v -41.759925842285156 -104.3863525390625 64.89561462402344
v -39.420318603515625 -104.80300903320312 64.50640869140625
v -39.42035675048828 -103.89857482910156 64.50633239746094
v -35.15296936035156 -103.82730865478516 62.84475326538086
v -37.389610290527344 -103.41390991210938 63.211181640625
v -37.389610290527344 -103.41390991210938 63.45477294921875
v -39.626251220703125 -103.00050354003906 63.577606201171875
v -30.06560707092285 -103.82905578613281 73.75463104248047
v -33.677032470703125 -103.4148178100586 73.93865966796875
v -37.08256912231445 -103.00137329101562 74.5642318725586
v -30.477394104003906 -103.82745361328125 72.8715591430664
v -39.42035675048828 -103.00057983398438 64.50633239746094
v -41.75994110107422 -102.58714294433594 64.89558410644531
v -41.75994110107422 -103.48513793945312 64.89558410644531
v -44.09952926635742 -102.1737060546875 65.28482818603516
v -41.862892150878906 -102.58710479736328 64.6748046875
v -40.693992614746094 -103.93412780761719 74.74826049804688
v -38.99122619628906 -104.1424560546875 74.43548583984375
v -44.09952926635742 -103.96968841552734 75.37383270263672
v -37.28845977783203 -103.89857482910156 74.12269592285156
v -37.28845977783203 -104.35079193115234 74.12269592285156
v -37.2884635925293 -104.80300903320312 74.12269592285156
v -40.69399642944336 -104.3863525390625 74.74826049804688
v -33.88292694091797 -104.31523132324219 73.49713134765625
v -44.09952926635742 -103.96968841552734 65.28482818603516
v -41.75994110107422 -103.93412780761719 64.89558410644531
v -34.741180419921875 -103.82746124267578 63.72783279418945
v -37.08076858520508 -103.41401672363281 64.11708068847656
v -37.08076858520508 -103.86302185058594 64.11708068847656
v -37.08074951171875 -104.31523132324219 64.11711883544922
v -41.862892150878906 -102.58709716796875 63.944034576416016
v -41.862892150878906 -102.58709716796875 64.1876220703125
v -39.626251220703125 -103.00050354003906 64.06478881835938
v -44.09952926635742 -102.17369842529297 64.31046295166016
v -37.28666305541992 -103.4139404296875 63.67554473876953
v -44.09952926635742 -102.17369842529297 75.37383270263672
v -44.099525451660156 -102.17369079589844 76.34820556640625
v -40.59104537963867 -102.58753204345703 75.69981384277344
v -33.882930755615234 -105.21967315673828 73.49713134765625
v -30.47739601135254 -105.63633728027344 72.8715591430664
v -37.28845977783203 -103.00057983398438 74.12269592285156
v -37.080711364746094 -105.21967315673828 64.11720275878906
v -34.74110412597656 -105.63633728027344 63.72799301147461
v -40.693992614746094 -103.48513793945312 74.74826049804688
v -40.693992614746094 -102.58714294433594 74.74826049804688
v -38.13984298706055 -103.57071685791016 74.27908325195312
v -35.585693359375 -103.65629577636719 73.80990600585938
v -33.88292694091797 -103.8630142211914 73.49713134765625
v -40.59104919433594 -102.58753967285156 75.21263122558594
v -37.08256530761719 -103.00137329101562 75.05142211914062
v -33.88292694091797 -103.41401672363281 73.49713134765625
v -33.5740852355957 -103.41521453857422 74.40303039550781
v -33.421669006347656 -98.0174560546875 75.005859375
v -33.35596466064453 -97.94803619384766 75.14676666259766
v -29.862382888793945 -98.50076293945312 74.1904525756836
v -36.849544525146484 -97.39530944824219 76.10308074951172
v -33.22455596923828 -97.80918884277344 75.42857360839844
v -40.4744987487793 -98.43977355957031 76.31121063232422
v -40.4744987487793 -98.50921630859375 76.46669006347656
v -44.099525451660156 -97.9564437866211 76.83015441894531
v -36.84947204589844 -99.06198120117188 76.10323333740234
v -40.47449493408203 -98.64810180664062 76.77766418457031
v -35.201297760009766 -98.01885986328125 75.18036651611328
v -33.42164611816406 -98.36467742919922 74.85043334960938
v -36.98090744018555 -98.22859191894531 75.51040649414062
v -29.862382888793945 -98.50076293945312 74.1904525756836
v -33.42159652709961 -98.92022705078125 74.85052490234375
v -36.980953216552734 -97.67304229736328 75.51029968261719
v -36.98090744018555 -98.7841567993164 75.51040649414062
v -40.54021453857422 -98.09251403808594 76.17028045654297
v -44.099525451660156 -97.9564437866211 76.83015441894531
v -40.54021453857422 -97.53695678710938 76.17028045654297
v -39.72831726074219 -97.53321838378906 62.80677795410156
v -37.73986053466797 -97.80764770507812 62.184085845947266
v -39.85974884033203 -97.394287109375 62.52491760253906
v -35.619972229003906 -98.22100830078125 61.84325408935547
v -39.85968017578125 -98.92205810546875 62.836036682128906
v -41.9796028137207 -98.6475830078125 62.86582565307617
v -39.85968017578125 -99.06094360351562 62.52506637573242
v -44.099525451660156 -98.23421478271484 63.20658493041992
v -35.61983871459961 -99.8876724243164 61.84354782104492
v -39.728271484375 -98.78321838378906 63.11783981323242
v -33.224449157714844 -99.47586059570312 75.42880249023438
v -33.224449157714844 -99.40641784667969 75.2733154296875
v -29.599422454833984 -99.8897476196289 74.7543716430664
v -41.979637145996094 -96.98092651367188 62.865753173828125
v -44.099525451660156 -96.56755828857422 63.20658493041992
v -37.870758056640625 -97.77790832519531 75.67532348632812
v -37.54264831542969 -98.9188232421875 62.76249694824219
v -37.54264831542969 -99.19660949707031 62.76249694824219
v -36.44983673095703 -99.264404296875 62.58482360839844
v -44.09952163696289 -98.23421478271484 77.45209503173828
v -29.599565505981445 -98.22306823730469 74.75406646728516
v -44.09952163696289 -96.8453369140625 63.82852554321289
v -44.09952163696289 -97.9564437866211 63.82852554321289
v -41.91389465332031 -97.5364990234375 63.473182678222656
v -29.862287521362305 -99.61186981201172 74.1906509399414
v -39.72831344604492 -97.67210388183594 63.11774826049805
v -39.728271484375 -98.2276611328125 63.11783981323242
v -39.728271484375 -98.78321838378906 63.11783981323242
v -40.54023742675781 -97.05085754394531 76.63668823242188
v -44.099525451660156 -96.84532165527344 76.83015441894531
v -44.09952163696289 -96.56755065917969 77.45209503173828
v -36.980953216552734 -97.5341567993164 75.82127380371094
v -29.862287521362305 -99.61186981201172 74.1906509399414
v -36.84947204589844 -98.923095703125 75.79226684570312
v -44.099525451660156 -96.84532165527344 76.83015441894531
v -41.913917541503906 -97.11982727050781 63.162166595458984
v -44.09952163696289 -96.8453369140625 63.82852554321289
v -39.72831344604492 -97.67210388183594 63.11774826049805
v -35.35702133178711 -99.60999298095703 62.40715408325195
v -37.54264831542969 -99.19660949707031 62.76249694824219
v -41.97959899902344 -98.43925476074219 63.33228302001953
v -44.09952163696289 -97.9564437866211 63.82852554321289
v -37.54270935058594 -98.01605224609375 62.60687255859375
v -35.35710525512695 -98.4988784790039 62.4069709777832
v -36.98090744018555 -98.7841567993164 75.51040649414062
v -36.980953216552734 -97.67304229736328 75.51029968261719
v -41.91389465332031 -98.36982727050781 63.473182678222656
v -41.91389465332031 -98.36982727050781 63.473182678222656
v -37.54270935058594 -98.08549499511719 62.762359619140625
v -37.54270935058594 -98.08549499511719 62.762359619140625
v -40.47453308105469 -96.98143005371094 76.777587890625
v -37.73976135253906 -99.47430419921875 62.18430709838867
v -40.54021453857422 -98.37030029296875 76.17028045654297
v -40.54021453857422 -98.37030029296875 76.17028045654297
v -40.54023742675781 -97.25918579101562 76.17022705078125
v -40.54023742675781 -97.18974304199219 76.32571411132812
v -40.54023742675781 -97.25918579101562 76.17022705078125
v -33.42159652709961 -99.19801330566406 74.85052490234375
v -33.35588073730469 -99.26748657226562 74.991455078125
v -33.42159652709961 -99.19801330566406 74.85052490234375
v -41.91389465332031 -98.09205627441406 63.473182678222656
v -35.35710525512695 -98.4988784790039 62.4069709777832
v -35.35702133178711 -99.60999298095703 62.40715408325195
v -37.542686462402344 -98.36326599121094 62.76240539550781
v -31.305635452270508 -94.99281311035156 71.09538269042969
v -29.9986572265625 -94.56234741210938 73.89820098876953
v -31.28750228881836 -93.93692016601562 71.13426971435547
v -31.37028694152832 -96.72137451171875 70.95674133300781
v -32.612613677978516 -95.42327880859375 68.29255676269531
v -44.09952926635742 -93.33806610107422 73.41539764404297
v -44.09952926635742 -93.7691650390625 70.32228088378906
v -44.09952163696289 -91.65699768066406 70.409423828125
v -44.099525451660156 -92.281982421875 67.35987854003906
v -44.099525451660156 -96.56755828857422 63.20658493041992
v -44.099525451660156 -92.90696716308594 64.31034088134766
v -44.09952163696289 -96.8453369140625 63.82852554321289
v -34.73147964477539 -98.90185546875 63.74863052368164
v -34.60572052001953 -97.60888671875 64.01832580566406
v -35.35710525512695 -98.4988784790039 62.4069709777832
v -33.85433578491211 -96.7188949584961 65.62967681884766
v -44.09952926635742 -97.24827575683594 75.34416198730469
v -44.099525451660156 -97.9564437866211 76.83015441894531
v -44.09952926635742 -100.114990234375 76.1108169555664
v -32.57634735107422 -93.31148529052734 68.3703384399414
v -33.86508560180664 -93.93603515625 65.60662841796875
v -35.15382385253906 -94.56058502197266 62.84291076660156
v -44.09952163696289 -98.23421478271484 77.45209503173828
v -44.09952926635742 -92.90696716308594 76.50851440429688
v -44.09952163696289 -96.56755065917969 77.45209503173828
v -44.099525451660156 -96.84532165527344 76.83015441894531
v -44.09952163696289 -97.9564437866211 63.82852554321289
v -44.09952926635742 -97.24810028076172 65.30776977539062
v -44.09952926635742 -100.108642578125 64.53382873535156
v -44.099525451660156 -93.33806610107422 67.31631469726562
v -44.09952926635742 -95.06513977050781 67.38326263427734
v -33.883216857910156 -94.99192810058594 65.56773376464844
v -44.09952926635742 -102.1737060546875 65.28482818603516
v -44.09952926635742 -102.17369842529297 64.31046295166016
v -44.099525451660156 -98.23421478271484 63.20658493041992
v -44.099525451660156 -92.281982421875 73.45896911621094
v -44.09952926635742 -95.06761932373047 73.26103210449219
v -34.50408172607422 -95.63973999023438 64.23629760742188
v -44.09952926635742 -102.17369842529297 75.37383270263672
v -44.099525451660156 -102.17369079589844 76.34820556640625
v -29.862382888793945 -98.50076293945312 74.1904525756836
v -30.489919662475586 -98.90203094482422 72.84469604492188
v -30.06560707092285 -103.82905578613281 73.75463104248047
v -29.599422454833984 -99.8897476196289 74.7543716430664
v -30.16592025756836 -101.76874542236328 73.53952026367188
v -29.862287521362305 -99.61186981201172 74.1906509399414
v -30.477394104003906 -103.82745361328125 72.8715591430664
v -35.35702133178711 -99.60999298095703 62.40715408325195
v -35.05864334106445 -101.76234436035156 63.04702377319336
v -34.741180419921875 -103.82746124267578 63.72783279418945
v -35.15296936035156 -103.82730865478516 62.84475326538086
v -35.61983871459961 -99.8876724243164 61.84354782104492
v -35.619972229003906 -98.22100830078125 61.84325408935547
v -29.599565505981445 -98.22306823730469 74.75406646728516
v -44.099525451660156 -100.2039566040039 63.758522033691406
v -32.57634735107422 -93.31148529052734 68.3703384399414
v -31.28750228881836 -93.93692016601562 71.13426971435547
v -34.812721252441406 -93.5230712890625 71.78684997558594
v -33.424102783203125 -95.97882843017578 75.00064086914062
v -33.22455596923828 -97.80918884277344 75.42857360839844
v -36.849544525146484 -97.39530944824219 76.10308074951172
v -33.52387619018555 -94.14849853515625 74.55078125
v -37.049095153808594 -93.73465728759766 75.20335388183594
v -38.33793640136719 -93.10922241210938 72.43942260742188
v -41.218727111816406 -92.38311004638672 71.42442321777344
v -38.33793640136719 -92.48423767089844 69.38987731933594
v -41.21873474121094 -93.00809478759766 74.47396850585938
v -35.4571418762207 -93.21035766601562 70.40487670898438
v -29.9986572265625 -94.56234741210938 73.89820098876953
v -29.599565505981445 -98.22306823730469 74.75406646728516
v -31.51183319091797 -97.1009521484375 74.87734985351562
v -40.574310302734375 -95.15110778808594 76.32772827148438
v -40.574310302734375 -93.32081604003906 75.8559341430664
v -37.049095153808594 -93.73465728759766 75.20335388183594
v -40.574310302734375 -93.32081604003906 75.8559341430664
v -44.09952926635742 -92.90696716308594 76.50851440429688
v -44.09952163696289 -96.56755065917969 77.45209503173828
v -44.09952926635742 -92.90696716308594 76.50851440429688
v -42.33692169189453 -94.02903747558594 76.41812133789062
v -39.133914947509766 -93.37137603759766 74.83866119384766
v -35.28648376464844 -94.85672760009766 75.11296081542969
v -33.52387619018555 -94.6060791015625 74.66873168945312
v -32.40568923950195 -94.04270935058594 72.842529296875
v -44.099525451660156 -92.281982421875 73.45896911621094
v -44.09952163696289 -91.65699768066406 70.409423828125
v -42.65912628173828 -92.33255004882812 72.44169616699219
v -41.21873092651367 -92.69560241699219 66.85011291503906
v -41.218727111816406 -92.38311004638672 68.3748779296875
v -44.099525451660156 -92.281982421875 67.35987854003906
v -38.33793640136719 -93.10922241210938 66.34033966064453
v -41.21873092651367 -93.00809478759766 65.3253402709961
v -41.218727111816406 -92.07061767578125 69.89965057373047
v -41.218727111816406 -92.07061767578125 69.89965057373047
v -41.86309814453125 -92.38289642333984 68.51779174804688
v -38.33793640136719 -92.48423767089844 69.38987731933594
v -44.09952163696289 -91.65699768066406 70.409423828125
v -35.4571418762207 -92.89785766601562 68.88011169433594
v -35.4571418762207 -93.21035766601562 67.35533905029297
v -35.4571418762207 -92.89785766601562 68.88011169433594
v -36.10150909423828 -93.21014404296875 67.49825286865234
v -32.57634735107422 -93.31148529052734 68.3703384399414
v -39.626670837402344 -93.10879516601562 66.62616729736328
v -37.3902473449707 -93.83468627929688 64.73454284667969
v -36.745880126953125 -93.52241516113281 66.11639404296875
v -33.86508560180664 -93.93603515625 65.60662841796875
v -35.62766647338867 -93.88536071777344 65.17058563232422
v -35.15382385253906 -94.56058502197266 62.84291076660156
v -39.62667465209961 -93.73377990722656 63.57662582397461
v -41.86309814453125 -93.32037353515625 63.9434814453125
v -41.86309814453125 -95.15066528320312 63.391605377197266
v -44.099525451660156 -92.90696716308594 64.31034088134766
v -44.099525451660156 -92.90696716308594 64.31034088134766
v -41.86309814453125 -93.32037353515625 63.9434814453125
v -39.62667465209961 -93.73377990722656 63.57662582397461
v -41.86309814453125 -93.32037353515625 63.9434814453125
v -41.86309814453125 -93.00788116455078 65.46825408935547
v -44.099525451660156 -92.90696716308594 64.31034088134766
v -39.62667465209961 -93.73377990722656 63.57662582397461
v -41.86309814453125 -96.06581115722656 63.11566925048828
v -39.85974884033203 -97.394287109375 62.52491760253906
v -39.62667465209961 -95.56407165527344 63.024749755859375
v -44.099525451660156 -96.56755828857422 63.20658493041992
v -37.39025115966797 -95.06233215332031 62.93383026123047
v -37.623321533203125 -96.89253997802734 62.43400192260742
v -35.15382385253906 -94.56058502197266 62.84291076660156
v -37.39025115966797 -94.14718627929688 63.20977020263672
v -41.86309814453125 -92.69538879394531 66.99302673339844
v -44.099525451660156 -92.281982421875 67.35987854003906
v -36.10150909423828 -93.52262878417969 65.97348022460938
v -36.745880126953125 -93.83489990234375 64.59162902832031
v -33.86508560180664 -93.93603515625 65.60662841796875
v -37.73986053466797 -97.80764770507812 62.184085845947266
v -35.619972229003906 -98.22100830078125 61.84325408935547
v -33.52387237548828 -95.06364440917969 74.78667449951172
v -37.04908752441406 -95.56494903564453 75.6751480102539
v -38.761810302734375 -96.273193359375 76.22636413574219
v -40.47453308105469 -96.98143005371094 76.777587890625
v -36.09295654296875 -96.12600708007812 75.6135025024414
v -37.049095153808594 -94.6498031616211 75.43925476074219
v -40.574302673339844 -96.06625366210938 76.5636215209961
v -41.979637145996094 -96.98092651367188 62.865753173828125
v -41.4306640625 -96.42037200927734 76.8392333984375
v -37.04909133911133 -95.10737609863281 75.55720520019531
v -37.39025115966797 -94.14718627929688 63.20977020263672
v -41.862884521484375 -99.63249206542969 63.116127014160156
v -41.9796028137207 -98.6475830078125 62.86582565307617
v -44.099525451660156 -98.23421478271484 63.20658493041992
v -40.591041564941406 -99.63291931152344 76.52772521972656
v -42.34528350830078 -100.90330505371094 76.4379653930664
v -44.09952163696289 -98.23421478271484 77.45209503173828
v -33.34099578857422 -100.460693359375 75.17886352539062
v -31.586753845214844 -101.16004943847656 74.71669006347656
v -33.5740852355957 -102.43034362792969 74.67900085449219
v -29.599422454833984 -99.8897476196289 74.7543716430664
v -30.06560707092285 -103.82905578613281 73.75463104248047
v -37.08256530761719 -101.03163146972656 75.60336303710938
v -40.59104537963867 -101.6026611328125 75.97578430175781
v -39.713924407958984 -100.96746826171875 76.02066040039062
v -37.08256530761719 -103.00137329101562 75.05142211914062
v -40.59104537963867 -102.58753204345703 75.69981384277344
v -37.389610290527344 -102.42903137207031 62.935211181640625
v -37.389610290527344 -103.41390991210938 63.211181640625
v -35.15296936035156 -103.82730865478516 62.84475326538086
v -37.18060302734375 -99.82388305664062 62.16168975830078
v -35.61983871459961 -99.8876724243164 61.84354782104492
v -37.73976135253906 -99.47430419921875 62.18430709838867
v -38.741363525390625 -99.76008605957031 62.479835510253906
v -39.85968017578125 -99.06094360351562 62.52506637573242
v -39.62624740600586 -101.03076171875 63.02566909790039
v -37.623043060302734 -100.45921325683594 62.434608459472656
v -40.3021240234375 -99.6962890625 62.79798126220703
v -39.626251220703125 -103.00050354003906 63.577606201171875
v -44.099525451660156 -102.17369079589844 76.34820556640625
v -41.86288833618164 -101.60223388671875 63.668067932128906
v -44.09952926635742 -102.17369842529297 64.31046295166016
v -41.862892150878906 -102.58709716796875 63.944034576416016
v -44.099525451660156 -100.2039566040039 63.758522033691406
v -40.47449493408203 -98.64810180664062 76.77766418457031
v -42.98120880126953 -100.90309143066406 63.713294982910156
v -36.84947204589844 -99.06198120117188 76.10323333740234
v -33.5740852355957 -103.41521453857422 74.40303039550781
v -33.224449157714844 -99.47586059570312 75.42880249023438
vn 0.31200405955314636 0.9499082565307617 0.01810074783861637
vn 0.3292343020439148 0.9300667643547058 0.16303546726703644
vn 0.37719354033470154 0.9229372143745422 -0.07688900083303452
vn 0.4579342305660248 0.8885107040405273 -0.029067963361740112
vn 0.40255334973335266 0.8605101704597473 -0.3122066855430603
vn 0.025425376370549202 0.8597154021263123 0.5101401209831238
vn 0.16713151335716248 0.7735551595687866 0.611293375492096
vn 0.18236254155635834 0.9202884435653687 0.3461402654647827
vn 0.16162225604057312 0.9663599133491516 0.2000669240951538
vn 0.2682611346244812 0.9538659453392029 -0.13481764495372772
vn 0.11835168302059174 0.9916908740997314 0.05042002350091934
vn 0.32286375761032104 0.8373134136199951 0.44120872020721436
vn 0.451850563287735 0.7244769930839539 0.5205421447753906
vn 0.22994881868362427 0.9331611394882202 -0.27628564834594727
vn 0.47484010457992554 0.8418598175048828 0.2565130293369293
vn -0.13291512429714203 0.7516909837722778 0.645983099937439
vn 0.014988424256443977 0.897020161151886 0.4417353868484497
vn -0.007757306098937988 0.9286230206489563 0.3709433972835541
vn -0.024485556408762932 0.9966194033622742 -0.0784226804971695
vn -0.1124977171421051 0.989282488822937 0.09308280050754547
vn 0.31335049867630005 0.7602107524871826 -0.5691142678260803
vn 0.030118603259325027 0.9657963514328003 -0.2575463652610779
vn -0.16641616821289062 0.9646461009979248 -0.20436161756515503
vn 0.1284548044204712 0.8153591156005859 -0.5645253658294678
vn 0.08612816780805588 0.9052159190177917 -0.41613250970840454
vn -0.06122568994760513 0.8401363492012024 -0.5389085412025452
vn 0.01730775460600853 0.7715187668800354 0.6359711289405823
vn -0.3993000388145447 0.9034424424171448 -0.15604861080646515
vn -0.3371465504169464 0.9323474764823914 0.13061511516571045
vn 0.29456454515457153 0.9538362622261047 -0.058549851179122925
vn 0.3131011426448822 0.7577530145645142 0.5725189447402954
vn -0.24862556159496307 0.8336193561553955 -0.49321794509887695
vn -0.42676448822021484 0.7960512042045593 -0.4291556775569916
vn -0.3021848201751709 0.8969544768333435 -0.3227335512638092
vn -0.17615185678005219 0.9504486322402954 0.2561596930027008
vn -0.2457035630941391 0.8802552223205566 0.4059317409992218
vn 0.3131011426448822 0.7577530145645142 0.5725189447402954
vn 0.16713151335716248 0.7735551595687866 0.611293375492096
vn 0.003959492314606905 0.6488497853279114 0.7609061598777771
vn 0.1817535012960434 0.9833441376686096 -5.100041562400293e-7
vn 0.1817535012960434 0.9833441376686096 -5.100041562400293e-7
vn 0.37978121638298035 0.9126855731010437 0.15090115368366241
vn 0.1817535012960434 0.9833441376686096 -5.100041562400293e-7
vn 0.11714223772287369 0.9931151270866394 0
vn 0.004695090930908918 0.9257836937904358 -0.3780243694782257
vn 0.474180668592453 0.8162440061569214 -0.32999756932258606
vn -0.8388757109642029 0.4600139558315277 -0.2909892201423645
vn 0.21380828320980072 0.4980897605419159 0.8403527736663818
vn 0.5257401466369629 0.46185302734375 0.7143452167510986
vn 0.3419347405433655 0.6280064582824707 0.699062705039978
vn 0.7774787545204163 0.3727376163005829 0.5065505504608154
vn 0.6879647970199585 0.5968036651611328 0.41295263171195984
vn -0.009877094067633152 0.8089569211006165 -0.587785005569458
vn -0.10464116930961609 0.8167778253555298 -0.5673836469650269
vn 0.31335049867630005 0.7602107524871826 -0.5691142678260803
vn -0.33204585313796997 0.7709821462631226 -0.5434445142745972
vn -0.19842353463172913 0.8154310584068298 -0.5437832474708557
vn -0.06122568994760513 0.8401363492012024 -0.5389085412025452
vn 0.1284548044204712 0.8153591156005859 -0.5645253658294678
vn -0.5040150880813599 0.728023886680603 -0.4647042751312256
vn 0.451850563287735 0.7244769930839539 0.5205421447753906
vn 0.23582309484481812 0.7105200290679932 0.6629847288131714
vn -0.4449772834777832 0.40186092257499695 0.8003143072128296
vn -0.12260306626558304 0.47729891538619995 0.8701460957527161
vn -0.2281700223684311 0.5436077117919922 0.8077309131622314
vn -0.1495559811592102 0.632690966129303 0.7598257660865784
vn 0.1817535012960434 0.9833441376686096 -5.100041562400293e-7
vn 0.37978121638298035 0.9126855731010437 0.15090115368366241
vn 0.552371621131897 0.7808964252471924 0.29169562458992004
vn 0.1817535012960434 0.9833441376686096 -5.100041562400293e-7
vn 0.22622719407081604 0.8472522497177124 0.48060891032218933
vn 0.7043007612228394 0.4208984971046448 -0.5716685652732849
vn 0.11714223772287369 0.9931151270866394 0
vn 0.11714224517345428 0.9931151866912842 0
vn -0.24862556159496307 0.8336193561553955 -0.49321794509887695
vn -0.42676448822021484 0.7960512042045593 -0.4291556775569916
vn -0.10850364714860916 0.7102526426315308 -0.6955344676971436
vn 0.01730775460600853 0.7715187668800354 0.6359711289405823
vn -0.13291512429714203 0.7516909837722778 0.645983099937439
vn 0.10503501445055008 0.7539785504341125 -0.6484472751617432
vn 0.3309840261936188 0.6283900737762451 -0.7039711475372314
vn -0.16958963871002197 0.7627673745155334 -0.6240394711494446
vn -0.43130993843078613 0.7135159373283386 -0.5521475076675415
vn -0.6186189651489258 0.6503574848175049 -0.44084641337394714
vn 0.474180668592453 0.8162440657615662 -0.32999756932258606
vn 0.11714225262403488 0.993115246295929 0
vn -0.5262990593910217 0.650119960308075 -0.5480449795722961
vn 0.11714224517345428 0.9931151866912842 0
vn 0.030544817447662354 0.912647008895874 -0.4076057970523834
vn 0.027537642046809196 0.9080312252044678 -0.417996346950531
vn 0.030544817447662354 0.912647008895874 -0.4076057970523834
vn 0.02452665939927101 0.9032899141311646 -0.42832911014556885
vn 0.021512286737561226 0.8984236717224121 -0.43860265612602234
vn -0.17451317608356476 -0.9130281805992126 -0.3686796724796295
vn -0.17522257566452026 -0.9095334410667419 -0.3768899142742157
vn -0.17451317608356476 -0.9130281805992126 -0.3686796724796295
vn -0.17591793835163116 -0.9059658646583557 -0.38506993651390076
vn -0.1765991896390915 -0.9023256301879883 -0.39321911334991455
vn -0.1823239028453827 -0.00018959133012685925 -0.9832385182380676
vn -0.1823239028453827 -0.00018959133012685925 -0.9832385182380676
vn -0.1823239028453827 -0.00018959133012685925 -0.9832385182380676
vn -0.1823239028453827 -0.00018959133012685925 -0.9832385182380676
vn -0.1823239028453827 -0.00018959133012685925 -0.9832385182380676
vn -0.1823239028453827 -0.00018959133012685925 -0.9832385182380676
vn -0.18230609595775604 -0.00009479567961534485 -0.9832419157028198
vn -0.18230609595775604 -0.00009479567961534485 -0.9832419157028198
vn -0.1822882741689682 0 -0.9832451343536377
vn -0.1823239028453827 -0.00018959133012685925 -0.9832385182380676
vn 0.2324609011411667 0.8880569934844971 0.39663171768188477
vn 0.23250386118888855 0.9055752158164978 0.35478952527046204
vn 0.2325427234172821 0.8999411463737488 0.3688223361968994
vn 0.23241184651851654 0.9110021591186523 0.34067556262016296
vn -0.08883011341094971 -0.876444399356842 0.4732382893562317
vn -0.10610572248697281 -0.9001361131668091 0.42248842120170593
vn -0.10038477182388306 -0.8925786018371582 0.4395749866962433
vn -0.11178615689277649 -0.9073499441146851 0.405240535736084
vn -0.08883011341094971 -0.876444399356842 0.4732382893562317
vn -0.08883011341094971 -0.876444399356842 0.4732382893562317
vn -0.17522257566452026 -0.9095334410667419 -0.3768899142742157
vn -0.17451317608356476 -0.9130281805992126 -0.3686796724796295
vn -0.17451317608356476 -0.9130281805992126 -0.3686796724796295
vn 0.23252838850021362 0.8941013216972351 0.3827707767486572
vn 0.2324609011411667 0.8880569934844971 0.39663171768188477
vn -0.1823239028453827 -0.00018959133012685925 -0.9832385182380676
vn 0.16052880883216858 0.00017490402387920767 0.9870311617851257
vn 0.16051533818244934 0.00013117802154738456 0.9870333671569824
vn 0.16052880883216858 0.00017490402387920767 0.9870311617851257
vn -0.17726628482341766 -0.8986130952835083 -0.40133678913116455
vn 0.01849493384361267 0.8934330344200134 -0.4488154649734497
vn 0.16052880883216858 0.00017490402387920767 0.9870311617851257
vn 0.16047494113445282 0 0.9870399236679077
vn 0.16052880883216858 0.00017490402387920767 0.9870311617851257
vn -0.1823239028453827 -0.00018959133012685925 -0.9832385182380676
vn 0.16052880883216858 0.00017490402387920767 0.9870311617851257
vn 0.16052880883216858 0.00017490402387920767 0.9870311617851257
vn 0.1605018824338913 0.00008745201921556145 0.9870356321334839
vn 0.030544817447662354 0.912647008895874 -0.4076057970523834
vn 0.030544817447662354 0.912647008895874 -0.4076057970523834
vn 0.030544817447662354 0.912647008895874 -0.4076057970523834
vn 0.030544817447662354 0.912647008895874 -0.4076057970523834
vn -0.17451317608356476 -0.9130281805992126 -0.3686796724796295
vn -0.17451317608356476 -0.9130281805992126 -0.3686796724796295
vn -0.1823239028453827 -0.00018959133012685925 -0.9832385182380676
vn 0.2324609011411667 0.8880569934844971 0.39663171768188477
vn 0.2324609011411667 0.8880569934844971 0.39663171768188477
vn 0.2324609011411667 0.8880569934844971 0.39663171768188477
vn -0.08883011341094971 -0.876444399356842 0.4732382893562317
vn -0.08883011341094971 -0.876444399356842 0.4732382893562317
vn -0.08883011341094971 -0.876444399356842 0.4732382893562317
vn -0.08883011341094971 -0.876444399356842 0.4732382893562317
vn 0.2324609011411667 0.8880569934844971 0.39663171768188477
vn 0.2324609011411667 0.8880569934844971 0.39663171768188477
vn -0.17451317608356476 -0.9130281805992126 -0.3686796724796295
vn 0.030544817447662354 0.912647008895874 -0.4076057970523834
vn 0.16048841178417206 0.000043726009607780725 0.9870377779006958
vn -0.08883011341094971 -0.876444399356842 0.4732382893562317
vn 0.16052880883216858 0.00017490402387920767 0.9870311617851257
vn 0.2324609011411667 0.8880569934844971 0.39663171768188477
vn 0.027537642046809196 0.9080312252044678 -0.417996346950531
vn -0.09462551027536392 -0.8846803903579712 0.4564938247203827
vn -0.18229718506336212 -0.000047397839807672426 -0.9832435250282288
vn -0.17451317608356476 -0.9130281805992126 -0.3686796724796295
vn 0.030544817447662354 0.912647008895874 -0.4076057970523834
vn 0.030544817447662354 0.912647008895874 -0.4076057970523834
vn -0.1823239028453827 -0.00018959133012685925 -0.9832385182380676
vn -0.17451317608356476 -0.9130281805992126 -0.3686796724796295
vn -0.17451317608356476 -0.9130281805992126 -0.3686796724796295
vn -0.18231499195098877 -0.00014219350123312324 -0.9832402467727661
vn 0.1605018824338913 0.00008745201921556145 0.9870356321334839
vn 0.16052880883216858 0.00017490402387920767 0.9870311617851257
vn 0.16052880883216858 0.00017490402387920767 0.9870311617851257
vn 0.16052880883216858 0.00017490402387920767 0.9870311617851257
vn -0.8881078362464905 -0.20175449550151825 0.4129887521266937
vn -0.9063076376914978 -0.0000017096941746785888 0.4226185977458954
vn -0.9063079357147217 -0.0000016890940059965942 0.42261818051338196
vn -0.9313362836837769 -0.3081316351890564 0.1940816044807434
vn -0.833381712436676 -0.39520949125289917 0.3863734006881714
vn 0.9795089960098267 -0.20139750838279724 -0.0010299348505213857
vn 0.918876588344574 -0.39453989267349243 -0.002018438186496496
vn 1 -0.0000015959406027832301 -2.2887853390329838e-7
vn 1 -4.0154353087018535e-7 1.639780862205953e-7
vn 1 0.0000014488113038169104 -0.000004804944637726294
vn 1 7.928535410428594e-7 5.568347205553437e-7
vn 1 -0.000001731263182591647 0.000001820908209992922
vn -0.7569001317024231 -0.15114320814609528 0.6358128190040588
vn -0.8445069789886475 -0.15701566636562347 0.5120097994804382
vn -0.9063077569007874 -6.946241342120629e-7 0.4226182997226715
vn -0.7519121766090393 -0.3083052337169647 0.5827314853668213
vn 0.9488760828971863 -0.16212902963161469 -0.2708289921283722
vn 1 0 0
vn 0.9679628014564514 0.004000070504844189 -0.25106167793273926
vn -0.9063080549240112 -0.000001668493268880411 0.422617644071579
vn -0.9063080549240112 -5.620171350528835e-7 0.42261767387390137
vn -0.9063080549240112 5.444590556180628e-7 0.42261773347854614
vn 1 9.159549563264591e-7 -0.0000063405209402844775
vn 1 -0.000001637414243305102 7.763374014757574e-7
vn 1 4.010877603377594e-7 -0.000005631161002384033
vn 1 8.9748715481619e-7 4.470211933949031e-7
vn 1 0 0.000002292284534632927
vn 0.9546955227851868 -0.15117846429347992 0.2563231587409973
vn 0.9708582758903503 0.004176219925284386 0.23961789906024933
vn 0.9795092344284058 -0.20139631628990173 -0.0010300470748916268
vn 0.9278810620307922 -0.308001309633255 0.21017123758792877
vn -0.8881081342697144 -0.2017533779144287 0.4129883348941803
vn 0.7774787545204163 0.3727376163005829 0.5065505504608154
vn 1 -0.0000012655941645789426 -0.000003480052328086458
vn 1 -0.00000293295192932419 -0.000004142114448768552
vn 1 -0.000001616677423044166 2.7372942668080213e-7
vn 0.9264722466468811 -0.3073515295982361 -0.21721932291984558
vn -0.8445072770118713 -0.15701505541801453 0.5120095610618591
vn 0.7043007612228394 0.4208984971046448 -0.5716685652732849
vn 1 9.159549563264591e-7 -0.0000063405209402844775
vn -0.906307578086853 9.189441243506735e-7 0.42261871695518494
vn -0.9744777083396912 -0.1625324934720993 0.15484294295310974
vn -0.9063089489936829 5.065240884505329e-7 0.42261573672294617
vn -0.9063089489936829 5.065240884505329e-7 0.42261573672294617
vn -0.9835232496261597 0.004083999432623386 0.1807355135679245
vn -0.9063076376914978 -0.000002625979504955467 0.422618567943573
vn -0.8388757109642029 0.4600139558315277 -0.2909892201423645
vn -0.9063076376914978 4.996121560907341e-7 0.4226185977458954
vn -0.7786266803741455 0.004165908321738243 0.6274735927581787
vn -0.4449772834777832 0.40186092257499695 0.8003143072128296
vn -0.9063071012496948 0.000001041576751958928 0.42261967062950134
vn -0.906305730342865 0.0000016802827076389804 0.4226226806640625
vn -0.9063072800636292 3.3727465620359e-7 0.42261937260627747
vn -0.9063075184822083 9.275216825699317e-7 0.4226188063621521
vn 1 -0.0000020992729332647286 -0.0000038110833884275053
vn -0.14033056795597076 -0.9881395101547241 0.06235122308135033
vn -0.18787474930286407 -0.928207516670227 -0.3211447298526764
vn -0.18784891068935394 -0.9282291531562805 -0.32109740376472473
vn -0.21416859328746796 -0.5056599378585815 -0.8357270359992981
vn -0.20425288379192352 -0.24391606450080872 -0.9480431079864502
vn -0.20425288379192352 -0.24391606450080872 -0.9480431079864502
vn -0.20666886866092682 -0.7263718247413635 -0.6554936766624451
vn -0.20664885640144348 -0.726410984992981 -0.6554566025733948
vn -0.18782299757003784 -0.9282506108283997 -0.3210500478744507
vn -0.1671932488679886 -0.9724791646003723 -0.16226732730865479
vn -0.14120684564113617 -0.9894728064537048 0.031687017530202866
vn -0.20109525322914124 -0.8436446785926819 -0.4978196918964386
vn -0.16730423271656036 -0.9770431518554688 -0.13189375400543213
vn -0.20668888092041016 -0.7263326644897461 -0.6555307507514954
vn -0.20425288379192352 -0.24391606450080872 -0.9480431079864502
vn -0.21136775612831116 -0.3786521553993225 -0.9010806083679199
vn -0.21415120363235474 -0.5057089924812317 -0.8357019424438477
vn -0.20662882924079895 -0.7264500856399536 -0.6554195284843445
vn -0.20664885640144348 -0.726410984992981 -0.6554566025733948
vn -0.20662882924079895 -0.7264500856399536 -0.6554195284843445
vn -0.2066088169813156 -0.726489245891571 -0.6553824543952942
vn -0.20425288379192352 -0.24391606450080872 -0.9480431079864502
vn -0.2066088169813156 -0.726489245891571 -0.6553824543952942
vn -0.21255160868167877 -0.6224586367607117 -0.7532378435134888
vn -0.2048635184764862 -0.7888455390930176 -0.5794424414634705
vn -0.21258868277072906 -0.622369647026062 -0.7533008456230164
vn -0.21017061173915863 -0.6760880351066589 -0.7062105536460876
vn -0.201152503490448 -0.843567430973053 -0.4979274570941925
vn -0.1864292174577713 -0.9180090427398682 -0.35000497102737427
vn -0.14194999635219574 -0.9898733496665955 0.0009929444640874863
vn -0.1777101308107376 -0.9498302340507507 -0.25737464427948
vn -0.08446747809648514 -0.9144563674926758 0.39577123522758484
vn -0.11531282216310501 -0.9708516597747803 0.21011897921562195
vn -0.08540595322847366 -0.9203658103942871 0.38161835074424744
vn -0.08350905776023865 -0.9083309769630432 0.40983062982559204
vn -0.05048536881804466 -0.8227463960647583 0.5661622285842896
vn -0.14159511029720306 -0.9897897839546204 0.016341906040906906
vn -0.13298895955085754 -0.9677112698554993 0.21412308514118195
vn -0.14655274152755737 -0.9690605998039246 0.1986047625541687
vn -0.11936847120523453 -0.9659492373466492 0.2295500934123993
vn -0.14655274152755737 -0.9690605998039246 0.1986047625541687
vn -0.1407853215932846 -0.9889228343963623 0.047024670988321304
vn -0.11378907412290573 -0.9640725255012512 0.2400340735912323
vn -0.10569704324007034 -0.963775098323822 0.24487915635108948
vn -0.11936847120523453 -0.9659492373466492 0.2295500934123993
vn -0.09198050945997238 -0.9611896872520447 0.2601037323474884
vn -0.14655274152755737 -0.9690605998039246 0.1986047625541687
vn -0.14655274152755737 -0.9690605998039246 0.1986047625541687
vn -0.13298895955085754 -0.9677112698554993 0.21412308514118195
vn -0.11936847120523453 -0.9659492373466492 0.2295500934123993
vn -0.13298895955085754 -0.9677112698554993 0.21412308514118195
vn -0.14655274152755737 -0.9690605998039246 0.1986047625541687
vn -0.016631724312901497 -0.7076435089111328 0.706373929977417
vn -0.01621738262474537 -0.7088881731033325 0.7051345109939575
vn 0.043317072093486786 -0.5078838467597961 0.8603357672691345
vn -0.015802985057234764 -0.710130512714386 0.703892707824707
vn -0.015802985057234764 -0.710130512714386 0.703892707824707
vn -0.01621738262474537 -0.7088881731033325 0.7051345109939575
vn -0.016631724312901497 -0.7076435089111328 0.706373929977417
vn -0.14655274152755737 -0.9690605998039246 0.1986047625541687
vn -0.14655274152755737 -0.9690605998039246 0.1986047625541687
vn -0.14655274152755737 -0.9690605998039246 0.1986047625541687
vn -0.14655274152755737 -0.9690605998039246 0.1986047625541687
vn 0.07221414148807526 -0.39346277713775635 0.9164999723434448
vn 0.1003548726439476 -0.2739933431148529 0.9564813375473022
vn 0.04287008196115494 -0.5063758492469788 0.861246645450592
vn 0.1003548726439476 -0.2739933431148529 0.9564813375473022
vn 0.012811661697924137 -0.6108509302139282 0.7916419506072998
vn 0.07221414148807526 -0.39346277713775635 0.9164999723434448
vn -0.01746024191379547 -0.7051472663879395 0.7088459134101868
vn -0.017046010121703148 -0.7063965797424316 0.707611083984375
vn -0.14655274152755737 -0.9690605998039246 0.1986047625541687
vn -0.14655274152755737 -0.9690605998039246 0.1986047625541687
vn -0.08400540053844452 -0.9075685739517212 0.4114150106906891
vn -0.0513591431081295 -0.8207134008407593 0.5690271258354187
vn -0.08450146019458771 -0.9068031907081604 0.4129979908466339
vn 0.1003548726439476 -0.2739933431148529 0.9564813375473022
vn 0.1003548726439476 -0.2739933431148529 0.9564813375473022
vn -0.21259832382202148 -0.6223474144935608 -0.7533165216445923
vn -0.21416859328746796 -0.5056599378585815 -0.8357270359992981
vn -0.21136775612831116 -0.3786521553993225 -0.9010806083679199
vn -0.20425288379192352 -0.24391606450080872 -0.9480431079864502
vn -0.21331308782100677 -0.4432884454727173 -0.8706278800964355
vn -0.2125793993473053 -0.6223918795585632 -0.7532851099967957
vn -0.21136775612831116 -0.3786521553993225 -0.9010806083679199
vn 0.1003548726439476 -0.2739933431148529 0.9564813375473022
vn -0.208342507481575 -0.31208130717277527 -0.9269296526908875
vn -0.21392080187797546 -0.5654715895652771 -0.7965424060821533
vn -0.14655274152755737 -0.9690605998039246 0.1986047625541687
vn 0.20328885316848755 0.2641827464103699 0.9428049325942993
vn 0.20321662724018097 0.26406407356262207 0.9428538084030151
vn 0.20328885316848755 0.2641827464103699 0.9428049325942993
vn -0.1445913016796112 0.26698368787765503 -0.9527922868728638
vn -0.1445913016796112 0.26698368787765503 -0.9527922868728638
vn -0.1445913016796112 0.26698365807533264 -0.952792227268219
vn -0.14624525606632233 0.2633383572101593 -0.9535540342330933
vn -0.14624525606632233 0.2633383870124817 -0.9535540342330933
vn -0.1445913016796112 0.26698368787765503 -0.9527922868728638
vn -0.14789676666259766 0.25968867540359497 -0.9542999267578125
vn -0.1445913016796112 0.26698365807533264 -0.952792227268219
vn -0.1445913165807724 0.26698368787765503 -0.9527923464775085
vn -0.1445913016796112 0.26698368787765503 -0.9527922868728638
vn -0.1445913016796112 0.26698368787765503 -0.9527922868728638
vn -0.1445913165807724 0.26698368787765503 -0.9527923464775085
vn -0.1445913016796112 0.26698368787765503 -0.9527922868728638
vn 0.20328885316848755 0.2641827464103699 0.9428049325942993
vn 0.20328885316848755 0.2641827464103699 0.9428049325942993
vn 0.20328885316848755 0.2641827464103699 0.9428049325942993
vn 0.20307214558124542 0.2638266384601593 0.9429513216018677
vn 0.20299988985061646 0.2637079060077667 0.943000078201294
vn 0.20307214558124542 0.2638266384601593 0.9429513216018677
vn 0.2031444013118744 0.2639453709125519 0.9429026246070862
vn 0.2031444013118744 0.2639453709125519 0.9429026246070862
vn 0.20328885316848755 0.2641827464103699 0.9428049325942993
vn 0.2031444013118744 0.2639453709125519 0.9429026246070862
vn 0.20321662724018097 0.26406407356262207 0.9428538084030151
vn 0.20328885316848755 0.2641827464103699 0.9428049325942993
vn -0.1445913016796112 0.26698365807533264 -0.952792227268219
vn 0.20328885316848755 0.2641827464103699 0.9428049325942993
vn 0.20328885316848755 0.2641827464103699 0.9428049325942993
vn 0.20328885316848755 0.2641827464103699 0.9428049325942993
vn 0.20328885316848755 0.2641827464103699 0.9428049325942993
vn -0.14541859924793243 0.2651616036891937 -0.9531751275062561
vn 0.20328885316848755 0.2641827464103699 0.9428049325942993
vn -0.14624525606632233 0.2633383870124817 -0.9535539746284485
vn -0.1445913016796112 0.26698368787765503 -0.9527922868728638
vn -0.14707131683826447 0.2615140974521637 -0.9539289474487305
vt 0.2924683690071106 0.8052284270524979
vt 0.406045138835907 0.7875108122825623
vt 0.24164308607578278 0.9083804115653038
vt 0.30439457297325134 0.9938147962093353
vt 0.07724103331565857 1.0292500108480453
vt 0.6093462109565735 0.3749028444290161
vt 0.734849214553833 0.5457716286182404
vt 0.5076956748962402 0.5812068283557892
vt 0.39411890506744385 0.598924458026886
vt 0.17889158427715302 0.8229460418224335
vt 0.28054213523864746 0.6166420578956604
vt 0.633198618888855 0.7520755976438522
vt 0.7587016224861145 0.9229443669319153
vt 0.06531482934951782 0.8406636416912079
vt 0.5315480828285217 0.9583795815706253
vt 0.7109967470169067 0.16859889030456543
vt 0.5525578260421753 0.3837616443634033
vt 0.4957694411277771 0.3926204442977905
vt 0.1609044075012207 0.45323967933654785
vt 0.2685180604457855 0.3412288427352905
vt -0.149912491440773 1.0646852254867554
vt 0.05329076945781708 0.5652504563331604
vt 0.04126669466495514 0.2898372411727905
vt -0.16193655133247375 0.7892720401287079
vt -0.05432289093732834 0.677261233329773
vt -0.1739606112241745 0.5138588547706604
vt 0.7229229807853699 0.3571852445602417
vt 0.0292426198720932 0.01442408561706543
vt 0.2564939856529236 0.06581568717956543
vt 0.2356799691915512 0.8140872418880463
vt 0.7467753887176514 0.734358012676239
vt -0.18598467111587524 0.23844563961029053
vt -0.198008731007576 -0.03696751594543457
vt -0.07837101817131042 0.12643486261367798
vt 0.37613171339035034 0.22921806573867798
vt 0.48374536633491516 0.11720728874206543
vt -0.19021499156951904 0.5
vt -0.19021499156951904 1
vt -0.09510749578475952 1
vt 0.057545896619558334 2
vt 0.057545896619558334 1.5
vt 0.043159421533346176 1.5
vt 0.057545896619558334 1
vt 0.057545896619558334 2
vt 0.028772948309779167 1.5
vt 0.028772948309779167 1
vt 0 2
vt 0 1
vt 0 0.5
vt -0.09510749578475952 0.5
vt 0 0
vt 0.014386474154889584 0.5
vt -0.14266124367713928 0.5
vt -0.14266124367713928 0.75
vt -0.19021499156951904 0
vt -0.09510749578475952 1
vt -0.14266124367713928 1
vt -0.19021499156951904 1
vt -0.19021499156951904 0.5
vt -0.09510749578475952 1.5
vt -0.19021499156951904 0
vt -0.14266124367713928 0.5
vt 0 2
vt 0 1.5
vt -0.04755374789237976 1.5
vt -0.09510749578475952 1.5
vt 0.057545896619558334 0.5
vt 0.043159421533346176 0.5
vt 0.028772948309779167 1
vt 0.057545896619558334 0
vt 0.028772948309779167 1.5
vt 0 0
vt 0.057545896619558334 0
vt 0.057545896619558334 0.5
vt -0.19021499156951904 1.5
vt -0.19021499156951904 2
vt 0 1
vt -0.19021499156951904 1.5
vt -0.19021499156951904 2
vt -0.09510749578475952 0.5
vt 0 0.5
vt -0.07133062183856964 0.875
vt -0.04755374789237976 1.25
vt -0.04755374789237976 1.5
vt 0.028772948309779167 0.5
vt 0.057545896619558334 1
vt 0 1.5
vt 0.057545896619558334 1.5
vt -0.2889329791069031 0.5470066070556641
vt -0.3027880787849426 0.5470330715179443
vt -0.2750460207462311 0.2972564101219177
vt -0.33053016662597656 0.796809732913971
vt -0.3304983377456665 0.5470859706401825
vt -0.03960444778203964 1.0464541912078857
vt -0.025749308988451958 1.046480655670166
vt -0.05349143594503403 1.2961515188217163
vt 0.001992817735299468 0.7968097925186157
vt 0.001960963476449251 1.0465335845947266
vt -0.2473835051059723 0.671842098236084
vt -0.21965734660625458 0.5469802021980286
vt -0.16426867246627808 0.796703964471817
vt -0.2750460207462311 0.2972564101219177
vt -0.10881634056568146 0.5469802021980286
vt -0.2751096785068512 0.796703964471817
vt -0.05342772603034973 0.796703964471817
vt -0.10888005793094635 1.0464277416467667
vt -0.05349143594503403 1.2961515188217163
vt -0.2197210043668747 1.0464277416467667
vt -0.3028199374675751 0.7967568337917328
vt -0.3304983377456665 0.5470859706401825
vt -0.33053016662597656 0.796809732913971
vt -0.33046650886535645 0.29736220836639404
vt -0.02571745589375496 0.7967568635940552
vt 0.001960963476449251 1.0465335845947266
vt 0.001992817735299468 0.7968097925186157
vt 0.0019291092175990343 1.2962573766708374
vt 0.0020565262529999018 0.29736220836639404
vt -0.05342772603034973 0.796703964471817
vt 0.002024671994149685 0.5470860004425049
vt -0.01183046493679285 0.5470595359802246
vt 0.0020565262529999018 0.29736220836639404
vt -0.3305619955062866 1.0465334951877594
vt -0.33059385418891907 1.2962572574615479
vt -0.2335522472858429 0.8591349273920059
vt -0.10881634056568146 0.5469802021980286
vt -0.053395871073007584 0.5469802021980286
vt -0.08109018206596375 0.42211830615997314
vt 0.0019291092175990343 1.2962573766708374
vt -0.33046650886535645 0.29736220836639404
vt -0.2751733362674713 1.2961515188217163
vt -0.05349143594503403 1.2961515188217163
vt -0.2197210043668747 1.0464277416467667
vt -0.053364016115665436 0.2972564101219177
vt -0.2751096785068512 0.796703964471817
vt -0.16426867246627808 0.796703964471817
vt -0.05342772603034973 0.796703964471817
vt -0.31670689582824707 1.0465070456266403
vt -0.2751733362674713 1.2961515188217163
vt -0.33059385418891907 1.2962572574615479
vt -0.3028199374675751 0.7967568337917328
vt -0.053364016115665436 0.2972564101219177
vt -0.02571745589375496 0.7967568635940552
vt -0.2751733362674713 1.2961515188217163
vt -0.30285176634788513 1.0464806109666824
vt -0.2751733362674713 1.2961515188217163
vt -0.2751096785068512 0.796703964471817
vt -0.053364016115665436 0.2972564101219177
vt -0.053395871073007584 0.5469802021980286
vt -0.03960444778203964 1.0464541912078857
vt -0.05349143594503403 1.2961515188217163
vt -0.2889329791069031 0.5470066070556641
vt -0.2750460207462311 0.2972564101219177
vt -0.05342772603034973 0.796703964471817
vt -0.2751096785068512 0.796703964471817
vt -0.05345958098769188 1.0464277416467667
vt -0.05345958098769188 1.0464277416467667
vt -0.27507784962654114 0.5469802021980286
vt -0.27507784962654114 0.5469802021980286
vt -0.3305619955062866 1.0465334951877594
vt 0.002024671994149685 0.5470860004425049
vt -0.05345958098769188 1.0464277416467667
vt -0.05345958098769188 1.0464277416467667
vt -0.27514150738716125 1.0464277416467667
vt -0.2889966368675232 1.0464541763067245
vt -0.27514150738716125 1.0464277416467667
vt -0.053395871073007584 0.5469802021980286
vt -0.03954073786735535 0.5470066368579865
vt -0.053395871073007584 0.5469802021980286
vt -0.10888005793094635 1.0464277416467667
vt -0.2750460207462311 0.2972564101219177
vt -0.053364016115665436 0.2972564101219177
vt -0.21965734660625458 0.5469802021980286
vt 0.26324382424354553 1.4179970026016235
vt 0.026088668033480644 1.499889612197876
vt 0.2627324163913727 1.6186159253120422
vt 0.2864152789115906 1.0894438028335571
vt 0.5003989934921265 1.336104393005371
vt 0.26324382424354553 1.4179970026016235
vt 0.5003989934921265 1.336104393005371
vt 0.49937617778778076 1.7373422384262085
vt 0.7423628568649292 1.6186164617538452
vt 1.0185272693634033 0.8045095801353455
vt 0.9853495955467224 1.499890685081482
vt 0.9732402563095093 0.7517425417900085
vt 0.8583648204803467 0.6752288937568665
vt 0.8438220024108887 0.9208288490772247
vt 0.9732402563095093 0.7517425417900085
vt 0.7144036889076233 1.089915156364441
vt 0.14189712703227997 0.6751962304115295
vt 0.026532305404543877 0.540666401386261
vt 0.049405939877033234 0.13062256574630737
vt 0.49937617778778076 1.7373422384262085
vt 0.7423628568649292 1.6186164617538452
vt 0.9853495955467224 1.499890685081482
vt -0.018753092736005783 0.4879000782966614
vt 0.026088668033480644 1.499889612197876
vt -0.018752895295619965 0.8045076131820679
vt 0.0265331007540226 0.7517392635345459
vt 0.9732404351234436 0.5406707525253296
vt 0.8583648204803467 0.6752288937568665
vt 0.9513862133026123 0.13182836771011353
vt 0.742874264717102 1.4179975390434265
vt 0.7144036889076233 1.089915156364441
vt 0.742874264717102 1.4179975390434265
vt 0.9406619071960449 -0.26045918464660645
vt 1.0257995128631592 -0.26045823097229004
vt 1.0185273885726929 0.4879034161567688
vt 0.2627324163913727 1.6186159253120422
vt 0.2864152789115906 1.0894438028335571
vt 0.8498766422271729 1.2949029207229614
vt 0.05911025032401085 -0.26045989990234375
vt -0.026027396321296692 -0.26045918464660645
vt 0.0265331007540226 0.7517392635345459
vt 0.14189712703227997 0.6751962304115295
vt -0.026027396321296692 -0.26045918464660645
vt -0.018753092736005783 0.4879000782966614
vt 0.049405939877033234 0.13062256574630737
vt 0.026532305404543877 0.540666401386261
vt 0.05911025032401085 -0.26045989990234375
vt 0.9732404351234436 0.5406707525253296
vt 0.9513862133026123 0.13182836771011353
vt 0.9406619071960449 -0.26045918464660645
vt 1.0257995128631592 -0.26045823097229004
vt 1.0185273885726929 0.4879034161567688
vt 1.0185272693634033 0.8045095801353455
vt -0.018752895295619965 0.8045076131820679
vt 1.0221633911132812 0.11372256278991699
vt 1 1.5920339822769165
vt 1 1.3490118384361267
vt 0.7488241791725159 1.3483906388282776
vt 0.75 0.8352672457695007
vt 0.75 0.5645447969436646
vt 0.5 0.5645447969436646
vt 0.7488241791725159 1.1053684949874878
vt 0.49764835834503174 1.1047472953796387
vt 0.49764835834503174 1.3477694392204285
vt 0.24882417917251587 1.4699017107486725
vt 0.5 1.5920339822769165
vt 0.2464725375175476 1.2256371676921844
vt 0.7488241791725159 1.4699017107486725
vt 1 1.105989694595337
vt 1 0.5645447969436646
vt 0.875 0.6999060213565826
vt 0.25 0.8353036344051361
vt 0.25 1.106098860502243
vt 0.5 1.1060624718666077
vt 0.2464725375175476 1.1041260957717896
vt -0.004703303799033165 1.1035048961639404
vt 0 0.5645447969436646
vt 0 1.1061352491378784
vt 0.125 0.9707194417715073
vt 0.3720604479312897 1.1651922315359116
vt 0.625 0.9706466645002365
vt 0.7497060298919678 1.0381628796458244
vt 0.8744120597839355 1.2271901667118073
vt -0.0023516518995165825 1.3477694392204285
vt 0 1.5920339822769165
vt 0.1232362687587738 1.4088355898857117
vt 0.24764832854270935 1.3477694392204285
vt 0.24882416427135468 1.4699017107486725
vt -0.0023516518995165825 1.3477694392204285
vt 0.49764832854270935 1.3477694392204285
vt 0.2464725226163864 1.2256371676921844
vt 0.25 1.5920339822769165
vt 1.2419564723968506 1.5983140468597412
vt 1.2419564723968506 1.4742488265037537
vt 1.4919564723968506 1.5983140468597412
vt 0.9919565320014954 1.5983140468597412
vt 0.75 1.5920339822769165
vt 0.7488241791725159 1.4699017107486725
vt 1.7419564723968506 1.5983140468597412
vt 1.7419564723968506 1.4742488265037537
vt 1.9919564723968506 1.5983140468597412
vt 1.4919564723968506 1.3501836061477661
vt 1.7419564723968506 1.2261183857917786
vt 1.7419564723968506 1.3501836061477661
vt 1.9919564723968506 1.3501836061477661
vt 1.8669564723968506 1.2881509959697723
vt 1.9919564723968506 1.102053165435791
vt 0.5 1.1060624718666077
vt 0.25 1.106098860502243
vt 0.25 0.8353036344051361
vt 0 1.1061352491378784
vt -0.004703303799033165 1.1035048961639404
vt 0.2464725226163864 1.1041260957717896
vt 0.49764832854270935 1.1047472953796387
vt 1.2419564723968506 1.102053165435791
vt 1.2419564723968506 1.2261183857917786
vt 0.9919565320014954 1.102053165435791
vt 1.4919564723968506 1.102053165435791
vt 0.25 0.6999060213565826
vt 0.5 0.5645447969436646
vt 0.5 0.8352672457695007
vt 0 0.5645447969436646
vt 0.75 0.9706284701824188
vt 0.75 0.6999060213565826
vt 1 1.105989694595337
vt 0.75 1.1060260832309723
vt 1.2419564723968506 1.3501836061477661
vt 0.9919565320014954 1.3501836061477661
vt 0.7488241791725159 1.3483906388282776
vt 0.7488241791725159 1.2268795669078827
vt 1 1.3490118384361267
vt 0.75 0.5645447969436646
vt 1 0.5645447969436646
vt 0.75 0.9706284701824188
vt 0.5 0.8352672457695007
vt 0.375 0.6999060213565826
vt 0.25 0.5645447969436646
vt 0.5625 0.7675866335630417
vt 0.49941208958625793 0.970336064696312
vt 0.25 0.6999060213565826
vt 0.25 0.5645447969436646
vt 0.1875 0.6322253942489624
vt 0.5 0.9029660522937775
vt 1.7419564723968506 1.102053165435791
vt 0.4942154288291931 0.4317812919616699
vt 0.4942154288291931 0.5774641633033752
vt -0.013984506949782372 0.5773186683654785
vt 0.4942154884338379 0.4317812919616699
vt 0.24011549353599548 0.21347516775131226
vt -0.013984506949782372 0.5773186683654785
vt 1.510615348815918 0.4320722818374634
vt 1.764715313911438 0.3593035936355591
vt 1.510615348815918 0.14070641994476318
vt 2.018815279006958 0.5779007077217102
vt 2.018815279006958 -0.00483095645904541
vt 1.002415418624878 0.28624385595321655
vt 0.4942154884338379 0.14070641994476318
vt 0.6212654709815979 0.2498595118522644
vt 1.002415418624878 -0.00483095645904541
vt 0.4942154288291931 -0.00483095645904541
vt 1.510615348815918 0.14070641994476318
vt 1.510615348815918 -0.00483095645904541
vt 2.018815279006958 -0.00483095645904541
vt 1.6376652717590332 0.5413708686828613
vt 2.018815279006958 0.5779007077217102
vt 1.510615348815918 0.5777552127838135
vt 1.256515383720398 0.5048409998416901
vt 1.002415418624878 0.5776096880435944
vt 1.002415418624878 0.28624385595321655
vt 1.510615348815918 0.4320722818374634
vt 0.8753653764724731 0.4683111310005188
vt 1.0024152994155884 -0.00483095645904541
vt -0.013984506949782372 -0.00483095645904541
vt 0.4942154288291931 0.14070641994476318
vt -0.013984506949782372 -0.00483095645904541
vt 0.4942154288291931 -0.00483095645904541
vt -0.013984506949782372 0.28624385595321655
vt 0.4942154288291931 0.5774641633033752
vt 0.2401154637336731 0.21347516775131226
vt 1.0024152994155884 0.5776096880435944
vt 1.510615348815918 -0.00483095645904541
vt 1.510615348815918 0.5777552127838135
g EleHall020
s 1
f 1/1/1 2/2/2 3/3/3
f 3/3/3 4/4/4 5/5/5
f 6/6/6 7/7/7 8/8/8
f 9/9/9 8/8/8 1/1/1
f 8/8/8 2/2/2 1/1/1
f 6/6/6 8/8/8 9/9/9
f 9/9/9 10/10/10 11/11/11
f 7/7/7 12/12/12 8/8/8
f 8/8/8 12/12/12 2/2/2
f 12/12/12 13/13/13 2/2/2
f 10/10/10 5/5/5 14/14/14
f 11/11/11 10/10/10 14/14/14
f 2/2/2 13/13/13 15/15/15
f 2/2/2 15/15/15 4/4/4
f 16/16/16 17/17/17 18/18/18
f 17/17/17 9/9/9 18/18/18
f 11/11/11 19/19/19 20/20/20
f 14/14/14 5/5/5 21/21/21
f 22/22/22 19/19/19 11/11/11
f 17/17/17 6/6/6 9/9/9
f 16/16/16 6/6/6 17/17/17
f 22/22/22 23/23/23 19/19/19
f 24/24/24 25/25/25 14/14/14
f 24/24/24 26/26/26 25/25/25
f 1/1/1 3/3/3 5/5/5
f 2/2/2 4/4/4 3/3/3
f 16/16/16 27/27/27 6/6/6
f 23/23/23 28/28/28 29/29/29
f 11/11/11 20/20/20 18/18/18
f 9/9/9 1/1/1 30/30/30
f 14/14/14 25/25/25 22/22/22
f 25/25/25 26/26/26 22/22/22
f 30/30/30 1/1/1 5/5/5
f 7/7/7 31/31/31 12/12/12
f 31/31/31 13/13/13 12/12/12
f 30/30/30 5/5/5 10/10/10
f 9/9/9 30/30/30 10/10/10
f 18/18/18 9/9/9 11/11/11
f 19/19/19 23/23/23 20/20/20
f 32/32/32 33/33/33 34/34/34
f 32/32/32 34/34/34 23/23/23
f 23/23/23 34/34/34 28/28/28
f 34/34/34 33/33/33 28/28/28
f 20/20/20 29/29/29 35/35/35
f 14/14/14 22/22/22 11/11/11
f 26/26/26 23/23/23 22/22/22
f 21/21/21 24/24/24 14/14/14
f 26/26/26 32/32/32 23/23/23
f 35/35/35 29/29/29 36/36/36
f 18/18/18 35/35/35 36/36/36
f 20/20/20 23/23/23 29/29/29
f 20/20/20 35/35/35 18/18/18
f 18/18/18 36/36/36 16/16/16
f 27/27/27 7/7/7 6/6/6
g EleHall021
s 1
f 37/37/37 38/38/38 39/39/39
f 40/40/40 41/41/41 42/42/42
f 41/41/41 43/43/43 42/42/42
f 44/44/44 45/45/45 46/46/46
f 44/44/44 47/47/47 45/45/45
f 48/48/48 49/49/49 50/50/50
f 49/49/49 51/51/51 50/50/50
f 51/51/51 49/49/49 52/52/52
f 49/49/49 48/48/48 52/52/52
f 53/53/53 54/54/54 55/55/55
f 56/56/56 54/54/54 53/53/53
f 57/57/57 58/58/58 59/59/59
f 60/60/60 58/58/58 57/57/57
f 61/61/61 37/37/37 62/62/62
f 62/62/62 37/37/37 39/39/39
f 39/39/39 50/50/50 62/62/62
f 62/62/62 50/50/50 61/61/61
f 63/63/63 64/64/64 65/65/65
f 65/65/65 64/64/64 39/39/39
f 39/39/39 66/66/66 65/65/65
f 65/65/65 66/66/66 63/63/63
f 67/67/67 68/68/68 69/69/69
f 67/67/67 70/70/70 68/68/68
f 68/68/68 70/70/70 52/52/52
f 69/69/69 68/68/68 52/52/52
f 43/43/43 67/67/67 69/69/69
f 42/42/42 71/71/71 40/40/40
f 42/42/42 48/48/48 71/71/71
f 48/48/48 64/64/64 71/71/71
f 71/71/71 64/64/64 40/40/40
f 72/72/72 73/73/73 74/74/74
f 64/64/64 63/63/63 40/40/40
f 60/60/60 75/75/75 58/58/58
f 60/60/60 76/76/76 75/75/75
f 42/42/42 43/43/43 69/69/69
f 69/69/69 48/48/48 42/42/42
f 47/47/47 76/76/76 60/60/60
f 45/45/45 77/77/77 46/46/46
f 78/78/78 79/79/79 66/66/66
f 38/38/38 78/78/78 66/66/66
f 55/55/55 72/72/72 80/80/80
f 46/46/46 81/81/81 72/72/72
f 46/46/46 77/77/77 81/81/81
f 80/80/80 81/81/81 77/77/77
f 80/80/80 72/72/72 81/81/81
f 55/55/55 80/80/80 53/53/53
f 53/53/53 80/80/80 56/56/56
f 56/56/56 82/82/82 83/83/83
f 56/56/56 80/80/80 82/82/82
f 66/66/66 79/79/79 63/63/63
f 52/52/52 48/48/48 69/69/69
f 39/39/39 38/38/38 66/66/66
f 52/52/52 70/70/70 51/51/51
f 50/50/50 51/51/51 61/61/61
f 64/64/64 48/48/48 39/39/39
f 39/39/39 48/48/48 50/50/50
f 57/57/57 59/59/59 54/54/54
f 84/84/84 60/60/60 56/56/56
f 47/47/47 60/60/60 84/84/84
f 84/84/84 83/83/83 47/47/47
f 54/54/54 59/59/59 55/55/55
f 85/85/85 74/74/74 86/86/86
f 72/72/72 74/74/74 85/85/85
f 72/72/72 85/85/85 46/46/46
f 85/85/85 86/86/86 46/46/46
f 45/45/45 47/47/47 87/87/87
f 45/45/45 87/87/87 77/77/77
f 83/83/83 77/77/77 87/87/87
f 83/83/83 87/87/87 47/47/47
f 56/56/56 60/60/60 54/54/54
f 46/46/46 86/86/86 88/88/88
f 46/46/46 88/88/88 44/44/44
f 56/56/56 83/83/83 84/84/84
f 82/82/82 77/77/77 83/83/83
f 80/80/80 77/77/77 82/82/82
f 60/60/60 57/57/57 54/54/54
g EleHall022
s 1
f 89/89/89 90/90/90 91/91/91
f 89/89/89 92/92/92 90/90/90
f 92/92/92 93/93/93 90/90/90
f 90/90/90 93/93/93 91/91/91
f 94/94/94 95/95/95 96/96/96
f 94/94/94 97/97/97 95/95/95
f 97/97/97 98/98/98 95/95/95
f 95/95/95 98/98/98 96/96/96
f 99/99/99 100/100/100 101/101/101
f 99/99/99 102/102/102 100/100/100
f 100/100/100 102/102/102 103/103/103
f 101/101/101 100/100/100 103/103/103
f 104/104/104 102/102/102 99/99/99
f 105/105/105 106/106/106 101/101/101
f 106/106/106 107/107/107 108/108/108
f 101/101/101 106/106/106 108/108/108
f 109/109/109 110/110/110 111/111/111
f 109/109/109 112/112/112 110/110/110
f 113/113/113 114/114/114 115/115/115
f 113/113/113 116/116/116 114/114/114
f 117/117/117 118/118/118 113/113/113
f 119/119/119 97/97/97 120/120/120
f 121/121/121 119/119/119 120/120/120
f 109/109/109 122/122/122 123/123/123
f 109/109/109 111/111/111 122/122/122
f 104/104/104 124/124/124 108/108/108
f 104/104/104 99/99/99 124/124/124
f 125/125/125 126/126/126 127/127/127
f 98/98/98 128/128/128 96/96/96
f 93/93/93 129/129/129 91/91/91
f 103/103/103 105/105/105 101/101/101
f 130/130/130 131/131/131 132/132/132
f 103/103/103 102/102/102 133/133/133
f 132/132/132 134/134/134 130/130/130
f 135/135/135 134/134/134 132/132/132
f 135/135/135 136/136/136 125/125/125
f 137/137/137 138/138/138 139/139/139
f 137/137/137 92/92/92 140/140/140
f 120/120/120 141/141/141 121/121/121
f 120/120/120 97/97/97 142/142/142
f 108/108/108 107/107/107 143/143/143
f 144/144/144 145/145/145 146/146/146
f 123/123/123 145/145/145 144/144/144
f 123/123/123 144/144/144 109/109/109
f 144/144/144 146/146/146 109/109/109
f 117/117/117 147/147/147 148/148/148
f 117/117/117 148/148/148 118/118/118
f 125/125/125 136/136/136 126/126/126
f 149/149/149 116/116/116 113/113/113
f 150/150/150 116/116/116 149/149/149
f 113/113/113 118/118/118 149/149/149
f 151/151/151 112/112/112 109/109/109
f 152/152/152 112/112/112 151/151/151
f 109/109/109 146/146/146 151/151/151
f 142/142/142 97/97/97 94/94/94
f 94/94/94 153/153/153 142/142/142
f 140/140/140 92/92/92 89/89/89
f 89/89/89 154/154/154 140/140/140
f 91/91/91 154/154/154 89/89/89
f 135/135/135 155/155/155 136/136/136
f 149/149/149 118/118/118 156/156/156
f 149/149/149 156/156/156 150/150/150
f 135/135/135 157/157/157 134/134/134
f 151/151/151 146/146/146 158/158/158
f 151/151/151 158/158/158 152/152/152
f 139/139/139 159/159/159 137/137/137
f 159/159/159 92/92/92 137/137/137
f 113/113/113 115/115/115 160/160/160
f 113/113/113 160/160/160 117/117/117
f 105/105/105 161/161/161 106/106/106
f 161/161/161 107/107/107 106/106/106
f 96/96/96 162/162/162 94/94/94
f 162/162/162 153/153/153 94/94/94
f 108/108/108 124/124/124 101/101/101
f 163/163/163 138/138/138 164/164/164
f 154/154/154 163/163/163 164/164/164
f 165/165/165 104/104/104 108/108/108
f 143/143/143 165/165/165 108/108/108
f 166/166/166 167/167/167 142/142/142
f 166/166/166 141/141/141 167/167/167
f 167/167/167 141/141/141 120/120/120
f 142/142/142 167/167/167 120/120/120
f 168/168/168 105/105/105 103/103/103
f 133/133/133 168/168/168 103/103/103
f 153/153/153 166/166/166 142/142/142
f 154/154/154 164/164/164 140/140/140
f 132/132/132 169/169/169 135/135/135
f 135/135/135 169/169/169 155/155/155
f 169/169/169 131/131/131 155/155/155
f 127/127/127 170/170/170 125/125/125
f 171/171/171 170/170/170 127/127/127
f 127/127/127 126/126/126 171/171/171
f 124/124/124 99/99/99 101/101/101
f 125/125/125 170/170/170 172/172/172
f 125/125/125 172/172/172 135/135/135
f 135/135/135 172/172/172 157/157/157
f 172/172/172 170/170/170 157/157/157
f 140/140/140 164/164/164 137/137/137
f 164/164/164 138/138/138 137/137/137
f 132/132/132 131/131/131 169/169/169
g EleHall023
s 1
f 173/173/173 174/174/174 175/175/175
f 173/173/173 176/176/176 174/174/174
f 177/177/177 176/176/176 173/173/173
f 178/178/178 179/179/179 180/180/180
f 180/180/180 179/179/179 181/181/181
f 182/182/182 183/183/183 184/184/184
f 185/185/185 186/186/186 187/187/187
f 185/185/185 188/188/188 186/186/186
f 189/189/189 190/190/190 191/191/191
f 177/177/177 192/192/192 193/193/193
f 186/186/186 194/194/194 187/187/187
f 190/190/190 195/195/195 191/191/191
f 196/196/196 197/197/197 198/198/198
f 199/199/199 184/184/184 200/200/200
f 200/200/200 201/201/201 199/199/199
f 202/202/202 203/203/203 183/183/183
f 179/179/179 203/203/203 202/202/202
f 181/181/181 179/179/179 202/202/202
f 181/181/181 202/202/202 183/183/183
f 188/188/188 177/177/177 204/204/204
f 201/201/201 205/205/205 206/206/206
f 204/204/204 193/193/193 194/194/194
f 177/177/177 193/193/193 204/204/204
f 207/207/207 199/199/199 201/201/201
f 196/196/196 178/178/178 208/208/208
f 173/173/173 175/175/175 192/192/192
f 209/209/209 179/179/179 178/178/178
f 177/177/177 173/173/173 192/192/192
f 188/188/188 210/210/210 186/186/186
f 211/211/211 191/191/191 212/212/212
f 190/190/190 189/189/189 198/198/198
f 210/210/210 204/204/204 194/194/194
f 213/213/213 174/174/174 176/176/176
f 188/188/188 204/204/204 210/210/210
f 213/213/213 176/176/176 214/214/214
f 215/215/215 216/216/216 217/217/217
f 214/214/214 218/218/218 213/213/213
f 217/217/217 219/219/219 215/215/215
f 187/187/187 220/220/220 185/185/185
f 221/221/221 185/185/185 220/220/220
f 222/222/222 221/221/221 223/223/223
f 220/220/220 224/224/224 221/221/221
f 203/203/203 200/200/200 184/184/184
f 224/224/224 223/223/223 221/221/221
f 194/194/194 225/225/225 187/187/187
f 218/218/218 214/214/214 217/217/217
f 216/216/216 218/218/218 217/217/217
f 183/183/183 203/203/203 184/184/184
f 226/226/226 174/174/174 213/213/213
f 208/208/208 178/178/178 180/180/180
f 227/227/227 207/207/207 201/201/201
f 196/196/196 198/198/198 209/209/209
f 206/206/206 227/227/227 201/201/201
f 209/209/209 198/198/198 189/189/189
f 195/195/195 212/212/212 191/191/191
f 210/210/210 194/194/194 186/186/186
f 209/209/209 178/178/178 196/196/196
g EleHall024
s 1
f 228/228/228 229/229/229 230/230/230
f 231/231/231 232/232/232 233/233/233
f 230/230/230 234/234/234 235/235/235
f 236/236/236 237/237/237 238/238/238
f 239/239/239 237/237/237 236/236/236
f 236/236/236 238/238/238 240/240/240
f 240/240/240 230/230/230 236/236/236
f 228/228/228 230/230/230 240/240/240
f 241/241/241 242/242/242 243/243/243
f 241/241/241 243/243/243 231/231/231
f 231/231/231 243/243/243 232/232/232
f 243/243/243 242/242/242 232/232/232
f 244/244/244 245/245/245 246/246/246
f 239/239/239 247/247/247 248/248/248
f 249/249/249 250/250/250 251/251/251
f 249/249/249 251/251/251 244/244/244
f 244/244/244 251/251/251 245/245/245
f 251/251/251 250/250/250 245/245/245
f 236/236/236 235/235/235 252/252/252
f 253/253/253 254/254/254 241/241/241
f 239/239/239 252/252/252 247/247/247
f 252/252/252 235/235/235 247/247/247
f 229/229/229 241/241/241 255/255/255
f 229/229/229 255/255/255 230/230/230
f 230/230/230 255/255/255 234/234/234
f 255/255/255 241/241/241 234/234/234
f 256/256/256 257/257/257 258/258/258
f 256/256/256 258/258/258 239/239/239
f 239/239/239 258/258/258 237/237/237
f 258/258/258 257/257/257 237/237/237
f 259/259/259 260/260/260 261/261/261
f 262/262/262 260/260/260 259/259/259
f 262/262/262 259/259/259 263/263/263
f 259/259/259 261/261/261 263/263/263
f 238/238/238 264/264/264 260/260/260
f 264/264/264 257/257/257 260/260/260
f 265/265/265 266/266/266 267/267/267
f 268/268/268 266/266/266 265/265/265
f 237/237/237 257/257/257 264/264/264
f 237/237/237 264/264/264 238/238/238
f 228/228/228 269/269/269 270/270/270
f 269/269/269 238/238/238 270/270/270
f 271/271/271 272/272/272 273/273/273
f 267/267/267 272/272/272 271/271/271
f 240/240/240 238/238/238 269/269/269
f 240/240/240 269/269/269 228/228/228
f 274/274/274 275/275/275 276/276/276
f 274/274/274 276/276/276 272/272/272
f 276/276/276 277/277/277 272/272/272
f 278/278/278 279/279/279 277/277/277
f 275/275/275 279/279/279 278/278/278
f 276/276/276 275/275/275 278/278/278
f 276/276/276 278/278/278 277/277/277
f 280/280/280 281/281/281 282/282/282
f 281/281/281 283/283/283 282/282/282
f 284/284/284 285/285/285 263/263/263
f 285/285/285 286/286/286 263/263/263
f 287/287/287 288/288/288 289/289/289
f 290/290/290 288/288/288 287/287/287
f 291/291/291 292/292/292 293/293/293
f 291/291/291 282/282/282 294/294/294
f 293/293/293 282/282/282 291/291/291
f 295/295/295 296/296/296 297/297/297
f 293/293/293 296/296/296 295/295/295
f 295/295/295 298/298/298 293/293/293
f 297/297/297 298/298/298 295/295/295
f 274/274/274 299/299/299 288/288/288
f 299/299/299 300/300/300 288/288/288
f 299/299/299 266/266/266 300/300/300
f 274/274/274 266/266/266 299/299/299
f 301/301/301 302/302/302 303/303/303
f 262/262/262 302/302/302 301/301/301
f 262/262/262 301/301/301 270/270/270
f 301/301/301 303/303/303 270/270/270
f 292/292/292 304/304/304 296/296/296
f 304/304/304 305/305/305 296/296/296
f 306/306/306 231/231/231 307/307/307
f 241/241/241 231/231/231 306/306/306
f 308/308/308 233/233/233 309/309/309
f 310/310/310 233/233/233 308/308/308
f 231/231/231 233/233/233 310/310/310
f 307/307/307 231/231/231 310/310/310
f 307/307/307 310/310/310 308/308/308
f 311/311/311 246/246/246 234/234/234
f 244/244/244 246/246/246 311/311/311
f 312/312/312 244/244/244 307/307/307
f 249/249/249 244/244/244 312/312/312
f 307/307/307 308/308/308 312/312/312
f 294/294/294 313/313/313 291/291/291
f 313/313/313 292/292/292 291/291/291
f 314/314/314 309/309/309 249/249/249
f 308/308/308 309/309/309 314/314/314
f 312/312/312 308/308/308 314/314/314
f 312/312/312 314/314/314 249/249/249
f 307/307/307 244/244/244 315/315/315
f 307/307/307 315/315/315 306/306/306
f 306/306/306 315/315/315 241/241/241
f 244/244/244 311/311/311 253/253/253
f 315/315/315 244/244/244 253/253/253
f 315/315/315 253/253/253 241/241/241
f 254/254/254 234/234/234 241/241/241
f 311/311/311 234/234/234 254/254/254
f 253/253/253 311/311/311 254/254/254
f 236/236/236 252/252/252 239/239/239
f 230/230/230 235/235/235 236/236/236
f 260/260/260 257/257/257 261/261/261
f 238/238/238 260/260/260 262/262/262
f 263/263/263 261/261/261 284/284/284
f 263/263/263 286/286/286 262/262/262
f 275/275/275 274/274/274 290/290/290
f 272/272/272 277/277/277 273/273/273
f 267/267/267 274/274/274 272/272/272
f 282/282/282 283/283/283 294/294/294
f 293/293/293 280/280/280 282/282/282
f 296/296/296 305/305/305 297/297/297
f 292/292/292 296/296/296 293/293/293
f 290/290/290 274/274/274 288/288/288
f 288/288/288 300/300/300 289/289/289
f 266/266/266 268/268/268 300/300/300
f 266/266/266 274/274/274 267/267/267
f 286/286/286 302/302/302 262/262/262
f 302/302/302 297/297/297 303/303/303
f 270/270/270 303/303/303 228/228/228
f 270/270/270 238/238/238 262/262/262
f 298/298/298 280/280/280 293/293/293
f 316/316/316 275/275/275 290/290/290
f 279/279/279 275/275/275 316/316/316
f 286/286/286 298/298/298 302/302/302
f 248/248/248 256/256/256 239/239/239
f 298/298/298 297/297/297 302/302/302
g EleHall025
s 1
f 317/317/317 318/318/318 319/319/319
f 320/320/320 321/321/321 322/322/322
f 323/323/323 324/324/324 325/325/325
f 323/323/323 326/326/326 324/324/324
f 324/324/324 326/326/326 327/327/327
f 328/328/328 329/329/329 330/330/330
f 330/330/330 329/329/329 321/321/321
f 330/330/330 321/321/321 320/320/320
f 325/325/325 324/324/324 327/327/327
f 328/328/328 330/330/330 320/320/320
f 331/331/331 332/332/332 328/328/328
f 333/333/333 334/334/334 335/335/335
f 336/336/336 337/337/337 338/338/338
f 339/339/339 338/338/338 340/340/340
f 341/341/341 342/342/342 339/339/339
f 333/333/333 342/342/342 341/341/341
f 333/333/333 337/337/337 342/342/342
f 343/343/343 339/339/339 340/340/340
f 341/341/341 339/339/339 343/343/343
f 317/317/317 340/340/340 318/318/318
f 342/342/342 337/337/337 336/336/336
f 341/341/341 344/344/344 333/333/333
f 329/329/329 345/345/345 321/321/321
f 321/321/321 345/345/345 322/322/322
f 332/332/332 329/329/329 328/328/328
f 335/335/335 337/337/337 333/333/333
f 339/339/339 336/336/336 338/338/338
f 325/325/325 331/331/331 328/328/328
f 346/346/346 347/347/347 348/348/348
f 341/341/341 346/346/346 344/344/344
f 346/346/346 348/348/348 344/344/344
f 342/342/342 336/336/336 339/339/339
f 317/317/317 346/346/346 341/341/341
f 319/319/319 349/349/349 317/317/317
f 322/322/322 350/350/350 320/320/320
f 317/317/317 351/351/351 346/346/346
f 351/351/351 347/347/347 346/346/346
f 349/349/349 347/347/347 351/351/351
f 341/341/341 343/343/343 317/317/317
f 349/349/349 351/351/351 317/317/317
f 350/350/350 352/352/352 320/320/320
f 320/320/320 352/352/352 328/328/328
f 333/333/333 344/344/344 334/334/334
f 353/353/353 331/331/331 325/325/325
f 327/327/327 353/353/353 325/325/325
f 352/352/352 323/323/323 328/328/328
f 328/328/328 323/323/323 325/325/325
f 354/354/354 326/326/326 323/323/323
f 352/352/352 354/354/354 323/323/323
f 317/317/317 343/343/343 340/340/340
f 332/332/332 345/345/345 329/329/329
