# Exported using wow.export v0.2.19
o 20736_Canal09c.obj
v -14.40917682647705 -116.87744140625 127.40755462646484
v -16.107637405395508 -118.8572006225586 127.43800354003906
v -14.55051326751709 -119.51712036132812 126.87923431396484
v -19.186424255371094 -124.16534423828125 128.6875762939453
v -17.593822479248047 -124.16534423828125 128.26083374023438
v -19.2218074798584 -123.00328063964844 128.55551147460938
v -17.21486473083496 -119.51710510253906 136.0458984375
v -18.807373046875 -119.51710510253906 136.4726104736328
v -17.25030517578125 -118.85719299316406 135.91383361816406
v -12.772563934326172 -115.73416137695312 133.515869140625
v -14.268291473388672 -116.30579376220703 134.30337524414062
v -13.617156982421875 -115.44833374023438 133.54879760742188
v -12.966021537780762 -114.59087371826172 132.79421997070312
v -14.461750030517578 -115.16250610351562 133.5817413330078
v -16.001220703125 -124.16534423828125 127.83409118652344
v -16.036602020263672 -123.0032958984375 127.7020263671875
v -12.579105377197266 -116.87744140625 134.2375030517578
v -13.423698425292969 -116.59161376953125 134.27044677734375
v -17.356477737426758 -116.87742614746094 135.51759338378906
v -16.542552947998047 -117.2073974609375 135.3702850341797
v -17.321086883544922 -117.537353515625 135.64967346191406
v -15.764019966125488 -116.87743377685547 135.0908966064453
v -15.693239212036133 -118.19727325439453 135.3550567626953
v -14.171562194824219 -116.87744140625 134.66419982910156
v -16.14302635192871 -119.51712036132812 127.30593872070312
v -17.735538482666016 -119.5171127319336 127.73265075683594
v -16.10755157470703 -120.6791763305664 127.43797302246094
v -17.20743751525879 -114.59087371826172 129.70431518554688
v -18.799850463867188 -114.59087371826172 130.13101196289062
v -18.89649200439453 -115.16252136230469 129.77015686035156
v -14.065290451049805 -118.85719299316406 135.06039428710938
v -14.879264831542969 -118.52723693847656 135.20773315429688
v -14.1361722946167 -117.537353515625 134.79627990722656
v -15.622357368469238 -119.5171127319336 135.61917114257812
v -20.392263412475586 -114.59087371826172 130.5576934814453
v -18.667776107788086 -114.150390625 130.6239013671875
v -14.029850006103516 -119.51712036132812 135.1924591064453
v -15.61502456665039 -114.59087371826172 129.27761840820312
v -15.711666107177734 -115.16252136230469 128.91677856445312
v -14.022610664367676 -114.59087371826172 128.85093688964844
v -15.482950210571289 -114.150390625 129.77053833007812
v -17.743255615234375 -114.59087371826172 134.07427978515625
v -16.15084457397461 -114.59087371826172 133.64759826660156
v -17.64657211303711 -115.16250610351562 134.43511962890625
v -19.33566665649414 -114.59087371826172 134.5009765625
v -17.875364303588867 -114.150390625 133.58139038085938
v -14.558433532714844 -114.59087371826172 133.22091674804688
v -14.690542221069336 -114.150390625 132.72799682617188
v -16.001636505126953 -116.87744140625 127.83424377441406
v -17.59409523010254 -116.87744140625 128.2609405517578
v -16.036970138549805 -117.53736114501953 127.70216369628906
v -15.904949188232422 -116.30580139160156 128.19508361816406
v -18.39443588256836 -115.44833374023438 134.82887268066406
v -17.453205108642578 -116.3057861328125 135.15676879882812
v -19.14229965209961 -115.73414611816406 135.22262573242188
v -19.186553955078125 -116.87744140625 128.68763732910156
v -20.77901268005371 -116.87744140625 129.1143341064453
v -19.221887588500977 -117.53736114501953 128.55555725097656
v -19.089866638183594 -116.30580139160156 129.04847717285156
v -15.112884521484375 -116.01997375488281 134.33631896972656
v -15.957477569580078 -115.73414611816406 134.3692626953125
v -18.201068878173828 -116.59160614013672 135.550537109375
v -18.94893455505371 -116.87742614746094 135.9442901611328
v -17.664762496948242 -118.19728088378906 127.99678039550781
v -16.67921257019043 -112.82894134521484 131.67596435546875
v -15.086835861206055 -112.82894897460938 131.24928283691406
v -14.95475959777832 -113.2694320678711 131.7421875
v -13.494458198547363 -112.82894897460938 130.82260131835938
v -15.949043273925781 -113.04917907714844 131.21615600585938
v -14.488704681396484 -113.48966979980469 130.29656982421875
v -13.75853443145752 -113.70991516113281 129.83676147460938
v -19.29266357421875 -118.85719299316406 128.2914276123047
v -20.920562744140625 -119.51710510253906 128.58607482910156
v -15.218873977661133 -113.26942443847656 130.75636291503906
v -16.436330795288086 -119.18714904785156 135.76651000976562
v -16.943288803100586 -113.70989990234375 130.69012451171875
v -18.139514923095703 -113.26942443847656 132.59555053710938
v -16.415061950683594 -113.70991516113281 132.6617889404297
v -19.86396598815918 -112.82893371582031 132.52932739257812
v -12.508223533630371 -118.19728088378906 134.50161743164062
v -13.322197914123535 -117.86731719970703 134.64895629882812
v -18.403627395629883 -113.26941680908203 131.60972595214844
v -12.437341690063477 -119.51712036132812 134.7657470703125
v -13.25131607055664 -119.1871566772461 134.91307067871094
v -17.400720596313477 -115.73416137695312 128.9826202392578
v -16.507164001464844 -117.8673095703125 135.5023651123047
v -18.06422996520996 -118.52722930908203 136.06114196777344
v -18.878154754638672 -118.197265625 136.2084503173828
v -14.914705276489258 -117.8673095703125 135.07566833496094
v -17.664588928222656 -121.84123229980469 127.99671173095703
v -18.135009765625 -117.20738983154297 135.79698181152344
v -19.29257583618164 -120.67916870117188 128.29139709472656
v -14.843801498413086 -120.09814453125 135.3397674560547
v -14.065244674682617 -120.6791763305664 135.06036376953125
v -15.657752990722656 -120.67916870117188 135.48707580566406
v -13.251293182373047 -120.09814453125 134.91305541992188
v -12.472644805908203 -120.6791763305664 134.63363647460938
v -19.32805061340332 -119.51710510253906 128.15936279296875
v -14.515039443969727 -120.6791763305664 127.01126098632812
v -15.293558120727539 -121.26020812988281 127.29063415527344
v -14.479564666748047 -121.84123229980469 127.14329528808594
v -16.471702575683594 -121.26020050048828 135.63438415527344
v -15.693147659301758 -121.84123229980469 135.35498046875
v -17.250259399414062 -120.67916870117188 135.91378784179688
v -19.257190704345703 -121.84122467041016 128.42344665527344
v -17.285655975341797 -121.84122467041016 135.78170776367188
v -18.02881622314453 -120.09813690185547 136.19320678710938
v -18.8427677154541 -120.67916107177734 136.34051513671875
v -15.329032897949219 -120.09814453125 127.15859985351562
v -16.07207679748535 -121.84123229980469 127.57000732421875
v -16.436307907104492 -120.09814453125 135.7664794921875
v -18.064210891723633 -121.26019287109375 136.06109619140625
v -18.878162384033203 -121.84121704101562 136.2084197998047
v -18.099605560302734 -122.42224884033203 135.92901611328125
v -17.3210506439209 -123.00328063964844 135.64959716796875
v -18.913558959960938 -123.00328063964844 136.07632446289062
v -15.25808334350586 -122.4222640991211 127.42266082763672
v -14.444090843200684 -123.0032958984375 127.27532196044922
v -20.106569290161133 -120.09813690185547 128.43873596191406
v -20.885177612304688 -120.67916107177734 128.7181396484375
v -20.071186065673828 -121.26019287109375 128.57080078125
v -20.849794387817383 -121.84121704101562 128.85018920898438
v -16.507099151611328 -122.42225646972656 135.50228881835938
v -15.728450775146484 -123.00328826904297 135.22286987304688
v -14.879196166992188 -121.26020812988281 135.20767211914062
v -14.100547790527344 -121.84123229980469 134.92825317382812
v -13.286596298217773 -121.26020812988281 134.78094482421875
v -12.507946968078613 -121.84123229980469 134.5015106201172
v -14.949801445007324 -123.58432006835938 134.94345092773438
v -15.763752937316895 -124.16534423828125 135.09075927734375
v -14.135849952697754 -123.0032958984375 134.79612731933594
v -14.171152114868164 -124.16534423828125 134.6640167236328
v -13.357200622558594 -123.58432006835938 134.51669311523438
v -12.543249130249023 -123.0032958984375 134.369384765625
v -12.57855224609375 -124.16535186767578 134.23727416992188
v -15.222609519958496 -123.58432006835938 127.5546875
v -14.40861701965332 -124.16535186767578 127.4073486328125
v -20.03580093383789 -122.42224884033203 128.70285034179688
v -20.814411163330078 -123.00328063964844 128.9822540283203
v -14.914499282836914 -122.4222640991211 135.0755615234375
v -13.321898460388184 -122.4222640991211 134.64881896972656
v -20.000415802001953 -123.58430480957031 128.8349151611328
v -20.77902603149414 -124.16533660888672 129.11431884765625
v -16.542402267456055 -123.58431243896484 135.37017822265625
v -17.356353759765625 -124.16534423828125 135.51748657226562
v -18.94895362854004 -124.16533660888672 135.94422912597656
v -18.13500213623047 -123.58430480957031 135.79690551757812
v -19.406471252441406 -124.16533660888672 134.23675537109375
v -17.813871383666992 -124.16534423828125 133.8100128173828
v -18.838932037353516 -124.16534423828125 133.16964721679688
v -18.27138900756836 -124.16534423828125 132.1025390625
v -16.678789138793945 -124.16534423828125 131.67579650878906
v -17.70384979248047 -124.16534423828125 131.03543090820312
v -17.24633026123047 -124.16534423828125 132.74290466308594
v -19.296449661254883 -124.16534423828125 131.462158203125
v -18.72890853881836 -124.16534423828125 130.39505004882812
v -20.321508407592773 -124.16533660888672 130.82179260253906
v -19.863990783691406 -124.16533660888672 132.52926635742188
v -19.75396728515625 -124.16534423828125 129.7546844482422
v -20.77902603149414 -124.16533660888672 129.11431884765625
v -19.186424255371094 -124.16534423828125 128.6875762939453
v -16.221271514892578 -124.16534423828125 133.38327026367188
v -15.653730392456055 -124.16534423828125 132.316162109375
v -14.628670692443848 -124.16534423828125 132.95654296875
v -15.086187362670898 -124.16534423828125 131.24905395507812
v -14.061127662658691 -124.16534423828125 131.88943481445312
v -13.036067962646484 -124.16535186767578 132.52978515625
v -13.493584632873535 -124.16535186767578 130.8223114013672
v -15.543703079223633 -124.16534423828125 129.54156494140625
v -14.518644332885742 -124.16534423828125 130.18194580078125
v -13.951101303100586 -124.16535186767578 129.11483764648438
v -14.976160049438477 -124.16534423828125 128.47445678710938
v -14.40861701965332 -124.16535186767578 127.4073486328125
v -16.001220703125 -124.16534423828125 127.83409118652344
v -16.11124610900879 -124.16534423828125 130.60867309570312
v -17.136306762695312 -124.16534423828125 129.96832275390625
v -17.593822479248047 -124.16534423828125 128.26083374023438
v -18.381412506103516 -124.16534423828125 134.8771209716797
v -18.94895362854004 -124.16533660888672 135.94422912597656
v -17.356353759765625 -124.16534423828125 135.51748657226562
v -16.7888126373291 -124.16534423828125 134.45037841796875
v -15.763752937316895 -124.16534423828125 135.09075927734375
v -15.196211814880371 -124.16534423828125 134.02365112304688
v -14.171152114868164 -124.16534423828125 134.6640167236328
v -13.60361099243164 -124.16534423828125 133.59690856933594
v -12.57855224609375 -124.16535186767578 134.23727416992188
vn 0.4003290832042694 -0.379347026348114 0.8341656923294067
vn 0.35010555386543274 -0.13267090916633606 0.9272672533988953
vn 0.4343336522579193 -0.0445246621966362 0.8996509313583374
vn -0.0044053057208657265 0.7295678853988647 0.6838942766189575
vn 0.1427358239889145 0.7417882084846497 0.6552683711051941
vn 0.0683373287320137 0.5643389821052551 0.822709858417511
vn -0.34815382957458496 -0.04353034123778343 -0.9364262223243713
vn -0.434599369764328 -0.042955461889505386 -0.8995988965034485
vn -0.35037046670913696 -0.13095904886722565 -0.9274104833602905
vn -0.05767739564180374 -0.522100031375885 -0.8509318232536316
vn -0.15042269229888916 -0.45673054456710815 -0.8767954707145691
vn -0.09765643626451492 -0.5594273805618286 -0.8231064677238464
vn -0.04330682381987572 -0.6530539393424988 -0.7560721635818481
vn -0.136606827378273 -0.5951441526412964 -0.7919228672981262
vn 0.28664836287498474 0.7372298836708069 0.6118208169937134
vn 0.364290714263916 0.5656800270080566 0.7397961020469666
vn -0.07052794843912125 -0.37738677859306335 -0.923366129398346
vn -0.11068092286586761 -0.4178348183631897 -0.9017559289932251
vn -0.32112112641334534 -0.38160306215286255 -0.8667526841163635
vn -0.286673367023468 -0.34182149171829224 -0.8949729204177856
vn -0.3330632448196411 -0.29927051067352295 -0.894150972366333
vn -0.23914726078510284 -0.3830176889896393 -0.89224773645401
vn -0.2606714069843292 -0.2169180065393448 -0.9407427906990051
vn -0.15541043877601624 -0.3816088140010834 -0.9111654162406921
vn 0.34794408082962036 -0.04512463137507439 0.9364286661148071
vn 0.2584870159626007 -0.045326776802539825 0.9649507999420166
vn 0.36793577671051025 0.17278820276260376 0.9136560559272766
vn 0.19398726522922516 -0.6617505550384521 0.72419273853302
vn 0.11881804466247559 -0.6597715616226196 0.7420133352279663
vn 0.13621050119400024 -0.5962256193161011 0.7911773324012756
vn -0.16856002807617188 -0.13105669617652893 -0.9769399762153625
vn -0.215077742934227 -0.174361914396286 -0.9609055519104004
vn -0.166902557015419 -0.2994903028011322 -0.9393875598907471
vn -0.2586342692375183 -0.04372086375951767 -0.9649853706359863
vn 0.04293925315141678 -0.6538525223731995 0.7554026246070862
vn 0.07153524458408356 -0.8015854358673096 0.5935852527618408
vn -0.1668311506509781 -0.04352536424994469 -0.9850243330001831
vn 0.26799800992012024 -0.6597776412963867 0.7020474076271057
vn 0.2857476770877838 -0.5958291888237 0.750557005405426
vn 0.3404082953929901 -0.6538646221160889 0.6757094860076904
vn 0.2241886556148529 -0.8022961020469666 0.5532273054122925
vn -0.2682594954967499 -0.6589486002922058 -0.702725887298584
vn -0.19428502023220062 -0.6609230637550354 -0.7248682379722595
vn -0.2860735058784485 -0.5947327613830566 -0.751302182674408
vn -0.34063342213630676 -0.6530424952507019 -0.6763907074928284
vn -0.2239529937505722 -0.8032222986221313 -0.5519772171974182
vn -0.11915137618780136 -0.6589543223381042 -0.7426857948303223
vn -0.07128602266311646 -0.8025200366973877 -0.5923512578010559
vn 0.32074999809265137 -0.38358914852142334 0.8660131692886353
vn 0.2388085424900055 -0.3850060701370239 0.8914823532104492
vn 0.33273255825042725 -0.30118608474731445 0.8936308026313782
vn 0.31610172986984253 -0.4580540657043457 0.8308225870132446
vn -0.3312084972858429 -0.5591558218002319 -0.7600300312042236
vn -0.3165176808834076 -0.45637908577919006 -0.8315855860710144
vn -0.37563014030456543 -0.5220882892608643 -0.7657190561294556
vn 0.1551082581281662 -0.38358739018440247 0.91038578748703
vn 0.07026556879281998 -0.37934353947639465 0.9225839972496033
vn 0.16663801670074463 -0.3013986647129059 0.9388240575790405
vn 0.15007774531841278 -0.4583962559700012 0.8759849667549133
vn -0.18960557878017426 -0.49392932653427124 -0.8485773801803589
vn -0.2280840128660202 -0.5292930006980896 -0.8172065615653992
vn -0.3592224717140198 -0.41757431626319885 -0.8346201777458191
vn -0.40072786808013916 -0.37737539410591125 -0.8348682522773743
vn 0.2604064345359802 -0.2187439203262329 0.9403932690620422
vn 0.0011759435292333364 -0.9999886751174927 0.004627807065844536
vn 0.08528073877096176 -0.9961957335472107 -0.017926745116710663
vn 0.03748377040028572 -0.9735161662101746 -0.22552426159381866
vn 0.16873769462108612 -0.9848349690437317 -0.04034511744976044
vn 0.06745747476816177 -0.9929720163345337 0.09724222123622894
vn 0.2067667841911316 -0.9404290318489075 0.26989027857780457
vn 0.27824872732162476 -0.8955507278442383 0.34722715616226196
vn 0.16842177510261536 -0.13277895748615265 0.9767312407493591
vn 0.07354503124952316 -0.044533975422382355 0.9962970614433289
vn 0.13626304268836975 -0.9730356931686401 0.18610234558582306
vn -0.3051682710647583 -0.0875309556722641 -0.9482671618461609
vn 0.09663833677768707 -0.9101788401603699 0.4027845859527588
vn -0.13467220962047577 -0.9744760990142822 -0.17961019277572632
vn -0.09570608288049698 -0.9119181632995605 -0.39905574917793274
vn -0.16642147302627563 -0.9848134517669678 0.04946037381887436
vn -0.07312054187059402 -0.21331414580345154 -0.9742434620857239
vn -0.12065242230892181 -0.2565789222717285 -0.9589630961418152
vn -0.0357961505651474 -0.97206050157547 0.23198482394218445
vn -0.07355498522520065 -0.04294555261731148 -0.9963660836219788
vn -0.12131812423467636 -0.08718841522932053 -0.9887771010398865
vn 0.22767013311386108 -0.5306688547134399 0.8164293169975281
vn -0.2973954379558563 -0.2585533857345581 -0.9190789461135864
vn -0.3875323534011841 -0.1727629154920578 -0.905522882938385
vn -0.42391881346702576 -0.2133129984140396 -0.8802217841148376
vn -0.21420545876026154 -0.258709579706192 -0.9419052600860596
vn 0.28246796131134033 0.38114556670188904 0.8803067803382874
vn -0.36754825711250305 -0.3389247953891754 -0.8660475015640259
vn 0.18355831503868103 0.17355506122112274 0.9675664901733398
vn -0.23136572539806366 0.06447611004114151 -0.9707278609275818
vn -0.20120908319950104 0.171868234872818 -0.9643527865409851
vn -0.2943679392337799 0.17007341980934143 -0.940437376499176
vn -0.13848502933979034 0.06497889012098312 -0.9882304668426514
vn -0.03303335979580879 0.16742779314517975 -0.9853307604789734
vn 0.16675107181072235 -0.045129306614398956 0.9849657416343689
vn 0.4640760123729706 0.1663309931755066 0.8700388073921204
vn 0.42347174882888794 0.273285835981369 0.8637050986289978
vn 0.4723680317401886 0.3694985806941986 0.8002119660377502
vn -0.35247400403022766 0.2748015522956848 -0.8945647478103638
vn -0.3160933554172516 0.3757743537425995 -0.871136486530304
vn -0.38460105657577515 0.17051251232624054 -0.9071977138519287
vn 0.12147039920091629 0.3762560784816742 0.918518602848053
vn -0.4116036593914032 0.3706757426261902 -0.8325755000114441
vn -0.41208672523498535 0.06416570395231247 -0.9088824391365051
vn -0.4796726703643799 0.16308119893074036 -0.862159252166748
vn 0.40375909209251404 0.06455133855342865 0.9125851392745972
vn 0.37944453954696655 0.37733739614486694 0.8447712063789368
vn -0.32426732778549194 0.06391812115907669 -0.943803608417511
vn -0.4473395347595215 0.26827511191368103 -0.8531797528266907
vn -0.502736508846283 0.3616349697113037 -0.7851599454879761
vn -0.45971184968948364 0.4616307020187378 -0.7586581110954285
vn -0.41091665625572205 0.555831789970398 -0.7226331233978271
vn -0.502732515335083 0.5435953140258789 -0.6721339225769043
vn 0.42117226123809814 0.47076699137687683 0.7752369046211243
vn 0.4588264226913452 0.5555873513221741 0.6933981776237488
vn 0.12953487038612366 0.06500393152236938 0.9894418716430664
vn 0.015706494450569153 0.161994069814682 0.9866666793823242
vn 0.07113546133041382 0.2702852487564087 0.9601486921310425
vn -0.04285598173737526 0.36105552315711975 0.9315590858459473
vn -0.36642348766326904 0.46954289078712463 -0.8032827377319336
vn -0.26682841777801514 0.5731872320175171 -0.7747637033462524
vn -0.2607278823852539 0.27601972222328186 -0.9251129627227783
vn -0.15567950904369354 0.3781258761882782 -0.9125704169273376
vn -0.09713468700647354 0.2738988697528839 -0.9568407535552979
vn 0.009008483961224556 0.37009599804878235 -0.9289498329162598
vn -0.16229286789894104 0.6606356501579285 -0.7329541444778442
vn -0.20403888821601868 0.7415473461151123 -0.6391209363937378
vn -0.11777254194021225 0.5684307813644409 -0.8142580389976501
vn -0.05770546570420265 0.7370023131370544 -0.6734223961830139
vn -0.014060662128031254 0.6486047506332397 -0.760995626449585
vn 0.05063575133681297 0.5557320713996887 -0.8298179507255554
vn 0.08993272483348846 0.7157930135726929 -0.6924972534179688
vn 0.39719873666763306 0.6457393169403076 0.6521149277687073
vn 0.4240771532058716 0.7159959673881531 0.554534375667572
vn 0.012846346013247967 0.46653494238853455 0.884409487247467
vn -0.09944313764572144 0.5434751510620117 0.8335140347480774
vn -0.21912650763988495 0.4768763482570648 -0.8512183427810669
vn -0.05485418811440468 0.47333765029907227 -0.8791714310646057
vn -0.041991230100393295 0.6392369866371155 0.7678623795509338
vn -0.15144678950309753 0.7008451223373413 0.697050929069519
vn -0.3107684850692749 0.6556320190429688 -0.6881639361381531
vn -0.345758855342865 0.729325532913208 -0.5903685688972473
vn -0.4796609580516815 0.7006131410598755 -0.528267502784729
vn -0.4488639831542969 0.6332663893699646 -0.63047194480896
vn -0.4714534878730774 0.853346049785614 -0.22255852818489075
vn -0.28208252787590027 0.916648805141449 -0.2831685245037079
vn -0.3526913523674011 0.9315056800842285 -0.08891476690769196
vn -0.23021046817302704 0.9714530110359192 0.05728965625166893
vn -0.0433814637362957 0.999053418636322 0.0032113813795149326
vn -0.07582900673151016 0.9779259562492371 0.19470682740211487
vn -0.16578102111816406 0.9757978916168213 -0.14260128140449524
vn -0.2622184157371521 0.9322929382324219 0.24914157390594482
vn -0.10538218170404434 0.9194714426994324 0.3787703812122345
vn -0.2971632182598114 0.8534691333770752 0.4281173348426819
vn -0.4081553816795349 0.9063630104064941 0.10915705561637878
vn -0.1309129297733307 0.825920820236206 0.5483763217926025
vn -0.15144678950309753 0.7008451223373413 0.697050929069519
vn -0.0044053057208657265 0.7295678853988647 0.6838942766189575
vn -0.13234084844589233 0.9310171008110046 -0.34013697504997253
vn -0.009278063662350178 0.9820472598075867 -0.18840664625167847
vn 0.025179477408528328 0.9275566935539246 -0.372833251953125
vn 0.14952242374420166 0.9877594113349915 -0.04443398118019104
vn 0.18497659265995026 0.9537692666053772 -0.23687130212783813
vn 0.22704963386058807 0.8801859021186829 -0.41679877042770386
vn 0.336503803730011 0.9373407363891602 -0.09031933546066284
vn 0.2065400928258896 0.9304713606834412 0.3025956451892853
vn 0.2775302827358246 0.9545718431472778 0.10848681628704071
vn 0.4049597382545471 0.8802939653396606 0.24716421961784363
vn 0.3216762840747833 0.839858889579773 0.43721988797187805
vn 0.4240771532058716 0.7159959673881531 0.554534375667572
vn 0.28664836287498474 0.7372298836708069 0.6118208169937134
vn 0.08322681486606598 0.9842458963394165 0.15599142014980316
vn 0.053305529057979584 0.9339951276779175 0.35328710079193115
vn 0.1427358239889145 0.7417882084846497 0.6552683711051941
vn -0.3880079984664917 0.8237819671630859 -0.41331979632377625
vn -0.4796609580516815 0.7006131410598755 -0.528267502784729
vn -0.345758855342865 0.729325532913208 -0.5903685688972473
vn -0.2481844276189804 0.8465754985809326 -0.4708656966686249
vn -0.20403888821601868 0.7415473461151123 -0.6391209363937378
vn -0.09125063568353653 0.8515447974205017 -0.5162795782089233
vn -0.05770546570420265 0.7370023131370544 -0.6734223961830139
vn 0.058675918728113174 0.8376614451408386 -0.5430288910865784
vn 0.08993272483348846 0.7157930135726929 -0.6924972534179688
vt 0.053797073662281036 1.2445296049118042
vt 0.21321538090705872 1.1210034936666489
vt 0.26635482907295227 1.2445296049118042
vt 0.7628096342086792 0.8739512711763382
vt 0.762809693813324 0.9974773824214935
vt 0.6386959552764893 0.8739512711763382
vt 0.26635482907295227 0.8739512711763382
vt 0.26635482907295227 0.7504251599311829
vt 0.21321536600589752 0.8739512711763382
vt -0.04013703763484955 1.2445296049118042
vt 0.006829962134361267 1.1210034936666489
vt -0.06362055242061615 1.1827665567398071
vt -0.13407106697559357 1.2445296049118042
vt -0.08710406720638275 1.1210034936666489
vt 0.7628097534179688 1.1210034936666489
vt 0.638696014881134 1.1210034936666489
vt 0.05379698425531387 1.2445296049118042
vt 0.03031347319483757 1.1827665567398071
vt 0.05379696190357208 0.8739512711763382
vt 0.08036670088768005 0.9357143267989159
vt 0.10693642497062683 0.8739512711763382
vt 0.05379696935415268 0.9974773824214935
vt 0.16007590293884277 0.9974773824214935
vt 0.053796976804733276 1.1210034936666489
vt 0.26635482907295227 1.1210034936666489
vt 0.26635482907295227 0.9974773824214935
vt 0.3904685378074646 1.1210034936666489
vt -0.1340710073709488 0.9974773824214935
vt -0.13407103717327118 0.8739512711763382
vt -0.08710403740406036 0.8739512711763382
vt 0.21321536600589752 1.1210034936666489
vt 0.18664562702178955 1.0592404380440712
vt 0.10693643987178802 1.1210034936666489
vt 0.26635482907295227 0.9974773824214935
vt -0.13407106697559357 0.7504251599311829
vt -0.1823258101940155 0.8739512711763382
vt 0.26635482907295227 1.1210034936666489
vt -0.1340709775686264 1.1210034936666489
vt -0.08710397779941559 1.1210034936666489
vt -0.13407094776630402 1.2445296049118042
vt -0.18232575058937073 1.1210034936666489
vt -0.1340709924697876 0.8739512711763382
vt -0.13407102227210999 0.9974773824214935
vt -0.08710402250289917 0.8739512711763382
vt -0.1340709775686264 0.7504251599311829
vt -0.18232578039169312 0.8739512711763382
vt -0.13407105207443237 1.1210034936666489
vt -0.1823258399963379 1.1210034936666489
vt 0.05379706621170044 1.1210034936666489
vt 0.05379705876111984 0.9974773824214935
vt 0.1069364994764328 1.1210034936666489
vt 0.006830036640167236 1.1210034936666489
vt -0.06362051516771317 0.8121882081031799
vt 0.006829947233200073 0.8739512711763382
vt -0.04013701528310776 0.7504251599311829
vt 0.053797051310539246 0.8739512711763382
vt 0.05379704385995865 0.7504251599311829
vt 0.1069364845752716 0.8739512711763382
vt 0.0068300217390060425 0.8739512711763382
vt -0.016653548926115036 1.0592404380440712
vt -0.04013705998659134 0.9974773824214935
vt 0.03031345084309578 0.8121882081031799
vt 0.053796954452991486 0.7504251599311829
vt 0.16007593274116516 0.9974773824214935
vt -0.32709020376205444 0.9974773824214935
vt -0.32709020376205444 1.1210034936666489
vt -0.2788354158401489 1.1210034936666489
vt -0.32709020376205444 1.2445296049118042
vt -0.3029627799987793 1.0592404305934906
vt -0.2547079920768738 1.1827665567398071
vt -0.23058056831359863 1.2445296049118042
vt 0.21321538090705872 0.8739512711763382
vt 0.26635482907295227 0.7504251599311829
vt -0.27883538603782654 1.1210034936666489
vt 0.2397851049900055 0.9357143267989159
vt -0.23058056831359863 0.9974773824214935
vt -0.2788354158401489 0.8739512711763382
vt -0.23058059811592102 0.9974773824214935
vt -0.32709020376205444 0.7504251599311829
vt 0.16007590293884277 1.2445296049118042
vt 0.133506178855896 1.1827665567398071
vt -0.27883538603782654 0.8739512711763382
vt 0.26635482907295227 1.2445296049118042
vt 0.2397851049900055 1.1827665567398071
vt -0.040137000381946564 0.9974773824214935
vt 0.1335061639547348 0.9357143267989159
vt 0.18664562702178955 0.8121882081031799
vt 0.16007588803768158 0.7504251599311829
vt 0.133506178855896 1.0592404380440712
vt 0.5145822763442993 0.9974773824214935
vt 0.08036668598651886 0.8121882081031799
vt 0.3904685378074646 0.8739512711763382
vt 0.32841169834136963 1.0592404380440712
vt 0.3904685378074646 1.1210034936666489
vt 0.3904685378074646 0.9974773824214935
vt 0.32841169834136963 1.1827665567398071
vt 0.3904685378074646 1.2445296049118042
vt 0.26635482907295227 0.8739512711763382
vt 0.3904685378074646 1.2445296049118042
vt 0.45252540707588196 1.1827665567398071
vt 0.5145822763442993 1.2445296049118042
vt 0.45252537727355957 0.9357143267989159
vt 0.5145822167396545 0.9974773824214935
vt 0.3904685378074646 0.8739512711763382
vt 0.5145822763442993 0.8739512711763382
vt 0.5145822167396545 0.8739512711763382
vt 0.32841169834136963 0.8121882081031799
vt 0.3904685378074646 0.7504251599311829
vt 0.32841169834136963 1.1827665567398071
vt 0.5145822763442993 1.1210034936666489
vt 0.32841169834136963 0.9357143267989159
vt 0.45252537727355957 0.8121882081031799
vt 0.5145822167396545 0.7504251599311829
vt 0.5766390562057495 0.8121882081031799
vt 0.6386959552764893 0.8739512711763382
vt 0.6386959552764893 0.7504251599311829
vt 0.5766391754150391 1.1827665567398071
vt 0.638696014881134 1.2445296049118042
vt 0.32841169834136963 0.8121882081031799
vt 0.3904685378074646 0.7504251599311829
vt 0.45252537727355957 0.8121882081031799
vt 0.5145822167396545 0.7504251599311829
vt 0.5766390562057495 0.9357143267989159
vt 0.6386959552764893 0.9974773824214935
vt 0.45252537727355957 1.0592404380440712
vt 0.5145822763442993 1.1210034936666489
vt 0.45252540707588196 1.1827665567398071
vt 0.5145822763442993 1.2445296049118042
vt 0.700752854347229 1.0592404380440712
vt 0.762809693813324 0.9974773824214935
vt 0.6386959552764893 1.1210034936666489
vt 0.7628097534179688 1.1210034936666489
vt 0.700752854347229 1.1827665567398071
vt 0.638696014881134 1.2445296049118042
vt 0.7628097534179688 1.2445296049118042
vt 0.700752854347229 1.1827665567398071
vt 0.7628097534179688 1.2445296049118042
vt 0.5766390562057495 0.8121882081031799
vt 0.6386959552764893 0.7504251599311829
vt 0.5766390562057495 1.0592404380440712
vt 0.5766391158103943 1.1827665567398071
vt 0.7007527947425842 0.8121882081031799
vt 0.7628096342086792 0.7504251599311829
vt 0.700752854347229 0.9357143267989159
vt 0.7628096342086792 0.8739512711763382
vt 0.7628096342086792 0.7504251599311829
vt 0.7007527947425842 0.8121882081031799
vt 0.12448087334632874 1.0240936875343323
vt 0.12448111176490784 0.7920199036598206
vt 0.18702542781829834 0.9080565869808197
vt 0.24956998229026794 0.7920194864273071
vt 0.24957022070884705 0.5599457025527954
vt 0.31211453676223755 0.6759823858737946
vt 0.18702566623687744 0.675982803106308
vt 0.31211429834365845 0.9080561697483063
vt 0.37465882301330566 0.7920190691947937
vt 0.37465858459472656 1.0240928530693054
vt 0.24956974387168884 1.0240932703018188
vt 0.43720313906669617 0.9080557525157928
vt 0.49974745512008667 1.024092435836792
vt 0.49974745512008667 0.792018711566925
vt 0.12448135018348694 0.5599461197853088
vt 0.18702590465545654 0.44390904903411865
vt 0.12448158860206604 0.3278723359107971
vt 0.24957020580768585 0.32787197828292847
vt 0.18702588975429535 0.21183526515960693
vt 0.12448157370090485 0.09579861164093018
vt 0.24957019090652466 0.09579825401306152
vt 0.37465882301330566 0.3278716206550598
vt 0.31211450695991516 0.21183490753173828
vt 0.37465882301330566 0.09579789638519287
vt 0.43720313906669617 0.21183454990386963
vt 0.49974745512008667 0.09579753875732422
vt 0.49974745512008667 0.32787126302719116
vt 0.31211453676223755 0.44390869140625
vt 0.37465882301330566 0.5599453449249268
vt 0.49974745512008667 0.5599449872970581
vt 0.06193655729293823 0.9080570042133331
vt -0.0006079953163862228 1.0240941047668457
vt -0.0006077568978071213 0.792020320892334
vt 0.061936795711517334 0.6759832203388214
vt -0.0006075184792280197 0.5599465370178223
vt 0.061937034130096436 0.4439094066619873
vt -0.0006072800606489182 0.32787275314331055
vt 0.06193727254867554 0.21183562278747559
vt -0.0006070416420698166 0.09579896926879883
g Canal09c0
s 1
f 1/1/1 2/2/2 3/3/3
f 4/4/4 5/5/5 6/6/6
f 7/7/7 8/8/8 9/9/9
f 10/10/10 11/11/11 12/12/12
f 10/10/10 12/12/12 13/13/13
f 12/12/12 14/14/14 13/13/13
f 5/5/5 15/15/15 16/16/16
f 11/11/11 14/14/14 12/12/12
f 17/17/17 18/18/18 10/10/10
f 18/18/18 11/11/11 10/10/10
f 19/19/19 20/20/20 21/21/21
f 19/19/19 22/22/22 20/20/20
f 20/20/20 22/22/22 23/23/23
f 18/18/18 24/24/24 11/11/11
f 25/25/25 26/26/26 27/27/27
f 17/17/17 24/24/24 18/18/18
f 25/25/25 3/3/3 2/2/2
f 26/26/26 25/25/25 2/2/2
f 28/28/28 29/29/29 30/30/30
f 31/31/31 32/32/32 33/33/33
f 31/31/31 34/34/34 32/32/32
f 32/32/32 34/34/34 23/23/23
f 29/29/29 35/35/35 30/30/30
f 35/35/35 29/29/29 36/36/36
f 37/37/37 34/34/34 31/31/31
f 29/29/29 28/28/28 36/36/36
f 38/38/38 28/28/28 39/39/39
f 40/40/40 38/38/38 39/39/39
f 38/38/38 40/40/40 41/41/41
f 28/28/28 38/38/38 41/41/41
f 42/42/42 43/43/43 44/44/44
f 45/45/45 42/42/42 44/44/44
f 42/42/42 45/45/45 46/46/46
f 43/43/43 42/42/42 46/46/46
f 47/47/47 13/13/13 14/14/14
f 43/43/43 47/47/47 14/14/14
f 47/47/47 43/43/43 48/48/48
f 13/13/13 47/47/47 48/48/48
f 49/49/49 50/50/50 51/51/51
f 1/1/1 49/49/49 51/51/51
f 49/49/49 1/1/1 52/52/52
f 50/50/50 49/49/49 52/52/52
f 53/53/53 44/44/44 54/54/54
f 45/45/45 44/44/44 53/53/53
f 45/45/45 53/53/53 55/55/55
f 22/22/22 19/19/19 54/54/54
f 56/56/56 57/57/57 58/58/58
f 50/50/50 56/56/56 58/58/58
f 56/56/56 50/50/50 59/59/59
f 57/57/57 56/56/56 59/59/59
f 24/24/24 17/17/17 33/33/33
f 22/22/22 24/24/24 33/33/33
f 24/24/24 22/22/22 11/11/11
f 53/53/53 54/54/54 55/55/55
f 60/60/60 61/61/61 14/14/14
f 11/11/11 60/60/60 14/14/14
f 11/11/11 22/22/22 60/60/60
f 60/60/60 22/22/22 61/61/61
f 55/55/55 54/54/54 62/62/62
f 55/55/55 62/62/62 63/63/63
f 51/51/51 64/64/64 2/2/2
f 1/1/1 51/51/51 2/2/2
f 19/19/19 63/63/63 62/62/62
f 51/51/51 50/50/50 64/64/64
f 19/19/19 62/62/62 54/54/54
f 65/65/65 66/66/66 67/67/67
f 66/66/66 68/68/68 67/67/67
f 68/68/68 66/66/66 69/69/69
f 66/66/66 65/65/65 69/69/69
f 68/68/68 70/70/70 71/71/71
f 72/72/72 64/64/64 58/58/58
f 73/73/73 72/72/72 58/58/58
f 70/70/70 41/41/41 71/71/71
f 72/72/72 26/26/26 64/64/64
f 70/70/70 74/74/74 41/41/41
f 68/68/68 74/74/74 70/70/70
f 34/34/34 75/75/75 23/23/23
f 75/75/75 9/9/9 23/23/23
f 75/75/75 7/7/7 9/9/9
f 71/71/71 41/41/41 40/40/40
f 68/68/68 69/69/69 74/74/74
f 74/74/74 69/69/69 76/76/76
f 74/74/74 76/76/76 41/41/41
f 34/34/34 7/7/7 75/75/75
f 77/77/77 78/78/78 46/46/46
f 79/79/79 77/77/77 46/46/46
f 79/79/79 65/65/65 77/77/77
f 77/77/77 65/65/65 78/78/78
f 80/80/80 31/31/31 81/81/81
f 69/69/69 65/65/65 82/82/82
f 69/69/69 82/82/82 76/76/76
f 80/80/80 81/81/81 17/17/17
f 65/65/65 67/67/67 78/78/78
f 81/81/81 33/33/33 17/17/17
f 48/48/48 67/67/67 68/68/68
f 48/48/48 78/78/78 67/67/67
f 36/36/36 76/76/76 82/82/82
f 35/35/35 36/36/36 82/82/82
f 31/31/31 33/33/33 81/81/81
f 36/36/36 28/28/28 76/76/76
f 83/83/83 84/84/84 80/80/80
f 84/84/84 31/31/31 80/80/80
f 44/44/44 61/61/61 54/54/54
f 84/84/84 37/37/37 31/31/31
f 83/83/83 37/37/37 84/84/84
f 44/44/44 43/43/43 61/61/61
f 39/39/39 85/85/85 52/52/52
f 40/40/40 39/39/39 52/52/52
f 21/21/21 86/86/86 9/9/9
f 39/39/39 28/28/28 85/85/85
f 28/28/28 30/30/30 85/85/85
f 86/86/86 23/23/23 9/9/9
f 59/59/59 30/30/30 35/35/35
f 59/59/59 85/85/85 30/30/30
f 43/43/43 14/14/14 61/61/61
f 86/86/86 20/20/20 23/23/23
f 21/21/21 20/20/20 86/86/86
f 87/87/87 9/9/9 8/8/8
f 21/21/21 9/9/9 87/87/87
f 88/88/88 21/21/21 87/87/87
f 88/88/88 87/87/87 8/8/8
f 22/22/22 33/33/33 89/89/89
f 22/22/22 89/89/89 23/23/23
f 27/27/27 26/26/26 90/90/90
f 32/32/32 23/23/23 89/89/89
f 32/32/32 89/89/89 33/33/33
f 63/63/63 91/91/91 88/88/88
f 91/91/91 21/21/21 88/88/88
f 26/26/26 92/92/92 90/90/90
f 91/91/91 19/19/19 21/21/21
f 63/63/63 19/19/19 91/91/91
f 93/93/93 37/37/37 94/94/94
f 34/34/34 37/37/37 93/93/93
f 34/34/34 93/93/93 95/95/95
f 93/93/93 94/94/94 95/95/95
f 37/37/37 83/83/83 96/96/96
f 37/37/37 96/96/96 94/94/94
f 97/97/97 94/94/94 96/96/96
f 97/97/97 96/96/96 83/83/83
f 5/5/5 16/16/16 90/90/90
f 6/6/6 5/5/5 90/90/90
f 26/26/26 2/2/2 64/64/64
f 98/98/98 26/26/26 72/72/72
f 99/99/99 100/100/100 101/101/101
f 102/102/102 95/95/95 103/103/103
f 104/104/104 95/95/95 102/102/102
f 6/6/6 90/90/90 105/105/105
f 104/104/104 102/102/102 106/106/106
f 102/102/102 103/103/103 106/106/106
f 105/105/105 90/90/90 92/92/92
f 107/107/107 7/7/7 104/104/104
f 8/8/8 7/7/7 107/107/107
f 8/8/8 107/107/107 108/108/108
f 107/107/107 104/104/104 108/108/108
f 3/3/3 109/109/109 99/99/99
f 110/110/110 90/90/90 16/16/16
f 27/27/27 90/90/90 110/110/110
f 109/109/109 27/27/27 99/99/99
f 109/109/109 25/25/25 27/27/27
f 3/3/3 25/25/25 109/109/109
f 26/26/26 98/98/98 92/92/92
f 7/7/7 111/111/111 104/104/104
f 7/7/7 34/34/34 111/111/111
f 111/111/111 34/34/34 95/95/95
f 104/104/104 111/111/111 95/95/95
f 108/108/108 112/112/112 113/113/113
f 108/108/108 104/104/104 112/112/112
f 104/104/104 106/106/106 112/112/112
f 112/112/112 106/106/106 113/113/113
f 114/114/114 115/115/115 116/116/116
f 113/113/113 114/114/114 116/116/116
f 113/113/113 106/106/106 114/114/114
f 114/114/114 106/106/106 115/115/115
f 73/73/73 98/98/98 72/72/72
f 99/99/99 27/27/27 100/100/100
f 27/27/27 110/110/110 100/100/100
f 100/100/100 110/110/110 101/101/101
f 117/117/117 16/16/16 118/118/118
f 101/101/101 117/117/117 118/118/118
f 101/101/101 110/110/110 117/117/117
f 117/117/117 110/110/110 16/16/16
f 98/98/98 119/119/119 92/92/92
f 98/98/98 73/73/73 119/119/119
f 120/120/120 119/119/119 73/73/73
f 120/120/120 92/92/92 119/119/119
f 121/121/121 92/92/92 120/120/120
f 122/122/122 121/121/121 120/120/120
f 122/122/122 105/105/105 121/121/121
f 121/121/121 105/105/105 92/92/92
f 106/106/106 123/123/123 115/115/115
f 106/106/106 103/103/103 123/123/123
f 124/124/124 123/123/123 103/103/103
f 124/124/124 115/115/115 123/123/123
f 95/95/95 125/125/125 103/103/103
f 95/95/95 94/94/94 125/125/125
f 126/126/126 125/125/125 94/94/94
f 126/126/126 103/103/103 125/125/125
f 127/127/127 94/94/94 97/97/97
f 128/128/128 127/127/127 97/97/97
f 128/128/128 126/126/126 127/127/127
f 127/127/127 126/126/126 94/94/94
f 129/129/129 130/130/130 124/124/124
f 131/131/131 129/129/129 124/124/124
f 132/132/132 129/129/129 131/131/131
f 132/132/132 130/130/130 129/129/129
f 133/133/133 131/131/131 134/134/134
f 135/135/135 133/133/133 134/134/134
f 135/135/135 132/132/132 133/133/133
f 133/133/133 132/132/132 131/131/131
f 118/118/118 136/136/136 137/137/137
f 118/118/118 16/16/16 136/136/136
f 15/15/15 136/136/136 16/16/16
f 15/15/15 137/137/137 136/136/136
f 6/6/6 105/105/105 138/138/138
f 138/138/138 105/105/105 122/122/122
f 139/139/139 138/138/138 122/122/122
f 139/139/139 6/6/6 138/138/138
f 131/131/131 124/124/124 140/140/140
f 140/140/140 124/124/124 103/103/103
f 140/140/140 103/103/103 126/126/126
f 131/131/131 140/140/140 126/126/126
f 131/131/131 126/126/126 141/141/141
f 141/141/141 126/126/126 128/128/128
f 73/73/73 58/58/58 57/57/57
f 28/28/28 41/41/41 76/76/76
f 43/43/43 46/46/46 78/78/78
f 79/79/79 46/46/46 45/45/45
f 65/65/65 79/79/79 82/82/82
f 35/35/35 82/82/82 79/79/79
f 48/48/48 43/43/43 78/78/78
f 13/13/13 48/48/48 68/68/68
f 50/50/50 52/52/52 85/85/85
f 40/40/40 52/52/52 1/1/1
f 22/22/22 54/54/54 61/61/61
f 142/142/142 4/4/4 6/6/6
f 143/143/143 4/4/4 142/142/142
f 143/143/143 142/142/142 139/139/139
f 142/142/142 6/6/6 139/139/139
f 144/144/144 145/145/145 115/115/115
f 130/130/130 145/145/145 144/144/144
f 130/130/130 144/144/144 124/124/124
f 144/144/144 115/115/115 124/124/124
f 145/145/145 146/146/146 147/147/147
f 145/145/145 147/147/147 115/115/115
f 59/59/59 50/50/50 85/85/85
f 116/116/116 115/115/115 147/147/147
f 57/57/57 59/59/59 35/35/35
f 116/116/116 147/147/147 146/146/146
f 134/134/134 131/131/131 141/141/141
f 134/134/134 141/141/141 128/128/128
f 50/50/50 58/58/58 64/64/64
g Canal09c1
s 1
f 148/148/148 149/149/149 150/150/150
f 151/151/151 152/152/152 153/153/153
f 149/149/149 154/154/154 151/151/151
f 155/155/155 156/156/156 157/157/157
f 158/158/158 155/155/155 157/157/157
f 158/158/158 151/151/151 155/155/155
f 155/155/155 151/151/151 156/156/156
f 157/157/157 159/159/159 160/160/160
f 157/157/157 156/156/156 159/159/159
f 161/161/161 159/159/159 156/156/156
f 161/161/161 160/160/160 159/159/159
f 162/162/162 163/163/163 152/152/152
f 162/162/162 164/164/164 163/163/163
f 165/165/165 163/163/163 164/164/164
f 165/165/165 152/152/152 163/163/163
f 166/166/166 164/164/164 167/167/167
f 168/168/168 166/166/166 167/167/167
f 168/168/168 165/165/165 166/166/166
f 166/166/166 165/165/165 164/164/164
f 169/169/169 165/165/165 170/170/170
f 170/170/170 165/165/165 168/168/168
f 171/171/171 170/170/170 168/168/168
f 171/171/171 169/169/169 170/170/170
f 172/172/172 169/169/169 171/171/171
f 173/173/173 172/172/172 171/171/171
f 173/173/173 174/174/174 172/172/172
f 154/154/154 152/152/152 151/151/151
f 172/172/172 174/174/174 169/169/169
f 175/175/175 152/152/152 165/165/165
f 169/169/169 175/175/175 165/165/165
f 169/169/169 176/176/176 175/175/175
f 175/175/175 176/176/176 152/152/152
f 154/154/154 162/162/162 152/152/152
f 149/149/149 162/162/162 154/154/154
f 150/150/150 151/151/151 158/158/158
f 176/176/176 153/153/153 152/152/152
f 151/151/151 153/153/153 156/156/156
f 176/176/176 156/156/156 153/153/153
f 149/149/149 151/151/151 150/150/150
f 177/177/177 156/156/156 176/176/176
f 169/169/169 177/177/177 176/176/176
f 177/177/177 161/161/161 156/156/156
f 178/178/178 149/149/149 148/148/148
f 179/179/179 178/178/178 148/148/148
f 179/179/179 180/180/180 178/178/178
f 178/178/178 180/180/180 149/149/149
f 180/180/180 181/181/181 149/149/149
f 174/174/174 177/177/177 169/169/169
f 180/180/180 182/182/182 181/181/181
f 181/181/181 182/182/182 162/162/162
f 149/149/149 181/181/181 162/162/162
f 183/183/183 164/164/164 162/162/162
f 182/182/182 183/183/183 162/162/162
f 182/182/182 184/184/184 183/183/183
f 183/183/183 184/184/184 164/164/164
f 184/184/184 185/185/185 164/164/164
f 184/184/184 186/186/186 185/185/185
f 167/167/167 185/185/185 186/186/186
f 167/167/167 164/164/164 185/185/185
f 148/148/148 150/150/150 158/158/158
