# Exported using wow.export v0.2.19
o 20736_DistRt05.obj
v 51.30131530761719 -104.5845947265625 14.457355499267578
v 50.539703369140625 -104.06385803222656 12.458684921264648
v 49.78736114501953 -104.5845947265625 14.457351684570312
v 49.77809524536133 -103.54312896728516 10.460013389587402
v 49.796630859375 -105.62606811523438 18.45469093322754
v 52.06292724609375 -105.10533142089844 16.456024169921875
v 50.548973083496094 -105.10533142089844 16.456024169921875
v 52.82454299926758 -105.62606811523438 18.45469093322754
v 52.81527328491211 -104.5845947265625 14.457355499267578
v 52.05365753173828 -104.06385803222656 12.458686828613281
v 52.80600357055664 -103.54312896728516 10.4600191116333
v 52.82454299926758 -104.70315551757812 18.454681396484375
v 53.107704162597656 -103.66168212890625 14.457353591918945
v 53.09843826293945 -102.62020874023438 10.4600248336792
v 49.78968048095703 -104.03741455078125 15.456686973571777
v 49.796630859375 -104.70315551757812 18.454687118530273
v 49.78736114501953 -104.12313842773438 14.457354545593262
v 49.78273010253906 -103.37167358398438 12.458686828613281
v 49.48567199707031 -102.62020111083984 10.460018157958984
v 49.494937896728516 -103.66167449951172 14.457352638244629
v 49.796630859375 -104.70315551757812 18.454687118530273
v 49.50420379638672 -104.7031478881836 18.454687118530273
v 52.81527328491211 -104.12313842773438 14.457357406616211
v 52.82454299926758 -104.70315551757812 18.454681396484375
v 52.817588806152344 -104.03741455078125 15.456686019897461
v 52.810638427734375 -103.37167358398438 12.458690643310547
v 52.80600357055664 -102.62020874023438 10.4600248336792
v 52.80600357055664 -103.54312896728516 10.4600191116333
v 52.81527328491211 -103.66168212890625 14.457353591918945
v 49.77809524536133 -103.54312896728516 10.460013389587402
v 49.77809524536133 -102.62020874023438 10.460018157958984
v 49.796630859375 -105.62606811523438 18.45469093322754
v 49.78736114501953 -104.5845947265625 14.457351684570312
v 49.791996002197266 -104.87460327148438 16.456022262573242
v 52.80600357055664 -102.62020874023438 10.4600248336792
v 52.81527328491211 -103.66168212890625 14.457353591918945
v 52.81527328491211 -104.5845947265625 14.457355499267578
v 52.819908142089844 -104.87460327148438 16.456024169921875
v 52.82454299926758 -105.62606811523438 18.45469093322754
v 49.77809524536133 -102.62020874023438 10.460018157958984
v 53.11697006225586 -104.70315551757812 18.454681396484375
v 49.34102249145508 -99.95602416992188 10.459371566772461
v 49.15436553955078 -99.81713104248047 10.460018157958984
v 49.16363525390625 -100.85860443115234 14.457350730895996
v 49.35955810546875 -102.59452056884766 18.455331802368164
v 49.159000396728516 -101.17120361328125 12.458684921264648
v 49.15436553955078 -100.65046691894531 10.460018157958984
v 49.16363525390625 -101.69194030761719 14.457350730895996
v 53.44826126098633 -101.90008544921875 18.454668045043945
v 53.443626403808594 -101.37934875488281 16.456008911132812
v 53.24307632446289 -99.9560317993164 10.459385871887207
v 53.438995361328125 -100.85861206054688 14.45734977722168
v 49.17290115356445 -101.90007781982422 18.454683303833008
v 49.35955810546875 -102.0389633178711 18.45532989501953
v 49.35028839111328 -100.99749755859375 14.457350730895996
v 53.252342224121094 -101.55305480957031 14.457351684570312
v 53.24307632446289 -100.51158142089844 10.459383010864258
v 53.42973709106445 -100.65047454833984 10.460031509399414
v 53.252342224121094 -100.99750518798828 14.457351684570312
v 53.26161193847656 -102.03897857666016 18.4553165435791
v 49.34102249145508 -100.5115737915039 10.459370613098145
v 49.35028839111328 -101.55304718017578 14.457351684570312
v 52.39520263671875 -105.5512924194336 18.820755004882812
v 52.82454299926758 -105.62606811523438 18.45469093322754
v 49.796630859375 -105.62606811523438 18.45469093322754
v 50.63791275024414 -101.36397552490234 19.789016723632812
v 50.66092300415039 -101.36224365234375 18.820764541625977
v 51.32020950317383 -100.84857940673828 18.820751190185547
v 51.29719924926758 -100.85030364990234 19.789012908935547
v 50.15773010253906 -102.21980285644531 19.789016723632812
v 50.18074035644531 -102.21807861328125 18.820764541625977
v 49.98641586303711 -103.52135467529297 19.789011001586914
v 50.00942611694336 -103.5196304321289 18.820768356323242
v 50.2226448059082 -105.552978515625 19.788999557495117
v 50.24565505981445 -105.5512466430664 18.820755004882812
v 51.9794921875 -101.36224365234375 18.820758819580078
v 51.95647048950195 -101.36397552490234 19.789005279541016
v 52.46046829223633 -102.21920013427734 18.820762634277344
v 52.43824768066406 -102.2220458984375 19.78899574279785
v 52.63099670410156 -103.5196304321289 18.820764541625977
v 52.60797882080078 -103.52134704589844 19.78898811340332
v 52.37261962890625 -105.55305480957031 19.78898048400879
v 53.43899917602539 -101.69194030761719 14.45734977722168
v 53.26161193847656 -102.59452819824219 18.455320358276367
v 53.44826126098633 -102.73341369628906 18.454668045043945
v 52.37709426879883 -103.46837615966797 10.093951225280762
v 50.22711944580078 -103.46829986572266 10.093947410583496
v 49.77809524536133 -103.54312896728516 10.460013389587402
v 52.80600357055664 -103.54312896728516 10.4600191116333
v 49.16826629638672 -101.37934112548828 16.456016540527344
v 52.39520263671875 -105.5512924194336 18.820755004882812
v 53.25697708129883 -102.07379150390625 16.456336975097656
v 53.25697708129883 -102.07379150390625 16.456336975097656
v 53.26161193847656 -102.59452819824219 18.455320358276367
v 53.26161193847656 -102.03897857666016 18.4553165435791
v 53.252342224121094 -101.55305480957031 14.457351684570312
v 53.247711181640625 -100.47676849365234 12.458368301391602
v 53.247711181640625 -100.47676849365234 12.458368301391602
v 53.24307632446289 -99.9560317993164 10.459385871887207
v 53.24307632446289 -100.51158142089844 10.459383010864258
v 53.252342224121094 -100.99750518798828 14.457351684570312
v 53.252342224121094 -101.27528381347656 14.45734977722168
v 49.34102249145508 -100.5115737915039 10.459370613098145
v 49.35028839111328 -100.99749755859375 14.457350730895996
v 49.35028839111328 -101.2752685546875 14.45734977722168
v 49.35955810546875 -102.0389633178711 18.45532989501953
v 49.35028839111328 -101.55304718017578 14.457351684570312
v 49.354923248291016 -102.07378387451172 16.456340789794922
v 49.354923248291016 -102.07378387451172 16.456340789794922
v 49.35955810546875 -102.59452056884766 18.455331802368164
v 49.34102249145508 -99.95602416992188 10.459371566772461
v 49.34565734863281 -100.47676086425781 12.45836067199707
v 49.34565734863281 -100.47676086425781 12.45836067199707
v 49.17290115356445 -102.73340606689453 18.454683303833008
v 49.16826629638672 -102.21267700195312 16.456016540527344
v 50.24565505981445 -105.5512466430664 18.820755004882812
v 53.42972946166992 -99.817138671875 10.460031509399414
v 50.18074035644531 -102.21807861328125 18.820764541625977
v 50.00942611694336 -103.5196304321289 18.820768356323242
v 49.57124328613281 -103.67062377929688 18.45469093322754
v 52.80600357055664 -102.62020874023438 10.4600248336792
v 52.37709426879883 -103.46837615966797 10.093951225280762
v 52.80600357055664 -103.54312896728516 10.4600191116333
v 52.61245346069336 -101.43668365478516 10.093944549560547
v 49.55270767211914 -101.58767700195312 10.46001148223877
v 49.99089431762695 -101.43668365478516 10.0939359664917
v 50.16220474243164 -100.1351318359375 10.093938827514648
v 49.78498077392578 -100.15740203857422 10.46001148223877
v 50.64238739013672 -99.279296875 10.093937873840332
v 50.40787887573242 -99.06592559814453 10.460012435913086
v 51.30167770385742 -98.76563262939453 10.093950271606445
v 51.28993606567383 -98.41793823242188 10.460013389587402
v 52.17191696166992 -99.06716918945312 10.460012435913086
v 51.96094512939453 -99.279296875 10.093950271606445
v 52.44272232055664 -100.13737487792969 10.093945503234863
v 52.7971076965332 -100.1574935913086 10.460012435913086
v 53.02719497680664 -101.59085083007812 10.460012435913086
v 49.77809524536133 -102.62020874023438 10.460018157958984
v 50.22711944580078 -103.46829986572266 10.093947410583496
v 50.24565505981445 -105.5512466430664 18.820755004882812
v 49.796630859375 -104.70315551757812 18.454687118530273
v 49.796630859375 -105.62606811523438 18.45469093322754
v 52.39520263671875 -105.5512924194336 18.820755004882812
v 52.82454299926758 -104.70315551757812 18.454681396484375
v 52.82454299926758 -105.62606811523438 18.45469093322754
v 52.63099670410156 -103.5196304321289 18.820764541625977
v 49.77809524536133 -103.54312896728516 10.460013389587402
v 53.04573059082031 -103.67379760742188 18.45469093322754
v 52.46046829223633 -102.21920013427734 18.820762634277344
v 52.81563949584961 -102.24044036865234 18.45469093322754
v 51.9794921875 -101.36224365234375 18.820758819580078
v 52.19044876098633 -101.15011596679688 18.45469093322754
v 51.32020950317383 -100.84857940673828 18.820751190185547
v 51.3084716796875 -100.50088500976562 18.45469093322754
v 50.42641067504883 -101.14887237548828 18.45469093322754
v 50.66092300415039 -101.36224365234375 18.820764541625977
v 49.80351638793945 -102.24034881591797 18.45469093322754
v 52.37724685668945 -102.85045623779297 7.109678745269775
v 50.22726058959961 -102.84971618652344 7.109713554382324
v 50.22711944580078 -103.46829986572266 10.093947410583496
v 52.37261962890625 -105.55305480957031 19.78898048400879
v 52.39520263671875 -105.5512924194336 18.820755004882812
v 50.24565505981445 -105.5512466430664 18.820755004882812
v 50.2226448059082 -105.552978515625 19.788999557495117
v 52.37709426879883 -103.46837615966797 10.093951225280762
v 53.24307632446289 -99.9560317993164 10.459385871887207
v 52.17191696166992 -99.06716918945312 10.460012435913086
v 52.7971076965332 -100.1574935913086 10.460012435913086
v 51.28654861450195 -99.4448013305664 18.454694747924805
v 51.3084716796875 -100.50088500976562 18.45469093322754
v 49.45608901977539 -100.06978607177734 18.45469093322754
v 52.19044876098633 -101.15011596679688 18.45469093322754
v 53.26161193847656 -102.03897857666016 18.4553165435791
v 52.81563949584961 -102.24044036865234 18.45469093322754
v 53.11700439453125 -100.06979370117188 18.45469093322754
v 49.77809524536133 -102.62020874023438 10.460018157958984
v 49.55270767211914 -101.58767700195312 10.46001148223877
v 49.48567199707031 -102.62020111083984 10.460018157958984
v 49.78498077392578 -100.15740203857422 10.46001148223877
v 49.34102249145508 -100.5115737915039 10.459370613098145
v 50.42641067504883 -101.14887237548828 18.45469093322754
v 49.35955810546875 -102.0389633178711 18.45532989501953
v 53.44826126098633 -102.73341369628906 18.454668045043945
v 53.11697006225586 -104.70315551757812 18.454681396484375
v 53.04573059082031 -103.67379760742188 18.45469093322754
v 49.80351638793945 -102.24034881591797 18.45469093322754
v 49.57124328613281 -103.67062377929688 18.45469093322754
v 49.35955810546875 -102.59452056884766 18.455331802368164
v 49.34102249145508 -99.95602416992188 10.459371566772461
v 53.26161193847656 -102.59452819824219 18.455320358276367
v 53.02719497680664 -101.59085083007812 10.460012435913086
v 52.80600357055664 -102.62020874023438 10.4600248336792
v 53.09843826293945 -102.62020874023438 10.4600248336792
v 52.82454299926758 -104.70315551757812 18.454681396484375
v 49.796630859375 -104.70315551757812 18.454687118530273
v 49.50420379638672 -104.7031478881836 18.454687118530273
v 53.24307632446289 -100.51158142089844 10.459383010864258
v 53.42973709106445 -100.65047454833984 10.460031509399414
v 53.44826126098633 -101.90008544921875 18.454668045043945
v 49.17290115356445 -101.90007781982422 18.454683303833008
v 49.17290115356445 -102.73340606689453 18.454683303833008
v 50.40787887573242 -99.06592559814453 10.460012435913086
v 51.28993606567383 -98.41793823242188 10.460013389587402
v 49.43755340576172 -97.9868392944336 10.460014343261719
v 53.09846878051758 -97.98684692382812 10.460015296936035
v 51.26801300048828 -97.36185455322266 10.460014343261719
v 49.15436553955078 -100.65046691894531 10.460018157958984
v 49.15436553955078 -99.81713104248047 10.460018157958984
v 53.42972946166992 -99.817138671875 10.460031509399414
v 52.44129180908203 -99.58584594726562 7.109691619873047
v 52.61260223388672 -100.88739013671875 7.109683036804199
v 52.61245346069336 -101.43668365478516 10.093944549560547
v 52.44272232055664 -100.13737487792969 10.093945503234863
v 51.96094512939453 -99.279296875 10.093950271606445
v 51.96110153198242 -98.73001098632812 7.109703063964844
v 51.30167770385742 -98.76563262939453 10.093950271606445
v 50.64238739013672 -99.279296875 10.093937873840332
v 50.64254379272461 -98.73001098632812 7.109724521636963
v 51.30181884765625 -98.21634674072266 7.109715938568115
v 49.99089431762695 -101.43668365478516 10.0939359664917
v 50.22711944580078 -103.46829986572266 10.093947410583496
v 50.22726058959961 -102.84971618652344 7.109713554382324
v 52.37709426879883 -103.46837615966797 10.093951225280762
v 52.37724685668945 -102.85045623779297 7.109678745269775
v 49.99104690551758 -100.88739013671875 7.109725475311279
v 50.16220474243164 -100.1351318359375 10.093938827514648
v 50.162353515625 -99.58584594726562 7.1097283363342285
v 49.899803161621094 -98.35133361816406 12.458683013916016
v 49.43755340576172 -97.9868392944336 10.460014343261719
v 50.815032958984375 -98.03883361816406 12.458683013916016
v 50.597808837890625 -99.41880798339844 17.455358505249023
v 51.28654861450195 -99.4448013305664 18.454694747924805
v 49.45608901977539 -100.06978607177734 18.45469093322754
v 51.730262756347656 -98.03883361816406 12.458683013916016
v 53.09846878051758 -97.98684692382812 10.460015296936035
v 52.64548873901367 -98.35133361816406 12.458683967590332
v 53.09846878051758 -97.98684692382812 10.460015296936035
v 52.64548873901367 -98.35133361816406 12.458684921264648
v 51.730262756347656 -98.03883361816406 12.458684921264648
v 51.27728271484375 -98.40332794189453 14.457354545593262
v 51.05078887939453 -98.7418212890625 15.45668888092041
v 51.50840759277344 -98.7418212890625 15.45668888092041
v 52.192508697509766 -98.7158203125 14.457352638244629
v 51.73952865600586 -99.08030700683594 16.456024169921875
v 52.192508697509766 -98.7158203125 14.457355499267578
v 51.73952865600586 -99.08030700683594 16.456024169921875
v 51.50840759277344 -98.7418212890625 15.456689834594727
v 51.28654861450195 -99.4448013305664 18.454694747924805
v 53.11700439453125 -100.06979370117188 18.45469093322754
v 51.97064971923828 -99.41880798339844 17.455358505249023
v 51.97064971923828 -99.41880798339844 17.455360412597656
v 53.11700439453125 -100.06979370117188 18.45469093322754
v 52.654754638671875 -99.39280700683594 16.456024169921875
v 52.654754638671875 -99.39280700683594 16.456022262573242
v 53.27336502075195 -99.94346618652344 14.457342147827148
v 53.112369537353516 -99.54905700683594 16.456022262573242
v 53.10773468017578 -99.0283203125 14.457353591918945
v 53.10773468017578 -99.0283203125 14.457353591918945
v 53.112369537353516 -99.54905700683594 16.456022262573242
v 53.36081314086914 -100.9217758178711 16.456005096435547
v 53.11700439453125 -100.06979370117188 18.45469093322754
v 53.19518280029297 -100.00662994384766 16.456016540527344
v 53.39527130126953 -100.36946105957031 13.45801830291748
v 53.42972946166992 -99.817138671875 10.460031509399414
v 53.438995361328125 -100.85861206054688 14.45734977722168
v 53.185916900634766 -98.96515655517578 12.45867919921875
v 53.35154724121094 -99.88030242919922 12.458686828613281
v 49.38066101074219 -100.00662231445312 16.45602035522461
v 49.45608901977539 -100.06978607177734 18.45469093322754
v 49.23906707763672 -100.92176818847656 16.456016540527344
v 49.451454162597656 -99.5490493774414 16.456022262573242
v 49.30522918701172 -99.9434585571289 14.457348823547363
v 49.16363525390625 -100.85860443115234 14.457350730895996
v 49.15436553955078 -99.81713104248047 10.460018157958984
v 49.19671630859375 -100.36944580078125 13.458017349243164
v 49.22979736328125 -99.88029479980469 12.458683013916016
v 49.37139129638672 -98.96514892578125 12.458681106567383
v 50.135562896728516 -99.05431365966797 15.456687927246094
v 49.44682312011719 -99.02831268310547 14.457352638244629
v 50.36205291748047 -98.7158203125 14.457352638244629
v 49.90907287597656 -99.39280700683594 16.456022262573242
v 52.42362976074219 -99.05431365966797 15.456687927246094
v 52.42362976074219 -99.05431365966797 15.456689834594727
v 52.654754638671875 -99.39280700683594 16.456024169921875
v 53.10310363769531 -98.50758361816406 12.458684921264648
v 53.22964096069336 -99.45431518554688 13.45801067352295
v 49.33831024169922 -99.45429992675781 13.458015441894531
v 49.44682312011719 -99.02831268310547 14.457352638244629
v 49.44218826293945 -98.50757598876953 12.458683013916016
v 50.58854293823242 -98.37732696533203 13.458017349243164
v 49.67331314086914 -98.6898193359375 13.458017349243164
v 50.824302673339844 -99.08030700683594 16.456024169921875
v 51.26801300048828 -97.36185455322266 10.460014343261719
v 51.159400939941406 -98.05183410644531 12.958351135253906
v 49.682579040527344 -99.73129272460938 17.45535659790039
v 49.451454162597656 -99.5490493774414 16.456022262573242
v 51.50840759277344 -98.7418212890625 15.456689834594727
v 51.27728271484375 -98.40332794189453 14.457354545593262
v 52.876609802246094 -98.68982696533203 13.458019256591797
v 53.10773468017578 -99.0283203125 14.457353591918945
v 52.876609802246094 -98.68982696533203 13.458019256591797
v 51.961387634277344 -98.37732696533203 13.458017349243164
v 51.961387634277344 -98.37732696533203 13.458020210266113
v 51.730262756347656 -98.03883361816406 12.458684921264648
v 51.961387634277344 -98.37732696533203 13.458020210266113
v 51.272647857666016 -97.8825912475586 12.458684921264648
v 51.38821029663086 -98.05183410644531 12.958352088928223
v 51.26801300048828 -97.36185455322266 10.460014343261719
v 52.88587951660156 -99.7313003540039 17.45535659790039
v 52.88587951660156 -99.7313003540039 17.45535659790039
v 53.443626403808594 -101.37934875488281 16.456008911132812
v 53.44826126098633 -101.90008544921875 18.454668045043945
v 53.37804412841797 -100.64561462402344 14.957012176513672
v 49.44913864135742 -99.28868103027344 15.456687927246094
v 49.44913864135742 -99.28868103027344 15.456687927246094
v 49.27214813232422 -100.4326171875 15.456682205200195
v 49.17290115356445 -101.90007781982422 18.454683303833008
v 49.16826629638672 -101.37934112548828 16.456016540527344
v 49.17290115356445 -102.73340606689453 18.454683303833008
v 49.50420379638672 -104.7031478881836 18.454687118530273
v 49.494937896728516 -103.66167449951172 14.457352638244629
v 49.32465362548828 -102.15606689453125 12.458684921264648
v 49.242984771728516 -101.7938232421875 12.958351135253906
v 49.16363525390625 -101.69194030761719 14.457350730895996
v 49.32233428955078 -101.89570617675781 11.459351539611816
v 49.159000396728516 -101.17120361328125 12.458684921264648
v 53.09843826293945 -102.62020874023438 10.4600248336792
v 53.107704162597656 -103.66168212890625 14.457353591918945
v 53.27334976196289 -102.67681121826172 14.457345962524414
v 53.44826126098633 -102.73341369628906 18.454668045043945
v 49.48567199707031 -102.62020111083984 10.460018157958984
v 49.32928466796875 -102.67680358886719 14.457350730895996
v 49.15436553955078 -100.65046691894531 10.460018157958984
v 53.43899917602539 -101.69194030761719 14.45734977722168
v 53.42973709106445 -100.65047454833984 10.460031509399414
v 49.16826629638672 -102.21267700195312 16.456016540527344
v 53.11697006225586 -104.70315551757812 18.454681396484375
vn -4.941028919347445e-7 0.9676949381828308 0.25212404131889343
vn -4.941028919347445e-7 0.9676949381828308 0.25212404131889343
vn -4.941028919347445e-7 0.9676949381828308 0.25212404131889343
vn -4.941028919347445e-7 0.9676949381828308 0.25212404131889343
vn -4.941028919347445e-7 0.9676949381828308 0.25212404131889343
vn -2.470514743890817e-7 0.9676949977874756 0.252124160528183
vn -4.941028919347445e-7 0.9676949381828308 0.25212404131889343
vn 0 0.967694878578186 0.25212422013282776
vn -2.470514743890817e-7 0.9676949977874756 0.252124160528183
vn -4.941028919347445e-7 0.9676949381828308 0.25212404131889343
vn -4.941028919347445e-7 0.9676949381828308 0.25212404131889343
vn 0 0.9676945805549622 0.25212541222572327
vn 0 0.9676945805549622 0.25212541222572327
vn 0 0.9676945805549622 0.25212541222572327
vn 0.9999973177909851 -1.2765663193192722e-8 -0.0023183345329016447
vn 0.9999973177909851 -1.2765663193192722e-8 -0.0023183345329016447
vn 0.9999973177909851 -1.2765663193192722e-8 -0.0023183345329016447
vn 0.9999973177909851 -1.2765663193192722e-8 -0.0023183345329016447
vn 0.000022456864826381207 0.9676946401596069 0.2521250247955322
vn 0.00002245686664537061 0.9676947593688965 0.2521250545978546
vn 0.000022456864826381207 0.9676946401596069 0.2521250247955322
vn 0.000022456864826381207 0.9676946401596069 0.2521250247955322
vn -0.9999973177909851 2.5562574279547334e-8 0.002319189952686429
vn -0.9999973177909851 2.5562574279547334e-8 0.002319189952686429
vn -0.9999973177909851 2.5562574279547334e-8 0.002319189952686429
vn -0.9999973177909851 2.5562574279547334e-8 0.002319189952686429
vn -0.9999973177909851 2.5562574279547334e-8 0.002319189952686429
vn -0.9999973177909851 -1.2781113056803406e-8 0.0023191755171865225
vn -0.9999973177909851 2.5562574279547334e-8 0.002319189952686429
vn 0.9999973177909851 9.574141479617992e-9 -0.002318326150998473
vn 0.9999973177909851 -1.2765663193192722e-8 -0.0023183345329016447
vn 0.9999973177909851 -1.2765663193192722e-8 -0.0023183345329016447
vn 0.9999973177909851 -1.595760856787365e-9 -0.002318330341950059
vn 0.9999973177909851 -1.2765663193192722e-8 -0.0023183345329016447
vn 0 0.9676945805549622 0.25212541222572327
vn 0 0.9676945805549622 0.25212541222572327
vn -0.9999973177909851 6.390730611371964e-9 0.0023191827349364758
vn -0.9999973177909851 2.5562574279547334e-8 0.002319189952686429
vn -0.9999973177909851 2.5562574279547334e-8 0.002319189952686429
vn 0.000022456864826381207 0.9676946401596069 0.2521250247955322
vn 0 0.9676945805549622 0.25212541222572327
vn 0.5840092897415161 0.7858606576919556 0.20336231589317322
vn 0.5849508047103882 0.7851967215538025 0.2032206952571869
vn 0.5844801664352417 0.785528838634491 0.20329155027866364
vn 0.5836978554725647 -0.7854170799255371 -0.20595340430736542
vn 0.5839319825172424 -0.7852520942687988 -0.2059192955493927
vn 0.5836978554725647 -0.7854170799255371 -0.20595340430736542
vn 0.5841660499572754 -0.7850869297981262 -0.2058851271867752
vn -0.5837100148200989 0.7854082584381104 0.20595252513885498
vn -0.5839443206787109 0.785243034362793 0.20591837167739868
vn -0.5837100148200989 0.7854082584381104 0.20595252513885498
vn -0.5841785669326782 0.7850778698921204 0.2058842033147812
vn 0.5840092897415161 0.7858606576919556 0.20336231589317322
vn 0.5840092897415161 0.7858606576919556 0.20336231589317322
vn 0.5840092897415161 0.7858606576919556 0.20336231589317322
vn -0.5840259790420532 -0.78584885597229 -0.20336037874221802
vn -0.5840259194374084 -0.7858487367630005 -0.20336034893989563
vn -0.5840259194374084 -0.7858487367630005 -0.20336034893989563
vn -0.5837100744247437 0.7854083776473999 0.20595255494117737
vn -0.5837100148200989 0.7854082584381104 0.20595252513885498
vn 0.5836978554725647 -0.7854170799255371 -0.20595340430736542
vn 0.5836978554725647 -0.7854170799255371 -0.20595340430736542
vn 0.000018548103980720043 0.9797425270080566 -0.2002611756324768
vn 0 0.9797683954238892 -0.20013479888439178
vn 0.000018548103980720043 0.9797425270080566 -0.2002611756324768
vn 0.7070904970169067 -0.6083114147186279 0.36052772402763367
vn 0.7111623287200928 -0.6118209958076477 -0.34629929065704346
vn -0.0037035078275948763 -0.9144196510314941 -0.4047505557537079
vn -0.0035135713405907154 -0.9241681098937988 0.3819698989391327
vn 0.874657154083252 -0.2995792031288147 0.3810868263244629
vn 0.8816991448402405 -0.30203893780708313 -0.36246258020401
vn 0.9077168703079224 0.019667966291308403 0.41912198066711426
vn 0.8767015933990479 0.02542836219072342 -0.48036208748817444
vn 0.58063143491745 0.7426837682723999 0.33359846472740173
vn 0.8498578667640686 0.07218749076128006 -0.5220445990562439
vn -0.7105752825737 -0.6128825545310974 -0.34562668204307556
vn -0.7157911062240601 -0.6174182891845703 0.3262479603290558
vn -0.879322350025177 -0.30077672004699707 -0.3692229688167572
vn -0.8877618312835693 -0.30349525809288025 0.3460773825645447
vn -0.876227855682373 0.02544480748474598 -0.48122483491897583
vn -0.9228052496910095 0.020110836252570152 0.38474151492118835
vn -0.5889990925788879 0.7453830242156982 0.3122246563434601
vn -0.5844885110855103 -0.7855228185653687 -0.20329083502292633
vn -0.5840259194374084 -0.7858487367630005 -0.20336034893989563
vn -0.584950864315033 -0.7851965427398682 -0.20322121679782867
vn 0.00003367834506207146 0.9797356128692627 0.2002950757741928
vn 0.00003367834506207146 0.9797356128692627 0.2002950757741928
vn 0.00003367834506207146 0.9797356128692627 0.2002950757741928
vn -3.9207540680763486e-7 0.9797830581665039 0.20006287097930908
vn 0.5842447876930237 0.7856948375701904 0.2033269703388214
vn -0.8515565991401672 0.07189808785915375 -0.5193092226982117
vn -0.5840259790420532 -0.7858487963676453 -0.20336036384105682
vn -0.9999973177909851 7.28871007993348e-9 0.0023179659619927406
vn -0.9999973177909851 1.3252190456114477e-8 0.002317967126145959
vn -0.9999973177909851 -1.0601731048609508e-8 0.002317962469533086
vn -0.9999973177909851 1.325229703752484e-9 0.0023179647978395224
vn -0.5837100744247437 0.7854083180427551 0.20595254004001617
vn -0.9999973177909851 -1.0601731048609508e-8 0.002317962469533086
vn -0.9999973177909851 -1.0601731048609508e-8 0.002317962469533086
vn -0.9999973177909851 -1.0601731048609508e-8 0.002317962469533086
vn -0.9999973177909851 -1.0601731048609508e-8 0.002317962469533086
vn -0.9999973177909851 -1.0601731048609508e-8 0.002317962469533086
vn 0.9999973177909851 3.5369218664982327e-9 -0.002317957114428282
vn 0.9999973177909851 3.5369218664982327e-9 -0.002317957114428282
vn 0.9999973177909851 3.5369218664982327e-9 -0.002317957114428282
vn 0.9999973177909851 3.5369218664982327e-9 -0.002317957114428282
vn 0.9999973177909851 -1.7684638198289804e-9 -0.0023179580457508564
vn 0.5836978554725647 -0.7854170799255371 -0.20595340430736542
vn 0.9999973177909851 -4.421156774014889e-9 -0.0023179585114121437
vn 0.9999973177909851 -7.0738495061561935e-9 -0.002317958977073431
vn 0.9999973177909851 3.5369218664982327e-9 -0.002317957114428282
vn 0.9999973177909851 3.5369218664982327e-9 -0.002317957114428282
vn 0.5840092897415161 0.7858606576919556 0.20336231589317322
vn 0.584634006023407 -0.7847563624382019 -0.20581677556037903
vn 0.5844000577926636 -0.7849216461181641 -0.20585095882415771
vn 0.000018548103980720043 0.9797425270080566 -0.2002611756324768
vn -0.5846468210220337 0.7847470641136169 0.20581579208374023
vn 0.8816991448402405 -0.30203893780708313 -0.36246258020401
vn 0.8767015933990479 0.02542836219072342 -0.48036208748817444
vn 0.6578142642974854 0.010001551359891891 -0.7531138062477112
vn -0.6744210124015808 0.07374680042266846 0.7346548438072205
vn -0.6963801383972168 0.04295415058732033 0.7163865566253662
vn -0.6491888165473938 -0.000004191861989966128 0.760627269744873
vn -0.6857572197914124 0.044259436428546906 0.7264834046363831
vn 0.6578115224838257 0.010002375580370426 0.7531161904335022
vn 0.6655040383338928 0.04363728687167168 0.7451175451278687
vn 0.682854950428009 -0.24328336119651794 0.688855767250061
vn 0.682854950428009 -0.24328336119651794 0.688855767250061
vn 0.5693092346191406 -0.49021226167678833 0.6599840521812439
vn 0.5721264481544495 -0.5130990743637085 0.6398442387580872
vn -0.006498930975794792 -0.7069205045700073 0.7072631120681763
vn -0.0053048813715577126 -0.7251368165016174 0.6885843873023987
vn -0.5859962105751038 -0.5074187517166138 0.6317710280418396
vn -0.5859962105751038 -0.5074187517166138 0.6317710280418396
vn -0.7025859951972961 -0.24941225349903107 0.6664581298828125
vn -0.7063524127006531 -0.25549596548080444 0.6601424813270569
vn -0.6785153150558472 0.009938029572367668 0.7345190048217773
vn 0.655623197555542 0.07240886986255646 0.7516083717346191
vn 0.6777468323707581 0.04196728393435478 0.7340967059135437
vn 0.8498578667640686 0.07218749076128006 -0.5220445990562439
vn 0.6556230187416077 0.07240836322307587 -0.7516086101531982
vn 0.6318742036819458 -0.000004271493253327208 -0.7750709652900696
vn -0.8515565991401672 0.07189808785915375 -0.5193092226982117
vn -0.6742051839828491 0.07378727197647095 -0.7348487973213196
vn -0.6488040685653687 -0.00000838850701256888 -0.7609555125236511
vn -0.876227855682373 0.02544480748474598 -0.48122483491897583
vn 0.6318767666816711 -0.000003567294015738298 0.7750688791275024
vn -0.6782077550888062 0.009982902556657791 -0.7348024249076843
vn -0.879322350025177 -0.30077672004699707 -0.3692229688167572
vn -0.7060761451721191 -0.2554565668106079 -0.660453200340271
vn -0.7105752825737 -0.6128825545310974 -0.34562668204307556
vn -0.5860039591789246 -0.5074334740638733 -0.6317520141601562
vn -0.0037035078275948763 -0.9144196510314941 -0.4047505557537079
vn -0.005304896738380194 -0.7251352071762085 -0.6885860562324524
vn 0.5721266269683838 -0.5130983591079712 -0.6398446559906006
vn 0.7111623287200928 -0.6118209958076477 -0.34629929065704346
vn 0.6828571557998657 -0.2432844340801239 -0.6888532638549805
vn -0.8604384064674377 0.31531384587287903 -0.4002785384654999
vn 0.7438008189201355 0.6282157301902771 -0.22826595604419708
vn 0.000033673230063868687 0.9796150326728821 0.20088396966457367
vn -0.5889990925788879 0.7453830242156982 0.3122246563434601
vn 0.0000189295406016754 0.9999983310699463 0.0018214537994936109
vn 0.0000189295406016754 0.9999983310699463 0.0018214537994936109
vn 0.58063143491745 0.7426837682723999 0.33359846472740173
vn 0.000033673230063868687 0.9796150326728821 0.20088396966457367
vn 0.00034099339973181486 -0.00029481208184733987 0.9999998807907104
vn 0.00034099339973181486 -0.00029481208184733987 0.9999998807907104
vn 0.0011172174708917737 0.0006406097672879696 0.9999991655349731
vn -1.688508319830362e-7 0.000003207262125215493 -1
vn -6.950713213882409e-7 9.461481340622413e-7 -1
vn -0.000343060411978513 -0.0003069111262448132 -0.9999998807907104
vn 0.0003421345609240234 -0.0002934367803391069 -0.9999998807907104
vn 0.0003421345609240234 -0.0002934367803391069 -0.9999998807907104
vn 0.0011172174708917737 0.0006406097672879696 -0.9999991655349731
vn -7.615666390847764e-7 0.000003194956889274181 -1
vn 1.3328020631586668e-10 0.000005747042450821027 1
vn -0.0016583934193477035 0.0002693192509468645 0.9999985694885254
vn 1.3328020631586668e-10 0.000005747042450821027 1
vn -0.001145457848906517 0.0006529268575832248 0.9999991059303284
vn -0.0014423227403312922 -0.0000015258773373716394 0.9999989867210388
vn -0.0011436532950028777 0.0006526735960505903 -0.9999991059303284
vn -0.0011436532950028777 0.0006526735960505903 -0.9999991059303284
vn -0.0000636949043837376 0.000003827025921054883 -1
vn -0.0000636949043837376 0.000003827025921054883 -1
vn -0.0000636949043837376 0.000003827025921054883 -1
vn -0.0011436532950028777 0.0006526735960505903 -0.9999991059303284
vn -0.0016583887627348304 0.0002693184942472726 -0.9999985694885254
vn -0.0014411055017262697 -0.000003051754674743279 -0.9999989867210388
vn -0.001145457848906517 0.0006529268575832248 0.9999991059303284
vn 0.0014093646313995123 -0.000006103509349486558 -0.9999989867210388
vn -0.00006306709838099778 0.000007164609542087419 1
vn 0 0.000011529465155035723 1
vn -0.00006306709838099778 0.000007164609542087419 1
vn 0 0.000008235332643380389 -1
vn 7.616011987732207e-11 0.00000328402438753983 -1
vn 7.616011987732207e-11 0.00000328402438753983 -1
vn 0.0014086752198636532 -0.000004577655545290327 0.9999989867210388
vn -0.00006306709838099778 0.000007164609542087419 1
vn -0.0030738837085664272 -0.0005442885449156165 -0.9999951124191284
vn 0.003106430871412158 -0.0004760061565320939 -0.9999950528144836
vn 0.0026401206851005554 0.0011148889316245914 -0.9999958872795105
vn -0.001145457848906517 0.0006529268575832248 0.9999991059303284
vn 1.163253315894508e-7 -0.00000146656054766936 1
vn -0.0003424693422857672 -0.0003095219435635954 0.9999998807907104
vn -7.424487193929963e-7 -8.181057751244225e-7 1
vn 2.7213982889406907e-7 -7.970421052050369e-7 1
vn 0.0026361546479165554 0.0011141157010570168 0.9999958872795105
vn 0.003104561008512974 -0.00047849572729319334 0.9999950528144836
vn -0.0030557475984096527 -0.0005442482070066035 0.9999951720237732
vn -0.8932120203971863 -0.2953929901123047 -0.33899161219596863
vn -0.94874107837677 -0.01124884095042944 -0.31585410237312317
vn -0.9999728798866272 -0.007281130645424128 -0.0011055073700845242
vn -0.9475907683372498 -0.3144398629665375 -0.05656265839934349
vn -0.7534065246582031 -0.6470919251441956 -0.11683592200279236
vn -0.6974388360977173 -0.5949971079826355 -0.3994465172290802
vn -0.000006046244379831478 -0.9840889573097229 -0.1776764690876007
vn 0.7535009384155273 -0.646986722946167 -0.11680985987186432
vn 0.697490930557251 -0.5949460864067078 -0.3994315266609192
vn 0.000006001638212183025 -0.8677458763122559 -0.4970081150531769
vn 0.9999714493751526 -0.007557065691798925 -0.00003454257966950536
vn 0.9930340051651001 0.11546489596366882 0.0234794020652771
vn 0.7438008189201355 0.6282157301902771 -0.22826595604419708
vn -0.9931426048278809 0.11504888534545898 0.020772084593772888
vn -0.8604384064674377 0.31531384587287903 -0.4002785384654999
vn 0.9488652348518372 -0.00106998800765723 -0.315679669380188
vn 0.9474692940711975 -0.3147583603858948 -0.05682482570409775
vn 0.8921977281570435 -0.2979351580142975 -0.3394376337528229
vn 0.6043980121612549 -0.7706024646759033 -0.2021752893924713
vn 0.761332631111145 -0.6269832253456116 -0.16512033343315125
vn 0.21461476385593414 -0.9450247287750244 -0.24671588838100433
vn 0.3188117444515228 -0.917017936706543 -0.23966048657894135
vn -0.00005922720083617605 -0.9676947593688965 -0.2521246373653412
vn 0.7613326907157898 -0.626983106136322 -0.16512025892734528
vn -0.21163690090179443 -0.9458944201469421 -0.24595431983470917
vn -0.7531383037567139 -0.6370336413383484 -0.16422796249389648
vn -0.5968985557556152 -0.7767342329025269 -0.20098793506622314
vn -0.3137839436531067 -0.9189979434013367 -0.23870989680290222
vn -0.3137839436531067 -0.9189979434013367 -0.23870989680290222
vn -0.31378373503685 -0.918998122215271 -0.23870989680290222
vn -0.000059148729633307084 -0.9676947593688965 -0.2521246671676636
vn 0.10790856182575226 -0.9619831442832947 -0.25088685750961304
vn -0.10645228624343872 -0.9622563123703003 -0.25046107172966003
vn -0.4136321246623993 -0.88126540184021 -0.22864748537540436
vn -0.2116369754076004 -0.9458944201469421 -0.24595429003238678
vn -0.3137839436531067 -0.9189979434013367 -0.23870989680290222
vn -0.3137839436531067 -0.9189979434013367 -0.23870989680290222
vn -0.31378382444381714 -0.9189980030059814 -0.23870989680290222
vn -0.3137839436531067 -0.9189979434013367 -0.23870989680290222
vn -0.7531386613845825 -0.6370333433151245 -0.16422775387763977
vn -0.3144192397594452 -0.9187949895858765 -0.2386554628610611
vn -0.3137839436531067 -0.9189979434013367 -0.23870989680290222
vn -0.3137839436531067 -0.9189979434013367 -0.23870989680290222
vn -0.3137839436531067 -0.9189979434013367 -0.23870989680290222
vn -0.5968987345695496 -0.7767340540885925 -0.20098784565925598
vn -0.8999438285827637 -0.42242515087127686 -0.10797318816184998
vn -0.753138542175293 -0.6370334029197693 -0.16422781348228455
vn -0.7531384825706482 -0.6370334625244141 -0.16422785818576813
vn -0.7531384825706482 -0.6370334625244141 -0.16422785818576813
vn -0.753138542175293 -0.6370334029197693 -0.16422781348228455
vn -0.9499418139457703 -0.3028639256954193 -0.07670660316944122
vn -0.7531386613845825 -0.6370333433151245 -0.16422775387763977
vn -0.8339517712593079 -0.5344786643981934 -0.13732071220874786
vn -0.9686538577079773 -0.24092788994312286 -0.06052630767226219
vn -0.9830573201179504 -0.1779201775789261 -0.044076789170503616
vn -0.9830573201179504 -0.1779201775789261 -0.044076789170503616
vn -0.8339515924453735 -0.5344787836074829 -0.13732081651687622
vn -0.9499418139457703 -0.3028639256954193 -0.07670660316944122
vn 0.8425191044807434 -0.520784854888916 -0.13763944804668427
vn 0.7613326907157898 -0.626983106136322 -0.16512025892734528
vn 0.9565976858139038 -0.2814488708972931 -0.07554694265127182
vn 0.761332631111145 -0.6269831657409668 -0.16512027382850647
vn 0.9080139994621277 -0.404887318611145 -0.10759516060352325
vn 0.9873653054237366 -0.15276861190795898 -0.04209170490503311
vn 0.987365186214447 -0.1527685970067978 -0.04209170117974281
vn 0.9742522239685059 -0.21761594712734222 -0.05895674228668213
vn 0.9565976858139038 -0.2814488708972931 -0.07554694265127182
vn 0.8425190448760986 -0.5207849740982056 -0.13763949275016785
vn 0.5148493647575378 -0.829293966293335 -0.2172592282295227
vn 0.761332631111145 -0.6269831657409668 -0.16512030363082886
vn 0.41928157210350037 -0.8782901167869568 -0.22980321943759918
vn 0.6043980717658997 -0.7706024646759033 -0.20217525959014893
vn -0.5081496238708496 -0.8337319493293762 -0.21604391932487488
vn -0.3137839436531067 -0.9189979434013367 -0.23870989680290222
vn -0.3137839436531067 -0.9189979434013367 -0.23870989680290222
vn -0.7531384229660034 -0.6370335817337036 -0.1642279028892517
vn -0.8688800930976868 -0.47951841354370117 -0.12292037904262543
vn 0.8773114085197449 -0.46391746401786804 -0.12290379405021667
vn 0.761332631111145 -0.6269831657409668 -0.16512030363082886
vn 0.761332631111145 -0.6269831657409668 -0.16512031853199005
vn 0.3188118040561676 -0.9170178771018982 -0.23966048657894135
vn 0.6868805885314941 -0.7029017210006714 -0.18472763895988464
vn 0.21461468935012817 -0.9450247287750244 -0.24671585857868195
vn -0.000059070258430438116 -0.9676947593688965 -0.25212472677230835
vn 0.05400371924042702 -0.9662519693374634 -0.2518741190433502
vn 0.6868805289268494 -0.7029016613960266 -0.18472757935523987
vn 0.761332631111145 -0.6269831657409668 -0.16512027382850647
vn -0.31378382444381714 -0.9189980030059814 -0.23870989680290222
vn -0.31378373503685 -0.918998122215271 -0.23870989680290222
vn -0.3137839436531067 -0.9189979434013367 -0.23870989680290222
vn -0.3137839436531067 -0.9189979434013367 -0.23870989680290222
vn -0.6788716912269592 -0.7109189033508301 -0.18365025520324707
vn -0.314419150352478 -0.9187949895858765 -0.23865549266338348
vn -0.31378382444381714 -0.9189980030059814 -0.23870989680290222
vn -0.31378373503685 -0.918998122215271 -0.23870989680290222
vn -0.31378382444381714 -0.9189980030059814 -0.23870989680290222
vn -0.0000591094940318726 -0.9676947593688965 -0.25212469696998596
vn -0.3137836456298828 -0.9189980626106262 -0.23870986700057983
vn -0.3137834668159485 -0.918998122215271 -0.23870982229709625
vn -0.6788719296455383 -0.7109187841415405 -0.1836501806974411
vn -0.3137839436531067 -0.9189979434013367 -0.23870989680290222
vn -0.9830573201179504 -0.1779201775789261 -0.044076789170503616
vn -0.9830573201179504 -0.1779201775789261 -0.044076789170503616
vn -0.9598316550254822 -0.272047221660614 -0.06865464150905609
vn 0.761332631111145 -0.6269831657409668 -0.16512028872966766
vn 0.761332631111145 -0.6269831657409668 -0.16512028872966766
vn 0.9344839453697205 -0.34396982192993164 -0.09178498387336731
vn 0.987365186214447 -0.1527685970067978 -0.04209170117974281
vn 0.9873652458190918 -0.15276861190795898 -0.04209170490503311
vn 0.9853230118751526 0.1657290756702423 0.040895067155361176
vn 0.9853230118751526 0.1657290756702423 0.040895067155361176
vn 0.9853231310844421 0.1657290905714035 0.040895070880651474
vn 0.9853230714797974 0.16572919487953186 0.040895067155361176
vn 0.9853230714797974 0.16572928428649902 0.040895067155361176
vn 0.9853230714797974 0.1657293289899826 0.040895070880651474
vn 0.9853230118751526 0.16572925448417664 0.040895067155361176
vn 0.9853230118751526 0.16572943329811096 0.040895070880651474
vn -0.9851298332214355 0.16569004952907562 0.04545314237475395
vn -0.9851298332214355 0.16569004952907562 0.04545314237475395
vn -0.9851298332214355 0.16569004952907562 0.04545314237475395
vn -0.9851298332214355 0.16569004952907562 0.04545314237475395
vn 0.9853230118751526 0.1657290756702423 0.040895067155361176
vn 0.9853231310844421 0.1657290905714035 0.040895070880651474
vn 0.9853229522705078 0.16572953760623932 0.040895070880651474
vn -0.9851295948028564 0.16569173336029053 0.04545315355062485
vn -0.9851292967796326 0.16569343209266663 0.04545316472649574
vn 0.9853230714797974 0.16572919487953186 0.040895067155361176
vn -0.9851298332214355 0.16569004952907562 0.04545314237475395
vt 0.7725132703781128 11.877933502197266
vt 1.0998446941375732 11.75033950805664
vt 0.7725135087966919 11.622108459472656
vt 1.4271759986877441 11.6227445602417
vt 0.11785103380680084 11.62147331237793
vt 0.4451821446418762 12.005620956420898
vt 0.4451821446418762 11.749703407287598
vt 0.11785103380680084 12.133309364318848
vt 0.7725132703781128 12.133851051330566
vt 1.0998444557189941 12.006162643432617
vt 1.427175521850586 12.134392738342285
vt 0 0
vt 0.057545896619558334 1
vt 0.057545896619558334 2
vt -0.02377687394618988 0.75
vt 0 0
vt -0.09510749578475952 1
vt -0.04755374789237976 1.5
vt 0.057545896619558334 2
vt 0.057545896619558334 1
vt 0 0
vt 0.057545896619558334 0
vt -0.09510749578475952 1
vt 0 0
vt -0.02377687394618988 0.75
vt -0.04755374789237976 1.5
vt 0 2
vt -0.19021499156951904 2
vt 0 1
vt -0.19021499156951904 2
vt 0 2
vt -0.19021499156951904 0
vt -0.19021499156951904 1
vt -0.14266124367713928 0.5
vt 0 2
vt 0 1
vt -0.19021499156951904 1
vt -0.14266124367713928 0.5
vt -0.19021499156951904 0
vt 0 2
vt 0.057545896619558334 0
vt -0.2750460207462311 0.2972564101219177
vt -0.33046650886535645 0.29736220836639404
vt -0.33053016662597656 0.796809732913971
vt -0.05349143594503403 1.2961515188217163
vt 0.002024671994149685 0.5470860004425049
vt 0.0020565262529999018 0.29736220836639404
vt 0.001992817735299468 0.7968097925186157
vt -0.33059385418891907 1.2962572574615479
vt -0.3305619955062866 1.0465334951877594
vt -0.2750460207462311 0.2972564101219177
vt -0.33053016662597656 0.796809732913971
vt -0.33059385418891907 1.2962572574615479
vt -0.2751733362674713 1.2961515188217163
vt -0.2751096785068512 0.796703964471817
vt -0.05342772603034973 0.796703964471817
vt -0.053364016115665436 0.2972564101219177
vt 0.0020565262529999018 0.29736220836639404
vt -0.2751096785068512 0.796703964471817
vt -0.2751733362674713 1.2961515188217163
vt -0.053364016115665436 0.2972564101219177
vt -0.05342772603034973 0.796703964471817
vt -0.32226860523223877 0.7070806622505188
vt -0.027326639741659164 0.5574594736099243
vt -0.03547453507781029 1.503393530845642
vt 1.9513237476348877 0.38704025745391846
vt 1.7026604413986206 0.38801002502441406
vt 1.7026479244232178 0.13896042108535767
vt 1.9513113498687744 0.13799065351486206
vt 1.9513239860534668 0.5684322714805603
vt 1.7026604413986206 0.5694020390510559
vt 1.9513275623321533 0.9057067036628723
vt 1.7026640176773071 0.9066764712333679
vt 1.9513134956359863 1.4396594762802124
vt 1.7026499509811401 1.4406291246414185
vt 1.7026604413986206 0.38801002502441406
vt 1.9513237476348877 0.38704025745391846
vt 1.7026604413986206 0.5694020390510559
vt 1.9513239860534668 0.5684322714805603
vt 1.7026640176773071 0.9066764712333679
vt 1.9513275623321533 0.9057067036628723
vt 1.9513134956359863 1.4396594762802124
vt 0.001992817735299468 0.7968097925186157
vt -0.05349143594503403 1.2961515188217163
vt 0.0019291092175990343 1.2962573766708374
vt -0.32226860523223877 0.7070806622505188
vt -0.32805436849594116 1.3444205522537231
vt -0.03547453507781029 1.503393530845642
vt -0.027326639741659164 0.5574594736099243
vt -0.3305619955062866 1.0465334951877594
vt 1.7026499509811401 1.4406291246414185
vt -0.05345958098769188 1.0464277416467667
vt -0.05345958098769188 1.0464277416467667
vt -0.05349143594503403 1.2961515188217163
vt -0.2751733362674713 1.2961515188217163
vt -0.05342772603034973 0.796703964471817
vt -0.27507784962654114 0.5469802021980286
vt -0.27507784962654114 0.5469802021980286
vt -0.2750460207462311 0.2972564101219177
vt -0.053364016115665436 0.2972564101219177
vt -0.2751096785068512 0.796703964471817
vt -0.16426867246627808 0.796703964471817
vt -0.053364016115665436 0.2972564101219177
vt -0.2751096785068512 0.796703964471817
vt -0.16426867246627808 0.796703964471817
vt -0.2751733362674713 1.2961515188217163
vt -0.05342772603034973 0.796703964471817
vt -0.05345958098769188 1.0464277416467667
vt -0.05345958098769188 1.0464277416467667
vt -0.05349143594503403 1.2961515188217163
vt -0.2750460207462311 0.2972564101219177
vt -0.27507784962654114 0.5469802021980286
vt -0.27507784962654114 0.5469802021980286
vt 0.0019291092175990343 1.2962573766708374
vt 0.001960963476449251 1.0465335845947266
vt -0.32805436849594116 1.3444205522537231
vt -0.33046650886535645 0.29736220836639404
vt 0.2920289933681488 0.549548864364624
vt 0.2920289933681488 0.33117830753326416
vt 0.5002730488777161 0.33117830753326416
vt 0.5002730488777161 0.03308570384979248
vt 0.2920289933681488 0.0014636516571044922
vt 0.5002730488777161 0.0014636516571044922
vt 0.2920289933681488 0.33117830753326416
vt 0.5002730488777161 0.33117830753326416
vt 0.2920289933681488 0.33117830753326416
vt 0.2920289933681488 0.549548864364624
vt 0.5002730488777161 0.549548864364624
vt 0.2920289933681488 0.8090291023254395
vt 0.5002730488777161 0.8090291023254395
vt 0.2920289933681488 0.9935119152069092
vt 0.4725477695465088 0.9935119152069092
vt 0.5002730488777161 0.8090291023254395
vt 0.2920289933681488 0.8090291023254395
vt 0.2920289933681488 0.549548864364624
vt 0.5002730488777161 0.549548864364624
vt 0.5002730488777161 0.33117830753326416
vt 0.5002730488777161 0.034652113914489746
vt 0.2920289933681488 0.0014636516571044922
vt 0.2920289933681488 0.0014636516571044922
vt 0.5002730488777161 0.034652113914489746
vt 0.5002730488777161 0.0014636516571044922
vt 0.2920289933681488 0.0014636516571044922
vt 0.5002730488777161 0.03308570384979248
vt 0.5002730488777161 0.0014636516571044922
vt 0.2920289933681488 0.33117830753326416
vt 0.5002730488777161 0.0014636516571044922
vt 0.5002730488777161 0.33117830753326416
vt 0.2920289933681488 0.549548864364624
vt 0.5002730488777161 0.549548864364624
vt 0.2920289933681488 0.8090291023254395
vt 0.5002730488777161 0.8090291023254395
vt 0.2920289933681488 0.9935119152069092
vt 0.4725477695465088 0.9935119152069092
vt 0.5002730488777161 0.8090291023254395
vt 0.2920289933681488 0.8090291023254395
vt 0.5002730488777161 0.549548864364624
vt 0.4964033365249634 -0.04702413082122803
vt 0.00013515353202819824 -0.018764972686767578
vt 0.00013297796249389648 1.2933297157287598
vt 0.4959178864955902 0.6729128956794739
vt 0.4959178864955902 -0.05256938934326172
vt 0 -0.007663726806640625
vt 0 0.6851615309715271
vt 0.49640506505966187 1.293330430984497
vt 0.0265331007540226 0.7517392635345459
vt 0.2864152789115906 1.0894438028335571
vt 0.14189712703227997 0.6751962304115295
vt 0.49937617778778076 1.7373422384262085
vt 0.5003989934921265 1.336104393005371
vt 0.9853495955467224 1.499890685081482
vt 0.2864152789115906 1.0894438028335571
vt 0.0265331007540226 0.7517392635345459
vt 0.14189712703227997 0.6751962304115295
vt 0.026088668033480644 1.499889612197876
vt 0.9406619071960449 -0.26045918464660645
vt 0.9513862133026123 0.13182836771011353
vt 1.0257995128631592 -0.26045823097229004
vt 0.8583648204803467 0.6752288937568665
vt 0.9732404351234436 0.5406707525253296
vt 0.7144036889076233 1.089915156364441
vt 0.9732402563095093 0.7517425417900085
vt -0.018753092736005783 0.4879000782966614
vt -0.026027396321296692 -0.26045918464660645
vt 0.049405939877033234 0.13062256574630737
vt 0.8583648204803467 0.6752288937568665
vt 0.9513862133026123 0.13182836771011353
vt 0.9732404351234436 0.5406707525253296
vt 0.9732402563095093 0.7517425417900085
vt 0.026532305404543877 0.540666401386261
vt 0.049405939877033234 0.13062256574630737
vt 0.05911025032401085 -0.26045989990234375
vt -0.026027396321296692 -0.26045918464660645
vt 0.05911025032401085 -0.26045989990234375
vt 0.9406619071960449 -0.26045918464660645
vt 1.0257995128631592 -0.26045823097229004
vt 0.026532305404543877 0.540666401386261
vt -0.018753092736005783 0.4879000782966614
vt -0.018752895295619965 0.8045076131820679
vt 1.0185272693634033 0.8045095801353455
vt 1.0185273885726929 0.4879034161567688
vt 0.7144036889076233 1.089915156364441
vt 0.5003989934921265 1.336104393005371
vt 0.9853495955467224 1.499890685081482
vt 0.026088668033480644 1.499889612197876
vt 0.49937617778778076 1.7373422384262085
vt 1.0185273885726929 0.4879034161567688
vt 1.0185272693634033 0.8045095801353455
vt -0.018752895295619965 0.8045076131820679
vt 0.07222222536802292 0.550000011920929
vt 0.07222222536802292 0.33000004291534424
vt 0.9905796647071838 0.33000004291534424
vt 0.9905796647071838 0.550000011920929
vt 0.9905796647071838 0.800000011920929
vt 0.07222222536802292 0.800000011920929
vt 0.9905796647071838 0.9900000095367432
vt 0.9905796647071838 0.800000011920929
vt 0.07222222536802292 0.800000011920929
vt 0.07222222536802292 0.9900000095367432
vt 0.9905796647071838 0.33000004291534424
vt 0.9905796647071838 0.009999990463256836
vt 0.07222222536802292 0.009999990463256836
vt 0.9905796647071838 0.009999990463256836
vt 0.07222222536802292 0.009999990463256836
vt 0.07222222536802292 0.33000004291534424
vt 0.9905796647071838 0.550000011920929
vt 0.07222222536802292 0.550000011920929
vt 0.7488241791725159 1.2268795669078827
vt 1 1.105989694595337
vt 0.7488241791725159 1.4699017107486725
vt 0.1232362613081932 1.4088355898857117
vt 0 1.5920339822769165
vt -0.004703303799033165 1.1035048961639404
vt 0.7488241195678711 1.4699017107486725
vt 1 1.105989694595337
vt 0.7488241195678711 1.2268795669078827
vt 1.9919564723968506 1.102053165435791
vt 1.7419564723968506 1.2261183857917786
vt 1.7419564723968506 1.4742488265037537
vt 0.5 1.5920339822769165
vt 0.37441208958625793 1.5309678316116333
vt 0.37441205978393555 1.5309678316116333
vt 0.49764832854270935 1.3477694392204285
vt 0.24882416427135468 1.4699017107486725
vt 1.4919564723968506 1.3501836061477661
vt 1.2419564723968506 1.4742488265037537
vt 1.3669564723968506 1.5362814664840698
vt 0.9919565320014954 1.5983140468597412
vt -0.004703303799033165 1.1035048961639404
vt 0.12323625385761261 1.4088355898857117
vt 1.1169564723968506 1.4122162163257599
vt 0.9919565320014954 1.102053165435791
vt 1.2419564723968506 1.2261183857917786
vt 0.24647250771522522 1.2256371676921844
vt 0.5 0.8352672457695007
vt 0.25 1.106098860502243
vt 0.5 1.1060624718666077
vt 0.49764835834503174 1.1047472953796387
vt 0.2464725375175476 1.1041260957717896
vt 0.25 0.6999060213565826
vt 0 1.1061352491378784
vt 0.25 0.9707012474536896
vt 0.625 0.6322253942489624
vt 1 0.5645447969436646
vt 0.5 0.5645447969436646
vt 0.75 0.9706284701824188
vt 0.75 0.6999060213565826
vt 0.25 0.9707012474536896
vt 0 1.1061352491378784
vt 0.25 0.6999060213565826
vt 0.25 1.106098860502243
vt 0.5 0.8352672457695007
vt 0.5 0.5645447969436646
vt 1 0.5645447969436646
vt 0.625 0.6322253942489624
vt 0.75 0.6999060213565826
vt 0.75 0.9706284701824188
vt 0.3720604479312897 1.2867032885551453
vt 0.49764832854270935 1.1047472953796387
vt 0.49764835834503174 1.3477694392204285
vt 0.2464725226163864 1.2256371676921844
vt 0.3720604181289673 1.2867032885551453
vt 1.3669564723968506 1.2881509959697723
vt 1.2419564723968506 1.2261183857917786
vt 0.75 1.1060260832309723
vt 0.625 0.9029478579759598
vt 0.625 0.9029478579759598
vt 0.5 1.1060624718666077
vt 0.75 1.1060260832309723
vt 0.6232362985610962 1.4088355898857117
vt 0.6232362389564514 1.1658134311437607
vt 0.24882417917251587 1.4699017107486725
vt 1 1.5920339822769165
vt 0.6872060298919678 1.561500906944275
vt 0.12088460475206375 1.1645710319280624
vt 0.2464725226163864 1.1041260957717896
vt 1.3669564723968506 1.5362814664840698
vt 1.4919564723968506 1.5983140468597412
vt 1.6169564723968506 1.1640857756137848
vt 1.4919564723968506 1.102053165435791
vt 0.6232362389564514 1.1658134311437607
vt 0.6232362389564514 1.4088355898857117
vt 1.6169564723968506 1.4122162163257599
vt 1.7419564723968506 1.4742488265037537
vt 1.6169564723968506 1.4122162163257599
vt 0.75 1.5920339822769165
vt 1.6794564723968506 1.5672977566719055
vt 1.9919564723968506 1.5983140468597412
vt 0.12088459730148315 1.1645710319280624
vt 1.1169564723968506 1.1640857756137848
vt 0.25 0.5645447969436646
vt 0 0.5645447969436646
vt 0.4375 0.6660656929016113
vt 0.375 1.1060806661844254
vt 0.3720604181289673 1.1044366955757141
vt 0.375 0.7675866335630417
vt 0 0.5645447969436646
vt 0.25 0.5645447969436646
vt -0.013984506949782372 0.5773186683654785
vt -0.013984506949782372 -0.00483095645904541
vt 1.0024152994155884 -0.00483095645904541
vt 1.510615348815918 0.2863893508911133
vt 1.3835654258728027 0.4320359230041504
vt 1.002415418624878 0.5776096880435944
vt 1.764715313911438 0.28646212816238403
vt 1.510615348815918 0.5777552127838135
vt 2.018815279006958 -0.00483095645904541
vt 1.002415418624878 -0.00483095645904541
vt 1.0024152994155884 0.28624385595321655
vt -0.013984506949782372 0.5773186683654785
vt 2.018815279006958 -0.00483095645904541
vt 1.002415418624878 0.28624385595321655
vt 2.018815279006958 0.5779007077217102
vt 1.0024152994155884 0.5776096880435944
vt 2.018815279006958 0.5779007077217102
vt 0.4942154288291931 0.5774641633033752
vt -0.013984506949782372 -0.00483095645904541
g DistRt050
s 1
f 1/1/1 2/2/2 3/3/3
f 2/2/2 4/4/4 3/3/3
f 5/5/5 6/6/6 7/7/7
f 5/5/5 8/8/8 6/6/6
f 1/1/1 6/6/6 9/9/9
f 6/6/6 8/8/8 9/9/9
f 10/10/10 2/2/2 1/1/1
f 11/11/11 2/2/2 10/10/10
f 10/10/10 9/9/9 11/11/11
f 11/11/11 4/4/4 2/2/2
f 7/7/7 6/6/6 1/1/1
f 1/1/1 3/3/3 7/7/7
f 7/7/7 3/3/3 5/5/5
f 1/1/1 9/9/9 10/10/10
g DistRt051
s 1
f 12/12/12 13/13/13 14/14/14
f 15/15/15 16/16/16 17/17/17
f 18/18/18 15/15/15 17/17/17
f 19/19/19 20/20/20 21/21/21
f 20/20/20 22/22/22 21/21/21
f 23/23/23 24/24/24 25/25/25
f 23/23/23 25/25/25 26/26/26
f 27/27/27 28/28/28 26/26/26
f 26/26/26 28/28/28 23/23/23
f 26/26/26 25/25/25 29/29/29
f 25/25/25 24/24/24 29/29/29
f 18/18/18 30/30/30 31/31/31
f 17/17/17 30/30/30 18/18/18
f 32/32/32 33/33/33 34/34/34
f 34/34/34 33/33/33 17/17/17
f 17/17/17 16/16/16 34/34/34
f 14/14/14 35/35/35 36/36/36
f 34/34/34 16/16/16 32/32/32
f 26/26/26 29/29/29 27/27/27
f 23/23/23 37/37/37 38/38/38
f 38/38/38 37/37/37 39/39/39
f 39/39/39 24/24/24 38/38/38
f 38/38/38 24/24/24 23/23/23
f 14/14/14 36/36/36 12/12/12
f 33/33/33 30/30/30 17/17/17
f 23/23/23 28/28/28 37/37/37
f 21/21/21 40/40/40 19/19/19
f 31/31/31 15/15/15 18/18/18
f 31/31/31 16/16/16 15/15/15
f 12/12/12 41/41/41 13/13/13
g DistRt052
s 1
f 42/42/42 43/43/43 44/44/44
f 45/45/45 46/46/46 47/47/47
f 45/45/45 48/48/48 46/46/46
f 49/49/49 50/50/50 51/51/51
f 50/50/50 52/52/52 51/51/51
f 53/53/53 54/54/54 55/55/55
f 56/56/56 57/57/57 58/58/58
f 59/59/59 60/60/60 49/49/49
f 47/47/47 61/61/61 62/62/62
f 63/63/63 64/64/64 65/65/65
f 66/66/66 67/67/67 68/68/68
f 68/68/68 69/69/69 66/66/66
f 70/70/70 71/71/71 67/67/67
f 67/67/67 66/66/66 70/70/70
f 72/72/72 73/73/73 71/71/71
f 71/71/71 70/70/70 72/72/72
f 74/74/74 75/75/75 73/73/73
f 73/73/73 72/72/72 74/74/74
f 68/68/68 76/76/76 77/77/77
f 77/77/77 69/69/69 68/68/68
f 76/76/76 78/78/78 79/79/79
f 79/79/79 77/77/77 76/76/76
f 78/78/78 80/80/80 81/81/81
f 81/81/81 79/79/79 78/78/78
f 82/82/82 81/81/81 80/80/80
f 58/58/58 83/83/83 84/84/84
f 83/83/83 85/85/85 84/84/84
f 86/86/86 87/87/87 88/88/88
f 88/88/88 89/89/89 86/86/86
f 42/42/42 44/44/44 90/90/90
f 42/42/42 90/90/90 53/53/53
f 80/80/80 91/91/91 82/82/82
f 84/84/84 92/92/92 58/58/58
f 93/93/93 94/94/94 95/95/95
f 96/96/96 93/93/93 95/95/95
f 97/97/97 59/59/59 49/49/49
f 51/51/51 97/97/97 49/49/49
f 98/98/98 99/99/99 100/100/100
f 101/101/101 98/98/98 100/100/100
f 100/100/100 96/96/96 102/102/102
f 102/102/102 96/96/96 95/95/95
f 95/95/95 101/101/101 102/102/102
f 102/102/102 101/101/101 100/100/100
f 103/103/103 104/104/104 105/105/105
f 105/105/105 104/104/104 106/106/106
f 106/106/106 107/107/107 105/105/105
f 105/105/105 107/107/107 103/103/103
f 47/47/47 108/108/108 45/45/45
f 47/47/47 62/62/62 108/108/108
f 106/106/106 109/109/109 107/107/107
f 106/106/106 110/110/110 109/109/109
f 92/92/92 56/56/56 58/58/58
f 103/103/103 111/111/111 112/112/112
f 103/103/103 112/112/112 104/104/104
f 53/53/53 55/55/55 113/113/113
f 53/53/53 113/113/113 42/42/42
f 45/45/45 114/114/114 115/115/115
f 45/45/45 115/115/115 48/48/48
f 65/65/65 116/116/116 63/63/63
f 52/52/52 117/117/117 51/51/51
g DistRt053
s 1
f 118/118/118 119/119/119 120/120/120
f 121/121/121 122/122/122 123/123/123
f 122/122/122 121/121/121 124/124/124
f 125/125/125 126/126/126 127/127/127
f 127/127/127 128/128/128 125/125/125
f 129/129/129 130/130/130 128/128/128
f 128/128/128 127/127/127 129/129/129
f 130/130/130 129/129/129 131/131/131
f 131/131/131 132/132/132 130/130/130
f 133/133/133 132/132/132 131/131/131
f 131/131/131 134/134/134 133/133/133
f 134/134/134 135/135/135 136/136/136
f 136/136/136 133/133/133 134/134/134
f 135/135/135 124/124/124 137/137/137
f 137/137/137 124/124/124 121/121/121
f 138/138/138 139/139/139 126/126/126
f 140/140/140 141/141/141 119/119/119
f 141/141/141 120/120/120 119/119/119
f 141/141/141 140/140/140 142/142/142
f 143/143/143 144/144/144 145/145/145
f 144/144/144 143/143/143 146/146/146
f 139/139/139 138/138/138 147/147/147
f 125/125/125 138/138/138 126/126/126
f 146/146/146 148/148/148 144/144/144
f 137/137/137 136/136/136 135/135/135
f 149/149/149 150/150/150 148/148/148
f 148/148/148 146/146/146 149/149/149
f 151/151/151 152/152/152 150/150/150
f 150/150/150 149/149/149 151/151/151
f 152/152/152 151/151/151 153/153/153
f 153/153/153 154/154/154 152/152/152
f 155/155/155 154/154/154 153/153/153
f 153/153/153 156/156/156 155/155/155
f 156/156/156 118/118/118 157/157/157
f 120/120/120 157/157/157 118/118/118
f 157/157/157 155/155/155 156/156/156
g DistRt054
s 1
f 158/158/158 159/159/159 160/160/160
f 161/161/161 162/162/162 163/163/163
f 163/163/163 164/164/164 161/161/161
f 160/160/160 165/165/165 158/158/158
g DistRt055
s 1
f 166/166/166 167/167/167 168/168/168
f 169/169/169 170/170/170 171/171/171
f 172/172/172 173/173/173 174/174/174
f 175/175/175 173/173/173 172/172/172
f 176/176/176 177/177/177 178/178/178
f 177/177/177 179/179/179 180/180/180
f 171/171/171 181/181/181 182/182/182
f 183/183/183 184/184/184 185/185/185
f 181/181/181 186/186/186 182/182/182
f 186/186/186 187/187/187 188/188/188
f 189/189/189 180/180/180 179/179/179
f 190/190/190 174/174/174 173/173/173
f 191/191/191 192/192/192 193/193/193
f 194/194/194 185/185/185 184/184/184
f 187/187/187 195/195/195 196/196/196
f 188/188/188 182/182/182 186/186/186
f 168/168/168 197/197/197 166/166/166
f 193/193/193 198/198/198 191/191/191
f 170/170/170 181/181/181 171/171/171
f 175/175/175 199/199/199 173/173/173
f 190/190/190 183/183/183 185/185/185
f 174/174/174 190/190/190 185/185/185
f 200/200/200 171/171/171 182/182/182
f 196/196/196 201/201/201 187/187/187
f 201/201/201 188/188/188 187/187/187
f 202/202/202 203/203/203 204/204/204
f 203/203/203 205/205/205 206/206/206
f 166/166/166 205/205/205 167/167/167
f 175/175/175 170/170/170 169/169/169
f 202/202/202 204/204/204 189/189/189
f 203/203/203 206/206/206 204/204/204
f 180/180/180 207/207/207 177/177/177
f 207/207/207 178/178/178 177/177/177
f 204/204/204 208/208/208 189/189/189
f 197/197/197 168/168/168 191/191/191
f 203/203/203 167/167/167 205/205/205
f 172/172/172 170/170/170 175/175/175
f 198/198/198 197/197/197 191/191/191
f 209/209/209 205/205/205 166/166/166
f 179/179/179 202/202/202 189/189/189
g DistRt056
s 1
f 210/210/210 211/211/211 212/212/212
f 212/212/212 213/213/213 210/210/210
f 213/213/213 214/214/214 215/215/215
f 215/215/215 210/210/210 213/213/213
f 216/216/216 217/217/217 218/218/218
f 218/218/218 219/219/219 216/216/216
f 220/220/220 221/221/221 222/222/222
f 214/214/214 216/216/216 219/219/219
f 219/219/219 215/215/215 214/214/214
f 223/223/223 212/212/212 211/211/211
f 211/211/211 224/224/224 223/223/223
f 222/222/222 225/225/225 220/220/220
f 226/226/226 220/220/220 225/225/225
f 227/227/227 218/218/218 217/217/217
f 217/217/217 226/226/226 227/227/227
f 225/225/225 227/227/227 226/226/226
g DistRt057
s 1
f 228/228/228 229/229/229 230/230/230
f 231/231/231 232/232/232 233/233/233
f 234/234/234 235/235/235 236/236/236
f 237/237/237 238/238/238 239/239/239
f 240/240/240 232/232/232 241/241/241
f 234/234/234 242/242/242 240/240/240
f 242/242/242 232/232/232 240/240/240
f 243/243/243 244/244/244 242/242/242
f 244/244/244 232/232/232 242/242/242
f 245/245/245 246/246/246 247/247/247
f 246/246/246 248/248/248 247/247/247
f 249/249/249 232/232/232 250/250/250
f 248/248/248 251/251/251 252/252/252
f 251/251/251 253/253/253 252/252/252
f 254/254/254 250/250/250 244/244/244
f 250/250/250 232/232/232 244/244/244
f 251/251/251 246/246/246 253/253/253
f 248/248/248 246/246/246 251/251/251
f 255/255/255 256/256/256 257/257/257
f 254/254/254 258/258/258 259/259/259
f 260/260/260 261/261/261 262/262/262
f 260/260/260 262/262/262 255/255/255
f 255/255/255 262/262/262 256/256/256
f 262/262/262 261/261/261 256/256/256
f 263/263/263 264/264/264 265/265/265
f 266/266/266 264/264/264 267/267/267
f 255/255/255 267/267/267 263/263/263
f 267/267/267 264/264/264 263/263/263
f 268/268/268 269/269/269 270/270/270
f 271/271/271 269/269/269 268/268/268
f 271/271/271 268/268/268 272/272/272
f 273/273/273 274/274/274 275/275/275
f 273/273/273 275/275/275 270/270/270
f 276/276/276 274/274/274 277/277/277
f 275/275/275 274/274/274 276/276/276
f 275/275/275 276/276/276 272/272/272
f 278/278/278 279/279/279 280/280/280
f 281/281/281 279/279/279 278/278/278
f 278/278/278 231/231/231 281/281/281
f 280/280/280 231/231/231 278/278/278
f 282/282/282 258/258/258 254/254/254
f 243/243/243 258/258/258 282/282/282
f 283/283/283 238/238/238 284/284/284
f 245/245/245 238/238/238 283/283/283
f 282/282/282 244/244/244 243/243/243
f 254/254/254 244/244/244 282/282/282
f 246/246/246 245/245/245 283/283/283
f 246/246/246 283/283/283 253/253/253
f 266/266/266 257/257/257 285/285/285
f 266/266/266 285/285/285 235/235/235
f 236/236/236 235/235/235 285/285/285
f 286/286/286 257/257/257 266/266/266
f 255/255/255 257/257/257 286/286/286
f 286/286/286 267/267/267 255/255/255
f 266/266/266 267/267/267 286/286/286
f 287/287/287 288/288/288 272/272/272
f 277/277/277 288/288/288 287/287/287
f 287/287/287 276/276/276 277/277/277
f 272/272/272 276/276/276 287/287/287
f 229/229/229 289/289/289 277/277/277
f 289/289/289 288/288/288 277/277/277
f 289/289/289 229/229/229 228/228/228
f 290/290/290 228/228/228 230/230/230
f 280/280/280 228/228/228 290/290/290
f 230/230/230 241/241/241 290/290/290
f 279/279/279 291/291/291 280/280/280
f 291/291/291 228/228/228 280/280/280
f 291/291/291 289/289/289 228/228/228
f 279/279/279 289/289/289 291/291/291
f 241/241/241 232/232/232 292/292/292
f 241/241/241 292/292/292 280/280/280
f 280/280/280 292/292/292 231/231/231
f 292/292/292 232/232/232 231/231/231
f 293/293/293 294/294/294 230/230/230
f 294/294/294 241/241/241 230/230/230
f 294/294/294 240/240/240 241/241/241
f 295/295/295 231/231/231 233/233/233
f 281/281/281 231/231/231 295/295/295
f 295/295/295 296/296/296 281/281/281
f 233/233/233 296/296/296 295/295/295
f 297/297/297 248/248/248 298/298/298
f 284/284/284 299/299/299 300/300/300
f 299/299/299 237/237/237 300/300/300
f 238/238/238 237/237/237 299/299/299
f 238/238/238 299/299/299 284/284/284
f 243/243/243 236/236/236 301/301/301
f 243/243/243 301/301/301 258/258/258
f 301/301/301 285/285/285 258/258/258
f 236/236/236 285/285/285 301/301/301
f 302/302/302 236/236/236 243/243/243
f 234/234/234 236/236/236 302/302/302
f 302/302/302 242/242/242 234/234/234
f 243/243/243 242/242/242 302/302/302
f 303/303/303 247/247/247 304/304/304
f 245/245/245 247/247/247 303/303/303
f 238/238/238 245/245/245 305/305/305
f 238/238/238 305/305/305 239/239/239
f 234/234/234 240/240/240 306/306/306
f 234/234/234 306/306/306 293/293/293
f 293/293/293 306/306/306 294/294/294
f 306/306/306 240/240/240 294/294/294
f 304/304/304 297/297/297 307/307/307
f 304/304/304 307/307/307 308/308/308
f 307/307/307 298/298/298 308/308/308
f 297/297/297 298/298/298 307/307/307
f 309/309/309 250/250/250 254/254/254
f 249/249/249 250/250/250 309/309/309
f 310/310/310 300/300/300 252/252/252
f 284/284/284 300/300/300 310/310/310
f 309/309/309 259/259/259 249/249/249
f 254/254/254 259/259/259 309/309/309
f 260/260/260 265/265/265 311/311/311
f 260/260/260 311/311/311 312/312/312
f 255/255/255 263/263/263 313/313/313
f 255/255/255 313/313/313 260/260/260
f 260/260/260 313/313/313 265/265/265
f 313/313/313 263/263/263 265/265/265
f 288/288/288 314/314/314 272/272/272
f 314/314/314 271/271/271 272/272/272
f 296/296/296 315/315/315 281/281/281
f 315/315/315 279/279/279 281/281/281
f 316/316/316 268/268/268 270/270/270
f 272/272/272 268/268/268 316/316/316
f 316/316/316 275/275/275 272/272/272
f 270/270/270 275/275/275 316/316/316
f 317/317/317 318/318/318 270/270/270
f 318/318/318 273/273/273 270/270/270
f 290/290/290 241/241/241 280/280/280
f 230/230/230 229/229/229 293/293/293
f 293/293/293 235/235/235 234/234/234
f 237/237/237 239/239/239 308/308/308
f 312/312/312 261/261/261 260/260/260
f 235/235/235 264/264/264 266/266/266
f 270/270/270 269/269/269 317/317/317
f 277/277/277 274/274/274 229/229/229
g DistRt058
s 1
f 319/319/319 320/320/320 321/321/321
f 322/322/322 323/323/323 324/324/324
f 322/322/322 325/325/325 323/323/323
f 325/325/325 326/326/326 323/323/323
f 323/323/323 326/326/326 324/324/324
f 327/327/327 328/328/328 329/329/329
f 329/329/329 328/328/328 330/330/330
f 331/331/331 322/322/322 332/332/332
f 322/322/322 324/324/324 332/332/332
f 331/331/331 325/325/325 322/322/322
f 319/319/319 321/321/321 332/332/332
f 325/325/325 333/333/333 326/326/326
f 331/331/331 333/333/333 325/325/325
f 332/332/332 321/321/321 331/331/331
f 330/330/330 334/334/334 329/329/329
f 334/334/334 335/335/335 327/327/327
f 332/332/332 336/336/336 319/319/319
f 328/328/328 337/337/337 330/330/330
f 332/332/332 324/324/324 336/336/336
f 329/329/329 334/334/334 327/327/327
