# Exported using wow.export v0.2.19
o 20736_throne_hall05.obj
v -12.187200546264648 5.304168701171875 22.441450119018555
v -14.552600860595703 4.245479106903076 21.815202713012695
v -13.49495792388916 6.36173677444458 22.08445167541504
v -11.754371643066406 4.2468767166137695 22.564239501953125
v -9.821800231933594 6.362858295440674 23.067697525024414
v -11.740764617919922 0.312766432762146 22.593658447265625
v -8.864676475524902 0.5777185559272766 23.3618106842041
v -8.857754707336426 0.050607044249773026 23.367116928100586
v -14.616853713989258 0.0478142648935318 21.82550811767578
v -14.614216804504395 0.5749236345291138 21.82276153564453
v -11.74635124206543 2.274301528930664 22.57931137084961
v -11.71921443939209 3.2605886459350586 22.58011245727539
v -9.010416984558105 2.2756998538970947 23.311670303344727
v -14.48228645324707 2.2729032039642334 21.84695053100586
v -11.81231689453125 1.425311803817749 22.567214965820312
v -11.739446640014648 0.5763211250305176 22.59228515625
v -11.7373046875 0.04921065270900726 22.5963134765625
v -8.95614242553711 4.248274326324463 23.313274383544922
v -14.833101272583008 0.7391552329063416 21.763092041015625
v -8.64712905883789 0.7419446110725403 23.418968200683594
v -14.827263832092285 1.9092994928359985 21.756986618041992
v -8.662484169006348 1.91209077835083 23.407190322875977
v -14.904011726379395 2.2690517902374268 21.734086990356445
v -8.588659286499023 2.2718420028686523 23.42459487915039
v -11.770475387573242 8.207335472106934 22.533979415893555
v -8.310173988342285 4.5775251388549805 20.36138343811035
v -9.249364852905273 7.167765140533447 20.10972785949707
v -8.90396499633789 8.311532020568848 18.630172729492188
v -10.392210960388184 10.342997550964355 18.318561553955078
v -10.718171119689941 9.399382591247559 19.714303970336914
v -8.310173988342285 4.5775251388549805 20.36138343811035
v -8.19987964630127 2.2720494270324707 20.39093589782715
v -7.98291015625 2.272050142288208 22.138423919677734
v -8.359747886657715 4.354124069213867 22.03744888305664
v -9.249364852905273 7.167765140533447 20.10972785949707
v -9.342544555664062 6.498974800109863 21.862871170043945
v -10.718171119689941 9.399382591247559 19.714303970336914
v -11.25068187713623 8.5966157913208 21.2783145904541
v -8.359747886657715 4.354124069213867 22.03744888305664
v -7.98291015625 2.272050142288208 22.138423919677734
v -8.588659286499023 2.2718420028686523 23.42459487915039
v -8.95614242553711 4.248274326324463 23.313274383544922
v -9.342544555664062 6.498974800109863 21.862871170043945
v -9.821800231933594 6.362858295440674 23.067697525024414
v -11.25068187713623 8.5966157913208 21.2783145904541
v -11.770475387573242 8.207335472106934 22.533979415893555
v -13.463662147521973 2.269266128540039 18.982454299926758
v -13.12817096710205 2.2690482139587402 17.31975555419922
v -13.106661796569824 5.001197814941406 17.42386817932129
v -13.353364944458008 4.574741840362549 19.012006759643555
v -12.136509895324707 8.310481071472168 17.794137954711914
v -12.414175987243652 7.164980411529541 19.263662338256836
v -10.718171119689941 9.399382591247559 19.714303970336914
v -14.60440444946289 2.2692670822143555 20.36614418029785
v -13.463662147521973 2.269266128540039 18.982454299926758
v -13.353364944458008 4.574741840362549 19.012006759643555
v -14.227564811706543 4.3513407707214355 20.467117309570312
v -12.414175987243652 7.164980411529541 19.263662338256836
v -13.286356925964355 6.496317386627197 20.8079891204834
v -10.718171119689941 9.399382591247559 19.714303970336914
v -11.25068187713623 8.5966157913208 21.2783145904541
v -14.904011726379395 2.2690517902374268 21.734086990356445
v -14.60440444946289 2.2692670822143555 20.36614418029785
v -14.227564811706543 4.3513407707214355 20.467117309570312
v -14.552600860595703 4.245479106903076 21.815202713012695
v -13.286356925964355 6.496317386627197 20.8079891204834
v -13.49495792388916 6.36173677444458 22.08445167541504
v -11.25068187713623 8.5966157913208 21.2783145904541
v -11.770475387573242 8.207335472106934 22.533979415893555
v -7.995462417602539 5.0059494972229 18.745895385742188
v -7.860949993133545 2.272221803665161 18.682077407836914
v -8.19987964630127 2.2720494270324707 20.39093589782715
v -8.431241035461426 0.05041419342160225 20.328943252563477
v -10.753509521484375 0.04902373254299164 20.55234146118164
v -8.274721145629883 0.05041588842868805 22.060232162475586
v -14.616853713989258 0.0478142648935318 21.82550811767578
v -11.585172653198242 0.04912037402391434 21.90572738647461
v -14.312591552734375 0.04763370007276535 20.4443359375
v -11.293656349182129 0.0490247942507267 21.25228500366211
v -10.831768989562988 0.04902288690209389 19.686695098876953
v -13.23229694366455 0.047631580382585526 19.044448852539062
v -8.857754707336426 0.050607044249773026 23.367116928100586
v -10.572010040283203 0.050903744995594025 18.83806800842285
v -11.7373046875 0.04921065270900726 22.5963134765625
v -8.072381973266602 0.0504852794110775 18.54725456237793
v -10.392580032348633 0.05093928799033165 17.947223663330078
v -12.71277904510498 0.0513932965695858 17.347192764282227
v -8.425398826599121 2.2759053707122803 22.019859313964844
v -7.98291015625 2.272050142288208 22.138423919677734
v -8.19987964630127 2.2720494270324707 20.39093589782715
v -8.55070972442627 2.275904655456543 20.29693031311035
v -7.860949993133545 2.272221803665161 18.682077407836914
v -8.212045669555664 2.2759718894958496 18.591411590576172
v -14.307576179504395 0.5748379826545715 20.4456787109375
v -14.614216804504395 0.5749236345291138 21.82276153564453
v -14.616853713989258 0.0478142648935318 21.82550811767578
v -14.161913871765137 2.2731223106384277 20.484708786010742
v -14.525410652160645 1.9094496965408325 20.387310028076172
v -13.401029586791992 1.9094496965408325 18.999237060546875
v -13.11283016204834 2.2731213569641113 19.076457977294922
v -14.904011726379395 2.2690517902374268 21.734086990356445
v -14.48228645324707 2.2729032039642334 21.84695053100586
v -14.161913871765137 2.2731223106384277 20.484708786010742
v -14.60440444946289 2.2692670822143555 20.36614418029785
v -13.11283016204834 2.2731213569641113 19.076457977294922
v -13.463662147521973 2.269266128540039 18.982454299926758
v -12.683806419372559 2.2754364013671875 17.434907913208008
v -13.12817096710205 2.2690482139587402 17.31975555419922
v -14.312591552734375 0.04763370007276535 20.4443359375
v -14.307576179504395 0.5748379826545715 20.4456787109375
v -13.22832202911377 0.5748358964920044 19.045513153076172
v -13.409847259521484 0.739094614982605 18.99687385559082
v -14.536531448364258 0.7390963435173035 20.38433265686035
v -14.833101272583008 0.7391552329063416 21.763092041015625
v -14.614216804504395 0.5749236345291138 21.82276153564453
v -14.536531448364258 0.7390963435173035 20.38433265686035
v -8.55070972442627 2.275904655456543 20.29693031311035
v -8.2625093460083 1.912232756614685 20.374155044555664
v -8.061902046203613 1.9122329950332642 22.117258071899414
v -13.409847259521484 0.739094614982605 18.99687385559082
v -12.730401992797852 0.5781700015068054 17.361637115478516
v -13.22832202911377 0.5748358964920044 19.045513153076172
v -13.23229694366455 0.047631580382585526 19.044448852539062
v -8.081120491027832 0.577696681022644 18.564014434814453
v -8.072381973266602 0.0504852794110775 18.54725456237793
v -8.431241035461426 0.05041419342160225 20.328943252563477
v -8.435216903686523 0.5776184797286987 20.327877044677734
v -8.253691673278809 0.7418768405914307 20.376516342163086
v -7.900964736938477 0.7420135140419006 18.616531372070312
v -13.046697616577148 1.9098011255264282 17.32786750793457
v -12.683806419372559 2.2754364013671875 17.434907913208008
v -8.253691673278809 0.7418768405914307 20.376516342163086
v -7.920369625091553 1.9123821258544922 18.653728485107422
v -13.007575988769531 0.7403972148895264 17.29580307006836
v -12.71277904510498 0.0513932965695858 17.347192764282227
v -8.212045669555664 2.2759718894958496 18.591411590576172
v -8.857754707336426 0.050607044249773026 23.367116928100586
v -8.864676475524902 0.5777185559272766 23.3618106842041
v -8.279736518859863 0.5776202082633972 22.058889389038086
v -8.274721145629883 0.05041588842868805 22.060232162475586
v -8.864676475524902 0.5777185559272766 23.3618106842041
v -8.64712905883789 0.7419446110725403 23.418968200683594
v -8.05078125 0.7418785095214844 22.120235443115234
v -8.279736518859863 0.5776202082633972 22.058889389038086
v -8.64712905883789 0.7419446110725403 23.418968200683594
v -8.662484169006348 1.91209077835083 23.407190322875977
v -8.05078125 0.7418785095214844 22.120235443115234
v -9.010416984558105 2.2756998538970947 23.311670303344727
v -8.425398826599121 2.2759053707122803 22.019859313964844
v -14.827263832092285 1.9092994928359985 21.756986618041992
v -14.48228645324707 2.2729032039642334 21.84695053100586
v -14.833101272583008 0.7391552329063416 21.763092041015625
v -9.010416984558105 2.2756998538970947 23.311670303344727
v -8.588659286499023 2.2718420028686523 23.42459487915039
v -8.435216903686523 0.5776184797286987 20.327877044677734
vn 0.2585762143135071 -0.006329593248665333 -0.9659701585769653
vn 0.2585761547088623 -0.006330046337097883 -0.9659701585769653
vn 0.25857627391815186 -0.006329140160232782 -0.9659700989723206
vn 0.2585761547088623 -0.006330046337097883 -0.9659701585769653
vn 0.25857627391815186 -0.006329140160232782 -0.9659700989723206
vn 0.258574903011322 -0.006328244227916002 -0.965970516204834
vn 0.25857385993003845 -0.006329825613647699 -0.9659707546234131
vn 0.2585762143135071 -0.00632950896397233 -0.9659700989723206
vn 0.258575975894928 -0.006326662842184305 -0.9659702181816101
vn 0.2585758864879608 -0.00632936367765069 -0.9659702181816101
vn 0.25857603549957275 -0.0063296216540038586 -0.9659701585769653
vn 0.2585761547088623 -0.006330046337097883 -0.9659701585769653
vn 0.2585759162902832 -0.006329196970909834 -0.9659702181816101
vn 0.2585761547088623 -0.006330046337097883 -0.9659701585769653
vn 0.2585759162902832 -0.006329280324280262 -0.9659702181816101
vn 0.25857487320899963 -0.006329594645649195 -0.965970516204834
vn 0.25857609510421753 -0.006328085903078318 -0.9659701585769653
vn 0.2585761547088623 -0.006330046337097883 -0.9659701585769653
vn 0.2585795819759369 -0.006329870317131281 -0.9659692049026489
vn 0.25857987999916077 -0.0063282945193350315 -0.9659691452980042
vn 0.2585795819759369 -0.006329870317131281 -0.9659692049026489
vn 0.25857987999916077 -0.0063282945193350315 -0.9659691452980042
vn 0.2585752010345459 -0.006330078933387995 -0.9659703969955444
vn 0.2585761249065399 -0.00632921326905489 -0.9659701585769653
vn 0.25857633352279663 -0.006328728049993515 -0.9659700989723206
vn -0.9650153517723083 -0.21027080714702606 -0.1566256284713745
vn -0.8310917019844055 -0.4548041522502899 -0.3200621008872986
vn -0.7625126242637634 -0.37033936381340027 -0.530493438243866
vn 0.10389429330825806 -0.7953399419784546 -0.597193717956543
vn -0.6791037321090698 -0.5894277095794678 -0.4374850392341614
vn -0.9650153517723083 -0.21027080714702606 -0.1566256284713745
vn -0.9983192086219788 -0.04534010589122772 -0.03609812259674072
vn -0.98288893699646 -0.1399003565311432 -0.1198214665055275
vn -0.9191864132881165 -0.3134990632534027 -0.23835839331150055
vn -0.8310917019844055 -0.4548041522502899 -0.3200621008872986
vn -0.7520971298217773 -0.5558063387870789 -0.3541598320007324
vn -0.6791037321090698 -0.5894277095794678 -0.4374850392341614
vn -0.5858502984046936 -0.6830053329467773 -0.4362145662307739
vn -0.9191864132881165 -0.3134990632534027 -0.23835839331150055
vn -0.98288893699646 -0.1399003565311432 -0.1198214665055275
vn -0.8896735310554504 -0.18134593963623047 -0.41904017329216003
vn -0.8545231819152832 -0.2995873689651489 -0.42430832982063293
vn -0.7520971298217773 -0.5558063387870789 -0.3541598320007324
vn -0.6921949982643127 -0.6046360731124878 -0.39405739307403564
vn -0.5858502984046936 -0.6830053329467773 -0.4362145662307739
vn -0.5477273464202881 -0.707769513130188 -0.44615814089775085
vn 0.9025335311889648 -0.031068628653883934 0.4294973909854889
vn 0.8937907814979553 0.44653186202049255 0.041801564395427704
vn 0.989578366279602 -0.13179509341716766 0.05800619721412659
vn 0.9306241273880005 -0.21558736264705658 0.29573777318000793
vn 0.8844237923622131 -0.4550795555114746 -0.10342705994844437
vn 0.8646696209907532 -0.49904805421829224 0.057423852384090424
vn 0.7751783728599548 -0.6301659941673279 -0.04460187256336212
vn 0.8804022669792175 -0.13868319988250732 0.45349618792533875
vn 0.9025335311889648 -0.031068628653883934 0.4294973909854889
vn 0.9306241273880005 -0.21558736264705658 0.29573777318000793
vn 0.8904557228088379 -0.3140909969806671 0.32929539680480957
vn 0.8646696209907532 -0.49904805421829224 0.057423852384090424
vn 0.820875346660614 -0.5591322183609009 0.11633928120136261
vn 0.7751783728599548 -0.6301659941673279 -0.04460187256336212
vn 0.7210803627967834 -0.6922077536582947 -0.029858173802495003
vn 0.9601756930351257 -0.1839817762374878 0.21026967465877533
vn 0.8804022669792175 -0.13868319988250732 0.45349618792533875
vn 0.8904557228088379 -0.3140909969806671 0.32929539680480957
vn 0.9200769662857056 -0.3544790744781494 0.16674204170703888
vn 0.820875346660614 -0.5591322183609009 0.11633928120136261
vn 0.8084373474121094 -0.5843439102172852 0.07050690799951553
vn 0.7210803627967834 -0.6922077536582947 -0.029858173802495003
vn 0.717994749546051 -0.6910856366157532 0.08297092467546463
vn -0.8708066940307617 -0.1450902670621872 -0.46972811222076416
vn -0.7866707444190979 0.4430515766143799 -0.42994698882102966
vn -0.9983192086219788 -0.04534010589122772 -0.03609812259674072
vn -0.0005936805391684175 0.9999998211860657 0.00005269350731396116
vn -0.0004851756093557924 0.9999998807907104 -0.00013080962526146322
vn -0.00037667067954316735 0.9999998807907104 -0.0003143127541989088
vn -0.00042488460894674063 0.9999998807907104 -0.0002243302733404562
vn -0.00037667067954316735 0.9999998807907104 -0.0003143127541989088
vn -0.00037667067954316735 0.9999998807907104 -0.0003143127541989088
vn -0.00037667067954316735 0.9999998807907104 -0.0003143127541989088
vn -0.0005936805391684175 0.9999998211860657 0.00005269350731396116
vn -0.0005936805391684175 0.9999998211860657 0.00005269350731396116
vn -0.00037667067954316735 0.9999998807907104 -0.0003143127541989088
vn 0.46968749165534973 0.8556767702102661 0.2172805517911911
vn -0.000400777644244954 0.9999998807907104 -0.0002693215210456401
vn -0.8957302570343018 0.44004812836647034 -0.063442163169384
vn -0.09545795619487762 0.9421668648719788 0.3212619423866272
vn 0.8041437268257141 0.46390795707702637 0.37167492508888245
vn 0.011206558905541897 0.9999368786811829 -0.0008155563264153898
vn 0.009012076072394848 0.9999587535858154 -0.0011194281978532672
vn 0.010407941415905952 0.9999434947967529 0.0021652078721672297
vn 0.010151498019695282 0.9999463558197021 0.0020556661766022444
vn -0.7866707444190979 0.4430515766143799 -0.42994698882102966
vn -0.9840880036354065 -0.16381990909576416 -0.0688028335571289
vn 0.906085193157196 -0.00969653483480215 0.42298418283462524
vn 0.9760866165161133 -0.0037494576536118984 0.21734952926635742
vn 0.9765369296073914 -0.009837252087891102 0.21512523293495178
vn 0.6357316970825195 -0.6798245906829834 0.36562788486480713
vn 0.8280271887779236 -0.39338934421539307 0.3995194137096405
vn 0.7907798886299133 -0.47965461015701294 0.38026121258735657
vn 0.7010533809661865 -0.6274997591972351 0.33877459168434143
vn -0.00863226130604744 0.9999610185623169 -0.001869283034466207
vn -0.00863226130604744 0.9999610185623169 -0.001869283034466207
vn -0.00863226130604744 0.9999610185623169 -0.001869283034466207
vn -0.008269487880170345 0.9999644160270691 -0.0016537941992282867
vn -0.007262674625962973 0.9999589920043945 -0.0054111178033053875
vn -0.008999715559184551 0.9999319911003113 -0.007420157082378864
vn 0.8863922953605652 -0.2602543532848358 0.3828529417514801
vn 0.8937907814979553 0.44653186202049255 0.041801564395427704
vn 0.9059736728668213 -0.00873077753931284 0.42324405908584595
vn 0.5288257002830505 0.7895299792289734 0.31142541766166687
vn 0.5602712035179138 0.7924790382385254 0.24098385870456696
vn 0.5569714903831482 0.7660683989524841 0.3208145499229431
vn 0.5176663398742676 0.8167433142662048 0.2548567056655884
vn 0.5738328695297241 0.8096228837966919 0.12339620292186737
vn 0.5563226342201233 0.8216884136199951 0.12382760643959045
vn 0.9017306566238403 -0.008712119422852993 0.4322105348110199
vn -0.7592209577560425 -0.6508274674415588 -0.0026719721499830484
vn -0.9412655830383301 -0.3356049358844757 -0.037260934710502625
vn -0.8883180022239685 -0.44815707206726074 -0.1002313643693924
vn 0.8972597718238831 0.009804906323552132 0.4413941204547882
vn 0.778479278087616 0.5071443915367126 0.36983048915863037
vn 0.89046710729599 -0.007632692810148001 0.454983651638031
vn 0.8882566094398499 0.008514932356774807 0.4592686891555786
vn -0.9132079482078552 0.40236252546310425 -0.06446389108896255
vn -0.8957302570343018 0.44004812836647034 -0.063442163169384
vn -0.998488187789917 -0.008741756901144981 -0.054266657680273056
vn -0.666092574596405 0.7450644373893738 -0.03463582322001457
vn -0.6428363919258118 0.7660034894943237 0.00020946256699971855
vn -0.9126136898994446 0.40217891335487366 -0.0734059289097786
vn 0.8439040184020996 -0.38260406255722046 0.3760852515697479
vn 0.8863922953605652 -0.2602543532848358 0.3828529417514801
vn -0.9991225600242615 -0.008737864904105663 -0.040960218757390976
vn -0.9370545744895935 -0.34120434522628784 -0.07421836256980896
vn 0.7924025654792786 0.4881618022918701 0.36578166484832764
vn 0.8041437268257141 0.46390795707702637 0.37167492508888245
vn -0.9840880036354065 -0.16381990909576416 -0.0688028335571289
vn -0.9131983518600464 -0.00972447544336319 -0.4073992669582367
vn -0.9121633172035217 -0.016100438311696053 -0.4095104932785034
vn -0.986367404460907 -0.009801246225833893 -0.16426604986190796
vn -0.9864245057106018 -0.008811185136437416 -0.16397888958454132
vn -0.5241273641586304 0.8184700012207031 -0.23536646366119385
vn -0.5411553382873535 0.8033587336540222 -0.2485269159078598
vn -0.5658695101737976 0.8201866149902344 -0.08417640626430511
vn -0.606591522693634 0.7942178249359131 -0.03556431457400322
vn -0.9087316989898682 -0.009697139263153076 -0.4172680377960205
vn -0.8330190777778625 -0.3944879472255707 -0.38788971304893494
vn -0.9876150488853455 -0.008800022304058075 -0.15664969384670258
vn -0.6505584716796875 -0.6999354362487793 -0.2947271168231964
vn -0.6850430369377136 -0.717891275882721 -0.12388791143894196
vn 0.8983925580978394 -0.39205583930015564 0.19794702529907227
vn 0.6951948404312134 -0.7000070810317993 0.16338364779949188
vn 0.9775919914245605 -0.009823933243751526 0.21027936041355133
vn 0.007731352932751179 0.9999634027481079 0.00366039271466434
vn 0.008084130473434925 0.9999594688415527 0.003969361074268818
vn -0.9985144734382629 -0.007638968527317047 -0.05394929647445679
vt 0.4322129189968109 0.7728657424449921
vt 0.05735921859741211 0.617322564125061
vt 0.22602447867393494 0.9282442927360535
vt 0.5000002980232239 0.6175278425216675
vt 0.8070666193962097 0.9284089207649231
vt 0.4996219277381897 0.03952622413635254
vt 0.9547486901283264 0.07845312356948853
vt 0.9555046558380127 0.0010096430778503418
vt 0.04449516534805298 0.0005993843078613281
vt 0.04525139927864075 0.07804262638092041
vt 0.5000000596046448 0.32771605253219604
vt 0.5049272775650024 0.4726219177246094
vt 0.9327870011329651 0.32792145013809204
vt 0.06721311807632446 0.32751065492630005
vt 0.4890191853046417 0.2029820680618286
vt 0.5000000596046448 0.07824790477752686
vt 0.49999991059303284 0.0008045434951782227
vt 0.9426413774490356 0.6177331209182739
vt 0.010732501745223999 0.10217159986495972
vt 0.9892674684524536 0.10258132219314575
vt 0.012408614158630371 0.2740898132324219
vt 0.9875910878181458 0.274499773979187
vt 0.0004995465278625488 0.3269447684288025
vt 0.9995005130767822 0.32735466957092285
vt 0.5000002384185791 1.199400544166565
vt 0.75 0.33000004291534424
vt 0.75 0.6660000085830688
vt 0.5 0.6660000085830688
vt 0.5 1
vt 0.75 1
vt 0.5 0.8469082117080688
vt 0.5 0.5169082283973694
vt 0.75 0.5169082283973694
vt 0.75 0.8469082117080688
vt 0.5 1.182908296585083
vt 0.75 1.182908296585083
vt 0.5 1.5169081687927246
vt 0.75 1.5169081687927246
vt 0.5 0.11019325256347656
vt 0.5 -0.21980679035186768
vt 0.75 -0.21980679035186768
vt 0.75 0.11019325256347656
vt 0.5 0.44619321823120117
vt 0.75 0.44619321823120117
vt 0.5 0.7801932096481323
vt 0.75 0.7801932096481323
vt 0.75 0
vt 0.5 0
vt 0.5 0.33000004291534424
vt 0.75 0.33000004291534424
vt 0.5 0.6600000262260437
vt 0.75 0.6600000262260437
vt 0.75 1
vt 0.75 0.3454105854034424
vt 0.5 0.3454105854034424
vt 0.5 0.6754106283187866
vt 0.75 0.6754106283187866
vt 0.5 1.0054106712341309
vt 0.75 1.0054106712341309
vt 0.5 1.3454105854034424
vt 0.75 1.3454105854034424
vt 0.75 -0.10386478900909424
vt 0.5 -0.10386478900909424
vt 0.5 0.22613525390625
vt 0.75 0.22613525390625
vt 0.5 0.5561352968215942
vt 0.75 0.5561352968215942
vt 0.5 0.8961352705955505
vt 0.75 0.8961352705955505
vt 0.5 0.33000004291534424
vt 0.5 0
vt 0.75 0
vt 0.09628251194953918 0.37331944704055786
vt 0.4455641806125641 0.5412108302116394
vt 0.0004994869232177734 0.7087162733078003
vt 0.9893386960029602 0.9995005130767822
vt 0.5179747343063354 0.8541489541530609
vt 0.9995005130767822 0.7091023325920105
vt 0.5 0.7089093029499054
vt 0.493455708026886 0.3735123872756958
vt 0.8906288743019104 0.3737053871154785
vt 0.03644886612892151 0.9991955757141113
vt 0.4884583652019501 0.19121098518371582
vt 0.512893795967102 0.9993480443954468
vt 0.11458387970924377 0.0004994869232177734
vt 0.49760904908180237 0.004801034927368164
vt 0.8806341886520386 0.009102582931518555
vt 0.24787448346614838 0.8700000047683716
vt 0.24787448346614838 1
vt 0.7590339183807373 1
vt 0.7590339183807373 0.8700000047683716
vt 1.1666667461395264 1
vt 1.1666667461395264 0.8700000047683716
vt 0.25 0.5899999737739563
vt 0 0.5899999737739563
vt 0 0.5
vt 0.25 0.8700000047683716
vt 0.25 0.8199999928474426
vt 0.75 0.8199999928474426
vt 0.75 0.8700000047683716
vt -0.16683591902256012 1
vt -0.16683591902256012 0.8700000047683716
vt 0.24079690873622894 0.8700000047683716
vt 0.24079690873622894 1
vt 0.7519564032554626 0.8700000047683716
vt 0.7519564032554626 1
vt 1.130265474319458 0.8700000047683716
vt 1.130265474319458 1
vt 0.25 0.5
vt 0.25 0.5899999737739563
vt 0.75 0.5899999737739563
vt 0.75 0.6299999952316284
vt 0.25 0.6299999952316284
vt 0 0.6299999952316284
vt 0 0.5899999737739563
vt 0.25 0.6299999952316284
vt 0.75 0.8700000047683716
vt 0.75 0.8199999928474426
vt 0.25 0.8199999928474426
vt 0.75 0.6299999952316284
vt 1.100000023841858 0.5899999737739563
vt 0.75 0.5899999737739563
vt 0.75 0.5
vt 1.100000023841858 0.5899999737739563
vt 1.100000023841858 0.5
vt 0.75 0.5
vt 0.75 0.5899999737739563
vt 0.75 0.6299999952316284
vt 1.100000023841858 0.6299999952316284
vt 1.100000023841858 0.8199999928474426
vt 1.100000023841858 0.8700000047683716
vt 0.75 0.6299999952316284
vt 1.100000023841858 0.8199999928474426
vt 1.100000023841858 0.6299999952316284
vt 1.100000023841858 0.5
vt 1.100000023841858 0.8700000047683716
vt 0 0.5
vt 0 0.5899999737739563
vt 0.25 0.5899999737739563
vt 0.25 0.5
vt 0 0.5899999737739563
vt 0 0.6299999952316284
vt 0.25 0.6299999952316284
vt 0.25 0.5899999737739563
vt 0 0.6299999952316284
vt 0 0.8199999928474426
vt 0.25 0.6299999952316284
vt 0 0.8700000047683716
vt 0.25 0.8700000047683716
vt 0 0.8199999928474426
vt 0 0.8700000047683716
vt 0 0.6299999952316284
vt -0.1304347813129425 0.8700000047683716
vt -0.1304347813129425 1
vt 0.75 0.5899999737739563
g throne_hall050
s 1
f 1/1/1 2/2/2 3/3/3
f 2/2/2 1/1/1 4/4/4
f 1/1/1 5/5/5 4/4/4
f 6/6/6 7/7/7 8/8/8
f 6/6/6 9/9/9 10/10/10
f 11/11/11 12/12/12 13/13/13
f 14/14/14 12/12/12 11/11/11
f 11/11/11 15/15/15 14/14/14
f 13/13/13 15/15/15 11/11/11
f 16/16/16 15/15/15 7/7/7
f 10/10/10 15/15/15 16/16/16
f 16/16/16 6/6/6 10/10/10
f 7/7/7 6/6/6 16/16/16
f 17/17/17 6/6/6 8/8/8
f 5/5/5 1/1/1 3/3/3
f 15/15/15 10/10/10 14/14/14
f 15/15/15 13/13/13 7/7/7
f 12/12/12 14/14/14 4/4/4
f 18/18/18 12/12/12 4/4/4
f 12/12/12 18/18/18 13/13/13
f 4/4/4 14/14/14 2/2/2
f 4/4/4 5/5/5 18/18/18
f 14/14/14 10/10/10 19/19/19
f 7/7/7 13/13/13 20/20/20
f 14/14/14 19/19/19 21/21/21
f 20/20/20 13/13/13 22/22/22
f 23/23/23 2/2/2 14/14/14
f 13/13/13 18/18/18 24/24/24
f 3/3/3 25/25/25 5/5/5
f 9/9/9 6/6/6 17/17/17
g throne_hall051
s 1
f 26/26/26 27/27/27 28/28/28
f 29/29/29 28/28/28 27/27/27
f 27/27/27 30/30/30 29/29/29
f 31/31/31 32/32/32 33/33/33
f 33/33/33 34/34/34 31/31/31
f 35/35/35 31/31/31 34/34/34
f 34/34/34 36/36/36 35/35/35
f 37/37/37 35/35/35 36/36/36
f 36/36/36 38/38/38 37/37/37
f 39/39/39 40/40/40 41/41/41
f 41/41/41 42/42/42 39/39/39
f 43/43/43 39/39/39 42/42/42
f 42/42/42 44/44/44 43/43/43
f 45/45/45 43/43/43 44/44/44
f 44/44/44 46/46/46 45/45/45
f 47/47/47 48/48/48 49/49/49
f 49/49/49 50/50/50 47/47/47
f 50/50/50 49/49/49 51/51/51
f 51/51/51 52/52/52 50/50/50
f 52/52/52 51/51/51 29/29/29
f 29/29/29 53/53/53 52/52/52
f 54/54/54 55/55/55 56/56/56
f 56/56/56 57/57/57 54/54/54
f 57/57/57 56/56/56 58/58/58
f 58/58/58 59/59/59 57/57/57
f 59/59/59 58/58/58 60/60/60
f 60/60/60 61/61/61 59/59/59
f 62/62/62 63/63/63 64/64/64
f 64/64/64 65/65/65 62/62/62
f 65/65/65 64/64/64 66/66/66
f 66/66/66 67/67/67 65/65/65
f 67/67/67 66/66/66 68/68/68
f 68/68/68 69/69/69 67/67/67
f 70/70/70 71/71/71 72/72/72
f 72/72/72 26/26/26 70/70/70
f 28/28/28 70/70/70 26/26/26
g throne_hall052
s 1
f 73/73/73 74/74/74 75/75/75
f 76/76/76 77/77/77 78/78/78
f 79/79/79 78/78/78 77/77/77
f 73/73/73 80/80/80 74/74/74
f 80/80/80 81/81/81 74/74/74
f 78/78/78 79/79/79 81/81/81
f 75/75/75 79/79/79 82/82/82
f 79/79/79 77/77/77 82/82/82
f 80/80/80 73/73/73 83/83/83
f 76/76/76 84/84/84 77/77/77
f 81/81/81 80/80/80 83/83/83
f 84/84/84 82/82/82 77/77/77
f 85/85/85 86/86/86 73/73/73
f 79/79/79 74/74/74 81/81/81
f 81/81/81 83/83/83 87/87/87
f 86/86/86 87/87/87 83/83/83
f 86/86/86 83/83/83 73/73/73
f 79/79/79 75/75/75 74/74/74
g throne_hall053
s 1
f 88/88/88 89/89/89 90/90/90
f 91/91/91 90/90/90 92/92/92
f 92/92/92 93/93/93 91/91/91
f 94/94/94 95/95/95 96/96/96
f 97/97/97 98/98/98 99/99/99
f 99/99/99 100/100/100 97/97/97
f 101/101/101 102/102/102 103/103/103
f 103/103/103 104/104/104 101/101/101
f 104/104/104 103/103/103 105/105/105
f 105/105/105 106/106/106 104/104/104
f 106/106/106 105/105/105 107/107/107
f 107/107/107 108/108/108 106/106/106
f 96/96/96 109/109/109 94/94/94
f 110/110/110 111/111/111 112/112/112
f 113/113/113 114/114/114 115/115/115
f 99/99/99 98/98/98 116/116/116
f 115/115/115 110/110/110 113/113/113
f 117/117/117 118/118/118 119/119/119
f 116/116/116 120/120/120 99/99/99
f 121/121/121 122/122/122 123/123/123
f 90/90/90 91/91/91 88/88/88
f 124/124/124 125/125/125 126/126/126
f 127/127/127 128/128/128 129/129/129
f 129/129/129 124/124/124 127/127/127
f 112/112/112 113/113/113 110/110/110
f 109/109/109 123/123/123 122/122/122
f 122/122/122 94/94/94 109/109/109
f 99/99/99 130/130/130 131/131/131
f 132/132/132 118/118/118 133/133/133
f 131/131/131 100/100/100 99/99/99
f 120/120/120 134/134/134 130/130/130
f 130/130/130 99/99/99 120/120/120
f 123/123/123 135/135/135 121/121/121
f 133/133/133 129/129/129 132/132/132
f 118/118/118 117/117/117 136/136/136
f 136/136/136 133/133/133 118/118/118
f 137/137/137 138/138/138 139/139/139
f 139/139/139 140/140/140 137/137/137
f 141/141/141 142/142/142 143/143/143
f 143/143/143 144/144/144 141/141/141
f 145/145/145 146/146/146 119/119/119
f 119/119/119 147/147/147 145/145/145
f 146/146/146 148/148/148 149/149/149
f 149/149/149 119/119/119 146/146/146
f 111/111/111 121/121/121 134/134/134
f 134/134/134 112/112/112 111/111/111
f 150/150/150 98/98/98 97/97/97
f 97/97/97 151/151/151 150/150/150
f 152/152/152 116/116/116 98/98/98
f 98/98/98 150/150/150 152/152/152
f 153/153/153 154/154/154 89/89/89
f 89/89/89 88/88/88 153/153/153
f 140/140/140 139/139/139 155/155/155
f 155/155/155 126/126/126 140/140/140
f 144/144/144 143/143/143 128/128/128
f 128/128/128 127/127/127 144/144/144
f 147/147/147 119/119/119 118/118/118
f 118/118/118 132/132/132 147/147/147
f 119/119/119 149/149/149 117/117/117
f 126/126/126 155/155/155 124/124/124
