# Exported using wow.export v0.2.19
o 20736_sewer17.obj
v 91.26482391357422 -12.322589874267578 -57.52251052856445
v 91.25679016113281 -12.322589874267578 -58.33333969116211
v 87.42484283447266 -12.322579383850098 -58.33329391479492
v 90.97177124023438 -12.322590827941895 -57.52251052856445
v 87.7000961303711 -12.322579383850098 -57.52252197265625
v 87.40425872802734 -12.322579383850098 -57.52252197265625
v 91.40506744384766 -13.188953399658203 -54.16669464111328
v 91.26480865478516 -12.322590827941895 -56.17667770385742
v 90.97174072265625 -12.322591781616211 -56.17668533325195
v 87.26154327392578 -13.207914352416992 -54.1666374206543
v 87.40425109863281 -12.322580337524414 -56.176673889160156
v 91.26482391357422 -12.322589874267578 -57.52251052856445
v 91.26482391357422 -9.539685249328613 -57.52251434326172
v 91.25678253173828 -9.539685249328613 -58.33335494995117
v 91.25679016113281 -12.322589874267578 -58.33333969116211
v 87.27277374267578 -9.5754976272583 -54.16664123535156
v 87.26154327392578 -13.207914352416992 -54.1666374206543
v 87.40425109863281 -12.322580337524414 -56.176673889160156
v 87.41471099853516 -9.539678573608398 -56.176673889160156
v 87.41472625732422 -9.539677619934082 -57.52251434326172
v 87.40425872802734 -12.322579383850098 -57.52252197265625
v 87.42484283447266 -12.322579383850098 -58.33329391479492
v 91.40506744384766 -9.575505256652832 -54.16669845581055
v 91.26480865478516 -9.539685249328613 -56.176673889160156
v 91.26480865478516 -12.322590827941895 -56.17667770385742
v 91.40506744384766 -13.188953399658203 -54.16669464111328
v 87.43524932861328 -9.539677619934082 -58.33330535888672
v 91.26482391357422 -9.539685249328613 -57.52251434326172
v 90.58968353271484 -8.26494312286377 -57.52251434326172
v 90.58794403076172 -8.26494312286377 -58.33334732055664
v 91.25678253173828 -9.539685249328613 -58.33335494995117
v 89.3511962890625 -7.672995567321777 -57.52251434326172
v 89.35938262939453 -7.672995567321777 -58.33333969116211
v 88.10665893554688 -8.26494312286377 -57.52251052856445
v 87.41472625732422 -9.539677619934082 -57.52251434326172
v 87.43524932861328 -9.539677619934082 -58.33330535888672
v 88.1231460571289 -8.26494312286377 -58.33331298828125
v 89.3511962890625 -7.672995567321777 -57.52251434326172
v 88.10665130615234 -8.264944076538086 -56.17668151855469
v 89.3511734008789 -7.67299747467041 -56.176673889160156
v 89.3511734008789 -7.672996520996094 -54.16667175292969
v 90.68045043945312 -8.2763032913208 -54.16668701171875
v 90.58967590332031 -8.264944076538086 -56.176673889160156
v 91.26480865478516 -9.539685249328613 -56.176673889160156
v 91.40506744384766 -9.575505256652832 -54.16669845581055
v 89.3511734008789 -7.67299747467041 -56.176673889160156
v 87.41471099853516 -9.539678573608398 -56.176673889160156
v 88.01541900634766 -8.2763032913208 -54.166648864746094
v 87.27277374267578 -9.5754976272583 -54.16664123535156
v 87.70894622802734 -9.687466621398926 -56.17667007446289
v 88.35492706298828 -8.576056480407715 -56.17668151855469
v 88.10665130615234 -8.264944076538086 -56.17668151855469
v 89.3511734008789 -7.67299747467041 -56.176673889160156
v 90.97175598144531 -9.68747329711914 -56.8495979309082
v 90.97175598144531 -12.322590827941895 -56.8495979309082
v 90.97174072265625 -12.322591781616211 -56.17668533325195
v 90.97173309326172 -9.687474250793457 -56.176673889160156
v 90.34009552001953 -8.576055526733398 -56.84959411621094
v 89.34992218017578 -8.12120532989502 -56.84959030151367
v 89.34992218017578 -8.121204376220703 -57.52252197265625
v 90.34010314941406 -8.576054573059082 -57.52252197265625
v 90.97175598144531 -9.68747329711914 -57.52252197265625
v 90.97177124023438 -12.322590827941895 -57.52251052856445
v 88.3549575805664 -8.576054573059082 -57.52251434326172
v 88.10665893554688 -8.26494312286377 -57.52251052856445
v 89.3511962890625 -7.672995567321777 -57.52251434326172
v 89.34992218017578 -8.121204376220703 -57.52252197265625
v 87.7089614868164 -9.68746566772461 -57.52252197265625
v 87.41472625732422 -9.539677619934082 -57.52251434326172
v 87.7000961303711 -12.322579383850098 -57.52252197265625
v 87.40425872802734 -12.322579383850098 -57.52252197265625
v 90.58968353271484 -8.26494312286377 -57.52251434326172
v 90.34010314941406 -8.576054573059082 -57.52252197265625
v 91.26482391357422 -9.539685249328613 -57.52251434326172
v 90.97175598144531 -9.68747329711914 -57.52252197265625
v 91.26482391357422 -12.322589874267578 -57.52251052856445
v 90.97177124023438 -12.322590827941895 -57.52251052856445
v 89.34990692138672 -8.12120532989502 -56.17667007446289
v 87.41471099853516 -9.539678573608398 -56.176673889160156
v 87.7000961303711 -12.322579383850098 -57.52252197265625
v 87.70008087158203 -12.322579383850098 -56.84959411621094
v 90.97175598144531 -12.322590827941895 -56.8495979309082
v 89.34992218017578 -8.121204376220703 -57.52252197265625
v 89.34992218017578 -8.12120532989502 -56.84959030151367
v 88.35494232177734 -8.576055526733398 -56.84959411621094
v 87.7089614868164 -9.687466621398926 -56.84959411621094
v 87.7089614868164 -9.68746566772461 -57.52252197265625
v 88.3549575805664 -8.576054573059082 -57.52251434326172
v 87.70008087158203 -12.322579383850098 -56.84959411621094
v 87.7000961303711 -12.322579383850098 -57.52252197265625
v 90.97177124023438 -12.322590827941895 -57.52251052856445
v 90.97173309326172 -9.687474250793457 -56.176673889160156
v 90.97174072265625 -12.322591781616211 -56.17668533325195
v 91.26480865478516 -12.322590827941895 -56.17667770385742
v 91.26480865478516 -9.539685249328613 -56.176673889160156
v 90.34008026123047 -8.576056480407715 -56.176673889160156
v 90.58967590332031 -8.264944076538086 -56.176673889160156
v 87.70008087158203 -12.322580337524414 -56.176673889160156
v 87.40425109863281 -12.322580337524414 -56.176673889160156
v 87.70008087158203 -12.322580337524414 -56.176673889160156
v 90.97174072265625 -12.322591781616211 -56.17668533325195
v 89.34990692138672 -8.12120532989502 -56.17667007446289
v 88.35492706298828 -8.576056480407715 -56.17668151855469
v 87.70894622802734 -9.687466621398926 -56.17667007446289
v 87.70008087158203 -12.322580337524414 -56.176673889160156
v 90.34008026123047 -8.576056480407715 -56.176673889160156
v 89.34990692138672 -8.12120532989502 -56.17667007446289
vn 0.0000026546606477495516 1 -2.6311028022973915e-8
vn -0.7070719003677368 0.70710688829422 0.007012389600276947
vn 0.7082017064094543 0.7057825326919556 0.017928149551153183
vn -0.000005785296252724947 1 0.00003994448343291879
vn 0.0000036274893773224903 1 -0.0000012314634432186722
vn 0 1 0
vn -0.6958746314048767 0.6405870318412781 0.32466405630111694
vn -0.00001174689441540977 0.9183273911476135 0.3958216905593872
vn -0.000004734630692837527 0.7391340136528015 0.6735583543777466
vn 0.6953243017196655 0.6403970718383789 0.3262141942977905
vn 0.000003518228368193377 0.22177787125110626 0.9750972390174866
vn -0.9999508261680603 2.4172225110419276e-8 0.00991921778768301
vn -0.9704720973968506 -0.24113664031028748 0.0060853054746985435
vn -0.9709108471870422 -0.23924759030342102 0.009629388339817524
vn -0.7070719003677368 0.70710688829422 0.007012389600276947
vn 0.9640113711357117 -0.25817328691482544 0.06347158551216125
vn 0.6953243017196655 0.6403970718383789 0.3262141942977905
vn 0.9975138306617737 -0.0037483752239495516 0.07037128508090973
vn 0.9672339558601379 -0.24775704741477966 0.055451616644859314
vn 0.968486487865448 -0.24785321950912476 0.024551037698984146
vn 0.9996708631515503 -0.0037614135071635246 0.02537660114467144
vn 0.7082017064094543 0.7057825326919556 0.017928149551153183
vn -0.9658665060997009 -0.2512833774089813 0.06291718780994415
vn -0.9689684510231018 -0.24097661674022675 0.05504954978823662
vn -0.9975744485855103 -8.398939854714627e-8 0.06960764527320862
vn -0.6958746314048767 0.6405870318412781 0.32466405630111694
vn 0.9688405394554138 -0.24668215215206146 0.022268155589699745
vn -0.9704720973968506 -0.24113664031028748 0.0060853054746985435
vn -0.6923882961273193 -0.7215239405632019 -0.0012960064923390746
vn -0.6948986649513245 -0.7190894484519958 0.005114385858178139
vn -0.9709108471870422 -0.23924759030342102 0.009629388339817524
vn -0.43123143911361694 -0.9022308588027954 -0.0043534631840884686
vn -0.0012169283581897616 -0.9999949336051941 0.002934309421107173
vn 0.6878852248191833 -0.7256367206573486 0.01628815196454525
vn 0.968486487865448 -0.24785321950912476 0.024551037698984146
vn 0.9688405394554138 -0.24668215215206146 0.022268155589699745
vn 0.6897656917572021 -0.7239381074905396 0.011701715178787708
vn 0.42950814962387085 -0.9030207395553589 0.008736679330468178
vn 0.6877866983413696 -0.7256495952606201 0.019547728821635246
vn 0.4295283257961273 -0.9030534029006958 0.0000018361595266469521
vn -0.000943249964620918 -0.9999995827674866 4.219354252654739e-7
vn -0.6848904490470886 -0.7281524538993835 0.02681521512567997
vn -0.6921719312667847 -0.7214661836624146 0.019610315561294556
vn -0.9689684510231018 -0.24097661674022675 0.05504954978823662
vn -0.9658665060997009 -0.2512833774089813 0.06291718780994415
vn -0.43123117089271545 -0.9022414684295654 -0.0000010744413430074928
vn 0.9672339558601379 -0.24775704741477966 0.055451616644859314
vn 0.6804879307746887 -0.7322710156440735 0.026746850460767746
vn 0.9640113711357117 -0.25817328691482544 0.06347158551216125
vn -0.00001214998701470904 -0.0000012459232721084845 1
vn 0.000006636031230300432 0.000005295763003232423 1
vn 0.000006636031230300432 0.000005295763003232423 1
vn 0.000003611005240600207 0.000007555109277745942 1
vn -0.9667984843254089 -0.25554004311561584 -0.000024354194465558976
vn -1 0 -0.000020156210666755214
vn -1 0 -0.000020156210666755214
vn -0.9667981266975403 -0.25554129481315613 -0.00002956605385406874
vn -0.6759839653968811 -0.7369163036346436 -0.000019142711607855745
vn -0.41742926836013794 -0.9087094068527222 -0.000009505775778961834
vn -0.4174269139766693 -0.9087104797363281 -0.000001144725388257939
vn -0.6759857535362244 -0.7369146347045898 -0.000007740799446764868
vn -0.9667978286743164 -0.2555425465106964 0
vn -1 0 -0.000020156210666755214
vn -0.0000113796086225193 0.000012716154742520303 -1
vn -0.0000113796086225193 0.000012716154742520303 -1
vn 0.0000072220477704831865 0.00001511010941612767 -1
vn 0.000007316928986256244 0.00001592846638232004 -1
vn -0.000023010032236925326 7.739821938912428e-8 -1
vn -0.000023010032236925326 7.739821938912428e-8 -1
vn -0.000023010032236925326 7.739821938912428e-8 -1
vn 0 0.0000024369107904931298 -1
vn 0.000016366881027352065 0.000008668423106428236 -1
vn 0.000017985545127885416 0.000010221735465165693 -1
vn 0.00002436898648738861 -0.0000024369085167563753 -1
vn 2.9777829507748876e-11 -0.000005147157025930937 -1
vn 2.9777829507748876e-11 -0.000005147157025930937 -1
vn 2.9777829507748876e-11 -0.000005147157025930937 -1
vn 0.0000025023143734870246 -0.000002007507873713621 1
vn -0.00001214998701470904 -0.0000012459232721084845 1
vn 0.0000036274893773224903 1 -0.0000012314634432186722
vn 0.0000033683797937555937 1 0.0000012597505474332138
vn 0.0000033683797937555937 1 0.0000012597505474332138
vn 0.41576147079467773 -0.909473717212677 -0.0000011456868378445506
vn 0.41576147079467773 -0.909473717212677 0.000007228789854707429
vn 0.671726644039154 -0.7407991290092468 0.000012618726941582281
vn 0.9651094079017639 -0.2618469297885895 0.000019138145944452845
vn 0.9651082158088684 -0.26185131072998047 -3.298623312275595e-7
vn 0.6717285513877869 -0.7407974004745483 0.00001260608132724883
vn 0.9999943375587463 -0.0033688019029796124 0.00002015147401834838
vn 0.9999943375587463 -0.003363653551787138 0.0000201555885723792
vn -0.000005785296252724947 1 0.00003994448343291879
vn -0.000023140100893215276 -0.000003860427568724845 1
vn -0.000023140100893215276 -0.000003860427568724845 1
vn -0.000023140100893215276 -0.000003860427568724845 1
vn 6.144217650216888e-7 -0.0000012184539173176745 1
vn 0 0 1
vn 0 0 1
vn -0.00001214998701470904 -0.0000012459232721084845 1
vn 0 0 1
vn 0.0000040305376387550496 0.41785627603530884 0.9085131287574768
vn -0.000004734630692837527 0.7391340136528015 0.6735583543777466
vn 0.41576147079467773 -0.909473717212677 0.000007228789854707429
vn 0.671726644039154 -0.7407991290092468 0.000012618765140359756
vn 0.9651094079017639 -0.2618469297885895 0.00001913801497721579
vn 0.9999943375587463 -0.0033636544831097126 -4.149829813115957e-9
vn -0.6759856939315796 -0.7369147539138794 -0.000014541417840518989
vn -0.41742926836013794 -0.9087094068527222 -0.000009505775778961834
vt 0.0005018413066864014 0.1806420087814331
vt 0.04707691818475723 0.3212742805480957
vt 0.8392322659492493 0.14271271228790283
vt 0.06108725070953369 0.16698598861694336
vt 0.7374194860458374 0.014534294605255127
vt 0.7985752820968628 0.0007488727569580078
vt 0.02399340458214283 0.5019678473472595
vt 0.04774349927902222 0.9994991421699524
vt 0.09736740589141846 0.999500036239624
vt 0.72559654712677 0.49861323833465576
vt 0.7014341354370117 0.9994985461235046
vt 0.0007492303848266602 0.1499999761581421
vt 0.0007502585649490356 1
vt 0.20553560554981232 1
vt 0.20553581416606903 0.1499999761581421
vt 0.3749701976776123 1
vt 0.37471941113471985 0.1589999794960022
vt 0.0007490962743759155 0.1589999794960022
vt 0.0012638121843338013 1
vt 1.4987177848815918 1
vt 1.4992507696151733 0.1589999794960022
vt 1.346956729888916 0.1589999794960022
vt 1.128810167312622 1
vt 1.4992496967315674 1
vt 1.4992507696151733 0.1499999761581421
vt 1.1288104057312012 0.1499999761581421
vt 1.3464254140853882 1
vt 1.5 0.10000002384185791
vt 1.5 0.30000001192092896
vt 1.3089227676391602 0.30000001192092896
vt 1.2978215217590332 0.10000002384185791
vt 1.5 0.550000011920929
vt 1.3264068365097046 0.550000011920929
vt 1.5 0.3768116235733032
vt 1.5 0.10000002384185791
vt 1.348134160041809 0.10000002384185791
vt 1.341023564338684 0.3768116235733032
vt 1.5 0.550000011920929
vt 0 0.3768116235733032
vt 0 0.550000011920929
vt 0.37603920698165894 0.550000011920929
vt 0.3760397136211395 0.30000001192092896
vt 0 0.30000001192092896
vt 0 0.10000002384185791
vt 0.3760404586791992 0.10000002384185791
vt 0 0.550000011920929
vt 0 0.10000002384185791
vt 0.3760397136211395 0.3768116235733032
vt 0.37603914737701416 0.10000002384185791
vt 0.625 0.5
vt 0.625 0.75
vt 0.503000020980835 0.75
vt 0.503000020980835 1
vt 0.7400000095367432 0.5
vt 0.7400000095367432 0
vt 0.625 0
vt 0.625 0.5
vt 0.7400000095367432 0.75
vt 0.7400000095367432 1
vt 0.625 1
vt 0.625 0.75
vt 0.625 0.5
vt 0.625 0
vt 0.6250001192092896 0.75
vt 0.5030001401901245 0.75
vt 0.503000020980835 1
vt 0.625 1
vt 0.6250001192092896 0.5
vt 0.5030001401901245 0.5
vt 0.6250001192092896 0
vt 0.5030001401901245 0
vt 0.503000020980835 0.75
vt 0.625 0.75
vt 0.503000020980835 0.5
vt 0.625 0.5
vt 0.503000020980835 0
vt 0.625 0
vt 0.625 1
vt 0.503000020980835 0.5
vt 0.6250001192092896 0
vt 0.7400000095367432 0.00037425756454467773
vt 0.7400000095367432 0.7496240139007568
vt 0.6250001192092896 1
vt 0.7400000095367432 1
vt 0.7400000095367432 0.75
vt 0.7400000095367432 0.5
vt 0.6250001192092896 0.5
vt 0.6250001192092896 0.75
vt 0.7400000095367432 0
vt 0.6250001192092896 0
vt 0.6250001192092896 0.75
vt 0.625 0.5
vt 0.625 0
vt 0.503000020980835 0
vt 0.503000020980835 0.5
vt 0.625 0.75
vt 0.503000020980835 0.75
vt 0.625 0
vt 0.503000020980835 0
vt 0.625 0.0003732442855834961
vt 0.625 0.7496230602264404
vt 0.625 1
vt 0.625 0.75
vt 0.625 0.5
vt 0.625 0
vt 0.625 0.75
vt 0.625 1
g sewer170
s 1
f 1/1/1 2/2/2 3/3/3
f 4/4/4 1/1/1 3/3/3
f 5/5/5 3/3/3 6/6/6
f 5/5/5 4/4/4 3/3/3
f 7/7/7 8/8/8 9/9/9
f 10/10/10 7/7/7 9/9/9
f 11/11/11 10/10/10 9/9/9
g sewer171
s 1
f 12/12/12 13/13/13 14/14/14
f 14/14/14 15/15/15 12/12/12
f 16/16/16 17/17/17 18/18/18
f 18/18/18 19/19/19 16/16/16
f 20/20/20 21/21/21 22/22/22
f 23/23/23 24/24/24 25/25/25
f 25/25/25 26/26/26 23/23/23
f 22/22/22 27/27/27 20/20/20
g sewer172
s 1
f 28/28/28 29/29/29 30/30/30
f 30/30/30 31/31/31 28/28/28
f 29/29/29 32/32/32 33/33/33
f 33/33/33 30/30/30 29/29/29
f 34/34/34 35/35/35 36/36/36
f 36/36/36 37/37/37 34/34/34
f 38/38/38 34/34/34 37/37/37
f 37/37/37 33/33/33 38/38/38
f 39/39/39 40/40/40 41/41/41
f 42/42/42 43/43/43 44/44/44
f 44/44/44 45/45/45 42/42/42
f 41/41/41 46/46/46 43/43/43
f 43/43/43 42/42/42 41/41/41
f 47/47/47 39/39/39 48/48/48
f 48/48/48 49/49/49 47/47/47
f 41/41/41 48/48/48 39/39/39
g sewer173
s 1
f 50/50/50 51/51/51 52/52/52
f 53/53/53 52/52/52 51/51/51
f 54/54/54 55/55/55 56/56/56
f 56/56/56 57/57/57 54/54/54
f 58/58/58 54/54/54 57/57/57
f 59/59/59 60/60/60 61/61/61
f 61/61/61 58/58/58 59/59/59
f 58/58/58 61/61/61 62/62/62
f 62/62/62 54/54/54 58/58/58
f 54/54/54 62/62/62 63/63/63
f 63/63/63 55/55/55 54/54/54
f 64/64/64 65/65/65 66/66/66
f 66/66/66 67/67/67 64/64/64
f 68/68/68 69/69/69 65/65/65
f 65/65/65 64/64/64 68/68/68
f 70/70/70 71/71/71 69/69/69
f 69/69/69 68/68/68 70/70/70
f 67/67/67 66/66/66 72/72/72
f 72/72/72 73/73/73 67/67/67
f 73/73/73 72/72/72 74/74/74
f 74/74/74 75/75/75 73/73/73
f 75/75/75 74/74/74 76/76/76
f 76/76/76 77/77/77 75/75/75
f 51/51/51 78/78/78 53/53/53
f 52/52/52 79/79/79 50/50/50
f 80/80/80 81/81/81 82/82/82
f 83/83/83 84/84/84 85/85/85
f 86/86/86 87/87/87 88/88/88
f 88/88/88 85/85/85 86/86/86
f 89/89/89 90/90/90 87/87/87
f 82/82/82 91/91/91 80/80/80
f 87/87/87 86/86/86 89/89/89
f 92/92/92 93/93/93 94/94/94
f 94/94/94 95/95/95 92/92/92
f 96/96/96 92/92/92 95/95/95
f 95/95/95 97/97/97 96/96/96
f 78/78/78 96/96/96 97/97/97
f 97/97/97 53/53/53 78/78/78
f 98/98/98 50/50/50 79/79/79
f 79/79/79 99/99/99 98/98/98
f 100/100/100 101/101/101 82/82/82
f 82/82/82 81/81/81 100/100/100
f 102/102/102 103/103/103 85/85/85
f 85/85/85 84/84/84 102/102/102
f 103/103/103 104/104/104 86/86/86
f 86/86/86 85/85/85 103/103/103
f 104/104/104 105/105/105 89/89/89
f 89/89/89 86/86/86 104/104/104
f 106/106/106 107/107/107 59/59/59
f 59/59/59 58/58/58 106/106/106
f 57/57/57 106/106/106 58/58/58
f 85/85/85 88/88/88 83/83/83
