# Exported using wow.export v0.2.19
o 20884_int.obj
v -302.68414306640625 -1.5181723833084106 -256.7688903808594
v -305.05218505859375 -1.518820881843567 -256.7688903808594
v -303.8681640625 -1.5181745290756226 -254.24472045898438
v -302.68414306640625 -1.5181723833084106 -254.24472045898438
v -302.68414306640625 -1.5181723833084106 -251.7205352783203
v -301.5001220703125 -1.5181745290756226 -254.24472045898438
v -305.0522155761719 -1.5181766748428345 -251.7205352783203
v -300.3160705566406 -1.518820881843567 -256.7688903808594
v -300.3160705566406 -1.5181766748428345 -251.7205352783203
v -300.3160705566406 -1.5184987783432007 -254.24472045898438
v -305.05218505859375 -1.5184987783432007 -254.24472045898438
v -301.63983154296875 6.96267032623291 -254.24472045898438
v -301.6013488769531 7.168313026428223 -256.7688903808594
v -301.6013488769531 7.168758392333984 -254.24472045898438
v -301.6013488769531 7.169203281402588 -251.7205352783203
v -301.67828369140625 6.756970405578613 -251.7205352783203
v -301.67828369140625 6.756136894226074 -256.7688903808594
v -303.69000244140625 6.756970405578613 -251.7205352783203
v -303.7669372558594 7.169203281402588 -251.7205352783203
v -303.72845458984375 6.962641716003418 -254.24472045898438
v -303.7669372558594 7.168313026428223 -256.7688903808594
v -303.69000244140625 6.756136894226074 -256.7688903808594
v -303.69000244140625 6.756553649902344 -254.24472045898438
v -301.67828369140625 6.756553649902344 -254.24472045898438
v -303.7669372558594 7.168758392333984 -254.24472045898438
v -305.0522155761719 1.7585420608520508 -254.24472045898438
v -305.0522155761719 1.7588636875152588 -251.7205352783203
v -305.0522155761719 0.12002182006835938 -254.24472045898438
v -305.25616455078125 1.8878653049468994 -254.24472045898438
v -305.0522155761719 1.7588636875152588 -251.7205352783203
v -305.0522155761719 1.7585420608520508 -254.24472045898438
v -300.1120910644531 1.887845754623413 -254.24472045898438
v -299.9081115722656 2.0171689987182617 -254.24472045898438
v -299.9081115722656 2.0168278217315674 -256.7688903808594
v -299.9081115722656 2.017510414123535 -251.7205352783203
v -305.0522155761719 1.7582203149795532 -256.7688903808594
v -300.3160705566406 1.7588636875152588 -251.7205352783203
v -305.0522155761719 -1.5181766748428345 -251.7205352783203
v -305.05218505859375 -1.5184987783432007 -254.24472045898438
v -305.0522155761719 1.7582203149795532 -256.7688903808594
v -305.05218505859375 -1.518820881843567 -256.7688903808594
v -300.3160705566406 0.12002182006835938 -254.24472045898438
v -300.3160705566406 -1.5184987783432007 -254.24472045898438
v -300.3160705566406 -1.5181766748428345 -251.7205352783203
v -300.3160705566406 -1.518820881843567 -256.7688903808594
v -300.3160705566406 1.7585420608520508 -254.24472045898438
v -300.3160705566406 1.7588636875152588 -251.7205352783203
v -300.3160705566406 1.7582203149795532 -256.7688903808594
v -300.3160705566406 1.7582203149795532 -256.7688903808594
v -300.3160705566406 1.7585420608520508 -254.24472045898438
v -305.46014404296875 2.0168278217315674 -256.7688903808594
v -305.46014404296875 2.0171689987182617 -254.24472045898438
v -305.46014404296875 2.017510414123535 -251.7205352783203
v -303.7669372558594 7.169203281402588 -251.7205352783203
v -305.46014404296875 7.169203281402588 -251.7205352783203
v -304.613525390625 7.168758869171143 -254.24472045898438
v -305.46014404296875 7.168314456939697 -256.7688903808594
v -303.7669372558594 7.168313026428223 -256.7688903808594
v -305.46014404296875 7.168758869171143 -254.24472045898438
v -303.7669372558594 7.168758392333984 -254.24472045898438
v -301.6013488769531 7.169203281402588 -251.7205352783203
v -301.6013488769531 7.168758392333984 -254.24472045898438
v -300.7547302246094 7.168758869171143 -254.24472045898438
v -301.6013488769531 7.168313026428223 -256.7688903808594
v -299.9081115722656 7.168314456939697 -256.7688903808594
v -299.9081115722656 7.168758869171143 -254.24472045898438
v -299.9081115722656 7.169203281402588 -251.7205352783203
v -302.18121337890625 6.7565531730651855 -254.24472045898438
v -301.67828369140625 6.756553649902344 -254.24472045898438
v -301.67828369140625 6.756970405578613 -251.7205352783203
v -305.46014404296875 4.592912673950195 -254.24472045898438
v -305.46014404296875 4.592571258544922 -256.7688903808594
v -305.46014404296875 7.168314456939697 -256.7688903808594
v -302.68414306640625 6.756135940551758 -256.7688903808594
v -301.67828369140625 6.756136894226074 -256.7688903808594
v -302.68414306640625 6.7569684982299805 -251.7205352783203
v -299.9081115722656 4.592912673950195 -254.24472045898438
v -299.9081115722656 2.0171689987182617 -254.24472045898438
v -299.9081115722656 2.017510414123535 -251.7205352783203
v -303.69000244140625 6.756136894226074 -256.7688903808594
v -303.18707275390625 6.756552696228027 -254.24472045898438
v -299.9081115722656 2.0168278217315674 -256.7688903808594
v -303.69000244140625 6.756970405578613 -251.7205352783203
v -302.68414306640625 6.756552219390869 -254.24472045898438
v -305.46014404296875 2.017510414123535 -251.7205352783203
v -305.46014404296875 2.0171689987182617 -254.24472045898438
v -305.46014404296875 2.0168278217315674 -256.7688903808594
v -305.46014404296875 7.168758869171143 -254.24472045898438
v -305.46014404296875 7.169203281402588 -251.7205352783203
v -305.46014404296875 4.593357086181641 -251.7205352783203
v -303.69000244140625 6.756553649902344 -254.24472045898438
v -299.9081115722656 4.593357086181641 -251.7205352783203
v -299.9081115722656 7.169203281402588 -251.7205352783203
v -299.9081115722656 7.168758869171143 -254.24472045898438
v -299.9081115722656 7.168314456939697 -256.7688903808594
v -299.9081115722656 4.592571258544922 -256.7688903808594
vn 0.0002738527546171099 0.9999999403953552 -0.0001276750845136121
vn 0.7070070505142212 0.7072064876556396 -0.00009029266220750287
vn 0.38280966877937317 0.9238271713256836 -0.000049412781663704664
vn 0.00013782130554318428 1 -0.00006392149953171611
vn 0.0000017898668147608987 1 -1.6791956625183957e-7
vn -0.38255593180656433 0.9239323139190674 -0.000049418282287660986
vn 0.7071064114570618 0.7071071863174438 0.00003636698238551617
vn -0.7070070505142212 0.7072064876556396 -0.00009029266220750287
vn -0.7071052193641663 0.7071083188056946 0.00003636714245658368
vn -0.7070562243461609 0.7071574330329895 -0.000026962763513438404
vn 0.7070567607879639 0.7071568369865417 -0.000026962839910993353
vn 0.6389531493186951 -0.7692456245422363 0.0001319234725087881
vn 0.6389532089233398 -0.7692455649375916 0.00013543055683840066
vn 0.6389530897140503 -0.7692456841468811 0.00013542109809350222
vn 0.6389529705047607 -0.7692458033561707 0.00013541163934860379
vn 0.6389629244804382 -0.7692375183105469 0.0001271026412723586
vn 0.6389533281326294 -0.7692455053329468 0.00012843530566897243
vn -0.6389536261558533 -0.7692452669143677 0.0001271039218408987
vn -0.63896244764328 -0.7692379355430603 0.0001354102569166571
vn -0.638953447341919 -0.7692453861236572 0.0001306254998780787
vn -0.6389532089233398 -0.7692455649375916 0.0001341470779152587
vn -0.6389533281326294 -0.7692455053329468 0.0001271518412977457
vn -0.638953447341919 -0.7692453861236572 0.0001271278888452798
vn 0.6389580965042114 -0.7692415118217468 0.00012776897347066551
vn -0.6389578580856323 -0.7692417502403259 0.0001347786746919155
vn 0.8761950731277466 0.4819568395614624 -0.00006152029527584091
vn 0.8762078285217285 0.48193347454071045 -0.0000615037206443958
vn 0.79960697889328 0.6005237698554993 -0.00001271152086701477
vn 0.8761868476867676 0.481971800327301 -0.000063383522501681
vn 0.8762078285217285 0.48193347454071045 -0.0000615037206443958
vn 0.8761950731277466 0.4819568395614624 -0.00006152029527584091
vn -0.8761913776397705 0.4819633662700653 -0.00006339053652482107
vn -0.8761996030807495 0.4819484055042267 -0.00006524982745759189
vn -0.8761913776397705 0.4819633364677429 -0.00006527353980345652
vn -0.8762078285217285 0.48193347454071045 -0.00006522612238768488
vn 0.8761821389198303 0.4819801151752472 -0.00006153685535537079
vn -0.8761913776397705 0.4819633960723877 -0.00006150753324618563
vn 0.7071064114570618 0.7071071863174438 0.00003636698238551617
vn 0.7070567607879639 0.7071568369865417 -0.000026962839910993353
vn 0.8761821389198303 0.4819801151752472 -0.00006153685535537079
vn 0.7070070505142212 0.7072064876556396 -0.00009029266220750287
vn -0.79961097240448 0.6005184054374695 -0.000014598819689126685
vn -0.7070562243461609 0.7071574330329895 -0.000026962763513438404
vn -0.7071052193641663 0.7071083188056946 0.00003636714245658368
vn -0.7070070505142212 0.7072064876556396 -0.00009029266220750287
vn -0.8761904239654541 0.48196518421173096 -0.00006339076207950711
vn -0.8761913776397705 0.4819633960723877 -0.00006150753324618563
vn -0.8761894106864929 0.48196694254875183 -0.0000652739909128286
vn -0.8761894106864929 0.48196694254875183 -0.0000652739909128286
vn -0.8761904239654541 0.48196518421173096 -0.00006339076207950711
vn 0.8761913776397705 0.4819633960723877 -0.00006527351797558367
vn 0.8761913776397705 0.4819633960723877 -0.00006525185017380863
vn 0.8761913776397705 0.4819633960723877 -0.00006523017509607598
vn -0.63896244764328 -0.7692379355430603 0.0001354102569166571
vn 0.7071067690849304 -0.7071067690849304 0.00012443643936421722
vn 0.04610811173915863 -0.9989364147186279 0.00017585624300409108
vn 0.7071064114570618 -0.7071071267127991 0.00012449068890418857
vn -0.6389532089233398 -0.7692455649375916 0.0001341470779152587
vn 0.7071065902709961 -0.7071069478988647 0.0001244635641342029
vn -0.6389578580856323 -0.7692417502403259 0.0001347786746919155
vn 0.6389529705047607 -0.7692458033561707 0.00013541163934860379
vn 0.6389530897140503 -0.7692456841468811 0.00013542109809350222
vn -0.04611426964402199 -0.9989361763000488 0.00017585621390026063
vn 0.6389532089233398 -0.7692455649375916 0.00013543055683840066
vn -0.7071064114570618 -0.7071071267127991 0.00012449068890418857
vn -0.7071065902709961 -0.7071069478988647 0.0001244635641342029
vn -0.7071067690849304 -0.7071067690849304 0.00012443643936421722
vn 0.339678555727005 -0.9405416250228882 0.0001551910099806264
vn 0.6389580965042114 -0.7692415118217468 0.00012776897347066551
vn 0.6389629244804382 -0.7692375183105469 0.0001271026412723586
vn 0.9900404810905457 -0.14078299701213837 0.00003705576455104165
vn 0.9900404810905457 -0.14078299701213837 0.000037028661608928815
vn 0.7071064114570618 -0.7071071267127991 0.00012449068890418857
vn 8.427723514614627e-7 -1 0.00016482463979627937
vn 0.6389533281326294 -0.7692455053329468 0.00012843530566897243
vn 0.000001685544816609763 -1 0.00016514890012331307
vn -0.9900380373001099 -0.1407998949289322 0.00003705782364704646
vn -0.8761996030807495 0.4819484055042267 -0.00006524982745759189
vn -0.8762078285217285 0.48193347454071045 -0.00006522612238768488
vn -0.6389533281326294 -0.7692455053329468 0.0001271518412977457
vn -0.33967146277427673 -0.940544068813324 0.00015538925072178245
vn -0.8761913776397705 0.4819633364677429 -0.00006527353980345652
vn -0.6389536261558533 -0.7692452669143677 0.0001271039218408987
vn 0.000001264158527192194 -1 0.0001649867626838386
vn 0.8761913776397705 0.4819633960723877 -0.00006523017509607598
vn 0.8761913776397705 0.4819633960723877 -0.00006525185017380863
vn 0.8761913776397705 0.4819633960723877 -0.00006527351797558367
vn 0.7071065902709961 -0.7071069478988647 0.0001244635641342029
vn 0.7071067690849304 -0.7071067690849304 0.00012443643936421722
vn 0.9900404810905457 -0.14078274369239807 0.0000370218331227079
vn -0.638953447341919 -0.7692453861236572 0.0001271278888452798
vn -0.9900381565093994 -0.1407996565103531 0.00003702389221871272
vn -0.7071067690849304 -0.7071067690849304 0.00012443643936421722
vn -0.7071065902709961 -0.7071069478988647 0.0001244635641342029
vn -0.7071064114570618 -0.7071071267127991 0.00012449068890418857
vn -0.9900404810905457 -0.14078304171562195 0.000037028647057013586
vt 0.9999997615814209 0.41355252265930176
vt 1.200675129890442 0.41355252265930176
vt 1.1003382205963135 0.20752555131912231
vt 0.9999996423721313 0.20752555131912231
vt 0.9999995827674866 0.001498579978942871
vt 1.1003382205963135 0.20752555131912231
vt 1.2006765604019165 0.001498579978942871
vt 1.200675129890442 0.41355252265930176
vt 1.2006765604019165 0.001498579978942871
vt 1.2006758451461792 0.20752555131912231
vt 1.2006758451461792 0.20752555131912231
vt 0.4242374897003174 0.02613997459411621
vt 0.8482264876365662 0.051983654499053955
vt 0.42436301708221436 0.052039921283721924
vt 0.0004995167255401611 0.05209618806838989
vt 0.0004994869232177734 0.0002892613410949707
vt 0.8479754328727722 0.0001837611198425293
vt 0.0004994869232177734 0.0002892613410949707
vt 0.0004995167255401611 0.05209618806838989
vt 0.42436301708221436 0.026136457920074463
vt 0.8482265472412109 0.051983654499053955
vt 0.8479754328727722 0.0001837611198425293
vt 0.424237459897995 0.00023651123046875
vt 0.424237459897995 0.00023651123046875
vt 0.42436304688453674 0.052039921283721924
vt 0.32808977365493774 0.31599998474121094
vt 0.0004995465278625488 0.31599998474121094
vt 0.32808974385261536 0.1581207513809204
vt 0.32808977365493774 0.2562220096588135
vt 0.0004995465278625488 0.20265567302703857
vt 0.32808977365493774 0.2026272416114807
vt 0.32815778255462646 0.256220281124115
vt 0.32815781235694885 0.30981504917144775
vt 0.6558160185813904 0.3097848892211914
vt 0.0004995763301849365 0.3098451495170593
vt 0.6556800007820129 0.20259881019592285
vt 0.0004995465278625488 0.20265567302703857
vt 0.0004994869232177734 0.0002415776252746582
vt 0.32808980345726013 0.00021314620971679688
vt 0.6556800007820129 0.31599998474121094
vt 0.6556801199913025 0.00018471479415893555
vt 0.32808974385261536 0.1581207513809204
vt 0.32808980345726013 0.00021314620971679688
vt 0.0004994869232177734 0.0002415776252746582
vt 0.6556801199913025 0.00018471479415893555
vt 0.32808977365493774 0.2026272416114807
vt 0.0004995465278625488 0.31599998474121094
vt 0.6556800007820129 0.20259881019592285
vt 0.6556800007820129 0.31599998474121094
vt 0.32808977365493774 0.31599998474121094
vt 0.6558160185813904 0.3097848892211914
vt 0.32815778255462646 0.30981504917144775
vt 0.0004995763301849365 0.3098451495170593
vt 0.0004995465278625488 0.734879195690155
vt 0.0004994869232177734 0.5860385894775391
vt 0.4525695741176605 0.660458892583847
vt 0.9046396017074585 0.5860385894775391
vt 0.904639482498169 0.734879195690155
vt 0.45256954431533813 0.5860385894775391
vt 0.45256951451301575 0.734879195690155
vt 0.0004995465278625488 0.734879195690155
vt 0.45256948471069336 0.734879195690155
vt 0.4525695741176605 0.660458892583847
vt 0.9046394228935242 0.734879195690155
vt 0.9046396017074585 0.5860385894775391
vt 0.45256954431533813 0.5860385894775391
vt 0.0004994869232177734 0.5860385894775391
vt 0.599502444267273 0.42852598428726196
vt 0.6990038156509399 0.4285259246826172
vt 0.6990044713020325 0.028773128986358643
vt 0.3483160436153412 0.7316714227199554
vt 0.6957521438598633 0.7316247224807739
vt 0.6961326003074646 1.0810664892196655
vt 0.5000004172325134 0.8282788395881653
vt 0.6990031599998474 0.828278660774231
vt 0.5000002980232239 0.02877330780029297
vt 0.3483160436153412 0.7316714227199554
vt 0.3479355573654175 0.38222968578338623
vt 0.0004994869232177734 0.38227635622024536
vt 0.6990031599998474 0.828278660774231
vt 0.5995017290115356 0.42852598428726196
vt 0.6953716278076172 0.3821829557418823
vt 0.6990044713020325 0.028773128986358643
vt 0.5000003576278687 0.42852604389190674
vt 0.0004994869232177734 0.38227635622024536
vt 0.3479355573654175 0.38222968578338623
vt 0.6953716278076172 0.3821829557418823
vt 0.34831613302230835 1.0811271667480469
vt 0.0004996955394744873 1.0811878442764282
vt 0.0004995912313461304 0.7317321002483368
vt 0.6990038156509399 0.4285259246826172
vt 0.0004995912313461304 0.7317321002483368
vt 0.0004996955394744873 1.0811878442764282
vt 0.34831616282463074 1.0811271667480469
vt 0.6961326003074646 1.0810664892196655
vt 0.6957521438598633 0.7316247224807739
g int0
s 1
f 1/1/1 2/2/2 3/3/3
f 3/3/3 4/4/4 1/1/1
f 3/3/3 5/5/5 4/4/4
f 4/4/4 5/5/5 6/6/6
f 7/7/7 5/5/5 3/3/3
f 6/6/6 8/8/8 1/1/1
f 6/6/6 5/5/5 9/9/9
f 9/9/9 10/10/10 6/6/6
f 10/10/10 8/8/8 6/6/6
f 3/3/3 2/2/2 11/11/11
f 3/3/3 11/11/11 7/7/7
f 1/1/1 4/4/4 6/6/6
g int1
s 1
f 12/12/12 13/13/13 14/14/14
f 15/15/15 16/16/16 12/12/12
f 17/17/17 13/13/13 12/12/12
f 18/18/18 19/19/19 20/20/20
f 21/21/21 22/22/22 20/20/20
f 20/20/20 23/23/23 18/18/18
f 20/20/20 22/22/22 23/23/23
f 12/12/12 24/24/24 17/17/17
f 12/12/12 16/16/16 24/24/24
f 20/20/20 25/25/25 21/21/21
f 20/20/20 19/19/19 25/25/25
f 12/12/12 14/14/14 15/15/15
g int2
s 1
f 26/26/26 27/27/27 28/28/28
f 29/29/29 30/30/30 31/31/31
f 32/32/32 33/33/33 34/34/34
f 32/32/32 35/35/35 33/33/33
f 29/29/29 31/31/31 36/36/36
f 37/37/37 35/35/35 32/32/32
f 38/38/38 39/39/39 28/28/28
f 40/40/40 26/26/26 28/28/28
f 39/39/39 41/41/41 28/28/28
f 42/42/42 43/43/43 44/44/44
f 42/42/42 45/45/45 43/43/43
f 32/32/32 46/46/46 37/37/37
f 44/44/44 47/47/47 42/42/42
f 32/32/32 48/48/48 46/46/46
f 49/49/49 45/45/45 42/42/42
f 28/28/28 27/27/27 38/38/38
f 42/42/42 50/50/50 49/49/49
f 28/28/28 41/41/41 40/40/40
f 42/42/42 47/47/47 50/50/50
f 36/36/36 51/51/51 29/29/29
f 29/29/29 52/52/52 53/53/53
f 53/53/53 30/30/30 29/29/29
f 29/29/29 51/51/51 52/52/52
f 34/34/34 48/48/48 32/32/32
g int3
s 1
f 54/54/54 55/55/55 56/56/56
f 57/57/57 58/58/58 56/56/56
f 56/56/56 59/59/59 57/57/57
f 56/56/56 55/55/55 59/59/59
f 56/56/56 60/60/60 54/54/54
f 56/56/56 58/58/58 60/60/60
f 61/61/61 62/62/62 63/63/63
f 62/62/62 64/64/64 63/63/63
f 65/65/65 66/66/66 63/63/63
f 66/66/66 67/67/67 63/63/63
f 63/63/63 67/67/67 61/61/61
f 63/63/63 64/64/64 65/65/65
g int4
s 1
f 68/68/68 69/69/69 70/70/70
f 71/71/71 72/72/72 73/73/73
f 74/74/74 75/75/75 68/68/68
f 68/68/68 75/75/75 69/69/69
f 70/70/70 76/76/76 68/68/68
f 77/77/77 78/78/78 79/79/79
f 80/80/80 74/74/74 81/81/81
f 77/77/77 82/82/82 78/78/78
f 76/76/76 83/83/83 81/81/81
f 81/81/81 84/84/84 76/76/76
f 85/85/85 86/86/86 71/71/71
f 81/81/81 74/74/74 84/84/84
f 86/86/86 87/87/87 71/71/71
f 88/88/88 89/89/89 71/71/71
f 68/68/68 84/84/84 74/74/74
f 73/73/73 88/88/88 71/71/71
f 68/68/68 76/76/76 84/84/84
f 71/71/71 90/90/90 85/85/85
f 81/81/81 83/83/83 91/91/91
f 71/71/71 89/89/89 90/90/90
f 81/81/81 91/91/91 80/80/80
f 92/92/92 93/93/93 77/77/77
f 77/77/77 94/94/94 95/95/95
f 79/79/79 92/92/92 77/77/77
f 77/77/77 93/93/93 94/94/94
f 95/95/95 96/96/96 77/77/77
f 71/71/71 87/87/87 72/72/72
f 96/96/96 82/82/82 77/77/77
