# Exported using wow.export v0.2.19
o 21142_IntHouseDBottom04.obj
v -177.5480194091797 2.8175644874572754 -228.9393310546875
v -177.54421997070312 2.6360888481140137 -228.252685546875
v -177.81959533691406 3.6927037239074707 -229.0341339111328
v -178.37986755371094 3.5689074993133545 -231.09771728515625
v -178.9401397705078 3.4451112747192383 -233.1613006591797
v -178.10829162597656 2.693768262863159 -231.0029296875
v -177.46124267578125 3.8930652141571045 -231.26779174804688
v -177.10289001464844 4.093426704406738 -233.50143432617188
v -178.20068359375 3.669088363647461 -232.21453857421875
v -177.69236755371094 2.31809663772583 -229.92373657226562
v -177.53280639648438 2.0916621685028076 -226.19271850585938
v -177.7891845703125 2.240899085998535 -223.54090881347656
v -177.79678344726562 2.6038503646850586 -224.91421508789062
v -177.5404052734375 2.454613208770752 -227.5660400390625
v -177.80438232421875 2.966801404953003 -226.2875213623047
v -177.81198120117188 3.3297524452209473 -227.66082763671875
v -174.3091583251953 -0.33861446380615234 -226.0830535888672
v -177.1055908203125 2.008471965789795 -225.882568359375
v -174.45408630371094 1.981444001197815 -226.41122436523438
v -177.81959533691406 3.6927037239074707 -229.0341339111328
v -177.48348999023438 4.1184492111206055 -226.24407958984375
v -177.09909057617188 4.206436634063721 -227.716064453125
v -176.7146759033203 4.294424057006836 -229.1880645751953
v -176.4149169921875 4.440759658813477 -226.17633056640625
v -178.35906982421875 2.370351791381836 -232.27024841308594
v -178.60983276367188 2.0469353199005127 -233.53756713867188
v -177.2764434814453 1.94242525100708 -228.84454345703125
v -176.90878295898438 4.193925380706787 -231.34475708007812
v -178.1441192626953 3.8800320625305176 -224.73361206054688
v -178.25228881835938 3.942474842071533 -223.3000946044922
v -177.86788940429688 4.030462265014648 -224.7720947265625
v -176.95217895507812 3.4139974117279053 -223.35275268554688
v -177.7891845703125 2.240899085998535 -223.54090881347656
v -176.73989868164062 2.263335704803467 -223.38247680664062
v -175.6905975341797 2.2857720851898193 -223.2240447998047
v -176.73989868164062 2.263335704803467 -223.38247680664062
v -176.76840209960938 2.1869659423828125 -223.911376953125
v -175.6905975341797 2.2857720851898193 -223.2240447998047
v -177.7891845703125 2.240899085998535 -223.54090881347656
v -176.90365600585938 2.9761974811553955 -233.69345092773438
v -177.822265625 2.6520397663116455 -233.52337646484375
v -177.10289001464844 4.093426704406738 -233.50143432617188
v -176.70440673828125 1.8589681386947632 -233.88546752929688
v -178.03594970703125 3.817589282989502 -226.1671142578125
v -177.91256713867188 3.0292441844940186 -224.85400390625
v -178.9401397705078 3.4451112747192383 -233.1613006591797
v -178.02151489257812 3.7692689895629883 -233.33135986328125
v -178.02151489257812 3.7692689895629883 -233.33135986328125
v -176.93228149414062 -2.280482053756714 -232.8753662109375
v -176.9903106689453 -2.916199207305908 -233.91845703125
v -176.90501403808594 -2.916199207305908 -232.25244140625
v -176.95953369140625 -1.644765019416809 -233.498291015625
v -176.9168701171875 -1.644765019416809 -232.665283203125
v -175.91537475585938 -2.247520923614502 -224.27813720703125
v -176.1056365966797 -2.916199207305908 -225.3207244873047
v -175.7926788330078 -2.916199207305908 -223.79286193847656
v -176.0380859375 -1.5788424015045166 -224.76339721679688
v -175.97052001953125 -0.241485595703125 -224.2060546875
v -176.1151580810547 4.587095737457275 -223.1645965576172
v -177.1837158203125 4.264785289764404 -223.2323455810547
v -178.25228881835938 3.942474842071533 -223.3000946044922
v -176.79931640625 4.3527727127075195 -224.704345703125
v -177.1837158203125 4.264785289764404 -223.2323455810547
v -176.1151580810547 4.587095737457275 -223.1645965576172
v -178.02073669433594 3.091686964035034 -223.42050170898438
v -177.49659729003906 2.1539933681488037 -224.3837432861328
v -177.53280639648438 2.0916621685028076 -226.19271850585938
v -177.2764434814453 1.94242525100708 -228.84454345703125
v -178.64959716796875 2.907731533050537 -232.7157745361328
v -176.92874145507812 -0.37333086133003235 -233.078125
v -177.94314575195312 1.9946802854537964 -231.19105529785156
v -177.94314575195312 1.9946802854537964 -231.19105529785156
v -177.71041870117188 1.932568073272705 -231.53211975097656
v -178.60983276367188 2.0469353199005127 -233.53756713867188
v -175.86526489257812 1.9619345664978027 -227.6278839111328
v -177.1055908203125 2.008471965789795 -225.882568359375
v -174.45408630371094 1.981444001197815 -226.41122436523438
v -174.7178497314453 1.8660049438476562 -229.0153350830078
v -176.16395568847656 -0.29824575781822205 -225.504150390625
v -174.1616668701172 -2.7133004665374756 -225.75514221191406
v -175.7476348876953 2.1330325603485107 -224.28182983398438
v -177.49659729003906 2.1539933681488037 -224.3837432861328
v -175.15383911132812 -0.2480824738740921 -224.002197265625
v -174.6593475341797 -2.916199207305908 -223.33717346191406
v -177.49659729003906 2.1539933681488037 -224.3837432861328
v -177.2764434814453 1.94242525100708 -228.84454345703125
v -177.1055908203125 2.008471965789795 -225.882568359375
v -176.400390625 0.3431941270828247 -224.5749969482422
v -174.91436767578125 -0.4423482418060303 -231.983642578125
v -174.98838806152344 1.8937851190567017 -231.61875915527344
v -177.71041870117188 1.932568073272705 -231.53211975097656
v -178.60983276367188 2.0469353199005127 -233.53756713867188
v -176.845703125 -0.4297824501991272 -231.9480743408203
v -174.83888244628906 -2.809354305267334 -232.3487091064453
v -176.14349365234375 -0.43184661865234375 -233.46449279785156
v -176.14810180664062 -2.916199207305908 -234.32408142089844
v -176.6858673095703 1.9620853662490845 -233.404296875
v -176.8302764892578 0.9278738498687744 -224.94393920898438
v -178.16848754882812 1.9543253183364868 -232.93418884277344
v -176.6858673095703 1.9620853662490845 -233.404296875
v -178.16848754882812 1.9543253183364868 -232.93418884277344
v -176.70440673828125 1.8589681386947632 -233.88546752929688
v -178.02073669433594 3.091686964035034 -223.42050170898438
v -174.98838806152344 1.8937851190567017 -231.61875915527344
v -175.7476348876953 2.1330325603485107 -224.28182983398438
v -177.50709533691406 0.7622714638710022 -232.44113159179688
v -184.73646545410156 -2.916199207305908 -224.1024169921875
v -184.49465942382812 -2.916199207305908 -221.74160766601562
v -183.13677978515625 -2.916199207305908 -222.73159790039062
v -181.537109375 -2.916199207305908 -221.36077880859375
v -181.77891540527344 -2.916199207305908 -223.72158813476562
v -187.30340576171875 -2.916199207305908 -234.9164581298828
v -185.70372009277344 -2.916199207305908 -233.54563903808594
v -185.903564453125 -2.916199207305908 -235.278564453125
v -188.903076171875 -2.916199207305908 -236.2872772216797
v -188.6612548828125 -2.916199207305908 -233.92648315429688
v -188.41944885253906 -2.916199207305908 -231.565673828125
v -188.17764282226562 -2.916199207305908 -229.20486450195312
v -186.81976318359375 -2.916199207305908 -230.19485473632812
v -185.2200927734375 -2.916199207305908 -228.82403564453125
v -185.4619140625 -2.916199207305908 -231.18484497070312
v -184.978271484375 -2.916199207305908 -226.46322631835938
v -183.6204071044922 -2.916199207305908 -227.45321655273438
v -182.02072143554688 -2.916199207305908 -226.0823974609375
v -182.26254272460938 -2.916199207305908 -228.44320678710938
v -180.42105102539062 -2.916199207305908 -224.71157836914062
v -178.82138061523438 -2.916199207305908 -223.34075927734375
v -179.06317138671875 -2.916199207305908 -225.70156860351562
v -193.15773010253906 -2.916199207305908 -224.28085327148438
v -191.33648681640625 -2.916199207305908 -224.34832763671875
v -191.57830810546875 -2.916199207305908 -226.70913696289062
v -191.0946807861328 -2.916199207305908 -221.98751831054688
v -189.5152587890625 -2.916199207305908 -224.41578674316406
v -189.2734375 -2.916199207305908 -222.0549774169922
v -187.45220947265625 -2.916199207305908 -222.1224365234375
v -193.641357421875 -2.916199207305908 -229.00247192382812
v -191.8201141357422 -2.916199207305908 -229.0699462890625
v -192.06192016601562 -2.916199207305908 -231.4307403564453
v -182.904052734375 -2.916199207305908 -234.26986694335938
v -182.50436401367188 -2.916199207305908 -230.8040008544922
v -179.904541015625 -2.916199207305908 -233.2611541748047
v -189.99887084960938 -2.916199207305908 -229.13739013671875
v -176.90501403808594 -2.916199207305908 -232.25244140625
v -176.9903106689453 -2.916199207305908 -233.91845703125
v -190.24069213867188 -2.916199207305908 -231.49819946289062
v -190.4824981689453 -2.916199207305908 -233.8590087890625
v -180.90467834472656 -2.916199207305908 -229.4331817626953
v -179.30499267578125 -2.916199207305908 -228.06236267089844
v -179.70468139648438 -2.916199207305908 -231.52822875976562
v -177.50094604492188 -2.916199207305908 -221.23202514648438
v -174.34507751464844 -2.916199207305908 -222.5090789794922
v -175.7926788330078 -2.916199207305908 -223.79286193847656
v -176.1056365966797 -2.916199207305908 -225.3207244873047
v -175.47225952148438 -2.862776756286621 -228.834716796875
v -176.5053253173828 -2.916199207305908 -228.78659057617188
v -174.1616668701172 -2.7133004665374756 -225.75514221191406
v -174.50027465820312 -2.7613272666931152 -229.0519256591797
v -174.83888244628906 -2.809354305267334 -232.3487091064453
v -176.2335662841797 -2.916199207305908 -234.74427795410156
v -179.40093994140625 -2.916199207305908 -235.13003540039062
v -176.14810180664062 -2.916199207305908 -234.32408142089844
v -174.6593475341797 -2.916199207305908 -223.33717346191406
v -187.6940155029297 -2.916199207305908 -224.48324584960938
v -187.93582153320312 -2.916199207305908 -226.84405517578125
v -184.25283813476562 -2.916199207305908 -219.38079833984375
v -195.2207794189453 -2.916199207305908 -226.57420349121094
v -181.38063049316406 -2.916199207305908 -220.5968475341797
v -179.77932739257812 -2.916199207305908 -234.7171173095703
v -182.56832885742188 -2.916199207305908 -235.51577758789062
v -182.94668579101562 -2.916199207305908 -235.10287475585938
v -185.73570251464844 -2.916199207305908 -235.90151977539062
v -178.58665466308594 -2.916199207305908 -222.19485473632812
v -178.66488647460938 -2.916199207305908 -222.57681274414062
v -180.65682983398438 -2.916199207305908 -219.9549560546875
v -178.22476196289062 -2.916199207305908 -221.8739013671875
v -179.94717407226562 -2.916199207305908 -234.0941619873047
v -183.81271362304688 -2.916199207305908 -218.67788696289062
v -178.10501098632812 -2.916199207305908 -230.15740966796875
v -177.705322265625 -2.916199207305908 -226.69154357910156
v -184.10403442382812 -2.916199207305908 -232.17481994628906
v -190.0631561279297 -2.916199207305908 -220.84085083007812
v -189.03163146972656 -2.916199207305908 -219.69418334960938
v -188.24191284179688 -2.916199207305908 -220.90830993652344
v -187.21038818359375 -2.916199207305908 -219.76162719726562
v -188.00010681152344 -2.916199207305908 -218.54751586914062
v -186.9685821533203 -2.916199207305908 -217.4008331298828
v -185.6107177734375 -2.916199207305908 -218.39080810546875
v -184.1746063232422 -2.916199207305908 -218.99884033203125
v -185.85252380371094 -2.916199207305908 -220.75161743164062
v -186.33615112304688 -2.916199207305908 -225.47323608398438
v -179.968505859375 -2.916199207305908 -234.5106658935547
v -185.9248809814453 -2.916199207305908 -235.695068359375
v -190.0631561279297 -2.916199207305908 -220.84085083007812
v -191.0946807861328 -2.916199207305908 -221.98751831054688
v -189.96728515625 -1.9187977313995361 -220.78921508789062
v -190.05291748046875 1.0734065771102905 -233.63446044921875
v -190.17132568359375 -0.9213962554931641 -233.8005828857422
v -189.41880798339844 0.07600510120391846 -234.8778076171875
v -188.78468322753906 -0.9213963747024536 -236.12115478515625
v -188.66629028320312 1.073406457901001 -235.95504760742188
v -190.90292358398438 -0.9213963747024536 -221.88426208496094
v -176.2335662841797 -2.916199207305908 -234.74427795410156
v -176.14810180664062 -2.916199207305908 -234.32408142089844
v -176.14349365234375 -0.43184661865234375 -233.46449279785156
v -186.9685821533203 -2.916199207305908 -217.4008331298828
v -187.90423583984375 -1.9187977313995361 -218.49588012695312
v -186.77682495117188 -0.9213963747024536 -217.29757690429688
v -174.34507751464844 -2.916199207305908 -222.5090789794922
v -175.15383911132812 -0.2480824738740921 -224.002197265625
v -174.6593475341797 -2.916199207305908 -223.33717346191406
v -187.02340698242188 2.070807933807373 -235.67910766601562
v -185.38052368164062 3.068209171295166 -235.40316772460938
v -188.4295196533203 5.06301212310791 -235.622802734375
v -185.49891662597656 1.073406457901001 -235.5692901611328
v -187.1417999267578 0.07600504159927368 -235.84523010253906
v -183.97442626953125 0.07600504159927368 -235.45947265625
v -182.33154296875 1.073406457901001 -235.18353271484375
v -185.6173095703125 -0.9213963747024536 -235.73541259765625
v -182.44993591308594 -0.9213963747024536 -235.3496551513672
v -182.89450073242188 5.06301212310791 -234.53646850585938
v -182.76620483398438 4.578219413757324 -234.56211853027344
v -180.12698364257812 5.06301212310791 -233.9932861328125
v -176.5213623046875 4.678717613220215 -226.171142578125
v -176.1151580810547 4.587095737457275 -223.1645965576172
v -176.3280487060547 5.063011646270752 -223.15423583984375
v -176.459716796875 -0.4770568609237671 -234.07427978515625
v -176.6858673095703 1.9620853662490845 -233.404296875
v -176.70440673828125 1.8589681386947632 -233.88546752929688
v -183.81271362304688 -2.916199207305908 -218.67788696289062
v -184.14907836914062 -1.615706443786621 -218.85662841796875
v -179.93453979492188 4.335823059082031 -234.03176879882812
v -179.83493041992188 3.7772083282470703 -234.12777709960938
v -178.51870727539062 4.214624881744385 -233.7666015625
v -177.10289001464844 4.093426704406738 -233.50143432617188
v -192.06192016601562 -2.916199207305908 -231.4307403564453
v -190.4824981689453 -2.916199207305908 -233.8590087890625
v -188.903076171875 -2.916199207305908 -236.2872772216797
v -177.35948181152344 5.063011646270752 -233.4501190185547
v -185.73570251464844 -2.916199207305908 -235.90151977539062
v -182.56832885742188 -2.916199207305908 -235.51577758789062
v -176.76397705078125 0.3350328207015991 -222.31741333007812
v -178.51010131835938 0.9852792024612427 -221.76824951171875
v -175.6905975341797 2.2857720851898193 -223.2240447998047
v -177.83734130859375 -1.615706443786621 -221.4107666015625
v -175.01783752441406 -0.315213680267334 -222.86656188964844
v -178.36929321289062 3.3767027854919434 -233.91061401367188
v -180.65682983398438 -2.916199207305908 -219.9549560546875
v -181.32958984375 -0.315213680267334 -220.31243896484375
v -179.63568115234375 2.6599791049957275 -234.31979370117188
v -179.28256225585938 -0.9213963747024536 -234.96389770507812
v -176.468994140625 -0.5286154747009277 -234.31488037109375
v -177.9934844970703 0.4687858819961548 -234.4246826171875
v -179.51797485351562 1.4661872386932373 -234.5345001220703
v -176.90365600585938 2.9761972427368164 -233.69345092773438
v -181.15838623046875 4.825054168701172 -220.07620239257812
v -181.5418701171875 0.8354482650756836 -220.28271484375
v -183.87173461914062 2.949230194091797 -218.63526916503906
v -193.15773010253906 -2.916199207305908 -224.28085327148438
v -195.2207794189453 -2.916199207305908 -226.57420349121094
v -194.0933837890625 -1.9187977313995361 -225.37591552734375
v -182.56695556640625 3.4609901905059814 -234.75413513183594
v -181.35037231445312 4.457021236419678 -234.29693603515625
v -191.20278930664062 5.06301212310791 -230.98165893554688
v -191.43955993652344 1.07340669631958 -231.3138885498047
v -189.93453979492188 3.068209409713745 -233.46835327148438
v -185.59786987304688 4.820615768432617 -235.09246826171875
v -192.70779418945312 3.068209648132324 -228.8271942138672
v -185.49822998046875 4.262001037597656 -235.1884765625
v -184.0325927734375 3.8614954948425293 -234.9713134765625
v -193.33016967773438 -0.9213962554931641 -228.9440460205078
v -184.25521850585938 -1.0403754711151123 -218.84176635742188
v -177.03707885742188 4.678717613220215 -231.319091796875
v -176.68255615234375 4.8708648681640625 -227.23666381835938
v -176.84376525878906 5.063011646270752 -228.30218505859375
v -176.7792205810547 4.678717613220215 -228.7451171875
v -190.0888214111328 5.06301212310791 -221.66415405273438
v -190.711181640625 1.073406457901001 -221.781005859375
v -192.34361267089844 3.068209648132324 -224.06076049804688
v -188.45639038085938 3.068209171295166 -219.38441467285156
v -177.10162353515625 5.063011646270752 -230.87615966796875
v -184.0634765625 0.9544273614883423 -218.738525390625
v -186.5850830078125 1.073406457901001 -217.1943359375
v -181.26483154296875 5.06301212310791 -220.07102966308594
v -183.67999267578125 4.944033145904541 -218.53201293945312
v -183.73321533203125 5.06301212310791 -218.5294189453125
v -186.39334106445312 3.068209171295166 -217.09107971191406
v -186.20159912109375 5.06301212310791 -216.98782348632812
v -192.96597290039062 -0.9213963747024536 -224.1776123046875
v -195.2207794189453 -2.916199207305908 -226.57420349121094
v -193.641357421875 -2.916199207305908 -229.00247192382812
v -176.58590698242188 5.063011646270752 -225.72821044921875
v -189.816162109375 5.06301212310791 -233.30223083496094
v -189.12283325195312 5.06301212310791 -234.4625244140625
v -178.74322509765625 5.06301212310791 -233.72171020507812
v -176.7146759033203 4.294424057006836 -229.1880645751953
v -178.79644775390625 5.06301212310791 -221.61264038085938
v -185.66201782226562 5.06301212310791 -235.0796356201172
v -189.35960388183594 1.073406457901001 -234.7947540283203
v -189.3004150390625 2.070807933807373 -234.71170043945312
v -177.06997680664062 4.386072158813477 -232.41026306152344
v -176.90878295898438 4.193925380706787 -231.34475708007812
v -189.87139892578125 -0.9213963747024536 -220.73757934570312
v -189.77552795410156 0.07600504159927368 -220.6859588623047
v -188.83987426757812 -0.9213963747024536 -219.59091186523438
v -188.93576049804688 -1.9187977313995361 -219.64254760742188
v -189.03163146972656 -2.916199207305908 -219.69418334960938
v -178.1700439453125 2.2594735622406006 -234.10263061523438
v -175.04635620117188 -0.3915832042694092 -223.39544677734375
v -175.39700317382812 0.8707246780395508 -223.83863830566406
v -178.82852172851562 2.7112720012664795 -221.72366333007812
v -194.90960693359375 -0.9213962554931641 -226.51577758789062
v -188.64813232421875 1.073406457901001 -219.4876708984375
v -187.7124786376953 0.07600504159927368 -218.3926239013672
v -192.03244018554688 5.06301212310791 -224.0023193359375
v -193.15982055664062 4.065610885620117 -225.20062255859375
v -193.97604370117188 5.063012599945068 -226.3404998779297
v -192.58941650390625 5.06301212310791 -228.66107177734375
v -193.97604370117188 5.063012599945068 -226.3404998779297
v -177.50094604492188 -2.916199207305908 -221.23202514648438
v -193.01898193359375 1.07340669631958 -228.8856201171875
v -194.59841918945312 1.07340669631958 -226.4573516845703
v -194.2872314453125 3.068209648132324 -226.39892578125
v -194.2872314453125 3.068209648132324 -226.39892578125
v -194.59841918945312 1.07340669631958 -226.4573516845703
v -188.14520263671875 5.06301212310791 -219.32598876953125
v -194.90960693359375 -0.9213962554931641 -226.51577758789062
v -176.4149169921875 4.440759658813477 -226.17633056640625
v -192.65480041503906 1.0734065771102905 -224.11917114257812
v -187.808349609375 -0.9213963747024536 -218.44424438476562
v -178.63677978515625 4.7060747146606445 -221.62039184570312
v -187.08261108398438 1.073406457901001 -235.76217651367188
v -175.7476348876953 2.1330325603485107 -224.28182983398438
v -187.20098876953125 -0.9213963747024536 -235.92828369140625
v -185.55810546875 0.07600504159927368 -235.65234375
v -178.11119079589844 1.6625776290893555 -234.20999145507812
v -178.61624145507812 1.5606101751327515 -221.75338745117188
v -188.00010681152344 -2.916199207305908 -218.54751586914062
v -179.40093994140625 -2.916199207305908 -235.13003540039062
vn -0.9728553891181946 -0.20729883015155792 0.10285753756761551
vn -0.9086419343948364 -0.3581536114215851 0.21469947695732117
vn -0.89677894115448 0.4352295696735382 0.07976698875427246
vn -0.8351696133613586 0.4571514427661896 -0.3057846426963806
vn -0.6458408832550049 0.40916287899017334 -0.6445737481117249
vn -0.8887315988540649 -0.24429811537265778 -0.38791054487228394
vn -0.8596374988555908 0.45697179436683655 0.22847382724285126
vn -0.801893949508667 0.46776220202445984 0.3717050552368164
vn -0.8429334163665771 0.4849580228328705 -0.23297877609729767
vn -0.8238834738731384 -0.5424242615699768 -0.164292573928833
vn -0.5341031551361084 -0.7650625109672546 0.35974055528640747
vn -0.3799840807914734 -0.6997572183609009 0.6049395799636841
vn -0.6691204309463501 -0.47188788652420044 0.5741077661514282
vn -0.810427725315094 -0.5065171718597412 0.2943592369556427
vn -0.8669386506080627 -0.1796177178621292 0.4649246633052826
vn -0.9464414715766907 0.13716574013233185 0.2922910153865814
vn -0.18351292610168457 -0.17310747504234314 -0.9676553010940552
vn -0.4216417372226715 -0.7326542735099792 -0.5342620611190796
vn -0.09838299453258514 -0.7694510817527771 -0.631083071231842
vn -0.89677894115448 0.4352295696735382 0.07976698875427246
vn -0.8353374600410461 0.5079501867294312 0.2102327197790146
vn -0.8777333498001099 0.45849841833114624 0.13915279507637024
vn -0.911970317363739 0.4047846794128418 0.06677937507629395
vn -0.9696076512336731 0.2381543070077896 -0.05606802552938461
vn -0.7125117778778076 -0.6436525583267212 -0.27935341000556946
vn -0.3921351134777069 -0.9127818942070007 -0.11427691578865051
vn -0.6411463022232056 -0.7629351019859314 0.08283393830060959
vn -0.8688589930534363 0.442345529794693 0.22229363024234772
vn -0.7794839143753052 0.559281051158905 0.28215181827545166
vn -0.7277182340621948 0.5922735333442688 0.34588757157325745
vn -0.7851770520210266 0.5526805520057678 0.27935847640037537
vn -0.8706874251365662 -0.4085061252117157 0.2739090323448181
vn -0.3799840807914734 -0.6997572183609009 0.6049395799636841
vn -0.6394347548484802 -0.7393488883972168 0.2109183520078659
vn -0.7555657029151917 -0.613226592540741 -0.23037709295749664
vn -0.6394347548484802 -0.7393488883972168 0.2109183520078659
vn -0.42461591958999634 -0.5633487701416016 0.7087591290473938
vn -0.7555657029151917 -0.613226592540741 -0.23037709295749664
vn -0.3799840807914734 -0.6997572183609009 0.6049395799636841
vn -0.9998946189880371 0.0014628838980570436 0.014447541907429695
vn -0.8263828158378601 -0.03184109553694725 -0.5622078776359558
vn -0.801893949508667 0.46776220202445984 0.3717050552368164
vn -0.8136634826660156 -0.4653985798358917 -0.3483617603778839
vn -0.8251457214355469 0.5219090580940247 0.2162066251039505
vn -0.8203195333480835 -0.12105941772460938 0.5589457750320435
vn -0.6458408832550049 0.40916287899017334 -0.6445737481117249
vn -0.8444235324859619 0.5114860534667969 -0.15915672481060028
vn -0.8444235324859619 0.5114860534667969 -0.15915672481060028
vn -0.9940810799598694 -0.021322116255760193 0.1065281331539154
vn -0.8529548048973083 0.18449142575263977 -0.48829394578933716
vn -0.6711362600326538 -0.08145518600940704 0.7368454337120056
vn -0.8148069381713867 0.049583084881305695 -0.5776081681251526
vn -0.9913390874862671 -0.11695539951324463 0.05973568558692932
vn -0.8663293123245239 -0.025541141629219055 0.49881988763809204
vn -0.8363015651702881 -0.07517856359481812 -0.5430909991264343
vn -0.6037987470626831 0.0984339565038681 0.7910358905792236
vn -0.9818589687347412 -0.14518235623836517 0.12196289002895355
vn -0.6675292253494263 -0.14718502759933472 0.729891300201416
vn -0.9824691414833069 0.060526128858327866 -0.17632624506950378
vn -0.9302689433097839 0.35509514808654785 0.09223411977291107
vn -0.7277182340621948 0.5922735333442688 0.34588757157325745
vn -0.954267144203186 0.298424631357193 0.017799383029341698
vn -0.9302689433097839 0.35509514808654785 0.09223411977291107
vn -0.9824691414833069 0.060526128858327866 -0.17632624506950378
vn -0.756744921207428 -0.07342924177646637 0.6495731472969055
vn -0.5557138919830322 -0.7773486971855164 0.2948068082332611
vn -0.5341031551361084 -0.7650625109672546 0.35974055528640747
vn -0.6411463022232056 -0.7629351019859314 0.08283393830060959
vn -0.8185597062110901 -0.1413063108921051 -0.5567696690559387
vn -0.7541438937187195 -0.0866953656077385 -0.6509615182876587
vn -0.5247933268547058 -0.8510798811912537 -0.015969572588801384
vn -0.5247933268547058 -0.8510798811912537 -0.015969572588801384
vn -0.3532702624797821 -0.8660684823989868 0.35373085737228394
vn -0.3921351134777069 -0.9127818942070007 -0.11427691578865051
vn -0.4136882722377777 -0.8572076559066772 -0.30668726563453674
vn -0.4216417372226715 -0.7326542735099792 -0.5342620611190796
vn -0.09838299453258514 -0.7694510817527771 -0.631083071231842
vn 0.03688172996044159 -0.9984898567199707 0.04071514680981636
vn -0.7516273856163025 -0.30233195424079895 -0.5862181186676025
vn -0.17340117692947388 0.6539465188980103 -0.7364007234573364
vn -0.45592424273490906 -0.40926361083984375 0.7903394103050232
vn -0.5557138919830322 -0.7773486971855164 0.2948068082332611
vn -0.728573739528656 -0.02852744236588478 0.6843730807304382
vn -0.7148177623748779 0.041514959186315536 0.6980774402618408
vn -0.5557138919830322 -0.7773486971855164 0.2948068082332611
vn -0.6411463022232056 -0.7629351019859314 0.08283393830060959
vn -0.4216417372226715 -0.7326542735099792 -0.5342620611190796
vn -0.8308044672012329 -0.45093101263046265 0.3262287378311157
vn 0.2943105399608612 -0.14698776602745056 0.944338858127594
vn 0.3140997588634491 -0.6601494550704956 0.6823078989982605
vn -0.3532702624797821 -0.8660684823989868 0.35373085737228394
vn -0.3921351134777069 -0.9127818942070007 -0.11427691578865051
vn -0.849489152431488 -0.29838550090789795 0.4351256191730499
vn 0.14250870048999786 0.6755772233009338 0.7233855724334717
vn -0.9269763827323914 -0.018543608486652374 -0.37466102838516235
vn -0.8932891488075256 0.1484530121088028 -0.42425963282585144
vn -0.6990743279457092 -0.6394882202148438 -0.31992170214653015
vn -0.7599059343338013 -0.6275758147239685 -0.1693858951330185
vn -0.6337326765060425 -0.7539682984352112 -0.17295853793621063
vn -0.6990743279457092 -0.6394882202148438 -0.31992170214653015
vn -0.6337326765060425 -0.7539682984352112 -0.17295853793621063
vn -0.8136634826660156 -0.4653985798358917 -0.3483617603778839
vn -0.756744921207428 -0.07342924177646637 0.6495731472969055
vn 0.3140997588634491 -0.6601494550704956 0.6823078989982605
vn -0.45592424273490906 -0.40926361083984375 0.7903394103050232
vn -0.8072288632392883 -0.5727332234382629 0.14268186688423157
vn -0.013234911486506462 0.9999123215675354 -0.00037444187910296023
vn -0.013234911486506462 0.9999123215675354 -0.00037444187910296023
vn -0.019851643592119217 0.999802827835083 -0.000561642344109714
vn -0.02646750397980213 0.9996494054794312 -0.000748818158172071
vn -0.02646750397980213 0.9996494054794312 -0.000748818158172071
vn -0.006617601495236158 0.9999781847000122 -0.00018722507229540497
vn -0.013234911486506462 0.9999123215675354 -0.00037444187910296023
vn -0.012908383272588253 0.999915599822998 0.0014886282151564956
vn 0 1 0
vn 0 1 0
vn 0 1 0
vn 0 1 0
vn -0.006617601495236158 0.9999781847000122 -0.00018722507229540497
vn -0.013234911486506462 0.9999123215675354 -0.00037444187910296023
vn -0.013234911486506462 0.9999123215675354 -0.00037444187910296023
vn -0.013234911486506462 0.9999123215675354 -0.00037444187910296023
vn -0.019851643592119217 0.999802827835083 -0.000561642344109714
vn -0.02646750397980213 0.9996494054794312 -0.000748818158172071
vn -0.02646750397980213 0.9996494054794312 -0.000748818158172071
vn -0.03308220952749252 0.9994522333145142 -0.0009359612595289946
vn -0.039695460349321365 0.9992112517356873 -0.0011230632662773132
vn -0.039695460349321365 0.9992112517356873 -0.0011230632662773132
vn 0 1 0
vn 0 1 0
vn 0 1 0
vn 0 1 0
vn 0 1 0
vn 0 1 0
vn 0 1 0
vn 0 1 0
vn 0 1 0
vn 0 1 0
vn -0.025814585387706757 0.9996622204780579 0.0029770047403872013
vn -0.02646750397980213 0.9996494054794312 -0.000748818158172071
vn -0.03871643543243408 0.9992403388023376 0.0044648791663348675
vn 0 1 0
vn -0.05161174014210701 0.9986494779586792 0.005951999220997095
vn 0 1 0
vn 0 1 0
vn 0 1 0
vn -0.03308220952749252 0.9994522333145142 -0.0009359612595289946
vn -0.039695460349321365 0.9992112517356873 -0.0011230632662773132
vn -0.03904293105006218 0.999234139919281 0.0026018109638243914
vn 0 1 0
vn 0 1 0
vn 0 1 0
vn -0.052916448563337326 0.9985978007316589 -0.0014971112832427025
vn 0.04908142611384392 0.9171652793884277 0.39547300338745117
vn -0.05226447433233261 0.9986308813095093 0.002227460267022252
vn -0.17340117692947388 0.6539465188980103 -0.7364007234573364
vn -0.023228362202644348 0.9996823072433472 -0.00978622306138277
vn 0.14250870048999786 0.6755772233009338 0.7233855724334717
vn 0 1 0
vn 0 1 0
vn 0 1 0
vn 0 1 0
vn 0 1 0
vn 0 1 0
vn -0.013234911486506462 0.9999123215675354 -0.00037444187910296023
vn 0 1 0
vn 0 1 0
vn 0 1 0
vn 0 1 0
vn 0 1 0
vn 0 1 0
vn 0 1 0
vn -0.013234911486506462 0.9999123215675354 -0.00037444187910296023
vn 0 1 0
vn 0 1 0
vn -0.012908383272588253 0.999915599822998 0.0014886282151564956
vn 0 1 0
vn -0.045654699206352234 0.9989544153213501 0.0024145261850208044
vn -0.046306971460580826 0.9989264607429504 -0.0013101160293444991
vn -0.019851643592119217 0.999802827835083 -0.000561642344109714
vn 0 1 0
vn 0 1 0
vn 0 1 0
vn 0 1 0
vn 0 1 0
vn 0 1 0
vn -0.006617601495236158 0.9999781847000122 -0.00018722507229540497
vn 0 1 0
vn -0.006617601495236158 0.9999781847000122 -0.00018722507229540497
vn -0.006617601495236158 0.9999781847000122 -0.00018722507229540497
vn 0 1 0
vn 0 1 0
vn 0.43302640318870544 -0.14612215757369995 -0.8894584774971008
vn 0.6080210208892822 -0.16182419657707214 -0.7772537469863892
vn 0.45489710569381714 -0.3093284070491791 -0.8350955843925476
vn 0.45096302032470703 -0.6181220412254333 0.6438613533973694
vn 0.5470191836357117 -0.40169620513916016 0.7344455122947693
vn 0.42554721236228943 -0.4844264090061188 0.7643563747406006
vn 0.3774615526199341 -0.3387124538421631 0.8618564009666443
vn 0.29450276494026184 -0.5562596917152405 0.7770734429359436
vn 0.6500890254974365 -0.43126654624938965 -0.6256144642829895
vn -0.7527840733528137 -0.15553106367588043 0.6396297812461853
vn -0.8932891488075256 0.1484530121088028 -0.42425963282585144
vn -0.9269763827323914 -0.018543608486652374 -0.37466102838516235
vn -0.1707281619310379 -0.06498147547245026 -0.9831730723381042
vn 0.05712597072124481 -0.2657056748867035 -0.962360143661499
vn -0.15058912336826324 -0.28943225741386414 -0.9452787041664124
vn -0.9537813067436218 -0.2281673550605774 -0.19555261731147766
vn -0.728573739528656 -0.02852744236588478 0.6843730807304382
vn -0.7148177623748779 0.041514959186315536 0.6980774402618408
vn 0.06495647132396698 -0.6967412829399109 0.7143754363059998
vn -0.16954974830150604 -0.784021258354187 0.5971294045448303
vn 0.08054398745298386 -0.8776360750198364 0.47251203656196594
vn -0.05906296148896217 -0.6304328441619873 0.7739934921264648
vn 0.15886814892292023 -0.4948292374610901 0.8543447852134705
vn -0.20013634860515594 -0.5399388670921326 0.8175643086433411
vn -0.4049198031425476 -0.6223220825195312 0.6698920130729675
vn 0.018762758001685143 -0.4194736182689667 0.9075736403465271
vn -0.31576231122016907 -0.4097869396209717 0.8557855486869812
vn -0.08051534742116928 -0.8972145318984985 0.4341929256916046
vn -0.6094245910644531 -0.3462774455547333 0.7132275104522705
vn -0.1604846715927124 -0.897659957408905 0.41042813658714294
vn -0.9512604475021362 -0.308045357465744 -0.014545268379151821
vn -0.9824691414833069 0.060526128858327866 -0.17632624506950378
vn -0.49942994117736816 -0.8618364930152893 -0.08836042135953903
vn -0.8611917495727539 -0.4715776741504669 0.18963967263698578
vn -0.6990743279457092 -0.6394882202148438 -0.31992170214653015
vn -0.8136634826660156 -0.4653985798358917 -0.3483617603778839
vn -0.4446365237236023 -0.12662149965763092 -0.8867160677909851
vn -0.37853264808654785 -0.24582314491271973 -0.8923474550247192
vn -0.790973424911499 0.06808612495660782 0.6080504059791565
vn -0.9030048251152039 -0.2873239517211914 0.31941699981689453
vn -0.8188191056251526 0.27545472979545593 0.503646731376648
vn -0.801893949508667 0.46776220202445984 0.3717050552368164
vn 0.8529364466667175 -0.15127311646938324 0.4996156096458435
vn 0.6735347509384155 -0.13136900961399078 0.7273879051208496
vn 0.43724527955055237 -0.10036930441856384 0.8937239646911621
vn -0.2393370270729065 -0.8918576836585999 0.38380682468414307
vn 0.1258489042520523 -0.13818788528442383 0.982377827167511
vn -0.1989198476076126 -0.16132299602031708 0.9666466116905212
vn -0.7939663529396057 -0.4843716025352478 -0.3674256205558777
vn -0.6837930679321289 -0.5319838523864746 -0.4994198977947235
vn -0.7555657029151917 -0.613226592540741 -0.23037709295749664
vn -0.8031010031700134 -0.3376624584197998 -0.4909306466579437
vn -0.8755840063095093 -0.4309897720813751 -0.2181752622127533
vn -0.9755021333694458 -0.16059455275535583 0.15034987032413483
vn -0.6793593764305115 -0.1771024614572525 -0.7121134996414185
vn -0.554489016532898 -0.4059823155403137 -0.7264436483383179
vn -0.6867514848709106 -0.7128342986106873 -0.1422666609287262
vn -0.6051265001296997 -0.40658026933670044 0.6844810247421265
vn -0.9160436391830444 -0.36311379075050354 0.17033077776432037
vn -0.8351187705993652 -0.5132584571838379 0.19784429669380188
vn -0.731982409954071 -0.6533753871917725 0.1931377798318863
vn -0.9998946189880371 0.0014628838980570436 0.014447541907429695
vn -0.6967611908912659 -0.5195156931877136 -0.49459823966026306
vn -0.7051747441291809 -0.0027244235388934612 -0.7090283632278442
vn -0.4458763897418976 -0.49204567074775696 -0.7477201223373413
vn 0.8722804188728333 -0.17175310850143433 -0.4578512907028198
vn 0.9865515828132629 -0.15214914083480835 -0.05972149595618248
vn 0.9412174224853516 -0.2980268597602844 -0.15902754664421082
vn -0.4775623083114624 -0.8748679161071777 0.08087289333343506
vn -0.7198795080184937 -0.14300523698329926 0.6792075634002686
vn 0.28269630670547485 -0.9453442096710205 0.16250237822532654
vn 0.5866554379463196 -0.6515184640884399 0.48099806904792786
vn 0.3472054898738861 -0.7957603335380554 0.496199369430542
vn -0.29641109704971313 -0.6859422922134399 0.6645476818084717
vn 0.5510720014572144 -0.8178044557571411 0.1658780723810196
vn -0.21115820109844208 -0.9320869445800781 0.2943233549594879
vn -0.34963613748550415 -0.9173194169998169 0.19047227501869202
vn 0.866240382194519 -0.4425160586833954 0.2319636195898056
vn -0.4593922793865204 -0.03551029413938522 -0.887523353099823
vn -0.8664098978042603 -0.36654406785964966 0.33908611536026
vn -0.7367005348205566 -0.662558376789093 0.13523529469966888
vn -0.3836258351802826 -0.9106557369232178 0.15341897308826447
vn -0.9246521592140198 -0.3431648313999176 0.1650945097208023
vn 0.20838791131973267 -0.9000906348228455 -0.3826373517513275
vn 0.6288621425628662 -0.6587193012237549 -0.41306331753730774
vn 0.5465894937515259 -0.7829317450523376 -0.29708224534988403
vn 0.3102739751338959 -0.7966830134391785 -0.518677294254303
vn -0.31441327929496765 -0.9097399115562439 0.27114126086235046
vn -0.449423611164093 -0.272280216217041 -0.8508124947547913
vn -0.12258639186620712 -0.49876895546913147 -0.8580222129821777
vn -0.29004451632499695 -0.8943274021148682 -0.34066492319107056
vn -0.3998268246650696 -0.7232087850570679 -0.5631229281425476
vn -0.17195826768875122 -0.8739716410636902 -0.45453688502311707
vn -0.08818221837282181 -0.6820601224899292 -0.7259600758552551
vn -0.04917318373918533 -0.829734206199646 -0.5559884309768677
vn 0.8646374940872192 -0.43401095271110535 -0.25305435061454773
vn 0.9865515828132629 -0.15214914083480835 -0.05972149595618248
vn 0.9602980613708496 -0.1584005057811737 0.22964513301849365
vn -0.4456838369369507 -0.8945879936218262 0.0328354611992836
vn 0.1849217265844345 -0.9280596375465393 0.3232789933681488
vn 0.13332930207252502 -0.906904935836792 0.39968350529670715
vn -0.20008498430252075 -0.8955382108688354 0.3974634110927582
vn -0.911970317363739 0.4047846794128418 0.06677937507629395
vn -0.40020519495010376 -0.8902451992034912 -0.21748413145542145
vn 0.000014370022654475179 -0.8905242681503296 0.45493564009666443
vn 0.3748972713947296 -0.5906005501747131 0.7145929336547852
vn 0.32657986879348755 -0.6880735754966736 0.6479973196983337
vn -0.9185510873794556 0.05572967231273651 0.39135438203811646
vn -0.8688589930534363 0.442345529794693 0.22229363024234772
vn 0.47626015543937683 -0.4472189247608185 -0.7570809125900269
vn 0.4763392210006714 -0.5769935250282288 -0.6634601354598999
vn 0.27968791127204895 -0.44181472063064575 -0.8523935079574585
vn 0.263256698846817 -0.28709325194358826 -0.9210175275802612
vn 0.23921270668506622 -0.1240697056055069 -0.9630077481269836
vn -0.761701226234436 -0.598142147064209 -0.2490726113319397
vn -0.8504929542541504 -0.38457006216049194 0.35884228348731995
vn -0.6831070184707642 -0.4150843620300293 0.6008908152580261
vn -0.8851330280303955 0.030315754935145378 -0.46434950828552246
vn 0.9213137030601501 -0.3764529824256897 -0.09728403389453888
vn 0.28249847888946533 -0.6458706855773926 -0.709257185459137
vn 0.08022382110357285 -0.4803086519241333 -0.8734230399131775
vn 0.33082714676856995 -0.9011503458023071 -0.2801453173160553
vn 0.4979341924190521 -0.8348109126091003 -0.23484517633914948
vn 0.44483131170272827 -0.8792333602905273 -0.1705104410648346
vn 0.37037646770477295 -0.9288727641105652 -0.004076818469911814
vn 0.44483131170272827 -0.8792333602905273 -0.1705104410648346
vn -0.8542107343673706 -0.21197549998760223 -0.474752813577652
vn 0.7357842326164246 -0.6511837840080261 0.18596017360687256
vn 0.8045015931129456 -0.5796833634376526 -0.12940070033073425
vn 0.6426541209220886 -0.7504635453224182 -0.1542736291885376
vn 0.6426541209220886 -0.7504635453224182 -0.1542736291885376
vn 0.8045015931129456 -0.5796833634376526 -0.12940070033073425
vn 0.08063534647226334 -0.876081109046936 -0.47537320852279663
vn 0.9213137030601501 -0.3764529824256897 -0.09728403389453888
vn -0.9696076512336731 0.2381543070077896 -0.05606802552938461
vn 0.7274515628814697 -0.6285061240196228 -0.27530786395072937
vn 0.06637479364871979 -0.3759629726409912 -0.9242543578147888
vn -0.9000809788703918 -0.24602210521697998 -0.35962092876434326
vn 0.11968883126974106 -0.6032702922821045 0.7885046601295471
vn -0.45592424273490906 -0.40926361083984375 0.7903394103050232
vn 0.2016017735004425 -0.3857705295085907 0.9002987146377563
vn -0.02032463811337948 -0.5295002460479736 0.8480662703514099
vn -0.8073959946632385 -0.5844117403030396 -0.08108404278755188
vn -0.7927060723304749 -0.3342606723308563 -0.5097910165786743
vn 0.035002876073122025 -0.09662523120641708 -0.994705080986023
vn -0.5025519132614136 -0.16731633245944977 0.848202109336853
vt 0.5383716225624084 0.9767884016036987
vt 0.46887636184692383 0.9540716111660004
vt 0.5559619665145874 1.0379657745361328
vt 0.7764492034912109 1.0379657745361328
vt 1 1.0379657745361328
vt 0.7603906393051147 0.9767884016036987
vt 0.7764233350753784 0.9687082469463348
vt 0.999948263168335 0.8994507193565369
vt 0.8882116675376892 1.0033370107412338
vt 0.6405859589576721 0.9461997151374817
vt 0.26039063930511475 0.8859212398529053
vt 0 0.8562314510345459
vt 0.13899049162864685 0.9016650319099426
vt 0.3993811309337616 0.931354820728302
vt 0.2779809832572937 0.9470986127853394
vt 0.41697147488594055 0.9925321936607361
vt -0.03864729776978493 0.4840580224990845
vt 0.07821349799633026 0.8212560415267944
vt -0.03864729776978493 0.8188405632972717
vt 0.5528984069824219 1.0379657745361328
vt 0.2792988419532776 0.966982513666153
vt 0.4189482629299164 0.9332166165113449
vt 0.5585976839065552 0.8994507193565369
vt 0.27954861521720886 0.8735649883747101
vt 0.8801953196525574 0.9218191802501678
vt 1 0.866849958896637
vt 0.5207812786102295 0.9156110286712646
vt 0.7792729735374451 0.8994507193565369
vt 0.13899049162864685 1.03537717461586
vt 0 1.034514307975769
vt 0.1396494209766388 1.000748410820961
vt 0.04559923708438873 0.9402042031288147
vt 0.2965131998062134 0.8467848300933838
vt 0.0420970618724823 0.8467651009559631
vt -0.21231909096240997 0.8467453718185425
vt 0.03923851251602173 0.9721294045448303
vt 0.04740024358034134 0.9411351680755615
vt -0.012221910059452057 0.9721294045448303
vt 0.09069893509149551 0.9721294045448303
vt 0.9923810958862305 0.9597910344600677
vt 0.8212506771087646 0.9597291648387909
vt 0.9914228916168213 1.0309431552886963
vt 0.9933393001556396 0.8886389136314392
vt 0.2779809832572937 1.036240041255951
vt 0.13899049162864685 0.9462357461452484
vt 0.6491619944572449 1.0308194160461426
vt 0.8202924728393555 1.0308812856674194
vt 0.9999741315841675 0.9687082469463348
vt 0.016587115824222565 0.22644925117492676
vt 0.06135265901684761 0.13526570796966553
vt -0.02817843109369278 0.13526570796966553
vt 0.06135265901684761 0.31763285398483276
vt 0.016587112098932266 0.31763285398483276
vt -0.0008310563862323761 0.12161839008331299
vt 0.07809077203273773 0
vt -0.026444513350725174 0
vt 0.024782400578260422 0.2432367205619812
vt -0.02852596715092659 0.4864734411239624
vt -0.20531471073627472 1.0336235761642456
vt 0.045212581753730774 1.0345376133918762
vt 0.29573988914489746 1.0354516506195068
vt 0.13989920914173126 0.9073308855295181
vt 0.00024978816509246826 0.9410967826843262
vt 0.0004995763301849365 0.8476792573928833
vt 0.2961265444755554 0.9411182403564453
vt 0.14274480938911438 0.9103246331214905
vt 0.30453237891197205 0.9406909346580505
vt 0.5183658003807068 0.9092524647712708
vt 0.9400976896286011 0.9798924773931503
vt 0.06135265901684761 0.5
vt 0.7603906393051147 0.8912304937839508
vt 0.649478554725647 0.9138574302196503
vt 0.7595685720443726 0.9738034009933472
vt 0.7805913686752319 0.9184623956680298
vt 0.38533374667167664 0.9406909346580505
vt 0.09040719270706177 0.9721294045448303
vt 0.2523016929626465 0.9721294045448303
vt 0.5019898414611816 0.9721294045448303
vt 0.07791571319103241 0.4864734411239624
vt -0.03864729776978493 -0.0024154186248779297
vt 0.11116296797990799 0.8212560415267944
vt -0.02752252295613289 0.8212560415267944
vt 0.11114343255758286 0.4864734411239624
vt 0.11161068826913834 0
vt 0.06842300295829773 0.8886473178863525
vt 0.5183658003807068 0.8576400279998779
vt 0.09040719270706177 0.9882348775863647
vt -0.0016646869480609894 0.5701690912246704
vt 0.07584541290998459 0.5
vt 0.07584541290998459 0.7860000133514404
vt -0.028286896646022797 0.7860000133514404
vt 0.6607617735862732 0.8882889747619629
vt -0.02836943417787552 0.5
vt 0.07584541290998459 0.13526570796966553
vt 0.09613526612520218 0.5
vt 0.09613526612520218 0.13526570796966553
vt 0.09613526612520218 0.7860000133514404
vt 0.02519659325480461 0.6538647413253784
vt 0.06135265901684761 0.7860000133514404
vt 1.116580843925476 0.9721294045448303
vt 0.8953868746757507 0.9721294045448303
vt 0.9298227429389954 0.9177007079124451
vt 0 0.9453728795051575
vt 0.7808603048324585 0.918613076210022
vt 0.004101552069187164 0.9101409316062927
vt 0.016491614282131195 0.6430000066757202
vt 0.6751891374588013 1.0247620344161987
vt 0.42543888092041016 1.0273560881614685
vt 0.5127837061882019 0.8869248032569885
vt 0.3503783047199249 0.7490875720977783
vt 0.6001285314559937 0.7464935183525085
vt 1.8365954160690308 1.1522230505943298
vt 1.6741900444030762 1.0143858194351196
vt 1.857783317565918 1.0146153569221497
vt 1.9990007877349854 1.29006028175354
vt 1.7492506504058838 1.2926543354988098
vt 1.4995003938674927 1.2952483892440796
vt 1.2497501373291016 1.2978424429893494
vt 1.337095022201538 1.1574111580848694
vt 1.174689531326294 1.0195739269256592
vt 1.424439787864685 1.0169798731803894
vt 0.9249393343925476 1.022167980670929
vt 1.0122841596603394 0.881736695766449
vt 0.84987872838974 0.7438994646072388
vt 1.0996289253234863 0.741305410861969
vt 0.6874732971191406 0.6060622334480286
vt 0.525067925453186 0.46822500228881836
vt 0.7748181223869324 0.4656309485435486
vt 0.7941827774047852 1.8269538879394531
vt 0.7795383930206299 1.6523127555847168
vt 1.029288649559021 1.649718701839447
vt 0.5297881960868835 1.6549068093299866
vt 0.7648940682411194 1.4776716530323029
vt 0.515143871307373 1.4802657067775726
vt 0.5004994869232178 1.3056246042251587
vt 1.2936831712722778 1.8217657804489136
vt 1.279038906097412 1.6471246480941772
vt 1.5287890434265137 1.6445305943489075
vt 1.716565728187561 0.7391704320907593
vt 1.3493791818618774 0.7387113571166992
vt 1.575348138809204 0.46372556686401367
vt 1.2643945217132568 1.4724835455417633
vt 1.4341306686401367 0.1882806420326233
vt 1.609363317489624 0.17829900979995728
vt 1.5141446590423584 1.4698894917964935
vt 1.7638949155807495 1.4672954380512238
vt 1.1869738101959229 0.600874125957489
vt 1.0245683193206787 0.4630368947982788
vt 1.3917548656463623 0.46349596977233887
vt 0.28882652521133423 0.36508285999298096
vt 0.3847690224647522 0.04983961582183838
vt 0.5362616777420044 0.17410248517990112
vt 0.6997575163841248 0.1873624324798584
vt 1.0597333908081055 0.09418076276779175
vt 1.0669441223144531 0.18782150745391846
vt 0.722069263458252 0.0009992122650146484
vt 1.0708892345428467 0.000999152660369873
vt 1.4197092056274414 0.0009990930557250977
vt 1.686702013015747 0.09705442190170288
vt 1.7647767066955566 0.395305871963501
vt 1.6417444944381714 0.09346520900726318
vt 0.47510647773742676 0.07083803415298462
vt 0.7502497434616089 1.303030550479889
vt 0.9999999403953552 1.3004364967346191
vt 0.175688698887825 1.0299501419067383
vt 1.058577299118042 1.999000906944275
vt 0.26863038539886475 0.7424575686454773
vt 1.7261073589324951 0.4359281659126282
vt 1.8428514003753662 0.6935573220252991
vt 1.8041820526123047 0.734179675579071
vt 1.9209260940551758 0.9918088018894196
vt 0.40244603157043457 0.4582800269126892
vt 0.44331997632980347 0.4615950584411621
vt 0.19288405776023865 0.6803261637687683
vt 0.3645728826522827 0.4272143244743347
vt 1.6629645824432373 0.45873475074768066
vt 0.09694157540798187 0.9955694377422333
vt 1.2293494939804077 0.32565879821777344
vt 0.8621629476547241 0.3251996636390686
vt 1.511784553527832 0.8765485882759094
vt 0.3975909352302551 1.5688832998275757
vt 0.2653936445713043 1.4828597605228424
vt 0.38294655084609985 1.3942421674728394
vt 0.25074928998947144 1.3082186579704285
vt 0.1331963688135147 1.3968362212181091
vt 0.0009990930557250977 1.3108127117156982
vt 0.08834389597177505 1.1703814268112183
vt 0.13481473922729492 1.0266351401805878
vt 0.3380940854549408 1.1677873730659485
vt 0.8375945091247559 1.162599265575409
vt 1.7067726850509644 0.45623934268951416
vt 1.901591420173645 1.0121199786663055
vt 0.5974836349487305 0.014162540435791016
vt 0.46587246656417847 0.018716812133789062
vt 0.6060715913772583 0.1390376091003418
vt 4.220607757568359 0.5105600357055664
vt 4.224699974060059 0.26608985662460327
vt 4.097550392150879 0.3883249759674072
vt 3.9744930267333984 0.26608985662460327
vt 3.970400810241699 0.5105600357055664
vt 0.48304837942123413 0.2684670090675354
vt 2.9720778465270996 0.05366259813308716
vt 2.946967840194702 0.053305745124816895
vt 2.900033473968506 0.337588906288147
vt 0.992317259311676 0.0004996061325073242
vt 0.8692940473556519 0.12992900609970093
vt 1.0094932317733765 0.25024980306625366
vt 2.1120691299438477 0.03772842884063721
vt 2.1928205490112305 0.3597251772880554
vt 2.1577343940734863 0.061016082763671875
vt 3.842541217803955 0.6368004679679871
vt 3.714681625366211 0.7630409449338913
vt 3.962216377258301 0.9995003938674927
vt 3.71877384185791 0.5185707807540894
vt 3.8466334342956543 0.3923302888870239
vt 3.5950064659118652 0.4003410339355469
vt 3.4671471118927 0.5265814960002899
vt 3.7228660583496094 0.27410054206848145
vt 3.4712393283843994 0.28211134672164917
vt 3.4585561752319336 0.9995003938674927
vt 3.4537429809570312 0.9411022663116455
vt 3.20672607421875 0.9995003938674927
vt 2.357591390609741 0.953208327293396
vt 2.1065804958343506 0.9421716928482056
vt 2.0990400314331055 0.9995003938674927
vt 2.946094274520874 0.3398125171661377
vt 2.9201107025146484 0.6259624361991882
vt 2.9482815265655518 0.6135408878326416
vt 1.2722551822662354 0.009806811809539795
vt 1.2751221656799316 0.1666131615638733
vt 3.1995062828063965 0.9119032025337219
vt 3.200259208679199 0.8446123898029327
vt 3.072387933731079 0.8973036706447601
vt 2.9452695846557617 0.8827041387557983
vt 4.459006309509277 0.02927684783935547
vt 4.2187957763671875 0.025448262691497803
vt 3.9785852432250977 0.021619677543640137
vt 2.9548957347869873 0.9995003938674927
vt 3.7269582748413086 0.029630422592163086
vt 3.4753315448760986 0.037641167640686035
vt 1.9792674779891968 0.4250907301902771
vt 1.8407319784164429 0.49884033203125
vt 2.1235368251800537 0.664953887462616
vt 1.8349981307983398 0.18522757291793823
vt 2.1178030967712402 0.3513411283493042
vt 3.073517322540283 0.7963674515485764
vt 1.5521931648254395 0.019114017486572266
vt 1.557927131652832 0.33272671699523926
vt 3.2017650604248047 0.7100307643413544
vt 3.2196125984191895 0.29012203216552734
vt 2.9601798057556152 0.333601713180542
vt 3.08394718170166 0.4518314599990845
vt 3.207714319229126 0.570061206817627
vt 2.946775436401367 0.74812251329422
vt 1.5838007926940918 0.9708360433578491
vt 1.549448847770691 0.47133564949035645
vt 1.3052349090576172 0.7354180216789246
vt 0.2026500701904297 0.02782541513442993
vt -0.06057232618331909 0.0369340181350708
vt 0.07962682843208313 0.15725481510162354
vt 3.4552488327026367 0.8065206408500671
vt 3.326624631881714 0.9265027344226837
vt 4.462630271911621 0.9995003938674927
vt 4.4708147048950195 0.5105600357055664
vt 4.21651554107666 0.7550302147865295
vt 3.707979679107666 0.9703013300895691
vt 4.7169294357299805 0.7550302147865295
vt 3.7087326049804688 0.9030105173587799
vt 3.5819907188415527 0.8547655791044235
vt 4.705121040344238 0.2737470269203186
vt 1.2708830833435059 0.23591762781143188
vt 2.7855191230773926 0.953208327293396
vt 2.442279577255249 0.9763543605804443
vt 2.526968002319336 0.9995003938674927
vt 2.5715551376342773 0.953208327293396
vt 0.5120323300361633 0.9995003938674927
vt 0.5002242922782898 0.5182172060012817
vt 0.2316339612007141 0.7588587999343872
vt 0.7806226015090942 0.7588587999343872
vt 2.740931987762451 0.9995003938674927
vt 1.2880589962005615 0.4856678247451782
vt 1.0266691446304321 0.5
vt 1.5800304412841797 0.9995003938674927
vt 1.3224108219146729 0.9851682186126709
vt 1.3205256462097168 0.9995003938674927
vt 1.0438450574874878 0.7497501969337463
vt 1.0610209703445435 0.9995003938674927
vt 0.21982598304748535 0.27757561206817627
vt 4.939427852630615 0.0369340181350708
vt 4.699216842651367 0.033105432987213135
vt 2.3130040168762207 0.9995003938674927
vt 4.212423324584961 0.9995003938674927
vt 4.087319850921631 0.9995003938674927
vt 3.080811023712158 0.9995003938674927
vt 2.616142749786377 0.9069162607192993
vt 1.8395352363586426 0.9995003938674927
vt 3.710386276245117 0.9995003938674927
vt 4.095504283905029 0.5105600357055664
vt 4.09345817565918 0.632795125246048
vt 2.865394353866577 0.9179562330245972
vt 2.7807061672210693 0.8948101997375488
vt 0.6146595478057861 0.2639126777648926
vt 0.623247504234314 0.38878780603408813
vt 0.7462707757949829 0.25935840606689453
vt 0.7376828193664551 0.13448333740234375
vt 0.7290948629379272 0.009608209133148193
vt 3.0750231742858887 0.6617858409881592
vt 2.1564512252807617 0.34214162826538086
vt 2.1786422729492188 0.4943481683731079
vt 1.828014612197876 0.706753671169281
vt -0.05466833710670471 0.27757561206817627
vt 0.7634466886520386 0.5091086030006409
vt 0.8864699602127075 0.37967920303344727
vt 0.23753798007965088 0.9995003938674927
vt 0.09733879566192627 0.8791795969009399
vt 4.963043689727783 0.9995003938674927
vt 4.712837219238281 0.9995003938674927
vt -0.03695636987686157 0.9995003938674927
vt 1.8321311473846436 0.028421223163604736
vt 4.711025238037109 0.5143886208534241
vt 4.951235771179199 0.5182172060012817
vt -0.04286035895347595 0.7588587999343872
vt 4.95713996887207 0.7588587999343872
vt -0.04876434803009033 0.5182172060012817
vt 0.7865266799926758 0.9995003938674927
vt 4.945331573486328 0.27757561206817627
vt 2.361361503601074 0.9245439767837524
vt 0.22572997212409973 0.5182172060012817
vt 0.8778820037841797 0.2548041343688965
vt 1.8451906442642212 0.9565038681030273
vt 3.8445873260498047 0.5145654082298279
vt 2.2008330821990967 0.6465547680854797
vt 3.848679542541504 0.27009522914886475
vt 3.7208199501037598 0.3963356614112854
vt 3.077997922897339 0.5918010473251343
vt 1.8364927768707275 0.5681447684764862
vt 0.860706090927124 0.005053877830505371
vt 3.2237048149108887 0.045651912689208984
g IntHouseDBottom040
s 1
f 1/1/1 2/2/2 3/3/3
f 4/4/4 5/5/5 6/6/6
f 7/7/7 8/8/8 9/9/9
f 4/4/4 7/7/7 9/9/9
f 4/4/4 9/9/9 5/5/5
f 3/3/3 6/6/6 10/10/10
f 11/11/11 12/12/12 13/13/13
f 14/14/14 15/15/15 16/16/16
f 17/17/17 18/18/18 19/19/19
f 20/20/20 21/21/21 22/22/22
f 20/20/20 22/22/22 23/23/23
f 23/23/23 22/22/22 24/24/24
f 22/22/22 21/21/21 24/24/24
f 10/10/10 6/6/6 25/25/25
f 10/10/10 25/25/25 26/26/26
f 27/27/27 11/11/11 14/14/14
f 14/14/14 11/11/11 15/15/15
f 23/23/23 28/28/28 7/7/7
f 28/28/28 8/8/8 7/7/7
f 29/29/29 30/30/30 31/31/31
f 32/32/32 33/33/33 34/34/34
f 32/32/32 34/34/34 35/35/35
f 36/36/36 37/37/37 38/38/38
f 39/39/39 37/37/37 36/36/36
f 40/40/40 41/41/41 42/42/42
f 43/43/43 41/41/41 40/40/40
f 44/44/44 29/29/29 31/31/31
f 44/44/44 45/45/45 29/29/29
f 41/41/41 46/46/46 47/47/47
f 41/41/41 47/47/47 42/42/42
f 9/9/9 8/8/8 48/48/48
f 9/9/9 48/48/48 5/5/5
f 49/49/49 50/50/50 51/51/51
f 52/52/52 50/50/50 49/49/49
f 53/53/53 52/52/52 49/49/49
f 53/53/53 49/49/49 51/51/51
f 54/54/54 55/55/55 56/56/56
f 57/57/57 55/55/55 54/54/54
f 58/58/58 57/57/57 54/54/54
f 58/58/58 54/54/54 56/56/56
f 32/32/32 59/59/59 60/60/60
f 32/32/32 60/60/60 61/61/61
f 62/62/62 30/30/30 63/63/63
f 62/62/62 63/63/63 64/64/64
f 65/65/65 32/32/32 61/61/61
f 33/33/33 32/32/32 65/65/65
f 16/16/16 15/15/15 44/44/44
f 3/3/3 16/16/16 44/44/44
f 11/11/11 13/13/13 15/15/15
f 66/66/66 67/67/67 68/68/68
f 66/66/66 39/39/39 67/67/67
f 15/15/15 45/45/45 44/44/44
f 15/15/15 13/13/13 45/45/45
f 13/13/13 12/12/12 45/45/45
f 2/2/2 16/16/16 3/3/3
f 2/2/2 14/14/14 16/16/16
f 24/24/24 62/62/62 64/64/64
f 24/24/24 21/21/21 62/62/62
f 27/27/27 14/14/14 2/2/2
f 1/1/1 10/10/10 27/27/27
f 20/20/20 44/44/44 21/21/21
f 3/3/3 10/10/10 1/1/1
f 3/3/3 4/4/4 6/6/6
f 6/6/6 69/69/69 25/25/25
f 70/70/70 52/52/52 53/53/53
f 71/71/71 10/10/10 26/26/26
f 27/27/27 10/10/10 71/71/71
f 72/72/72 73/73/73 68/68/68
f 74/74/74 73/73/73 72/72/72
f 25/25/25 69/69/69 26/26/26
f 23/23/23 7/7/7 20/20/20
f 75/75/75 76/76/76 68/68/68
f 77/77/77 76/76/76 75/75/75
f 77/77/77 75/75/75 78/78/78
f 75/75/75 68/68/68 78/78/78
f 79/79/79 80/80/80 55/55/55
f 69/69/69 5/5/5 26/26/26
f 6/6/6 5/5/5 69/69/69
f 20/20/20 7/7/7 4/4/4
f 58/58/58 81/81/81 82/82/82
f 17/17/17 80/80/80 79/79/79
f 58/58/58 56/56/56 83/83/83
f 79/79/79 18/18/18 17/17/17
f 29/29/29 45/45/45 30/30/30
f 83/83/83 56/56/56 84/84/84
f 85/85/85 86/86/86 87/87/87
f 83/83/83 81/81/81 58/58/58
f 59/59/59 32/32/32 35/35/35
f 31/31/31 30/30/30 62/62/62
f 21/21/21 31/31/31 62/62/62
f 44/44/44 31/31/31 21/21/21
f 58/58/58 82/82/82 88/88/88
f 89/89/89 90/90/90 91/91/91
f 46/46/46 41/41/41 92/92/92
f 41/41/41 43/43/43 92/92/92
f 93/93/93 51/51/51 94/94/94
f 95/95/95 96/96/96 50/50/50
f 95/95/95 70/70/70 97/97/97
f 88/88/88 82/82/82 98/98/98
f 88/88/88 98/98/98 79/79/79
f 70/70/70 99/99/99 97/97/97
f 52/52/52 95/95/95 50/50/50
f 70/70/70 95/95/95 52/52/52
f 89/89/89 93/93/93 94/94/94
f 58/58/58 88/88/88 79/79/79
f 79/79/79 55/55/55 57/57/57
f 79/79/79 57/57/57 58/58/58
f 93/93/93 89/89/89 91/91/91
f 74/74/74 100/100/100 101/101/101
f 79/79/79 98/98/98 18/18/18
f 98/98/98 82/82/82 18/18/18
f 74/74/74 102/102/102 100/100/100
f 45/45/45 103/103/103 30/30/30
f 74/74/74 101/101/101 73/73/73
f 73/73/73 78/78/78 68/68/68
f 73/73/73 104/104/104 78/78/78
f 45/45/45 12/12/12 103/103/103
f 39/39/39 66/66/66 37/37/37
f 37/37/37 66/66/66 105/105/105
f 70/70/70 93/93/93 106/106/106
f 70/70/70 106/106/106 99/99/99
f 106/106/106 91/91/91 99/99/99
f 93/93/93 91/91/91 106/106/106
f 93/93/93 70/70/70 53/53/53
f 93/93/93 53/53/53 51/51/51
f 37/37/37 105/105/105 38/38/38
f 27/27/27 2/2/2 1/1/1
g IntHouseDBottom041
s 1
f 107/107/107 108/108/108 109/109/109
f 109/109/109 108/108/108 110/110/110
f 109/109/109 110/110/110 111/111/111
f 107/107/107 109/109/109 111/111/111
f 112/112/112 113/113/113 114/114/114
f 115/115/115 112/112/112 114/114/114
f 115/115/115 116/116/116 112/112/112
f 112/112/112 116/116/116 113/113/113
f 117/117/117 118/118/118 119/119/119
f 119/119/119 118/118/118 120/120/120
f 119/119/119 120/120/120 121/121/121
f 117/117/117 119/119/119 121/121/121
f 120/120/120 122/122/122 123/123/123
f 123/123/123 122/122/122 124/124/124
f 125/125/125 123/123/123 124/124/124
f 125/125/125 120/120/120 123/123/123
f 124/124/124 111/111/111 126/126/126
f 126/126/126 111/111/111 127/127/127
f 126/126/126 127/127/127 128/128/128
f 124/124/124 126/126/126 128/128/128
f 129/129/129 130/130/130 131/131/131
f 129/129/129 132/132/132 130/130/130
f 130/130/130 132/132/132 133/133/133
f 131/131/131 130/130/130 133/133/133
f 134/134/134 135/135/135 133/133/133
f 132/132/132 134/134/134 133/133/133
f 136/136/136 137/137/137 138/138/138
f 136/136/136 131/131/131 137/137/137
f 139/139/139 140/140/140 141/141/141
f 131/131/131 142/142/142 137/137/137
f 143/143/143 144/144/144 141/141/141
f 145/145/145 117/117/117 146/146/146
f 138/138/138 145/145/145 146/146/146
f 138/138/138 142/142/142 145/145/145
f 145/145/145 142/142/142 117/117/117
f 140/140/140 125/125/125 147/147/147
f 147/147/147 125/125/125 148/148/148
f 147/147/147 148/148/148 149/149/149
f 140/140/140 147/147/147 149/149/149
f 150/150/150 151/151/151 152/152/152
f 153/153/153 127/127/127 152/152/152
f 154/154/154 143/143/143 155/155/155
f 154/154/154 155/155/155 153/153/153
f 154/154/154 156/156/156 157/157/157
f 154/154/154 157/157/157 158/158/158
f 144/144/144 159/159/159 160/160/160
f 144/144/144 161/161/161 159/159/159
f 152/152/152 151/151/151 162/162/162
f 133/133/133 163/163/163 164/164/164
f 133/133/133 135/135/135 163/163/163
f 163/163/163 135/135/135 107/107/107
f 108/108/108 165/165/165 110/110/110
f 107/107/107 135/135/135 108/108/108
f 142/142/142 118/118/118 117/117/117
f 142/142/142 164/164/164 118/118/118
f 118/118/118 164/164/164 120/120/120
f 122/122/122 107/107/107 124/124/124
f 120/120/120 164/164/164 122/122/122
f 166/166/166 131/131/131 136/136/136
f 166/166/166 129/129/129 131/131/131
f 110/110/110 165/165/165 167/167/167
f 141/141/141 140/140/140 149/149/149
f 141/141/141 149/149/149 143/143/143
f 131/131/131 164/164/164 142/142/142
f 168/168/168 169/169/169 170/170/170
f 144/144/144 160/160/160 168/168/168
f 168/168/168 160/160/160 169/169/169
f 131/131/131 133/133/133 164/164/164
f 148/148/148 124/124/124 128/128/128
f 128/128/128 127/127/127 153/153/153
f 125/125/125 124/124/124 148/148/148
f 140/140/140 120/120/120 125/125/125
f 113/113/113 117/117/117 121/121/121
f 121/121/121 120/120/120 140/140/140
f 116/116/116 117/117/117 113/113/113
f 146/146/146 117/117/117 116/116/116
f 146/146/146 116/116/116 115/115/115
f 111/111/111 110/110/110 127/127/127
f 107/107/107 111/111/111 124/124/124
f 170/170/170 169/169/169 171/171/171
f 110/110/110 172/172/172 173/173/173
f 137/137/137 142/142/142 138/138/138
f 172/172/172 174/174/174 175/175/175
f 174/174/174 150/150/150 175/175/175
f 175/175/175 150/150/150 152/152/152
f 172/172/172 175/175/175 152/152/152
f 110/110/110 167/167/167 172/172/172
f 167/167/167 174/174/174 172/172/172
f 141/141/141 144/144/144 176/176/176
f 141/141/141 176/176/176 139/139/139
f 139/139/139 176/176/176 170/170/170
f 177/177/177 174/174/174 167/167/167
f 149/149/149 178/178/178 143/143/143
f 149/149/149 148/148/148 178/178/178
f 148/148/148 155/155/155 178/178/178
f 178/178/178 155/155/155 143/143/143
f 148/148/148 128/128/128 179/179/179
f 179/179/179 128/128/128 153/153/153
f 179/179/179 153/153/153 155/155/155
f 148/148/148 179/179/179 155/155/155
f 113/113/113 121/121/121 180/180/180
f 180/180/180 121/121/121 140/140/140
f 180/180/180 140/140/140 139/139/139
f 113/113/113 180/180/180 139/139/139
f 139/139/139 170/170/170 114/114/114
f 127/127/127 110/110/110 173/173/173
f 127/127/127 173/173/173 152/152/152
f 114/114/114 113/113/113 139/139/139
f 173/173/173 172/172/172 152/152/152
f 181/181/181 182/182/182 134/134/134
f 132/132/132 181/181/181 134/134/134
f 158/158/158 143/143/143 154/154/154
f 153/153/153 156/156/156 154/154/154
f 134/134/134 183/183/183 135/135/135
f 134/134/134 182/182/182 183/183/183
f 182/182/182 184/184/184 183/183/183
f 183/183/183 184/184/184 135/135/135
f 185/185/185 186/186/186 184/184/184
f 182/182/182 185/185/185 184/184/184
f 187/187/187 186/186/186 188/188/188
f 165/165/165 187/187/187 188/188/188
f 184/184/184 187/187/187 165/165/165
f 184/184/184 186/186/186 187/187/187
f 135/135/135 184/184/184 189/189/189
f 189/189/189 184/184/184 165/165/165
f 189/189/189 165/165/165 108/108/108
f 135/135/135 189/189/189 108/108/108
f 164/164/164 163/163/163 190/190/190
f 190/190/190 163/163/163 107/107/107
f 190/190/190 107/107/107 122/122/122
f 164/164/164 190/190/190 122/122/122
f 144/144/144 168/168/168 191/191/191
f 191/191/191 168/168/168 170/170/170
f 176/176/176 191/191/191 170/170/170
f 176/176/176 144/144/144 191/191/191
f 170/170/170 171/171/171 192/192/192
f 192/192/192 171/171/171 115/115/115
f 114/114/114 192/192/192 115/115/115
f 114/114/114 170/170/170 192/192/192
f 165/165/165 188/188/188 167/167/167
f 186/186/186 177/177/177 188/188/188
f 188/188/188 177/177/177 167/167/167
g IntHouseDBottom042
s 1
f 193/193/193 194/194/194 195/195/195
f 196/196/196 197/197/197 198/198/198
f 197/197/197 199/199/199 198/198/198
f 198/198/198 199/199/199 200/200/200
f 195/195/195 194/194/194 201/201/201
f 202/202/202 203/203/203 204/204/204
f 205/205/205 206/206/206 207/207/207
f 208/208/208 209/209/209 210/210/210
f 211/211/211 212/212/212 213/213/213
f 200/200/200 211/211/211 213/213/213
f 211/211/211 214/214/214 212/212/212
f 199/199/199 215/215/215 200/200/200
f 216/216/216 217/217/217 214/214/214
f 218/218/218 219/219/219 216/216/216
f 216/216/216 219/219/219 217/217/217
f 220/220/220 221/221/221 222/222/222
f 223/223/223 224/224/224 225/225/225
f 226/226/226 227/227/227 228/228/228
f 229/229/229 205/205/205 230/230/230
f 202/202/202 204/204/204 226/226/226
f 226/226/226 204/204/204 227/227/227
f 231/231/231 232/232/232 233/233/233
f 233/233/233 232/232/232 234/234/234
f 235/235/235 236/236/236 197/197/197
f 236/236/236 237/237/237 197/197/197
f 233/233/233 234/234/234 238/238/238
f 231/231/231 233/233/233 238/238/238
f 239/239/239 240/240/240 218/218/218
f 241/241/241 242/242/242 243/243/243
f 244/244/244 242/242/242 241/241/241
f 245/245/245 244/244/244 241/241/241
f 232/232/232 246/246/246 234/234/234
f 245/245/245 241/241/241 243/243/243
f 244/244/244 247/247/247 248/248/248
f 232/232/232 249/249/249 246/246/246
f 250/250/250 251/251/251 252/252/252
f 252/252/252 251/251/251 228/228/228
f 253/253/253 250/250/250 252/252/252
f 217/217/217 250/250/250 253/253/253
f 249/249/249 217/217/217 253/253/253
f 249/249/249 254/254/254 246/246/246
f 250/250/250 202/202/202 251/251/251
f 255/255/255 256/256/256 257/257/257
f 246/246/246 254/254/254 234/234/234
f 258/258/258 259/259/259 260/260/260
f 240/240/240 250/250/250 219/219/219
f 219/219/219 250/250/250 217/217/217
f 221/221/221 261/261/261 262/262/262
f 218/218/218 240/240/240 219/219/219
f 263/263/263 264/264/264 265/265/265
f 221/221/221 262/262/262 238/238/238
f 266/266/266 221/221/221 220/220/220
f 267/267/267 264/264/264 263/263/263
f 197/197/197 237/237/237 199/199/199
f 268/268/268 269/269/269 221/221/221
f 262/262/262 231/231/231 238/238/238
f 266/266/266 268/268/268 221/221/221
f 213/213/213 268/268/268 266/266/266
f 235/235/235 197/197/197 264/264/264
f 269/269/269 261/261/261 221/221/221
f 269/269/269 212/212/212 261/261/261
f 231/231/231 261/261/261 232/232/232
f 270/270/270 235/235/235 264/264/264
f 230/230/230 271/271/271 256/256/256
f 230/230/230 205/205/205 271/271/271
f 268/268/268 212/212/212 269/269/269
f 272/272/272 273/273/273 274/274/274
f 275/275/275 225/225/225 273/273/273
f 275/275/275 273/273/273 272/272/272
f 276/276/276 277/277/277 278/278/278
f 279/279/279 277/277/277 276/276/276
f 272/272/272 274/274/274 280/280/280
f 272/272/272 280/280/280 238/238/238
f 256/256/256 271/271/271 281/281/281
f 281/281/281 271/271/271 282/282/282
f 281/281/281 282/282/282 257/257/257
f 256/256/256 281/281/281 257/257/257
f 283/283/283 284/284/284 285/285/285
f 282/282/282 279/279/279 286/286/286
f 286/286/286 279/279/279 287/287/287
f 257/257/257 286/286/286 287/287/287
f 257/257/257 282/282/282 286/286/286
f 261/261/261 249/249/249 232/232/232
f 283/283/283 255/255/255 284/284/284
f 255/255/255 257/257/257 284/284/284
f 284/284/284 257/257/257 287/287/287
f 194/194/194 258/258/258 288/288/288
f 289/289/289 290/290/290 270/270/270
f 290/290/290 235/235/235 270/270/270
f 285/285/285 284/284/284 287/287/287
f 273/273/273 291/291/291 274/274/274
f 273/273/273 225/225/225 291/291/291
f 292/292/292 265/265/265 293/293/293
f 293/293/293 265/265/265 213/213/213
f 222/222/222 221/221/221 294/294/294
f 294/294/294 221/221/221 238/238/238
f 223/223/223 225/225/225 275/275/275
f 295/295/295 275/275/275 272/272/272
f 295/295/295 223/223/223 275/275/275
f 225/225/225 255/255/255 296/296/296
f 296/296/296 255/255/255 283/283/283
f 213/213/213 266/266/266 297/297/297
f 297/297/297 266/266/266 220/220/220
f 298/298/298 200/200/200 299/299/299
f 196/196/196 298/298/298 299/299/299
f 196/196/196 198/198/198 298/298/298
f 298/298/298 198/198/198 200/200/200
f 300/300/300 234/234/234 301/301/301
f 272/272/272 300/300/300 301/301/301
f 238/238/238 300/300/300 272/272/272
f 238/238/238 234/234/234 300/300/300
f 302/302/302 201/201/201 303/303/303
f 304/304/304 302/302/302 303/303/303
f 304/304/304 195/195/195 302/302/302
f 302/302/302 195/195/195 201/201/201
f 206/206/206 305/305/305 304/304/304
f 206/206/206 306/306/306 305/305/305
f 306/306/306 195/195/195 305/305/305
f 305/305/305 195/195/195 304/304/304
f 262/262/262 261/261/261 231/231/231
f 249/249/249 307/307/307 254/254/254
f 247/247/247 229/229/229 230/230/230
f 237/237/237 239/239/239 218/218/218
f 308/308/308 243/243/243 309/309/309
f 310/310/310 256/256/256 255/255/255
f 208/208/208 308/308/308 209/209/209
f 243/243/243 310/310/310 224/224/224
f 258/258/258 260/260/260 288/288/288
f 288/288/288 260/260/260 311/311/311
f 260/260/260 259/259/259 311/311/311
f 303/303/303 201/201/201 277/277/277
f 214/214/214 217/217/217 212/212/212
f 304/304/304 303/303/303 312/312/312
f 303/303/303 277/277/277 312/312/312
f 313/313/313 312/312/312 282/282/282
f 247/247/247 230/230/230 248/248/248
f 248/248/248 230/230/230 256/256/256
f 304/304/304 312/312/312 313/313/313
f 261/261/261 217/217/217 249/249/249
f 207/207/207 313/313/313 282/282/282
f 314/314/314 278/278/278 315/315/315
f 263/263/263 265/265/265 292/292/292
f 212/212/212 217/217/217 261/261/261
f 316/316/316 267/267/267 317/317/317
f 317/317/317 267/267/267 263/263/263
f 264/264/264 196/196/196 265/265/265
f 264/264/264 197/197/197 196/196/196
f 314/314/314 315/315/315 318/318/318
f 208/208/208 319/319/319 244/244/244
f 319/319/319 247/247/247 244/244/244
f 320/320/320 264/264/264 267/267/267
f 321/321/321 320/320/320 267/267/267
f 270/270/270 320/320/320 321/321/321
f 270/270/270 264/264/264 320/320/320
f 315/315/315 322/322/322 318/318/318
f 321/321/321 267/267/267 323/323/323
f 323/323/323 267/267/267 316/316/316
f 278/278/278 324/324/324 322/322/322
f 242/242/242 248/248/248 256/256/256
f 244/244/244 248/248/248 242/242/242
f 276/276/276 278/278/278 314/314/314
f 278/278/278 322/322/322 315/315/315
f 287/287/287 279/279/279 325/325/325
f 325/325/325 279/279/279 276/276/276
f 289/289/289 270/270/270 326/326/326
f 295/295/295 327/327/327 223/223/223
f 327/327/327 224/224/224 223/223/223
f 326/326/326 270/270/270 321/321/321
f 288/288/288 311/311/311 324/324/324
f 196/196/196 299/299/299 265/265/265
f 265/265/265 299/299/299 213/213/213
f 299/299/299 200/200/200 213/213/213
f 251/251/251 226/226/226 228/228/228
f 328/328/328 324/324/324 278/278/278
f 277/277/277 328/328/328 278/278/278
f 277/277/277 288/288/288 328/328/328
f 328/328/328 288/288/288 324/324/324
f 271/271/271 207/207/207 282/282/282
f 271/271/271 205/205/205 207/207/207
f 213/213/213 212/212/212 268/268/268
f 202/202/202 226/226/226 251/251/251
f 329/329/329 304/304/304 313/313/313
f 207/207/207 329/329/329 313/313/313
f 206/206/206 329/329/329 207/207/207
f 206/206/206 304/304/304 329/329/329
f 224/224/224 310/310/310 330/330/330
f 330/330/330 310/310/310 255/255/255
f 225/225/225 330/330/330 255/255/255
f 225/225/225 224/224/224 330/330/330
f 208/208/208 244/244/244 245/245/245
f 331/331/331 214/214/214 211/211/211
f 245/245/245 243/243/243 308/308/308
f 208/208/208 245/245/245 308/308/308
f 309/309/309 332/332/332 209/209/209
f 308/308/308 309/309/309 209/209/209
f 309/309/309 243/243/243 332/332/332
f 200/200/200 331/331/331 211/211/211
f 215/215/215 331/331/331 200/200/200
f 215/215/215 214/214/214 331/331/331
f 237/237/237 333/333/333 199/199/199
f 237/237/237 218/218/218 333/333/333
f 333/333/333 218/218/218 215/215/215
f 199/199/199 333/333/333 215/215/215
f 334/334/334 214/214/214 215/215/215
f 218/218/218 334/334/334 215/215/215
f 218/218/218 216/216/216 334/334/334
f 334/334/334 216/216/216 214/214/214
f 307/307/307 335/335/335 228/228/228
f 307/307/307 253/253/253 335/335/335
f 243/243/243 242/242/242 336/336/336
f 253/253/253 252/252/252 335/335/335
f 307/307/307 228/228/228 254/254/254
f 335/335/335 252/252/252 228/228/228
f 336/336/336 242/242/242 256/256/256
f 336/336/336 256/256/256 310/310/310
f 249/249/249 253/253/253 307/307/307
f 243/243/243 336/336/336 310/310/310
f 201/201/201 288/288/288 277/277/277
f 194/194/194 288/288/288 201/201/201
f 337/337/337 306/306/306 206/206/206
f 282/282/282 312/312/312 279/279/279
f 312/312/312 277/277/277 279/279/279
f 205/205/205 337/337/337 206/206/206
f 338/338/338 202/202/202 250/250/250
f 240/240/240 338/338/338 250/250/250
f 306/306/306 193/193/193 195/195/195
f 272/272/272 301/301/301 295/295/295
