# Exported using wow.export v0.2.19
o 21142_IntHouseFMid04.obj
v -222.9602508544922 2.202200412750244 -648.9649658203125
v -221.92495727539062 2.775559902191162 -650.4659423828125
v -220.10546875 2.4888806343078613 -650.0167236328125
v -234.11537170410156 2.2022018432617188 -661.4857177734375
v -233.8869171142578 3.34891939163208 -657.7764892578125
v -235.5990447998047 2.4888808727264404 -658.8257446289062
v -216.17086791992188 1.628843069076538 -661.2923583984375
v -218.2464141845703 2.488882064819336 -661.140869140625
v -217.45994567871094 2.202202796936035 -662.695068359375
v -217.74380493164062 2.2022018432617188 -658.1838989257812
v -220.32196044921875 3.348921060562134 -660.9893798828125
v -220.46389770507812 3.3489208221435547 -658.7337646484375
v -237.31117248535156 1.6288422346115112 -659.875
v -237.1969451904297 2.2022008895874023 -658.0203857421875
v -232.34613037109375 3.3489198684692383 -659.5091552734375
v -226.5992431640625 2.775559425354004 -649.8634033203125
v -227.4241943359375 2.202200412750244 -648.389404296875
v -230.2382354736328 3.3489184379577637 -650.7617797851562
v -219.32125854492188 1.6288416385650635 -648.0665283203125
v -221.9656982421875 1.3421618938446045 -647.0418090820312
v -224.61013793945312 1.055482268333435 -646.01708984375
v -225.19223022460938 2.202200412750244 -648.6771850585938
v -218.28598022460938 2.2022011280059814 -649.5675048828125
v -240.50697326660156 1.0554826259613037 -658.2642822265625
v -229.07406616210938 1.055482029914856 -645.441650390625
v -231.3060302734375 1.0554819107055664 -645.1539306640625
v -231.88812255859375 2.202199935913086 -647.81396484375
v -238.76473999023438 1.0554823875427246 -654.9147338867188
v -240.50697326660156 1.0554826259613037 -658.2642822265625
v -237.1969451904297 2.2022008895874023 -658.0203857421875
v -214.59793090820312 1.055484414100647 -664.4008178710938
v -233.5380096435547 1.0554817914962769 -644.8661499023438
v -229.65615844726562 2.202200174331665 -648.1016845703125
v -218.13229370117188 1.055484414100647 -666.1761474609375
v -214.59793090820312 1.055484414100647 -664.4008178710938
v -217.45994567871094 2.202202796936035 -662.695068359375
v -215.68226623535156 1.0554827451705933 -647.1680908203125
v -226.84210205078125 1.0554821491241455 -645.7293701171875
v -237.02249145507812 1.0554821491241455 -651.565185546875
v -235.4547119140625 2.2022008895874023 -654.6708374023438
v -215.65548706054688 1.342163324356079 -658.5383911132812
v -215.14010620117188 1.0554835796356201 -655.784423828125
v -233.71246337890625 2.202200412750244 -651.3212890625
v -225.20101928710938 1.055484414100647 -669.7266845703125
v -221.66665649414062 1.055484414100647 -667.951416015625
v -224.52867126464844 2.202202796936035 -666.2456665039062
v -218.014892578125 2.2022016048431396 -653.875732421875
v -215.41119384765625 1.055483102798462 -651.4762573242188
v -218.1504364013672 2.2022013664245605 -651.7216186523438
v -220.9943084716797 2.202202796936035 -664.4703979492188
v -220.88967895507812 3.348919630050659 -651.9669799804688
v -218.28598022460938 2.2022013664245605 -649.5675048828125
v -232.0625762939453 3.348918914794922 -654.2691650390625
v -230.2382354736328 3.3489184379577637 -650.7617797851562
v -217.8793487548828 2.2022018432617188 -656.02978515625
v -219.31674194335938 2.7755608558654785 -655.075439453125
v -231.88812255859375 2.202200174331665 -647.81396484375
v -224.02285766601562 3.348921060562134 -662.8482666015625
v -227.72377014160156 3.348921060562134 -664.7072143554688
v -215.27565002441406 1.055483341217041 -653.63037109375
v -235.9661865234375 1.342162847518921 -662.3790283203125
v -234.62118530273438 1.0554835796356201 -664.8831176757812
v -228.22958374023438 2.202202796936035 -668.1046142578125
v -232.6439208984375 2.202202081680298 -663.1404418945312
v -231.1724853515625 2.202202320098877 -664.795166015625
v -230.91957092285156 2.7755613327026367 -663.096435546875
v -229.70101928710938 2.202202558517456 -666.4498291015625
v -228.22958374023438 2.202202796936035 -668.1046142578125
v -227.72377014160156 3.348921060562134 -664.7072143554688
v -231.67828369140625 1.0554840564727783 -668.1925048828125
v -233.1497344970703 1.0554838180541992 -666.537841796875
v -230.2068328857422 1.0554842948913574 -669.8472290039062
v -228.73538208007812 1.055484414100647 -671.501953125
v -222.42532348632812 2.775561809539795 -663.6175537109375
v -226.63201904296875 1.6288435459136963 -668.873779296875
v -228.73538208007812 1.055484414100647 -671.501953125
v -233.625244140625 1.6288411617279053 -648.09375
v -233.5380096435547 1.0554817914962769 -644.8661499023438
v -235.28024291992188 1.0554819107055664 -648.2156982421875
v -233.7996826171875 2.775559902191162 -654.5488891601562
v -233.8869171142578 3.34891939163208 -657.7764892578125
v -219.2271270751953 2.202202796936035 -663.582763671875
v -236.32583618164062 2.2022008895874023 -656.3455810546875
v -215.54672241210938 1.0554828643798828 -649.3221435546875
v -215.68226623535156 1.0554827451705933 -647.1680908203125
v -225.56396484375 3.348918914794922 -651.3643798828125
v -224.77975463867188 2.488879919052124 -649.4141845703125
v -223.22682189941406 3.34891939163208 -651.6656494140625
v -224.26211547851562 2.775559663772583 -650.1646728515625
v -220.88967895507812 3.348919630050659 -651.9669799804688
v -236.09263610839844 1.055483341217041 -663.2283935546875
v -228.49417114257812 3.3489208221435547 -663.8408203125
v -229.26455688476562 3.3489208221435547 -662.9744873046875
v -222.1724090576172 3.348921060562134 -661.9188232421875
v -220.32196044921875 3.348921060562134 -660.9893798828125
v -232.97474670410156 3.348919153213501 -656.0228271484375
v -214.7334747314453 1.0554842948913574 -662.2467041015625
v -214.8690185546875 1.0554840564727783 -660.0926513671875
v -215.126708984375 1.1988239288330078 -661.4696044921875
v -239.0355224609375 1.0554828643798828 -659.9190063476562
v -237.5640869140625 1.055483102798462 -661.57373046875
v -238.236572265625 1.1988227367401123 -660.3216552734375
v -217.91424560546875 1.0554826259613037 -646.88037109375
v -220.14620971679688 1.0554825067520142 -646.5925903320312
v -218.823974609375 1.198822259902954 -647.10498046875
v -236.1513671875 1.055482029914856 -649.8904418945312
v -220.65814208984375 2.775561809539795 -662.7298583984375
v -219.7745361328125 2.775561809539795 -662.2860717773438
v -218.89096069335938 2.775561809539795 -661.8422241210938
v -215.0045623779297 1.0554838180541992 -657.9385375976562
v -222.378173828125 1.0554823875427246 -646.3048095703125
v -223.09353637695312 2.775559902191162 -650.3153076171875
v -218.89096069335938 2.775561809539795 -661.8422241210938
v -219.58782958984375 2.7755603790283203 -650.7672119140625
v -219.58782958984375 2.7755603790283203 -650.7672119140625
v -232.51747131347656 2.4888815879821777 -662.2910766601562
v -232.46035766601562 2.7755610942840576 -661.36376953125
v -230.8053436279297 3.3489203453063965 -661.2418212890625
v -227.90109252929688 3.3489186763763428 -651.0631103515625
v -219.1748046875 2.7755610942840576 -657.3310546875
v -220.60581970214844 3.3489203453063965 -656.4781494140625
v -220.74774169921875 3.3489198684692383 -654.2225341796875
v -219.6011505126953 1.5557647943496704 -662.2708740234375
v -220.53831481933594 1.0554839372634888 -662.558837890625
v -220.0854034423828 2.0560455322265625 -661.5072631835938
v -219.15536499023438 1.5557646751403809 -661.6683349609375
v -233.14198303222656 1.0554829835891724 -658.2190551757812
v -234.12535095214844 1.055483102798462 -659.3502807617188
v -233.913818359375 1.7069636583328247 -658.6121826171875
v -233.70228576660156 2.3584442138671875 -657.8740844726562
v -234.6036834716797 1.7069635391235352 -658.3193359375
v -221.2544708251953 1.0554828643798828 -651.2854614257812
v -220.9941864013672 1.0554827451705933 -649.8093872070312
v -220.8334503173828 1.6844415664672852 -650.5259399414062
v -220.67271423339844 2.3134002685546875 -651.2424926757812
v -219.50987243652344 1.0554828643798828 -649.6007690429688
v -233.80812072753906 1.7069635391235352 -657.4041748046875
v -233.91395568847656 1.0554828643798828 -656.9342041015625
v -234.5383758544922 1.7069635391235352 -657.57275390625
v -220.30186462402344 1.6844415664672852 -651.6158447265625
v -219.93101501464844 1.0554829835891724 -651.9891357421875
v -219.76275634765625 1.6844415664672852 -651.09521484375
v -228.03280639648438 1.8200135231018066 -665.1629638671875
v -227.96749877929688 1.8200132846832275 -664.4163818359375
v -227.48008728027344 2.584542989730835 -664.2782592773438
v -228.4549102783203 1.0554836988449097 -664.554443359375
v -226.9944305419922 1.0554838180541992 -664.21728515625
v -219.1168975830078 1.0554840564727783 -663.034423828125
v -226.22244262695312 1.0554839372634888 -665.5020751953125
v -227.20579528808594 1.0554840564727783 -666.63330078125
v -226.85125732421875 1.8200135231018066 -664.89013671875
v -235.3744659423828 1.0554827451705933 -657.2713623046875
v -230.11822509765625 1.0554825067520142 -650.3726806640625
v -229.46115112304688 1.0554825067520142 -651.7199096679688
v -230.4008026123047 1.9127349853515625 -652.00537109375
v -218.85281372070312 1.0554829835891724 -650.9479370117188
v -231.60250854492188 1.0554823875427246 -650.581298828125
v -218.22531127929688 1.0554839372634888 -661.8294677734375
v -220.52523803710938 1.0554838180541992 -661.0599365234375
v -219.09571838378906 1.0554838180541992 -660.6091918945312
v -228.5855255126953 1.0554839372634888 -666.0476684570312
v -235.5050811767578 1.0554829835891724 -658.7645874023438
v -231.86279296875 1.0554825067520142 -652.0574340820312
v -230.53936767578125 1.0554826259613037 -652.7610473632812
vn -0.1051957905292511 -0.6020346283912659 -0.7915100455284119
vn -0.39663800597190857 -0.5462119579315186 -0.7377878427505493
vn -0.51442551612854 -0.5375937819480896 -0.6681012511253357
vn 0.5705912113189697 -0.5864521861076355 0.5748907327651978
vn 0.8953348398208618 -0.4296667277812958 0.11731144785881042
vn 0.8166817426681519 -0.5257128477096558 0.2380269169807434
vn -0.7779310345649719 -0.610857367515564 0.14722947776317596
vn -0.7938569188117981 -0.5276134610176086 0.302349328994751
vn -0.7482268214225769 -0.506100058555603 0.4289749264717102
vn -0.7931334376335144 -0.5965151190757751 -0.12291839718818665
vn -0.7849785089492798 -0.42788413166999817 0.44802218675613403
vn -0.8521983027458191 -0.4908503592014313 0.18117383122444153
vn 0.7135418653488159 -0.6059963703155518 0.3516055643558502
vn 0.8540780544281006 -0.5082000494003296 0.11082974821329117
vn 0.7931482791900635 -0.4853482246398926 0.3679034113883972
vn 0.15835410356521606 -0.541500985622406 -0.8256517052650452
vn 0.149957537651062 -0.5812657475471497 -0.7997767329216003
vn 0.41014009714126587 -0.4407399892807007 -0.7984568476676941
vn -0.360930860042572 -0.6178440451622009 -0.6985683441162109
vn -0.24398145079612732 -0.6493192315101624 -0.7203176617622375
vn -0.12333795428276062 -0.6709631681442261 -0.7311607599258423
vn 0.022566692903637886 -0.596562385559082 -0.8022492527961731
vn -0.6232323050498962 -0.5161412358283997 -0.5875200033187866
vn 0.8060641884803772 -0.5827127695083618 0.10347121953964233
vn 0.12993671000003815 -0.6477442979812622 -0.7506954669952393
vn 0.254424512386322 -0.6201254725456238 -0.7421001195907593
vn 0.39379215240478516 -0.5133104920387268 -0.762522280216217
vn 0.7586764097213745 -0.6390711069107056 -0.1264837384223938
vn 0.8060641884803772 -0.5827127695083618 0.10347121953964233
vn 0.8540780544281006 -0.5082000494003296 0.11082974821329117
vn -0.7056155204772949 -0.5803524851799011 0.4065682590007782
vn 0.3747565448284149 -0.5823774933815002 -0.7213833332061768
vn 0.274311363697052 -0.5528540015220642 -0.7868327498435974
vn -0.5244570970535278 -0.6399872899055481 0.5615701675415039
vn -0.7056155204772949 -0.5803524851799011 0.4065682590007782
vn -0.7482268214225769 -0.506100058555603 0.4289749264717102
vn -0.5898528695106506 -0.5877547264099121 -0.5537309646606445
vn 0.003326545702293515 -0.6647830009460449 -0.7470291256904602
vn 0.6670570373535156 -0.6581708192825317 -0.34906455874443054
vn 0.8146558403968811 -0.5672157406806946 -0.12083973735570908
vn -0.7645610570907593 -0.6437656879425049 0.031813036650419235
vn -0.7400417923927307 -0.6672862768173218 -0.08406732231378555
vn 0.7330105304718018 -0.5840831995010376 -0.34862926602363586
vn -0.0799635648727417 -0.6420233845710754 0.7625036239624023
vn -0.3116213381290436 -0.6609666347503662 0.6826531291007996
vn -0.3648008108139038 -0.5875465273857117 0.7222946286201477
vn -0.7279421091079712 -0.5794052481651306 -0.36659207940101624
vn -0.6867057085037231 -0.6480542421340942 -0.32933416962623596
vn -0.6802372932434082 -0.5532336831092834 -0.4808428883552551
vn -0.5726893544197083 -0.5686424970626831 0.5904849767684937
vn -0.6520095467567444 -0.44071635603904724 -0.6169705390930176
vn -0.6232323050498962 -0.5161412358283997 -0.5875200033187866
vn 0.7632096409797668 -0.5088590979576111 -0.398212730884552
vn 0.41014009714126587 -0.4407399892807007 -0.7984568476676941
vn -0.7666882276535034 -0.5927150249481201 -0.2467345893383026
vn -0.7501067519187927 -0.5383787751197815 -0.38404202461242676
vn 0.39379215240478516 -0.5133104920387268 -0.762522280216217
vn -0.35827532410621643 -0.5036952495574951 0.7860852479934692
vn 0.17666630446910858 -0.42733514308929443 0.8866643905639648
vn -0.719092607498169 -0.6629425287246704 -0.2083577811717987
vn 0.6347102522850037 -0.6390393376350403 0.4344783425331116
vn 0.5468823313713074 -0.6630246043205261 0.5111928582191467
vn 0.1672910898923874 -0.5079314708709717 0.8449966907501221
vn 0.4779208302497864 -0.5824416279792786 0.6575359106063843
vn 0.37787410616874695 -0.569441556930542 0.7300325036048889
vn 0.38731515407562256 -0.5254616737365723 0.7575466632843018
vn 0.2740703225135803 -0.5439516305923462 0.7930964827537537
vn 0.1672910898923874 -0.5079314708709717 0.8449966907501221
vn 0.17666630446910858 -0.42733514308929443 0.8866643905639648
vn 0.362747460603714 -0.643247663974762 0.6742749214172363
vn 0.4583168029785156 -0.6581650376319885 0.5972976684570312
vn 0.26163482666015625 -0.6185005903244019 0.7409482598304749
vn 0.15652403235435486 -0.5843018293380737 0.7962986826896667
vn -0.5959138870239258 -0.5262829661369324 0.6065582036972046
vn -0.10794682800769806 -0.6073518991470337 0.7870648503303528
vn 0.15652403235435486 -0.5843018293380737 0.7962986826896667
vn 0.5733721256256104 -0.603751540184021 -0.5538306832313538
vn 0.3747565448284149 -0.5823774933815002 -0.7213833332061768
vn 0.5365474820137024 -0.6388984322547913 -0.5512945055961609
vn 0.8428196310997009 -0.5247095227241516 -0.11972840875387192
vn 0.8953348398208618 -0.4296667277812958 0.11731144785881042
vn -0.6652585864067078 -0.5425319075584412 0.5129231810569763
vn 0.8399093747138977 -0.5427066683769226 -0.004657702520489693
vn -0.6433961987495422 -0.6228580474853516 -0.4450721740722656
vn -0.5898528695106506 -0.5877547264099121 -0.5537309646606445
vn -0.14355088770389557 -0.5231493711471558 -0.8400642275810242
vn 0.026829464361071587 -0.5771523714065552 -0.8161956071853638
vn -0.41443848609924316 -0.5021153092384338 -0.7590263485908508
vn -0.12452990561723709 -0.5633002519607544 -0.8168140649795532
vn -0.6520095467567444 -0.44071635603904724 -0.6169705390930176
vn 0.6270906329154968 -0.6577521562576294 0.4172762334346771
vn 0.30099624395370483 -0.4601476490497589 0.8352636098861694
vn 0.41955411434173584 -0.48413610458374023 0.7678453326225281
vn -0.5945188999176025 -0.48444318771362305 0.6417649388313293
vn -0.7849785089492798 -0.42788413166999817 0.44802218675613403
vn 0.8610146641731262 -0.4872250556945801 -0.14582672715187073
vn -0.7318687438964844 -0.6172007918357849 0.2888447642326355
vn -0.7464810013771057 -0.6442319750785828 0.1665269136428833
vn -0.7490707039833069 -0.6237013339996338 0.22335995733737946
vn 0.7576794624328613 -0.6172870993614197 0.2118457704782486
vn 0.6977161169052124 -0.6424282193183899 0.3169829845428467
vn 0.7335345149040222 -0.6220247745513916 0.2738836705684662
vn -0.48316606879234314 -0.6242371797561646 -0.6139044165611267
vn -0.3685871660709381 -0.65052330493927 -0.6640503406524658
vn -0.4250258207321167 -0.6305669546127319 -0.6494138240814209
vn 0.6062365174293518 -0.6533132791519165 -0.4534965753555298
vn -0.686178982257843 -0.5036545395851135 0.5248719453811646
vn -0.728007972240448 -0.487141489982605 0.4823872745037079
vn -0.7673541903495789 -0.4674499034881592 0.4389284551143646
vn -0.7492198944091797 -0.6610161066055298 0.04156032204627991
vn -0.24798788130283356 -0.6661839485168457 -0.7033498287200928
vn -0.26335233449935913 -0.5595868229866028 -0.7858169078826904
vn -0.7673541903495789 -0.4674499034881592 0.4389284551143646
vn -0.6382102966308594 -0.47887101769447327 -0.6028019785881042
vn -0.6382102966308594 -0.47887101769447327 -0.6028019785881042
vn 0.4832412302494049 -0.5609344244003296 0.6721833348274231
vn 0.601301372051239 -0.5459408164024353 0.5834255218505859
vn 0.6304137110710144 -0.5039787292480469 0.5904099941253662
vn 0.13887673616409302 -0.5021275877952576 -0.8535696268081665
vn -0.8234133720397949 -0.5563467741012573 -0.11166378855705261
vn -0.8515053391456604 -0.5147001147270203 -0.10011246800422668
vn -0.7829548120498657 -0.49753275513648987 -0.37342068552970886
vn 0.018554551526904106 0.9259001016616821 -0.37731248140335083
vn -0.8050277829170227 0.19358201324939728 -0.560763955116272
vn -0.1450134515762329 0.9863453507423401 0.07806339859962463
vn 0.32017597556114197 0.9453449845314026 0.061727527529001236
vn 0.9867132306098938 -0.1435302048921585 -0.076131671667099
vn 0.23273788392543793 0.2703811228275299 -0.9341986775398254
vn 0.2511945366859436 0.7922534942626953 -0.5560896396636963
vn 0.16524021327495575 0.9848194718360901 0.05316242203116417
vn -0.2553786337375641 0.9453538060188293 -0.20270192623138428
vn -0.8909178376197815 -0.11585012823343277 -0.43914029002189636
vn -0.6871505975723267 0.2770034372806549 0.6716346740722656
vn -0.51247638463974 0.7867753505706787 0.3440241813659668
vn -0.13398657739162445 0.9836410284042358 -0.12040725350379944
vn 0.32488277554512024 0.6585779786109924 0.6787681579589844
vn 0.35340332984924316 0.6945697069168091 0.6266410946846008
vn 0.38305509090423584 0.09278588742017746 0.9190536141395569
vn -0.2239546924829483 0.9071248173713684 0.35632678866386414
vn -0.0014007327845320106 0.7046520113945007 -0.7095516920089722
vn 0.1318049430847168 0.11385093629360199 -0.9847158789634705
vn 0.3758104741573334 0.9085785746574402 -0.18234992027282715
vn -0.42727145552635193 0.9014420509338379 -0.06957926601171494
vn -0.5085701942443848 0.6262684464454651 0.590884268283844
vn 0.005975794512778521 0.9721067547798157 0.2344626933336258
vn -0.7630343437194824 -0.03984234482049942 0.6451287865638733
vn 0.38005441427230835 -0.27543091773986816 0.8830042481422424
vn 0.17771074175834656 0.6452986598014832 -0.7429727911949158
vn 0.9663445949554443 0.2525428533554077 -0.04899196699261665
vn 0.1951642632484436 0.6937105655670166 -0.693308413028717
vn 0.6174772381782532 0.7777202725410461 0.11778417229652405
vn -0.5572913289070129 0.6031771302223206 0.5706169605255127
vn 0.41074758768081665 0.6723525524139404 0.615815281867981
vn 0.9727765321731567 0.16916488111019135 -0.15839534997940063
vn 0.07740587741136551 0.9890642166137695 -0.12553991377353668
vn 0.7843775749206543 0.588777482509613 -0.19517402350902557
vn -0.47031423449516296 0.7664918899536133 0.4373725354671478
vn 0.7154552340507507 0.697929322719574 0.031913500279188156
vn -0.8021335005760193 -0.05948949232697487 0.5941740870475769
vn 0.2758600115776062 0.31179556250572205 0.9092220664024353
vn -0.7386873364448547 0.5737418532371521 -0.353781521320343
vn -0.6136993169784546 0.6752743124961853 -0.40911826491355896
vn -0.8166678547859192 0.39618784189224243 -0.41962939500808716
vn 0.1496579647064209 -0.03859908878803253 -0.9879841208457947
vt 0.5 0.5
vt 0.25 0.75
vt 0.125 0.625
vt 0.5 0.5
vt 0 1
vt 0.125 0.625
vt 0.25 0.25
vt 0.125 0.625
vt 0 0.5
vt 0.5 0.5
vt 0 1
vt 0.25 1
vt 0.25 0.25
vt 0 0.5
vt 0.25 1
vt 0.75 0.75
vt 0.75 0.5
vt 1 1
vt 0.25 0.25
vt 0.375 0.125
vt 0.5 0
vt 0.625 0.5
vt 0 0.5
vt 0 0
vt 0.75 0
vt 0.875 0
vt 1 0.5
vt 0.75 0
vt 1 0
vt 1 0.5
vt 0 0
vt 1 0
vt 0.875 0.5
vt 0.75 0
vt 1 0
vt 1 0.5
vt 0 0
vt 0.625 0
vt 0.5 0
vt 0.75 0.5
vt 0.375 0.125
vt 0.5 0
vt 0.5 0.5
vt 0.25 0
vt 0.5 0
vt 0.5 0.5
vt 0.75 0.5
vt 0.75 0
vt 0.875 0.5
vt 0.75 0.5
vt 1 1
vt 1 0.5
vt 0.5 1
vt 0 1
vt 0.625 0.5
vt 0.75 0.75
vt 0 0.5
vt 0.5 1
vt 0 1
vt 0.625 0
vt 0.375 0.125
vt 0.5 0
vt 0 0.5
vt 0.625 0.5
vt 0.75 0.5
vt 0.75 0.75
vt 0.875 0.5
vt 1 0.5
vt 1 1
vt 0.75 0
vt 0.625 0
vt 0.875 0
vt 1 0
vt 0.75 0.75
vt 0.25 0.25
vt 0 0
vt 0.25 0.25
vt 0 0
vt 0.25 0
vt 0.75 0.75
vt 1 1
vt 0.875 0.5
vt 0.875 0.5
vt 0.875 0
vt 1 0
vt 0.5 1
vt 0.625 0.625
vt 0.25 1
vt 0.5 0.75
vt 0 1
vt 0.375 0
vt 0.875 1
vt 0.75 1
vt 0.75 1
vt 1 1
vt 0.75 1
vt 0.125 0
vt 0.25 0
vt 0.1875 0.0625
vt 0.125 0
vt 0.25 0
vt 0.1875 0.0625
vt 0.125 0
vt 0.25 0
vt 0.1875 0.0625
vt 0.375 0
vt 0.875 0.75
vt 0.9375 0.75
vt 1 0.75
vt 0.375 0
vt 0.375 0
vt 0.375 0.75
vt 0 0.75
vt 0 0.75
vt 1 0.75
vt 0.625 0.625
vt 0.5 0.75
vt 0.5 1
vt 0.75 1
vt 0.5 0.75
vt 0.5 1
vt 0.75 1
vt 0.516410231590271 0.7314151525497437
vt 0.0004998147487640381 0.8087083697319031
vt 0.41490405797958374 0.4633297920227051
vt 0.7072023153305054 0.48166483640670776
vt 0.000499427318572998 0.19129157066345215
vt 0.6179158687591553 0.0004994869232177734
vt 0.5245023369789124 0.24521273374557495
vt 0.4310888350009918 0.48992598056793213
vt 0.715294599533081 0.4949628710746765
vt 0.0004996359348297119 0.1912916898727417
vt 0.6179161667823792 0.0004994869232177734
vt 0.48286017775535583 0.2397957444190979
vt 0.3478041887283325 0.479092001914978
vt 0.9995005130767822 0.49999988079071045
vt 0.21579420566558838 0.6493171453475952
vt 0.0004995763301849365 0.8087083101272583
vt 0.5245024561882019 0.7447131872177124
vt 0.17415198683738708 0.6439001858234406
vt 0.0004997849464416504 0.8087083697319031
vt 0.4828602969646454 0.7392962574958801
vt 0.5161410570144653 0.7355388700962067
vt 0.2139607071876526 0.6401427984237671
vt 0.40629667043685913 0.4715772867202759
vt 0.021624743938446045 0.8087083101272583
vt 0.021624594926834106 0.19129157066345215
vt 0.617916464805603 0.9995005130767822
vt 0.6259852051734924 0.0004994869232177734
vt 0.9995005130767822 0.49999988079071045
vt 0.5161409378051758 0.23603838682174683
vt 0.6179161071777344 0.9995003938674927
vt 0.6179164052009583 0.9995005130767822
vt 0.0004999935626983643 0.8087083101272583
vt 0.3971537947654724 0.4606618881225586
vt 0.6179164052009583 0.9995005130767822
vt 0.9995006322860718 0.49999988079071045
vt 0.999500572681427 0.49999988079071045
vt 0.0004996657371520996 0.1912916898727417
vt 0.6179162263870239 0.0004994869232177734
vt 0.6259854435920715 0.9995004534721375
vt 0.9995003342628479 0.4999997615814209
vt 0.6179161667823792 0.0004994869232177734
vt 0.0004996657371520996 0.1912919282913208
g IntHouseFMid040
s 1
f 1/1/1 2/2/2 3/3/3
f 4/4/4 5/5/5 6/6/6
f 7/7/7 8/8/8 9/9/9
f 10/10/10 8/8/8 7/7/7
f 10/10/10 11/11/11 8/8/8
f 12/12/12 11/11/11 10/10/10
f 4/4/4 6/6/6 13/13/13
f 13/13/13 6/6/6 14/14/14
f 6/6/6 5/5/5 14/14/14
f 15/15/15 5/5/5 4/4/4
f 16/16/16 17/17/17 18/18/18
f 19/19/19 20/20/20 1/1/1
f 20/20/20 21/21/21 1/1/1
f 22/22/22 21/21/21 17/17/17
f 19/19/19 3/3/3 23/23/23
f 1/1/1 3/3/3 19/19/19
f 1/1/1 21/21/21 22/22/22
f 13/13/13 14/14/14 24/24/24
f 22/22/22 17/17/17 16/16/16
f 25/25/25 26/26/26 27/27/27
f 28/28/28 29/29/29 30/30/30
f 7/7/7 9/9/9 31/31/31
f 26/26/26 32/32/32 27/27/27
f 33/33/33 27/27/27 18/18/18
f 34/34/34 35/35/35 36/36/36
f 19/19/19 23/23/23 37/37/37
f 25/25/25 27/27/27 33/33/33
f 17/17/17 25/25/25 33/33/33
f 17/17/17 33/33/33 18/18/18
f 21/21/21 38/38/38 17/17/17
f 38/38/38 25/25/25 17/17/17
f 39/39/39 28/28/28 40/40/40
f 7/7/7 41/41/41 10/10/10
f 41/41/41 42/42/42 10/10/10
f 43/43/43 39/39/39 40/40/40
f 44/44/44 45/45/45 46/46/46
f 47/47/47 48/48/48 49/49/49
f 45/45/45 34/34/34 50/50/50
f 47/47/47 49/49/49 51/51/51
f 48/48/48 52/52/52 49/49/49
f 46/46/46 45/45/45 50/50/50
f 53/53/53 54/54/54 43/43/43
f 55/55/55 42/42/42 47/47/47
f 10/10/10 42/42/42 55/55/55
f 10/10/10 55/55/55 56/56/56
f 55/55/55 47/47/47 56/56/56
f 43/43/43 54/54/54 57/57/57
f 58/58/58 59/59/59 46/46/46
f 42/42/42 60/60/60 47/47/47
f 60/60/60 48/48/48 47/47/47
f 13/13/13 61/61/61 4/4/4
f 61/61/61 62/62/62 4/4/4
f 46/46/46 59/59/59 63/63/63
f 64/64/64 62/62/62 65/65/65
f 4/4/4 62/62/62 64/64/64
f 64/64/64 65/65/65 66/66/66
f 67/67/67 68/68/68 69/69/69
f 70/70/70 68/68/68 67/67/67
f 65/65/65 70/70/70 67/67/67
f 65/65/65 67/67/67 69/69/69
f 62/62/62 71/71/71 65/65/65
f 71/71/71 70/70/70 65/65/65
f 70/70/70 72/72/72 68/68/68
f 72/72/72 73/73/73 68/68/68
f 74/74/74 58/58/58 46/46/46
f 46/46/46 50/50/50 74/74/74
f 75/75/75 63/63/63 76/76/76
f 46/46/46 63/63/63 75/75/75
f 75/75/75 44/44/44 46/46/46
f 76/76/76 44/44/44 75/75/75
f 77/77/77 57/57/57 78/78/78
f 43/43/43 57/57/57 77/77/77
f 77/77/77 79/79/79 43/43/43
f 78/78/78 79/79/79 77/77/77
f 80/80/80 53/53/53 43/43/43
f 80/80/80 40/40/40 81/81/81
f 43/43/43 40/40/40 80/80/80
f 50/50/50 34/34/34 82/82/82
f 34/34/34 36/36/36 82/82/82
f 40/40/40 28/28/28 83/83/83
f 40/40/40 83/83/83 81/81/81
f 83/83/83 30/30/30 81/81/81
f 28/28/28 30/30/30 83/83/83
f 48/48/48 84/84/84 52/52/52
f 84/84/84 85/85/85 52/52/52
f 16/16/16 86/86/86 87/87/87
f 87/87/87 22/22/22 16/16/16
f 1/1/1 22/22/22 87/87/87
f 86/86/86 88/88/88 89/89/89
f 87/87/87 86/86/86 89/89/89
f 87/87/87 89/89/89 1/1/1
f 88/88/88 90/90/90 2/2/2
f 66/66/66 65/65/65 69/69/69
f 91/91/91 62/62/62 61/61/61
f 92/92/92 93/93/93 66/66/66
f 69/69/69 92/92/92 66/66/66
f 94/94/94 58/58/58 74/74/74
f 95/95/95 94/94/94 74/74/74
f 96/96/96 53/53/53 80/80/80
f 81/81/81 96/96/96 80/80/80
f 97/97/97 98/98/98 99/99/99
f 31/31/31 97/97/97 99/99/99
f 100/100/100 101/101/101 102/102/102
f 24/24/24 100/100/100 102/102/102
f 103/103/103 104/104/104 105/105/105
f 37/37/37 103/103/103 105/105/105
f 106/106/106 39/39/39 43/43/43
f 79/79/79 106/106/106 43/43/43
f 107/107/107 108/108/108 95/95/95
f 107/107/107 82/82/82 108/108/108
f 82/82/82 109/109/109 108/108/108
f 108/108/108 109/109/109 95/95/95
f 56/56/56 47/47/47 51/51/51
f 101/101/101 91/91/91 61/61/61
f 110/110/110 42/42/42 41/41/41
f 98/98/98 110/110/110 41/41/41
f 111/111/111 21/21/21 20/20/20
f 104/104/104 111/111/111 20/20/20
f 88/88/88 2/2/2 112/112/112
f 112/112/112 2/2/2 1/1/1
f 89/89/89 112/112/112 1/1/1
f 89/89/89 88/88/88 112/112/112
f 74/74/74 107/107/107 95/95/95
f 74/74/74 50/50/50 107/107/107
f 50/50/50 82/82/82 107/107/107
f 8/8/8 113/113/113 9/9/9
f 8/8/8 11/11/11 113/113/113
f 82/82/82 36/36/36 109/109/109
f 102/102/102 101/101/101 61/61/61
f 102/102/102 61/61/61 13/13/13
f 24/24/24 102/102/102 13/13/13
f 3/3/3 114/114/114 23/23/23
f 3/3/3 90/90/90 114/114/114
f 49/49/49 115/115/115 51/51/51
f 49/49/49 52/52/52 115/115/115
f 99/99/99 98/98/98 41/41/41
f 99/99/99 41/41/41 7/7/7
f 31/31/31 99/99/99 7/7/7
f 105/105/105 104/104/104 20/20/20
f 105/105/105 20/20/20 19/19/19
f 37/37/37 105/105/105 19/19/19
f 116/116/116 117/117/117 4/4/4
f 116/116/116 118/118/118 117/117/117
f 18/18/18 119/119/119 16/16/16
f 119/119/119 86/86/86 16/16/16
f 120/120/120 12/12/12 10/10/10
f 121/121/121 12/12/12 120/120/120
f 56/56/56 121/121/121 120/120/120
f 56/56/56 120/120/120 10/10/10
f 51/51/51 122/122/122 56/56/56
f 122/122/122 121/121/121 56/56/56
f 66/66/66 118/118/118 116/116/116
f 116/116/116 64/64/64 66/66/66
f 4/4/4 64/64/64 116/116/116
f 93/93/93 118/118/118 66/66/66
f 117/117/117 15/15/15 4/4/4
f 118/118/118 15/15/15 117/117/117
f 2/2/2 90/90/90 3/3/3
g IntHouseFMid041
s 1
f 123/123/123 124/124/124 125/125/125
f 126/126/126 123/123/123 125/125/125
f 127/127/127 128/128/128 129/129/129
f 127/127/127 129/129/129 130/130/130
f 129/129/129 131/131/131 130/130/130
f 128/128/128 131/131/131 129/129/129
f 132/132/132 133/133/133 134/134/134
f 132/132/132 134/134/134 135/135/135
f 134/134/134 136/136/136 135/135/135
f 133/133/133 136/136/136 134/134/134
f 137/137/137 127/127/127 130/130/130
f 138/138/138 127/127/127 137/137/137
f 139/139/139 138/138/138 137/137/137
f 139/139/139 137/137/137 130/130/130
f 140/140/140 132/132/132 135/135/135
f 141/141/141 132/132/132 140/140/140
f 142/142/142 141/141/141 140/140/140
f 142/142/142 140/140/140 135/135/135
f 143/143/143 144/144/144 145/145/145
f 143/143/143 146/146/146 144/144/144
f 146/146/146 147/147/147 144/144/144
f 144/144/144 147/147/147 145/145/145
f 126/126/126 148/148/148 123/123/123
f 148/148/148 124/124/124 123/123/123
f 149/149/149 150/150/150 151/151/151
f 147/147/147 151/151/151 145/145/145
f 147/147/147 149/149/149 151/151/151
f 131/131/131 139/139/139 130/130/130
f 131/131/131 152/152/152 139/139/139
f 152/152/152 138/138/138 139/139/139
f 153/153/153 154/154/154 155/155/155
f 136/136/136 142/142/142 135/135/135
f 136/136/136 156/156/156 142/142/142
f 156/156/156 141/141/141 142/142/142
f 157/157/157 153/153/153 155/155/155
f 158/158/158 148/148/148 126/126/126
f 124/124/124 159/159/159 125/125/125
f 160/160/160 126/126/126 125/125/125
f 160/160/160 158/158/158 126/126/126
f 150/150/150 143/143/143 145/145/145
f 150/150/150 161/161/161 143/143/143
f 161/161/161 146/146/146 143/143/143
f 159/159/159 160/160/160 125/125/125
f 162/162/162 152/152/152 131/131/131
f 163/163/163 157/157/157 155/155/155
f 164/164/164 163/163/163 155/155/155
f 128/128/128 162/162/162 131/131/131
f 154/154/154 164/164/164 155/155/155
f 151/151/151 150/150/150 145/145/145
