# Exported using wow.export v0.2.19
o darnassis_int135.obj
v -117.83026885986328 -8.294960021972656 271.0628662109375
v -120.18309020996094 -8.294962882995605 267.6510925292969
v -121.31285858154297 -8.294962882995605 269.8228454589844
v -116.3958740234375 -8.294961929321289 264.31683349609375
v -115.57072448730469 -8.294960021972656 266.7193603515625
v -114.08969116210938 -8.294960021972656 263.8509826660156
v -115.739990234375 -8.294962882995605 259.04595947265625
v -114.91484069824219 -8.294961929321289 261.448486328125
v -112.60865783691406 -8.294960021972656 260.98260498046875
v -117.22102355957031 -8.294962882995605 261.9143371582031
v -121.00823974609375 -8.294963836669922 265.24859619140625
v -118.70205688476562 -8.294962882995605 264.78271484375
v -123.31441497802734 -8.294965744018555 265.7144470214844
v -121.83338165283203 -8.294965744018555 262.8460693359375
v -119.52720642089844 -8.294963836669922 262.38018798828125
v -112.04150390625 -8.294954299926758 271.8370361328125
v -113.21791076660156 -8.29495620727539 270.1311340332031
v -114.3476791381836 -8.29495620727539 272.3028869628906
v -110.8650894165039 -8.294953346252441 273.54290771484375
v -109.73532104492188 -8.294954299926758 271.37115478515625
v -115.52409362792969 -8.294958114624023 270.59698486328125
v -116.70050048828125 -8.294960021972656 268.89111328125
v -110.91172790527344 -8.294955253601074 269.665283203125
v -112.088134765625 -8.294957160949707 267.9593811035156
v -108.60554504394531 -8.294954299926758 269.19940185546875
v -107.47577667236328 -8.294954299926758 267.02764892578125
v -109.78195190429688 -8.29495620727539 267.4934997558594
v -110.95836639404297 -8.294958114624023 265.78759765625
v -113.26454162597656 -8.29495906829834 266.25347900390625
v -120.35234832763672 -8.294965744018555 259.9776916503906
v -122.48927307128906 -8.294963836669922 268.116943359375
v -124.79544830322266 -8.294965744018555 268.58282470703125
v -118.8713150024414 -8.294965744018555 257.10931396484375
v -118.04617309570312 -8.294963836669922 259.5118408203125
v -111.78350830078125 -8.29495906829834 263.3851013183594
v -109.47733306884766 -8.294958114624023 262.91925048828125
v -108.65219116210938 -8.29495620727539 265.32171630859375
v -106.34600830078125 -8.294955253601074 264.8558654785156
v -117.87690734863281 -8.294961929321289 267.18524169921875
v -110.34683990478516 -8.29495620727539 268.57940673828125
v -110.21784973144531 -8.294958114624023 264.3534240722656
v -124.054931640625 -8.294965744018555 267.14862060546875
v -113.34917449951172 -8.294960021972656 262.41680908203125
v -119.61183166503906 -8.294965744018555 258.54351806640625
v -116.48050689697266 -8.294962882995605 260.48016357421875
v -120.26771545410156 -8.294963836669922 263.81439208984375
v -120.91146087646484 6.207164764404297 263.2680969238281
v -118.06151580810547 6.2071638107299805 264.6375732421875
v -118.63822937011719 5.196501731872559 265.899169921875
v -117.33169555664062 5.2021565437316895 263.0711364746094
v -115.2115707397461 6.207162857055664 266.0070495605469
v -116.60188293457031 4.197149276733398 261.50469970703125
v -119.45182800292969 4.197150230407715 260.1352233886719
v -113.75193786621094 4.197148323059082 262.8741760253906
v -120.65443420410156 4.691180229187012 266.13336181640625
v -120.39740753173828 3.1751961708068848 268.99859619140625
v -122.67063903808594 4.185859680175781 266.36749267578125
v -121.2770004272461 2.164543628692627 270.54827880859375
v -122.41361999511719 2.669875144958496 269.23272705078125
v -124.42982482910156 2.1645538806915283 269.4668884277344
v -117.24458312988281 3.1751859188079834 270.0799560546875
v -118.38119506835938 3.6805174350738525 268.7644348144531
v -116.364990234375 4.18583869934082 268.5302734375
v -112.36162567138672 6.207161903381348 267.37652587890625
v -109.51168060302734 6.207160472869873 268.7460021972656
v -112.93833923339844 5.196499824523926 268.63812255859375
v -111.63180541992188 5.202154159545898 265.8100891113281
v -118.12417602539062 2.1645331382751465 271.629638671875
v -116.10796356201172 2.6698544025421143 271.3955078125
v -114.09175109863281 3.175175666809082 271.1613464355469
v -115.8720703125 3.1921420097351074 259.9382629394531
v -117.99220275878906 2.1871354579925537 257.0023498535156
v -112.38186645507812 2.1871352195739746 260.54473876953125
v -110.66510009765625 4.1858367919921875 271.26922607421875
v -111.81851959228516 2.1645126342773438 273.79241943359375
v -108.14160919189453 4.197147369384766 266.41656494140625
v -110.26173400878906 3.192141532897949 263.48065185546875
v -114.97134399414062 2.164522886276245 272.7110290527344
v -116.04370880126953 2.290858268737793 272.11181640625
v -113.96324157714844 2.4171833992004395 272.5939636230469
v -118.252685546875 2.922525405883789 270.1970520019531
v -111.80171203613281 4.691167831420898 269.95367431640625
v -115.1870346069336 2.1871352195739746 258.7735595703125
v -109.57670593261719 2.1871352195739746 262.31591796875
v -106.77153778076172 2.1871349811553955 264.0871276855469
v -109.20167541503906 3.6946444511413574 264.9486083984375
v -115.03309631347656 -0.7146477699279785 258.2028503417969
v -115.00132751464844 -0.02552703022956848 258.2462158203125
v -117.85738372802734 -0.025525236502289772 256.4044189453125
v -112.14527893066406 -0.02552882209420204 260.0880126953125
v -115.06874084472656 1.080803394317627 258.545166015625
v -112.10433197021484 -4.1602463722229 260.21771240234375
v -109.1642837524414 -4.849365234375 262.21112060546875
v -109.1737060546875 -3.471127986907959 262.02056884765625
v -106.24308013916016 -2.7820093631744385 263.8234558105469
v -112.11375427246094 -2.7820088863372803 260.02716064453125
v -118.36326599121094 -2.7933197021484375 272.09149169921875
v -114.94357299804688 -3.481027364730835 273.13812255859375
v -118.19105529785156 -4.168726921081543 271.9686584472656
v -111.69609069824219 -2.793327808380127 274.3075866699219
v -114.7713623046875 -4.856434345245361 273.0152587890625
v -115.04438018798828 -3.471127510070801 258.22430419921875
v -117.98442840576172 -2.782008409500122 256.23089599609375
v -115.21925354003906 -4.849367141723633 258.35321044921875
v -121.61074829101562 -3.4810194969177246 270.92205810546875
v -121.59928894042969 -4.856431007385254 270.6904602050781
v -125.03044891357422 -2.793311834335327 269.87542724609375
v -115.44097900390625 -6.227606296539307 258.57281494140625
v -118.33417510986328 -5.538487434387207 256.4886779785156
v -115.70954895019531 -7.6058454513549805 258.88311767578125
v -112.54777526855469 -6.916725158691406 260.65692138671875
v -112.27920532226562 -5.538485527038574 260.3465881347656
v -111.3516616821289 -5.54414176940918 274.0618896484375
v -114.5909652709961 -6.919550895690918 272.5623779296875
v -114.71260833740234 -6.231847763061523 272.692138671875
v -118.07355499267578 -6.919553756713867 271.3223571777344
v -118.17959594726562 -5.544138431549072 271.737060546875
v -121.54054260253906 -6.231844425201416 270.3673095703125
v -121.43450164794922 -7.607259750366211 269.95257568359375
v -109.38600158691406 -6.227604866027832 262.43072509765625
v -109.44689178466797 -7.60584020614624 262.75640869140625
v -112.72802734375 -7.60725212097168 273.0526428222656
v -110.8650894165039 -8.294953346252441 273.54290771484375
v -114.3476791381836 -8.29495620727539 272.3028869628906
v -109.28922271728516 -0.025530613958835602 261.9298095703125
v -106.43316650390625 -0.02553240768611431 263.7716369628906
v -109.32292175292969 0.5276345610618591 262.0793151855469
v -109.49211120605469 1.6339682340621948 262.237060546875
v -109.57670593261719 2.1871352195739746 262.31591796875
v -112.38186645507812 2.1871352195739746 260.54473876953125
v -106.77153778076172 2.1871349811553955 264.0871276855469
v -121.28911590576172 1.6127865314483643 270.65509033203125
v -121.38871765136719 1.0610284805297852 270.76397705078125
v -124.42982482910156 2.1645538806915283 269.4668884277344
v -118.14840698242188 1.0610193014144897 271.8432922363281
v -121.2770004272461 2.164543628692627 270.54827880859375
v -118.12417602539062 2.1645331382751465 271.629638671875
v -115.10244750976562 1.633968472480774 258.6946716308594
v -115.1870346069336 2.1871352195739746 258.7735595703125
v -117.99220275878906 2.1871354579925537 257.0023498535156
v -117.83026885986328 -8.294960021972656 271.0628662109375
v -121.31285858154297 -8.294962882995605 269.8228454589844
v -124.79544830322266 -8.294965744018555 268.58282470703125
v -107.83556365966797 -6.57216215133667 263.48046875
v -106.22423553466797 -5.5384840965271 264.2044982910156
v -106.34600830078125 -8.294955253601074 264.8558654785156
v -123.22101593017578 -6.575697422027588 269.68243408203125
v -125.00753021240234 -5.544135093688965 269.4122619628906
v -114.98345947265625 1.6127660274505615 272.81787109375
v -114.97134399414062 2.164522886276245 272.7110290527344
v -111.81851959228516 2.1645126342773438 273.79241943359375
v -109.32098388671875 -0.714651346206665 261.886474609375
v -115.1072998046875 -0.04250599443912506 273.140380859375
v -118.34760284423828 -0.04249688237905502 272.06109619140625
v -115.00770568847656 0.50925213098526 273.031494140625
v -111.86699676513672 -0.0425151027739048 274.2196960449219
v -115.1578598022461 -0.7302142381668091 273.13360595703125
v -115.04908752441406 -2.782008647918701 258.1290283203125
v -115.09661865234375 -2.0928893089294434 258.1160888671875
v -109.17842102050781 -2.7820091247558594 261.92529296875
v -109.22593688964844 -2.0928897857666016 261.912353515625
v -121.69685363769531 -2.793315887451172 270.98345947265625
v -121.73958587646484 -2.1056127548217773 270.96148681640625
v -115.02967834472656 -2.7933237552642822 273.19952392578125
v -115.07240295410156 -2.1056206226348877 273.17755126953125
v -115.30668640136719 -5.538486480712891 258.4176330566406
v -109.25172424316406 -5.538484573364258 262.2755432128906
v -114.765625 -5.544139862060547 272.89947509765625
v -121.59356689453125 -5.544137001037598 270.57464599609375
v -109.47733306884766 -8.294958114624023 262.91925048828125
v -112.60865783691406 -8.294960021972656 260.98260498046875
v -115.739990234375 -8.294962882995605 259.04595947265625
v -118.8713150024414 -8.294965744018555 257.10931396484375
v -112.21268463134766 1.0808014869689941 260.3869934082031
v -121.63846588134766 -0.7301960587501526 270.97503662109375
v -121.58790588378906 -0.042487770318984985 270.9818115234375
v -124.82820892333984 -0.042478661984205246 269.9024963378906
v -112.20880126953125 -1.4037703275680542 260.00128173828125
v -118.44872283935547 -1.4179134368896484 272.04754638671875
vn -8.79470078984923e-8 1 2.4699815526219027e-7
vn -8.79470078984923e-8 1 2.4699815526219027e-7
vn -8.79470078984923e-8 1 2.4699815526219027e-7
vn -9.193647088068246e-8 1 2.2724944415131176e-7
vn -8.79470078984923e-8 1 2.4699815526219027e-7
vn -9.193647088068246e-8 1 2.2724944415131176e-7
vn -9.99154110559175e-8 1 1.877520503512642e-7
vn -9.592594096829998e-8 1 2.0750074725128798e-7
vn -9.592594096829998e-8 1 2.0750074725128798e-7
vn -9.592594096829998e-8 1 2.0750074725128798e-7
vn -9.193647088068246e-8 1 2.2724944415131176e-7
vn -9.193647088068246e-8 1 2.2724944415131176e-7
vn -9.193647088068246e-8 1 2.2724944415131176e-7
vn -9.592594096829998e-8 1 2.0750074725128798e-7
vn -9.592594096829998e-8 1 2.0750074725128798e-7
vn -8.79470078984923e-8 1 2.4699815526219027e-7
vn -8.79470078984923e-8 1 2.4699815526219027e-7
vn -8.79470078984923e-8 1 2.4699815526219027e-7
vn -8.79470078984923e-8 1 2.4699815526219027e-7
vn -8.79470078984923e-8 1 2.4699815526219027e-7
vn -8.79470078984923e-8 1 2.4699815526219027e-7
vn -8.79470078984923e-8 1 2.4699815526219027e-7
vn -8.79470078984923e-8 1 2.4699815526219027e-7
vn -8.79470078984923e-8 1 2.4699815526219027e-7
vn -8.79470078984923e-8 1 2.4699815526219027e-7
vn -8.79470078984923e-8 1 2.4699815526219027e-7
vn -8.79470078984923e-8 1 2.4699815526219027e-7
vn -8.79470078984923e-8 1 2.4699815526219027e-7
vn -8.79470078984923e-8 1 2.4699815526219027e-7
vn -9.99154110559175e-8 1 1.877520503512642e-7
vn -8.79470078984923e-8 1 2.4699815526219027e-7
vn -8.79470078984923e-8 1 2.4699815526219027e-7
vn -1.0390488114353502e-7 1 1.6800333924038569e-7
vn -9.99154110559175e-8 1 1.877520503512642e-7
vn -9.193647088068246e-8 1 2.2724944415131176e-7
vn -9.193647088068246e-8 1 2.2724944415131176e-7
vn -8.79470078984923e-8 1 2.4699815526219027e-7
vn -8.79470078984923e-8 1 2.4699815526219027e-7
vn -8.79470078984923e-8 1 2.4699815526219027e-7
vn -8.79470078984923e-8 1 2.4699815526219027e-7
vn -8.99417358368737e-8 1 2.3712379970675102e-7
vn -8.99417358368737e-8 1 2.3712379970675102e-7
vn -9.393120592449122e-8 1 2.173750885958725e-7
vn -1.0191014609972626e-7 1 1.7787769479582494e-7
vn -9.792067601210874e-8 1 1.9762640590670344e-7
vn -9.393120592449122e-8 1 2.173750885958725e-7
vn 0.07657378911972046 -0.9744223356246948 -0.2112760692834854
vn 0.02955726534128189 -0.9926782846450806 -0.11711584031581879
vn 0.12921547889709473 -0.9288520216941833 -0.347184956073761
vn -0.09762558341026306 -0.988534688949585 0.1151886135339737
vn -0.017796499654650688 -0.9996078610420227 -0.02161933295428753
vn -0.2183416336774826 -0.9150282740592957 0.33919060230255127
vn -0.17575238645076752 -0.9525145888328552 0.2486506551504135
vn -0.2584381699562073 -0.8670954704284668 0.42585819959640503
vn 0.15377873182296753 -0.8878260254859924 -0.43372443318367004
vn 0.22130444645881653 -0.7453476190567017 -0.6288730502128601
vn 0.17658081650733948 -0.8381282687187195 -0.5161011815071106
vn 0.25769880414009094 -0.6177579164505005 -0.7429444789886475
vn 0.2393890917301178 -0.675979733467102 -0.6969535946846008
vn 0.2551339864730835 -0.6000049114227295 -0.7582221031188965
vn 0.2228652536869049 -0.7600349187850952 -0.6104735136032104
vn 0.20105676352977753 -0.8074305653572083 -0.5546459555625916
vn 0.17884397506713867 -0.8616216778755188 -0.47499778866767883
vn -0.064947210252285 -0.9951319694519043 0.07412385940551758
vn -0.11135687679052353 -0.9793015122413635 0.16902129352092743
vn 0.03613964468240738 -0.9858226776123047 -0.163851797580719
vn -0.18725751340389252 -0.9349819421768188 0.30123618245124817
vn 0.26012057065963745 -0.6351679563522339 -0.727254331111908
vn 0.24328337609767914 -0.7082007527351379 -0.6627705693244934
vn 0.2243020236492157 -0.7742992043495178 -0.5917342305183411
vn -0.3231046497821808 -0.7773529887199402 0.5397460460662842
vn -0.37962695956230164 -0.6680165529251099 0.6400290727615356
vn -0.41669490933418274 -0.6039586067199707 0.679410994052887
vn 0.08819343894720078 -0.9490099549293518 -0.30265799164772034
vn 0.2645295560359955 -0.6689208149909973 -0.6946719288825989
vn -0.30529916286468506 -0.8227012157440186 0.4795364439487457
vn -0.36528918147087097 -0.7224445939064026 0.5870584845542908
vn 0.2623978853225708 -0.6522254347801208 -0.7111605405807495
vn 0.25723010301589966 -0.6624286770820618 -0.7035772204399109
vn 0.25400209426879883 -0.6888201832771301 -0.6789769530296326
vn 0.2323814034461975 -0.7270479798316956 -0.6460651159286499
vn 0.062491703778505325 -0.970254123210907 -0.23388388752937317
vn -0.3985111713409424 -0.6365470290184021 0.6603003740310669
vn -0.43414607644081116 -0.5703085064888 0.6973272562026978
vn -0.45083415508270264 -0.5356559157371521 0.7140177488327026
vn -0.3362722396850586 -0.7750213146209717 0.5350354909896851
vn -0.5393118262290955 -0.08685958385467529 0.8376145958900452
vn -0.5362734794616699 -0.13315455615520477 0.8334750533103943
vn -0.5365633368492126 -0.14073531329631805 0.8320416808128357
vn -0.5359516143798828 -0.12556587159633636 0.8348587155342102
vn -0.4796728193759918 -0.4157588481903076 0.7726956605911255
vn -0.5375981330871582 0.12185848504304886 0.8343493342399597
vn -0.533969521522522 0.15999072790145874 0.8302286267280579
vn -0.5404288172721863 0.08354538679122925 0.8372316956520081
vn -0.5424573421478271 0.04510828107595444 0.838871419429779
vn -0.5424573421478271 0.04510828107595444 0.838871419429779
vn 0.3149369955062866 0.05645814165472984 -0.9474319815635681
vn 0.31669798493385315 0.08681625127792358 -0.9445450305938721
vn 0.31816351413726807 0.11709336191415787 -0.9407769441604614
vn 0.31493696570396423 0.056458134204149246 -0.9474318623542786
vn 0.3193321228027344 0.14726120233535767 -0.9361308813095093
vn -0.5404288172721863 0.08354538679122925 0.8372316956520081
vn -0.5424573421478271 0.04510828107595444 0.838871419429779
vn -0.5318048000335693 0.16840015351772308 0.8299549221992493
vn 0.31669798493385315 0.08681625127792358 -0.9445450305938721
vn 0.3164808750152588 0.17317762970924377 -0.9326571822166443
vn 0.31493696570396423 0.056458134204149246 -0.9474318623542786
vn -0.5239596366882324 0.22754046320915222 0.8207873106002808
vn -0.5248313546180725 0.2145681232213974 0.8237187266349792
vn -0.519342839717865 0.26159873604774475 0.8135409951210022
vn -0.5229947566986084 0.24047233164310455 0.8177098631858826
vn -0.5272098183631897 0.20623460412025452 0.8243283629417419
vn 0.32020285725593567 0.1772916615009308 -0.9306114912033081
vn 0.32341912388801575 0.20407608151435852 -0.9239875674247742
vn 0.3218420743942261 0.19070228934288025 -0.9273890256881714
vn 0.32341912388801575 0.20407608151435852 -0.9239875674247742
vn 0.3171016275882721 0.20306870341300964 -0.9263960719108582
vn 0.3186281621456146 0.21640975773334503 -0.9228450059890747
vn 0.32493385672569275 0.21741054952144623 -0.9204079508781433
vn -0.5263971090316772 0.21923120319843292 0.8214886784553528
vn -0.5181719660758972 0.22964471578598022 0.8238696455955505
vn 0.32493385672569275 0.21741054952144623 -0.9204079508781433
vn 0.3263857960700989 0.23070302605628967 -0.916650652885437
vn 0.3263857960700989 0.23070302605628967 -0.916650652885437
vn -0.5355978608131409 -0.11796970665454865 0.8361926078796387
vn -0.5352121591567993 -0.11036650836467743 0.8374766707420349
vn -0.514022171497345 -0.26273980736732483 0.8165470361709595
vn -0.4668538272380829 -0.4734508991241455 0.7469215393066406
vn -0.43414607644081116 -0.5703085064888 0.6973272562026978
vn -0.41669490933418274 -0.6039586067199707 0.679410994052887
vn -0.45083415508270264 -0.5356559157371521 0.7140177488327026
vn 0.27690112590789795 -0.491592675447464 -0.8256284594535828
vn 0.2940559685230255 -0.37531447410583496 -0.8790165781974792
vn 0.2551339864730835 -0.6000049114227295 -0.7582221031188965
vn 0.2940244972705841 -0.3749361038208008 -0.8791885375976562
vn 0.25769880414009094 -0.6177579164505005 -0.7429444789886475
vn 0.26012057065963745 -0.6351679563522339 -0.727254331111908
vn -0.43528053164482117 -0.5449662804603577 0.7166188955307007
vn -0.3985111713409424 -0.6365470290184021 0.6603003740310669
vn -0.37962695956230164 -0.6680165529251099 0.6400290727615356
vn 0.3263857960700989 0.23070302605628967 -0.916650652885437
vn 0.3263857960700989 0.23070302605628967 -0.916650652885437
vn 0.3263857960700989 0.23070302605628967 -0.916650652885437
vn -0.5239347815513611 0.21379554271697998 0.8244900107383728
vn -0.5295484662055969 0.19788549840450287 0.8248755931854248
vn -0.5132566690444946 0.21877610683441162 0.8298823237419128
vn 0.31936758756637573 0.22306498885154724 -0.921002984046936
vn 0.3137810230255127 0.2287052720785141 -0.9215396642684937
vn 0.2836119532585144 -0.530029833316803 -0.7991449236869812
vn 0.2623978853225708 -0.6522254347801208 -0.7111605405807495
vn 0.2645295560359955 -0.6689208149909973 -0.6946719288825989
vn -0.5382513403892517 -0.0716017559170723 0.8397372364997864
vn 0.3133350610733032 -0.12522611021995544 -0.9413499236106873
vn 0.31339624524116516 -0.12563109397888184 -0.9412755966186523
vn 0.30621689558029175 -0.2519916296005249 -0.918004035949707
vn 0.3132738173007965 -0.12482108920812607 -0.9414240121841431
vn 0.3146638870239258 -0.07965411245822906 -0.9458551406860352
vn -0.5424573421478271 0.04510828107595444 0.838871419429779
vn -0.5418766736984253 0.006194652523845434 0.8404351472854614
vn -0.5424573421478271 0.04510828107595444 0.838871419429779
vn -0.5418766736984253 0.006194652523845434 0.8404351472854614
vn 0.3149369955062866 0.056458137929439545 -0.9474319219589233
vn 0.3154962658882141 0.011079023592174053 -0.9488620758056641
vn 0.3149369955062866 0.056458137929439545 -0.9474319219589233
vn 0.3154962658882141 0.011079023592174053 -0.9488620758056641
vn -0.5260255336761475 0.21040333807468414 0.8240312933921814
vn -0.5283840894699097 0.2020619511604309 0.8246097564697266
vn 0.3186798095703125 0.19019664824008942 -0.928584098815918
vn 0.31546860933303833 0.21590566635131836 -0.9240478277206421
vn -0.514021098613739 0.2348361313343048 0.8250056505203247
vn -0.5146405100822449 0.25082987546920776 0.8198961615562439
vn -0.5151145458221436 0.2667527496814728 0.8145551085472107
vn -0.5154432058334351 0.28260037302970886 0.808984100818634
vn -0.48044177889823914 -0.4087797999382019 0.7759347558021545
vn 0.3147980868816376 -0.08046790957450867 -0.9457415342330933
vn 0.3134573698043823 -0.12603606283664703 -0.9412010908126831
vn 0.3135184347629547 -0.12644100189208984 -0.9411264061927795
vn -0.5404739379882812 -0.032728374004364014 0.8407238721847534
vn 0.3154052197933197 -0.03432292491197586 -0.9483362436294556
vt 1.0340354442596436 1.4540883898735046
vt 1.362107276916504 1.7147417068481445
vt 1.3583685159683228 1.448385864496231
vt 1.205548882484436 2.1171268224716187
vt 1.0415129661560059 1.9868001341819763
vt 1.0452516078948975 2.2531559467315674
vt 1.3733234405517578 2.5138092041015625
vt 1.2092876434326172 2.3834826946258545
vt 1.0489903688430786 2.5195118188858032
vt 1.3695847988128662 2.247453451156616
vt 1.526143193244934 1.845068335533142
vt 1.365846037864685 1.9810975790023804
vt 1.686440348625183 1.7090392112731934
vt 1.6901791095733643 1.9753950238227844
vt 1.5298819541931152 2.111424207687378
vt 0.5494052171707153 1.595820128917694
vt 0.7134411334991455 1.7261468172073364
vt 0.7097023725509644 1.4597909152507782
vt 0.3853692412376404 1.4654934406280518
vt 0.38910800218582153 1.7318493127822876
vt 0.8737382888793945 1.5901175737380981
vt 1.0377742052078247 1.7204442620277405
vt 0.5531439185142517 1.86217600107193
vt 0.7171798944473267 1.9925026893615723
vt 0.3928467333316803 1.9982051849365234
vt 0.39658546447753906 2.2645610570907593
vt 0.5568826794624329 2.1285319328308105
vt 0.720918595790863 2.258858561515808
vt 0.8812158107757568 2.12282931804657
vt 1.6939177513122559 2.2417508363723755
vt 1.522404432296753 1.578712522983551
vt 1.682701587677002 1.4426833391189575
vt 1.697656512260437 2.5081067085266113
vt 1.5336205959320068 2.3777800798416138
vt 0.8849544525146484 2.3891851902008057
vt 0.7246572971343994 2.525214433670044
vt 0.5606213808059692 2.394887685775757
vt 0.4003242254257202 2.530916929244995
vt 1.2018101215362549 1.8507709503173828
vt 0.5550132989883423 1.9953539371490479
vt 0.7227879762649536 2.3920364379882812
vt 1.6845710277557373 1.5758612751960754
vt 1.0471210479736328 2.38633394241333
vt 1.6957871913909912 2.3749287128448486
vt 1.371454119682312 2.3806313276290894
vt 1.5280125141143799 1.9782463312149048
vt 0.948265016078949 0.9995000958442688
vt 0.7251219153404236 0.9995002299547195
vt 0.7113236784934998 0.7497504353523254
vt 0.7379307746887207 0.7512385547161102
vt 0.5019788146018982 0.9995003640651703
vt 0.7507396936416626 0.5029768943786621
vt 0.973882794380188 0.5029767453670502
vt 0.5275965929031372 0.5029770135879517
vt 0.8144186735153198 0.6248751282691956
vt 0.6805723309516907 0.2502501606941223
vt 0.9175136685371399 0.49999988079071045
vt 0.6651966571807861 0.0005000829696655273
vt 0.7836673259735107 0.1253749132156372
vt 0.8867623209953308 0.0004996061325073242
vt 0.459006667137146 0.25025057792663574
vt 0.5774773359298706 0.3751254677772522
vt 0.47438234090805054 0.5000007450580597
vt 0.2788357138633728 0.999500498175621
vt 0.05569261312484741 0.9995006322860718
vt 0.265037477016449 0.7497506737709045
vt 0.2916446030139923 0.7512388229370117
vt 0.44363096356391907 0.0005005002021789551
vt 0.340535968542099 0.12537574768066406
vt 0.23744098842144012 0.25025105476379395
vt 0.7635485529899597 0.2547152042388916
vt 0.9995005130767822 0.006453394889831543
vt 0.5505859851837158 0.006453394889831543
vt 0.028096124529838562 0.5000010132789612
vt 0.0004996359348297119 0.0005013942718505859
vt 0.0786820501089096 0.5029770135879517
vt 0.3146340250968933 0.2547152042388916
vt 0.2220652997493744 0.0005009174346923828
vt 0.3070743680000305 0.03171956539154053
vt 0.17051780223846436 0.06293857097625732
vt 0.5105541348457336 0.1878129243850708
vt 0.14656680822372437 0.6248758435249329
vt 0.775043249130249 0.006453394889831543
vt 0.3261287212371826 0.006453394889831543
vt 0.1016714870929718 0.006453394889831543
vt 0.19665804505348206 0.37884610891342163
vt 1.5 0.7076346576213837
vt 1.5 0.7802331447601318
vt 2 0.7903940081596375
vt 1 0.7700722813606262
vt 1.5 0.8847864270210266
vt 1 0.37512511014938354
vt 0.5 0.31268763542175293
vt 0.5 0.4375627040863037
vt 0 0.5000003576278687
vt 1 0.5000002086162567
vt 1 0.49898189306259155
vt 0.5 0.4366716146469116
vt 1 0.3743613362312317
vt 0 0.49898195266723633
vt 0.5 0.31205105781555176
vt 1.5 0.43756258487701416
vt 2 0.5000000596046448
vt 1.5 0.31410491466522217
vt 1.5 0.4366716146469116
vt 1.5 0.31254422664642334
vt 2 0.4989818334579468
vt 1.5 0.1892298460006714
vt 2 0.2530847191810608
vt 1.5 0.06293749809265137
vt 1 0.12537503242492676
vt 1 0.25166743993759155
vt 0 0.2497408390045166
vt 0.5 0.12512028217315674
vt 0.5 0.1874305009841919
vt 1 0.1251201629638672
vt 1 0.2502339482307434
vt 1.5 0.1879236102104187
vt 1.5 0.06280982494354248
vt 0.5 0.18781256675720215
vt 0.5 0.06293743848800659
vt 0.25 0.06281006336212158
vt 0 0.0004998445510864258
vt 0.5 0.0004997849464416504
vt 0.5 0.7599114179611206
vt 0 0.749750554561615
vt 0.5 0.812188059091568
vt 0.5 0.937063068151474
vt 0.5 0.999500572681427
vt 1 0.999500572681427
vt 0 0.999500572681427
vt 1.5 0.9351537525653839
vt 1.5 0.8799572736024857
vt 2 0.9974639415740967
vt 1 0.8728435635566711
vt 1.5 0.9974640905857086
vt 1 0.9974642395973206
vt 1.5 0.937063068151474
vt 1.5 0.999500572681427
vt 2 0.999500572681427
vt 1 0.000499725341796875
vt 1.5 0.0004996061325073242
vt 2 0.0004995465278625488
vt 0.25 0.15659379959106445
vt 0 0.2502501606941223
vt 0 0.0004998445510864258
vt 1.75 0.15676844120025635
vt 2 0.2507270574569702
vt 0.5 0.9351540505886078
vt 0.5 0.9974643886089325
vt 0 0.9974645376205444
vt 0.5 0.6873129308223724
vt 0.5 0.7553368955850601
vt 1 0.7624506056308746
vt 0.5 0.8105333745479584
vt 0 0.7482231855392456
vt 0.5 0.6859128475189209
vt 1.5 0.5000001192092896
vt 1.5 0.5624376833438873
vt 0.5 0.5000002980232239
vt 0.5 0.5624378323554993
vt 1.5 0.4989818334579468
vt 1.5 0.5612921714782715
vt 0.5 0.49898195266723633
vt 0.5 0.5612922310829163
vt 1.5 0.25237607955932617
vt 0.5 0.25095880031585693
vt 0.5 0.24998736381530762
vt 1.5 0.2504805326461792
vt 0.5 0.0004998445510864258
vt 1 0.0004999041557312012
vt 1.5 0.0004999637603759766
vt 2 0.0004999637603759766
vt 1 0.874625563621521
vt 1.5 0.7001402676105499
vt 1.5 0.7695643156766891
vt 2 0.7766780257225037
vt 1 0.6248753070831299
vt 1 0.6236025094985962
g int1350
s 1
f 1/1/1 2/2/2 3/3/3
f 4/4/4 5/5/5 6/6/6
f 7/7/7 8/8/8 9/9/9
f 10/10/10 6/6/6 8/8/8
f 11/11/11 2/2/2 12/12/12
f 11/11/11 13/13/13 2/2/2
f 14/14/14 13/13/13 11/11/11
f 10/10/10 15/15/15 12/12/12
f 16/16/16 17/17/17 18/18/18
f 19/19/19 16/16/16 18/18/18
f 19/19/19 20/20/20 16/16/16
f 16/16/16 20/20/20 17/17/17
f 18/18/18 21/21/21 1/1/1
f 18/18/18 17/17/17 21/21/21
f 17/17/17 22/22/22 21/21/21
f 21/21/21 22/22/22 1/1/1
f 17/17/17 23/23/23 24/24/24
f 20/20/20 23/23/23 17/17/17
f 20/20/20 25/25/25 23/23/23
f 25/25/25 26/26/26 27/27/27
f 27/27/27 26/26/26 28/28/28
f 27/27/27 28/28/28 24/24/24
f 6/6/6 29/29/29 28/28/28
f 6/6/6 5/5/5 29/29/29
f 24/24/24 29/29/29 5/5/5
f 24/24/24 28/28/28 29/29/29
f 30/30/30 14/14/14 15/15/15
f 30/30/30 15/15/15 10/10/10
f 13/13/13 31/31/31 2/2/2
f 3/3/3 2/2/2 31/31/31
f 3/3/3 31/31/31 32/32/32
f 33/33/33 34/34/34 7/7/7
f 34/34/34 30/30/30 10/10/10
f 9/9/9 35/35/35 36/36/36
f 35/35/35 6/6/6 28/28/28
f 36/36/36 37/37/37 38/38/38
f 26/26/26 38/38/38 37/37/37
f 12/12/12 2/2/2 39/39/39
f 12/12/12 39/39/39 5/5/5
f 23/23/23 40/40/40 24/24/24
f 23/23/23 25/25/25 40/40/40
f 25/25/25 27/27/27 40/40/40
f 40/40/40 27/27/27 24/24/24
f 41/41/41 28/28/28 37/37/37
f 36/36/36 41/41/41 37/37/37
f 35/35/35 41/41/41 36/36/36
f 35/35/35 28/28/28 41/41/41
f 42/42/42 32/32/32 31/31/31
f 13/13/13 42/42/42 31/31/31
f 43/43/43 6/6/6 35/35/35
f 9/9/9 43/43/43 35/35/35
f 8/8/8 43/43/43 9/9/9
f 8/8/8 6/6/6 43/43/43
f 44/44/44 30/30/30 34/34/34
f 33/33/33 44/44/44 34/34/34
f 34/34/34 45/45/45 7/7/7
f 34/34/34 10/10/10 45/45/45
f 45/45/45 10/10/10 8/8/8
f 7/7/7 45/45/45 8/8/8
f 15/15/15 46/46/46 12/12/12
f 15/15/15 14/14/14 46/46/46
f 14/14/14 11/11/11 46/46/46
f 46/46/46 11/11/11 12/12/12
f 22/22/22 5/5/5 39/39/39
f 26/26/26 37/37/37 28/28/28
f 22/22/22 39/39/39 2/2/2
f 1/1/1 22/22/22 2/2/2
f 4/4/4 12/12/12 5/5/5
f 10/10/10 12/12/12 4/4/4
f 17/17/17 5/5/5 22/22/22
f 10/10/10 4/4/4 6/6/6
f 17/17/17 24/24/24 5/5/5
g int1351
s 1
f 47/47/47 48/48/48 49/49/49
f 48/48/48 47/47/47 50/50/50
f 48/48/48 51/51/51 49/49/49
f 52/52/52 50/50/50 53/53/53
f 54/54/54 50/50/50 52/52/52
f 51/51/51 48/48/48 50/50/50
f 49/49/49 55/55/55 47/47/47
f 49/49/49 56/56/56 55/55/55
f 56/56/56 57/57/57 55/55/55
f 55/55/55 57/57/57 47/47/47
f 58/58/58 59/59/59 56/56/56
f 58/58/58 60/60/60 59/59/59
f 59/59/59 60/60/60 57/57/57
f 56/56/56 59/59/59 57/57/57
f 61/61/61 62/62/62 63/63/63
f 61/61/61 56/56/56 62/62/62
f 62/62/62 56/56/56 49/49/49
f 63/63/63 62/62/62 49/49/49
f 64/64/64 65/65/65 66/66/66
f 51/51/51 64/64/64 66/66/66
f 64/64/64 51/51/51 67/67/67
f 65/65/65 64/64/64 67/67/67
f 68/68/68 58/58/58 56/56/56
f 69/69/69 61/61/61 70/70/70
f 70/70/70 61/61/61 63/63/63
f 49/49/49 51/51/51 63/63/63
f 50/50/50 47/47/47 53/53/53
f 51/51/51 50/50/50 54/54/54
f 71/71/71 53/53/53 72/72/72
f 71/71/71 73/73/73 54/54/54
f 70/70/70 74/74/74 75/75/75
f 63/63/63 66/66/66 70/70/70
f 51/51/51 66/66/66 63/63/63
f 67/67/67 76/76/76 65/65/65
f 54/54/54 77/77/77 67/67/67
f 73/73/73 77/77/77 54/54/54
f 78/78/78 79/79/79 80/80/80
f 78/78/78 68/68/68 79/79/79
f 79/79/79 68/68/68 69/69/69
f 80/80/80 79/79/79 69/69/69
f 75/75/75 78/78/78 80/80/80
f 81/81/81 56/56/56 61/61/61
f 69/69/69 81/81/81 61/61/61
f 69/69/69 68/68/68 81/81/81
f 81/81/81 68/68/68 56/56/56
f 80/80/80 69/69/69 70/70/70
f 75/75/75 80/80/80 70/70/70
f 82/82/82 65/65/65 74/74/74
f 70/70/70 82/82/82 74/74/74
f 66/66/66 82/82/82 70/70/70
f 66/66/66 65/65/65 82/82/82
f 54/54/54 52/52/52 71/71/71
f 52/52/52 53/53/53 71/71/71
f 67/67/67 51/51/51 54/54/54
f 72/72/72 83/83/83 71/71/71
f 83/83/83 73/73/73 71/71/71
f 73/73/73 84/84/84 77/77/77
f 84/84/84 85/85/85 77/77/77
f 77/77/77 85/85/85 86/86/86
f 86/86/86 85/85/85 76/76/76
f 67/67/67 86/86/86 76/76/76
f 77/77/77 86/86/86 67/67/67
g int1352
s 1
f 87/87/87 88/88/88 89/89/89
f 87/87/87 90/90/90 88/88/88
f 88/88/88 90/90/90 91/91/91
f 89/89/89 88/88/88 91/91/91
f 92/92/92 93/93/93 94/94/94
f 94/94/94 93/93/93 95/95/95
f 96/96/96 92/92/92 94/94/94
f 97/97/97 98/98/98 99/99/99
f 98/98/98 100/100/100 101/101/101
f 99/99/99 98/98/98 101/101/101
f 102/102/102 92/92/92 96/96/96
f 102/102/102 103/103/103 104/104/104
f 92/92/92 102/102/102 104/104/104
f 105/105/105 97/97/97 99/99/99
f 105/105/105 99/99/99 106/106/106
f 107/107/107 105/105/105 106/106/106
f 108/108/108 109/109/109 110/110/110
f 111/111/111 108/108/108 110/110/110
f 112/112/112 108/108/108 111/111/111
f 113/113/113 114/114/114 115/115/115
f 115/115/115 114/114/114 116/116/116
f 117/117/117 115/115/115 116/116/116
f 118/118/118 117/117/117 116/116/116
f 118/118/118 116/116/116 119/119/119
f 120/120/120 112/112/112 111/111/111
f 120/120/120 111/111/111 121/121/121
f 122/122/122 123/123/123 124/124/124
f 114/114/114 122/122/122 124/124/124
f 113/113/113 122/122/122 114/114/114
f 113/113/113 123/123/123 122/122/122
f 125/125/125 126/126/126 127/127/127
f 128/128/128 129/129/129 130/130/130
f 128/128/128 131/131/131 129/129/129
f 132/132/132 133/133/133 134/134/134
f 135/135/135 136/136/136 137/137/137
f 135/135/135 133/133/133 132/132/132
f 138/138/138 139/139/139 140/140/140
f 138/138/138 130/130/130 139/139/139
f 114/114/114 124/124/124 141/141/141
f 119/119/119 142/142/142 143/143/143
f 119/119/119 141/141/141 142/142/142
f 144/144/144 120/120/120 121/121/121
f 145/145/145 120/120/120 144/144/144
f 145/145/145 144/144/144 146/146/146
f 144/144/144 121/121/121 146/146/146
f 147/147/147 118/118/118 119/119/119
f 148/148/148 118/118/118 147/147/147
f 148/148/148 147/147/147 143/143/143
f 147/147/147 119/119/119 143/143/143
f 149/149/149 137/137/137 150/150/150
f 149/149/149 150/150/150 151/151/151
f 135/135/135 132/132/132 136/136/136
f 132/132/132 134/134/134 136/136/136
f 90/90/90 125/125/125 127/127/127
f 152/152/152 125/125/125 90/90/90
f 152/152/152 126/126/126 125/125/125
f 153/153/153 154/154/154 155/155/155
f 156/156/156 153/153/153 155/155/155
f 156/156/156 157/157/157 153/153/153
f 153/153/153 157/157/157 154/154/154
f 103/103/103 102/102/102 158/158/158
f 158/158/158 102/102/102 96/96/96
f 158/158/158 96/96/96 159/159/159
f 103/103/103 158/158/158 159/159/159
f 96/96/96 94/94/94 160/160/160
f 160/160/160 94/94/94 95/95/95
f 160/160/160 95/95/95 161/161/161
f 96/96/96 160/160/160 161/161/161
f 162/162/162 97/97/97 105/105/105
f 107/107/107 162/162/162 105/105/105
f 107/107/107 163/163/163 162/162/162
f 162/162/162 163/163/163 97/97/97
f 164/164/164 100/100/100 98/98/98
f 97/97/97 164/164/164 98/98/98
f 97/97/97 165/165/165 164/164/164
f 164/164/164 165/165/165 100/100/100
f 166/166/166 109/109/109 108/108/108
f 112/112/112 166/166/166 108/108/108
f 112/112/112 104/104/104 166/166/166
f 166/166/166 104/104/104 109/109/109
f 167/167/167 112/112/112 120/120/120
f 145/145/145 167/167/167 120/120/120
f 145/145/145 93/93/93 167/167/167
f 167/167/167 93/93/93 112/112/112
f 168/168/168 113/113/113 115/115/115
f 117/117/117 168/168/168 115/115/115
f 101/101/101 168/168/168 117/117/117
f 101/101/101 113/113/113 168/168/168
f 169/169/169 117/117/117 118/118/118
f 148/148/148 169/169/169 118/118/118
f 106/106/106 169/169/169 148/148/148
f 106/106/106 117/117/117 169/169/169
f 121/121/121 170/170/170 146/146/146
f 121/121/121 171/171/171 170/170/170
f 110/110/110 172/172/172 171/171/171
f 110/110/110 173/173/173 172/172/172
f 155/155/155 149/149/149 151/151/151
f 155/155/155 135/135/135 149/149/149
f 135/135/135 137/137/137 149/149/149
f 91/91/91 138/138/138 140/140/140
f 91/91/91 174/174/174 138/138/138
f 174/174/174 130/130/130 138/138/138
f 174/174/174 128/128/128 130/130/130
f 127/127/127 128/128/128 174/174/174
f 127/127/127 131/131/131 128/128/128
f 154/154/154 175/175/175 176/176/176
f 176/176/176 175/175/175 177/177/177
f 176/176/176 177/177/177 133/133/133
f 154/154/154 176/176/176 133/133/133
f 89/89/89 91/91/91 140/140/140
f 90/90/90 174/174/174 91/91/91
f 93/93/93 145/145/145 95/95/95
f 133/133/133 177/177/177 134/134/134
f 93/93/93 92/92/92 112/112/112
f 159/159/159 96/96/96 178/178/178
f 165/165/165 156/156/156 100/100/100
f 116/116/116 141/141/141 119/119/119
f 103/103/103 159/159/159 89/89/89
f 163/163/163 179/179/179 97/97/97
f 97/97/97 179/179/179 165/165/165
f 163/163/163 107/107/107 177/177/177
f 111/111/111 171/171/171 121/121/121
f 135/135/135 154/154/154 133/133/133
f 159/159/159 87/87/87 89/89/89
f 161/161/161 95/95/95 126/126/126
f 114/114/114 141/141/141 116/116/116
f 96/96/96 161/161/161 178/178/178
f 159/159/159 178/178/178 87/87/87
f 178/178/178 90/90/90 87/87/87
f 110/110/110 109/109/109 173/173/173
f 178/178/178 161/161/161 152/152/152
f 126/126/126 131/131/131 127/127/127
f 111/111/111 110/110/110 171/171/171
f 152/152/152 161/161/161 126/126/126
f 90/90/90 127/127/127 174/174/174
f 107/107/107 106/106/106 148/148/148
f 178/178/178 152/152/152 90/90/90
f 157/157/157 156/156/156 165/165/165
f 179/179/179 157/157/157 165/165/165
f 157/157/157 179/179/179 154/154/154
f 99/99/99 117/117/117 106/106/106
f 179/179/179 163/163/163 175/175/175
f 175/175/175 163/163/163 177/177/177
f 104/104/104 103/103/103 109/109/109
f 154/154/154 179/179/179 175/175/175
f 112/112/112 92/92/92 104/104/104
f 155/155/155 154/154/154 135/135/135
f 101/101/101 100/100/100 113/113/113
f 156/156/156 155/155/155 151/151/151
f 99/99/99 101/101/101 117/117/117
