# Exported using wow.export v0.2.19
o darnassis_int63.obj
v -80.99042510986328 3.1157631874084473 -4.139163970947266
v -80.76625061035156 3.1157636642456055 -1.7547285556793213
v -78.7830810546875 3.1157631874084473 -5.068367958068848
v -83.19776916503906 3.1157631874084473 -3.2099599838256836
v -81.214599609375 3.115762710571289 -6.523599624633789
v -90.26814270019531 3.115762233734131 -5.191219329833984
v -90.4923095703125 3.1157619953155518 -7.575655937194824
v -92.4754867553711 3.115762233734131 -4.2620158195495605
v -88.06079864501953 3.115762233734131 -6.120423316955566
v -90.04397583007812 3.115762710571289 -2.806784152984619
v -77.02407836914062 3.115762233734131 -10.76644229888916
v -76.79991149902344 3.115762710571289 -8.382007598876953
v -74.81673431396484 3.115762233734131 -11.695646286010742
v -79.2314224243164 3.115762233734131 -9.837238311767578
v -77.24824523925781 3.1157619953155518 -13.15087890625
v -88.28497314453125 3.1157619953155518 -8.504859924316406
v -88.50914001464844 3.1157617568969727 -10.889296531677246
v -86.07762145996094 3.1157619953155518 -9.434063911437988
v -79.00724792480469 3.115762710571289 -7.452803134918213
v -86.30179595947266 3.1157617568969727 -11.818500518798828
v -84.09445190429688 3.1157617568969727 -12.747703552246094
v -86.52597045898438 3.1157612800598145 -14.202936172485352
v -85.18093872070312 3.1157636642456055 0.10367929935455322
v -82.97360229492188 3.1157636642456055 -0.8255243301391602
v -82.74942779541016 3.1157643795013428 1.5589110851287842
v -82.11128234863281 3.1157612800598145 -16.061344146728516
v -84.31861877441406 3.1157612800598145 -15.132140159606934
v -84.54279327392578 3.1157610416412354 -17.516576766967773
v -83.64611053466797 3.115762233734131 -7.9788312911987305
v -81.43876647949219 3.115762233734131 -8.908035278320312
v -81.66293334960938 3.1157619953155518 -11.292470932006836
v -85.62928771972656 3.115762710571289 -4.665191650390625
v -85.85345458984375 3.115762233734131 -7.049627304077148
v -85.40511322021484 3.1157631874084473 -2.2807562351226807
v -87.61245727539062 3.1157631874084473 -1.3515524864196777
v -81.8871078491211 3.1157617568969727 -13.676907539367676
v -79.67976379394531 3.1157617568969727 -14.606111526489258
v -87.83662414550781 3.115762710571289 -3.735987901687622
v -83.42193603515625 3.115762710571289 -5.594395637512207
v -83.87028503417969 3.1157619953155518 -10.36326789855957
v -79.45559692382812 3.1157619953155518 -12.221674919128418
v -86.73805236816406 16.60733413696289 -5.8630194664001465
v -87.0566177368164 17.61798095703125 -2.26042103767395
v -88.28839111328125 16.10201072692871 -4.807734966278076
v -89.52017211914062 14.586040496826172 -7.355049133300781
v -83.63735961914062 17.61798095703125 -7.973587989807129
v -85.34698486328125 17.61798095703125 -5.11700439453125
v -89.04910278320312 13.575392723083496 -11.21246337890625
v -86.41947937011719 15.596687316894531 -9.465618133544922
v -83.98828887939453 16.612951278686523 -4.3898820877075195
v -78.35421752929688 13.597862243652344 -4.811702251434326
v -81.42254638671875 14.602892875671387 -2.682241201400757
v -80.91996002197266 15.607921600341797 -6.519342422485352
v -89.8387451171875 15.596687316894531 -3.752450942993164
v -84.49087524414062 15.607922554016113 -0.5527805089950562
v -84.23957824707031 16.110437393188477 -2.4713311195373535
v -77.85163116455078 14.60289192199707 -8.6488037109375
v -85.94841003417969 14.586038589477539 -13.323031425476074
v -82.84771728515625 15.596685409545898 -15.433599472045898
v -83.083251953125 16.102008819580078 -13.50489330291748
v -80.21809387207031 17.617979049682617 -13.686755180358887
v -83.31878662109375 16.60733413696289 -11.576187133789062
v -92.6208724975586 13.575394630432129 -5.244480609893799
v -81.92514038085938 13.597864151000977 1.1548599004745483
v -85.47734069824219 13.575390815734863 -17.180444717407227
v -80.13967895507812 13.59786319732666 -1.8284211158752441
v -76.56875610351562 13.597862243652344 -7.79498291015625
v -74.7833023071289 13.597861289978027 -10.778264045715332
v -87.26322174072266 13.57539176940918 -14.196454048156738
v -90.83499145507812 13.575393676757812 -8.228471755981445
v -77.50070190429688 15.607919692993164 -12.23250961303711
v -80.56903076171875 16.61294937133789 -10.103048324584961
v -79.03486633300781 16.110435485839844 -11.167779922485352
v -81.92772674560547 17.61798095703125 -10.830171585083008
v -91.314697265625 7.929765701293945 -8.244473457336426
v -93.25288391113281 8.61748218536377 -5.198288440704346
v -91.19712829589844 6.554335117340088 -8.056354522705078
v -89.49407958984375 8.61747932434082 -11.478776931762695
v -89.37651062011719 7.242049217224121 -11.290658950805664
v -87.55589294433594 7.929763317108154 -14.524962425231934
v -85.73528289794922 8.617477416992188 -17.759265899658203
v -86.534912109375 7.585905075073242 -16.134750366210938
v -79.69862365722656 10.696073532104492 -1.5287315845489502
v -79.72164916992188 9.31783676147461 -1.4245226383209229
v -81.56629943847656 11.38519287109375 1.5590546131134033
v -77.83094787597656 10.006954193115234 -4.616518020629883
v -77.91191101074219 11.385191917419434 -4.5469818115234375
v -89.42707824707031 9.992908477783203 -11.556427001953125
v -91.27297973632812 10.680624008178711 -8.455007553100586
v -91.33998107910156 9.305194854736328 -8.377357482910156
v -93.11888122558594 11.368339538574219 -5.353589057922363
v -89.46385955810547 11.368335723876953 -11.460683822631836
v -76.04423522949219 10.696072578430176 -7.634768486022949
v -75.96327209472656 9.317834854125977 -7.7043046951293945
v -74.25751495361328 11.385190963745117 -10.653018951416016
v -87.61795806884766 10.680620193481445 -14.562103271484375
v -87.5811767578125 9.305192947387695 -14.657846450805664
v -85.808837890625 11.368332862854004 -17.567779541015625
v -76.21615600585938 11.938359260559082 -7.631311893463135
v -78.1748046875 12.491527557373047 -4.609604835510254
v -76.47904968261719 13.044694900512695 -7.693934440612793
v -74.7833023071289 13.597861289978027 -10.778264045715332
v -76.56875610351562 13.597862243652344 -7.79498291015625
v -87.38772583007812 13.023628234863281 -14.22373104095459
v -87.55347442626953 11.920099258422852 -14.417398452758789
v -85.47734069824219 13.575390815734863 -17.180444717407227
v -89.29811096191406 12.471864700317383 -11.267017364501953
v -87.26322174072266 13.57539176940918 -14.196453094482422
v -79.87055206298828 11.938360214233398 -1.5252752304077148
v -81.92514038085938 13.597864151000977 1.1548599004745483
v -80.04997253417969 13.044695854187012 -1.7273725271224976
v -80.13967895507812 13.59786319732666 -1.8284209966659546
v -91.20849609375 11.9201021194458 -8.310302734375
v -90.95948791503906 13.023630142211914 -8.255748748779297
v -76.07854461669922 7.939596176147461 -7.655304431915283
v -74.09559631347656 8.628714561462402 -10.792091369628906
v -75.13883972167969 7.595036506652832 -9.313676834106445
v -78.06149291992188 7.250478267669678 -4.51851749420166
v -77.85397338867188 8.628717422485352 -4.512309551239014
v -79.83692169189453 7.93959903717041 -1.3755223751068115
v -80.04444885253906 6.5613603591918945 -1.381730079650879
v -81.61235046386719 8.6287202835083 1.767472743988037
v -87.33454895019531 6.554333209991455 -14.510236740112305
v -85.2925796508789 5.866617202758789 -17.729814529418945
v -74.30266571044922 5.872239112854004 -11.152005195617676
v -76.18208312988281 6.561358451843262 -7.835261344909668
v -76.36236572265625 5.1831207275390625 -8.061149597167969
v -75.46102905273438 4.838560581207275 -9.742487907409668
v -78.35421752929688 13.597862243652344 -4.811701774597168
v -78.16503143310547 5.8722405433654785 -4.698473930358887
v -78.42206573486328 4.494002342224121 -4.970294952392578
v -82.02739715576172 5.872241973876953 1.7550570964813232
v -80.2247314453125 5.183122158050537 -1.607618808746338
v -81.30657196044922 4.838562965393066 0.02468264102935791
v -91.82280731201172 4.835048675537109 -6.268857955932617
v -92.4754867553711 3.115762233734131 -4.2620158195495605
v -90.62787628173828 3.803476572036743 -7.715664863586426
v -74.81673431396484 3.115762233734131 -11.695646286010742
v -93.01773834228516 5.866621017456055 -4.822051048278809
v -76.61940002441406 3.804882287979126 -8.33297061920166
v -87.03642272949219 5.178904056549072 -14.449563980102539
v -85.97705078125 4.835046768188477 -16.036380767822266
v -82.74942779541016 3.1157643795013428 1.5589110851287842
v -86.66152954101562 3.803475856781006 -14.342945098876953
v -84.54279327392578 3.1157610416412354 -17.516576766967773
v -80.58574676513672 3.8048834800720215 -1.7056918144226074
v -89.15515899658203 5.866619110107422 -11.275932312011719
v -88.78026580810547 4.4911909103393555 -11.169313430786133
v -90.89900207519531 5.178905963897705 -7.995682239532471
v -91.37348175048828 8.617481231689453 -8.338532447814941
v -79.73910522460938 11.38519287109375 -1.4939637184143066
v -76.084716796875 11.385190963745117 -7.600000381469727
v -87.6363525390625 11.36833381652832 -14.51423168182373
v -91.29136657714844 11.368337631225586 -8.407136917114258
v -90.3015365600586 4.663119792938232 -8.719085693359375
v -79.86431884765625 4.666282653808594 -2.472805976867676
v -76.94154357910156 4.666281700134277 -7.356391429901123
v -76.60016632080078 7.422757148742676 -6.916097164154053
v -87.9557113647461 7.413977146148682 -13.7127046585083
v -92.6208724975586 13.575394630432129 -5.244480609893799
v -90.83499145507812 13.575393676757812 -8.228471755981445
v -90.4923095703125 3.1157619953155518 -7.575655937194824
v -88.50914001464844 3.1157617568969727 -10.88929557800293
v -86.52597045898438 3.1157612800598145 -14.202936172485352
v -78.7830810546875 3.1157631874084473 -5.0683674812316895
v -80.76625061035156 3.1157636642456055 -1.7547283172607422
v -76.79991149902344 3.115762710571289 -8.382006645202637
v -80.0962142944336 5.872241020202637 -1.4717082977294922
v -76.23384857177734 5.87224006652832 -7.925239562988281
v -87.22386932373047 5.8666181564331055 -14.502873420715332
v -91.0864486694336 5.866620063781738 -8.048992156982422
v -75.97478485107422 8.628715515136719 -7.652200698852539
v -79.73316192626953 8.628719329833984 -1.3724184036254883
v -87.61468505859375 8.617478370666504 -14.61902141571045
v -89.04910278320312 13.575392723083496 -11.212462425231934
vn -1.1815848210972035e-7 1 -1.6665066482346447e-7
vn -1.0916086523593549e-7 1 -1.4527667246966303e-7
vn -1.1815848210972035e-7 1 -1.6665066482346447e-7
vn -1.1815848210972035e-7 1 -1.6665066482346447e-7
vn -1.271560847726505e-7 1 -1.880246571772659e-7
vn -1.3615370164643537e-7 1 -2.0939864953106735e-7
vn -1.3615370164643537e-7 1 -2.0939864953106735e-7
vn -1.3615370164643537e-7 1 -2.0939864953106735e-7
vn -1.3615370164643537e-7 1 -2.0939864953106735e-7
vn -1.271560847726505e-7 1 -1.880246571772659e-7
vn -1.3615370164643537e-7 1 -2.0939864953106735e-7
vn -1.271560847726505e-7 1 -1.880246571772659e-7
vn -1.3615370164643537e-7 1 -2.0939864953106735e-7
vn -1.3615370164643537e-7 1 -2.0939864953106735e-7
vn -1.3615370164643537e-7 1 -2.0939864953106735e-7
vn -1.3615370164643537e-7 1 -2.0939864953106735e-7
vn -1.3615370164643537e-7 1 -2.0939864953106735e-7
vn -1.3615370164643537e-7 1 -2.0939864953106735e-7
vn -1.271560847726505e-7 1 -1.880246571772659e-7
vn -1.3615370164643537e-7 1 -2.0939864953106735e-7
vn -1.3615370164643537e-7 1 -2.0939864953106735e-7
vn -1.3615370164643537e-7 1 -2.0939864953106735e-7
vn -1.0916086523593549e-7 1 -1.4527667246966303e-7
vn -1.0916086523593549e-7 1 -1.4527667246966303e-7
vn -1.0016325546757798e-7 1 -1.2390268011586159e-7
vn -1.3615370164643537e-7 1 -2.0939864953106735e-7
vn -1.3615370164643537e-7 1 -2.0939864953106735e-7
vn -1.3615370164643537e-7 1 -2.0939864953106735e-7
vn -1.3615370164643537e-7 1 -2.0939864953106735e-7
vn -1.3615370164643537e-7 1 -2.0939864953106735e-7
vn -1.3615370164643537e-7 1 -2.0939864953106735e-7
vn -1.271560847726505e-7 1 -1.880246571772659e-7
vn -1.3615370164643537e-7 1 -2.0939864953106735e-7
vn -1.1815848210972035e-7 1 -1.6665066482346447e-7
vn -1.1815848210972035e-7 1 -1.6665066482346447e-7
vn -1.3615370164643537e-7 1 -2.0939864953106735e-7
vn -1.3615370164643537e-7 1 -2.0939864953106735e-7
vn -1.271560847726505e-7 1 -1.880246571772659e-7
vn -1.271560847726505e-7 1 -1.880246571772659e-7
vn -1.3615370164643537e-7 1 -2.0939864953106735e-7
vn -1.3615370164643537e-7 1 -2.0939864953106735e-7
vn 0.20187075436115265 -0.9719317555427551 0.12081722170114517
vn -0.003616227302700281 -0.9999911189079285 -0.0021642807405442
vn 0.3009411692619324 -0.9364801049232483 0.1801096796989441
vn 0.5663723945617676 -0.7512147426605225 0.33896708488464355
vn -0.003616227302700281 -0.9999911189079285 -0.0021642807405442
vn -0.003616227302700281 -0.9999911189079285 -0.0021642807405442
vn 0.7041967511177063 -0.5713877081871033 0.42145365476608276
vn 0.3956216275691986 -0.8873676061630249 0.23677481710910797
vn -0.20663343369960785 -0.9705714583396912 -0.12366771697998047
vn -0.7030039429664612 -0.5733791589736938 -0.4207397699356079
vn -0.5665571689605713 -0.7510254383087158 -0.3390779495239258
vn -0.397904634475708 -0.8859800100326538 -0.23814129829406738
vn 0.3956216275691986 -0.8873676061630249 0.23677481710910797
vn -0.3979046046733856 -0.885979950428009 -0.23814134299755096
vn -0.3044400215148926 -0.9349428415298462 -0.18220385909080505
vn -0.5665571093559265 -0.7510254383087158 -0.33907783031463623
vn 0.5663731694221497 -0.751213788986206 0.338967889547348
vn 0.3956226110458374 -0.8873668909072876 0.236775740981102
vn 0.3009416460990906 -0.9364798069000244 0.1801101416349411
vn -0.003616227302700281 -0.9999911189079285 -0.0021642807405442
vn 0.20187075436115265 -0.9719317555427551 0.12081722170114517
vn 0.7041960954666138 -0.571388840675354 0.42145293951034546
vn -0.7030039429664612 -0.5733790397644043 -0.4207397699356079
vn 0.7041972875595093 -0.5713863968849182 0.4214542806148529
vn -0.7030039429664612 -0.5733790993690491 -0.4207397699356079
vn -0.7030038833618164 -0.5733791589736938 -0.42073971033096313
vn -0.7030038833618164 -0.5733791589736938 -0.42073965072631836
vn 0.7041970491409302 -0.5713870525360107 0.42145395278930664
vn 0.7041964530944824 -0.5713882446289062 0.4214532971382141
vn -0.397904634475708 -0.8859800100326538 -0.23814129829406738
vn -0.20663343369960785 -0.9705714583396912 -0.12366771697998047
vn -0.3044399917125702 -0.9349428415298462 -0.18220378458499908
vn -0.003616227302700281 -0.9999911189079285 -0.0021642807405442
vn 0.8537867069244385 0.09973157197237015 0.5109813213348389
vn 0.8562580347061157 0.06485768407583237 0.5124604105949402
vn 0.8457119464874268 0.16907043755054474 0.506148636341095
vn 0.8562580347061157 0.06485768407583237 0.5124604105949402
vn 0.8502698540687561 0.13448333740234375 0.5088765025138855
vn 0.8537867069244385 0.09973157197237015 0.5109813213348389
vn 0.8562580347061157 0.06485768407583237 0.5124604105949402
vn 0.8521586656570435 0.11712534725666046 0.5100070834159851
vn -0.8552002310752869 -0.08163982629776001 -0.5118275880813599
vn -0.8580359220504761 0.008181152865290642 -0.5135246515274048
vn -0.8511880040168762 -0.12634819746017456 -0.5094262957572937
vn -0.8574844002723694 -0.03676648437976837 -0.5131946206092834
vn -0.8511881828308105 -0.12634801864624023 -0.5094262361526489
vn 0.8578039407730103 -0.02464614249765873 0.5133858323097229
vn 0.8559975624084473 -0.06936882436275482 0.5123047828674316
vn 0.8578908443450928 0.020125942304730415 0.5134377479553223
vn 0.8524752259254456 -0.11395245045423508 0.51019686460495
vn 0.8524750471115112 -0.11395323276519775 0.5101969242095947
vn -0.8552002906799316 -0.08163963258266449 -0.5118274688720703
vn -0.8580359220504761 0.008181152865290642 -0.5135246515274048
vn -0.8511881828308105 -0.12634781002998352 -0.5094260573387146
vn 0.8559973835945129 -0.0693696066737175 0.5123049020767212
vn 0.8578908443450928 0.020125942304730415 0.5134377479553223
vn 0.8524749279022217 -0.11395401507616043 0.5101970434188843
vn -0.8318816423416138 -0.245146706700325 -0.4978714883327484
vn -0.8004134893417358 -0.3603616952896118 -0.479038268327713
vn -0.7572439312934875 -0.47030824422836304 -0.4532017409801483
vn -0.7030038833618164 -0.5733791589736938 -0.42073965072631836
vn -0.7030038833618164 -0.5733791589736938 -0.42073971033096313
vn 0.7592297792434692 -0.4659391939640045 0.4543905556201935
vn 0.8339375257492065 -0.23546765744686127 0.4991024136543274
vn 0.7041972875595093 -0.5713863968849182 0.4214542806148529
vn 0.8026973605155945 -0.35339459776878357 0.48040536046028137
vn 0.7041970491409302 -0.5713870525360107 0.42145395278930664
vn -0.831881582736969 -0.24514690041542053 -0.49787160754203796
vn -0.7030039429664612 -0.5733790397644043 -0.4207397699356079
vn -0.7572439908981323 -0.47030818462371826 -0.4532018005847931
vn -0.7030039429664612 -0.5733790993690491 -0.4207397699356079
vn 0.8339377641677856 -0.23546689748764038 0.4991024136543274
vn 0.7592293620109558 -0.46594056487083435 0.4543900191783905
vn -0.8547332286834717 0.08803313225507736 -0.5115479826927185
vn -0.8568534851074219 0.05311225727200508 -0.5128169059753418
vn -0.8532800078392029 0.10545570403337479 -0.510678231716156
vn -0.8515653014183044 0.1228461042046547 -0.5096520185470581
vn -0.8568534851074219 0.05311225727200508 -0.5128169059753418
vn -0.8547332286834717 0.08803313225507736 -0.5115479826927185
vn -0.8473538756370544 0.15750855207443237 -0.5071315765380859
vn -0.8568534851074219 0.05311225727200508 -0.5128169059753418
vn 0.845711886882782 0.16907037794589996 0.5061489343643188
vn 0.8401181697845459 0.20345035195350647 0.5028015375137329
vn -0.842103898525238 0.1919776350259781 -0.5039896965026855
vn -0.8473538756370544 0.15750840306282043 -0.5071316361427307
vn -0.8394311666488647 0.20726725459098816 -0.5023900866508484
vn -0.8380179405212402 0.21489331126213074 -0.5015442967414856
vn -0.7030039429664612 -0.5733791589736938 -0.4207397699356079
vn -0.842103898525238 0.19197778403759003 -0.5039896368980408
vn -0.8365538716316223 0.22250640392303467 -0.5006679892539978
vn -0.842103898525238 0.19197793304920197 -0.503989577293396
vn -0.8394311666488647 0.2072674036026001 -0.5023899674415588
vn -0.8380181789398193 0.21489305794239044 -0.5015442371368408
vn 0.8358132839202881 0.22625580430030823 0.5002243518829346
vn 0.8276265263557434 0.26398444175720215 0.4953247010707855
vn 0.8310524225234985 0.24893778562545776 0.4973750412464142
vn -0.8301892280578613 0.25281819701194763 -0.4968588948249817
vn 0.8401184678077698 0.2034505009651184 0.5028010010719299
vn -0.8334730267524719 0.2376912534236908 -0.49882420897483826
vn 0.8372989892959595 0.21866707503795624 0.5011138916015625
vn 0.8358132243156433 0.22625575959682465 0.5002246499061584
vn -0.8301897644996643 0.25281664729118347 -0.4968588352203369
vn 0.8310524225234985 0.24893778562545776 0.4973750412464142
vn 0.8276265263557434 0.26398444175720215 0.4953247010707855
vn -0.833473265171051 0.23769044876098633 -0.4988241195678711
vn 0.8401182889938354 0.20345042645931244 0.5028012990951538
vn 0.8342767953872681 0.2338307797908783 0.49930480122566223
vn 0.8372991681098938 0.2186671495437622 0.5011136531829834
vn 0.8562580347061157 0.06485768407583237 0.5124604105949402
vn -0.851188063621521 -0.1263481080532074 -0.5094262361526489
vn -0.8511881828308105 -0.12634791433811188 -0.5094261169433594
vn 0.852475106716156 -0.11395363509654999 0.5101970434188843
vn 0.8524751663208008 -0.11395284533500671 0.5101969242095947
vn 0.835051417350769 0.23004505038261414 0.49976837635040283
vn -0.8372923731803894 0.21870139241218567 -0.5011099576950073
vn -0.8372923731803894 0.2187015563249588 -0.5011100172996521
vn -0.8524553775787354 0.11415528506040573 -0.5101847052574158
vn 0.8512469530105591 0.12580916285514832 0.5094613432884216
vn 0.7041960954666138 -0.571388840675354 0.42145293951034546
vn 0.7041964530944824 -0.5713882446289062 0.4214532971382141
vn 0.8276265263557434 0.26398444175720215 0.4953247010707855
vn 0.8276265263557434 0.26398444175720215 0.4953247010707855
vn 0.8276265263557434 0.26398444175720215 0.4953247010707855
vn -0.83018958568573 0.25281745195388794 -0.4968589246273041
vn -0.8301897048950195 0.2528170347213745 -0.4968588948249817
vn -0.8301894068717957 0.2528178095817566 -0.4968588948249817
vn -0.842103898525238 0.191977858543396 -0.503989577293396
vn -0.842103898525238 0.19197770953178406 -0.5039896965026855
vn 0.8401182293891907 0.20345038175582886 0.5028014183044434
vn 0.840118408203125 0.20345047116279602 0.5028011798858643
vn -0.8568534851074219 0.05311225727200508 -0.5128169059753418
vn -0.8568534851074219 0.05311225727200508 -0.5128169059753418
vn 0.8562580347061157 0.06485768407583237 0.5124604105949402
vn 0.7041967511177063 -0.5713877081871033 0.42145365476608276
vt 1.2092876434326172 2.3834826946258545
vt 1.3733234405517578 2.5138092041015625
vt 1.0489903688430786 2.5195118188858032
vt 1.3695847988128662 2.247453451156616
vt 1.0452516078948975 2.2531559467315674
vt 1.522404432296753 1.578712522983551
vt 1.3583685159683228 1.448385864496231
vt 1.682701587677002 1.4426833391189575
vt 1.362107276916504 1.7147417068481445
vt 1.686440348625183 1.7090392112731934
vt 0.5606213808059692 2.394887685775757
vt 0.7246572971343994 2.525214433670044
vt 0.4003242254257202 2.530916929244995
vt 0.720918595790863 2.258858561515808
vt 0.39658546447753906 2.2645610570907593
vt 1.1980713605880737 1.584415078163147
vt 1.0340354442596436 1.4540883898735046
vt 1.0377742052078247 1.7204442620277405
vt 0.8849544525146484 2.3891851902008057
vt 0.8737382888793945 1.5901175737380981
vt 0.7134411334991455 1.7261468172073364
vt 0.7097023725509644 1.4597909152507782
vt 1.6939177513122559 2.2417508363723755
vt 1.5336205959320068 2.3777800798416138
vt 1.697656512260437 2.5081067085266113
vt 0.38910800218582153 1.7318493127822876
vt 0.5494052171707153 1.595820128917694
vt 0.3853692412376404 1.4654934406280518
vt 1.0415129661560059 1.9868001341819763
vt 0.8812158107757568 2.12282931804657
vt 0.7171798944473267 1.9925026893615723
vt 1.365846037864685 1.9810975790023804
vt 1.2018101215362549 1.8507709503173828
vt 1.5298819541931152 2.111424207687378
vt 1.6901791095733643 1.9753950238227844
vt 0.5531439185142517 1.86217600107193
vt 0.3928467333316803 1.9982051849365234
vt 1.526143193244934 1.845068335533142
vt 1.205548882484436 2.1171268224716187
vt 0.8774770498275757 1.856473445892334
vt 0.5568826794624329 2.1285319328308105
vt 0.265037477016449 0.7497506737709045
vt 0.05569261312484741 0.9995006322860718
vt 0.14656680822372437 0.6248758435249329
vt 0.23744098842144012 0.25025105476379395
vt 0.5019788146018982 0.9995003640651703
vt 0.2788357138633728 0.999500498175621
vt 0.44363096356391907 0.0005005002021789551
vt 0.47438234090805054 0.5000007450580597
vt 0.2916446030139923 0.7512388229370117
vt 0.5505859851837158 0.006453394889831543
vt 0.3146340250968933 0.2547152042388916
vt 0.5275965929031372 0.5029770135879517
vt 0.028096124529838562 0.5000010132789612
vt 0.0786820501089096 0.5029770135879517
vt 0.18516331911087036 0.6271079182624817
vt 0.7635485529899597 0.2547152042388916
vt 0.6805723309516907 0.2502501606941223
vt 0.9175136685371399 0.49999988079071045
vt 0.8144186735153198 0.6248751282691956
vt 0.948265016078949 0.9995000958442688
vt 0.7113236784934998 0.7497504353523254
vt 0.0004996359348297119 0.0005013942718505859
vt 0.1016714870929718 0.006453394889831543
vt 0.8867623209953308 0.0004996061325073242
vt 0.3261287212371826 0.006453394889831543
vt 0.775043249130249 0.006453394889831543
vt 0.9995005130767822 0.006453394889831543
vt 0.6651966571807861 0.0005000829696655273
vt 0.2220652997493744 0.0005009174346923828
vt 0.973882794380188 0.5029767453670502
vt 0.7379307746887207 0.7512385547161102
vt 0.8559067845344543 0.6271076500415802
vt 0.7251219153404236 0.9995002299547195
vt 0.5 0.4366716146469116
vt 0 0.49898195266723633
vt 0.5 0.31205105781555176
vt 1 0.49898189306259155
vt 1 0.3743613362312317
vt 1.5 0.4366716146469116
vt 2 0.4989818334579468
vt 1.75 0.40576303005218506
vt 0.5 0.6873129308223724
vt 0.5 0.5624378323554993
vt 0 0.749750554561615
vt 1 0.6248753070831299
vt 1 0.7700722813606262
vt 1 0.6236025094985962
vt 0.5 0.6859128475189209
vt 0.5 0.5612922310829163
vt 0 0.7482231855392456
vt 1 0.7624506056308746
vt 1.5 0.7076346576213837
vt 1.5 0.5624376833438873
vt 2 0.7903940081596375
vt 1.5 0.7001402676105499
vt 1.5 0.5612921714782715
vt 2 0.7766780257225037
vt 1.5 0.8325097858905792
vt 1 0.874625563621521
vt 1.5 0.937063068151474
vt 2 0.999500572681427
vt 1.5 0.999500572681427
vt 1.5 0.9351537525653839
vt 1.5 0.8247607946395874
vt 2 0.9974639415740967
vt 1 0.8728435635566711
vt 1.5 0.9974640905857086
vt 0.5 0.812188059091568
vt 0 0.999500572681427
vt 0.5 0.937063068151474
vt 0.5 0.999500572681427
vt 0.5 0.8105333745479584
vt 0.5 0.9351540505886078
vt 1.5 0.43756258487701416
vt 2 0.5000000596046448
vt 1.75 0.40705251693725586
vt 1 0.37512511014938354
vt 1 0.5000002086162567
vt 0.5 0.4375627040863037
vt 0.5 0.31268763542175293
vt 0 0.5000003576278687
vt 1.5 0.31254422664642334
vt 2 0.2507270574569702
vt 2 0.2530847191810608
vt 1.5 0.31410491466522217
vt 1.5 0.1892298460006714
vt 1.75 0.1580110788345337
vt 1 0.999500572681427
vt 1 0.25166743993759155
vt 1 0.12537503242492676
vt 0 0.2502501606941223
vt 0.5 0.18781256675720215
vt 0.25 0.15659379959106445
vt 0.25 0.15627539157867432
vt 0 0.0004998445510864258
vt 0.5 0.0628100037574768
vt 2 0.0004999637603759766
vt 0 0.2497408390045166
vt 1.5 0.06293749809265137
vt 1.5 0.1879236102104187
vt 1.75 0.15676844120025635
vt 0 0.0004998445510864258
vt 1.5 0.06280982494354248
vt 2 0.0004995465278625488
vt 0.5 0.06293743848800659
vt 1 0.2502339482307434
vt 1 0.1251201629638672
vt 0.5 0.1874305009841919
vt 0.5 0.49898195266723633
vt 0.5 0.7599114179611206
vt 1.5 0.7802331447601318
vt 1.5 0.7695643156766891
vt 0.5 0.7553368955850601
vt 0.625 0.14069777727127075
vt 0.625 0.1409844160079956
vt 1.375 0.14169305562973022
vt 1.375 0.3910888433456421
vt 1.375 0.39006221294403076
vt 0 0.9974645376205444
vt 0.5 0.9974643886089325
vt 0.5 0.0004997849464416504
vt 1 0.000499725341796875
vt 1.5 0.0004996061325073242
vt 1 0.0004999041557312012
vt 0.5 0.0004998445510864258
vt 1.5 0.0004999637603759766
vt 0.5 0.25095880031585693
vt 1.5 0.25237607955932617
vt 1.5 0.2504805326461792
vt 0.5 0.24998736381530762
vt 1.5 0.5000001192092896
vt 0.5 0.5000002980232239
vt 1.5 0.4989818334579468
vt 1 0.9974642395973206
g int630
s 1
f 1/1/1 2/2/2 3/3/3
f 4/4/4 2/2/2 1/1/1
f 5/5/5 4/4/4 1/1/1
f 5/5/5 1/1/1 3/3/3
f 6/6/6 7/7/7 8/8/8
f 9/9/9 7/7/7 6/6/6
f 6/6/6 10/10/10 9/9/9
f 8/8/8 10/10/10 6/6/6
f 11/11/11 12/12/12 13/13/13
f 14/14/14 12/12/12 11/11/11
f 11/11/11 15/15/15 14/14/14
f 13/13/13 15/15/15 11/11/11
f 9/9/9 16/16/16 7/7/7
f 16/16/16 17/17/17 7/7/7
f 18/18/18 17/17/17 16/16/16
f 18/18/18 16/16/16 9/9/9
f 14/14/14 19/19/19 12/12/12
f 19/19/19 3/3/3 12/12/12
f 5/5/5 3/3/3 19/19/19
f 5/5/5 19/19/19 14/14/14
f 18/18/18 20/20/20 17/17/17
f 18/18/18 21/21/21 20/20/20
f 21/21/21 22/22/22 20/20/20
f 20/20/20 22/22/22 17/17/17
f 23/23/23 24/24/24 4/4/4
f 23/23/23 25/25/25 24/24/24
f 24/24/24 25/25/25 2/2/2
f 4/4/4 24/24/24 2/2/2
f 26/26/26 27/27/27 21/21/21
f 26/26/26 28/28/28 27/27/27
f 27/27/27 28/28/28 22/22/22
f 21/21/21 27/27/27 22/22/22
f 29/29/29 5/5/5 30/30/30
f 30/30/30 5/5/5 14/14/14
f 14/14/14 31/31/31 30/30/30
f 30/30/30 31/31/31 29/29/29
f 9/9/9 32/32/32 33/33/33
f 33/33/33 32/32/32 29/29/29
f 29/29/29 18/18/18 33/33/33
f 33/33/33 18/18/18 9/9/9
f 34/34/34 4/4/4 32/32/32
f 35/35/35 34/34/34 32/32/32
f 35/35/35 23/23/23 34/34/34
f 34/34/34 23/23/23 4/4/4
f 36/36/36 21/21/21 31/31/31
f 37/37/37 36/36/36 31/31/31
f 37/37/37 26/26/26 36/36/36
f 36/36/36 26/26/26 21/21/21
f 38/38/38 35/35/35 32/32/32
f 9/9/9 38/38/38 32/32/32
f 10/10/10 38/38/38 9/9/9
f 10/10/10 35/35/35 38/38/38
f 39/39/39 4/4/4 5/5/5
f 29/29/29 39/39/39 5/5/5
f 32/32/32 39/39/39 29/29/29
f 32/32/32 4/4/4 39/39/39
f 40/40/40 21/21/21 18/18/18
f 29/29/29 40/40/40 18/18/18
f 31/31/31 40/40/40 29/29/29
f 31/31/31 21/21/21 40/40/40
f 41/41/41 37/37/37 31/31/31
f 14/14/14 41/41/41 31/31/31
f 15/15/15 41/41/41 14/14/14
f 15/15/15 37/37/37 41/41/41
g int631
s 1
f 42/42/42 43/43/43 44/44/44
f 42/42/42 44/44/44 45/45/45
f 46/46/46 47/47/47 42/42/42
f 47/47/47 43/43/43 42/42/42
f 45/45/45 48/48/48 49/49/49
f 43/43/43 47/47/47 50/50/50
f 47/47/47 46/46/46 50/50/50
f 51/51/51 52/52/52 53/53/53
f 44/44/44 43/43/43 54/54/54
f 45/45/45 44/44/44 54/54/54
f 52/52/52 55/55/55 56/56/56
f 57/57/57 51/51/51 53/53/53
f 56/56/56 55/55/55 43/43/43
f 50/50/50 56/56/56 43/43/43
f 50/50/50 52/52/52 56/56/56
f 58/58/58 59/59/59 60/60/60
f 60/60/60 59/59/59 61/61/61
f 62/62/62 60/60/60 61/61/61
f 62/62/62 58/58/58 60/60/60
f 46/46/46 42/42/42 49/49/49
f 49/49/49 42/42/42 45/45/45
f 45/45/45 54/54/54 63/63/63
f 50/50/50 46/46/46 53/53/53
f 53/53/53 52/52/52 50/50/50
f 52/52/52 64/64/64 55/55/55
f 58/58/58 65/65/65 59/59/59
f 62/62/62 46/46/46 49/49/49
f 49/49/49 58/58/58 62/62/62
f 51/51/51 66/66/66 52/52/52
f 66/66/66 64/64/64 52/52/52
f 67/67/67 51/51/51 57/57/57
f 68/68/68 67/67/67 57/57/57
f 69/69/69 65/65/65 58/58/58
f 48/48/48 69/69/69 58/58/58
f 70/70/70 48/48/48 45/45/45
f 63/63/63 70/70/70 45/45/45
f 57/57/57 71/71/71 68/68/68
f 53/53/53 72/72/72 57/57/57
f 46/46/46 72/72/72 53/53/53
f 73/73/73 61/61/61 71/71/71
f 48/48/48 58/58/58 49/49/49
f 57/57/57 73/73/73 71/71/71
f 72/72/72 73/73/73 57/57/57
f 72/72/72 61/61/61 73/73/73
f 74/74/74 61/61/61 72/72/72
f 46/46/46 74/74/74 72/72/72
f 74/74/74 46/46/46 62/62/62
f 61/61/61 74/74/74 62/62/62
g int632
s 1
f 75/75/75 76/76/76 77/77/77
f 78/78/78 75/75/75 79/79/79
f 80/80/80 78/78/78 79/79/79
f 81/81/81 80/80/80 82/82/82
f 83/83/83 84/84/84 85/85/85
f 86/86/86 84/84/84 83/83/83
f 86/86/86 83/83/83 87/87/87
f 88/88/88 89/89/89 90/90/90
f 89/89/89 91/91/91 90/90/90
f 89/89/89 88/88/88 92/92/92
f 86/86/86 87/87/87 93/93/93
f 94/94/94 86/86/86 93/93/93
f 94/94/94 93/93/93 95/95/95
f 96/96/96 97/97/97 98/98/98
f 88/88/88 97/97/97 96/96/96
f 92/92/92 88/88/88 96/96/96
f 99/99/99 100/100/100 101/101/101
f 99/99/99 101/101/101 102/102/102
f 101/101/101 103/103/103 102/102/102
f 100/100/100 103/103/103 101/101/101
f 104/104/104 105/105/105 106/106/106
f 107/107/107 105/105/105 104/104/104
f 107/107/107 104/104/104 108/108/108
f 104/104/104 106/106/106 108/108/108
f 109/109/109 110/110/110 111/111/111
f 109/109/109 111/111/111 100/100/100
f 100/100/100 111/111/111 112/112/112
f 111/111/111 110/110/110 112/112/112
f 113/113/113 107/107/107 114/114/114
f 79/79/79 75/75/75 77/77/77
f 115/115/115 116/116/116 117/117/117
f 115/115/115 118/118/118 119/119/119
f 119/119/119 118/118/118 120/120/120
f 118/118/118 121/121/121 120/120/120
f 120/120/120 121/121/121 122/122/122
f 82/82/82 123/123/123 124/124/124
f 81/81/81 82/82/82 124/124/124
f 117/117/117 116/116/116 125/125/125
f 126/126/126 117/117/117 125/125/125
f 127/127/127 125/125/125 128/128/128
f 100/100/100 112/112/112 129/129/129
f 130/130/130 127/127/127 131/131/131
f 132/132/132 133/133/133 134/134/134
f 135/135/135 136/136/136 137/137/137
f 133/133/133 130/130/130 131/131/131
f 128/128/128 125/125/125 138/138/138
f 139/139/139 136/136/136 135/135/135
f 140/140/140 128/128/128 138/138/138
f 124/124/124 141/141/141 142/142/142
f 132/132/132 134/134/134 143/143/143
f 142/142/142 141/141/141 144/144/144
f 142/142/142 144/144/144 145/145/145
f 134/134/134 146/146/146 143/143/143
f 124/124/124 142/142/142 145/145/145
f 141/141/141 147/147/147 148/148/148
f 141/141/141 148/148/148 144/144/144
f 147/147/147 149/149/149 148/148/148
f 139/139/139 135/135/135 149/149/149
f 78/78/78 90/90/90 150/150/150
f 78/78/78 150/150/150 75/75/75
f 150/150/150 76/76/76 75/75/75
f 87/87/87 151/151/151 109/109/109
f 151/151/151 85/85/85 109/109/109
f 83/83/83 85/85/85 151/151/151
f 83/83/83 151/151/151 87/87/87
f 95/95/95 152/152/152 99/99/99
f 152/152/152 87/87/87 99/99/99
f 93/93/93 87/87/87 152/152/152
f 93/93/93 152/152/152 95/95/95
f 92/92/92 153/153/153 105/105/105
f 153/153/153 98/98/98 105/105/105
f 153/153/153 96/96/96 98/98/98
f 92/92/92 96/96/96 153/153/153
f 91/91/91 154/154/154 113/113/113
f 154/154/154 92/92/92 113/113/113
f 154/154/154 89/89/89 92/92/92
f 91/91/91 89/89/89 154/154/154
f 155/155/155 137/137/137 148/148/148
f 135/135/135 137/137/137 155/155/155
f 149/149/149 135/135/135 155/155/155
f 149/149/149 155/155/155 148/148/148
f 134/134/134 156/156/156 146/146/146
f 156/156/156 131/131/131 146/146/146
f 133/133/133 131/131/131 156/156/156
f 133/133/133 156/156/156 134/134/134
f 131/131/131 157/157/157 140/140/140
f 157/157/157 128/128/128 140/140/140
f 157/157/157 127/127/127 128/128/128
f 131/131/131 127/127/127 157/157/157
f 118/118/118 158/158/158 126/126/126
f 158/158/158 117/117/117 126/126/126
f 158/158/158 115/115/115 117/117/117
f 118/118/118 115/115/115 158/158/158
f 82/82/82 159/159/159 123/123/123
f 159/159/159 79/79/79 123/123/123
f 80/80/80 79/79/79 159/159/159
f 80/80/80 159/159/159 82/82/82
f 113/113/113 114/114/114 160/160/160
f 114/114/114 161/161/161 160/160/160
f 107/107/107 161/161/161 114/114/114
f 137/137/137 136/136/136 162/162/162
f 137/137/137 162/162/162 163/163/163
f 144/144/144 163/163/163 164/164/164
f 144/144/144 164/164/164 145/145/145
f 146/146/146 165/165/165 166/166/166
f 146/146/146 166/166/166 143/143/143
f 140/140/140 138/138/138 167/167/167
f 140/140/140 167/167/167 165/165/165
f 168/168/168 121/121/121 130/130/130
f 132/132/132 121/121/121 168/168/168
f 132/132/132 168/168/168 133/133/133
f 168/168/168 130/130/130 133/133/133
f 169/169/169 126/126/126 125/125/125
f 130/130/130 126/126/126 169/169/169
f 130/130/130 169/169/169 127/127/127
f 169/169/169 125/125/125 127/127/127
f 123/123/123 147/147/147 170/170/170
f 123/123/123 170/170/170 124/124/124
f 124/124/124 170/170/170 141/141/141
f 170/170/170 147/147/147 141/141/141
f 77/77/77 139/139/139 171/171/171
f 77/77/77 171/171/171 147/147/147
f 147/147/147 171/171/171 149/149/149
f 171/171/171 139/139/139 149/149/149
f 116/116/116 172/172/172 94/94/94
f 172/172/172 119/119/119 94/94/94
f 172/172/172 115/115/115 119/119/119
f 116/116/116 115/115/115 172/172/172
f 119/119/119 173/173/173 84/84/84
f 173/173/173 122/122/122 84/84/84
f 173/173/173 120/120/120 122/122/122
f 119/119/119 120/120/120 173/173/173
f 174/174/174 97/97/97 78/78/78
f 81/81/81 97/97/97 174/174/174
f 81/81/81 174/174/174 80/80/80
f 174/174/174 78/78/78 80/80/80
f 150/150/150 90/90/90 76/76/76
f 131/131/131 165/165/165 146/146/146
f 148/148/148 163/163/163 144/144/144
f 100/100/100 129/129/129 103/103/103
f 131/131/131 140/140/140 165/165/165
f 130/130/130 118/118/118 126/126/126
f 107/107/107 108/108/108 175/175/175
f 148/148/148 137/137/137 163/163/163
f 79/79/79 147/147/147 123/123/123
f 121/121/121 132/132/132 122/122/122
f 121/121/121 118/118/118 130/130/130
f 77/77/77 76/76/76 139/139/139
f 79/79/79 77/77/77 147/147/147
f 107/107/107 175/175/175 161/161/161
f 84/84/84 122/122/122 85/85/85
f 119/119/119 84/84/84 86/86/86
f 90/90/90 91/91/91 76/76/76
f 78/78/78 88/88/88 90/90/90
f 116/116/116 94/94/94 95/95/95
f 94/94/94 119/119/119 86/86/86
f 97/97/97 81/81/81 98/98/98
f 97/97/97 88/88/88 78/78/78
f 95/95/95 99/99/99 102/102/102
f 99/99/99 87/87/87 100/100/100
f 105/105/105 98/98/98 106/106/106
f 92/92/92 105/105/105 107/107/107
f 85/85/85 110/110/110 109/109/109
f 87/87/87 109/109/109 100/100/100
f 91/91/91 113/113/113 160/160/160
f 113/113/113 92/92/92 107/107/107
