# Exported using wow.export v0.2.19
o darnassis_bridge100.obj
v -189.52288818359375 -14.33935260772705 435.94842529296875
v -185.0521240234375 -14.331815719604492 436.12347412109375
v -185.0521240234375 -16.120670318603516 436.12347412109375
v -189.52288818359375 -16.128204345703125 435.94842529296875
v -190.38548278808594 -6.383627891540527 456.87353515625
v -189.90316772460938 -6.595262050628662 451.10479736328125
v -186.12615966796875 -6.588858604431152 451.1479187011719
v -185.88314819335938 -7.79030179977417 443.5260925292969
v -189.6710662841797 -7.796706199645996 443.4323425292969
v -186.19937133789062 -4.514322280883789 459.1380310058594
v -186.12615966796875 -5.364264011383057 451.1479187011719
v -189.90316772460938 -5.370667934417725 451.10479736328125
v -190.62612915039062 -4.514322280883789 459.1380310058594
v -185.0521240234375 -16.120670318603516 436.12347412109375
v -185.88314819335938 -9.014897346496582 443.5260925292969
v -189.6710662841797 -9.02130126953125 443.4323425292969
v -189.52288818359375 -16.128204345703125 435.94842529296875
v -186.15257263183594 -6.370565414428711 456.87353515625
v -182.39222717285156 -13.264291763305664 436.2274475097656
v -185.0521240234375 -13.26877498626709 436.12347412109375
v -185.88314819335938 -6.949971675872803 443.5260925292969
v -183.55197143554688 -3.4240314960479736 459.1708068847656
v -186.19937133789062 -3.451280355453491 459.1380310058594
v -186.19937133789062 -4.514322280883789 459.1380310058594
v -182.39222717285156 -16.116188049316406 436.2274475097656
v -185.0521240234375 -16.120670318603516 436.12347412109375
v -185.0521240234375 -14.331815719604492 436.12347412109375
v -185.0521240234375 -13.26877498626709 436.12347412109375
v -182.39222717285156 -13.264291763305664 436.2274475097656
v -186.19937133789062 -4.514322280883789 459.1380310058594
v -186.19937133789062 -3.451280355453491 459.1380310058594
v -186.12615966796875 -5.364264011383057 451.1479187011719
v -186.12615966796875 -4.523935317993164 451.1479187011719
v -185.88314819335938 -7.79030179977417 443.5260925292969
v -185.88314819335938 -6.949971675872803 443.5260925292969
v -185.0521240234375 -14.331815719604492 436.12347412109375
v -185.0521240234375 -13.26877498626709 436.12347412109375
v -183.5811309814453 -6.362628936767578 456.87353515625
v -183.87896728515625 -4.5201239585876465 451.1734313964844
v -183.64662170410156 -4.130814552307129 456.87353515625
v -183.87896728515625 -6.585047721862793 451.1734313964844
v -183.62950134277344 -6.94616174697876 443.58172607421875
v -183.62950134277344 -9.011086463928223 443.58172607421875
v -182.39222717285156 -16.116188049316406 436.2274475097656
v -186.15257263183594 -6.370565414428711 456.87353515625
v -186.12615966796875 -6.588858604431152 451.1479187011719
v -185.88314819335938 -9.014897346496582 443.5260925292969
v -185.0521240234375 -16.120670318603516 436.12347412109375
v -183.55197143554688 -3.4240314960479736 459.1708068847656
v -183.52264404296875 -4.130815505981445 459.1380310058594
v -183.52264404296875 -4.130815505981445 459.1380310058594
v -183.56590270996094 -4.514321804046631 459.1380310058594
v -192.93191528320312 -6.391487121582031 456.87347412109375
v -189.90316772460938 -6.595262050628662 451.10479736328125
v -190.38548278808594 -6.383627891540527 456.87353515625
v -192.93600463867188 -4.130814552307129 456.87353515625
v -193.2528839111328 -3.4405338764190674 459.205078125
v -192.15040588378906 -4.534147262573242 451.0790100097656
v -190.62612915039062 -4.514322280883789 459.1380310058594
v -193.25653076171875 -4.130815505981445 459.1380310058594
v -193.262451171875 -4.514322280883789 459.1380310058594
v -190.62612915039062 -3.451280355453491 459.1380310058594
v -189.90316772460938 -4.530337810516357 451.10479736328125
v -191.9247589111328 -6.9601850509643555 443.3764343261719
v -189.6710662841797 -6.956377029418945 443.4323425292969
v -192.182861328125 -13.280794143676758 435.84405517578125
v -189.52288818359375 -13.276309967041016 435.94842529296875
v -190.62612915039062 -3.451280355453491 459.1380310058594
v -193.2528839111328 -3.4405338764190674 459.205078125
v -189.52288818359375 -16.128204345703125 435.94842529296875
v -192.182861328125 -16.132688522338867 435.84405517578125
v -189.52288818359375 -14.33935260772705 435.94842529296875
v -192.182861328125 -13.280794143676758 435.84405517578125
v -189.52288818359375 -13.276309967041016 435.94842529296875
v -190.62612915039062 -3.451280355453491 459.1380310058594
v -190.62612915039062 -4.514322280883789 459.1380310058594
v -189.90316772460938 -5.370667934417725 451.10479736328125
v -189.90316772460938 -4.530337810516357 451.10479736328125
v -189.6710662841797 -7.796706199645996 443.4323425292969
v -189.6710662841797 -6.956377029418945 443.4323425292969
v -189.52288818359375 -14.33935260772705 435.94842529296875
v -189.52288818359375 -13.276309967041016 435.94842529296875
v -193.25653076171875 -4.130815505981445 459.1380310058594
v -192.15040588378906 -6.5990729331970215 451.0790100097656
v -191.9247589111328 -9.025111198425293 443.3764343261719
v -192.182861328125 -13.280794143676758 435.84405517578125
v -192.182861328125 -16.132688522338867 435.84405517578125
v -189.6710662841797 -9.02130126953125 443.4323425292969
v -189.52288818359375 -16.128204345703125 435.94842529296875
v -186.19937133789062 -3.451280355453491 459.1380310058594
v -186.12615966796875 -4.523935317993164 451.1479187011719
vn 0.029728176072239876 0.4134695827960968 -0.9100325107574463
vn 0.034960292279720306 0.4117739200592041 -0.9106152057647705
vn 0.039124198257923126 0 -0.9992343783378601
vn 0.039124198257923126 0 -0.9992343783378601
vn 0.003083751304075122 -0.9992687106132507 0.038112133741378784
vn -0.002306504175066948 -0.9853392839431763 0.17059066891670227
vn 0.0006237983470782638 -0.9850530028343201 0.17225021123886108
vn 0.010674789547920227 0.8711941838264465 -0.4908224642276764
vn 0.008600197732448578 0.8716493248939514 -0.4900546073913574
vn 0 0.9943661689758301 -0.10599984973669052
vn 0.0006772830383852124 0.9788382053375244 -0.2046346217393875
vn 0.0009174369624815881 0.9788155555725098 -0.20474180579185486
vn 0 0.9943661689758301 -0.10599984973669052
vn -0.025720342993736267 -0.7251499891281128 0.6881104111671448
vn -0.011160044930875301 -0.860288143157959 0.5096859931945801
vn -0.016197510063648224 -0.8613746762275696 0.5077118873596191
vn -0.025720342993736267 -0.7251499891281128 0.6881104111671448
vn 0.003083751304075122 -0.9992687106132507 0.038112133741378784
vn 0.743272066116333 0.5641250014305115 -0.35959649085998535
vn -0.6697046160697937 0.5260332822799683 -0.5241990685462952
vn -0.44394174218177795 0.7767170667648315 -0.44679558277130127
vn -0.01237692590802908 0 0.9999234080314636
vn -0.01237692590802908 0 0.9999234080314636
vn -0.01237692590802908 0 0.9999234080314636
vn 0.039050497114658356 0 -0.9992372393608093
vn 0.039050497114658356 0 -0.9992372393608093
vn 0.039050497114658356 0 -0.9992372393608093
vn 0.039050497114658356 0 -0.9992372393608093
vn 0.039050497114658356 0 -0.9992372393608093
vn -0.9999580383300781 0 -0.009162838570773602
vn -0.7096470594406128 0.6971707344055176 -0.10175440460443497
vn -0.9999580383300781 0 -0.009162838570773602
vn -0.4476213753223419 0.8715168833732605 -0.20023339986801147
vn -0.9994921684265137 0 -0.03186609968543053
vn -0.44394174218177795 0.7767170667648315 -0.44679558277130127
vn -0.9937576651573181 0 -0.11156056821346283
vn -0.6697046160697937 0.5260332822799683 -0.5241990685462952
vn 0.7184069752693176 -0.6956152319908142 -0.0032956963405013084
vn 0.43890830874443054 0.8728026151657104 -0.21348322927951813
vn 0.9986576437950134 0.029307805001735687 -0.04270763695240021
vn 0.44899842143058777 -0.8774874806404114 0.16857095062732697
vn 0.7305331826210022 0.6247292160987854 -0.27574390172958374
vn 0.6905222535133362 -0.5888885259628296 0.4199873208999634
vn 0.6505824327468872 -0.48853999376296997 0.5814388990402222
vn 0.0030840407125651836 -0.9992687106132507 0.03811214119195938
vn 0.0006352657801471651 -0.9850529432296753 0.17225055396556854
vn -0.0090719535946846 -0.8597908020019531 0.5105658769607544
vn -0.015849800780415535 -0.7222208976745605 0.691480815410614
vn 0.7021946310997009 0.7009651064872742 -0.12478228658437729
vn 0.9975401759147644 0.04393865540623665 -0.054616253823041916
vn 0.006596309132874012 -0.046039704233407974 0.998917818069458
vn 0 0 1
vn -0.7019925117492676 -0.708806037902832 -0.06928560137748718
vn -0.00028345343889668584 -0.9853995442390442 0.17025771737098694
vn 0.0030834281351417303 -0.9993135333061218 0.036918915808200836
vn -0.9899557828903198 0.018824854865670204 -0.14011861383914948
vn -0.6870536804199219 0.7013583779335022 -0.1898781806230545
vn -0.6989336609840393 0.6837406158447266 -0.20973911881446838
vn 0.005725380498915911 -0.0483693927526474 0.9988130927085876
vn -0.0070509519428014755 -0.04836110398173332 0.998805046081543
vn 0 0 1
vn 0.7087365388870239 0.7047897577285767 -0.031046705320477486
vn 0.45086583495140076 0.8789589405059814 -0.1554063856601715
vn -0.4455080032348633 0.7792465686798096 -0.4407917559146881
vn 0.4640585482120514 0.7821213006973267 -0.41585567593574524
vn -0.7094569802284241 0.5516446828842163 -0.4385874569416046
vn 0.7199112772941589 0.5372419953346252 -0.4394300580024719
vn 0.025520171970129013 0 0.9996743202209473
vn 0.005725380498915911 -0.0483693927526474 0.9988130927085876
vn 0.039212100207805634 0 -0.9992309212684631
vn 0.039212100207805634 0 -0.9992309212684631
vn 0.039212100207805634 0 -0.9992309212684631
vn 0.039212100207805634 0 -0.9992309212684631
vn 0.039212100207805634 0 -0.9992309212684631
vn 0.7087365388870239 0.7047897577285767 -0.031046705320477486
vn 0.9959748387336731 0 0.0896332636475563
vn 0.9959748387336731 0 0.0896332636475563
vn 0.45086583495140076 0.8789589405059814 -0.1554063856601715
vn 0.9995427131652832 0 0.030238572508096695
vn 0.4640585482120514 0.7821213006973267 -0.41585567593574524
vn 0.9998040199279785 0 0.019795892760157585
vn 0.7199112772941589 0.5372419953346252 -0.4394300580024719
vn -0.9899557828903198 0.018824854865670204 -0.14011861383914948
vn -0.7125511765480042 -0.6988366842269897 0.06243453919887543
vn -0.4669923782348633 -0.7677785754203796 0.4386731684207916
vn -0.7094569802284241 0.5516446828842163 -0.4385874569416046
vn -0.7076719999313354 -0.5016161203384399 0.49757567048072815
vn -0.009079186245799065 -0.8613757491111755 0.5078871846199036
vn -0.015850422903895378 -0.7252011895179749 0.6883545517921448
vn -0.7096470594406128 0.6971707344055176 -0.10175440460443497
vn -0.4476213753223419 0.8715168833732605 -0.20023339986801147
vt 0.0009989142417907715 0.22222483158111572
vt 0.0009990930557250977 0.9995005130767822
vt 0.28084951639175415 0.9995004534721375
vt 0.2808493375778198 0.22222471237182617
vt 4.505967140197754 0.05423015356063843
vt 3.2963244915008545 0.07047224044799805
vt 3.2963247299194336 0.8477479219436646
vt 1.4770277738571167 0.8740278482437134
vt 1.477027177810669 0.09675216674804688
vt 5 0.777775228023529
vt 3.176750659942627 0.8022552728652954
vt 3.1767499446868896 0.024979591369628906
vt 5 0.0004994869232177734
vt 0.6951313614845276 0.9995004534721375
vt 1.7080280780792236 0.9148154258728027
vt 1.7080276012420654 0.13753974437713623
vt 0.6951308846473694 0.22222471237182617
vt 4.497242450714111 0.8316230177879333
vt 0 0.3700000047683716
vt 0 0.5
vt 1.8708114624023438 0.5
vt 0.5005006194114685 0.75
vt 0.755538284778595 0.75
vt 0.7555378675460815 0.6135265827178955
vt 0.5005007386207581 0.5
vt 0.7555384039878845 0.5
vt 0.7555389404296875 0.6135265827178955
vt 0.7555394768714905 0.75
vt 0.500501811504364 0.75
vt 5 0.015057981014251709
vt 5 0.1440579891204834
vt 3.1237995624542236 0.015057981014251709
vt 3.1237995624542236 0.1440579891204834
vt 1.8708114624023438 0.015057981014251709
vt 1.8708114624023438 0.1440579891204834
vt 0 0.015057981014251709
vt 0 0.1440579891204834
vt 4.4541015625 0.13999998569488525
vt 3.1237995624542236 0.3700000047683716
vt 4.4612135887146 0.3392758369445801
vt 3.1237995624542236 0.13999998569488525
vt 1.8708114624023438 0.3700000047683716
vt 1.8708114624023438 0.13999998569488525
vt 0 0.13999998569488525
vt 4.446329593658447 0
vt 3.1237995624542236 0
vt 1.8708114624023438 0
vt 0 0
vt 5 0.3700000047683716
vt 5 0.31300175189971924
vt 0.5005004405975342 0.6880453824996948
vt 0.5005003213882446 0.6571663618087769
vt 4.454857349395752 0.13999998569488525
vt 3.1237995624542236 0
vt 4.455938339233398 0
vt 4.457141876220703 0.34118032455444336
vt 5 0.3700000047683716
vt 3.1237995624542236 0.3700000047683716
vt 0.7555378675460815 0.6135265827178955
vt 0.5005004405975342 0.6910598874092102
vt 0.5005003213882446 0.6569058299064636
vt 5 0.5
vt 3.1237995624542236 0.5
vt 1.8708114624023438 0.3700000047683716
vt 1.8708114624023438 0.5
vt 0.006704951636493206 0.3700000047683716
vt 0 0.5
vt 0.755538284778595 0.75
vt 0.5005006194114685 0.75
vt 0.7555384039878845 0.5
vt 0.5005007386207581 0.5
vt 0.7555389404296875 0.6135265827178955
vt 0.500501811504364 0.75
vt 0.7555394768714905 0.75
vt 5 0.1440579891204834
vt 5 0.015057981014251709
vt 3.1237995624542236 0.015057981014251709
vt 3.1237995624542236 0.1440579891204834
vt 1.8708114624023438 0.015057981014251709
vt 1.8708114624023438 0.1440579891204834
vt 0 0.015057981014251709
vt 0 0.1440579891204834
vt 5 0.3157750964164734
vt 3.1237995624542236 0.13999998569488525
vt 1.8708114624023438 0.13999998569488525
vt 0 0.3700000047683716
vt 0 0.13999998569488525
vt 1.8708114624023438 0
vt 0 0
vt 5 0.5
vt 3.1237995624542236 0.5
g bridge1000
s 1
f 1/1/1 2/2/2 3/3/3
f 3/3/3 4/4/4 1/1/1
f 5/5/5 6/6/6 7/7/7
f 8/8/8 2/2/2 1/1/1
f 1/1/1 9/9/9 8/8/8
f 10/10/10 11/11/11 12/12/12
f 12/12/12 13/13/13 10/10/10
f 11/11/11 8/8/8 9/9/9
f 9/9/9 12/12/12 11/11/11
f 14/14/14 15/15/15 16/16/16
f 16/16/16 17/17/17 14/14/14
f 15/15/15 7/7/7 6/6/6
f 6/6/6 16/16/16 15/15/15
f 18/18/18 5/5/5 7/7/7
g bridge1001
s 1
f 19/19/19 20/20/20 21/21/21
f 22/22/22 23/23/23 24/24/24
f 25/25/25 26/26/26 27/27/27
f 28/28/28 29/29/29 27/27/27
f 25/25/25 27/27/27 29/29/29
f 30/30/30 31/31/31 32/32/32
f 33/33/33 32/32/32 31/31/31
f 32/32/32 33/33/33 34/34/34
f 35/35/35 34/34/34 33/33/33
f 34/34/34 35/35/35 36/36/36
f 37/37/37 36/36/36 35/35/35
f 38/38/38 39/39/39 40/40/40
f 39/39/39 41/41/41 42/42/42
f 43/43/43 42/42/42 41/41/41
f 42/42/42 43/43/43 19/19/19
f 44/44/44 19/19/19 43/43/43
f 38/38/38 45/45/45 46/46/46
f 41/41/41 46/46/46 47/47/47
f 47/47/47 43/43/43 41/41/41
f 43/43/43 47/47/47 48/48/48
f 48/48/48 44/44/44 43/43/43
f 46/46/46 41/41/41 38/38/38
f 41/41/41 39/39/39 38/38/38
f 49/49/49 40/40/40 39/39/39
f 49/49/49 50/50/50 40/40/40
f 22/22/22 24/24/24 51/51/51
f 51/51/51 24/24/24 52/52/52
f 53/53/53 54/54/54 55/55/55
f 56/56/56 57/57/57 58/58/58
f 53/53/53 56/56/56 58/58/58
f 59/59/59 60/60/60 61/61/61
f 57/57/57 62/62/62 58/58/58
f 63/63/63 58/58/58 62/62/62
f 58/58/58 63/63/63 64/64/64
f 65/65/65 64/64/64 63/63/63
f 64/64/64 65/65/65 66/66/66
f 67/67/67 66/66/66 65/65/65
f 68/68/68 69/69/69 59/59/59
f 70/70/70 71/71/71 72/72/72
f 73/73/73 74/74/74 72/72/72
f 72/72/72 71/71/71 73/73/73
f 59/59/59 69/69/69 60/60/60
f 75/75/75 76/76/76 77/77/77
f 77/77/77 78/78/78 75/75/75
f 78/78/78 77/77/77 79/79/79
f 79/79/79 80/80/80 78/78/78
f 80/80/80 79/79/79 81/81/81
f 81/81/81 82/82/82 80/80/80
f 83/83/83 57/57/57 56/56/56
f 58/58/58 84/84/84 53/53/53
f 84/84/84 58/58/58 64/64/64
f 64/64/64 85/85/85 84/84/84
f 85/85/85 64/64/64 86/86/86
f 86/86/86 87/87/87 85/85/85
f 84/84/84 54/54/54 53/53/53
f 54/54/54 84/84/84 88/88/88
f 85/85/85 88/88/88 84/84/84
f 88/88/88 85/85/85 89/89/89
f 87/87/87 89/89/89 85/85/85
f 90/90/90 49/49/49 39/39/39
f 39/39/39 91/91/91 90/90/90
f 91/91/91 39/39/39 42/42/42
f 42/42/42 21/21/21 91/91/91
f 21/21/21 42/42/42 19/19/19
