# Exported using wow.export v0.2.19
o darnassis_int107.obj
v -51.424957275390625 -1.4030994176864624 9.577277183532715
v -52.19683837890625 -1.4030991792678833 13.317716598510742
v -53.698753356933594 -1.4030990600585938 11.735031127929688
v -55.9725456237793 -1.4030985832214355 13.892784118652344
v -54.47063446044922 -1.4030985832214355 15.475469589233398
v -56.74443054199219 -1.4030981063842773 17.633222579956055
v -52.968719482421875 -1.403098702430725 17.058155059814453
v -57.51631164550781 -1.4030976295471191 21.373661041259766
v -55.242515563964844 -1.4030981063842773 19.21590805053711
v -50.694923400878906 -1.4030992984771729 14.900402069091797
v -48.4211311340332 -1.403099775314331 12.742648124694824
v -51.921958923339844 -8.223301887512207 13.071640968322754
v -54.463253021240234 -8.22330093383789 15.483247756958008
v -52.961341857910156 -8.22330093383789 17.06593132019043
v -55.96516418457031 -8.22330093383789 13.90056324005127
v -57.00455093383789 -8.223299026489258 17.894853591918945
v -52.384483337402344 -8.223302841186523 7.494665145874023
v -53.88639450073242 -8.22330379486084 5.911981105804443
v -54.92578125 -8.223302841186523 9.906271934509277
v -50.882572174072266 -8.223302841186523 9.077349662780762
v -47.87874984741211 -8.223302841186523 12.242718696594238
v -50.4200439453125 -8.223301887512207 14.654325485229492
v -49.38066101074219 -8.223302841186523 10.6600341796875
v -55.50263977050781 -8.223299026489258 19.4775390625
v -58.04393768310547 -8.223298072814941 21.889144897460938
v -53.423866271972656 -8.223301887512207 11.488956451416016
v -62.54967498779297 -8.22330093383789 17.14109230041504
v -61.04776382446289 -8.223299980163574 18.72377586364746
v -60.00837707519531 -8.22330093383789 14.729485511779785
v -58.50646209716797 -8.22330093383789 16.312170028686523
v -56.427696228027344 -8.223302841186523 8.323588371276855
v -61.510292053222656 -8.223302841186523 13.146800994873047
v -58.968994140625 -8.223302841186523 10.73519515991211
v -59.54585266113281 -8.223299026489258 20.306461334228516
v -57.467079162597656 -8.223301887512207 12.317878723144531
v -61.25016784667969 -1.4030976295471191 12.885168075561523
v -61.6361083984375 -1.4030976295471191 14.755386352539062
v -63.52396011352539 -1.4030972719192505 15.04292106628418
v -59.748252868652344 -1.4030978679656982 14.467852592468262
v -62.02204895019531 -1.40309739112854 16.625606536865234
v -52.58277893066406 -1.4030989408493042 15.187935829162598
v -56.9473876953125 -8.223302841186523 10.320734024047852
v -64.05158996582031 -8.223301887512207 15.5584077835083
v -62.02998352050781 -8.22330093383789 15.143946647644043
v -59.01822280883789 -1.4030975103378296 19.79097557067871
v -60.52013397216797 -1.40309739112854 18.208290100097656
v -58.246337890625 -1.4030979871749878 16.050537109375
v -58.97637176513672 -1.4030981063842773 10.72741413116455
v -57.474456787109375 -1.4030983448028564 12.310098648071289
v -55.20066452026367 -1.4030988216400146 10.152345657348633
v -54.42878341674805 -1.4030990600585938 6.411906719207764
v -56.70257568359375 -1.4030985832214355 8.569660186767578
v -52.92687225341797 -1.4030992984771729 7.99459171295166
v -49.92304229736328 -1.403099536895752 11.15996265411377
v -52.63581848144531 -3.1190667152404785 17.13937759399414
v -55.00303268432617 -3.027200698852539 19.453842163085938
v -55.07606506347656 -2.261082172393799 19.256519317626953
v -57.37024688720703 -2.9353346824645996 21.7683048248291
v -47.71071243286133 -6.284983158111572 12.724308967590332
v -50.30516815185547 -6.407074928283691 15.060714721679688
v -50.327476501464844 -5.682101249694824 15.151106834411621
v -52.899627685546875 -6.529167175292969 17.397119522094727
v -52.87732696533203 -7.254140853881836 17.306726455688477
v -52.968719482421875 -1.403098702430725 17.058155059814453
v -52.775489807128906 -2.1692190170288086 17.141414642333984
v -55.14590072631836 -1.7861583232879639 19.257537841796875
v -57.51631164550781 -1.4030976295471191 21.373661041259766
v -50.694923400878906 -1.4030992984771729 14.900402069091797
v -50.59831237792969 -1.7861593961715698 14.942031860351562
v -50.40508270263672 -2.552279472351074 15.025291442871094
v -48.4211311340332 -1.403099775314331 12.742648124694824
v -50.29402160644531 -6.769561767578125 15.015518188476562
v -50.336029052734375 -7.254141807556152 14.895120620727539
v -50.209442138671875 -5.197521209716797 15.199359893798828
v -52.66355895996094 -5.560006618499756 17.49362564086914
v -47.75532150268555 -4.835035800933838 12.905094146728516
v -50.163726806640625 -4.835034370422363 15.190587043762207
v -55.07196044921875 -5.560005187988281 19.779117584228516
v -52.57212829589844 -4.835033416748047 17.4760799407959
v -54.966514587402344 -3.410259962081909 19.552501678466797
v -54.971187591552734 -3.8851840496063232 19.6221923828125
v -57.57179641723633 -6.284977436065674 22.082157135009766
v -57.38893127441406 -4.835030555725098 22.04706573486328
v -52.562782287597656 -3.8851852416992188 17.336700439453125
v -48.034671783447266 -2.935340166091919 12.90916919708252
v -56.61956024169922 -7.370777130126953 8.255338668823242
v -59.160858154296875 -7.370777130126953 10.66694450378418
v -60.335575103759766 -7.79703950881958 11.90687370300293
v -61.510292053222656 -8.223302841186523 13.146800994873047
v -64.05158996582031 -8.223301887512207 15.5584077835083
v -54.27012252807617 -6.518251895904541 5.775482177734375
v -56.715492248535156 -6.944514274597168 8.221213340759277
v -56.734336853027344 -3.9606752395629883 8.134383201599121
v -58.99754333496094 -3.108149290084839 10.43722915649414
v -59.17938995361328 -3.9606752395629883 10.379538536071777
v -56.76573944091797 -6.518251419067383 8.235227584838867
v -54.52497482299805 -3.1081509590148926 6.042670249938965
v -54.47113037109375 -4.813201427459717 5.83153772354126
v -56.77471923828125 -2.681887626647949 8.292732238769531
v -59.02446746826172 -2.2556240558624268 10.542795181274414
v -61.606224060058594 -7.79703950881958 13.112676620483398
v -61.65647506713867 -7.370776653289795 13.126689910888672
v -54.98052978515625 -4.835031986236572 19.761573791503906
v -59.26136016845703 -6.518251419067383 10.69497299194336
v -55.23571014404297 -6.407072067260742 19.739639282226562
v -55.47178268432617 -7.376232624053955 19.643131256103516
v -56.86624526977539 -5.665726661682129 8.26325511932373
v -50.335243225097656 -3.0272035598754883 15.024272918701172
v -50.19557189941406 -3.977051258087158 15.022235870361328
v -52.961341857910156 -8.22330093383789 17.06593132019043
v -50.4200439453125 -8.223301887512207 14.654325485229492
v -47.87874984741211 -8.223302841186523 12.242718696594238
v -61.71459197998047 -6.518251419067383 12.931512832641602
v -64.1678237915039 -6.518251895904541 15.168051719665527
v -61.442596435546875 -3.1081490516662598 12.682384490966797
v -61.26074981689453 -2.2556233406066895 12.74007511138916
v -63.88765335083008 -3.1081490516662598 14.927539825439453
v -55.50263977050781 -8.223299026489258 19.4775390625
v -56.87867736816406 -4.813200950622559 8.116217613220215
v -59.286224365234375 -4.813200950622559 10.400897979736328
v -61.69377136230469 -4.8132004737854 12.685577392578125
v -61.586936950683594 -3.960675001144409 12.66421890258789
v -64.101318359375 -4.813199996948242 14.970257759094238
v -61.72702407836914 -5.665726661682129 12.784475326538086
v -56.72662353515625 -1.8293615579605103 8.477351188659668
v -58.97637176513672 -1.4030981063842773 10.727413177490234
v -61.27421569824219 -1.8293607234954834 12.792858123779297
v -63.52396011352539 -1.4030972719192505 15.04292106628418
v -55.60175323486328 -2.0424933433532715 7.352319717407227
v -54.42878341674805 -1.4030990600585938 6.411906719207764
v -53.88639450073242 -8.22330379486084 5.911981105804443
v -56.427696228027344 -8.223302841186523 8.323587417602539
v -58.968994140625 -8.223302841186523 10.735194206237793
v -56.761260986328125 -3.108150005340576 8.239950180053711
v -56.70257568359375 -1.4030985832214355 8.569660186767578
v -61.25016784667969 -1.4030976295471191 12.885167121887207
v -61.74365234375 -6.091989517211914 12.83392333984375
v -60.51703643798828 -6.091989517211914 11.715653419494629
v -59.31947708129883 -5.665726661682129 10.499794006347656
v -58.09907531738281 -5.239463806152344 9.308006286621094
v -59.30284881591797 -5.239463806152344 10.450345993041992
v -58.04393768310547 -8.223298072814941 21.889144897460938
v -56.895301818847656 -5.239463806152344 8.165665626525879
v -59.29042053222656 -6.091989040374756 10.597383499145508
v -59.06492614746094 -7.797039985656738 10.701069831848145
v -56.825260162353516 -4.386938095092773 8.105538368225098
v -61.53352355957031 -3.534412145614624 12.653539657592773
v -50.15904998779297 -4.360110282897949 15.12089729309082
v -55.46063232421875 -7.738719463348389 19.59793472290039
v -55.11767578125 -5.922492027282715 19.787891387939453
v -55.242515563964844 -1.4030981063842773 19.21590805053711
vn 0.23236604034900665 -0.9413010478019714 0.24486395716667175
vn 0.17261837422847748 -0.9686356782913208 0.1787394881248474
vn 0.2842734456062317 -0.9117469787597656 0.2964893877506256
vn 0.3344089984893799 -0.8765100240707397 0.3462667763233185
vn 0.00921803992241621 -0.9999541640281677 0.002591765020042658
vn -0.15415288507938385 -0.972562313079834 -0.174239382147789
vn -0.3181769549846649 -0.8843089938163757 -0.341702938079834
vn -0.5627332329750061 -0.5640050768852234 -0.6043422222137451
vn -0.45377498865127563 -0.7460564374923706 -0.48732736706733704
vn -0.16389970481395721 -0.9706464409828186 -0.17601817846298218
vn -3.7892561977059813e-7 -1 9.177941961979741e-8
vn -0.2716835141181946 0.9170646071434021 -0.29185736179351807
vn -0.31893450021743774 0.8824929594993591 -0.34566888213157654
vn -0.5027401447296143 0.6773248314857483 -0.5371065139770508
vn -0.09924011677503586 0.98835688829422 -0.11533422768115997
vn -0.3640388548374176 0.8423423767089844 -0.39741048216819763
vn 0.23178569972515106 0.9416031837463379 0.24425150454044342
vn 0.43308496475219727 0.7772755026817322 0.4563772678375244
vn 0.18252916634082794 0.9653568863868713 0.18646478652954102
vn 0.004405371379107237 0.9999794960021973 0.004642024636268616
vn -0.4262012541294098 0.7852644920349121 -0.4491237699985504
vn -0.46594366431236267 0.7336137890815735 -0.49467894434928894
vn -0.22347067296504974 0.9458358883857727 -0.23548981547355652
vn -0.5363580584526062 0.6167533993721008 -0.5761381983757019
vn -0.5665848255157471 0.5522825717926025 -0.6115272641181946
vn -0.04756787791848183 0.9973236918449402 -0.05552177503705025
vn 0.34250131249427795 0.8755871057510376 0.3406466245651245
vn 0.01706528104841709 0.9998365044593811 -0.00597284035757184
vn 0.28983765840530396 0.9114330410957336 0.29203394055366516
vn -0.04121962934732437 0.9972954988479614 -0.06084870547056198
vn 0.475939005613327 0.7245107293128967 0.498564213514328
vn 0.552253782749176 0.6054372787475586 0.5731155872344971
vn 0.5157468914985657 0.6671088933944702 0.537560224533081
vn -0.31249186396598816 0.8826338648796082 -0.35114994645118713
vn 0.23685352504253387 0.9414082765579224 0.24010586738586426
vn 0.5539844036102295 -0.6014257669448853 0.5756633877754211
vn 0.5349353551864624 -0.6379932761192322 0.5539032220840454
vn 0.5862260460853577 -0.5365396738052368 0.6070125102996826
vn 0.4752225875854492 -0.7294021248817444 0.4920732080936432
vn 0.3450307548046112 -0.8724523782730103 0.346093088388443
vn -0.07801472395658493 -0.9931188225746155 -0.08734317868947983
vn 0.3641625642776489 0.8513580560684204 0.377591073513031
vn 0.5852261185646057 0.539890706539154 0.6050028204917908
vn 0.45635995268821716 0.7568888664245605 0.4678192138671875
vn -0.30745014548301697 -0.8880497217178345 -0.34182149171829224
vn 0.021341608837246895 -0.999769389629364 0.002425773534923792
vn 0.18325567245483398 -0.9665164351463318 0.17961987853050232
vn 0.5182899832725525 -0.6625633835792542 0.5407264828681946
vn 0.43274736404418945 -0.7810845375061035 0.45015183091163635
vn 0.38761505484580994 -0.8278993964195251 0.40538519620895386
vn 0.43745315074920654 -0.7720952033996582 0.4609812796115875
vn 0.47936540842056274 -0.7195716500282288 0.5024195909500122
vn 0.33993518352508545 -0.8695536255836487 0.3582185208797455
vn 0.11792625486850739 -0.985215961933136 0.12426921725273132
vn -0.6535903811454773 -0.299160897731781 -0.6952139139175415
vn -0.6711891293525696 -0.2357642948627472 -0.70279461145401
vn -0.6148584485054016 -0.4363352656364441 -0.6569329500198364
vn -0.6858438849449158 -0.17133356630802155 -0.7072927355766296
vn -0.671639084815979 0.15296995639801025 -0.72491455078125
vn -0.665269136428833 0.21917253732681274 -0.7137088179588318
vn -0.6793078184127808 0.1395260989665985 -0.7204675674438477
vn -0.6558730006217957 0.2843781113624573 -0.6992565393447876
vn -0.6338079571723938 0.36099663376808167 -0.684082567691803
vn -0.6247271299362183 -0.41073542833328247 -0.6640875339508057
vn -0.6313824653625488 -0.37627214193344116 -0.6780675053596497
vn -0.6004746556282043 -0.47282910346984863 -0.6448742747306824
vn -0.5627332329750061 -0.5640050768852234 -0.6043422222137451
vn -0.6485810875892639 -0.3290274143218994 -0.6863552331924438
vn -0.6509649157524109 -0.3112712800502777 -0.692354679107666
vn -0.6551048755645752 -0.27543309330940247 -0.7035440802574158
vn -0.6674143671989441 -0.2447723150253296 -0.7033097147941589
vn -0.6565403938293457 0.2584860026836395 -0.7086181640625
vn -0.6137527823448181 0.4339277446269989 -0.6595560312271118
vn -0.6892642974853516 0.032010629773139954 -0.7238024473190308
vn -0.6895886063575745 0.07236168533563614 -0.7205771803855896
vn -0.6878105401992798 -0.00839287880808115 -0.725841760635376
vn -0.6879297494888306 -0.010068479925394058 -0.7257075309753418
vn -0.6898011565208435 0.07069022208452225 -0.7205396294593811
vn -0.688046932220459 -0.011744053103029728 -0.7255712747573853
vn -0.6880755424499512 -0.13086044788360596 -0.7137418389320374
vn -0.6891722679138184 -0.09183554351329803 -0.7187544107437134
vn -0.6868482828140259 0.1526421159505844 -0.7105911374092102
vn -0.6882754564285278 -0.015095093287527561 -0.7252923846244812
vn -0.6891481280326843 -0.09016689658164978 -0.7189887166023254
vn -0.6713719964027405 -0.17145946621894836 -0.7210140824317932
vn 0.630111575126648 0.4190916121006012 0.6536983847618103
vn 0.65252685546875 0.3451859652996063 0.6745778322219849
vn 0.6091156005859375 0.4806327223777771 0.6308489441871643
vn 0.552253782749176 0.6054372787475586 0.5731155872344971
vn 0.5852261185646057 0.539890706539154 0.6050028204917908
vn 0.6889761090278625 0.1341608315706253 0.7122589349746704
vn 0.6747511029243469 0.24110257625579834 0.6975532174110413
vn 0.6831952929496765 -0.13868315517902374 0.7169457077980042
vn 0.6640990972518921 -0.27782854437828064 0.6941063404083252
vn 0.6840898394584656 -0.0632537454366684 0.7266499996185303
vn 0.6781187653541565 0.20912474393844604 0.7045720219612122
vn 0.6888408660888672 -0.12942291796207428 0.7132656574249268
vn 0.6884583830833435 0.003270254470407963 0.7252684831619263
vn 0.6749498844146729 -0.23665641248226166 0.6988822221755981
vn 0.6530278325080872 -0.3410739600658417 0.6761828660964966
vn 0.622566819190979 0.4451771676540375 0.6436053514480591
vn 0.6306055784225464 0.4155530333518982 0.6554786562919617
vn -0.6881622076034546 -0.013419592753052711 -0.725432813167572
vn 0.6633307933807373 0.28287649154663086 0.6928009986877441
vn -0.672913670539856 0.21901559829711914 -0.7065545320510864
vn -0.6180213689804077 0.42297911643981934 -0.6626750826835632
vn 0.6827449202537537 0.14452345669269562 0.7162209153175354
vn -0.6639175415039062 -0.23582038283348083 -0.7096493244171143
vn -0.6780856847763062 -0.15547016263008118 -0.7183516025543213
vn -0.5027401447296143 0.6773248314857483 -0.5371065139770508
vn -0.46594366431236267 0.7336137890815735 -0.49467894434928894
vn -0.4262012541294098 0.7852644920349121 -0.4491237699985504
vn 0.6711182594299316 0.2091299444437027 0.7112419009208679
vn 0.6749868988990784 0.13416220247745514 0.7255295515060425
vn 0.6723337173461914 -0.20425324141979218 0.7115110754966736
vn 0.6315563917160034 -0.4113485813140869 0.6572129726409912
vn 0.6766794323921204 -0.1294964849948883 0.7248003482818604
vn -0.5363580584526062 0.6167533993721008 -0.5761381983757019
vn 0.6884344816207886 0.001109320786781609 0.725297749042511
vn 0.6884072422981262 -0.0010516182519495487 0.7253236174583435
vn 0.6883769035339355 -0.0032125525176525116 0.7253461480140686
vn 0.6839670538902283 -0.06541021168231964 0.7265744209289551
vn 0.6883432865142822 -0.005373471416532993 0.7253652215003967
vn 0.6832758188247681 0.06670942902565002 0.7271065711975098
vn 0.565278947353363 -0.577039897441864 0.5894783139228821
vn 0.5182899832725525 -0.6625633835792542 0.5407264828681946
vn 0.6233354210853577 -0.4414331018924713 0.6454376578330994
vn 0.5862260460853577 -0.5365396738052368 0.6070125102996826
vn 0.5862631797790527 -0.5316364169120789 0.6112759709358215
vn 0.43745315074920654 -0.7720952033996582 0.4609812796115875
vn 0.43308496475219727 0.7772755026817322 0.4563772678375244
vn 0.475939005613327 0.7245107293128967 0.498564213514328
vn 0.5157468914985657 0.6671088933944702 0.537560224533081
vn 0.6784235835075378 -0.20421379804611206 0.7057182192802429
vn 0.47936540842056274 -0.7195716500282288 0.5024195909500122
vn 0.5539844036102295 -0.6014257669448853 0.5756633877754211
vn 0.6794630289077759 0.10156884044408798 0.7266455292701721
vn 0.6788875460624695 0.13934727013111115 0.7208982110023499
vn 0.683202862739563 0.06886543333530426 0.7269740700721741
vn 0.6862149834632874 0.03500758856534958 0.7265558838844299
vn 0.6862269043922424 0.033927757292985916 0.7265957593917847
vn -0.5665848255157471 0.5522825717926025 -0.6115272641181946
vn 0.686202347278595 0.03608739376068115 0.7265148758888245
vn 0.6772985458374023 0.17692254483699799 0.7141183018684387
vn 0.5947078466415405 0.5153189897537231 0.6170646548271179
vn 0.6866558194160461 -0.030008427798748016 0.7263630628585815
vn 0.6807630658149719 -0.09642872214317322 0.7261288166046143
vn -0.6890597343444824 -0.049321431666612625 -0.7230242490768433
vn -0.6037061214447021 0.4593098759651184 -0.6515930891036987
vn -0.6887828707695007 0.11259415745735168 -0.7161709666252136
vn -0.5960372090339661 -0.48926398158073425 -0.6366791725158691
vt 3.6804018020629883 1.7784011960029602
vt 3.0465211868286133 2.039644241333008
vt 3.038724660873413 1.7847918272018433
vt 2.397047519683838 1.791182518005371
vt 2.404844045639038 2.046034812927246
vt 1.763166904449463 2.0524253845214844
vt 2.4126405715942383 2.300887107849121
vt 1.1292864084243774 2.3136682510375977
vt 1.770963430404663 2.3072776794433594
vt 3.0543174743652344 2.294496536254883
vt 3.6959946155548096 2.2881059646606445
vt 3.1220500469207764 2.040144205093384
vt 2.4048819541931152 2.0472869873046875
vt 2.4126780033111572 2.302139163017273
vt 2.397085666656494 1.7924346923828125
vt 1.687713623046875 2.0544296503067017
vt 3.8236260414123535 1.5232970118522644
vt 3.8158297538757324 1.2684447765350342
vt 3.1064577102661133 1.5304397344589233
vt 3.8314220905303955 1.7781492471694946
vt 3.8470144271850586 2.287853717803955
vt 3.1298460960388184 2.294996500015259
vt 3.8392181396484375 2.03300142288208
vt 1.6955097913742065 2.309281826019287
vt 0.9783415794372559 2.316424608230591
vt 3.1142539978027344 1.7852919697761536
vt 0.954952597618103 1.5518677234649658
vt 0.9627488851547241 1.8067200183868408
vt 1.6721210479736328 1.5447250604629517
vt 1.679917335510254 1.7995773553848267
vt 3.098661422729492 1.2755874395370483
vt 1.6643246412277222 1.2898727655410767
vt 2.381493091583252 1.2827301025390625
vt 0.97054523229599 2.061572313308716
vt 2.389289379119873 1.5375823974609375
vt 1.739777684211731 1.2878684103488922
vt 1.4228373765945435 1.418489933013916
vt 1.0981006622314453 1.2942590713500977
vt 1.7475740909576416 1.5427207946777344
vt 1.105897068977356 1.5491113662719727
vt 2.729580879211426 2.1702656745910645
vt 2.7439754009246826 1.406584918498993
vt 0.9471562504768372 1.2970154285430908
vt 1.3096386194229126 1.4208702445030212
vt 1.1214900016784668 2.0588159561157227
vt 1.1136934757232666 1.8039636611938477
vt 1.7553704977035522 1.7975730895996094
vt 2.3814547061920166 1.2814777493476868
vt 2.389251232147217 1.5363301038742065
vt 3.030928134918213 1.5299394726753235
vt 3.664808750152588 1.2686964273452759
vt 3.023131847381592 1.2750870883464813
vt 3.672605276107788 1.5235488414764404
vt 3.6881980895996094 2.03325355052948
vt 1 0.7481511831283569
vt 1.5 0.7489506006240845
vt 1.5 0.8738256692886353
vt 2 0.749750018119812
vt 0 0.2844187021255493
vt 0.5 0.26653480529785156
vt 0.5 0.37272655963897705
vt 1 0.2486509084701538
vt 1 0.14245915412902832
vt 1 0.9995003342628479
vt 1 0.8872816562652588
vt 1.5 0.9433909058570862
vt 2 0.9995001554489136
vt 0.5 0.9995004236698151
vt 0.5 0.9433910846710205
vt 0.5 0.8311724066734314
vt 0 0.9995005130767822
vt 0.5 0.21343892812728882
vt 0.5 0.14245927333831787
vt 0.5 0.43516409397125244
vt 1 0.3735259771347046
vt 0 0.4968022108078003
vt 0.5 0.49760162830352783
vt 1.5 0.37432539463043213
vt 1 0.49840104579925537
vt 1.5 0.6865130662918091
vt 1.5 0.6240755319595337
vt 2 0.2502497434616089
vt 2 0.49999988079071045
vt 1 0.6232761144638062
vt 0 0.775063157081604
vt 0.5 0.1253749132156372
vt 1 0.12537479400634766
vt 1.25 0.06293725967407227
vt 1.5 0.0004996061325073242
vt 2 0.0004995465278625488
vt 0 0.25025010108947754
vt 0.5 0.1878124475479126
vt 0.5 0.6248751282691956
vt 1 0.7497501075267792
vt 1 0.6248748898506165
vt 0.5 0.250249981880188
vt 0 0.7497503757476807
vt 0 0.5000001788139343
vt 0.5 0.8121877908706665
vt 1 0.8746252059936523
vt 1.5 0.06293714046478271
vt 1.5 0.1253746747970581
vt 1.5 0.4992004632949829
vt 1 0.25024986267089844
vt 1.5 0.24945032596588135
vt 1.5 0.12457525730133057
vt 0.5 0.37512505054473877
vt 0.5 0.7616071701049805
vt 0.5 0.6224766969680786
vt 1 0.0004998445510864258
vt 0.5 0.0004999637603759766
vt 0 0.0005000829696655273
vt 1.5 0.2502497434616089
vt 2 0.2502496838569641
vt 1.5 0.7497498393058777
vt 1.5 0.8746250718832016
vt 2 0.7497496008872986
vt 1.5 0.000499725341796875
vt 0.5 0.5000000894069672
vt 1 0.5
vt 1.5 0.49999988079071045
vt 1.5 0.6248748004436493
vt 2 0.4999997615814209
vt 1.5 0.37512481212615967
vt 0.5 0.9370628595352173
vt 1 0.9995002746582031
vt 1.5 0.9370626211166382
vt 2 0.999500036239624
vt 0.25 0.9058441519737244
vt 0 0.9995005130767822
vt 0 0.0004999637603759766
vt 0.5 0.0004998445510864258
vt 1 0.000499725341796875
vt 0.5 0.7497502565383911
vt 0.5 0.9995003938674927
vt 1.5 0.9995001554489136
vt 1.5 0.3126872777938843
vt 1.25 0.31268739700317383
vt 1 0.3751249313354492
vt 0.75 0.4375624656677246
vt 1 0.4375624656677246
vt 2 0.0004996061325073242
vt 0.5 0.43756258487701416
vt 1 0.31268739700317383
vt 1 0.06293725967407227
vt 0.5 0.5624375343322754
vt 1.5 0.6873122453689575
vt 0.5 0.5600391626358032
vt 1.5 0.07147938013076782
vt 1.5 0.31188786029815674
vt 1.5 0.9995002448558807
g int1070
s 1
f 1/1/1 2/2/2 3/3/3
f 3/3/3 2/2/2 4/4/4
f 5/5/5 4/4/4 2/2/2
f 6/6/6 5/5/5 7/7/7
f 6/6/6 4/4/4 5/5/5
f 8/8/8 6/6/6 9/9/9
f 9/9/9 6/6/6 7/7/7
f 10/10/10 2/2/2 11/11/11
f 12/12/12 13/13/13 14/14/14
f 12/12/12 15/15/15 13/13/13
f 13/13/13 15/15/15 16/16/16
f 14/14/14 13/13/13 16/16/16
f 17/17/17 18/18/18 19/19/19
f 20/20/20 17/17/17 19/19/19
f 21/21/21 12/12/12 22/22/22
f 22/22/22 12/12/12 14/14/14
f 23/23/23 20/20/20 12/12/12
f 21/21/21 23/23/23 12/12/12
f 14/14/14 16/16/16 24/24/24
f 24/24/24 16/16/16 25/25/25
f 12/12/12 26/26/26 15/15/15
f 12/12/12 20/20/20 26/26/26
f 20/20/20 19/19/19 26/26/26
f 26/26/26 19/19/19 15/15/15
f 27/27/27 28/28/28 29/29/29
f 28/28/28 16/16/16 30/30/30
f 30/30/30 16/16/16 15/15/15
f 29/29/29 30/30/30 15/15/15
f 29/29/29 28/28/28 30/30/30
f 31/31/31 19/19/19 18/18/18
f 32/32/32 29/29/29 33/33/33
f 34/34/34 25/25/25 16/16/16
f 28/28/28 34/34/34 16/16/16
f 29/29/29 35/35/35 33/33/33
f 29/29/29 15/15/15 35/35/35
f 35/35/35 15/15/15 19/19/19
f 36/36/36 37/37/37 38/38/38
f 36/36/36 39/39/39 37/37/37
f 40/40/40 37/37/37 39/39/39
f 40/40/40 38/38/38 37/37/37
f 7/7/7 5/5/5 41/41/41
f 41/41/41 5/5/5 2/2/2
f 41/41/41 2/2/2 10/10/10
f 7/7/7 41/41/41 10/10/10
f 42/42/42 19/19/19 31/31/31
f 33/33/33 42/42/42 31/31/31
f 33/33/33 35/35/35 42/42/42
f 42/42/42 35/35/35 19/19/19
f 43/43/43 27/27/27 44/44/44
f 44/44/44 27/27/27 29/29/29
f 44/44/44 29/29/29 32/32/32
f 43/43/43 44/44/44 32/32/32
f 45/45/45 46/46/46 6/6/6
f 8/8/8 45/45/45 6/6/6
f 6/6/6 47/47/47 4/4/4
f 6/6/6 46/46/46 47/47/47
f 46/46/46 39/39/39 47/47/47
f 47/47/47 39/39/39 4/4/4
f 46/46/46 40/40/40 39/39/39
f 48/48/48 39/39/39 36/36/36
f 49/49/49 4/4/4 39/39/39
f 48/48/48 49/49/49 39/39/39
f 50/50/50 49/49/49 48/48/48
f 50/50/50 4/4/4 49/49/49
f 51/51/51 50/50/50 52/52/52
f 52/52/52 50/50/50 48/48/48
f 53/53/53 1/1/1 50/50/50
f 51/51/51 53/53/53 50/50/50
f 54/54/54 11/11/11 2/2/2
f 1/1/1 54/54/54 2/2/2
f 50/50/50 3/3/3 4/4/4
f 50/50/50 1/1/1 3/3/3
g int1071
s 1
f 55/55/55 56/56/56 57/57/57
f 56/56/56 58/58/58 57/57/57
f 59/59/59 60/60/60 61/61/61
f 60/60/60 62/62/62 61/61/61
f 60/60/60 63/63/63 62/62/62
f 64/64/64 65/65/65 66/66/66
f 66/66/66 57/57/57 67/67/67
f 65/65/65 57/57/57 66/66/66
f 68/68/68 65/65/65 64/64/64
f 69/69/69 70/70/70 65/65/65
f 71/71/71 70/70/70 69/69/69
f 71/71/71 69/69/69 68/68/68
f 69/69/69 65/65/65 68/68/68
f 63/63/63 72/72/72 73/73/73
f 72/72/72 59/59/59 73/73/73
f 59/59/59 72/72/72 60/60/60
f 72/72/72 63/63/63 60/60/60
f 74/74/74 61/61/61 75/75/75
f 76/76/76 61/61/61 74/74/74
f 76/76/76 74/74/74 77/77/77
f 74/74/74 75/75/75 77/77/77
f 75/75/75 78/78/78 79/79/79
f 80/80/80 81/81/81 58/58/58
f 78/78/78 82/82/82 83/83/83
f 84/84/84 81/81/81 80/80/80
f 84/84/84 80/80/80 56/56/56
f 70/70/70 55/55/55 65/65/65
f 80/80/80 58/58/58 56/56/56
f 71/71/71 85/85/85 70/70/70
f 61/61/61 62/62/62 75/75/75
f 86/86/86 87/87/87 88/88/88
f 59/59/59 61/61/61 76/76/76
f 89/89/89 88/88/88 90/90/90
f 86/86/86 91/91/91 92/92/92
f 65/65/65 55/55/55 57/57/57
f 86/86/86 92/92/92 87/87/87
f 57/57/57 58/58/58 67/67/67
f 93/93/93 94/94/94 95/95/95
f 92/92/92 96/96/96 87/87/87
f 97/97/97 93/93/93 98/98/98
f 91/91/91 96/96/96 92/92/92
f 99/99/99 100/100/100 94/94/94
f 101/101/101 102/102/102 90/90/90
f 87/87/87 102/102/102 101/101/101
f 103/103/103 83/83/83 81/81/81
f 79/79/79 103/103/103 81/81/81
f 103/103/103 78/78/78 83/83/83
f 77/77/77 75/75/75 79/79/79
f 77/77/77 79/79/79 84/84/84
f 79/79/79 78/78/78 103/103/103
f 96/96/96 104/104/104 87/87/87
f 75/75/75 62/62/62 105/105/105
f 62/62/62 106/106/106 105/105/105
f 105/105/105 106/106/106 82/82/82
f 96/96/96 107/107/107 104/104/104
f 91/91/91 107/107/107 96/96/96
f 108/108/108 109/109/109 55/55/55
f 85/85/85 109/109/109 108/108/108
f 85/85/85 108/108/108 70/70/70
f 108/108/108 55/55/55 70/70/70
f 110/110/110 73/73/73 111/111/111
f 111/111/111 73/73/73 112/112/112
f 104/104/104 113/113/113 102/102/102
f 113/113/113 114/114/114 102/102/102
f 115/115/115 116/116/116 117/117/117
f 94/94/94 116/116/116 115/115/115
f 95/95/95 94/94/94 115/115/115
f 118/118/118 63/63/63 110/110/110
f 119/119/119 95/95/95 120/120/120
f 121/121/121 122/122/122 123/123/123
f 120/120/120 122/122/122 121/121/121
f 120/120/120 121/121/121 124/124/124
f 121/121/121 123/123/123 124/124/124
f 100/100/100 99/99/99 125/125/125
f 126/126/126 100/100/100 125/125/125
f 127/127/127 100/100/100 126/126/126
f 100/100/100 127/127/127 116/116/116
f 127/127/127 128/128/128 116/116/116
f 129/129/129 97/97/97 130/130/130
f 99/99/99 97/97/97 129/129/129
f 131/131/131 86/86/86 132/132/132
f 132/132/132 86/86/86 133/133/133
f 125/125/125 99/99/99 129/129/129
f 125/125/125 129/129/129 130/130/130
f 97/97/97 134/134/134 93/93/93
f 134/134/134 94/94/94 93/93/93
f 134/134/134 99/99/99 94/94/94
f 97/97/97 99/99/99 134/134/134
f 84/84/84 56/56/56 55/55/55
f 126/126/126 125/125/125 135/135/135
f 131/131/131 91/91/91 86/86/86
f 136/136/136 127/127/127 126/126/126
f 84/84/84 79/79/79 81/81/81
f 128/128/128 127/127/127 136/136/136
f 81/81/81 83/83/83 58/58/58
f 137/137/137 114/114/114 138/138/138
f 139/139/139 137/137/137 138/138/138
f 139/139/139 124/124/124 137/137/137
f 137/137/137 124/124/124 114/114/114
f 63/63/63 106/106/106 62/62/62
f 140/140/140 141/141/141 124/124/124
f 106/106/106 142/142/142 82/82/82
f 140/140/140 119/119/119 141/141/141
f 63/63/63 73/73/73 110/110/110
f 119/119/119 120/120/120 141/141/141
f 73/73/73 59/59/59 112/112/112
f 141/141/141 120/120/120 124/124/124
f 140/140/140 124/124/124 143/143/143
f 98/98/98 140/140/140 143/143/143
f 98/98/98 119/119/119 140/140/140
f 107/107/107 138/138/138 144/144/144
f 133/133/133 86/86/86 145/145/145
f 133/133/133 145/145/145 89/89/89
f 89/89/89 145/145/145 88/88/88
f 145/145/145 86/86/86 88/88/88
f 139/139/139 138/138/138 107/107/107
f 138/138/138 114/114/114 113/113/113
f 98/98/98 143/143/143 107/107/107
f 143/143/143 139/139/139 107/107/107
f 143/143/143 124/124/124 139/139/139
f 107/107/107 144/144/144 104/104/104
f 144/144/144 113/113/113 104/104/104
f 144/144/144 138/138/138 113/113/113
f 88/88/88 87/87/87 101/101/101
f 88/88/88 101/101/101 90/90/90
f 146/146/146 93/93/93 95/95/95
f 98/98/98 93/93/93 146/146/146
f 124/124/124 123/123/123 114/114/114
f 95/95/95 122/122/122 120/120/120
f 98/98/98 146/146/146 119/119/119
f 122/122/122 117/117/117 123/123/123
f 146/146/146 95/95/95 119/119/119
f 100/100/100 116/116/116 94/94/94
f 95/95/95 147/147/147 122/122/122
f 116/116/116 128/128/128 117/117/117
f 147/147/147 117/117/117 122/122/122
f 147/147/147 115/115/115 117/117/117
f 95/95/95 115/115/115 147/147/147
f 76/76/76 148/148/148 109/109/109
f 148/148/148 84/84/84 109/109/109
f 148/148/148 77/77/77 84/84/84
f 87/87/87 104/104/104 102/102/102
f 76/76/76 77/77/77 148/148/148
f 102/102/102 114/114/114 90/90/90
f 63/63/63 149/149/149 106/106/106
f 109/109/109 84/84/84 55/55/55
f 149/149/149 142/142/142 106/106/106
f 85/85/85 76/76/76 109/109/109
f 142/142/142 149/149/149 118/118/118
f 149/149/149 63/63/63 118/118/118
f 75/75/75 150/150/150 78/78/78
f 91/91/91 98/98/98 107/107/107
f 150/150/150 82/82/82 78/78/78
f 150/150/150 105/105/105 82/82/82
f 75/75/75 105/105/105 150/150/150
f 151/151/151 66/66/66 67/67/67
f 64/64/64 66/66/66 151/151/151
f 135/135/135 125/125/125 130/130/130
