# Exported using wow.export v0.2.19
o darnassis_int108.obj
v -61.66725158691406 -0.5647140145301819 14.669771194458008
v -59.01451873779297 -0.5571199059486389 14.338369369506836
v -60.19097900390625 -0.5571200847625732 13.098640441894531
v -51.0159797668457 -0.5343379974365234 13.386669158935547
v -53.389068603515625 -0.534338116645813 10.885957717895508
v -53.688880920410156 -0.5419318675994873 13.696819305419922
v -58.71470642089844 -0.5495260953903198 11.527508735656738
v -59.3143310546875 -0.564713716506958 17.14923095703125
v -58.13787078857422 -0.5647135376930237 18.388961791992188
v -56.661598205566406 -0.557119607925415 16.817829132080078
v -57.83805847167969 -0.5571197271347046 15.578100204467773
v -56.361785888671875 -0.549525797367096 14.00696849822998
v -53.98869705200195 -0.5495256781578064 16.507678985595703
v -55.47505569458008 -0.5571194887161255 18.06818389892578
v -56.061973571777344 -0.5419319868087769 11.196107864379883
v -54.87542724609375 -0.5419319868087769 12.446462631225586
v -52.50233840942383 -0.5419318675994873 14.947174072265625
v -57.238433837890625 -0.5419321656227112 9.956377029418945
v -55.76216125488281 -0.5343382358551025 8.385246276855469
v -56.81150817871094 -0.5609164834022522 18.22325897216797
v -56.9614143371582 -0.5647133588790894 19.628690719604492
v -56.387351989746094 6.821883678436279 13.980188369750977
v -53.848472595214844 6.828514099121094 13.822741508483887
v -53.98870086669922 6.819957733154297 16.507680892944336
v -51.309593200683594 6.835144996643066 13.665294647216797
v -53.70824432373047 6.837070941925049 11.137802124023438
v -56.52758026123047 6.813326835632324 16.66512680053711
v -59.04613494873047 6.806696891784668 16.843677520751953
v -56.24712371826172 6.830440521240234 11.295249938964844
v -56.10689163208008 6.838996887207031 8.610310554504395
v -58.76567840576172 6.823809623718262 11.473799705505371
v -58.905906677246094 6.815253257751465 14.15873908996582
v -55.32825469970703 6.812364101409912 17.928874969482422
v -60.095069885253906 6.816216468811035 12.90554428100586
v -60.23529815673828 6.807660102844238 15.590482711791992
v -60.165184020996094 6.811938285827637 14.248014450073242
v -57.856971740722656 6.805733680725098 18.096872329711914
v -61.42446517944336 6.80862283706665 14.337288856506348
v -56.597694396972656 6.809048652648926 18.007596969604492
v -56.667808532714844 6.804770469665527 19.350067138671875
v -60.482940673828125 1.7470452785491943 12.7542085647583
v -61.86797332763672 1.2786178588867188 14.311174392700195
v -58.99754333496094 1.293806552886963 11.376541137695312
v -59.09790802001953 2.21547269821167 11.197242736816406
v -61.93917465209961 3.1219544410705566 14.089062690734863
v -56.32783889770508 3.152327299118042 8.0833101272583
v -59.03720474243164 4.058807849884033 11.114130020141602
v -59.133506774902344 3.1371407508850098 11.086186408996582
v -52.377845764160156 2.221625804901123 15.298881530761719
v -53.90570068359375 1.2928459644317627 16.742151260375977
v -53.75653076171875 2.214031457901001 16.825841903686523
v -52.3814582824707 1.7610328197479248 15.258317947387695
v -53.91292953491211 0.3716602325439453 16.661026000976562
v -55.433555603027344 0.36406630277633667 18.185420989990234
v -56.9614143371582 -0.5647133588790894 19.628690719604492
v -56.6630744934082 1.2776576280593872 19.79607391357422
v -53.832542419433594 5.898772239685059 16.598735809326172
v -53.75889587402344 4.977587699890137 16.60283851623535
v -55.21335220336914 5.891179084777832 17.976451873779297
v -58.85328674316406 5.90214204788208 11.30793571472168
v -60.150306701660156 5.8945488929748535 12.773794174194336
v -58.87615203857422 4.980474948883057 11.210299491882324
v -61.42446517944336 6.80862283706665 14.337288856506348
v -61.7465705871582 4.9652886390686035 14.144949913024902
v -58.88849639892578 0.3721405267715454 11.417909622192383
v -60.3323974609375 0.3645462393760681 13.02315616607666
v -61.66725158691406 -0.5647140145301819 14.669771194458008
v -50.864444732666016 1.30803382396698 13.69336223602295
v -50.8499870300293 3.1504054069519043 13.855610847473145
v -57.3253288269043 -0.08109885454177856 9.901577949523926
v -57.499122619628906 0.8405678272247314 9.79197883605957
v -57.60816955566406 1.7622339725494385 9.7506103515625
v -56.109745025634766 1.3089951276779175 8.166048049926758
v -60.488189697265625 3.590381145477295 12.60159683227539
v -53.67589569091797 3.1352157592773438 16.837310791015625
v -56.50180435180664 3.120025873184204 19.81900978088379
v -53.67613983154297 4.056401252746582 16.763551712036133
v -55.08897399902344 3.5882134437561035 18.29128074645996
v -55.08921813964844 4.5093994140625 18.21752166748047
v -55.209800720214844 1.7458446025848389 18.310958862304688
v -56.50229263305664 4.96239709854126 19.671493530273438
v -57.662689208984375 2.223066806793213 9.729925155639648
v -52.304443359375 4.063996315002441 15.229225158691406
v -56.28211212158203 4.99566125869751 8.278582572937012
v -57.56769943237305 5.448901653289795 9.793258666992188
v -50.997276306152344 4.992774486541748 13.847404479980469
v -57.60199737548828 4.06640100479126 9.646804809570312
v -52.41490936279297 5.445773124694824 15.22307014465332
v -55.25017547607422 6.351771354675293 17.974401473999023
v -51.309593200683594 6.835144996643066 13.665294647216797
v -52.571067810058594 6.3669586181640625 15.132015228271484
v -53.98870086669922 6.819957733154297 16.507680892944336
v -51.86225128173828 6.140459060668945 14.444182395935059
v -57.238433837890625 -0.5419321656227112 9.956377029418945
v -58.71470642089844 -0.5495260953903198 11.527508735656738
v -53.98869705200195 -0.5495256781578064 16.507678985595703
v -52.464454650878906 -0.08133888244628906 15.023847579956055
v -52.50233840942383 -0.5419318675994873 14.947174072265625
v -55.130592346191406 4.969992637634277 18.137165069580078
v -55.85782241821289 5.426788330078125 18.823972702026367
v -55.47505569458008 -0.5571194887161255 18.06818389892578
v -55.437171936035156 -0.09652656316757202 18.144859313964844
v -60.19097900390625 -0.5571200847625732 13.098640441894531
v -60.27787399291992 -0.09628674387931824 13.043840408325195
v -55.32825469970703 6.812364101409912 17.928874969482422
v -56.667808532714844 6.804770469665527 19.350067138671875
v -60.095069885253906 6.816216468811035 12.90554428100586
v -60.138877868652344 6.355382442474365 12.822612762451172
v -58.76567840576172 6.823809623718262 11.473799705505371
v -55.76216125488281 -0.5343382358551025 8.385246276855469
v -55.935951232910156 0.38732844591140747 8.275647163391113
v -56.71753692626953 0.6139481067657471 9.0338134765625
v -56.54374694824219 -0.30771854519844055 9.143411636352539
v -51.664451599121094 0.6133474707603455 14.358604431152344
v -50.94021224975586 0.38684791326522827 13.540016174316406
v -51.0159797668457 -0.5343379974365234 13.386669158935547
v -51.74021911621094 -0.30783843994140625 14.2052583694458
v -56.83729553222656 6.143949508666992 9.201784133911133
v -56.19450378417969 5.917328834533691 8.444446563720703
v -56.10689163208008 6.838996887207031 8.610310554504395
v -51.15343475341797 5.913959503173828 13.756349563598633
v -52.38868713378906 0.8398470282554626 15.177194595336914
v -57.71287536621094 2.6838998794555664 9.640275955200195
v -52.303260803222656 2.682218551635742 15.340726852416992
v -57.48008728027344 6.370569229125977 9.959123611450195
vn 0.6086859703063965 0.5598746538162231 0.5621759295463562
vn 0.2931796908378601 0.9191952347755432 0.262917697429657
vn 0.5748715400695801 0.6201887726783752 0.5337497591972351
vn -0.46788832545280457 0.7653598189353943 -0.4419330656528473
vn -0.008348331786692142 0.9999414682388306 -0.006891126744449139
vn -0.30238935351371765 0.9076105952262878 -0.29121071100234985
vn 0.5378438830375671 0.6770363450050354 0.5023402571678162
vn 0.00017352405120618641 0.9996597170829773 -0.026083005592226982
vn -0.34604886174201965 0.8701615929603577 -0.35081174969673157
vn -0.39695319533348083 0.8310696482658386 -0.38955292105674744
vn -0.057885441929101944 0.9956324100494385 -0.07324894517660141
vn -0.11561956256628036 0.9860178232192993 -0.1200038269162178
vn -0.5448579788208008 0.6557050347328186 -0.5226669311523438
vn -0.5784491300582886 0.594677746295929 -0.5583502054214478
vn 0.18604163825511932 0.9676101207733154 0.1706436425447464
vn -0.062174614518880844 0.9960341453552246 -0.06364264339208603
vn -0.5079289674758911 0.7127154469490051 -0.4837817847728729
vn 0.49781015515327454 0.7300999164581299 0.46812310814857483
vn 0.4549940526485443 0.7790826559066772 0.4312894940376282
vn -0.5141513347625732 0.6960063576698303 -0.5012219548225403
vn -0.6084967851638794 0.5300074815750122 -0.5906130075454712
vn -0.1034088209271431 -0.9872128963470459 -0.12131495028734207
vn -0.29290854930877686 -0.9109178185462952 -0.29057419300079346
vn -0.5403487086296082 -0.6600024700164795 -0.5219387412071228
vn -0.4617934226989746 -0.7705125212669373 -0.4393828809261322
vn 0.004486752208322287 -0.9999756217002869 -0.005363505333662033
vn -0.38890352845191956 -0.8341540098190308 -0.3910768926143646
vn 0.017304785549640656 -0.9994928240776062 -0.0267320666462183
vn 0.2004622220993042 -0.9648383259773254 0.17000535130500793
vn 0.4687100052833557 -0.7710065245628357 0.43111473321914673
vn 0.5528146028518677 -0.6645464301109314 0.5027665495872498
vn 0.310752272605896 -0.913250744342804 0.2634502947330475
vn -0.5746310949325562 -0.5983193516731262 -0.5584021210670471
vn 0.5900989174842834 -0.6052778959274292 0.534248948097229
vn 0.3656097650527954 -0.8791915774345398 0.30553510785102844
vn 0.48755812644958496 -0.7593528032302856 0.43089479207992554
vn -0.3352605104446411 -0.8737287521362305 -0.35241812467575073
vn 0.6239051818847656 -0.5424419045448303 0.5625825524330139
vn -0.5085198879241943 -0.699215829372406 -0.5024985074996948
vn -0.6052878499031067 -0.5328611135482788 -0.5913422107696533
vn 0.7191264629364014 0.12277541309595108 0.683946967124939
vn 0.713210940361023 0.15972843766212463 0.6825078725814819
vn 0.6992561221122742 0.29806438088417053 0.649768054485321
vn 0.7240332961082458 0.08565016090869904 0.6844265460968018
vn 0.7306598424911499 0.006652503274381161 0.6827092170715332
vn 0.7307950854301453 0.011091522872447968 0.682506799697876
vn 0.7254307866096497 -0.06744653731584549 0.6849826574325562
vn 0.7307292819023132 0.008872035890817642 0.6826097369194031
vn -0.7166693210601807 0.14032462239265442 -0.6831501126289368
vn -0.6938192248344421 0.27641841769218445 -0.6649870872497559
vn -0.7285090088844299 0.06350633502006531 -0.682086169719696
vn -0.7109593749046326 0.16961854696273804 -0.6824707388877869
vn -0.6760166883468628 0.332889586687088 -0.657408595085144
vn -0.6575272679328918 0.40715697407722473 -0.6339408755302429
vn -0.6084967851638794 0.5300074815750122 -0.5906130075454712
vn -0.7285509705543518 0.12525352835655212 -0.6734426617622375
vn -0.6743055582046509 -0.3364007771015167 -0.657378613948822
vn -0.6927940249443054 -0.27658653259277344 -0.665985107421875
vn -0.6555388569831848 -0.4087757468223572 -0.6349575519561768
vn 0.6953644752502441 -0.34875571727752686 0.6283611059188843
vn 0.6728071570396423 -0.41436246037483215 0.6128901243209839
vn 0.707360565662384 -0.27744606137275696 0.6501268148422241
vn 0.6239051818847656 -0.5424419045448303 0.5625825524330139
vn 0.7155664563179016 -0.14556622505187988 0.6832094192504883
vn 0.6827326416969299 0.3712289333343506 0.6293371319770813
vn 0.6609832644462585 0.43356913328170776 0.6124695539474487
vn 0.6086859703063965 0.5598746538162231 0.5621759295463562
vn -0.711171567440033 0.11983424425125122 -0.6927299499511719
vn -0.7256350517272949 0.0015122583135962486 -0.6880781054496765
vn 0.5881026387214661 0.594607949256897 0.548248827457428
vn 0.7082430124282837 0.2699883282184601 0.6523021459579468
vn 0.718985915184021 0.19446596503257751 0.6672647595405579
vn 0.7256598472595215 0.16566236317157745 0.667812705039978
vn 0.7285484671592712 -0.030418023467063904 0.6843185424804688
vn -0.7257266044616699 0.004945310298353434 -0.6879655718803406
vn -0.7258094549179077 0.008378303609788418 -0.6878448128700256
vn -0.7292595505714417 -0.05834651738405228 -0.6817448735237122
vn -0.7279442548751831 -0.024998176842927933 -0.6851804852485657
vn -0.7300779223442078 -0.08820993453264236 -0.677646815776825
vn -0.728884220123291 0.09442582726478577 -0.6780939698219299
vn -0.7302323579788208 -0.11799313873052597 -0.6729326248168945
vn 0.7226924896240234 0.15623542666435242 0.6732801198959351
vn -0.7163149118423462 -0.138914093375206 -0.683809757232666
vn 0.7341781258583069 -0.13869628310203552 0.6646395921707153
vn 0.7190032005310059 -0.2451690137386322 0.6503280401229858
vn -0.711144745349884 -0.1238870769739151 -0.692044198513031
vn 0.7268281579017639 -0.13461267948150635 0.6734985113143921
vn -0.6968947052955627 -0.23152917623519897 -0.678772509098053
vn -0.6436476707458496 -0.43724697828292847 -0.6281184554100037
vn -0.4617934226989746 -0.7705125212669373 -0.4393828809261322
vn -0.5891298651695251 -0.5739954710006714 -0.5687311887741089
vn -0.5403487086296082 -0.6600024700164795 -0.5219387412071228
vn -0.6109439134597778 -0.5283486247062683 -0.5895721316337585
vn 0.49781015515327454 0.7300999164581299 0.46812310814857483
vn 0.5378438830375671 0.6770363450050354 0.5023402571678162
vn -0.5448579788208008 0.6557050347328186 -0.5226669311523438
vn -0.5928304195404053 0.5691693425178528 -0.5697353482246399
vn -0.5079289674758911 0.7127154469490051 -0.4837817847728729
vn -0.7138909697532654 -0.19794917106628418 -0.671696126461029
vn -0.7009559273719788 -0.2664521634578705 -0.6615617871284485
vn -0.5784491300582886 0.594677746295929 -0.5583502054214478
vn -0.6461352109909058 0.4340539574623108 -0.6277790665626526
vn 0.5748715400695801 0.6201887726783752 0.5337497591972351
vn 0.6494199633598328 0.46822717785835266 0.5991801619529724
vn -0.5746310949325562 -0.5983193516731262 -0.5584021210670471
vn -0.6052878499031067 -0.5328611135482788 -0.5913422107696533
vn 0.5900989174842834 -0.6052778959274292 0.534248948097229
vn 0.6635403037071228 -0.44823703169822693 0.5989974141120911
vn 0.5528146028518677 -0.6645464301109314 0.5027665495872498
vn 0.4549940526485443 0.7790826559066772 0.4312894940376282
vn 0.6315814256668091 0.5053837895393372 0.5879560112953186
vn 0.6754773855209351 0.3908967077732086 0.6252440214157104
vn 0.5258668661117554 0.6925325989723206 0.4938245713710785
vn -0.6716873645782471 0.35490357875823975 -0.6502918601036072
vn -0.633755624294281 0.4758000075817108 -0.6098918914794922
vn -0.46788832545280457 0.7653598189353943 -0.4419330656528473
vn -0.5350914597511292 0.6732181310653687 -0.5103474259376526
vn 0.6248703598976135 -0.534622311592102 0.5689602494239807
vn 0.6452630758285522 -0.4879901707172394 0.5877935290336609
vn 0.4687100052833557 -0.7710065245628357 0.43111473321914673
vn -0.6309528946876526 -0.4811200201511383 -0.6086230278015137
vn -0.697782576084137 0.22772887349128723 -0.679145872592926
vn 0.7279247045516968 0.04840478673577309 0.6839463114738464
vn -0.7274255156517029 0.03252510353922844 -0.6854152679443359
vn 0.6026197075843811 -0.5796800851821899 0.5484709739685059
vt 1.4299795627593994 1.4086570739746094
vt 1.8762400150299072 1.589476227760315
vt 1.8701330423355103 1.3898484110832214
vt 3.215230703353882 2.1387784481048584
vt 3.2029123306274414 1.736100435256958
vt 2.7688655853271484 1.9545369148254395
vt 2.310286521911621 1.3710397481918335
vt 1.4421933889389038 1.8079127073287964
vt 1.4483003616333008 2.007540464401245
vt 1.8884538412094116 1.988731861114502
vt 1.8823468685150146 1.7891040444374084
vt 2.322500467300415 1.7702953815460205
vt 2.3348188400268555 2.172973394393921
vt 1.8946130275726318 2.190070867538452
vt 2.756546974182129 1.551858901977539
vt 2.7627062797546387 1.7531979084014893
vt 2.775024890899658 2.1558759212493896
vt 2.7504401206970215 1.3522310853004456
vt 3.190593719482422 1.3334224224090576
vt 1.6714305877685547 2.0979501008987427
vt 1.4544072151184082 2.2071683406829834
vt 0.4997502565383911 0.5001945495605469
vt 0.7496251463890076 0.2507365345954895
vt 0.9995002746582031 0.5003894567489624
vt 0.999500036239624 0.001278519630432129
vt 0.499750018119812 0.0010836124420166016
vt 0.7496253848075867 0.7498474717140198
vt 0.5000001788139343 0.9995003938674927
vt 0.24987512826919556 0.250541627407074
vt 0 0.0008887052536010742
vt 0.0002499222755432129 0.5001945495605469
vt 0.25012505054473877 0.7498474717140198
vt 0.9995003938674927 0.7499449253082275
vt 0.00037488341331481934 0.7498474717140198
vt 0.2502500116825104 0.9995003938674927
vt 0.1253124475479126 0.8746739327907562
vt 0.7497503757476807 0.9995003938674927
vt 0.0004998445510864258 0.9995003938674927
vt 0.8745629787445068 0.8746739327907562
vt 0.9995005130767822 0.9995003938674927
vt 0.75 0.31268739700317383
vt 1 0.25024986267089844
vt 0.5 0.25024986267089844
vt 0.5 0.3751249313354492
vt 1 0.5000001788139343
vt 0 0.5000000596046448
vt 0.5 0.6248751580715179
vt 0.5 0.5000001192092896
vt 0.25 0.37492990493774414
vt 0.5 0.25011998414993286
vt 0.5 0.3749297261238098
vt 0.25 0.3125249147415161
vt 0.5 0.12531006336212158
vt 0.75 0.12531006336212158
vt 1 0.0005002021789550781
vt 1 0.250119686126709
vt 0.5 0.8741690516471863
vt 0.5 0.7493593096733093
vt 0.75 0.8741690814495087
vt 0.5 0.8746254742145538
vt 0.75 0.8746254444122314
vt 0.5 0.7497503161430359
vt 1 0.999500572681427
vt 1 0.7497502565383911
vt 0.5 0.12537479400634766
vt 0.75 0.12537473440170288
vt 1 0.0004996061325073242
vt 0 0.2501199245452881
vt 0 0.49973976612091064
vt 0.25 0.06293743848800659
vt 0.25 0.1878124475479126
vt 0.25 0.31268739700317383
vt 0 0.25025004148483276
vt 0.75 0.5624376535415649
vt 0.5 0.49973952770233154
vt 1 0.49973928928375244
vt 0.5 0.6245494186878204
vt 0.75 0.5621443390846252
vt 0.75 0.6869542598724365
vt 0.75 0.312524676322937
vt 1 0.7493590712547302
vt 0.25 0.3751249313354492
vt 0.25 0.62454953789711
vt 0 0.7497503757476807
vt 0.25 0.8121879249811172
vt 0 0.7493592500686646
vt 0.25 0.6248751878738403
vt 0.25 0.8117641508579254
vt 0.75 0.9365739524364471
vt 0 0.998978853225708
vt 0.25 0.9365739524364471
vt 0.5 0.998978853225708
vt 0.125 0.9053715020418167
vt 0.25 0.0004999637603759766
vt 0.5 0.0004998445510864258
vt 0.5 0.0005001425743103027
vt 0.25 0.06290507316589355
vt 0.25 0.0005000829696655273
vt 0.75 0.7493591904640198
vt 0.875 0.8117640763521194
vt 0.75 0.0005002021789550781
vt 0.75 0.06290513277053833
vt 0.75 0.000499725341796875
vt 0.75 0.06293720006942749
vt 0.75 0.998978853225708
vt 1 0.998978853225708
vt 0.75 0.999500572681427
vt 0.75 0.9370630234479904
vt 0.5 0.999500572681427
vt 0 0.0005000829696655273
vt 0 0.12537503242492676
vt 0.125 0.15659373998641968
vt 0.125 0.03171873092651367
vt 0.125 0.15651249885559082
vt 0 0.1253100037574768
vt 0 0.0005000829696655273
vt 0.125 0.03170257806777954
vt 0.125 0.9058442488312721
vt 0 0.8746254742145538
vt 0 0.999500572681427
vt 0 0.8741690516471863
vt 0.25 0.18771499395370483
vt 0.25 0.4375624656677246
vt 0.25 0.4373347759246826
vt 0.25 0.9370630234479904
g int1080
s 1
f 1/1/1 2/2/2 3/3/3
f 4/4/4 5/5/5 6/6/6
f 3/3/3 2/2/2 7/7/7
f 8/8/8 9/9/9 10/10/10
f 8/8/8 10/10/10 11/11/11
f 11/11/11 10/10/10 12/12/12
f 2/2/2 11/11/11 12/12/12
f 2/2/2 8/8/8 11/11/11
f 6/6/6 12/12/12 13/13/13
f 13/13/13 10/10/10 14/14/14
f 5/5/5 15/15/15 16/16/16
f 16/16/16 15/15/15 12/12/12
f 6/6/6 16/16/16 12/12/12
f 6/6/6 5/5/5 16/16/16
f 13/13/13 12/12/12 10/10/10
f 2/2/2 12/12/12 7/7/7
f 4/4/4 6/6/6 17/17/17
f 7/7/7 12/12/12 15/15/15
f 17/17/17 6/6/6 13/13/13
f 7/7/7 15/15/15 18/18/18
f 18/18/18 15/15/15 19/19/19
f 5/5/5 19/19/19 15/15/15
f 1/1/1 8/8/8 2/2/2
f 14/14/14 10/10/10 20/20/20
f 14/14/14 20/20/20 21/21/21
f 9/9/9 21/21/21 20/20/20
f 9/9/9 20/20/20 10/10/10
g int1081
s 1
f 22/22/22 23/23/23 24/24/24
f 23/23/23 25/25/25 24/24/24
f 26/26/26 25/25/25 23/23/23
f 26/26/26 23/23/23 22/22/22
f 22/22/22 24/24/24 27/27/27
f 27/27/27 28/28/28 22/22/22
f 29/29/29 26/26/26 22/22/22
f 30/30/30 26/26/26 29/29/29
f 29/29/29 31/31/31 30/30/30
f 22/22/22 31/31/31 29/29/29
f 28/28/28 32/32/32 22/22/22
f 22/22/22 32/32/32 31/31/31
f 27/27/27 24/24/24 33/33/33
f 32/32/32 34/34/34 31/31/31
f 35/35/35 36/36/36 32/32/32
f 28/28/28 35/35/35 32/32/32
f 37/37/37 28/28/28 27/27/27
f 35/35/35 38/38/38 36/36/36
f 36/36/36 38/38/38 34/34/34
f 39/39/39 33/33/33 40/40/40
f 32/32/32 36/36/36 34/34/34
f 40/40/40 37/37/37 39/39/39
f 39/39/39 37/37/37 27/27/27
f 27/27/27 33/33/33 39/39/39
g int1082
s 1
f 41/41/41 42/42/42 43/43/43
f 44/44/44 41/41/41 43/43/43
f 44/44/44 45/45/45 41/41/41
f 41/41/41 45/45/45 42/42/42
f 46/46/46 47/47/47 48/48/48
f 49/49/49 50/50/50 51/51/51
f 48/48/48 45/45/45 44/44/44
f 52/52/52 50/50/50 49/49/49
f 53/53/53 54/54/54 50/50/50
f 54/54/54 55/55/55 56/56/56
f 50/50/50 54/54/54 56/56/56
f 57/57/57 58/58/58 59/59/59
f 60/60/60 61/61/61 62/62/62
f 61/61/61 63/63/63 64/64/64
f 62/62/62 61/61/61 64/64/64
f 65/65/65 43/43/43 66/66/66
f 43/43/43 42/42/42 66/66/66
f 66/66/66 42/42/42 67/67/67
f 53/53/53 50/50/50 52/52/52
f 68/68/68 52/52/52 69/69/69
f 70/70/70 71/71/71 65/65/65
f 65/65/65 72/72/72 43/43/43
f 71/71/71 72/72/72 65/65/65
f 73/73/73 46/46/46 72/72/72
f 74/74/74 64/64/64 45/45/45
f 47/47/47 64/64/64 74/74/74
f 48/48/48 47/47/47 74/74/74
f 48/48/48 74/74/74 45/45/45
f 75/75/75 51/51/51 76/76/76
f 52/52/52 49/49/49 69/69/69
f 69/69/69 75/75/75 77/77/77
f 77/77/77 78/78/78 79/79/79
f 51/51/51 80/80/80 76/76/76
f 80/80/80 56/56/56 76/76/76
f 80/80/80 50/50/50 56/56/56
f 51/51/51 50/50/50 80/80/80
f 79/79/79 78/78/78 81/81/81
f 77/77/77 79/79/79 58/58/58
f 72/72/72 82/82/82 43/43/43
f 78/78/78 76/76/76 81/81/81
f 75/75/75 76/76/76 78/78/78
f 72/72/72 46/46/46 82/82/82
f 82/82/82 44/44/44 43/43/43
f 75/75/75 78/78/78 77/77/77
f 69/69/69 77/77/77 83/83/83
f 83/83/83 77/77/77 58/58/58
f 84/84/84 85/85/85 62/62/62
f 86/86/86 83/83/83 58/58/58
f 86/86/86 69/69/69 83/83/83
f 87/87/87 62/62/62 47/47/47
f 85/85/85 60/60/60 62/62/62
f 46/46/46 87/87/87 47/47/47
f 84/84/84 87/87/87 46/46/46
f 84/84/84 62/62/62 87/87/87
f 86/86/86 58/58/58 88/88/88
f 88/88/88 58/58/58 57/57/57
f 57/57/57 59/59/59 89/89/89
f 90/90/90 91/91/91 92/92/92
f 91/91/91 57/57/57 92/92/92
f 91/91/91 88/88/88 57/57/57
f 93/93/93 86/86/86 88/88/88
f 90/90/90 93/93/93 91/91/91
f 93/93/93 88/88/88 91/91/91
f 94/94/94 70/70/70 95/95/95
f 96/96/96 97/97/97 98/98/98
f 47/47/47 62/62/62 64/64/64
f 79/79/79 81/81/81 99/99/99
f 79/79/79 99/99/99 58/58/58
f 58/58/58 99/99/99 100/100/100
f 99/99/99 81/81/81 100/100/100
f 101/101/101 102/102/102 96/96/96
f 55/55/55 102/102/102 101/101/101
f 103/103/103 104/104/104 67/67/67
f 95/95/95 104/104/104 103/103/103
f 105/105/105 89/89/89 106/106/106
f 92/92/92 89/89/89 105/105/105
f 107/107/107 108/108/108 109/109/109
f 63/63/63 108/108/108 107/107/107
f 110/110/110 111/111/111 112/112/112
f 111/111/111 73/73/73 112/112/112
f 113/113/113 112/112/112 70/70/70
f 110/110/110 112/112/112 113/113/113
f 110/110/110 113/113/113 94/94/94
f 113/113/113 70/70/70 94/94/94
f 114/114/114 68/68/68 115/115/115
f 114/114/114 115/115/115 116/116/116
f 117/117/117 114/114/114 116/116/116
f 97/97/97 114/114/114 117/117/117
f 98/98/98 97/97/97 117/117/117
f 98/98/98 117/117/117 116/116/116
f 118/118/118 84/84/84 119/119/119
f 118/118/118 119/119/119 120/120/120
f 90/90/90 121/121/121 93/93/93
f 121/121/121 86/86/86 93/93/93
f 73/73/73 72/72/72 71/71/71
f 96/96/96 53/53/53 97/97/97
f 70/70/70 112/112/112 71/71/71
f 112/112/112 73/73/73 71/71/71
f 70/70/70 65/65/65 95/95/95
f 95/95/95 65/65/65 104/104/104
f 104/104/104 66/66/66 67/67/67
f 65/65/65 66/66/66 104/104/104
f 102/102/102 53/53/53 96/96/96
f 53/53/53 102/102/102 54/54/54
f 102/102/102 55/55/55 54/54/54
f 53/53/53 114/114/114 97/97/97
f 68/68/68 122/122/122 52/52/52
f 122/122/122 53/53/53 52/52/52
f 53/53/53 122/122/122 114/114/114
f 122/122/122 68/68/68 114/114/114
f 59/59/59 100/100/100 106/106/106
f 100/100/100 81/81/81 106/106/106
f 58/58/58 100/100/100 59/59/59
f 123/123/123 48/48/48 44/44/44
f 46/46/46 48/48/48 123/123/123
f 46/46/46 123/123/123 82/82/82
f 123/123/123 44/44/44 82/82/82
f 69/69/69 124/124/124 75/75/75
f 124/124/124 51/51/51 75/75/75
f 124/124/124 49/49/49 51/51/51
f 69/69/69 49/49/49 124/124/124
f 60/60/60 85/85/85 125/125/125
f 109/109/109 60/60/60 125/125/125
f 109/109/109 125/125/125 120/120/120
f 108/108/108 60/60/60 109/109/109
f 60/60/60 108/108/108 61/61/61
f 108/108/108 63/63/63 61/61/61
f 85/85/85 84/84/84 118/118/118
f 125/125/125 85/85/85 118/118/118
f 125/125/125 118/118/118 120/120/120
f 92/92/92 57/57/57 89/89/89
f 89/89/89 59/59/59 106/106/106
