# Exported using wow.export v0.2.19
o darnassis_int90.obj
v -26.02678871154785 -8.253676414489746 265.8191223144531
v -29.8422908782959 -8.253677368164062 267.3928527832031
v -26.386903762817383 -8.253677368164062 267.9710693359375
v -26.747018814086914 -8.253679275512695 270.123046875
v -22.931516647338867 -8.253677368164062 268.54931640625
v -27.107133865356445 -8.253680229187012 272.2750244140625
v -23.65174674987793 -8.253680229187012 272.8532409667969
v -19.836244583129883 -8.253679275512695 271.2795104980469
v -20.196359634399414 -8.253680229187012 273.43145751953125
v -16.7409725189209 -8.253680229187012 274.00970458984375
v -22.573171615600586 -1.4334756135940552 266.40789794921875
v -20.84728240966797 -1.4334757328033447 265.59063720703125
v -19.481510162353516 -1.4334758520126343 266.92529296875
v -22.213054656982422 -1.4334757328033447 264.2559509277344
v -19.12139320373535 -1.4334759712219238 264.7733154296875
v -23.2916316986084 -8.253679275512695 270.7012939453125
v -21.743995666503906 -8.253679275512695 272.0663757324219
v -30.20240592956543 -8.253679275512695 269.5447998046875
v -28.654769897460938 -8.253679275512695 270.909912109375
v -30.56252098083496 -8.253680229187012 271.69677734375
v -16.389846801757812 -1.433476209640503 267.442626953125
v -16.749961853027344 -1.4334760904312134 269.5946044921875
v -16.02973175048828 -1.433476209640503 265.2906799316406
v -28.756494522094727 -1.4334752559661865 265.3731689453125
v -28.396377563476562 -1.433475375175476 263.2212219238281
v -25.664833068847656 -1.4334754943847656 265.89056396484375
v -29.11661148071289 -1.433475136756897 267.525146484375
v -22.93328857421875 -1.4334754943847656 268.55987548828125
v -29.476726531982422 -1.4334750175476074 269.6771240234375
v -26.385066986083984 -1.4334752559661865 270.1944885253906
v -25.304716110229492 -1.4334754943847656 263.73858642578125
v -26.02495002746582 -1.4334752559661865 268.0425109863281
v -23.653518676757812 -1.4334754943847656 272.86383056640625
v -26.745182037353516 -1.4334752559661865 272.3464660644531
v -20.201740264892578 -1.4334757328033447 271.2292175292969
v -20.56185531616211 -1.4334757328033447 273.3811950683594
v -17.47019386291504 -1.4334759712219238 273.8985595703125
v -17.110076904296875 -1.4334759712219238 271.74658203125
v -23.29340362548828 -1.4334754943847656 270.71185302734375
v -19.841625213623047 -1.4334757328033447 269.0772399902344
v -28.11095428466797 -1.4334750175476074 271.01177978515625
v -29.836843490600586 -1.4334748983383179 271.8291015625
v -25.666675567626953 -8.253676414489746 263.66717529296875
v -29.122060775756836 -8.25367546081543 263.08892822265625
v -22.211288452148438 -8.253677368164062 264.2453918457031
v -22.57140350341797 -8.253677368164062 266.3973388671875
v -19.116016387939453 -8.253679275512695 266.9755859375
v -16.380859375 -8.253680229187012 271.85772705078125
v -16.02074432373047 -8.253680229187012 269.7057800292969
v -19.476131439208984 -8.253679275512695 269.1275634765625
v -15.660629272460938 -8.253680229187012 267.5538330078125
v -15.300515174865723 -8.253680229187012 265.40185546875
v -18.755901336669922 -8.253679275512695 264.8236083984375
v -29.482175827026367 -8.253676414489746 265.24090576171875
v -23.508800506591797 -3.138526439666748 273.1162414550781
v -20.34477996826172 -3.9910521507263184 273.75982666015625
v -23.627300262451172 -3.9910521507263184 273.2657470703125
v -17.343467712402344 -3.1385276317596436 274.2584533691406
v -18.968502044677734 -2.0728702545166016 273.77484130859375
v -17.47019386291504 -1.4334759712219238 273.8985595703125
v -30.07383918762207 -3.138526201248169 272.12811279296875
v -26.90082550048828 -3.99105167388916 272.71795654296875
v -30.27486228942871 -4.843576908111572 272.2121887207031
v -20.530174255371094 -1.8597385883331299 273.4711608886719
v -20.466812133789062 -2.7122645378112793 273.651123046875
v -25.478267669677734 -5.5903825759887695 263.17633056640625
v -22.20357894897461 -5.590384006500244 263.72430419921875
v -22.117965698242188 -4.865409851074219 263.6877136230469
v -23.59015655517578 -2.286001205444336 273.04376220703125
v -26.7135009765625 -1.8597381114959717 272.4364318847656
v -23.653518676757812 -1.4334754943847656 272.86383056640625
v -28.83856964111328 -6.31535530090332 262.6649169921875
v -28.667341232299805 -4.865407466888428 262.5917053222656
v -21.98248291015625 -3.149444103240967 264.0024719238281
v -18.950942993164062 -2.5826568603515625 264.5077209472656
v -22.09942054748535 -2.199596405029297 264.0788879394531
v -29.836843490600586 -1.4334748983383179 271.8291015625
v -26.672821044921875 -2.2860007286071777 272.47265625
v -15.80246353149414 -2.9657175540924072 264.9365539550781
v -16.02973175048828 -1.433476209640503 265.2906799316406
v -20.42613410949707 -3.1385269165039062 273.6873474121094
v -22.345325469970703 -6.559544086456299 263.93634033203125
v -18.956958770751953 -5.7124786376953125 264.36004638671875
v -15.430509567260742 -6.315360069274902 264.90863037109375
v -15.56859016418457 -4.865412712097168 264.7837219238281
v -25.189430236816406 -2.291459798812866 263.6118469238281
v -25.24789810180664 -1.8165359497070312 263.6500549316406
v -23.72780990600586 -4.8435773849487305 273.30780029296875
v -28.495967864990234 -2.9657115936279297 262.8124084472656
v -28.396377563476562 -1.433475375175476 263.2212219238281
v -22.213054656982422 -1.4334757328033447 264.2559509277344
v -25.239225387573242 -3.0575778484344482 263.4074401855469
v -27.084205627441406 -5.696103096008301 272.69659423828125
v -30.44059944152832 -6.548628807067871 272.08538818359375
v -19.12139320373535 -1.4334759712219238 264.7733154296875
v -20.58209991455078 -6.860984802246094 264.21063232421875
v -18.887916564941406 -6.43745231628418 264.4224853515625
v -17.18075942993164 -4.843577861785889 274.40338134765625
v -18.775535583496094 -4.007428169250488 264.3930969238281
v -18.892473220825195 -3.0575809478759766 264.4695129394531
v -27.15612030029297 -6.548628807067871 272.5677490234375
v -27.217079162597656 -7.401154518127441 272.3734130859375
v -20.3172607421875 -7.401154518127441 273.5953369140625
v -20.196359634399414 -8.253680229187012 273.43145751953125
v -23.65174674987793 -8.253680229187012 272.8532409667969
v -16.7409725189209 -8.253680229187012 274.00970458984375
v -23.871639251708984 -6.548628807067871 273.0500793457031
v -25.4833984375 -6.122365951538086 272.90606689453125
v -26.79132080078125 -3.138526439666748 272.6221923828125
v -27.00133514404297 -4.8435773849487305 272.760009765625
v -18.820899963378906 -7.284518718719482 264.5770263671875
v -22.211288452148438 -8.253677368164062 264.2453918457031
v -18.755901336669922 -8.253679275512695 264.8236083984375
v -15.300515174865723 -8.253680229187012 265.40185546875
v -20.42720603942871 -6.548628807067871 273.69378662109375
v -23.772647857666016 -7.401154518127441 273.0171203613281
v -20.526199340820312 -5.696103096008301 273.72674560546875
v -16.982772827148438 -6.548628807067871 274.33746337890625
v -25.392654418945312 -4.865408897399902 263.13970947265625
v -20.45428466796875 -4.8435773849487305 273.8555908203125
v -23.810680389404297 -5.696103096008301 273.244384765625
v -25.30696678161621 -3.915560722351074 263.25006103515625
v -25.521074295043945 -5.952869415283203 263.1946105957031
v -25.733692169189453 -7.406609535217285 263.51263427734375
v -25.591947555541992 -6.4374494552612305 263.3006286621094
v -23.971481323242188 -7.769097328186035 263.8329772949219
v -22.24378776550293 -7.769097328186035 264.1221008300781
v -18.843276977539062 -4.865411281585693 264.2357177734375
v -20.43777847290039 -4.390486717224121 264.01690673828125
v -18.886085510253906 -5.227898597717285 264.2540283203125
v -22.872371673583984 -4.153023719787598 263.63348388671875
v -22.03227996826172 -3.915562152862549 263.7980651855469
v -25.264123916625977 -3.4406368732452393 263.30523681640625
v -23.712196350097656 -7.827417373657227 272.9351806640625
v -27.107133865356445 -8.253680229187012 272.2750244140625
v -25.439891815185547 -7.827417373657227 272.64605712890625
v -23.004798889160156 -5.909234523773193 273.31640625
v -22.132482528686523 -5.269840240478516 273.54998779296875
v -23.769245147705078 -5.269840240478516 273.2760925292969
v -27.125640869140625 -6.122365951538086 272.6648864746094
v -18.800434112548828 -4.3904876708984375 264.2908935546875
v -23.635751724243164 -3.486569881439209 263.6027526855469
v -22.007381439208984 -3.532503128051758 263.9002685546875
v -29.122060775756836 -8.25367546081543 263.08892822265625
v -25.699172973632812 -7.769096374511719 263.5438537597656
v -22.27628517150879 -7.284517765045166 263.998779296875
v -23.157896041870117 -7.1337971687316895 263.86163330078125
v -19.0645751953125 -1.8165363073349 264.6847839355469
v -30.56252098083496 -8.253680229187012 271.69677734375
v -20.377710342407227 -6.974891662597656 273.67730712890625
v -27.167583465576172 -7.827417373657227 272.35693359375
v -20.404029846191406 -4.4173150062561035 273.8345642089844
v -26.850570678710938 -3.564789295196533 272.6969299316406
v -20.56185531616211 -1.4334757328033447 273.3811950683594
v -26.745182037353516 -1.4334752559661865 272.3464660644531
v -25.304716110229492 -1.4334754943847656 263.73858642578125
v -18.853397369384766 -6.799939155578613 264.4537048339844
v -25.666675567626953 -8.253676414489746 263.66717529296875
vn -0.07957209646701813 0.8423405885696411 0.5330392122268677
vn 0.017488781362771988 0.9998365044593811 -0.004589516669511795
vn -0.00014581362484022975 0.9972953200340271 0.07349786162376404
vn 0.07698329538106918 0.9114333987236023 -0.40418142080307007
vn -0.017779473215341568 0.9883565306663513 0.15111374855041504
vn 0.13735690712928772 0.6054368615150452 -0.7839511036872864
vn 0.12697343528270721 0.6671090126037598 -0.7340593934059143
vn 0.04705354571342468 0.9653576016426086 -0.2566531002521515
vn 0.11577729880809784 0.724511444568634 -0.6794695258140564
vn 0.10384012013673782 0.7772766351699829 -0.6205306649208069
vn 0.006192706525325775 -0.9999541640281677 -0.007303507067263126
vn -0.015835652127861977 -0.9931187629699707 0.1160358339548111
vn 0.04315749555826187 -0.9686357378959656 -0.24470865726470947
vn -0.07270339876413345 -0.8843092322349548 0.46120643615722656
vn -0.03745120391249657 -0.9706464409828186 0.23757699131965637
vn 0.06209501624107361 0.9414088726043701 -0.3315020203590393
vn 0.09075799584388733 0.8513587117195129 -0.51667320728302
vn 0.09345996379852295 0.8755871057510376 -0.47393301129341125
vn 0.11673858761787415 0.756888747215271 -0.6430330872535706
vn 0.1468612253665924 0.5398896336555481 -0.828825056552887
vn 0.028274571523070335 -0.9852162003517151 -0.16896621882915497
vn 0.05571349337697029 -0.9413018226623535 -0.3329366445541382
vn -3.6546603610077e-7 -1 1.3580391566847538e-7
vn -0.06374436616897583 -0.8880500793457031 0.4553062319755554
vn -0.12858422100543976 -0.5640057921409607 0.8156982064247131
vn -0.03036554716527462 -0.9725624322891235 0.23065175116062164
vn 0.016336215659976006 -0.9997692108154297 -0.013945532031357288
vn 0.08360813558101654 -0.8765100836753845 -0.47406718134880066
vn 0.09251095354557037 -0.8724523782730103 -0.4798630177974701
vn 0.11881416290998459 -0.7294021844863892 -0.6736881732940674
vn -0.10368739813566208 -0.746056854724884 0.6577597856521606
vn 0.05148373171687126 -0.9665164351463318 -0.2513870298862457
vn 0.12731146812438965 -0.6625652313232422 -0.7381051182746887
vn 0.1373673677444458 -0.6014267206192017 -0.7870298624038696
vn 0.09465868026018143 -0.827900767326355 -0.5528290867805481
vn 0.11646205931901932 -0.7195741534233093 -0.6845798492431641
vn 0.10488679260015488 -0.7720982432365417 -0.6267878413200378
vn 0.08150509744882584 -0.8695553541183472 -0.48706287145614624
vn 0.10704231262207031 -0.7810852527618408 -0.6151809692382812
vn 0.06987860053777695 -0.9117475748062134 -0.40476343035697937
vn 0.13374347984790802 -0.6379932761192322 -0.7583385109901428
vn 0.14656712114810944 -0.5365397334098816 -0.8310494422912598
vn -0.12248771637678146 0.6167508959770203 0.7775699496269226
vn -0.12775740027427673 0.5522791743278503 0.8238117098808289
vn -0.11644358932971954 0.6773231625556946 0.7264118790626526
vn -0.07111255079507828 0.8824917078018188 0.4649207592010498
vn -0.0620308518409729 0.91706383228302 0.3938857316970825
vn 0.0555749349296093 0.9416037201881409 -0.33210527896881104
vn 0.0010563454125076532 0.999979555606842 -0.006310779135674238
vn -0.008388103917241096 0.9973235726356506 0.07263129204511642
vn -0.053581107407808304 0.945835530757904 0.3201938569545746
vn -0.10218950361013412 0.785264253616333 0.6106696128845215
vn -0.1096632331609726 0.7336129546165466 0.6706609725952148
vn -0.06270581483840942 0.8826326131820679 0.46586233377456665
vn 0.16242432594299316 -0.2778274416923523 -0.9467999935150146
vn 0.16548405587673187 -0.13868141174316406 -0.9764130711555481
vn 0.160798579454422 -0.06325366348028183 -0.9849582314491272
vn 0.17222283780574799 -0.12942266464233398 -0.9765188694000244
vn 0.14421318471431732 -0.5316382646560669 -0.8346036076545715
vn 0.10488679260015488 -0.7720982432365417 -0.6267878413200378
vn 0.1556890457868576 -0.1294987052679062 -0.9792808890342712
vn 0.1607387661933899 -0.06541246175765991 -0.9848269820213318
vn 0.1650424301624298 -0.0053804051131010056 -0.9862717986106873
vn 0.13900549709796906 -0.5770418643951416 -0.8047983050346375
vn 0.1687498241662979 -0.23665624856948853 -0.9568267464637756
vn -0.1689503788948059 0.07069232314825058 0.9830861687660217
vn -0.1687529981136322 0.07236073166131973 0.9829986095428467
vn -0.16468270123004913 -0.011742131784558296 0.9862768054008484
vn 0.16326884925365448 -0.3410738408565521 -0.9257493019104004
vn 0.15584519505500793 -0.4414331018924713 -0.8836567401885986
vn 0.12731146812438965 -0.6625652313232422 -0.7381051182746887
vn -0.17206516861915588 0.15264438092708588 0.9731871485710144
vn -0.16502848267555237 -0.015087055042386055 0.9861733913421631
vn -0.15309271216392517 -0.2991633415222168 0.9418407678604126
vn -0.14969100058078766 -0.27543407678604126 0.9495940208435059
vn -0.14427046477794647 -0.3762730062007904 0.9152074456214905
vn 0.14656712114810944 -0.5365397334098816 -0.8310494422912598
vn 0.1560758352279663 -0.4113480746746063 -0.8980162739753723
vn -0.153408020734787 -0.1714605838060379 0.9731737971305847
vn -0.16002723574638367 -0.24477478861808777 0.9562826752662659
vn 0.16780678927898407 -0.20421309769153595 -0.9644365310668945
vn -0.15272341668605804 0.2843741178512573 0.9464707374572754
vn -0.1602909415960312 0.13952195644378662 0.9771594405174255
vn -0.15144553780555725 0.1529645174741745 0.976558268070221
vn -0.16433505713939667 -0.008397075347602367 0.9863688349723816
vn -0.1423892229795456 -0.4363366961479187 0.8884455561637878
vn -0.13720808923244476 -0.4728298783302307 0.8704056143760681
vn 0.16511932015419006 -0.0010538967326283455 -0.9862731099128723
vn -0.17307843267917633 -0.17133137583732605 0.9698914289474487
vn -0.12858422100543976 -0.5640057921409607 0.8156982064247131
vn -0.14657054841518402 -0.41073697805404663 0.8998956084251404
vn -0.16344405710697174 -0.23576445877552032 0.9579671621322632
vn 0.1598675400018692 0.06670764833688736 -0.9848819375038147
vn 0.15387699007987976 0.13416093587875366 -0.9789395928382874
vn -0.1538945436477661 -0.3290294110774994 0.9316953420639038
vn -0.14810426533222198 0.2908807694911957 0.9452267289161682
vn -0.1524311900138855 0.21916784346103668 0.9637064933776855
vn 0.165193110704422 0.003272631438449025 -0.9862558245658875
vn -0.16046147048473358 -0.1554734855890274 0.9747205376625061
vn -0.15358266234397888 -0.2358221858739853 0.9595834016799927
vn 0.1586601436138153 0.20912955701351166 -0.9649309515953064
vn 0.1562567949295044 0.4155527353286743 -0.8960466980934143
vn 0.15684257447719574 0.4190908670425415 -0.8942948579788208
vn 0.11577729880809784 0.724511444568634 -0.6794695258140564
vn 0.12697343528270721 0.6671090126037598 -0.7340593934059143
vn 0.10384012013673782 0.7772766351699829 -0.6205306649208069
vn 0.16251680254936218 0.28287699818611145 -0.9452877044677734
vn 0.1597013920545578 0.13934734463691711 -0.977280855178833
vn 0.15951800346374512 -0.20425374805927277 -0.9658335447311401
vn 0.16508124768733978 -0.003217158140614629 -0.9862746596336365
vn -0.1400039941072464 0.43392422795295715 0.8900047540664673
vn -0.11644358932971954 0.6773231625556946 0.7264118790626526
vn -0.1096632331609726 0.7336129546165466 0.6706609725952148
vn -0.10218950361013412 0.785264253616333 0.6106696128845215
vn 0.16819433867931366 0.20912405848503113 -0.963316023349762
vn 0.16375012695789337 0.34518447518348694 -0.9241393208503723
vn 0.16551563143730164 0.14452488720417023 -0.9755599498748779
vn 0.17289690673351288 0.1341588944196701 -0.9757602214813232
vn -0.16485583782196045 -0.013414612971246243 0.9862265586853027
vn 0.16515660285949707 0.0011093700304627419 -0.9862667918205261
vn 0.15988142788410187 0.06886598467826843 -0.9847310781478882
vn -0.1694280207157135 -0.09183348715305328 0.9812546968460083
vn -0.17054884135723114 0.11259482800960541 0.9788951277732849
vn -0.14179885387420654 0.4229753911495209 0.8949775695800781
vn -0.16276989877223969 0.21901467442512512 0.9620490670204163
vn -0.13419204950332642 0.4942484498023987 0.8589009642601013
vn -0.13201333582401276 0.5284096002578735 0.8386630415916443
vn -0.164509117603302 -0.010069617070257664 0.9863242506980896
vn -0.1670280247926712 -0.0501592755317688 0.984675407409668
vn -0.16668061912059784 0.032008059322834015 0.9854913353919983
vn -0.16826492547988892 -0.07101195305585861 0.9831806421279907
vn -0.16927680373191833 -0.09016787260770798 0.9814351797103882
vn -0.17132191359996796 -0.130859836935997 0.9764857292175293
vn 0.1479768604040146 0.5153184533119202 -0.8441265821456909
vn 0.13735690712928772 0.6054368615150452 -0.7839511036872864
vn 0.15221340954303741 0.4806317985057831 -0.863611102104187
vn 0.16260980069637299 0.141937255859375 -0.976428210735321
vn 0.16261275112628937 0.03500788286328316 -0.9860686659812927
vn 0.16260015964508057 0.033926889300346375 -0.9861086010932922
vn 0.1569642573595047 0.10156848281621933 -0.9823675751686096
vn -0.16694653034210205 -0.04932401329278946 0.9847313165664673
vn -0.16677899658679962 -0.16341130435466766 0.972358763217926
vn -0.1620893031358719 -0.19578388333320618 0.9671585559844971
vn -0.12775740027427673 0.5522791743278503 0.8238117098808289
vn -0.13612771034240723 0.45930591225624084 0.8777855038642883
vn -0.14291523396968842 0.3609921336174011 0.9215529561042786
vn -0.14531554281711578 0.3578243851661682 0.922412633895874
vn -0.15251584351062775 -0.31127291917800903 0.9380021691322327
vn 0.1468612253665924 0.5398896336555481 -0.828825056552887
vn 0.1693272441625595 0.24110086262226105 -0.9556143879890442
vn 0.15623176097869873 0.4451759159564972 -0.8817086219787598
vn 0.16308653354644775 -0.030007202178239822 -0.9861553907394409
vn 0.15833184123039246 -0.09642980247735977 -0.9826659560203552
vn 0.11646205931901932 -0.7195741534233093 -0.6845798492431641
vn 0.1373673677444458 -0.6014267206192017 -0.7870298624038696
vn -0.13811196386814117 -0.489265114068985 0.8611299991607666
vn -0.1480410397052765 0.25848105549812317 0.9546054005622864
vn -0.12248771637678146 0.6167508959770203 0.7775699496269226
vt 1.687713623046875 2.0544296503067017
vt 0.9627488851547241 1.8067200183868408
vt 1.679917335510254 1.7995773553848267
vt 1.6721209287643433 1.5447250604629517
vt 2.397085666656494 1.7924346923828125
vt 1.6643247604370117 1.2898727655410767
vt 2.381493091583252 1.2827301025390625
vt 3.1064577102661133 1.5304397344589233
vt 3.098661422729492 1.2755874395370483
vt 3.8158297538757324 1.2684447765350342
vt 2.404844045639038 2.046034812927246
vt 2.729580879211426 2.1702656745910645
vt 3.0465211868286133 2.039644241333008
vt 2.4126405715942383 2.300887107849121
vt 3.0543174743652344 2.294496536254883
vt 2.389289379119873 1.5375823974609375
vt 2.7439754009246826 1.406584918498993
vt 0.954952597618103 1.5518677234649658
vt 1.3096386194229126 1.4208702445030212
vt 0.9471562504768372 1.2970154285430908
vt 3.6881980895996094 2.03325355052948
vt 3.6804018020629883 1.7784011960029602
vt 3.6959946155548096 2.2881059646606445
vt 1.1214900016784668 2.0588159561157227
vt 1.1292864084243774 2.3136682510375977
vt 1.763166904449463 2.0524253845214844
vt 1.1136934757232666 1.8039636611938477
vt 2.397047519683838 1.791182518005371
vt 1.105897068977356 1.5491113662719727
vt 1.7475740909576416 1.5427207946777344
vt 1.770963430404663 2.3072776794433594
vt 1.7553704977035522 1.7975730895996094
vt 2.3814547061920166 1.2814777493476868
vt 1.739777684211731 1.2878684103488922
vt 3.030928134918213 1.5299394726753235
vt 3.023131847381592 1.2750870883464813
vt 3.664808750152588 1.2686964273452759
vt 3.672605276107788 1.5235488414764404
vt 2.389251232147217 1.5363301038742065
vt 3.038724660873413 1.7847918272018433
vt 1.4228373765945435 1.418489933013916
vt 1.0981006622314453 1.2942590713500977
vt 1.6955097913742065 2.309281826019287
vt 0.9783415794372559 2.316424608230591
vt 2.4126780033111572 2.302139163017273
vt 2.4048819541931152 2.0472869873046875
vt 3.1220500469207764 2.040144205093384
vt 3.8236260414123535 1.5232970118522644
vt 3.8314220905303955 1.7781492471694946
vt 3.1142539978027344 1.7852919697761536
vt 3.8392181396484375 2.03300142288208
vt 3.8470144271850586 2.287853717803955
vt 3.1298460960388184 2.294996500015259
vt 0.97054523229599 2.061572313308716
vt 1 0.7497501075267792
vt 0.5 0.6248751282691956
vt 1 0.6248748898506165
vt 0 0.7497503757476807
vt 0.25 0.9058441519737244
vt 0 0.9995005130767822
vt 2 0.7497496008872986
vt 1.5 0.6248748004436493
vt 2 0.4999997615814209
vt 0.5 0.9370628595352173
vt 0.5 0.8121877908706665
vt 1.5 0.37432539463043213
vt 1 0.3735259771347046
vt 1 0.49840104579925537
vt 1 0.8746252059936523
vt 1.5 0.9370626211166382
vt 1 0.9995002746582031
vt 2 0.2502497434616089
vt 2 0.49999988079071045
vt 1 0.7481511831283569
vt 0.5 0.8311724066734314
vt 1 0.8872816562652588
vt 2 0.999500036239624
vt 1.5 0.8746250718832016
vt 0 0.775063157081604
vt 0 0.9995005130767822
vt 0.5 0.7497502565383911
vt 1 0.2486509084701538
vt 0.5 0.37272655963897705
vt 0 0.2844187021255493
vt 0 0.4968022108078003
vt 1.5 0.8738256692886353
vt 1.5 0.9433909058570862
vt 1 0.5
vt 2 0.749750018119812
vt 2 0.9995001554489136
vt 1 0.9995003342628479
vt 1.5 0.7489506006240845
vt 1.5 0.37512481212615967
vt 2 0.2502496838569641
vt 0.5 0.9995004236698151
vt 0.75 0.20449697971343994
vt 0.5 0.26653480529785156
vt 0 0.5000001788139343
vt 0.5 0.6224766969680786
vt 0.5 0.7616071701049805
vt 1.5 0.2502497434616089
vt 1.5 0.1253746747970581
vt 0.5 0.1253749132156372
vt 0.5 0.0004998445510864258
vt 1 0.000499725341796875
vt 0 0.0004999637603759766
vt 1 0.25024986267089844
vt 1.25 0.31268739700317383
vt 1.5 0.7497498393058777
vt 1.5 0.49999988079071045
vt 0.5 0.14245927333831787
vt 1 0.0004998445510864258
vt 0.5 0.0004999637603759766
vt 0 0.0005000829696655273
vt 0.5 0.250249981880188
vt 1 0.12537479400634766
vt 0.5 0.37512505054473877
vt 0 0.25025010108947754
vt 1.5 0.4992004632949829
vt 0.5 0.5000000894069672
vt 1 0.3751249313354492
vt 1.5 0.6240755319595337
vt 1.5 0.31188786029815674
vt 1.5 0.12457525730133057
vt 1.5 0.24945032596588135
vt 1.25 0.0714794397354126
vt 1 0.07147949934005737
vt 0.5 0.49760162830352783
vt 0.75 0.560438871383667
vt 0.5 0.43516409397125244
vt 1.125 0.5922572016716003
vt 1 0.6232761144638062
vt 1.5 0.6865130662918091
vt 1 0.06293725967407227
vt 1.5 0.0004996061325073242
vt 1.25 0.06293725967407227
vt 0.875 0.3439062237739563
vt 0.75 0.4375624656677246
vt 1 0.4375624656677246
vt 1.5 0.3126872777938843
vt 0.5 0.5600391626358032
vt 1.25 0.6861133575439453
vt 1 0.6857136487960815
vt 2 0.0004996061325073242
vt 1.5 0.07147938013076782
vt 1 0.14245915412902832
vt 1.125 0.16453611850738525
vt 0.5 0.9433910846710205
vt 2 0.0004995465278625488
vt 0.5 0.1878124475479126
vt 1.5 0.06293714046478271
vt 0.5 0.5624375343322754
vt 1.5 0.6873122453689575
vt 0.5 0.9995003938674927
vt 1.5 0.9995001554489136
vt 1.5 0.9995002448558807
vt 0.5 0.21343892812728882
vt 1.5 0.000499725341796875
g int900
s 1
f 1/1/1 2/2/2 3/3/3
f 2/2/2 4/4/4 3/3/3
f 3/3/3 4/4/4 5/5/5
f 4/4/4 6/6/6 7/7/7
f 8/8/8 9/9/9 10/10/10
f 11/11/11 12/12/12 13/13/13
f 11/11/11 14/14/14 12/12/12
f 12/12/12 14/14/14 15/15/15
f 13/13/13 12/12/12 15/15/15
f 16/16/16 17/17/17 8/8/8
f 16/16/16 7/7/7 17/17/17
f 17/17/17 7/7/7 9/9/9
f 8/8/8 17/17/17 9/9/9
f 18/18/18 19/19/19 4/4/4
f 18/18/18 20/20/20 19/19/19
f 19/19/19 20/20/20 6/6/6
f 4/4/4 19/19/19 6/6/6
f 21/21/21 22/22/22 13/13/13
f 23/23/23 21/21/21 13/13/13
f 24/24/24 25/25/25 26/26/26
f 27/27/27 24/24/24 26/26/26
f 28/28/28 26/26/26 11/11/11
f 11/11/11 26/26/26 14/14/14
f 28/28/28 11/11/11 13/13/13
f 29/29/29 27/27/27 30/30/30
f 26/26/26 31/31/31 14/14/14
f 26/26/26 25/25/25 31/31/31
f 27/27/27 26/26/26 32/32/32
f 32/32/32 26/26/26 28/28/28
f 30/30/30 32/32/32 28/28/28
f 30/30/30 27/27/27 32/32/32
f 30/30/30 33/33/33 34/34/34
f 35/35/35 36/36/36 33/33/33
f 35/35/35 37/37/37 36/36/36
f 38/38/38 37/37/37 35/35/35
f 22/22/22 38/38/38 35/35/35
f 39/39/39 33/33/33 30/30/30
f 28/28/28 39/39/39 30/30/30
f 28/28/28 35/35/35 39/39/39
f 39/39/39 35/35/35 33/33/33
f 13/13/13 40/40/40 28/28/28
f 13/13/13 22/22/22 40/40/40
f 22/22/22 35/35/35 40/40/40
f 40/40/40 35/35/35 28/28/28
f 13/13/13 15/15/15 23/23/23
f 41/41/41 34/34/34 42/42/42
f 30/30/30 34/34/34 41/41/41
f 41/41/41 29/29/29 30/30/30
f 1/1/1 43/43/43 44/44/44
f 1/1/1 45/45/45 43/43/43
f 46/46/46 45/45/45 1/1/1
f 5/5/5 46/46/46 1/1/1
f 5/5/5 47/47/47 46/46/46
f 46/46/46 47/47/47 45/45/45
f 48/48/48 49/49/49 8/8/8
f 10/10/10 48/48/48 8/8/8
f 49/49/49 47/47/47 50/50/50
f 50/50/50 47/47/47 5/5/5
f 8/8/8 50/50/50 5/5/5
f 8/8/8 49/49/49 50/50/50
f 51/51/51 52/52/52 47/47/47
f 49/49/49 51/51/51 47/47/47
f 47/47/47 53/53/53 45/45/45
f 47/47/47 52/52/52 53/53/53
f 54/54/54 2/2/2 1/1/1
f 1/1/1 3/3/3 5/5/5
f 5/5/5 16/16/16 8/8/8
f 16/16/16 4/4/4 7/7/7
f 42/42/42 29/29/29 41/41/41
f 5/5/5 4/4/4 16/16/16
f 44/44/44 54/54/54 1/1/1
f 2/2/2 18/18/18 4/4/4
g int901
s 1
f 55/55/55 56/56/56 57/57/57
f 58/58/58 59/59/59 60/60/60
f 61/61/61 62/62/62 63/63/63
f 59/59/59 64/64/64 60/60/60
f 65/65/65 64/64/64 59/59/59
f 66/66/66 67/67/67 68/68/68
f 69/69/69 70/70/70 71/71/71
f 72/72/72 66/66/66 73/73/73
f 74/74/74 75/75/75 76/76/76
f 77/77/77 70/70/70 78/78/78
f 79/79/79 80/80/80 75/75/75
f 70/70/70 69/69/69 78/78/78
f 55/55/55 81/81/81 56/56/56
f 82/82/82 83/83/83 67/67/67
f 81/81/81 58/58/58 56/56/56
f 83/83/83 84/84/84 85/85/85
f 74/74/74 76/76/76 86/86/86
f 86/86/86 76/76/76 87/87/87
f 62/62/62 57/57/57 88/88/88
f 65/65/65 58/58/58 81/81/81
f 89/89/89 86/86/86 90/90/90
f 76/76/76 91/91/91 87/87/87
f 92/92/92 74/74/74 86/86/86
f 63/63/63 93/93/93 94/94/94
f 89/89/89 92/92/92 86/86/86
f 76/76/76 95/95/95 91/91/91
f 96/96/96 97/97/97 82/82/82
f 96/96/96 84/84/84 97/97/97
f 97/97/97 84/84/84 83/83/83
f 69/69/69 65/65/65 55/55/55
f 82/82/82 97/97/97 83/83/83
f 56/56/56 58/58/58 98/98/98
f 65/65/65 81/81/81 55/55/55
f 99/99/99 100/100/100 74/74/74
f 74/74/74 100/100/100 75/75/75
f 100/100/100 79/79/79 75/75/75
f 94/94/94 101/101/101 102/102/102
f 103/103/103 104/104/104 105/105/105
f 103/103/103 106/106/106 104/104/104
f 101/101/101 107/107/107 102/102/102
f 101/101/101 108/108/108 107/107/107
f 94/94/94 108/108/108 101/101/101
f 78/78/78 55/55/55 109/109/109
f 78/78/78 109/109/109 61/61/61
f 55/55/55 57/57/57 109/109/109
f 62/62/62 88/88/88 110/110/110
f 62/62/62 110/110/110 63/63/63
f 99/99/99 79/79/79 100/100/100
f 111/111/111 112/112/112 113/113/113
f 111/111/111 113/113/113 114/114/114
f 63/63/63 110/110/110 93/93/93
f 110/110/110 88/88/88 93/93/93
f 107/107/107 115/115/115 116/116/116
f 117/117/117 115/115/115 107/107/107
f 117/117/117 118/118/118 115/115/115
f 66/66/66 119/119/119 73/73/73
f 57/57/57 120/120/120 88/88/88
f 121/121/121 98/98/98 108/108/108
f 66/66/66 68/68/68 119/119/119
f 65/65/65 69/69/69 64/64/64
f 69/69/69 71/71/71 64/64/64
f 119/119/119 68/68/68 122/122/122
f 82/82/82 67/67/67 123/123/123
f 73/73/73 119/119/119 122/122/122
f 72/72/72 123/123/123 66/66/66
f 58/58/58 65/65/65 59/59/59
f 123/123/123 67/67/67 66/66/66
f 124/124/124 82/82/82 125/125/125
f 124/124/124 125/125/125 72/72/72
f 125/125/125 123/123/123 72/72/72
f 82/82/82 123/123/123 125/125/125
f 111/111/111 126/126/126 127/127/127
f 68/68/68 128/128/128 129/129/129
f 128/128/128 85/85/85 129/129/129
f 130/130/130 85/85/85 128/128/128
f 130/130/130 128/128/128 68/68/68
f 68/68/68 129/129/129 131/131/131
f 68/68/68 131/131/131 122/122/122
f 122/122/122 131/131/131 132/132/132
f 131/131/131 129/129/129 132/132/132
f 122/122/122 132/132/132 133/133/133
f 122/122/122 133/133/133 89/89/89
f 133/133/133 132/132/132 99/99/99
f 134/134/134 105/105/105 135/135/135
f 103/103/103 105/105/105 134/134/134
f 103/103/103 134/134/134 136/136/136
f 134/134/134 135/135/135 136/136/136
f 108/108/108 137/137/137 107/107/107
f 137/137/137 117/117/117 107/107/107
f 137/137/137 98/98/98 117/117/117
f 108/108/108 98/98/98 137/137/137
f 120/120/120 98/98/98 138/138/138
f 93/93/93 138/138/138 121/121/121
f 138/138/138 98/98/98 121/121/121
f 88/88/88 120/120/120 139/139/139
f 88/88/88 139/139/139 93/93/93
f 139/139/139 138/138/138 93/93/93
f 120/120/120 138/138/138 139/139/139
f 93/93/93 121/121/121 140/140/140
f 93/93/93 140/140/140 94/94/94
f 94/94/94 140/140/140 108/108/108
f 140/140/140 121/121/121 108/108/108
f 132/132/132 141/141/141 99/99/99
f 141/141/141 85/85/85 99/99/99
f 129/129/129 85/85/85 141/141/141
f 129/129/129 141/141/141 132/132/132
f 89/89/89 142/142/142 92/92/92
f 142/142/142 133/133/133 99/99/99
f 89/89/89 133/133/133 142/142/142
f 92/92/92 143/143/143 74/74/74
f 143/143/143 99/99/99 74/74/74
f 142/142/142 99/99/99 143/143/143
f 142/142/142 143/143/143 92/92/92
f 144/144/144 145/145/145 124/124/124
f 145/145/145 146/146/146 124/124/124
f 146/146/146 145/145/145 126/126/126
f 145/145/145 144/144/144 126/126/126
f 124/124/124 147/147/147 82/82/82
f 147/147/147 96/96/96 82/82/82
f 146/146/146 96/96/96 147/147/147
f 146/146/146 147/147/147 124/124/124
f 86/86/86 87/87/87 90/90/90
f 75/75/75 80/80/80 148/148/148
f 75/75/75 148/148/148 76/76/76
f 76/76/76 148/148/148 95/95/95
f 148/148/148 80/80/80 95/95/95
f 78/78/78 69/69/69 55/55/55
f 67/67/67 130/130/130 68/68/68
f 77/77/77 78/78/78 61/61/61
f 107/107/107 116/116/116 102/102/102
f 83/83/83 85/85/85 130/130/130
f 94/94/94 102/102/102 149/149/149
f 83/83/83 130/130/130 67/67/67
f 116/116/116 103/103/103 136/136/136
f 136/136/136 135/135/135 149/149/149
f 85/85/85 79/79/79 99/99/99
f 150/150/150 103/103/103 116/116/116
f 118/118/118 103/103/103 150/150/150
f 115/115/115 118/118/118 150/150/150
f 98/98/98 118/118/118 117/117/117
f 115/115/115 150/150/150 116/116/116
f 102/102/102 116/116/116 151/151/151
f 102/102/102 151/151/151 149/149/149
f 151/151/151 136/136/136 149/149/149
f 116/116/116 136/136/136 151/151/151
f 56/56/56 98/98/98 152/152/152
f 56/56/56 152/152/152 57/57/57
f 118/118/118 106/106/106 103/103/103
f 57/57/57 152/152/152 120/120/120
f 152/152/152 98/98/98 120/120/120
f 61/61/61 153/153/153 62/62/62
f 73/73/73 122/122/122 89/89/89
f 153/153/153 57/57/57 62/62/62
f 109/109/109 57/57/57 153/153/153
f 109/109/109 153/153/153 61/61/61
f 144/144/144 124/124/124 72/72/72
f 84/84/84 111/111/111 114/114/114
f 64/64/64 71/71/71 154/154/154
f 64/64/64 154/154/154 60/60/60
f 70/70/70 77/77/77 155/155/155
f 70/70/70 155/155/155 71/71/71
f 87/87/87 91/91/91 156/156/156
f 87/87/87 156/156/156 90/90/90
f 84/84/84 157/157/157 111/111/111
f 157/157/157 146/146/146 111/111/111
f 146/146/146 157/157/157 96/96/96
f 157/157/157 84/84/84 96/96/96
f 126/126/126 144/144/144 158/158/158
f 146/146/146 126/126/126 111/111/111
f 111/111/111 127/127/127 112/112/112
f 127/127/127 158/158/158 112/112/112
f 127/127/127 126/126/126 158/158/158
