# Exported using wow.export v0.2.19
o darnassis_condoInt09.obj
v -97.73379516601562 -3.9078357219696045 -77.68115234375
v -95.43353271484375 -3.9091663360595703 -79.65249633789062
v -95.67454528808594 -3.905714511871338 -77.45204162597656
v -109.60040283203125 -3.921231746673584 -83.48846435546875
v -111.65794372558594 -3.9217941761016846 -83.72550201416016
v -111.41862487792969 -3.926805019378662 -85.91802978515625
v -111.89726257324219 -3.916783332824707 -81.53297424316406
v -110.07904052734375 -3.911210060119629 -79.10340881347656
v -112.13658142089844 -3.9117724895477295 -79.34044647216797
v -112.37589263916016 -3.906761646270752 -77.14791870117188
v -97.78961181640625 -10.209850311279297 -76.27676391601562
v -95.83241271972656 -10.20534896850586 -78.13137817382812
v -96.98800659179688 -10.205390930175781 -78.2585678100586
v -96.1864013671875 -10.200931549072266 -80.24037170410156
v -98.14360046386719 -10.205432891845703 -78.38575744628906
v -96.54039001464844 -10.196513175964355 -82.349365234375
v -95.38479614257812 -10.196471214294434 -82.22217559814453
v -95.03080749511719 -10.200889587402344 -80.1131820678711
v -94.58319091796875 -10.192010879516602 -84.2039794921875
v -109.5023193359375 -9.577857971191406 -77.25209045410156
v -112.72957611083984 -9.577857971191406 -78.05328369140625
v -109.45643615722656 -9.577857971191406 -77.67189025878906
v -106.18330383300781 -9.57785701751709 -77.29049682617188
v -106.18330383300781 -9.57785701751709 -77.29049682617188
v -109.45643615722656 -9.577857971191406 -77.67189025878906
v -112.72957611083984 -9.254924774169922 -78.05328369140625
v -112.72957611083984 -9.577857971191406 -78.05328369140625
v -106.18330383300781 -9.254923820495605 -77.29049682617188
v -109.45643615722656 -9.254924774169922 -77.67189025878906
v -109.5023193359375 -9.254924774169922 -77.25209045410156
v -112.72957611083984 -9.254924774169922 -78.05328369140625
v -109.45643615722656 -9.254924774169922 -77.67189025878906
v -106.18330383300781 -9.254923820495605 -77.29049682617188
v -106.1753921508789 -10.21613597869873 -77.29685974121094
v -109.3029556274414 -10.216362953186035 -77.63941955566406
v -109.36703491210938 -10.191974639892578 -77.20260620117188
v -112.4305191040039 -10.21658992767334 -77.98198699951172
v -112.82133483886719 -9.254924774169922 -77.21369171142578
v -109.56031799316406 -9.254924774169922 -76.83380126953125
v -106.29930114746094 -9.254923820495605 -76.45390319824219
v -106.29930114746094 -9.254923820495605 -76.45390319824219
v -109.56031799316406 -9.254924774169922 -76.83380126953125
v -112.82133483886719 -9.577857971191406 -77.21369171142578
v -112.82133483886719 -9.254924774169922 -77.21369171142578
v -106.29931640625 -9.57785701751709 -76.45390319824219
v -109.5603256225586 -9.577857971191406 -76.83380126953125
v -112.82133483886719 -9.577857971191406 -77.21369171142578
v -109.5603256225586 -9.577857971191406 -76.83380126953125
v -106.29931640625 -9.57785701751709 -76.45390319824219
v -103.13809204101562 -10.213035583496094 -76.91400146484375
v -103.20217895507812 -10.18864631652832 -76.47718811035156
v -100.10079956054688 -10.20993423461914 -76.53114318847656
v -106.33940887451172 -10.14459228515625 -76.0132827758789
v -103.29890441894531 -10.153642654418945 -75.84690856933594
v -103.22010803222656 -10.177263259887695 -76.272216796875
v -100.25840759277344 -10.16269302368164 -75.68052673339844
v -103.09605407714844 -10.14356803894043 -75.63964080810547
v -112.5205078125 -10.17039966583252 -77.15672302246094
v -109.41203308105469 -10.168878555297852 -76.78997802734375
v -106.30355072021484 -10.1673583984375 -76.42323303222656
v -105.48532104492188 -3.920106887817383 -83.01437377929688
v -107.78218078613281 -3.915658473968506 -81.05889129638672
v -107.54286193847656 -3.9206693172454834 -83.25141906738281
v -107.30354309082031 -3.925680160522461 -85.4439468383789
v -95.36900329589844 -9.577857971191406 -75.977783203125
v -95.46076202392578 -9.577857971191406 -75.13818359375
v -97.80245208740234 -9.577857971191406 -75.8348617553711
v -100.23590087890625 -9.57785701751709 -75.69194030761719
v -100.11988830566406 -9.57785701751709 -76.52852630615234
v -97.80245208740234 -9.254924774169922 -75.8348617553711
v -95.46076202392578 -9.254924774169922 -75.13818359375
v -95.36900329589844 -9.254924774169922 -75.977783203125
v -100.11990356445312 -9.254923820495605 -76.52852630615234
v -100.23590087890625 -9.254923820495605 -75.69194030761719
v -97.86842346191406 -10.186229705810547 -75.85145568847656
v -95.568359375 -10.16450023651123 -75.20061492919922
v -95.47843170166016 -10.20976734161377 -76.02238464355469
v -105.96395874023438 -3.9100852012634277 -78.62931823730469
v -108.02149963378906 -3.9106476306915283 -78.86636352539062
v -109.42996215820312 -10.157495498657227 -76.58500671386719
v -112.56696319580078 -10.146554946899414 -76.73072052001953
v -108.26081085205078 -3.905636787414551 -76.67383575439453
v -99.85270690917969 -10.142544746398926 -75.26599884033203
v -97.71053314208984 -10.153522491455078 -75.23330688476562
v -95.61463928222656 -10.141209602355957 -74.77776336669922
v -101.3702392578125 -3.9189822673797607 -82.54029846191406
v -99.31100463867188 -3.916861057281494 -82.31117248535156
v -99.55201721191406 -3.9134089946746826 -80.11072540283203
v -99.06998443603516 -3.9203128814697266 -84.51162719726562
v -97.25176239013672 -3.9147396087646484 -82.08206176757812
v -95.19252014160156 -3.9126181602478027 -81.85295104980469
v -94.95150756835938 -3.916069984436035 -84.05339813232422
v -104.1457290649414 -3.9045119285583496 -76.19975280761719
v -103.66709899902344 -3.9145336151123047 -80.58480834960938
v -100.03064727783203 -3.9033870697021484 -75.72566986083984
v -101.848876953125 -3.9089603424072266 -78.15524291992188
v -103.18846130371094 -3.924555540084839 -84.96986389160156
v -95.91556549072266 -3.9022624492645264 -75.2515869140625
v -105.73439025878906 -10.204609870910645 -83.42459106445312
v -103.05352783203125 -10.205665588378906 -81.06903839111328
v -103.61349487304688 -10.202520370483398 -83.18986511230469
v -107.29531860351562 -10.209844589233398 -81.53849792480469
v -104.61445617675781 -10.210901260375977 -79.18295288085938
v -105.17442321777344 -10.207755088806152 -81.30377197265625
v -111.54280853271484 -10.203781127929688 -86.12271118164062
v -111.98666381835938 -10.210186004638672 -82.05235290527344
v -110.98284912109375 -10.206926345825195 -84.00189208984375
v -110.42288208007812 -10.210071563720703 -81.88106536865234
v -107.85528564453125 -10.20669937133789 -83.65931701660156
v -109.8629150390625 -10.213216781616211 -79.76023864746094
v -106.7353515625 -10.212989807128906 -79.41767883300781
v -100.0162353515625 -10.20256519317627 -80.6861801147461
v -101.49259948730469 -10.200430870056152 -82.95512390136719
v -99.93167114257812 -10.195196151733398 -84.84121704101562
v -101.57716369628906 -10.207799911499023 -78.80009460449219
v -99.21463012695312 -10.198104858398438 -82.66798400878906
v -98.49758911132812 -10.201014518737793 -80.4947509765625
v -97.84832763671875 -9.577857971191406 -75.4150619506836
v -100.23590087890625 -9.57785701751709 -75.69194030761719
v -97.84832763671875 -9.577857971191406 -75.4150619506836
v -95.46076202392578 -9.254924774169922 -75.13818359375
v -95.46076202392578 -9.577857971191406 -75.13818359375
v -97.84832763671875 -9.254924774169922 -75.4150619506836
v -97.84832763671875 -9.254924774169922 -75.4150619506836
v -100.23590087890625 -9.254923820495605 -75.69194030761719
v -97.74445343017578 -9.254924774169922 -76.25315856933594
v -100.11990356445312 -9.254923820495605 -76.52852630615234
v -97.74445343017578 -9.254924774169922 -76.25315856933594
v -95.36900329589844 -9.577857971191406 -75.977783203125
v -95.36900329589844 -9.254924774169922 -75.977783203125
v -97.74444580078125 -9.577857971191406 -76.25315856933594
v -97.74444580078125 -9.577857971191406 -76.25315856933594
v -100.11988830566406 -9.57785701751709 -76.52852630615234
v -97.91338348388672 -10.163597106933594 -75.44056701660156
v -97.69598388671875 -10.196554183959961 -82.47655487060547
v -99.2991943359375 -10.205474853515625 -78.51294708251953
v -108.29913330078125 -10.213104248046875 -79.58895874023438
v -111.42669677734375 -10.21333122253418 -79.93152618408203
v -99.79133605957031 -3.908398151397705 -77.91819763183594
v -109.4190673828125 -10.206812858581543 -83.83060455322266
v -107.8887710571289 -10.223370552062988 -76.66030883789062
v -107.34331512451172 -10.223370552062988 -76.94745635986328
v -108.01962280273438 -9.559688568115234 -76.76225280761719
v -111.21205139160156 -10.223370552062988 -77.067626953125
v -110.99957275390625 -9.559688568115234 -77.69284057617188
v -111.0604476928711 -9.559688568115234 -77.13494873046875
v -111.14157104492188 -10.223370552062988 -77.77262878417969
v -111.14157104492188 -10.223370552062988 -77.77262878417969
v -111.427490234375 -9.559688568115234 -77.45556640625
v -110.99957275390625 -9.559688568115234 -77.69284057617188
v -111.67201232910156 -10.223370552062988 -77.47799682617188
v -107.58601379394531 -9.559688568115234 -76.98472595214844
v -107.34331512451172 -10.223370552062988 -76.94745635986328
v -107.78690338134766 -10.223370552062988 -77.36146545410156
v -107.58601379394531 -9.559688568115234 -76.98472595214844
v -107.9439697265625 -9.559688568115234 -77.31832122802734
v -107.78690338134766 -10.223370552062988 -77.36146545410156
v -107.8887710571289 -10.223370552062988 -76.66030883789062
v -107.9439697265625 -9.559688568115234 -77.31832122802734
v -108.01962280273438 -9.559688568115234 -76.76225280761719
v -111.67201232910156 -10.223370552062988 -77.47799682617188
v -111.0604476928711 -9.559688568115234 -77.13494873046875
v -111.427490234375 -9.559688568115234 -77.45556640625
v -111.21205139160156 -10.223370552062988 -77.067626953125
v -98.4752426147461 -9.559688568115234 -75.66411590576172
v -98.53043365478516 -10.223370552062988 -76.32212829589844
v -98.39958190917969 -9.559688568115234 -76.22018432617188
v -98.63230895996094 -10.223370552062988 -75.6209716796875
v -98.83319091796875 -9.559688568115234 -75.99771118164062
v -98.63230895996094 -10.223370552062988 -75.6209716796875
v -98.4752426147461 -9.559688568115234 -75.66411590576172
v -99.07589721679688 -10.223370552062988 -76.03498840332031
v -98.39958190917969 -9.559688568115234 -76.22018432617188
v -99.07589721679688 -10.223370552062988 -76.03498840332031
v -98.83319091796875 -9.559688568115234 -75.99771118164062
v -98.53043365478516 -10.223370552062988 -76.32212829589844
v -96.31659698486328 -10.223370552062988 -75.99795532226562
v -96.5290756225586 -9.559688568115234 -75.37274169921875
v -96.46819305419922 -9.559688568115234 -75.93063354492188
v -96.38707733154297 -10.223370552062988 -75.2929458618164
v -96.38707733154297 -10.223370552062988 -75.2929458618164
v -96.10115814208984 -9.559688568115234 -75.61001586914062
v -96.5290756225586 -9.559688568115234 -75.37274169921875
v -95.85662841796875 -10.223370552062988 -75.58758544921875
v -95.85662841796875 -10.223370552062988 -75.58758544921875
v -96.46819305419922 -9.559688568115234 -75.93063354492188
v -96.10115814208984 -9.559688568115234 -75.61001586914062
v -96.31659698486328 -10.223370552062988 -75.99795532226562
v -106.29931640625 -9.57785701751709 -76.45390319824219
v -106.18330383300781 -9.57785701751709 -77.29049682617188
v -106.18330383300781 -9.254923820495605 -77.29049682617188
v -106.29930114746094 -9.254923820495605 -76.45390319824219
v -100.23590087890625 -9.254923820495605 -75.69194030761719
v -100.11990356445312 -9.254923820495605 -76.52852630615234
v -100.11988830566406 -9.57785701751709 -76.52852630615234
v -100.23590087890625 -9.57785701751709 -75.69194030761719
v -95.43824005126953 -7.242854118347168 -77.90638732910156
v -95.48550415039062 -6.57542610168457 -77.81552124023438
v -95.24449157714844 -6.578877925872803 -80.01597595214844
v -95.72651672363281 -6.57197380065918 -75.61506652832031
v -95.62904357910156 -9.209614753723145 -75.1352310180664
v -95.568359375 -10.16450023651123 -75.20061492919922
v -95.61463928222656 -10.141209602355957 -74.77776336669922
v -95.53746795654297 -9.24168586730957 -75.97854614257812
v -95.47843170166016 -10.20976734161377 -76.02238464355469
v -111.94569396972656 -5.477814674377441 -81.42679595947266
v -111.68215942382812 -4.702309608459473 -83.67240905761719
v -111.89726257324219 -3.916783332824707 -81.53297424316406
v -111.51549530029297 -7.048867225646973 -85.70567321777344
v -111.41862487792969 -3.926805019378662 -85.91802978515625
v -111.65794372558594 -3.9217941761016846 -83.72550201416016
v -112.16079711914062 -4.692288398742676 -79.287353515625
v -112.13658142089844 -3.9117724895477295 -79.34044647216797
v -112.37589263916016 -3.906761646270752 -77.14791870117188
v -112.40800476074219 -9.149970054626465 -77.96135711669922
v -112.4305191040039 -10.21658992767334 -77.98198699951172
v -111.96977996826172 -9.410221099853516 -82.03688049316406
v -111.98103332519531 -9.943531036376953 -82.04719543457031
v -111.98666381835938 -10.210186004638672 -82.05235290527344
v -111.54280853271484 -10.203781127929688 -86.12271118164062
v -112.4978256225586 -9.23070240020752 -77.16433715820312
v -95.53276062011719 -5.907998085021973 -77.72464752197266
v -95.3390121459961 -5.244022369384766 -79.834228515625
v -95.38862609863281 -6.243437767028809 -78.87030792236328
v -112.56696319580078 -10.146554946899414 -76.73072052001953
v -112.5205078125 -10.17039966583252 -77.15672302246094
v -111.7305908203125 -6.263340950012207 -83.56623840332031
v -111.96174621582031 -8.099418640136719 -81.83351135253906
v -95.62728881835938 -4.5731425285339355 -77.54290771484375
v -95.145263671875 -4.5800461769104 -81.94381713867188
v -95.19252014160156 -3.9126181602478027 -81.85295104980469
v -94.95150756835938 -3.916069984436035 -84.05339813232422
v -95.05073547363281 -5.914902210235596 -82.12554931640625
v -95.77230834960938 -6.555938720703125 -75.19340515136719
v -95.91556549072266 -3.9022624492645264 -75.2515869140625
v -95.76510620117188 -7.021736145019531 -75.01467895507812
v -112.39195251464844 -6.5283660888671875 -77.55464172363281
v -112.43685913085938 -6.568732261657715 -77.1561279296875
v -95.13520812988281 -8.155754089355469 -80.20867156982422
v -95.34371948242188 -8.577710151672363 -78.08812713623047
v -95.14996337890625 -7.913733959197998 -80.19770812988281
v -94.9193115234375 -7.854808807373047 -82.3346939086914
v -94.84443664550781 -9.415903091430664 -82.21728515625
v -95.10568237304688 -8.639795303344727 -80.2305908203125
v -95.03080749511719 -10.200889587402344 -80.1131820678711
v -94.58319091796875 -10.192010879516602 -84.2039794921875
v -95.43353271484375 -3.9091663360595703 -79.65249633789062
v -112.17684936523438 -7.313892364501953 -79.69407653808594
v -111.74263763427734 -8.229543685913086 -83.87127685546875
v -111.53155517578125 -9.67047119140625 -86.11239624023438
v -95.29205322265625 -9.424781799316406 -78.1264877319336
v -94.73294067382812 -7.069822311401367 -84.43879699707031
v -94.95620727539062 -7.249757766723633 -82.30729675292969
v -95.00347900390625 -6.582329750061035 -82.2164306640625
v -95.2283935546875 -8.548247337341309 -79.1566162109375
v -95.32157897949219 -8.940740585327148 -78.10456848144531
v -95.67454528808594 -3.905714511871338 -77.45204162597656
v -96.809814453125 -10.184725761413574 -88.6134033203125
v -95.29116821289062 -10.183175086975098 -88.42196655273438
v -95.24888610839844 -10.17949104309082 -90.49949645996094
v -97.69598388671875 -10.196554183959961 -82.47655487060547
v -96.54039001464844 -10.196513175964355 -82.349365234375
v -96.89437866210938 -10.192094802856445 -84.45835876464844
v -99.21463012695312 -10.198104858398438 -82.66798400878906
v -94.93717956542969 -10.187593460083008 -86.31297302246094
v -96.0927734375 -10.18763542175293 -86.4401626586914
v -107.30354309082031 -3.925680160522461 -85.4439468383789
v -111.41862487792969 -3.926805019378662 -85.91802978515625
v -109.12176513671875 -3.931253433227539 -87.87351989746094
v -106.82490539550781 -3.935702085494995 -89.82901000976562
v -110.93998718261719 -3.936826705932617 -90.30308532714844
v -94.58319091796875 -10.192010879516602 -84.2039794921875
v -96.76972961425781 -3.9216432571411133 -86.48297119140625
v -94.469482421875 -3.9229736328125 -88.45429992675781
v -94.71049499511719 -3.9195218086242676 -86.25384521484375
v -94.95150756835938 -3.916069984436035 -84.05339813232422
v -102.6125259399414 -10.194140434265137 -87.19676971435547
v -100.49163818359375 -10.19205093383789 -86.9620361328125
v -101.05159759521484 -10.188904762268066 -89.0828628540039
v -99.93167114257812 -10.195196151733398 -84.84121704101562
v -98.37074279785156 -10.189960479736328 -86.72731018066406
v -94.48956298828125 -10.178714752197266 -90.40377807617188
v -93.68795776367188 -10.17425537109375 -92.38558197021484
v -108.97520446777344 -10.200408935546875 -87.90097045898438
v -111.54280853271484 -10.203781127929688 -86.12271118164062
v -108.41524505615234 -10.203554153442383 -85.78014373779297
v -109.53517150878906 -10.197263717651367 -90.02178955078125
v -106.85430908203125 -10.198319435119629 -87.66622924804688
v -111.09895324707031 -10.197376251220703 -90.19306945800781
v -110.53898620605469 -10.200522422790527 -88.07225036621094
v -99.49066925048828 -10.183670043945312 -90.96895599365234
v -98.93070983886719 -10.18681526184082 -88.84812927246094
v -106.29435729980469 -10.201464653015137 -85.54541015625
v -104.1734619140625 -10.19937515258789 -85.31068420410156
v -105.73439025878906 -10.204609870910645 -83.42459106445312
v -107.85528564453125 -10.20669937133789 -83.65931701660156
v -103.61349487304688 -10.202520370483398 -83.18986511230469
v -101.49259948730469 -10.200430870056152 -82.95512390136719
v -111.17930603027344 -3.9318158626556396 -88.11055755615234
v -110.98284912109375 -10.206926345825195 -84.00189208984375
v -109.4190673828125 -10.206812858581543 -83.83060455322266
v -94.13557434082031 -10.183133125305176 -88.29478454589844
v -108.64312744140625 -3.9412753582000732 -92.25857543945312
v -110.46135711669922 -3.9468486309051514 -94.68814849853516
v -106.34288024902344 -3.942605972290039 -94.22991943359375
v -107.9742431640625 -10.192028045654297 -91.90787506103516
v -107.41427612304688 -10.195174217224121 -89.78705596923828
v -105.29338073730469 -10.193084716796875 -89.55232238769531
v -97.92974090576172 -10.178434371948242 -92.85504150390625
v -95.80885314941406 -10.176344871520996 -92.62031555175781
v -110.65509796142578 -10.190972328186035 -94.263427734375
v -110.09513854980469 -10.19411849975586 -92.14260864257812
v -97.36978149414062 -10.18157958984375 -90.73422241210938
v -104.7334213256836 -10.196229934692383 -87.43150329589844
v -95.38479614257812 -10.196471214294434 -82.22217559814453
v -101.61155700683594 -10.185758590698242 -91.20368957519531
v -102.17152404785156 -10.182613372802734 -93.32450866699219
v -103.73245239257812 -10.187849044799805 -91.43841552734375
v -108.53421020507812 -10.188882827758789 -94.02870178222656
v -106.41331481933594 -10.186792373657227 -93.7939682006836
v -100.05062866210938 -10.180523872375488 -93.08977508544922
v -103.1724853515625 -10.190994262695312 -89.31759643554688
v -102.22440338134766 -3.9383630752563477 -93.77168273925781
v -100.40617370605469 -3.9327898025512695 -91.34210968017578
v -102.70643615722656 -3.931459426879883 -89.37077331542969
v -98.58795166015625 -3.9272165298461914 -88.91253662109375
v -98.10592651367188 -3.9341201782226562 -93.31344604492188
v -100.8882064819336 -3.9258861541748047 -86.94120025634766
v -103.18846130371094 -3.924555540084839 -84.96986389160156
v -99.06998443603516 -3.9203128814697266 -84.51162719726562
v -93.9874496459961 -3.929877519607544 -92.85520935058594
v -96.28770446777344 -3.928546905517578 -90.88387298583984
v -104.524658203125 -3.937032699584961 -91.80034637451172
v -105.00668334960938 -3.930128812789917 -87.3994369506836
v -104.29241943359375 -10.18470287322998 -93.55923461914062
v -105.85334777832031 -10.18993854522705 -91.67314147949219
v -102.05256652832031 -10.197285652160645 -85.0759506225586
v -107.06422424316406 -3.9306912422180176 -87.636474609375
v -110.70066833496094 -3.941837787628174 -92.49562072753906
v -106.58389282226562 -3.9391541481018066 -92.02946472167969
v -104.26820373535156 -9.40418815612793 -93.6123275756836
v -102.17152404785156 -10.182613372802734 -93.32450866699219
v -104.21977233886719 -7.843156814575195 -93.718505859375
v -94.95620727539062 -7.249757766723633 -82.30729675292969
v -95.00347900390625 -6.582329750061035 -82.2164306640625
v -94.76245880126953 -6.585782051086426 -84.41687774658203
v -95.05073547363281 -5.914902210235596 -82.12554931640625
v -94.173828125 -4.7148637771606445 -90.75110626220703
v -94.09895324707031 -6.275958061218262 -90.63369750976562
v -94.36019897460938 -5.499849796295166 -88.64700317382812
v -94.02407836914062 -7.837052345275879 -90.51629638671875
v -93.83770751953125 -7.052066802978516 -92.62039184570312
v -94.18119812011719 -4.59385347366333 -90.7456283569336
v -94.469482421875 -3.9229736328125 -88.45429992675781
v -93.9874496459961 -3.929877519607544 -92.85520935058594
v -106.41331481933594 -10.186792373657227 -93.7939682006836
v -106.36488342285156 -8.625761985778809 -93.900146484375
v -94.37495422363281 -5.257829666137695 -88.63604736328125
v -95.93437957763672 -6.2736406326293945 -92.90821838378906
v -97.88130950927734 -8.617403984069824 -92.96122741699219
v -95.85951232910156 -7.834734916687012 -92.79080963134766
v -94.56871032714844 -5.9218058586120605 -86.52645874023438
v -94.6632308959961 -4.586949825286865 -86.3447265625
v -95.78463745117188 -9.395830154418945 -92.67340087890625
v -93.83770751953125 -7.052066326141357 -92.62039184570312
v -104.24620056152344 -4.721031665802002 -93.94209289550781
v -106.26800537109375 -5.503700256347656 -94.11250305175781
v -104.17133331298828 -6.282126426696777 -93.8246841430664
v -102.22440338134766 -3.9383630752563477 -93.77168273925781
v -94.21044921875 -8.622038841247559 -88.41218566894531
v -94.54656982421875 -6.2848358154296875 -86.54290008544922
v -94.73294067382812 -7.069822311401367 -84.43879699707031
v -106.34288024902344 -3.942605972290039 -94.22991943359375
v -96.00924682617188 -4.712546348571777 -93.02561950683594
v -98.03105163574219 -5.495214939117432 -93.19603729248047
v -94.47169494628906 -7.845930576324463 -86.42549133300781
v -94.39682006835938 -9.407024383544922 -86.3080825805664
v -94.9193115234375 -7.854808807373047 -82.3346939086914
v -94.58319091796875 -10.192010879516602 -84.2039794921875
v -94.84443664550781 -9.415903091430664 -82.21728515625
v -108.46155548095703 -7.847336292266846 -94.1879653930664
v -108.41311645507812 -6.2863054275512695 -94.29414367675781
v -108.50999450683594 -9.408367156982422 -94.081787109375
v -110.5582275390625 -7.068910598754883 -94.47578430175781
v -100.0528564453125 -6.277883529663086 -93.366455078125
v -100.12773132324219 -4.716789245605469 -93.48385620117188
v -102.07466125488281 -7.06055212020874 -93.536865234375
v -97.92974090576172 -10.178434371948242 -92.85504150390625
v -95.80885314941406 -10.176344871520996 -92.62031555175781
v -104.29241943359375 -10.18470287322998 -93.55923461914062
v -111.20352172851562 -4.712331771850586 -88.0574722290039
v -111.17930603027344 -3.9318158626556396 -88.11055755615234
v -111.41862487792969 -3.926805019378662 -85.91802978515625
v -93.9874496459961 -3.929877519607544 -92.85520935058594
v -98.10592651367188 -3.9341201782226562 -93.31344604492188
v -94.95150756835938 -3.916069984436035 -84.05339813232422
v -94.71049499511719 -3.9195218086242676 -86.25384521484375
v -99.97798156738281 -7.838977813720703 -93.2490463256836
v -93.68795776367188 -10.17425537109375 -92.38558197021484
v -110.93998718261719 -3.936826705932617 -90.30308532714844
v -108.36468505859375 -4.725274562835693 -94.40032958984375
v -110.46135711669922 -3.9468486309051514 -94.68814849853516
v -95.145263671875 -4.5800461769104 -81.94381713867188
v -110.72489166259766 -4.722353458404541 -92.44253540039062
v -110.46135711669922 -3.9468486309051514 -94.68814849853516
v -110.70066833496094 -3.941837787628174 -92.49562072753906
v -94.13557434082031 -10.183133125305176 -88.29478454589844
v -93.68795776367188 -10.17425537109375 -92.38558197021484
v -111.09332275390625 -9.930721282958984 -90.18791198730469
v -111.09895324707031 -10.197376251220703 -90.19306945800781
v -110.65509796142578 -10.190972328186035 -94.263427734375
v -111.54280853271484 -10.203781127929688 -86.12271118164062
v -111.25196075439453 -6.273362636566162 -87.9512939453125
v -110.9884262084961 -5.497858047485352 -90.19691467285156
v -110.87019348144531 -9.40544605255127 -92.12399291992188
v -110.82176208496094 -7.844415187835693 -92.23017120361328
v -111.08529663085938 -8.619919776916504 -89.98455047607422
v -108.53421020507812 -10.188882827758789 -94.02870178222656
v -110.65509796142578 -10.190972328186035 -94.263427734375
v -110.5582275390625 -7.068910598754883 -94.47578430175781
v -110.77333068847656 -6.283384323120117 -92.33634948730469
v -100.05062866210938 -10.180523872375488 -93.08977508544922
v -100.02641296386719 -9.400009155273438 -93.14286804199219
v -93.94920349121094 -9.398147583007812 -90.39888000488281
v -111.51549530029297 -7.048867225646973 -85.70567321777344
v -111.74263763427734 -8.229543685913086 -83.87127685546875
v -111.53155517578125 -9.67047119140625 -86.11239624023438
v -111.30039978027344 -7.834393501281738 -87.84510803222656
vn 0.000009944630619429518 -0.9999973773956299 0.002286485629156232
vn 0.0002187939826399088 -0.9999977946281433 0.0021301894448697567
vn 0.0001143693079939112 -0.999997615814209 0.002208337653428316
vn 0.000009944630619429518 -0.9999973773956299 0.002286485629156232
vn 0.000009944630619429518 -0.9999973773956299 0.002286485629156232
vn 0.000009944630619429518 -0.9999973773956299 0.002286485629156232
vn 0.000009944630619429518 -0.9999973773956299 0.002286485629156232
vn 0.000009944630619429518 -0.9999973773956299 0.002286485629156232
vn 0.000009944630619429518 -0.9999973773956299 0.002286485629156232
vn 0.000009944630619429518 -0.9999973773956299 0.002286485629156232
vn -0.0002715415903367102 0.9999976754188538 0.0021405364386737347
vn -0.0002715415903367102 0.9999976754188538 0.0021405364386737347
vn -0.0002715415903367102 0.9999976754188538 0.0021405364386737347
vn -0.0002715415903367102 0.9999976754188538 0.0021405364386737347
vn -0.0002715415903367102 0.9999976754188538 0.0021405364386737347
vn -0.0002715415903367102 0.9999976754188538 0.0021405364386737347
vn -0.0002715415903367102 0.9999976754188538 0.0021405364386737347
vn -0.0002715415903367102 0.9999976754188538 0.0021405364386737347
vn -0.0002715415903367102 0.9999976754188538 0.0021405364386737347
vn 1.279102832540957e-7 -1 1.7738011948154053e-8
vn 1.2786674119524832e-7 -1 1.3975145485289886e-8
vn 1.27888512224672e-7 -1 1.585657827263276e-8
vn 1.279102832540957e-7 -1 1.7738011948154053e-8
vn 0.11573977768421173 0 -0.9932795763015747
vn 0.11573977768421173 0 -0.9932795763015747
vn 0.11573977768421173 0 -0.9932795763015747
vn 0.11573977768421173 0 -0.9932795763015747
vn -1.2786674119524832e-7 1 -1.3975145485289886e-8
vn -1.2786674119524832e-7 1 -1.3975145485289886e-8
vn -1.2786674119524832e-7 1 -1.3975145485289886e-8
vn -1.2786674119524832e-7 1 -1.3975145485289886e-8
vn 0.11573977768421173 0 -0.9932795763015747
vn 0.11573977768421173 0 -0.9932795763015747
vn 0.005938266403973103 0.9984754323959351 -0.05487740412354469
vn 0.0059827398508787155 0.9984656572341919 -0.055051907896995544
vn 0.006027212832123041 0.9984557628631592 -0.0552264004945755
vn 0.0060272119008004665 0.9984556436538696 -0.055226393043994904
vn -1.2786674119524832e-7 1 -1.3975145485289886e-8
vn -1.27888512224672e-7 1 -1.585657827263276e-8
vn -1.279102832540957e-7 1 -1.7738011948154053e-8
vn -0.1157129555940628 0 0.993282675743103
vn -0.115712970495224 0 0.9932827949523926
vn -0.1157129555940628 0 0.993282675743103
vn -0.1157129555940628 0 0.993282675743103
vn 1.279102832540957e-7 -1 1.7738011948154053e-8
vn 1.279102832540957e-7 -1 1.7738011948154053e-8
vn 1.279102832540957e-7 -1 1.7738011948154053e-8
vn -0.115712970495224 0 0.9932827949523926
vn -0.1157129555940628 0 0.993282675743103
vn 0.002834528684616089 0.9996479153633118 -0.026379287242889404
vn 0.002879034960642457 0.9996432662010193 -0.026553994044661522
vn -0.0002715415903367102 0.9999976754188538 0.0021405364386737347
vn 0.005946278106421232 0.998504102230072 -0.054352227598428726
vn 0.005946278106421232 0.998504102230072 -0.054352227598428726
vn 0.0028385152108967304 0.9996548295021057 -0.026116399094462395
vn 0.005946278106421232 0.998504102230072 -0.054352227598428726
vn 0.005946278106421232 0.998504102230072 -0.054352227598428726
vn 0.0060272119008004665 0.9984556436538696 -0.055226393043994904
vn 0.006027212832123041 0.9984557628631592 -0.0552264004945755
vn 0.0060272119008004665 0.9984556436538696 -0.055226393043994904
vn 0.000009944630619429518 -0.9999973773956299 0.002286485629156232
vn 0.000009944630619429518 -0.9999973773956299 0.002286485629156232
vn 0.000009944630619429518 -0.9999973773956299 0.002286485629156232
vn 0.000009944630619429518 -0.9999973773956299 0.002286485629156232
vn -1.756091734250731e-7 -1 -2.4352875271915764e-8
vn -1.7530409479604714e-7 -1 -1.915821989939559e-8
vn -1.756091734250731e-7 -1 -2.4352875271915764e-8
vn -1.756091734250731e-7 -1 -2.4352875271915764e-8
vn -1.756091734250731e-7 -1 -2.4352875271915764e-8
vn 1.753040663743377e-7 1 1.915821812303875e-8
vn 1.753040663743377e-7 1 1.915821812303875e-8
vn 1.753040663743377e-7 1 1.915821812303875e-8
vn 1.756091734250731e-7 1 2.4352875271915764e-8
vn 1.753040663743377e-7 1 1.915821812303875e-8
vn 0.0028385152108967304 0.9996548295021057 -0.026116399094462395
vn 0.005946428515017033 0.998504102230072 -0.054352372884750366
vn -0.0002715415903367102 0.9999976754188538 0.0021405364386737347
vn 0.000009944630619429518 -0.9999973773956299 0.002286485629156232
vn 0.000009944630619429518 -0.9999973773956299 0.002286485629156232
vn 0.005986746400594711 0.9984800815582275 -0.05478932708501816
vn 0.006047624628990889 0.9984555244445801 -0.05522706359624863
vn 0.000009944630619429518 -0.9999973773956299 0.002286485629156232
vn 0.005946278106421232 0.998504102230072 -0.054352227598428726
vn 0.005946353077888489 0.998504102230072 -0.0543522983789444
vn 0.0059463707730174065 0.9985043406486511 -0.05434848740696907
vn 0.000009944630619429518 -0.9999973773956299 0.002286485629156232
vn 0.0001143693079939112 -0.999997615814209 0.002208337653428316
vn 0.000009944630619429518 -0.9999973773956299 0.002286485629156232
vn 0.0002187939826399088 -0.9999977946281433 0.0021301894448697567
vn 0.0002187939826399088 -0.9999977946281433 0.0021301894448697567
vn 0.00032321864273399115 -0.9999978542327881 0.0020520412363111973
vn 0.00042764327372424304 -0.9999979734420776 0.001973892794921994
vn 0.000009944630619429518 -0.9999973773956299 0.002286485629156232
vn 0.000009944630619429518 -0.9999973773956299 0.002286485629156232
vn 0.000009944630619429518 -0.9999973773956299 0.002286485629156232
vn 0.000009944630619429518 -0.9999973773956299 0.002286485629156232
vn 0.000009944630619429518 -0.9999973773956299 0.002286485629156232
vn 0.000009944630619429518 -0.9999973773956299 0.002286485629156232
vn 0.0036181325558573008 0.9994269609451294 -0.033655062317848206
vn 0.004386849235743284 0.9991645812988281 -0.04063252732157707
vn 0.0036144570913165808 0.99942946434021 -0.03358091786503792
vn 0.004394195042550564 0.999158501625061 -0.04078078269958496
vn 0.0051626903004944324 0.9988456964492798 -0.047756195068359375
vn 0.00439052190631628 0.9991615414619446 -0.040706656873226166
vn 0.0028937431052327156 0.9996352791786194 -0.026850640773773193
vn 0.004460932221263647 0.9991474151611328 -0.04104270413517952
vn 0.0036663059145212173 0.9994184970855713 -0.03390387445688248
vn 0.004438683390617371 0.9991511106491089 -0.040955398231744766
vn 0.0036218073219060898 0.9994244575500488 -0.03372921049594879
vn 0.005210841074585915 0.9988334774971008 -0.04800485819578171
vn 0.005166361108422279 0.998842179775238 -0.04783029854297638
vn 0.0012816255912184715 0.9999257922172546 -0.012120623141527176
vn 0.0036107818596065044 0.9994319677352905 -0.03350677341222763
vn 0.002834528684616089 0.9996479153633118 -0.026379287242889404
vn 0.0020581302233040333 0.9998124837875366 -0.019250450655817986
vn 0.0012816255912184715 0.9999257922172546 -0.012120623141527176
vn -0.0002715415903367102 0.9999976754188538 0.0021405364386737347
vn -1.7545663411056012e-7 -1 -2.1755546697477257e-8
vn -0.11519495397806168 0 0.9933428764343262
vn -0.11519495397806168 0 0.9933428764343262
vn -0.11519495397806168 0 0.9933428764343262
vn -0.11519495397806168 0 0.9933428764343262
vn 1.753040663743377e-7 1 1.915821812303875e-8
vn -0.11519495397806168 0 0.9933428764343262
vn -0.11519495397806168 0 0.9933428764343262
vn 1.754566198997054e-7 1 2.1755546697477257e-8
vn 0.11515272408723831 0 -0.9933478236198425
vn 0.11515272408723831 0 -0.9933478236198425
vn 0.11515272408723831 0 -0.9933478236198425
vn 0.11515272408723831 0 -0.9933478236198425
vn -1.756091734250731e-7 -1 -2.4352875271915764e-8
vn 0.11515272408723831 0 -0.9933478236198425
vn 0.11515272408723831 0 -0.9933478236198425
vn 0.005946353077888489 0.998504102230072 -0.0543522983789444
vn -0.0002715415903367102 0.9999976754188538 0.0021405364386737347
vn -0.0002715415903367102 0.9999976754188538 0.0021405364386737347
vn 0.005188601091504097 0.9988377690315247 -0.047917578369379044
vn 0.005233083385974169 0.998829185962677 -0.04809214174747467
vn 0.000009944630619429518 -0.9999973773956299 0.002286485629156232
vn 0.0036440547555685043 0.9994214773178101 -0.033816542476415634
vn -0.575381338596344 0.01218523271381855 0.8177945017814636
vn 0.9290693402290344 0.3469475209712982 0.128287211060524
vn -0.5778934955596924 0.000867126218508929 0.81611168384552
vn 0.3608604073524475 0.012162759900093079 0.9325405359268188
vn 0.5523442029953003 -0.007471541408449411 -0.8335826396942139
vn 0.36369603872299194 0.0008778095943853259 0.9315172433853149
vn 0.5470529198646545 -0.016418660059571266 -0.8369370102882385
vn 0.5470529198646545 -0.016418660059571266 -0.8369370102882385
vn -0.9323364496231079 0.3474425971508026 -0.10016196966171265
vn 0.5523442029953003 -0.007471541408449411 -0.8335826396942139
vn -0.932547390460968 0.3469536602497101 -0.09989257156848907
vn 0.9289294481277466 0.34743717312812805 0.12797437608242035
vn 0.9290693402290344 0.3469475209712982 0.128287211060524
vn -0.3287370502948761 -0.016414372250437737 -0.9442788362503052
vn 0.9289294481277466 0.34743717312812805 0.12797437608242035
vn -0.33470192551612854 -0.007436690386384726 -0.942294716835022
vn -0.3287370502948761 -0.016414372250437737 -0.9442788362503052
vn -0.575381338596344 0.01218523271381855 0.8177945017814636
vn -0.33470192551612854 -0.007436690386384726 -0.942294716835022
vn -0.5778934955596924 0.000867126218508929 0.81611168384552
vn -0.932547390460968 0.3469536602497101 -0.09989257156848907
vn 0.36369603872299194 0.0008778095943853259 0.9315172433853149
vn -0.9323364496231079 0.3474425971508026 -0.10016196966171265
vn 0.3608604073524475 0.012162759900093079 0.9325405359268188
vn 0.33468976616859436 -0.007447478827089071 0.942298948764801
vn 0.5753890872001648 0.012177027761936188 -0.8177891969680786
vn 0.5778988003730774 0.0008693474228493869 -0.816107988357544
vn 0.3287327289581299 -0.016413258388638496 0.9442803859710693
vn -0.9289259314537048 0.34744584560394287 -0.12797659635543823
vn 0.3287327289581299 -0.016413258388638496 0.9442803859710693
vn 0.33468976616859436 -0.007447478827089071 0.942298948764801
vn -0.9290655255317688 0.3469570577144623 -0.12828892469406128
vn 0.5778988003730774 0.0008693474228493869 -0.816107988357544
vn -0.9290655255317688 0.3469570577144623 -0.12828892469406128
vn -0.9289259314537048 0.34744584560394287 -0.12797659635543823
vn 0.5753890872001648 0.012177027761936188 -0.8177891969680786
vn -0.3608587682247162 0.012166840955615044 -0.9325411319732666
vn -0.5523511171340942 -0.00745951384305954 0.8335781693458557
vn -0.363690048456192 0.0008996491669677198 -0.9315195679664612
vn -0.5470529198646545 -0.016418660059571266 0.8369370102882385
vn -0.5470529198646545 -0.016418660059571266 0.8369370102882385
vn 0.9323340654373169 0.34744736552238464 0.10016739368438721
vn -0.5523511171340942 -0.00745951384305954 0.8335781693458557
vn 0.9325435161590576 0.34696200489997864 0.09989991784095764
vn 0.9325435161590576 0.34696200489997864 0.09989991784095764
vn -0.363690048456192 0.0008996491669677198 -0.9315195679664612
vn 0.9323340654373169 0.34744736552238464 0.10016739368438721
vn -0.3608587682247162 0.012166840955615044 -0.9325411319732666
vn 0.9905210733413696 0 0.13736093044281006
vn 0.9905210733413696 0 0.13736093044281006
vn 0.9905210733413696 0 0.13736093044281006
vn 0.9905210733413696 0 0.13736093044281006
vn -0.9905208945274353 0 -0.1373620182275772
vn -0.9905208945274353 0 -0.1373620182275772
vn -0.9905208945274353 0 -0.1373620182275772
vn -0.9905208945274353 0 -0.1373620182275772
vn -0.992603600025177 -0.05563371255993843 -0.10790359228849411
vn -0.9926403760910034 -0.055686432868242264 -0.10753697156906128
vn -0.99260014295578 -0.055669598281383514 -0.10791590064764023
vn -0.9926804304122925 -0.05570325255393982 -0.10715801268815994
vn -0.9928257465362549 -0.055914003401994705 -0.1056913286447525
vn -0.9928297400474548 -0.05585681274533272 -0.10568413138389587
vn -0.9928257465362549 -0.055914003401994705 -0.1056913286447525
vn -0.9925327897071838 -0.05549236387014389 -0.10862444341182709
vn -0.9925059080123901 -0.05577946454286575 -0.10872304439544678
vn 0.9937311410903931 -0.023186126723885536 0.10936637222766876
vn 0.9937453269958496 -0.023230692371726036 0.10922694951295853
vn 0.9937311410903931 -0.023186126723885536 0.10936637222766876
vn 0.9937596917152405 -0.023275261744856834 0.10908755660057068
vn 0.9937596917152405 -0.023275261744856834 0.10908755660057068
vn 0.9937453269958496 -0.023230692371726036 0.10922694951295853
vn 0.9937167763710022 -0.023141557350754738 0.10950575768947601
vn 0.9937167763710022 -0.023141557350754738 0.10950575768947601
vn 0.9937024116516113 -0.02309698797762394 0.10964515060186386
vn 0.9938462972640991 -0.023074425756931305 0.10833816230297089
vn 0.9938462972640991 -0.023074425756931305 0.10833816230297089
vn 0.9938388466835022 -0.023169200867414474 0.1083860993385315
vn 0.9938388466835022 -0.023169200867414474 0.1083860993385315
vn 0.9938388466835022 -0.023169200867414474 0.1083860993385315
vn 0.9938313961029053 -0.023263975977897644 0.1084340363740921
vn 0.9937024116516113 -0.02309698797762394 0.10964515060186386
vn -0.9926770925521851 -0.0557391382753849 -0.10717033594846725
vn -0.9926737546920776 -0.05577502399682999 -0.10718265920877457
vn -0.9926387071609497 -0.055704377591609955 -0.10754313319921494
vn 0.9937024116516113 -0.02309698797762394 0.10964515060186386
vn 0.9937015175819397 -0.023092547431588173 0.10965435951948166
vn 0.9937453269958496 -0.023230692371726036 0.10922694951295853
vn 0.9938030242919922 -0.023174844682216644 0.10871285945177078
vn -0.9927499890327454 -0.05584453046321869 -0.10643702000379562
vn -0.9926704168319702 -0.05581091344356537 -0.10719498991966248
vn -0.9927070140838623 -0.05586361885070801 -0.10682834684848785
vn -0.992667019367218 -0.05584680289030075 -0.10720731317996979
vn -0.9925968050956726 -0.0557054840028286 -0.10792822390794754
vn -0.9928257465362549 -0.055914003401994705 -0.1056913286447525
vn -0.9928257465362549 -0.055914003401994705 -0.1056913286447525
vn -0.9928257465362549 -0.055914003401994705 -0.1056913286447525
vn 0.9937745928764343 -0.023085711523890495 0.10899167507886887
vn 0.9937024116516113 -0.02309698797762394 0.10964515060186386
vn -0.9925193786621094 -0.05563591420650482 -0.10867374390363693
vn -0.9925295114517212 -0.05552826076745987 -0.1086367815732956
vn -0.9925260543823242 -0.055564139038324356 -0.10864908993244171
vn -0.9925059080123901 -0.05577946454286575 -0.10872304439544678
vn -0.9925059080123901 -0.05577946454286575 -0.10872304439544678
vn -0.9925059080123901 -0.05577946454286575 -0.10872304439544678
vn -0.9925059080123901 -0.05577946454286575 -0.10872304439544678
vn -0.9925059080123901 -0.05577946454286575 -0.10872304439544678
vn -0.9927467107772827 -0.05588042363524437 -0.10644935816526413
vn 0.9937888383865356 -0.023130277171730995 0.10885228216648102
vn 0.9937993884086609 -0.02322223223745823 0.10873684287071228
vn 0.9938313961029053 -0.023263975977897644 0.1084340363740921
vn -0.9925059080123901 -0.05577946454286575 -0.10872304439544678
vn -0.9925059080123901 -0.05577946454286575 -0.10872304439544678
vn -0.9925227165222168 -0.05560002475976944 -0.10866141319274902
vn -0.9925599098205566 -0.055652763694524765 -0.10829483717679977
vn -0.9925193786621094 -0.05563591420650482 -0.10867374390363693
vn -0.9925193786621094 -0.05563591420650482 -0.10867374390363693
vn -0.9927863478660583 -0.055897220969200134 -0.10607035458087921
vn 0.0012816255912184715 0.9999257922172546 -0.012120623141527176
vn -0.0002715415903367102 0.9999976754188538 0.0021405364386737347
vn 0.0005050550098530948 0.9999874830245972 -0.004990171641111374
vn -0.0002715415903367102 0.9999976754188538 0.0021405364386737347
vn -0.0002715415903367102 0.9999976754188538 0.0021405364386737347
vn -0.0002715415903367102 0.9999976754188538 0.0021405364386737347
vn 0.0012816255912184715 0.9999257922172546 -0.012120623141527176
vn -0.0002715415903367102 0.9999976754188538 0.0021405364386737347
vn -0.0002715415903367102 0.9999976754188538 0.0021405364386737347
vn 0.000009944630619429518 -0.9999973773956299 0.002286485629156232
vn 0.000009944630619429518 -0.9999973773956299 0.002286485629156232
vn 0.000009944630619429518 -0.9999973773956299 0.002286485629156232
vn 0.000009944630619429518 -0.9999973773956299 0.002286485629156232
vn 0.000009944630619429518 -0.9999973773956299 0.002286485629156232
vn -0.0002715415903367102 0.9999976754188538 0.0021405364386737347
vn 0.00042764327372424304 -0.9999979734420776 0.001973892794921994
vn 0.0006364926230162382 -0.9999982118606567 0.0018175962613895535
vn 0.0005320679629221559 -0.9999980926513672 0.0018957445863634348
vn 0.00042764327372424304 -0.9999979734420776 0.001973892794921994
vn 0.002065489534288645 0.999809741973877 -0.019398799166083336
vn 0.002061809878796339 0.9998111724853516 -0.01932462491095066
vn 0.0012889867648482323 0.9999239444732666 -0.012268987484276295
vn 0.002834528684616089 0.9996479153633118 -0.026379287242889404
vn 0.0020581302233040333 0.9998126029968262 -0.019250450655817986
vn -0.0002715415903367102 0.9999976754188538 0.0021405364386737347
vn -0.0002715415903367102 0.9999976754188538 0.0021405364386737347
vn 0.002076523844152689 0.9998053312301636 -0.01962132193148136
vn 0.0028937431052327156 0.9996352791786194 -0.026850640773773193
vn 0.0028492375276982784 0.9996400475502014 -0.026675937697291374
vn 0.0013037058524787426 0.9999202489852905 -0.012565718032419682
vn 0.002072846284136176 0.9998068809509277 -0.019547149538993835
vn 0.0013259624829515815 0.999919056892395 -0.012653092853724957
vn 0.0020987787283957005 0.9998036623001099 -0.01970868930220604
vn 0.000512417871505022 0.9999867677688599 -0.005138545297086239
vn 0.001285306178033352 0.999924898147583 -0.012194804847240448
vn 0.002845560433343053 0.9996420741081238 -0.026601776480674744
vn 0.0028418833389878273 0.9996441006660461 -0.026527617126703262
vn 0.0036181325558573008 0.9994269609451294 -0.033655062317848206
vn 0.0036218073219060898 0.9994244575500488 -0.03372921049594879
vn 0.0036144570913165808 0.99942946434021 -0.03358091786503792
vn 0.0036107818596065044 0.9994319677352905 -0.03350677341222763
vn 0.000009944630619429518 -0.9999973773956299 0.002286485629156232
vn 0.0036663059145212173 0.9994184970855713 -0.03390387445688248
vn 0.0036440547555685043 0.9994214773178101 -0.033816542476415634
vn -0.0002715415903367102 0.9999976754188538 0.0021405364386737347
vn 0.000009944630619429518 -0.9999973773956299 0.002286485629156232
vn 0.000009944630619429518 -0.9999973773956299 0.002286485629156232
vn 0.0002187939826399088 -0.9999977946281433 0.0021301894448697567
vn 0.000527142605278641 0.9999850988388062 -0.005435291677713394
vn 0.0013000268954783678 0.9999211430549622 -0.01249153446406126
vn 0.001296347938477993 0.9999220371246338 -0.012417350895702839
vn -0.0002641783794388175 0.9999979734420776 0.0019921613857150078
vn -0.00026785998488776386 0.9999978542327881 0.0020663489121943712
vn -0.00024208864488173276 0.9999987483024597 0.0015470358775928617
vn 0.0005308219697326422 0.9999847412109375 -0.005509480368345976
vn 0.0005087364697828889 0.9999871253967285 -0.005064358934760094
vn 0.0020691680256277323 0.9998083114624023 -0.01947297528386116
vn -0.0002715415903367102 0.9999976754188538 0.0021405364386737347
vn 0.0005160988075658679 0.9999862909317017 -0.005212731659412384
vn -0.00025681513943709433 0.9999983310699463 0.001843786332756281
vn 0.0005197798018343747 0.999985933303833 -0.005286918021738529
vn -0.00024577026488259435 0.9999986886978149 0.001621223520487547
vn -0.00024945189943537116 0.9999985694885254 0.0016954110469669104
vn -0.0002604967448860407 0.999998152256012 0.0019179738592356443
vn 0.0012926673516631126 0.9999229907989502 -0.012343169189989567
vn 0.00042764327372424304 -0.9999979734420776 0.001973892794921994
vn 0.00042764327372424304 -0.9999979734420776 0.001973892794921994
vn 0.0002187939826399088 -0.9999977946281433 0.0021301894448697567
vn 0.00042764327372424304 -0.9999979734420776 0.001973892794921994
vn 0.0006364926230162382 -0.9999982118606567 0.0018175962613895535
vn 0.0002187939826399088 -0.9999977946281433 0.0021301894448697567
vn 0.000009944630619429518 -0.9999973773956299 0.002286485629156232
vn 0.0002187939826399088 -0.9999977946281433 0.0021301894448697567
vn 0.0008453418267890811 -0.9999982714653015 0.0016612992621958256
vn 0.0006364926230162382 -0.9999982118606567 0.0018175962613895535
vn 0.0002187939826399088 -0.9999977946281433 0.0021301894448697567
vn 0.000009944630619429518 -0.9999973773956299 0.002286485629156232
vn -0.000253133533988148 0.9999984502792358 0.0017695986898615956
vn 0.0005234612035565078 0.9999855756759644 -0.005361105315387249
vn 0.002838206011801958 0.999646008014679 -0.026453452184796333
vn 0.000009944630619429518 -0.9999973773956299 0.002286485629156232
vn 0.000009944630619429518 -0.9999973773956299 0.002286485629156232
vn 0.0001143693079939112 -0.999997615814209 0.002208337653428316
vn -0.10979649424552917 0.07084213197231293 0.9914263486862183
vn -0.10979649424552917 0.07084213197231293 0.991426408290863
vn -0.10979649424552917 0.07084213197231293 0.9914263486862183
vn -0.9925227165222168 -0.05560002475976944 -0.10866141319274902
vn -0.9925599098205566 -0.055652763694524765 -0.10829483717679977
vn -0.9925193786621094 -0.05563591420650482 -0.10867374390363693
vn -0.9925968050956726 -0.0557054840028286 -0.10792822390794754
vn -0.9925059080123901 -0.05577946454286575 -0.10872304439544678
vn -0.9925059080123901 -0.05577946454286575 -0.10872304439544678
vn -0.9925059080123901 -0.05577946454286575 -0.10872304439544678
vn -0.9925059080123901 -0.05577946454286575 -0.10872304439544678
vn -0.9925059080123901 -0.05577946454286575 -0.10872304439544678
vn -0.9925093650817871 -0.05574358254671097 -0.10871073603630066
vn -0.9925867319107056 -0.055813148617744446 -0.10796520113945007
vn -0.9925059080123901 -0.05577946454286575 -0.10872304439544678
vn -0.10979648679494858 0.07084213197231293 0.9914263486862183
vn -0.10979648679494858 0.07084213197231293 0.9914263486862183
vn -0.9925126433372498 -0.05570768937468529 -0.10869839787483215
vn -0.11009091883897781 0.07005759328603745 0.9914494752883911
vn -0.10979648679494858 0.07084213197231293 0.9914263486862183
vn -0.10994371771812439 0.07044986635446548 0.9914380311965942
vn -0.992516040802002 -0.055671803653240204 -0.10868607461452484
vn -0.992590069770813 -0.055777259171009064 -0.10795287787914276
vn -0.10979647934436798 0.07084213197231293 0.9914263486862183
vn -0.11009091883897781 0.07005759328603745 0.9914494156837463
vn -0.10994371771812439 0.07044986635446548 0.9914380311965942
vn -0.10979648679494858 0.07084213197231293 0.9914263486862183
vn -0.10979649424552917 0.07084213197231293 0.9914263486862183
vn -0.11009091883897781 0.07005759328603745 0.9914494156837463
vn -0.9925059080123901 -0.05577946454286575 -0.10872304439544678
vn -0.9925059080123901 -0.05577946454286575 -0.10872304439544678
vn -0.9925059080123901 -0.05577946454286575 -0.10872304439544678
vn -0.10994371771812439 0.07044986635446548 0.9914379715919495
vn -0.11023811250925064 0.06966531276702881 0.9914608001708984
vn -0.11009091883897781 0.07005759328603745 0.9914494752883911
vn -0.9925059080123901 -0.05577946454286575 -0.10872304439544678
vn -0.9925059080123901 -0.05577946454286575 -0.10872304439544678
vn -0.9925059080123901 -0.05577946454286575 -0.10872304439544678
vn -0.9925059080123901 -0.05577946454286575 -0.10872304439544678
vn -0.9925059080123901 -0.05577946454286575 -0.10872304439544678
vn -0.10979649424552917 0.07084213197231293 0.9914263486862183
vn -0.10979647934436798 0.07084213197231293 0.9914263486862183
vn -0.10979647934436798 0.07084213197231293 0.9914263486862183
vn -0.10979649424552917 0.07084213197231293 0.991426408290863
vn -0.10994371771812439 0.07044986635446548 0.9914380311965942
vn -0.11009091883897781 0.07005759328603745 0.9914494752883911
vn -0.10979649424552917 0.07084213197231293 0.991426408290863
vn -0.10979648679494858 0.07084213197231293 0.9914263486862183
vn -0.10979647934436798 0.07084213197231293 0.9914263486862183
vn -0.10979649424552917 0.07084213197231293 0.9914263486862183
vn 0.9937739372253418 -0.023319829255342484 0.10894814878702164
vn 0.9937739372253418 -0.023319829255342484 0.10894814878702164
vn 0.9937596917152405 -0.023275261744856834 0.10908755660057068
vn -0.11038527637720108 0.06927301734685898 0.9914718270301819
vn -0.11023811250925064 0.06966531276702881 0.9914607405662537
vn -0.992667019367218 -0.05584680289030075 -0.10720731317996979
vn -0.9926270246505737 -0.055829983204603195 -0.10758627206087112
vn -0.10979649424552917 0.07084213197231293 0.9914263486862183
vn -0.10979647934436798 0.07084212452173233 0.9914262890815735
vn 0.9937881231307983 -0.023364394903182983 0.1088087409734726
vn -0.10979647934436798 0.07084213197231293 0.9914263486862183
vn -0.10979647934436798 0.07084212452173233 0.9914262890815735
vn -0.9926704168319702 -0.05581091344356537 -0.10719498991966248
vn 0.9938023090362549 -0.023408960551023483 0.10866932570934296
vn 0.9938164949417114 -0.023453526198863983 0.10852991789579391
vn 0.9938023090362549 -0.023408960551023483 0.10866932570934296
vn -0.9925059080123901 -0.05577946454286575 -0.10872304439544678
vn -0.9925059080123901 -0.05577946454286575 -0.10872304439544678
vn 0.9938239455223083 -0.023358751088380814 0.10848197340965271
vn 0.9938239455223083 -0.023358751088380814 0.10848197340965271
vn 0.9938164949417114 -0.023453526198863983 0.10852991789579391
vn 0.9938313961029053 -0.023263975977897644 0.1084340363740921
vn 0.9937739372253418 -0.023319829255342484 0.10894814878702164
vn 0.9937881231307983 -0.023364394903182983 0.1088087409734726
vn 0.9938023090362549 -0.023408960551023483 0.10866932570934296
vn 0.9938023090362549 -0.023408960551023483 0.10866932570934296
vn 0.9937881231307983 -0.023364394903182983 0.1088087409734726
vn -0.10979647934436798 0.07084213197231293 0.9914263486862183
vn -0.10979647934436798 0.07084212452173233 0.9914262890815735
vn 0.9938164949417114 -0.023453526198863983 0.10852991789579391
vn 0.9938023090362549 -0.023408960551023483 0.10866932570934296
vn -0.10979649424552917 0.07084213197231293 0.9914263486862183
vn -0.10979649424552917 0.07084213197231293 0.9914263486862183
vn -0.9925059080123901 -0.05577946454286575 -0.10872304439544678
vn 0.9937596917152405 -0.023275261744856834 0.10908755660057068
vn 0.9937993884086609 -0.02322223223745823 0.10873684287071228
vn 0.9938313961029053 -0.023263975977897644 0.1084340363740921
vn 0.9937739372253418 -0.023319829255342484 0.10894814878702164
vt 0.15182070434093475 0.14576822519302368
vt 0.2711668014526367 0.024440526962280273
vt 0.15094520151615143 0.02506202459335327
vt 0.39755702018737793 0.8685789704322815
vt 0.3984425365924835 0.9892393052577972
vt 0.5186541080474854 0.9886636734008789
vt 0.2782309651374817 0.9898149371147156
vt 0.15713386237621307 0.8697302341461182
vt 0.15801937878131866 0.9903905689716339
vt 0.03780779242515564 0.9909662008285522
vt 3.8901524543762207 1.9675415754318237
vt 3.590043306350708 2.1062029600143433
vt 3.583280324935913 2.0178463459014893
vt 3.2764081954956055 2.0681512355804443
vt 3.5765175819396973 1.9294898509979248
vt 2.962773084640503 2.030099391937256
vt 2.969536066055298 2.11845600605011
vt 3.2831711769104004 2.156507730484009
vt 2.6626639366149902 2.1687607765197754
vt 0.8816425204277039 0.5
vt 0.7632850408554077 1
vt 0.7632850408554077 0.5
vt 0.7632850408554077 0
vt 1 0
vt 1 0.5
vt 0.7632850408554077 1
vt 1 1
vt 1 0
vt 1 0.5
vt 0.8816425204277039 0.5
vt 1 1
vt 0.7632850408554077 0.5
vt 0.7632850408554077 0
vt 3.8263120651245117 1.3258520364761353
vt 3.8082170486450195 1.0867272019386292
vt 3.874696731567383 1.0841819643974304
vt 3.7901220321655273 0.847602367401123
vt 0.7632850408554077 1
vt 0.7632850408554077 0.5
vt 0.7632850408554077 0
vt 0.7632850408554077 0
vt 0.7632850408554077 0.5
vt 1 1
vt 0.7632850408554077 1
vt 1 0
vt 1 0.5
vt 1 1
vt 1 0.5
vt 1 0
vt 3.8514695167541504 1.5583402514457703
vt 3.9179491996765137 1.5557950139045715
vt 3.87662672996521 1.7908284664154053
vt 4.0214080810546875 1.3202147483825684
vt 4.013875961303711 1.5517991781234741
vt 3.9490175247192383 1.5555216073989868
vt 4.006343841552734 1.7833836078643799
vt 4.042898178100586 1.5682907700538635
vt 3.9154512882232666 0.8451505899429321
vt 3.937361478805542 1.082956075668335
vt 3.9592716693878174 1.3207615613937378
vt 0.39578598737716675 0.62725830078125
vt 0.2764599323272705 0.7484942674636841
vt 0.39667150378227234 0.7479186356067657
vt 0.5168830752372742 0.7473430037498474
vt 1 1
vt 0.7632850408554077 1
vt 0.8816425204277039 0.5
vt 0.7632850408554077 0
vt 1 0
vt 0.8816425204277039 0.5
vt 1 1
vt 0.7632850408554077 1
vt 0.7632850408554077 0
vt 1 0
vt 3.9550111293792725 1.963819146156311
vt 4.028327941894531 2.1417932510375977
vt 3.9036784172058105 2.144254684448242
vt 0.1553628146648407 0.6284095644950867
vt 0.1562483310699463 0.7490698993206024
vt 3.9684295654296875 1.0826826691627502
vt 3.9801456928253174 0.8438850045204163
vt 0.036036744713783264 0.7496455311775208
vt 4.064387798309326 1.8163667917251587
vt 4.046358108520508 1.9790800213813782
vt 4.092468738555908 2.14052677154541
vt 0.3940149247646332 0.3859376311302185
vt 0.39313939213752747 0.2652314305305481
vt 0.27291780710220337 0.2658529281616211
vt 0.5133609771728516 0.2646099328994751
vt 0.39226388931274414 0.14452528953552246
vt 0.3913883864879608 0.02381908893585205
vt 0.5116099715232849 0.023197591304779053
vt 0.03426569700241089 0.5083248615264893
vt 0.27468886971473694 0.5071735978126526
vt 0.03249464929103851 0.26700419187545776
vt 0.15359175205230713 0.3870888948440552
vt 0.515112042427063 0.5060223340988159
vt 0.030723601579666138 0.02568352222442627
vt 2.8985342979431152 1.3268091678619385
vt 3.2251462936401367 1.542705774307251
vt 2.9115490913391113 1.4889708757400513
vt 3.1991171836853027 1.2183823138475418
vt 3.525729179382324 1.4342789053916931
vt 3.2121317386627197 1.3805440664291382
vt 2.5538275241851807 0.8717877566814423
vt 3.1719746589660645 0.8596950620412827
vt 2.867424964904785 0.925522617995739
vt 3.1810221672058105 0.9792574793100357
vt 2.8855199813842773 1.1646474599838257
vt 3.494619607925415 1.032992348074913
vt 3.5127146244049072 1.272117167711258
vt 3.2503037452697754 1.7751939296722412
vt 2.924563407897949 1.651132583618164
vt 2.623980760574341 1.759559452533722
vt 3.550886631011963 1.6667671203613281
vt 2.9434313774108887 1.8254987597465515
vt 3.2628822326660156 1.891438066959381
vt 0.7632850408554077 0.5
vt 1 0
vt 1 0.5
vt 0.7632850408554077 1
vt 1 1
vt 1 0.5
vt 0.7632850408554077 0.5
vt 0.7632850408554077 0
vt 0.7632850408554077 0.5
vt 0.7632850408554077 0
vt 0.7632850408554077 0.5
vt 1 1
vt 0.7632850408554077 1
vt 1 0.5
vt 1 0.5
vt 1 0
vt 4.017335891723633 1.9625884294509888
vt 2.956010103225708 1.9417428970336914
vt 3.5697546005249023 1.8411332368850708
vt 3.503667116165161 1.1525547504425049
vt 3.485572099685669 0.9134299233555794
vt 0.15270623564720154 0.2664285898208618
vt 2.8764724731445312 1.045085035264492
vt 0.8792270421981812 0.8091787695884705
vt 0.804347813129425 0.8091787695884705
vt 0.8792270421981812 0.3743962049484253
vt 0.804347813129425 0.8091787695884705
vt 0.8792270421981812 0.3743962049484253
vt 0.804347813129425 0.3743962049484253
vt 0.8792270421981812 0.8091787695884705
vt 0.804347813129425 0.8091787695884705
vt 0.8792270421981812 0.3743962049484253
vt 0.804347813129425 0.3743962049484253
vt 0.8792270421981812 0.8091787695884705
vt 0.804347813129425 0.3743962049484253
vt 0.8792270421981812 0.8091787695884705
vt 0.804347813129425 0.8091787695884705
vt 0.8792270421981812 0.3743962049484253
vt 0.804347813129425 0.3743962049484253
vt 0.8792270421981812 0.8091787695884705
vt 0.804347813129425 0.8091787695884705
vt 0.8792270421981812 0.3743962049484253
vt 0.804347813129425 0.3743962049484253
vt 0.804347813129425 0.8091787695884705
vt 0.8792270421981812 0.3743962049484253
vt 0.804347813129425 0.3743962049484253
vt 0.8792270421981812 0.8091787695884705
vt 0.8792270421981812 0.3743962049484253
vt 0.804347813129425 0.8091787695884705
vt 0.804347813129425 0.3743962049484253
vt 0.8792270421981812 0.8091787695884705
vt 0.8792270421981812 0.3743962049484253
vt 0.804347813129425 0.8091787695884705
vt 0.804347813129425 0.3743962049484253
vt 0.8792270421981812 0.8091787695884705
vt 0.8792270421981812 0.3743962049484253
vt 0.804347813129425 0.8091787695884705
vt 0.804347813129425 0.3743962049484253
vt 0.8792270421981812 0.8091787695884705
vt 0.804347813129425 0.8091787695884705
vt 0.8792270421981812 0.3743962049484253
vt 0.804347813129425 0.3743962049484253
vt 0.8792270421981812 0.8091787695884705
vt 0.804347813129425 0.8091787695884705
vt 0.8792270421981812 0.3743962049484253
vt 0.804347813129425 0.3743962049484253
vt 0.8792270421981812 0.8091787695884705
vt 0.804347813129425 0.8091787695884705
vt 0.8792270421981812 0.3743962049484253
vt 0.804347813129425 0.3743962049484253
vt 0.8792270421981812 0.8091787695884705
vt 0.7415459156036377 0.5048309564590454
vt 0.7415459156036377 0.7463768124580383
vt 0.5069186687469482 0.7463768124580383
vt 0.506918728351593 0.5048308968544006
vt 0.5069186687469482 0.7463768124580383
vt 0.506918728351593 0.5048308968544006
vt 0.7415459156036377 0.5048309564590454
vt 0.7415459156036377 0.7463768124580383
vt 0.3300813138484955 0.4713013768196106
vt 0.3140650689601898 0.5770411193370819
vt 0.5640650987625122 0.5770411193370819
vt 0.06406507641077042 0.5770411193370819
vt 0.03243962675333023 0.1518266201019287
vt 0.048030637204647064 0
vt 0 0
vt 0.12813015282154083 0.15408223867416382
vt 0.141372412443161 0
vt 0.5 0.75
vt 0.75 0.875
vt 0.5 1
vt 1 0.5
vt 1 1
vt 0.75 1
vt 0.25 0.875
vt 0.25 1
vt 0 1
vt 0.13228529691696167 0.17011678218841553
vt 0.14273476600646973 0
vt 0.5992139577865601 0.12758755683898926
vt 0.6044387221336365 0.04252922534942627
vt 0.6070510745048523 0
vt 1.0713673830032349 0
vt 0.042320553213357925 0.15010416507720947
vt 0.29804879426956177 0.6827808320522308
vt 0.5320325493812561 0.788520559668541
vt 0.4310569763183594 0.6299109756946564
vt 0 0
vt 0.04859471693634987 0
vt 0.75 0.625
vt 0.5661426782608032 0.33505839109420776
vt 0.26601627469062805 0.8942602798342705
vt 0.7660162448883057 0.8942602798342705
vt 0.75 1
vt 1 1
vt 0.7980488538742065 0.6827808320522308
vt 0.016219813376665115 0.5759133100509644
vt 0 1
vt 0 0.5
vt 0.06614264845848083 0.5850583910942078
vt 0.021160276606678963 0.5750520825386047
vt 0.5994081497192383 0.3270411491394043
vt 0.3621138632297516 0.25982195138931274
vt 0.5960975885391235 0.36556166410446167
vt 0.8383578062057495 0.375
vt 0.8383578062057495 0.125
vt 0.6060293316841125 0.25
vt 0.6060293316841125 0
vt 1.0706862211227417 0
vt 0.5 1
vt 0.31614264845848083 0.46005839109420776
vt 0.79960697889328 0.31379377841949463
vt 1.0661426782608032 0.08505839109420776
vt 0.3737008571624756 0.125
vt 1.0706862211227417 0.5
vt 0.8300813436508179 0.4713013768196106
vt 0.8140650987625122 0.5770411193370819
vt 0.48324400186538696 0.2645411491394043
vt 0.3670797348022461 0.2020411491394043
vt 0.25 1
vt 2.022815227508545 1.9764131307601929
vt 2.035393714904785 2.0926573276519775
vt 1.7222323417663574 2.0848400592803955
vt 2.956010103225708 1.9417428970336914
vt 2.962773084640503 2.030099391937256
vt 2.6491379737854004 1.992047667503357
vt 2.9434313774108887 1.8254987597465515
vt 2.3490288257598877 2.1307090520858765
vt 2.3422658443450928 2.0423524379730225
vt 0.5168830752372742 0.7473430037498474
vt 0.5186541080474854 0.9886636734008789
vt 0.6379802227020264 0.8674277067184448
vt 0.7573062777519226 0.7461917400360107
vt 0.7590773105621338 0.9875124096870422
vt 2.6626639366149902 2.1687607765197754
vt 0.6327071189880371 0.14328229427337646
vt 0.7520531415939331 0.021954655647277832
vt 0.6318315267562866 0.022576093673706055
vt 0.5116099715232849 0.023197591304779053
vt 2.2973687648773193 1.5436629056930542
vt 2.3103833198547363 1.705824613571167
vt 1.9967859983444214 1.6520897150039673
vt 2.623980760574341 1.759559452533722
vt 2.3233981132507324 1.8679863214492798
vt 1.7285215854644775 2.142962098121643
vt 1.42164945602417 2.1932668685913086
vt 2.2583250999450684 1.0571777299046516
vt 2.5538275241851807 0.8717877566814423
vt 2.571922540664673 1.1109125912189484
vt 1.9447277784347534 1.003442868590355
vt 2.2713396549224854 1.219339445233345
vt 1.9356802701950073 0.8838804513216019
vt 2.2492775917053223 0.9376153126358986
vt 1.6962032318115234 1.7605165839195251
vt 2.009800672531128 1.81425142288208
vt 2.58493709564209 1.2730742990970612
vt 2.597951650619507 1.435236006975174
vt 2.8985342979431152 1.3268091678619385
vt 2.8855199813842773 1.1646474599838257
vt 2.9115490913391113 1.4889708757400513
vt 2.924563407897949 1.651132583618164
vt 0.6388657093048096 0.9880880415439606
vt 2.867424964904785 0.925522617995739
vt 2.8764724731445312 1.045085035264492
vt 2.04215669631958 2.181013822555542
vt 0.8784034252166748 0.8662764430046082
vt 0.9995005130767822 0.9863611459732056
vt 0.9977494478225708 0.7449487745761871
vt 1.6441450119018555 1.1118697226047516
vt 1.9577423334121704 1.165604591369629
vt 1.9707568883895874 1.3277662992477417
vt 1.395620346069336 1.868943452835083
vt 1.408634901046753 2.031105160713196
vt 1.317533016204834 0.8959731459617615
vt 1.6311304569244385 0.9497080072760582
vt 1.7092177867889404 1.922678291797638
vt 2.2843542098999023 1.3815011382102966
vt 2.969536066055298 2.11845600605011
vt 1.6831886768341064 1.5983548760414124
vt 1.369591236114502 1.5446200370788574
vt 1.6701741218566895 1.4361931681632996
vt 1.330547571182251 1.0581348687410355
vt 1.343562126159668 1.2202965915203094
vt 1.382605791091919 1.7067817449569702
vt 1.9837714433670044 1.4899280071258545
vt 0.9959984421730042 0.5035364031791687
vt 0.874901294708252 0.3834517002105713
vt 0.755555272102356 0.5047793686389923
vt 0.7538042068481445 0.2633669972419739
vt 0.9942474365234375 0.26212406158447266
vt 0.6344581246376038 0.3846946954727173
vt 0.515112042427063 0.5060223340988159
vt 0.5133609771728516 0.2646099328994751
vt 0.9924963712692261 0.020711660385131836
vt 0.8731502890586853 0.14203929901123047
vt 0.8766523599624634 0.6248640716075897
vt 0.6362091302871704 0.6261070370674133
vt 1.356576681137085 1.3824583292007446
vt 1.6571595668792725 1.2740314602851868
vt 2.610966205596924 1.5973977446556091
vt 0.6370946764945984 0.7467673718929291
vt 0.879288911819458 0.9869367778301239
vt 0.8775278329849243 0.7455702424049377
vt 1.25 0.1253751516342163
vt 1 0.0005000829696655273
vt 1.25 0.3751252293586731
vt 0.8300813436508179 0.4713013768196106
vt 0.8140650987625122 0.5770411193370819
vt 1.0640650987625122 0.5770411193370819
vt 0.7980488538742065 0.6827808320522308
vt 1.7676715850830078 0.875
vt 1.7676715850830078 0.625
vt 1.5353431701660156 0.75
vt 1.7676715850830078 0.375
vt 2 0.5
vt 1.7660162448883057 0.8942602798342705
vt 1.5 1
vt 2 1
vt 1.5 0.0005000829696655273
vt 1.5 0.2502501606941223
vt 1.5320324897766113 0.788520559668541
vt 0.25 0.6248752474784851
vt 0.5 0.2502501606941223
vt 0.25 0.3751251697540283
vt 1.298048734664917 0.6827808320522308
vt 1.2660162448883057 0.8942602798342705
vt 0.25 0.1253751516342163
vt 0 0.5000002086162567
vt 1.25 0.8746253848075867
vt 1.5 0.7497503757476807
vt 1.25 0.6248753070831299
vt 1 0.9995003938674927
vt 1.5353431701660156 0.25
vt 1.3030147552490234 0.625
vt 1.0706862211227417 0.5
vt 1.5 0.9995004236698151
vt 0.25 0.8746253252029419
vt 0.5 0.7497503161430359
vt 1.3030147552490234 0.375
vt 1.3030147552490234 0.125
vt 0.8383578062057495 0.375
vt 1.0706862211227417 0
vt 0.8383578062057495 0.125
vt 1.75 0.3751252293586731
vt 1.75 0.6248753070831299
vt 1.75 0.1253751516342163
vt 2 0.5000002682209015
vt 0.75 0.6248753070831299
vt 0.75 0.8746253550052643
vt 1 0.5000002682209015
vt 0.5 0.0005000829696655273
vt 0.25 0.0005000829696655273
vt 1.25 0.0005000829696655273
vt 1.25 0.875
vt 1.25 1
vt 1 1
vt 0 0.9995003342628479
vt 0.5 0.9995003640651703
vt 1 1
vt 1.25 1
vt 0.75 0.3751252293586731
vt 0 0.0005000829696655273
vt 1.5 1
vt 1.75 0.8746254146099091
vt 2 0.9995004534721375
vt 0.7660162448883057 0.8942602798342705
vt 1.75 0.875
vt 2 1
vt 1.75 1
vt 1.5353431701660156 0
vt 2 0
vt 1.5330712795257568 0.04252922534942627
vt 1.5356836318969727 0
vt 2 0
vt 1.0713673830032349 0
vt 1.25 0.625
vt 1.5 0.75
vt 1.75 0.125
vt 1.75 0.375
vt 1.5 0.25
vt 1.75 0.0005000829696655273
vt 2 0.0005000829696655273
vt 2 0.5
vt 1.75 0.625
vt 0.75 0.0005000829696655273
vt 0.75 0.1253751516342163
vt 1.7676715850830078 0.125
vt 1 0.5
vt 0.79960697889328 0.31379377841949463
vt 1.0661426782608032 0.08505839109420776
vt 1.25 0.375
g condoInt090
s 1
f 1/1/1 2/2/2 3/3/3
f 4/4/4 5/5/5 6/6/6
f 4/4/4 7/7/7 5/5/5
f 8/8/8 9/9/9 7/7/7
f 8/8/8 10/10/10 9/9/9
f 11/11/11 12/12/12 13/13/13
f 13/13/13 12/12/12 14/14/14
f 15/15/15 13/13/13 14/14/14
f 15/15/15 11/11/11 13/13/13
f 16/16/16 14/14/14 17/17/17
f 14/14/14 18/18/18 17/17/17
f 17/17/17 18/18/18 19/19/19
f 20/20/20 21/21/21 22/22/22
f 20/20/20 22/22/22 23/23/23
f 24/24/24 25/25/25 26/26/26
f 25/25/25 27/27/27 26/26/26
f 28/28/28 29/29/29 30/30/30
f 29/29/29 31/31/31 30/30/30
f 26/26/26 32/32/32 24/24/24
f 32/32/32 33/33/33 24/24/24
f 34/34/34 35/35/35 36/36/36
f 35/35/35 37/37/37 36/36/36
f 38/38/38 39/39/39 30/30/30
f 39/39/39 40/40/40 30/30/30
f 41/41/41 42/42/42 43/43/43
f 42/42/42 44/44/44 43/43/43
f 20/20/20 45/45/45 46/46/46
f 20/20/20 46/46/46 47/47/47
f 43/43/43 48/48/48 41/41/41
f 48/48/48 49/49/49 41/41/41
f 50/50/50 51/51/51 52/52/52
f 34/34/34 51/51/51 50/50/50
f 53/53/53 54/54/54 55/55/55
f 54/54/54 56/56/56 55/55/55
f 54/54/54 57/57/57 56/56/56
f 53/53/53 57/57/57 54/54/54
f 58/58/58 59/59/59 36/36/36
f 59/59/59 60/60/60 36/36/36
f 61/61/61 62/62/62 63/63/63
f 63/63/63 62/62/62 4/4/4
f 64/64/64 63/63/63 4/4/4
f 65/65/65 66/66/66 67/67/67
f 68/68/68 69/69/69 67/67/67
f 70/70/70 71/71/71 72/72/72
f 70/70/70 73/73/73 74/74/74
f 52/52/52 56/56/56 75/75/75
f 75/75/75 76/76/76 77/77/77
f 78/78/78 79/79/79 62/62/62
f 53/53/53 80/80/80 81/81/81
f 80/80/80 58/58/58 81/81/81
f 78/78/78 82/82/82 79/79/79
f 53/53/53 60/60/60 80/80/80
f 82/82/82 8/8/8 79/79/79
f 57/57/57 83/83/83 56/56/56
f 84/84/84 85/85/85 76/76/76
f 83/83/83 85/85/85 84/84/84
f 56/56/56 83/83/83 84/84/84
f 79/79/79 8/8/8 62/62/62
f 86/86/86 87/87/87 88/88/88
f 86/86/86 89/89/89 87/87/87
f 89/89/89 90/90/90 87/87/87
f 87/87/87 90/90/90 88/88/88
f 90/90/90 91/91/91 2/2/2
f 90/90/90 92/92/92 91/91/91
f 93/93/93 82/82/82 78/78/78
f 78/78/78 62/62/62 94/94/94
f 93/93/93 78/78/78 94/94/94
f 95/95/95 93/93/93 96/96/96
f 96/96/96 93/93/93 94/94/94
f 88/88/88 96/96/96 94/94/94
f 94/94/94 61/61/61 97/97/97
f 94/94/94 62/62/62 61/61/61
f 97/97/97 61/61/61 64/64/64
f 88/88/88 94/94/94 86/86/86
f 86/86/86 94/94/94 97/97/97
f 97/97/97 89/89/89 86/86/86
f 1/1/1 3/3/3 98/98/98
f 99/99/99 100/100/100 101/101/101
f 102/102/102 103/103/103 104/104/104
f 104/104/104 103/103/103 100/100/100
f 99/99/99 104/104/104 100/100/100
f 99/99/99 102/102/102 104/104/104
f 103/103/103 50/50/50 100/100/100
f 34/34/34 50/50/50 103/103/103
f 105/105/105 106/106/106 107/107/107
f 107/107/107 106/106/106 108/108/108
f 109/109/109 102/102/102 99/99/99
f 109/109/109 108/108/108 102/102/102
f 110/110/110 37/37/37 35/35/35
f 108/108/108 110/110/110 102/102/102
f 111/111/111 35/35/35 34/34/34
f 102/102/102 111/111/111 103/103/103
f 111/111/111 34/34/34 103/103/103
f 100/100/100 112/112/112 113/113/113
f 113/113/113 112/112/112 114/114/114
f 82/82/82 10/10/10 8/8/8
f 62/62/62 8/8/8 7/7/7
f 50/50/50 52/52/52 115/115/115
f 50/50/50 115/115/115 100/100/100
f 100/100/100 115/115/115 112/112/112
f 115/115/115 52/52/52 112/112/112
f 64/64/64 4/4/4 6/6/6
f 116/116/116 112/112/112 117/117/117
f 114/114/114 112/112/112 116/116/116
f 62/62/62 7/7/7 4/4/4
f 89/89/89 92/92/92 90/90/90
f 88/88/88 90/90/90 2/2/2
f 98/98/98 95/95/95 1/1/1
f 88/88/88 2/2/2 1/1/1
f 12/12/12 77/77/77 18/18/18
f 14/14/14 12/12/12 18/18/18
f 11/11/11 77/77/77 12/12/12
f 52/52/52 11/11/11 15/15/15
f 15/15/15 14/14/14 117/117/117
f 117/117/117 14/14/14 16/16/16
f 80/80/80 60/60/60 59/59/59
f 80/80/80 59/59/59 58/58/58
f 67/67/67 66/66/66 118/118/118
f 67/67/67 118/118/118 68/68/68
f 119/119/119 120/120/120 121/121/121
f 120/120/120 122/122/122 121/121/121
f 74/74/74 123/123/123 70/70/70
f 123/123/123 71/71/71 70/70/70
f 121/121/121 124/124/124 119/119/119
f 124/124/124 125/125/125 119/119/119
f 72/72/72 126/126/126 70/70/70
f 126/126/126 73/73/73 70/70/70
f 127/127/127 128/128/128 129/129/129
f 128/128/128 130/130/130 129/129/129
f 67/67/67 69/69/69 131/131/131
f 67/67/67 131/131/131 65/65/65
f 129/129/129 132/132/132 127/127/127
f 132/132/132 133/133/133 127/127/127
f 11/11/11 75/75/75 77/77/77
f 52/52/52 75/75/75 11/11/11
f 56/56/56 134/134/134 75/75/75
f 134/134/134 76/76/76 75/75/75
f 134/134/134 84/84/84 76/76/76
f 56/56/56 84/84/84 134/134/134
f 117/117/117 16/16/16 135/135/135
f 116/116/116 117/117/117 135/135/135
f 52/52/52 15/15/15 136/136/136
f 136/136/136 15/15/15 117/117/117
f 112/112/112 136/136/136 117/117/117
f 112/112/112 52/52/52 136/136/136
f 102/102/102 110/110/110 137/137/137
f 137/137/137 110/110/110 35/35/35
f 137/137/137 35/35/35 111/111/111
f 102/102/102 137/137/137 111/111/111
f 106/106/106 138/138/138 108/108/108
f 106/106/106 37/37/37 138/138/138
f 138/138/138 37/37/37 110/110/110
f 108/108/108 138/138/138 110/110/110
f 101/101/101 100/100/100 113/113/113
f 47/47/47 21/21/21 20/20/20
f 23/23/23 45/45/45 20/20/20
f 30/30/30 31/31/31 38/38/38
f 95/95/95 96/96/96 139/139/139
f 30/30/30 40/40/40 28/28/28
f 139/139/139 96/96/96 88/88/88
f 1/1/1 139/139/139 88/88/88
f 34/34/34 36/36/36 60/60/60
f 1/1/1 95/95/95 139/139/139
f 58/58/58 36/36/36 37/37/37
f 34/34/34 60/60/60 51/51/51
f 60/60/60 53/53/53 51/51/51
f 55/55/55 56/56/56 52/52/52
f 51/51/51 53/53/53 55/55/55
f 51/51/51 55/55/55 52/52/52
f 107/107/107 108/108/108 140/140/140
f 140/140/140 108/108/108 109/109/109
f 61/61/61 63/63/63 64/64/64
g condoInt091
s 1
f 141/141/141 142/142/142 143/143/143
f 144/144/144 145/145/145 146/146/146
f 144/144/144 147/147/147 145/145/145
f 148/148/148 149/149/149 150/150/150
f 148/148/148 151/151/151 149/149/149
f 143/143/143 142/142/142 152/152/152
f 153/153/153 154/154/154 155/155/155
f 155/155/155 154/154/154 156/156/156
f 157/157/157 158/158/158 159/159/159
f 159/159/159 158/158/158 160/160/160
f 161/161/161 162/162/162 163/163/163
f 161/161/161 164/164/164 162/162/162
f 165/165/165 166/166/166 167/167/167
f 168/168/168 166/166/166 165/165/165
f 169/169/169 170/170/170 171/171/171
f 172/172/172 170/170/170 169/169/169
f 173/173/173 174/174/174 175/175/175
f 176/176/176 174/174/174 173/173/173
f 177/177/177 178/178/178 179/179/179
f 177/177/177 180/180/180 178/178/178
f 181/181/181 182/182/182 183/183/183
f 181/181/181 184/184/184 182/182/182
f 185/185/185 186/186/186 187/187/187
f 185/185/185 188/188/188 186/186/186
g condoInt092
s 1
f 189/189/189 190/190/190 191/191/191
f 191/191/191 192/192/192 189/189/189
f 193/193/193 194/194/194 195/195/195
f 195/195/195 196/196/196 193/193/193
g condoInt093
s 1
f 197/197/197 198/198/198 199/199/199
f 197/197/197 200/200/200 198/198/198
f 201/201/201 202/202/202 203/203/203
f 204/204/204 205/205/205 202/202/202
f 206/206/206 207/207/207 208/208/208
f 209/209/209 210/210/210 207/207/207
f 207/207/207 211/211/211 208/208/208
f 207/207/207 210/210/210 211/211/211
f 212/212/212 213/213/213 214/214/214
f 212/212/212 208/208/208 213/213/213
f 215/215/215 216/216/216 217/217/217
f 218/218/218 216/216/216 219/219/219
f 218/218/218 219/219/219 220/220/220
f 215/215/215 221/221/221 216/216/216
f 222/222/222 223/223/223 224/224/224
f 200/200/200 222/222/222 224/224/224
f 221/221/221 225/225/225 226/226/226
f 227/227/227 228/228/228 209/209/209
f 228/228/228 215/215/215 217/217/217
f 206/206/206 228/228/228 227/227/227
f 227/227/227 207/207/207 206/206/206
f 209/209/209 207/207/207 227/227/227
f 200/200/200 229/229/229 222/222/222
f 222/222/222 229/229/229 223/223/223
f 201/201/201 200/200/200 204/204/204
f 221/221/221 226/226/226 216/216/216
f 230/230/230 231/231/231 232/232/232
f 224/224/224 233/233/233 199/199/199
f 224/224/224 223/223/223 233/233/233
f 201/201/201 234/234/234 200/200/200
f 234/234/234 235/235/235 200/200/200
f 236/236/236 235/235/235 234/234/234
f 236/236/236 234/234/234 201/201/201
f 237/237/237 238/238/238 215/215/215
f 214/214/214 238/238/238 237/237/237
f 239/239/239 240/240/240 241/241/241
f 239/239/239 204/204/204 240/240/240
f 242/242/242 243/243/243 244/244/244
f 244/244/244 243/243/243 245/245/245
f 243/243/243 246/246/246 245/245/245
f 203/203/203 236/236/236 201/201/201
f 238/238/238 221/221/221 215/215/215
f 233/233/233 223/223/223 230/230/230
f 204/204/204 197/197/197 240/240/240
f 240/240/240 197/197/197 241/241/241
f 223/223/223 247/247/247 230/230/230
f 238/238/238 225/225/225 221/221/221
f 214/214/214 225/225/225 238/238/238
f 230/230/230 247/247/247 231/231/231
f 248/248/248 215/215/215 228/228/228
f 206/206/206 248/248/248 228/228/228
f 237/237/237 248/248/248 206/206/206
f 237/237/237 215/215/215 248/248/248
f 209/209/209 228/228/228 249/249/249
f 249/249/249 228/228/228 217/217/217
f 249/249/249 217/217/217 250/250/250
f 250/250/250 218/218/218 220/220/220
f 217/217/217 216/216/216 218/218/218
f 217/217/217 218/218/218 250/250/250
f 205/205/205 204/204/204 251/251/251
f 206/206/206 208/208/208 212/212/212
f 251/251/251 245/245/245 205/205/205
f 214/214/214 237/237/237 212/212/212
f 212/212/212 237/237/237 206/206/206
f 244/244/244 245/245/245 251/251/251
f 223/223/223 229/229/229 247/247/247
f 252/252/252 239/239/239 241/241/241
f 200/200/200 235/235/235 229/229/229
f 242/242/242 239/239/239 252/252/252
f 241/241/241 197/197/197 199/199/199
f 252/252/252 241/241/241 253/253/253
f 204/204/204 200/200/200 197/197/197
f 241/241/241 199/199/199 253/253/253
f 202/202/202 201/201/201 204/204/204
f 199/199/199 233/233/233 254/254/254
f 244/244/244 255/255/255 242/242/242
f 242/242/242 255/255/255 239/239/239
f 253/253/253 199/199/199 254/254/254
f 255/255/255 204/204/204 239/239/239
f 251/251/251 204/204/204 256/256/256
f 251/251/251 256/256/256 244/244/244
f 244/244/244 256/256/256 255/255/255
f 229/229/229 257/257/257 247/247/247
f 229/229/229 235/235/235 257/257/257
f 200/200/200 224/224/224 198/198/198
f 256/256/256 204/204/204 255/255/255
f 198/198/198 224/224/224 199/199/199
g condoInt094
s 1
f 258/258/258 259/259/259 260/260/260
f 261/261/261 262/262/262 263/263/263
f 264/264/264 261/261/261 263/263/263
f 263/263/263 265/265/265 266/266/266
f 266/266/266 265/265/265 259/259/259
f 267/267/267 268/268/268 269/269/269
f 258/258/258 266/266/266 259/259/259
f 258/258/258 263/263/263 266/266/266
f 270/270/270 269/269/269 271/271/271
f 263/263/263 262/262/262 272/272/272
f 273/273/273 274/274/274 275/275/275
f 273/273/273 275/275/275 276/276/276
f 277/277/277 278/278/278 279/279/279
f 277/277/277 280/280/280 278/278/278
f 278/278/278 280/280/280 281/281/281
f 260/260/260 282/282/282 283/283/283
f 260/260/260 259/259/259 282/282/282
f 279/279/279 278/278/278 281/281/281
f 284/284/284 285/285/285 286/286/286
f 281/281/281 263/263/263 258/258/258
f 280/280/280 263/263/263 281/281/281
f 287/287/287 284/284/284 288/288/288
f 284/284/284 286/286/286 288/288/288
f 289/289/289 290/290/290 287/287/287
f 291/291/291 292/292/292 258/258/258
f 291/291/291 279/279/279 292/292/292
f 279/279/279 281/281/281 292/292/292
f 292/292/292 281/281/281 258/258/258
f 288/288/288 293/293/293 294/294/294
f 288/288/288 286/286/286 293/293/293
f 286/286/286 295/295/295 293/293/293
f 293/293/293 295/295/295 294/294/294
f 286/286/286 296/296/296 295/295/295
f 294/294/294 297/297/297 298/298/298
f 295/295/295 297/297/297 294/294/294
f 289/289/289 285/285/285 290/290/290
f 269/269/269 268/268/268 299/299/299
f 300/300/300 301/301/301 286/286/286
f 286/286/286 301/301/301 296/296/296
f 265/265/265 272/272/272 302/302/302
f 259/259/259 265/265/265 302/302/302
f 285/285/285 300/300/300 286/286/286
f 290/290/290 285/285/285 284/284/284
f 263/263/263 272/272/272 265/265/265
f 259/259/259 302/302/302 282/282/282
f 282/282/282 302/302/302 283/283/283
f 270/270/270 271/271/271 303/303/303
f 304/304/304 305/305/305 303/303/303
f 280/280/280 264/264/264 263/263/263
f 287/287/287 290/290/290 284/284/284
f 306/306/306 307/307/307 308/308/308
f 309/309/309 260/260/260 310/310/310
f 310/310/310 260/260/260 283/283/283
f 311/311/311 289/289/289 312/312/312
f 312/312/312 289/289/289 287/287/287
f 312/312/312 287/287/287 306/306/306
f 311/311/311 312/312/312 306/306/306
f 291/291/291 313/313/313 309/309/309
f 291/291/291 258/258/258 313/313/313
f 313/313/313 258/258/258 260/260/260
f 309/309/309 313/313/313 260/260/260
f 308/308/308 288/288/288 314/314/314
f 314/314/314 288/288/288 294/294/294
f 314/314/314 294/294/294 277/277/277
f 308/308/308 314/314/314 277/277/277
f 262/262/262 315/315/315 272/272/272
f 316/316/316 279/279/279 291/291/291
f 317/317/317 316/316/316 291/291/291
f 318/318/318 316/316/316 317/317/317
f 318/318/318 279/279/279 316/316/316
f 311/311/311 306/306/306 319/319/319
f 319/319/319 306/306/306 320/320/320
f 321/321/321 291/291/291 309/309/309
f 317/317/317 291/291/291 321/321/321
f 308/308/308 277/277/277 322/322/322
f 322/322/322 277/277/277 279/279/279
f 323/323/323 324/324/324 325/325/325
f 324/324/324 326/326/326 325/325/325
f 324/324/324 327/327/327 326/326/326
f 323/323/323 327/327/327 324/324/324
f 325/325/325 326/326/326 328/328/328
f 325/325/325 328/328/328 329/329/329
f 329/329/329 328/328/328 330/330/330
f 328/328/328 326/326/326 330/330/330
f 327/327/327 331/331/331 332/332/332
f 327/327/327 332/332/332 326/326/326
f 326/326/326 332/332/332 274/274/274
f 332/332/332 331/331/331 274/274/274
f 305/305/305 323/323/323 333/333/333
f 270/270/270 333/333/333 325/325/325
f 333/333/333 323/323/323 325/325/325
f 330/330/330 326/326/326 273/273/273
f 330/330/330 273/273/273 276/276/276
f 326/326/326 274/274/274 273/273/273
f 322/322/322 279/279/279 318/318/318
f 308/308/308 322/322/322 318/318/318
f 334/334/334 325/325/325 329/329/329
f 270/270/270 325/325/325 334/334/334
f 329/329/329 267/267/267 334/334/334
f 320/320/320 318/318/318 335/335/335
f 335/335/335 318/318/318 317/317/317
f 306/306/306 336/336/336 320/320/320
f 306/306/306 308/308/308 336/336/336
f 336/336/336 308/308/308 318/318/318
f 320/320/320 336/336/336 318/318/318
f 277/277/277 337/337/337 280/280/280
f 277/277/277 294/294/294 337/337/337
f 294/294/294 298/298/298 337/337/337
f 337/337/337 298/298/298 280/280/280
f 334/334/334 338/338/338 270/270/270
f 269/269/269 299/299/299 271/271/271
f 334/334/334 267/267/267 338/338/338
f 267/267/267 269/269/269 338/338/338
f 338/338/338 269/269/269 270/270/270
f 307/307/307 288/288/288 308/308/308
f 303/303/303 339/339/339 304/304/304
f 303/303/303 271/271/271 339/339/339
f 305/305/305 333/333/333 340/340/340
f 306/306/306 287/287/287 307/307/307
f 287/287/287 288/288/288 307/307/307
f 340/340/340 333/333/333 270/270/270
f 303/303/303 305/305/305 340/340/340
f 303/303/303 340/340/340 270/270/270
g condoInt095
s 1
f 341/341/341 342/342/342 343/343/343
f 344/344/344 345/345/345 346/346/346
f 345/345/345 347/347/347 346/346/346
f 348/348/348 349/349/349 350/350/350
f 349/349/349 351/351/351 350/350/350
f 352/352/352 351/351/351 349/349/349
f 353/353/353 354/354/354 355/355/355
f 356/356/356 341/341/341 357/357/357
f 358/358/358 354/354/354 353/353/353
f 359/359/359 360/360/360 361/361/361
f 348/348/348 358/358/358 353/353/353
f 348/348/348 353/353/353 355/355/355
f 362/362/362 363/363/363 358/358/358
f 346/346/346 363/363/363 362/362/362
f 361/361/361 360/360/360 364/364/364
f 365/365/365 361/361/361 364/364/364
f 350/350/350 346/346/346 362/362/362
f 350/350/350 362/362/362 358/358/358
f 366/366/366 367/367/367 368/368/368
f 369/369/369 366/366/366 368/368/368
f 350/350/350 370/370/370 371/371/371
f 372/372/372 346/346/346 371/371/371
f 371/371/371 346/346/346 350/350/350
f 369/369/369 373/373/373 366/366/366
f 372/372/372 344/344/344 346/346/346
f 366/366/366 373/373/373 367/367/367
f 374/374/374 375/375/375 359/359/359
f 371/371/371 370/370/370 376/376/376
f 371/371/371 376/376/376 372/372/372
f 372/372/372 376/376/376 377/377/377
f 376/376/376 370/370/370 377/377/377
f 378/378/378 379/379/379 380/380/380
f 381/381/381 357/357/357 382/382/382
f 383/383/383 357/357/357 381/381/381
f 383/383/383 381/381/381 384/384/384
f 385/385/385 386/386/386 387/387/387
f 375/375/375 386/386/386 385/385/385
f 388/388/388 389/389/389 364/364/364
f 390/390/390 342/342/342 341/341/341
f 391/391/391 392/392/392 393/393/393
f 394/394/394 374/374/374 359/359/359
f 394/394/394 395/395/395 374/374/374
f 356/356/356 390/390/390 341/341/341
f 363/363/363 396/396/396 397/397/397
f 363/363/363 397/397/397 354/354/354
f 374/374/374 395/395/395 375/375/375
f 385/385/385 387/387/387 398/398/398
f 375/375/375 385/385/385 398/398/398
f 389/389/389 399/399/399 364/364/364
f 391/391/391 400/400/400 392/392/392
f 382/382/382 367/367/367 401/401/401
f 382/382/382 401/401/401 402/402/402
f 347/347/347 403/403/403 396/396/396
f 359/359/359 361/361/361 365/365/365
f 404/404/404 405/405/405 406/406/406
f 404/404/404 406/406/406 400/400/400
f 358/358/358 363/363/363 354/354/354
f 346/346/346 396/396/396 363/363/363
f 370/370/370 407/407/407 377/377/377
f 377/377/377 407/407/407 379/379/379
f 372/372/372 377/377/377 379/379/379
f 350/350/350 358/358/358 348/348/348
f 355/355/355 352/352/352 348/348/348
f 352/352/352 408/408/408 351/351/351
f 350/350/350 351/351/351 370/370/370
f 373/373/373 402/402/402 401/401/401
f 373/373/373 401/401/401 367/367/367
f 409/409/409 410/410/410 411/411/411
f 409/409/409 412/412/412 410/410/410
f 384/384/384 381/381/381 382/382/382
f 413/413/413 414/414/414 391/391/391
f 413/413/413 391/391/391 393/393/393
f 414/414/414 400/400/400 391/391/391
f 415/415/415 416/416/416 417/417/417
f 411/411/411 416/416/416 415/415/415
f 415/415/415 409/409/409 411/411/411
f 417/417/417 409/409/409 415/415/415
f 418/418/418 356/356/356 383/383/383
f 419/419/419 418/418/418 383/383/383
f 416/416/416 420/420/420 421/421/421
f 343/343/343 368/368/368 367/367/367
f 343/343/343 387/387/387 368/368/368
f 369/369/369 368/368/368 387/387/387
f 416/416/416 421/421/421 414/414/414
f 359/359/359 375/375/375 360/360/360
f 342/342/342 422/422/422 423/423/423
f 394/394/394 359/359/359 365/365/365
f 388/388/388 364/364/364 360/360/360
f 365/365/365 364/364/364 399/399/399
f 423/423/423 398/398/398 387/387/387
f 423/423/423 360/360/360 398/398/398
f 375/375/375 398/398/398 360/360/360
f 395/395/395 386/386/386 375/375/375
f 395/395/395 369/369/369 386/386/386
f 386/386/386 369/369/369 387/387/387
f 383/383/383 356/356/356 357/357/357
f 351/351/351 408/408/408 424/424/424
f 419/419/419 383/383/383 384/384/384
f 351/351/351 424/424/424 370/370/370
f 370/370/370 424/424/424 407/407/407
f 384/384/384 382/382/382 402/402/402
f 422/422/422 388/388/388 423/423/423
f 424/424/424 408/408/408 407/407/407
f 357/357/357 367/367/367 382/382/382
f 414/414/414 404/404/404 400/400/400
f 420/420/420 405/405/405 404/404/404
f 421/421/421 404/404/404 414/414/414
f 420/420/420 404/404/404 421/421/421
f 348/348/348 352/352/352 349/349/349
f 357/357/357 341/341/341 343/343/343
f 372/372/372 379/379/379 378/378/378
f 423/423/423 388/388/388 360/360/360
f 342/342/342 423/423/423 387/387/387
f 425/425/425 426/426/426 427/427/427
f 357/357/357 343/343/343 367/367/367
f 417/417/417 413/413/413 428/428/428
f 428/428/428 413/413/413 425/425/425
f 346/346/346 347/347/347 396/396/396
f 425/425/425 427/427/427 428/428/428
f 428/428/428 427/427/427 417/417/417
f 427/427/427 412/412/412 409/409/409
f 343/343/343 342/342/342 387/387/387
f 425/425/425 413/413/413 393/393/393
f 411/411/411 420/420/420 416/416/416
f 416/416/416 414/414/414 417/417/417
f 417/417/417 427/427/427 409/409/409
f 417/417/417 414/414/414 413/413/413
