# Exported using wow.export v0.2.19
o darnassis_int109.obj
v -120.5459213256836 -1.403098464012146 -16.1556396484375
v -118.42431640625 -1.4030983448028564 -15.64628791809082
v -119.15609741210938 -1.4030988216400146 -12.598245620727539
v -117.69254302978516 -1.4030978679656982 -18.6943302154541
v -116.30271911621094 -1.4030983448028564 -15.13693618774414
v -121.93574523925781 -1.4030981063842773 -19.713031768798828
v -124.78912353515625 -1.403098225593567 -17.174341201782227
v -124.0573501586914 -1.4030978679656982 -20.222383499145508
v -121.20397186279297 -1.4030976295471191 -22.76107406616211
v -119.08236694335938 -1.4030975103378296 -22.251724243164062
v -117.03449249267578 -1.4030988216400146 -12.08889389038086
v -117.76626586914062 -1.4030992984771729 -9.040852546691895
v -123.3992919921875 -1.4030985832214355 -13.616949081420898
v -125.52088928222656 -1.4030985832214355 -14.126298904418945
v -126.2526626586914 -1.4030988216400146 -11.07825756072998
v -117.59600830078125 -8.223299980163574 -19.050411224365234
v -115.47441101074219 -8.223299980163574 -18.541061401367188
v -114.65654754638672 -8.223299026489258 -21.947694778442383
v -116.29228210449219 -8.22330093383789 -15.13442611694336
v -124.29281616210938 -8.223301887512207 -9.849210739135742
v -122.17121887207031 -8.223301887512207 -9.339859962463379
v -123.47494506835938 -8.22330093383789 -13.255844116210938
v -126.41441345214844 -8.223301887512207 -10.358561515808105
v -121.35334777832031 -8.22330093383789 -12.74649429321289
v -120.53547668457031 -8.22330093383789 -16.153127670288086
v -119.23175048828125 -8.22330093383789 -12.237142562866211
v -118.41387939453125 -8.22330093383789 -15.643776893615723
v -120.04962158203125 -8.223301887512207 -8.830509185791016
v -117.92801666259766 -8.223301887512207 -8.321158409118652
v -117.11015319824219 -8.22330093383789 -11.727792739868164
v -116.77815246582031 -8.223299980163574 -22.457046508789062
v -118.89974975585938 -8.22330093383789 -22.966398239135742
v -125.59654998779297 -8.223302841186523 -13.765195846557617
v -119.71761322021484 -8.22330093383789 -19.559762954711914
v -121.83921813964844 -8.223301887512207 -20.069114685058594
v -121.02135467529297 -8.223301887512207 -23.475749969482422
v -123.96082305908203 -8.223302841186523 -20.578466415405273
v -124.7786865234375 -8.223302841186523 -17.171831130981445
v -122.6570816040039 -8.223301887512207 -16.662479400634766
v -122.63066101074219 -1.4030978679656982 -21.491729736328125
v -123.32557678222656 -1.4030976295471191 -23.27042579650879
v -117.72940826416016 -1.4030985832214355 -13.86759090423584
v -124.12681579589844 -8.223301887512207 -15.213837623596191
v -122.4910888671875 -8.223302841186523 -22.02710723876953
v -123.14295959472656 -8.223302841186523 -23.9851016998291
v -119.88786315917969 -1.4030991792678833 -9.550203323364258
v -122.00946044921875 -1.4030990600585938 -10.059555053710938
v -121.27769470214844 -1.4030988216400146 -13.107597351074219
v -124.13105773925781 -1.4030989408493042 -10.568906784057617
v -122.66752624511719 -1.4030983448028564 -16.664989471435547
v -119.81414794921875 -1.4030979871749878 -19.20368194580078
v -116.96076965332031 -1.40309739112854 -21.742372512817383
v -114.83916473388672 -1.40309739112854 -21.233020782470703
v -115.57093811035156 -1.4030978679656982 -18.184978485107422
v -115.974609375 -6.529167175292969 -15.246577262878418
v -116.70077514648438 -6.407074928283691 -11.831506729125977
v -116.63363647460938 -5.682101249694824 -11.896018981933594
v -117.42693328857422 -6.284982681274414 -8.416436195373535
v -116.04174041748047 -7.254140853881836 -15.182065963745117
v -116.13398742675781 -2.1692187786102295 -15.011224746704102
v -116.30271911621094 -1.4030983448028564 -15.13693618774414
v -115.486572265625 -1.7861580848693848 -18.12212371826172
v -115.45254516601562 -2.2610816955566406 -18.06113052368164
v -114.83916473388672 -1.40309739112854 -21.233020782470703
v -117.03449249267578 -1.4030988216400146 -12.08889389038086
v -116.78140258789062 -2.552279472351074 -11.900325775146484
v -117.76626586914062 -1.4030992984771729 -9.040852546691895
v -116.95012664794922 -1.7861590385437012 -12.026039123535156
v -116.73433685302734 -6.769561767578125 -11.799251556396484
v -116.85960388183594 -7.254141807556152 -11.775430679321289
v -117.29267120361328 -4.83503532409668 -8.545459747314453
v -116.5328369140625 -5.197521209716797 -11.817924499511719
v -115.77300262451172 -5.560006618499756 -15.0903902053833
v -116.517578125 -4.835033893585205 -11.773946762084961
v -115.08341979980469 -3.885183334350586 -18.153139114379883
v -115.85851287841797 -3.8851847648620605 -14.924652099609375
v -115.14143371582031 -3.41025972366333 -18.114248275756836
v -114.42435455322266 -2.9353344440460205 -21.303844451904297
v -114.99790954589844 -5.560005187988281 -18.318876266479492
v -115.74247741699219 -4.8350324630737305 -15.002432823181152
v -115.24513244628906 -3.027200222015381 -18.096542358398438
v -114.25333404541016 -6.284977912902832 -21.63532066345215
v -114.19229125976562 -4.8350300788879395 -21.45940589904785
v -116.06591796875 -3.1190662384033203 -14.889240264892578
v -117.42881774902344 -2.935340166091919 -8.789427757263184
v -125.8291015625 -6.944514274597168 -13.963253021240234
v -125.7515869140625 -7.370777130126953 -13.897233963012695
v -124.93372344970703 -7.370777130126953 -17.303869247436523
v -126.7244873046875 -6.518251419067383 -10.622635841369629
v -125.84209442138672 -6.518251419067383 -14.013778686523438
v -124.05133056640625 -7.370777130126953 -20.695011138916016
v -124.03834533691406 -7.797039985656738 -20.644485473632812
v -123.14295959472656 -8.223302841186523 -23.9851016998291
v -125.05101013183594 -3.1081490516662598 -17.047584533691406
v -125.91372680664062 -3.96067476272583 -13.936162948608398
v -125.19189453125 -3.96067476272583 -17.17622184753418
v -123.96082305908203 -8.223302841186523 -20.578466415405273
v -126.62052154541016 -3.108149766921997 -10.976941108703613
v -126.77645111083984 -4.8132004737854 -10.824742317199707
v -124.97305297851562 -2.2556238174438477 -17.12368392944336
v -125.79678344726562 -2.681886672973633 -14.050312042236328
v -125.98417663574219 -4.386937618255615 -14.000482559204102
v -114.9673843383789 -4.835031509399414 -18.230918884277344
v -115.11396789550781 -6.4070725440979 -18.440948486328125
v -115.31558227539062 -7.376233100891113 -18.597135543823242
v -115.47441101074219 -8.223299980163574 -18.541061401367188
v -116.29228210449219 -8.22330093383789 -15.13442611694336
v -124.95970153808594 -6.518251419067383 -17.404922485351562
v -125.86807250976562 -5.6657257080078125 -14.114831924438477
v -116.67929077148438 -3.97705078125 -11.717350006103516
v -116.74736785888672 -3.02720308303833 -11.839334487915039
v -123.53913116455078 -6.518251895904541 -23.89058494567871
v -124.24942016601562 -6.518251419067383 -20.647754669189453
v -124.32917785644531 -3.1081490516662598 -20.287643432617188
v -124.18829345703125 -2.2556233406066895 -20.15900421142578
v -123.60733795166016 -3.1081488132476807 -23.52770233154297
v -124.41707611083984 -3.96067476272583 -20.403560638427734
v -125.22681427001953 -4.8132004737854 -17.2794189453125
v -124.45199584960938 -4.8132004737854 -20.506757736206055
v -123.67717742919922 -4.8132004737854 -23.73409652709961
v -117.11015319824219 -8.22330093383789 -11.727792739868164
v -117.92801666259766 -8.223301887512207 -8.321158409118652
v -124.38297271728516 -5.665726184844971 -20.585002899169922
v -126.00163269042969 -4.8132004737854 -14.052080154418945
v -124.1493148803711 -1.8293607234954834 -20.19705581665039
v -124.78912353515625 -1.403098225593567 -17.174341201782227
v -125.59654998779297 -8.223302841186523 -13.765195846557617
v -124.7786865234375 -8.223302841186523 -17.171831130981445
v -126.41441345214844 -8.223301887512207 -10.358561515808105
v -123.32557678222656 -1.4030976295471191 -23.27042579650879
v -126.02471923828125 -2.0424928665161133 -12.564285278320312
v -126.2526626586914 -1.4030988216400146 -11.07825756072998
v -125.83576965332031 -3.108149528503418 -14.012262344360352
v -125.49888610839844 -2.1490583419799805 -14.843984603881836
v -125.61285400390625 -1.8293613195419312 -14.100971221923828
v -125.2469711303711 -1.8293612003326416 -15.624991416931152
v -125.52088928222656 -1.4030985832214355 -14.126298904418945
v -114.65654754638672 -8.223299026489258 -21.947694778442383
v -125.19230651855469 -5.2394633293151855 -17.31854248046875
v -124.70359802246094 -6.091988563537598 -19.002708435058594
v -125.15779113769531 -5.665726184844971 -17.357664108276367
v -125.96711730957031 -5.2394633293151855 -14.091203689575195
v -125.05874633789062 -6.091988563537598 -17.38129425048828
v -124.34846496582031 -6.091989040374756 -20.62412452697754
v -124.39961242675781 -3.534411907196045 -20.35196304321289
v -116.57559204101562 -4.360110282897949 -11.735055923461914
v -115.3491439819336 -7.738719940185547 -18.56488037109375
v -115.01316833496094 -5.922492027282715 -18.362855911254883
v -124.0573501586914 -1.4030978679656982 -20.222383499145508
v -115.57093811035156 -1.4030978679656982 -18.184978485107422
vn 0.4670802652835846 -0.8765102028846741 0.11647308617830276
vn 0.006853468716144562 -0.9999542236328125 0.006686872337013483
vn 0.24110209941864014 -0.9686357378959656 0.060122050344944
vn -0.22797222435474396 -0.972562313079834 -0.046381134539842606
vn -0.4550119936466217 -0.8843089938163757 -0.10469817370176315
vn 0.6637591123580933 -0.7294023036956787 0.1655179113149643
vn 0.7274277806282043 -0.6625637412071228 0.17848867177963257
vn 0.7755311727523804 -0.6014260053634644 0.19193243980407715
vn 0.47224071621894836 -0.8724525570869446 0.12575818598270416
vn 0.01277153193950653 -0.9997693300247192 0.01726866140961647
vn -0.23438610136508942 -0.970646321773529 -0.05393237620592117
vn -1.0997950994351413e-7 -1 -3.7404905128823884e-7
vn 0.5448811650276184 -0.8278995752334595 0.13299155235290527
vn 0.674790620803833 -0.7195720076560974 0.1639324426651001
vn 0.6179477572441101 -0.7720955610275269 0.14835450053215027
vn -0.5261867046356201 0.8423424959182739 -0.11656171083450317
vn -0.7671293020248413 0.6167535185813904 -0.17643076181411743
vn -0.812890350818634 0.5522828102111816 -0.18491339683532715
vn -0.716517984867096 0.6773247122764587 -0.16683262586593628
vn 0.3274209499359131 0.9416031837463379 0.07860668748617172
vn 0.0062227072194218636 0.999979555606842 0.001494196243584156
vn 0.252748042345047 0.9653568267822266 0.06484264135360718
vn 0.6117769479751587 0.7772753238677979 0.14687415957450867
vn -0.07186711579561234 0.9973236918449402 -0.013434067368507385
vn -0.14950217306613922 0.9883569478988647 -0.02827732264995575
vn -0.38859766721725464 0.9170645475387573 -0.0893562063574791
vn -0.4588252007961273 0.8824930191040039 -0.10337099432945251
vn -0.3156757056713104 0.9458357691764832 -0.07578642666339874
vn -0.6020535230636597 0.785264253616333 -0.14453937113285065
vn -0.6613765954971313 0.7336136698722839 -0.15617972612380981
vn -0.46035051345825195 0.8826339840888977 -0.09505107998847961
vn 0.003360138041898608 0.9998365044593811 0.017765283584594727
vn 0.6697388291358948 0.7245106101036072 0.16289333999156952
vn -0.073306143283844 0.9972955584526062 -0.0052729323506355286
vn 0.39782771468162537 0.9114331007003784 0.10498985648155212
vn 0.4662593603134155 0.8755871653556824 0.12629148364067078
vn 0.7724595665931702 0.6054373383522034 0.19170814752578735
vn 0.7234141826629639 0.6671087741851807 0.17786993086338043
vn 0.326364666223526 0.9414082169532776 0.08506833761930466
vn 0.747161865234375 -0.6379934549331665 0.1863156408071518
vn 0.81880122423172 -0.5365399718284607 0.2041800320148468
vn -0.11464881896972656 -0.9931187629699707 -0.023891368880867958
vn 0.5090848803520203 0.8513580560684204 0.1265786588191986
vn 0.6333232522010803 0.7568889856338501 0.16130974888801575
vn 0.8165608048439026 0.5398908257484436 0.20431934297084808
vn 0.16658331453800201 -0.985215961933136 0.03999241068959236
vn 0.328241229057312 -0.9413011074066162 0.0788026973605156
vn 0.3989039361476898 -0.9117470979690552 0.09794313460588455
vn 0.4801936745643616 -0.869553804397583 0.11528294533491135
vn 0.6062164902687073 -0.7810847163200378 0.14969398081302643
vn 0.24718312919139862 -0.9665164947509766 0.06889357417821884
vn -0.44975125789642334 -0.8880496621131897 -0.09534967690706253
vn -0.8047423362731934 -0.5640048980712891 -0.1851707100868225
vn -0.6489254236221313 -0.7460563778877258 -0.1493174433708191
vn -0.9335101246833801 0.28437894582748413 -0.21837455034255981
vn -0.9507244229316711 0.21917316317558289 -0.2192857712507248
vn -0.9635968804359436 0.13952727615833282 -0.22806420922279358
vn -0.9636138677597046 0.15297038853168488 -0.21919949352741241
vn -0.9093366265296936 0.36099690198898315 -0.20685265958309174
vn -0.9029148817062378 -0.37627196311950684 -0.20776008069515228
vn -0.887480616569519 -0.4107345640659332 -0.20898641645908356
vn -0.8587148785591125 -0.4728289246559143 -0.1975897252559662
vn -0.876349925994873 -0.4363347589969635 -0.2040170580148697
vn -0.8047423362731934 -0.5640048980712891 -0.1851707100868225
vn -0.9186919927597046 -0.32902610301971436 -0.218510702252388
vn -0.9368393421173096 -0.27543288469314575 -0.215566024184227
vn -0.9427915811538696 -0.2447705864906311 -0.22634346783161163
vn -0.925079345703125 -0.3112703263759613 -0.217575341463089
vn -0.9419513940811157 0.2584863603115082 -0.21427176892757416
vn -0.8780685663223267 0.43392783403396606 -0.20174764096736908
vn -0.972502589225769 -0.008391350507736206 -0.23274074494838715
vn -0.9714633822441101 0.03201190382242203 -0.23501941561698914
vn -0.96883225440979 0.07236269861459732 -0.23691295087337494
vn -0.9724459052085876 -0.010067788884043694 -0.23291108012199402
vn -0.9670457243919373 -0.09183530509471893 -0.23746350407600403
vn -0.9672366976737976 -0.09016582369804382 -0.2373255044221878
vn -0.9621564745903015 -0.1308595836162567 -0.23901988565921783
vn -0.9554555416107178 -0.1713329404592514 -0.2403116673231125
vn -0.968906044960022 0.07069040089845657 -0.23711583018302917
vn -0.9723864793777466 -0.011744199320673943 -0.23308077454566956
vn -0.9442326426506042 -0.2357635498046875 -0.22986961901187897
vn -0.9588139653205872 0.152642622590065 -0.23953287303447723
vn -0.9722592830657959 -0.015096914954483509 -0.23341812193393707
vn -0.928868293762207 -0.29916009306907654 -0.21841935813426971
vn -0.960102379322052 -0.17145933210849762 -0.22091880440711975
vn 0.9414743185043335 0.24110275506973267 0.2355750948190689
vn 0.8811751008033752 0.4190916419029236 0.21884353458881378
vn 0.910464882850647 0.34518614411354065 0.22781595587730408
vn 0.9613223075866699 0.13416102528572083 0.24054144322872162
vn 0.9492365717887878 0.20912499725818634 0.23498210310935974
vn 0.8829638361930847 0.4155532121658325 0.2183811068534851
vn 0.8686618804931641 0.445177286863327 0.21735602617263794
vn 0.8165608048439026 0.5398908257484436 0.20431934297084808
vn 0.9331634640693665 -0.27782848477363586 0.22807317972183228
vn 0.9624910354614258 -0.13868290185928345 0.2331913560628891
vn 0.9713423848152161 -0.06325378268957138 0.22911371290683746
vn 0.7724595665931702 0.6054373383522034 0.19170814752578735
vn 0.9621266722679138 -0.12942327558994293 0.239920511841774
vn 0.9723302125930786 0.003270722460001707 0.23358792066574097
vn 0.9121053814888 -0.34107425808906555 0.22744688391685486
vn 0.9427247047424316 -0.23665674030780792 0.23508231341838837
vn 0.9723768830299377 -0.030008211731910706 0.2314794957637787
vn -0.9723242521286011 -0.01342057716101408 -0.23324978351593018
vn -0.9483508467674255 0.21901626884937286 -0.22948338091373444
vn -0.8829038143157959 0.4229796528816223 -0.2038847804069519
vn -0.7671293020248413 0.6167535185813904 -0.17643076181411743
vn -0.716517984867096 0.6773247122764587 -0.16683262586593628
vn 0.9316486120223999 0.28287675976753235 0.22806067764759064
vn 0.9616379737854004 0.14452381432056427 0.2331637293100357
vn -0.9611536860466003 -0.15546898543834686 -0.22806397080421448
vn -0.9465331435203552 -0.23581992089748383 -0.2201453596353531
vn 0.9658201932907104 0.13416513800621033 0.2217906266450882
vn 0.9515124559402466 0.20913152396678925 0.2255842685699463
vn 0.9523535966873169 -0.2042534500360489 0.22650198638439178
vn 0.8849413990974426 -0.41134870052337646 0.2183370292186737
vn 0.9660353660583496 -0.12949702143669128 0.2236207276582718
vn 0.9712156653404236 -0.0654098317027092 0.22904515266418457
vn 0.9723523855209351 -0.001050314400345087 0.23351597785949707
vn 0.9723567366600037 -0.0032108307350426912 0.233478382229805
vn 0.9723564386367798 -0.005371331702917814 0.23343969881534576
vn -0.6613765954971313 0.7336136698722839 -0.15617972612380981
vn -0.6020535230636597 0.785264253616333 -0.14453937113285065
vn 0.9713307023048401 0.06671155989170074 0.22818054258823395
vn 0.9723436236381531 0.001110206707380712 0.2335525006055832
vn 0.870633065700531 -0.4414333999156952 0.21710510551929474
vn 0.7274277806282043 -0.6625637412071228 0.17848867177963257
vn 0.6697388291358948 0.7245106101036072 0.16289333999156952
vn 0.7234141826629639 0.6671087741851807 0.17786993086338043
vn 0.6117769479751587 0.7772753238677979 0.14687415957450867
vn 0.81880122423172 -0.5365399718284607 0.2041800320148468
vn 0.8225119113922119 -0.5316367149353027 0.20208041369915009
vn 0.6179477572441101 -0.7720955610275269 0.14835450053215027
vn 0.9503816962242126 -0.2042139321565628 0.23467259109020233
vn 0.872227132320404 -0.43883004784584045 0.21598157286643982
vn 0.793142557144165 -0.5770403146743774 0.19480635225772858
vn 0.8144476413726807 -0.5443588495254517 0.2008688598871231
vn 0.674790620803833 -0.7195720076560974 0.1639324426651001
vn -0.812890350818634 0.5522828102111816 -0.18491339683532715
vn 0.9723639488220215 0.033929262310266495 0.2309916615486145
vn 0.9637597799301147 0.13934892416000366 0.22748441994190216
vn 0.9711794257164001 0.06886713951826096 0.22818367183208466
vn 0.9722815155982971 0.0360884815454483 0.23101095855236053
vn 0.9570938348770142 0.17692354321479797 0.22949835658073425
vn 0.9690248370170593 0.10157117992639542 0.22510913014411926
vn 0.9692277908325195 -0.09642902761697769 0.22649316489696503
vn -0.9706872701644897 -0.04932013154029846 -0.23523126542568207
vn -0.8661490082740784 0.4593101441860199 -0.1970285028219223
vn -0.9646134376525879 0.11259491741657257 -0.23841826617717743
vn 0.7755311727523804 -0.6014260053634644 0.19193243980407715
vn -0.8493991494178772 -0.4892634451389313 -0.19784432649612427
vt 2.397047519683838 1.791182518005371
vt 2.404844045639038 2.046034812927246
vt 3.0465211868286133 2.039644241333008
vt 1.763166904449463 2.0524253845214844
vt 2.4126405715942383 2.300887107849121
vt 1.7475740909576416 1.5427207946777344
vt 2.3814547061920166 1.2814777493476868
vt 1.739777684211731 1.2878684103488922
vt 1.105897068977356 1.5491113662719727
vt 1.1136934757232666 1.8039636611938477
vt 3.0543174743652344 2.294496536254883
vt 3.6959946155548096 2.2881059646606445
vt 3.030928134918213 1.5299394726753235
vt 3.023131847381592 1.2750870883464813
vt 3.664808750152588 1.2686964273452759
vt 1.687713623046875 2.0544296503067017
vt 1.6955097913742065 2.309281826019287
vt 0.9783415794372559 2.316424608230591
vt 2.4126780033111572 2.302139163017273
vt 3.8236260414123535 1.5232970118522644
vt 3.8314220905303955 1.7781492471694946
vt 3.1064577102661133 1.5304397344589233
vt 3.8158297538757324 1.2684447765350342
vt 3.1142539978027344 1.7852919697761536
vt 2.397085666656494 1.7924346923828125
vt 3.1220500469207764 2.040144205093384
vt 2.4048819541931152 2.0472869873046875
vt 3.8392181396484375 2.03300142288208
vt 3.8470144271850586 2.287853717803955
vt 3.1298460960388184 2.294996500015259
vt 0.97054523229599 2.061572313308716
vt 0.9627488851547241 1.8067200183868408
vt 3.098661422729492 1.2755874395370483
vt 1.679917335510254 1.7995773553848267
vt 1.6721209287643433 1.5447250604629517
vt 0.954952597618103 1.5518677234649658
vt 1.6643247604370117 1.2898727655410767
vt 2.381493091583252 1.2827301025390625
vt 2.389289379119873 1.5375823974609375
vt 1.4228373765945435 1.418489933013916
vt 1.0981006622314453 1.2942590713500977
vt 2.729580879211426 2.1702656745910645
vt 2.7439754009246826 1.406584918498993
vt 1.3096386194229126 1.4208702445030212
vt 0.9471562504768372 1.2970154285430908
vt 3.6881980895996094 2.03325355052948
vt 3.6804018020629883 1.7784011960029602
vt 3.038724660873413 1.7847918272018433
vt 3.672605276107788 1.5235488414764404
vt 2.389251232147217 1.5363301038742065
vt 1.7553704977035522 1.7975730895996094
vt 1.1214900016784668 2.0588159561157227
vt 1.1292864084243774 2.3136682510375977
vt 1.770963430404663 2.3072776794433594
vt 1 0.2486509084701538
vt 0.5 0.26653480529785156
vt 0.5 0.37272655963897705
vt 0 0.2844187021255493
vt 1 0.14245915412902832
vt 1 0.8872816562652588
vt 1 0.9995003342628479
vt 1.5 0.9433909058570862
vt 1.5 0.8738256692886353
vt 2 0.9995001554489136
vt 0.5 0.9995004236698151
vt 0.5 0.8311724066734314
vt 0 0.9995005130767822
vt 0.5 0.9433910846710205
vt 0.5 0.21343892812728882
vt 0.5 0.14245927333831787
vt 0 0.4968022108078003
vt 0.5 0.43516409397125244
vt 1 0.3735259771347046
vt 0.5 0.49760162830352783
vt 1.5 0.6240755319595337
vt 1 0.6232761144638062
vt 1.5 0.6865130662918091
vt 2 0.749750018119812
vt 1.5 0.37432539463043213
vt 1 0.49840104579925537
vt 1.5 0.7489506006240845
vt 2 0.2502497434616089
vt 2 0.49999988079071045
vt 1 0.7481511831283569
vt 0 0.775063157081604
vt 0.5 0.1878124475479126
vt 0.5 0.1253749132156372
vt 1 0.12537479400634766
vt 0 0.25025010108947754
vt 0.5 0.250249981880188
vt 1.5 0.1253746747970581
vt 1.5 0.06293714046478271
vt 2 0.0004995465278625488
vt 1 0.7497501075267792
vt 0.5 0.6248751282691956
vt 1 0.6248748898506165
vt 1.5 0.0004996061325073242
vt 0 0.7497503757476807
vt 0 0.5000001788139343
vt 1 0.8746252059936523
vt 0.5 0.8121877908706665
vt 0.5 0.5624375343322754
vt 1.5 0.4992004632949829
vt 1.5 0.24945032596588135
vt 1.5 0.12457525730133057
vt 1.5 0.000499725341796875
vt 1 0.0004998445510864258
vt 1 0.25024986267089844
vt 0.5 0.37512505054473877
vt 0.5 0.6224766969680786
vt 0.5 0.7616071701049805
vt 2 0.2502496838569641
vt 1.5 0.2502497434616089
vt 1.5 0.7497498393058777
vt 1.5 0.8746250718832016
vt 2 0.7497496008872986
vt 1.5 0.6248748004436493
vt 1 0.5
vt 1.5 0.49999988079071045
vt 2 0.4999997615814209
vt 0.5 0.0004999637603759766
vt 0 0.0005000829696655273
vt 1.5 0.37512481212615967
vt 0.5 0.5000000894069672
vt 1.5 0.9370626211166382
vt 1 0.9995002746582031
vt 0.5 0.0004998445510864258
vt 1 0.000499725341796875
vt 0 0.0004999637603759766
vt 2 0.999500036239624
vt 0.25 0.9058441519737244
vt 0 0.9995005130767822
vt 0.5 0.7497502565383911
vt 0.625 0.8902346789836884
vt 0.5 0.9370628595352173
vt 0.75 0.9370627999305725
vt 0.5 0.9995003938674927
vt 2 0.0004996061325073242
vt 1 0.4375624656677246
vt 1.25 0.31268739700317383
vt 1 0.3751249313354492
vt 0.5 0.43756258487701416
vt 1 0.31268739700317383
vt 1.5 0.3126872777938843
vt 1.5 0.6873122453689575
vt 0.5 0.5600391626358032
vt 1.5 0.07147938013076782
vt 1.5 0.31188786029815674
vt 1.5 0.9995001554489136
vt 1.5 0.9995002448558807
g int1090
s 1
f 1/1/1 2/2/2 3/3/3
f 1/1/1 4/4/4 2/2/2
f 2/2/2 4/4/4 5/5/5
f 6/6/6 7/7/7 8/8/8
f 9/9/9 10/10/10 6/6/6
f 3/3/3 11/11/11 12/12/12
f 13/13/13 14/14/14 7/7/7
f 13/13/13 15/15/15 14/14/14
f 16/16/16 17/17/17 18/18/18
f 16/16/16 19/19/19 17/17/17
f 20/20/20 21/21/21 22/22/22
f 23/23/23 20/20/20 22/22/22
f 22/22/22 24/24/24 25/25/25
f 22/22/22 21/21/21 24/24/24
f 21/21/21 26/26/26 24/24/24
f 24/24/24 26/26/26 25/25/25
f 25/25/25 26/26/26 27/27/27
f 27/27/27 26/26/26 19/19/19
f 27/27/27 19/19/19 16/16/16
f 25/25/25 27/27/27 16/16/16
f 28/28/28 29/29/29 26/26/26
f 21/21/21 28/28/28 26/26/26
f 26/26/26 30/30/30 19/19/19
f 26/26/26 29/29/29 30/30/30
f 31/31/31 32/32/32 16/16/16
f 18/18/18 31/31/31 16/16/16
f 22/22/22 33/33/33 23/23/23
f 16/16/16 34/34/34 25/25/25
f 16/16/16 32/32/32 34/34/34
f 32/32/32 35/35/35 34/34/34
f 34/34/34 35/35/35 25/25/25
f 32/32/32 36/36/36 35/35/35
f 35/35/35 37/37/37 38/38/38
f 25/25/25 39/39/39 22/22/22
f 25/25/25 35/35/35 39/39/39
f 39/39/39 35/35/35 38/38/38
f 6/6/6 8/8/8 40/40/40
f 40/40/40 8/8/8 41/41/41
f 41/41/41 9/9/9 40/40/40
f 40/40/40 9/9/9 6/6/6
f 2/2/2 42/42/42 3/3/3
f 2/2/2 5/5/5 42/42/42
f 42/42/42 5/5/5 11/11/11
f 3/3/3 42/42/42 11/11/11
f 39/39/39 43/43/43 22/22/22
f 39/39/39 38/38/38 43/43/43
f 43/43/43 38/38/38 33/33/33
f 22/22/22 43/43/43 33/33/33
f 36/36/36 44/44/44 35/35/35
f 36/36/36 45/45/45 44/44/44
f 44/44/44 45/45/45 37/37/37
f 35/35/35 44/44/44 37/37/37
f 46/46/46 47/47/47 3/3/3
f 12/12/12 46/46/46 3/3/3
f 3/3/3 48/48/48 1/1/1
f 3/3/3 47/47/47 48/48/48
f 47/47/47 13/13/13 48/48/48
f 48/48/48 13/13/13 1/1/1
f 49/49/49 15/15/15 13/13/13
f 47/47/47 49/49/49 13/13/13
f 1/1/1 13/13/13 50/50/50
f 50/50/50 13/13/13 7/7/7
f 50/50/50 7/7/7 6/6/6
f 1/1/1 50/50/50 6/6/6
f 6/6/6 51/51/51 1/1/1
f 6/6/6 10/10/10 51/51/51
f 10/10/10 4/4/4 51/51/51
f 51/51/51 4/4/4 1/1/1
f 52/52/52 53/53/53 4/4/4
f 10/10/10 52/52/52 4/4/4
f 4/4/4 54/54/54 5/5/5
f 4/4/4 53/53/53 54/54/54
g int1091
s 1
f 55/55/55 56/56/56 57/57/57
f 56/56/56 58/58/58 57/57/57
f 59/59/59 56/56/56 55/55/55
f 60/60/60 61/61/61 62/62/62
f 63/63/63 60/60/60 62/62/62
f 63/63/63 62/62/62 64/64/64
f 60/60/60 65/65/65 61/61/61
f 66/66/66 67/67/67 68/68/68
f 66/66/66 68/68/68 60/60/60
f 60/60/60 68/68/68 65/65/65
f 68/68/68 67/67/67 65/65/65
f 58/58/58 69/69/69 70/70/70
f 69/69/69 59/59/59 70/70/70
f 59/59/59 69/69/69 56/56/56
f 69/69/69 58/58/58 56/56/56
f 57/57/57 71/71/71 72/72/72
f 57/57/57 72/72/72 73/73/73
f 73/73/73 72/72/72 74/74/74
f 72/72/72 71/71/71 74/74/74
f 75/75/75 76/76/76 77/77/77
f 75/75/75 77/77/77 78/78/78
f 79/79/79 73/73/73 80/80/80
f 78/78/78 77/77/77 81/81/81
f 82/82/82 79/79/79 83/83/83
f 84/84/84 66/66/66 60/60/60
f 77/77/77 76/76/76 81/81/81
f 85/85/85 67/67/67 66/66/66
f 86/86/86 87/87/87 88/88/88
f 89/89/89 87/87/87 86/86/86
f 55/55/55 57/57/57 73/73/73
f 90/90/90 89/89/89 86/86/86
f 57/57/57 58/58/58 71/71/71
f 84/84/84 60/60/60 63/63/63
f 90/90/90 86/86/86 88/88/88
f 78/78/78 63/63/63 64/64/64
f 91/91/91 88/88/88 92/92/92
f 91/91/91 92/92/92 93/93/93
f 94/94/94 95/95/95 96/96/96
f 92/92/92 97/97/97 93/93/93
f 95/95/95 98/98/98 99/99/99
f 88/88/88 97/97/97 92/92/92
f 100/100/100 101/101/101 94/94/94
f 95/95/95 99/99/99 102/102/102
f 95/95/95 102/102/102 96/96/96
f 73/73/73 74/74/74 80/80/80
f 83/83/83 103/103/103 75/75/75
f 103/103/103 80/80/80 75/75/75
f 80/80/80 74/74/74 76/76/76
f 55/55/55 73/73/73 104/104/104
f 79/79/79 80/80/80 103/103/103
f 105/105/105 104/104/104 82/82/82
f 105/105/105 55/55/55 104/104/104
f 59/59/59 106/106/106 107/107/107
f 79/79/79 103/103/103 83/83/83
f 108/108/108 90/90/90 88/88/88
f 109/109/109 89/89/89 90/90/90
f 109/109/109 90/90/90 108/108/108
f 110/110/110 85/85/85 111/111/111
f 110/110/110 111/111/111 84/84/84
f 84/84/84 111/111/111 66/66/66
f 111/111/111 85/85/85 66/66/66
f 112/112/112 113/113/113 91/91/91
f 113/113/113 108/108/108 91/91/91
f 94/94/94 96/96/96 114/114/114
f 115/115/115 94/94/94 114/114/114
f 115/115/115 114/114/114 116/116/116
f 117/117/117 118/118/118 119/119/119
f 117/117/117 119/119/119 120/120/120
f 70/70/70 121/121/121 122/122/122
f 70/70/70 107/107/107 121/121/121
f 120/120/120 119/119/119 123/123/123
f 119/119/119 118/118/118 123/123/123
f 96/96/96 124/124/124 118/118/118
f 100/100/100 125/125/125 126/126/126
f 87/87/87 127/127/127 128/128/128
f 87/87/87 129/129/129 127/127/127
f 130/130/130 125/125/125 115/115/115
f 125/125/125 100/100/100 115/115/115
f 98/98/98 101/101/101 131/131/131
f 98/98/98 131/131/131 132/132/132
f 94/94/94 133/133/133 95/95/95
f 133/133/133 98/98/98 95/95/95
f 101/101/101 98/98/98 133/133/133
f 101/101/101 133/133/133 94/94/94
f 78/78/78 81/81/81 63/63/63
f 88/88/88 128/128/128 97/97/97
f 81/81/81 84/84/84 63/63/63
f 81/81/81 76/76/76 84/84/84
f 80/80/80 76/76/76 75/75/75
f 83/83/83 75/75/75 78/78/78
f 134/134/134 100/100/100 135/135/135
f 131/131/131 134/134/134 135/135/135
f 101/101/101 134/134/134 131/131/131
f 101/101/101 100/100/100 134/134/134
f 136/136/136 137/137/137 135/135/135
f 100/100/100 136/136/136 135/135/135
f 100/100/100 126/126/126 136/136/136
f 136/136/136 126/126/126 137/137/137
f 131/131/131 135/135/135 132/132/132
f 105/105/105 59/59/59 55/55/55
f 135/135/135 137/137/137 132/132/132
f 138/138/138 105/105/105 82/82/82
f 124/124/124 99/99/99 139/139/139
f 70/70/70 59/59/59 107/107/107
f 139/139/139 99/99/99 123/123/123
f 58/58/58 70/70/70 122/122/122
f 140/140/140 141/141/141 109/109/109
f 112/112/112 140/140/140 113/113/113
f 141/141/141 142/142/142 109/109/109
f 142/142/142 99/99/99 109/109/109
f 123/123/123 99/99/99 142/142/142
f 123/123/123 142/142/142 141/141/141
f 113/113/113 143/143/143 108/108/108
f 143/143/143 109/109/109 108/108/108
f 140/140/140 109/109/109 143/143/143
f 140/140/140 143/143/143 113/113/113
f 123/123/123 141/141/141 144/144/144
f 123/123/123 144/144/144 112/112/112
f 112/112/112 144/144/144 140/140/140
f 144/144/144 141/141/141 140/140/140
f 118/118/118 124/124/124 139/139/139
f 118/118/118 139/139/139 123/123/123
f 96/96/96 102/102/102 124/124/124
f 102/102/102 99/99/99 124/124/124
f 120/120/120 123/123/123 112/112/112
f 116/116/116 145/145/145 117/117/117
f 145/145/145 96/96/96 117/117/117
f 117/117/117 96/96/96 118/118/118
f 114/114/114 96/96/96 145/145/145
f 116/116/116 117/117/117 120/120/120
f 114/114/114 145/145/145 116/116/116
f 115/115/115 100/100/100 94/94/94
f 76/76/76 146/146/146 110/110/110
f 130/130/130 115/115/115 116/116/116
f 146/146/146 71/71/71 110/110/110
f 74/74/74 71/71/71 146/146/146
f 74/74/74 146/146/146 76/76/76
f 138/138/138 147/147/147 105/105/105
f 108/108/108 88/88/88 91/91/91
f 147/147/147 59/59/59 105/105/105
f 112/112/112 91/91/91 93/93/93
f 59/59/59 147/147/147 106/106/106
f 76/76/76 110/110/110 84/84/84
f 147/147/147 138/138/138 106/106/106
f 71/71/71 85/85/85 110/110/110
f 82/82/82 148/148/148 79/79/79
f 148/148/148 73/73/73 79/79/79
f 104/104/104 73/73/73 148/148/148
f 99/99/99 89/89/89 109/109/109
f 104/104/104 148/148/148 82/82/82
f 87/87/87 128/128/128 88/88/88
f 125/125/125 130/130/130 149/149/149
f 89/89/89 129/129/129 87/87/87
f 125/125/125 149/149/149 126/126/126
f 62/62/62 61/61/61 150/150/150
f 62/62/62 150/150/150 64/64/64
