# Exported using wow.export v0.2.19
o darnassis_int91.obj
v -25.704357147216797 -0.5874971151351929 269.89154052734375
v -25.98643684387207 -0.5874974131584167 271.57720947265625
v -23.88398551940918 -0.5799026489257812 272.05419921875
v -28.08888816833496 -0.5950921773910522 271.1001892089844
v -27.524728775024414 -0.5950915813446045 267.7288818359375
v -25.422277450561523 -0.587496817111969 268.20587158203125
v -23.319826126098633 -0.5799020528793335 268.6828918457031
v -25.14019775390625 -0.5874965190887451 266.5202331542969
v -27.24264907836914 -0.5950912833213806 266.043212890625
v -21.499454498291016 -0.5723075866699219 270.8455505371094
v -21.21495819091797 -0.5723077058792114 269.14544677734375
v -19.110088348388672 -0.5647133588790894 269.6080017089844
v -20.930458068847656 -0.5723077654838562 267.4453430175781
v -20.64596176147461 -0.572307825088501 265.7452392578125
v -22.750831604003906 -0.5799022316932678 265.2826843261719
v -18.541091918945312 -0.5647134780883789 266.2077941894531
v -21.78153419494629 -0.5723079442977905 272.53118896484375
v -19.6790828704834 -0.564713180065155 273.0082092285156
v -23.945514678955078 -0.5836993455886841 265.9014587402344
v -24.855701446533203 -0.5874966382980347 264.82012939453125
v -26.050384521484375 -0.5912937521934509 265.43890380859375
v -26.960569381713867 -0.5950909852981567 264.3575744628906
v -19.515518188476562 6.806695461273193 269.57769775390625
v -20.090726852416992 6.808621883392334 273.0143737792969
v -21.708385467529297 6.800064563751221 270.86688232421875
v -23.32604217529297 6.791507244110107 268.7193908691406
v -23.896209716796875 6.793434143066406 272.1272277832031
v -21.133176803588867 6.79813814163208 267.4302062988281
v -18.940311431884766 6.804769039154053 266.1410217285156
v -22.750835418701172 6.789580821990967 265.28271484375
v -24.94369888305664 6.782949924468994 266.5718994140625
v -27.13152313232422 6.77631950378418 267.8322448730469
v -25.513866424560547 6.784876823425293 269.979736328125
v -24.656097412109375 6.781986713409424 264.85357666015625
v -26.846439361572266 6.775356292724609 266.1283264160156
v -27.416606903076172 6.77728271484375 269.5361633300781
v -25.7989501953125 6.785840034484863 271.68365478515625
v -26.607778549194336 6.781561374664307 270.60992431640625
v -27.701690673828125 6.77824592590332 271.2400817871094
v -25.75252914428711 6.7786712646484375 265.4981689453125
v -26.561357498168945 6.774392604827881 264.4244079589844
v -19.844669342041016 1.2786201238632202 273.38427734375
v -20.833799362182617 0.5835727453231812 273.0047607421875
v -21.905723571777344 0.8101920485496521 272.8132629394531
v -23.966777801513672 0.341763973236084 272.24224853515625
v -21.97299575805664 1.7318580150604248 272.9085693359375
v -24.867168426513672 -0.1269037127494812 264.7353820800781
v -22.77376937866211 0.34128355979919434 265.1131896972656
v -24.886852264404297 0.33368921279907227 264.6997375488281
v -26.960569381713867 -0.5950909852981567 264.3575744628906
v -22.750831604003906 -0.5799022316932678 265.2826843261719
v -18.58696746826172 1.2776581048965454 265.8688049316406
v -20.680368423461914 0.8094708323478699 265.4909973144531
v -19.62220001220703 0.5829715728759766 265.7646484375
v -20.65743064880371 -0.11171495914459229 265.6604919433594
v -20.719738006591797 1.7306567430496216 265.4197082519531
v -21.82292938232422 -0.11147460341453552 272.625244140625
v -26.06147003173828 0.33416885137557983 271.7188720703125
v -26.02783203125 -0.12666410207748413 271.67120361328125
v -28.08888816833496 -0.5950921773910522 271.1001892089844
v -23.88398551940918 -0.5799026489257812 272.05419921875
v -26.685962677001953 3.0896482467651367 263.9427795410156
v -24.660377502441406 3.5578365325927734 264.4193115234375
v -26.6038761138916 4.93202018737793 264.06536865234375
v -22.67583465576172 3.1048390865325928 264.8345031738281
v -22.634790420532227 4.02602481842041 264.89581298828125
v -23.8760929107666 5.871766090393066 272.313720703125
v -21.963294982910156 5.418525695800781 272.85052490234375
v -23.840450286865234 4.950098991394043 272.407470703125
v -20.050495147705078 4.965285778045654 273.3873596191406
v -22.6135311126709 4.947211265563965 265.0753173828125
v -18.783220291137695 4.962398052215576 265.81536865234375
v -20.727754592895508 5.415396690368652 265.4676208496094
v -22.67228889465332 5.8683953285217285 265.119873046875
v -21.909832000732422 4.036025524139404 272.99114990234375
v -19.979211807250977 3.1219520568847656 273.5748596191406
v -23.920188903808594 4.028430938720703 272.5772705078125
v -20.639617919921875 4.033620834350586 265.4007568359375
v -18.66570472717285 3.120029926300049 265.7262268066406
v -24.01698875427246 2.18509578704834 272.54229736328125
v -22.006629943847656 2.192690849304199 272.9561767578125
v -24.03404998779297 1.263429880142212 272.3375244140625
v -22.81313705444336 1.2624694108963013 265.0419006347656
v -20.739421844482422 2.1912496089935303 265.3840637207031
v -24.619333267211914 4.47902250289917 264.4805908203125
v -22.73626708984375 2.18365478515625 264.88909912109375
v -18.861766815185547 5.8835835456848145 265.97821044921875
v -18.940311431884766 6.804769039154053 266.1410217285156
v -19.834033966064453 6.110082626342773 265.8043212890625
v -21.02701187133789 6.113574028015137 272.93243408203125
v -20.07061004638672 5.886953830718994 273.20086669921875
v -20.090726852416992 6.808621883392334 273.0143737792969
v -20.64596176147461 -0.572307825088501 265.7452392578125
v -19.599262237548828 -0.3382142186164856 265.93414306640625
v -18.541091918945312 -0.5647134780883789 266.2077941894531
v -18.564029693603516 0.35647231340408325 266.0382995605469
v -19.76187515258789 0.356953501701355 273.19622802734375
v -19.6790828704834 -0.564713180065155 273.0082092285156
v -20.751007080078125 -0.3380938768386841 272.81671142578125
v -21.78153419494629 -0.5723079442977905 272.53118896484375
v -25.788890838623047 6.325006008148193 271.77691650390625
v -25.7989501953125 6.785840034484863 271.68365478515625
v -23.896209716796875 6.793434143066406 272.1272277832031
v -27.701690673828125 6.77824592590332 271.2400817871094
v -24.616823196411133 6.321393966674805 264.77215576171875
v -24.656097412109375 6.781986713409424 264.85357666015625
v -26.561357498168945 6.774392604827881 264.4244079589844
v -22.750835418701172 6.789580821990967 265.28271484375
v -25.98643684387207 -0.5874974131584167 271.57720947265625
v -24.855701446533203 -0.5874966382980347 264.82012939453125
v -20.80630111694336 6.336582183837891 265.63043212890625
v -24.587444305419922 5.860801696777344 264.7498779296875
v -25.77107048034668 5.864172458648682 271.82379150390625
v -21.983409881591797 6.340193748474121 272.6640625
v -20.700984954833984 2.6518423557281494 265.30767822265625
v -21.99810028076172 2.6535239219665527 273.05859375
v -23.98440170288086 3.106764316558838 272.6542663574219
v -24.60870361328125 4.939615726470947 264.5703430175781
v -25.595661163330078 5.396410942077637 264.4076232910156
v -28.054765701293945 1.2482397556304932 271.50970458984375
v -27.861164093017578 4.934910297393799 271.57965087890625
v -26.80683135986328 1.2472797632217407 264.0519714355469
v -27.989593505859375 3.091576337814331 271.7336730957031
v -26.035877227783203 1.7166677713394165 272.0260009765625
v -25.954891204833984 3.5600037574768066 272.15545654296875
v -24.771549224853516 1.7154672145843506 264.47052001953125
vn 0.09603402018547058 0.9191959500312805 -0.38191142678260803
vn 0.1781199425458908 0.6201898455619812 -0.7639620304107666
vn 0.16498693823814392 0.6770367622375488 -0.7172171473503113
vn 0.19025737047195435 0.5598764419555664 -0.8064368963241577
vn 0.014727316796779633 0.9996597170829773 0.021529024466872215
vn -0.007030244916677475 0.9956322908401489 0.09309685230255127
vn -0.02874835580587387 0.9860177040100098 0.16414226591587067
vn -0.1112547367811203 0.8310684561729431 0.5449289083480835
vn -0.09071763604879379 0.8701602816581726 0.4843463599681854
vn 0.058812424540519714 0.9676100611686707 -0.24550312757492065
vn -0.01595696061849594 0.9960339069366455 0.08753155916929245
vn -0.003067701356485486 0.9999414086341858 0.010384022258222103
vn -0.08784963935613632 0.9076091051101685 0.41052186489105225
vn -0.1505650132894516 0.7127116918563843 0.6851074695587158
vn -0.15943643450737 0.6557015180587769 0.7379941940307617
vn -0.14077125489711761 0.7653558254241943 0.6280238032341003
vn 0.15093182027339935 0.7300997972488403 -0.6664637923240662
vn 0.1360331028699875 0.7790821194648743 -0.6119853854179382
vn -0.13655170798301697 0.7500095963478088 0.6471779346466064
vn -0.16733117401599884 0.5946746468544006 0.7863602042198181
vn -0.1459718495607376 0.6960045695304871 0.7030432224273682
vn -0.1742008775472641 0.5300049185752869 0.8299089670181274
vn 0.006718246266245842 -0.9999755620956421 0.0019360448932275176
vn 0.1475023627281189 -0.7710058689117432 -0.6195103526115417
vn 0.07112477719783783 -0.9648380279541016 -0.2530389428138733
vn -0.01789207197725773 -0.987213134765625 0.15839889645576477
vn 0.1771603524684906 -0.6645468473434448 -0.7259420156478882
vn -0.08034630864858627 -0.9109183549880981 0.4046877920627594
vn -0.13714580237865448 -0.7705135941505432 0.6224948763847351
vn -0.15610647201538086 -0.6600036025047302 0.7348647117614746
vn -0.10372941195964813 -0.8341546654701233 0.5416883826255798
vn 0.029292482882738113 -0.999492883682251 0.012485295534133911
vn 0.11030469834804535 -0.9132510423660278 -0.39218035340309143
vn -0.16413776576519012 -0.5983203649520874 0.7842649221420288
vn -0.08087587356567383 -0.8737289309501648 0.47964248061180115
vn 0.13224934041500092 -0.8791922926902771 -0.45774564146995544
vn 0.19046536087989807 -0.6052790880203247 -0.7728908658027649
vn 0.1632496416568756 -0.7593538165092468 -0.6298661231994629
vn 0.20264779031276703 -0.5424438118934631 -0.8152843713760376
vn -0.1405898481607437 -0.6992167234420776 0.7009497880935669
vn -0.17113342881202698 -0.5328620672225952 0.8287166953086853
vn 0.2281617522239685 0.16566520929336548 -0.9594255089759827
vn 0.21036294102668762 0.39089837670326233 -0.896072506904602
vn 0.22239595651626587 0.2699909210205078 -0.9368270039558411
vn 0.21408869326114655 0.3712312877178192 -0.9035227298736572
vn 0.2229355424642563 0.19446778297424316 -0.9552392363548279
vn -0.18462151288986206 0.4340510666370392 0.8817678093910217
vn -0.19282574951648712 0.33288639783859253 0.923041045665741
vn -0.19062045216560364 0.40715548396110535 0.8932458758354187
vn -0.1742008775472641 0.5300049185752869 0.8299089670181274
vn -0.15943643450737 0.6557015180587769 0.7379941940307617
vn -0.2022188901901245 0.11983061581850052 0.9719815850257874
vn -0.19871510565280914 0.22772543132305145 0.9532331228256226
vn -0.19321586191654205 0.35489964485168457 0.9147206544876099
vn -0.17288705706596375 0.5691654086112976 0.8038412928581238
vn -0.20778019726276398 0.1696181297302246 0.9633572101593018
vn 0.18098145723342896 0.5946084856987 -0.7833813428878784
vn 0.2054901272058487 0.43357089161872864 -0.8773767948150635
vn 0.20333485305309296 0.4682292938232422 -0.8598931431770325
vn 0.19025737047195435 0.5598764419555664 -0.8064368963241577
vn 0.16498693823814392 0.6770367622375488 -0.7172171473503113
vn -0.21708551049232483 0.008379864506423473 0.9761165976524353
vn -0.2203456312417984 -0.0249958336353302 0.9751015901565552
vn -0.22909152507781982 -0.1179894506931305 0.9662274718284607
vn -0.216949924826622 0.004947363864630461 0.9761703014373779
vn -0.22335770726203918 -0.058343395590782166 0.9729889035224915
vn 0.2251073718070984 -0.3487582802772522 -0.9097771048545837
vn 0.23242101073265076 -0.24517187476158142 -0.9412072896957397
vn 0.22288143634796143 -0.27744656801223755 -0.93453049659729
vn 0.23699873685836792 -0.1386994570493698 -0.9615581631660461
vn -0.20193976163864136 -0.27658581733703613 0.9395320415496826
vn -0.2025812566280365 -0.12388823181390762 0.9713972210884094
vn -0.19818879663944244 -0.2315302938222885 0.9524258375167847
vn -0.19142483174800873 -0.33640187978744507 0.9220577478408813
vn 0.2259516417980194 -0.13461236655712128 -0.9647929668426514
vn 0.2242029905319214 0.011092720553278923 -0.9744793176651001
vn 0.21837224066257477 -0.06744761019945145 -0.9735319018363953
vn -0.21147194504737854 -0.13891246914863586 0.9674620628356934
vn -0.21681173145771027 0.0015148046659305692 0.9762122631072998
vn 0.21752387285232544 0.08565153181552887 -0.9722896814346313
vn 0.22264492511749268 0.15623684227466583 -0.9622989296913147
vn 0.21636289358139038 0.29806599020957947 -0.9297009110450745
vn -0.2033470869064331 0.27641814947128296 0.9392778277397156
vn -0.2121342569589615 0.14032575488090515 0.9671131372451782
vn -0.22632752358913422 -0.08820652961730957 0.970049262046814
vn -0.2225445955991745 0.06350748240947723 0.9728518128395081
vn -0.1827477365732193 -0.4811212718486786 0.8573946952819824
vn -0.13714580237865448 -0.7705135941505432 0.6224948763847351
vn -0.17681260406970978 -0.5283498167991638 0.8304118514060974
vn 0.19988222420215607 -0.5346232652664185 -0.8211122155189514
vn 0.20625703036785126 -0.4879911243915558 -0.8481289148330688
vn 0.1475023627281189 -0.7710058689117432 -0.6195103526115417
vn -0.1505650132894516 0.7127116918563843 0.6851074695587158
vn -0.15822841227054596 0.6732140779495239 0.7223202586174011
vn -0.14077125489711761 0.7653558254241943 0.6280238032341003
vn -0.1843603104352951 0.4757956862449646 0.8600173592567444
vn 0.1948229968547821 0.5053846836090088 -0.840613067150116
vn 0.1360331028699875 0.7790821194648743 -0.6119853854179382
vn 0.15981975197792053 0.692532479763031 -0.7034602761268616
vn 0.15093182027339935 0.7300997972488403 -0.6664637923240662
vn 0.2151438593864441 -0.4482392370700836 -0.8676373362541199
vn 0.19046536087989807 -0.6052790880203247 -0.7728908658027649
vn 0.1771603524684906 -0.6645468473434448 -0.7259420156478882
vn 0.20264779031276703 -0.5424438118934631 -0.8152843713760376
vn -0.18237024545669556 -0.43724802136421204 0.8806561231613159
vn -0.16413776576519012 -0.5983203649520874 0.7842649221420288
vn -0.17113342881202698 -0.5328620672225952 0.8287166953086853
vn -0.15610647201538086 -0.6600036025047302 0.7348647117614746
vn 0.1781199425458908 0.6201898455619812 -0.7639620304107666
vn -0.16733117401599884 0.5946746468544006 0.7863602042198181
vn -0.17038197815418243 -0.5739966630935669 0.8009356260299683
vn -0.1884041428565979 -0.4087758958339691 0.8929759860038757
vn 0.21505789458751678 -0.4143637418746948 -0.8843375444412231
vn 0.19289304316043854 -0.5796808004379272 -0.7916833162307739
vn -0.21978498995304108 0.032526955008506775 0.9750058650970459
vn 0.22101843357086182 0.048406075686216354 -0.9740676283836365
vn 0.22409136593341827 0.008870468474924564 -0.9745277762413025
vn -0.2162359058856964 -0.19794698059558868 0.9560643434524536
vn -0.21117927134037018 -0.2664504647254944 0.9404294490814209
vn 0.2096247673034668 0.1597299575805664 -0.9646469950675964
vn 0.21118684113025665 -0.14556953310966492 -0.9665452241897583
vn -0.2274123877286911 0.12525328993797302 0.9657096862792969
vn 0.22397860884666443 0.0066481721587479115 -0.9745714068412781
vn 0.21372419595718384 0.12277684360742569 -0.9691479802131653
vn 0.2213282734155655 -0.030420728027820587 -0.9747247695922852
vn -0.22508788108825684 0.09442628175020218 0.9697520136833191
vt 1.8762400150299072 1.589476227760315
vt 1.8701330423355103 1.3898484110832214
vt 2.310286521911621 1.3710397481918335
vt 1.4299795627593994 1.4086570739746094
vt 1.4421933889389038 1.8079127073287964
vt 1.8823468685150146 1.7891040444374084
vt 2.322500467300415 1.7702953815460205
vt 1.8884538412094116 1.988731861114502
vt 1.4483003616333008 2.007540464401245
vt 2.756546974182129 1.551858901977539
vt 2.7627062797546387 1.7531979084014893
vt 3.2029123306274414 1.736100435256958
vt 2.7688655853271484 1.9545369148254395
vt 2.775024890899658 2.1558759212493896
vt 2.3348188400268555 2.172973394393921
vt 3.215230703353882 2.1387784481048584
vt 2.7504401206970215 1.3522310853004456
vt 3.190593719482422 1.3334224224090576
vt 2.1116364002227783 2.0808526277542114
vt 1.8946130275726318 2.190070867538452
vt 1.6714305877685547 2.0979501008987427
vt 1.4544072151184082 2.2071683406829834
vt 0.499750018119812 0.0010836124420166016
vt 0 0.0008887052536010742
vt 0.24987512826919556 0.250541627407074
vt 0.4997502565383911 0.5001945495605469
vt 0.0002499222755432129 0.5001945495605469
vt 0.7496251463890076 0.2507365345954895
vt 0.999500036239624 0.001278519630432129
vt 0.9995002746582031 0.5003894567489624
vt 0.7496253848075867 0.7498474717140198
vt 0.5000001788139343 0.9995003938674927
vt 0.25012505054473877 0.7498474717140198
vt 0.9995003938674927 0.7499449253082275
vt 0.7497503757476807 0.9995003938674927
vt 0.2502500116825104 0.9995003938674927
vt 0.00037488341331481934 0.7498474717140198
vt 0.1253124475479126 0.8746739327907562
vt 0.0004998445510864258 0.9995003938674927
vt 0.8745629787445068 0.8746739327907562
vt 0.9995005130767822 0.9995003938674927
vt 0 0.25025004148483276
vt 0.125 0.15659373998641968
vt 0.25 0.1878124475479126
vt 0.5 0.12537479400634766
vt 0.25 0.31268739700317383
vt 0.75 0.06290513277053833
vt 0.5 0.12531006336212158
vt 0.75 0.12531006336212158
vt 1 0.0005002021789550781
vt 0.5 0.0005001425743103027
vt 0 0.2501199245452881
vt 0.25 0.18771499395370483
vt 0.125 0.15651249885559082
vt 0.25 0.06290507316589355
vt 0.25 0.3125249147415161
vt 0.25 0.06293743848800659
vt 0.75 0.12537473440170288
vt 0.75 0.06293720006942749
vt 1 0.0004996061325073242
vt 0.5 0.0004998445510864258
vt 1 0.49973928928375244
vt 0.75 0.5621443390846252
vt 1 0.7493590712547302
vt 0.5 0.49973952770233154
vt 0.5 0.6245494186878204
vt 0.5 0.8746254742145538
vt 0.25 0.8121879249811172
vt 0.5 0.7497503161430359
vt 0 0.7497503757476807
vt 0.5 0.7493593096733093
vt 0 0.7493592500686646
vt 0.25 0.8117641508579254
vt 0.5 0.8741690516471863
vt 0.25 0.6248751878738403
vt 0 0.5000000596046448
vt 0.5 0.6248751580715179
vt 0.25 0.62454953789711
vt 0 0.49973976612091064
vt 0.5 0.3751249313354492
vt 0.25 0.3751249313354492
vt 0.5 0.25024986267089844
vt 0.5 0.25011998414993286
vt 0.25 0.37492990493774414
vt 0.75 0.6869542598724365
vt 0.5 0.3749297261238098
vt 0 0.8741690516471863
vt 0 0.998978853225708
vt 0.125 0.9053715020418167
vt 0.125 0.9058442488312721
vt 0 0.8746254742145538
vt 0 0.999500572681427
vt 0.25 0.0005000829696655273
vt 0.125 0.03170257806777954
vt 0 0.0005000829696655273
vt 0 0.1253100037574768
vt 0 0.12537503242492676
vt 0 0.0005000829696655273
vt 0.125 0.03171873092651367
vt 0.25 0.0004999637603759766
vt 0.75 0.9370630234479904
vt 0.75 0.999500572681427
vt 0.5 0.999500572681427
vt 1 0.999500572681427
vt 0.75 0.9365739524364471
vt 0.75 0.998978853225708
vt 1 0.998978853225708
vt 0.5 0.998978853225708
vt 0.75 0.000499725341796875
vt 0.75 0.0005002021789550781
vt 0.25 0.9365739524364471
vt 0.75 0.8741690814495087
vt 0.75 0.8746254444122314
vt 0.25 0.9370630234479904
vt 0.25 0.4373347759246826
vt 0.25 0.4375624656677246
vt 0.5 0.5000001192092896
vt 0.75 0.7493591904640198
vt 0.875 0.8117640763521194
vt 1 0.25024986267089844
vt 1 0.7497502565383911
vt 1 0.250119686126709
vt 1 0.5000001788139343
vt 0.75 0.31268739700317383
vt 0.75 0.5624376535415649
vt 0.75 0.312524676322937
g int910
s 1
f 1/1/1 2/2/2 3/3/3
f 1/1/1 4/4/4 2/2/2
f 5/5/5 1/1/1 6/6/6
f 6/6/6 1/1/1 7/7/7
f 8/8/8 6/6/6 7/7/7
f 8/8/8 5/5/5 6/6/6
f 9/9/9 5/5/5 8/8/8
f 10/10/10 11/11/11 7/7/7
f 10/10/10 12/12/12 11/11/11
f 12/12/12 13/13/13 11/11/11
f 11/11/11 13/13/13 7/7/7
f 13/13/13 14/14/14 15/15/15
f 13/13/13 16/16/16 14/14/14
f 7/7/7 13/13/13 15/15/15
f 10/10/10 17/17/17 18/18/18
f 10/10/10 3/3/3 17/17/17
f 12/12/12 16/16/16 13/13/13
f 18/18/18 12/12/12 10/10/10
f 7/7/7 3/3/3 10/10/10
f 5/5/5 4/4/4 1/1/1
f 7/7/7 1/1/1 3/3/3
f 8/8/8 19/19/19 20/20/20
f 19/19/19 15/15/15 20/20/20
f 7/7/7 15/15/15 19/19/19
f 7/7/7 19/19/19 8/8/8
f 21/21/21 20/20/20 22/22/22
f 8/8/8 20/20/20 21/21/21
f 21/21/21 9/9/9 8/8/8
f 22/22/22 9/9/9 21/21/21
g int911
s 1
f 23/23/23 24/24/24 25/25/25
f 23/23/23 25/25/25 26/26/26
f 27/27/27 26/26/26 25/25/25
f 27/27/27 25/25/25 24/24/24
f 28/28/28 23/23/23 26/26/26
f 29/29/29 23/23/23 28/28/28
f 29/29/29 28/28/28 30/30/30
f 28/28/28 26/26/26 30/30/30
f 30/30/30 26/26/26 31/31/31
f 32/32/32 31/31/31 26/26/26
f 33/33/33 32/32/32 26/26/26
f 33/33/33 26/26/26 27/27/27
f 30/30/30 31/31/31 34/34/34
f 32/32/32 35/35/35 31/31/31
f 36/36/36 32/32/32 33/33/33
f 37/37/37 33/33/33 27/27/27
f 38/38/38 33/33/33 37/37/37
f 39/39/39 38/38/38 37/37/37
f 39/39/39 36/36/36 38/38/38
f 38/38/38 36/36/36 33/33/33
f 35/35/35 40/40/40 31/31/31
f 35/35/35 41/41/41 40/40/40
f 34/34/34 40/40/40 41/41/41
f 34/34/34 31/31/31 40/40/40
g int912
s 1
f 42/42/42 43/43/43 44/44/44
f 44/44/44 43/43/43 45/45/45
f 46/46/46 44/44/44 45/45/45
f 46/46/46 42/42/42 44/44/44
f 47/47/47 48/48/48 49/49/49
f 50/50/50 47/47/47 49/49/49
f 48/48/48 47/47/47 51/51/51
f 52/52/52 53/53/53 54/54/54
f 54/54/54 53/53/53 55/55/55
f 53/53/53 52/52/52 56/56/56
f 48/48/48 53/53/53 56/56/56
f 53/53/53 48/48/48 55/55/55
f 43/43/43 57/57/57 45/45/45
f 58/58/58 59/59/59 60/60/60
f 58/58/58 45/45/45 59/59/59
f 45/45/45 61/61/61 59/59/59
f 62/62/62 63/63/63 64/64/64
f 63/63/63 65/65/65 66/66/66
f 62/62/62 65/65/65 63/63/63
f 67/67/67 68/68/68 69/69/69
f 68/68/68 70/70/70 69/69/69
f 71/71/71 72/72/72 73/73/73
f 71/71/71 73/73/73 74/74/74
f 75/75/75 70/70/70 76/76/76
f 69/69/69 70/70/70 75/75/75
f 69/69/69 75/75/75 77/77/77
f 75/75/75 76/76/76 77/77/77
f 78/78/78 72/72/72 71/71/71
f 79/79/79 72/72/72 78/78/78
f 66/66/66 79/79/79 78/78/78
f 66/66/66 78/78/78 71/71/71
f 80/80/80 81/81/81 82/82/82
f 81/81/81 46/46/46 82/82/82
f 76/76/76 46/46/46 81/81/81
f 83/83/83 56/56/56 84/84/84
f 84/84/84 56/56/56 79/79/79
f 85/85/85 66/66/66 71/71/71
f 63/63/63 66/66/66 85/85/85
f 63/63/63 85/85/85 64/64/64
f 83/83/83 84/84/84 86/86/86
f 87/87/87 88/88/88 89/89/89
f 72/72/72 87/87/87 89/89/89
f 70/70/70 90/90/90 91/91/91
f 91/91/91 90/90/90 92/92/92
f 55/55/55 93/93/93 94/94/94
f 94/94/94 93/93/93 95/95/95
f 54/54/54 94/94/94 95/95/95
f 54/54/54 55/55/55 94/94/94
f 52/52/52 54/54/54 96/96/96
f 96/96/96 54/54/54 95/95/95
f 97/97/97 98/98/98 43/43/43
f 42/42/42 97/97/97 43/43/43
f 99/99/99 98/98/98 100/100/100
f 57/57/57 99/99/99 100/100/100
f 43/43/43 99/99/99 57/57/57
f 43/43/43 98/98/98 99/99/99
f 101/101/101 102/102/102 103/103/103
f 101/101/101 104/104/104 102/102/102
f 105/105/105 106/106/106 107/107/107
f 105/105/105 108/108/108 106/106/106
f 59/59/59 109/109/109 60/60/60
f 59/59/59 61/61/61 109/109/109
f 47/47/47 110/110/110 51/51/51
f 47/47/47 50/50/50 110/110/110
f 55/55/55 51/51/51 93/93/93
f 57/57/57 100/100/100 61/61/61
f 89/89/89 88/88/88 111/111/111
f 73/73/73 89/89/89 111/111/111
f 72/72/72 89/89/89 73/73/73
f 112/112/112 105/105/105 107/107/107
f 112/112/112 74/74/74 105/105/105
f 74/74/74 108/108/108 105/105/105
f 73/73/73 111/111/111 74/74/74
f 111/111/111 88/88/88 108/108/108
f 74/74/74 111/111/111 108/108/108
f 101/101/101 67/67/67 113/113/113
f 104/104/104 101/101/101 113/113/113
f 67/67/67 101/101/101 103/103/103
f 90/90/90 114/114/114 92/92/92
f 90/90/90 67/67/67 114/114/114
f 67/67/67 103/103/103 114/114/114
f 114/114/114 103/103/103 92/92/92
f 68/68/68 67/67/67 90/90/90
f 70/70/70 68/68/68 90/90/90
f 84/84/84 115/115/115 86/86/86
f 84/84/84 79/79/79 115/115/115
f 115/115/115 79/79/79 65/65/65
f 86/86/86 115/115/115 65/65/65
f 116/116/116 76/76/76 81/81/81
f 80/80/80 116/116/116 81/81/81
f 117/117/117 116/116/116 80/80/80
f 117/117/117 76/76/76 116/116/116
f 64/64/64 118/118/118 119/119/119
f 119/119/119 118/118/118 112/112/112
f 119/119/119 112/112/112 107/107/107
f 64/64/64 119/119/119 107/107/107
f 64/64/64 85/85/85 118/118/118
f 118/118/118 85/85/85 71/71/71
f 118/118/118 71/71/71 112/112/112
f 120/120/120 58/58/58 60/60/60
f 120/120/120 82/82/82 58/58/58
f 82/82/82 45/45/45 58/58/58
f 104/104/104 113/113/113 121/121/121
f 113/113/113 69/69/69 121/121/121
f 83/83/83 48/48/48 56/56/56
f 113/113/113 67/67/67 69/69/69
f 56/56/56 52/52/52 79/79/79
f 46/46/46 45/45/45 82/82/82
f 76/76/76 42/42/42 46/46/46
f 48/48/48 51/51/51 55/55/55
f 45/45/45 57/57/57 61/61/61
f 69/69/69 77/77/77 121/121/121
f 71/71/71 74/74/74 112/112/112
f 50/50/50 49/49/49 122/122/122
f 49/49/49 83/83/83 122/122/122
f 49/49/49 48/48/48 83/83/83
f 123/123/123 80/80/80 124/124/124
f 123/123/123 124/124/124 120/120/120
f 120/120/120 124/124/124 82/82/82
f 124/124/124 80/80/80 82/82/82
f 123/123/123 117/117/117 80/80/80
f 77/77/77 76/76/76 117/117/117
f 121/121/121 77/77/77 125/125/125
f 121/121/121 125/125/125 123/123/123
f 125/125/125 117/117/117 123/123/123
f 77/77/77 117/117/117 125/125/125
f 122/122/122 126/126/126 62/62/62
f 126/126/126 86/86/86 62/62/62
f 83/83/83 86/86/86 126/126/126
f 83/83/83 126/126/126 122/122/122
f 86/86/86 65/65/65 62/62/62
f 65/65/65 79/79/79 66/66/66
