# Exported using wow.export v0.2.19
o darnassis_Den04.obj
v -341.14031982421875 -49.89677810668945 59.99482727050781
v -339.4515075683594 -52.25364685058594 60.75896453857422
v -339.4423828125 -51.34197235107422 60.77471160888672
v -337.7444152832031 -52.78716278076172 61.55459213256836
v -339.0494384765625 -50.306297302246094 61.451194763183594
v -334.70355224609375 -51.22058868408203 69.80494689941406
v -334.18865966796875 -52.748558044433594 67.67657470703125
v -334.7056884765625 -52.13248062133789 69.80122375488281
v -335.2184143066406 -49.69261932373047 71.9333267211914
v -335.103759765625 -50.20421600341797 69.11588287353516
v -337.7626953125 -54.61051940917969 61.52310562133789
v -336.9585876464844 -57.06706619262695 62.90755844116211
v -335.1726989746094 -56.41878128051758 62.19609451293945
v -335.8414611816406 -54.38798522949219 60.80840301513672
v -334.4860534667969 -52.78706359863281 58.94356155395508
v -335.7821960449219 -52.9044189453125 60.7606086730957
v -334.7043151855469 -54.09950256347656 69.80047607421875
v -335.21563720703125 -53.62666320800781 71.93182373046875
v -334.1929931640625 -54.57234191894531 67.66912078857422
v -334.70294189453125 -56.0665283203125 69.79972839355469
v -336.9462890625 -48.70737075805664 65.31812286376953
v -339.0433044433594 -49.30207443237305 62.65647506713867
v -336.9585876464844 -50.71581268310547 62.90756607055664
v -334.9891052246094 -50.7158088684082 66.2984390258789
v -336.08233642578125 -49.19999694824219 68.62572479248047
v -334.1929931640625 -54.57234191894531 67.66912078857422
v -334.18865966796875 -52.748558044433594 67.67657470703125
v -332.5602111816406 -54.4944953918457 66.47126770019531
v -330.5838623046875 -53.0246696472168 65.84967803955078
v -330.5885925292969 -54.84940719604492 65.84127807617188
v -332.64251708984375 -53.00983428955078 66.47286987304688
v -337.7444152832031 -52.78716278076172 61.55459213256836
v -334.5061340332031 -54.61041259765625 58.90803909301758
v -333.3268127441406 -56.4946403503418 65.30322265625
v -331.050048828125 -57.06695556640625 65.0246353149414
v -337.7626953125 -54.61051940917969 61.52310562133789
v -339.28619384765625 -57.56304931640625 61.58010482788086
v -336.9585876464844 -57.06706619262695 62.90755844116211
v -341.3993835449219 -53.27475357055664 60.1361083984375
v -334.9891052246094 -57.06705856323242 66.2984390258789
v -335.42303466796875 -57.56304931640625 68.23746490478516
v -339.7105712890625 -55.631622314453125 60.900245666503906
v -341.658447265625 -56.65272903442383 60.27738571166992
v -334.9891052246094 -57.06705856323242 66.2984390258789
v -335.212890625 -57.56071090698242 71.93032836914062
v -334.03277587890625 -57.06695556640625 59.74584197998047
v -342.6290588378906 -56.87714385986328 73.64478302001953
v -343.5998840332031 -57.04804229736328 74.08489990234375
v -343.50469970703125 -57.38982009887695 75.1974868774414
v -344.5707092285156 -57.21894454956055 74.52500915527344
v -344.5133361816406 -57.12974548339844 73.24262237548828
v -346.3976135253906 -57.38234329223633 72.84046173095703
v -345.4841613769531 -57.30064392089844 73.6827392578125
v -346.4549865722656 -57.47154235839844 74.12284851074219
v -347.5854797363281 -57.56074142456055 73.43590545654297
v -347.5404357910156 -57.47154235839844 71.80828857421875
v -348.6585998535156 -57.56073760986328 71.46656799316406
v -346.5123596191406 -57.56074523925781 75.40524291992188
v -334.9891052246094 -57.06705856323242 66.2984390258789
v -335.1726989746094 -56.41878128051758 62.19609451293945
v -336.9585876464844 -57.06706619262695 62.90755844116211
v -334.03277587890625 -57.06695556640625 59.74584197998047
v -332.4456481933594 -57.06695556640625 62.55476760864258
v -348.5685119628906 -57.38234329223633 68.21133422851562
v -349.1601257324219 -56.65274429321289 64.36771392822266
v -350.8048400878906 -57.56072998046875 67.52789306640625
v -333.3268127441406 -56.4946403503418 65.30322265625
v -331.050048828125 -57.06695556640625 65.0246353149414
v -342.53387451171875 -57.21891784667969 74.75736999511719
v -342.4386901855469 -57.56069564819336 75.86996459960938
v -341.153076171875 -57.21615982055664 74.0042724609375
v -344.47552490234375 -57.56072235107422 75.63760375976562
v -347.4830627441406 -57.38234329223633 70.52589416503906
v -349.7317199707031 -57.560733795166016 69.49723052978516
v -341.248291015625 -56.87438201904297 72.89167785644531
v -339.86749267578125 -56.87162399291992 72.13858032226562
v -337.5401916503906 -57.21616744995117 72.03445434570312
v -338.8258056640625 -57.56070327758789 73.900146484375
v -335.212890625 -57.56071090698242 71.93032836914062
v -337.4182434082031 -57.38231658935547 70.80320739746094
v -336.91986083984375 -57.56304931640625 64.71176147460938
v -335.42303466796875 -57.56304931640625 68.23746490478516
v -334.9891052246094 -57.06705856323242 66.2984390258789
v -341.7958984375 -57.388427734375 74.93711853027344
v -340.63226318359375 -57.560699462890625 74.88505554199219
v -339.98944091796875 -57.388431549072266 73.95220947265625
v -345.5415344238281 -57.38984680175781 74.96512603759766
v -339.7290344238281 -57.560699462890625 74.3926010131836
v -341.53546142578125 -57.560699462890625 75.37751007080078
v -345.49395751953125 -57.560733795166016 75.52142333984375
v -336.9585876464844 -57.06706619262695 62.90755844116211
v -339.28619384765625 -57.56304931640625 61.58010482788086
v -343.45709228515625 -57.560707092285156 75.7537841796875
v -345.8553161621094 -51.03310775756836 57.54817199707031
v -346.4481201171875 -51.03313446044922 60.383487701416016
v -349.16033935546875 -51.03310775756836 59.35694885253906
v -345.388427734375 -51.03315734863281 62.314414978027344
v -343.73590087890625 -51.03315734863281 61.41002655029297
v -347.0409240722656 -51.03316116333008 63.21880340576172
v -348.10064697265625 -51.03313446044922 61.28787612915039
v -344.79559326171875 -51.03313446044922 59.47909927368164
v -334.9891052246094 -50.7158088684082 66.2984390258789
v -332.64251708984375 -53.00983428955078 66.47286987304688
v -334.18865966796875 -52.748558044433594 67.67657470703125
v -332.506591796875 -50.71571350097656 62.44679260253906
v -331.0500183105469 -50.71571350097656 65.02462005615234
v -333.386962890625 -51.32474899291992 65.15135192871094
v -330.5838623046875 -53.0246696472168 65.84967803955078
v -333.386962890625 -51.32474899291992 65.15135192871094
v -331.0500183105469 -50.71571350097656 65.02462005615234
v -337.7444152832031 -52.78716278076172 61.55459213256836
v -335.2083435058594 -51.24883270263672 62.03212356567383
v -336.9585876464844 -50.71581268310547 62.90756607055664
v -335.2083435058594 -51.24883270263672 62.03212356567383
v -335.0987243652344 -50.982322692871094 64.165283203125
v -334.0327453613281 -50.71571350097656 59.7458381652832
v -335.7821960449219 -52.9044189453125 60.7606086730957
v -334.4860534667969 -52.78706359863281 58.94356155395508
v -334.9891052246094 -50.7158088684082 66.2984390258789
v -346.21466064453125 -51.03315734863281 62.76660919189453
v -336.9585876464844 -50.71581268310547 62.90756607055664
v -335.2083435058594 -51.24883270263672 62.03212356567383
v -334.0327453613281 -50.71571350097656 59.7458381652832
v -335.0145263671875 -53.36415481567383 65.25322723388672
v -334.8176574707031 -52.4878044128418 65.19365692138672
v -334.8011779785156 -52.5374641418457 65.3304443359375
v -334.94580078125 -52.556396484375 65.23860931396484
v -335.0145263671875 -53.36415481567383 65.25322723388672
v -334.8011779785156 -52.5374641418457 65.3304443359375
v -334.94580078125 -52.556396484375 65.23860931396484
v -335.1126708984375 -52.22499084472656 65.45853424072266
v -335.1046447753906 -52.27145004272461 65.62649536132812
v -335.2721252441406 -52.28141784667969 65.5285415649414
v -335.1046447753906 -52.27145004272461 65.62649536132812
v -335.2721252441406 -52.28141784667969 65.5285415649414
v -335.0674133300781 -51.68759536743164 65.16683959960938
v -335.0470275878906 -51.716800689697266 65.46980285644531
v -335.3419189453125 -51.77540588378906 65.2707290649414
v -335.0104064941406 -51.35593795776367 65.05661010742188
v -334.9915771484375 -51.44490432739258 65.16213989257812
v -335.1986389160156 -50.708675384521484 65.48333740234375
v -335.2440490722656 -50.69493103027344 65.36544036865234
v -334.857421875 -51.36048126220703 65.12703704833984
v -335.0104064941406 -51.35593795776367 65.05661010742188
v -335.2440490722656 -50.69493103027344 65.36544036865234
v -335.0792236328125 -50.691925048828125 65.43599700927734
v -334.9915771484375 -51.44490432739258 65.16213989257812
v -335.1986389160156 -50.708675384521484 65.48333740234375
v -334.90228271484375 -51.432151794433594 64.68843841552734
v -334.87786865234375 -51.51030731201172 64.87326049804688
v -334.70098876953125 -51.403873443603516 64.82623291015625
v -334.90228271484375 -51.432151794433594 64.68843841552734
v -334.87786865234375 -51.51030731201172 64.87326049804688
v -334.7754211425781 -52.156856536865234 64.805908203125
v -334.7754211425781 -52.156856536865234 64.805908203125
v -334.7754211425781 -52.156856536865234 64.805908203125
v -338.9608459472656 -53.01863479614258 71.75396728515625
v -339.1468811035156 -53.01863098144531 71.56167602539062
v -337.77056884765625 -52.77714538574219 70.4397964477539
v -340.2265930175781 -52.77090835571289 72.97297668457031
v -337.77056884765625 -52.77714538574219 70.4397964477539
v -337.7535705566406 -52.66709899902344 70.55614471435547
v -338.9608459472656 -53.01863479614258 71.75396728515625
v -338.9349365234375 -52.79595947265625 71.77499389648438
v -338.9608459472656 -53.01863479614258 71.75396728515625
v -337.7535705566406 -52.66709899902344 70.55614471435547
v -340.12249755859375 -52.669986724853516 72.99309539794922
v -340.2265930175781 -52.77090835571289 72.97297668457031
v -340.12249755859375 -52.669986724853516 72.99309539794922
v -337.7535705566406 -52.66709899902344 70.55614471435547
v -337.8864440917969 -52.64704895019531 70.4420166015625
v -338.9349365234375 -52.79595947265625 71.77499389648438
v -339.1660461425781 -52.74767303466797 71.54692840576172
v -337.8864440917969 -52.64704895019531 70.4420166015625
v -337.77056884765625 -52.77714538574219 70.4397964477539
v -339.1660461425781 -52.74767303466797 71.54692840576172
v -334.9546203613281 -51.15100860595703 66.17098999023438
v -334.8674621582031 -51.201534271240234 66.19815826416016
v -334.6839904785156 -50.73097229003906 66.06947326660156
v -334.81585693359375 -50.68975830078125 66.0379867553711
v -334.9151306152344 -51.225929260253906 66.08830261230469
v -334.9546203613281 -51.15100860595703 66.17098999023438
v -334.81585693359375 -50.68975830078125 66.0379867553711
v -334.74383544921875 -50.7448616027832 65.90494537353516
v -334.8674621582031 -51.201534271240234 66.19815826416016
v -334.6839904785156 -50.73097229003906 66.06947326660156
v -335.3195495605469 -51.57155227661133 66.38887023925781
v -335.1695861816406 -51.60148239135742 66.41963195800781
v -335.2465515136719 -51.6390495300293 66.25202941894531
v -335.3195495605469 -51.57155227661133 66.38887023925781
v -335.1695861816406 -51.60148239135742 66.41963195800781
v -335.1501770019531 -52.329864501953125 66.6305160522461
v -335.1501770019531 -52.329864501953125 66.6305160522461
v -335.1501770019531 -52.329864501953125 66.6305160522461
v -334.71478271484375 -51.29006576538086 65.60283660888672
v -334.6227111816406 -51.237152099609375 65.6684799194336
v -334.7976989746094 -50.68743896484375 65.56080627441406
v -334.9363708496094 -50.72983169555664 65.45694732666016
v -334.6173095703125 -51.27165603637695 65.5669937133789
v -334.71478271484375 -51.29006576538086 65.60283660888672
v -334.9363708496094 -50.72983169555664 65.45694732666016
v -334.79241943359375 -50.72227478027344 65.41031646728516
v -334.6227111816406 -51.237152099609375 65.6684799194336
v -334.7976989746094 -50.68743896484375 65.56080627441406
v -334.6197814941406 -51.76509475708008 65.56903076171875
v -334.4088439941406 -51.698551177978516 65.71162414550781
v -334.4146728515625 -51.70857238769531 65.48529052734375
v -334.6197814941406 -51.76509475708008 65.56903076171875
v -334.4088439941406 -51.698551177978516 65.71162414550781
v -334.3829345703125 -52.25715255737305 65.89004516601562
v -334.3829345703125 -52.25715255737305 65.89004516601562
v -334.3829345703125 -52.25715255737305 65.89004516601562
v -335.3419189453125 -51.77540588378906 65.2707290649414
v -335.0470275878906 -51.716800689697266 65.46980285644531
v -334.9913330078125 -50.72831344604492 65.73033142089844
v -335.1968688964844 -50.72535705566406 65.59703063964844
v -335.1968688964844 -50.72535705566406 65.59703063964844
v -335.0052185058594 -50.69841003417969 65.5206069946289
v -334.9913330078125 -50.72831344604492 65.73033142089844
v -343.2162780761719 -49.890892028808594 76.06595611572266
v -342.28094482421875 -51.04648208618164 75.14259338378906
v -343.1338806152344 -50.139766693115234 76.15210723876953
v -342.2694396972656 -51.17112350463867 75.23861694335938
v -343.1338806152344 -50.139766693115234 76.15210723876953
v -342.2694396972656 -51.17112350463867 75.23861694335938
v -343.0189208984375 -49.93098831176758 76.30890655517578
v -342.1707763671875 -51.06293869018555 75.26348876953125
v -343.0189208984375 -49.93098831176758 76.30890655517578
v -342.1707763671875 -51.06293869018555 75.26348876953125
v -343.2162780761719 -49.890892028808594 76.06595611572266
v -342.28094482421875 -51.04648208618164 75.14259338378906
v -341.4173278808594 -52.15459442138672 74.09193420410156
v -341.42498779296875 -52.32299041748047 74.25662994384766
v -341.42498779296875 -52.32299041748047 74.25662994384766
v -341.2611389160156 -52.17866897583008 74.2662124633789
v -341.2611389160156 -52.17866897583008 74.2662124633789
v -341.4173278808594 -52.15459442138672 74.09193420410156
v -340.22735595703125 -52.65039825439453 72.87338256835938
v -340.2265930175781 -52.77090835571289 72.97297668457031
v -340.12249755859375 -52.669986724853516 72.99309539794922
v -340.22735595703125 -52.65039825439453 72.87338256835938
v -339.1468811035156 -53.01863098144531 71.56167602539062
v -336.4568176269531 -51.88556671142578 69.24369049072266
v -336.573486328125 -51.8715934753418 69.13909912109375
v -336.4465637207031 -51.975624084472656 69.12448120117188
v -336.4568176269531 -51.88556671142578 69.24369049072266
v -336.573486328125 -51.8715934753418 69.13909912109375
v -336.4465637207031 -51.975624084472656 69.12448120117188
v -335.5488586425781 -51.05183792114258 68.48463439941406
v -335.7363586425781 -51.02997970581055 68.3093490600586
v -335.5266418457031 -51.19873046875 68.2867202758789
v -335.5488586425781 -51.05183792114258 68.48463439941406
v -335.7363586425781 -51.02997970581055 68.3093490600586
v -335.5266418457031 -51.19873046875 68.2867202758789
v -334.7819519042969 -49.9367790222168 67.4113540649414
v -334.62091064453125 -49.95403289794922 67.55078125
v -334.62091064453125 -49.95403289794922 67.55078125
v -334.61517333984375 -50.07084274291992 67.38024139404297
v -334.61517333984375 -50.07084274291992 67.38024139404297
v -334.7819519042969 -49.9367790222168 67.4113540649414
v -347.58770751953125 -51.65967559814453 73.43177795410156
v -348.66009521484375 -53.62669372558594 71.46381378173828
v -348.7257385253906 -49.55382537841797 71.34577941894531
v -346.5153503417969 -49.692657470703125 75.39973449707031
v -346.51385498046875 -53.62670135498047 75.4024887084961
v -347.58624267578125 -55.593719482421875 73.43452453613281
v -348.6585998535156 -57.56073760986328 71.46656799316406
v -349.73248291015625 -55.593711853027344 69.495849609375
v -349.7652893066406 -53.55727767944336 69.43683624267578
v -343.45416259765625 -51.524925231933594 75.75016784667969
v -342.43133544921875 -49.42317199707031 75.865478515625
v -335.21563720703125 -53.62666320800781 71.93182373046875
v -335.212890625 -57.56071090698242 71.93032836914062
v -337.0207214355469 -55.59368133544922 72.91598510742188
v -338.82855224609375 -53.62665557861328 73.90164184570312
v -338.8271789550781 -55.59368133544922 73.90089416503906
v -338.8258056640625 -57.56070327758789 73.900146484375
v -337.02349853515625 -51.659637451171875 72.91748046875
v -335.2184143066406 -49.69261932373047 71.9333267211914
v -337.4773254394531 -49.608238220214844 73.16477966308594
v -340.63360595703125 -55.59367370605469 74.88580322265625
v -341.08746337890625 -53.542274475097656 75.13309478759766
v -350.285400390625 -51.49024200439453 68.48416137695312
v -350.80517578125 -53.491966247558594 67.5296859741211
v -350.8055114746094 -49.4232063293457 67.53147888183594
v -349.1546325683594 -49.69447708129883 64.36471557617188
v -350.39263916015625 -51.52540588378906 66.7388916015625
v -343.9666748046875 -56.577205657958984 75.69500732421875
v -344.985107421875 -56.57721710205078 75.57882690429688
v -343.4578552246094 -55.59368896484375 75.75241088867188
v -349.979736328125 -53.627601623535156 65.94630432128906
v -339.7362365722656 -49.52385330200195 74.39622497558594
v -341.7593994140625 -51.482723236083984 75.49928283691406
v -342.43133544921875 -49.42317199707031 75.865478515625
v -350.39227294921875 -55.59416580200195 66.73709869384766
v -349.1601257324219 -56.65274429321289 64.36771392822266
v -350.8048400878906 -57.56072998046875 67.52789306640625
v -340.411865234375 -51.53306579589844 74.76466369628906
v -338.1529541015625 -51.61744689941406 73.53321075439453
v -349.2455139160156 -51.55554962158203 70.39131164550781
v -339.7297058105469 -56.577186584472656 74.39297485351562
v -343.45599365234375 -53.55930709838867 75.75128936767578
v -344.4770202636719 -53.626678466796875 75.63484954833984
v -350.2850646972656 -55.55900573730469 68.48236083984375
v -350.54510498046875 -54.52548599243164 68.00602722167969
v -349.1573791503906 -53.17361068725586 64.3662109375
v -341.7630615234375 -55.551483154296875 75.50152587890625
v -342.4386901855469 -57.56069564819336 75.86996459960938
v -342.09906005859375 -54.52170944213867 75.68462371826172
v -342.43682861328125 -55.52631378173828 75.86884307861328
v -342.43499755859375 -53.49193572998047 75.86772155761719
v -342.4386901855469 -57.56069564819336 75.86996459960938
v -342.9464111328125 -54.542808532714844 75.81006622314453
v -342.43682861328125 -55.52631378173828 75.86884307861328
v -342.43499755859375 -53.49193572998047 75.86772155761719
v -339.28240966796875 -51.57525634765625 74.14893341064453
v -343.45709228515625 -57.560707092285156 75.7537841796875
v -344.47552490234375 -57.56072235107422 75.63760375976562
v -342.9482727050781 -56.57719421386719 75.81118774414062
v -343.5337829589844 -49.836360931396484 61.299888610839844
v -343.73590087890625 -51.03315734863281 61.41002655029297
v -341.14031982421875 -49.89677810668945 59.99482727050781
v -349.1601257324219 -56.65274429321289 64.36771392822266
v -347.7552185058594 -55.73330307006836 63.6029052734375
v -348.4559326171875 -54.26321029663086 63.98851013183594
v -349.1573791503906 -53.17361068725586 64.3662109375
v -343.02728271484375 -55.73330307006836 61.01539993286133
v -341.658447265625 -56.65272903442383 60.27738571166992
v -342.34112548828125 -54.26320266723633 60.64958953857422
v -343.0238342285156 -51.87367630004883 61.02179718017578
v -344.47625732421875 -55.59370040893555 75.63623046875
v -345.49468994140625 -55.593711853027344 75.52005004882812
v -343.9674377441406 -54.61018371582031 75.69363403320312
v -341.3993835449219 -53.27475357055664 60.1361083984375
v -346.51312255859375 -55.59372329711914 75.40386962890625
v -345.92724609375 -49.775943756103516 62.60495376586914
v -344.8315734863281 -50.40454864501953 62.00749206542969
v -348.10382080078125 -53.068443298339844 63.79890441894531
v -347.7517395019531 -51.87367630004883 63.60930252075195
v -348.4545593261719 -52.523643493652344 63.987754821777344
v -345.4961853027344 -51.65966796875 75.51728820800781
v -347.5854797363281 -57.56074142456055 73.43590545654297
v -346.5123596191406 -57.56074523925781 75.40524291992188
v -347.58697509765625 -53.6266975402832 73.43315124511719
v -348.0977783203125 -50.36381912231445 63.7917594909668
v -349.1546325683594 -49.69447708129883 64.36471557617188
v -347.0409240722656 -51.03316116333008 63.21880340576172
v -347.54095458984375 -49.73521041870117 63.484832763671875
v -346.7341003417969 -49.755577087402344 63.044891357421875
v -346.21466064453125 -51.03315734863281 62.76660919189453
v -345.388427734375 -51.03315734863281 62.314414978027344
v -345.49395751953125 -57.560733795166016 75.52142333984375
v -346.0035400390625 -56.57722854614258 75.462646484375
v -341.5361328125 -56.577186584472656 75.37788391113281
v -347.62054443359375 -49.62324142456055 73.37275695800781
v -349.765625 -49.48851776123047 69.43862915039062
v -349.7317199707031 -57.560733795166016 69.49723052978516
v -340.6329345703125 -56.577186584472656 74.88542938232422
v -340.63226318359375 -57.560699462890625 74.88505554199219
v -349.56719970703125 -51.661041259765625 65.15550994873047
v -341.53546142578125 -57.560699462890625 75.37751007080078
v -349.156005859375 -51.434043884277344 64.36546325683594
v -349.156005859375 -51.434043884277344 64.36546325683594
v -339.7290344238281 -57.560699462890625 74.3926010131836
v -343.73876953125 -55.73330307006836 61.40475845336914
v -347.0437927246094 -55.73330307006836 63.21353530883789
v -339.86749267578125 -56.87162399291992 72.13858032226562
v -337.6529846191406 -57.72068405151367 69.90300750732422
v -340.21478271484375 -57.72296142578125 71.29973602294922
v -342.7765808105469 -57.72523880004883 72.69646453857422
v -344.17694091796875 -56.11763381958008 64.26329040527344
v -341.13519287109375 -57.72252655029297 65.13197326660156
v -342.28125 -56.11763381958008 62.39345932006836
v -343.73876953125 -55.73330307006836 61.40475845336914
v -342.3662109375 -57.72456359863281 70.80534362792969
v -344.0514831542969 -57.50070571899414 70.06719970703125
v -341.95587158203125 -57.72388458251953 68.91421508789062
v -345.3263854980469 -57.27617263793945 67.43793487548828
v -345.36083984375 -57.72071838378906 70.70980834960938
v -339.39410400390625 -57.72160339355469 67.51748657226562
v -347.0133056640625 -56.11763381958008 64.97344970703125
v -347.2432556152344 -56.96445846557617 65.90282440185547
v -337.64593505859375 -58.0576057434082 67.34859466552734
v -349.1601257324219 -56.65274429321289 64.36771392822266
v -343.23077392578125 -57.499351501464844 66.28495788574219
v -348.5685119628906 -57.38234329223633 68.21133422851562
v -347.0437927246094 -55.73330307006836 63.21353530883789
v -346.3976135253906 -57.38234329223633 72.84046173095703
v -347.4830627441406 -57.38234329223633 70.52589416503906
v -335.42303466796875 -57.56304931640625 68.23746490478516
v -344.5133361816406 -57.12974548339844 73.24262237548828
v -342.6290588378906 -56.87714385986328 73.64478302001953
v -339.804443359375 -57.72228240966797 69.40861511230469
v -339.28619384765625 -57.56304931640625 61.58010482788086
v -338.9725036621094 -58.06057357788086 65.1948471069336
v -341.658447265625 -56.65272903442383 60.27738571166992
v -341.248291015625 -56.87438201904297 72.89167785644531
v -336.91986083984375 -57.56304931640625 64.71176147460938
v -337.4182434082031 -57.38231658935547 70.80320739746094
v -347.8916320800781 -53.803462982177734 57.75745391845703
v -347.89337158203125 -55.73330307006836 57.75426483154297
v -345.5294189453125 -55.73330307006836 56.46051025390625
v -350.25732421875 -55.73330307006836 59.04801559448242
v -349.16033935546875 -51.03310775756836 59.35694885253906
v -348.4560546875 -51.453392028808594 61.483123779296875
v -349.0028076171875 -51.87364959716797 61.331851959228516
v -343.0238342285156 -51.87367630004883 61.02179718017578
v -344.276611328125 -53.803489685058594 58.741153717041016
v -343.02728271484375 -55.73330307006836 61.01539993286133
v -347.889892578125 -51.87362289428711 57.76064682006836
v -345.52593994140625 -51.87362289428711 56.46689224243164
v -345.8553161621094 -51.03310775756836 57.54817199707031
v -350.25384521484375 -51.87362289428711 59.05440139770508
v -348.10064697265625 -51.03313446044922 61.28787612915039
v -347.7517395019531 -51.87367630004883 63.60930252075195
v -347.0409240722656 -51.03316116333008 63.21880340576172
v -350.25384521484375 -51.87362289428711 59.05440139770508
v -349.0045166015625 -53.803462982177734 61.328651428222656
v -350.25732421875 -55.73330307006836 59.04801559448242
v -344.63092041015625 -51.453392028808594 58.93846130371094
v -343.73590087890625 -51.03315734863281 61.41002655029297
v -344.79559326171875 -51.03313446044922 59.47909927368164
v -345.8553161621094 -51.03310775756836 57.54817199707031
v -344.27490234375 -51.87364959716797 58.744346618652344
v -345.52593994140625 -51.87362289428711 56.46689224243164
v -347.7552185058594 -55.73330307006836 63.6029052734375
v -349.16033935546875 -51.03310775756836 59.35694885253906
v -348.0545654296875 -51.453365325927734 58.30128479003906
v -349.00628662109375 -55.73330307006836 61.325462341308594
v -345.5294189453125 -55.73330307006836 56.46051025390625
v -344.2783508300781 -55.73330307006836 58.737953186035156
v -346.79266357421875 -48.86578369140625 64.7376480102539
v -346.7341003417969 -49.755577087402344 63.044891357421875
v -345.92724609375 -49.775943756103516 62.60495376586914
v -350.8055114746094 -49.4232063293457 67.53147888183594
v -347.6580810546875 -47.955623626708984 66.8703384399414
v -348.4338684082031 -48.689414978027344 68.72032165527344
v -346.0622253417969 -47.955623626708984 69.90916442871094
v -349.1546325683594 -49.69447708129883 64.36471557617188
v -347.54095458984375 -49.73521041870117 63.484832763671875
v -339.0433044433594 -49.30207443237305 62.65647506713867
v -341.53436279296875 -47.95562744140625 63.45109176635742
v -341.14031982421875 -49.89677810668945 59.99482727050781
v -338.2481994628906 -47.95562744140625 69.7339096069336
v -335.2184143066406 -49.69261932373047 71.9333267211914
v -337.4773254394531 -49.608238220214844 73.16477966308594
v -336.08233642578125 -49.19999694824219 68.62572479248047
v -344.5063781738281 -47.95562744140625 65.11055755615234
v -342.8233642578125 -48.92620086669922 62.55269241333008
v -348.7257385253906 -49.55382537841797 71.34577941894531
v -342.9559631347656 -47.95562744140625 68.27777862548828
v -343.7311706542969 -47.95562744140625 66.69416809082031
v -342.6005859375 -47.95562744140625 67.07110595703125
v -342.43133544921875 -49.42317199707031 75.865478515625
v -346.5153503417969 -49.692657470703125 75.39973449707031
v -344.37994384765625 -47.955623626708984 73.11261749267578
v -342.24517822265625 -47.95562744140625 65.86443328857422
v -341.4288330078125 -47.95562744140625 67.42516326904297
v -344.50909423828125 -47.95562744140625 69.09347534179688
v -344.1314697265625 -47.95562744140625 67.92591857910156
v -345.3070068359375 -47.95562744140625 67.57405853271484
v -346.5528564453125 -48.754722595214844 72.22920227050781
v -340.6020812988281 -47.95562744140625 69.00584411621094
v -341.17376708984375 -47.95562744140625 71.34595489501953
v -338.9922180175781 -48.73973846435547 72.0650634765625
v -339.7362365722656 -49.52385330200195 74.39622497558594
v -343.66796875 -47.95562744140625 70.69519805908203
v -339.9017333984375 -47.95562744140625 66.57254791259766
v -336.9462890625 -48.70737075805664 65.31812286376953
v -337.59722900390625 -48.33149719238281 67.52601623535156
v -339.2403259277344 -48.33149719238281 64.38460540771484
v -342.06488037109375 -47.95562744140625 69.8118667602539
v -349.765625 -49.48851776123047 69.43862915039062
v -347.62054443359375 -49.62324142456055 73.37275695800781
v -343.5337829589844 -49.836360931396484 61.299888610839844
v -341.80255126953125 -48.68939971923828 73.605712890625
v -347.3078308105469 -56.32879638671875 62.33930969238281
v -343.73876953125 -55.73330307006836 61.40475845336914
v -344.3231201171875 -56.32879638671875 60.73006057739258
v -343.02728271484375 -55.73330307006836 61.01539993286133
v -347.7552185058594 -55.73330307006836 63.6029052734375
v -347.0437927246094 -55.73330307006836 63.21353530883789
v -344.2783508300781 -55.73330307006836 58.737953186035156
v -349.00628662109375 -55.73330307006836 61.325462341308594
v -348.74041748046875 -56.32881546020508 59.49039077758789
v -348.7825927734375 -56.03105163574219 60.69366455078125
v -347.89337158203125 -55.73330307006836 57.75426483154297
v -347.1349182128906 -56.03105926513672 57.97544860839844
v -345.5294189453125 -55.73330307006836 56.46051025390625
v -348.74041748046875 -56.32881546020508 59.49039077758789
v -350.25732421875 -55.73330307006836 59.04801559448242
v -345.93658447265625 -56.32875442504883 57.79177474975586
v -346.5317687988281 -56.32880401611328 60.110225677490234
v -344.92626953125 -56.03105163574219 58.59528350830078
vn -0.2463395744562149 -0.44217708706855774 0.8624362349510193
vn -0.21127234399318695 -0.09708523750305176 0.9725936651229858
vn -0.14381058514118195 -0.3996494710445404 0.9053168892860413
vn -0.03924531117081642 -0.35146310925483704 0.9353787899017334
vn -0.3400171399116516 -0.5719470977783203 0.7465018033981323
vn -0.8295763731002808 -0.4203715920448303 -0.36754703521728516
vn -0.8544269800186157 -0.2660387456417084 -0.44629359245300293
vn -0.9153577089309692 -0.15258416533470154 -0.37261003255844116
vn -0.779309868812561 -0.5618253946304321 -0.27753981947898865
vn -0.7524235248565674 -0.6348557472229004 -0.17554791271686554
vn -0.14822153747081757 0.26086580753326416 0.9539284110069275
vn -0.3190290927886963 0.7925159335136414 0.519748866558075
vn 0.29172950983047485 0.8385769128799438 0.46008986234664917
vn 0.6668245196342468 0.3064347207546234 0.6792958378791809
vn 0.7434234619140625 -0.15388989448547363 0.6508758664131165
vn 0.6612244844436646 -0.3408120572566986 0.6683033108711243
vn -0.8940666317939758 0.24062228202819824 -0.3778170943260193
vn -0.9127057194709778 0.19414600729942322 -0.359548956155777
vn -0.8728873133659363 0.28641489148139954 -0.3950117230415344
vn -0.7314167618751526 0.5962057113647461 -0.33101096749305725
vn -0.5303376317024231 -0.7982967495918274 0.28541940450668335
vn -0.4175698757171631 -0.6669238209724426 0.6171289086341858
vn -0.4204147756099701 -0.6793788075447083 0.6014115214347839
vn -0.7131533026695251 -0.6974371671676636 -0.07066670060157776
vn -0.693608283996582 -0.720340371131897 0.0041731419041752815
vn -0.8728873133659363 0.28641489148139954 -0.3950117230415344
vn -0.8544269800186157 -0.2660387456417084 -0.44629359245300293
vn -0.41943836212158203 0.28276047110557556 -0.8626227378845215
vn -0.13019704818725586 -0.2719486355781555 -0.9534634947776794
vn -0.1352699100971222 0.24620729684829712 -0.9597312211990356
vn -0.49198997020721436 -0.41974660754203796 -0.7627310752868652
vn -0.03924531117081642 -0.35146310925483704 0.9353787899017334
vn 0.7375668883323669 0.26758119463920593 0.6199963092803955
vn -0.1769946962594986 0.8111215829849243 -0.5574536919593811
vn 0.06849212199449539 0.8379831910133362 -0.5413806438446045
vn -0.14822153747081757 0.26086580753326416 0.9539284110069275
vn -0.07496770471334457 0.9022956490516663 0.4245496690273285
vn -0.3190290927886963 0.7925159335136414 0.519748866558075
vn -0.10875032097101212 -0.011997905559837818 0.9939966201782227
vn -0.5602632164955139 0.8267881274223328 -0.05026423558592796
vn -0.4544645845890045 0.8901166319847107 -0.03397538140416145
vn -0.048071108758449554 0.3438023328781128 0.9378108382225037
vn 0.05290462449193001 0.42083632946014404 0.9055925607681274
vn -0.5602632164955139 0.8267881274223328 -0.05026423558592796
vn -0.502117395401001 0.834403932094574 -0.22726234793663025
vn 0.5602098703384399 0.7542902231216431 0.3423611521720886
vn -0.07126611471176147 0.9870969653129578 -0.14339013397693634
vn 0.0360165499150753 0.9718811511993408 -0.23270097374916077
vn 0.01782641001045704 0.8947083353996277 -0.4462948143482208
vn 0.14258906245231628 0.937502384185791 -0.317423552274704
vn -0.02263045869767666 0.9806870222091675 -0.19426999986171722
vn 0.026118241250514984 0.9693782925605774 -0.24417944252490997
vn 0.08456475287675858 0.9558263421058655 -0.28150421380996704
vn 0.18989445269107819 0.9120683073997498 -0.3634164333343506
vn 0.4298650026321411 0.8384662866592407 -0.3349483907222748
vn 0.16891376674175262 0.9641931653022766 -0.20445004105567932
vn 0.5037041902542114 0.8415899276733398 -0.19495804607868195
vn 0.34525367617607117 0.8143313527107239 -0.4665451645851135
vn -0.5602632164955139 0.8267881274223328 -0.05026423558592796
vn 0.29172950983047485 0.8385769128799438 0.46008986234664917
vn -0.3190290927886963 0.7925159335136414 0.519748866558075
vn 0.5602098703384399 0.7542902231216431 0.3423611521720886
vn 0.1897760033607483 0.9768210053443909 -0.09902447462081909
vn -0.028075557202100754 0.9961840510368347 0.08263872563838959
vn 0.13459709286689758 0.812857449054718 0.5666977763175964
vn 0.6119810342788696 0.7850183844566345 0.09604868292808533
vn -0.1769946962594986 0.8111215829849243 -0.5574536919593811
vn 0.06849212199449539 0.8379831910133362 -0.5413806438446045
vn -0.09175457805395126 0.928066074848175 -0.36093541979789734
vn -0.10754242539405823 0.8214900493621826 -0.5599899291992188
vn -0.05977342650294304 0.916510283946991 -0.3955199420452118
vn 0.12216544896364212 0.8406873941421509 -0.5275607109069824
vn -0.0009924579644575715 0.9966392517089844 -0.08190929144620895
vn 0.5649209022521973 0.8236238956451416 -0.05008219555020332
vn -0.04053521901369095 0.9828604459762573 -0.17983977496623993
vn -0.009711459279060364 0.9763721823692322 -0.21587739884853363
vn -0.2647576928138733 0.9366742372512817 -0.22922633588314056
vn -0.31552454829216003 0.8569947481155396 -0.4074361324310303
vn -0.502117395401001 0.834403932094574 -0.22726234793663025
vn -0.011440010741353035 0.981245219707489 -0.19242390990257263
vn -0.33382487297058105 0.9204521775245667 0.2032948136329651
vn -0.4544645845890045 0.8901166319847107 -0.03397538140416145
vn -0.5602632164955139 0.8267881274223328 -0.05026423558592796
vn -0.08406198769807816 0.8731973767280579 -0.48006245493888855
vn -0.21334907412528992 0.8464455604553223 -0.4878647029399872
vn -0.18929094076156616 0.8945117592811584 -0.4049910604953766
vn 0.24635004997253418 0.8846381902694702 -0.39588725566864014
vn -0.26500120759010315 0.8535379767417908 -0.44860586524009705
vn -0.16078819334506989 0.8357477784156799 -0.5250455737113953
vn 0.23530876636505127 0.8331718444824219 -0.5004541277885437
vn -0.3190290927886963 0.7925159335136414 0.519748866558075
vn -0.07496770471334457 0.9022956490516663 0.4245496690273285
vn 0.0073615433648228645 0.8367757201194763 -0.5474963188171387
vn -0.10884066671133041 -0.918326735496521 0.38056495785713196
vn 0.2233431339263916 -0.9148618578910828 0.33637136220932007
vn 0.3782208263874054 -0.9187836050987244 0.11307394504547119
vn 0.24358344078063965 -0.8609119057655334 0.44665172696113586
vn -0.07298865169286728 -0.8081613183021545 0.5844209790229797
vn 0.530443012714386 -0.8086476922035217 0.25439950823783875
vn 0.45750394463539124 -0.8697458505630493 0.18501952290534973
vn -0.09154597669839859 -0.8692384958267212 0.4858434498310089
vn -0.7131533026695251 -0.6974371671676636 -0.07066670060157776
vn -0.49198997020721436 -0.41974660754203796 -0.7627310752868652
vn -0.8544269800186157 -0.2660387456417084 -0.44629359245300293
vn 0.38580331206321716 -0.8975346088409424 -0.21351222693920135
vn 0.18063998222351074 -0.6982371211051941 -0.6927006244659424
vn -0.19022910296916962 -0.8395294547080994 -0.5089235901832581
vn -0.13019704818725586 -0.2719486355781555 -0.9534634947776794
vn -0.19022910296916962 -0.8395294547080994 -0.5089235901832581
vn 0.18063998222351074 -0.6982371211051941 -0.6927006244659424
vn -0.03924531117081642 -0.35146310925483704 0.9353787899017334
vn 0.2847900092601776 -0.8591357469558716 0.4251827597618103
vn -0.4204147756099701 -0.6793788075447083 0.6014115214347839
vn 0.2847900092601776 -0.8591357469558716 0.4251827597618103
vn -0.25915777683258057 -0.9417192935943604 0.21448054909706116
vn 0.6699696779251099 -0.6940798759460449 0.2634269595146179
vn 0.6612244844436646 -0.3408120572566986 0.6683033108711243
vn 0.7434234619140625 -0.15388989448547363 0.6508758664131165
vn -0.7131533026695251 -0.6974371671676636 -0.07066670060157776
vn 0.39305275678634644 -0.8478069305419922 0.35599571466445923
vn -0.4204147756099701 -0.6793788075447083 0.6014115214347839
vn 0.2847900092601776 -0.8591357469558716 0.4251827597618103
vn 0.6699696779251099 -0.6940798759460449 0.2634269595146179
vn 0.2202964723110199 -0.4471312165260315 -0.8669158816337585
vn 0.40746769309043884 0.3507734537124634 -0.8431655168533325
vn 0.5647619366645813 -0.19998319447040558 0.8006563782691956
vn -0.9345768094062805 -0.25410526990890503 -0.2489912509918213
vn 0.2202964723110199 -0.4471312165260315 -0.8669158816337585
vn 0.5647619366645813 -0.19998319447040558 0.8006563782691956
vn -0.9345768094062805 -0.25410526990890503 -0.2489912509918213
vn 0.5359069108963013 0.19470135867595673 -0.8215200304985046
vn 0.5725356340408325 -0.0007854746654629707 0.8198794722557068
vn -0.9625694751739502 -0.19110926985740662 0.1921907216310501
vn 0.5725356340408325 -0.0007854746654629707 0.8198794722557068
vn -0.9625694751739502 -0.19110926985740662 0.1921907216310501
vn 0.5966947674751282 -0.1213977187871933 -0.7932326197624207
vn 0.17003943026065826 0.10371463000774384 0.9799641966819763
vn -0.9969384670257568 -0.00553961843252182 -0.0779934898018837
vn -0.7966387271881104 0.4842698276042938 -0.3617312014102936
vn -0.5659916996955872 -0.7688694596290588 0.29747799038887024
vn -0.6975985169410706 -0.46738842129707336 0.5430509448051453
vn -0.7001362442970276 0.0691833347082138 -0.7106496691703796
vn 0.9191268086433411 0.3162156343460083 0.23497578501701355
vn -0.7966387271881104 0.4842698276042938 -0.3617312014102936
vn -0.7001362442970276 0.0691833347082138 -0.7106496691703796
vn 0.9560556411743164 0.2770100235939026 0.09603700041770935
vn -0.5659916996955872 -0.7688694596290588 0.29747799038887024
vn -0.6975985169410706 -0.46738842129707336 0.5430509448051453
vn -0.8430971503257751 -0.0978216901421547 -0.5287892818450928
vn -0.41132813692092896 -0.7144399285316467 0.56602543592453
vn 0.785906970500946 0.6071941256523132 0.11689989268779755
vn -0.8430971503257751 -0.0978216901421547 -0.5287892818450928
vn -0.41132813692092896 -0.7144399285316467 0.56602543592453
vn -0.3791719675064087 -0.7297460436820984 0.5689457654953003
vn -0.3791719675064087 -0.7297460436820984 0.5689457654953003
vn -0.3791719675064087 -0.7297460436820984 0.5689457654953003
vn 0.43222302198410034 -0.7944176197052002 0.4267129600048065
vn -0.4862317144870758 -0.737242579460144 -0.4690971374511719
vn -0.05446408689022064 -0.907456636428833 -0.41660061478614807
vn -0.4749315083026886 -0.866474449634552 -0.15382468700408936
vn -0.05446408689022064 -0.907456636428833 -0.41660061478614807
vn 0.6726975440979004 0.2112535983324051 0.7091191411018372
vn 0.43222302198410034 -0.7944176197052002 0.4267129600048065
vn 0.4080413579940796 0.8182926774024963 0.40484482049942017
vn 0.43222302198410034 -0.7944176197052002 0.4267129600048065
vn 0.6726975440979004 0.2112535983324051 0.7091191411018372
vn 0.6751500368118286 0.5011703372001648 0.5412954092025757
vn -0.4749315083026886 -0.866474449634552 -0.15382468700408936
vn 0.6751500368118286 0.5011703372001648 0.5412954092025757
vn 0.6726975440979004 0.2112535983324051 0.7091191411018372
vn -0.6527532339096069 0.5557613372802734 -0.5148229002952576
vn 0.4080413579940796 0.8182926774024963 0.40484482049942017
vn -0.6972583532333374 0.24502895772457123 -0.6736406087875366
vn -0.6527532339096069 0.5557613372802734 -0.5148229002952576
vn -0.05446408689022064 -0.907456636428833 -0.41660061478614807
vn -0.6972583532333374 0.24502895772457123 -0.6736406087875366
vn -0.7740064859390259 0.5492786169052124 0.31497126817703247
vn 0.5327783823013306 0.08503514528274536 0.8419716358184814
vn 0.7403360605239868 -0.10439728945493698 0.6640811562538147
vn -0.8517154455184937 0.3647155463695526 0.3762490749359131
vn 0.02213858626782894 -0.37178418040275574 -0.9280551671981812
vn -0.7740064859390259 0.5492786169052124 0.31497126817703247
vn -0.8517154455184937 0.3647155463695526 0.3762490749359131
vn 0.014053317718207836 -0.3595998287200928 -0.9330008029937744
vn 0.5327783823013306 0.08503514528274536 0.8419716358184814
vn 0.7403360605239868 -0.10439728945493698 0.6640811562538147
vn -0.6420959234237671 0.4517638683319092 0.6193724870681763
vn 0.760278582572937 0.026745056733489037 0.6490463614463806
vn 0.021975792944431305 -0.42991748452186584 -0.9026007056236267
vn -0.6420959234237671 0.4517638683319092 0.6193724870681763
vn 0.760278582572937 0.026745056733489037 0.6490463614463806
vn -0.4314195215702057 -0.43238022923469543 0.7917856574058533
vn -0.4314195215702057 -0.43238022923469543 0.7917856574058533
vn -0.4314195215702057 -0.43238022923469543 0.7917856574058533
vn -0.9527268409729004 -0.2849636673927307 -0.1053912565112114
vn 0.43239954113960266 0.29128172993659973 0.8533378839492798
vn 0.4041230380535126 0.304319828748703 0.8625972270965576
vn -0.915570080280304 -0.38952597975730896 -0.10000470280647278
vn 0.5254439115524292 0.15808755159378052 -0.836012601852417
vn -0.9527268409729004 -0.2849636673927307 -0.1053912565112114
vn -0.915570080280304 -0.38952597975730896 -0.10000470280647278
vn 0.5887854099273682 -0.040202099829912186 -0.8072890043258667
vn 0.43239954113960266 0.29128172993659973 0.8533378839492798
vn 0.4041230380535126 0.304319828748703 0.8625972270965576
vn -0.9476158022880554 -0.3144529163837433 -0.056068163365125656
vn 0.4496268928050995 0.2871988117694855 0.8457851409912109
vn 0.6125483512878418 -0.049805644899606705 -0.788862407207489
vn -0.9476158022880554 -0.3144529163837433 -0.056068163365125656
vn 0.4496268928050995 0.2871988117694855 0.8457851409912109
vn 0.5902361273765564 -0.800722062587738 -0.10230094194412231
vn 0.5902361273765564 -0.800722062587738 -0.10230094194412231
vn 0.5902361273765564 -0.800722062587738 -0.10230094194412231
vn -0.9969384670257568 -0.00553961843252182 -0.0779934898018837
vn 0.17003943026065826 0.10371463000774384 0.9799641966819763
vn 0.5060531497001648 -0.24124760925769806 0.8280759453773499
vn -0.9864444732666016 0.1596926599740982 -0.03775705024600029
vn -0.9864444732666016 0.1596926599740982 -0.03775705024600029
vn 0.5283628106117249 0.256083220243454 -0.809477686882019
vn 0.5060531497001648 -0.24124760925769806 0.8280759453773499
vn -0.3315344750881195 0.4175979495048523 -0.8459886908531189
vn -0.3503863513469696 0.3949801027774811 -0.8492467999458313
vn -0.5693966746330261 -0.7598205208778381 0.3137837052345276
vn -0.22215303778648376 -0.7590016722679138 0.6120167374610901
vn -0.5693966746330261 -0.7598205208778381 0.3137837052345276
vn -0.22215303778648376 -0.7590016722679138 0.6120167374610901
vn 0.605398952960968 -0.2283479869365692 0.7624626755714417
vn 0.8649232387542725 0.2419443577528 0.4397393763065338
vn 0.605398952960968 -0.2283479869365692 0.7624626755714417
vn 0.8649232387542725 0.2419443577528 0.4397393763065338
vn -0.3315344750881195 0.4175979495048523 -0.8459886908531189
vn -0.3503863513469696 0.3949801027774811 -0.8492467999458313
vn -0.42448872327804565 0.5102559328079224 -0.7479627132415771
vn -0.3777141273021698 -0.8816589713096619 0.2828595042228699
vn -0.3777141273021698 -0.8816589713096619 0.2828595042228699
vn 0.8076270818710327 0.32904133200645447 0.48935699462890625
vn 0.8076270818710327 0.32904133200645447 0.48935699462890625
vn -0.42448872327804565 0.5102559328079224 -0.7479627132415771
vn -0.17191796004772186 0.9195919036865234 -0.3532632887363434
vn -0.4749315083026886 -0.866474449634552 -0.15382468700408936
vn 0.6751500368118286 0.5011703372001648 0.5412954092025757
vn -0.17191796004772186 0.9195919036865234 -0.3532632887363434
vn -0.4862317144870758 -0.737242579460144 -0.4690971374511719
vn 0.47723588347435 0.34961941838264465 0.8062333464622498
vn -0.7784407734870911 0.4816755950450897 -0.4025152921676636
vn -0.07550463825464249 -0.7407530546188354 -0.6675207614898682
vn 0.47723588347435 0.34961941838264465 0.8062333464622498
vn -0.7784407734870911 0.4816755950450897 -0.4025152921676636
vn -0.07550463825464249 -0.7407530546188354 -0.6675207614898682
vn 0.6835638880729675 -0.04876624792814255 0.728259801864624
vn -0.8288226127624512 0.4451034963130951 -0.33902212977409363
vn 0.7015940546989441 -0.7104421854019165 -0.05511515215039253
vn 0.6835638880729675 -0.04876624792814255 0.728259801864624
vn -0.8288226127624512 0.4451034963130951 -0.33902212977409363
vn 0.7015940546989441 -0.7104421854019165 -0.05511515215039253
vn -0.8267258405685425 0.45385709404945374 -0.3324727416038513
vn 0.45999786257743835 0.3287803530693054 0.8248063325881958
vn 0.45999786257743835 0.3287803530693054 0.8248063325881958
vn 0.4198645353317261 -0.7444072365760803 -0.5192028880119324
vn 0.4198645353317261 -0.7444072365760803 -0.5192028880119324
vn -0.8267258405685425 0.45385709404945374 -0.3324727416038513
vn 0.7359602451324463 -0.18183569610118866 -0.6521490812301636
vn 0.8556002378463745 0.2008657455444336 -0.4770755469799042
vn 0.7527632713317871 -0.5005220174789429 -0.42758050560951233
vn 0.47543904185295105 -0.5297292470932007 -0.7023850083351135
vn 0.5635300874710083 0.19542254507541656 -0.8026479482650757
vn 0.6548179984092712 0.5535804629325867 -0.5145503282546997
vn 0.5037041902542114 0.8415899276733398 -0.19495804607868195
vn 0.8114572167396545 0.5451164841651917 -0.21067793667316437
vn 0.9523943066596985 0.19853734970092773 -0.2313612997531891
vn 0.07681306451559067 -0.17524568736553192 -0.9815236926078796
vn -0.1344297230243683 -0.5331031680107117 -0.8353021144866943
vn -0.9127057194709778 0.19414600729942322 -0.359548956155777
vn -0.502117395401001 0.834403932094574 -0.22726234793663025
vn -0.6611959338188171 0.5682150721549988 -0.48984846472740173
vn -0.711101770401001 0.20820604264736176 -0.6715537309646606
vn -0.5606688261032104 0.581735372543335 -0.5892659425735474
vn -0.31552454829216003 0.8569947481155396 -0.4074361324310303
vn -0.8270940780639648 -0.196238711476326 -0.5266932249069214
vn -0.779309868812561 -0.5618253946304321 -0.27753981947898865
vn -0.6280760169029236 -0.5688065886497498 -0.5310174226760864
vn -0.4543011486530304 0.5714230537414551 -0.6834369897842407
vn -0.3696407377719879 0.20608492195606232 -0.9060324430465698
vn 0.9745246171951294 -0.1953216940164566 -0.11023235321044922
vn 0.98398756980896 0.15625698864459991 0.08574511110782623
vn 0.8307061791419983 -0.5559200048446655 0.029667723923921585
vn 0.6041529178619385 -0.4987310469150543 0.621503472328186
vn 0.9346321821212769 -0.19934749603271484 0.29448819160461426
vn 0.10854072868824005 0.7186095118522644 -0.6868911385536194
vn 0.22502370178699493 0.713513970375061 -0.6635226011276245
vn 0.09052282571792603 0.5674458146095276 -0.8184197545051575
vn 0.8440850377082825 0.19870415329933167 0.49803319573402405
vn -0.4220919907093048 -0.5262042284011841 -0.73820561170578
vn -0.2736413776874542 -0.17752623558044434 -0.9453067183494568
vn -0.1344297230243683 -0.5331031680107117 -0.8353021144866943
vn 0.7849701642990112 0.5303281545639038 0.3202715516090393
vn 0.13459709286689758 0.812857449054718 0.5666977763175964
vn 0.6119810342788696 0.7850183844566345 0.09604868292808533
vn -0.42731890082359314 -0.17277678847312927 -0.8874382972717285
vn -0.729539155960083 -0.19644306600093842 -0.6551203727722168
vn 0.9203013181686401 -0.16298605501651764 -0.355641633272171
vn -0.3937218487262726 0.7305540442466736 -0.5579192638397217
vn 0.09046348184347153 0.21202735602855682 -0.9730676412582397
vn 0.2731490135192871 0.21662111580371857 -0.9372645020484924
vn 0.8443188071250916 0.5308409929275513 -0.07303041964769363
vn 0.9373107552528381 0.3483940064907074 -0.00837974064052105
vn 0.515180766582489 0.21906176209449768 0.8286137580871582
vn -0.2575482130050659 0.5546091198921204 -0.7912505865097046
vn -0.10754242539405823 0.8214900493621826 -0.5599899291992188
vn -0.22675423324108124 0.3830737769603729 -0.8954535722732544
vn -0.14814543724060059 0.5500937104225159 -0.8218575716018677
vn -0.16743342578411102 0.19955025613307953 -0.965476930141449
vn -0.10754242539405823 0.8214900493621826 -0.5599899291992188
vn -0.01838124915957451 0.38656118512153625 -0.9220805764198303
vn -0.14814543724060059 0.5500937104225159 -0.8218575716018677
vn -0.16743342578411102 0.19955025613307953 -0.965476930141449
vn -0.6170454025268555 -0.1731560081243515 -0.7676405310630798
vn 0.0073615433648228645 0.8367757201194763 -0.5474963188171387
vn 0.12216544896364212 0.8406873941421509 -0.5275607109069824
vn -0.008697239682078362 0.7097644805908203 -0.7043854594230652
vn 0.09362340718507767 -0.49029573798179626 0.8665129542350769
vn -0.07298865169286728 -0.8081613183021545 0.5844209790229797
vn -0.2463395744562149 -0.44217708706855774 0.8624362349510193
vn 0.13459709286689758 0.812857449054718 0.5666977763175964
vn 0.6658748984336853 0.7317036390304565 -0.14567242562770844
vn 0.8161606788635254 0.36614903807640076 0.44700849056243896
vn 0.515180766582489 0.21906176209449768 0.8286137580871582
vn -0.48236292600631714 0.7327166199684143 0.4800545275211334
vn 0.05290462449193001 0.42083632946014404 0.9055925607681274
vn -0.2454393059015274 0.05177025869488716 0.9680286049842834
vn -0.48754891753196716 -0.3291572630405426 0.8086727261543274
vn 0.2142544686794281 0.5671179890632629 -0.795281171798706
vn 0.334591269493103 0.55780428647995 -0.759541392326355
vn 0.18584109842777252 0.40066850185394287 -0.8971777558326721
vn -0.10875032097101212 -0.011997905559837818 0.9939966201782227
vn 0.48882362246513367 0.5431342124938965 -0.6826834082603455
vn 0.4225475490093231 -0.48060524463653564 0.7684218883514404
vn 0.18389447033405304 -0.6779888868331909 0.7116978168487549
vn 0.9658025503158569 0.020407453179359436 0.25847429037094116
vn 0.9440385103225708 -0.3289559483528137 0.024067316204309464
vn 0.8615806698799133 -0.06488586962223053 0.5034565925598145
vn 0.40918850898742676 -0.17114919424057007 -0.8962548971176147
vn 0.4298650026321411 0.8384662866592407 -0.3349483907222748
vn 0.34525367617607117 0.8143313527107239 -0.4665451645851135
vn 0.7271696925163269 0.20306015014648438 -0.6557369232177734
vn 0.5848312973976135 -0.6738928556442261 0.4514871835708618
vn 0.6041529178619385 -0.4987310469150543 0.621503472328186
vn 0.530443012714386 -0.8086476922035217 0.25439950823783875
vn 0.5169094204902649 -0.4930630922317505 0.6997810006141663
vn 0.4705391228199005 -0.487674355506897 0.7353683114051819
vn 0.39305275678634644 -0.8478069305419922 0.35599571466445923
vn 0.24358344078063965 -0.8609119057655334 0.44665172696113586
vn 0.23530876636505127 0.8331718444824219 -0.5004541277885437
vn 0.34656059741973877 0.6994655132293701 -0.6250149607658386
vn -0.28814440965652466 0.7143628001213074 -0.6376979947090149
vn 0.6262166500091553 -0.5252884030342102 -0.5761291980743408
vn 0.8142570853233337 -0.5432472825050354 -0.20461608469486237
vn 0.5649209022521973 0.8236238956451416 -0.05008219555020332
vn -0.34123995900154114 0.72468101978302 -0.5986592173576355
vn -0.21334907412528992 0.8464455604553223 -0.4878647029399872
vn 0.780750036239624 -0.16174553334712982 0.6035460829734802
vn -0.16078819334506989 0.8357477784156799 -0.5250455737113953
vn 0.6040346026420593 -0.1509200632572174 0.7825378179550171
vn 0.6040346026420593 -0.1509200632572174 0.7825378179550171
vn -0.26500120759010315 0.8535379767417908 -0.44860586524009705
vn 0.24551446735858917 0.9588319063186646 0.1427023857831955
vn -0.008615268394351006 0.9586924314498901 0.28431418538093567
vn -0.009711459279060364 0.9763721823692322 -0.21587739884853363
vn -0.10208112746477127 0.9607157111167908 -0.25807902216911316
vn -0.06698476523160934 0.9686622023582458 -0.23917876183986664
vn -0.031777750700712204 0.9750084280967712 -0.21988333761692047
vn 0.15772229433059692 0.9424930214881897 0.29467037320137024
vn 0.21472714841365814 0.9684981107711792 0.12610982358455658
vn 0.35700511932373047 0.917185366153717 0.1769700050354004
vn 0.24551446735858917 0.9588319063186646 0.1427023857831955
vn 0.03109477274119854 0.9903978705406189 -0.13470351696014404
vn -0.008403340354561806 0.9992602467536926 0.037529356777668
vn 0.09361140429973602 0.9944518804550171 -0.04798195883631706
vn 0.01553742028772831 0.9561659693717957 0.29241272807121277
vn 0.021123697981238365 0.9977052211761475 0.06432831287384033
vn 0.0581548735499382 0.9959799647331238 -0.06813069432973862
vn -0.12793169915676117 0.9254290461540222 0.3566714823246002
vn 0.07612068206071854 0.8969241380691528 0.435583233833313
vn -0.06689911335706711 0.9967403411865234 -0.04509108141064644
vn 0.13459709286689758 0.812857449054718 0.5666977763175964
vn 0.11611597239971161 0.9705541729927063 0.2110491842031479
vn -0.028075557202100754 0.9961840510368347 0.08263872563838959
vn -0.008615268394351006 0.9586924314498901 0.28431418538093567
vn 0.026118241250514984 0.9693782925605774 -0.24417944252490997
vn -0.0009924579644575715 0.9966392517089844 -0.08190929144620895
vn -0.4544645845890045 0.8901166319847107 -0.03397538140416145
vn -0.02263045869767666 0.9806870222091675 -0.19426999986171722
vn -0.07126611471176147 0.9870969653129578 -0.14339013397693634
vn -0.004279808606952429 0.9879593849182129 -0.15465468168258667
vn -0.07496770471334457 0.9022956490516663 0.4245496690273285
vn 0.036405447870492935 0.9975644946098328 0.059495460242033005
vn 0.05290462449193001 0.42083632946014404 0.9055925607681274
vn -0.04053521901369095 0.9828604459762573 -0.17983977496623993
vn -0.33382487297058105 0.9204521775245667 0.2032948136329651
vn -0.011440010741353035 0.981245219707489 -0.19242390990257263
vn 0.5277254581451416 0.1073090210556984 0.8426093459129333
vn 0.32086122035980225 0.7523666024208069 0.5753195285797119
vn -0.20678219199180603 0.6210911273956299 0.7559675574302673
vn 0.7431740760803223 0.6366592645645142 0.20580874383449554
vn 0.3782208263874054 -0.9187836050987244 0.11307394504547119
vn 0.725243866443634 -0.6843706369400024 0.07522038370370865
vn 0.8991325497627258 -0.4158449172973633 0.13650521636009216
vn -0.48754891753196716 -0.3291572630405426 0.8086727261543274
vn -0.3998459279537201 0.16811656951904297 0.9010327458381653
vn -0.48236292600631714 0.7327166199684143 0.4800545275211334
vn 0.3751220405101776 -0.6242961287498474 0.6852282285690308
vn -0.24190782010555267 -0.492319256067276 0.8361234068870544
vn -0.10884066671133041 -0.918326735496521 0.38056495785713196
vn 0.8342581391334534 -0.4934985935688019 0.24591152369976044
vn 0.45750394463539124 -0.8697458505630493 0.18501952290534973
vn 0.9440385103225708 -0.3289559483528137 0.024067316204309464
vn 0.530443012714386 -0.8086476922035217 0.25439950823783875
vn 0.8342581391334534 -0.4934985935688019 0.24591152369976044
vn 0.9854828715324402 0.15648411214351654 0.06585010141134262
vn 0.7431740760803223 0.6366592645645142 0.20580874383449554
vn -0.16136115789413452 -0.6664001941680908 0.7279239892959595
vn -0.07298865169286728 -0.8081613183021545 0.5844209790229797
vn -0.09154597669839859 -0.8692384958267212 0.4858434498310089
vn -0.10884066671133041 -0.918326735496521 0.38056495785713196
vn -0.36879438161849976 -0.41531720757484436 0.8315662145614624
vn -0.24190782010555267 -0.492319256067276 0.8361234068870544
vn 0.6658748984336853 0.7317036390304565 -0.14567242562770844
vn 0.3782208263874054 -0.9187836050987244 0.11307394504547119
vn 0.425104558467865 -0.8273489475250244 0.3671237826347351
vn 0.717052161693573 0.6963473558425903 0.030602823942899704
vn -0.20678219199180603 0.6210911273956299 0.7559675574302673
vn -0.3518856465816498 0.6912702322006226 0.6311275362968445
vn 0.38647863268852234 -0.7749338746070862 0.5001117587089539
vn 0.4705391228199005 -0.487674355506897 0.7353683114051819
vn 0.4225475490093231 -0.48060524463653564 0.7684218883514404
vn 0.8307061791419983 -0.5559200048446655 0.029667723923921585
vn 0.2886037826538086 -0.9453346133232117 0.15182340145111084
vn 0.55583655834198 -0.8303627371788025 -0.039284396916627884
vn 0.19446413218975067 -0.9755791425704956 -0.10212282836437225
vn 0.6041529178619385 -0.4987310469150543 0.621503472328186
vn 0.5169094204902649 -0.4930630922317505 0.6997810006141663
vn -0.4175698757171631 -0.6669238209724426 0.6171289086341858
vn -0.06391388922929764 -0.9597393870353699 0.27352389693260193
vn -0.2463395744562149 -0.44217708706855774 0.8624362349510193
vn -0.24332472681999207 -0.967413604259491 -0.07002847641706467
vn -0.779309868812561 -0.5618253946304321 -0.27753981947898865
vn -0.6280760169029236 -0.5688065886497498 -0.5310174226760864
vn -0.693608283996582 -0.720340371131897 0.0041731419041752815
vn 0.1355690360069275 -0.9605568051338196 0.2427995502948761
vn -0.061908312141895294 -0.7839710116386414 0.6177029013633728
vn 0.7527632713317871 -0.5005220174789429 -0.42758050560951233
vn -8.449331403426186e-7 -1 4.1361425928698736e-7
vn 0.0684625580906868 -0.9900901317596436 0.12261509895324707
vn -0.016183381900191307 -0.9974676966667175 0.06925548613071442
vn -0.1344297230243683 -0.5331031680107117 -0.8353021144866943
vn 0.47543904185295105 -0.5297292470932007 -0.7023850083351135
vn 0.09103862196207047 -0.949731707572937 -0.29953572154045105
vn -0.0322839580476284 -0.9898836016654968 0.13815981149673462
vn -0.051082901656627655 -0.9983369708061218 0.02671840973198414
vn 0.09783076494932175 -0.9938761591911316 -0.05137583613395691
vn 0.0734100192785263 -0.996553897857666 0.03861885517835617
vn 0.14631491899490356 -0.9862390756607056 0.07697111368179321
vn 0.46143606305122375 -0.7930763959884644 -0.3976260721683502
vn -0.12266618758440018 -0.9918198585510254 -0.03530280292034149
vn -0.09888848662376404 -0.978782057762146 -0.1794622540473938
vn -0.3648151159286499 -0.8188768625259399 -0.44311484694480896
vn -0.4220919907093048 -0.5262042284011841 -0.73820561170578
vn 0.04610194265842438 -0.9873529672622681 -0.15168602764606476
vn -0.10199505090713501 -0.9933534264564514 0.05334753915667534
vn -0.5303376317024231 -0.7982967495918274 0.28541940450668335
vn -0.39884379506111145 -0.9102712869644165 0.11103982478380203
vn -0.30661502480506897 -0.9070911407470703 0.2883971035480499
vn -0.049709051847457886 -0.9946814179420471 -0.09021072089672089
vn 0.8142570853233337 -0.5432472825050354 -0.20461608469486237
vn 0.6262166500091553 -0.5252884030342102 -0.5761291980743408
vn 0.09362340718507767 -0.49029573798179626 0.8665129542350769
vn -0.12709689140319824 -0.8235786557197571 -0.5527788996696472
vn 0.06512872874736786 0.9628376960754395 -0.2621103525161743
vn 0.24551446735858917 0.9588319063186646 0.1427023857831955
vn -0.2578847110271454 0.9620827436447144 -0.08883828669786453
vn -0.48236292600631714 0.7327166199684143 0.4800545275211334
vn 0.6658748984336853 0.7317036390304565 -0.14567242562770844
vn -0.008615268394351006 0.9586924314498901 0.28431418538093567
vn -0.3518856465816498 0.6912702322006226 0.6311275362968445
vn 0.717052161693573 0.6963473558425903 0.030602823942899704
vn 0.2436087429523468 0.9656274318695068 0.09065565466880798
vn 0.4508057236671448 0.8920696377754211 -0.031400468200445175
vn 0.32086122035980225 0.7523666024208069 0.5753195285797119
vn 0.020472461357712746 0.8820818662643433 0.47065117955207825
vn -0.20678219199180603 0.6210911273956299 0.7559675574302673
vn 0.2436087429523468 0.9656274318695068 0.09065565466880798
vn 0.7431740760803223 0.6366592645645142 0.20580874383449554
vn -0.06054902821779251 0.9654648303985596 0.2533998489379883
vn -0.00740545429289341 0.9999721050262451 0.0009427336626686156
vn -0.26108935475349426 0.889561653137207 0.37484994530677795
vt 2 1
vt 1.7675211429595947 0.6686188280582428
vt 1.764788031578064 0.7711663544178009
vt 1.529576063156128 0.5423327088356018
vt 1.6473357677459717 0.8876376450061798
vt 0.23333612084388733 0.7732272744178772
vt 0.46667224168777466 0.5464545488357544
vt 0.23398345708847046 0.6706552803516388
vt 0 1
vt 0.35297268629074097 0.8875767290592194
vt 0.15458936989307404 0.47492754459381104
vt 0.15458936989307404 0.1449275016784668
vt 0.4845893979072571 0.1449275016784668
vt 0.4845893979072571 0.47492754459381104
vt 0.8145893812179565 0.8049275875091553
vt 0.4845893979072571 0.8049275875091553
vt 0.23398345708847046 0.4206552505493164
vt 0 0.5
vt 0.4679669141769409 0.3413105607032776
vt 0.23398345708847046 0.1706552505493164
vt 1.1813366413116455 1
vt 1.5906683206558228 1
vt 1.2946714162826538 0.7752752900123596
vt 0.7059453725814819 0.7751534581184387
vt 0.5906683206558228 1
vt 1.4114841222763062 0.31399762630462646
vt 1.4114841222763062 0.6056265234947205
vt 1.0522222518920898 0.39612317085266113
vt 0.6446512937545776 0.6660130023956299
vt 0.6446512937545776 0.4661715030670166
vt 1.0522222518920898 0.6273656487464905
vt 0.15458936989307404 0.8049275875091553
vt 0.8145893812179565 0.47492754459381104
vt 1.0522222518920898 0.16457879543304443
vt 0.6446512937545776 0.16457879543304443
vt 1.5350422859191895 0.3372376561164856
vt 1.6497846841812134 0.060532569885253906
vt 1.3113152980804443 0.060532569885253906
vt 2 0.5
vt 0.7059459090232849 0
vt 0.4911015033721924 0
vt 1.7675211429595947 0.1686187982559204
vt 2 0
vt 1.4114841222763062 0.16457879543304443
vt 0 0
vt 0.8145893812179565 0.1449275016784668
vt 2.2968695163726807 2.5740931034088135
vt 2.460055351257324 2.5555484294891357
vt 2.534656524658203 2.717270851135254
vt 2.6232409477233887 2.5370036363601685
vt 2.5151076316833496 2.3642706871032715
vt 2.7333455085754395 2.1544482707977295
vt 2.678293228149414 2.3457260131835938
vt 2.8414788246154785 2.3271812200546265
vt 2.9374780654907227 2.1396340131759644
vt 2.8039166927337646 1.9181265830993652
vt 2.9253439903259277 1.7793537974357605
vt 2.9496123790740967 2.4999141693115234
vt 0.6675395965576172 2.2071616649627686
vt 0.3584006130695343 1.6012448072433472
vt 0.6625921726226807 1.551645278930664
vt 0.0014983713626861572 1.3456788063049316
vt 0.011705316603183746 1.8849201202392578
vt 2.6582210063934326 1.336338996887207
vt 2.4353389739990234 0.7561365365982056
vt 2.901075601577759 1.0587934255599976
vt 0.3572540581226349 2.2054147720336914
vt 0.020680278539657593 2.359074592590332
vt 2.3714709281921387 2.7358155250549316
vt 2.4460723400115967 2.89753794670105
vt 2.1294121742248535 2.744598865509033
vt 2.6978423595428467 2.6987260580062866
vt 2.6957831382751465 1.7453936338424683
vt 2.913209915161133 1.419073611497879
vt 2.0548105239868164 2.582876443862915
vt 1.8127517700195312 2.5916597843170166
vt 1.4961023330688477 2.767683267593384
vt 1.8127626180648804 2.9206223487854004
vt 1.179452896118164 2.943706750869751
vt 1.383419156074524 2.607311248779297
vt 0.8398469686508179 1.8052918910980225
vt 0.917824387550354 2.4155757427215576
vt 0.7083031535148621 2.1828033924102783
vt 2.2877421379089355 2.8210684061050415
vt 2.1294174194335938 2.909080147743225
vt 1.9710874557495117 2.832610607147217
vt 2.786426544189453 2.518458843231201
vt 1.9710900783538818 2.914851188659668
vt 2.2877449989318848 2.9033091068267822
vt 2.8237273693084717 2.59932017326355
vt 0.7035460472106934 1.5524991750717163
vt 0.9080162048339844 1.1783794164657593
vt 2.5719573497772217 2.7981319427490234
vt 1 1
vt 0.5 0.5
vt 0 1
vt 0.5 0
vt 1 0
vt 0 0
vt 0 0.5
vt 1 0.5
vt 0.8462880849838257 0.9226692914962769
vt 1.0924447774887085 0.7267856001853943
vt 1.093980073928833 0.9226692914962769
vt 1.2724313735961914 0.924091100692749
vt 1.4419279098510742 0.9244132041931152
vt 1.4420584440231323 0.7287119030952454
vt 1.093980073928833 0.45106691122055054
vt 0.8447527885437012 0.7267856597900391
vt 0.8462880253791809 0.4510669708251953
vt 1.093980073928833 0.45106691122055054
vt 0.8447527885437012 0.7267856597900391
vt 0.8462880253791809 0.4510669708251953
vt 1.0914006233215332 0.7273263335227966
vt 1.2665002346038818 0.5901519954204559
vt 0.8462880849838257 0.9226692914962769
vt 1.0924447774887085 0.7267856001853943
vt 1.093980073928833 0.9226692914962769
vt 1.44159996509552 0.45297765731811523
vt 0.25 0
vt 1.0920425653457642 0.45190101861953735
vt 1.0948395729064941 0.923753559589386
vt 1.0948395729064941 0.923753559589386
vt 0.1388888657093048 0.013562262058258057
vt 0.12439613044261932 0.15639984607696533
vt 0.04500449821352959 0.1439228057861328
vt 0.19171050190925598 0.15621602535247803
vt 0.11662781238555908 0.0004994869232177734
vt 0.25 0.16117578744888306
vt 0 0.16378241777420044
vt 0.11231882870197296 0.33146244287490845
vt 0.02387586236000061 0.3507976531982422
vt 0.20559272170066833 0.34113752841949463
vt 0.25 0.34351491928100586
vt 0 0.3464418649673462
vt 0.12198065221309662 0.6185948252677917
vt 0.02828630805015564 0.6489658951759338
vt 0.20842865109443665 0.6465542912483215
vt 0.5 0.6437918543815613
vt 0.75 0.6370759606361389
vt 0.75 0.9945828914642334
vt 0.5 0.9995005130767822
vt 0.625 0.6185948252677917
vt 0.75 0.6465542912483215
vt 0.75 0.9991387724876404
vt 0.625 0.9991387724876404
vt 0.5 0.6489658951759338
vt 0.5 0.9991387724876404
vt 0.5 0.3464418649673462
vt 0.75 0.34351491928100586
vt 0.625 0.33146244287490845
vt 0.75 0.34113752841949463
vt 0.5 0.3507976531982422
vt 0.625 0.16378241777420044
vt 0.625 0.15639984607696533
vt 0.625 0.1439228057861328
vt 1.3393973112106323 0.7226075530052185
vt 1.5641300678253174 0.7175922393798828
vt 1.2805027961730957 0.3686331510543823
vt 1.2529464960098267 0.39506590366363525
vt 0.28725919127464294 0.44952261447906494
vt 0.5022197365760803 0.457755446434021
vt 0.4850100576877594 0.7235308885574341
vt 0.48511603474617004 0.7235308885574341
vt 0.2784122824668884 0.7235308885574341
vt 0.28563404083251953 0.45021939277648926
vt 0.4835858941078186 0.45915019512176514
vt 0.27475234866142273 0.45212841033935547
vt 0.27348652482032776 0.456135630607605
vt 2.106348752975464 0.41294240951538086
vt 2.2440953254699707 0.41427701711654663
vt 1.9678362607955933 0.736606240272522
vt 2.2334625720977783 0.7387082576751709
vt 1.1059678792953491 0.3813179135322571
vt 1.283277153968811 0.36662471294403076
vt 1.0628830194473267 0.7236330509185791
vt 0.5 0.6437918543815613
vt 0.75 0.6370759606361389
vt 0.75 0.9945828914642334
vt 0.5 0.9995005130767822
vt 0.625 0.6185948252677917
vt 0.75 0.6465542912483215
vt 0.75 0.9991387724876404
vt 0.625 0.9991387724876404
vt 0.5 0.6489658951759338
vt 0.5 0.9991387724876404
vt 0.5 0.3464418649673462
vt 0.75 0.34351491928100586
vt 0.625 0.33146244287490845
vt 0.75 0.34113752841949463
vt 0.5 0.3507976531982422
vt 0.625 0.16378241777420044
vt 0.625 0.15639984607696533
vt 0.625 0.1439228057861328
vt 0.5 0.6437918543815613
vt 0.75 0.6370759606361389
vt 0.75 0.9945828914642334
vt 0.5 0.9995005130767822
vt 0.625 0.6185948252677917
vt 0.75 0.6465542912483215
vt 0.75 0.9991387724876404
vt 0.625 0.9991387724876404
vt 0.5 0.6489658951759338
vt 0.5 0.9991387724876404
vt 0.5 0.3464418649673462
vt 0.75 0.34351491928100586
vt 0.625 0.33146244287490845
vt 0.75 0.34113752841949463
vt 0.5 0.3507976531982422
vt 0.625 0.16378241777420044
vt 0.625 0.15639984607696533
vt 0.625 0.1439228057861328
vt 0 0.6437918543815613
vt 0.25 0.6370759606361389
vt 0.25 0.9945828914642334
vt 0 0.9995005130767822
vt 0.22946861386299133 0.9991387724876404
vt 0.12439612299203873 0.9991387724876404
vt 0.014492779970169067 0.9991387724876404
vt 0.9948633909225464 -0.7376799583435059
vt 1.095678448677063 -0.3306753635406494
vt 1.2999951839447021 -0.7384032011032104
vt 1.2530072927474976 -0.3414790630340576
vt 0.2941034436225891 -0.7051968574523926
vt 0.3027127683162689 -0.3135950565338135
vt 0.5187849402427673 -0.7086576223373413
vt 0.5148218274116516 -0.3073878288269043
vt 2.0616300106048584 -0.8211829662322998
vt 2.1068177223205566 -0.45350003242492676
vt 2.3062825202941895 -0.812325119972229
vt 2.2312355041503906 -0.4507565498352051
vt 1.0803087949752808 0.007701992988586426
vt 1.2941770553588867 -0.014238238334655762
vt 0.2792419493198395 0.11821693181991577
vt 0.5326825380325317 0.1311182975769043
vt 2.084552049636841 0.02121865749359131
vt 2.262845993041992 0.025543391704559326
vt 1.0976026058197021 0.4040241241455078
vt 1.2471871376037598 0.39142942428588867
vt 2.0927627086639404 0.3958473801612854
vt 2.217193126678467 0.3991730213165283
vt 1.3339797258377075 0.7241719365119934
vt 2.125623941421509 0.01005411148071289
vt 2.2443997859954834 0.01060473918914795
vt 0.31426557898521423 0.11231523752212524
vt 0.5079634189605713 0.12306016683578491
vt 1.1184476613998413 -0.025005578994750977
vt 1.27189302444458 -0.042643070220947266
vt 2.063861131668091 -0.3490089178085327
vt 2.2569494247436523 -0.3491780757904053
vt 0.2840679883956909 -0.3315681219100952
vt 0.5346582531929016 -0.31329917907714844
vt 1.0505974292755127 -0.30910003185272217
vt 1.301709532737732 -0.3380481004714966
vt 2.259972333908081 -0.8060673475265503
vt 2.1001291275024414 -0.8075673580169678
vt 0.5139067769050598 -0.712361216545105
vt 0.2827633023262024 -0.7270604372024536
vt 1.257527470588684 -0.7248528003692627
vt 1.062564492225647 -0.700157642364502
vt 0.75 0.75
vt 1 0.5
vt 1.0152298212051392 1
vt 0.5 1
vt 0.5 0.5
vt 0.75 0.25
vt 1 0
vt 1.25 0.25
vt 1.2576148509979248 0.5
vt 0.125 0.75
vt 0 1
vt 0 0.5
vt 0 0
vt 0.25 0.25
vt 0.5 0.5
vt 0.5 0.25
vt 0.5 0
vt 0.25 0.75
vt 0 1
vt 0.31317436695098877 1
vt 0.75 0.25
vt 0.8131743669509888 0.5
vt 1.3788074254989624 0.75
vt 1.5 0.5
vt 1.5 1
vt 2 1
vt 1.625 0.75
vt 0.1875 0.125
vt 0.3125 0.125
vt 0.125 0.25
vt 1.75 0.5
vt 0.6263487339019775 1
vt 0.9065871834754944 0.75
vt 1 1
vt 1.625 0.25
vt 2 0
vt 1.5 0
vt 0.7197615504264832 0.75
vt 0.4065871834754944 0.75
vt 1.1364223957061768 0.75
vt 0.625 0.125
vt 0.125 0.5
vt 0.25 0.5
vt 1.3788074254989624 0.25
vt 1.439403772354126 0.375
vt 2 0.5
vt 0.9065871834754944 0.25
vt 1 0
vt 0.9532935619354248 0.375
vt 1 0.25
vt 1 0.5
vt 0 0
vt 0.0625 0.375
vt 0 0.25
vt 0 0.5
vt 0.5631743669509888 0.75
vt 0.125 0
vt 0.25 0
vt 0.0625 0.125
vt 0.7013504505157471 1
vt 0.6834288835525513 0.8074424862861633
vt 1 1
vt 0 0.0004994869232177734
vt 0.23823818564414978 0.25446516275405884
vt 0.11911863088607788 0.3442082405090332
vt 0 0.5002497434616089
vt 0.7721285223960876 0.2588014602661133
vt 1 0.00737684965133667
vt 0.8860639929771423 0.34981483221054077
vt 0.7721279859542847 0.6922528147697449
vt 0.25 0.25
vt 0.375 0.25
vt 0.1875 0.375
vt 1 0.5036884248256683
vt 0.5 0.25
vt 0.40270090103149414 1
vt 0.5430648922920227 0.9037212431430817
vt 0.17867794632911682 0.5160626173019409
vt 0.23823726177215576 0.6879169940948486
vt 0.11911863088607788 0.5940833687782288
vt 0.375 0.75
vt 0.75 0
vt 0.5 0
vt 0.75 0.5
vt 0.16346825659275055 0.9022057354450226
vt 0 1
vt 0.3269365131855011 0.8044114708900452
vt 0.20135045051574707 1
vt 0.3020256757736206 1
vt 0.41605961322784424 0.8051692247390747
vt 0.505182683467865 0.8059269785881042
vt 0.375 0
vt 0.4375 0.125
vt 0.875 0.125
vt 0.7576149106025696 1
vt 1.2576148509979248 1
vt 1.25 0
vt 0.75 0.125
vt 0.75 0
vt 1.875 0.75
vt 0.875 0
vt 0 0.7501248717308044
vt 2 0.75
vt 0.625 0
vt 0.6834298968315125 0.1374756097793579
vt 0.32693687081336975 0.13444459438323975
vt 1.8127517700195312 2.5916597843170166
vt 1.343968152999878 2.463552474975586
vt 1.7930291891098022 2.447181820869446
vt 2.2420902252197266 2.4308111667633057
vt 1.7666267156600952 1.149436116218567
vt 1.4315351247787476 1.5185141563415527
vt 1.3687739372253418 1.0458440780639648
vt 1.4844927787780762 0.7907524108886719
vt 2.0394515991210938 2.2027368545532227
vt 2.2049694061279297 1.9627148509025574
vt 1.8368127346038818 1.9746626615524292
vt 2.167848587036133 1.494618535041809
vt 2.4288995265960693 1.944487452507019
vt 1.387751579284668 1.9910333156585693
vt 2.198256492614746 1.0156092643737793
vt 2.301593780517578 1.1253775358200073
vt 1.1427944898605347 2.1107046604156494
vt 2.4353389739990234 0.7561365365982056
vt 1.799691915512085 1.506566345691681
vt 2.6582210063934326 1.336338996887207
vt 2.064337730407715 0.7696170210838318
vt 2.7333455085754395 2.1544482707977295
vt 2.6957831382751465 1.7453936338424683
vt 0.917824387550354 2.4155757427215576
vt 2.5151076316833496 2.3642706871032715
vt 2.2968695163726807 2.5740931034088135
vt 1.5903904438018799 2.2191076278686523
vt 0.9080162048339844 1.1783794164657593
vt 1.149796962738037 1.7041736841201782
vt 1.1203397512435913 0.804029107093811
vt 2.0548105239868164 2.582876443862915
vt 0.8398469686508179 1.8052918910980225
vt 1.383419156074524 2.607311248779297
vt 0.5 0.5386473536491394
vt 0.5 0.2483091950416565
vt 0 0.2483091950416565
vt 1 0.2483091950416565
vt 0 1
vt 0.5 0.9144927561283112
vt 0.5 0.8289855122566223
vt 0 0.8289855122566223
vt 0.5 0.5386473536491394
vt 0 0.2483091950416565
vt 0.5 0.8289855122566223
vt 0 0.8289855122566223
vt 0 1
vt 1 0.8289855122566223
vt 0.5 1
vt 1 0.8289855122566223
vt 1 1
vt 0 0.8289855122566223
vt 0.5 0.5386473536491394
vt 0 0.2483091950416565
vt 0.5 0.9144927561283112
vt 0 1
vt 0.5 1
vt 1 1
vt 0.5 0.8289855122566223
vt 1 0.8289855122566223
vt 1 0.2483091950416565
vt 1 1
vt 0.5 0.9144927561283112
vt 0.5 0.2483091950416565
vt 1 0.2483091950416565
vt 0.5 0.2483091950416565
vt 0.75 0.7475000023841858
vt 1 0.8712500035762787
vt 1 0.9950000047683716
vt 0.5 0
vt 0.5 0.5
vt 0.2524999976158142 0.25
vt 0.004999999888241291 0.5
vt 1 0.5
vt 1 0.7475000023841858
vt 0.5024999976158142 0
vt 0.5 0.5
vt 1 0
vt 0.5 0.5
vt 1 0
vt 1 0.4975000023841858
vt 0.5024999976158142 0
vt 0.5 0.9950000047683716
vt 0.75 0.4975000023841858
vt 0.004999999888241291 0
vt 0.004999999888241291 0.9950000047683716
vt 0.2524999976158142 0.9950000047683716
vt 0.1287499964237213 0.8712500035762787
vt 1 0.5
vt 0.5 0
vt 0.5 0.5
vt 0.2524999976158142 0.7475000023841858
vt 0.004999999888241291 0.7475000023841858
vt 0.004999999888241291 0.7475000023841858
vt 0.1287499964237213 0.8712500035762787
vt 0.2524999976158142 0.7475000023841858
vt 0.2524999976158142 0.25
vt 0.2524999976158142 0.7475000023841858
vt 0.5 0.9950000047683716
vt 0.75 0.7475000023841858
vt 1 0.9950000047683716
vt 0.2524999976158142 0.7475000023841858
vt 0.004999999888241291 0.5
vt 0.004999999888241291 0
vt 0.2524999976158142 0.25
vt 0.2524999976158142 0.25
vt 0.2524999976158142 0.9950000047683716
vt 0.2524999976158142 0
vt 0.2524999976158142 0
vt 1 0.4975000023841858
vt 0.75 0.7475000023841858
vt 0.5797569155693054 0.2510344982147217
vt 0.9047936201095581 0.5279561877250671
vt 0.8442979454994202 0.5771956443786621
vt 0.9612886309623718 0.5985336303710938
vt 0.5858610272407532 0.12950652837753296
vt 0.6423531770706177 0.20008575916290283
vt 0.7300257086753845 0.7861333787441254
vt 0.3545979857444763 0.31710630655288696
vt 1.0914006233215332 0.7273263335227966
vt 0.35154592990875244 0.3778703212738037
vt 0.31104886531829834 0.739219605922699
vt 0.37458449602127075 0.7460068464279175
vt 0.49876275658607483 0.973733127117157
vt 0.25040626525878906 0.518280565738678
vt 0.12333495914936066 0.504706084728241
vt 0.5128471851348877 0.8461509943008423
vt 0.5473520755767822 0.54773810505867
vt 0.6715303659439087 0.7754643857479095
g Den040
s 1
f 1/1/1 2/2/2 3/3/3
f 3/3/3 2/2/2 4/4/4
f 4/4/4 5/5/5 3/3/3
f 3/3/3 5/5/5 1/1/1
f 6/6/6 7/7/7 8/8/8
f 9/9/9 6/6/6 8/8/8
f 6/6/6 9/9/9 10/10/10
f 7/7/7 6/6/6 10/10/10
f 11/11/11 12/12/12 13/13/13
f 13/13/13 14/14/14 11/11/11
f 14/14/14 15/15/15 16/16/16
f 16/16/16 11/11/11 14/14/14
f 17/17/17 18/18/18 8/8/8
f 19/19/19 17/17/17 8/8/8
f 19/19/19 20/20/20 17/17/17
f 17/17/17 20/20/20 18/18/18
f 21/21/21 22/22/22 23/23/23
f 21/21/21 24/24/24 25/25/25
f 26/26/26 27/27/27 28/28/28
f 29/29/29 30/30/30 31/31/31
f 32/32/32 11/11/11 16/16/16
f 33/33/33 15/15/15 14/14/14
f 31/31/31 30/30/30 28/28/28
f 34/34/34 28/28/28 30/30/30
f 28/28/28 27/27/27 31/31/31
f 30/30/30 35/35/35 34/34/34
f 36/36/36 37/37/37 38/38/38
f 7/7/7 10/10/10 24/24/24
f 25/25/25 24/24/24 10/10/10
f 25/25/25 10/10/10 9/9/9
f 2/2/2 1/1/1 39/39/39
f 36/36/36 2/2/2 39/39/39
f 2/2/2 36/36/36 4/4/4
f 8/8/8 18/18/18 9/9/9
f 19/19/19 40/40/40 41/41/41
f 24/24/24 21/21/21 23/23/23
f 8/8/8 7/7/7 19/19/19
f 36/36/36 39/39/39 42/42/42
f 42/42/42 39/39/39 43/43/43
f 28/28/28 34/34/34 44/44/44
f 44/44/44 26/26/26 28/28/28
f 43/43/43 37/37/37 42/42/42
f 42/42/42 37/37/37 36/36/36
f 20/20/20 45/45/45 18/18/18
f 41/41/41 20/20/20 19/19/19
f 46/46/46 33/33/33 14/14/14
f 14/14/14 13/13/13 46/46/46
f 41/41/41 45/45/45 20/20/20
f 22/22/22 5/5/5 23/23/23
f 22/22/22 1/1/1 5/5/5
f 4/4/4 23/23/23 5/5/5
g Den041
s 1
f 47/47/47 48/48/48 49/49/49
f 48/48/48 50/50/50 49/49/49
f 51/51/51 52/52/52 53/53/53
f 51/51/51 53/53/53 50/50/50
f 50/50/50 53/53/53 54/54/54
f 53/53/53 52/52/52 54/54/54
f 55/55/55 56/56/56 57/57/57
f 58/58/58 56/56/56 55/55/55
f 59/59/59 60/60/60 61/61/61
f 62/62/62 60/60/60 63/63/63
f 64/64/64 65/65/65 66/66/66
f 47/47/47 51/51/51 48/48/48
f 48/48/48 51/51/51 50/50/50
f 63/63/63 67/67/67 68/68/68
f 47/47/47 49/49/49 69/69/69
f 69/69/69 49/49/49 70/70/70
f 71/71/71 47/47/47 69/69/69
f 50/50/50 72/72/72 49/49/49
f 73/73/73 54/54/54 52/52/52
f 73/73/73 58/58/58 54/54/54
f 56/56/56 58/58/58 73/73/73
f 64/64/64 56/56/56 73/73/73
f 56/56/56 64/64/64 57/57/57
f 57/57/57 64/64/64 74/74/74
f 74/74/74 64/64/64 66/66/66
f 75/75/75 47/47/47 71/71/71
f 76/76/76 75/75/75 71/71/71
f 77/77/77 76/76/76 78/78/78
f 79/79/79 77/77/77 78/78/78
f 77/77/77 79/79/79 80/80/80
f 76/76/76 77/77/77 80/80/80
f 81/81/81 82/82/82 83/83/83
f 71/71/71 69/69/69 84/84/84
f 84/84/84 69/69/69 70/70/70
f 85/85/85 71/71/71 84/84/84
f 78/78/78 76/76/76 86/86/86
f 86/86/86 76/76/76 71/71/71
f 86/86/86 71/71/71 85/85/85
f 50/50/50 87/87/87 72/72/72
f 50/50/50 54/54/54 87/87/87
f 87/87/87 54/54/54 58/58/58
f 88/88/88 86/86/86 85/85/85
f 78/78/78 86/86/86 88/88/88
f 89/89/89 84/84/84 70/70/70
f 85/85/85 84/84/84 89/89/89
f 82/82/82 80/80/80 79/79/79
f 87/87/87 58/58/58 90/90/90
f 87/87/87 90/90/90 72/72/72
f 81/81/81 91/91/91 92/92/92
f 91/91/91 81/81/81 83/83/83
f 49/49/49 72/72/72 93/93/93
f 49/49/49 93/93/93 70/70/70
f 63/63/63 60/60/60 67/67/67
f 59/59/59 67/67/67 60/60/60
g Den042
s 1
f 94/94/94 95/95/95 96/96/96
f 97/97/97 95/95/95 98/98/98
f 95/95/95 99/99/99 100/100/100
f 95/95/95 100/100/100 96/96/96
f 95/95/95 94/94/94 101/101/101
f 95/95/95 101/101/101 98/98/98
f 102/102/102 103/103/103 104/104/104
f 105/105/105 106/106/106 107/107/107
f 108/108/108 109/109/109 110/110/110
f 111/111/111 112/112/112 113/113/113
f 114/114/114 107/107/107 115/115/115
f 116/116/116 117/117/117 118/118/118
f 115/115/115 107/107/107 119/119/119
f 99/99/99 95/95/95 120/120/120
f 119/119/119 121/121/121 115/115/115
f 120/120/120 95/95/95 97/97/97
f 122/122/122 105/105/105 107/107/107
f 105/105/105 114/114/114 123/123/123
f 115/115/115 121/121/121 114/114/114
f 102/102/102 109/109/109 103/103/103
f 108/108/108 103/103/103 109/109/109
f 111/111/111 117/117/117 112/112/112
f 116/116/116 112/112/112 117/117/117
g Den043
s 1
f 124/124/124 125/125/125 126/126/126
f 124/124/124 127/127/127 125/125/125
f 128/128/128 129/129/129 130/130/130
f 126/126/126 131/131/131 132/132/132
f 126/126/126 125/125/125 131/131/131
f 125/125/125 133/133/133 131/131/131
f 125/125/125 127/127/127 133/133/133
f 130/130/130 134/134/134 135/135/135
f 130/130/130 129/129/129 134/134/134
f 132/132/132 136/136/136 137/137/137
f 132/132/132 131/131/131 136/136/136
f 131/131/131 138/138/138 136/136/136
f 131/131/131 133/133/133 138/138/138
f 139/139/139 140/140/140 141/141/141
f 139/139/139 141/141/141 142/142/142
f 143/143/143 144/144/144 145/145/145
f 143/143/143 145/145/145 146/146/146
f 147/147/147 143/143/143 146/146/146
f 147/147/147 146/146/146 148/148/148
f 149/149/149 150/150/150 140/140/140
f 149/149/149 140/140/140 139/139/139
f 151/151/151 152/152/152 144/144/144
f 151/151/151 144/144/144 143/143/143
f 153/153/153 151/151/151 143/143/143
f 153/153/153 143/143/143 147/147/147
f 154/154/154 150/150/150 149/149/149
f 155/155/155 152/152/152 151/151/151
f 156/156/156 151/151/151 153/153/153
f 157/157/157 158/158/158 159/159/159
f 158/158/158 157/157/157 160/160/160
f 161/161/161 162/162/162 163/163/163
f 164/164/164 165/165/165 166/166/166
f 163/163/163 167/167/167 168/168/168
f 169/169/169 165/165/165 164/164/164
f 170/170/170 171/171/171 172/172/172
f 173/173/173 172/172/172 171/171/171
f 174/174/174 175/175/175 176/176/176
f 177/177/177 178/178/178 179/179/179
f 177/177/177 179/179/179 180/180/180
f 181/181/181 182/182/182 183/183/183
f 181/181/181 183/183/183 184/184/184
f 185/185/185 181/181/181 184/184/184
f 185/185/185 184/184/184 186/186/186
f 187/187/187 188/188/188 178/178/178
f 187/187/187 178/178/178 177/177/177
f 189/189/189 190/190/190 182/182/182
f 189/189/189 182/182/182 181/181/181
f 191/191/191 189/189/189 181/181/181
f 191/191/191 181/181/181 185/185/185
f 192/192/192 188/188/188 187/187/187
f 193/193/193 190/190/190 189/189/189
f 194/194/194 189/189/189 191/191/191
f 195/195/195 196/196/196 197/197/197
f 195/195/195 197/197/197 198/198/198
f 199/199/199 200/200/200 201/201/201
f 199/199/199 201/201/201 202/202/202
f 203/203/203 199/199/199 202/202/202
f 203/203/203 202/202/202 204/204/204
f 205/205/205 206/206/206 196/196/196
f 205/205/205 196/196/196 195/195/195
f 207/207/207 208/208/208 200/200/200
f 207/207/207 200/200/200 199/199/199
f 209/209/209 207/207/207 199/199/199
f 209/209/209 199/199/199 203/203/203
f 210/210/210 206/206/206 205/205/205
f 211/211/211 208/208/208 207/207/207
f 212/212/212 207/207/207 209/209/209
f 213/213/213 214/214/214 215/215/215
f 213/213/213 215/215/215 216/216/216
f 136/136/136 138/138/138 217/217/217
f 136/136/136 217/217/217 218/218/218
f 137/137/137 136/136/136 218/218/218
f 137/137/137 218/218/218 219/219/219
f 135/135/135 134/134/134 214/214/214
f 135/135/135 214/214/214 213/213/213
f 220/220/220 221/221/221 222/222/222
f 222/222/222 221/221/221 223/223/223
f 224/224/224 225/225/225 226/226/226
f 226/226/226 225/225/225 227/227/227
f 228/228/228 229/229/229 230/230/230
f 230/230/230 229/229/229 231/231/231
f 223/223/223 232/232/232 233/233/233
f 232/232/232 223/223/223 221/221/221
f 227/227/227 234/234/234 235/235/235
f 234/234/234 227/227/227 225/225/225
f 231/231/231 236/236/236 237/237/237
f 236/236/236 231/231/231 229/229/229
f 233/233/233 238/238/238 239/239/239
f 238/238/238 233/233/233 232/232/232
f 235/235/235 168/168/168 167/167/167
f 168/168/168 235/235/235 234/234/234
f 237/237/237 240/240/240 241/241/241
f 240/240/240 237/237/237 236/236/236
f 239/239/239 176/176/176 242/242/242
f 176/176/176 239/239/239 238/238/238
f 242/242/242 176/176/176 175/175/175
f 243/243/243 244/244/244 170/170/170
f 171/171/171 170/170/170 244/244/244
f 245/245/245 246/246/246 161/161/161
f 162/162/162 161/161/161 246/246/246
f 247/247/247 248/248/248 174/174/174
f 175/175/175 174/174/174 248/248/248
f 249/249/249 250/250/250 243/243/243
f 244/244/244 243/243/243 250/250/250
f 251/251/251 252/252/252 245/245/245
f 246/246/246 245/245/245 252/252/252
f 253/253/253 254/254/254 247/247/247
f 248/248/248 247/247/247 254/254/254
f 250/250/250 249/249/249 255/255/255
f 255/255/255 249/249/249 256/256/256
f 252/252/252 251/251/251 257/257/257
f 257/257/257 251/251/251 258/258/258
f 254/254/254 253/253/253 259/259/259
f 259/259/259 253/253/253 260/260/260
f 172/172/172 241/241/241 240/240/240
f 241/241/241 172/172/172 173/173/173
g Den044
s 1
f 261/261/261 262/262/262 263/263/263
f 264/264/264 265/265/265 261/261/261
f 262/262/262 266/266/266 267/267/267
f 262/262/262 267/267/267 268/268/268
f 262/262/262 268/268/268 269/269/269
f 270/270/270 264/264/264 271/271/271
f 272/272/272 273/273/273 274/274/274
f 275/275/275 274/274/274 276/276/276
f 272/272/272 274/274/274 275/275/275
f 274/274/274 273/273/273 277/277/277
f 278/278/278 272/272/272 275/275/275
f 279/279/279 272/272/272 278/278/278
f 279/279/279 278/278/278 280/280/280
f 275/275/275 281/281/281 282/282/282
f 283/283/283 284/284/284 285/285/285
f 286/286/286 285/285/285 287/287/287
f 288/288/288 289/289/289 290/290/290
f 291/291/291 287/287/287 284/284/284
f 287/287/287 285/285/285 284/284/284
f 292/292/292 293/293/293 294/294/294
f 295/295/295 296/296/296 291/291/291
f 297/297/297 296/296/296 295/295/295
f 295/295/295 284/284/284 297/297/297
f 291/291/291 284/284/284 295/295/295
f 275/275/275 282/282/282 298/298/298
f 276/276/276 274/274/274 277/277/277
f 292/292/292 298/298/298 293/293/293
f 298/298/298 282/282/282 293/293/293
f 280/280/280 299/299/299 292/292/292
f 278/278/278 275/275/275 299/299/299
f 278/278/278 299/299/299 280/280/280
f 262/262/262 269/269/269 300/300/300
f 262/262/262 300/300/300 263/263/263
f 263/263/263 300/300/300 283/283/283
f 300/300/300 269/269/269 283/283/283
f 275/275/275 276/276/276 281/281/281
f 276/276/276 277/277/277 301/301/301
f 302/302/302 303/303/303 270/270/270
f 304/304/304 297/297/297 305/305/305
f 269/269/269 304/304/304 305/305/305
f 268/268/268 304/304/304 269/269/269
f 268/268/268 297/297/297 304/304/304
f 291/291/291 296/296/296 306/306/306
f 307/307/307 308/308/308 309/309/309
f 309/309/309 310/310/310 311/311/311
f 309/309/309 308/308/308 310/310/310
f 312/312/312 313/313/313 314/314/314
f 314/314/314 313/313/313 315/315/315
f 282/282/282 307/307/307 309/309/309
f 281/281/281 307/307/307 282/282/282
f 299/299/299 316/316/316 292/292/292
f 299/299/299 275/275/275 316/316/316
f 275/275/275 298/298/298 316/316/316
f 316/316/316 298/298/298 292/292/292
f 317/317/317 318/318/318 319/319/319
f 312/312/312 317/317/317 319/319/319
f 320/320/320 321/321/321 322/322/322
f 323/323/323 324/324/324 325/325/325
f 323/323/323 325/325/325 326/326/326
f 327/327/327 328/328/328 329/329/329
f 327/327/327 329/329/329 330/330/330
f 293/293/293 309/309/309 311/311/311
f 282/282/282 309/309/309 293/293/293
f 331/331/331 332/332/332 333/333/333
f 330/330/330 329/329/329 334/334/334
f 329/329/329 328/328/328 334/334/334
f 290/290/290 331/331/331 333/333/333
f 290/290/290 289/289/289 331/331/331
f 331/331/331 289/289/289 332/332/332
f 319/319/319 288/288/288 290/290/290
f 303/303/303 332/332/332 335/335/335
f 319/319/319 318/318/318 288/288/288
f 318/318/318 289/289/289 288/288/288
f 312/312/312 302/302/302 313/313/313
f 336/336/336 337/337/337 320/320/320
f 337/337/337 321/321/321 320/320/320
f 338/338/338 339/339/339 340/340/340
f 338/338/338 340/340/340 326/326/326
f 315/315/315 270/270/270 271/271/271
f 303/303/303 265/265/265 341/341/341
f 341/341/341 265/265/265 264/264/264
f 341/341/341 264/264/264 270/270/270
f 303/303/303 341/341/341 270/270/270
f 266/266/266 342/342/342 267/267/267
f 266/266/266 343/343/343 342/342/342
f 265/265/265 266/266/266 344/344/344
f 344/344/344 266/266/266 262/262/262
f 261/261/261 344/344/344 262/262/262
f 261/261/261 265/265/265 344/344/344
f 303/303/303 335/335/335 265/265/265
f 335/335/335 343/343/343 266/266/266
f 265/265/265 335/335/335 266/266/266
f 305/305/305 297/297/297 284/284/284
f 283/283/283 305/305/305 284/284/284
f 269/269/269 305/305/305 283/283/283
f 339/339/339 345/345/345 346/346/346
f 339/339/339 347/347/347 345/345/345
f 345/345/345 347/347/347 348/348/348
f 346/346/346 345/345/345 348/348/348
f 348/348/348 347/347/347 349/349/349
f 349/349/349 347/347/347 336/336/336
f 336/336/336 350/350/350 351/351/351
f 336/336/336 347/347/347 350/350/350
f 313/313/313 270/270/270 315/315/315
f 325/325/325 324/324/324 338/338/338
f 338/338/338 324/324/324 339/339/339
f 325/325/325 338/338/338 326/326/326
f 336/336/336 351/351/351 337/337/337
f 337/337/337 351/351/351 321/321/321
f 313/313/313 302/302/302 270/270/270
f 352/352/352 343/343/343 289/289/289
f 318/318/318 352/352/352 289/289/289
f 289/289/289 353/353/353 332/332/332
f 276/276/276 301/301/301 281/281/281
f 281/281/281 354/354/354 307/307/307
f 354/354/354 308/308/308 307/307/307
f 312/312/312 319/319/319 302/302/302
f 355/355/355 261/261/261 263/263/263
f 264/264/264 261/261/261 355/355/355
f 356/356/356 283/283/283 285/285/285
f 263/263/263 283/283/283 356/356/356
f 289/289/289 343/343/343 353/353/353
f 353/353/353 343/343/343 335/335/335
f 268/268/268 267/267/267 357/357/357
f 268/268/268 357/357/357 297/297/297
f 332/332/332 353/353/353 335/335/335
f 281/281/281 301/301/301 358/358/358
f 358/358/358 301/301/301 359/359/359
f 358/358/358 359/359/359 354/354/354
f 281/281/281 358/358/358 354/354/354
f 319/319/319 290/290/290 302/302/302
f 293/293/293 311/311/311 294/294/294
f 291/291/291 306/306/306 360/360/360
f 360/360/360 287/287/287 291/291/291
f 286/286/286 287/287/287 360/360/360
f 354/354/354 361/361/361 308/308/308
f 354/354/354 359/359/359 361/361/361
f 326/326/326 340/340/340 362/362/362
f 340/340/340 339/339/339 362/362/362
f 362/362/362 339/339/339 346/346/346
f 360/360/360 306/306/306 363/363/363
f 360/360/360 363/363/363 286/286/286
f 301/301/301 364/364/364 359/359/359
f 301/301/301 277/277/277 364/364/364
f 333/333/333 303/303/303 302/302/302
f 290/290/290 333/333/333 302/302/302
f 333/333/333 332/332/332 303/303/303
f 365/365/365 328/328/328 327/327/327
f 322/322/322 321/321/321 330/330/330
f 330/330/330 334/334/334 322/322/322
f 323/323/323 366/366/366 324/324/324
g Den045
s 1
f 367/367/367 368/368/368 369/369/369
f 367/367/367 369/369/369 370/370/370
f 371/371/371 372/372/372 373/373/373
f 371/371/371 373/373/373 374/374/374
f 375/375/375 376/376/376 370/370/370
f 377/377/377 378/378/378 376/376/376
f 376/376/376 378/378/378 379/379/379
f 370/370/370 376/376/376 379/379/379
f 372/372/372 377/377/377 380/380/380
f 378/378/378 381/381/381 382/382/382
f 380/380/380 368/368/368 383/383/383
f 372/372/372 380/380/380 383/383/383
f 382/382/382 381/381/381 384/384/384
f 371/371/371 378/378/378 385/385/385
f 371/371/371 385/385/385 372/372/372
f 382/382/382 384/384/384 386/386/386
f 371/371/371 387/387/387 381/381/381
f 388/388/388 379/379/379 389/389/389
f 389/389/389 379/379/379 386/386/386
f 368/368/368 390/390/390 383/383/383
f 370/370/370 388/388/388 391/391/391
f 370/370/370 391/391/391 392/392/392
f 380/380/380 393/393/393 368/368/368
f 380/380/380 377/377/377 393/393/393
f 377/377/377 369/369/369 393/393/393
f 394/394/394 372/372/372 395/395/395
f 372/372/372 385/385/385 377/377/377
f 393/393/393 369/369/369 368/368/368
f 384/384/384 381/381/381 387/387/387
f 373/373/373 394/394/394 396/396/396
f 378/378/378 382/382/382 386/386/386
f 397/397/397 370/370/370 392/392/392
f 367/367/367 370/370/370 397/397/397
f 372/372/372 394/394/394 373/373/373
f 375/375/375 370/370/370 369/369/369
f 372/372/372 383/383/383 395/395/395
f 385/385/385 378/378/378 377/377/377
f 387/387/387 371/371/371 374/374/374
f 398/398/398 383/383/383 390/390/390
f 398/398/398 395/395/395 383/383/383
f 398/398/398 394/394/394 395/395/395
f 370/370/370 379/379/379 388/388/388
f 377/377/377 375/375/375 369/369/369
f 399/399/399 368/368/368 367/367/367
f 373/373/373 396/396/396 374/374/374
f 381/381/381 378/378/378 371/371/371
f 386/386/386 379/379/379 378/378/378
f 377/377/377 376/376/376 375/375/375
f 368/368/368 399/399/399 390/390/390
g Den046
s 1
f 400/400/400 401/401/401 402/402/402
f 400/400/400 403/403/403 401/401/401
f 404/404/404 405/405/405 406/406/406
f 407/407/407 408/408/408 409/409/409
f 410/410/410 411/411/411 412/412/412
f 410/410/410 400/400/400 411/411/411
f 413/413/413 400/400/400 410/410/410
f 405/405/405 404/404/404 414/414/414
f 415/415/415 405/405/405 416/416/416
f 405/405/405 415/415/415 406/406/406
f 405/405/405 414/414/414 416/416/416
f 417/417/417 418/418/418 419/419/419
f 420/420/420 421/421/421 422/422/422
f 420/420/420 422/422/422 423/423/423
f 420/420/420 424/424/424 407/407/407
f 420/420/420 425/425/425 424/424/424
f 408/408/408 424/424/424 425/425/425
f 408/408/408 407/407/407 424/424/424
f 426/426/426 418/418/418 415/415/415
f 404/404/404 406/406/406 417/417/417
f 427/427/427 413/413/413 428/428/428
f 427/427/427 428/428/428 412/412/412
f 428/428/428 410/410/410 412/412/412
f 413/413/413 410/410/410 428/428/428
f 418/418/418 417/417/417 406/406/406
f 418/418/418 406/406/406 415/415/415
f 421/421/421 420/420/420 407/407/407
f 425/425/425 420/420/420 423/423/423
f 418/418/418 426/426/426 429/429/429
f 418/418/418 429/429/429 419/419/419
f 400/400/400 402/402/402 411/411/411
f 408/408/408 430/430/430 431/431/431
f 408/408/408 431/431/431 409/409/409
f 430/430/430 408/408/408 425/425/425
f 413/413/413 403/403/403 400/400/400
g Den047
s 1
f 432/432/432 433/433/433 434/434/434
f 435/435/435 436/436/436 437/437/437
f 437/437/437 436/436/436 438/438/438
f 432/432/432 439/439/439 440/440/440
f 441/441/441 442/442/442 443/443/443
f 444/444/444 445/445/445 446/446/446
f 447/447/447 445/445/445 444/444/444
f 448/448/448 434/434/434 449/449/449
f 449/449/449 442/442/442 448/448/448
f 438/438/438 450/450/450 437/437/437
f 451/451/451 452/452/452 453/453/453
f 443/443/443 442/442/442 449/449/449
f 454/454/454 455/455/455 456/456/456
f 453/453/453 452/452/452 457/457/457
f 458/458/458 453/453/453 457/457/457
f 458/458/458 451/451/451 453/453/453
f 459/459/459 460/460/460 451/451/451
f 459/459/459 461/461/461 460/460/460
f 450/450/450 438/438/438 462/462/462
f 460/460/460 461/461/461 452/452/452
f 462/462/462 438/438/438 456/456/456
f 451/451/451 460/460/460 452/452/452
f 456/456/456 455/455/455 462/462/462
f 438/438/438 461/461/461 459/459/459
f 463/463/463 451/451/451 458/458/458
f 444/444/444 464/464/464 463/463/463
f 465/465/465 464/464/464 444/444/444
f 466/466/466 464/464/464 465/465/465
f 465/465/465 446/446/446 466/466/466
f 444/444/444 446/446/446 465/465/465
f 467/467/467 459/459/459 451/451/451
f 468/468/468 457/457/457 442/442/442
f 457/457/457 448/448/448 442/442/442
f 467/467/467 438/438/438 459/459/459
f 444/444/444 463/463/463 468/468/468
f 452/452/452 448/448/448 457/457/457
f 434/434/434 448/448/448 432/432/432
f 432/432/432 448/448/448 436/436/436
f 436/436/436 439/439/439 432/432/432
f 463/463/463 458/458/458 468/468/468
f 468/468/468 458/458/458 457/457/457
f 468/468/468 469/469/469 470/470/470
f 468/468/468 470/470/470 444/444/444
f 470/470/470 447/447/447 444/444/444
f 469/469/469 447/447/447 470/470/470
f 442/442/442 471/471/471 468/468/468
f 471/471/471 469/469/469 468/468/468
f 469/469/469 471/471/471 441/441/441
f 471/471/471 442/442/442 441/441/441
f 452/452/452 461/461/461 448/448/448
f 463/463/463 472/472/472 451/451/451
f 463/463/463 464/464/464 472/472/472
f 464/464/464 467/467/467 472/472/472
f 472/472/472 467/467/467 451/451/451
f 435/435/435 439/439/439 436/436/436
f 437/437/437 473/473/473 435/435/435
f 437/437/437 450/450/450 473/473/473
f 438/438/438 436/436/436 461/461/461
f 462/462/462 474/474/474 450/450/450
f 461/461/461 436/436/436 448/448/448
f 462/462/462 455/455/455 474/474/474
f 456/456/456 438/438/438 467/467/467
f 464/464/464 456/456/456 467/467/467
f 449/449/449 434/434/434 475/475/475
f 449/449/449 475/475/475 443/443/443
f 464/464/464 466/466/466 476/476/476
f 476/476/476 466/466/466 454/454/454
f 454/454/454 456/456/456 476/476/476
f 476/476/476 456/456/456 464/464/464
f 432/432/432 440/440/440 433/433/433
g Den048
s 1
f 477/477/477 478/478/478 479/479/479
f 480/480/480 479/479/479 478/478/478
f 481/481/481 482/482/482 477/477/477
f 478/478/478 477/477/477 482/482/482
f 479/479/479 480/480/480 483/483/483
f 481/481/481 477/477/477 484/484/484
f 485/485/485 486/486/486 477/477/477
f 487/487/487 488/488/488 489/489/489
f 487/487/487 490/490/490 488/488/488
f 484/484/484 477/477/477 486/486/486
f 491/491/491 490/490/490 487/487/487
f 490/490/490 492/492/492 488/488/488
f 490/490/490 493/493/493 492/492/492
f 493/493/493 479/479/479 492/492/492
f 479/479/479 493/493/493 477/477/477
f 488/488/488 492/492/492 489/489/489
f 479/479/479 483/483/483 494/494/494
f 494/494/494 483/483/483 489/489/489
f 489/489/489 492/492/492 494/494/494
f 485/485/485 491/491/491 486/486/486
f 493/493/493 490/490/490 477/477/477
f 494/494/494 492/492/492 479/479/479
f 484/484/484 486/486/486 491/491/491
