# Exported using wow.export v0.2.19
o darnassis_int131.obj
v -122.44793701171875 -18.51226043701172 309.341796875
v -121.43196105957031 -18.51226043701172 311.83563232421875
v -120.40876770019531 -18.512258529663086 309.8023986816406
v -119.38558197021484 -18.512256622314453 307.7691650390625
v -118.36959838867188 -18.512256622314453 310.26300048828125
v -114.2840576171875 -18.512250900268555 306.6571350097656
v -115.30724334716797 -18.512252807617188 308.69036865234375
v -112.24488830566406 -18.512248992919922 307.11773681640625
v -116.32322692871094 -18.512252807617188 306.196533203125
v -113.02903747558594 -18.512248992919922 305.1521911621094
v -118.36239624023438 -18.51225471496582 305.7359313964844
v -120.40156555175781 -18.512256622314453 305.27532958984375
v -117.10736846923828 -18.512252807617188 304.2309875488281
v -110.20571899414062 -18.512245178222656 307.5783386230469
v -111.2289047241211 -18.51224708557129 309.611572265625
v -108.16654968261719 -18.512243270874023 308.0389404296875
v -108.95069885253906 -18.512245178222656 306.0733947753906
v -117.3464126586914 -18.51225471496582 308.2297668457031
v -114.291259765625 -18.512250900268555 311.1842041015625
v -113.26807403564453 -18.512248992919922 309.1509704589844
v -121.42475128173828 -18.512258529663086 307.3085632324219
v -123.46391296386719 -18.51226043701172 306.84796142578125
v -119.83714294433594 -11.692155838012695 305.65850830078125
v -121.81320190429688 -11.69211196899414 304.8925476074219
v -120.84165954589844 -11.692069053649902 303.19281005859375
v -123.78926849365234 -11.692068099975586 304.1265869140625
v -122.78474426269531 -11.692153930664062 306.59228515625
v -109.7348403930664 -18.512245178222656 304.10784912109375
v -111.77400970458984 -18.51224708557129 303.6472473144531
v -113.81317901611328 -18.512248992919922 303.1866455078125
v -110.51898193359375 -18.512245178222656 302.1423034667969
v -115.85234069824219 -18.512250900268555 302.7260437011719
v -117.89151000976562 -18.512252807617188 302.26544189453125
v -114.59732055664062 -18.512248992919922 301.2210998535156
v -111.30313110351562 -18.51224708557129 300.1767578125
v -121.18569946289062 -18.512256622314453 303.30975341796875
v -117.89405822753906 -11.692070007324219 302.2590026855469
v -117.82809448242188 -11.692327499389648 310.58990478515625
v -117.03269958496094 -11.692436218261719 312.5836181640625
v -119.77117156982422 -11.692412376403809 313.9894104003906
v -116.88953399658203 -11.692155838012695 304.7247314453125
v -115.885009765625 -11.692242622375488 307.1904296875
v -113.94192504882812 -11.692157745361328 303.7909240722656
v -120.77569580078125 -11.692325592041016 311.523681640625
v -121.78022003173828 -11.692239761352539 309.0579833984375
v -118.83261108398438 -11.692241668701172 308.12420654296875
v -110.40806579589844 -11.692289352416992 304.3788146972656
v -109.6126708984375 -11.692398071289062 306.37249755859375
v -112.35114288330078 -11.692375183105469 307.7783203125
v -113.14653778076172 -11.692266464233398 305.78460693359375
v -111.20346069335938 -11.692180633544922 302.3851318359375
v -115.08961486816406 -11.692350387573242 309.1841125488281
v -114.29421997070312 -11.692459106445312 311.17779541015625
v -111.55574798583984 -11.692482948303223 309.7720031738281
v -122.44073486328125 -18.512258529663086 304.814697265625
v -124.47989654541016 -18.51226043701172 304.3540954589844
v -120.41597747802734 -18.512258529663086 314.3294677734375
v -119.39279174804688 -18.512256622314453 312.2962341308594
v -117.35362243652344 -18.51225471496582 312.7568359375
v -116.33042907714844 -18.512252807617188 310.7236022949219
v -117.86107635498047 -11.69219970703125 306.4244689941406
v -111.99884796142578 -11.692072868347168 300.39141845703125
v -112.97038269042969 -11.692115783691406 302.0911865234375
v -119.80415344238281 -11.692283630371094 309.8239440917969
v -114.94645690917969 -11.692071914672852 301.3251953125
v -115.9179916381836 -11.692113876342773 303.02496337890625
v -108.81727600097656 -11.692506790161133 308.3662109375
v -110.58421325683594 -11.6924409866333 308.072265625
v -116.0611572265625 -11.69239330291748 310.88385009765625
v -114.2776107788086 -12.45854377746582 311.4345703125
v -117.03269958496094 -11.692436218261719 312.5836181640625
v -114.29421997070312 -11.692459106445312 311.17779541015625
v -115.54856872558594 -17.1196346282959 312.25006103515625
v -117.00654602050781 -16.696125030517578 313.0966796875
v -113.99844360351562 -16.818208694458008 311.42529296875
v -120.0146484375 -16.57404327392578 314.7680358886719
v -116.91439056396484 -15.97119140625 313.11846923828125
v -108.5307388305664 -13.224661827087402 308.64447021484375
v -112.80390930175781 -13.74545955657959 310.9223937988281
v -111.42727661132812 -13.31650161743164 310.11669921875
v -114.32380676269531 -13.408340454101562 311.58892822265625
v -111.57054138183594 -12.550423622131348 309.9775695800781
v -111.54743957519531 -12.075525283813477 309.900390625
v -108.81727600097656 -11.692506790161133 308.3662109375
v -117.00778198242188 -12.841562271118164 312.96875
v -119.77117156982422 -11.692412376403809 313.9894104003906
v -117.0243911743164 -12.075477600097656 312.71197509765625
v -114.00605773925781 -15.84912109375 311.68450927734375
v -116.91819763183594 -15.486647605895996 313.24810791015625
v -114.0562973022461 -15.124200820922852 311.76678466796875
v -119.83033752441406 -15.124174118041992 314.8116760253906
v -121.1812744140625 -17.23346519470215 302.9600830078125
v -121.18274688720703 -17.65972900390625 303.07666015625
v -117.88855743408203 -17.659725189208984 302.0323181152344
v -124.47398376464844 -16.807205200195312 303.88787841796875
v -121.1489486694336 -16.807201385498047 302.9192810058594
v -114.56352233886719 -17.65972137451172 301.063720703125
v -114.59584045410156 -18.085987091064453 301.10455322265625
v -111.30313110351562 -18.51224708557129 300.1767578125
v -114.59732055664062 -18.512248992919922 301.2210998535156
v -111.09391784667969 -16.211593627929688 310.12091064453125
v -108.18177032470703 -16.574068069458008 308.5573425292969
v -111.11903381347656 -15.84913444519043 310.16204833984375
v -111.0824966430664 -17.665225982666016 309.73211669921875
v -111.09010314941406 -16.696138381958008 309.9913330078125
v -108.28225708007812 -15.124228477478027 308.72186279296875
v -111.16928100585938 -15.124214172363281 310.24432373046875
v -111.29351806640625 -14.174430847167969 310.20562744140625
v -121.08430480957031 -15.954673767089844 302.837646484375
v -117.82391357421875 -16.80719757080078 301.95068359375
v -117.07707214355469 -14.266257286071777 313.2003173828125
v -119.73794555664062 -13.224579811096191 314.5029296875
v -117.03087615966797 -13.316459655761719 313.0459289550781
v -111.60643005371094 -16.80720329284668 299.9060974121094
v -114.71517181396484 -16.807201385498047 300.92840576171875
v -115.08531188964844 -12.544591903686523 301.2247009277344
v -118.17176818847656 -13.397110939025879 302.0579833984375
v -115.05918884277344 -13.397109031677246 301.0452880859375
v -111.94661712646484 -13.397107124328613 300.0326232910156
v -118.1456527709961 -14.249628067016602 301.87860107421875
v -121.2122802734375 -15.102151870727539 302.76165771484375
v -118.07986450195312 -15.102153778076172 301.7987060546875
v -117.97555541992188 -15.954675674438477 301.8153381347656
v -115.01324462890625 -14.249629974365234 300.9156494140625
v -114.94745635986328 -15.102155685424805 300.83575439453125
v -111.81504821777344 -15.102157592773438 299.8728332519531
v -114.84314727783203 -15.954678535461426 300.8524169921875
v -118.05782318115234 -12.544589042663574 302.09735107421875
v -115.02833557128906 -12.118330955505371 301.244384765625
v -117.89405822753906 -11.692070007324219 302.2590026855469
v -111.99884796142578 -11.692072868347168 300.39141845703125
v -121.144287109375 -13.39710807800293 302.93060302734375
v -121.25822448730469 -14.249629974365234 302.89129638671875
v -124.1167984008789 -13.39710521697998 303.8032531738281
v -121.08731079101562 -12.970847129821777 302.9503173828125
v -123.27754211425781 -12.864280700683594 303.67083740234375
v -123.78926849365234 -11.692068099975586 304.1265869140625
v -120.24806213378906 -12.43802261352539 302.8179016113281
v -120.92354583740234 -12.118328094482422 303.1119689941406
v -122.43829345703125 -12.331457138061523 303.5384521484375
v -119.44973754882812 -12.118329048156738 302.64508056640625
v -120.84165954589844 -11.692069053649902 303.19281005859375
v -116.34536743164062 -16.380939483642578 301.37188720703125
v -117.89973449707031 -16.380937576293945 301.8830261230469
v -116.94331359863281 -15.124187469482422 313.28924560546875
v -115.56192779541016 -14.64930248260498 312.5086669921875
v -114.1805419921875 -14.174417495727539 311.72808837890625
v -113.42771911621094 -14.411867141723633 311.3571472167969
v -117.05262756347656 -17.05859375 313.08575439453125
v -114.0905990600586 -17.54314422607422 311.40350341796875
v -117.1529541015625 -17.543148040771484 312.97613525390625
v -112.65975189208984 -18.027694702148438 310.5075378417969
v -114.19093322753906 -18.027698516845703 311.2938537597656
v -111.2289047241211 -18.51224708557129 309.611572265625
v -114.291259765625 -18.512250900268555 311.1842041015625
v -108.16654968261719 -18.512243270874023 308.0389404296875
v -121.16012573242188 -15.528411865234375 302.76995849609375
v -124.34468841552734 -15.10214900970459 303.7245788574219
v -121.24517059326172 -14.675888061523438 302.80157470703125
v -115.04613494873047 -13.823368072509766 300.95562744140625
v -114.7909927368164 -16.380939483642578 300.8607177734375
v -114.94645690917969 -11.692071914672852 301.3251953125
v -113.31553649902344 -17.39242935180664 310.9910888671875
v -111.12857055664062 -18.027694702148438 309.7212219238281
v -111.55574798583984 -11.692482948303223 309.7720031738281
v -114.94049072265625 -14.005858421325684 312.06134033203125
v -117.89151000976562 -18.512252807617188 302.26544189453125
v -124.47989654541016 -18.51226043701172 304.3540954589844
v -120.41597747802734 -18.512258529663086 314.3294677734375
v -121.18569946289062 -18.512256622314453 303.30975341796875
v -117.35362243652344 -18.51225471496582 312.7568359375
vn -0.055466681718826294 0.9979511499404907 0.03188936039805412
vn -0.17343594133853912 0.9488165378570557 -0.26394543051719666
vn -0.1381702870130539 0.9789533019065857 -0.15019723773002625
vn -0.10018493980169296 0.9943739771842957 -0.03439931571483612
vn -0.2152978777885437 0.9204487204551697 -0.32622241973876953
vn -0.2203592211008072 0.9345219731330872 -0.2794824540615082
vn -0.25190943479537964 0.8865032196044922 -0.38814133405685425
vn -0.2875705361366272 0.8469306826591492 -0.4472264349460602
vn -0.14426134526729584 0.9844262003898621 -0.10046759992837906
vn -0.13540032505989075 0.9906067252159119 -0.019104044884443283
vn -0.0623457245528698 0.9946308135986328 0.08259888738393784
vn 0.02208414487540722 0.9647243022918701 0.26233434677124023
vn 0.040388304740190506 0.9407168030738831 0.3367798328399658
vn -0.34318485856056213 0.7251847982406616 -0.5969349145889282
vn -0.3603038489818573 0.6373285055160522 -0.681170642375946
vn -0.38495931029319763 0.5741937756538391 -0.7225703001022339
vn -0.2879757285118103 0.8822846412658691 -0.3723490834236145
vn -0.18114572763442993 0.9596747756004333 -0.21496616303920746
vn -0.3333757519721985 0.6964431405067444 -0.6354742646217346
vn -0.3128354251384735 0.7775583863258362 -0.5454692840576172
vn -0.01681835576891899 0.9888096451759338 0.14823195338249207
vn 0.0682627484202385 0.9434493780136108 0.3244124948978424
vn 0.16300103068351746 -0.8366308212280273 0.5229525566101074
vn 0.1752302348613739 -0.8115811347961426 0.5573423504829407
vn 0.2029733657836914 -0.7339053750038147 0.6482165455818176
vn 0.18711602687835693 -0.7849408984184265 0.5906398296356201
vn 0.14509475231170654 -0.8770322799682617 0.4579976797103882
vn -0.12562718987464905 0.9901139140129089 0.062388207763433456
vn -0.03487958759069443 0.9699627161026001 0.24074019491672516
vn 0.057278916239738464 0.910575807094574 0.4093540608882904
vn 0.06523627787828445 0.8732064366340637 0.48296457529067993
vn 0.13938389718532562 0.8133472800254822 0.5648348927497864
vn 0.21586208045482635 0.6832846999168396 0.6975138187408447
vn 0.22931255400180817 0.6226880550384521 0.7481145262718201
vn 0.24129237234592438 0.5580979585647583 0.7939172983169556
vn 0.20102724432945251 0.7394992113113403 0.6424398422241211
vn 0.21757811307907104 -0.6783407926559448 0.7017930150032043
vn 0.07093310356140137 -0.9699912071228027 0.23256266117095947
vn -0.10912118852138519 -0.9723240733146667 -0.2065875232219696
vn 3.02867277923724e-8 -1 -5.436942274172907e-7
vn 0.18010066449642181 -0.7910655736923218 0.5846188068389893
vn 0.13760894536972046 -0.8817659020423889 0.4511680006980896
vn 0.1960258185863495 -0.7406190037727356 0.6426953077316284
vn 0.05021601915359497 -0.9860798120498657 0.1585085391998291
vn 0.09903396666049957 -0.9447066187858582 0.3126046657562256
vn 0.1186877191066742 -0.9160631895065308 0.3830684721469879
vn -0.11743383854627609 -0.9906604290008545 0.069290392100811
vn -0.279055655002594 -0.888581395149231 -0.3640754222869873
vn -0.15905706584453583 -0.9716323614120483 -0.17501862347126007
vn 0.01038071233779192 -0.9634208083152771 0.26779183745384216
vn 0.07053399085998535 -0.8704870939254761 0.48711106181144714
vn -0.04202798753976822 -0.9987282752990723 0.027849316596984863
vn -0.21220238506793976 -0.890828549861908 -0.40173959732055664
vn -0.3035378158092499 -0.7600241899490356 -0.5746546983718872
vn 0.10562341660261154 0.8959127068519592 0.4314904808998108
vn 0.18490314483642578 0.7909711599349976 0.5832456350326538
vn -0.27339401841163635 0.8011480569839478 -0.5323697328567505
vn -0.24620267748832703 0.8673393726348877 -0.43255817890167236
vn -0.3043447434902191 0.7511646747589111 -0.5857694745063782
vn -0.2799850106239319 0.8250906467437744 -0.4907482862472534
vn 0.15045243501663208 -0.8600412011146545 0.48753806948661804
vn 0.24267767369747162 -0.5550220012664795 0.795649528503418
vn 0.22101610898971558 -0.6527359485626221 0.724629282951355
vn 0.08506689965724945 -0.9582880735397339 0.27285104990005493
vn 0.23084017634391785 -0.6185901165008545 0.751038670539856
vn 0.2070048302412033 -0.7101759314537048 0.6729036569595337
vn -0.37807199358940125 -0.5871513485908508 -0.7157617807388306
vn -0.28662464022636414 -0.8318035006523132 -0.475341260433197
vn -0.0753907710313797 -0.9930583834648132 -0.09028417617082596
vn -0.42679208517074585 -0.4061868488788605 -0.8079979419708252
vn -0.4260369539260864 -0.37190139293670654 -0.8247314095497131
vn -0.4128003716468811 -0.4468308985233307 -0.7936863303184509
vn -0.4452942907810211 0.31630054116249084 -0.8376555442810059
vn -0.4547669291496277 0.2416478395462036 -0.8572008013725281
vn -0.4461307227611542 0.29605987668037415 -0.8445804119110107
vn -0.46195051074028015 0.18646390736103058 -0.8670830130577087
vn -0.4608682692050934 0.14452864229679108 -0.8756209015846252
vn -0.45029470324516296 -0.16815243661403656 -0.8769032955169678
vn -0.4545351266860962 -0.1660827100276947 -0.8751083016395569
vn -0.44748806953430176 -0.24157389998435974 -0.8610439300537109
vn -0.4421529769897461 -0.31363043189048767 -0.8403194546699524
vn -0.4150410294532776 -0.45580345392227173 -0.7873907685279846
vn -0.40464484691619873 -0.4994001090526581 -0.7660691738128662
vn -0.37807199358940125 -0.5871513485908508 -0.7157617807388306
vn -0.44427135586738586 -0.3085310459136963 -0.8410894870758057
vn -0.4363963305950165 -0.2944602966308594 -0.8502066731452942
vn -0.4323708415031433 -0.35095396637916565 -0.8305942416191101
vn -0.46035730838775635 0.06949528306722641 -0.8850093483924866
vn -0.4627896249294281 0.029525388032197952 -0.8859763741493225
vn -0.4654328525066376 -0.012411587871611118 -0.884996235370636
vn -0.46447938680648804 -0.010491879656910896 -0.8855217695236206
vn 0.2802759110927582 0.26650094985961914 0.922183632850647
vn 0.26276513934135437 0.44151440262794495 0.8579156994819641
vn 0.2703491747379303 0.3683229386806488 0.8895220756530762
vn 0.2869701683521271 0.16160541772842407 0.944209635257721
vn 0.28445881605148315 0.22741472721099854 0.9313247203826904
vn 0.26385563611984253 0.4298344552516937 0.863494336605072
vn 0.2573045492172241 0.4658970832824707 0.846601665019989
vn 0.24129237234592438 0.5580979585647583 0.7939172983169556
vn 0.22931255400180817 0.6226880550384521 0.7481145262718201
vn -0.45718640089035034 0.1093536764383316 -0.8826224207878113
vn -0.4532819390296936 0.14903661608695984 -0.8788194060325623
vn -0.4608721435070038 0.06853777915239334 -0.8848159909248352
vn -0.4206223785877228 0.4404434859752655 -0.7931495308876038
vn -0.45099571347236633 0.22318634390830994 -0.8641706109046936
vn -0.4663839638233185 -0.014331233687698841 -0.884466290473938
vn -0.4659086763858795 -0.013371419161558151 -0.8847318291664124
vn -0.4592753052711487 -0.09056034684181213 -0.8836655616760254
vn 0.29135826230049133 0.14819490909576416 0.9450653791427612
vn 0.28066644072532654 0.29219990968704224 0.9142458438873291
vn -0.45876389741897583 -0.1640087217092514 -0.8732907772064209
vn -0.4568915367126465 -0.20750075578689575 -0.8649818301200867
vn -0.4502030909061432 -0.2609602212905884 -0.8539420366287231
vn 0.3005222976207733 0.12868376076221466 0.9450538754463196
vn 0.29161983728408813 0.21118444204330444 0.9329304099082947
vn 0.26486557722091675 -0.4268917739391327 0.8646442294120789
vn 0.28131386637687683 -0.2895108461380005 0.9149020910263062
vn 0.2912213206291199 -0.20910005271434784 0.9335241317749023
vn 0.2991161644458771 -0.12724418938159943 0.9456946849822998
vn 0.29802387952804565 -0.06327351927757263 0.9524590373039246
vn 0.2952347695827484 -0.0008133167284540832 0.9554244875907898
vn 0.2947704493999481 -0.0025856834836304188 0.9555646181106567
vn 0.2987247407436371 0.06495504081249237 0.9521262645721436
vn 0.29752615094184875 -0.06504234671592712 0.9524955153465271
vn 0.2943052053451538 -0.004358042497187853 0.9557016491889954
vn 0.2938389182090759 -0.006130385212600231 0.9558352828025818
vn 0.29829496145248413 0.06318642944097519 0.9523800015449524
vn 0.2716524004936218 -0.3646274507045746 0.8906469345092773
vn 0.25866034626960754 -0.46249842643737793 0.8480507731437683
vn 0.21757811307907104 -0.6783407926559448 0.7017930150032043
vn 0.24267767369747162 -0.5550220012664795 0.795649528503418
vn 0.2853631377220154 -0.223979651927948 0.9318802952766418
vn 0.291666179895401 -0.14585627615451813 0.9453343152999878
vn 0.28810006380081177 -0.1574183702468872 0.9445728063583374
vn 0.2815035879611969 -0.26254066824913025 0.9229453802108765
vn 0.27359431982040405 -0.3626459538936615 0.8908613324165344
vn 0.18711602687835693 -0.7849408984184265 0.5906398296356201
vn 0.26063358783721924 -0.4606115520000458 0.8484733700752258
vn 0.23766280710697174 -0.5955284237861633 0.7673735618591309
vn 0.2467183917760849 -0.5514770150184631 0.7968708276748657
vn 0.24347323179244995 -0.5635246634483337 0.7894052267074585
vn 0.2029733657836914 -0.7339053750038147 0.6482165455818176
vn 0.2959575057029724 0.1384473741054535 0.9451146125793457
vn 0.291639119386673 0.17978216707706451 0.9394811987876892
vn -0.4649563729763031 -0.011451740749180317 -0.8852595686912537
vn -0.4622497260570526 -0.05056684836745262 -0.8853068351745605
vn -0.45883074402809143 -0.08960409462451935 -0.8839939832687378
vn -0.4608553349971771 -0.07057781517505646 -0.8846644163131714
vn -0.4500795602798462 0.2893770933151245 -0.8448012471199036
vn -0.43315500020980835 0.3890410363674164 -0.8130337595939636
vn -0.41517120599746704 0.4608895778656006 -0.7843555212020874
vn -0.4009467363357544 0.5186819434165955 -0.7551230788230896
vn -0.3899266719818115 0.5522093176841736 -0.7369002103805542
vn -0.3603038489818573 0.6373285055160522 -0.681170642375946
vn -0.3333757519721985 0.6964431405067444 -0.6354742646217346
vn -0.38495931029319763 0.5741937756538391 -0.7225703001022339
vn 0.29736435413360596 0.032974012196063995 0.9541945457458496
vn 0.29569801688194275 0.000959052995312959 0.9552809596061707
vn 0.29701465368270874 -0.03117336705327034 0.9543639421463013
vn 0.29872462153434753 -0.09530816972255707 0.9495682716369629
vn 0.2997777462005615 0.09686923772096634 0.9490783214569092
vn 0.23084017634391785 -0.6185901165008545 0.751038670539856
vn -0.4339359402656555 0.37922635674476624 -0.8172436356544495
vn -0.41136667132377625 0.48433658480644226 -0.7721369862556458
vn -0.3967759609222412 -0.5187427997589111 -0.7572811841964722
vn -0.456650972366333 -0.16504624485969543 -0.874202311038971
vn 0.21586208045482635 0.6832846999168396 0.6975138187408447
vn 0.18490314483642578 0.7909711599349976 0.5832456350326538
vn -0.27339401841163635 0.8011480569839478 -0.5323697328567505
vn 0.20102724432945251 0.7394992113113403 0.6424398422241211
vn -0.3043447434902191 0.7511646747589111 -0.5857694745063782
vt 3.8314220905303955 1.7781492471694946
vt 3.8392181396484375 2.03300142288208
vt 3.476736068725586 1.9091467261314392
vt 3.1142539978027344 1.7852919697761536
vt 3.1220500469207764 2.040144205093384
vt 2.0423996448516846 1.923432171344757
vt 2.4048819541931152 2.0472869873046875
vt 1.687713623046875 2.0544296503067017
vt 2.397085666656494 1.7924346923828125
vt 1.679917335510254 1.7995773553848267
vt 2.7517716884613037 1.661437213420868
vt 3.1064577102661133 1.5304397344589233
vt 2.389289379119873 1.5375823974609375
vt 1.3330276012420654 2.185427188873291
vt 1.6955097913742065 2.309281826019287
vt 0.9783415794372559 2.316424608230591
vt 0.97054523229599 2.061572313308716
vt 2.7595677375793457 1.9162894487380981
vt 2.4126780033111572 2.302139163017273
vt 2.0501956939697266 2.1782844066619873
vt 3.468939781188965 1.654294490814209
vt 3.8236260414123535 1.5232970118522644
vt 3.030928134918213 1.5299394726753235
vt 3.3478684425354004 1.3993179500102997
vt 3.023131847381592 1.2750870883464813
vt 3.664808750152588 1.2686964273452759
vt 3.672605276107788 1.5235488414764404
vt 0.9627488851547241 1.8067200183868408
vt 1.3174349069595337 1.6757225394248962
vt 1.6721209287643433 1.5447250604629517
vt 0.954952597618103 1.5518677234649658
vt 2.0268070697784424 1.413727581501007
vt 2.381493091583252 1.2827301025390625
vt 1.6643247604370117 1.2898727655410767
vt 0.9471562504768372 1.2970154285430908
vt 3.098661422729492 1.2755874395370483
vt 2.3814547061920166 1.2814777493476868
vt 3.0465211868286133 2.039644241333008
vt 3.0543174743652344 2.294496536254883
vt 3.6959946155548096 2.2881059646606445
vt 2.389251232147217 1.5363301038742065
vt 2.397047519683838 1.791182518005371
vt 1.7475740909576416 1.5427207946777344
vt 3.6881980895996094 2.03325355052948
vt 3.6804018020629883 1.7784011960029602
vt 3.038724660873413 1.7847918272018433
vt 1.1136934757232666 1.8039636611938477
vt 1.1214900016784668 2.0588159561157227
vt 1.763166904449463 2.0524253845214844
vt 1.7553704977035522 1.7975730895996094
vt 1.105897068977356 1.5491113662719727
vt 2.404844045639038 2.046034812927246
vt 2.4126405715942383 2.300887107849121
vt 1.770963430404663 2.3072776794433594
vt 3.461143732070923 1.3994422554969788
vt 3.8158297538757324 1.2684447765350342
vt 3.8470144271850586 2.287853717803955
vt 3.484532356262207 2.1639989614486694
vt 3.1298460960388184 2.294996500015259
vt 2.767364025115967 2.1711416244506836
vt 2.7139878273010254 1.660560965538025
vt 1.0981006622314453 1.2942590713500977
vt 1.4228373765945435 1.418489933013916
vt 3.363461494445801 1.9090226888656616
vt 1.739777684211731 1.2878684103488922
vt 2.064514398574829 1.4120992720127106
vt 1.1292864084243774 2.3136682510375977
vt 1.4462265968322754 2.183046817779541
vt 2.729580879211426 2.1702656745910645
vt 1 0.8872816562652588
vt 0.5 0.9995004236698151
vt 1 0.9995003342628479
vt 0.75 0.20449697971343994
vt 0.5 0.26653480529785156
vt 1 0.2486509084701538
vt 0 0.2844187021255493
vt 0.5 0.37272655963897705
vt 2 0.749750018119812
vt 1.25 0.6861133575439453
vt 1.5 0.7489506006240845
vt 1 0.7481511831283569
vt 1.5 0.8738256692886353
vt 1.5 0.9433909058570862
vt 2 0.9995001554489136
vt 0.5 0.8311724066734314
vt 0 0.9995005130767822
vt 0.5 0.9433910846710205
vt 1 0.3735259771347046
vt 0.5 0.43516409397125244
vt 1 0.49840104579925537
vt 0 0.4968022108078003
vt 0.5 0.1878124475479126
vt 0.5 0.1253749132156372
vt 1 0.12537479400634766
vt 0 0.25025010108947754
vt 0.5 0.250249981880188
vt 1.5 0.1253746747970581
vt 1.5 0.06293714046478271
vt 2 0.0004995465278625488
vt 1.5 0.0004996061325073242
vt 1.5 0.31188786029815674
vt 2 0.2502497434616089
vt 1.5 0.37432539463043213
vt 1.5 0.12457525730133057
vt 1.5 0.24945032596588135
vt 2 0.49999988079071045
vt 1.5 0.4992004632949829
vt 1.5 0.6240755319595337
vt 0.5 0.37512505054473877
vt 1 0.25024986267089844
vt 0.5 0.6224766969680786
vt 0 0.775063157081604
vt 0.5 0.7616071701049805
vt 2 0.2502496838569641
vt 1.5 0.2502497434616089
vt 1.5 0.8746250718832016
vt 1 0.7497501075267792
vt 1.5 0.7497498393058777
vt 2 0.7497496008872986
vt 1 0.6248748898506165
vt 0.5 0.5000000894069672
vt 1 0.5
vt 1 0.3751249313354492
vt 1.5 0.6248748004436493
vt 1.5 0.49999988079071045
vt 2 0.4999997615814209
vt 1.5 0.37512481212615967
vt 1 0.8746252059936523
vt 1.5 0.9370626211166382
vt 1 0.9995002746582031
vt 2 0.999500036239624
vt 0.5 0.7497502565383911
vt 0.5 0.6248751282691956
vt 0 0.7497503757476807
vt 0.5 0.8121877908706665
vt 0.125 0.8277972638607025
vt 0 0.9995005130767822
vt 0.625 0.8902346789836884
vt 0.5 0.9370628595352173
vt 0.25 0.9058441519737244
vt 0.75 0.9370627999305725
vt 0.5 0.9995003938674927
vt 1.25 0.31268739700317383
vt 1 0.31268739700317383
vt 0.5 0.49760162830352783
vt 0.75 0.560438871383667
vt 1 0.6232761144638062
vt 1.125 0.5922572016716003
vt 0.5 0.21343892812728882
vt 1 0.14245915412902832
vt 0.5 0.14245927333831787
vt 1.25 0.0714794397354126
vt 1 0.07147949934005737
vt 1.5 0.000499725341796875
vt 1 0.0004998445510864258
vt 2 0.0004996061325073242
vt 0.5 0.43756258487701416
vt 0 0.5000001788139343
vt 0.5 0.5624375343322754
vt 1.5 0.6873122453689575
vt 1.5 0.3126872777938843
vt 1.5 0.9995001554489136
vt 1.125 0.16453611850738525
vt 1.5 0.07147938013076782
vt 1.5 0.9995002448558807
vt 0.875 0.654295027256012
vt 1 0.000499725341796875
vt 0 0.0004999637603759766
vt 0 0.0005000829696655273
vt 0.5 0.0004998445510864258
vt 0.5 0.0004999637603759766
g int1310
s 1
f 1/1/1 2/2/2 3/3/3
f 1/1/1 3/3/3 4/4/4
f 3/3/3 5/5/5 4/4/4
f 6/6/6 7/7/7 8/8/8
f 9/9/9 7/7/7 6/6/6
f 6/6/6 10/10/10 9/9/9
f 8/8/8 10/10/10 6/6/6
f 11/11/11 4/4/4 9/9/9
f 12/12/12 4/4/4 11/11/11
f 11/11/11 13/13/13 12/12/12
f 9/9/9 13/13/13 11/11/11
f 14/14/14 15/15/15 16/16/16
f 8/8/8 15/15/15 14/14/14
f 14/14/14 17/17/17 8/8/8
f 16/16/16 17/17/17 14/14/14
f 9/9/9 18/18/18 7/7/7
f 18/18/18 5/5/5 7/7/7
f 4/4/4 5/5/5 18/18/18
f 4/4/4 18/18/18 9/9/9
f 7/7/7 19/19/19 20/20/20
f 7/7/7 20/20/20 8/8/8
f 8/8/8 20/20/20 15/15/15
f 20/20/20 19/19/19 15/15/15
f 12/12/12 21/21/21 4/4/4
f 21/21/21 1/1/1 4/4/4
f 22/22/22 1/1/1 21/21/21
f 22/22/22 21/21/21 12/12/12
f 23/23/23 24/24/24 25/25/25
f 24/24/24 26/26/26 25/25/25
f 27/27/27 26/26/26 24/24/24
f 27/27/27 24/24/24 23/23/23
f 28/28/28 29/29/29 10/10/10
f 29/29/29 30/30/30 10/10/10
f 29/29/29 31/31/31 30/30/30
f 28/28/28 31/31/31 29/29/29
f 13/13/13 30/30/30 32/32/32
f 13/13/13 32/32/32 33/33/33
f 32/32/32 34/34/34 33/33/33
f 30/30/30 35/35/35 34/34/34
f 31/31/31 35/35/35 30/30/30
f 17/17/17 28/28/28 8/8/8
f 10/10/10 30/30/30 9/9/9
f 8/8/8 28/28/28 10/10/10
f 9/9/9 30/30/30 13/13/13
f 13/13/13 33/33/33 12/12/12
f 12/12/12 33/33/33 36/36/36
f 23/23/23 25/25/25 37/37/37
f 38/38/38 39/39/39 40/40/40
f 41/41/41 23/23/23 37/37/37
f 42/42/42 41/41/41 43/43/43
f 40/40/40 44/44/44 38/38/38
f 45/45/45 23/23/23 46/46/46
f 38/38/38 46/46/46 42/42/42
f 45/45/45 27/27/27 23/23/23
f 47/47/47 48/48/48 49/49/49
f 50/50/50 49/49/49 42/42/42
f 47/47/47 49/49/49 50/50/50
f 43/43/43 47/47/47 50/50/50
f 43/43/43 50/50/50 42/42/42
f 51/51/51 47/47/47 43/43/43
f 42/42/42 52/52/52 38/38/38
f 52/52/52 49/49/49 53/53/53
f 42/42/42 49/49/49 52/52/52
f 49/49/49 54/54/54 53/53/53
f 55/55/55 22/22/22 12/12/12
f 56/56/56 22/22/22 55/55/55
f 55/55/55 36/36/36 56/56/56
f 12/12/12 36/36/36 55/55/55
f 2/2/2 57/57/57 58/58/58
f 2/2/2 58/58/58 5/5/5
f 5/5/5 58/58/58 59/59/59
f 58/58/58 57/57/57 59/59/59
f 60/60/60 59/59/59 19/19/19
f 5/5/5 59/59/59 60/60/60
f 7/7/7 5/5/5 60/60/60
f 7/7/7 60/60/60 19/19/19
f 3/3/3 2/2/2 5/5/5
f 46/46/46 23/23/23 61/61/61
f 42/42/42 61/61/61 41/41/41
f 61/61/61 23/23/23 41/41/41
f 62/62/62 51/51/51 63/63/63
f 63/63/63 51/51/51 43/43/43
f 38/38/38 64/64/64 46/46/46
f 43/43/43 65/65/65 63/63/63
f 63/63/63 65/65/65 62/62/62
f 66/66/66 37/37/37 65/65/65
f 43/43/43 66/66/66 65/65/65
f 64/64/64 45/45/45 46/46/46
f 41/41/41 66/66/66 43/43/43
f 44/44/44 45/45/45 64/64/64
f 44/44/44 64/64/64 38/38/38
f 41/41/41 37/37/37 66/66/66
f 48/48/48 67/67/67 68/68/68
f 48/48/48 68/68/68 49/49/49
f 49/49/49 68/68/68 54/54/54
f 68/68/68 67/67/67 54/54/54
f 46/46/46 61/61/61 42/42/42
f 52/52/52 69/69/69 38/38/38
f 52/52/52 53/53/53 69/69/69
f 69/69/69 53/53/53 39/39/39
f 38/38/38 69/69/69 39/39/39
f 30/30/30 34/34/34 32/32/32
g int1311
s 1
f 70/70/70 71/71/71 72/72/72
f 73/73/73 74/74/74 75/75/75
f 73/73/73 76/76/76 74/74/74
f 74/74/74 76/76/76 77/77/77
f 75/75/75 74/74/74 77/77/77
f 78/78/78 79/79/79 80/80/80
f 80/80/80 79/79/79 81/81/81
f 80/80/80 81/81/81 82/82/82
f 70/70/70 72/72/72 83/83/83
f 82/82/82 70/70/70 83/83/83
f 82/82/82 83/83/83 84/84/84
f 85/85/85 86/86/86 87/87/87
f 85/85/85 87/87/87 70/70/70
f 70/70/70 87/87/87 71/71/71
f 87/87/87 86/86/86 71/71/71
f 88/88/88 89/89/89 90/90/90
f 77/77/77 91/91/91 89/89/89
f 77/77/77 89/89/89 88/88/88
f 92/92/92 93/93/93 94/94/94
f 95/95/95 93/93/93 92/92/92
f 96/96/96 95/95/95 92/92/92
f 96/96/96 92/92/92 94/94/94
f 97/97/97 94/94/94 98/98/98
f 97/97/97 98/98/98 99/99/99
f 98/98/98 100/100/100 99/99/99
f 94/94/94 100/100/100 98/98/98
f 75/75/75 88/88/88 101/101/101
f 102/102/102 101/101/101 103/103/103
f 101/101/101 88/88/88 103/103/103
f 104/104/104 75/75/75 105/105/105
f 104/104/104 105/105/105 102/102/102
f 105/105/105 101/101/101 102/102/102
f 75/75/75 101/101/101 105/105/105
f 106/106/106 107/107/107 108/108/108
f 107/107/107 90/90/90 108/108/108
f 103/103/103 90/90/90 107/107/107
f 103/103/103 107/107/107 106/106/106
f 109/109/109 95/95/95 96/96/96
f 109/109/109 96/96/96 110/110/110
f 110/110/110 96/96/96 94/94/94
f 111/111/111 112/112/112 113/113/113
f 111/111/111 113/113/113 81/81/81
f 81/81/81 113/113/113 85/85/85
f 113/113/113 112/112/112 85/85/85
f 114/114/114 115/115/115 97/97/97
f 115/115/115 110/110/110 97/97/97
f 116/116/116 117/117/117 118/118/118
f 116/116/116 118/118/118 119/119/119
f 117/117/117 120/120/120 118/118/118
f 120/120/120 121/121/121 122/122/122
f 122/122/122 121/121/121 123/123/123
f 124/124/124 122/122/122 125/125/125
f 124/124/124 125/125/125 126/126/126
f 126/126/126 125/125/125 127/127/127
f 125/125/125 122/122/122 127/127/127
f 128/128/128 129/129/129 130/130/130
f 131/131/131 129/129/129 116/116/116
f 129/129/129 128/128/128 116/116/116
f 117/117/117 132/132/132 133/133/133
f 132/132/132 134/134/134 133/133/133
f 135/135/135 134/134/134 132/132/132
f 135/135/135 132/132/132 117/117/117
f 78/78/78 80/80/80 82/82/82
f 134/134/134 136/136/136 137/137/137
f 138/138/138 128/128/128 139/139/139
f 140/140/140 138/138/138 139/139/139
f 135/135/135 138/138/138 140/140/140
f 135/135/135 128/128/128 138/138/138
f 141/141/141 142/142/142 139/139/139
f 128/128/128 141/141/141 139/139/139
f 128/128/128 130/130/130 141/141/141
f 141/141/141 130/130/130 142/142/142
f 140/140/140 139/139/139 137/137/137
f 139/139/139 142/142/142 137/137/137
f 143/143/143 144/144/144 115/115/115
f 143/143/143 109/109/109 144/144/144
f 144/144/144 109/109/109 110/110/110
f 115/115/115 144/144/144 110/110/110
f 89/89/89 145/145/145 90/90/90
f 89/89/89 91/91/91 145/145/145
f 145/145/145 91/91/91 146/146/146
f 90/90/90 145/145/145 146/146/146
f 147/147/147 91/91/91 79/79/79
f 78/78/78 147/147/147 79/79/79
f 146/146/146 147/147/147 78/78/78
f 146/146/146 91/91/91 147/147/147
f 148/148/148 146/146/146 78/78/78
f 108/108/108 148/148/148 78/78/78
f 90/90/90 148/148/148 108/108/108
f 90/90/90 146/146/146 148/148/148
f 149/149/149 76/76/76 73/73/73
f 150/150/150 149/149/149 73/73/73
f 149/149/149 150/150/150 151/151/151
f 76/76/76 149/149/149 151/151/151
f 151/151/151 152/152/152 153/153/153
f 153/153/153 152/152/152 154/154/154
f 153/153/153 154/154/154 155/155/155
f 151/151/151 153/153/153 155/155/155
f 150/150/150 152/152/152 151/151/151
f 152/152/152 156/156/156 154/154/154
f 143/143/143 123/123/123 109/109/109
f 114/114/114 143/143/143 115/115/115
f 123/123/123 157/157/157 109/109/109
f 157/157/157 158/158/158 109/109/109
f 121/121/121 158/158/158 157/157/157
f 121/121/121 157/157/157 123/123/123
f 133/133/133 158/158/158 159/159/159
f 133/133/133 159/159/159 120/120/120
f 120/120/120 159/159/159 121/121/121
f 159/159/159 158/158/158 121/121/121
f 119/119/119 160/160/160 124/124/124
f 160/160/160 120/120/120 124/124/124
f 118/118/118 120/120/120 160/160/160
f 118/118/118 160/160/160 119/119/119
f 127/127/127 123/123/123 161/161/161
f 127/127/127 161/161/161 114/114/114
f 114/114/114 161/161/161 143/143/143
f 161/161/161 123/123/123 143/143/143
f 129/129/129 131/131/131 162/162/162
f 129/129/129 162/162/162 130/130/130
f 150/150/150 163/163/163 104/104/104
f 150/150/150 73/73/73 163/163/163
f 163/163/163 73/73/73 75/75/75
f 104/104/104 163/163/163 75/75/75
f 164/164/164 156/156/156 152/152/152
f 150/150/150 164/164/164 152/152/152
f 83/83/83 72/72/72 165/165/165
f 83/83/83 165/165/165 84/84/84
f 164/164/164 150/150/150 104/104/104
f 156/156/156 164/164/164 104/104/104
f 79/79/79 91/91/91 166/166/166
f 166/166/166 91/91/91 111/111/111
f 166/166/166 111/111/111 81/81/81
f 79/79/79 166/166/166 81/81/81
f 134/134/134 135/135/135 136/136/136
f 136/136/136 135/135/135 140/140/140
f 136/136/136 140/140/140 137/137/137
f 93/93/93 167/167/167 94/94/94
f 158/158/158 95/95/95 109/109/109
f 95/95/95 168/168/168 93/93/93
f 91/91/91 112/112/112 111/111/111
f 114/114/114 97/97/97 99/99/99
f 106/106/106 108/108/108 78/78/78
f 94/94/94 167/167/167 100/100/100
f 110/110/110 94/94/94 97/97/97
f 131/131/131 116/116/116 119/119/119
f 116/116/116 128/128/128 117/117/117
f 156/156/156 104/104/104 102/102/102
f 119/119/119 124/124/124 126/126/126
f 76/76/76 151/151/151 169/169/169
f 124/124/124 120/120/120 122/122/122
f 126/126/126 127/127/127 114/114/114
f 122/122/122 123/123/123 127/127/127
f 128/128/128 135/135/135 117/117/117
f 133/133/133 134/134/134 158/158/158
f 93/93/93 170/170/170 167/167/167
f 93/93/93 168/168/168 170/170/170
f 117/117/117 133/133/133 120/120/120
f 78/78/78 82/82/82 84/84/84
f 81/81/81 70/70/70 82/82/82
f 77/77/77 76/76/76 91/91/91
f 75/75/75 77/77/77 88/88/88
f 112/112/112 86/86/86 85/85/85
f 81/81/81 85/85/85 70/70/70
f 102/102/102 103/103/103 106/106/106
f 103/103/103 88/88/88 90/90/90
f 151/151/151 155/155/155 171/171/171
f 151/151/151 171/171/171 169/169/169
