# Exported using wow.export v0.2.19
o darnassis_int121.obj
v -28.209203720092773 3.1157639026641846 320.73486328125
v -29.678050994873047 3.1157641410827637 318.84320068359375
v -30.454376220703125 3.115764617919922 321.5685119628906
v -26.7403564453125 3.1157636642456055 322.6264953613281
v -27.516681671142578 3.1157641410827637 325.351806640625
v -28.98552894592285 3.1157641410827637 323.46014404296875
v -31.230701446533203 3.115764856338501 324.2938232421875
v -23.802663803100586 3.1157631874084473 326.4097900390625
v -25.27151107788086 3.1157634258270264 324.51812744140625
v -23.02634048461914 3.115762948989868 323.6844787597656
v -24.411380767822266 3.11576247215271 314.4505615234375
v -25.187707901000977 3.1157631874084473 317.1758728027344
v -22.942535400390625 3.115762710571289 316.34222412109375
v -20.697364807128906 3.1157619953155518 315.508544921875
v -21.473690032958984 3.115762233734131 318.2338562011719
v -28.125396728515625 3.115762948989868 313.3926086425781
v -26.656551361083984 3.1157631874084473 315.28424072265625
v -28.901723861694336 3.1157636642456055 316.117919921875
v -35.553428649902344 3.1157639026641846 311.27667236328125
v -34.0845832824707 3.1157641410827637 313.1683044433594
v -31.839412689208984 3.1157634258270264 312.33465576171875
v -32.61573791503906 3.1157641410827637 315.0599365234375
v -30.370567321777344 3.1157636642456055 314.22625732421875
v -37.882408142089844 3.1157658100128174 319.45257568359375
v -36.41356658935547 3.1157660484313965 321.34423828125
v -34.16839599609375 3.115765333175659 320.51055908203125
v -38.65873718261719 3.1157665252685547 322.1778869628906
v -34.94471740722656 3.1157655715942383 323.23583984375
v -32.699546813964844 3.11576509475708 322.4021911621094
v -36.32975769042969 3.115764617919922 314.0019836425781
v -34.86090850830078 3.115764617919922 315.89361572265625
v -34.472747802734375 3.1157643795013428 314.53094482421875
v -31.146894454956055 3.1157641410827637 316.9515686035156
v -33.392066955566406 3.115764617919922 317.7852478027344
v -37.106082916259766 3.11576509475708 316.727294921875
v -35.637237548828125 3.11576509475708 318.6189270019531
v -31.9232234954834 3.115764617919922 319.6768798828125
v -24.49518585205078 3.1157631874084473 321.7928466796875
v -22.250015258789062 3.115762710571289 320.95916748046875
v -25.964033126831055 3.1157634258270264 319.90118408203125
v -27.432880401611328 3.1157636642456055 318.009521484375
v -23.718860626220703 3.115762948989868 319.0675048828125
v -33.23326110839844 16.612951278686523 319.44158935546875
v -34.218658447265625 14.602892875671387 322.36187744140625
v -35.15148162841797 16.110437393188477 319.6954345703125
v -36.08430862426758 17.61798095703125 317.0289611816406
v -31.800891876220703 14.586040496826172 313.3307800292969
v -33.94260025024414 16.10201072692871 315.17987060546875
v -35.363189697265625 15.596687316894531 313.9554748535156
v -32.522010803222656 16.60733413696289 316.4042663574219
v -29.680837631225586 17.61798095703125 318.8530578613281
v -32.882572174072266 17.61798095703125 317.9410095214844
v -37.069705963134766 15.607922554016113 319.9492492675781
v -25.111820220947266 14.586040496826172 315.2362060546875
v -22.270645141601562 15.596687316894531 317.68499755859375
v -24.19459342956543 16.10201072692871 317.9566650390625
v -23.277366638183594 17.61798095703125 320.6771545410156
v -26.118541717529297 16.60733413696289 318.2283630371094
v -29.449390411376953 14.100378036499023 324.52069091796875
v -30.87491226196289 14.60289192199707 323.31439208984375
v -27.531166076660156 14.60289192199707 324.2668762207031
v -30.382213592529297 15.607921600341797 321.854248046875
v -34.71135711669922 13.597864151000977 323.822021484375
v -38.05510330200195 13.597864151000977 322.8695373535156
v -31.367610931396484 13.597864151000977 324.7745361328125
v -24.60845947265625 13.575392723083496 313.7401123046875
v -21.263925552368164 13.575392723083496 314.6928405761719
v -27.95299530029297 13.575392723083496 312.78741455078125
v -31.297531127929688 13.575392723083496 311.834716796875
v -34.642066955566406 13.575392723083496 310.8819885253906
v -23.978744506835938 15.607921600341797 323.6783447265625
v -24.68012046813965 13.59786319732666 326.67950439453125
v -26.829790115356445 16.612951278686523 321.26568603515625
v -28.959716796875 15.596687316894531 315.7795715332031
v -27.064754486083984 13.84912109375 325.60009765625
v -28.02386474609375 13.597864151000977 325.7270202636719
v -31.83402442932129 14.351634979248047 323.4412841796875
v -25.404266357421875 16.110435485839844 322.4720153808594
v -26.479103088378906 17.61798095703125 319.7651062011719
v -27.95474624633789 9.317834854125977 326.3353271484375
v -31.420711517333984 10.006954193115234 325.3304748535156
v -28.042865753173828 10.696073532104492 326.275146484375
v -24.665021896362305 11.385193824768066 327.21978759765625
v -31.231990814208984 4.4940032958984375 324.66796875
v -27.713356018066406 5.183121681213379 325.85748291015625
v -27.51732635498047 3.8048832416534424 325.53887939453125
v -24.36688995361328 7.92976188659668 313.37237548828125
v -27.962202072143555 7.2420477867126465 312.450927734375
v -24.32382583618164 6.554332733154297 313.59002685546875
v -27.810924530029297 8.617477416992188 312.28863525390625
v -24.347074508666992 10.680622100830078 313.3028564453125
v -24.245075225830078 9.305191040039062 313.3135681152344
v -20.97557258605957 11.36833667755127 314.27239990234375
v -27.718576431274414 9.99290657043457 312.3332824707031
v -26.186832427978516 7.595037460327148 326.71514892578125
v -24.488779067993164 8.628715515136719 327.3402099609375
v -24.19472312927246 5.8722405433654785 327.0470275878906
v -31.428020477294922 5.872241973876953 324.986572265625
v -27.820575714111328 11.36833667755127 312.32257080078125
v -28.090702056884766 11.938361167907715 326.1099548339844
v -31.51638412475586 12.491528511047363 325.0001220703125
v -28.098251342773438 13.044695854187012 325.8398132324219
v -25.85602569580078 4.83856201171875 326.29296875
v -23.802663803100586 3.1157631874084473 326.4097900390625
v -24.68012046813965 13.59786319732666 326.67950439453125
v -31.367610931396484 13.597864151000977 324.7745361328125
v -31.508834838867188 11.385193824768066 325.270263671875
v -24.614337921142578 13.023628234863281 313.61279296875
v -24.47016143798828 11.920101165771484 313.402587890625
v -21.263925552368164 13.575392723083496 314.6928405761719
v -27.964752197265625 12.471864700317383 312.53277587890625
v -24.60845947265625 13.575392723083496 313.7401123046875
v -34.93451690673828 11.938361167907715 324.1604309082031
v -38.05510330200195 13.597864151000977 322.8695373535156
v -34.785743713378906 13.044696807861328 323.934814453125
v -34.71135711669922 13.597864151000977 323.822021484375
v -31.31516456604004 11.920101165771484 311.4527587890625
v -31.303409576416016 13.023628234863281 311.7073974609375
v -34.642066955566406 13.575392723083496 310.8819885253906
v -31.297531127929688 13.575392723083496 311.834716796875
v -24.311229705810547 3.803476333618164 314.28338623046875
v -28.125396728515625 3.115762948989868 313.3926086425781
v -24.411380767822266 3.11576247215271 314.4505615234375
v -20.697364807128906 3.1157619953155518 315.508544921875
v -31.739261627197266 3.8034772872924805 312.16748046875
v -35.553428649902344 3.1157639026641846 311.27667236328125
v -31.839412689208984 3.1157634258270264 312.33465576171875
v -27.516681671142578 3.1157641410827637 325.351806640625
v -36.8033447265625 4.838563919067383 323.17449951171875
v -34.94536590576172 3.804884910583496 323.42291259765625
v -38.65873718261719 3.1157665252685547 322.1778869628906
v -38.661319732666016 5.8722429275512695 322.9261169433594
v -34.9466552734375 5.1831231117248535 323.79705810546875
v -35.070472717285156 7.93959903717041 324.231689453125
v -35.118186950683594 6.561361312866211 324.0296630859375
v -38.56589126586914 8.628718376159668 323.3302307128906
v -20.771575927734375 8.617475509643555 314.2938537597656
v -22.547700881958008 7.585904121398926 313.94195556640625
v -31.575050354003906 7.250479221343994 325.1331787109375
v -33.446044921875 4.835048675537109 311.3877258300781
v -31.538963317871094 5.178905487060547 311.8331298828125
v -35.152828216552734 5.866620063781738 310.60797119140625
v -27.919139862060547 5.866619110107422 312.6685485839844
v -27.92509651184082 4.4911909103393555 313.0582580566406
v -31.52733612060547 8.628717422485352 325.335205078125
v -28.03191375732422 7.939597129821777 326.2366943359375
v -31.406238555908203 7.9297637939453125 311.3671875
v -31.557514190673828 6.554333686828613 311.5294494628906
v -34.85027313232422 8.617480278015137 310.283447265625
v -34.886680603027344 10.696073532104492 324.32562255859375
v -34.99330139160156 9.31783676147461 324.3303527832031
v -38.35264587402344 11.385193824768066 323.32073974609375
v -27.95299530029297 13.575392723083496 312.78741455078125
v -20.685449600219727 5.8666181564331055 314.7291259765625
v -22.498340606689453 4.835047245025635 314.5062561035156
v -31.19207763671875 10.680622100830078 311.3529968261719
v -31.284423828125 9.305192947387695 311.308349609375
v -24.305273056030273 5.1789045333862305 313.8936767578125
v -34.66557693481445 11.36833667755127 310.3727111816406
v -31.330598831176758 8.61747932434082 311.2860412597656
v -28.086929321289062 11.385193824768066 326.2450256347656
v -34.93074035644531 11.385193824768066 324.2955017089844
v -31.24307632446289 11.36833667755127 311.34765625
v -27.8848876953125 6.561359882354736 326.090087890625
v -24.398075103759766 11.36833667755127 313.2974853515625
v -31.230701446533203 3.115764856338501 324.2938232421875
v -28.02386474609375 13.597864151000977 325.7270202636719
v -25.211719512939453 4.663119316101074 313.7822570800781
v -26.039806365966797 6.216800212860107 326.56854248046875
v -27.811370849609375 5.872241020202637 326.01678466796875
v -28.88094139099121 7.422758102416992 325.9241638183594
v -36.803985595703125 5.527683258056641 323.361572265625
v -35.04467010498047 5.872242450714111 323.95635986328125
v -34.94471740722656 3.1157655715942383 323.23583984375
v -24.302295684814453 5.866618633270264 313.6988525390625
v -31.53598403930664 5.86661958694458 311.63824462890625
v -28.008056640625 8.628716468811035 326.33770751953125
v -35.04661560058594 8.628717422485352 324.33270263671875
v -24.291250228881836 8.617476463317871 313.291259765625
vn 4.097765327060188e-8 1 -1.4385315694198653e-7
vn 4.097761419075141e-8 1 -1.4385325641796953e-7
vn 4.097765327060188e-8 1 -1.4385315694198653e-7
vn 4.0977688797738665e-8 1 -1.438530432551488e-7
vn 4.097772432487545e-8 1 -1.4385292956831108e-7
vn 4.0977688797738665e-8 1 -1.438530432551488e-7
vn 4.0977688797738665e-8 1 -1.438530432551488e-7
vn 4.097776340472592e-8 1 -1.4385283009232808e-7
vn 4.097772432487545e-8 1 -1.4385292956831108e-7
vn 4.097772432487545e-8 1 -1.4385292956831108e-7
vn 4.097761419075141e-8 1 -1.4385325641796953e-7
vn 4.097761419075141e-8 1 -1.4385325641796953e-7
vn 4.097761419075141e-8 1 -1.4385325641796953e-7
vn 4.097761419075141e-8 1 -1.4385325641796953e-7
vn 4.097765327060188e-8 1 -1.4385315694198653e-7
vn 4.097761419075141e-8 1 -1.4385325641796953e-7
vn 4.097761419075141e-8 1 -1.4385325641796953e-7
vn 4.097761419075141e-8 1 -1.4385325641796953e-7
vn 4.097761419075141e-8 1 -1.4385325641796953e-7
vn 4.097761419075141e-8 1 -1.4385325641796953e-7
vn 4.097761419075141e-8 1 -1.4385325641796953e-7
vn 4.097761419075141e-8 1 -1.4385325641796953e-7
vn 4.097761419075141e-8 1 -1.4385325641796953e-7
vn 4.097761419075141e-8 1 -1.4385325641796953e-7
vn 4.097761419075141e-8 1 -1.4385325641796953e-7
vn 4.097761419075141e-8 1 -1.4385325641796953e-7
vn 4.097761419075141e-8 1 -1.4385325641796953e-7
vn 4.097765327060188e-8 1 -1.4385315694198653e-7
vn 4.097765327060188e-8 1 -1.4385315694198653e-7
vn 4.097761419075141e-8 1 -1.4385325641796953e-7
vn 4.097761419075141e-8 1 -1.4385325641796953e-7
vn 4.097761419075141e-8 1 -1.4385325641796953e-7
vn 4.097761419075141e-8 1 -1.4385325641796953e-7
vn 4.097761419075141e-8 1 -1.4385325641796953e-7
vn 4.097761419075141e-8 1 -1.4385325641796953e-7
vn 4.097761419075141e-8 1 -1.4385325641796953e-7
vn 4.097761419075141e-8 1 -1.4385325641796953e-7
vn 4.0977688797738665e-8 1 -1.438530432551488e-7
vn 4.0977688797738665e-8 1 -1.438530432551488e-7
vn 4.097765327060188e-8 1 -1.4385315694198653e-7
vn 4.097761419075141e-8 1 -1.4385325641796953e-7
vn 4.097765327060188e-8 1 -1.4385315694198653e-7
vn 0.06597352772951126 -0.9705712199211121 -0.23160088062286377
vn 0.18088892102241516 -0.7510246634483337 -0.6350128054618835
vn 0.09720093011856079 -0.9349424839019775 -0.3412250876426697
vn 0.001154746045358479 -0.9999911189079285 -0.004053759388625622
vn -0.1808294951915741 -0.751214325428009 0.6348052024841309
vn -0.09608342498540878 -0.9364800453186035 0.3373025953769684
vn -0.126312717795372 -0.8873674273490906 0.4434230923652649
vn -0.06445251405239105 -0.9719318151473999 0.22626173496246338
vn 0.001154746045358479 -0.9999911189079285 -0.004053759388625622
vn 0.001154746045358479 -0.9999911189079285 -0.004053759388625622
vn 0.12704205513000488 -0.8859795331954956 -0.4459827244281769
vn -0.18082977831363678 -0.751213788986206 0.6348057985305786
vn -0.12631304562091827 -0.8873671293258667 0.4434237778186798
vn -0.09608358144760132 -0.936479926109314 0.33730295300483704
vn 0.001154746045358479 -0.9999911189079285 -0.004053759388625622
vn -0.06445251405239105 -0.9719318151473999 0.22626173496246338
vn 0.20412668585777283 -0.6669573783874512 -0.7165893316268921
vn 0.18088892102241516 -0.7510246634483337 -0.6350128054618835
vn 0.18088892102241516 -0.7510246634483337 -0.6350128054618835
vn 0.12704205513000488 -0.8859795331954956 -0.4459826946258545
vn 0.22445319592952728 -0.5733779072761536 -0.7879457473754883
vn 0.22445321083068848 -0.5733779072761536 -0.7879458069801331
vn 0.22445324063301086 -0.5733779668807983 -0.7879458665847778
vn -0.22483377158641815 -0.5713869333267212 0.7892824411392212
vn -0.2248338907957077 -0.5713866353034973 0.7892826199531555
vn -0.2248336523771286 -0.5713872909545898 0.7892822027206421
vn -0.22483356297016144 -0.5713877081871033 0.7892820835113525
vn -0.2248334139585495 -0.5713879466056824 0.7892817854881287
vn 0.12704205513000488 -0.8859795331954956 -0.4459826946258545
vn 0.22445319592952728 -0.5733779072761536 -0.7879457473754883
vn 0.06597352772951126 -0.9705712199211121 -0.23160088062286377
vn -0.126312717795372 -0.8873674273490906 0.4434230923652649
vn 0.2146729826927185 -0.6212761998176575 -0.7536122798919678
vn 0.22445321083068848 -0.5733779668807983 -0.7879458069801331
vn 0.19285191595554352 -0.710258424282074 -0.6770090460777283
vn 0.09720093011856079 -0.9349424839019775 -0.3412250876426697
vn 0.001154746045358479 -0.9999911189079285 -0.004053759388625622
vn 0.2739511728286743 0.008178402669727802 -0.9617089033126831
vn 0.27377501130104065 -0.03676856309175491 -0.9610905647277832
vn 0.27304568886756897 -0.08164113014936447 -0.9585305452346802
vn 0.2717646062374115 -0.12634871900081635 -0.9540335536003113
vn 0.26709169149398804 0.22250056266784668 -0.9376329183578491
vn 0.26800990104675293 0.20726408064365387 -0.9408572316169739
vn 0.2661079168319702 0.237684965133667 -0.9341800212860107
vn -0.272593230009079 0.09973109513521194 0.9569464921951294
vn -0.2714703381061554 0.13448335230350494 0.953004777431488
vn -0.27001550793647766 0.16907066106796265 0.9478959441184998
vn -0.2733823359012604 0.06485671550035477 0.9597164988517761
vn -0.27329984307289124 -0.06937174499034882 0.9594241380691528
vn -0.2739037573337555 0.020124804228544235 0.9615464806556702
vn -0.2721756100654602 -0.1139569878578186 0.955475926399231
vn -0.27387621998786926 -0.02464744634926319 0.961449146270752
vn 0.2724323272705078 0.10545282810926437 -0.9563787579536438
vn 0.2735736668109894 0.05310884118080139 -0.9603837132453918
vn 0.26886293292045593 0.19197715818881989 -0.9438524842262268
vn 0.2688634395599365 0.19197505712509155 -0.9438527822494507
vn -0.2721753716468811 -0.1139555275440216 0.9554761648178101
vn 0.2656005918979645 -0.2451469600200653 -0.9323943853378296
vn 0.2555536925792694 -0.36036133766174316 -0.8971243500709534
vn 0.2417706847190857 -0.4703073799610138 -0.848738968372345
vn 0.2675587236881256 0.21488989889621735 -0.939273476600647
vn 0.26505935192108154 0.2528115212917328 -0.930499792098999
vn 0.22445319592952728 -0.5733779072761536 -0.7879457473754883
vn 0.22445324063301086 -0.5733779668807983 -0.7879458665847778
vn 0.27176469564437866 -0.1263488233089447 -0.9540334939956665
vn -0.2424042969942093 -0.4659397006034851 0.8509643077850342
vn -0.26625680923461914 -0.23546956479549408 0.9346985220909119
vn -0.2248338907957077 -0.5713866353034973 0.7892826199531555
vn -0.25628235936164856 -0.3533954620361328 0.8996838331222534
vn -0.22483377158641815 -0.5713869333267212 0.7892824411392212
vn 0.26560068130493164 -0.24514706432819366 -0.9323943853378296
vn 0.22445321083068848 -0.5733779072761536 -0.7879458069801331
vn 0.2417706996202469 -0.4703073799610138 -0.8487390279769897
vn 0.22445319592952728 -0.5733779072761536 -0.7879457473754883
vn -0.2662566304206848 -0.23546814918518066 0.9346989989280701
vn -0.24240411818027496 -0.4659404754638672 0.8509640097618103
vn -0.2248334139585495 -0.5713879466056824 0.7892817854881287
vn -0.22483356297016144 -0.5713877081871033 0.7892820835113525
vn -0.26533445715904236 0.2489383965730667 0.9314651489257812
vn -0.26424065232276917 0.26398494839668274 0.9276254773139954
vn -0.2642406225204468 0.26398491859436035 0.9276254177093506
vn -0.2642406225204468 0.26398491859436035 0.9276253581047058
vn -0.26533445715904236 0.2489383965730667 0.9314651489257812
vn -0.2642406225204468 0.26398491859436035 0.9276253581047058
vn -0.2642406225204468 0.26398491859436035 0.9276254177093506
vn 0.2650596499443054 0.25281381607055664 -0.9304991960525513
vn 0.2675595283508301 0.21489010751247406 -0.9392732381820679
vn 0.2661084532737732 0.2376895248889923 -0.9341787695884705
vn 0.2650603950023651 0.25282058119773865 -0.9304970502853394
vn 0.2688639760017395 0.19197294116020203 -0.9438530206680298
vn 0.2680104672908783 0.20726199448108673 -0.9408575892448425
vn 0.27289658784866333 0.08802931755781174 -0.9580075144767761
vn 0.2705402672290802 0.1575039178133011 -0.949737012386322
vn 0.2735736668109894 0.05310884118080139 -0.9603837132453918
vn -0.2733823359012604 0.06485671550035477 0.9597164988517761
vn -0.2720736563205719 0.117125004529953 0.9551217555999756
vn 0.2718850374221802 0.12284188717603683 -0.9544571042060852
vn -0.26685458421707153 0.22625663876533508 0.9368013143539429
vn -0.2673289477825165 0.21866799890995026 0.9384666085243225
vn -0.2682291269302368 0.2034514844417572 0.9416266083717346
vn -0.26822957396507263 0.2034512162208557 0.9416265487670898
vn -0.2663639485836029 0.2338315099477768 0.9350790977478027
vn 0.2735736668109894 0.05310884118080139 -0.9603837132453918
vn 0.27289658784866333 0.08802931755781174 -0.9580075144767761
vn -0.272593230009079 0.09973109513521194 0.9569464921951294
vn -0.27001503109931946 0.16907094419002533 0.9478960633277893
vn -0.2733823359012604 0.06485671550035477 0.9597164988517761
vn 0.27304577827453613 -0.08164124190807343 -0.958530604839325
vn 0.2739511728286743 0.008178402669727802 -0.9617089033126831
vn 0.27176475524902344 -0.12634894251823425 -0.9540334939956665
vn -0.2248336523771286 -0.5713872909545898 0.7892822027206421
vn -0.26823002099990845 0.20345093309879303 0.9416264295578003
vn -0.26685500144958496 0.2262563556432724 0.9368012547492981
vn -0.27329960465431213 -0.06937029212713242 0.9594243764877319
vn -0.2739037573337555 0.020124804228544235 0.9615464806556702
vn -0.2673293650150299 0.21866773068904877 0.9384665489196777
vn -0.272175133228302 -0.1139540746808052 0.9554764032363892
vn -0.2733823359012604 0.06485671550035477 0.9597164988517761
vn 0.2717646658420563 -0.12634877860546112 -0.954033613204956
vn 0.27176472544670105 -0.12634888291358948 -0.9540334939956665
vn -0.27217525243759155 -0.11395479738712311 0.9554762840270996
vn 0.270539790391922 0.1575060486793518 -0.9497368335723877
vn -0.27217549085617065 -0.1139562577009201 0.9554760456085205
vn 0.2650598883628845 0.2528160512447357 -0.9304984211921692
vn 0.22445321083068848 -0.5733779668807983 -0.7879458069801331
vn -0.2666115164756775 0.23004569113254547 0.9359472990036011
vn 0.2697426974773407 0.1747683882713318 -0.9469397664070129
vn 0.2688632011413574 0.19197610020637512 -0.9438526630401611
vn 0.2721691429615021 0.1141517385840416 -0.9554545879364014
vn 0.2684454023838043 0.19962356984615326 -0.9423840045928955
vn 0.268863707780838 0.1919739991426468 -0.9438529014587402
vn 0.2650601267814636 0.2528183162212372 -0.9304977655410767
vn -0.26822978258132935 0.20345106720924377 0.9416264891624451
vn -0.2682293653488159 0.20345135033130646 0.9416265487670898
vn 0.2735736668109894 0.05310884118080139 -0.9603837132453918
vn 0.2735736668109894 0.05310884118080139 -0.9603837132453918
vn -0.2733823359012604 0.06485671550035477 0.9597164988517761
vt 1.205548882484436 2.1171268224716187
vt 1.0415129661560059 1.9868001341819763
vt 1.0452516078948975 2.2531559467315674
vt 1.3695847988128662 2.247453451156616
vt 1.3733234405517578 2.5138092041015625
vt 1.2092876434326172 2.3834826946258545
vt 1.0489903688430786 2.5195118188858032
vt 1.697656512260437 2.5081067085266113
vt 1.5336205959320068 2.3777800798416138
vt 1.6939177513122559 2.2417508363723755
vt 1.3583685159683228 1.448385864496231
vt 1.362107276916504 1.7147417068481445
vt 1.522404432296753 1.578712522983551
vt 1.682701587677002 1.4426833391189575
vt 1.686440348625183 1.7090392112731934
vt 1.0340354442596436 1.4540883898735046
vt 1.1980713605880737 1.584415078163147
vt 1.0377742052078247 1.7204442620277405
vt 0.3853692412376404 1.4654934406280518
vt 0.5494052171707153 1.595820128917694
vt 0.7097023725509644 1.4597909152507782
vt 0.7134411334991455 1.7261468172073364
vt 0.8737382888793945 1.5901175737380981
vt 0.39658546447753906 2.2645610570907593
vt 0.5606213808059692 2.394887685775757
vt 0.720918595790863 2.258858561515808
vt 0.4003242254257202 2.530916929244995
vt 0.7246572971343994 2.525214433670044
vt 0.8849544525146484 2.3891851902008057
vt 0.38910800218582153 1.7318493127822876
vt 0.5531439185142517 1.86217600107193
vt 0.5512745380401611 1.728998064994812
vt 0.8774770498275757 1.856473445892334
vt 0.7171798348426819 1.9925026893615723
vt 0.3928467333316803 1.9982051849365234
vt 0.5568826794624329 2.1285319328308105
vt 0.8812158107757568 2.12282931804657
vt 1.5298819541931152 2.111424207687378
vt 1.6901791095733643 1.9753950238227844
vt 1.365846037864685 1.9810975790023804
vt 1.2018101215362549 1.8507709503173828
vt 1.526143193244934 1.845068335533142
vt 0.2916446030139923 0.7512388229370117
vt 0.3146340250968933 0.2547152042388916
vt 0.18516331911087036 0.6271079182624817
vt 0.05569261312484741 0.9995006322860718
vt 0.23744098842144012 0.25025105476379395
vt 0.14656680822372437 0.6248758435249329
vt 0.028096124529838562 0.5000010132789612
vt 0.265037477016449 0.7497506737709045
vt 0.5019788146018982 0.9995003640651703
vt 0.2788357138633728 0.999500498175621
vt 0.0786820501089096 0.5029770135879517
vt 0.6805723309516907 0.2502501606941223
vt 0.9175136685371399 0.49999988079071045
vt 0.8144186735153198 0.6248751282691956
vt 0.948265016078949 0.9995000958442688
vt 0.7113236784934998 0.7497504353523254
vt 0.6570672988891602 0.13058429956436157
vt 0.5390912890434265 0.2547152042388916
vt 0.7635485529899597 0.2547152042388916
vt 0.5275965929031372 0.5029770135879517
vt 0.3261287212371826 0.006453394889831543
vt 0.1016714870929718 0.006453394889831543
vt 0.5505859851837158 0.006453394889831543
vt 0.6651966571807861 0.0005000829696655273
vt 0.8867623209953308 0.0004996061325073242
vt 0.44363096356391907 0.0005005002021789551
vt 0.2220652997493744 0.0005009174346923828
vt 0.0004996359348297119 0.0005013942718505859
vt 0.973882794380188 0.5029767453670502
vt 0.9995005130767822 0.006453394889831543
vt 0.7379307746887207 0.7512385547161102
vt 0.47438234090805054 0.5000007450580597
vt 0.8282839059829712 0.06851887702941895
vt 0.775043249130249 0.006453394889831543
vt 0.48585066199302673 0.1926497220993042
vt 0.8559067845344543 0.6271076500415802
vt 0.7251219153404236 0.9995002299547195
vt 1.5 0.5624376833438873
vt 1 0.6248753070831299
vt 1.5 0.7076346576213837
vt 2 0.7903940081596375
vt 1 0.12537503242492676
vt 1.5 0.1892298460006714
vt 1.5 0.06293749809265137
vt 1.5 0.4366716146469116
vt 1 0.3743613362312317
vt 1.5 0.31254422664642334
vt 1 0.49898189306259155
vt 1.5 0.7001402676105499
vt 1.5 0.5612921714782715
vt 2 0.7766780257225037
vt 1 0.6236025094985962
vt 1.75 0.40705251693725586
vt 2 0.5000000596046448
vt 2 0.2530847191810608
vt 1 0.25166743993759155
vt 1 0.7624506056308746
vt 1.5 0.8325097858905792
vt 1 0.874625563621521
vt 1.5 0.937063068151474
vt 1.75 0.1580110788345337
vt 2 0.0004999637603759766
vt 2 0.999500572681427
vt 1 0.999500572681427
vt 1 0.7700722813606262
vt 1.5 0.9351537525653839
vt 1.5 0.8247607946395874
vt 2 0.9974639415740967
vt 1 0.8728435635566711
vt 1.5 0.9974640905857086
vt 0.5 0.812188059091568
vt 0 0.999500572681427
vt 0.5 0.937063068151474
vt 0.5 0.999500572681427
vt 0.5 0.8105333745479584
vt 0.5 0.9351540505886078
vt 0 0.9974645376205444
vt 0.5 0.9974643886089325
vt 1.5 0.06280982494354248
vt 1 0.000499725341796875
vt 1.5 0.0004996061325073242
vt 2 0.0004995465278625488
vt 0.5 0.0628100037574768
vt 0 0.0004998445510864258
vt 0.5 0.0004997849464416504
vt 1.5 0.0004999637603759766
vt 0.25 0.15659379959106445
vt 0.5 0.06293743848800659
vt 0 0.0004998445510864258
vt 0 0.2502501606941223
vt 0.5 0.18781256675720215
vt 0.5 0.4375627040863037
vt 0.5 0.31268763542175293
vt 0 0.5000003576278687
vt 2 0.4989818334579468
vt 1.75 0.40576303005218506
vt 1 0.37512511014938354
vt 0.25 0.15627539157867432
vt 0.5 0.1874305009841919
vt 0 0.2497408390045166
vt 1 0.2502339482307434
vt 1 0.1251201629638672
vt 1 0.5000002086162567
vt 1.5 0.43756258487701416
vt 0.5 0.4366716146469116
vt 0.5 0.31205105781555176
vt 0 0.49898195266723633
vt 0.5 0.6873129308223724
vt 0.5 0.5624378323554993
vt 0 0.749750554561615
vt 1 0.9974642395973206
vt 2 0.2507270574569702
vt 1.75 0.15676844120025635
vt 0.5 0.6859128475189209
vt 0.5 0.5612922310829163
vt 1.5 0.1879236102104187
vt 0 0.7482231855392456
vt 0.5 0.49898195266723633
vt 1.5 0.7802331447601318
vt 0.5 0.7599114179611206
vt 0.5 0.7553368955850601
vt 1.5 0.31410491466522217
vt 1.5 0.7695643156766891
vt 1 0.0004999041557312012
vt 1.5 0.999500572681427
vt 1.375 0.14094430208206177
vt 1.75 0.28359484672546387
vt 1.5 0.25237607955932617
vt 1.375 0.3910888433456421
vt 0.25 0.21903133392333984
vt 0.5 0.25095880031585693
vt 0.5 0.0004998445510864258
vt 1.5 0.2504805326461792
vt 0.5 0.24998736381530762
vt 1.5 0.5000001192092896
vt 0.5 0.5000002980232239
vt 1.5 0.4989818334579468
g int1210
s 1
f 1/1/1 2/2/2 3/3/3
f 4/4/4 1/1/1 3/3/3
f 5/5/5 4/4/4 6/6/6
f 5/5/5 6/6/6 7/7/7
f 6/6/6 3/3/3 7/7/7
f 4/4/4 3/3/3 6/6/6
f 8/8/8 9/9/9 5/5/5
f 9/9/9 4/4/4 5/5/5
f 9/9/9 10/10/10 4/4/4
f 8/8/8 10/10/10 9/9/9
f 11/11/11 12/12/12 13/13/13
f 11/11/11 13/13/13 14/14/14
f 15/15/15 14/14/14 13/13/13
f 15/15/15 13/13/13 12/12/12
f 16/16/16 17/17/17 11/11/11
f 17/17/17 12/12/12 11/11/11
f 17/17/17 18/18/18 12/12/12
f 16/16/16 18/18/18 17/17/17
f 19/19/19 20/20/20 21/21/21
f 22/22/22 18/18/18 23/23/23
f 23/23/23 18/18/18 16/16/16
f 21/21/21 23/23/23 16/16/16
f 21/21/21 22/22/22 23/23/23
f 24/24/24 25/25/25 26/26/26
f 24/24/24 27/27/27 25/25/25
f 28/28/28 25/25/25 27/27/27
f 28/28/28 26/26/26 25/25/25
f 7/7/7 3/3/3 29/29/29
f 29/29/29 3/3/3 26/26/26
f 29/29/29 26/26/26 28/28/28
f 7/7/7 29/29/29 28/28/28
f 19/19/19 30/30/30 20/20/20
f 20/20/20 22/22/22 21/21/21
f 30/30/30 31/31/31 32/32/32
f 32/32/32 31/31/31 22/22/22
f 20/20/20 32/32/32 22/22/22
f 20/20/20 30/30/30 32/32/32
f 33/33/33 2/2/2 18/18/18
f 22/22/22 33/33/33 18/18/18
f 22/22/22 34/34/34 33/33/33
f 33/33/33 34/34/34 2/2/2
f 35/35/35 24/24/24 36/36/36
f 36/36/36 24/24/24 26/26/26
f 36/36/36 26/26/26 34/34/34
f 35/35/35 36/36/36 34/34/34
f 31/31/31 35/35/35 34/34/34
f 22/22/22 31/31/31 34/34/34
f 30/30/30 35/35/35 31/31/31
f 34/34/34 37/37/37 2/2/2
f 34/34/34 26/26/26 37/37/37
f 3/3/3 37/37/37 26/26/26
f 3/3/3 2/2/2 37/37/37
f 10/10/10 38/38/38 4/4/4
f 10/10/10 39/39/39 38/38/38
f 38/38/38 39/39/39 40/40/40
f 4/4/4 38/38/38 40/40/40
f 18/18/18 41/41/41 12/12/12
f 18/18/18 2/2/2 41/41/41
f 40/40/40 41/41/41 2/2/2
f 40/40/40 12/12/12 41/41/41
f 42/42/42 12/12/12 40/40/40
f 39/39/39 42/42/42 40/40/40
f 39/39/39 15/15/15 42/42/42
f 42/42/42 15/15/15 12/12/12
f 4/4/4 40/40/40 1/1/1
f 1/1/1 40/40/40 2/2/2
g int1211
s 1
f 43/43/43 44/44/44 45/45/45
f 43/43/43 45/45/45 46/46/46
f 47/47/47 48/48/48 49/49/49
f 48/48/48 46/46/46 49/49/49
f 50/50/50 46/46/46 48/48/48
f 50/50/50 48/48/48 47/47/47
f 51/51/51 52/52/52 50/50/50
f 52/52/52 46/46/46 50/50/50
f 46/46/46 52/52/52 43/43/43
f 52/52/52 51/51/51 43/43/43
f 44/44/44 53/53/53 45/45/45
f 45/45/45 53/53/53 46/46/46
f 54/54/54 55/55/55 56/56/56
f 56/56/56 55/55/55 57/57/57
f 58/58/58 56/56/56 57/57/57
f 58/58/58 54/54/54 56/56/56
f 59/59/59 60/60/60 61/61/61
f 60/60/60 44/44/44 62/62/62
f 61/61/61 60/60/60 62/62/62
f 63/63/63 64/64/64 44/44/44
f 65/65/65 63/63/63 44/44/44
f 66/66/66 67/67/67 54/54/54
f 68/68/68 66/66/66 54/54/54
f 69/69/69 68/68/68 47/47/47
f 70/70/70 69/69/69 47/47/47
f 61/61/61 71/71/71 72/72/72
f 62/62/62 73/73/73 61/61/61
f 51/51/51 73/73/73 62/62/62
f 51/51/51 50/50/50 74/74/74
f 74/74/74 50/50/50 47/47/47
f 47/47/47 49/49/49 70/70/70
f 43/43/43 51/51/51 62/62/62
f 62/62/62 44/44/44 43/43/43
f 44/44/44 64/64/64 53/53/53
f 54/54/54 67/67/67 55/55/55
f 58/58/58 51/51/51 74/74/74
f 74/74/74 54/54/54 58/58/58
f 75/75/75 76/76/76 59/59/59
f 75/75/75 59/59/59 61/61/61
f 72/72/72 75/75/75 61/61/61
f 72/72/72 76/76/76 75/75/75
f 77/77/77 44/44/44 60/60/60
f 59/59/59 77/77/77 60/60/60
f 59/59/59 65/65/65 77/77/77
f 77/77/77 65/65/65 44/44/44
f 76/76/76 65/65/65 59/59/59
f 68/68/68 54/54/54 74/74/74
f 47/47/47 68/68/68 74/74/74
f 78/78/78 57/57/57 71/71/71
f 61/61/61 78/78/78 71/71/71
f 73/73/73 78/78/78 61/61/61
f 73/73/73 57/57/57 78/78/78
f 79/79/79 57/57/57 73/73/73
f 51/51/51 79/79/79 73/73/73
f 79/79/79 51/51/51 58/58/58
f 57/57/57 79/79/79 58/58/58
g int1212
s 1
f 80/80/80 81/81/81 82/82/82
f 80/80/80 82/82/82 83/83/83
f 84/84/84 85/85/85 86/86/86
f 87/87/87 88/88/88 89/89/89
f 87/87/87 90/90/90 88/88/88
f 91/91/91 92/92/92 93/93/93
f 94/94/94 92/92/92 91/91/91
f 95/95/95 96/96/96 97/97/97
f 98/98/98 85/85/85 84/84/84
f 99/99/99 94/94/94 91/91/91
f 100/100/100 101/101/101 102/102/102
f 86/86/86 103/103/103 104/104/104
f 100/100/100 102/102/102 105/105/105
f 103/103/103 97/97/97 104/104/104
f 101/101/101 106/106/106 102/102/102
f 81/81/81 107/107/107 82/82/82
f 85/85/85 97/97/97 103/103/103
f 85/85/85 103/103/103 86/86/86
f 108/108/108 109/109/109 110/110/110
f 111/111/111 109/109/109 108/108/108
f 111/111/111 108/108/108 112/112/112
f 108/108/108 110/110/110 112/112/112
f 113/113/113 114/114/114 115/115/115
f 113/113/113 115/115/115 101/101/101
f 101/101/101 115/115/115 116/116/116
f 115/115/115 114/114/114 116/116/116
f 117/117/117 111/111/111 118/118/118
f 117/117/117 118/118/118 119/119/119
f 118/118/118 120/120/120 119/119/119
f 111/111/111 120/120/120 118/118/118
f 121/121/121 122/122/122 123/123/123
f 121/121/121 123/123/123 124/124/124
f 125/125/125 126/126/126 127/127/127
f 125/125/125 127/127/127 122/122/122
f 86/86/86 104/104/104 128/128/128
f 129/129/129 130/130/130 131/131/131
f 132/132/132 129/129/129 131/131/131
f 129/129/129 133/133/133 130/130/130
f 134/134/134 135/135/135 136/136/136
f 137/137/137 87/87/87 138/138/138
f 133/133/133 98/98/98 84/84/84
f 133/133/133 84/84/84 130/130/130
f 139/139/139 135/135/135 134/134/134
f 140/140/140 125/125/125 141/141/141
f 142/142/142 140/140/140 141/141/141
f 142/142/142 126/126/126 140/140/140
f 140/140/140 126/126/126 125/125/125
f 143/143/143 141/141/141 144/144/144
f 145/145/145 139/139/139 134/134/134
f 146/146/146 139/139/139 145/145/145
f 141/141/141 125/125/125 144/144/144
f 146/146/146 96/96/96 95/95/95
f 101/101/101 116/116/116 106/106/106
f 90/90/90 147/147/147 88/88/88
f 88/88/88 147/147/147 148/148/148
f 147/147/147 149/149/149 148/148/148
f 150/150/150 151/151/151 152/152/152
f 81/81/81 151/151/151 150/150/150
f 111/111/111 112/112/112 153/153/153
f 81/81/81 150/150/150 107/107/107
f 154/154/154 155/155/155 124/124/124
f 155/155/155 121/121/121 124/124/124
f 94/94/94 156/156/156 157/157/157
f 111/111/111 153/153/153 120/120/120
f 138/138/138 87/87/87 89/89/89
f 138/138/138 89/89/89 154/154/154
f 158/158/158 143/143/143 144/144/144
f 156/156/156 159/159/159 157/157/157
f 156/156/156 94/94/94 99/99/99
f 137/137/137 138/138/138 154/154/154
f 154/154/154 158/158/158 155/155/155
f 148/148/148 149/149/149 142/142/142
f 90/90/90 157/157/157 160/160/160
f 90/90/90 160/160/160 147/147/147
f 160/160/160 149/149/149 147/147/147
f 83/83/83 161/161/161 100/100/100
f 161/161/161 107/107/107 100/100/100
f 82/82/82 107/107/107 161/161/161
f 82/82/82 161/161/161 83/83/83
f 107/107/107 162/162/162 113/113/113
f 135/135/135 139/139/139 98/98/98
f 162/162/162 152/152/152 113/113/113
f 135/135/135 132/132/132 136/136/136
f 150/150/150 152/152/152 162/162/162
f 88/88/88 143/143/143 89/89/89
f 150/150/150 162/162/162 107/107/107
f 159/159/159 163/163/163 117/117/117
f 163/163/163 99/99/99 117/117/117
f 163/163/163 156/156/156 99/99/99
f 98/98/98 139/139/139 164/164/164
f 159/159/159 156/156/156 163/163/163
f 99/99/99 165/165/165 109/109/109
f 165/165/165 93/93/93 109/109/109
f 165/165/165 91/91/91 93/93/93
f 99/99/99 91/91/91 165/165/165
f 84/84/84 86/86/86 166/166/166
f 144/144/144 122/122/122 121/121/121
f 84/84/84 166/166/166 130/130/130
f 144/144/144 125/125/125 122/122/122
f 102/102/102 106/106/106 167/167/167
f 102/102/102 167/167/167 105/105/105
f 155/155/155 168/168/168 121/121/121
f 168/168/168 144/144/144 121/121/121
f 158/158/158 144/144/144 168/168/168
f 158/158/158 168/168/168 155/155/155
f 169/169/169 95/95/95 97/97/97
f 164/164/164 95/95/95 169/169/169
f 170/170/170 164/164/164 169/169/169
f 170/170/170 169/169/169 97/97/97
f 139/139/139 171/171/171 164/164/164
f 171/171/171 95/95/95 164/164/164
f 171/171/171 146/146/146 95/95/95
f 139/139/139 146/146/146 171/171/171
f 132/132/132 172/172/172 129/129/129
f 172/172/172 133/133/133 129/129/129
f 172/172/172 173/173/173 133/133/133
f 132/132/132 173/173/173 172/172/172
f 86/86/86 128/128/128 166/166/166
f 117/117/117 99/99/99 111/111/111
f 130/130/130 166/166/166 174/174/174
f 159/159/159 117/117/117 119/119/119
f 107/107/107 113/113/113 101/101/101
f 130/130/130 174/174/174 131/131/131
f 152/152/152 114/114/114 113/113/113
f 173/173/173 135/135/135 98/98/98
f 132/132/132 135/135/135 173/173/173
f 173/173/173 98/98/98 133/133/133
f 98/98/98 164/164/164 170/170/170
f 98/98/98 170/170/170 85/85/85
f 99/99/99 109/109/109 111/111/111
f 170/170/170 97/97/97 85/85/85
f 109/109/109 93/93/93 110/110/110
f 89/89/89 143/143/143 175/175/175
f 89/89/89 175/175/175 154/154/154
f 100/100/100 107/107/107 101/101/101
f 154/154/154 175/175/175 158/158/158
f 83/83/83 100/100/100 105/105/105
f 175/175/175 143/143/143 158/158/158
f 148/148/148 142/142/142 176/176/176
f 148/148/148 176/176/176 143/143/143
f 143/143/143 176/176/176 141/141/141
f 92/92/92 94/94/94 90/90/90
f 176/176/176 142/142/142 141/141/141
f 92/92/92 137/137/137 93/93/93
f 96/96/96 177/177/177 80/80/80
f 177/177/177 145/145/145 80/80/80
f 80/80/80 145/145/145 81/81/81
f 177/177/177 146/146/146 145/145/145
f 96/96/96 80/80/80 83/83/83
f 96/96/96 146/146/146 177/177/177
f 145/145/145 178/178/178 151/151/151
f 178/178/178 136/136/136 151/151/151
f 178/178/178 134/134/134 136/136/136
f 145/145/145 134/134/134 178/178/178
f 90/90/90 94/94/94 157/157/157
f 179/179/179 92/92/92 90/90/90
f 157/157/157 159/159/159 149/149/149
f 145/145/145 151/151/151 81/81/81
f 137/137/137 92/92/92 179/179/179
f 151/151/151 136/136/136 152/152/152
f 137/137/137 179/179/179 87/87/87
f 179/179/179 90/90/90 87/87/87
f 88/88/88 148/148/148 143/143/143
f 160/160/160 157/157/157 149/149/149
