# Exported using wow.export v0.2.19
o darnassis_condoInt04.obj
v 37.35467529296875 -10.21118450164795 295.6020812988281
v 39.548667907714844 -10.21176815032959 297.1694641113281
v 39.45302200317383 -10.211809158325195 296.01080322265625
v 39.35116195678711 -10.213359832763672 294.4835205078125
v 36.7005615234375 -10.220014572143555 286.766845703125
v 34.465049743652344 -10.218301773071289 284.58575439453125
v 34.59530258178711 -10.218189239501953 286.1534423828125
v 32.49004364013672 -10.216362953186035 285.5400695800781
v 34.72555160522461 -10.218074798583984 287.72119140625
v 36.309810638427734 -10.220355987548828 282.06365966796875
v 34.334800720214844 -10.218416213989258 283.01800537109375
v 36.4400634765625 -10.22024154663086 283.63140869140625
v 32.22954177856445 -10.21658992767334 282.4046325683594
v 32.07179260253906 -9.577857971191406 285.41827392578125
v 32.24247741699219 -9.577857971191406 282.0974426269531
v 32.49263000488281 -9.577857971191406 285.3832092285156
v 32.7427864074707 -9.57785701751709 288.6689758300781
v 32.7427864074707 -9.57785701751709 288.6689758300781
v 32.49263000488281 -9.577857971191406 285.3832092285156
v 32.24247741699219 -9.254924774169922 282.0974426269531
v 32.24247741699219 -9.577857971191406 282.0974426269531
v 32.7427864074707 -9.254923820495605 288.6689758300781
v 32.49263000488281 -9.254924774169922 285.3832092285156
v 32.07179260253906 -9.254924774169922 285.41827392578125
v 32.24247741699219 -9.254924774169922 282.0974426269531
v 32.49263000488281 -9.254924774169922 285.3832092285156
v 32.7427864074707 -9.254923820495605 288.6689758300781
v 32.75054168701172 -10.21613597869873 288.6755065917969
v 32.04903030395508 -10.191974639892578 285.560546875
v 31.40079689025879 -9.254924774169922 282.1675720214844
v 31.65011215209961 -9.254924774169922 285.441162109375
v 31.89942741394043 -9.254923820495605 288.7147521972656
v 31.89942741394043 -9.254923820495605 288.7147521972656
v 31.65011215209961 -9.254924774169922 285.441162109375
v 31.40079689025879 -9.577857971191406 282.1675720214844
v 31.40079689025879 -9.254924774169922 282.1675720214844
v 31.899431228637695 -9.57785701751709 288.7147521972656
v 31.650114059448242 -9.577857971191406 285.441162109375
v 31.40079689025879 -9.577857971191406 282.1675720214844
v 31.650114059448242 -9.577857971191406 285.441162109375
v 31.899431228637695 -9.57785701751709 288.7147521972656
v 32.954261779785156 -10.213035583496094 291.73004150390625
v 32.513248443603516 -10.18864631652832 291.7505187988281
v 33.157981872558594 -10.20993423461914 294.78460693359375
v 31.45925521850586 -10.1445894241333 288.7594299316406
v 31.87608528137207 -10.153640747070312 291.77581787109375
v 32.308616638183594 -10.177261352539062 291.77203369140625
v 32.29291534423828 -10.16269302368164 294.7922058105469
v 31.711336135864258 -10.143567085266113 292.0144958496094
v 31.40226936340332 -10.17039966583252 282.4737548828125
v 31.635393142700195 -10.168878555297852 285.5950927734375
v 31.86851692199707 -10.1673583984375 288.7164306640625
v 31.430763244628906 -10.15749454498291 285.6165771484375
v 32.308414459228516 -9.254923820495605 294.8121337890625
v 32.49219512939453 -9.254924774169922 297.20867919921875
v 32.91303253173828 -9.254924774169922 297.1736145019531
v 34.41869354248047 -3.914045810699463 292.7587890625
v 34.258785247802734 -3.9146082401275635 290.6938171386719
v 36.456695556640625 -3.924704074859619 290.5103759765625
v 32.060874938964844 -3.904512405395508 290.87725830078125
v 32.67597198486328 -9.254924774169922 299.605224609375
v 33.51765060424805 -9.254924774169922 299.53509521484375
v 33.15176773071289 -9.254923820495605 294.7663879394531
v 33.51765060424805 -9.577857971191406 299.53509521484375
v 32.67597198486328 -9.577857971191406 299.605224609375
v 32.91303253173828 -9.577857971191406 297.17364501953125
v 32.308414459228516 -9.57785701751709 294.8121643066406
v 33.15176773071289 -9.57785701751709 294.76641845703125
v 32.9167366027832 -10.186229705810547 297.1056823730469
v 32.71672439575195 -10.16450023651123 299.4877014160156
v 33.540557861328125 -10.20976734161377 299.4191589355469
v 30.975236892700195 -10.14655590057373 282.5094299316406
v 31.963417053222656 -10.142544746398926 295.2695617675781
v 32.34007263183594 -10.153522491455078 297.3786315917969
v 32.292808532714844 -10.14120864868164 299.5229187011719
v 38.81451416015625 -3.934237480163574 292.39190673828125
v 38.98252868652344 -3.9321160316467285 294.45703125
v 36.77651596069336 -3.923579216003418 294.64031982421875
v 41.18853759765625 -3.940652847290039 294.27374267578125
v 39.150543212890625 -3.929994583129883 296.52215576171875
v 39.31855392456055 -3.927873373031616 298.5872802734375
v 37.11254119873047 -3.9193365573883057 298.77056884765625
v 41.524566650390625 -3.9364101886749268 298.40399169921875
v 34.73851776123047 -3.9129209518432617 296.88873291015625
v 34.906532287597656 -3.910799741744995 298.953857421875
v 32.70051956176758 -3.9022629261016846 299.1371154785156
v 33.6990966796875 -3.916576862335205 283.4664306640625
v 33.619140625 -3.916857957839966 282.4339294433594
v 35.817047119140625 -3.9269537925720215 282.25048828125
v 31.42123031616211 -3.90676212310791 282.61737060546875
v 38.094913482666016 -3.9367685317993164 283.09954833984375
v 38.014957427978516 -3.937049627304077 282.06707763671875
v 40.212867736816406 -3.947145462036133 281.8836364746094
v 33.34926986694336 -10.209850311279297 297.10186767578125
v 35.54325866699219 -10.210433959960938 298.66925048828125
v 35.44761657714844 -10.21047592163086 297.5106201171875
v 37.545963287353516 -10.211101531982422 297.91937255859375
v 35.35197448730469 -10.210517883300781 296.35198974609375
v 37.64160919189453 -10.2110595703125 299.0780029296875
v 39.644309997558594 -10.211726188659668 298.3280944824219
v 41.74265670776367 -10.212350845336914 298.73681640625
v 35.25632858276367 -10.210559844970703 295.193359375
v 37.25281524658203 -10.212735176086426 294.0747985839844
v 38.67557144165039 -10.221954345703125 285.8125
v 38.84983825683594 -10.219864845275879 287.939208984375
v 40.85251235961914 -3.9448957443237305 290.14349365234375
v 38.414737701416016 -3.9356436729431152 287.2294921875
v 40.532691955566406 -3.9460206031799316 286.0135803222656
v 36.296783447265625 -3.9252665042877197 288.4454345703125
v 35.976959228515625 -3.926391363143921 284.31549072265625
v 34.899818420410156 -10.215986251831055 289.847900390625
v 37.049095153808594 -10.215835571289062 291.020263671875
v 39.19837188720703 -10.215685844421387 292.192626953125
v 41.34764862060547 -10.215536117553711 293.364990234375
v 33.8590087890625 -3.9160141944885254 285.5314025878906
v 31.741052627563477 -3.905637264251709 286.747314453125
v 34.178829193115234 -3.914889335632324 289.6613464355469
v 32.380699157714844 -3.9033875465393066 295.0072021484375
v 35.103538513183594 -10.212884902954102 292.9024353027344
v 32.67597198486328 -9.254924774169922 299.605224609375
v 32.49219512939453 -9.254924774169922 297.20867919921875
v 32.308414459228516 -9.57785701751709 294.8121643066406
v 32.308414459228516 -9.254923820495605 294.8121337890625
v 32.49219512939453 -9.577857971191406 297.20867919921875
v 32.49219512939453 -9.577857971191406 297.20867919921875
v 32.67597198486328 -9.577857971191406 299.605224609375
v 33.33470916748047 -9.254924774169922 297.1507568359375
v 33.15176773071289 -9.254923820495605 294.7663879394531
v 33.33470916748047 -9.254924774169922 297.1507568359375
v 33.51765060424805 -9.577857971191406 299.53509521484375
v 33.51765060424805 -9.254924774169922 299.53509521484375
v 33.33470916748047 -9.577857971191406 297.1507568359375
v 33.33470916748047 -9.577857971191406 297.1507568359375
v 33.15176773071289 -9.57785701751709 294.76641845703125
v 33.540557861328125 -10.20976734161377 299.4191589355469
v 32.50482177734375 -10.163597106933594 297.13995361328125
v 39.024105072021484 -10.217775344848633 290.06591796875
v 36.87482833862305 -10.217925071716309 288.8935546875
v 38.254825592041016 -3.9362058639526367 285.16455078125
v 38.57464599609375 -3.9350810050964355 289.2944641113281
v 40.390079498291016 -10.22412109375 281.72271728515625
v 38.415069580078125 -10.22218132019043 282.67706298828125
v 38.65460205078125 -3.934799909591675 290.3269348144531
v 34.57860565185547 -3.9134833812713623 294.8237609863281
v 34.018917083740234 -3.915452003479004 287.59637451171875
v 38.54532241821289 -10.222067832946777 284.2447814941406
v 32.8762092590332 -9.559688568115234 296.1307373046875
v 32.54472732543945 -10.223370552062988 296.3998107910156
v 32.6170539855957 -9.559688568115234 296.5457763671875
v 32.86649703979492 -10.223370552062988 295.8854064941406
v 33.17733383178711 -9.559688568115234 296.513916015625
v 32.86649703979492 -10.223370552062988 295.8854064941406
v 32.8762092590332 -9.559688568115234 296.1307373046875
v 32.54472732543945 -10.223370552062988 296.3998107910156
v 33.252445220947266 -10.223370552062988 296.36602783203125
v 32.6170539855957 -9.559688568115234 296.5457763671875
v 33.252445220947266 -10.223370552062988 296.36602783203125
v 33.17733383178711 -9.559688568115234 296.513916015625
v 33.35664749145508 -10.223370552062988 298.6010437011719
v 32.7023811340332 -9.559688568115234 298.51177978515625
v 33.26163864135742 -9.559688568115234 298.4650573730469
v 32.65114974975586 -10.223370552062988 298.6663818359375
v 32.65114974975586 -10.223370552062988 298.6663818359375
v 33.01694869995117 -9.559688568115234 298.8865661621094
v 32.7023811340332 -9.559688568115234 298.51177978515625
v 33.04158401489258 -10.223370552062988 299.130859375
v 31.87954330444336 -10.223370552062988 283.2453308105469
v 31.56448745727539 -10.223370552062988 283.775146484375
v 31.65949821472168 -9.559688568115234 283.9111328125
v 31.904184341430664 -9.559688568115234 283.4896545410156
v 33.04158401489258 -10.223370552062988 299.130859375
v 33.26163864135742 -9.559688568115234 298.4650573730469
v 33.01694869995117 -9.559688568115234 298.8865661621094
v 33.35664749145508 -10.223370552062988 298.6010437011719
v 32.26997756958008 -10.223370552062988 283.7098388671875
v 31.87954330444336 -10.223370552062988 283.2453308105469
v 31.904184341430664 -9.559688568115234 283.4896545410156
v 32.21875 -9.559688568115234 283.8644104003906
v 31.56448745727539 -10.223370552062988 283.775146484375
v 32.26997756958008 -10.223370552062988 283.7098388671875
v 32.21875 -9.559688568115234 283.8644104003906
v 31.65949821472168 -9.559688568115234 283.9111328125
v 31.79875373840332 -10.223370552062988 287.1151123046875
v 32.18470764160156 -10.223370552062988 287.5957336425781
v 31.873865127563477 -9.559688568115234 286.9671936035156
v 32.17498779296875 -9.559688568115234 287.35040283203125
v 32.18470764160156 -10.223370552062988 287.5957336425781
v 32.506473541259766 -10.223370552062988 287.081298828125
v 32.17498779296875 -9.559688568115234 287.35040283203125
v 32.43415069580078 -9.559688568115234 286.93536376953125
v 32.506473541259766 -10.223370552062988 287.081298828125
v 31.79875373840332 -10.223370552062988 287.1151123046875
v 32.43415069580078 -9.559688568115234 286.93536376953125
v 31.873865127563477 -9.559688568115234 286.9671936035156
v 32.308414459228516 -9.254923820495605 294.8121337890625
v 33.15176773071289 -9.254923820495605 294.7663879394531
v 33.15176773071289 -9.57785701751709 294.76641845703125
v 32.308414459228516 -9.57785701751709 294.8121643066406
v 31.899431228637695 -9.57785701751709 288.7147521972656
v 32.7427864074707 -9.57785701751709 288.6689758300781
v 32.7427864074707 -9.254923820495605 288.6689758300781
v 31.89942741394043 -9.254923820495605 288.7147521972656
v 37.30897521972656 -5.254192352294922 298.82867431640625
v 37.11254119873047 -3.9193365573883057 298.77056884765625
v 39.416770935058594 -4.595301151275635 298.6163330078125
v 31.81740951538086 -6.5283660888671875 282.52398681640625
v 32.21358871459961 -9.149970054626465 282.4306335449219
v 33.958580017089844 -7.318977355957031 282.326904296875
v 39.61320495605469 -5.93015718460083 298.6744384765625
v 39.84357452392578 -7.870063781738281 298.7635498046875
v 39.74261474609375 -9.431158065795898 298.85943603515625
v 37.74256896972656 -8.649965286254883 298.9820861816406
v 35.703575134277344 -5.487984657287598 282.22320556640625
v 35.817047119140625 -3.9269537925720215 282.25048828125
v 33.562400817871094 -4.697373390197754 282.4202880859375
v 41.74265670776367 -10.212350845336914 298.73681640625
v 37.64160919189453 -10.2110595703125 299.0780029296875
v 31.42123031616211 -3.90676212310791 282.61737060546875
v 32.22954177856445 -10.21658992767334 282.4046325683594
v 36.29784393310547 -9.420391082763672 282.08319091796875
v 40.382102966308594 -9.690811157226562 281.7357177734375
v 36.305824279785156 -9.95370101928711 282.0701904296875
v 40.390079498291016 -10.22412109375 281.72271728515625
v 39.985923767089844 -7.069207191467285 281.8290710449219
v 36.099754333496094 -8.109588623046875 282.1298522949219
v 38.141883850097656 -8.24479866027832 281.95611572265625
v 31.414079666137695 -9.23070240020752 282.4945373535156
v 40.212867736816406 -3.947145462036133 281.8836364746094
v 37.958221435546875 -4.717565059661865 282.05340576171875
v 30.975236892700195 -10.14655590057373 282.5094299316406
v 31.40226936340332 -10.17039966583252 282.4737548828125
v 33.48625564575195 -9.24168586730957 299.36956787109375
v 33.540557861328125 -10.20976734161377 299.4191589355469
v 32.71672439575195 -10.16450023651123 299.4877014160156
v 32.64095687866211 -9.209614753723145 299.4405822753906
v 32.292808532714844 -10.14120864868164 299.5229187011719
v 32.670738220214844 -6.555938720703125 299.2888488769531
v 33.093387603759766 -6.571974754333496 299.25335693359375
v 32.70051956176758 -3.9022629261016846 299.1371154785156
v 32.496665954589844 -7.021735668182373 299.33001708984375
v 31.41765594482422 -6.568732261657715 282.55596923828125
v 36.309810638427734 -10.220355987548828 282.06365966796875
v 37.844749450683594 -6.278595924377441 282.026123046875
v 37.70184326171875 -7.923903942108154 298.94488525390625
v 35.397613525390625 -7.247939109802246 299.09912109375
v 37.505409240722656 -6.589048385620117 298.88677978515625
v 35.641563415527344 -9.429866790771484 299.20062255859375
v 41.944583892822266 -7.09016227722168 298.5450134277344
v 37.71541976928711 -8.165924072265625 298.957275390625
v 35.00474548339844 -4.578227519989014 298.98291015625
v 39.80963897705078 -7.265012741088867 298.7325439453125
v 33.619140625 -3.916857957839966 282.4339294433594
v 38.014957427978516 -3.937049627304077 282.06707763671875
v 39.711421966552734 -6.597585201263428 298.7034912109375
v 34.906532287597656 -3.910799741744995 298.953857421875
v 35.299400329589844 -6.580511569976807 299.070068359375
v 36.353294372558594 -6.251066207885742 298.9638977050781
v 36.6649169921875 -8.555874824523926 299.0665588378906
v 35.614410400390625 -8.945825576782227 299.17584228515625
v 39.31855392456055 -3.927873373031616 298.5872802734375
v 41.524566650390625 -3.9364101886749268 298.40399169921875
v 35.59404754638672 -8.582795143127441 299.1572265625
v 35.20117950439453 -5.913083553314209 299.041015625
v 45.4719352722168 -10.217325210571289 293.5830078125
v 43.496925354003906 -10.215385437011719 294.537353515625
v 45.646202087402344 -10.215235710144043 295.709716796875
v 43.14839172363281 -10.219565391540527 290.283935546875
v 43.32265853881836 -10.217475891113281 292.41064453125
v 45.29766845703125 -10.219414710998535 291.456298828125
v 41.551368713378906 -10.212434768676758 296.4195556640625
v 41.34764862060547 -10.215536117553711 293.364990234375
v 41.18853759765625 -3.940652847290039 294.27374267578125
v 43.562564849853516 -3.947068214416504 296.15557861328125
v 41.524566650390625 -3.9364101886749268 298.40399169921875
v 44.76860046386719 -3.9667744636535645 283.58172607421875
v 42.4907341003418 -3.9569599628448486 282.732666015625
v 44.60868835449219 -3.967337131500244 281.51678466796875
v 42.6506462097168 -3.956397533416748 284.79766845703125
v 40.212867736816406 -3.947145462036133 281.8836364746094
v 42.89051055908203 -3.9555540084838867 287.89508056640625
v 40.532691955566406 -3.9460206031799316 286.0135803222656
v 42.73059844970703 -3.9561164379119873 285.83013916015625
v 44.92850875854492 -3.966212272644043 285.6466979980469
v 43.39455032348633 -3.9491896629333496 294.0904541015625
v 45.600563049316406 -3.95772647857666 293.90716552734375
v 40.999114990234375 -10.219715118408203 289.111572265625
v 39.024105072021484 -10.217775344848633 290.06591796875
v 39.19837188720703 -10.215685844421387 292.192626953125
v 38.84983825683594 -10.219864845275879 287.939208984375
v 43.226539611816406 -3.9513111114501953 292.02532958984375
v 42.79985809326172 -10.22374439239502 286.030517578125
v 40.82484817504883 -10.22180461883545 286.98486328125
v 46.88655090332031 -3.977151393890381 282.3658142089844
v 46.96650695800781 -3.976870536804199 283.3983154296875
v 49.0045051574707 -3.9875285625457764 281.14990234375
v 40.65058135986328 -10.223894119262695 284.858154296875
v 45.74806213378906 -10.213685035705566 297.23699951171875
v 47.79547882080078 -10.215085983276367 296.882080078125
v 47.30253601074219 -3.972627639770508 287.528564453125
v 47.47054672241211 -3.970506191253662 289.59368896484375
v 45.26453399658203 -3.9619693756103516 289.7769470214844
v 49.67655944824219 -3.9790430068969727 289.410400390625
v 40.85251235961914 -3.9448957443237305 290.14349365234375
v 50.0125846862793 -3.9748001098632812 293.5406494140625
v 47.6385612487793 -3.9683847427368164 291.6587829589844
v 49.34053039550781 -3.983285903930664 285.2801513671875
v 47.974586486816406 -3.964141845703125 295.78900146484375
v 47.80657196044922 -3.9662632942199707 293.7239074707031
v 42.62559127807617 -10.225833892822266 283.90380859375
v 40.390079498291016 -10.22412109375 281.72271728515625
v 44.60060119628906 -10.227773666381836 282.949462890625
v 38.415069580078125 -10.22218132019043 282.67706298828125
v 38.54532241821289 -10.222067832946777 284.2447814941406
v 38.67557144165039 -10.221954345703125 285.8125
v 47.84640884399414 -10.214309692382812 297.645751953125
v 45.84370422363281 -10.213643074035645 298.3956298828125
v 49.94475555419922 -10.214935302734375 298.0544738769531
v 43.73057556152344 -3.9449470043182373 298.220703125
v 45.936588287353516 -3.953483819961548 298.03741455078125
v 41.74265670776367 -10.212350845336914 298.73681640625
v 43.745361328125 -10.213018417358398 297.9869079589844
v 43.05852508544922 -3.953432559967041 289.960205078125
v 44.4703483581543 -10.227886199951172 281.3817443847656
v 42.495338439941406 -10.225947380065918 282.3360900878906
v 47.44694519042969 -10.21926498413086 292.628662109375
v 47.621212005615234 -10.217174530029297 294.75537109375
v 49.596221923828125 -10.219114303588867 293.801025390625
v 46.7498779296875 -10.227622985839844 284.121826171875
v 44.949134826660156 -10.223594665527344 287.202880859375
v 46.92414474487305 -10.225533485412598 286.24853515625
v 48.89915466308594 -10.227472305297852 285.294189453125
v 48.55061721801758 -10.23165225982666 281.040771484375
v 46.57560729980469 -10.229713439941406 281.9951171875
v 47.098411560058594 -10.223443984985352 288.375244140625
v 43.649715423583984 -10.21306037902832 296.8282775878906
v 48.724884033203125 -10.229562759399414 283.16748046875
v 39.548667907714844 -10.21176815032959 297.1694641113281
v 39.644309997558594 -10.211726188659668 298.3280944824219
v 49.24768829345703 -10.22329330444336 289.547607421875
v 47.27267837524414 -10.221353530883789 290.501953125
v 39.45302200317383 -10.211809158325195 296.01080322265625
v 39.35116195678711 -10.213359832763672 294.4835205078125
v 49.073421478271484 -10.225382804870605 287.4208984375
v 45.1234016418457 -10.221504211425781 289.32958984375
v 42.974124908447266 -10.221654891967773 288.1572265625
v 41.17338180541992 -10.217625617980957 291.23828125
v 46.80659484863281 -3.9774327278137207 281.3333435058594
v 44.77486801147461 -10.22568416595459 285.076171875
v 42.4107780456543 -3.9572412967681885 281.7001953125
v 47.134521484375 -3.9747490882873535 285.46343994140625
v 50.348609924316406 -3.970557451248169 297.6708679199219
v 49.77048873901367 -10.217024803161621 295.927734375
v 49.42195510864258 -10.221203804016113 291.67431640625
v 46.14659881591797 -5.530359745025635 298.1079406738281
v 41.91743469238281 -6.606122016906738 298.52020263671875
v 44.025230407714844 -5.947230815887451 298.307861328125
v 50.14668273925781 -7.092746734619141 297.8626708984375
v 48.045677185058594 -7.872647285461426 298.0812072753906
v 48.14664077758789 -6.311553001403809 297.98529052734375
v 46.522918701171875 -7.88001012802124 281.26513671875
v 44.495216369628906 -5.52836799621582 281.489501953125
v 44.268272399902344 -8.650429725646973 281.4349365234375
v 48.55061721801758 -10.23165225982666 281.040771484375
v 48.77756118774414 -7.109590530395508 281.0953369140625
v 49.243629455566406 -7.88383674621582 287.4618225097656
v 49.24768829345703 -10.22329330444336 289.547607421875
v 49.474632263183594 -7.101232051849365 289.6021728515625
v 43.82879638671875 -4.612374782562256 298.249755859375
v 46.13302230834961 -5.288339614868164 298.09552001953125
v 42.240570068359375 -6.298787593841553 281.6593017578125
v 42.354042053222656 -4.737756729125977 281.68658447265625
v 42.4107780456543 -3.9572412967681885 281.7001953125
v 40.212867736816406 -3.947145462036133 281.8836364746094
v 49.01262664794922 -8.666441917419434 285.32147216796875
v 49.23957061767578 -5.544380187988281 285.37603759765625
v 49.47869110107422 -9.440689086914062 291.6879577636719
v 42.127098083496094 -7.859818458557129 281.63201904296875
v 49.596221923828125 -10.219114303588867 293.801025390625
v 49.709693908691406 -8.65808391571045 293.82830810546875
v 48.240814208984375 -4.629448413848877 297.8831787109375
v 45.936588287353516 -3.953483819961548 298.03741455078125
v 50.348609924316406 -3.970557451248169 297.6708679199219
v 48.24760437011719 -4.750458717346191 297.889404296875
v 47.9447135925293 -9.43374252319336 298.1771240234375
v 46.89421081542969 -9.823692321777344 298.286376953125
v 43.843666076660156 -9.432449340820312 298.5182800292969
v 39.985923767089844 -7.069207191467285 281.8290710449219
v 41.944583892822266 -7.09016227722168 298.5450134277344
v 41.74265670776367 -10.212350845336914 298.73681640625
v 39.84357452392578 -7.870063781738281 298.7635498046875
v 40.382102966308594 -9.690811157226562 281.7357177734375
v 49.94475555419922 -10.214935302734375 298.0544738769531
v 40.390079498291016 -10.22412109375 281.72271728515625
v 44.46636199951172 -9.961231231689453 281.38824462890625
v 44.60868835449219 -3.967337131500244 281.51678466796875
v 45.84370422363281 -10.213643074035645 298.3956298828125
v 38.141883850097656 -8.24479866027832 281.95611572265625
v 45.944671630859375 -8.652548789978027 298.29974365234375
v 44.04559326171875 -6.310260772705078 298.32647705078125
v 39.80963897705078 -7.265012741088867 298.7325439453125
v 39.61320495605469 -5.93015718460083 298.6744384765625
v 41.524566650390625 -3.9364101886749268 298.40399169921875
v 46.74986267089844 -4.757948398590088 281.3197021484375
v 46.80659484863281 -3.9774327278137207 281.3333435058594
v 49.0045051574707 -3.9875285625457764 281.14990234375
v 46.409446716308594 -9.441040992736816 281.23785400390625
v 46.636390686035156 -6.318979263305664 281.29241943359375
v 49.130157470703125 -9.444868087768555 287.4345397949219
v 48.89915466308594 -10.227472305297852 285.294189453125
v 49.35710144042969 -6.322806358337402 287.4891052246094
v 49.91162109375 -5.535894870758057 293.63653564453125
v 49.6931266784668 -6.318563461303711 291.6193542480469
v 49.5921630859375 -7.879657745361328 291.7152404785156
v 50.029151916503906 -6.3143205642700195 295.74957275390625
v 49.92818832397461 -7.875414848327637 295.8454895019531
v 50.14668273925781 -7.092746257781982 297.8626708984375
v 49.82722473144531 -9.43651008605957 295.94140625
v 48.78162384033203 -9.449047088623047 283.1811218261719
v 48.89509582519531 -7.888016223907471 283.2084045410156
v 48.77756118774414 -7.109590530395508 281.0953369140625
v 49.008567810058594 -6.3269853591918945 283.2356872558594
v 49.4075813293457 -5.542259216308594 287.441162109375
v 49.34053039550781 -3.983285903930664 285.2801513671875
v 49.0045051574707 -3.9875285625457764 281.14990234375
v 49.122039794921875 -4.765954494476318 283.2629699707031
v 48.724884033203125 -10.229562759399414 283.16748046875
v 48.55061721801758 -10.23165225982666 281.040771484375
v 49.073421478271484 -10.225382804870605 287.4208984375
v 43.94462585449219 -7.8713555335998535 298.42236328125
v 39.74261474609375 -9.431158065795898 298.85943603515625
v 39.416770935058594 -4.595301151275635 298.6163330078125
v 49.77048873901367 -10.217024803161621 295.927734375
v 49.94475555419922 -10.214935302734375 298.0544738769531
v 49.42195510864258 -10.221203804016113 291.67431640625
v 39.711421966552734 -6.597585201263428 298.7034912109375
v 43.73057556152344 -3.9449470043182373 298.220703125
v 50.348609924316406 -3.970557451248169 297.6708679199219
v 49.67655944824219 -3.9790430068969727 289.410400390625
v 49.794090270996094 -4.757469177246094 291.5234680175781
v 50.0125846862793 -3.9748001098632812 293.5406494140625
v 44.4703483581543 -10.227886199951172 281.3817443847656
v 50.1301155090332 -4.753226280212402 295.6536865234375
vn 0.0003099089371971786 0.9999999403953552 -0.00006143382051959634
vn 0.0003099089371971786 0.9999999403953552 -0.00006143382051959634
vn 0.0003099089371971786 0.9999999403953552 -0.00006143382051959634
vn 0.013989449478685856 0.9999014735221863 -0.0012071357341483235
vn 0.041488055139780045 0.9991329312324524 -0.003519301302731037
vn 0.04842616990208626 0.9988185167312622 -0.0040703825652599335
vn 0.04833614081144333 0.9988229274749756 -0.0040755667723715305
vn 0.055181946605443954 0.9984656572341919 -0.004631639923900366
vn 0.0482461079955101 0.9988272190093994 -0.004080750979483128
vn 0.041758228093385696 0.9991215467453003 -0.0035037482157349586
vn 0.048516206443309784 0.9988142251968384 -0.004065197426825762
vn 0.04166817292571068 0.9991253614425659 -0.003508935682475567
vn 0.05536193773150444 0.9984556436538696 -0.004621266853064299
vn 6.9969008364978436e-9 -1 1.2894443557343038e-7
vn 1.0679401363233865e-8 -1 1.2818431116556894e-7
vn 8.838151543955064e-9 -1 1.2856438047492702e-7
vn 6.9969008364978436e-9 -1 1.2894443557343038e-7
vn 0.9971144199371338 0 -0.07591301202774048
vn 0.9971145391464233 0 -0.07591301947832108
vn 0.9971144199371338 0 -0.07591301202774048
vn 0.9971144199371338 0 -0.07591301202774048
vn -1.0679402251412284e-8 1 -1.2818432537642366e-7
vn -1.0679402251412284e-8 1 -1.2818432537642366e-7
vn -1.0679402251412284e-8 1 -1.2818432537642366e-7
vn -1.0679402251412284e-8 1 -1.2818432537642366e-7
vn 0.9971145391464233 0 -0.07591301947832108
vn 0.9971144199371338 0 -0.07591301202774048
vn 0.055001940578222275 0.9984754323959351 -0.004642012529075146
vn 0.05536193773150444 0.9984556436538696 -0.004621266853064299
vn -1.0679402251412284e-8 1 -1.2818432537642366e-7
vn -8.838151543955064e-9 1 -1.2856438047492702e-7
vn -6.996900392408634e-9 1 -1.2894443557343038e-7
vn -0.9971123933792114 0 0.07594019174575806
vn -0.9971123933792114 0 0.07594019174575806
vn -0.9971123933792114 0 0.07594019174575806
vn -0.9971123933792114 0 0.07594019174575806
vn 6.9969008364978436e-9 -1 1.2894443557343038e-7
vn 6.9969008364978436e-9 -1 1.2894443557343038e-7
vn 6.9969008364978436e-9 -1 1.2894443557343038e-7
vn -0.9971123933792114 0 0.07594019174575806
vn -0.9971123933792114 0 0.07594019174575806
vn 0.027666352689266205 0.999614417552948 -0.002352609997615218
vn 0.027846556156873703 0.9996094107627869 -0.0023422446101903915
vn 0.0003099089371971786 0.9999999403953552 -0.00006143382051959634
vn 0.05448834225535393 0.998504102230072 -0.004533875267952681
vn 0.05448834225535393 0.998504102230072 -0.004533875267952681
vn 0.027409261092543602 0.9996216297149658 -0.0022985043469816446
vn 0.05448834225535393 0.998504102230072 -0.004533875267952681
vn 0.05448834225535393 0.998504102230072 -0.004533875267952681
vn 0.05536193773150444 0.9984556436538696 -0.004621266853064299
vn 0.05536193773150444 0.9984556436538696 -0.004621266853064299
vn 0.05536193773150444 0.9984556436538696 -0.004621266853064299
vn 0.05492514744400978 0.998479962348938 -0.004577571526169777
vn 1.4641289070027597e-8 1 1.7573866273323802e-7
vn 1.4641289070027597e-8 1 1.7573866273323802e-7
vn 1.4641289070027597e-8 1 1.7573866273323802e-7
vn -0.004541238769888878 -0.9999895095825195 0.0006240507937036455
vn -0.004541238769888878 -0.9999895095825195 0.0006240507937036455
vn -0.004541238769888878 -0.9999895095825195 0.0006240507937036455
vn -0.004541238769888878 -0.9999895095825195 0.0006240507937036455
vn 1.4641289070027597e-8 1 1.7573866273323802e-7
vn 1.4641289070027597e-8 1 1.7573866273323802e-7
vn 9.600430672662696e-9 1 1.7702930676932738e-7
vn -9.600430672662696e-9 -1 -1.7702930676932738e-7
vn -1.4641289070027597e-8 -1 -1.7573866273323802e-7
vn -9.600430672662696e-9 -1 -1.7702930676932738e-7
vn -9.600430672662696e-9 -1 -1.7702930676932738e-7
vn -9.600430672662696e-9 -1 -1.7702930676932738e-7
vn 0.05448850989341736 0.998504102230072 -0.004533842206001282
vn 0.05448850989341736 0.998504102230072 -0.00453376118093729
vn 0.0003099089371971786 0.9999999403953552 -0.00006143382051959634
vn 0.0553663894534111 0.9984555244445801 -0.0046013337559998035
vn 0.05448834225535393 0.998504102230072 -0.004533875267952681
vn 0.05448842793703079 0.998504102230072 -0.004533817991614342
vn 0.05448480322957039 0.9985042810440063 -0.004533098079264164
vn -0.004541238769888878 -0.9999895095825195 0.0006240507937036455
vn -0.0044434634037315845 -0.9999898672103882 0.0007126779528334737
vn -0.004541238769888878 -0.9999895095825195 0.0006240507937036455
vn -0.004345688037574291 -0.9999902248382568 0.000801305053755641
vn -0.004345688037574291 -0.9999902248382568 0.000801305053755641
vn -0.004247912671416998 -0.9999905824661255 0.0008899322128854692
vn -0.004345688037574291 -0.9999902248382568 0.000801305053755641
vn -0.004150137305259705 -0.9999909400939941 0.0009785593720152974
vn -0.004541238769888878 -0.9999895095825195 0.0006240507937036455
vn -0.0044434634037315845 -0.9999898672103882 0.0007126779528334737
vn -0.004541238769888878 -0.9999895095825195 0.0006240507937036455
vn -0.004541238769888878 -0.9999895095825195 0.0006240507937036455
vn -0.004541238769888878 -0.9999895095825195 0.0006240507937036455
vn -0.004541238769888878 -0.9999895095825195 0.0006240507937036455
vn -0.004541238769888878 -0.9999895095825195 0.0006240507937036455
vn -0.004541238769888878 -0.9999895095825195 0.0006240507937036455
vn -0.004541238769888878 -0.9999895095825195 0.0006240507937036455
vn -0.004541238769888878 -0.9999895095825195 0.0006240507937036455
vn 0.027409426867961884 0.9996216297149658 -0.0022984712850302458
vn 0.0003099089371971786 0.9999999403953552 -0.00006143382051959634
vn 0.013860950246453285 0.9999033212661743 -0.0011800617212429643
vn 0.0003099089371971786 0.9999999403953552 -0.00006143382051959634
vn 0.0003099089371971786 0.9999999403953552 -0.00006143382051959634
vn 0.0003099089371971786 0.9999999403953552 -0.00006143382051959634
vn 0.0003099089371971786 0.9999999403953552 -0.00006143382051959634
vn 0.0003099089371971786 0.9999999403953552 -0.00006143382051959634
vn 0.0003099089371971786 0.9999999403953552 -0.00006143382051959634
vn 0.013989449478685856 0.9999014735221863 -0.0012071357341483235
vn 0.03472808748483658 0.9993924498558044 -0.0029576888773590326
vn 0.03465306758880615 0.9993951320648193 -0.0029468575958162546
vn -0.004541238769888878 -0.9999895095825195 0.0006240507937036455
vn -0.004541238769888878 -0.9999895095825195 0.0006240507937036455
vn -0.004541238769888878 -0.9999895095825195 0.0006240507937036455
vn -0.004541238769888878 -0.9999895095825195 0.0006240507937036455
vn -0.004541238769888878 -0.9999895095825195 0.0006240507937036455
vn 0.04817112907767296 0.9988308548927307 -0.004069922491908073
vn 0.04133804142475128 0.9991390705108643 -0.0034976410679519176
vn 0.034503012895584106 0.9994003772735596 -0.0029251945670694113
vn 0.027666352689266205 0.999614417552948 -0.002352609997615218
vn -0.004541238769888878 -0.9999895095825195 0.0006240507937036455
vn -0.004541238769888878 -0.9999895095825195 0.0006240507937036455
vn -0.004541238769888878 -0.9999895095825195 0.0006240507937036455
vn -0.004541238769888878 -0.9999895095825195 0.0006240507937036455
vn 0.02082839235663414 0.9997814893722534 -0.0017799148336052895
vn -0.9970726370811462 0 0.07646050304174423
vn -0.9970726370811462 0 0.07646050304174423
vn -0.9970726370811462 0 0.07646050304174423
vn -0.9970726370811462 0 0.07646050304174423
vn -1.2120859871345147e-8 -1 -1.7638399185671005e-7
vn -0.9970726370811462 0 0.07646050304174423
vn -0.9970726370811462 0 0.07646050304174423
vn 1.2120859871345147e-8 1 1.7638399185671005e-7
vn 0.9970694780349731 0 -0.07650104910135269
vn 0.9970695972442627 0 -0.07650105655193329
vn 0.9970694780349731 0 -0.07650104910135269
vn 0.9970694780349731 0 -0.07650104910135269
vn -9.600430672662696e-9 -1 -1.7702930676932738e-7
vn 0.9970695972442627 0 -0.07650105655193329
vn 0.9970694780349731 0 -0.07650104910135269
vn 0.05448867380619049 0.998504102230072 -0.004533809144049883
vn 0.05448842793703079 0.998504102230072 -0.004533817991614342
vn 0.03457804024219513 0.9993976950645447 -0.0029360256157815456
vn 0.041413046419620514 0.9991359710693359 -0.0035084711853414774
vn -0.004541238769888878 -0.9999895095825195 0.0006240507937036455
vn -0.004541238769888878 -0.9999895095825195 0.0006240507937036455
vn 0.02814672328531742 0.9996009469032288 -0.0023855753242969513
vn 0.03490825369954109 0.999386191368103 -0.0029473232571035624
vn -0.004541238769888878 -0.9999895095825195 0.0006240507937036455
vn -0.004541238769888878 -0.9999895095825195 0.0006240507937036455
vn -0.004541238769888878 -0.9999895095825195 0.0006240507937036455
vn 0.034818172454833984 0.9993894100189209 -0.0029525081627070904
vn -0.05163000896573067 0.3474315404891968 -0.9362828731536865
vn -0.8641952872276306 -0.01640572026371956 0.5028890371322632
vn -0.8611139059066772 -0.007440980989485979 0.5083576440811157
vn -0.05134209990501404 0.34692874550819397 -0.9364851713180542
vn 0.911387026309967 0.0008618616266176105 0.4115494191646576
vn -0.05134209990501404 0.34692874550819397 -0.9364851713180542
vn -0.05163000896573067 0.3474315404891968 -0.9362828731536865
vn -0.8641952872276306 -0.01640572026371956 0.5028890371322632
vn 0.9125605225563049 0.012188619002699852 0.40876004099845886
vn -0.8611139059066772 -0.007440980989485979 0.5083576440811157
vn 0.9125605225563049 0.012188619002699852 0.40876004099845886
vn 0.911387026309967 0.0008618616266176105 0.4115494191646576
vn 0.8465462327003479 0.01214861124753952 -0.5321765542030334
vn -0.9236695170402527 -0.007515305187553167 -0.38311630487442017
vn 0.844997227191925 0.0008400664664804935 -0.5347700119018555
vn -0.9259408116340637 -0.01641705259680748 -0.37731170654296875
vn -0.9259408116340637 -0.01641705259680748 -0.37731170654296875
vn 0.0795900747179985 0.3474210202693939 0.9343254566192627
vn -0.9236695170402527 -0.007515305187553167 -0.38311630487442017
vn 0.07988447695970535 0.3469485938549042 0.934475839138031
vn -0.07988633960485458 0.3469490110874176 -0.9344755411148071
vn -0.846543550491333 0.012147342786192894 0.5321807861328125
vn -0.8449950814247131 0.0008426507702097297 0.5347734689712524
vn -0.07958975434303284 0.34742480516433716 -0.9343240857124329
vn 0.07988447695970535 0.3469485938549042 0.934475839138031
vn 0.844997227191925 0.0008400664664804935 -0.5347700119018555
vn 0.0795900747179985 0.3474210202693939 0.9343254566192627
vn 0.8465462327003479 0.01214861124753952 -0.5321765542030334
vn 0.9259400367736816 -0.016417594626545906 0.3773135542869568
vn -0.07988633960485458 0.3469490110874176 -0.9344755411148071
vn -0.07958975434303284 0.34742480516433716 -0.9343240857124329
vn 0.9236688017845154 -0.007516120560467243 0.3831181228160858
vn -0.846543550491333 0.012147342786192894 0.5321807861328125
vn 0.9259400367736816 -0.016417594626545906 0.3773135542869568
vn 0.9236688017845154 -0.007516120560467243 0.3831181228160858
vn -0.8449950814247131 0.0008426507702097297 0.5347734689712524
vn -0.912561297416687 0.012189074419438839 -0.4087583124637604
vn 0.05134335160255432 0.3469289541244507 0.9364849925041199
vn -0.9113873243331909 0.0008576581603847444 -0.41154879331588745
vn 0.051627300679683685 0.34742480516433716 0.9362855553627014
vn 0.05134335160255432 0.3469289541244507 0.9364849925041199
vn 0.8641970157623291 -0.016409238800406456 -0.5028859376907349
vn 0.051627300679683685 0.34742480516433716 0.9362855553627014
vn 0.8611158132553101 -0.007444810122251511 -0.5083543658256531
vn 0.8641970157623291 -0.016409238800406456 -0.5028859376907349
vn -0.912561297416687 0.012189074419438839 -0.4087583124637604
vn 0.8611158132553101 -0.007444810122251511 -0.5083543658256531
vn -0.9113873243331909 0.0008576581603847444 -0.41154879331588745
vn -0.05415117368102074 0 -0.998532772064209
vn -0.05415117368102074 0 -0.998532772064209
vn -0.05415117368102074 0 -0.998532772064209
vn -0.05415117368102074 0 -0.998532772064209
vn 0.054183196276426315 0 0.9985309839248657
vn 0.054183196276426315 0 0.9985309839248657
vn 0.054183196276426315 0 0.9985309839248657
vn 0.054183196276426315 0 0.9985309839248657
vn -0.08427087962627411 -0.05577557906508446 -0.994880735874176
vn -0.08497601747512817 -0.05587613955140114 -0.9948151111602783
vn -0.08425947278738022 -0.05580814182758331 -0.9948798418045044
vn 0.0825926661491394 -0.02307557314634323 0.9963161945343018
vn 0.08323030918836594 -0.02305365912616253 0.9962636232376099
vn 0.08272822946310043 -0.023119425401091576 0.996303915977478
vn -0.08355430513620377 -0.055707551538944244 -0.9949449300765991
vn -0.08279203623533249 -0.055769748985767365 -0.9950051307678223
vn -0.08279203623533249 -0.055769748985767365 -0.9950051307678223
vn -0.08279203623533249 -0.055769748985767365 -0.9950051307678223
vn 0.08222614228725433 -0.023185189813375473 0.9963439702987671
vn 0.08222614228725433 -0.023185189813375473 0.9963439702987671
vn 0.08209056407213211 -0.02314133383333683 0.9963562488555908
vn -0.08279203623533249 -0.055769748985767365 -0.9950051307678223
vn -0.08279203623533249 -0.055769748985767365 -0.9950051307678223
vn 0.08195497840642929 -0.023097475990653038 0.9963683485984802
vn 0.08323030918836594 -0.02305365912616253 0.9962636232376099
vn 0.08318263292312622 -0.023152325302362442 0.9962653517723083
vn 0.0831349641084671 -0.023250993341207504 0.9962670803070068
vn 0.08318263292312622 -0.023152325302362442 0.9962653517723083
vn 0.0831349641084671 -0.023250993341207504 0.9962670803070068
vn 0.08249731361865997 -0.023272905498743057 0.996319591999054
vn 0.08286380767822266 -0.02316328138113022 0.9962916374206543
vn 0.0828399732708931 -0.02321261540055275 0.9962924718856812
vn 0.08195497840642929 -0.023097475990653038 0.9963683485984802
vn 0.08249731361865997 -0.023272905498743057 0.996319591999054
vn 0.08236172795295715 -0.023229047656059265 0.9963318109512329
vn 0.08195497840642929 -0.023097475990653038 0.9963683485984802
vn 0.08194059878587723 -0.023090561851859093 0.9963697195053101
vn -0.0828833058476448 -0.05550922825932503 -0.995012104511261
vn -0.08279203623533249 -0.055769748985767365 -0.9950051307678223
vn -0.08569347858428955 -0.055857885628938675 -0.9947544932365417
vn -0.08570390939712524 -0.05591154098510742 -0.9947506189346313
vn -0.08570390939712524 -0.05591154098510742 -0.9947506189346313
vn -0.08570390939712524 -0.05591154098510742 -0.9947506189346313
vn -0.08429368585348129 -0.055710434913635254 -0.994882345199585
vn -0.08570390939712524 -0.05591154098510742 -0.9947506189346313
vn -0.08570390939712524 -0.05591154098510742 -0.9947506189346313
vn 0.08195497840642929 -0.023097475990653038 0.9963683485984802
vn 0.08318263292312622 -0.023152325302362442 0.9962653517723083
vn 0.08236172795295715 -0.023229047656059265 0.9963318109512329
vn -0.08286049216985703 -0.055574364960193634 -0.9950103759765625
vn -0.08357711881399155 -0.055642418563365936 -0.9949467182159424
vn -0.08356570452451706 -0.05567498132586479 -0.994945764541626
vn -0.08279203623533249 -0.055769748985767365 -0.9950051307678223
vn -0.08279203623533249 -0.055769748985767365 -0.9950051307678223
vn -0.08283767849206924 -0.05563949793577194 -0.9950087070465088
vn -0.08498741686344147 -0.05584357678890228 -0.9948159456253052
vn -0.08284908533096313 -0.05560693144798279 -0.9950095415115356
vn 0.08209056407213211 -0.02314133383333683 0.9963562488555908
vn 0.08236172795295715 -0.023229047656059265 0.9963318109512329
vn -0.08320169895887375 -0.055657245218753815 -0.9949773550033569
vn -0.08533996343612671 -0.05589383840560913 -0.9947828650474548
vn -0.08392970263957977 -0.05569271743297577 -0.994914174079895
vn -0.08392400294542313 -0.055709000676870346 -0.9949137568473816
vn -0.08283767849206924 -0.05563949793577194 -0.9950087070465088
vn -0.08283767849206924 -0.05563949793577194 -0.9950087070465088
vn -0.08461204171180725 -0.05585842207074165 -0.9948470592498779
vn -0.08424806594848633 -0.05584070459008217 -0.9948789477348328
vn -0.08287189900875092 -0.05554179847240448 -0.9950112104415894
vn -0.0842822790145874 -0.055743008852005005 -0.9948815107345581
vn 0.014064514078199863 0.9999003410339355 -0.0012179689947515726
vn 0.02082839235663414 0.9997815489768982 -0.0017799149500206113
vn 0.013989449478685856 0.9999014735221863 -0.0012071357341483235
vn 0.020978504791855812 0.9997783899307251 -0.0018015801906585693
vn 0.02090344950556755 0.9997799396514893 -0.0017907475121319294
vn 0.014139578677713871 0.9998992681503296 -0.0012288022553548217
vn 0.0003099089371971786 0.9999999403953552 -0.00006143382051959634
vn 0.027666352689266205 0.999614417552948 -0.002352609997615218
vn -0.004345688037574291 -0.9999902248382568 0.000801305053755641
vn -0.004150137305259705 -0.9999909400939941 0.0009785593720152974
vn -0.004150137305259705 -0.9999909400939941 0.0009785593720152974
vn -0.004541238769888878 -0.9999895095825195 0.0006240507937036455
vn -0.004541238769888878 -0.9999895095825195 0.0006240507937036455
vn -0.004541238769888878 -0.9999895095825195 0.0006240507937036455
vn -0.004541238769888878 -0.9999895095825195 0.0006240507937036455
vn -0.004541238769888878 -0.9999895095825195 0.0006240507937036455
vn -0.004541238769888878 -0.9999895095825195 0.0006240507937036455
vn -0.004541238769888878 -0.9999895095825195 0.0006240507937036455
vn -0.004541238769888878 -0.9999895095825195 0.0006240507937036455
vn -0.004541238769888878 -0.9999895095825195 0.0006240507937036455
vn -0.004247912671416998 -0.9999905824661255 0.0008899322128854692
vn -0.004150137305259705 -0.9999909400939941 0.0009785593720152974
vn 0.027816440910100937 0.9996103048324585 -0.002374275354668498
vn 0.03457804024219513 0.9993976950645447 -0.0029360256157815456
vn 0.034503012895584106 0.9994003772735596 -0.0029251945670694113
vn 0.03465306758880615 0.9993951320648193 -0.0029468575958162546
vn -0.004345688037574291 -0.9999902248382568 0.000801305053755641
vn 0.021128613501787186 0.9997751712799072 -0.001823247643187642
vn 0.027891481295228004 0.9996081590652466 -0.0023851078003644943
vn -0.004541238769888878 -0.9999895095825195 0.0006240507937036455
vn -0.004541238769888878 -0.9999895095825195 0.0006240507937036455
vn -0.004541238769888878 -0.9999895095825195 0.0006240507937036455
vn 0.027966521680355072 0.9996059536933899 -0.0023959404788911343
vn 0.0003099089371971786 0.9999999403953552 -0.00006143382051959634
vn 0.007149847690016031 0.9999743103981018 -0.0006342997658066452
vn -0.004345688037574291 -0.9999902248382568 0.000801305053755641
vn -0.004247912671416998 -0.9999905824661255 0.0008899322128854692
vn -0.004345688037574291 -0.9999902248382568 0.000801305053755641
vn -0.004150137305259705 -0.9999909400939941 0.0009785593720152974
vn -0.004541238769888878 -0.9999895095825195 0.0006240507937036455
vn -0.003954586107283831 -0.9999915361404419 0.0011558134574443102
vn -0.004150137305259705 -0.9999909400939941 0.0009785593720152974
vn -0.004345688037574291 -0.9999902248382568 0.000801305053755641
vn -0.003954586107283831 -0.9999915361404419 0.0011558134574443102
vn -0.004052361473441124 -0.999991238117218 0.0010671864729374647
vn 0.021203668788075447 0.9997735619544983 -0.0018340818351134658
vn 0.02814672328531742 0.9996009469032288 -0.0023855753242969513
vn 0.014439835213124752 0.999894917011261 -0.0012721384409815073
vn 0.03490825369954109 0.999386191368103 -0.0029473232571035624
vn 0.034818172454833984 0.9993894100189209 -0.0029525081627070904
vn 0.03472808748483658 0.9993924498558044 -0.0029576888773590326
vn 0.0003099089371971786 0.9999999403953552 -0.00006143382051959634
vn 0.0003099089371971786 0.9999999403953552 -0.00006143382051959634
vn 0.0003099089371971786 0.9999999403953552 -0.00006143382051959634
vn -0.004052361473441124 -0.999991238117218 0.0010671864729374647
vn -0.003954586107283831 -0.9999915361404419 0.0011558134574443102
vn 0.0003099089371971786 0.9999999403953552 -0.00006143382051959634
vn 0.0003099089371971786 0.9999999403953552 -0.00006143382051959634
vn -0.0044434634037315845 -0.9999898672103882 0.0007126779528334737
vn 0.01452996302396059 0.9998937249183655 -0.001266957027837634
vn 0.02129378356039524 0.9997716546058655 -0.0018289003055542707
vn 0.007299988064914942 0.9999731779098511 -0.0006559666362591088
vn 0.007224918808788061 0.9999737739562988 -0.000645133201032877
vn 0.00046005347394384444 0.9999998807907104 -0.0000831008655950427
vn 0.007600268814712763 0.9999709129333496 -0.000699301075655967
vn 0.014289707876741886 0.9998971223831177 -0.001250468660145998
vn 0.00752519816160202 0.9999714493751526 -0.0006884676404297352
vn 0.0007603424601256847 0.9999997615814209 -0.00012643495574593544
vn 0.0009104869677685201 0.9999995827674866 -0.00014810198626946658
vn 0.007675338536500931 0.9999703764915466 -0.0007101366063579917
vn 0.00745012890547514 0.9999721050262451 -0.0006776343216188252
vn 0.0003099089371971786 0.9999999403953552 -0.00006143382051959634
vn 0.0008354147430509329 0.9999996423721313 -0.00013726847828365862
vn 0.0003099089371971786 0.9999999403953552 -0.00006143382051959634
vn 0.0003099089371971786 0.9999999403953552 -0.00006143382051959634
vn 0.0006101980106905103 0.9999998807907104 -0.00010476791794644669
vn 0.00737505778670311 0.9999725818634033 -0.000666800478938967
vn 0.0003099089371971786 0.9999999403953552 -0.00006143382051959634
vn 0.013989449478685856 0.9999014735221863 -0.0012071357341483235
vn 0.0006852702354080975 0.9999998211860657 -0.00011560143320821226
vn 0.014214643277227879 0.9998981952667236 -0.0012396355159580708
vn 0.021053558215498924 0.9997767210006714 -0.001812413684092462
vn 0.02774139679968357 0.9996123313903809 -0.002363442676141858
vn -0.004541238769888878 -0.9999895095825195 0.0006240507937036455
vn 0.014364771544933319 0.9998960494995117 -0.0012613035505637527
vn -0.004541238769888878 -0.9999895095825195 0.0006240507937036455
vn -0.0044434634037315845 -0.9999898672103882 0.0007126779528334737
vn -0.0037590351421386003 -0.9999920725822449 0.0013330676592886448
vn 0.00038498127833008766 1 -0.00007226735033327714
vn 0.0005351257277652621 0.9999998807907104 -0.00009393438813276589
vn -0.08279203623533249 -0.055769748985767365 -0.9950051307678223
vn -0.08283767849206924 -0.05563949793577194 -0.9950087070465088
vn -0.08282627165317535 -0.0556720606982708 -0.9950078129768372
vn -0.08279203623533249 -0.055769748985767365 -0.9950051307678223
vn -0.08279203623533249 -0.055769748985767365 -0.9950051307678223
vn -0.08279203623533249 -0.055769748985767365 -0.9950051307678223
vn 0.08290402591228485 -0.023404467850923538 0.996282696723938
vn 0.08276845514774323 -0.023360613733530045 0.9962949752807617
vn 0.08276845514774323 -0.023360613733530045 0.9962949752807617
vn 0.08303960412740707 -0.02344832383096218 0.9962703585624695
vn 0.08303960412740707 -0.02344832383096218 0.9962703585624695
vn -0.9941611289978027 0.07084289193153381 0.0813940241932869
vn -0.9941611289978027 0.07084289193153381 0.0813940241932869
vn -0.9941611289978027 0.07084289193153381 0.0813940241932869
vn -0.08353149145841599 -0.055772680789232254 -0.9949432611465454
vn -0.08281485736370087 -0.05570462346076965 -0.9950069189071655
vn 0.0826328843832016 -0.02331675961613655 0.9963072538375854
vn 0.0826328843832016 -0.02331675961613655 0.9963072538375854
vn 0.0826328843832016 -0.02331675961613655 0.9963072538375854
vn 0.08249731361865997 -0.023272905498743057 0.996319591999054
vn -0.9941611289978027 0.07084289193153381 0.0813940241932869
vn -0.9941611289978027 0.07084289193153381 0.0813940241932869
vn -0.9941611289978027 0.07084289193153381 0.0813940241932869
vn 0.0826328843832016 -0.02331675961613655 0.9963072538375854
vn -0.9941611289978027 0.07084289193153381 0.0813940241932869
vn -0.9941611289978027 0.07084289193153381 0.0813940241932869
vn -0.08280344307422638 -0.05573718622326851 -0.9950060248374939
vn -0.0835200771689415 -0.05580524355173111 -0.994942307472229
vn -0.08279203623533249 -0.055769748985767365 -0.9950051307678223
vn -0.08279203623533249 -0.055769748985767365 -0.9950051307678223
vn -0.08279203623533249 -0.055769748985767365 -0.9950051307678223
vn -0.08279203623533249 -0.055769748985767365 -0.9950051307678223
vn -0.08279203623533249 -0.055769748985767365 -0.9950051307678223
vn 0.08249731361865997 -0.023272905498743057 0.996319591999054
vn -0.08279203623533249 -0.055769748985767365 -0.9950051307678223
vn -0.08279203623533249 -0.055769748985767365 -0.9950051307678223
vn -0.08279203623533249 -0.055769748985767365 -0.9950051307678223
vn 0.0831349641084671 -0.023250993341207504 0.9962670803070068
vn -0.08279203623533249 -0.055769748985767365 -0.9950051307678223
vn 0.0831349641084671 -0.023250993341207504 0.9962670803070068
vn 0.08308728039264679 -0.023349657654762268 0.9962687492370605
vn 0.08276845514774323 -0.023360613733530045 0.9962949752807617
vn -0.08279203623533249 -0.055769748985767365 -0.9950051307678223
vn 0.0828399732708931 -0.02321261540055275 0.9962924718856812
vn -0.08279203623533249 -0.055769748985767365 -0.9950051307678223
vn -0.08279203623533249 -0.055769748985767365 -0.9950051307678223
vn -0.08284908533096313 -0.05560693144798279 -0.9950095415115356
vn -0.08355430513620377 -0.055707551538944244 -0.9949449300765991
vn -0.08424806594848633 -0.05584070459008217 -0.9948789477348328
vn 0.08290402591228485 -0.023404467850923538 0.996282696723938
vn 0.08290402591228485 -0.023404467850923538 0.996282696723938
vn 0.08303960412740707 -0.02344832383096218 0.9962703585624695
vn 0.08290402591228485 -0.023404467850923538 0.996282696723938
vn 0.08290402591228485 -0.023404467850923538 0.996282696723938
vn -0.9941611289978027 0.07084289193153381 0.0813940241932869
vn -0.9941611289978027 0.07084289193153381 0.0813940241932869
vn -0.9941611289978027 0.07084289193153381 0.0813940241932869
vn -0.9942400455474854 0.07005760073661804 0.08110912144184113
vn -0.9942007064819336 0.07045025378465652 0.0812515839934349
vn -0.9941611289978027 0.07084289193153381 0.0813940241932869
vn -0.9942400455474854 0.07005760073661804 0.08110912144184113
vn -0.9942007064819336 0.07045025378465652 0.0812515839934349
vn -0.9942400455474854 0.07005760073661804 0.08110912144184113
vn -0.9941611289978027 0.07084289193153381 0.0813940241932869
vn -0.9941611289978027 0.07084289193153381 0.0813940241932869
vn -0.9941611289978027 0.07084289193153381 0.0813940241932869
vn -0.9941611289978027 0.07084289193153381 0.0813940241932869
vn -0.9941611289978027 0.07084289193153381 0.0813940241932869
vn -0.9941809177398682 0.07064656913280487 0.0813228040933609
vn -0.9942007064819336 0.07045025378465652 0.0812515839934349
vn -0.9941611289978027 0.07084289193153381 0.0813940241932869
vn -0.9941611289978027 0.07084289193153381 0.0813940241932869
vn -0.9941611289978027 0.07084289193153381 0.0813940241932869
vn -0.9941611289978027 0.07084289193153381 0.0813940241932869
vn -0.9941611289978027 0.07084289193153381 0.0813940241932869
vn -0.08279203623533249 -0.055769748985767365 -0.9950051307678223
vn -0.08279203623533249 -0.055769748985767365 -0.9950051307678223
vn -0.08425947278738022 -0.05580814182758331 -0.9948798418045044
vn -0.9941611289978027 0.07084289193153381 0.0813940241932869
vn -0.9941611289978027 0.07084289193153381 0.0813940241932869
vn -0.9941611289978027 0.07084289193153381 0.0813940241932869
vn -0.08320169895887375 -0.055657245218753815 -0.9949773550033569
vn -0.08388408273458481 -0.055822983384132385 -0.994910717010498
vn -0.9943182468414307 0.06927226483821869 0.08082416653633118
vn -0.9942400455474854 0.07005760073661804 0.08110912144184113
vn -0.9942400455474854 0.07005760073661804 0.08110912144184113
vn -0.9942792654037476 0.06966494023799896 0.08096665143966675
vn 0.08308728039264679 -0.023349657654762268 0.9962687492370605
vn -0.9942792654037476 0.06966494023799896 0.08096665143966675
vt 3.2628822326660156 1.891438066959381
vt 2.962773084640503 2.030099391937256
vt 2.956010103225708 1.9417428970336914
vt 2.9434313774108887 1.8254987597465515
vt 3.1991171836853027 1.2183823138475418
vt 3.494619607925415 1.032992348074913
vt 3.503667116165161 1.1525547504425049
vt 3.8082170486450195 1.0867272019386292
vt 3.5127146244049072 1.272117167711258
vt 3.1719746589660645 0.8596950620412827
vt 3.485572099685669 0.9134299233555794
vt 3.1810221672058105 0.9792574793100357
vt 3.7901220321655273 0.847602367401123
vt 0.8816425204277039 0.5
vt 0.7632850408554077 1
vt 0.7632850408554077 0.5
vt 0.7632850408554077 0
vt 1 0
vt 1 0.5
vt 0.7632850408554077 1
vt 1 1
vt 1 0
vt 1 0.5
vt 0.8816425204277039 0.5
vt 1 1
vt 0.7632850408554077 0.5
vt 0.7632850408554077 0
vt 3.8263120651245117 1.3258520364761353
vt 3.874696731567383 1.0841819643974304
vt 0.7632850408554077 1
vt 0.7632850408554077 0.5
vt 0.7632850408554077 0
vt 0.7632850408554077 0
vt 0.7632850408554077 0.5
vt 1 1
vt 0.7632850408554077 1
vt 1 0
vt 1 0.5
vt 1 1
vt 1 0.5
vt 1 0
vt 3.8514695167541504 1.5583402514457703
vt 3.9179491996765137 1.5557950139045715
vt 3.87662672996521 1.7908284664154053
vt 4.0214080810546875 1.3202147483825684
vt 4.013875961303711 1.5517991781234741
vt 3.9490175247192383 1.5555216073989868
vt 4.006343841552734 1.7833836078643799
vt 4.042898178100586 1.5682907700538635
vt 3.9154512882232666 0.8451505899429321
vt 3.937361478805542 1.082956075668335
vt 3.9592716693878174 1.3207615613937378
vt 3.9684295654296875 1.0826826691627502
vt 1 0
vt 1 0.5
vt 0.8816425204277039 0.5
vt 0.15359175205230713 0.3870888948440552
vt 0.1544772833585739 0.5077492296695709
vt 0.27468886971473694 0.5071735978126526
vt 0.03426569700241089 0.5083248615264893
vt 1 1
vt 0.7632850408554077 1
vt 0.7632850408554077 0
vt 1 1
vt 0.7632850408554077 1
vt 0.8816425204277039 0.5
vt 0.7632850408554077 0
vt 1 0
vt 3.9550111293792725 1.963819146156311
vt 4.028327941894531 2.1417932510375977
vt 3.9036784172058105 2.144254684448242
vt 3.9801456928253174 0.8438850045204163
vt 4.064387798309326 1.8163667917251587
vt 4.046358108520508 1.9790800213813782
vt 4.092468738555908 2.14052677154541
vt 0.3940149247646332 0.3859376311302185
vt 0.39313939213752747 0.2652314305305481
vt 0.27291780710220337 0.2658529281616211
vt 0.5133609771728516 0.2646099328994751
vt 0.39226388931274414 0.14452528953552246
vt 0.3913883864879608 0.02381908893585205
vt 0.2711668014526367 0.024440526962280273
vt 0.5116099715232849 0.023197591304779053
vt 0.15182070434093475 0.14576822519302368
vt 0.15094520151615143 0.02506202459335327
vt 0.030723601579666138 0.02568352222442627
vt 0.15757663547992706 0.930060401558876
vt 0.15801937878131866 0.9903905689716339
vt 0.2782309651374817 0.9898149371147156
vt 0.03780779242515564 0.9909662008285522
vt 0.3979997932910919 0.9289091378450394
vt 0.3984425365924835 0.9892393052577972
vt 0.5186541080474854 0.9886636734008789
vt 3.8901524543762207 1.9675415754318237
vt 3.590043306350708 2.1062029600143433
vt 3.583280324935913 2.0178463459014893
vt 3.2764081954956055 2.0681512355804443
vt 3.5765175819396973 1.9294898509979248
vt 3.2831711769104004 2.156507730484009
vt 2.969536066055298 2.11845600605011
vt 2.6626639366149902 2.1687607765197754
vt 3.5697546005249023 1.8411332368850708
vt 3.2503037452697754 1.7751939296722412
vt 2.8855199813842773 1.1646474599838257
vt 2.8985342979431152 1.3268091678619385
vt 0.515112042427063 0.5060223340988159
vt 0.3962287902832031 0.6875884532928467
vt 0.516883134841919 0.7473430037498474
vt 0.2755744159221649 0.6278339326381683
vt 0.2773454785346985 0.8691546022891998
vt 3.525729179382324 1.4342789053916931
vt 3.2251462936401367 1.542705774307251
vt 2.924563407897949 1.651132583618164
vt 2.623980760574341 1.759559452533722
vt 0.15669110417366028 0.8094000667333603
vt 0.036036744713783264 0.7496455311775208
vt 0.1549200564622879 0.56807941198349
vt 0.03249464929103851 0.26700419187545776
vt 3.550886631011963 1.6667671203613281
vt 0.7632850408554077 1
vt 0.7632850408554077 0.5
vt 1 0
vt 0.7632850408554077 0
vt 0.7632850408554077 0.5
vt 1 0.5
vt 1 1
vt 0.7632850408554077 0.5
vt 0.7632850408554077 0
vt 0.7632850408554077 0.5
vt 1 1
vt 0.7632850408554077 1
vt 1 0.5
vt 1 0.5
vt 1 0
vt 3.9036784172058105 2.144254684448242
vt 4.017335891723633 1.9625884294509888
vt 2.9115490913391113 1.4889709055423737
vt 3.2121317386627197 1.3805440664291382
vt 0.3971143066883087 0.8082488030195236
vt 0.39534324407577515 0.5669281482696533
vt 2.5538275241851807 0.8717877566814423
vt 2.867424964904785 0.925522617995739
vt 0.39490044116973877 0.5065979659557343
vt 0.15270623564720154 0.2664285898208618
vt 0.1558055877685547 0.6887397170066833
vt 2.8764724731445312 1.045085035264492
vt 0.8792270421981812 0.3743962049484253
vt 0.804347813129425 0.8091787695884705
vt 0.804347813129425 0.3743962049484253
vt 0.8792270421981812 0.8091787695884705
vt 0.8792270421981812 0.3743962049484253
vt 0.804347813129425 0.8091787695884705
vt 0.804347813129425 0.3743962049484253
vt 0.8792270421981812 0.8091787695884705
vt 0.804347813129425 0.8091787695884705
vt 0.8792270421981812 0.3743962049484253
vt 0.8792270421981812 0.8091787695884705
vt 0.804347813129425 0.3743962049484253
vt 0.804347813129425 0.8091787695884705
vt 0.8792270421981812 0.3743962049484253
vt 0.804347813129425 0.3743962049484253
vt 0.8792270421981812 0.8091787695884705
vt 0.804347813129425 0.8091787695884705
vt 0.8792270421981812 0.3743962049484253
vt 0.804347813129425 0.3743962049484253
vt 0.8792270421981812 0.8091787695884705
vt 0.804347813129425 0.8091787695884705
vt 0.8792270421981812 0.8091787695884705
vt 0.8792270421981812 0.3743962049484253
vt 0.804347813129425 0.3743962049484253
vt 0.804347813129425 0.8091787695884705
vt 0.8792270421981812 0.3743962049484253
vt 0.804347813129425 0.3743962049484253
vt 0.8792270421981812 0.8091787695884705
vt 0.804347813129425 0.8091787695884705
vt 0.8792270421981812 0.8091787695884705
vt 0.8792270421981812 0.3743962049484253
vt 0.804347813129425 0.3743962049484253
vt 0.804347813129425 0.8091787695884705
vt 0.8792270421981812 0.8091787695884705
vt 0.8792270421981812 0.3743962049484253
vt 0.804347813129425 0.3743962049484253
vt 0.8792270421981812 0.8091787695884705
vt 0.804347813129425 0.8091787695884705
vt 0.8792270421981812 0.3743962049484253
vt 0.804347813129425 0.3743962049484253
vt 0.8792270421981812 0.8091787695884705
vt 0.804347813129425 0.8091787695884705
vt 0.8792270421981812 0.3743962049484253
vt 0.804347813129425 0.3743962049484253
vt 0.8792270421981812 0.8091787695884705
vt 0.804347813129425 0.8091787695884705
vt 0.8792270421981812 0.3743962049484253
vt 0.804347813129425 0.3743962049484253
vt 0.5069186687469482 0.7463768124580383
vt 0.506918728351593 0.5048308968544006
vt 0.7415459156036377 0.5048309564590454
vt 0.7415459156036377 0.7463768124580383
vt 0.7415459156036377 0.5048309564590454
vt 0.7415459156036377 0.7463768124580383
vt 0.5069186687469482 0.7463768124580383
vt 0.506918728351593 0.5048308968544006
vt 0.5320325493812561 0.788520559668541
vt 0.5 1
vt 0.7660162448883057 0.8942602798342705
vt 0.06614264845848083 0.5850583910942078
vt 0.13228529691696167 0.17011678218841553
vt 0.31614264845848083 0.46005839109420776
vt 0.7980488538742065 0.6827808320522308
vt 0.8383578062057495 0.375
vt 0.8383578062057495 0.125
vt 0.6060293316841125 0.25
vt 0.5 0.75
vt 0.5 1
vt 0.25 0.875
vt 1.0706862211227417 0
vt 0.6060293316841125 0
vt 0 1
vt 0.14273476600646973 0
vt 0.5992139577865601 0.12758755683898926
vt 1.0661426782608032 0.08505839109420776
vt 0.6044387221336365 0.04252922534942627
vt 1.0713673830032349 0
vt 1 0.5
vt 0.5661426782608032 0.33505839109420776
vt 0.79960697889328 0.31379377841949463
vt 0.042320553213357925 0.15010416507720947
vt 1 1
vt 0.75 0.875
vt 0 0
vt 0.04859471693634987 0
vt 0.12813015282154083 0.15408223867416382
vt 0.141372412443161 0
vt 0.048030637204647064 0
vt 0.03243962675333023 0.1518266201019287
vt 0 0
vt 0.016219813376665115 0.5759133100509644
vt 0.06406507641077042 0.5770411193370819
vt 0 1
vt 0 0.5
vt 0.021160276606678963 0.5750520825386047
vt 0.6070510745048523 0
vt 0.75 0.625
vt 0.5960975885391235 0.36556166410446167
vt 0.3300813138484955 0.4713013768196106
vt 0.5640650987625122 0.5770411193370819
vt 0.3737008571624756 0.125
vt 1.0706862211227417 0.5
vt 0.5994081497192383 0.3270411491394043
vt 0.26601627469062805 0.8942602798342705
vt 0.8300813436508179 0.4713013768196106
vt 0.25 1
vt 0.75 1
vt 0.8140650987625122 0.5770411193370819
vt 0.25 1
vt 0.3140650689601898 0.5770411193370819
vt 0.4310569763183594 0.6299109756946564
vt 0.48324400186538696 0.2645411491394043
vt 0.3670797348022461 0.2020411491394043
vt 0.75 1
vt 1 1
vt 0.3621138632297516 0.25982195138931274
vt 0.29804879426956177 0.6827808320522308
vt 2.009800672531128 1.81425142288208
vt 2.3233981132507324 1.8679863214492798
vt 2.022815227508545 1.9764131307601929
vt 2.2973687648773193 1.5436629056930542
vt 2.3103833198547363 1.705824613571167
vt 1.9967859983444214 1.6520897150039673
vt 2.6491379737854004 1.992047667503357
vt 2.623980760574341 1.759559452533722
vt 0.5133609771728516 0.2646099328994751
vt 0.6327071189880371 0.14328229427337646
vt 0.5116099715232849 0.023197591304779053
vt 0.7581918239593506 0.8668520748615265
vt 0.638422966003418 0.9277578741312027
vt 0.7590773105621338 0.9875124096870422
vt 0.6375374794006348 0.807097539305687
vt 0.5186541080474854 0.9886636734008789
vt 0.6362091302871704 0.6261070370674133
vt 0.516883134841919 0.7473430037498474
vt 0.6370947360992432 0.7467673718929291
vt 0.7573062777519226 0.7461917400360107
vt 0.633582592010498 0.2639884948730469
vt 0.7538042068481445 0.2633669972419739
vt 2.597951650619507 1.4352360367774963
vt 2.9115490913391113 1.4889709055423737
vt 2.924563407897949 1.651132583618164
vt 2.8985342979431152 1.3268091678619385
vt 0.6344581246376038 0.3846946954727173
vt 2.2713396549224854 1.219339445233345
vt 2.58493709564209 1.2730743288993835
vt 0.8788461685180664 0.926606610417366
vt 0.8784034252166748 0.8662764430046082
vt 0.9995005130767822 0.9863611459732056
vt 2.571922540664673 1.1109125912189484
vt 2.035393714904785 2.0926573276519775
vt 1.7222323417663574 2.0848400592803955
vt 0.8766523599624634 0.6248640716075897
vt 0.8757768869400024 0.5041579008102417
vt 0.755555272102356 0.5047793686389923
vt 0.9959984421730042 0.5035364031791687
vt 0.515112042427063 0.5060223340988159
vt 0.9942474365234375 0.26212406158447266
vt 0.874901294708252 0.3834517002105713
vt 0.9977494478225708 0.7449487745761871
vt 0.8731502890586853 0.14203929901123047
vt 0.874025821685791 0.2627454996109009
vt 2.2583250999450684 1.0571777299046516
vt 2.5538275241851807 0.8717877566814423
vt 1.9447277784347534 1.003442868590355
vt 2.867424964904785 0.925522617995739
vt 2.8764724731445312 1.045085035264492
vt 2.8855199813842773 1.1646474599838257
vt 1.7285215854644775 2.142962098121643
vt 2.04215669631958 2.181013822555542
vt 1.42164945602417 2.1932668685913086
vt 0.6318315267562866 0.022576093673706055
vt 0.7520531415939331 0.021954655647277832
vt 2.6626639366149902 2.1687607765197754
vt 2.3490288257598877 2.1307090520858765
vt 0.6353336572647095 0.5054008364677429
vt 1.9356802701950073 0.8838804513216019
vt 2.2492775917053223 0.9376153126358986
vt 1.6962032318115234 1.7605165839195251
vt 1.7092177867889404 1.922678291797638
vt 1.395620346069336 1.868943452835083
vt 1.6441450119018555 1.1118697226047516
vt 1.9707568883895874 1.3277662992477417
vt 1.6571595668792725 1.2740314602851868
vt 1.343562126159668 1.2202965915203094
vt 1.317533016204834 0.8959731459617615
vt 1.6311304569244385 0.9497080072760582
vt 1.6701741218566895 1.4361931681632996
vt 2.3422658443450928 2.0423524379730225
vt 1.330547571182251 1.0581348687410355
vt 2.962773084640503 2.030099391937256
vt 2.969536066055298 2.11845600605011
vt 1.369591236114502 1.5446200370788574
vt 1.6831886768341064 1.5983548760414124
vt 2.956010103225708 1.9417428970336914
vt 2.9434313774108887 1.8254987597465515
vt 1.356576681137085 1.3824583292007446
vt 1.9837714433670044 1.4899280071258545
vt 2.2843542098999023 1.381501168012619
vt 2.610966205596924 1.5973977446556091
vt 0.879288911819458 0.9869367778301239
vt 1.9577423334121704 1.1656045764684677
vt 0.6388657093048096 0.9880880415439606
vt 0.8775278329849243 0.7455702424049377
vt 0.9924963712692261 0.020711660385131836
vt 1.408634901046753 2.031105160713196
vt 1.382605791091919 1.7067817449569702
vt 1.5353431701660156 0.75
vt 1.0640650987625122 0.5770411193370819
vt 1.298048734664917 0.6827808320522308
vt 2 0.5
vt 1.7676715850830078 0.375
vt 1.7676715850830078 0.625
vt 1.75 0.375
vt 1.5 0.75
vt 1.5 0.25
vt 2 0
vt 2 0.5
vt 1.25 0.3751252293586731
vt 1 0.0005000829696655273
vt 1 0.5000002682209015
vt 1.2660162448883057 0.8942602798342705
vt 1.5320324897766113 0.788520559668541
vt 1.25 0.625
vt 1.25 0.875
vt 1.25 1
vt 1 1
vt 1.5 0.2502501606941223
vt 1.5 0.7497503757476807
vt 0.75 0.1253751516342163
vt 1.25 0.375
vt 0.5 0.0005000829696655273
vt 0.5 0.2502501606941223
vt 1.7660162448883057 0.8942602798342705
vt 1.5 1
vt 2 1
vt 1.7676715850830078 0.875
vt 1.7676715850830078 0.125
vt 1.6515073776245117 0.0625
vt 1.3030147552490234 0.125
vt 1 0.5
vt 1.0706862211227417 0.5
vt 1.0706862211227417 0
vt 0.8383578062057495 0.375
vt 1.0661426782608032 0.08505839109420776
vt 2 0
vt 1.0713673830032349 0
vt 1.5330712795257568 0.04252922534942627
vt 1.5 1
vt 1.5353431701660156 0
vt 0.79960697889328 0.31379377841949463
vt 1.5353431701660156 0.25
vt 1.3030147552490234 0.625
vt 0.8300813436508179 0.4713013768196106
vt 0.7980488538742065 0.6827808320522308
vt 1 1
vt 1.75 0.875
vt 1.75 1
vt 2 1
vt 1.75 0.125
vt 1.75 0.625
vt 1.25 0.1253751516342163
vt 1.5 0.0005000829696655273
vt 1.25 0.6248753070831299
vt 0.5 0.7497503161430359
vt 0.75 0.6248753070831299
vt 0.75 0.3751252293586731
vt 0.25 0.6248752474784851
vt 0.25 0.3751251697540283
vt 0 0.5000002086162567
vt 0.25 0.1253751516342163
vt 1.75 0.1253751516342163
vt 1.75 0.3751252293586731
vt 2 0.5000002682209015
vt 1.75 0.6248753070831299
vt 1.25 0.7497503459453583
vt 1.5 0.9995004236698151
vt 2 0.9995004534721375
vt 1.75 0.8746254146099091
vt 1.75 0.0005000829696655273
vt 2 0.0005000829696655273
vt 1.25 0.0005000829696655273
vt 1.3030147552490234 0.375
vt 0.8383578062057495 0.125
vt 0.7660162448883057 0.8942602798342705
vt 0.25 0.0005000829696655273
vt 0 0.0005000829696655273
vt 0.75 0.0005000829696655273
vt 0.8140650987625122 0.5770411193370819
vt 1.25 1
vt 0 0.9995003342628479
vt 1 0.9995003938674927
vt 0.75 0.8746253550052643
vt 0.5 0.9995003640651703
vt 1.5356836318969727 0
vt 0.25 0.8746253252029419
g condoInt040
s 1
f 1/1/1 2/2/2 3/3/3
f 4/4/4 1/1/1 3/3/3
f 5/5/5 6/6/6 7/7/7
f 7/7/7 6/6/6 8/8/8
f 7/7/7 8/8/8 9/9/9
f 5/5/5 7/7/7 9/9/9
f 10/10/10 11/11/11 12/12/12
f 10/10/10 13/13/13 11/11/11
f 11/11/11 13/13/13 6/6/6
f 12/12/12 11/11/11 6/6/6
f 14/14/14 15/15/15 16/16/16
f 14/14/14 16/16/16 17/17/17
f 18/18/18 19/19/19 20/20/20
f 19/19/19 21/21/21 20/20/20
f 22/22/22 23/23/23 24/24/24
f 23/23/23 25/25/25 24/24/24
f 20/20/20 26/26/26 18/18/18
f 26/26/26 27/27/27 18/18/18
f 28/28/28 8/8/8 29/29/29
f 8/8/8 13/13/13 29/29/29
f 30/30/30 31/31/31 24/24/24
f 31/31/31 32/32/32 24/24/24
f 33/33/33 34/34/34 35/35/35
f 34/34/34 36/36/36 35/35/35
f 14/14/14 37/37/37 38/38/38
f 14/14/14 38/38/38 39/39/39
f 35/35/35 40/40/40 33/33/33
f 40/40/40 41/41/41 33/33/33
f 42/42/42 43/43/43 44/44/44
f 28/28/28 43/43/43 42/42/42
f 45/45/45 46/46/46 47/47/47
f 46/46/46 48/48/48 47/47/47
f 46/46/46 49/49/49 48/48/48
f 45/45/45 49/49/49 46/46/46
f 50/50/50 51/51/51 29/29/29
f 51/51/51 52/52/52 29/29/29
f 53/53/53 52/52/52 51/51/51
f 53/53/53 51/51/51 50/50/50
f 54/54/54 55/55/55 56/56/56
f 43/43/43 47/47/47 44/44/44
f 57/57/57 58/58/58 59/59/59
f 57/57/57 60/60/60 58/58/58
f 56/56/56 61/61/61 62/62/62
f 56/56/56 63/63/63 54/54/54
f 64/64/64 65/65/65 66/66/66
f 67/67/67 68/68/68 66/66/66
f 44/44/44 48/48/48 69/69/69
f 69/69/69 70/70/70 71/71/71
f 45/45/45 53/53/53 72/72/72
f 53/53/53 50/50/50 72/72/72
f 45/45/45 52/52/52 53/53/53
f 49/49/49 73/73/73 48/48/48
f 74/74/74 75/75/75 70/70/70
f 73/73/73 75/75/75 74/74/74
f 48/48/48 73/73/73 74/74/74
f 76/76/76 77/77/77 78/78/78
f 76/76/76 79/79/79 77/77/77
f 79/79/79 80/80/80 77/77/77
f 77/77/77 80/80/80 78/78/78
f 80/80/80 81/81/81 82/82/82
f 80/80/80 83/83/83 81/81/81
f 84/84/84 85/85/85 86/86/86
f 84/84/84 82/82/82 85/85/85
f 87/87/87 88/88/88 89/89/89
f 87/87/87 90/90/90 88/88/88
f 91/91/91 92/92/92 93/93/93
f 91/91/91 89/89/89 92/92/92
f 94/94/94 95/95/95 96/96/96
f 96/96/96 95/95/95 97/97/97
f 98/98/98 96/96/96 97/97/97
f 98/98/98 94/94/94 96/96/96
f 97/97/97 99/99/99 100/100/100
f 100/100/100 99/99/99 101/101/101
f 2/2/2 97/97/97 100/100/100
f 44/44/44 98/98/98 102/102/102
f 102/102/102 98/98/98 1/1/1
f 103/103/103 102/102/102 1/1/1
f 103/103/103 44/44/44 102/102/102
f 104/104/104 5/5/5 105/105/105
f 104/104/104 12/12/12 5/5/5
f 106/106/106 107/107/107 108/108/108
f 109/109/109 110/110/110 107/107/107
f 111/111/111 42/42/42 112/112/112
f 28/28/28 42/42/42 111/111/111
f 112/112/112 103/103/103 113/113/113
f 113/113/113 103/103/103 114/114/114
f 109/109/109 115/115/115 110/110/110
f 116/116/116 90/90/90 115/115/115
f 59/59/59 117/117/117 109/109/109
f 60/60/60 116/116/116 117/117/117
f 118/118/118 60/60/60 57/57/57
f 78/78/78 57/57/57 59/59/59
f 110/110/110 89/89/89 91/91/91
f 108/108/108 91/91/91 93/93/93
f 86/86/86 118/118/118 84/84/84
f 78/78/78 82/82/82 84/84/84
f 9/9/9 8/8/8 28/28/28
f 5/5/5 9/9/9 111/111/111
f 9/9/9 28/28/28 111/111/111
f 78/78/78 59/59/59 76/76/76
f 6/6/6 13/13/13 8/8/8
f 106/106/106 79/79/79 76/76/76
f 12/12/12 6/6/6 5/5/5
f 79/79/79 83/83/83 80/80/80
f 78/78/78 80/80/80 82/82/82
f 4/4/4 103/103/103 1/1/1
f 114/114/114 103/103/103 4/4/4
f 42/42/42 44/44/44 119/119/119
f 42/42/42 119/119/119 112/112/112
f 112/112/112 119/119/119 103/103/103
f 119/119/119 44/44/44 103/103/103
f 95/95/95 71/71/71 99/99/99
f 97/97/97 95/95/95 99/99/99
f 94/94/94 71/71/71 95/95/95
f 98/98/98 97/97/97 1/1/1
f 44/44/44 94/94/94 98/98/98
f 1/1/1 97/97/97 2/2/2
f 55/55/55 61/61/61 56/56/56
f 120/120/120 121/121/121 122/122/122
f 121/121/121 123/123/123 122/122/122
f 66/66/66 65/65/65 124/124/124
f 66/66/66 124/124/124 67/67/67
f 122/122/122 125/125/125 120/120/120
f 125/125/125 126/126/126 120/120/120
f 62/62/62 127/127/127 56/56/56
f 127/127/127 63/63/63 56/56/56
f 128/128/128 129/129/129 130/130/130
f 129/129/129 131/131/131 130/130/130
f 66/66/66 68/68/68 132/132/132
f 66/66/66 132/132/132 64/64/64
f 130/130/130 133/133/133 128/128/128
f 133/133/133 134/134/134 128/128/128
f 94/94/94 69/69/69 135/135/135
f 44/44/44 69/69/69 94/94/94
f 48/48/48 136/136/136 69/69/69
f 136/136/136 70/70/70 69/69/69
f 136/136/136 74/74/74 70/70/70
f 48/48/48 74/74/74 136/136/136
f 137/137/137 112/112/112 113/113/113
f 105/105/105 112/112/112 137/137/137
f 5/5/5 111/111/111 138/138/138
f 138/138/138 111/111/111 112/112/112
f 105/105/105 138/138/138 112/112/112
f 105/105/105 5/5/5 138/138/138
f 139/139/139 110/110/110 91/91/91
f 108/108/108 139/139/139 91/91/91
f 107/107/107 139/139/139 108/108/108
f 107/107/107 110/110/110 139/139/139
f 140/140/140 59/59/59 109/109/109
f 140/140/140 109/109/109 107/107/107
f 106/106/106 140/140/140 107/107/107
f 115/115/115 87/87/87 110/110/110
f 115/115/115 90/90/90 87/87/87
f 110/110/110 87/87/87 89/89/89
f 141/141/141 10/10/10 142/142/142
f 142/142/142 10/10/10 12/12/12
f 106/106/106 143/143/143 140/140/140
f 76/76/76 143/143/143 106/106/106
f 76/76/76 59/59/59 143/143/143
f 84/84/84 144/144/144 78/78/78
f 84/84/84 118/118/118 144/144/144
f 39/39/39 15/15/15 14/14/14
f 143/143/143 59/59/59 140/140/140
f 118/118/118 57/57/57 144/144/144
f 17/17/17 37/37/37 14/14/14
f 24/24/24 25/25/25 30/30/30
f 144/144/144 57/57/57 78/78/78
f 24/24/24 32/32/32 22/22/22
f 117/117/117 145/145/145 109/109/109
f 117/117/117 116/116/116 145/145/145
f 146/146/146 12/12/12 104/104/104
f 28/28/28 29/29/29 52/52/52
f 142/142/142 12/12/12 146/146/146
f 116/116/116 115/115/115 145/145/145
f 50/50/50 29/29/29 13/13/13
f 28/28/28 52/52/52 43/43/43
f 145/145/145 115/115/115 109/109/109
f 58/58/58 60/60/60 117/117/117
f 52/52/52 45/45/45 43/43/43
f 47/47/47 48/48/48 44/44/44
f 59/59/59 58/58/58 117/117/117
f 43/43/43 45/45/45 47/47/47
g condoInt041
s 1
f 147/147/147 148/148/148 149/149/149
f 150/150/150 148/148/148 147/147/147
f 151/151/151 152/152/152 153/153/153
f 154/154/154 155/155/155 156/156/156
f 157/157/157 152/152/152 151/151/151
f 156/156/156 155/155/155 158/158/158
f 159/159/159 160/160/160 161/161/161
f 159/159/159 162/162/162 160/160/160
f 163/163/163 164/164/164 165/165/165
f 163/163/163 166/166/166 164/164/164
f 167/167/167 168/168/168 169/169/169
f 167/167/167 169/169/169 170/170/170
f 171/171/171 172/172/172 173/173/173
f 171/171/171 174/174/174 172/172/172
f 175/175/175 176/176/176 177/177/177
f 175/175/175 177/177/177 178/178/178
f 179/179/179 180/180/180 181/181/181
f 179/179/179 181/181/181 182/182/182
f 183/183/183 184/184/184 185/185/185
f 185/185/185 184/184/184 186/186/186
f 187/187/187 188/188/188 189/189/189
f 189/189/189 188/188/188 190/190/190
f 191/191/191 192/192/192 193/193/193
f 193/193/193 192/192/192 194/194/194
g condoInt042
s 1
f 195/195/195 196/196/196 197/197/197
f 197/197/197 198/198/198 195/195/195
f 199/199/199 200/200/200 201/201/201
f 201/201/201 202/202/202 199/199/199
g condoInt043
s 1
f 203/203/203 204/204/204 205/205/205
f 206/206/206 207/207/207 208/208/208
f 209/209/209 203/203/203 205/205/205
f 210/210/210 211/211/211 212/212/212
f 213/213/213 214/214/214 215/215/215
f 211/211/211 216/216/216 217/217/217
f 212/212/212 211/211/211 217/217/217
f 218/218/218 206/206/206 215/215/215
f 215/215/215 206/206/206 213/213/213
f 207/207/207 219/219/219 220/220/220
f 221/221/221 222/222/222 223/223/223
f 224/224/224 225/225/225 226/226/226
f 226/226/226 225/225/225 220/220/220
f 207/207/207 227/227/227 219/219/219
f 224/224/224 228/228/228 229/229/229
f 227/227/227 230/230/230 231/231/231
f 227/227/227 231/231/231 219/219/219
f 213/213/213 229/229/229 214/214/214
f 232/232/232 233/233/233 234/234/234
f 235/235/235 234/234/234 236/236/236
f 235/235/235 237/237/237 238/238/238
f 237/237/237 239/239/239 238/238/238
f 240/240/240 239/239/239 237/237/237
f 240/240/240 237/237/237 235/235/235
f 206/206/206 241/241/241 207/207/207
f 218/218/218 241/241/241 206/206/206
f 226/226/226 220/220/220 221/221/221
f 225/225/225 207/207/207 220/220/220
f 222/222/222 219/219/219 242/242/242
f 222/222/222 242/242/242 223/223/223
f 234/234/234 235/235/235 232/232/232
f 243/243/243 225/225/225 224/224/224
f 220/220/220 219/219/219 222/222/222
f 213/213/213 225/225/225 243/243/243
f 244/244/244 245/245/245 246/246/246
f 220/220/220 222/222/222 221/221/221
f 232/232/232 238/238/238 245/245/245
f 233/233/233 232/232/232 247/247/247
f 247/247/247 217/217/217 233/233/233
f 212/212/212 217/217/217 247/247/247
f 248/248/248 249/249/249 244/244/244
f 243/243/243 229/229/229 213/213/213
f 224/224/224 229/229/229 243/243/243
f 210/210/210 249/249/249 248/248/248
f 203/203/203 250/250/250 204/204/204
f 248/248/248 244/244/244 251/251/251
f 238/238/238 239/239/239 250/250/250
f 244/244/244 246/246/246 251/251/251
f 215/215/215 252/252/252 218/218/218
f 215/215/215 214/214/214 252/252/252
f 206/206/206 208/208/208 213/213/213
f 213/213/213 208/208/208 225/225/225
f 229/229/229 253/253/253 214/214/214
f 229/229/229 228/228/228 253/253/253
f 208/208/208 207/207/207 225/225/225
f 246/246/246 209/209/209 254/254/254
f 251/251/251 246/246/246 254/254/254
f 250/250/250 239/239/239 255/255/255
f 250/250/250 255/255/255 204/204/204
f 245/245/245 238/238/238 256/256/256
f 245/245/245 256/256/256 246/246/246
f 236/236/236 240/240/240 235/235/235
f 256/256/256 257/257/257 246/246/246
f 238/238/238 257/257/257 256/256/256
f 212/212/212 258/258/258 210/210/210
f 210/210/210 258/258/258 249/249/249
f 258/258/258 232/232/232 249/249/249
f 247/247/247 232/232/232 259/259/259
f 247/247/247 259/259/259 212/212/212
f 212/212/212 259/259/259 258/258/258
f 259/259/259 232/232/232 258/258/258
f 205/205/205 260/260/260 261/261/261
f 205/205/205 204/204/204 260/260/260
f 249/249/249 262/262/262 244/244/244
f 257/257/257 203/203/203 209/209/209
f 257/257/257 209/209/209 246/246/246
f 263/263/263 250/250/250 203/203/203
f 235/235/235 238/238/238 232/232/232
f 249/249/249 232/232/232 262/262/262
f 232/232/232 245/245/245 262/262/262
f 262/262/262 245/245/245 244/244/244
f 263/263/263 203/203/203 257/257/257
f 238/238/238 263/263/263 257/257/257
f 238/238/238 250/250/250 263/263/263
f 218/218/218 230/230/230 241/241/241
f 241/241/241 227/227/227 207/207/207
f 241/241/241 230/230/230 227/227/227
g condoInt044
s 1
f 264/264/264 265/265/265 266/266/266
f 267/267/267 268/268/268 269/269/269
f 265/265/265 270/270/270 266/266/266
f 267/267/267 271/271/271 268/268/268
f 271/271/271 270/270/270 265/265/265
f 272/272/272 273/273/273 274/274/274
f 275/275/275 276/276/276 277/277/277
f 278/278/278 279/279/279 276/276/276
f 278/278/278 276/276/276 275/275/275
f 280/280/280 281/281/281 282/282/282
f 268/268/268 271/271/271 265/265/265
f 269/269/269 268/268/268 265/265/265
f 280/280/280 282/282/282 283/283/283
f 284/284/284 285/285/285 273/273/273
f 286/286/286 287/287/287 288/288/288
f 289/289/289 287/287/287 286/286/286
f 290/290/290 285/285/285 284/284/284
f 291/291/291 292/292/292 286/286/286
f 283/283/283 282/282/282 278/278/278
f 282/282/282 281/281/281 278/278/278
f 275/275/275 277/277/277 293/293/293
f 294/294/294 275/275/275 293/293/293
f 294/294/294 293/293/293 295/295/295
f 291/291/291 296/296/296 292/292/292
f 296/296/296 289/289/289 292/292/292
f 292/292/292 289/289/289 286/286/286
f 290/290/290 284/284/284 272/272/272
f 266/266/266 297/297/297 298/298/298
f 299/299/299 300/300/300 301/301/301
f 299/299/299 302/302/302 300/300/300
f 283/283/283 278/278/278 275/275/275
f 281/281/281 279/279/279 278/278/278
f 283/283/283 301/301/301 280/280/280
f 303/303/303 281/281/281 280/280/280
f 302/302/302 304/304/304 305/305/305
f 305/305/305 285/285/285 301/301/301
f 302/302/302 305/305/305 300/300/300
f 300/300/300 305/305/305 301/301/301
f 283/283/283 275/275/275 294/294/294
f 295/295/295 306/306/306 294/294/294
f 304/304/304 307/307/307 308/308/308
f 308/308/308 307/307/307 285/285/285
f 309/309/309 310/310/310 296/296/296
f 311/311/311 309/309/309 291/291/291
f 309/309/309 296/296/296 291/291/291
f 312/312/312 313/313/313 296/296/296
f 296/296/296 314/314/314 289/289/289
f 305/305/305 308/308/308 285/285/285
f 310/310/310 312/312/312 296/296/296
f 305/305/305 304/304/304 308/308/308
f 296/296/296 313/313/313 314/314/314
f 315/315/315 316/316/316 317/317/317
f 297/297/297 316/316/316 315/315/315
f 306/306/306 302/302/302 299/299/299
f 283/283/283 299/299/299 301/301/301
f 298/298/298 297/297/297 315/315/315
f 273/273/273 318/318/318 274/274/274
f 273/273/273 319/319/319 318/318/318
f 298/298/298 315/315/315 317/317/317
f 270/270/270 320/320/320 321/321/321
f 297/297/297 321/321/321 316/316/316
f 321/321/321 320/320/320 316/316/316
f 280/280/280 301/301/301 322/322/322
f 280/280/280 322/322/322 303/303/303
f 322/322/322 290/290/290 303/303/303
f 301/301/301 290/290/290 322/322/322
f 323/323/323 324/324/324 311/311/311
f 323/323/323 310/310/310 324/324/324
f 324/324/324 310/310/310 309/309/309
f 311/311/311 324/324/324 309/309/309
f 301/301/301 285/285/285 290/290/290
f 303/303/303 290/290/290 272/272/272
f 285/285/285 319/319/319 273/273/273
f 325/325/325 326/326/326 327/327/327
f 328/328/328 329/329/329 330/330/330
f 328/328/328 330/330/330 331/331/331
f 332/332/332 323/323/323 333/333/333
f 333/333/333 323/323/323 311/311/311
f 333/333/333 311/311/311 328/328/328
f 332/332/332 333/333/333 328/328/328
f 331/331/331 330/330/330 334/334/334
f 266/266/266 335/335/335 297/297/297
f 332/332/332 328/328/328 336/336/336
f 337/337/337 338/338/338 320/320/320
f 330/330/330 329/329/329 334/334/334
f 336/336/336 328/328/328 331/331/331
f 266/266/266 270/270/270 335/335/335
f 339/339/339 340/340/340 325/325/325
f 341/341/341 337/337/337 270/270/270
f 342/342/342 341/341/341 270/270/270
f 331/331/331 334/334/334 343/343/343
f 340/340/340 269/269/269 325/325/325
f 343/343/343 334/334/334 339/339/339
f 344/344/344 269/269/269 334/334/334
f 329/329/329 344/344/344 334/334/334
f 329/329/329 267/267/267 344/344/344
f 344/344/344 267/267/267 269/269/269
f 345/345/345 286/286/286 267/267/267
f 329/329/329 345/345/345 267/267/267
f 329/329/329 291/291/291 345/345/345
f 345/345/345 291/291/291 286/286/286
f 267/267/267 346/346/346 271/271/271
f 267/267/267 286/286/286 346/346/346
f 286/286/286 288/288/288 346/346/346
f 346/346/346 288/288/288 271/271/271
f 334/334/334 340/340/340 339/339/339
f 334/334/334 269/269/269 340/340/340
f 269/269/269 265/265/265 264/264/264
f 325/325/325 269/269/269 264/264/264
f 325/325/325 264/264/264 266/266/266
f 271/271/271 342/342/342 270/270/270
f 293/293/293 277/277/277 347/347/347
f 293/293/293 347/347/347 295/295/295
f 328/328/328 311/311/311 348/348/348
f 276/276/276 279/279/279 349/349/349
f 276/276/276 349/349/349 277/277/277
f 328/328/328 348/348/348 329/329/329
f 348/348/348 291/291/291 329/329/329
f 272/272/272 284/284/284 273/273/273
f 311/311/311 291/291/291 348/348/348
f 294/294/294 350/350/350 283/283/283
f 294/294/294 306/306/306 350/350/350
f 306/306/306 299/299/299 350/350/350
f 350/350/350 299/299/299 283/283/283
f 304/304/304 351/351/351 307/307/307
f 307/307/307 351/351/351 319/319/319
f 285/285/285 307/307/307 319/319/319
f 352/352/352 298/298/298 317/317/317
f 270/270/270 337/337/337 320/320/320
f 270/270/270 321/321/321 335/335/335
f 339/339/339 325/325/325 353/353/353
f 335/335/335 321/321/321 297/297/297
f 353/353/353 325/325/325 327/327/327
f 327/327/327 298/298/298 352/352/352
f 327/327/327 326/326/326 298/298/298
f 326/326/326 266/266/266 298/298/298
f 325/325/325 266/266/266 326/326/326
g condoInt045
s 1
f 354/354/354 355/355/355 356/356/356
f 357/357/357 358/358/358 359/359/359
f 360/360/360 361/361/361 362/362/362
f 363/363/363 364/364/364 360/360/360
f 365/365/365 366/366/366 367/367/367
f 359/359/359 358/358/358 354/354/354
f 356/356/356 368/368/368 369/369/369
f 362/362/362 361/361/361 370/370/370
f 355/355/355 368/368/368 356/356/356
f 371/371/371 372/372/372 373/373/373
f 374/374/374 365/365/365 375/375/375
f 354/354/354 356/356/356 369/369/369
f 366/366/366 376/376/376 367/367/367
f 362/362/362 370/370/370 377/377/377
f 376/376/376 378/378/378 379/379/379
f 380/380/380 381/381/381 382/382/382
f 369/369/369 381/381/381 380/380/380
f 383/383/383 369/369/369 380/380/380
f 383/383/383 380/380/380 382/382/382
f 384/384/384 385/385/385 386/386/386
f 377/377/377 370/370/370 387/387/387
f 388/388/388 389/389/389 390/390/390
f 387/387/387 391/391/391 377/377/377
f 377/377/377 391/391/391 362/362/362
f 384/384/384 392/392/392 385/385/385
f 391/391/391 393/393/393 394/394/394
f 371/371/371 395/395/395 372/372/372
f 362/362/362 391/391/391 394/394/394
f 386/386/386 385/385/385 396/396/396
f 387/387/387 397/397/397 391/391/391
f 385/385/385 392/392/392 396/396/396
f 354/354/354 398/398/398 399/399/399
f 388/388/388 400/400/400 355/355/355
f 399/399/399 355/355/355 354/354/354
f 355/355/355 401/401/401 402/402/402
f 403/403/403 404/404/404 395/395/395
f 403/403/403 405/405/405 404/404/404
f 388/388/388 355/355/355 399/399/399
f 363/363/363 360/360/360 406/406/406
f 406/406/406 394/394/394 363/363/363
f 362/362/362 394/394/394 406/406/406
f 360/360/360 364/364/364 407/407/407
f 360/360/360 407/407/407 361/361/361
f 407/407/407 403/403/403 361/361/361
f 364/364/364 403/403/403 407/407/407
f 374/374/374 408/408/408 365/365/365
f 408/408/408 366/366/366 365/365/365
f 409/409/409 408/408/408 374/374/374
f 365/365/365 367/367/367 410/410/410
f 365/365/365 410/410/410 375/375/375
f 411/411/411 412/412/412 413/413/413
f 414/414/414 415/415/415 416/416/416
f 414/414/414 379/379/379 415/415/415
f 415/415/415 379/379/379 417/417/417
f 416/416/416 415/415/415 417/417/417
f 418/418/418 419/419/419 420/420/420
f 418/418/418 374/374/374 419/419/419
f 419/419/419 374/374/374 421/421/421
f 422/422/422 375/375/375 410/410/410
f 422/422/422 410/410/410 367/367/367
f 420/420/420 419/419/419 421/421/421
f 423/423/423 424/424/424 425/425/425
f 423/423/423 425/425/425 375/375/375
f 426/426/426 409/409/409 418/418/418
f 427/427/427 426/426/426 418/418/418
f 421/421/421 375/375/375 425/425/425
f 421/421/421 425/425/425 424/424/424
f 428/428/428 366/366/366 408/408/408
f 409/409/409 428/428/428 408/408/408
f 399/399/399 398/398/398 429/429/429
f 399/399/399 429/429/429 388/388/388
f 388/388/388 429/429/429 386/386/386
f 429/429/429 398/398/398 386/386/386
f 390/390/390 389/389/389 430/430/430
f 401/401/401 431/431/431 402/402/402
f 432/432/432 433/433/433 417/417/417
f 378/378/378 432/432/432 417/417/417
f 366/366/366 434/434/434 376/376/376
f 434/434/434 378/378/378 376/376/376
f 435/435/435 401/401/401 355/355/355
f 400/400/400 435/435/435 355/355/355
f 368/368/368 402/402/402 436/436/436
f 368/368/368 436/436/436 381/381/381
f 383/383/383 359/359/359 354/354/354
f 387/387/387 370/370/370 373/373/373
f 383/383/383 357/357/357 359/359/359
f 398/398/398 384/384/384 386/386/386
f 364/364/364 405/405/405 403/403/403
f 361/361/361 403/403/403 395/395/395
f 420/420/420 421/421/421 424/424/424
f 374/374/374 375/375/375 421/421/421
f 427/427/427 418/418/418 420/420/420
f 418/418/418 409/409/409 374/374/374
f 416/416/416 417/417/417 433/433/433
f 378/378/378 417/417/417 379/379/379
f 358/358/358 384/384/384 398/398/398
f 437/437/437 414/414/414 416/416/416
f 358/358/358 392/392/392 384/384/384
f 414/414/414 411/411/411 379/379/379
f 438/438/438 423/423/423 422/422/422
f 438/438/438 422/422/422 367/367/367
f 423/423/423 375/375/375 422/422/422
f 411/411/411 413/413/413 379/379/379
f 376/376/376 379/379/379 413/413/413
f 376/376/376 413/413/413 367/367/367
f 439/439/439 438/438/438 367/367/367
f 440/440/440 438/438/438 439/439/439
f 440/440/440 439/439/439 411/411/411
f 394/394/394 393/393/393 441/441/441
f 394/394/394 441/441/441 363/363/363
f 388/388/388 386/386/386 389/389/389
f 382/382/382 357/357/357 383/383/383
f 354/354/354 369/369/369 383/383/383
f 354/354/354 358/358/358 398/398/398
f 357/357/357 392/392/392 358/358/358
f 355/355/355 402/402/402 368/368/368
f 369/369/369 368/368/368 381/381/381
f 386/386/386 396/396/396 389/389/389
f 442/442/442 411/411/411 414/414/414
f 437/437/437 442/442/442 414/414/414
f 437/437/437 440/440/440 442/442/442
f 442/442/442 440/440/440 411/411/411
f 411/411/411 439/439/439 412/412/412
f 412/412/412 439/439/439 367/367/367
f 412/412/412 367/367/367 413/413/413
f 370/370/370 361/361/361 371/371/371
f 370/370/370 371/371/371 373/373/373
f 361/361/361 395/395/395 371/371/371
f 406/406/406 360/360/360 362/362/362
