# Exported using wow.export v0.2.19
o darnassis_condoInt06.obj
v -7.130687713623047 -3.9089159965515137 431.2496337890625
v -4.111682415008545 -3.9116811752319336 430.94244384765625
v -3.6184768676757812 -3.913320779800415 433.9183654785156
v -1.092677354812622 -3.9144461154937744 430.6352233886719
v -4.604887962341309 -3.910041332244873 427.96649169921875
v -1.5858829021453857 -3.912806510925293 427.6593017578125
v 1.433122158050537 -3.915571451187134 427.3520812988281
v -2.0790886878967285 -3.9111666679382324 424.683349609375
v -11.278759956359863 -10.195314407348633 437.48443603515625
v -11.982955932617188 -10.195272445678711 438.4094543457031
v -9.992878913879395 -10.188045501708984 439.1922607421875
v -8.706997871398926 -10.180777549743652 440.9000549316406
v -9.28868293762207 -10.188087463378906 438.2672119140625
v -11.860445022583008 -10.202624320983887 434.8515930175781
v -12.564641952514648 -10.202582359313965 435.776611328125
v -9.15143871307373 -3.906312942504883 437.519775390625
v -8.646390914916992 -3.9048352241516113 440.50677490234375
v -10.408417701721191 -3.904191493988037 439.1668701171875
v -12.17044448852539 -3.903548002243042 437.82696533203125
v -13.850522994995117 -10.209850311279297 434.06878662109375
v -13.268836975097656 -10.20254135131836 436.70166015625
v -7.894460201263428 -3.9084343910217285 435.8726806640625
v -9.656486511230469 -3.9077906608581543 434.53277587890625
v -6.132433891296387 -3.9090781211853027 437.21258544921875
v -6.637481689453125 -3.910555839538574 434.2255859375
v -9.870367050170898 -10.19539737701416 435.6343688964844
v -8.58448600769043 -10.188129425048828 437.3421630859375
v -7.638237953186035 -10.189680099487305 436.1390380859375
v -12.442130088806152 -10.20993423461914 432.21875
v -11.156248092651367 -10.202665328979492 433.92657470703125
v -12.675491333007812 -3.9050257205963135 434.8399658203125
v -13.168697357177734 -3.903386116027832 431.864013671875
v -11.412591934204102 -3.905588388442993 433.1983947753906
v -10.14969253540039 -3.906151056289673 431.55682373046875
v -8.92411994934082 -10.196948051452637 434.43121337890625
v -4.444534778594971 -10.204227447509766 428.63079833984375
v -4.64638614654541 -10.210409164428711 425.51409912109375
v -5.598610877990723 -10.210294723510742 426.76629638671875
v -6.752686977386475 -10.216362953186035 424.9017639160156
v -6.550835609436035 -10.210182189941406 428.01849365234375
v -0.43378376960754395 -10.198500633239746 426.7387390136719
v -3.6941609382629395 -10.210521697998047 424.26190185546875
v -2.5400848388671875 -10.20445442199707 426.12640380859375
v -4.848237037658691 -10.21658992767334 422.3973693847656
v -8.658520698547363 -9.254923820495605 427.3961181640625
v -6.645810127258301 -9.254924774169922 424.78692626953125
v -6.9820170402526855 -9.254924774169922 424.5313720703125
v -4.63309907913208 -9.254924774169922 422.177734375
v -4.63309907913208 -9.254924774169922 422.177734375
v -6.645810127258301 -9.254924774169922 424.78692626953125
v -8.658520698547363 -9.57785701751709 427.3961486816406
v -8.658520698547363 -9.254923820495605 427.3961181640625
v -6.9820170402526855 -9.577857971191406 424.5314025878906
v -4.63309907913208 -9.577857971191406 422.177734375
v -6.645810127258301 -9.577857971191406 424.78692626953125
v -8.658520698547363 -9.57785701751709 427.3961486816406
v -13.090080261230469 -10.16269302368164 431.64556884765625
v -14.174497604370117 -10.186229705810547 433.7822265625
v -14.222702026367188 -9.254924774169922 433.8302001953125
v -12.434539794921875 -9.254923820495605 432.2010498046875
v -13.091888427734375 -9.254923820495605 431.67071533203125
v -16.025928497314453 -9.254924774169922 435.4786071777344
v -15.353515625 -9.254924774169922 435.98968505859375
v -13.091888427734375 -9.57785701751709 431.67071533203125
v -12.43454647064209 -9.57785701751709 432.2010498046875
v -14.222702026367188 -9.577857971191406 433.8302001953125
v -15.353515625 -9.577857971191406 435.98968505859375
v -16.025928497314453 -9.577857971191406 435.4786071777344
v -15.916996002197266 -10.16450023651123 435.41851806640625
v -15.258914947509766 -10.20976734161377 435.9188537597656
v -9.672887802124023 -10.1445894241333 426.6044921875
v -7.591085433959961 -10.15749454498291 424.24981689453125
v -5.850504398345947 -10.14655590057373 421.6359558105469
v -5.509283542633057 -10.17039966583252 421.8951721191406
v -9.339972496032715 -10.1673583984375 426.8463439941406
v -11.663610458374023 -10.143567085266113 429.192138671875
v -13.65433406829834 -10.142544746398926 431.77978515625
v -14.785665512084961 -10.153522491455078 433.5991516113281
v -16.25559425354004 -10.141209602355957 435.1611022949219
v 1.6725172996520996 -10.192546844482422 427.35107421875
v -1.587859869003296 -10.204568862915039 424.87420654296875
v -10.891051292419434 -10.18864631652832 429.53253173828125
v -11.05750846862793 -10.177261352539062 429.41162109375
v -13.932470321655273 -3.902904510498047 436.487060546875
v -15.694497108459473 -3.9022607803344727 435.14715576171875
v -10.642898559570312 -3.9045114517211914 428.58087158203125
v -7.6238932609558105 -3.9072763919830322 428.273681640625
v -8.657136917114258 -10.21613597869873 427.4061584472656
v -7.094104766845703 -10.191974639892578 424.6218566894531
v -8.117098808288574 -3.905636787414551 425.2977294921875
v -9.315868377685547 -9.254923820495605 426.8658142089844
v -5.0980939865112305 -3.9084017276763916 424.99053955078125
v -5.305513381958008 -9.254924774169922 421.6666564941406
v -9.315861701965332 -9.57785701751709 426.8658142089844
v -5.591299533843994 -3.90676212310791 422.01458740234375
v -5.305513381958008 -9.577857971191406 421.6666564941406
v -5.738079071044922 -10.20213794708252 430.327880859375
v -7.844379901885986 -10.208091735839844 429.7155456542969
v -7.031622886657715 -10.200048446655273 432.0249328613281
v -14.503538131713867 -10.163597106933594 433.53204345703125
v -3.631777763366699 -10.196184158325195 430.940185546875
v -2.338233709335327 -10.198273658752441 429.2431335449219
v -1.3860087394714355 -10.198387145996094 427.9909362792969
v -6.218865871429443 -10.192005157470703 434.3343200683594
v -5.406108856201172 -10.183961868286133 436.6437072753906
v -0.3229832649230957 -3.9133691787719727 426.0177001953125
v -2.6410105228424072 -10.207545280456543 424.56805419921875
v -9.736876487731934 -10.204991340637207 432.121826171875
v -10.549633026123047 -10.213035583496094 429.81243896484375
v -6.645810127258301 -9.577857971191406 424.78692626953125
v -4.63309907913208 -9.577857971191406 422.177734375
v -7.31068754196167 -9.577857971191406 424.2662353515625
v -5.305513381958008 -9.577857971191406 421.6666564941406
v -7.31068754196167 -9.577857971191406 424.2662353515625
v -9.315868377685547 -9.254923820495605 426.8658142089844
v -9.315861701965332 -9.57785701751709 426.8658142089844
v -7.310690879821777 -9.254924774169922 424.2662353515625
v -7.310690879821777 -9.254924774169922 424.2662353515625
v -5.305513381958008 -9.254924774169922 421.6666564941406
v -4.925321578979492 -10.19409465789795 432.63726806640625
v -11.381484031677246 -10.153640747070312 429.1250305175781
v -7.424628257751465 -10.168878555297852 424.3707580566406
v -14.558908462524414 -9.577857971191406 433.57464599609375
v -13.091888427734375 -9.57785701751709 431.67071533203125
v -14.558908462524414 -9.577857971191406 433.57464599609375
v -16.025928497314453 -9.254924774169922 435.4786071777344
v -16.025928497314453 -9.577857971191406 435.4786071777344
v -14.558908462524414 -9.254924774169922 433.57464599609375
v -14.558908462524414 -9.254924774169922 433.57464599609375
v -13.091888427734375 -9.254923820495605 431.67071533203125
v -13.894027709960938 -9.254924774169922 434.0953674316406
v -12.434539794921875 -9.254923820495605 432.2010498046875
v -13.894027709960938 -9.254924774169922 434.0953674316406
v -15.353515625 -9.577857971191406 435.98968505859375
v -15.353515625 -9.254924774169922 435.98968505859375
v -13.894031524658203 -9.577857971191406 434.0953674316406
v -13.894031524658203 -9.577857971191406 434.0953674316406
v -12.43454647064209 -9.57785701751709 432.2010498046875
v -6.259555339813232 -10.223370552062988 422.9708557128906
v -5.833078861236572 -9.559688568115234 423.4750061035156
v -6.279927730560303 -9.559688568115234 423.1354675292969
v -5.69155216217041 -10.223370552062988 423.3943786621094
v -5.69155216217041 -10.223370552062988 423.3943786621094
v -5.81606912612915 -9.559688568115234 422.9859924316406
v -5.833078861236572 -9.559688568115234 423.4750061035156
v -5.670901775360107 -10.223370552062988 422.7879638671875
v -5.670901775360107 -10.223370552062988 422.7879638671875
v -6.279927730560303 -9.559688568115234 423.1354675292969
v -5.81606912612915 -9.559688568115234 422.9859924316406
v -6.259555339813232 -10.223370552062988 422.9708557128906
v -7.727856159210205 -9.559688568115234 425.9012756347656
v -8.320310592651367 -10.223370552062988 425.60968017578125
v -8.165532112121582 -9.559688568115234 425.5500183105469
v -7.771767616271973 -10.223370552062988 426.0581359863281
v -8.198159217834473 -9.559688568115234 426.0362854003906
v -7.771767616271973 -10.223370552062988 426.0581359863281
v -7.727856159210205 -9.559688568115234 425.9012756347656
v -8.355111122131348 -10.223370552062988 426.2251281738281
v -8.165532112121582 -9.559688568115234 425.5500183105469
v -8.355111122131348 -10.223370552062988 426.2251281738281
v -8.198159217834473 -9.559688568115234 426.0362854003906
v -8.320310592651367 -10.223370552062988 425.60968017578125
v -14.022549629211426 -9.559688568115234 433.16558837890625
v -13.43009090423584 -10.223370552062988 433.4571838378906
v -13.58487319946289 -9.559688568115234 433.5168151855469
v -13.97863483428955 -10.223370552062988 433.0086975097656
v -13.55224609375 -9.559688568115234 433.0305480957031
v -13.97863483428955 -10.223370552062988 433.0086975097656
v -14.022549629211426 -9.559688568115234 433.16558837890625
v -13.395294189453125 -10.223370552062988 432.8417053222656
v -13.58487319946289 -9.559688568115234 433.5168151855469
v -13.395294189453125 -10.223370552062988 432.8417053222656
v -13.55224609375 -9.559688568115234 433.0305480957031
v -13.43009090423584 -10.223370552062988 433.4571838378906
v -14.848175048828125 -10.223370552062988 435.1878356933594
v -15.274649620056152 -9.559688568115234 434.6837158203125
v -14.827799797058105 -9.559688568115234 435.0232238769531
v -15.416176795959473 -10.223370552062988 434.7643127441406
v -15.416176795959473 -10.223370552062988 434.7643127441406
v -15.29166030883789 -9.559688568115234 435.1726989746094
v -15.274649620056152 -9.559688568115234 434.6837158203125
v -15.436826705932617 -10.223370552062988 435.3707580566406
v -15.436826705932617 -10.223370552062988 435.3707580566406
v -14.827799797058105 -9.559688568115234 435.0232238769531
v -15.29166030883789 -9.559688568115234 435.1726989746094
v -14.848175048828125 -10.223370552062988 435.1878356933594
v -13.091888427734375 -9.254923820495605 431.67071533203125
v -12.434539794921875 -9.254923820495605 432.2010498046875
v -12.43454647064209 -9.57785701751709 432.2010498046875
v -13.091888427734375 -9.57785701751709 431.67071533203125
v -9.315861701965332 -9.57785701751709 426.8658142089844
v -8.658520698547363 -9.57785701751709 427.3961486816406
v -8.658520698547363 -9.254923820495605 427.3961181640625
v -9.315868377685547 -9.254923820495605 426.8658142089844
v -0.3560175895690918 -4.693884372711182 425.9696044921875
v -0.32298362255096436 -3.9133691787719727 426.0177001953125
v -2.0790889263153076 -3.9111666679382324 424.683349609375
v -15.266091346740723 -9.24168586730957 435.84564208984375
v -15.480294227600098 -6.5719733238220215 435.49639892578125
v -13.664716720581055 -7.240045070648193 436.9236145019531
v -11.849140167236328 -7.908116817474365 438.350830078125
v -11.956241607666016 -6.573260307312012 438.17620849609375
v -15.694497108459473 -3.9022607803344727 435.14715576171875
v -13.87891960144043 -4.5703325271606445 436.5743713378906
v -12.063343048095703 -5.238404273986816 438.0015869140625
v -12.17044448852539 -3.903548002243042 437.82696533203125
v -0.1544179916381836 -8.221118927001953 426.0201721191406
v -1.6098217964172363 -9.404603958129883 424.88067626953125
v 1.6578760147094727 -9.659236907958984 427.3553771972656
v -10.136178970336914 -7.846383094787598 439.6492004394531
v -10.27537727355957 -9.407478332519531 439.65289306640625
v -11.843757629394531 -8.634178161621094 438.40576171875
v -8.706997871398926 -10.180777549743652 440.9000549316406
v -11.982955932617188 -10.195272445678711 438.4094543457031
v -1.788266897201538 -8.093801498413086 424.7828369140625
v 1.3009858131408691 -7.037633419036865 427.15966796875
v -3.8682281970977783 -4.689479827880859 423.30084228515625
v -5.234409332275391 -6.5283660888671875 422.2102966308594
v -2.1451568603515625 -5.472197532653809 424.5871276855469
v -5.591299533843994 -3.90676212310791 422.01458740234375
v -4.877519607543945 -9.149970054626465 422.406005859375
v -3.511338233947754 -7.311083793640137 423.49658203125
v -4.848237037658691 -10.21658992767334 422.3973693847656
v 1.433121681213379 -3.915571451187134 427.3520812988281
v -15.916996002197266 -10.16450023651123 435.41851806640625
v -15.941791534423828 -9.209614753723145 435.3328552246094
v -1.5951805114746094 -9.93791389465332 424.8763732910156
v 1.6725172996520996 -10.192546844482422 427.35107421875
v -15.258914947509766 -10.20976734161377 435.9188537597656
v -13.551336288452148 -9.421972274780273 437.16229248046875
v -13.554924011230469 -8.937932014465332 437.1257019042969
v -12.701135635375977 -8.544034957885742 437.7474365234375
v -8.42859935760498 -7.05858850479126 440.89263916015625
v -11.847345352172852 -8.150136947631836 438.369140625
v -10.140664100646973 -7.241332054138184 439.6034240722656
v -16.25559425354004 -10.141209602355957 435.1611022949219
v -15.975046157836914 -7.021735191345215 435.15411376953125
v -15.818143844604492 -6.555937767028809 435.239990234375
v -5.552867889404297 -6.568732261657715 421.966552734375
v -0.4220855236053467 -6.254915237426758 425.8734130859375
v -5.514435768127441 -9.23070240020752 421.91851806640625
v -5.850504398345947 -10.14655590057373 421.6359558105469
v -5.509283542633057 -10.17039966583252 421.8951721191406
v -13.932470321655273 -3.902904510498047 436.487060546875
v -1.587859869003296 -10.204568862915039 424.87420654296875
v -13.718267440795898 -6.5726165771484375 436.8363037109375
v -2.1121230125427246 -4.691681861877441 424.6352233886719
v -2.973658561706543 -4.300323486328125 423.9920959472656
v -12.864029884338379 -6.239224433898926 437.46258544921875
v -10.194214820861816 -6.573904037475586 439.51611328125
v -10.354866981506348 -4.571619987487793 439.2541809082031
v -10.408417701721191 -3.904191493988037 439.1668701171875
v -8.646390914916992 -3.9048352241516113 440.50677490234375
v -13.771818161010742 -5.90518856048584 436.7489929199219
v -13.557615280151367 -8.574901580810547 437.0982360839844
v -10.24776554107666 -5.906476020812988 439.4288024902344
v 3.9806694984436035 -10.180412292480469 431.0801086425781
v 1.87436842918396 -10.186366081237793 430.4677734375
v 0.5808243751525879 -10.184276580810547 432.16485595703125
v 1.6725172996520996 -10.192546844482422 427.35107421875
v -0.2319326400756836 -10.192319869995117 429.85546875
v 0.1000373363494873 -10.17414379119873 436.1712951660156
v -1.1935067176818848 -10.172054290771484 437.86834716796875
v 2.206338405609131 -10.168190002441406 436.78363037109375
v -6.132433891296387 -3.9090781211853027 437.21258544921875
v -2.6083803176879883 -3.910365104675293 439.89239501953125
v -5.62738561630249 -3.907600164413452 440.1995849609375
v -2.103332042694092 -3.9088873863220215 442.87939453125
v -1.5982840061187744 -3.90740966796875 445.8664245605469
v -5.122337341308594 -3.9061224460601807 443.18658447265625
v -7.298604965209961 -10.18086051940918 439.04998779296875
v -8.706997871398926 -10.180777549743652 440.9000549316406
v -6.716920375823975 -10.173551559448242 441.682861328125
v 1.3935813903808594 -10.176233291625977 434.4742431640625
v -2.0062637329101562 -10.180097579956055 435.5589599609375
v -0.7127196788787842 -10.1821870803833 433.8619079589844
v -2.8190207481384277 -10.188140869140625 433.24957275390625
v -2.338233709335327 -10.198273658752441 429.2431335449219
v -3.631777763366699 -10.196184158325195 430.940185546875
v -0.43378376960754395 -10.198500633239746 426.7387390136719
v -1.3860087394714355 -10.198387145996094 427.9909362792969
v -3.780594825744629 -10.167875289916992 441.2624816894531
v -4.726842880249023 -10.166324615478516 442.46563720703125
v -2.9678378105163574 -10.159832000732422 443.5718688964844
v -1.092677354812622 -3.9144461154937744 430.6352233886719
v 1.433122158050537 -3.915571451187134 427.3520812988281
v 1.9263277053833008 -3.9172110557556152 430.3280029296875
v 2.4195332527160645 -3.918850898742676 433.303955078125
v 4.9453325271606445 -3.919976234436035 430.02081298828125
v 8.45754337310791 -3.9243807792663574 432.6895751953125
v 5.943586349487305 -3.920137882232666 435.9837951660156
v 5.438538551330566 -3.9216158390045166 432.99676513671875
v 4.932894706726074 -10.180525779724121 429.8279113769531
v 2.8265933990478516 -10.186479568481445 429.215576171875
v 0.915672779083252 -3.9116525650024414 442.57220458984375
v -9.28868293762207 -10.188087463378906 438.2672119140625
v -4.436000347137451 -10.162670135498047 443.78204345703125
v -2.155080556869507 -10.151787757873535 445.8812561035156
v -6.884364128112793 -3.9054789543151855 441.8466796875
v -8.646390914916992 -3.9048352241516113 440.50677490234375
v -3.4409618377685547 -10.159055709838867 444.1734619140625
v -4.5933518409729 -10.175918579101562 438.9530944824219
v -5.406108856201172 -10.183961868286133 436.6437072753906
v -7.638237953186035 -10.189680099487305 436.1390380859375
v -0.8615365028381348 -10.153877258300781 444.1842041015625
v 5.606184005737305 -10.164325714111328 435.6988830566406
v 4.3126397132873535 -10.162236213684082 437.39593505859375
v 3.0190956592559814 -10.160146713256836 439.093017578125
v -3.2998077869415283 -10.178008079528809 437.25604248046875
v -2.487050771713257 -10.169964790344238 439.5654296875
v -0.3807497024536133 -10.164011001586914 440.177734375
v -1.5254766941070557 -10.190230369567871 431.5525207519531
v 4.793426513671875 -10.172369003295898 433.3894958496094
v 3.499882698059082 -10.170279502868652 435.0865478515625
v 3.189227342605591 -3.917773723602295 428.68646240234375
v -6.012723922729492 -10.173592567443848 440.7578125
v 6.701437950134277 -3.9221785068511963 431.3551940917969
v -0.5994718074798584 -3.916085720062256 433.61114501953125
v 0.6634279489517212 -3.9166483879089355 431.9696044921875
v -8.58448600769043 -10.188129425048828 437.3421630859375
v 2.924581527709961 -3.9173731803894043 436.2909851074219
v 4.1815595626831055 -3.919494390487671 434.64385986328125
v -9.992878913879395 -10.188045501708984 439.1922607421875
v 1.7255516052246094 -10.15805721282959 440.7900695800781
v 0.4320075511932373 -10.155967712402344 442.48712158203125
v 3.4296298027038574 -3.9158952236175537 439.27801513671875
v 0.41062474250793457 -3.913130283355713 439.585205078125
v -0.09442353248596191 -3.9146080017089844 436.59820556640625
v 0.9127943515777588 -10.16610050201416 438.4806823730469
v 8.19327163696289 -10.16850471496582 432.30474853515625
v 6.086970329284668 -10.174458503723145 431.69244384765625
v 2.6871254444122314 -10.178322792053223 432.77716064453125
v -6.218865871429443 -10.192005157470703 434.3343200683594
v -4.112565040588379 -10.186051368713379 434.9466552734375
v -4.925321578979492 -10.19409465789795 432.63726806640625
v 6.899727821350098 -10.166415214538574 434.0018310546875
v -1.6742935180664062 -10.161921501159668 441.87481689453125
v -3.1134285926818848 -3.9118428230285645 436.9053955078125
v -3.6184768676757812 -3.913320779800415 433.9183654785156
v 1.9638526439666748 -6.255415439605713 440.9306640625
v 3.151231527328491 -7.038084030151367 439.285400390625
v 1.8246535062789917 -7.816510200500488 440.9343566894531
v 0.7764737606048584 -5.472746849060059 442.575927734375
v 4.617008209228516 -4.698564052581787 437.63275146484375
v 5.804387092590332 -5.481232643127441 435.98748779296875
v 4.477809429168701 -6.259658336639404 437.6364440917969
v 3.4296295642852783 -3.9158952236175537 439.27801513671875
v 5.943586349487305 -3.920137882232666 435.9837951660156
v -0.6893033981323242 -7.812267303466797 444.22857666015625
v 0.4980754852294922 -8.59493637084961 442.58331298828125
v -0.8285025358200073 -9.373361587524414 444.2322998046875
v -1.8766822814941406 -7.029598712921143 445.87384033203125
v -0.5501042604446411 -6.25117301940918 444.224853515625
v 6.9327616691589355 -9.385899543762207 434.0499267578125
v 6.998829364776611 -7.824868679046631 434.1461181640625
v 8.325407028198242 -7.046442985534668 432.4971618652344
v 5.6722517013549805 -8.603294372558594 435.7950744628906
v 7.064897537231445 -6.263837814331055 434.2423095703125
v 7.130965232849121 -4.70280647277832 434.3385314941406
v 8.45754337310791 -3.9243807792663574 432.6895751953125
v 3.0190954208374023 -10.160146713256836 439.093017578125
v 1.7255513668060303 -10.15805721282959 440.7900695800781
v 1.7585854530334473 -9.377541542053223 440.8381652832031
v 1.3009858131408691 -7.037633419036865 427.15966796875
v -0.1544179916381836 -8.221118927001953 426.0201721191406
v 1.6578760147094727 -9.659236907958984 427.3553771972656
v 0.4320073127746582 -10.155967712402344 442.48712158203125
v 4.925573825836182 -9.913870811462402 429.830078125
v 4.932894706726074 -10.180525779724121 429.8279113769531
v 8.19327163696289 -10.16850471496582 432.30474853515625
v 1.6725172996520996 -10.192546844482422 427.35107421875
v -10.194214820861816 -6.573904037475586 439.51611328125
v -10.24776554107666 -5.906476020812988 439.4288024902344
v -8.432188034057617 -6.57454776763916 440.85601806640625
v -10.140664100646973 -7.241332054138184 439.6034240722656
v 0.915672779083252 -3.9116525650024414 442.57220458984375
v 2.1030516624450684 -4.694321155548096 440.9269714355469
v 4.411741733551025 -7.8206892013549805 437.54022216796875
v 3.024057149887085 -7.820351600646973 428.4459228515625
v 4.747128486633301 -8.603069305419922 429.7322082519531
v 3.090125322341919 -6.259320259094238 428.5421447753906
v -1.5982840061187744 -3.90740966796875 445.8664245605469
v -2.155080556869507 -10.151787757873535 445.8812561035156
v 5.6061835289001465 -10.164325714111328 435.6988830566406
v 8.19327163696289 -10.16850471496582 432.30474853515625
v 4.879264831542969 -5.481007099151611 429.92462158203125
v 6.6684041023254395 -4.702693939208984 431.3070983886719
v 4.9453325271606445 -3.919976234436035 430.02081298828125
v 6.899727821350098 -10.166415214538574 434.0018310546875
v 8.325407028198242 -7.046442985534668 432.4971618652344
v 8.45754337310791 -3.9243807792663574 432.6895751953125
v 6.701437950134277 -3.9221785068511963 431.3551940917969
v 3.156193256378174 -4.698289394378662 428.63836669921875
v 3.1892271041870117 -3.917773723602295 428.68646240234375
v 1.433121681213379 -3.915571451187134 427.3520812988281
v -8.42859935760498 -7.05858850479126 440.89263916015625
v -0.8615366220474243 -10.153877258300781 444.1842041015625
v -5.013441562652588 -5.482998847961426 443.3795166015625
v -5.291840076446533 -8.605188369750977 443.386962890625
v -6.721020698547363 -6.270793914794922 442.1360778808594
v 4.312639236450195 -10.162236213684082 437.39593505859375
v 4.345673561096191 -9.381720542907715 437.44403076171875
v -6.860219955444336 -7.831888198852539 442.1398010253906
v -6.999419212341309 -9.392982482910156 442.14349365234375
v -6.830813407897949 -4.572906970977783 441.9339904785156
v -6.884364128112793 -3.9054789543151855 441.8466796875
v -5.122337341308594 -3.9061224460601807 443.18658447265625
v -8.646390914916992 -3.9048352241516113 440.50677490234375
v -10.136178970336914 -7.846383094787598 439.6492004394531
v -8.706997871398926 -10.180777549743652 440.9000549316406
v -10.27537727355957 -9.407478332519531 439.65289306640625
v 6.6023359298706055 -6.263725280761719 431.21087646484375
v 6.53626823425293 -7.824755668640137 431.11468505859375
v 6.470200061798096 -9.385787010192871 431.01849365234375
v -6.723711967468262 -5.907763481140137 442.1086120605469
v -5.015235900878906 -5.240978717803955 443.3612060546875
v -3.3058629035949707 -4.695204257965088 444.62298583984375
v -3.306759834289551 -4.574193954467773 444.61383056640625
v -1.5982840061187744 -3.90740966796875 445.8664245605469
v -3.7234601974487305 -9.378488540649414 444.63409423828125
v -2.155080556869507 -10.151787757873535 445.8812561035156
v -4.577249526977539 -9.772384643554688 444.01239013671875
v -3.584260940551758 -7.8173933029174805 444.63037109375
v -1.8766822814941406 -7.029598712921143 445.87384033203125
v -3.4450619220733643 -6.256299018859863 444.6266784667969
v -10.354866981506348 -4.571619987487793 439.2541809082031
v -0.410905122756958 -4.690078258514404 444.22119140625
vn -0.0009557555895298719 -0.999999463558197 -0.000392651476431638
vn -0.0009557555895298719 -0.999999463558197 -0.000392651476431638
vn -0.0009557555895298719 -0.999999463558197 -0.000392651476431638
vn -0.0009557555895298719 -0.999999463558197 -0.000392651476431638
vn -0.0009557555895298719 -0.999999463558197 -0.000392651476431638
vn -0.0009557555895298719 -0.999999463558197 -0.000392651476431638
vn -0.0009557555895298719 -0.999999463558197 -0.000392651476431638
vn -0.0009557555895298719 -0.999999463558197 -0.000392651476431638
vn -0.0027809657622128725 0.9999938011169434 -0.0021619643084704876
vn -0.0027809657622128725 0.9999938011169434 -0.0021619643084704876
vn -0.0027809657622128725 0.9999938011169434 -0.0021619643084704876
vn -0.0027809657622128725 0.9999938011169434 -0.0021619643084704876
vn -0.0027809657622128725 0.9999938011169434 -0.0021619643084704876
vn -0.0027809657622128725 0.9999938011169434 -0.0021619643084704876
vn -0.0027809657622128725 0.9999938011169434 -0.0021619643084704876
vn -0.0009295204072259367 -0.9999996423721313 -0.00013482403301168233
vn -0.0009032849920913577 -0.9999995827674866 0.00012300342496018857
vn -0.0009164026705548167 -0.9999996423721313 -0.000005910304025746882
vn -0.0009295204072259367 -0.9999996423721313 -0.00013482403301168233
vn -0.0027809657622128725 0.9999938011169434 -0.0021619643084704876
vn -0.0027809657622128725 0.9999938011169434 -0.0021619643084704876
vn -0.0009426380274817348 -0.9999995231628418 -0.00026373774744570255
vn -0.0009557555895298719 -0.999999463558197 -0.000392651476431638
vn -0.0009295204072259367 -0.9999996423721313 -0.00013482403301168233
vn -0.0009557555895298719 -0.999999463558197 -0.000392651476431638
vn -0.0027809657622128725 0.9999938011169434 -0.0021619643084704876
vn -0.0027809657622128725 0.9999938011169434 -0.0021619643084704876
vn 0.008914759382605553 0.9999377131462097 0.006721066776663065
vn -0.0027809657622128725 0.9999938011169434 -0.0021619643084704876
vn -0.0027809657622128725 0.9999938011169434 -0.0021619643084704876
vn -0.0009557555895298719 -0.999999463558197 -0.000392651476431638
vn -0.0009557555895298719 -0.999999463558197 -0.000392651476431638
vn -0.0009557555895298719 -0.999999463558197 -0.000392651476431638
vn -0.0009557555895298719 -0.999999463558197 -0.000392651476431638
vn 0.008914759382605553 0.9999377131462097 0.006721066776663065
vn 0.032419729977846146 0.9991724491119385 0.024562612175941467
vn 0.038327645510435104 0.9988418221473694 0.029086897149682045
vn 0.03826433792710304 0.9988461136817932 0.029022933915257454
vn 0.044106870889663696 0.9984655976295471 0.03348167985677719
vn 0.03820103034377098 0.998850405216217 0.028958970680832863
vn 0.026763414964079857 0.9994358420372009 0.02029295079410076
vn 0.038390953093767166 0.9988375306129456 0.029150860384106636
vn 0.03254638984799385 0.9991651773452759 0.024690574035048485
vn 0.04423343017697334 0.9984557032585144 0.03360956534743309
vn 7.783381050785465e-8 1 -1.0240629677582547e-7
vn 7.783381050785465e-8 1 -1.0240629677582547e-7
vn 7.783381050785465e-8 1 -1.0240629677582547e-7
vn 7.783381050785465e-8 1 -1.0240629677582547e-7
vn 0.7917969226837158 0 0.6107844710350037
vn 0.7917969226837158 0 0.6107844710350037
vn 0.7917969226837158 0 0.6107844710350037
vn 0.7917969226837158 0 0.6107844710350037
vn -8.10842593068628e-8 -1 1.0050404597450324e-7
vn -7.783379629699994e-8 -1 1.0240628256497075e-7
vn -7.945902780193137e-8 -1 1.01455164269737e-7
vn -8.10842593068628e-8 -1 1.0050404597450324e-7
vn 0.04352627694606781 0.998504102230072 0.03309045359492302
vn 0.020381294190883636 0.9996727108955383 0.01547080185264349
vn -1.0671325156863531e-7 1 1.4039531492926471e-7
vn -1.1132095778521034e-7 1 1.3798246811802528e-7
vn -1.0671325156863531e-7 1 1.4039531492926471e-7
vn -1.0671325156863531e-7 1 1.4039531492926471e-7
vn -1.0671325156863531e-7 1 1.4039531492926471e-7
vn 1.1132095778521034e-7 -1 -1.3798246811802528e-7
vn 1.1132095778521034e-7 -1 -1.3798246811802528e-7
vn 1.1132095778521034e-7 -1 -1.3798246811802528e-7
vn 1.1132095778521034e-7 -1 -1.3798246811802528e-7
vn 1.067132373577806e-7 -1 -1.4039528650755528e-7
vn 0.043526291847229004 0.998504102230072 0.03309053182601929
vn -0.0027809657622128725 0.9999938011169434 -0.0021619643084704876
vn 0.04352627694606781 0.998504102230072 0.03309045359492302
vn 0.043879855424165726 0.9984800219535828 0.03335001319646835
vn 0.0442240871489048 0.9984555244445801 0.0336277037858963
vn 0.04423343017697334 0.9984557032585144 0.03360956534743309
vn 0.04423343017697334 0.9984557032585144 0.03360956534743309
vn 0.04352627694606781 0.998504102230072 0.03309045359492302
vn 0.04352627694606781 0.998504102230072 0.03309045359492302
vn 0.04352628439664841 0.998504102230072 0.0330904945731163
vn 0.043524377048015594 0.9985042214393616 0.03308934345841408
vn 0.020979024469852448 0.9996535778045654 0.01589425466954708
vn 0.0326097197830677 0.9991616010665894 0.024754559621214867
vn 0.020735284313559532 0.9996612071990967 0.015730667859315872
vn 0.020381294190883636 0.9996727108955383 0.01547080185264349
vn -0.0009426380274817348 -0.9999995231628418 -0.00026373774744570255
vn -0.0009557555895298719 -0.999999463558197 -0.000392651476431638
vn -0.0009557555895298719 -0.999999463558197 -0.000392651476431638
vn -0.0009557555895298719 -0.999999463558197 -0.000392651476431638
vn 0.04398030787706375 0.9984754920005798 0.03335379809141159
vn 0.04423343017697334 0.9984557032585144 0.03360956534743309
vn -0.0009557555895298719 -0.999999463558197 -0.000392651476431638
vn 8.10842593068628e-8 1 -1.0050404597450324e-7
vn -0.0009557555895298719 -0.999999463558197 -0.000392651476431638
vn 7.783381050785465e-8 1 -1.0240629677582547e-7
vn -8.10842593068628e-8 -1 1.0050404597450324e-7
vn -0.0009557555895298719 -0.999999463558197 -0.000392651476431638
vn -8.10842593068628e-8 -1 1.0050404597450324e-7
vn 0.03235882893204689 0.9991755485534668 0.02452174201607704
vn 0.03814014047384262 0.998853862285614 0.028918109834194183
vn 0.03229791671037674 0.999178409576416 0.02448086440563202
vn 0.04352628439664841 0.998504102230072 0.0330904945731163
vn 0.02657579816877842 0.9994442462921143 0.020124072209000587
vn 0.026636721566319466 0.9994418621063232 0.020164959132671356
vn 0.02670007012784481 0.9994388818740845 0.020228954032063484
vn 0.026453953236341476 0.9994491934776306 0.02004229836165905
vn 0.020608561113476753 0.9996658563613892 0.015602647326886654
vn -0.0009557555895298719 -0.999999463558197 -0.000392651476431638
vn 0.03550056740641594 0.9990061521530151 0.02695288695394993
vn 0.01476205699145794 0.9998286962509155 0.011162158101797104
vn 0.020608561113476753 0.9996658563613892 0.015602647326886654
vn 0.7917969226837158 0 0.6107844710350037
vn 0.7917969226837158 0 0.6107844710350037
vn -8.10842593068628e-8 -1 1.0050404597450324e-7
vn -0.7918127775192261 0 -0.6107638478279114
vn -0.7918127775192261 0 -0.6107638478279114
vn -0.7918127775192261 0 -0.6107638478279114
vn -0.7918127775192261 0 -0.6107638478279114
vn 7.945903490735873e-8 1 -1.0145517137516435e-7
vn -0.7918127775192261 0 -0.6107638478279114
vn -0.7918127775192261 0 -0.6107638478279114
vn 0.026514874771237373 0.9994467496871948 0.02008318342268467
vn 0.04352627694606781 0.998504102230072 0.03309045359492302
vn 0.04423343017697334 0.9984557032585144 0.03360956534743309
vn 1.0901709401878179e-7 -1 -1.3918887020736292e-7
vn -0.7921316623687744 0 -0.6103502511978149
vn -0.7921316623687744 0 -0.6103502511978149
vn -0.7921316623687744 0 -0.6103502511978149
vn -0.7921316623687744 0 -0.6103502511978149
vn -1.0671325156863531e-7 1 1.4039531492926471e-7
vn -0.7921316623687744 0 -0.6103502511978149
vn -0.7921316623687744 0 -0.6103502511978149
vn -1.090171082296365e-7 1 1.3918889862907236e-7
vn 0.7921570539474487 0 0.6103172898292542
vn 0.7921570539474487 0 0.6103172898292542
vn 0.7921570539474487 0 0.6103172898292542
vn 0.7921570539474487 0 0.6103172898292542
vn 1.1132095778521034e-7 -1 -1.3798246811802528e-7
vn 0.7921570539474487 0 0.6103172898292542
vn 0.7921570539474487 0 0.6103172898292542
vn -0.9851996302604675 0.012164318934082985 -0.17097856104373932
vn 0.4300333261489868 -0.0074456664733588696 0.9027823209762573
vn -0.9857808351516724 0.0009267389541491866 -0.1680334210395813
vn 0.43565213680267334 -0.016422400251030922 0.8999652862548828
vn 0.43565213680267334 -0.016422400251030922 0.8999652862548828
vn 0.566057562828064 0.3474459648132324 -0.7475694417953491
vn 0.4300333261489868 -0.0074456664733588696 0.9027823209762573
vn 0.5659375786781311 0.3469661772251129 -0.7478830814361572
vn 0.5659375786781311 0.3469661772251129 -0.7478830814361572
vn -0.9857808351516724 0.0009267389541491866 -0.1680334210395813
vn 0.566057562828064 0.3474459648132324 -0.7475694417953491
vn -0.9851996302604675 0.012164318934082985 -0.17097856104373932
vn 0.980093240737915 -0.0074182841926813126 0.19839909672737122
vn -0.40464162826538086 0.012181466445326805 -0.914394199848175
vn -0.40190815925598145 0.0008744821534492075 -0.9156795740127563
vn 0.9787201881408691 -0.01640787348151207 0.20454230904579163
vn -0.5881076455116272 0.3474670648574829 0.7303397059440613
vn 0.9787201881408691 -0.01640787348151207 0.20454230904579163
vn 0.980093240737915 -0.0074182841926813126 0.19839909672737122
vn -0.5884691476821899 0.34694668650627136 0.7302958369255066
vn -0.40190815925598145 0.0008744821534492075 -0.9156795740127563
vn -0.5884691476821899 0.34694668650627136 0.7302958369255066
vn -0.5881076455116272 0.3474670648574829 0.7303397059440613
vn -0.40464162826538086 0.012181466445326805 -0.914394199848175
vn -0.9800930023193359 -0.007423103787004948 -0.19839999079704285
vn 0.40464362502098083 0.01218406017869711 0.9143933057785034
vn 0.4019087851047516 0.0008711526752449572 0.9156792759895325
vn -0.97871994972229 -0.016412656754255295 -0.20454318821430206
vn 0.588107705116272 0.3474660813808441 -0.7303401231765747
vn -0.97871994972229 -0.016412656754255295 -0.20454318821430206
vn -0.9800930023193359 -0.007423103787004948 -0.19839999079704285
vn 0.5884684920310974 0.34694671630859375 -0.7302963733673096
vn 0.4019087851047516 0.0008711526752449572 0.9156792759895325
vn 0.5884684920310974 0.34694671630859375 -0.7302963733673096
vn 0.588107705116272 0.3474660813808441 -0.7303401231765747
vn 0.40464362502098083 0.01218406017869711 0.9143933057785034
vn 0.9851997494697571 0.01215923298150301 0.17097829282283783
vn -0.43003469705581665 -0.007449083961546421 -0.90278160572052
vn 0.9857808351516724 0.0009236261248588562 0.1680336892604828
vn -0.4356515407562256 -0.016422536224126816 -0.8999655842781067
vn -0.4356515407562256 -0.016422536224126816 -0.8999655842781067
vn -0.5660580396652222 0.3474459648132324 0.7475691437721252
vn -0.43003469705581665 -0.007449083961546421 -0.90278160572052
vn -0.5659379959106445 0.3469661474227905 0.7478827834129333
vn -0.5659379959106445 0.3469661474227905 0.7478827834129333
vn 0.9857808351516724 0.0009236261248588562 0.1680336892604828
vn -0.5660580396652222 0.3474459648132324 0.7475691437721252
vn 0.9851997494697571 0.01215923298150301 0.17097829282283783
vn 0.6279054880142212 0 -0.7782896161079407
vn 0.6279054880142212 0 -0.7782896161079407
vn 0.6279054880142212 0 -0.7782896161079407
vn 0.6279054880142212 0 -0.7782896161079407
vn -0.6279054880142212 0 0.7782896161079407
vn -0.6279054880142212 0 0.7782896161079407
vn -0.6279054880142212 0 0.7782896161079407
vn -0.6279054880142212 0 0.7782896161079407
vn -0.605420708656311 -0.023233775049448013 0.7955664396286011
vn -0.605420708656311 -0.023233775049448013 0.7955664396286011
vn -0.605533242225647 -0.0231892429292202 0.7954820394515991
vn 0.6043583750724792 -0.0554809644818306 -0.7947784662246704
vn 0.603131890296936 -0.055696967989206314 -0.7956945300102234
vn 0.6037545800209045 -0.055626463145017624 -0.7952272295951843
vn 0.6043767929077148 -0.05555591732263565 -0.7947592735290527
vn 0.6037636995315552 -0.055663932114839554 -0.7952174544334412
vn 0.6019039750099182 -0.05591283738613129 -0.7966086864471436
vn 0.602527379989624 -0.05584239587187767 -0.7961422801017761
vn 0.6031503081321716 -0.05577191710472107 -0.7956753373146057
vn 0.6025365591049194 -0.0558798722922802 -0.7961327433586121
vn -0.6050267219543457 -0.023218415677547455 0.7958665490150452
vn -0.6047451496124268 -0.023158520460128784 0.7960823178291321
vn -0.6047828197479248 -0.023257825523614883 0.7960509061813354
vn 0.6044319868087769 -0.05578076094388962 -0.7947015762329102
vn 0.6044319868087769 -0.05578076094388962 -0.7947015762329102
vn 0.6044319868087769 -0.05578075721859932 -0.7947015762329102
vn 0.6044319868087769 -0.05578076094388962 -0.7947016358375549
vn 0.6044319868087769 -0.05578075721859932 -0.7947015762329102
vn -0.6050079464912415 -0.023168763145804405 0.7958823442459106
vn -0.6053082346916199 -0.023278309032320976 0.7956507802009583
vn -0.6056457757949829 -0.023144710808992386 0.7953976988792419
vn -0.6052330136299133 -0.023079702630639076 0.7957137227058411
vn -0.605533242225647 -0.0231892429292202 0.7954820394515991
vn -0.6057582497596741 -0.023100176826119423 0.7953133583068848
vn -0.6047075390815735 -0.023059215396642685 0.7961137294769287
vn -0.6051205396652222 -0.02312423475086689 0.7957980632781982
vn -0.6047075390815735 -0.023059215396642685 0.7961137294769287
vn -0.6053082346916199 -0.023278309032320976 0.7956507802009583
vn 0.6019300222396851 -0.05585756525397301 -0.7965928316116333
vn 0.6019039750099182 -0.05591283738613129 -0.7966086864471436
vn -0.6047451496124268 -0.023158520460128784 0.7960823178291321
vn -0.6047828197479248 -0.023257825523614883 0.7960509061813354
vn 0.6044319272041321 -0.05578075349330902 -0.7947015166282654
vn 0.6044319868087769 -0.05578075349330902 -0.7947015762329102
vn 0.6043951511383057 -0.05563086271286011 -0.7947400212287903
vn 0.6043951511383057 -0.05563086271286011 -0.7947400212287903
vn 0.6044319868087769 -0.05578076094388962 -0.7947016358375549
vn 0.6043951511383057 -0.05563086271286011 -0.7947400808334351
vn 0.6043859720230103 -0.05559339374303818 -0.7947496771812439
vn 0.6019039750099182 -0.05591283738613129 -0.7966086864471436
vn 0.6019039750099182 -0.05591283738613129 -0.7966086864471436
vn 0.6019039750099182 -0.05591283738613129 -0.7966086864471436
vn -0.6057582497596741 -0.023100176826119423 0.7953133583068848
vn -0.605420708656311 -0.023233775049448013 0.7955664396286011
vn -0.6057582497596741 -0.023100176826119423 0.7953133583068848
vn -0.6057582497596741 -0.023100176826119423 0.7953133583068848
vn -0.6057813763618469 -0.023086367174983025 0.7952961325645447
vn 0.6022202968597412 -0.05589635670185089 -0.7963707447052002
vn -0.6047451496124268 -0.023158520460128784 0.7960823178291321
vn 0.6034478545188904 -0.05568045750260353 -0.7954561114311218
vn -0.605533242225647 -0.0231892429292202 0.7954820394515991
vn -0.6055895090103149 -0.023166976869106293 0.7954398989677429
vn 0.6034524440765381 -0.055699191987514496 -0.7954513430595398
vn 0.60407954454422 -0.05564740672707558 -0.7949788570404053
vn 0.6031595468521118 -0.055809393525123596 -0.7956657409667969
vn 0.6028526425361633 -0.05586337298154831 -0.7958945035934448
vn 0.6031687259674072 -0.05584686994552612 -0.7956562042236328
vn 0.6031410694122314 -0.05573444068431854 -0.7956849336624146
vn 0.6043676137924194 -0.055518440902233124 -0.7947688698768616
vn 0.6037728786468506 -0.05570140480995178 -0.7952079176902771
vn 0.009280459955334663 0.9999326467514038 0.006966522894799709
vn 0.015066777355968952 0.9998219013214111 0.011366679333150387
vn 0.015005834400653839 0.9998233318328857 0.011325775645673275
vn 0.020979024469852448 0.9996535778045654 0.01589425466954708
vn 0.02085229754447937 0.9996581673622131 0.015766233205795288
vn 0.009097609668970108 0.9999352693557739 0.006843796465545893
vn 0.009036659263074398 0.9999361038208008 0.006802886724472046
vn 0.0033107921481132507 0.9999915361404419 0.0024432626087218523
vn -0.0009295204072259367 -0.9999996423721313 -0.00013482403301168233
vn -0.0009032849920913577 -0.9999995827674866 0.00012300342496018857
vn -0.0009032849920913577 -0.9999995827674866 0.00012300342496018857
vn -0.0008770496933721006 -0.9999996423721313 0.00038083092658780515
vn -0.0008508141618221998 -0.999999463558197 0.0006386582972481847
vn -0.0008770496933721006 -0.9999996423721313 0.00038083092658780515
vn -0.0027809657622128725 0.9999938011169434 -0.0021619643084704876
vn -0.0027809657622128725 0.9999938011169434 -0.0021619643084704876
vn -0.0027809657622128725 0.9999938011169434 -0.0021619643084704876
vn 0.009158559143543243 0.9999343752861023 0.0068847062066197395
vn 0.014883946627378464 0.9998260736465454 0.011243969202041626
vn 0.014944888651371002 0.9998246431350708 0.011284871958196163
vn 0.020730430260300636 0.9996621608734131 0.015684442594647408
vn 0.026636721566319466 0.9994418621063232 0.020164959132671356
vn 0.02657579816877842 0.9994442462921143 0.020124072209000587
vn 0.026763414964079857 0.9994358420372009 0.02029295079410076
vn 0.02670007012784481 0.9994388818740845 0.020228954032063484
vn 0.008914759382605553 0.9999377131462097 0.006721066776663065
vn -0.0027809657622128725 0.9999938011169434 -0.0021619643084704876
vn 0.003066979581490159 0.9999927282333374 0.0022796127013862133
vn -0.0009557555895298719 -0.999999463558197 -0.000392651476431638
vn -0.0009557555895298719 -0.999999463558197 -0.000392651476431638
vn -0.0009557555895298719 -0.999999463558197 -0.000392651476431638
vn -0.0009557555895298719 -0.999999463558197 -0.000392651476431638
vn -0.0009557555895298719 -0.999999463558197 -0.000392651476431638
vn -0.0009557555895298719 -0.999999463558197 -0.000392651476431638
vn -0.0009295204072259367 -0.9999996423721313 -0.00013482403301168233
vn -0.0009557555895298719 -0.999999463558197 -0.000392651476431638
vn 0.009343842044472694 0.9999316930770874 0.007030549459159374
vn 0.015130153857171535 0.9998202919960022 0.01143069937825203
vn -0.0008770496933721006 -0.9999996423721313 0.00038083092658780515
vn -0.0027809657622128725 0.9999938011169434 -0.0021619643084704876
vn -0.0027809657622128725 0.9999938011169434 -0.0021619643084704876
vn -0.0027809657622128725 0.9999938011169434 -0.0021619643084704876
vn -0.0008901673136278987 -0.9999996423721313 0.00025191716849803925
vn -0.0009032849920913577 -0.9999995827674866 0.00012300342496018857
vn -0.0027809657622128725 0.9999938011169434 -0.0021619643084704876
vn 0.014762059785425663 0.9998288154602051 0.011162159033119678
vn 0.020608561113476753 0.9996658563613892 0.015602647326886654
vn 0.008914759382605553 0.9999377131462097 0.006721066776663065
vn -0.0027200127951800823 0.9999940395355225 -0.0021210513077676296
vn -0.002415246795862913 0.9999952912330627 -0.001916486769914627
vn -0.0024761997628957033 0.9999949932098389 -0.0019573995377868414
vn -0.002537153195589781 0.9999948740005493 -0.001998312771320343
vn 0.014823001809418201 0.9998274445533752 0.011203063651919365
vn 0.008975708857178688 0.9999369382858276 0.006761976517736912
vn 0.0031888855155557394 0.9999921321868896 0.0023614380042999983
vn 0.020791364833712578 0.9996602535247803 0.015725338831543922
vn 0.0034326983150094748 0.9999909400939941 0.002525088144466281
vn 0.0033717453479766846 0.9999912977218628 0.0024841753765940666
vn -0.0009557555895298719 -0.999999463558197 -0.000392651476431638
vn -0.0027809657622128725 0.9999938011169434 -0.0021619643084704876
vn -0.0009557555895298719 -0.999999463558197 -0.000392651476431638
vn -0.0009557555895298719 -0.999999463558197 -0.000392651476431638
vn -0.0009557555895298719 -0.999999463558197 -0.000392651476431638
vn -0.0027809657622128725 0.9999938011169434 -0.0021619643084704876
vn -0.0009295204072259367 -0.9999996423721313 -0.00013482403301168233
vn -0.0009426380274817348 -0.9999995231628418 -0.00026373774744570255
vn -0.0027809657622128725 0.9999938011169434 -0.0021619643084704876
vn -0.002598106162622571 0.9999945163726807 -0.0020392255391925573
vn -0.0026590595953166485 0.9999943375587463 -0.0020801385398954153
vn -0.0009032849920913577 -0.9999995827674866 0.00012300342496018857
vn -0.0009032849920913577 -0.9999995827674866 0.00012300342496018857
vn -0.0009295204072259367 -0.9999996423721313 -0.00013482403301168233
vn 0.0032498387154191732 0.9999918341636658 0.0024023503065109253
vn -0.002293340163305402 0.9999957084655762 -0.0018346607685089111
vn 0.003493652446195483 0.9999906420707703 0.002565999049693346
vn 0.009219510480761528 0.9999336004257202 0.006925615482032299
vn 0.026453953236341476 0.9994491934776306 0.02004229836165905
vn 0.020669495686888695 0.9996640086174011 0.015643544495105743
vn 0.026514874771237373 0.9994467496871948 0.02008318342268467
vn -0.0023542935959994793 0.9999954700469971 -0.001875573769211769
vn 0.003127932781353593 0.9999924898147583 0.0023205257020890713
vn -0.0009295204072259367 -0.9999996423721313 -0.00013482403301168233
vn -0.0009557555895298719 -0.999999463558197 -0.000392651476431638
vn -0.7932027578353882 0.07045105844736099 -0.6048688292503357
vn -0.7932685017585754 0.07084314525127411 -0.6047366261482239
vn -0.7932685017585754 0.07084314525127411 -0.6047366261482239
vn -0.793136715888977 0.07005894929170609 -0.6050008535385132
vn -0.7932027578353882 0.07045105844736099 -0.6048688292503357
vn -0.7932685017585754 0.07084314525127411 -0.6047366261482239
vn -0.7932685017585754 0.07084314525127411 -0.6047366261482239
vn -0.793136715888977 0.07005894929170609 -0.6050008535385132
vn -0.7932027578353882 0.07045105844736099 -0.6048688292503357
vn -0.7932027578353882 0.07045105844736099 -0.6048688292503357
vn -0.7932685017585754 0.07084314525127411 -0.6047366261482239
vn -0.7932685017585754 0.07084314525127411 -0.6047366261482239
vn -0.793136715888977 0.07005894929170609 -0.6050008535385132
vn -0.793136715888977 0.07005894929170609 -0.6050008535385132
vn -0.7932685017585754 0.07084314525127411 -0.6047366261482239
vn -0.7932685017585754 0.07084314525127411 -0.6047366261482239
vn -0.7932685017585754 0.07084314525127411 -0.6047366261482239
vn -0.7932685017585754 0.07084314525127411 -0.6047366261482239
vn -0.7932685017585754 0.07084314525127411 -0.6047366261482239
vn -0.7932685017585754 0.07084314525127411 -0.6047366261482239
vn -0.7932685017585754 0.07084314525127411 -0.6047366261482239
vn -0.7932685017585754 0.07084314525127411 -0.6047366261482239
vn -0.7932685017585754 0.07084314525127411 -0.6047366261482239
vn -0.7932685017585754 0.07084314525127411 -0.6047366261482239
vn -0.6053082346916199 -0.023278309032320976 0.7956507802009583
vn -0.6050267219543457 -0.023218415677547455 0.7958665490150452
vn -0.6047828197479248 -0.023257825523614883 0.7960509061813354
vn -0.7932685017585754 0.07084314525127411 -0.6047366261482239
vn -0.6048203706741333 -0.023357128724455833 0.7960193753242493
vn -0.6048203706741333 -0.023357128724455833 0.7960193753242493
vn -0.6048579812049866 -0.023456431925296783 0.7959878444671631
vn -0.6047828197479248 -0.023257825523614883 0.7960509061813354
vn 0.60407954454422 -0.05564740672707558 -0.7949788570404053
vn 0.6037728786468506 -0.05570140480995178 -0.7952079176902771
vn 0.6043952107429504 -0.055630866438150406 -0.7947400808334351
vn 0.6043859720230103 -0.05559339374303818 -0.7947496771812439
vn -0.7930705547332764 0.06966682523488998 -0.6051326990127563
vn -0.793136715888977 0.07005894929170609 -0.6050008535385132
vn -0.7932685017585754 0.07084314525127411 -0.6047366261482239
vn -0.6051956415176392 -0.02332283928990364 0.7957350015640259
vn -0.605083167552948 -0.023367373272776604 0.7958194017410278
vn -0.6051956415176392 -0.02332283928990364 0.7957350015640259
vn -0.7930043339729309 0.06927470117807388 -0.6052645444869995
vn -0.7932685017585754 0.07084314525127411 -0.6047366261482239
vn -0.7932685017585754 0.07084314525127411 -0.6047366261482239
vn -0.7932685017585754 0.07084314525127411 -0.6047366261482239
vn -0.605083167552948 -0.023367373272776604 0.7958194017410278
vn -0.6049705743789673 -0.023411903530359268 0.7959036231040955
vn -0.605083167552948 -0.023367373272776604 0.7958194017410278
vn -0.7932685017585754 0.07084314525127411 -0.6047366261482239
vn -0.6048579812049866 -0.023456431925296783 0.7959878444671631
vn -0.6048579812049866 -0.023456431925296783 0.7959878444671631
vn -0.6049705743789673 -0.023411903530359268 0.7959036231040955
vn -0.6051956415176392 -0.02332283928990364 0.7957350015640259
vn -0.6051956415176392 -0.02332283928990364 0.7957350015640259
vn -0.6053082346916199 -0.023278309032320976 0.7956507802009583
vn 0.6044319868087769 -0.05578076094388962 -0.7947016358375549
vn -0.7932685017585754 0.07084314525127411 -0.6047366261482239
vn 0.6044319868087769 -0.05578075721859932 -0.7947015762329102
vn 0.6044319868087769 -0.05578075721859932 -0.7947015762329102
vn 0.6044319868087769 -0.05578076094388962 -0.7947015762329102
vn -0.7932685017585754 0.07084314525127411 -0.6047366261482239
vn -0.7932685017585754 0.07084314525127411 -0.6047366261482239
vn 0.6044319868087769 -0.05578076094388962 -0.7947015762329102
vn 0.6044319868087769 -0.05578076094388962 -0.7947015762329102
vn 0.603791356086731 -0.055776357650756836 -0.7951887845993042
vn 0.6034846901893616 -0.05583035945892334 -0.7954177856445312
vn 0.6038005352020264 -0.055813830345869064 -0.7951791882514954
vn 0.6031687259674072 -0.05584686994552612 -0.7956562042236328
vn 0.6044319868087769 -0.05578076094388962 -0.7947015762329102
vn 0.6044319868087769 -0.05578076094388962 -0.7947016358375549
vn 0.6044319868087769 -0.05578076094388962 -0.7947015762329102
vn -0.6049705743789673 -0.023411903530359268 0.7959036231040955
vn -0.6049705743789673 -0.023411903530359268 0.7959036231040955
vn -0.6049705743789673 -0.023411903530359268 0.7959036231040955
vn 0.6044043898582458 -0.055668339133262634 -0.7947304248809814
vn 0.6044135689735413 -0.055705808103084564 -0.7947207689285278
vn 0.6044319868087769 -0.05578075349330902 -0.7947015762329102
vn 0.6044228076934814 -0.05574328824877739 -0.7947112321853638
vn 0.6044319272041321 -0.05578075349330902 -0.7947015166282654
vn 0.6044319868087769 -0.05578075349330902 -0.7947015762329102
vn 0.6044319272041321 -0.05578075349330902 -0.7947015166282654
vn 0.6044319868087769 -0.05578075721859932 -0.7947015762329102
vn 0.6044319868087769 -0.05578075349330902 -0.7947015762329102
vn 0.6044319868087769 -0.05578076094388962 -0.7947016358375549
vn 0.6044319868087769 -0.05578076094388962 -0.7947015762329102
vn 0.6031595468521118 -0.055809393525123596 -0.7956657409667969
vn -0.7930705547332764 0.06966682523488998 -0.6051326990127563
vt 0.27468886971473694 0.5071735978126526
vt 0.39578598737716675 0.62725830078125
vt 0.515112042427063 0.5060223340988159
vt 0.5168830752372742 0.7473430037498474
vt 0.2764599323272705 0.7484942674636841
vt 0.39755702018737793 0.8685789704322815
vt 0.5186541080474854 0.9886636734008789
vt 0.2782309651374817 0.9898149371147156
vt 3.2764081954956055 2.0681512355804443
vt 3.2831711769104004 2.156507730484009
vt 2.969536066055298 2.11845600605011
vt 2.6626639366149902 2.1687607765197754
vt 2.962773084640503 2.030099391937256
vt 3.5765175819396973 1.9294898509979248
vt 3.583280324935913 2.0178463459014893
vt 0.39226388931274414 0.14452528953552246
vt 0.5116099715232849 0.023197591304779053
vt 0.3913883864879608 0.02381908893585205
vt 0.2711668014526367 0.024440526962280273
vt 3.8901524543762207 1.9675415754318237
vt 3.590043306350708 2.1062029600143433
vt 0.39313939213752747 0.2652314305305481
vt 0.27291780710220337 0.2658529281616211
vt 0.5133609771728516 0.2646099328994751
vt 0.3940149247646332 0.3859376311302185
vt 3.2628822326660156 1.891438066959381
vt 2.956010103225708 1.9417428970336914
vt 2.9434313774108887 1.8254987597465515
vt 3.87662672996521 1.7908284664154053
vt 3.5697546005249023 1.8411332368850708
vt 0.15182070434093475 0.14576822519302368
vt 0.03249464929103851 0.26700419187545776
vt 0.15270623564720154 0.2664285898208618
vt 0.15359175205230713 0.3870888948440552
vt 3.2503037452697754 1.7751939296722412
vt 3.1991171836853027 1.2183823138475418
vt 3.494619607925415 1.032992348074913
vt 3.503667116165161 1.1525547504425049
vt 3.8082170486450195 1.0867272019386292
vt 3.5127146244049072 1.272117167711258
vt 2.867424964904785 0.925522617995739
vt 3.485572099685669 0.9134299233555794
vt 3.1810221672058105 0.9792574793100357
vt 3.7901220321655273 0.847602367401123
vt 1 0
vt 1 0.5
vt 0.8816425204277039 0.5
vt 1 1
vt 0.7632850408554077 1
vt 0.7632850408554077 0.5
vt 1 0
vt 0.7632850408554077 0
vt 0.8816425204277039 0.5
vt 0.7632850408554077 1
vt 0.7632850408554077 0.5
vt 0.7632850408554077 0
vt 4.006343841552734 1.7833836078643799
vt 3.9550111293792725 1.963819146156311
vt 0.8816425204277039 0.5
vt 0.7632850408554077 0
vt 1 0
vt 1 1
vt 0.7632850408554077 1
vt 0.7632850408554077 0
vt 1 0
vt 0.8816425204277039 0.5
vt 1 1
vt 0.7632850408554077 1
vt 4.028327941894531 2.1417932510375977
vt 3.9036784172058105 2.144254684448242
vt 4.0214080810546875 1.3202147483825684
vt 3.9684295654296875 1.0826826691627502
vt 3.9801456928253174 0.8438850045204163
vt 3.9154512882232666 0.8451505899429321
vt 3.9592716693878174 1.3207615613937378
vt 4.042898178100586 1.5682907700538635
vt 4.064387798309326 1.8163667917251587
vt 4.046358108520508 1.9790800213813782
vt 4.092468738555908 2.14052677154541
vt 2.5538275241851807 0.8717877566814423
vt 3.1719746589660645 0.8596950620412827
vt 3.9179491996765137 1.5557950139045715
vt 3.9490175247192383 1.5555216073989868
vt 0.15094520151615143 0.02506202459335327
vt 0.030723601579666138 0.02568352222442627
vt 0.03426569700241089 0.5083248615264893
vt 0.1553628146648407 0.6284095644950867
vt 3.8263120651245117 1.3258520364761353
vt 3.874696731567383 1.0841819643974304
vt 0.036036744713783264 0.7496455311775208
vt 0.7632850408554077 0
vt 0.15713386237621307 0.8697302341461182
vt 0.7632850408554077 1
vt 1 0
vt 0.03780779242515564 0.9909662008285522
vt 1 1
vt 3.2121317386627197 1.3805440664291382
vt 3.525729179382324 1.4342789053916931
vt 3.2251462936401367 1.542705774307251
vt 4.017335891723633 1.9625884294509888
vt 2.8985342979431152 1.3268091678619385
vt 2.8855199813842773 1.1646474599838257
vt 2.8764724731445312 1.045085035264492
vt 2.924563407897949 1.651132583618164
vt 2.623980760574341 1.759559452533722
vt 0.3984425365924835 0.9892393052577972
vt 3.3287734985351562 0.8865624964237213
vt 3.550886631011963 1.6667671203613281
vt 3.8514695167541504 1.5583402514457703
vt 1 0.5
vt 1 1
vt 1 0.5
vt 1 1
vt 1 0.5
vt 0.7632850408554077 0
vt 1 0
vt 0.7632850408554077 0.5
vt 0.7632850408554077 0.5
vt 0.7632850408554077 1
vt 2.9115490913391113 1.4889709055423737
vt 4.013875961303711 1.5517991781234741
vt 3.937361478805542 1.082956075668335
vt 0.7632850408554077 0.5
vt 1 0
vt 1 0.5
vt 0.7632850408554077 1
vt 1 1
vt 1 0.5
vt 0.7632850408554077 0.5
vt 0.7632850408554077 0
vt 0.7632850408554077 0.5
vt 0.7632850408554077 0
vt 0.7632850408554077 0.5
vt 1 1
vt 0.7632850408554077 1
vt 1 0.5
vt 1 0.5
vt 1 0
vt 0.804347813129425 0.8091787695884705
vt 0.8792270421981812 0.3743962049484253
vt 0.804347813129425 0.3743962049484253
vt 0.8792270421981812 0.8091787695884705
vt 0.804347813129425 0.8091787695884705
vt 0.8792270421981812 0.3743962049484253
vt 0.804347813129425 0.3743962049484253
vt 0.8792270421981812 0.8091787695884705
vt 0.804347813129425 0.8091787695884705
vt 0.8792270421981812 0.3743962049484253
vt 0.804347813129425 0.3743962049484253
vt 0.8792270421981812 0.8091787695884705
vt 0.8792270421981812 0.3743962049484253
vt 0.804347813129425 0.8091787695884705
vt 0.804347813129425 0.3743962049484253
vt 0.8792270421981812 0.8091787695884705
vt 0.8792270421981812 0.3743962049484253
vt 0.804347813129425 0.8091787695884705
vt 0.804347813129425 0.3743962049484253
vt 0.8792270421981812 0.8091787695884705
vt 0.8792270421981812 0.3743962049484253
vt 0.804347813129425 0.8091787695884705
vt 0.804347813129425 0.3743962049484253
vt 0.8792270421981812 0.8091787695884705
vt 0.8792270421981812 0.3743962049484253
vt 0.804347813129425 0.8091787695884705
vt 0.804347813129425 0.3743962049484253
vt 0.8792270421981812 0.8091787695884705
vt 0.8792270421981812 0.3743962049484253
vt 0.804347813129425 0.8091787695884705
vt 0.804347813129425 0.3743962049484253
vt 0.8792270421981812 0.8091787695884705
vt 0.8792270421981812 0.3743962049484253
vt 0.804347813129425 0.8091787695884705
vt 0.804347813129425 0.3743962049484253
vt 0.8792270421981812 0.8091787695884705
vt 0.804347813129425 0.8091787695884705
vt 0.8792270421981812 0.3743962049484253
vt 0.804347813129425 0.3743962049484253
vt 0.8792270421981812 0.8091787695884705
vt 0.804347813129425 0.8091787695884705
vt 0.8792270421981812 0.3743962049484253
vt 0.804347813129425 0.3743962049484253
vt 0.8792270421981812 0.8091787695884705
vt 0.804347813129425 0.8091787695884705
vt 0.8792270421981812 0.3743962049484253
vt 0.804347813129425 0.3743962049484253
vt 0.8792270421981812 0.8091787695884705
vt 0.5069186687469482 0.7463768124580383
vt 0.506918728351593 0.5048308968544006
vt 0.7415459156036377 0.5048309564590454
vt 0.7415459156036377 0.7463768124580383
vt 0.7415459156036377 0.5048309564590454
vt 0.7415459156036377 0.7463768124580383
vt 0.5069186687469482 0.7463768124580383
vt 0.506918728351593 0.5048308968544006
vt 0.75 0.875
vt 0.75 1
vt 0.5 1
vt 0.12813015282154083 0.15408223867416382
vt 0.06406507641077042 0.5770411193370819
vt 0.3300813138484955 0.4713013768196106
vt 0.5960975885391235 0.36556166410446167
vt 0.5640650987625122 0.5770411193370819
vt 0 1
vt 0.26601627469062805 0.8942602798342705
vt 0.5320325493812561 0.788520559668541
vt 0.5 1
vt 0.79960697889328 0.31379377841949463
vt 0.5992139577865601 0.12758755683898926
vt 1.0661426782608032 0.08505839109420776
vt 0.8383578062057495 0.375
vt 0.8383578062057495 0.125
vt 0.6060293316841125 0.25
vt 1.0706862211227417 0
vt 0.6060293316841125 0
vt 0.5661426782608032 0.33505839109420776
vt 1 0.5
vt 0.25 0.875
vt 0.06614264845848083 0.5850583910942078
vt 0.5 0.75
vt 0 1
vt 0.13228529691696167 0.17011678218841553
vt 0.31614264845848083 0.46005839109420776
vt 0.14273476600646973 0
vt 1 1
vt 0.048030637204647064 0
vt 0.03243962675333023 0.1518266201019287
vt 0.6044387221336365 0.04252922534942627
vt 1.0713673830032349 0
vt 0.141372412443161 0
vt 0.3737008571624756 0.125
vt 0.3670797348022461 0.2020411491394043
vt 0.48324400186538696 0.2645411491394043
vt 1.0706862211227417 0.5
vt 0.5994081497192383 0.3270411491394043
vt 0.8300813436508179 0.4713013768196106
vt 0 0
vt 0 0.5
vt 0.016219813376665115 0.5759133100509644
vt 0.021160276606678963 0.5750520825386047
vt 0.75 0.625
vt 0.042320553213357925 0.15010416507720947
vt 0 0
vt 0.04859471693634987 0
vt 0.25 1
vt 0.6070510745048523 0
vt 0.3140650689601898 0.5770411193370819
vt 0.5 0.875
vt 0.375 0.9375
vt 0.4310569763183594 0.6299109756946564
vt 0.8140650987625122 0.5770411193370819
vt 0.7660162448883057 0.8942602798342705
vt 0.75 1
vt 1 1
vt 0.29804879426956177 0.6827808320522308
vt 0.3621138632297516 0.25982195138931274
vt 0.7980488538742065 0.6827808320522308
vt 1.9447277784347534 1.003442868590355
vt 2.2583250999450684 1.0571777299046516
vt 2.2713396549224854 1.219339445233345
vt 2.5538275241851807 0.8717877566814423
vt 2.571922540664673 1.1109125912189484
vt 1.9837714433670044 1.4899280071258545
vt 1.9967859983444214 1.6520897150039673
vt 1.6701741218566895 1.4361931681632996
vt 0.5133609771728516 0.2646099328994751
vt 0.7538042068481445 0.2633669972419739
vt 0.6327071189880371 0.14328229427337646
vt 0.8731502890586853 0.14203929901123047
vt 0.9924963712692261 0.020711660385131836
vt 0.7520531415939331 0.021954655647277832
vt 2.6491379737854004 1.992047667503357
vt 2.6626639366149902 2.1687607765197754
vt 2.3490288257598877 2.1307090520858765
vt 1.9707568883895874 1.3277662992477417
vt 2.2973687648773193 1.5436629056930542
vt 2.2843542098999023 1.381501168012619
vt 2.597951650619507 1.4352360367774963
vt 2.8855199813842773 1.1646474599838257
vt 2.8985342979431152 1.3268091678619385
vt 2.867424964904785 0.925522617995739
vt 2.8764724731445312 1.045085035264492
vt 2.022815227508545 1.9764131307601929
vt 2.035393714904785 2.0926573276519775
vt 1.7222323417663574 2.0848400592803955
vt 0.5168830752372742 0.7473430037498474
vt 0.5186541080474854 0.9886636734008789
vt 0.6379802227020264 0.8674277067184448
vt 0.7573062777519226 0.7461917400360107
vt 0.7590773105621338 0.9875124096870422
vt 0.9995005130767822 0.9863611459732056
vt 0.9977494478225708 0.7449487745761871
vt 0.8784034252166748 0.8662764430046082
vt 1.9356802701950073 0.8838804513216019
vt 2.2492775917053223 0.9376153126358986
vt 0.9942474365234375 0.26212406158447266
vt 2.962773084640503 2.030099391937256
vt 1.8853391408920288 2.1619880199432373
vt 1.42164945602417 2.1932668685913086
vt 0.6318315267562866 0.022576093673706055
vt 0.5116099715232849 0.023197591304779053
vt 1.7285215854644775 2.142962098121643
vt 2.3233981132507324 1.8679863214492798
vt 2.623980760574341 1.759559452533722
vt 2.9434313774108887 1.8254987597465515
vt 1.408634901046753 2.031105160713196
vt 1.343562126159668 1.2202965915203094
vt 1.356576681137085 1.3824583292007446
vt 1.369591236114502 1.5446200370788574
vt 2.3103833198547363 1.705824613571167
vt 2.009800672531128 1.81425142288208
vt 1.6962032318115234 1.7605165839195251
vt 2.58493709564209 1.2730743288993835
vt 1.6441450119018555 1.1118697226047516
vt 1.6571595668792725 1.2740314602851868
vt 0.6388657093048096 0.9880880415439606
vt 2.3422658443450928 2.0423524379730225
vt 0.879288911819458 0.9869367778301239
vt 0.6362091302871704 0.6261070370674133
vt 0.6370946764945984 0.7467673718929291
vt 2.956010103225708 1.9417428970336914
vt 0.8766523599624634 0.6248640716075897
vt 0.8775278329849243 0.7455702424049377
vt 2.969536066055298 2.11845600605011
vt 1.382605791091919 1.7067817449569702
vt 1.395620346069336 1.868943452835083
vt 0.9959984421730042 0.5035364031791687
vt 0.874901294708252 0.3834517002105713
vt 0.755555272102356 0.5047793686389923
vt 1.6831886768341064 1.5983548760414124
vt 1.317533016204834 0.8959731459617615
vt 1.6311304569244385 0.9497080072760582
vt 1.9577423334121704 1.165604591369629
vt 2.924563407897949 1.651132583618164
vt 2.610966205596924 1.5973977446556091
vt 2.9115490913391113 1.4889709055423737
vt 1.330547571182251 1.0581348687410355
vt 1.7092177867889404 1.922678291797638
vt 0.6344581246376038 0.3846946954727173
vt 0.515112042427063 0.5060223340988159
vt 0.75 0.6248753070831299
vt 1 0.5000002682209015
vt 0.75 0.3751252293586731
vt 0.5 0.7497503161430359
vt 1.25 0.8746253848075867
vt 1.5 0.7497503757476807
vt 1.25 0.6248753070831299
vt 1 0.9995003938674927
vt 1.5 0.9995004236698151
vt 0.25 0.3751251697540283
vt 0.5 0.2502501606941223
vt 0.25 0.1253751516342163
vt 0 0.5000002086162567
vt 0.25 0.6248752474784851
vt 1.75 0.1253751516342163
vt 1.75 0.3751252293586731
vt 2 0.5000002682209015
vt 1.5 0.2502501606941223
vt 1.75 0.6248753070831299
vt 1.75 0.8746254146099091
vt 2 0.9995004534721375
vt 1 0.0005000829696655273
vt 0.75 0.0005000829696655273
vt 0.75 0.1253751516342163
vt 1 0.5
vt 0.79960697889328 0.31379377841949463
vt 1.0661426782608032 0.08505839109420776
vt 0.5 0.0005000829696655273
vt 1.5330712795257568 0.04252922534942627
vt 1.5356836318969727 0
vt 2 0
vt 1.0713673830032349 0
vt 0.8140650987625122 0.5770411193370819
vt 0.7980488538742065 0.6827808320522308
vt 1.0640650987625122 0.5770411193370819
vt 0.8300813436508179 0.4713013768196106
vt 0.5 0.9995003640651703
vt 0.75 0.8746253550052643
vt 1.25 0.3751252293586731
vt 1.25 0.375
vt 1.5 0.25
vt 1.25 0.625
vt 0 0.9995003342628479
vt 0 0.0005000829696655273
vt 1.5 0.0005000829696655273
vt 2 0.0005000829696655273
vt 1.5 0.75
vt 1.75 0.875
vt 1.5 1
vt 1.75 0.0005000829696655273
vt 2 0.5
vt 2 1
vt 1.75 1
vt 1.25 0.875
vt 1.25 1
vt 1 1
vt 1.0706862211227417 0.5
vt 0.25 0.0005000829696655273
vt 1.5353431701660156 0.75
vt 1.5353431701660156 0.25
vt 1.3030147552490234 0.625
vt 1.25 0.0005000829696655273
vt 1.25 0.1253751516342163
vt 1.3030147552490234 0.375
vt 1.3030147552490234 0.125
vt 1.2660162448883057 0.8942602798342705
vt 1.25 1
vt 1.5 1
vt 1 1
vt 0.8383578062057495 0.375
vt 1.0706862211227417 0
vt 0.8383578062057495 0.125
vt 1.75 0.625
vt 1.75 0.375
vt 1.75 0.125
vt 1.298048734664917 0.6827808320522308
vt 1.5320324897766113 0.788520559668541
vt 1.7676715850830078 0.875
vt 1.7660162448883057 0.8942602798342705
vt 2 1
vt 1.7676715850830078 0.125
vt 2 0
vt 1.6515073776245117 0.0625
vt 1.7676715850830078 0.375
vt 2 0.5
vt 1.7676715850830078 0.625
vt 0.7660162448883057 0.8942602798342705
vt 0.25 0.8746253252029419
g condoInt060
s 1
f 1/1/1 2/2/2 3/3/3
f 3/3/3 2/2/2 4/4/4
f 2/2/2 5/5/5 4/4/4
f 4/4/4 5/5/5 6/6/6
f 4/4/4 6/6/6 7/7/7
f 5/5/5 8/8/8 6/6/6
f 9/9/9 10/10/10 11/11/11
f 11/11/11 10/10/10 12/12/12
f 13/13/13 9/9/9 11/11/11
f 14/14/14 15/15/15 9/9/9
f 16/16/16 17/17/17 18/18/18
f 16/16/16 18/18/18 19/19/19
f 14/14/14 20/20/20 15/15/15
f 20/20/20 21/21/21 15/15/15
f 22/22/22 16/16/16 23/23/23
f 24/24/24 16/16/16 22/22/22
f 25/25/25 24/24/24 22/22/22
f 25/25/25 22/22/22 23/23/23
f 15/15/15 21/21/21 9/9/9
f 26/26/26 13/13/13 27/27/27
f 28/28/28 26/26/26 27/27/27
f 29/29/29 14/14/14 30/30/30
f 31/31/31 32/32/32 33/33/33
f 31/31/31 33/33/33 23/23/23
f 33/33/33 34/34/34 23/23/23
f 32/32/32 34/34/34 33/33/33
f 30/30/30 14/14/14 26/26/26
f 35/35/35 30/30/30 26/26/26
f 35/35/35 29/29/29 30/30/30
f 36/36/36 37/37/37 38/38/38
f 38/38/38 37/37/37 39/39/39
f 38/38/38 39/39/39 40/40/40
f 36/36/36 38/38/38 40/40/40
f 41/41/41 42/42/42 43/43/43
f 42/42/42 44/44/44 37/37/37
f 43/43/43 42/42/42 37/37/37
f 45/45/45 46/46/46 47/47/47
f 46/46/46 48/48/48 47/47/47
f 49/49/49 50/50/50 51/51/51
f 50/50/50 52/52/52 51/51/51
f 53/53/53 54/54/54 55/55/55
f 53/53/53 55/55/55 56/56/56
f 29/29/29 57/57/57 58/58/58
f 3/3/3 24/24/24 25/25/25
f 59/59/59 60/60/60 61/61/61
f 25/25/25 1/1/1 3/3/3
f 59/59/59 62/62/62 63/63/63
f 64/64/64 65/65/65 66/66/66
f 23/23/23 1/1/1 25/25/25
f 67/67/67 68/68/68 66/66/66
f 58/58/58 69/69/69 70/70/70
f 71/71/71 72/72/72 73/73/73
f 72/72/72 74/74/74 73/73/73
f 71/71/71 75/75/75 72/72/72
f 76/76/76 77/77/77 57/57/57
f 78/78/78 79/79/79 69/69/69
f 77/77/77 79/79/79 78/78/78
f 57/57/57 77/77/77 78/78/78
f 80/80/80 81/81/81 41/41/41
f 82/82/82 83/83/83 29/29/29
f 82/82/82 71/71/71 83/83/83
f 31/31/31 84/84/84 85/85/85
f 83/83/83 57/57/57 29/29/29
f 75/75/75 71/71/71 82/82/82
f 31/31/31 19/19/19 84/84/84
f 86/86/86 87/87/87 1/1/1
f 88/88/88 75/75/75 82/82/82
f 74/74/74 89/89/89 44/44/44
f 87/87/87 5/5/5 1/1/1
f 88/88/88 89/89/89 75/75/75
f 87/87/87 90/90/90 5/5/5
f 86/86/86 90/90/90 87/87/87
f 47/47/47 91/91/91 45/45/45
f 5/5/5 92/92/92 8/8/8
f 47/47/47 48/48/48 93/93/93
f 56/56/56 94/94/94 53/53/53
f 92/92/92 95/95/95 8/8/8
f 96/96/96 54/54/54 53/53/53
f 90/90/90 95/95/95 92/92/92
f 90/90/90 92/92/92 5/5/5
f 23/23/23 34/34/34 1/1/1
f 34/34/34 86/86/86 1/1/1
f 32/32/32 86/86/86 34/34/34
f 1/1/1 5/5/5 2/2/2
f 97/97/97 98/98/98 99/99/99
f 57/57/57 100/100/100 58/58/58
f 100/100/100 69/69/69 58/58/58
f 100/100/100 78/78/78 69/69/69
f 57/57/57 78/78/78 100/100/100
f 101/101/101 97/97/97 99/99/99
f 101/101/101 36/36/36 97/97/97
f 102/102/102 36/36/36 101/101/101
f 41/41/41 43/43/43 103/103/103
f 102/102/102 43/43/43 36/36/36
f 99/99/99 35/35/35 104/104/104
f 103/103/103 43/43/43 102/102/102
f 104/104/104 35/35/35 105/105/105
f 85/85/85 32/32/32 31/31/31
f 23/23/23 19/19/19 31/31/31
f 24/24/24 17/17/17 16/16/16
f 23/23/23 16/16/16 19/19/19
f 26/26/26 9/9/9 13/13/13
f 29/29/29 20/20/20 14/14/14
f 14/14/14 9/9/9 26/26/26
f 21/21/21 70/70/70 10/10/10
f 9/9/9 21/21/21 10/10/10
f 20/20/20 70/70/70 21/21/21
f 105/105/105 35/35/35 28/28/28
f 6/6/6 8/8/8 106/106/106
f 6/6/6 106/106/106 7/7/7
f 41/41/41 107/107/107 42/42/42
f 107/107/107 44/44/44 42/42/42
f 81/81/81 44/44/44 107/107/107
f 81/81/81 107/107/107 41/41/41
f 28/28/28 35/35/35 26/26/26
f 108/108/108 29/29/29 35/35/35
f 99/99/99 108/108/108 35/35/35
f 109/109/109 108/108/108 99/99/99
f 109/109/109 29/29/29 108/108/108
f 40/40/40 88/88/88 98/98/98
f 36/36/36 40/40/40 98/98/98
f 40/40/40 39/39/39 88/88/88
f 43/43/43 37/37/37 36/36/36
f 37/37/37 44/44/44 39/39/39
f 88/88/88 109/109/109 98/98/98
f 98/98/98 109/109/109 99/99/99
f 51/51/51 110/110/110 49/49/49
f 110/110/110 111/111/111 49/49/49
f 88/88/88 39/39/39 89/89/89
f 39/39/39 44/44/44 89/89/89
f 53/53/53 94/94/94 112/112/112
f 53/53/53 112/112/112 96/96/96
f 113/113/113 114/114/114 115/115/115
f 114/114/114 116/116/116 115/115/115
f 93/93/93 117/117/117 47/47/47
f 117/117/117 91/91/91 47/47/47
f 115/115/115 118/118/118 113/113/113
f 118/118/118 119/119/119 113/113/113
f 109/109/109 82/82/82 29/29/29
f 88/88/88 82/82/82 109/109/109
f 120/120/120 99/99/99 104/104/104
f 71/71/71 121/121/121 83/83/83
f 121/121/121 57/57/57 83/83/83
f 121/121/121 76/76/76 57/57/57
f 71/71/71 76/76/76 121/121/121
f 74/74/74 122/122/122 89/89/89
f 122/122/122 75/75/75 89/89/89
f 72/72/72 75/75/75 122/122/122
f 72/72/72 122/122/122 74/74/74
f 101/101/101 99/99/99 120/120/120
f 66/66/66 68/68/68 123/123/123
f 66/66/66 123/123/123 64/64/64
f 124/124/124 125/125/125 126/126/126
f 125/125/125 127/127/127 126/126/126
f 61/61/61 128/128/128 59/59/59
f 128/128/128 62/62/62 59/59/59
f 126/126/126 129/129/129 124/124/124
f 129/129/129 130/130/130 124/124/124
f 63/63/63 131/131/131 59/59/59
f 131/131/131 60/60/60 59/59/59
f 132/132/132 133/133/133 134/134/134
f 133/133/133 135/135/135 134/134/134
f 66/66/66 65/65/65 136/136/136
f 66/66/66 136/136/136 67/67/67
f 134/134/134 137/137/137 132/132/132
f 137/137/137 138/138/138 132/132/132
f 20/20/20 58/58/58 70/70/70
f 29/29/29 58/58/58 20/20/20
f 36/36/36 98/98/98 97/97/97
g condoInt061
s 1
f 139/139/139 140/140/140 141/141/141
f 139/139/139 142/142/142 140/140/140
f 143/143/143 144/144/144 145/145/145
f 143/143/143 146/146/146 144/144/144
f 147/147/147 148/148/148 149/149/149
f 147/147/147 150/150/150 148/148/148
f 151/151/151 152/152/152 153/153/153
f 154/154/154 152/152/152 151/151/151
f 155/155/155 156/156/156 157/157/157
f 158/158/158 156/156/156 155/155/155
f 159/159/159 160/160/160 161/161/161
f 162/162/162 160/160/160 159/159/159
f 163/163/163 164/164/164 165/165/165
f 166/166/166 164/164/164 163/163/163
f 167/167/167 168/168/168 169/169/169
f 170/170/170 168/168/168 167/167/167
f 171/171/171 172/172/172 173/173/173
f 174/174/174 172/172/172 171/171/171
f 175/175/175 176/176/176 177/177/177
f 175/175/175 178/178/178 176/176/176
f 179/179/179 180/180/180 181/181/181
f 179/179/179 182/182/182 180/180/180
f 183/183/183 184/184/184 185/185/185
f 183/183/183 186/186/186 184/184/184
g condoInt062
s 1
f 187/187/187 188/188/188 189/189/189
f 189/189/189 190/190/190 187/187/187
f 191/191/191 192/192/192 193/193/193
f 193/193/193 194/194/194 191/191/191
g condoInt063
s 1
f 195/195/195 196/196/196 197/197/197
f 198/198/198 199/199/199 200/200/200
f 201/201/201 200/200/200 202/202/202
f 199/199/199 203/203/203 204/204/204
f 205/205/205 204/204/204 206/206/206
f 207/207/207 208/208/208 209/209/209
f 210/210/210 211/211/211 212/212/212
f 211/211/211 213/213/213 214/214/214
f 212/212/212 211/211/211 214/214/214
f 207/207/207 215/215/215 208/208/208
f 216/216/216 215/215/215 207/207/207
f 217/217/217 218/218/218 219/219/219
f 220/220/220 218/218/218 217/217/217
f 218/218/218 221/221/221 222/222/222
f 218/218/218 222/222/222 219/219/219
f 219/219/219 222/222/222 215/215/215
f 221/221/221 223/223/223 208/208/208
f 222/222/222 221/221/221 215/215/215
f 195/195/195 224/224/224 196/196/196
f 225/225/225 226/226/226 198/198/198
f 209/209/209 227/227/227 228/228/228
f 208/208/208 223/223/223 227/227/227
f 208/208/208 227/227/227 209/209/209
f 229/229/229 198/198/198 230/230/230
f 230/230/230 214/214/214 229/229/229
f 231/231/231 198/198/198 232/232/232
f 212/212/212 214/214/214 230/230/230
f 233/233/233 234/234/234 201/201/201
f 210/210/210 234/234/234 233/233/233
f 233/233/233 201/201/201 235/235/235
f 201/201/201 202/202/202 235/235/235
f 226/226/226 225/225/225 236/236/236
f 236/236/236 237/237/237 226/226/226
f 198/198/198 229/229/229 225/225/225
f 226/226/226 199/199/199 198/198/198
f 226/226/226 238/238/238 199/199/199
f 238/238/238 203/203/203 199/199/199
f 237/237/237 203/203/203 238/238/238
f 237/237/237 238/238/238 226/226/226
f 218/218/218 239/239/239 221/221/221
f 220/220/220 239/239/239 218/218/218
f 240/240/240 215/215/215 216/216/216
f 219/219/219 215/215/215 240/240/240
f 240/240/240 195/195/195 219/219/219
f 239/239/239 241/241/241 221/221/221
f 216/216/216 195/195/195 240/240/240
f 221/221/221 241/241/241 223/223/223
f 241/241/241 242/242/242 243/243/243
f 241/241/241 243/243/243 223/223/223
f 204/204/204 244/244/244 206/206/206
f 215/215/215 221/221/221 208/208/208
f 216/216/216 224/224/224 195/195/195
f 227/227/227 223/223/223 245/245/245
f 200/200/200 199/199/199 246/246/246
f 227/227/227 245/245/245 228/228/228
f 247/247/247 195/195/195 248/248/248
f 217/217/217 247/247/247 248/248/248
f 219/219/219 247/247/247 217/217/217
f 219/219/219 195/195/195 247/247/247
f 195/195/195 197/197/197 248/248/248
f 248/248/248 197/197/197 220/220/220
f 217/217/217 248/248/248 220/220/220
f 220/220/220 242/242/242 239/239/239
f 239/239/239 242/242/242 241/241/241
f 204/204/204 203/203/203 244/244/244
f 212/212/212 232/232/232 210/210/210
f 210/210/210 232/232/232 234/234/234
f 232/232/232 198/198/198 234/234/234
f 200/200/200 246/246/246 202/202/202
f 246/246/246 249/249/249 202/202/202
f 230/230/230 198/198/198 231/231/231
f 235/235/235 202/202/202 250/250/250
f 251/251/251 206/206/206 252/252/252
f 251/251/251 252/252/252 253/253/253
f 230/230/230 231/231/231 212/212/212
f 254/254/254 205/205/205 249/249/249
f 199/199/199 254/254/254 249/249/249
f 199/199/199 204/204/204 254/254/254
f 254/254/254 204/204/204 205/205/205
f 234/234/234 255/255/255 201/201/201
f 234/234/234 198/198/198 255/255/255
f 198/198/198 200/200/200 255/255/255
f 255/255/255 200/200/200 201/201/201
f 249/249/249 256/256/256 202/202/202
f 249/249/249 205/205/205 256/256/256
f 205/205/205 206/206/206 251/251/251
f 256/256/256 205/205/205 251/251/251
f 199/199/199 249/249/249 246/246/246
f 212/212/212 231/231/231 232/232/232
f 202/202/202 256/256/256 250/250/250
g condoInt064
s 1
f 257/257/257 258/258/258 259/259/259
f 258/258/258 260/260/260 261/261/261
f 262/262/262 263/263/263 264/264/264
f 265/265/265 266/266/266 267/267/267
f 258/258/258 261/261/261 259/259/259
f 268/268/268 269/269/269 270/270/270
f 271/271/271 272/272/272 273/273/273
f 274/274/274 262/262/262 264/264/264
f 274/274/274 275/275/275 262/262/262
f 262/262/262 275/275/275 263/263/263
f 274/274/274 259/259/259 276/276/276
f 276/276/276 259/259/259 277/277/277
f 276/276/276 277/277/277 275/275/275
f 274/274/274 276/276/276 275/275/275
f 261/261/261 278/278/278 279/279/279
f 280/280/280 281/281/281 261/261/261
f 260/260/260 280/280/280 261/261/261
f 282/282/282 283/283/283 284/284/284
f 261/261/261 281/281/281 278/278/278
f 285/285/285 286/286/286 287/287/287
f 288/288/288 287/287/287 289/289/289
f 290/290/290 291/291/291 292/292/292
f 288/288/288 289/289/289 292/292/292
f 293/293/293 260/260/260 294/294/294
f 293/293/293 294/294/294 257/257/257
f 257/257/257 294/294/294 258/258/258
f 266/266/266 268/268/268 270/270/270
f 295/295/295 268/268/268 266/266/266
f 294/294/294 260/260/260 258/258/258
f 271/271/271 296/296/296 272/272/272
f 283/283/283 273/273/273 297/297/297
f 297/297/297 272/272/272 298/298/298
f 267/267/267 299/299/299 300/300/300
f 273/273/273 272/272/272 297/297/297
f 267/267/267 270/270/270 299/299/299
f 283/283/283 297/297/297 301/301/301
f 301/301/301 297/297/297 298/298/298
f 284/284/284 301/301/301 298/298/298
f 302/302/302 271/271/271 282/282/282
f 303/303/303 271/271/271 302/302/302
f 303/303/303 304/304/304 271/271/271
f 284/284/284 283/283/283 301/301/301
f 305/305/305 284/284/284 298/298/298
f 306/306/306 264/264/264 307/307/307
f 307/307/307 264/264/264 308/308/308
f 275/275/275 303/303/303 309/309/309
f 275/275/275 309/309/309 263/263/263
f 310/310/310 302/302/302 282/282/282
f 263/263/263 302/302/302 310/310/310
f 311/311/311 263/263/263 310/310/310
f 311/311/311 310/310/310 282/282/282
f 312/312/312 279/279/279 277/277/277
f 261/261/261 279/279/279 312/312/312
f 259/259/259 261/261/261 312/312/312
f 259/259/259 312/312/312 277/277/277
f 313/313/313 314/314/314 306/306/306
f 313/313/313 274/274/274 314/314/314
f 314/314/314 274/274/274 264/264/264
f 306/306/306 314/314/314 264/264/264
f 287/287/287 315/315/315 289/289/289
f 282/282/282 271/271/271 316/316/316
f 282/282/282 316/316/316 283/283/283
f 316/316/316 273/273/273 283/283/283
f 271/271/271 273/273/273 316/316/316
f 287/287/287 286/286/286 315/315/315
f 292/292/292 317/317/317 290/290/290
f 292/292/292 289/289/289 317/317/317
f 318/318/318 319/319/319 288/288/288
f 318/318/318 285/285/285 319/319/319
f 304/304/304 320/320/320 271/271/271
f 320/320/320 296/296/296 271/271/271
f 285/285/285 287/287/287 319/319/319
f 319/319/319 287/287/287 288/288/288
f 291/291/291 321/321/321 322/322/322
f 322/322/322 321/321/321 288/288/288
f 296/296/296 323/323/323 272/272/272
f 292/292/292 322/322/322 288/288/288
f 292/292/292 291/291/291 322/322/322
f 324/324/324 311/311/311 325/325/325
f 308/308/308 311/311/311 324/324/324
f 326/326/326 295/295/295 327/327/327
f 327/327/327 295/295/295 266/266/266
f 327/327/327 266/266/266 328/328/328
f 264/264/264 329/329/329 308/308/308
f 264/264/264 263/263/263 329/329/329
f 329/329/329 263/263/263 311/311/311
f 308/308/308 329/329/329 311/311/311
f 330/330/330 293/293/293 331/331/331
f 331/331/331 293/293/293 257/257/257
f 331/331/331 257/257/257 313/313/313
f 330/330/330 331/331/331 313/313/313
f 313/313/313 332/332/332 274/274/274
f 313/313/313 257/257/257 332/332/332
f 257/257/257 259/259/259 332/332/332
f 332/332/332 259/259/259 274/274/274
f 277/277/277 333/333/333 334/334/334
f 295/295/295 269/269/269 268/268/268
f 265/265/265 267/267/267 300/300/300
f 266/266/266 270/270/270 267/267/267
f 279/279/279 335/335/335 277/277/277
f 326/326/326 327/327/327 328/328/328
f 334/334/334 333/333/333 303/303/303
f 275/275/275 334/334/334 303/303/303
f 275/275/275 277/277/277 334/334/334
f 330/330/330 313/313/313 336/336/336
f 336/336/336 313/313/313 306/306/306
f 337/337/337 282/282/282 284/284/284
f 277/277/277 335/335/335 333/333/333
f 325/325/325 337/337/337 284/284/284
f 311/311/311 337/337/337 325/325/325
f 328/328/328 338/338/338 339/339/339
f 328/328/328 266/266/266 338/338/338
f 338/338/338 266/266/266 265/265/265
f 339/339/339 338/338/338 265/265/265
f 291/291/291 326/326/326 321/321/321
f 321/321/321 326/326/326 328/328/328
f 263/263/263 309/309/309 302/302/302
f 309/309/309 303/303/303 302/302/302
f 288/288/288 321/321/321 328/328/328
f 339/339/339 285/285/285 318/318/318
f 288/288/288 328/328/328 318/318/318
f 318/318/318 328/328/328 339/339/339
f 311/311/311 282/282/282 337/337/337
f 325/325/325 284/284/284 305/305/305
g condoInt065
s 1
f 340/340/340 341/341/341 342/342/342
f 343/343/343 340/340/340 342/342/342
f 344/344/344 345/345/345 346/346/346
f 347/347/347 344/344/344 346/346/346
f 347/347/347 348/348/348 344/344/344
f 344/344/344 348/348/348 345/345/345
f 349/349/349 350/350/350 351/351/351
f 352/352/352 349/349/349 351/351/351
f 353/353/353 349/349/349 352/352/352
f 353/353/353 350/350/350 349/349/349
f 354/354/354 355/355/355 356/356/356
f 354/354/354 357/357/357 355/355/355
f 355/355/355 357/357/357 358/358/358
f 356/356/356 355/355/355 358/358/358
f 348/348/348 359/359/359 345/345/345
f 348/348/348 360/360/360 359/359/359
f 358/358/358 359/359/359 360/360/360
f 358/358/358 345/345/345 359/359/359
f 361/361/361 362/362/362 363/363/363
f 364/364/364 365/365/365 366/366/366
f 362/362/362 367/367/367 363/363/363
f 368/368/368 369/369/369 370/370/370
f 368/368/368 371/371/371 369/369/369
f 372/372/372 373/373/373 374/374/374
f 375/375/375 372/372/372 374/374/374
f 376/376/376 377/377/377 343/343/343
f 376/376/376 347/347/347 377/377/377
f 377/377/377 347/347/347 341/341/341
f 378/378/378 346/346/346 345/345/345
f 378/378/378 341/341/341 346/346/346
f 347/347/347 346/346/346 341/341/341
f 379/379/379 366/366/366 380/380/380
f 364/364/364 366/366/366 379/379/379
f 379/379/379 381/381/381 364/364/364
f 380/380/380 381/381/381 379/379/379
f 380/380/380 366/366/366 368/368/368
f 363/363/363 342/342/342 341/341/341
f 363/363/363 350/350/350 342/342/342
f 366/366/366 371/371/371 368/368/368
f 343/343/343 342/342/342 350/350/350
f 353/353/353 343/343/343 350/350/350
f 382/382/382 353/353/353 352/352/352
f 367/367/367 351/351/351 350/350/350
f 352/352/352 351/351/351 383/383/383
f 354/354/354 384/384/384 357/357/357
f 385/385/385 354/354/354 356/356/356
f 356/356/356 358/358/358 360/360/360
f 357/357/357 345/345/345 358/358/358
f 386/386/386 387/387/387 388/388/388
f 389/389/389 384/384/384 354/354/354
f 385/385/385 389/389/389 354/354/354
f 390/390/390 391/391/391 387/387/387
f 387/387/387 391/391/391 392/392/392
f 387/387/387 392/392/392 388/388/388
f 393/393/393 388/388/388 394/394/394
f 393/393/393 394/394/394 395/395/395
f 396/396/396 375/375/375 374/374/374
f 397/397/397 383/383/383 351/351/351
f 367/367/367 397/397/397 351/351/351
f 398/398/398 399/399/399 400/400/400
f 396/396/396 374/374/374 400/400/400
f 401/401/401 361/361/361 402/402/402
f 384/384/384 401/401/401 402/402/402
f 400/400/400 374/374/374 398/398/398
f 403/403/403 399/399/399 404/404/404
f 396/396/396 403/403/403 404/404/404
f 405/405/405 406/406/406 407/407/407
f 405/405/405 408/408/408 406/406/406
f 400/400/400 403/403/403 396/396/396
f 400/400/400 399/399/399 403/403/403
f 409/409/409 410/410/410 411/411/411
f 402/402/402 361/361/361 378/378/378
f 357/357/357 402/402/402 378/378/378
f 384/384/384 402/402/402 357/357/357
f 390/390/390 387/387/387 412/412/412
f 412/412/412 387/387/387 386/386/386
f 413/413/413 386/386/386 380/380/380
f 413/413/413 412/412/412 386/386/386
f 370/370/370 390/390/390 413/413/413
f 380/380/380 386/386/386 381/381/381
f 413/413/413 390/390/390 412/412/412
f 364/364/364 381/381/381 395/395/395
f 386/386/386 388/388/388 393/393/393
f 381/381/381 393/393/393 395/395/395
f 381/381/381 386/386/386 393/393/393
f 380/380/380 368/368/368 414/414/414
f 414/414/414 368/368/368 370/370/370
f 370/370/370 413/413/413 414/414/414
f 398/398/398 415/415/415 416/416/416
f 398/398/398 374/374/374 415/415/415
f 374/374/374 405/405/405 415/415/415
f 378/378/378 361/361/361 341/341/341
f 415/415/415 405/405/405 416/416/416
f 357/357/357 378/378/378 345/345/345
f 417/417/417 418/418/418 419/419/419
f 361/361/361 363/363/363 341/341/341
f 417/417/417 416/416/416 418/418/418
f 363/363/363 367/367/367 350/350/350
f 416/416/416 407/407/407 418/418/418
f 418/418/418 407/407/407 419/419/419
f 420/420/420 421/421/421 422/422/422
f 399/399/399 420/420/420 422/422/422
f 423/423/423 420/420/420 399/399/399
f 423/423/423 421/421/421 420/420/420
f 422/422/422 421/421/421 410/410/410
f 404/404/404 422/422/422 410/410/410
f 399/399/399 422/422/422 404/404/404
f 414/414/414 413/413/413 380/380/380
f 424/424/424 423/423/423 425/425/425
f 425/425/425 423/423/423 398/398/398
f 417/417/417 425/425/425 398/398/398
f 417/417/417 424/424/424 425/425/425
f 396/396/396 410/410/410 409/409/409
f 373/373/373 426/426/426 408/408/408
f 416/416/416 405/405/405 407/407/407
f 374/374/374 408/408/408 405/405/405
f 396/396/396 404/404/404 410/410/410
f 398/398/398 423/423/423 399/399/399
f 424/424/424 421/421/421 423/423/423
f 398/398/398 416/416/416 417/417/417
f 419/419/419 424/424/424 417/417/417
f 427/427/427 343/343/343 353/353/353
f 382/382/382 427/427/427 353/353/353
f 382/382/382 376/376/376 427/427/427
f 427/427/427 376/376/376 343/343/343
f 343/343/343 377/377/377 340/340/340
f 340/340/340 377/377/377 341/341/341
f 374/374/374 373/373/373 408/408/408
