# Exported using wow.export v0.2.19
o darnassis_Entry02.obj
v -367.1136169433594 -18.705970764160156 16.913002014160156
v -367.0255126953125 -18.70433807373047 16.445533752441406
v -368.66473388671875 -17.84029197692871 15.660454750061035
v -365.5625 -19.57164764404297 18.165550231933594
v -367.48193359375 -18.707599639892578 17.21743392944336
v -365.2213134765625 -19.878511428833008 21.4238224029541
v -365.5625 -19.57164764404297 18.165550231933594
v -366.13067626953125 -19.57195472717285 21.254215240478516
v -362.4869079589844 -20.74062156677246 17.35772705078125
v -364.4802551269531 -19.87494468688965 17.395261764526367
v -362.5733642578125 -20.742252349853516 17.82767105102539
v -360.9595031738281 -21.603038787841797 16.49070930480957
v -362.857421875 -20.74240493774414 19.372007369995117
v -364.65313720703125 -19.878204345703125 18.33515167236328
v -368.69219970703125 -18.707752227783203 18.217864990234375
v -369.4013366699219 -17.843551635742188 16.269317626953125
v -366.13067626953125 -19.57195472717285 21.254215240478516
v -369.438720703125 -18.704837799072266 20.548118591308594
v -366.3070068359375 -19.568885803222656 22.20737075805664
v -365.3862609863281 -19.56838607788086 17.23061180114746
v -364.65313720703125 -19.878204345703125 18.33515167236328
v -368.976318359375 -18.707904815673828 19.762197494506836
v -369.3505554199219 -18.706371307373047 20.07154083251953
v -372.5704345703125 -17.840789794921875 18.88886833190918
v -365.2213134765625 -19.878511428833008 21.4238224029541
v -371.8219299316406 -17.843856811523438 18.270179748535156
v -369.5375671386719 -12.072669982910156 18.460643768310547
v -368.4475402832031 -12.755697250366211 19.63833999633789
v -369.98138427734375 -12.323673248291016 18.827472686767578
v -370.6275939941406 -11.389643669128418 17.28294563293457
v -368.23828125 -12.253690719604492 18.507354736328125
v -367.3505859375 -12.755470275878906 17.7735538482666
v -368.8521423339844 -12.393203735351562 15.815342903137207
v -367.14129638671875 -13.25724983215332 16.642362594604492
v -365.8489990234375 -13.11773681640625 19.731765747070312
v -368.23828125 -12.253690719604492 18.507354736328125
v -362.115234375 -14.790122985839844 18.16925048828125
v -364.52423095703125 -14.427854537963867 17.634363174438477
v -362.68206787109375 -15.291901588439941 17.168188095092773
v -359.7062683105469 -15.15239143371582 18.704139709472656
v -362.3236083984375 -14.288345336914062 19.302001953125
v -369.33514404296875 -13.25770378112793 20.37200164794922
v -372.4028015136719 -12.393656730651855 18.750272750854492
v -369.7398681640625 -11.891424179077148 16.549144744873047
v -370.86895751953125 -12.825679779052734 19.561138153076172
v -370.6275939941406 -11.389643669128418 17.28294563293457
v -365.8489990234375 -13.11773681640625 19.731765747070312
v -361.7569274902344 -14.790351867675781 20.30288314819336
v -364.94097900390625 -13.424298286437988 19.899866104125977
v -362.3236083984375 -14.288345336914062 19.302001953125
v -364.94097900390625 -13.424298286437988 19.899866104125977
v -360.8398742675781 -16.155948638916016 16.70201301574707
v -365.4304504394531 -14.121296882629395 17.469383239746094
v -366.2674865722656 -14.12175178527832 21.993732452392578
v -361.96527099609375 -15.2923583984375 21.435436248779297
v -365.3576354980469 -14.428311347961426 22.164976119995117
v -370.6275939941406 -11.389643669128418 17.28294563293457
v -372.4028015136719 -12.393656730651855 18.750272750854492
v -371.22808837890625 -12.312158584594727 17.779314041137695
v -371.82861328125 -13.234673500061035 18.27568244934082
v -370.6182861328125 -12.77180004119873 17.275238037109375
v -369.7398681640625 -11.891424179077148 16.549144744873047
v -365.2228698730469 -15.26932430267334 21.43234634399414
v -364.93878173828125 -14.8064546585083 19.88796615600586
v -364.94097900390625 -13.424298286437988 19.899866104125977
v -365.3576354980469 -14.428311347961426 22.164976119995117
v -364.6546936035156 -15.26901626586914 18.34365463256836
v -364.52423095703125 -14.427854537963867 17.634363174438477
v -364.6546936035156 -15.26901626586914 18.34365463256836
v -364.5661926269531 -17.938737869262695 17.862455368041992
v -364.41949462890625 -17.943166732788086 17.06503677368164
v -364.52423095703125 -14.427854537963867 17.634363174438477
v -364.5661926269531 -17.938737869262695 17.862455368041992
v -364.65313720703125 -19.878204345703125 18.33515167236328
v -364.4802551269531 -19.87494468688965 17.395261764526367
v -368.8521423339844 -12.393203735351562 15.815342903137207
v -364.41949462890625 -17.943166732788086 17.06503677368164
v -372.4028015136719 -12.393656730651855 18.750272750854492
v -372.79437255859375 -15.909088134765625 19.073957443237305
v -372.0956115722656 -15.9044771194458 18.49637222290039
v -371.82861328125 -13.234673500061035 18.27568244934082
v -371.8219299316406 -17.843856811523438 18.270179748535156
v -372.0956115722656 -15.9044771194458 18.49637222290039
v -372.79437255859375 -15.909088134765625 19.073957443237305
v -372.5704345703125 -17.840789794921875 18.88886833190918
v -369.40802001953125 -13.234363555908203 16.27483558654785
v -369.40802001953125 -13.234363555908203 16.27483558654785
v -369.0308837890625 -15.904085159301758 15.963093757629395
v -368.40594482421875 -15.908514976501465 15.446541786193848
v -368.8521423339844 -12.393203735351562 15.815342903137207
v -369.0308837890625 -15.904085159301758 15.963093757629395
v -369.4013366699219 -17.843551635742188 16.269317626953125
v -368.66473388671875 -17.84029197692871 15.660454750061035
v -368.40594482421875 -15.908514976501465 15.446541786193848
v -366.1322326660156 -14.962770462036133 21.262733459472656
v -365.8489990234375 -13.11773681640625 19.731765747070312
v -365.84814453125 -14.499897003173828 19.71836280822754
v -366.2674865722656 -14.12175178527832 21.993732452392578
v -364.65313720703125 -19.878204345703125 18.33515167236328
v -364.5661926269531 -17.938737869262695 17.862455368041992
v -365.4755554199219 -17.63218116760254 17.69285774230957
v -366.19488525390625 -17.632572174072266 21.6033992767334
v -366.2674865722656 -14.12175178527832 21.993732452392578
v -366.1322326660156 -14.962770462036133 21.262733459472656
v -366.3597717285156 -17.637178421020508 22.492708206176758
v -366.13067626953125 -19.57195472717285 21.254215240478516
v -366.3597717285156 -17.637178421020508 22.492708206176758
v -366.19488525390625 -17.632572174072266 21.6033992767334
v -365.5625 -19.57164764404297 18.165550231933594
v -364.5661926269531 -17.938737869262695 17.862455368041992
v -364.6546936035156 -15.26901626586914 18.34365463256836
v -365.5640869140625 -14.96246337890625 18.174053192138672
v -365.4755554199219 -17.63218116760254 17.69285774230957
v -364.6546936035156 -15.26901626586914 18.34365463256836
v -364.93878173828125 -14.8064546585083 19.88796615600586
v -366.3070068359375 -19.568885803222656 22.20737075805664
v -365.4304504394531 -14.121296882629395 17.469383239746094
v -365.5640869140625 -14.96246337890625 18.174053192138672
v -365.3862609863281 -19.56838607788086 17.23061180114746
v -365.32525634765625 -17.636606216430664 16.900806427001953
v -366.1322326660156 -14.962770462036133 21.262733459472656
v -365.84814453125 -14.499897003173828 19.71836280822754
v -364.93878173828125 -14.8064546585083 19.88796615600586
v -365.2855529785156 -17.93912696838379 21.77300453186035
v -365.2213134765625 -19.878511428833008 21.4238224029541
v -366.13067626953125 -19.57195472717285 21.254215240478516
v -365.32525634765625 -17.636606216430664 16.900806427001953
v -365.4304504394531 -14.121296882629395 17.469383239746094
v -366.19488525390625 -17.632572174072266 21.6033992767334
v -365.2228698730469 -15.26932430267334 21.43234634399414
v -365.2855529785156 -17.93912696838379 21.77300453186035
v -366.19488525390625 -17.632572174072266 21.6033992767334
v -366.1322326660156 -14.962770462036133 21.262733459472656
v -365.2228698730469 -15.26932430267334 21.43234634399414
v -366.3070068359375 -19.568885803222656 22.20737075805664
v -369.5506896972656 -17.73898696899414 20.640663146972656
v -366.3597717285156 -17.637178421020508 22.492708206176758
v -369.38128662109375 -15.015417098999023 20.621490478515625
v -369.33514404296875 -13.25770378112793 20.37200164794922
v -366.2674865722656 -14.12175178527832 21.993732452392578
v -372.79437255859375 -15.909088134765625 19.073957443237305
v -372.5704345703125 -17.840789794921875 18.88886833190918
v -369.438720703125 -18.704837799072266 20.548118591308594
v -370.89202880859375 -13.704536437988281 19.685882568359375
v -370.86895751953125 -12.825679779052734 19.561138153076172
v -372.4028015136719 -12.393656730651855 18.750272750854492
v -366.918212890625 -15.01490592956543 16.457962036132812
v -366.8656005859375 -16.772560119628906 16.173673629760742
v -365.32525634765625 -17.636606216430664 16.900806427001953
v -368.40594482421875 -15.908514976501465 15.446541786193848
v -368.66473388671875 -17.84029197692871 15.660454750061035
v -369.57708740234375 -16.77313232421875 20.78333282470703
v -367.87054443359375 -16.326297760009766 21.557098388671875
v -367.0255126953125 -18.70433807373047 16.445533752441406
v -365.3862609863281 -19.56838607788086 17.23061180114746
v -365.4304504394531 -14.121296882629395 17.469383239746094
v -367.14129638671875 -13.25724983215332 16.642362594604492
v -364.41949462890625 -17.943166732788086 17.06503677368164
v -362.68206787109375 -15.291901588439941 17.168188095092773
v -364.52423095703125 -14.427854537963867 17.634363174438477
v -360.8398742675781 -16.155948638916016 16.70201301574707
v -368.8521423339844 -12.393203735351562 15.815342903137207
v -364.4802551269531 -19.87494468688965 17.395261764526367
v -361.124755859375 -19.6712589263916 16.198843002319336
v -360.9595031738281 -21.603038787841797 16.49070930480957
v -366.9949951171875 -17.738449096679688 16.280630111694336
v -357.15386962890625 -23.640954971313477 13.414347648620605
v -358.04400634765625 -23.637691497802734 13.078442573547363
v -359.101806640625 -22.77364730834961 14.556449890136719
v -353.8858337402344 -23.94781494140625 13.644144058227539
v -357.15386962890625 -23.640954971313477 13.414347648620605
v -354.2108154296875 -23.641258239746094 14.51021671295166
v -356.82891845703125 -23.947507858276367 12.548270225524902
v -356.17431640625 -22.777210235595703 17.05353546142578
v -358.1377868652344 -21.913164138793945 19.596853256225586
v -357.658447265625 -21.910099029541016 20.441421508789062
v -358.94342041015625 -21.60660743713379 20.05145263671875
v -360.4935607910156 -21.606298446655273 17.320192337036133
v -362.0823669433594 -20.7425594329834 20.73763656616211
v -362.857421875 -20.74240493774414 19.372007369995117
v -365.2213134765625 -19.878511428833008 21.4238224029541
v -354.2108154296875 -23.641258239746094 14.51021671295166
v -355.4805908203125 -22.774145126342773 17.64540672302246
v -353.302734375 -23.63819122314453 14.849392890930176
v -361.931396484375 -20.739490509033203 21.63693618774414
v -358.4658203125 -21.603538513183594 20.894962310791016
v -365.39697265625 -19.875444412231445 22.378908157348633
v -357.64581298828125 -22.77705955505371 16.505599975585938
v -358.4208984375 -22.776905059814453 15.13996696472168
v -360.15960693359375 -21.90960121154785 16.034456253051758
v -359.6878967285156 -21.912857055664062 16.865585327148438
v -362.1701965332031 -20.741025924682617 21.215179443359375
v -355.93463134765625 -22.775678634643555 17.475818634033203
v -358.1377868652344 -21.913164138793945 19.596853256225586
v -360.4935607910156 -21.606298446655273 17.320192337036133
v -358.94342041015625 -21.60660743713379 20.05145263671875
v -359.6878967285156 -21.912857055664062 16.865585327148438
v -357.89178466796875 -22.345111846923828 18.051227569580078
v -362.5733642578125 -20.742252349853516 17.82767105102539
v -358.65673828125 -22.775278091430664 14.724401473999023
v -360.9595031738281 -21.603038787841797 16.49070930480957
v -362.4869079589844 -20.74062156677246 17.35772705078125
v -356.2044372558594 -16.825002670288086 16.51130485534668
v -357.55352783203125 -16.14197540283203 17.380271911621094
v -358.09228515625 -15.890972137451172 17.179046630859375
v -357.28192138671875 -16.322996139526367 16.10885238647461
v -356.4715576171875 -16.755020141601562 15.038657188415527
v -357.26934814453125 -16.39297866821289 17.881023406982422
v -358.9026184082031 -15.458949089050293 18.24924087524414
v -355.6612243652344 -17.187044143676758 13.968461990356445
v -357.85040283203125 -16.82477569580078 15.10717487335205
v -357.294677734375 -17.256797790527344 14.336555480957031
v -358.9281005859375 -17.326553344726562 14.7046480178833
v -357.8165588378906 -18.190601348876953 13.163408279418945
v -354.8553466796875 -17.50802993774414 15.642337799072266
v -354.5711669921875 -17.759033203125 16.143089294433594
v -355.63604736328125 -17.327009201049805 17.512807846069336
v -353.5062561035156 -18.191057205200195 14.773369789123535
v -360.03961181640625 -16.462507247924805 16.245887756347656
v -358.09228515625 -15.890972137451172 17.179046630859375
v -358.9026184082031 -15.458949089050293 18.24924087524414
v -358.5728759765625 -16.156404495239258 20.70589828491211
v -361.7569274902344 -14.790351867675781 20.30288314819336
v -359.7062683105469 -15.15239143371582 18.704139709472656
v -357.28192138671875 -16.322996139526367 16.10885238647461
v -361.96527099609375 -15.2923583984375 21.435436248779297
v -355.6612243652344 -17.187044143676758 13.968461990356445
v -362.115234375 -14.790122985839844 18.16925048828125
v -359.7062683105469 -15.15239143371582 18.704139709472656
v -362.3236083984375 -14.288345336914062 19.302001953125
v -356.4715576171875 -16.755020141601562 15.038657188415527
v -356.700927734375 -16.89498519897461 18.882526397705078
v -357.76580810546875 -16.462961196899414 20.25224494934082
v -362.3236083984375 -14.288345336914062 19.302001953125
v -360.73077392578125 -19.66683578491211 16.902196884155273
v -360.9595031738281 -21.603038787841797 16.49070930480957
v -360.4935607910156 -21.606298446655273 17.320192337036133
v -361.124755859375 -19.6712589263916 16.198843002319336
v -360.4892578125 -16.99711799621582 17.32771110534668
v -360.8398742675781 -16.155948638916016 16.70201301574707
v -360.73077392578125 -19.66683578491211 16.902196884155273
v -360.8398742675781 -16.155948638916016 16.70201301574707
v -359.7142333984375 -16.5345516204834 18.693323135375977
v -359.7062683105469 -15.15239143371582 18.704139709472656
v -360.4892578125 -16.99711799621582 17.32771110534668
v -358.3228759765625 -19.671833038330078 21.14747428894043
v -358.94342041015625 -21.60660743713379 20.05145263671875
v -358.4658203125 -21.603538513183594 20.894962310791016
v -358.7681884765625 -19.66722297668457 20.360233306884766
v -358.5728759765625 -16.156404495239258 20.70589828491211
v -358.7681884765625 -19.66722297668457 20.360233306884766
v -358.3228759765625 -19.671833038330078 21.14747428894043
v -358.93914794921875 -16.997426986694336 20.05898666381836
v -358.93914794921875 -16.997426986694336 20.05898666381836
v -358.5728759765625 -16.156404495239258 20.70589828491211
v -365.4495544433594 -17.94373893737793 22.664642333984375
v -365.39697265625 -19.875444412231445 22.378908157348633
v -365.2213134765625 -19.878511428833008 21.4238224029541
v -365.2855529785156 -17.93912696838379 21.77300453186035
v -365.3576354980469 -14.428311347961426 22.164976119995117
v -365.4495544433594 -17.94373893737793 22.664642333984375
v -365.2855529785156 -17.93912696838379 21.77300453186035
v -365.2228698730469 -15.26932430267334 21.43234634399414
v -357.6042785644531 -21.701488494873047 13.24663257598877
v -357.15386962890625 -23.640954971313477 13.414347648620605
v -357.21661376953125 -22.82449722290039 12.897451400756836
v -356.82891845703125 -23.947507858276367 12.548270225524902
v -360.3253479003906 -19.977819442749023 15.74244213104248
v -360.1824951171875 -18.220163345336914 15.994165420532227
v -360.0045166015625 -18.640745162963867 16.30777359008789
v -359.68365478515625 -17.30367088317871 16.873104095458984
v -359.9251403808594 -19.973390579223633 16.447587966918945
v -359.68365478515625 -17.30367088317871 16.873104095458984
v -354.20269775390625 -19.03207778930664 14.513242721557617
v -355.67425537109375 -18.569202423095703 13.965291023254395
v -355.3492736816406 -18.87575912475586 13.099203109741211
v -358.9085998535156 -16.84110450744629 18.238718032836914
v -360.20721435546875 -18.485254287719727 16.887649536132812
v -353.8777160644531 -19.33863067626953 13.64714241027832
v -353.8780822753906 -21.701875686645508 14.634109497070312
v -354.20269775390625 -19.03207778930664 14.513242721557617
v -353.8777160644531 -19.33863067626953 13.64714241027832
v -353.5531005859375 -22.008432388305664 13.768034934997559
v -357.5150451660156 -19.9783935546875 20.694091796875
v -357.658447265625 -21.910099029541016 20.441421508789062
v -358.1377868652344 -21.913164138793945 19.596853256225586
v -359.68365478515625 -17.30367088317871 16.873104095458984
v -354.2108154296875 -23.641258239746094 14.51021671295166
v -353.8780822753906 -21.701875686645508 14.634109497070312
v -353.5531005859375 -22.008432388305664 13.768034934997559
v -357.9625549316406 -19.973779678344727 19.905630111694336
v -354.20269775390625 -19.03207778930664 14.513242721557617
v -355.6612243652344 -17.187044143676758 13.968461990356445
v -355.67425537109375 -18.569202423095703 13.965291023254395
v -353.8858337402344 -23.94781494140625 13.644144058227539
v -357.1457824707031 -19.031768798828125 13.417364120483398
v -356.82080078125 -19.338321685791016 12.551275253295898
v -353.5062561035156 -18.191057205200195 14.773369789123535
v -357.76580810546875 -16.462961196899414 20.25224494934082
v -357.64044189453125 -18.22067642211914 20.473167419433594
v -357.86419677734375 -18.21837043762207 20.078937530517578
v -359.6878967285156 -21.912857055664062 16.865585327148438
v -357.9625549316406 -19.973779678344727 19.905630111694336
v -355.3492736816406 -18.87575912475586 13.099203109741211
v -358.1335144042969 -17.303979873657227 19.60439109802246
v -359.9251403808594 -19.973390579223633 16.447587966918945
v -359.9251403808594 -19.973390579223633 16.447587966918945
v -357.1457824707031 -19.031768798828125 13.417364120483398
v -357.6042785644531 -21.701488494873047 13.24663257598877
v -357.2125549316406 -20.51990509033203 12.898961067199707
v -357.2793273925781 -22.008041381835938 12.380558013916016
v -356.82080078125 -19.338321685791016 12.551275253295898
v -353.8780822753906 -21.701875686645508 14.634109497070312
v -353.5062561035156 -18.191057205200195 14.773369789123535
v -354.20269775390625 -19.03207778930664 14.513242721557617
v -358.35821533203125 -21.70591163635254 12.961081504821777
v -358.08740234375 -19.948257446289062 13.062244415283203
v -357.8165588378906 -18.190601348876953 13.163408279418945
v -353.0309143066406 -21.706485748291016 14.950925827026367
v -360.03961181640625 -16.462507247924805 16.245887756347656
v -354.2108154296875 -23.641258239746094 14.51021671295166
v -353.0309143066406 -21.706485748291016 14.950925827026367
v -353.8780822753906 -21.701875686645508 14.634109497070312
v -358.9026184082031 -15.458949089050293 18.24924087524414
v -357.76580810546875 -16.462961196899414 20.25224494934082
v -358.1335144042969 -17.303979873657227 19.60439109802246
v -358.9085998535156 -16.84110450744629 18.238718032836914
v -353.302734375 -23.63819122314453 14.849392890930176
v -357.8165588378906 -18.190601348876953 13.163408279418945
v -357.5150451660156 -19.9783935546875 20.694091796875
v -358.04400634765625 -23.637691497802734 13.078442573547363
v -358.35821533203125 -21.70591163635254 12.961081504821777
v -360.15960693359375 -21.90960121154785 16.034456253051758
v -360.3253479003906 -19.977819442749023 15.74244213104248
v -359.9251403808594 -19.973390579223633 16.447587966918945
v -359.6878967285156 -21.912857055664062 16.865585327148438
v -358.93914794921875 -16.997426986694336 20.05898666381836
v -359.7142333984375 -16.5345516204834 18.693323135375977
v -358.9085998535156 -16.84110450744629 18.238718032836914
v -358.1335144042969 -17.303979873657227 19.60439109802246
v -360.03961181640625 -16.462507247924805 16.245887756347656
v -359.68365478515625 -17.30367088317871 16.873104095458984
v -358.7681884765625 -19.66722297668457 20.360233306884766
v -358.93914794921875 -16.997426986694336 20.05898666381836
v -358.1335144042969 -17.303979873657227 19.60439109802246
v -357.9625549316406 -19.973779678344727 19.905630111694336
v -358.94342041015625 -21.60660743713379 20.05145263671875
v -358.7681884765625 -19.66722297668457 20.360233306884766
v -357.9625549316406 -19.973779678344727 19.905630111694336
v -358.1377868652344 -21.913164138793945 19.596853256225586
v -357.2793273925781 -22.008041381835938 12.380558013916016
v -361.124755859375 -19.6712589263916 16.198843002319336
v -356.46197509765625 -20.893342971801758 19.23291778564453
v -357.5150451660156 -19.9783935546875 20.694091796875
v -355.2729797363281 -20.842439651489258 17.822509765625
v -355.40887451171875 -21.808292388916016 17.77174186706543
v -361.95770263671875 -19.773639678955078 21.779802322387695
v -361.931396484375 -20.739490509033203 21.63693618774414
v -365.39697265625 -19.875444412231445 22.378908157348633
v -358.4658203125 -21.603538513183594 20.894962310791016
v -357.658447265625 -21.910099029541016 20.441421508789062
v -357.64044189453125 -18.22067642211914 20.473167419433594
v -356.45672607421875 -19.531558990478516 19.147838592529297
v -355.39837646484375 -19.08472442626953 17.601585388183594
v -360.1824951171875 -18.220163345336914 15.994165420532227
v -358.9281005859375 -17.326553344726562 14.7046480178833
v -360.03961181640625 -16.462507247924805 16.245887756347656
v -357.76580810546875 -16.462961196899414 20.25224494934082
v -356.58209228515625 -17.773841857910156 18.92691421508789
v -355.63604736328125 -17.327009201049805 17.512807846069336
v -355.4805908203125 -22.774145126342773 17.64540672302246
v -353.302734375 -23.63819122314453 14.849392890930176
v -357.8165588378906 -18.190601348876953 13.163408279418945
v -359.0709533691406 -19.084209442138672 14.452924728393555
v -358.08740234375 -19.948257446289062 13.062244415283203
v -361.84027099609375 -17.050071716308594 21.656225204467773
v -363.59893798828125 -15.739191055297852 21.910600662231445
v -361.96527099609375 -15.2923583984375 21.435436248779297
v -365.4495544433594 -17.94373893737793 22.664642333984375
v -365.3576354980469 -14.428311347961426 22.164976119995117
v -361.88623046875 -18.807785034179688 21.90605926513672
v -358.3228759765625 -19.671833038330078 21.14747428894043
v -356.5194091796875 -18.652700424194336 19.037376403808594
v -358.5728759765625 -16.156404495239258 20.70589828491211
v -353.0309143066406 -21.706485748291016 14.950925827026367
v -356.700927734375 -16.89498519897461 18.882526397705078
v -360.0815734863281 -18.360952377319336 21.4018497467041
v -354.5711669921875 -17.759033203125 16.143089294433594
v -354.45233154296875 -18.637889862060547 16.187477111816406
v -353.5062561035156 -18.191057205200195 14.773369789123535
v -354.21466064453125 -20.395605087280273 16.276256561279297
v -358.714599609375 -20.395061492919922 13.707002639770508
v -358.35821533203125 -21.70591163635254 12.961081504821777
v -359.341796875 -20.84186553955078 14.351761817932129
v -359.626708984375 -18.65218734741211 15.22354507446289
v -360.3253479003906 -19.977819442749023 15.74244213104248
v -359.2589111328125 -21.807756423950195 14.49776840209961
v -360.15960693359375 -21.90960121154785 16.034456253051758
v -359.101806640625 -22.77364730834961 14.556449890136719
v -358.04400634765625 -23.637691497802734 13.078442573547363
vn -0.24737608432769775 0.9590771198272705 0.1377536803483963
vn -0.5252487659454346 0.8252114653587341 0.20770129561424255
vn -0.4311074912548065 0.8949266672134399 -0.11511993408203125
vn -0.038457468152046204 0.9255767464637756 0.37660157680511475
vn -0.07129591703414917 0.8957438468933105 0.4388163983821869
vn 0.35518088936805725 0.7317940592765808 -0.5816562175750732
vn -0.038457468152046204 0.9255767464637756 0.37660157680511475
vn -0.13861557841300964 0.9137813448905945 -0.3818237781524658
vn 0.4698348641395569 0.818357527256012 0.33097752928733826
vn 0.6904213428497314 0.6473268866539001 0.32293379306793213
vn 0.38598909974098206 0.8394427299499512 0.3825550675392151
vn -0.10175445675849915 0.6581729650497437 0.745958685874939
vn 0.393047571182251 0.9005532264709473 0.18578897416591644
vn 0.543042778968811 0.7178111672401428 0.435719758272171
vn 0.17527231574058533 0.9785253405570984 0.10847965627908707
vn -0.10371807217597961 0.8606806993484497 0.49846896529197693
vn -0.13861557841300964 0.9137813448905945 -0.3818237781524658
vn -0.0984281525015831 0.7420684099197388 -0.663058340549469
vn -0.16213104128837585 0.7331291437149048 -0.6604810357093811
vn -0.5574440956115723 0.6581737995147705 0.5060269832611084
vn 0.543042778968811 0.7178111672401428 0.435719758272171
vn 0.11920611560344696 0.9500926733016968 -0.28829485177993774
vn -0.08776374906301498 0.8433225750923157 -0.5301927924156189
vn -0.03431730717420578 0.7479321360588074 -0.662887454032898
vn 0.5540576577186584 0.831024169921875 0.049182817339897156
vn 0.3679039776325226 0.9136855006217957 -0.17270033061504364
vn -0.36468103528022766 -0.7069870829582214 -0.6059512495994568
vn -0.31719082593917847 -0.6957615613937378 -0.6444423794746399
vn -0.2568278908729553 -0.6590259671211243 -0.7069117426872253
vn -0.4107625484466553 -0.715481698513031 -0.5651195049285889
vn -0.531289279460907 -0.7819444537162781 -0.32602858543395996
vn -0.7187988758087158 -0.6925033926963806 -0.06137764826416969
vn -0.8112444281578064 -0.5816870331764221 -0.05935268476605415
vn -0.8468690514564514 -0.5044271349906921 0.16842231154441833
vn -0.611380398273468 -0.788894534111023 -0.06212408468127251
vn -0.531289279460907 -0.7819444537162781 -0.32602858543395996
vn -0.14568957686424255 -0.7958691120147705 0.5876793265342712
vn 0.2446090430021286 -0.651452362537384 0.7181756496429443
vn -0.07716512680053711 -0.5589521527290344 0.8256016373634338
vn -0.5082753300666809 -0.7888967990875244 0.34539541602134705
vn -0.25096842646598816 -0.9552741646766663 0.15641644597053528
vn -0.09082536399364471 -0.5716038942337036 -0.8154875040054321
vn 0.04029390588402748 -0.4576297104358673 -0.8882293701171875
vn -0.6471251845359802 -0.6869277954101562 -0.3306950628757477
vn -0.02537851221859455 -0.5169140100479126 -0.8556610345840454
vn -0.4107625484466553 -0.715481698513031 -0.5651195049285889
vn -0.611380398273468 -0.788894534111023 -0.06212408468127251
vn -0.3223477900028229 -0.9124997854232788 -0.251865416765213
vn 0.03886429965496063 -0.9978467226028442 -0.05283428728580475
vn -0.25096842646598816 -0.9552741646766663 0.15641644597053528
vn 0.03886429965496063 -0.9978467226028442 -0.05283428728580475
vn -0.3893989622592926 -0.39734572172164917 0.8309541344642639
vn -0.8324270844459534 -0.3973456919193268 0.38624024391174316
vn -0.21872270107269287 -0.6653010845184326 -0.7138170599937439
vn -0.20297090709209442 -0.7239038944244385 -0.6593679785728455
vn 0.27053508162498474 -0.6038501858711243 -0.7497838139533997
vn -0.4107625484466553 -0.715481698513031 -0.5651195049285889
vn 0.04029390588402748 -0.4576297104358673 -0.8882293701171875
vn -0.26352229714393616 0.8537601232528687 0.4490540623664856
vn 0.8094053268432617 -0.576042115688324 -0.11418604850769043
vn 0.26331478357315063 -0.9110878109931946 0.3171502649784088
vn 0.6471251845359802 0.6869277954101562 0.3306950628757477
vn 0.9834992289543152 1.2457428510970203e-7 0.18091219663619995
vn 0.9834986329078674 0.000005850357865710976 0.18091565370559692
vn 0.03886429965496063 -0.9978467226028442 -0.05283428728580475
vn 0.27053508162498474 -0.6038501858711243 -0.7497838139533997
vn 0.9834973216056824 0.0000011064115597037016 0.18092279136180878
vn 0.2446090430021286 -0.651452362537384 0.7181756496429443
vn 0.9834973216056824 0.0000011064115597037016 0.18092279136180878
vn 0.9834951758384705 -0.000006144948201836087 0.18093423545360565
vn 0.578877329826355 -0.0011118761030957103 0.8154138922691345
vn 0.2446090430021286 -0.651452362537384 0.7181756496429443
vn 0.9834951758384705 -0.000006144948201836087 0.18093423545360565
vn 0.543042778968811 0.7178111672401428 0.435719758272171
vn 0.6904213428497314 0.6473268866539001 0.32293379306793213
vn -0.8112444281578064 -0.5816870331764221 -0.05935268476605415
vn 0.578877329826355 -0.0011118761030957103 0.8154138922691345
vn 0.04029390588402748 -0.4576297104358673 -0.8882293701171875
vn 0.16111382842063904 0.0036172482650727034 -0.986929178237915
vn 0.9906372427940369 0.02213125117123127 -0.13471467792987823
vn 0.8094053268432617 -0.576042115688324 -0.11418604850769043
vn 0.3679039776325226 0.9136855006217957 -0.17270033061504364
vn 0.9906372427940369 0.02213125117123127 -0.13471467792987823
vn 0.16111382842063904 0.0036172482650727034 -0.986929178237915
vn -0.03431730717420578 0.7479321360588074 -0.662887454032898
vn -0.2521306276321411 -0.5964176058769226 0.7620474100112915
vn -0.2521306276321411 -0.5964176058769226 0.7620474100112915
vn -0.32283705472946167 0.025893962010741234 0.9461002945899963
vn -0.9546871185302734 -0.002552699064835906 0.2976003885269165
vn -0.8112444281578064 -0.5816870331764221 -0.05935268476605415
vn -0.32283705472946167 0.025893962010741234 0.9461002945899963
vn -0.10371807217597961 0.8606806993484497 0.49846896529197693
vn -0.4311074912548065 0.8949266672134399 -0.11511993408203125
vn -0.9546871185302734 -0.002552699064835906 0.2976003885269165
vn -0.5159285068511963 -0.49271294474601746 -0.7007508277893066
vn -0.611380398273468 -0.788894534111023 -0.06212408468127251
vn -0.6491425037384033 -0.7511165738105774 -0.12015785276889801
vn -0.21872270107269287 -0.6653010845184326 -0.7138170599937439
vn 0.543042778968811 0.7178111672401428 0.435719758272171
vn -0.17324058711528778 0.030712494626641273 0.9844005703926086
vn -0.6056851148605347 0.027111222967505455 0.795242428779602
vn -0.2744734287261963 0.023344753310084343 -0.9613112807273865
vn -0.21872270107269287 -0.6653010845184326 -0.7138170599937439
vn -0.5159285068511963 -0.49271294474601746 -0.7007508277893066
vn -0.026969192549586296 0.0049781277775764465 -0.9996238946914673
vn -0.13861557841300964 0.9137813448905945 -0.3818237781524658
vn -0.026969192549586296 0.0049781277775764465 -0.9996238946914673
vn -0.2744734287261963 0.023344753310084343 -0.9613112807273865
vn -0.038457468152046204 0.9255767464637756 0.37660157680511475
vn -0.17324058711528778 0.030712494626641273 0.9844005703926086
vn -0.34433090686798096 -0.6428914666175842 0.6841979026794434
vn -0.7302802801132202 -0.5090211629867554 0.4556184411048889
vn -0.6056851148605347 0.027111222967505455 0.795242428779602
vn -0.34433090686798096 -0.6428914666175842 0.6841979026794434
vn -0.309356689453125 -0.9492334723472595 -0.057046033442020416
vn -0.16213104128837585 0.7331291437149048 -0.6604810357093811
vn -0.8324270844459534 -0.3973456919193268 0.38624024391174316
vn -0.7302802801132202 -0.5090211629867554 0.4556184411048889
vn -0.5574440956115723 0.6581737995147705 0.5060269832611084
vn -0.7530596256256104 -0.0019404035992920399 0.6579494476318359
vn -0.5159285068511963 -0.49271294474601746 -0.7007508277893066
vn -0.6491425037384033 -0.7511165738105774 -0.12015785276889801
vn -0.309356689453125 -0.9492334723472595 -0.057046033442020416
vn 0.19173187017440796 0.025932030752301216 -0.9811046719551086
vn 0.35518088936805725 0.7317940592765808 -0.5816562175750732
vn -0.13861557841300964 0.9137813448905945 -0.3818237781524658
vn -0.7530596256256104 -0.0019404035992920399 0.6579494476318359
vn -0.8324270844459534 -0.3973456919193268 0.38624024391174316
vn -0.2744734287261963 0.023344753310084343 -0.9613112807273865
vn -0.06509692221879959 -0.623959481716156 -0.7787405848503113
vn 0.19173187017440796 0.025932030752301216 -0.9811046719551086
vn -0.2744734287261963 0.023344753310084343 -0.9613112807273865
vn -0.5159285068511963 -0.49271294474601746 -0.7007508277893066
vn -0.06509692221879959 -0.623959481716156 -0.7787405848503113
vn -0.16213104128837585 0.7331291437149048 -0.6604810357093811
vn -0.0005636626156046987 0.40824922919273376 -0.9128704071044922
vn -0.026969192549586296 0.0049781277775764465 -0.9996238946914673
vn 0.0068634310737252235 -0.2331564575433731 -0.9724149703979492
vn -0.09082536399364471 -0.5716038942337036 -0.8154875040054321
vn -0.21872270107269287 -0.6653010845184326 -0.7138170599937439
vn 0.16111382842063904 0.0036172482650727034 -0.986929178237915
vn -0.03431730717420578 0.7479321360588074 -0.662887454032898
vn -0.0984281525015831 0.7420684099197388 -0.663058340549469
vn 0.02375328354537487 -0.34795093536376953 -0.937211811542511
vn -0.02537851221859455 -0.5169140100479126 -0.8556610345840454
vn 0.04029390588402748 -0.4576297104358673 -0.8882293701171875
vn -0.9142076373100281 -0.20457011461257935 0.3498222827911377
vn -0.872675359249115 -0.002296019345521927 0.4882953464984894
vn -0.7530596256256104 -0.0019404035992920399 0.6579494476318359
vn -0.9546871185302734 -0.002552699064835906 0.2976003885269165
vn -0.4311074912548065 0.8949266672134399 -0.11511993408203125
vn 0.06737226992845535 0.004316907841712236 -0.9977186322212219
vn -0.010127328336238861 -0.11493406444787979 -0.9933215379714966
vn -0.5252487659454346 0.8252114653587341 0.20770129561424255
vn -0.5574440956115723 0.6581737995147705 0.5060269832611084
vn -0.8324270844459534 -0.3973456919193268 0.38624024391174316
vn -0.8468690514564514 -0.5044271349906921 0.16842231154441833
vn 0.578877329826355 -0.0011118761030957103 0.8154138922691345
vn -0.07716512680053711 -0.5589521527290344 0.8256016373634338
vn 0.2446090430021286 -0.651452362537384 0.7181756496429443
vn -0.3893989622592926 -0.39734572172164917 0.8309541344642639
vn -0.8112444281578064 -0.5816870331764221 -0.05935268476605415
vn 0.6904213428497314 0.6473268866539001 0.32293379306793213
vn -0.15395116806030273 -0.0019381969468668103 0.9880765676498413
vn -0.10175445675849915 0.6581729650497437 0.745958685874939
vn -0.7497823238372803 0.5654144883155823 0.34370481967926025
vn 0.36420324444770813 0.9255766272544861 0.10326634347438812
vn 0.4015454053878784 0.6581740379333496 0.6368423700332642
vn 0.636828601360321 0.7305523753166199 0.2464599460363388
vn -0.19443801045417786 0.8291486501693726 -0.5241243839263916
vn 0.36420324444770813 0.9255766272544861 0.10326634347438812
vn -0.4000908434391022 0.9137827157974243 0.07020329684019089
vn 0.5293168425559998 0.7211653590202332 -0.4469274580478668
vn 0.031736649572849274 0.9895302057266235 -0.14079350233078003
vn 0.4560510516166687 0.8310238718986511 -0.3184599280357361
vn 0.1676865816116333 0.7975942492485046 -0.5794174671173096
vn -0.3516203463077545 0.913779079914093 -0.2033984512090683
vn 0.21261319518089294 0.9255771040916443 0.3132134675979614
vn 0.11480825394392014 0.989530086517334 -0.08746030181646347
vn 0.393047571182251 0.9005532264709473 0.18578897416591644
vn 0.5540576577186584 0.831024169921875 0.049182817339897156
vn -0.4000908434391022 0.9137827157974243 0.07020329684019089
vn -0.3005519509315491 0.9004597067832947 -0.314389705657959
vn -0.6786043643951416 0.7331256866455078 0.04497641697525978
vn -0.028152281418442726 0.9004567861557007 -0.43403366208076477
vn -0.5487523078918457 0.7331235408782959 -0.4017471969127655
vn 0.5008953213691711 0.7975923418998718 -0.33608078956604004
vn 0.4205177128314972 0.900551974773407 -0.1103227511048317
vn 0.5879979729652405 0.7914482951164246 -0.16693751513957977
vn 0.7364703416824341 0.6473265886306763 -0.19641728699207306
vn 0.7288352251052856 0.5456585884094238 -0.4135890603065491
vn 0.08290350437164307 0.9504519701004028 -0.29961299896240234
vn -0.1290712207555771 0.9504537582397461 -0.2828041613101959
vn -0.10179594904184341 0.7317922711372375 -0.6738825440406799
vn 0.21261319518089294 0.9255771040916443 0.3132134675979614
vn -0.3516203463077545 0.913779079914093 -0.2033984512090683
vn 0.5171536207199097 0.7514274716377258 0.40976688265800476
vn 0.44101715087890625 0.8711861968040466 -0.21572808921337128
vn 0.38598909974098206 0.8394427299499512 0.3825550675392151
vn 0.5726632475852966 0.8183569312095642 -0.048464979976415634
vn -0.10175445675849915 0.6581729650497437 0.745958685874939
vn 0.4698348641395569 0.818357527256012 0.33097752928733826
vn -0.4088272750377655 -0.9125003218650818 0.014262959361076355
vn -0.21124498546123505 -0.977082371711731 -0.026182323694229126
vn -0.048746269196271896 -0.9927758574485779 0.10963533818721771
vn -0.09171076864004135 -0.9552737474441528 0.2811426520347595
vn -0.13167934119701385 -0.886565625667572 0.44346585869789124
vn -0.31195902824401855 -0.9205012917518616 -0.2352847158908844
vn -0.004189373459666967 -0.9978468418121338 -0.06545345485210419
vn -0.16734632849693298 -0.7888959050178528 0.5913023352622986
vn 0.2661483585834503 -0.7958680391311646 0.5438374280929565
vn 0.16190780699253082 -0.7173184752464294 0.6776724457740784
vn 0.47157251834869385 -0.5589517951011658 0.6820499897003174
vn 0.23582513630390167 -0.39734601974487305 0.8868498206138611
vn -0.5880755186080933 -0.806996762752533 0.05406861752271652
vn -0.6814916729927063 -0.7170789837837219 -0.14617420732975006
vn -0.5793153047561646 -0.7239074110984802 -0.3746355473995209
vn -0.7409512400627136 -0.665303111076355 0.0914495438337326
vn 0.6490164995193481 -0.6514508128166199 0.39292412996292114
vn -0.048746269196271896 -0.9927758574485779 0.10963533818721771
vn -0.004189373459666967 -0.9978468418121338 -0.06545345485210419
vn -0.6263844966888428 -0.6653010845184326 -0.40622276067733765
vn -0.3223477900028229 -0.9124997854232788 -0.251865416765213
vn -0.5082753300666809 -0.7888967990875244 0.34539541602134705
vn -0.09171076864004135 -0.9552737474441528 0.2811426520347595
vn -0.20297090709209442 -0.7239038944244385 -0.6593679785728455
vn -0.16734632849693298 -0.7888959050178528 0.5913023352622986
vn -0.14568957686424255 -0.7958691120147705 0.5876793265342712
vn -0.5082753300666809 -0.7888967990875244 0.34539541602134705
vn -0.25096842646598816 -0.9552741646766663 0.15641644597053528
vn -0.13167934119701385 -0.886565625667572 0.44346585869789124
vn -0.4408268332481384 -0.6853604912757874 -0.5796143412590027
vn -0.2747066915035248 -0.6038542985916138 -0.7482621073722839
vn -0.25096842646598816 -0.9552741646766663 0.15641644597053528
vn 0.04718960076570511 0.027112452313303947 0.9985179305076599
vn -0.10175445675849915 0.6581729650497437 0.745958685874939
vn 0.21261319518089294 0.9255771040916443 0.3132134675979614
vn -0.15395116806030273 -0.0019381969468668103 0.9880765676498413
vn -0.26655274629592896 -0.5090187191963196 0.8184434175491333
vn -0.3893989622592926 -0.39734572172164917 0.8309541344642639
vn 0.04718960076570511 0.027112452313303947 0.9985179305076599
vn -0.3893989622592926 -0.39734572172164917 0.8309541344642639
vn -0.5745046138763428 -0.7511206865310669 0.32521089911460876
vn -0.5082753300666809 -0.7888967990875244 0.34539541602134705
vn -0.26655274629592896 -0.5090187191963196 0.8184434175491333
vn -0.6632050275802612 0.004973755218088627 -0.7484212517738342
vn -0.3516203463077545 0.913779079914093 -0.2033984512090683
vn -0.5487523078918457 0.7331235408782959 -0.4017471969127655
vn -0.8281811475753784 0.023337308317422867 -0.5599744319915771
vn -0.6263844966888428 -0.6653010845184326 -0.40622276067733765
vn -0.8281811475753784 0.023337308317422867 -0.5599744319915771
vn -0.6632050275802612 0.004973755218088627 -0.7484212517738342
vn -0.8456587195396423 -0.4927159547805786 -0.20516417920589447
vn -0.8456587195396423 -0.4927159547805786 -0.20516417920589447
vn -0.6263844966888428 -0.6653010845184326 -0.40622276067733765
vn 0.3100575804710388 0.00476911012083292 -0.9507058262825012
vn 0.5008953213691711 0.7975923418998718 -0.33608078956604004
vn 0.5540576577186584 0.831024169921875 0.049182817339897156
vn 0.9835005402565002 0.0000037866020647925325 0.1809053272008896
vn 0.27053508162498474 -0.6038501858711243 -0.7497838139533997
vn 0.3100575804710388 0.00476911012083292 -0.9507058262825012
vn 0.9835005402565002 0.0000037866020647925325 0.1809053272008896
vn 0.9834992289543152 1.2457428510970203e-7 0.18091219663619995
vn 0.6779934167861938 0.027116842567920685 0.7345676422119141
vn 0.36420324444770813 0.9255766272544861 0.10326634347438812
vn 0.8330713510513306 0.516331672668457 0.19847823679447174
vn 0.5293168425559998 0.7211653590202332 -0.4469274580478668
vn 0.9675852656364441 -0.0011128403712064028 0.25254204869270325
vn 0.8696100115776062 -0.3510301113128662 0.3472122251987457
vn 0.9915040135383606 -0.0006018883432261646 -0.13007500767707825
vn 0.8697031736373901 -0.000002477769612596603 -0.49357515573501587
vn 0.8696950674057007 -0.0000060454535741882864 -0.4935894310474396
vn 0.17602762579917908 -0.6428905725479126 0.745456874370575
vn -0.7796900272369385 -0.4927191138267517 0.38640832901000977
vn -0.23105713725090027 -0.7511184811592102 0.6184121966362
vn 0.20417024195194244 -0.8107312321662903 -0.5486614108085632
vn -0.27364784479141235 -0.9492344856262207 0.1551477015018463
vn 0.1322183609008789 -0.27083951234817505 0.9535010457038879
vn -0.3404083251953125 -0.49480175971984863 -0.7995582818984985
vn -0.9943689107894897 0.023339321836829185 0.10337173193693161
vn -0.7796900272369385 -0.4927191138267517 0.38640832901000977
vn -0.3404083251953125 -0.49480175971984863 -0.7995582818984985
vn -0.4106490910053253 0.018233347684144974 -0.9116111397743225
vn -0.37358221411705017 0.004766870755702257 -0.9275848269462585
vn 0.1676865816116333 0.7975942492485046 -0.5794174671173096
vn 0.4560510516166687 0.8310238718986511 -0.3184599280357361
vn 0.17602762579917908 -0.6428905725479126 0.745456874370575
vn -0.4000908434391022 0.9137827157974243 0.07020329684019089
vn -0.9943689107894897 0.023339321836829185 0.10337173193693161
vn -0.4106490910053253 0.018233347684144974 -0.9116111397743225
vn 0.8696967959403992 0.0000017996421775023919 -0.49358633160591125
vn -0.7796900272369385 -0.4927191138267517 0.38640832901000977
vn -0.16734632849693298 -0.7888959050178528 0.5913023352622986
vn -0.23105713725090027 -0.7511184811592102 0.6184121966362
vn -0.19443801045417786 0.8291486501693726 -0.5241243839263916
vn 0.32188060879707336 -0.5090177655220032 0.7983068227767944
vn 0.7684600949287415 -0.5130447149276733 -0.38243189454078674
vn -0.7409512400627136 -0.665303111076355 0.0914495438337326
vn -0.2747066915035248 -0.6038542985916138 -0.7482621073722839
vn -0.3422659635543823 -0.31628990173339844 -0.8847681879997253
vn 0.3957081437110901 -0.40160220861434937 -0.8259120583534241
vn 0.5171536207199097 0.7514274716377258 0.40976688265800476
vn 0.8696967959403992 0.0000017996421775023919 -0.49358633160591125
vn 0.20417024195194244 -0.8107312321662903 -0.5486614108085632
vn 0.8696839809417725 0.000001554256755298411 -0.49360889196395874
vn 0.5000519156455994 0.03071296215057373 0.8654506206512451
vn 0.5000519156455994 0.03071296215057373 0.8654506206512451
vn 0.32188060879707336 -0.5090177655220032 0.7983068227767944
vn 0.6779934167861938 0.027116842567920685 0.7345676422119141
vn 0.893675684928894 -0.3542998731136322 0.27534598112106323
vn 0.9074817895889282 0.021634109318256378 -0.4195340573787689
vn 0.7684600949287415 -0.5130447149276733 -0.38243189454078674
vn -0.9943689107894897 0.023339321836829185 0.10337173193693161
vn -0.7409512400627136 -0.665303111076355 0.0914495438337326
vn -0.7796900272369385 -0.4927191138267517 0.38640832901000977
vn 0.5171923637390137 -0.0019392160465940833 0.8558670282363892
vn 0.3881571888923645 -0.20581915974617004 0.898316502571106
vn 0.23582513630390167 -0.39734601974487305 0.8868498206138611
vn -0.9891201853752136 0.004979580640792847 -0.14702557027339935
vn 0.6490164995193481 -0.6514508128166199 0.39292412996292114
vn -0.4000908434391022 0.9137827157974243 0.07020329684019089
vn -0.9891201853752136 0.004979580640792847 -0.14702557027339935
vn -0.9943689107894897 0.023339321836829185 0.10337173193693161
vn -0.004189373459666967 -0.9978468418121338 -0.06545345485210419
vn -0.2747066915035248 -0.6038542985916138 -0.7482621073722839
vn 0.8696839809417725 0.000001554256755298411 -0.49360889196395874
vn 0.8696944713592529 0.000002316382960998453 -0.49359047412872314
vn -0.6786043643951416 0.7331256866455078 0.04497641697525978
vn 0.23582513630390167 -0.39734601974487305 0.8868498206138611
vn -0.37358221411705017 0.004766870755702257 -0.9275848269462585
vn 0.4015454053878784 0.6581740379333496 0.6368423700332642
vn 0.5171923637390137 -0.0019392160465940833 0.8558670282363892
vn 0.7364703416824341 0.6473265886306763 -0.19641728699207306
vn 0.9675852656364441 -0.0011128403712064028 0.25254204869270325
vn 0.8696950674057007 -0.0000060454535741882864 -0.4935894310474396
vn 0.7288352251052856 0.5456585884094238 -0.4135890603065491
vn -0.8456587195396423 -0.4927159547805786 -0.20516417920589447
vn -0.5745046138763428 -0.7511206865310669 0.32521089911460876
vn -0.27364784479141235 -0.9492344856262207 0.1551477015018463
vn -0.5504323840141296 -0.6239585876464844 -0.5547069907188416
vn 0.6490164995193481 -0.6514508128166199 0.39292412996292114
vn 0.8697031736373901 -0.000002477769612596603 -0.49357515573501587
vn -0.8281811475753784 0.023337308317422867 -0.5599744319915771
vn -0.8456587195396423 -0.4927159547805786 -0.20516417920589447
vn -0.5504323840141296 -0.6239585876464844 -0.5547069907188416
vn -0.4837687015533447 0.025929588824510574 -0.8748117089271545
vn -0.3516203463077545 0.913779079914093 -0.2033984512090683
vn -0.8281811475753784 0.023337308317422867 -0.5599744319915771
vn -0.4837687015533447 0.025929588824510574 -0.8748117089271545
vn -0.10179594904184341 0.7317922711372375 -0.6738825440406799
vn 0.9074817895889282 0.021634109318256378 -0.4195340573787689
vn -0.15395116806030273 -0.0019381969468668103 0.9880765676498413
vn -0.5557687282562256 0.2534103989601135 -0.7917728424072266
vn -0.37358221411705017 0.004766870755702257 -0.9275848269462585
vn -0.7852085828781128 0.0056160446256399155 -0.619205892086029
vn -0.6748975515365601 0.47330185770988464 -0.5661260485649109
vn -0.15310417115688324 0.4733009338378906 -0.8674938082695007
vn -0.028152281418442726 0.9004567861557007 -0.43403366208076477
vn 0.5008953213691711 0.7975923418998718 -0.33608078956604004
vn -0.5487523078918457 0.7331235408782959 -0.4017471969127655
vn 0.1676865816116333 0.7975942492485046 -0.5794174671173096
vn -0.3422659635543823 -0.31628990173339844 -0.8847681879997253
vn -0.6009147763252258 -0.18847230076789856 -0.776775062084198
vn -0.761086106300354 -0.36064690351486206 -0.5391490459442139
vn 0.8696100115776062 -0.3510301113128662 0.3472122251987457
vn 0.47157251834869385 -0.5589517951011658 0.6820499897003174
vn 0.6490164995193481 -0.6514508128166199 0.39292412996292114
vn -0.2747066915035248 -0.6038542985916138 -0.7482621073722839
vn -0.5413764119148254 -0.5041145086288452 -0.6728894114494324
vn -0.5793153047561646 -0.7239074110984802 -0.3746355473995209
vn -0.3005519509315491 0.9004597067832947 -0.314389705657959
vn -0.6786043643951416 0.7331256866455078 0.04497641697525978
vn 0.23582513630390167 -0.39734601974487305 0.8868498206138611
vn 0.7060366868972778 -0.23377442359924316 0.6684772372245789
vn 0.3881571888923645 -0.20581915974617004 0.898316502571106
vn -0.23646831512451172 -0.36064714193344116 -0.9022285342216492
vn 0.017805621027946472 -0.5041122436523438 -0.8634545803070068
vn -0.20297090709209442 -0.7239038944244385 -0.6593679785728455
vn 0.3100575804710388 0.00476911012083292 -0.9507058262825012
vn 0.27053508162498474 -0.6038501858711243 -0.7497838139533997
vn -0.20348858833312988 0.005613978020846844 -0.9790612459182739
vn -0.6632050275802612 0.004973755218088627 -0.7484212517738342
vn -0.5733599066734314 -0.3517720401287079 -0.7399424910545349
vn -0.6263844966888428 -0.6653010845184326 -0.40622276067733765
vn -0.9891201853752136 0.004979580640792847 -0.14702557027339935
vn -0.4408268332481384 -0.6853604912757874 -0.5796143412590027
vn -0.4702307879924774 -0.18589921295642853 -0.8627424240112305
vn -0.6814916729927063 -0.7170789837837219 -0.14617420732975006
vn -0.8018282651901245 -0.5476799011230469 -0.23899413645267487
vn -0.7409512400627136 -0.665303111076355 0.0914495438337326
vn -0.9147778153419495 -0.1858961433172226 -0.35864192247390747
vn 0.6213629245758057 -0.11973531544208527 0.7743201851844788
vn 0.5171923637390137 -0.0019392160465940833 0.8558670282363892
vn 0.8013373017311096 -0.001647200551815331 0.5982104539871216
vn 0.7972825169563293 -0.31027156114578247 0.5177569389343262
vn 0.9675852656364441 -0.0011128403712064028 0.25254204869270325
vn 0.8053743243217468 0.41460785269737244 0.42364177107810974
vn 0.7364703416824341 0.6473265886306763 -0.19641728699207306
vn 0.636828601360321 0.7305523753166199 0.2464599460363388
vn 0.4015454053878784 0.6581740379333496 0.6368423700332642
vt 1.3978856801986694 0.29621732234954834
vt 1.3618539571762085 0.21073579788208008
vt 0.8901264071464539 0.2081354260444641
vt 1.9056448936462402 0.3842991590499878
vt 1.3621375560760498 0.3829077482223511
vt -0.37224191427230835 0.905096709728241
vt -0.5618407726287842 0.2841365337371826
vt -0.5554841160774231 0.9004053473472595
vt 1.3978855609893799 0.29621732234954834
vt 0.8901264071464539 0.2081354260444641
vt 1.3621375560760498 0.3829077482223511
vt 1.8335814476013184 0.21333611011505127
vt 1.2446651458740234 0.6677897274494171
vt 0.8186300992965698 0.38151633739471436
vt 1.2446651458740234 0.6677897274494171
vt 0.8186300992965698 0.38151633739471436
vt 2.14231276512146 0.9457544088363647
vt 1.363243579864502 1.1233591437339783
vt 2.2154500484466553 1.119255542755127
vt 1.8335814476013184 0.21333611011505127
vt -0.3732205927371979 0.2887939214706421
vt 1.3629990816116333 0.9485173523426056
vt 1.3266750574111938 1.0366085767745972
vt 0.511037290096283 1.1274627447128296
vt 0.5836853981018066 0.9512802958488464
vt 0.5836853981018066 0.9512802958488464
vt 0.7978864908218384 0.6225844621658325
vt 0.5957729816436768 0.7475844919681549
vt 0.7978864908218384 0.7475844919681549
vt 1 0.4975844621658325
vt 0.5957729816436768 0.4975844621658325
vt 0.5957729816436768 0.25
vt 1 0
vt 0.5957729816436768 0
vt 0.19154593348503113 0.5
vt 0.5957729816436768 0.5
vt 0.5957729816436768 0.25
vt 1 0
vt 0.5957729816436768 0
vt 0.19154593348503113 0.5
vt 0.5957729816436768 0.5
vt 0.5957729816436768 0.9975845217704773
vt 1 0.9975845217704773
vt 1 0.25
vt 0.7978864908218384 0.9975845217704773
vt 1 0.5
vt 0.19154588878154755 0.4975845217704773
vt 0.5957729816436768 0.7475844919681549
vt 1 0.4975844621658325
vt 0.5957729816436768 0.4975844621658325
vt 1 0.5
vt 0.19154588878154755 0
vt 0.19154588878154755 0
vt 0.19154593348503113 0.9975845217704773
vt 0.5957729816436768 0.9975845217704773
vt 1 0.9975845217704773
vt 1 0.5
vt 1 0
vt 0.75 0.25
vt 0.5 0
vt 0.5 0.5
vt 1 0.25
vt 0.5 0
vt 0.5 0.5
vt 1 0.5
vt 1 0
vt 0.5 0
vt 1 0
vt 0.5 0.5
vt 0.5 0
vt 1 0
vt 1 0.5
vt 0.5 0.5
vt 0.5 0
vt 1 0
vt 1 0
vt 1 0.5
vt 1 0.5
vt 1 0
vt 0.5 0
vt 0.5 0.5
vt 0.5 0
vt 0.5 0.5
vt 1 0.5
vt 1 0
vt 0.5 0
vt 0.5 0.5
vt 0.5 0
vt 1 0
vt 1 0.5
vt 0.5 0.5
vt 0.5 0
vt 1 0
vt 1 0.5
vt 0.5 0
vt 1 0.5
vt 0.5 0.5
vt 1 0
vt 0 0
vt 0 0.5
vt 0.5 0.5
vt 0.5 0
vt 1 0.5
vt 0.5 0.5
vt 1 0
vt 0.5 0
vt 1 0.5
vt 0.5 0.5
vt 0.5 0
vt 0 0
vt 0 0.5
vt 0.5 0.5
vt 0.5 0
vt 0 0
vt 0 0.5
vt 1 0
vt 1 0
vt 0.5 0
vt 1 0
vt 1 0.5
vt 0 0
vt 0 0.5
vt 0.5 0.5
vt 0.5 0.5
vt 0.5 0
vt 0 0
vt 1 0
vt 1 0.5
vt 0 0.5
vt 0.5 0.5
vt 0.5 0
vt 0 0
vt 0 0.5
vt 0.5 0
vt 2 0.19999998807907104
vt 1 0.3500000238418579
vt 2 0.5
vt 0.9999999403953552 0.75
vt 0.9999999403953552 1
vt 2 1
vt -4.371138828673793e-8 0.5
vt 0 0.19999998807907104
vt 1 0.19999998807907104
vt 0.4999999701976776 0.875
vt 0.4999999701976776 1
vt -4.371138828673793e-8 1
vt 0.5 0.75
vt 0.5 0.5
vt 0 0.4999999403953552
vt 1 0.5
vt 1 0.19999998807907104
vt 1 0.5
vt 1.5 0.625
vt 0.5 0.19999998807907104
vt 5.960464477539063e-8 0.19999998807907104
vt 0 1
vt 0.5 1
vt 1 0.5
vt 0.5 1
vt 1 1
vt 0 1
vt 1 1
vt 1 0.19999998807907104
vt 0 0.4999999403953552
vt 5.960464477539063e-8 0.19999998807907104
vt 0.5 0.34999996423721313
vt 1.9056448936462402 0.3842991590499878
vt 1.8335814476013184 0.21333611011505127
vt 1.3618539571762085 0.21073579788208008
vt -0.37224191427230835 0.905096709728241
vt -0.5618407726287842 0.2841365337371826
vt -0.5554841160774231 0.9004053473472595
vt -0.3732205927371979 0.2887939214706421
vt 1.3629990816116333 0.9485173523426056
vt 0.5836853981018066 0.9512802958488464
vt 0.511037290096283 1.1274627447128296
vt 2.14231276512146 0.9457544088363647
vt 1.9056448936462402 0.3842991590499878
vt 1.3629990816116333 0.9485173523426056
vt 1.2446651458740234 0.6677897274494171
vt 0.5836853981018066 0.9512802958488464
vt 2.14231276512146 0.9457544088363647
vt 1.363243579864502 1.1233591437339783
vt 2.2154500484466553 1.119255542755127
vt 1.363243579864502 1.1233591437339783
vt 2.2154500484466553 1.119255542755127
vt 0.511037290096283 1.1274627447128296
vt 1.2446651458740234 0.6677897274494171
vt 1.3621375560760498 0.3829077482223511
vt 0.8901264071464539 0.2081354260444641
vt 0.8186300992965698 0.38151633739471436
vt 1.3266750574111938 1.0366085767745972
vt 1.3266750574111938 1.0366085767745972
vt -0.37224191427230835 0.905096709728241
vt -0.5618407726287842 0.2841365337371826
vt -0.5554841160774231 0.9004053473472595
vt -0.3732205927371979 0.2887939214706421
vt 0.914175271987915 0.8095350116491318
vt 1.3621375560760498 0.3829077482223511
vt 1.3978856801986694 0.29621732234954834
vt 1.8335814476013184 0.21333611011505127
vt 1.3978855609893799 0.29621732234954834
vt 0.5957729816436768 0.7475844919681549
vt 0.7978864908218384 0.6225844621658325
vt 0.7978864908218384 0.4975844621658325
vt 0.5957729816436768 0.4975844621658325
vt 0.39365944266319275 0.4975844621658325
vt 0.7978864908218384 0.7475844919681549
vt 1 0.4975844621658325
vt 0.19154593348503113 0.5
vt 0.5957729816436768 0.25
vt 0.39365947246551514 0.25
vt 0.5957729816436768 0
vt 0.19154588878154755 0
vt 0.39365947246551514 0.8725845068693161
vt 0.39365947246551514 0.9975845217704773
vt 0.5957729816436768 0.9975845217704773
vt 0.19154593348503113 0.9975845217704773
vt 1 0
vt 0.7978864908218384 0.5
vt 1 0.5
vt 0.19154593348503113 0.9975845217704773
vt 0.5957729816436768 0.7475844919681549
vt 0.19154588878154755 0.4975845217704773
vt 0.5957729816436768 0.5
vt 0.5957729816436768 0.9975845217704773
vt 0.19154588878154755 0.4975845217704773
vt 0.5957729816436768 0.25
vt 0.19154593348503113 0.5
vt 0.5957729816436768 0.5
vt 0.39365947246551514 0.5
vt 0.7978864908218384 0.9975845217704773
vt 1 0.9975845217704773
vt 0.5957729816436768 0.4975844621658325
vt 0.5 0.5
vt 1 0
vt 0.5 0
vt 1 0
vt 0.5 0.5
vt 1 0.5
vt 0.5 0
vt 1 0
vt 0.5 0.5
vt 1 0.5
vt 0.5 0
vt 1 0.5
vt 0.5 0
vt 1 0
vt 0.5 0.5
vt 1 0.5
vt 0.5 0
vt 1 0
vt 0.5 0.5
vt 0.5 0
vt 1 0
vt 1 0.5
vt 1 0
vt 0.5 0
vt 0.5 0.5
vt 1 0.5
vt 1 0
vt 0.5 0
vt 0.5 0.5
vt 0.5 0.5
vt 0.5 0
vt 0.25 0.25
vt 0 0
vt 1 0
vt 1 0.25
vt 0.75 0.25
vt 0.5 0.5
vt 0.5 0
vt 0 0
vt 0 0
vt 0 0.5
vt 0.5 0.5
vt 0 0.5
vt 0.25 0.25
vt 0.5 0
vt 0 0
vt 0 0.5
vt 0.5 0.5
vt 0.5 0
vt 1 0.5
vt 1 0
vt 0.5 0
vt 0 0.5
vt 0 0
vt 0 0.5
vt 0.5 0.5
vt 0.5 0.5
vt 0.5 0
vt 1 0.5
vt 0.5 0.5
vt 0.5 0
vt 0.5 0
vt 0 0
vt 1 0
vt 1 0.5
vt 1 0.25
vt 0.75 0.25
vt 0 0
vt 0.5 0
vt 0 0.5
vt 0.5 0.5
vt 0 0
vt 0 0.5
vt 0.5 0.5
vt 0.5 0
vt 0.25 0.25
vt 0 0
vt 0 0.5
vt 0.5 0
vt 1 0.5
vt 0.5 0.5
vt 1 0
vt 1 0.25
vt 1 0.5
vt 1 0
vt 1 0.5
vt 0.5 0
vt 1 0.5
vt 0.5 0.5
vt 1 0.5
vt 1 0
vt 0.5 0
vt 0.5 0.5
vt 1 0
vt 1 0
vt 1 0
vt 1 0
vt 1 0.5
vt 1 0
vt 1 0.5
vt 0.5 0.5
vt 0.5 0
vt 0 0
vt 0 0.5
vt 0.5 0.5
vt 0.5 0
vt 1 0
vt 0.5 0
vt 0 0
vt 0 0.5
vt 0.5 0.5
vt 0.5 0
vt 0 0
vt 0 0.5
vt 0.5 0.5
vt 0.5 0
vt 0 0.5
vt 1 0.5
vt 0.4999999701976776 0.42500001192092896
vt -4.371138828673793e-8 0.5
vt 1 0.5
vt 1 0.3500000238418579
vt 1 0.3500000238418579
vt 1 0.19999998807907104
vt 0 0.19999998807907104
vt 2 0.19999998807907104
vt 0 0.19999998807907104
vt -4.371138828673793e-8 0.75
vt 0.4999999403953552 0.625
vt 0.9999999403953552 0.75
vt 1 0.75
vt 0.5 1
vt 1 1
vt -4.371138828673793e-8 1
vt 0.4999999701976776 0.875
vt 0.9999999403953552 1
vt 1 0.19999998807907104
vt 2 0.19999998807907104
vt 0 1
vt 0.5 0.75
vt 0 0.7499999701976776
vt 0.9999999403953552 0.75
vt 0.4999999701976776 0.875
vt 0.9999999403953552 1
vt -4.371138828673793e-8 0.5
vt -4.371138828673793e-8 1
vt 1 0.5
vt 2 0.5
vt 0.4999999701976776 0.75
vt 2 1
vt 2 0.5
vt 0.4999999701976776 1
vt 1.5 0.625
vt 1.5 1
vt 1.5 0.875
vt 2 1
vt 1.5 0.625
vt 0.25 0.6249999701976776
vt 0 0.4999999403953552
vt 0.5 0.5
vt 0.75 0.75
vt 1 0.5
vt 0.5 0.34999996423721313
vt 1 0.19999998807907104
vt 0.5 0.19999998807907104
vt 5.960464477539063e-8 0.19999998807907104
g Entry020
s 1
f 1/1/1 2/2/2 3/3/3
f 4/4/4 2/2/2 1/1/1
f 1/1/1 3/3/3 5/5/5
f 4/4/4 1/1/1 5/5/5
f 6/6/6 7/7/7 8/8/8
f 9/9/9 10/10/10 11/11/11
f 9/9/9 12/12/12 10/10/10
f 13/13/13 11/11/11 14/14/14
f 11/11/11 10/10/10 14/14/14
f 15/15/15 5/5/5 16/16/16
f 15/15/15 4/4/4 5/5/5
f 5/5/5 3/3/3 16/16/16
f 17/17/17 18/18/18 19/19/19
f 4/4/4 20/20/20 2/2/2
f 6/6/6 21/21/21 7/7/7
f 17/17/17 22/22/22 23/23/23
f 23/23/23 22/22/22 24/24/24
f 23/23/23 24/24/24 18/18/18
f 17/17/17 4/4/4 22/22/22
f 25/25/25 13/13/13 14/14/14
f 22/22/22 26/26/26 24/24/24
f 22/22/22 15/15/15 26/26/26
f 22/22/22 4/4/4 15/15/15
f 26/26/26 15/15/15 16/16/16
f 17/17/17 23/23/23 18/18/18
g Entry021
s 1
f 27/27/27 28/28/28 29/29/29
f 30/30/30 27/27/27 29/29/29
f 27/27/27 30/30/30 31/31/31
f 28/28/28 27/27/27 31/31/31
f 32/32/32 33/33/33 34/34/34
f 35/35/35 32/32/32 34/34/34
f 32/32/32 35/35/35 36/36/36
f 33/33/33 32/32/32 36/36/36
f 37/37/37 38/38/38 39/39/39
f 40/40/40 37/37/37 39/39/39
f 38/38/38 37/37/37 41/41/41
f 29/29/29 28/28/28 42/42/42
f 30/30/30 29/29/29 43/43/43
f 33/33/33 36/36/36 44/44/44
f 29/29/29 42/42/42 45/45/45
f 29/29/29 45/45/45 43/43/43
f 44/44/44 36/36/36 46/46/46
f 28/28/28 31/31/31 47/47/47
f 48/48/48 49/49/49 50/50/50
f 38/38/38 41/41/41 51/51/51
f 40/40/40 39/39/39 52/52/52
f 35/35/35 34/34/34 53/53/53
f 28/28/28 54/54/54 42/42/42
f 54/54/54 28/28/28 47/47/47
f 49/49/49 48/48/48 55/55/55
f 49/49/49 55/55/55 56/56/56
g Entry022
s 1
f 57/57/57 58/58/58 59/59/59
f 59/59/59 58/58/58 60/60/60
f 60/60/60 61/61/61 59/59/59
f 59/59/59 61/61/61 57/57/57
f 62/62/62 57/57/57 61/61/61
f 63/63/63 64/64/64 65/65/65
f 65/65/65 66/66/66 63/63/63
f 64/64/64 67/67/67 68/68/68
f 68/68/68 65/65/65 64/64/64
f 69/69/69 70/70/70 71/71/71
f 71/71/71 72/72/72 69/69/69
f 73/73/73 74/74/74 75/75/75
f 76/76/76 62/62/62 61/61/61
f 75/75/75 77/77/77 73/73/73
f 78/78/78 79/79/79 80/80/80
f 80/80/80 81/81/81 78/78/78
f 82/82/82 83/83/83 84/84/84
f 84/84/84 85/85/85 82/82/82
f 61/61/61 86/86/86 76/76/76
f 87/87/87 88/88/88 89/89/89
f 89/89/89 90/90/90 87/87/87
f 91/91/91 92/92/92 93/93/93
f 93/93/93 94/94/94 91/91/91
f 95/95/95 96/96/96 97/97/97
f 96/96/96 95/95/95 98/98/98
f 99/99/99 100/100/100 101/101/101
f 102/102/102 103/103/103 104/104/104
f 103/103/103 102/102/102 105/105/105
f 106/106/106 107/107/107 108/108/108
f 101/101/101 109/109/109 99/99/99
f 110/110/110 111/111/111 112/112/112
f 112/112/112 113/113/113 110/110/110
f 114/114/114 115/115/115 97/97/97
f 107/107/107 106/106/106 116/116/116
f 97/97/97 117/117/117 118/118/118
f 117/117/117 97/97/97 96/96/96
f 119/119/119 101/101/101 120/120/120
f 121/121/121 122/122/122 123/123/123
f 97/97/97 118/118/118 114/114/114
f 124/124/124 125/125/125 126/126/126
f 112/112/112 127/127/127 113/113/113
f 127/127/127 112/112/112 128/128/128
f 101/101/101 119/119/119 109/109/109
f 126/126/126 129/129/129 124/124/124
f 130/130/130 131/131/131 132/132/132
f 132/132/132 133/133/133 130/130/130
f 123/123/123 134/134/134 121/121/121
g Entry023
s 1
f 135/135/135 136/136/136 137/137/137
f 138/138/138 139/139/139 140/140/140
f 141/141/141 136/136/136 142/142/142
f 136/136/136 143/143/143 142/142/142
f 136/136/136 135/135/135 143/143/143
f 144/144/144 145/145/145 139/139/139
f 144/144/144 146/146/146 145/145/145
f 147/147/147 148/148/148 149/149/149
f 147/147/147 150/150/150 148/148/148
f 151/151/151 148/148/148 150/150/150
f 138/138/138 152/152/152 141/141/141
f 136/136/136 141/141/141 152/152/152
f 136/136/136 152/152/152 137/137/137
f 146/146/146 144/144/144 141/141/141
f 144/144/144 138/138/138 141/141/141
f 138/138/138 144/144/144 139/139/139
f 137/137/137 153/153/153 140/140/140
f 153/153/153 138/138/138 140/140/140
f 138/138/138 153/153/153 152/152/152
f 153/153/153 137/137/137 152/152/152
f 149/149/149 154/154/154 155/155/155
f 147/147/147 156/156/156 157/157/157
f 150/150/150 147/147/147 157/157/157
f 156/156/156 147/147/147 149/149/149
f 158/158/158 159/159/159 160/160/160
f 158/158/158 161/161/161 159/159/159
f 150/150/150 157/157/157 162/162/162
f 163/163/163 164/164/164 158/158/158
f 164/164/164 163/163/163 165/165/165
f 161/161/161 158/158/158 164/164/164
f 166/166/166 149/149/149 148/148/148
f 151/151/151 166/166/166 148/148/148
f 166/166/166 151/151/151 154/154/154
f 149/149/149 166/166/166 154/154/154
g Entry024
s 1
f 167/167/167 168/168/168 169/169/169
f 170/170/170 171/171/171 172/172/172
f 170/170/170 173/173/173 171/171/171
f 174/174/174 175/175/175 176/176/176
f 177/177/177 178/178/178 179/179/179
f 179/179/179 180/180/180 181/181/181
f 182/182/182 183/183/183 184/184/184
f 177/177/177 185/185/185 186/186/186
f 182/182/182 167/167/167 174/174/174
f 179/179/179 181/181/181 187/187/187
f 179/179/179 178/178/178 180/180/180
f 174/174/174 167/167/167 188/188/188
f 189/189/189 190/190/190 191/191/191
f 188/188/188 167/167/167 189/189/189
f 177/177/177 179/179/179 192/192/192
f 192/192/192 179/179/179 187/187/187
f 192/192/192 187/187/187 185/185/185
f 177/177/177 192/192/192 185/185/185
f 182/182/182 174/174/174 193/193/193
f 193/193/193 174/174/174 176/176/176
f 193/193/193 176/176/176 183/183/183
f 182/182/182 193/193/193 183/183/183
f 194/194/194 195/195/195 196/196/196
f 194/194/194 197/197/197 195/195/195
f 174/174/174 198/198/198 175/175/175
f 174/174/174 188/188/188 198/198/198
f 198/198/198 188/188/188 191/191/191
f 175/175/175 198/198/198 191/191/191
f 188/188/188 189/189/189 191/191/191
f 180/180/180 178/178/178 199/199/199
f 167/167/167 200/200/200 189/189/189
f 200/200/200 190/190/190 189/189/189
f 200/200/200 169/169/169 190/190/190
f 167/167/167 169/169/169 200/200/200
f 178/178/178 201/201/201 202/202/202
f 178/178/178 202/202/202 199/199/199
g Entry025
s 1
f 203/203/203 204/204/204 205/205/205
f 203/203/203 206/206/206 207/207/207
f 204/204/204 203/203/203 208/208/208
f 209/209/209 204/204/204 208/208/208
f 204/204/204 209/209/209 205/205/205
f 210/210/210 211/211/211 212/212/212
f 212/212/212 211/211/211 213/213/213
f 212/212/212 213/213/213 214/214/214
f 210/210/210 212/212/212 214/214/214
f 215/215/215 216/216/216 217/217/217
f 215/215/215 218/218/218 216/216/216
f 203/203/203 205/205/205 206/206/206
f 219/219/219 220/220/220 221/221/221
f 222/222/222 223/223/223 224/224/224
f 219/219/219 225/225/225 220/220/220
f 223/223/223 222/222/222 226/226/226
f 211/211/211 219/219/219 213/213/213
f 219/219/219 211/211/211 225/225/225
f 203/203/203 207/207/207 227/227/227
f 228/228/228 229/229/229 230/230/230
f 211/211/211 210/210/210 231/231/231
f 203/203/203 215/215/215 217/217/217
f 215/215/215 203/203/203 227/227/227
f 218/218/218 215/215/215 227/227/227
f 208/208/208 232/232/232 233/233/233
f 223/223/223 234/234/234 224/224/224
f 208/208/208 217/217/217 232/232/232
f 208/208/208 203/203/203 217/217/217
f 209/209/209 208/208/208 233/233/233
f 211/211/211 231/231/231 225/225/225
g Entry026
s 1
f 235/235/235 236/236/236 237/237/237
f 238/238/238 239/239/239 240/240/240
f 239/239/239 238/238/238 241/241/241
f 242/242/242 243/243/243 244/244/244
f 243/243/243 242/242/242 245/245/245
f 246/246/246 247/247/247 248/248/248
f 247/247/247 246/246/246 249/249/249
f 250/250/250 251/251/251 252/252/252
f 251/251/251 250/250/250 253/253/253
f 244/244/244 254/254/254 255/255/255
f 254/254/254 244/244/244 243/243/243
f 256/256/256 257/257/257 258/258/258
f 258/258/258 259/259/259 256/256/256
f 260/260/260 261/261/261 262/262/262
f 262/262/262 263/263/263 260/260/260
f 264/264/264 265/265/265 266/266/266
f 266/266/266 265/265/265 267/267/267
f 268/268/268 269/269/269 270/270/270
f 270/270/270 269/269/269 271/271/271
f 271/271/271 272/272/272 270/270/270
f 243/243/243 245/245/245 273/273/273
f 274/274/274 275/275/275 276/276/276
f 273/273/273 277/277/277 243/243/243
f 239/239/239 241/241/241 278/278/278
f 276/276/276 279/279/279 274/274/274
f 270/270/270 272/272/272 268/268/268
f 280/280/280 281/281/281 282/282/282
f 282/282/282 283/283/283 280/280/280
f 284/284/284 285/285/285 286/286/286
f 278/278/278 287/287/287 239/239/239
f 288/288/288 289/289/289 290/290/290
f 286/286/286 291/291/291 284/284/284
f 292/292/292 293/293/293 294/294/294
f 290/290/290 295/295/295 288/288/288
f 294/294/294 296/296/296 297/297/297
f 293/293/293 292/292/292 298/298/298
f 299/299/299 300/300/300 301/301/301
f 235/235/235 237/237/237 302/302/302
f 301/301/301 300/300/300 303/303/303
f 297/297/297 304/304/304 294/294/294
f 303/303/303 305/305/305 301/301/301
f 301/301/301 305/305/305 299/299/299
f 306/306/306 287/287/287 278/278/278
f 302/302/302 307/307/307 235/235/235
f 308/308/308 309/309/309 310/310/310
f 310/310/310 309/309/309 311/311/311
f 311/311/311 312/312/312 310/310/310
f 310/310/310 312/312/312 308/308/308
f 313/313/313 314/314/314 315/315/315
f 316/316/316 308/308/308 317/317/317
f 317/317/317 308/308/308 318/318/318
f 314/314/314 313/313/313 319/319/319
f 269/269/269 320/320/320 271/271/271
f 321/321/321 322/322/322 323/323/323
f 324/324/324 325/325/325 326/326/326
f 326/326/326 327/327/327 324/324/324
f 322/322/322 321/321/321 328/328/328
f 294/294/294 329/329/329 296/296/296
f 329/329/329 294/294/294 293/293/293
f 300/300/300 330/330/330 303/303/303
f 308/308/308 316/316/316 309/309/309
f 278/278/278 241/241/241 306/306/306
f 264/264/264 331/331/331 265/265/265
f 331/331/331 264/264/264 332/332/332
f 333/333/333 334/334/334 335/335/335
f 335/335/335 336/336/336 333/333/333
f 337/337/337 338/338/338 339/339/339
f 339/339/339 340/340/340 337/337/337
f 341/341/341 324/324/324 327/327/327
f 327/327/327 342/342/342 341/341/341
f 343/343/343 344/344/344 345/345/345
f 345/345/345 346/346/346 343/343/343
f 347/347/347 348/348/348 349/349/349
f 349/349/349 350/350/350 347/347/347
f 267/267/267 351/351/351 266/266/266
f 266/266/266 351/351/351 264/264/264
f 236/236/236 235/235/235 352/352/352
g Entry027
s 1
f 353/353/353 354/354/354 355/355/355
f 356/356/356 353/353/353 355/355/355
f 357/357/357 358/358/358 359/359/359
f 357/357/357 360/360/360 358/358/358
f 353/353/353 356/356/356 361/361/361
f 354/354/354 353/353/353 361/361/361
f 362/362/362 363/363/363 354/354/354
f 363/363/363 355/355/355 354/354/354
f 364/364/364 355/355/355 363/363/363
f 365/365/365 366/366/366 367/367/367
f 368/368/368 369/369/369 362/362/362
f 364/364/364 369/369/369 370/370/370
f 356/356/356 371/371/371 361/361/361
f 356/356/356 372/372/372 371/371/371
f 373/373/373 374/374/374 375/375/375
f 376/376/376 377/377/377 378/378/378
f 377/377/377 376/376/376 379/379/379
f 380/380/380 377/377/377 379/379/379
f 357/357/357 381/381/381 382/382/382
f 369/369/369 383/383/383 362/362/362
f 376/376/376 378/378/378 384/384/384
f 369/369/369 364/364/364 383/383/383
f 383/383/383 364/364/364 363/363/363
f 362/362/362 383/383/383 363/363/363
f 357/357/357 379/379/379 381/381/381
f 372/372/372 356/356/356 385/385/385
f 376/376/376 381/381/381 379/379/379
f 377/377/377 380/380/380 378/378/378
f 356/356/356 355/355/355 385/385/385
f 360/360/360 357/357/357 382/382/382
f 369/369/369 386/386/386 370/370/370
f 379/379/379 357/357/357 359/359/359
f 369/369/369 368/368/368 386/386/386
f 382/382/382 387/387/387 384/384/384
f 387/387/387 376/376/376 384/384/384
f 364/364/364 388/388/388 389/389/389
f 389/389/389 388/388/388 390/390/390
f 391/391/391 389/389/389 390/390/390
f 391/391/391 364/364/364 389/389/389
f 376/376/376 387/387/387 381/381/381
f 387/387/387 382/382/382 381/381/381
f 385/385/385 391/391/391 390/390/390
f 364/364/364 391/391/391 355/355/355
f 375/375/375 392/392/392 393/393/393
f 375/375/375 374/374/374 392/392/392
f 374/374/374 394/394/394 392/392/392
f 392/392/392 394/394/394 393/393/393
f 395/395/395 366/366/366 365/365/365
f 396/396/396 395/395/395 365/365/365
f 396/396/396 374/374/374 395/395/395
f 395/395/395 374/374/374 366/366/366
f 391/391/391 385/385/385 355/355/355
f 397/397/397 393/393/393 394/394/394
f 398/398/398 397/397/397 394/394/394
f 397/397/397 398/398/398 399/399/399
f 393/393/393 397/397/397 399/399/399
f 374/374/374 373/373/373 366/366/366
f 393/393/393 399/399/399 400/400/400
f 398/398/398 394/394/394 396/396/396
f 374/374/374 396/396/396 394/394/394
f 364/364/364 370/370/370 388/388/388
