# Exported using wow.export v0.2.19
o darnassis_bridge32.obj
v -67.6031265258789 5.137698173522949 -32.86771774291992
v -62.749107360839844 5.478899955749512 -39.07740783691406
v -61.22050476074219 5.475698471069336 -37.973880767822266
v -62.749107360839844 6.703495025634766 -39.07740783691406
v -67.6031265258789 6.362293243408203 -32.86771774291992
v -61.147274017333984 6.702089309692383 -38.036895751953125
v -57.89508819580078 7.044696807861328 -45.2870979309082
v -57.89508819580078 5.820101737976074 -45.2870979309082
v -46.635948181152344 6.297438144683838 -54.19374465942383
v -52.53844451904297 6.663185119628906 -49.88526153564453
v -50.736915588378906 6.667865753173828 -48.63689422607422
v -54.83788299560547 7.038293361663818 -43.08004379272461
v -72.27957153320312 4.739798545837402 -27.27316665649414
v -76.95602416992188 3.1173040866851807 -21.67861557006836
v -70.3335952758789 4.739799499511719 -26.10376739501953
v -54.83788299560547 5.8136982917785645 -43.08004379272461
v -59.61867141723633 5.474292278289795 -36.93336868286133
v -64.39945983886719 5.134886264801025 -30.786691665649414
v -64.39945983886719 6.359481334686279 -30.78668975830078
v -59.61867141723633 6.698887348175049 -36.93336486816406
v -54.2005615234375 5.162731647491455 -50.775840759277344
v -52.41007995605469 5.161012649536133 -49.53285217285156
v -50.50603103637695 4.505361557006836 -56.26457977294922
v -70.14315795898438 3.5437440872192383 -25.911029815673828
v -75.88685607910156 1.9526015520095825 -21.035367965698242
v -70.67436981201172 3.543743848800659 -26.230289459228516
v -73.14857482910156 1.9526015520095825 -19.390045166015625
v -73.0640640258789 3.1173055171966553 -19.33981704711914
v -68.73176574707031 4.738393306732178 -25.06325340270996
v -76.94927978515625 1.9526015520095825 -21.67388916015625
v -50.23900604248047 6.288076877593994 -56.69047927856445
v -54.067047119140625 6.666386604309082 -50.98878860473633
v -46.92506790161133 4.501923561096191 -53.77860641479492
v -50.88147735595703 5.157811164855957 -48.429325103759766
v -68.77401733398438 3.543743848800659 -25.088367462158203
v -72.27619934082031 3.545149803161621 -27.270803451538086
v -64.39945983886719 7.199812412261963 -30.78668975830078
v -64.39945983886719 6.359481334686279 -30.78668975830078
v -68.73176574707031 4.738393306732178 -25.06325340270996
v -55.261199951171875 5.1637492179870605 -51.51216506958008
v -54.2005615234375 5.162731647491455 -50.775840759277344
v -57.89508819580078 5.820101737976074 -45.2870979309082
v -50.50603103637695 4.505361557006836 -56.26457977294922
v -50.23900604248047 6.288076877593994 -56.69047927856445
v -50.18238830566406 6.423921585083008 -56.69778823852539
v -54.067047119140625 6.666386604309082 -50.98878860473633
v -54.83788299560547 7.878623008728027 -43.08004379272461
v -54.83788299560547 7.038293361663818 -43.08004379272461
v -59.61867141723633 6.698887348175049 -36.93336486816406
v -54.83788299560547 5.8136982917785645 -43.08004379272461
v -58.70923614501953 5.472386837005615 -36.2767333984375
v -59.61867141723633 5.474292278289795 -36.93336868286133
v -64.39945983886719 5.134886264801025 -30.786691665649414
v -63.658599853515625 5.480805397033691 -39.73388671875
v -62.749107360839844 5.478899955749512 -39.07740783691406
v -67.6031265258789 5.137698173522949 -32.86771774291992
v -68.75444030761719 5.826094627380371 -25.079090118408203
v -70.84595489501953 4.4504075050354 -17.973230361938477
v -67.62271118164062 5.825109958648682 -24.379959106445312
v -64.39945983886719 7.199812412261963 -30.78668975830078
v -59.71408462524414 7.88883638381958 -46.60005569458008
v -59.71407699584961 5.823912143707275 -46.600059509277344
v -64.61160278320312 6.514105319976807 -40.353065490722656
v -64.61160278320312 5.481642246246338 -40.35307312011719
v -69.50912475585938 7.204298496246338 -34.106075286865234
v -53.019012451171875 5.809887409210205 -41.76677322387695
v -53.01901626586914 7.874813556671143 -41.76677322387695
v -57.75616455078125 6.5040130615234375 -35.65777587890625
v -62.49332046508789 7.19813871383667 -29.54878044128418
v -62.49331283569336 5.133213043212891 -29.54878044128418
v -69.50912475585938 5.1393723487854 -34.106082916259766
v -74.34298706054688 5.830976486206055 -28.613567352294922
v -73.3899917602539 5.830139636993408 -27.994388580322266
v -79.1768569946289 4.4576544761657715 -23.121057510375977
v -66.66963958740234 5.824273109436035 -23.761005401611328
v -66.66963958740234 5.824273109436035 -23.761005401611328
v -44.78232955932617 4.4998674392700195 -52.29106521606445
v -44.36400604248047 6.423921585083008 -52.66077423095703
v -48.69151306152344 7.149367332458496 -47.213775634765625
v -44.11564636230469 7.353808879852295 -53.04576873779297
v -48.900672912597656 6.18734073638916 -47.0289192199707
v -56.17070007324219 6.198116302490234 -52.168643951416016
v -52.62731170654297 4.507396697998047 -57.73723220825195
v -52.404090881347656 6.423921585083008 -58.23929977416992
v -79.25241088867188 3.1173038482666016 -23.058584213256836
v -74.38076782226562 4.128337860107422 -28.582332611083984
v -74.40263366699219 3.545987129211426 -28.595218658447266
v -76.91361236572266 4.455685615539551 -21.7221736907959
v -76.95602416992188 3.1173040866851807 -21.67861557006836
v -72.27957153320312 5.159964561462402 -27.27316665649414
v -67.6031265258789 6.362293243408203 -32.86771774291992
v -67.6031265258789 7.202624797821045 -32.86771774291992
v -70.84595489501953 4.4504075050354 -17.973230361938477
v -70.82806396484375 3.117305040359497 -17.996137619018555
v -66.66069030761719 4.125258922576904 -23.772459030151367
v -70.8252944946289 1.9526015520095825 -17.99407196044922
v -52.053680419921875 7.370310306549072 -58.57744598388672
v -55.883880615234375 7.629573345184326 -52.58875274658203
v -54.80552673339844 7.6273322105407715 -51.837440490722656
v -46.62872314453125 6.423921585083008 -54.232112884521484
v -50.555030822753906 7.618458271026611 -48.81444549560547
v -46.27218246459961 7.358293533325195 -54.54884719848633
v -50.555030822753906 7.618458271026611 -48.81444549560547
v -49.645599365234375 7.61655330657959 -48.15781021118164
v -46.27218246459961 7.358293533325195 -54.54884719848633
v -54.83788299560547 7.878623008728027 -43.08004379272461
v -49.89697265625 7.365828037261963 -57.07482147216797
v -53.89603042602539 7.62542724609375 -51.18096160888672
v -57.89508819580078 7.885026931762695 -45.2870979309082
v -53.89603042602539 7.62542724609375 -51.18096160888672
v -49.89697265625 7.365828037261963 -57.07482147216797
v -72.27957153320312 4.739798545837402 -27.27316665649414
v -46.635948181152344 6.297438144683838 -54.19374465942383
v -50.736915588378906 6.667865753173828 -48.63689422607422
v -57.89508819580078 7.044696807861328 -45.2870979309082
v -57.89508819580078 7.885026931762695 -45.2870979309082
v -62.749107360839844 6.703495025634766 -39.07740783691406
v -48.900672912597656 5.154877662658691 -47.0289192199707
v -56.170692443847656 5.165654182434082 -52.16864776611328
v -66.66963195800781 4.791810035705566 -23.761005401611328
v -56.05908966064453 7.156378746032715 -52.419677734375
v -68.73176574707031 5.1585588455200195 -25.06325340270996
v -68.75444030761719 5.826094627380371 -25.079090118408203
v -73.0640640258789 3.1173055171966553 -19.33981704711914
v -50.73330307006836 7.151272296905518 -48.65607833862305
v -54.03873825073242 7.154474258422852 -50.9924430847168
v -59.61867141723633 7.119051933288574 -36.93336486816406
v -59.61867141723633 7.539217948913574 -36.93336486816406
v -62.749107360839844 7.543826103210449 -39.07740783691406
v -62.749107360839844 7.123660087585449 -39.07740783691406
v -50.73330307006836 6.731107711791992 -48.65607833862305
v -54.03873825073242 6.734309196472168 -50.9924430847168
v -49.81010437011719 5.156783103942871 -47.68555450439453
v -50.88147735595703 5.157811164855957 -48.429325103759766
v -46.92506790161133 4.501923561096191 -53.77860641479492
v -68.77401733398438 3.5437440872192383 -25.088367462158203
v -67.8209457397461 3.542907238006592 -24.46941375732422
v -73.14857482910156 1.9526015520095825 -19.390045166015625
v -73.22920227050781 3.5459868907928467 -27.889986038208008
v -76.94927978515625 1.9526015520095825 -21.67388916015625
v -72.27619934082031 3.545149803161621 -27.270803451538086
v -66.6593017578125 3.542907238006592 -23.771427154541016
v -76.91361236572266 4.455685615539551 -21.7221736907959
v -72.25836944580078 5.829154968261719 -27.294944763183594
v -67.6031265258789 7.202624797821045 -32.86771774291992
v -72.25836944580078 5.829154968261719 -27.294944763183594
v -48.56732940673828 7.614311218261719 -47.406272888183594
v -63.70210647583008 7.5446624755859375 -39.69658660888672
v -62.749107360839844 7.543826103210449 -39.07740783691406
v -64.61160278320312 7.546567440032959 -40.353065490722656
v -57.75616455078125 5.471549987792969 -35.65777587890625
v -57.756168365478516 7.536476135253906 -35.65777587890625
v -58.66560363769531 7.5383806228637695 -36.31441116333008
v -74.34298706054688 4.798513412475586 -28.613571166992188
v -76.91361236572266 4.455685615539551 -21.7221736907959
v -79.1768569946289 4.4576544761657715 -23.121057510375977
v -76.95602416992188 3.1173040866851807 -21.67861557006836
v -79.25241088867188 3.1173038482666016 -23.058584213256836
v -46.32489013671875 6.423919200897217 -54.712554931640625
v -44.11564636230469 7.353808879852295 -53.04576873779297
v -44.07466506958008 6.423919200897217 -53.240543365478516
v -52.053680419921875 7.370310306549072 -58.57744598388672
v -49.89697265625 7.365828037261963 -57.07482147216797
v -49.941200256347656 6.423918724060059 -57.1343994140625
v -49.941200256347656 6.423918724060059 -57.1343994140625
v -79.29613494873047 1.9526015520095825 -23.084354400634766
v -59.61867141723633 7.539217948913574 -36.93336486816406
v -73.0640640258789 3.1173055171966553 -19.33981704711914
v -70.82806396484375 3.117305040359497 -17.996137619018555
v -70.84595489501953 4.4504075050354 -17.973230361938477
v -52.15239334106445 6.423920631408691 -58.61578369140625
v -73.10941314697266 4.452376842498779 -19.371492385864258
v -52.15239334106445 6.423920631408691 -58.61578369140625
v -73.10941314697266 4.452376842498779 -19.371492385864258
v -73.10941314697266 4.452376842498779 -19.371492385864258
v -44.07466506958008 6.423919200897217 -53.240543365478516
v -46.27218246459961 7.358293533325195 -54.54884719848633
v -46.32489013671875 6.423919200897217 -54.712554931640625
vn 0.07011349499225616 -0.991535484790802 -0.1092771366238594
vn 0.02685876190662384 -0.9986886978149414 -0.04358396306633949
vn 0.026300882920622826 -0.9986632466316223 -0.04449785500764847
vn 0.4580673575401306 0.7844225764274597 0.4181571900844574
vn 0.28799501061439514 0.881460428237915 0.3742811381816864
vn 0.11965275555849075 0.9781631827354431 0.16994115710258484
vn 0.6096951365470886 0.6557992100715637 0.445195734500885
vn -0.01656350865960121 -0.9996122717857361 0.022381072863936424
vn -0.5852020978927612 0.6567246913909912 -0.47565868496894836
vn 0.08194728195667267 0.996525764465332 -0.014865958131849766
vn -0.5832674503326416 0.6703251600265503 -0.45876264572143555
vn -0.5810562968254089 0.683607816696167 -0.44164910912513733
vn 0.18655698001384735 0.7386503219604492 0.6477594375610352
vn 0.06544187664985657 0.5179311633110046 0.8529154062271118
vn -0.3149835169315338 0.871419370174408 0.37605008482933044
vn -0.0176739152520895 -0.9996324777603149 0.020555835217237473
vn 0.025198910385370255 -0.9986244440078735 -0.045980196446180344
vn 0.06791383773088455 -0.9913589358329773 -0.11222810298204422
vn -0.420622855424881 0.8898696303367615 -0.1766590029001236
vn -0.5097423791885376 0.800723671913147 -0.3146495223045349
vn -0.03682456165552139 -0.9979878067970276 0.05161646753549576
vn -0.03682456165552139 -0.9979878067970276 0.05161646753549576
vn -0.05703892558813095 -0.9950980544090271 0.08078642189502716
vn 0.09008422493934631 -0.9846489429473877 -0.14950308203697205
vn 0.11208110302686691 -0.976042628288269 -0.18649011850357056
vn 0.09008422493934631 -0.9846489429473877 -0.14950308203697205
vn 0.11755581945180893 -0.9761840105056763 -0.18233315646648407
vn -0.8034066557884216 0.5444543361663818 0.2410544753074646
vn -0.6487634778022766 0.7602243423461914 0.034131065011024475
vn 0.11208110302686691 -0.976042628288269 -0.18649011850357056
vn 0.6859787106513977 0.5923086404800415 0.42261525988578796
vn 0.6486775279045105 0.6248637437820435 0.43446850776672363
vn -0.05703892558813095 -0.9950980544090271 0.08078642189502716
vn -0.03738071769475937 -0.9980139136314392 0.05070408806204796
vn 0.09282317012548447 -0.9847086071968079 -0.14742092788219452
vn 0.09118810296058655 -0.9847697615623474 -0.14803104102611542
vn -0.41186782717704773 0.8916372060775757 -0.188010573387146
vn -0.420622855424881 0.8898696303367615 -0.1766590029001236
vn -0.6487634778022766 0.7602243423461914 0.034131065011024475
vn -0.346731960773468 -0.9251146912574768 -0.15472473204135895
vn -0.03682456165552139 -0.9979878067970276 0.05161646753549576
vn -0.01656350865960121 -0.9996122717857361 0.022381072863936424
vn -0.05703892558813095 -0.9950980544090271 0.08078642189502716
vn 0.6859787106513977 0.5923086404800415 0.42261525988578796
vn 0.8361332416534424 -0.12405059486627579 0.5343151688575745
vn 0.6486775279045105 0.6248637437820435 0.43446850776672363
vn -0.7068424820899963 0.48317620158195496 -0.5166376233100891
vn -0.5810562968254089 0.683607816696167 -0.44164910912513733
vn -0.5097423791885376 0.800723671913147 -0.3146495223045349
vn -0.0176739152520895 -0.9996324777603149 0.020555835217237473
vn 0.20997647941112518 -0.9732233881950378 0.09352011978626251
vn 0.025198910385370255 -0.9986244440078735 -0.045980196446180344
vn 0.06791383773088455 -0.9913589358329773 -0.11222810298204422
vn -0.2816515266895294 -0.9200860857963562 -0.27223846316337585
vn 0.02685876190662384 -0.9986886978149414 -0.04358396306633949
vn 0.07011349499225616 -0.991535484790802 -0.1092771366238594
vn -0.6489315629005432 0.7605375647544861 0.021687500178813934
vn 0.09711702913045883 0.522658109664917 0.8469927906990051
vn -0.19774317741394043 0.8885354995727539 0.41400766372680664
vn -0.41186782717704773 0.8916372060775757 -0.188010573387146
vn -0.7850173711776733 0.3387455642223358 -0.5186513662338257
vn -0.5896479487419128 -0.7056554555892944 -0.3928939700126648
vn -0.8526690006256104 0.15865063667297363 -0.4977805018424988
vn -0.4461887776851654 -0.8061554431915283 -0.3886243999004364
vn -0.41035693883895874 0.8917199373245239 -0.19089992344379425
vn 0.33884361386299133 -0.8939276337623596 0.29339125752449036
vn 0.5407649278640747 0.7053013443946838 0.45839211344718933
vn 0.6964333653450012 -0.010533134452998638 0.7175441384315491
vn 0.29619088768959045 0.8843231201171875 0.3608928322792053
vn 0.419649600982666 -0.8902185559272766 0.17721495032310486
vn -0.28903210163116455 -0.8819072842597961 -0.37242448329925537
vn -0.6291802525520325 0.7772518396377563 0.0034366194158792496
vn -0.29726752638816833 0.8925341963768005 0.3391381800174713
vn -0.7858699560165405 0.5860275626182556 0.19743378460407257
vn 0.2074853628873825 0.7422378063201904 0.6372070908546448
vn 0.2074853628873825 0.7422378063201904 0.6372070908546448
vn 0.5149521827697754 -0.7029992938041687 0.4905264675617218
vn 0.8239894509315491 -0.01917268894612789 0.5662806630134583
vn 0.7419684529304504 0.37302377820014954 0.5570781230926514
vn 0.8909523487091064 0.41203561425209045 -0.19086802005767822
vn 0.7437227964401245 0.001621729345060885 0.6684862375259399
vn -0.8405361175537109 -0.22445254027843475 -0.49307215213775635
vn -0.6263026595115662 -0.7156173586845398 -0.30925193428993225
vn -0.8440085649490356 0.0386170856654644 -0.5349376201629639
vn -0.9863927364349365 0.06268162280321121 0.15198814868927002
vn -0.8326278328895569 -0.5348101258277893 -0.1439061164855957
vn -0.37816929817199707 -0.7842748165130615 -0.49183422327041626
vn 0.07422976195812225 0.5253759622573853 0.8476261496543884
vn 0.06544187664985657 0.5179311633110046 0.8529154062271118
vn 0.19137825071811676 0.7419959306716919 0.6425079703330994
vn 0.28799501061439514 0.881460428237915 0.3742811381816864
vn 0.29619863629341125 0.8841915726661682 0.36120858788490295
vn 0.09711702913045883 0.522658109664917 0.8469927906990051
vn 0.20085816085338593 -0.012676524929702282 0.9795383214950562
vn 0.3894694447517395 -0.5667133927345276 0.7260506749153137
vn 0.6599647998809814 -0.695351243019104 0.2844874858856201
vn -0.13273663818836212 0.6293730735778809 -0.7656830549240112
vn -0.4956098198890686 0.5228080153465271 -0.6935722827911377
vn 0.16398663818836212 0.8392844796180725 -0.5183724761009216
vn -0.814637303352356 0.027516165748238564 -0.5793176293373108
vn -0.5640530586242676 0.5105118751525879 -0.6490159034729004
vn -0.3994573950767517 0.5181111097335815 -0.7563033103942871
vn -0.5640530586242676 0.5105118751525879 -0.6490159034729004
vn 0.11152338236570358 0.9655472636222839 -0.23511885106563568
vn -0.3994573950767517 0.5181111097335815 -0.7563033103942871
vn -0.7068424820899963 0.48317620158195496 -0.5166376233100891
vn 0.9242177605628967 0.37368279695510864 0.07862985879182816
vn 0.7717366218566895 0.5689471960067749 0.28411558270454407
vn 0.5393011569976807 0.7052669525146484 0.4601660370826721
vn 0.7717366218566895 0.5689471960067749 0.28411558270454407
vn 0.9242177605628967 0.37368279695510864 0.07862985879182816
vn 0.18655698001384735 0.7386503219604492 0.6477594375610352
vn -0.5852020978927612 0.6567246913909912 -0.47565868496894836
vn -0.5832674503326416 0.6703251600265503 -0.45876264572143555
vn 0.6096951365470886 0.6557992100715637 0.445195734500885
vn 0.5393011569976807 0.7052669525146484 0.4601660370826721
vn 0.4580673575401306 0.7844225764274597 0.4181571900844574
vn 0.43268755078315735 -0.8092923760414124 0.3972747027873993
vn -0.6086176633834839 -0.7113872170448303 -0.351443886756897
vn 0.4289812445640564 -0.30512136220932007 0.8502211570739746
vn -0.8242368102073669 0.19093383848667145 -0.5330834984779358
vn -0.6457227468490601 0.7630515098571777 0.028184296563267708
vn -0.6489315629005432 0.7605375647544861 0.021687500178813934
vn -0.8034066557884216 0.5444543361663818 0.2410544753074646
vn -0.7828936576843262 0.26278218626976013 -0.5639354586601257
vn 0.7666633725166321 0.32396838068962097 0.5543211102485657
vn -0.5911885499954224 0.7199590802192688 -0.36353135108947754
vn -0.5865122079849243 0.7207807898521423 -0.36942967772483826
vn 0.4231208860874176 0.804947018623352 0.41596752405166626
vn 0.41900232434272766 0.8036329746246338 0.4226241111755371
vn -0.7464529871940613 0.3803274929523468 -0.5460394024848938
vn 0.7919978499412537 0.29128196835517883 0.5365577936172485
vn 0.2693922221660614 -0.9223723411560059 0.2768703103065491
vn -0.03738071769475937 -0.9980139136314392 0.05070408806204796
vn -0.05703892558813095 -0.9950980544090271 0.08078642189502716
vn 0.09282317012548447 -0.9847086071968079 -0.14742092788219452
vn 0.2765987515449524 -0.9609818458557129 -0.002635285258293152
vn 0.11755581945180893 -0.9761840105056763 -0.18233315646648407
vn -0.0908256396651268 -0.9536510705947876 -0.2868804335594177
vn 0.11208110302686691 -0.976042628288269 -0.18649011850357056
vn 0.09118810296058655 -0.9847697615623474 -0.14803104102611542
vn 0.5471915602684021 -0.8036299347877502 0.23400917649269104
vn 0.07422976195812225 0.5253759622573853 0.8476261496543884
vn 0.19563056528568268 0.74442058801651 0.6384095549583435
vn 0.29619863629341125 0.8841915726661682 0.36120858788490295
vn 0.19563056528568268 0.74442058801651 0.6384095549583435
vn 0.7799262404441833 0.6086679697036743 0.14573343098163605
vn 0.07936722040176392 0.9829708933830261 0.1657375991344452
vn 0.4231208860874176 0.804947018623352 0.41596752405166626
vn -0.6439012885093689 0.662803590297699 -0.3822074830532074
vn 0.38020020723342896 -0.8943161964416504 0.23589476943016052
vn 0.4238835871219635 0.8050792217254639 0.4149340093135834
vn -0.2859101891517639 0.952101469039917 -0.10843504220247269
vn -0.9524794220924377 -0.26218143105506897 -0.15506067872047424
vn 0.07422976195812225 0.5253759622573853 0.8476261496543884
vn -0.7858699560165405 0.5860275626182556 0.19743378460407257
vn 0.06544187664985657 0.5179311633110046 0.8529154062271118
vn -0.9863927364349365 0.06268162280321121 0.15198814868927002
vn 0.12054570019245148 0.20039407908916473 -0.9722710251808167
vn 0.8909523487091064 0.41203561425209045 -0.19086802005767822
vn 0.9629389643669128 0.09529011696577072 -0.25232577323913574
vn -0.13273663818836212 0.6293730735778809 -0.7656830549240112
vn 0.9242177605628967 0.37368279695510864 0.07862985879182816
vn 0.9732385277748108 -0.031298208981752396 -0.22765596210956573
vn 0.9732385277748108 -0.031298208981752396 -0.22765596210956573
vn -0.4553048312664032 -0.6617525219917297 -0.5956350564956665
vn -0.5865122079849243 0.7207807898521423 -0.36942967772483826
vn -0.8034066557884216 0.5444543361663818 0.2410544753074646
vn 0.20085816085338593 -0.012676524929702282 0.9795383214950562
vn 0.09711702913045883 0.522658109664917 0.8469927906990051
vn -0.19125837087631226 0.059635989367961884 -0.9797263741493225
vn -0.8098370432853699 0.5401815176010132 0.22884033620357513
vn -0.19125837087631226 0.059635989367961884 -0.9797263741493225
vn -0.8098370432853699 0.5401815176010132 0.22884033620357513
vn -0.8098370432853699 0.5401815176010132 0.22884033620357513
vn 0.9629389643669128 0.09529011696577072 -0.25232577323913574
vn -0.3994573950767517 0.5181111097335815 -0.7563033103942871
vn 0.12054570019245148 0.20039407908916473 -0.9722710251808167
vt 1.7080280780792236 0.9148154258728027
vt 2.502176284790039 0.8812816739082336
vt 2.502176284790039 0.4926438331604004
vt 2.3268892765045166 0.8381415605545044
vt 1.4770277738571167 0.8740278482437134
vt 2.3268890380859375 0.44950371980667114
vt 3.176750659942627 0.8022552728652954
vt 3.2963247299194336 0.8477479219436646
vt 4.9289751052856445 0.0014531612396240234
vt 4.047433853149414 0.40192711353302
vt 4.052862644195557 0.013216376304626465
vt 3.1767499446868896 0.024979591369628906
vt 0.7390134334564209 0.9367641806602478
vt 0.0009990930557250977 0.9995005130767822
vt 0.7390133738517761 0.5481263399124146
vt 3.2963244915008545 0.07047224044799805
vt 2.50217604637146 0.10400599241256714
vt 1.7080276012420654 0.13753974437713623
vt 1.477027177810669 0.09675216674804688
vt 2.3268885612487793 0.06086587905883789
vt 4.077547073364258 0.8372583091259003
vt 4.086141586303711 0.4485050439834595
vt 4.85876989364624 0.826768696308136
vt 1.2015793323516846 0.4598773717880249
vt 0.695131242275238 0.7822149991989136
vt 1.2015794515609741 0.5685200989246368
vt 0.6951308846473694 0.22222471237182617
vt 0.0009989142417907715 0.22222483158111572
vt 0.7390130162239075 0.1594884991645813
vt 0.6951313614845276 0.9995004534721375
vt 4.918117523193359 0.7788746356964111
vt 4.047433853149414 0.7905649542808533
vt 4.875958442687988 0.049262166023254395
vt 4.086141586303711 0.05986720323562622
vt 1.201579213142395 0.1798822283744812
vt 1.2015798091888428 0.9571579396724701
vt 1.8708114624023438 0.1440579891204834
vt 1.8708114624023438 0.015057981014251709
vt 0.9354057312011719 0.015057981014251709
vt 3.9830098152160645 0.06999999284744263
vt 3.984133720397949 0
vt 3.1237995624542236 0
vt 4.844467639923096 0
vt 4.915739059448242 0.015057981014251709
vt 4.920682907104492 0.031248033046722412
vt 4.019769191741943 0.015057981014251709
vt 3.1237995624542236 0.1440579891204834
vt 3.1237995624542236 0.015057981014251709
vt 2.497305393218994 0.015057981014251709
vt 3.1237995624542236 0
vt 2.497305393218994 0.06999999284744263
vt 2.497305393218994 0
vt 1.8708114624023438 0
vt 2.497305393218994 0.06999999284744263
vt 2.497305393218994 0
vt 1.8708114624023438 0
vt 0.9354057312011719 0.5
vt 0.006704951636493206 0.3700000047683716
vt 0.9387581944465637 0.4350000023841858
vt 1.8708114624023438 0.5
vt 3.1237995624542236 0.3700000047683716
vt 3.1237995624542236 0.13999998569488525
vt 2.497305393218994 0.2549999952316284
vt 2.497305393218994 0.13999998569488525
vt 1.8708114624023438 0.3700000047683716
vt 3.1237995624542236 0.13999998569488525
vt 3.1237995624542236 0.3700000047683716
vt 2.497305393218994 0.2549999952316284
vt 1.8708114624023438 0.3700000047683716
vt 1.8708114624023438 0.13999998569488525
vt 1.8708114624023438 0.13999998569488525
vt 0.9354057312011719 0.3700000047683716
vt 0.9354057312011719 0.4350000023841858
vt 0 0.3700000047683716
vt 0.9354057312011719 0.3700000047683716
vt 0.9387581944465637 0.3700000047683716
vt 4.865140914916992 0.13999998569488525
vt 4.940397262573242 0.29694664478302
vt 4.032098293304443 0.3334733247756958
vt 5 0.3700000047683716
vt 3.9944701194763184 0.2549999952316284
vt 3.9830098152160645 0.2549999952316284
vt 4.842220306396484 0.13999998569488525
vt 4.912754058837891 0.2970513105392456
vt 0 0.24503016471862793
vt 0.9354057312011719 0.1925150752067566
vt 0.9354057312011719 0.13999998569488525
vt 0 0.1440579891204834
vt 0 0.015057981014251709
vt 0.9354057312011719 0.07955801486968994
vt 1.8708114624023438 0.015057981014251709
vt 1.8708114624023438 0.1440579891204834
vt 0 0.3700000047683716
vt 0 0.24345487356185913
vt 0.9354057312011719 0.1917273998260498
vt 0 0.13999998569488525
vt 5 0.3700000047683716
vt 4.061899662017822 0.3700000047683716
vt 4.061899662017822 0.4350000023841858
vt 4.931182861328125 0.03278911113739014
vt 4.061899662017822 0.1440579891204834
vt 5 0.1440579891204834
vt 4.061899662017822 0.5
vt 4.061899662017822 0.4350000023841858
vt 5 0.5
vt 3.1237995624542236 0.5
vt 5 0.1440579891204834
vt 4.061899662017822 0.1440579891204834
vt 3.1237995624542236 0.5
vt 4.061899662017822 0.5
vt 5 0.5
vt 0.9354057312011719 0.015057981014251709
vt 4.926912307739258 0.015057981014251709
vt 4.025355815887451 0.015057981014251709
vt 3.1237995624542236 0.015057981014251709
vt 3.1237995624542236 0.1440579891204834
vt 2.497305393218994 0.015057981014251709
vt 3.9944701194763184 0.13999998569488525
vt 3.9830098152160645 0.13999998569488525
vt 0.9354057312011719 0.2549999952316284
vt 4.018276691436768 0.3335256576538086
vt 0.9354057312011719 0.07955801486968994
vt 0.9354057312011719 0.1440579891204834
vt 0 0.015057981014251709
vt 4.027491092681885 0.08842355012893677
vt 4.022241115570068 0.08765304088592529
vt 2.497305393218994 0.07955801486968994
vt 2.497305393218994 0.1440579891204834
vt 2.497305393218994 0.1440579891204834
vt 2.497305393218994 0.07955801486968994
vt 4.027491092681885 0.023923516273498535
vt 4.022241115570068 0.02315300703048706
vt 3.9944701194763184 0.06999999284744263
vt 3.993598461151123 0
vt 4.863397598266602 0
vt 0.9354057312011719 0
vt 0.9354057312011719 0.06999999284744263
vt 0 0
vt 0.9354057312011719 0.06999999284744263
vt 0 0
vt 0.9354057312011719 0
vt 0.9354057312011719 0.13999998569488525
vt 0 0.5
vt 0.9354057312011719 0.5
vt 1.8708114624023438 0.5
vt 0.9354057312011719 0.1440579891204834
vt 4.061899662017822 0.3700000047683716
vt 2.497305393218994 0.4350000023841858
vt 2.497305393218994 0.5
vt 2.497305393218994 0.3700000047683716
vt 2.497305393218994 0.13999998569488525
vt 2.497305393218994 0.3700000047683716
vt 2.497305393218994 0.4350000023841858
vt 0.9354057312011719 0.2549999952316284
vt 0.7555394768714905 0.75
vt 0.500501811504364 0.75
vt 0.7555389404296875 0.6135265827178955
vt 0.5005012154579163 0.6141632199287415
vt 0.7555379271507263 0.6302072405815125
vt 0.5005006194114685 0.75
vt 0.5005003809928894 0.6679888367652893
vt 0.5005006194114685 0.75
vt 0.755538284778595 0.75
vt 0.7555379271507263 0.6316945552825928
vt 5 0.03223109245300293
vt 0 0.13999998569488525
vt 2.497305393218994 0.5
vt 0.7555389404296875 0.6135265827178955
vt 0.5005012154579163 0.6124509572982788
vt 0.500501811504364 0.75
vt 0.5005003809928894 0.6674396991729736
vt 0.7555394768714905 0.75
vt 5 0.294044554233551
vt 0 0.1440579891204834
vt 0 0.5
vt 5 0.29454970359802246
vt 0.755538284778595 0.75
vt 5 0.03082519769668579
g bridge320
s 1
f 1/1/1 2/2/2 3/3/3
f 4/4/4 5/5/5 6/6/6
f 7/7/7 4/4/4 6/6/6
f 2/2/2 8/8/8 3/3/3
f 9/9/9 10/10/10 11/11/11
f 11/11/11 10/10/10 12/12/12
f 13/13/13 14/14/14 15/15/15
f 5/5/5 13/13/13 15/15/15
f 16/16/16 17/17/17 3/3/3
f 17/17/17 18/18/18 3/3/3
f 19/19/19 20/20/20 6/6/6
f 20/20/20 12/12/12 6/6/6
f 21/21/21 22/22/22 8/8/8
f 23/23/23 22/22/22 21/21/21
f 24/24/24 25/25/25 26/26/26
f 18/18/18 24/24/24 26/26/26
f 24/24/24 27/27/27 25/25/25
f 28/28/28 29/29/29 15/15/15
f 26/26/26 25/25/25 30/30/30
f 29/29/29 19/19/19 15/15/15
f 26/26/26 1/1/1 18/18/18
f 22/22/22 16/16/16 8/8/8
f 31/31/31 32/32/32 10/10/10
f 23/23/23 33/33/33 22/22/22
f 32/32/32 7/7/7 10/10/10
f 3/3/3 18/18/18 1/1/1
f 3/3/3 8/8/8 16/16/16
f 33/33/33 34/34/34 22/22/22
f 15/15/15 14/14/14 28/28/28
f 35/35/35 27/27/27 24/24/24
f 15/15/15 19/19/19 5/5/5
f 18/18/18 35/35/35 24/24/24
f 9/9/9 31/31/31 10/10/10
f 6/6/6 12/12/12 7/7/7
f 10/10/10 7/7/7 12/12/12
f 30/30/30 36/36/36 26/26/26
f 36/36/36 1/1/1 26/26/26
f 34/34/34 16/16/16 22/22/22
f 6/6/6 5/5/5 19/19/19
g bridge321
s 1
f 37/37/37 38/38/38 39/39/39
f 40/40/40 41/41/41 42/42/42
f 40/40/40 43/43/43 41/41/41
f 44/44/44 45/45/45 46/46/46
f 47/47/47 48/48/48 49/49/49
f 50/50/50 51/51/51 52/52/52
f 52/52/52 51/51/51 53/53/53
f 54/54/54 55/55/55 56/56/56
f 54/54/54 42/42/42 55/55/55
f 57/57/57 58/58/58 59/59/59
f 57/57/57 59/59/59 60/60/60
f 61/61/61 62/62/62 63/63/63
f 64/64/64 65/65/65 63/63/63
f 64/64/64 63/63/63 62/62/62
f 66/66/66 67/67/67 68/68/68
f 69/69/69 70/70/70 68/68/68
f 65/65/65 71/71/71 72/72/72
f 73/73/73 65/65/65 72/72/72
f 73/73/73 72/72/72 74/74/74
f 70/70/70 69/69/69 75/75/75
f 76/76/76 59/59/59 58/58/58
f 69/69/69 59/59/59 76/76/76
f 77/77/77 78/78/78 79/79/79
f 78/78/78 80/80/80 79/79/79
f 67/67/67 66/66/66 81/81/81
f 81/81/81 79/79/79 67/67/67
f 77/77/77 79/79/79 81/81/81
f 62/62/62 61/61/61 82/82/82
f 83/83/83 82/82/82 84/84/84
f 85/85/85 74/74/74 86/86/86
f 87/87/87 85/85/85 86/86/86
f 87/87/87 86/86/86 71/71/71
f 88/88/88 89/89/89 90/90/90
f 91/91/91 92/92/92 90/90/90
f 93/93/93 94/94/94 95/95/95
f 94/94/94 96/96/96 95/95/95
f 97/97/97 84/84/84 98/98/98
f 99/99/99 97/97/97 98/98/98
f 99/99/99 98/98/98 61/61/61
f 100/100/100 101/101/101 102/102/102
f 103/103/103 104/104/104 105/105/105
f 106/106/106 104/104/104 103/103/103
f 45/45/45 107/107/107 108/108/108
f 99/99/99 109/109/109 110/110/110
f 99/99/99 110/110/110 111/111/111
f 112/112/112 90/90/90 89/89/89
f 91/91/91 90/90/90 112/112/112
f 100/100/100 113/113/113 114/114/114
f 115/115/115 116/116/116 117/117/117
f 81/81/81 66/66/66 118/118/118
f 81/81/81 118/118/118 77/77/77
f 40/40/40 62/62/62 119/119/119
f 40/40/40 119/119/119 83/83/83
f 119/119/119 82/82/82 83/83/83
f 62/62/62 82/82/82 119/119/119
f 120/120/120 75/75/75 93/93/93
f 70/70/70 75/75/75 120/120/120
f 120/120/120 95/95/95 70/70/70
f 93/93/93 95/95/95 120/120/120
f 82/82/82 61/61/61 121/121/121
f 82/82/82 121/121/121 84/84/84
f 98/98/98 84/84/84 121/121/121
f 98/98/98 121/121/121 61/61/61
f 122/122/122 123/123/123 37/37/37
f 124/124/124 123/123/123 122/122/122
f 122/122/122 39/39/39 124/124/124
f 37/37/37 39/39/39 122/122/122
f 100/100/100 125/125/125 101/101/101
f 125/125/125 47/47/47 101/101/101
f 47/47/47 125/125/125 48/48/48
f 126/126/126 108/108/108 116/116/116
f 45/45/45 108/108/108 126/126/126
f 116/116/116 115/115/115 126/126/126
f 127/127/127 128/128/128 47/47/47
f 38/38/38 128/128/128 127/127/127
f 127/127/127 49/49/49 38/38/38
f 47/47/47 49/49/49 127/127/127
f 129/129/129 91/91/91 130/130/130
f 129/129/129 130/130/130 116/116/116
f 117/117/117 116/116/116 130/130/130
f 117/117/117 130/130/130 91/91/91
f 125/125/125 100/100/100 131/131/131
f 125/125/125 131/131/131 48/48/48
f 131/131/131 114/114/114 48/48/48
f 100/100/100 114/114/114 131/131/131
f 126/126/126 115/115/115 132/132/132
f 126/126/126 132/132/132 45/45/45
f 46/46/46 45/45/45 132/132/132
f 46/46/46 132/132/132 115/115/115
f 133/133/133 50/50/50 134/134/134
f 133/133/133 134/134/134 135/135/135
f 136/136/136 137/137/137 138/138/138
f 53/53/53 137/137/137 136/136/136
f 139/139/139 87/87/87 71/71/71
f 140/140/140 87/87/87 139/139/139
f 139/139/139 141/141/141 140/140/140
f 71/71/71 141/141/141 139/139/139
f 142/142/142 137/137/137 70/70/70
f 96/96/96 137/137/137 142/142/142
f 95/95/95 96/96/96 142/142/142
f 95/95/95 142/142/142 70/70/70
f 73/73/73 143/143/143 144/144/144
f 73/73/73 144/144/144 145/145/145
f 146/146/146 90/90/90 92/92/92
f 88/88/88 90/90/90 146/146/146
f 147/147/147 104/104/104 67/67/67
f 80/80/80 104/104/104 147/147/147
f 79/79/79 80/80/80 147/147/147
f 79/79/79 147/147/147 67/67/67
f 148/148/148 145/145/145 149/149/149
f 148/148/148 149/149/149 109/109/109
f 92/92/92 91/91/91 129/129/129
f 148/148/148 61/61/61 150/150/150
f 148/148/148 150/150/150 65/65/65
f 150/150/150 63/63/63 65/65/65
f 61/61/61 63/63/63 150/150/150
f 151/151/151 51/51/51 66/66/66
f 70/70/70 51/51/51 151/151/151
f 68/68/68 70/70/70 151/151/151
f 68/68/68 151/151/151 66/66/66
f 152/152/152 153/153/153 69/69/69
f 67/67/67 153/153/153 152/152/152
f 68/68/68 67/67/67 152/152/152
f 68/68/68 152/152/152 69/69/69
f 72/72/72 71/71/71 154/154/154
f 72/72/72 154/154/154 74/74/74
f 86/86/86 74/74/74 154/154/154
f 86/86/86 154/154/154 71/71/71
f 118/118/118 133/133/133 77/77/77
f 66/66/66 133/133/133 118/118/118
f 71/71/71 65/65/65 64/64/64
f 155/155/155 156/156/156 157/157/157
f 65/65/65 145/145/145 148/148/148
f 158/158/158 157/157/157 156/156/156
f 109/109/109 61/61/61 148/148/148
f 56/56/56 71/71/71 64/64/64
f 61/61/61 109/109/109 99/99/99
f 62/62/62 42/42/42 54/54/54
f 159/159/159 160/160/160 161/161/161
f 162/162/162 163/163/163 164/164/164
f 54/54/54 64/64/64 62/62/62
f 165/165/165 107/107/107 45/45/45
f 56/56/56 64/64/64 54/54/54
f 111/111/111 97/97/97 99/99/99
f 140/140/140 166/166/166 87/87/87
f 60/60/60 69/69/69 167/167/167
f 38/38/38 37/37/37 128/128/128
f 106/106/106 67/67/67 104/104/104
f 70/70/70 53/53/53 51/51/51
f 168/168/168 169/169/169 170/170/170
f 50/50/50 66/66/66 51/51/51
f 80/80/80 105/105/105 104/104/104
f 77/77/77 133/133/133 135/135/135
f 166/166/166 85/85/85 87/87/87
f 162/162/162 164/164/164 171/171/171
f 170/170/170 172/172/172 168/168/168
f 97/97/97 173/173/173 84/84/84
f 66/66/66 50/50/50 133/133/133
f 96/96/96 138/138/138 137/137/137
f 67/67/67 106/106/106 153/153/153
f 124/124/124 174/174/174 123/123/123
f 175/175/175 58/58/58 57/57/57
f 167/167/167 69/69/69 153/153/153
f 167/167/167 153/153/153 106/106/106
f 176/176/176 80/80/80 78/78/78
f 83/83/83 43/43/43 40/40/40
f 145/145/145 65/65/65 73/73/73
f 53/53/53 70/70/70 137/137/137
f 177/177/177 160/160/160 159/159/159
f 42/42/42 62/62/62 40/40/40
f 71/71/71 56/56/56 141/141/141
f 102/102/102 178/178/178 100/100/100
f 74/74/74 143/143/143 73/73/73
f 69/69/69 60/60/60 59/59/59
