# Exported using wow.export v0.2.19
o darnassis_int129.obj
v -80.9791259765625 3.1157610416412354 394.94647216796875
v -83.3625259399414 3.1157615184783936 394.7115478515625
v -80.48817443847656 3.1157608032226562 397.29058837890625
v -78.5957260131836 3.115760564804077 395.181396484375
v -75.65001678466797 3.1157608032226562 409.2459716796875
v -73.757568359375 3.115760087966919 407.1368103027344
v -76.1409683227539 3.115760564804077 406.9018859863281
v -76.63191986083984 3.115760326385498 404.55780029296875
v -78.52436828613281 3.1157610416412354 406.6669616699219
v -79.50627136230469 3.1157608032226562 401.978759765625
v -79.01531982421875 3.1157608032226562 404.3228759765625
v -81.39871978759766 3.1157612800598145 404.08795166015625
v -85.25497436523438 3.1157617568969727 396.82073974609375
v -84.76402282714844 3.1157615184783936 399.1648254394531
v -82.38062286376953 3.1157610416412354 399.3997497558594
v -87.14742279052734 3.1157619953155518 398.9299011230469
v -84.2730712890625 3.1157617568969727 401.5089111328125
v -79.57762908935547 3.1157610416412354 390.49322509765625
v -81.47007751464844 3.1157612800598145 392.6023864746094
v -79.08667755126953 3.1157608032226562 392.8373107910156
v -76.70327758789062 3.115760326385498 393.0722351074219
v -75.72137451171875 3.11575984954834 397.76043701171875
v -76.21232604980469 3.115760087966919 395.41632080078125
v -73.82892608642578 3.1157596111297607 395.6512451171875
v -69.97267150878906 3.1157588958740234 402.91845703125
v -70.463623046875 3.1157586574554443 400.5743713378906
v -72.8470230102539 3.1157591342926025 400.3394470214844
v -68.0802230834961 3.115758180618286 400.8092956542969
v -70.95457458496094 3.1157588958740234 398.23028564453125
v -81.8896713256836 3.1157612800598145 401.74383544921875
v -73.33797454833984 3.1157593727111816 397.995361328125
v -80.03289794921875 3.1157608032226562 393.89190673828125
v -74.73947143554688 3.11575984954834 402.4486083984375
v -75.23042297363281 3.1157596111297607 400.1045227050781
v -77.61382293701172 3.115760087966919 399.8695983886719
v -79.99722290039062 3.115760564804077 399.6346740722656
v -77.12287139892578 3.115760326385498 402.21368408203125
v -72.35607147216797 3.1157593727111816 402.68353271484375
v -71.86511993408203 3.1157593727111816 405.02764892578125
v -78.10477447509766 3.115760326385498 397.5255126953125
v -82.87157440185547 3.1157612800598145 397.0556640625
v -74.24851989746094 3.11575984954834 404.792724609375
v -79.56666564941406 15.607919692993164 402.2671813964844
v -83.23738098144531 14.602890014648438 401.0416564941406
v -81.07154083251953 16.61294937133789 398.8489074707031
v -74.14501953125 16.607328414916992 400.8773498535156
v -77.62064361572266 17.617977142333984 399.877197265625
v -75.62516784667969 15.596681594848633 397.430908203125
v -71.92851257324219 14.586036682128906 398.62933349609375
v -68.23184967041016 13.575390815734863 399.8277893066406
v -70.4483642578125 15.596683502197266 402.0758056640625
v -72.29669189453125 16.102005004882812 401.4765625
v -72.66487121582031 17.61797523498535 404.32379150390625
v -82.90689849853516 16.110435485839844 398.23614501953125
v -78.06179809570312 14.602890014648438 405.6854553222656
v -81.73251342773438 13.597860336303711 404.4599304199219
v -82.576416015625 17.617979049682617 395.4306335449219
v -84.74225616455078 15.607919692993164 397.6233825683594
v -79.10079193115234 16.607330322265625 396.4307861328125
v -79.84086608886719 16.102006912231445 394.70751953125
v -77.10531616210938 14.586034774780273 393.98443603515625
v -80.58094024658203 15.596683502197266 392.98431396484375
v -86.90809631347656 13.597861289978027 399.8161315917969
v -78.58546447753906 13.57538890838623 390.5379943847656
v -76.11576843261719 16.612947463989258 403.29547119140625
v -74.61090087890625 15.607917785644531 406.7137451171875
v -76.55692291259766 13.597859382629395 409.1037292480469
v -73.40866088867188 13.575389862060547 395.1828918457031
v -70.82025146484375 13.575389862060547 397.5053405761719
v -75.99706268310547 13.575389862060547 392.8604431152344
v -84.32030487060547 13.597860336303711 402.1380310058594
v -79.14471435546875 13.597860336303711 406.7818298339844
v -75.14276123046875 17.617977142333984 402.1004943847656
v -80.09852600097656 17.617977142333984 397.6539306640625
v -75.36333465576172 16.110431671142578 405.004638671875
v -81.87974548339844 5.8722381591796875 404.62408447265625
v -78.92282104492188 5.18311882019043 407.0352478027344
v -81.56387329101562 4.493999481201172 404.4236145019531
v -76.2817611694336 5.8722381591796875 409.6468811035156
v -77.44435119628906 4.838559150695801 408.2408447265625
v -82.07615661621094 7.2504754066467285 404.69134521484375
v -79.3753662109375 7.939594268798828 407.23638916015625
v -79.178955078125 6.561356544494629 407.16912841796875
v -82.12185668945312 8.628713607788086 404.89385986328125
v -77.92676544189453 7.595034599304199 408.47528076171875
v -76.67457580566406 8.62871265411377 409.78143310546875
v -70.44194793701172 7.929757595062256 397.28070068359375
v -73.26943969726562 7.242043495178223 394.87640380859375
v -70.4986343383789 6.554328918457031 397.49517822265625
v -73.06233978271484 8.617473602294922 394.796875
v -67.61445617675781 8.617471694946289 399.68499755859375
v -69.05654907226562 7.58590030670166 398.590087890625
v -67.72782897949219 5.86661434173584 400.11395263671875
v -84.82264709472656 7.9395952224731445 402.34881591796875
v -84.77694702148438 6.561356544494629 402.14630126953125
v -87.56912994384766 8.628714561462402 400.00628662109375
v -75.88983154296875 7.929759979248047 392.392578125
v -76.096923828125 6.5543293952941895 392.47210693359375
v -78.51022338867188 8.617476463317871 389.9087829589844
v -84.69863891601562 10.696070671081543 402.5137939453125
v -84.79653930664062 9.317832946777344 402.4713134765625
v -87.37332153320312 11.3851900100708 400.0912780761719
v -82.0239486694336 10.006951332092285 404.93634033203125
v -82.07675170898438 11.385190963745117 404.8436279296875
v -72.9989013671875 9.992901802062988 394.8774719238281
v -75.69111633300781 10.68061637878418 392.47369384765625
v -75.75456237792969 9.30518913269043 392.39312744140625
v -78.38333892822266 11.368331909179688 390.0699462890625
v -73.08586120605469 11.368332862854004 394.8231201171875
v -79.34925842285156 9.317831993103027 407.35888671875
v -79.40206909179688 10.69607162475586 407.26617431640625
v -76.78018951416016 11.385190963745117 409.5959777832031
v -70.39363861083984 10.680618286132812 397.22686767578125
v -70.30667877197266 9.305187225341797 397.28125
v -67.78837585449219 11.36833381652832 399.5762939453125
v -79.37265014648438 11.938358306884766 407.09674072265625
v -81.96511840820312 12.491524696350098 404.5975036621094
v -79.26101684570312 13.044692039489746 406.8506164550781
v -87.47773742675781 5.8722381591796875 399.60125732421875
v -84.67874145507812 5.8722381591796875 402.1126708984375
v -85.999267578125 5.527678489685059 400.8068542480469
v -84.52080535888672 5.18311882019043 402.012451171875
v -76.21336364746094 5.178900718688965 392.753173828125
v -76.53997802734375 3.803473949432373 392.96588134765625
v -73.5023193359375 4.491186618804932 395.43853759765625
v -73.32612609863281 5.866614818572998 395.09088134765625
v -85.91669464111328 4.838559150695801 400.6390075683594
v -77.73219299316406 4.835044860839844 391.516845703125
v -79.57762908935547 3.1157610416412354 390.49322509765625
v -78.9244155883789 5.866615295410156 390.06781005859375
v -79.08074951171875 5.8722381591796875 407.135498046875
v -77.73036193847656 6.216797351837158 408.40802001953125
v -79.50411224365234 4.666279315948486 406.33221435546875
v -84.35565185546875 3.8048806190490723 401.6767578125
v -78.60694885253906 3.804880142211914 406.83477783203125
v -87.14742279052734 3.1157619953155518 398.9299011230469
v -70.61507415771484 5.178900718688965 397.7762451171875
v -71.38093566894531 4.66311502456665 397.27874755859375
v -69.25955200195312 4.835043430328369 399.1189270019531
v -68.0802230834961 3.115758180618286 400.8092956542969
v -70.79127502441406 3.8034725189208984 398.1239013671875
v -75.65001678466797 3.1157608032226562 409.2459716796875
v -76.12527465820312 5.866615295410156 392.579345703125
v -79.3982162475586 8.628713607788086 407.337646484375
v -84.84548950195312 8.628713607788086 402.4500732421875
v -70.33839416503906 8.617472648620605 397.2409362792969
v -75.78628540039062 8.617475509643555 392.35284423828125
v -79.428466796875 11.385190963745117 407.21978759765625
v -84.72503662109375 11.385190963745117 402.46746826171875
v -84.66921997070312 11.93835735321045 402.3443908691406
v -70.43711853027344 11.36833381652832 397.19970703125
v -70.54798889160156 11.920097351074219 397.2625732421875
v -75.73460388183594 11.368331909179688 392.446533203125
v -75.84546661376953 11.920096397399902 392.5093994140625
v -76.55692291259766 13.597859382629395 409.1037292480469
v -79.14471435546875 13.597860336303711 406.7818298339844
v -70.76972198486328 13.023626327514648 397.3883056640625
v -68.23184967041016 13.575390815734863 399.8277893066406
v -73.3075942993164 12.471860885620117 394.9488525390625
v -70.82025146484375 13.575389862060547 397.5053405761719
v -86.90809631347656 13.597861289978027 399.8161315917969
v -84.43660736083984 13.044692993164062 402.2068176269531
v -84.32030487060547 13.597860336303711 402.1380310058594
v -75.946533203125 13.023624420166016 392.743408203125
v -78.58546447753906 13.57538890838623 390.5379943847656
v -75.99706268310547 13.575389862060547 392.8604431152344
v -73.82892608642578 3.1157596111297607 395.6512451171875
v -70.95457458496094 3.1157588958740234 398.23028564453125
v -76.70327758789062 3.115760326385498 393.0722351074219
v -81.39871978759766 3.1157612800598145 404.08795166015625
v -84.2730712890625 3.1157617568969727 401.5089111328125
v -78.52436828613281 3.1157610416412354 406.6669616699219
v -70.5269775390625 5.86661434173584 397.6024169921875
v -73.40866088867188 13.575389862060547 395.1828918457031
v -81.73251342773438 13.597860336303711 404.4599304199219
vn 9.989152260914125e-8 1 -1.1133072774782704e-7
vn 9.989152260914125e-8 1 -1.1133072774782704e-7
vn 9.989152260914125e-8 1 -1.1133072774782704e-7
vn 9.989152260914125e-8 1 -1.1133072774782704e-7
vn 9.989155103085068e-8 1 -1.1133098354321191e-7
vn 9.989154392542332e-8 1 -1.113309195943657e-7
vn 9.989154392542332e-8 1 -1.113309195943657e-7
vn 9.989153681999596e-8 1 -1.1133085564551948e-7
vn 9.989154392542332e-8 1 -1.113309195943657e-7
vn 9.98915297145686e-8 1 -1.1133079169667326e-7
vn 9.989153681999596e-8 1 -1.1133085564551948e-7
vn 9.989153681999596e-8 1 -1.1133085564551948e-7
vn 9.989152260914125e-8 1 -1.1133072774782704e-7
vn 9.989152260914125e-8 1 -1.1133072774782704e-7
vn 9.989152260914125e-8 1 -1.1133072774782704e-7
vn 9.989152260914125e-8 1 -1.1133072774782704e-7
vn 9.98915297145686e-8 1 -1.1133079169667326e-7
vn 9.989152260914125e-8 1 -1.1133072774782704e-7
vn 9.989152260914125e-8 1 -1.1133072774782704e-7
vn 9.989152260914125e-8 1 -1.1133072774782704e-7
vn 9.989152260914125e-8 1 -1.1133072774782704e-7
vn 9.989152260914125e-8 1 -1.1133072774782704e-7
vn 9.989152260914125e-8 1 -1.1133072774782704e-7
vn 9.989152260914125e-8 1 -1.1133072774782704e-7
vn 9.98915297145686e-8 1 -1.1133079169667326e-7
vn 9.989152260914125e-8 1 -1.1133072774782704e-7
vn 9.989152260914125e-8 1 -1.1133072774782704e-7
vn 9.989152260914125e-8 1 -1.1133072774782704e-7
vn 9.989152260914125e-8 1 -1.1133072774782704e-7
vn 9.98915297145686e-8 1 -1.1133079169667326e-7
vn 9.989152260914125e-8 1 -1.1133072774782704e-7
vn 9.989152260914125e-8 1 -1.1133072774782704e-7
vn 9.98915297145686e-8 1 -1.1133079169667326e-7
vn 9.989152260914125e-8 1 -1.1133072774782704e-7
vn 9.989152260914125e-8 1 -1.1133072774782704e-7
vn 9.989152260914125e-8 1 -1.1133072774782704e-7
vn 9.98915297145686e-8 1 -1.1133079169667326e-7
vn 9.98915297145686e-8 1 -1.1133079169667326e-7
vn 9.989153681999596e-8 1 -1.1133085564551948e-7
vn 9.989152260914125e-8 1 -1.1133072774782704e-7
vn 9.989152260914125e-8 1 -1.1133072774782704e-7
vn 9.989153681999596e-8 1 -1.1133085564551948e-7
vn 0.3096907436847687 -0.8859792947769165 -0.34515565633773804
vn 0.44095295667648315 -0.7510243058204651 -0.49144983291625977
vn 0.1608240008354187 -0.9705711007118225 -0.1792411059141159
vn -0.15711654722690582 -0.9719318151473999 0.17510879039764404
vn 0.002815244486555457 -0.9999911189079285 -0.0031376469414681196
vn -0.30791395902633667 -0.8873668313026428 0.34317484498023987
vn -0.44080913066864014 -0.7512140274047852 0.4912889301776886
vn -0.5480771660804749 -0.5713882446289062 0.6108411550521851
vn -0.30791276693344116 -0.8873676061630249 0.34317389130592346
vn -0.23422299325466156 -0.9364800453186035 0.26104530692100525
vn 0.002815244486555457 -0.9999911189079285 -0.0031376469414681196
vn 0.23694689571857452 -0.9349423050880432 -0.2640814781188965
vn 0.44095319509506226 -0.7510241866111755 -0.49144992232322693
vn 0.5471495985984802 -0.5733775496482849 -0.6098079085350037
vn 0.002815244486555457 -0.9999911189079285 -0.0031376469414681196
vn 0.3096904456615448 -0.8859792947769165 -0.3451555669307709
vn -0.15711654722690582 -0.9719318151473999 0.17510879039764404
vn -0.2342236191034317 -0.9364798069000244 0.26104581356048584
vn -0.44081011414527893 -0.7512129545211792 0.4912896454334259
vn -0.30791395902633667 -0.8873668313026428 0.34317484498023987
vn 0.5471493601799011 -0.5733777284622192 -0.6098077893257141
vn -0.5480787754058838 -0.5713855028152466 0.610842227935791
vn 0.1608240008354187 -0.9705711007118225 -0.1792411059141159
vn 0.3096907436847687 -0.8859792947769165 -0.34515565633773804
vn 0.5471497774124146 -0.5733773112297058 -0.6098078489303589
vn -0.5480780005455017 -0.5713869333267212 0.6108417510986328
vn -0.5480775833129883 -0.5713875889778137 0.6108414530754089
vn -0.5480784177780151 -0.5713862180709839 0.6108419895172119
vn 0.5471494793891907 -0.5733776092529297 -0.6098078489303589
vn 0.547149658203125 -0.5733774304389954 -0.6098078489303589
vn 0.002815244486555457 -0.9999911189079285 -0.0031376469414681196
vn 0.002815244486555457 -0.9999911189079285 -0.0031376469414681196
vn 0.23694702982902527 -0.9349422454833984 -0.26408153772354126
vn 0.6554110050201416 0.19197919964790344 -0.7304660081863403
vn 0.6533306837081909 0.20726922154426575 -0.7281472682952881
vn 0.6510909199714661 0.22251006960868835 -0.725651204586029
vn 0.6554113030433655 0.19197790324687958 -0.7304659485816956
vn 0.6522309184074402 0.2148955762386322 -0.7269214391708374
vn 0.6627745032310486 0.12284640967845917 -0.7386735677719116
vn 0.6652400493621826 0.0880322977900505 -0.741421639919281
vn 0.6594969630241394 0.15750867128372192 -0.7350201606750488
vn 0.6668901443481445 0.05311029031872749 -0.74326092004776
vn 0.6641091704368591 0.10545486211776733 -0.7401609420776367
vn 0.6668901443481445 0.05311029031872749 -0.74326092004776
vn -0.6645034551620483 0.09973066300153732 0.7406004071235657
vn -0.6617663502693176 0.13448257744312286 0.7375497817993164
vn -0.6582188606262207 0.1690705418586731 0.7335960865020752
vn -0.6664268374443054 0.0648566335439682 0.7427442073822021
vn -0.6664268374443054 0.0648566335439682 0.7427442073822021
vn -0.6632363796234131 0.11712490767240524 0.7391882538795471
vn -0.6538652777671814 0.20345142483711243 0.7287439107894897
vn 0.6652400493621826 0.0880322977900505 -0.741421639919281
vn 0.6594967246055603 0.1575099527835846 -0.7350202202796936
vn 0.6668901443481445 0.05311029031872749 -0.74326092004776
vn -0.6645034551620483 0.09973066300153732 0.7406004071235657
vn -0.6582189798355103 0.16906984150409698 0.73359614610672
vn -0.6664268374443054 0.0648566335439682 0.7427442073822021
vn 0.6656033396720886 -0.08164063096046448 -0.7418268322944641
vn 0.667810320854187 0.008179571479558945 -0.7442865371704102
vn 0.6624805927276611 -0.126348614692688 -0.7383464574813843
vn 0.6673811078071594 -0.03676767647266388 -0.7438081502914429
vn 0.6624810099601746 -0.1263488531112671 -0.7383460402488708
vn -0.6676298975944519 -0.024648595601320267 0.7440851330757141
vn -0.6662238836288452 -0.06937196850776672 0.7425181865692139
vn -0.667697548866272 0.02012418955564499 0.7441604733467102
vn -0.6634823679924011 -0.1139562800526619 0.7394627332687378
vn -0.6634823083877563 -0.11395590752363205 0.7394628524780273
vn 0.667810320854187 0.008179571479558945 -0.7442865371704102
vn 0.6656038165092468 -0.08164087682962418 -0.7418264150619507
vn 0.662481427192688 -0.12634910643100739 -0.7383456230163574
vn -0.6662238240242004 -0.06937159597873688 0.7425182461738586
vn -0.667697548866272 0.02012418955564499 0.7441604733467102
vn -0.6634823083877563 -0.1139555349946022 0.7394629120826721
vn 0.6474549174308777 -0.24514690041542053 -0.7215990424156189
vn 0.6229630708694458 -0.3603608310222626 -0.6943033337593079
vn 0.5893644690513611 -0.4703068137168884 -0.6568570137023926
vn 0.6554105877876282 0.19198045134544373 -0.7304659485816956
vn 0.6554107666015625 0.19197982549667358 -0.7304660081863403
vn 0.6543903946876526 0.19963157176971436 -0.7293288111686707
vn 0.6533303260803223 0.20727050304412842 -0.7281472682952881
vn -0.6516713500022888 0.21866615116596222 0.7262985110282898
vn -0.6468098163604736 0.24893568456172943 0.7208801507949829
vn -0.6493192315101624 0.23382923007011414 0.7236769795417786
vn -0.6538654565811157 0.2034507393836975 0.7287439703941345
vn 0.6522305011749268 0.2148950695991516 -0.7269219160079956
vn -0.650515079498291 0.22625455260276794 0.7250097990036011
vn -0.6441436409950256 0.26398178935050964 0.717908501625061
vn -0.6538655757904053 0.2034500390291214 0.7287440299987793
vn 0.6554111242294312 0.1919785439968109 -0.7304660081863403
vn 0.6575549244880676 0.17477008700370789 -0.7328553795814514
vn 0.651665985584259 0.21870452165603638 -0.7262918949127197
vn 0.6486931443214417 0.2376919537782669 -0.7229796648025513
vn 0.6486931443214417 0.23769550025463104 -0.7229786515235901
vn 0.646137535572052 0.25281599164009094 -0.7201321721076965
vn -0.6516712307929993 0.21866683661937714 0.7262985110282898
vn -0.6499220132827759 0.23004397749900818 0.7243488430976868
vn -0.6505149006843567 0.22625520825386047 0.7250096201896667
vn -0.6441436409950256 0.26398178935050964 0.717908501625061
vn -0.6468098163604736 0.24893568456172943 0.7208801507949829
vn 0.6461372971534729 0.25282302498817444 -0.7201299071311951
vn -0.6538655161857605 0.20345038175582886 0.7287440299987793
vn 0.6668901443481445 0.05311029031872749 -0.74326092004776
vn 0.6668901443481445 0.05311029031872749 -0.74326092004776
vn -0.6664268374443054 0.0648566335439682 0.7427442073822021
vn -0.6664268374443054 0.0648566335439682 0.7427442073822021
vn 0.6624811887741089 -0.12634897232055664 -0.7383458614349365
vn 0.6624808311462402 -0.12634873390197754 -0.7383462190628052
vn 0.6474545001983643 -0.24514664709568024 -0.7215995192527771
vn -0.6634823679924011 -0.11395573616027832 0.7394629120826721
vn -0.6490544080734253 -0.23546987771987915 0.7233825325965881
vn -0.6634823679924011 -0.11395610868930817 0.7394628524780273
vn -0.6490544676780701 -0.235470250248909 0.7233824133872986
vn 0.5471497774124146 -0.5733773112297058 -0.6098078489303589
vn 0.547149658203125 -0.5733774304389954 -0.6098078489303589
vn -0.5909090042114258 -0.46594154834747314 0.658578097820282
vn -0.5480771660804749 -0.5713882446289062 0.6108411550521851
vn -0.6247398257255554 -0.3533974289894104 0.6962832808494568
vn -0.5480775833129883 -0.5713875889778137 0.6108414530754089
vn 0.5471493601799011 -0.5733777284622192 -0.6098077893257141
vn 0.5893642902374268 -0.4703071117401123 -0.6568570137023926
vn 0.5471494793891907 -0.5733776092529297 -0.6098078489303589
vn -0.5909097194671631 -0.46594005823135376 0.6585785150527954
vn -0.5480787754058838 -0.5713855028152466 0.610842227935791
vn -0.5480784177780151 -0.5713862180709839 0.6108419895172119
vn -0.6441436409950256 0.26398178935050964 0.717908501625061
vn -0.6441436409950256 0.26398178935050964 0.717908501625061
vn -0.6441436409950256 0.26398178935050964 0.717908501625061
vn 0.6461374759674072 0.2528195381164551 -0.7201310992240906
vn 0.6461374759674072 0.2528177499771118 -0.7201316356658936
vn 0.6461373567581177 0.25282126665115356 -0.7201305031776428
vn -0.653865396976471 0.20345111191272736 0.7287439703941345
vn -0.5480780005455017 -0.5713869333267212 0.6108417510986328
vn 0.5471495985984802 -0.5733775496482849 -0.6098079085350037
vt 0.5531439185142517 1.86217600107193
vt 0.3928467333316803 1.9982051849365234
vt 0.7171798348426819 1.9925026893615723
vt 0.7134411334991455 1.7261468172073364
vt 1.697656512260437 2.5081067085266113
vt 1.6939177513122559 2.2417508363723755
vt 1.5336205959320068 2.3777800798416138
vt 1.3695847988128662 2.247453451156616
vt 1.3733234405517578 2.5138092041015625
vt 1.0452516078948975 2.2531559467315674
vt 1.2092876434326172 2.3834826946258545
vt 1.0489903688430786 2.5195118188858032
vt 0.39658546447753906 2.2645610570907593
vt 0.5606213808059692 2.394887685775757
vt 0.720918595790863 2.258858561515808
vt 0.4003242254257202 2.530916929244995
vt 0.7246572971343994 2.525214433670044
vt 0.3853692412376404 1.4654934406280518
vt 0.38910800218582153 1.7318493127822876
vt 0.5494052171707153 1.595820128917694
vt 0.7097023725509644 1.4597909152507782
vt 1.0377742052078247 1.7204442620277405
vt 0.8737382888793945 1.5901175737380981
vt 1.0340354442596436 1.4540883898735046
vt 1.686440348625183 1.7090392112731934
vt 1.522404432296753 1.578712522983551
vt 1.362107276916504 1.7147417068481445
vt 1.682701587677002 1.4426833391189575
vt 1.3583685159683228 1.448385864496231
vt 0.8849544525146484 2.3891851902008057
vt 1.1980713605880737 1.584415078163147
vt 0.5512745380401611 1.728998064994812
vt 1.365846037864685 1.9810975790023804
vt 1.2018101215362549 1.8507709503173828
vt 1.0415129661560059 1.9868001341819763
vt 0.8812158107757568 2.12282931804657
vt 1.205548882484436 2.1171268224716187
vt 1.526143193244934 1.845068335533142
vt 1.6901791095733643 1.9753950238227844
vt 0.8774770498275757 1.856473445892334
vt 0.5568826794624329 2.1285319328308105
vt 1.5298819541931152 2.111424207687378
vt 0.5275965929031372 0.5029770135879517
vt 0.3146340250968933 0.2547152042388916
vt 0.2916446030139923 0.7512388229370117
vt 0.7113236784934998 0.7497504353523254
vt 0.5019788146018982 0.9995003640651703
vt 0.47438234090805054 0.5000007450580597
vt 0.6805723309516907 0.2502501606941223
vt 0.8867623209953308 0.0004996061325073242
vt 0.9175136685371399 0.49999988079071045
vt 0.8144186735153198 0.6248751282691956
vt 0.948265016078949 0.9995000958442688
vt 0.18516331911087036 0.6271079182624817
vt 0.7635485529899597 0.2547152042388916
vt 0.5505859851837158 0.006453394889831543
vt 0.05569261312484741 0.9995006322860718
vt 0.0786820501089096 0.5029770135879517
vt 0.265037477016449 0.7497506737709045
vt 0.14656680822372437 0.6248758435249329
vt 0.23744098842144012 0.25025105476379395
vt 0.028096124529838562 0.5000010132789612
vt 0.1016714870929718 0.006453394889831543
vt 0.0004996359348297119 0.0005013942718505859
vt 0.7379307746887207 0.7512385547161102
vt 0.973882794380188 0.5029767453670502
vt 0.9995005130767822 0.006453394889831543
vt 0.44363096356391907 0.0005005002021789551
vt 0.6651966571807861 0.0005000829696655273
vt 0.2220652997493744 0.0005009174346923828
vt 0.3261287212371826 0.006453394889831543
vt 0.775043249130249 0.006453394889831543
vt 0.7251219153404236 0.9995002299547195
vt 0.2788357138633728 0.999500498175621
vt 0.8559067845344543 0.6271076500415802
vt 1 0.25166743993759155
vt 1.5 0.1892298460006714
vt 1 0.12537503242492676
vt 2 0.2530847191810608
vt 1.75 0.1580110788345337
vt 1 0.37512511014938354
vt 1.5 0.43756258487701416
vt 1.5 0.31410491466522217
vt 1 0.5000002086162567
vt 1.75 0.40705251693725586
vt 2 0.5000000596046448
vt 1.5 0.4366716146469116
vt 1 0.3743613362312317
vt 1.5 0.31254422664642334
vt 1 0.49898189306259155
vt 2 0.4989818334579468
vt 1.75 0.40576303005218506
vt 2 0.2507270574569702
vt 0.5 0.4375627040863037
vt 0.5 0.31268763542175293
vt 0 0.5000003576278687
vt 0.5 0.4366716146469116
vt 0.5 0.31205105781555176
vt 0 0.49898195266723633
vt 0.5 0.6873129308223724
vt 0.5 0.5624378323554993
vt 0 0.749750554561615
vt 1 0.6248753070831299
vt 1 0.7700722813606262
vt 1 0.6236025094985962
vt 0.5 0.6859128475189209
vt 0.5 0.5612922310829163
vt 0 0.7482231855392456
vt 1 0.7624506056308746
vt 1.5 0.5624376833438873
vt 1.5 0.7076346576213837
vt 2 0.7903940081596375
vt 1.5 0.7001402676105499
vt 1.5 0.5612921714782715
vt 2 0.7766780257225037
vt 1.5 0.8325097858905792
vt 1 0.874625563621521
vt 1.5 0.937063068151474
vt 0 0.2502501606941223
vt 0.5 0.25095880031585693
vt 0.25 0.21903133392333984
vt 0.5 0.18781256675720215
vt 0.5 0.1874305009841919
vt 0.5 0.0628100037574768
vt 1 0.1251201629638672
vt 1 0.2502339482307434
vt 0.25 0.15659379959106445
vt 0.25 0.15627539157867432
vt 0 0.0004998445510864258
vt 0 0.2497408390045166
vt 1.5 0.25237607955932617
vt 1.75 0.28359484672546387
vt 1.375 0.14169305562973022
vt 0.5 0.06293743848800659
vt 1.5 0.06293749809265137
vt 0 0.0004998445510864258
vt 1.5 0.1879236102104187
vt 1.375 0.14094430208206177
vt 1.75 0.15676844120025635
vt 2 0.0004995465278625488
vt 1.5 0.06280982494354248
vt 2 0.0004999637603759766
vt 0.5 0.24998736381530762
vt 1.5 0.5000001192092896
vt 0.5 0.5000002980232239
vt 1.5 0.4989818334579468
vt 0.5 0.49898195266723633
vt 1.5 0.7802331447601318
vt 0.5 0.7599114179611206
vt 0.5 0.812188059091568
vt 1.5 0.7695643156766891
vt 1.5 0.8247607946395874
vt 0.5 0.7553368955850601
vt 0.5 0.8105333745479584
vt 2 0.999500572681427
vt 1.5 0.999500572681427
vt 1.5 0.9351537525653839
vt 2 0.9974639415740967
vt 1 0.8728435635566711
vt 1.5 0.9974640905857086
vt 0 0.999500572681427
vt 0.5 0.937063068151474
vt 0.5 0.999500572681427
vt 0.5 0.9351540505886078
vt 0 0.9974645376205444
vt 0.5 0.9974643886089325
vt 1 0.000499725341796875
vt 1.5 0.0004996061325073242
vt 0.5 0.0004997849464416504
vt 1 0.0004999041557312012
vt 0.5 0.0004998445510864258
vt 1.5 0.0004999637603759766
vt 1.5 0.2504805326461792
vt 1 0.9974642395973206
vt 1 0.999500572681427
g int1290
s 1
f 1/1/1 2/2/2 3/3/3
f 4/4/4 1/1/1 3/3/3
f 5/5/5 6/6/6 7/7/7
f 7/7/7 6/6/6 8/8/8
f 7/7/7 8/8/8 9/9/9
f 5/5/5 7/7/7 9/9/9
f 8/8/8 10/10/10 11/11/11
f 11/11/11 10/10/10 12/12/12
f 9/9/9 11/11/11 12/12/12
f 9/9/9 8/8/8 11/11/11
f 13/13/13 14/14/14 15/15/15
f 13/13/13 16/16/16 14/14/14
f 17/17/17 14/14/14 16/16/16
f 17/17/17 15/15/15 14/14/14
f 18/18/18 19/19/19 20/20/20
f 20/20/20 4/4/4 21/21/21
f 18/18/18 20/20/20 21/21/21
f 4/4/4 22/22/22 23/23/23
f 23/23/23 22/22/22 24/24/24
f 21/21/21 23/23/23 24/24/24
f 21/21/21 4/4/4 23/23/23
f 25/25/25 26/26/26 27/27/27
f 25/25/25 28/28/28 26/26/26
f 29/29/29 26/26/26 28/28/28
f 29/29/29 27/27/27 26/26/26
f 12/12/12 10/10/10 30/30/30
f 30/30/30 10/10/10 15/15/15
f 30/30/30 15/15/15 17/17/17
f 12/12/12 30/30/30 17/17/17
f 24/24/24 22/22/22 31/31/31
f 31/31/31 22/22/22 27/27/27
f 31/31/31 27/27/27 29/29/29
f 24/24/24 31/31/31 29/29/29
f 19/19/19 1/1/1 32/32/32
f 32/32/32 1/1/1 4/4/4
f 20/20/20 32/32/32 4/4/4
f 20/20/20 19/19/19 32/32/32
f 33/33/33 34/34/34 35/35/35
f 33/33/33 27/27/27 34/34/34
f 22/22/22 34/34/34 27/27/27
f 22/22/22 35/35/35 34/34/34
f 10/10/10 36/36/36 15/15/15
f 10/10/10 35/35/35 36/36/36
f 3/3/3 36/36/36 35/35/35
f 3/3/3 15/15/15 36/36/36
f 37/37/37 35/35/35 10/10/10
f 8/8/8 37/37/37 10/10/10
f 8/8/8 33/33/33 37/37/37
f 37/37/37 33/33/33 35/35/35
f 38/38/38 27/27/27 33/33/33
f 39/39/39 38/38/38 33/33/33
f 39/39/39 25/25/25 38/38/38
f 38/38/38 25/25/25 27/27/27
f 40/40/40 35/35/35 22/22/22
f 4/4/4 40/40/40 22/22/22
f 4/4/4 3/3/3 40/40/40
f 40/40/40 3/3/3 35/35/35
f 41/41/41 15/15/15 3/3/3
f 2/2/2 41/41/41 3/3/3
f 2/2/2 13/13/13 41/41/41
f 41/41/41 13/13/13 15/15/15
f 6/6/6 42/42/42 8/8/8
f 6/6/6 39/39/39 42/42/42
f 42/42/42 39/39/39 33/33/33
f 8/8/8 42/42/42 33/33/33
f 19/19/19 2/2/2 1/1/1
g int1291
s 1
f 43/43/43 44/44/44 45/45/45
f 46/46/46 47/47/47 48/48/48
f 48/48/48 49/49/49 46/46/46
f 49/49/49 50/50/50 51/51/51
f 52/52/52 51/51/51 53/53/53
f 49/49/49 51/51/51 52/52/52
f 46/46/46 49/49/49 52/52/52
f 46/46/46 52/52/52 53/53/53
f 45/45/45 44/44/44 54/54/54
f 55/55/55 56/56/56 43/43/43
f 45/45/45 54/54/54 57/57/57
f 54/54/54 58/58/58 57/57/57
f 44/44/44 58/58/58 54/54/54
f 59/59/59 57/57/57 60/60/60
f 59/59/59 60/60/60 61/61/61
f 61/61/61 60/60/60 62/62/62
f 45/45/45 47/47/47 43/43/43
f 44/44/44 63/63/63 58/58/58
f 48/48/48 59/59/59 61/61/61
f 47/47/47 59/59/59 48/48/48
f 61/61/61 62/62/62 64/64/64
f 47/47/47 65/65/65 43/43/43
f 43/43/43 65/65/65 55/55/55
f 55/55/55 66/66/66 67/67/67
f 68/68/68 69/69/69 49/49/49
f 69/69/69 50/50/50 49/49/49
f 64/64/64 70/70/70 61/61/61
f 70/70/70 68/68/68 61/61/61
f 56/56/56 71/71/71 44/44/44
f 71/71/71 63/63/63 44/44/44
f 67/67/67 72/72/72 55/55/55
f 72/72/72 56/56/56 55/55/55
f 60/60/60 57/57/57 62/62/62
f 61/61/61 68/68/68 48/48/48
f 53/53/53 73/73/73 46/46/46
f 73/73/73 47/47/47 46/46/46
f 56/56/56 44/44/44 43/43/43
f 47/47/47 73/73/73 65/65/65
f 73/73/73 53/53/53 65/65/65
f 47/47/47 74/74/74 59/59/59
f 74/74/74 57/57/57 59/59/59
f 57/57/57 74/74/74 45/45/45
f 74/74/74 47/47/47 45/45/45
f 65/65/65 53/53/53 75/75/75
f 65/65/65 75/75/75 55/55/55
f 55/55/55 75/75/75 66/66/66
f 68/68/68 49/49/49 48/48/48
f 75/75/75 53/53/53 66/66/66
g int1292
s 1
f 76/76/76 77/77/77 78/78/78
f 77/77/77 79/79/79 80/80/80
f 81/81/81 82/82/82 83/83/83
f 82/82/82 81/81/81 84/84/84
f 85/85/85 86/86/86 79/79/79
f 82/82/82 86/86/86 85/85/85
f 82/82/82 85/85/85 83/83/83
f 87/87/87 88/88/88 89/89/89
f 87/87/87 90/90/90 88/88/88
f 91/91/91 92/92/92 93/93/93
f 92/92/92 89/89/89 93/93/93
f 92/92/92 87/87/87 89/89/89
f 91/91/91 87/87/87 92/92/92
f 94/94/94 95/95/95 96/96/96
f 81/81/81 95/95/95 94/94/94
f 84/84/84 81/81/81 94/94/94
f 90/90/90 97/97/97 88/88/88
f 88/88/88 97/97/97 98/98/98
f 97/97/97 99/99/99 98/98/98
f 100/100/100 101/101/101 102/102/102
f 103/103/103 101/101/101 100/100/100
f 103/103/103 100/100/100 104/104/104
f 105/105/105 106/106/106 107/107/107
f 106/106/106 108/108/108 107/107/107
f 106/106/106 105/105/105 109/109/109
f 110/110/110 103/103/103 111/111/111
f 110/110/110 111/111/111 112/112/112
f 103/103/103 104/104/104 111/111/111
f 113/113/113 114/114/114 115/115/115
f 105/105/105 114/114/114 113/113/113
f 109/109/109 105/105/105 113/113/113
f 116/116/116 117/117/117 118/118/118
f 119/119/119 120/120/120 121/121/121
f 121/121/121 120/120/120 122/122/122
f 123/123/123 124/124/124 125/125/125
f 126/126/126 123/123/123 125/125/125
f 121/121/121 122/122/122 127/127/127
f 119/119/119 121/121/121 127/127/127
f 128/128/128 129/129/129 124/124/124
f 130/130/130 129/129/129 128/128/128
f 131/131/131 132/132/132 79/79/79
f 131/131/131 83/83/83 132/132/132
f 130/130/130 128/128/128 123/123/123
f 128/128/128 124/124/124 123/123/123
f 83/83/83 85/85/85 132/132/132
f 132/132/132 85/85/85 79/79/79
f 78/78/78 77/77/77 133/133/133
f 122/122/122 78/78/78 134/134/134
f 122/122/122 76/76/76 78/78/78
f 133/133/133 77/77/77 80/80/80
f 133/133/133 80/80/80 135/135/135
f 119/119/119 127/127/127 136/136/136
f 78/78/78 133/133/133 135/135/135
f 127/127/127 134/134/134 136/136/136
f 137/137/137 138/138/138 139/139/139
f 127/127/127 122/122/122 134/134/134
f 93/93/93 139/139/139 140/140/140
f 137/137/137 125/125/125 138/138/138
f 139/139/139 141/141/141 140/140/140
f 138/138/138 125/125/125 141/141/141
f 137/137/137 126/126/126 125/125/125
f 139/139/139 138/138/138 141/141/141
f 93/93/93 137/137/137 139/139/139
f 135/135/135 80/80/80 142/142/142
f 80/80/80 79/79/79 142/142/142
f 126/126/126 143/143/143 123/123/123
f 143/143/143 130/130/130 123/123/123
f 86/86/86 144/144/144 110/110/110
f 144/144/144 84/84/84 110/110/110
f 144/144/144 82/82/82 84/84/84
f 86/86/86 82/82/82 144/144/144
f 84/84/84 145/145/145 101/101/101
f 145/145/145 96/96/96 101/101/101
f 145/145/145 94/94/94 96/96/96
f 84/84/84 94/94/94 145/145/145
f 146/146/146 114/114/114 90/90/90
f 91/91/91 114/114/114 146/146/146
f 91/91/91 146/146/146 87/87/87
f 146/146/146 90/90/90 87/87/87
f 147/147/147 107/107/107 99/99/99
f 90/90/90 107/107/107 147/147/147
f 90/90/90 147/147/147 97/97/97
f 147/147/147 99/99/99 97/97/97
f 112/112/112 148/148/148 116/116/116
f 148/148/148 104/104/104 116/116/116
f 111/111/111 104/104/104 148/148/148
f 111/111/111 148/148/148 112/112/112
f 104/104/104 149/149/149 150/150/150
f 149/149/149 102/102/102 150/150/150
f 100/100/100 102/102/102 149/149/149
f 100/100/100 149/149/149 104/104/104
f 109/109/109 151/151/151 152/152/152
f 151/151/151 115/115/115 152/152/152
f 151/151/151 113/113/113 115/115/115
f 109/109/109 113/113/113 151/151/151
f 108/108/108 153/153/153 154/154/154
f 153/153/153 109/109/109 154/154/154
f 153/153/153 106/106/106 109/109/109
f 108/108/108 106/106/106 153/153/153
f 116/116/116 118/118/118 155/155/155
f 118/118/118 156/156/156 155/155/155
f 117/117/117 156/156/156 118/118/118
f 157/157/157 152/152/152 158/158/158
f 159/159/159 152/152/152 157/157/157
f 159/159/159 157/157/157 160/160/160
f 157/157/157 158/158/158 160/160/160
f 150/150/150 161/161/161 162/162/162
f 150/150/150 162/162/162 117/117/117
f 117/117/117 162/162/162 163/163/163
f 162/162/162 161/161/161 163/163/163
f 154/154/154 159/159/159 164/164/164
f 154/154/154 164/164/164 165/165/165
f 164/164/164 166/166/166 165/165/165
f 159/159/159 166/166/166 164/164/164
f 141/141/141 167/167/167 168/168/168
f 141/141/141 168/168/168 140/140/140
f 124/124/124 129/129/129 169/169/169
f 124/124/124 169/169/169 167/167/167
f 134/134/134 170/170/170 171/171/171
f 134/134/134 171/171/171 136/136/136
f 135/135/135 142/142/142 172/172/172
f 135/135/135 172/172/172 170/170/170
f 120/120/120 95/95/95 76/76/76
f 119/119/119 95/95/95 120/120/120
f 120/120/120 76/76/76 122/122/122
f 76/76/76 83/83/83 131/131/131
f 76/76/76 131/131/131 77/77/77
f 131/131/131 79/79/79 77/77/77
f 89/89/89 126/126/126 173/173/173
f 89/89/89 173/173/173 93/93/93
f 93/93/93 173/173/173 137/137/137
f 173/173/173 126/126/126 137/137/137
f 98/98/98 130/130/130 143/143/143
f 98/98/98 143/143/143 126/126/126
f 154/154/154 109/109/109 159/159/159
f 108/108/108 154/154/154 165/165/165
f 104/104/104 150/150/150 117/117/117
f 102/102/102 161/161/161 150/150/150
f 109/109/109 152/152/152 159/159/159
f 152/152/152 115/115/115 158/158/158
f 116/116/116 104/104/104 117/117/117
f 112/112/112 116/116/116 155/155/155
f 114/114/114 105/105/105 90/90/90
f 114/114/114 91/91/91 115/115/115
f 110/110/110 84/84/84 103/103/103
f 86/86/86 110/110/110 112/112/112
f 90/90/90 105/105/105 107/107/107
f 107/107/107 108/108/108 99/99/99
f 84/84/84 101/101/101 103/103/103
f 101/101/101 96/96/96 102/102/102
f 88/88/88 98/98/98 126/126/126
f 98/98/98 99/99/99 130/130/130
f 95/95/95 81/81/81 76/76/76
f 95/95/95 119/119/119 96/96/96
f 88/88/88 126/126/126 89/89/89
f 76/76/76 81/81/81 83/83/83
f 78/78/78 135/135/135 170/170/170
f 125/125/125 167/167/167 141/141/141
f 78/78/78 170/170/170 134/134/134
f 125/125/125 124/124/124 167/167/167
f 159/159/159 160/160/160 174/174/174
f 159/159/159 174/174/174 166/166/166
f 117/117/117 163/163/163 175/175/175
f 117/117/117 175/175/175 156/156/156
