# Exported using wow.export v0.2.19
o darnassis_int132.obj
v -115.95887756347656 -10.838479042053223 306.1297607421875
v -114.54181671142578 -10.84607219696045 303.9757385253906
v -117.24807739257812 -10.838479042053223 302.912109375
v -115.18641662597656 -10.84607219696045 302.3669128417969
v -113.124755859375 -10.853665351867676 301.82171630859375
v -112.48015594482422 -10.853665351867676 303.4305419921875
v -111.83555603027344 -10.853665351867676 305.03936767578125
v -111.19095611572266 -10.853665351867676 306.648193359375
v -113.25261688232422 -10.84607219696045 307.19342041015625
v -113.897216796875 -10.84607219696045 305.5845642089844
v -118.66513061523438 -10.830885887145996 305.06610107421875
v -121.37139129638672 -10.82329273223877 304.0024719238281
v -119.84672546386719 -10.823293685913086 307.75909423828125
v -119.30973815917969 -10.830885887145996 303.457275390625
v -110.54635620117188 -10.853665351867676 308.2570495605469
v -111.89949035644531 -10.849868774414062 307.7252197265625
v -112.49028015136719 -10.846073150634766 309.07171630859375
v -118.32205963134766 -10.823294639587402 311.5157470703125
v -117.14047241210938 -10.830886840820312 308.82275390625
v -116.37812805175781 -10.830886840820312 310.7010803222656
v -114.4342041015625 -10.838479995727539 309.88641357421875
v -117.90280151367188 -10.830886840820312 306.9444274902344
v -114.74693298339844 -3.4737296104431152 303.9991760253906
v -115.96391296386719 -3.467123031616211 306.11724853515625
v -116.62042999267578 -3.4661364555358887 304.47882080078125
v -112.21693420410156 -3.4823098182678223 305.157958984375
v -111.56041717529297 -3.4832966327667236 306.79638671875
v -113.43390655517578 -3.475703239440918 307.27606201171875
v -114.43302917480469 -3.469090223312378 309.8894958496094
v -112.66846466064453 -3.476686954498291 309.16217041015625
v -119.4930419921875 -3.451930046081543 307.5718994140625
v -120.25848388671875 -3.45094633102417 305.685791015625
v -118.4939193725586 -3.458542823791504 304.95843505859375
v -116.9630355834961 -3.460510015487671 308.730712890625
v -117.962158203125 -3.453896999359131 311.3441467285156
v -113.52996063232422 -3.4803364276885986 301.881103515625
v -112.87344360351562 -3.4813232421875 303.51953125
v -114.13844299316406 -3.4770331382751465 302.94012451171875
v -115.40345764160156 -3.472743034362793 302.3607482910156
v -112.16889953613281 -3.4799933433532715 307.85546875
v -110.90390014648438 -3.484283447265625 308.4348449707031
v -119.15043640136719 -3.4575562477111816 303.32000732421875
v -119.75892639160156 -3.4542527198791504 304.3790283203125
v -121.02392578125 -3.449962854385376 303.7996520996094
v -117.27694702148438 -3.4651496410369873 302.84039306640625
v -117.4893798828125 -5.308478832244873 302.58172607421875
v -115.54130554199219 -5.776906967163086 301.95172119140625
v -115.53076171875 -5.316073894500732 302.0449523925781
v -113.5721435546875 -5.323668956756592 301.5081787109375
v -115.50967407226562 -4.394407749176025 302.2314147949219
v -112.43160247802734 -10.38548469543457 309.150146484375
v -114.31684875488281 -9.917304992675781 310.0432434082031
v -112.39505767822266 -9.924898147583008 309.1740417480469
v -110.54635620117188 -10.853665351867676 308.2570495605469
v -114.4342041015625 -10.838479995727539 309.88641357421875
v -118.08734893798828 -8.98094367980957 311.8294372558594
v -116.20210266113281 -9.449124336242676 310.93634033203125
v -117.20339965820312 -9.67562198638916 311.304443359375
v -116.3194580078125 -10.37030029296875 310.77947998046875
v -116.1290054321289 -8.527949333190918 310.984130859375
v -121.45172882080078 -8.979960441589355 303.5398254394531
v -120.39077758789062 -9.675006866455078 303.44073486328125
v -119.36997985839844 -9.448387145996094 303.11029052734375
v -117.28823852539062 -9.916812896728516 302.6807861328125
v -119.36851501464844 -8.526717185974121 302.9815673828125
v -119.32981872558594 -10.370052337646484 303.34161376953125
v -115.20576477050781 -9.92440414428711 302.1868896484375
v -115.20649719238281 -10.385238647460938 302.2512512207031
v -113.124755859375 -10.853665351867676 301.82171630859375
v -117.24807739257812 -10.838479042053223 302.912109375
v -112.43212890625 -6.700798034667969 309.5497131347656
v -112.49710083007812 -5.77962589263916 309.5213623046875
v -110.68241119384766 -5.326636791229248 308.7201232910156
v -114.24375915527344 -8.996129989624023 310.0910339355469
v -116.09246063232422 -8.067361831665039 311.0080261230469
v -114.22648620605469 -8.074957847595215 310.26788330078125
v -114.31178283691406 -6.2326154708862305 310.32257080078125
v -114.42253112792969 -5.31143856048584 310.179931640625
v -117.51046752929688 -6.230145454406738 302.395263671875
v -115.52664947509766 -6.698573112487793 301.85443115234375
v -117.40370178222656 -4.386814117431641 302.66046142578125
v -119.340576171875 -4.840052604675293 303.05010986328125
v -117.8989028930664 -5.296247959136963 311.7645568847656
v -116.150146484375 -4.843256950378418 310.93212890625
v -114.40139770507812 -4.390265464782715 310.0997009277344
v -119.46908569335938 -6.222550392150879 302.9320373535156
v -121.2774429321289 -5.2932915687561035 303.4397888183594
v -121.44879913330078 -7.136621475219727 303.2823486328125
v -116.18184661865234 -6.2250165939331055 311.052490234375
v -117.941162109375 -7.138594150543213 311.9250183105469
v -117.4089126586914 -8.073478698730469 302.38104248046875
v -119.36778259277344 -8.065882682800293 302.91717529296875
v -117.28677368164062 -8.99514389038086 302.5520324707031
v -117.93052673339844 -4.375072479248047 311.5543518066406
v -117.962158203125 -3.453896999359131 311.3441467285156
v -117.05615234375 -4.148576736450195 311.13812255859375
v -116.37812805175781 -10.830886840820312 310.7010803222656
v -117.32075500488281 -10.596797943115234 311.1476135253906
v -118.32205963134766 -10.823294639587402 311.5157470703125
v -118.20470428466797 -9.902118682861328 311.672607421875
v -121.41156005859375 -9.901626586914062 303.7711486816406
v -121.37139129638672 -10.82329273223877 304.0024719238281
v -120.35060119628906 -10.596672058105469 303.67205810546875
v -119.30973815917969 -10.830885887145996 303.457275390625
v -119.21381378173828 -3.9183883666992188 303.23004150390625
v -119.15043640136719 -3.4575562477111816 303.32000732421875
v -121.02392578125 -3.449962854385376 303.7996520996094
v -117.27694702148438 -3.4651496410369873 302.84039306640625
v -115.46682739257812 -3.93357515335083 302.2707824707031
v -115.40345764160156 -3.472743034362793 302.3607482910156
v -113.52996063232422 -3.4803364276885986 301.881103515625
v -115.18641662597656 -10.84607219696045 302.3669128417969
v -112.65264892578125 -3.93727445602417 309.26727294921875
v -112.66846466064453 -3.476686954498291 309.16217041015625
v -110.90390014648438 -3.484283447265625 308.4348449707031
v -114.43302917480469 -3.469090223312378 309.8894958496094
v -112.49028015136719 -10.846073150634766 309.07171630859375
v -119.38340759277344 -5.300885200500488 303.0107421875
v -112.66321563720703 -4.397861003875732 309.307373046875
v -116.18177795410156 -3.922081232070923 310.721923828125
v -116.08382415771484 -7.606776237487793 311.096435546875
v -114.24681091308594 -7.153787612915039 310.3509521484375
v -112.55247497558594 -5.319037437438965 309.45001220703125
v -119.4288558959961 -7.605050086975098 302.8316955566406
v -117.49581909179688 -7.151811122894287 302.2979736328125
v -113.54283142089844 -7.167000770568848 301.3136291503906
v -115.38896942138672 -8.541906356811523 301.930419921875
v -113.36902618408203 -9.010334968566895 301.4797668457031
v -110.5118179321289 -9.011322021484375 308.61077880859375
v -110.5524673461914 -7.168981075286865 308.77685546875
v -112.36915588378906 -8.543140411376953 309.4393310546875
vn -0.1280405968427658 0.9831308722496033 -0.1306108832359314
vn 0.042874619364738464 0.9196246862411499 0.39045122265815735
vn 0.18218250572681427 0.6902101039886475 0.7002996206283569
vn 0.19197997450828552 0.6347781419754028 0.7484652996063232
vn 0.2007237672805786 0.5758621692657471 0.7925230264663696
vn 0.04702594503760338 0.8869648575782776 0.4594363868236542
vn -0.11755155026912689 0.992864191532135 0.02005702629685402
vn -0.2549329400062561 0.8690597414970398 -0.42396262288093567
vn -0.2518317997455597 0.8336581587791443 -0.49152296781539917
vn -0.12314917892217636 0.9908385872840881 -0.05543588101863861
vn 0.01725167967379093 0.9675124287605286 0.2522338628768921
vn 0.15964698791503906 0.7894256114959717 0.5927225351333618
vn -0.05228407308459282 0.9986153841018677 0.005793882999569178
vn 0.17138506472110748 0.7418537139892578 0.6482901573181152
vn -0.33333441615104675 0.5441942811012268 -0.7698965668678284
vn -0.29892498254776 0.7038590312004089 -0.6443806886672974
vn -0.31310972571372986 0.607856035232544 -0.729707658290863
vn -0.24156774580478668 0.7752445936203003 -0.583644449710846
vn -0.19115430116653442 0.9093977808952332 -0.3693990707397461
vn -0.26708653569221497 0.7237332463264465 -0.6362977623939514
vn -0.29098230600357056 0.6678239107131958 -0.6850844025611877
vn -0.09044070541858673 0.99393230676651 -0.06260117888450623
vn 0.0335843488574028 -0.9123700857162476 0.40798652172088623
vn -0.13583694398403168 -0.9835395216941833 -0.11915619671344757
vn 0.021832218393683434 -0.9408754110336304 0.3380484879016876
vn -0.12830378115177155 -0.9910626411437988 0.03650961071252823
vn -0.26279330253601074 -0.8714287877082825 -0.41418787837028503
vn -0.25749266147613525 -0.8360908031463623 -0.4844066798686981
vn -0.2919296622276306 -0.6719218492507935 -0.6806600093841553
vn -0.31464818120002747 -0.6111574172973633 -0.7262803316116333
vn -0.05692555010318756 -0.9981977939605713 0.018989091739058495
vn 0.050434011965990067 -0.9421465992927551 0.33138537406921387
vn 0.008904091082513332 -0.963836669921875 0.26634469628334045
vn -0.19497816264629364 -0.9123479127883911 -0.36000674962997437
vn -0.24113869667053223 -0.7804166674613953 -0.5768898725509644
vn 0.19253914058208466 -0.5568621754646301 0.8079809546470642
vn 0.03640485927462578 -0.8772736191749573 0.47860807180404663
vn 0.11774146556854248 -0.7650225758552551 0.6331486701965332
vn 0.18398071825504303 -0.6184406280517578 0.7639910578727722
vn -0.30294564366340637 -0.706491231918335 -0.6396045684814453
vn -0.335387647151947 -0.5465490221977234 -0.7673325538635254
vn 0.1637183427810669 -0.7304998636245728 0.6629979014396667
vn 0.08228498697280884 -0.8912219405174255 0.4460410177707672
vn 0.15213188529014587 -0.7803306579589844 0.6065805554389954
vn 0.1743551790714264 -0.6764319539070129 0.7155697345733643
vn 0.22320084273815155 -0.3176949620246887 0.9215482473373413
vn 0.24689725041389465 -0.12498234957456589 0.96094810962677
vn 0.23731207847595215 -0.23368379473686218 0.9429076313972473
vn 0.2495928406715393 -0.14787015318870544 0.9569941759109497
vn 0.2097408026456833 -0.44121405482292175 0.8725473880767822
vn -0.35520491003990173 0.4501838684082031 -0.8192459344863892
vn -0.37290117144584656 0.35088303685188293 -0.8589678406715393
vn -0.3589048385620117 0.418740838766098 -0.8341723084449768
vn -0.33333441615104675 0.5441942811012268 -0.7698965668678284
vn -0.29098230600357056 0.6678239107131958 -0.6850844025611877
vn -0.39499059319496155 0.14112648367881775 -0.907780647277832
vn -0.3862152397632599 0.2474588006734848 -0.8885955214500427
vn -0.3672233521938324 0.372976154088974 -0.8520773649215698
vn -0.3182936906814575 0.5833318829536438 -0.7472703456878662
vn -0.38764065504074097 0.17925462126731873 -0.9042137861251831
vn 0.23929822444915771 0.19046641886234283 0.9520813226699829
vn 0.22503763437271118 0.4113718569278717 0.88325035572052
vn 0.2334480732679367 0.2927892506122589 0.9272413849830627
vn 0.22500166296958923 0.3918558955192566 0.8920892477035522
vn 0.23772867023944855 0.1724640280008316 0.9558981657028198
vn 0.1986834555864334 0.6101700663566589 0.7669532299041748
vn 0.21956418454647064 0.43158426880836487 0.874943733215332
vn 0.2140529602766037 0.48656460642814636 0.8470159769058228
vn 0.2007237672805786 0.5758621692657471 0.7925230264663696
vn 0.18218250572681427 0.6902101039886475 0.7002996206283569
vn -0.3879847228527069 -0.025177421048283577 -0.9213218688964844
vn -0.37977325916290283 -0.09006470441818237 -0.920684814453125
vn -0.37560784816741943 -0.12060024589300156 -0.9188984036445618
vn -0.3771091401576996 0.2846932113170624 -0.8813276290893555
vn -0.387573778629303 0.14480261504650116 -0.9103949069976807
vn -0.3842463791370392 0.06530497223138809 -0.9209179878234863
vn -0.38357678055763245 -0.059443339705467224 -0.9215939044952393
vn -0.37855780124664307 -0.28418201208114624 -0.8808714747428894
vn 0.24406664073467255 -0.10202620923519135 0.9643765687942505
vn 0.24321454763412476 -0.048189811408519745 0.968774676322937
vn 0.21658533811569214 -0.3672636151313782 0.9045485258102417
vn 0.22493603825569153 -0.26557111740112305 0.9374837279319763
vn -0.39451462030410767 -0.14451774954795837 -0.9074540734291077
vn -0.3863627314567566 -0.2506278157234192 -0.8876426219940186
vn -0.373683363199234 -0.3538009822368622 -0.8574296832084656
vn 0.23267918825149536 -0.18850849568843842 0.9541095495223999
vn 0.23070089519023895 -0.1608256846666336 0.959641695022583
vn 0.23800669610500336 -0.05595916509628296 0.969650149345398
vn -0.3884006440639496 -0.1426190435886383 -0.9103871583938599
vn -0.3900838792324066 0.0019401024328544736 -0.9207772612571716
vn 0.24548043310642242 0.052147701382637024 0.9679979681968689
vn 0.23846998810768127 0.11119388043880463 0.9647631645202637
vn 0.23226462304592133 0.27523747086524963 0.9328972697257996
vn -0.3415893614292145 -0.4970441460609436 -0.7976614236831665
vn -0.24113869667053223 -0.7804166674613953 -0.5768898725509644
vn -0.33064576983451843 -0.5432823896408081 -0.7716977596282959
vn -0.26708653569221497 0.7237332463264465 -0.6362977623939514
vn -0.2823944389820099 0.6852668523788452 -0.6713141798973083
vn -0.24156774580478668 0.7752445936203003 -0.583644449710846
vn -0.3417573571205139 0.4919840693473816 -0.800720751285553
vn 0.21306978166103363 0.5233435034751892 0.8250532150268555
vn 0.15964698791503906 0.7894256114959717 0.5927225351333618
vn 0.18061625957489014 0.7054654955863953 0.685343861579895
vn 0.17138506472110748 0.7418537139892578 0.6482901573181152
vn 0.19075003266334534 -0.5936897397041321 0.7817588448524475
vn 0.1637183427810669 -0.7304998636245728 0.6629979014396667
vn 0.15213188529014587 -0.7803306579589844 0.6065805554389954
vn 0.1743551790714264 -0.6764319539070129 0.7155697345733643
vn 0.20574486255645752 -0.46473416686058044 0.8612149357795715
vn 0.18398071825504303 -0.6184406280517578 0.7639910578727722
vn 0.19253914058208466 -0.5568621754646301 0.8079809546470642
vn 0.19197997450828552 0.6347781419754028 0.7484652996063232
vn -0.3566250205039978 -0.45282813906669617 -0.8171690106391907
vn -0.31464818120002747 -0.6111574172973633 -0.7262803316116333
vn -0.335387647151947 -0.5465490221977234 -0.7673325538635254
vn -0.2919296622276306 -0.6719218492507935 -0.6806600093841553
vn -0.31310972571372986 0.607856035232544 -0.729707658290863
vn 0.22769539058208466 -0.2400452196598053 0.9436805844306946
vn -0.36076220870018005 -0.4197748601436615 -0.8328503966331482
vn -0.31869634985923767 -0.5879278779029846 -0.7434872984886169
vn -0.38736122846603394 0.0336395688354969 -0.9213140606880188
vn -0.3910094201564789 0.00552936689928174 -0.9203701615333557
vn -0.37841978669166565 -0.20310871303081512 -0.9030755162239075
vn 0.24209930002689362 -0.0019085361855104566 0.9702496528625488
vn 0.2399444431066513 -0.025097979232668877 0.9704620242118835
vn 0.24165266752243042 0.005787213798612356 0.9703455567359924
vn 0.24814021587371826 0.10605069249868393 0.9629016518592834
vn 0.25007084012031555 0.1596420556306839 0.9549759030342102
vn -0.37685298919677734 0.1284054070711136 -0.917329728603363
vn -0.3919294774532318 0.009118553251028061 -0.9199500679969788
vn -0.3807424306869507 0.09690425544977188 -0.9195894598960876
vt 2.322500467300415 1.7702953815460205
vt 1.8762400150299072 1.589476227760315
vt 2.310286521911621 1.3710397481918335
vt 1.8701330423355103 1.3898484110832214
vt 1.4299795627593994 1.4086570739746094
vt 1.4360864162445068 1.6082848906517029
vt 1.4421933889389038 1.8079127073287964
vt 1.4483003616333008 2.007540464401245
vt 1.8884538412094116 1.988731861114502
vt 1.8823468685150146 1.7891040444374084
vt 2.756546974182129 1.551858901977539
vt 3.190593719482422 1.3334224224090576
vt 3.2029123306274414 1.736100435256958
vt 2.7504401206970215 1.3522310853004456
vt 1.4544072151184082 2.2071683406829834
vt 1.6714305877685547 2.0979501008987427
vt 1.8946130275726318 2.190070867538452
vt 3.215230703353882 2.1387784481048584
vt 2.7688655853271484 1.9545369148254395
vt 2.775024890899658 2.1558759212493896
vt 2.3348188400268555 2.172973394393921
vt 2.7627062797546387 1.7531979084014893
vt 0.25012505054473877 0.7498474717140198
vt 0.4997502565383911 0.5001945495605469
vt 0.25000008940696716 0.5001945495605469
vt 0.5000001788139343 0.9995003938674927
vt 0.7497503757476807 0.9995003938674927
vt 0.7496253848075867 0.7498474717140198
vt 0.9995002746582031 0.5003894567489624
vt 0.9995003938674927 0.7499449253082275
vt 0.499750018119812 0.0010836124420166016
vt 0.249875009059906 0.0009861588478088379
vt 0.24987512826919556 0.250541627407074
vt 0.7496251463890076 0.2507365345954895
vt 0.999500036239624 0.001278519630432129
vt 0.0004998445510864258 0.9995003938674927
vt 0.2502500116825104 0.9995003938674927
vt 0.1253124475479126 0.8746739327907562
vt 0.00037488341331481934 0.7498474717140198
vt 0.8745629787445068 0.8746739327907562
vt 0.9995005130767822 0.9995003938674927
vt 0.00012496113777160645 0.250541627407074
vt 0.12493756413459778 0.12571513652801514
vt 0 0.0008887052536010742
vt 0.0002499222755432129 0.5001945495605469
vt 0.5 0.7497503161430359
vt 0.75 0.6873127222061157
vt 0.75 0.7497502863407135
vt 1 0.7497502565383911
vt 0.75 0.8746254444122314
vt 0.75 0.06290513277053833
vt 0.5 0.12531006336212158
vt 0.75 0.12531006336212158
vt 1 0.0005002021789550781
vt 0.5 0.0005001425743103027
vt 0 0.2501199245452881
vt 0.25 0.18771499395370483
vt 0.125 0.15651249885559082
vt 0.25 0.06290507316589355
vt 0.25 0.3125249147415161
vt 0 0.25025004148483276
vt 0.125 0.15659373998641968
vt 0.25 0.1878124475479126
vt 0.5 0.12537479400634766
vt 0.25 0.31268739700317383
vt 0.25 0.06293743848800659
vt 0.75 0.12537473440170288
vt 0.75 0.06293720006942749
vt 1 0.0004996061325073242
vt 0.5 0.0004998445510864258
vt 0.75 0.5621443390846252
vt 0.75 0.6869542598724365
vt 1 0.7493590712547302
vt 0.5 0.25011998414993286
vt 0.25 0.37492990493774414
vt 0.5 0.3749297261238098
vt 0.5 0.6245494186878204
vt 0.5 0.7493593096733093
vt 0.5 0.6248751580715179
vt 0.75 0.5624376535415649
vt 0.5 0.8746254742145538
vt 0.25 0.8121879249811172
vt 0 0.7493592500686646
vt 0.25 0.8117641508579254
vt 0.5 0.8741690516471863
vt 0.25 0.6248751878738403
vt 0 0.7497503757476807
vt 0 0.5000000596046448
vt 0.25 0.62454953789711
vt 0 0.49973976612091064
vt 0.5 0.3751249313354492
vt 0.25 0.3751249313354492
vt 0.5 0.25024986267089844
vt 0 0.8741690516471863
vt 0 0.998978853225708
vt 0.125 0.9053715020418167
vt 0.25 0.0005000829696655273
vt 0.125 0.03170257806777954
vt 0 0.0005000829696655273
vt 0 0.1253100037574768
vt 0 0.12537503242492676
vt 0 0.0005000829696655273
vt 0.125 0.03171873092651367
vt 0.25 0.0004999637603759766
vt 0.25 0.9370630234479904
vt 0.25 0.999500572681427
vt 0 0.999500572681427
vt 0.5 0.999500572681427
vt 0.75 0.9370630234479904
vt 0.75 0.999500572681427
vt 1 0.999500572681427
vt 0.75 0.000499725341796875
vt 0.75 0.9365739524364471
vt 0.75 0.998978853225708
vt 1 0.998978853225708
vt 0.5 0.998978853225708
vt 0.75 0.0005002021789550781
vt 0.25 0.7497503459453583
vt 0.75 0.8741690814495087
vt 0.25 0.9365739524364471
vt 0.25 0.4373347759246826
vt 0.5 0.49973952770233154
vt 0.75 0.7493591904640198
vt 0.25 0.4375624656677246
vt 0.5 0.5000001192092896
vt 1 0.5000001788139343
vt 0.75 0.31268739700317383
vt 1 0.25024986267089844
vt 1 0.250119686126709
vt 1 0.49973928928375244
vt 0.75 0.312524676322937
g int1320
s 1
f 1/1/1 2/2/2 3/3/3
f 2/2/2 4/4/4 3/3/3
f 2/2/2 5/5/5 4/4/4
f 6/6/6 5/5/5 2/2/2
f 7/7/7 6/6/6 2/2/2
f 8/8/8 7/7/7 9/9/9
f 7/7/7 2/2/2 10/10/10
f 1/1/1 3/3/3 11/11/11
f 12/12/12 13/13/13 11/11/11
f 11/11/11 3/3/3 14/14/14
f 15/15/15 8/8/8 16/16/16
f 16/16/16 8/8/8 9/9/9
f 9/9/9 17/17/17 16/16/16
f 16/16/16 17/17/17 15/15/15
f 11/11/11 14/14/14 12/12/12
f 13/13/13 18/18/18 19/19/19
f 19/19/19 18/18/18 20/20/20
f 19/19/19 20/20/20 21/21/21
f 22/22/22 19/19/19 1/1/1
f 13/13/13 19/19/19 22/22/22
f 11/11/11 13/13/13 22/22/22
f 11/11/11 22/22/22 1/1/1
f 9/9/9 21/21/21 17/17/17
f 1/1/1 19/19/19 21/21/21
f 1/1/1 21/21/21 9/9/9
f 10/10/10 2/2/2 1/1/1
f 9/9/9 10/10/10 1/1/1
f 9/9/9 7/7/7 10/10/10
g int1321
s 1
f 23/23/23 24/24/24 25/25/25
f 26/26/26 27/27/27 28/28/28
f 29/29/29 28/28/28 30/30/30
f 31/31/31 32/32/32 33/33/33
f 34/34/34 31/31/31 24/24/24
f 35/35/35 31/31/31 34/34/34
f 35/35/35 34/34/34 29/29/29
f 34/34/34 24/24/24 29/29/29
f 31/31/31 33/33/33 24/24/24
f 29/29/29 24/24/24 28/28/28
f 26/26/26 28/28/28 24/24/24
f 23/23/23 26/26/26 24/24/24
f 36/36/36 37/37/37 38/38/38
f 38/38/38 37/37/37 23/23/23
f 38/38/38 23/23/23 39/39/39
f 36/36/36 38/38/38 39/39/39
f 27/27/27 40/40/40 28/28/28
f 27/27/27 41/41/41 40/40/40
f 30/30/30 40/40/40 41/41/41
f 30/30/30 28/28/28 40/40/40
f 42/42/42 43/43/43 44/44/44
f 42/42/42 33/33/33 43/43/43
f 32/32/32 43/43/43 33/33/33
f 32/32/32 44/44/44 43/43/43
f 45/45/45 33/33/33 42/42/42
f 37/37/37 26/26/26 23/23/23
f 39/39/39 23/23/23 45/45/45
f 25/25/25 24/24/24 33/33/33
f 23/23/23 25/25/25 45/45/45
f 45/45/45 25/25/25 33/33/33
g int1322
s 1
f 46/46/46 47/47/47 48/48/48
f 48/48/48 47/47/47 49/49/49
f 50/50/50 48/48/48 49/49/49
f 50/50/50 46/46/46 48/48/48
f 51/51/51 52/52/52 53/53/53
f 54/54/54 51/51/51 53/53/53
f 52/52/52 51/51/51 55/55/55
f 56/56/56 57/57/57 58/58/58
f 58/58/58 57/57/57 59/59/59
f 57/57/57 56/56/56 60/60/60
f 52/52/52 57/57/57 60/60/60
f 57/57/57 52/52/52 59/59/59
f 61/61/61 62/62/62 63/63/63
f 63/63/63 62/62/62 64/64/64
f 65/65/65 63/63/63 64/64/64
f 65/65/65 61/61/61 63/63/63
f 62/62/62 66/66/66 64/64/64
f 67/67/67 68/68/68 69/69/69
f 67/67/67 64/64/64 68/68/68
f 64/64/64 70/70/70 68/68/68
f 71/71/71 72/72/72 73/73/73
f 74/74/74 75/75/75 76/76/76
f 71/71/71 77/77/77 72/72/72
f 72/72/72 77/77/77 78/78/78
f 47/47/47 79/79/79 80/80/80
f 49/49/49 47/47/47 80/80/80
f 81/81/81 82/82/82 46/46/46
f 78/78/78 83/83/83 84/84/84
f 78/78/78 84/84/84 85/85/85
f 86/86/86 87/87/87 88/88/88
f 46/46/46 86/86/86 79/79/79
f 86/86/86 88/88/88 79/79/79
f 89/89/89 83/83/83 78/78/78
f 90/90/90 83/83/83 89/89/89
f 77/77/77 90/90/90 89/89/89
f 77/77/77 89/89/89 78/78/78
f 91/91/91 92/92/92 93/93/93
f 92/92/92 65/65/65 93/93/93
f 88/88/88 65/65/65 92/92/92
f 74/74/74 60/60/60 75/75/75
f 75/75/75 60/60/60 90/90/90
f 46/46/46 79/79/79 47/47/47
f 94/94/94 95/95/95 96/96/96
f 83/83/83 94/94/94 96/96/96
f 59/59/59 97/97/97 98/98/98
f 98/98/98 97/97/97 99/99/99
f 58/58/58 98/98/98 99/99/99
f 58/58/58 59/59/59 98/98/98
f 56/56/56 58/58/58 100/100/100
f 100/100/100 58/58/58 99/99/99
f 101/101/101 102/102/102 62/62/62
f 61/61/61 101/101/101 62/62/62
f 103/103/103 102/102/102 104/104/104
f 66/66/66 103/103/103 104/104/104
f 62/62/62 103/103/103 66/66/66
f 62/62/62 102/102/102 103/103/103
f 105/105/105 106/106/106 107/107/107
f 105/105/105 108/108/108 106/106/106
f 109/109/109 110/110/110 108/108/108
f 109/109/109 111/111/111 110/110/110
f 68/68/68 112/112/112 69/69/69
f 68/68/68 70/70/70 112/112/112
f 113/113/113 114/114/114 115/115/115
f 113/113/113 116/116/116 114/114/114
f 51/51/51 117/117/117 55/55/55
f 51/51/51 54/54/54 117/117/117
f 59/59/59 55/55/55 97/97/97
f 66/66/66 104/104/104 70/70/70
f 82/82/82 118/118/118 46/46/46
f 82/82/82 87/87/87 118/118/118
f 118/118/118 87/87/87 86/86/86
f 46/46/46 118/118/118 86/86/86
f 119/119/119 113/113/113 115/115/115
f 119/119/119 85/85/85 113/113/113
f 85/85/85 116/116/116 113/113/113
f 96/96/96 120/120/120 85/85/85
f 96/96/96 95/95/95 120/120/120
f 120/120/120 95/95/95 116/116/116
f 85/85/85 120/120/120 116/116/116
f 84/84/84 96/96/96 85/85/85
f 83/83/83 96/96/96 84/84/84
f 109/109/109 81/81/81 50/50/50
f 111/111/111 109/109/109 50/50/50
f 81/81/81 109/109/109 108/108/108
f 81/81/81 108/108/108 105/105/105
f 82/82/82 105/105/105 107/107/107
f 82/82/82 81/81/81 105/105/105
f 75/75/75 121/121/121 76/76/76
f 75/75/75 90/90/90 121/121/121
f 121/121/121 90/90/90 122/122/122
f 76/76/76 121/121/121 122/122/122
f 73/73/73 72/72/72 123/123/123
f 123/123/123 72/72/72 78/78/78
f 123/123/123 78/78/78 119/119/119
f 73/73/73 123/123/123 119/119/119
f 124/124/124 88/88/88 92/92/92
f 91/91/91 124/124/124 92/92/92
f 125/125/125 124/124/124 91/91/91
f 125/125/125 88/88/88 124/124/124
f 49/49/49 80/80/80 126/126/126
f 79/79/79 88/88/88 125/125/125
f 80/80/80 125/125/125 126/126/126
f 126/126/126 125/125/125 91/91/91
f 79/79/79 125/125/125 80/80/80
f 127/127/127 91/91/91 93/93/93
f 128/128/128 127/127/127 93/93/93
f 73/73/73 119/119/119 115/115/115
f 126/126/126 127/127/127 128/128/128
f 78/78/78 85/85/85 119/119/119
f 54/54/54 53/53/53 129/129/129
f 126/126/126 91/91/91 127/127/127
f 53/53/53 74/74/74 129/129/129
f 53/53/53 52/52/52 74/74/74
f 50/50/50 81/81/81 46/46/46
f 111/111/111 50/50/50 49/49/49
f 93/93/93 64/64/64 67/67/67
f 76/76/76 122/122/122 130/130/130
f 128/128/128 67/67/67 69/69/69
f 128/128/128 93/93/93 67/67/67
f 122/122/122 90/90/90 77/77/77
f 129/129/129 131/131/131 130/130/130
f 131/131/131 76/76/76 130/130/130
f 74/74/74 76/76/76 131/131/131
f 74/74/74 131/131/131 129/129/129
f 130/130/130 71/71/71 73/73/73
f 74/74/74 52/52/52 60/60/60
f 60/60/60 56/56/56 90/90/90
f 71/71/71 122/122/122 77/77/77
f 130/130/130 122/122/122 71/71/71
f 52/52/52 55/55/55 59/59/59
f 65/65/65 64/64/64 93/93/93
f 64/64/64 66/66/66 70/70/70
f 87/87/87 82/82/82 107/107/107
f 88/88/88 61/61/61 65/65/65
